<?xml version="1.0" encoding="UTF-8" standalone="no"?>
<svg
   width="16px"
   height="16px"
   version="1.1"
   viewBox="0 0 16 16"
   id="svg1"
   sodipodi:docname="application-exit-rtl-symbolic.svg"
   inkscape:version="1.4.2 (ebf0e940d0, 2025-05-08)"
   xmlns:inkscape="http://www.inkscape.org/namespaces/inkscape"
   xmlns:sodipodi="http://sodipodi.sourceforge.net/DTD/sodipodi-0.dtd"
   xmlns="http://www.w3.org/2000/svg"
   xmlns:svg="http://www.w3.org/2000/svg">
  <defs
   id="defs1">
   <style
    id="current-color-scheme"
    type="text/css">
    .ColorScheme-Text { color:#363636; }
   </style>
  </defs>
  <sodipodi:namedview
     id="namedview1"
     pagecolor="#ffffff"
     bordercolor="#000000"
     borderopacity="0.25"
     inkscape:showpageshadow="2"
     inkscape:pageopacity="0.0"
     inkscape:pagecheckerboard="0"
     inkscape:deskcolor="#d1d1d1"
     inkscape:zoom="49.6875"
     inkscape:cx="8"
     inkscape:cy="8"
     inkscape:window-width="1920"
     inkscape:window-height="1010"
     inkscape:window-x="0"
     inkscape:window-y="0"
     inkscape:window-maximized="1"
     inkscape:current-layer="svg1" />
  <path
     id="path1"
     style="fill:currentColor"
     class="ColorScheme-Text"
     d="M 8 1 C 6.338 1 5 2.338 5 4 L 5 6 L 6 6 L 6 4 C 6 2.892 6.892 2 8 2 L 12 2 C 13.108 2 14 2.892 14 4 L 14 12 C 14 13.108 13.108 14 12 14 L 8 14 C 6.892 14 6 13.108 6 12 L 6 10 L 5 10 L 5 12 C 5 13.662 6.338 15 8 15 L 12 15 C 13.662 15 15 13.662 15 12 L 15 4 C 15 2.338 13.662 1 12 1 L 8 1 z M 3.328125 4.6699219 C 3.200315 4.6699219 3.0725494 4.7204224 2.9746094 4.8183594 L 0.14648438 7.6464844 C 0.13424237 7.6587264 0.12399225 7.6704767 0.11328125 7.6835938 L 0.11328125 7.6855469 C 0.11066345 7.6887724 0.10800125 7.6920414 0.10546875 7.6953125 C 0.09306175 7.7113735 0.082671625 7.7285538 0.072265625 7.7460938 C 0.070261425 7.749392 0.06833035 7.7525278 0.06640625 7.7558594 C 0.05592525 7.7744884 0.045175375 7.792473 0.037109375 7.8125 C 0.035047875 7.8176184 0.0331458 7.822923 0.03125 7.828125 C 0.0232249 7.849266 0.01667775 7.8707361 0.01171875 7.8925781 C 0.00775955 7.9108481 0.003867925 7.9302507 0.001953125 7.9492188 L 0.001953125 7.9511719 L 0.001953125 7.953125 C -0.000926875 7.984334 -0.001046875 8.015675 0.001953125 8.046875 L 0.001953125 8.0488281 C 0.003859025 8.0684661 0.00762445 8.0885279 0.01171875 8.1074219 C 0.01794105 8.1351859 0.026016375 8.1628431 0.037109375 8.1894531 C 0.041555875 8.2003761 0.047555375 8.2101861 0.052734375 8.2207031 C 0.060089875 8.2353611 0.067315875 8.2496229 0.076171875 8.2636719 C 0.084604675 8.2772299 0.093859625 8.2900924 0.10351562 8.3027344 C 0.10664952 8.3068124 0.11001145 8.3104486 0.11328125 8.3144531 L 0.11328125 8.3164062 C 0.12372525 8.3291192 0.13459837 8.3416296 0.14648438 8.3535156 L 2.9746094 11.181641 C 3.1704794 11.377511 3.4857706 11.377511 3.6816406 11.181641 C 3.8775106 10.985771 3.8775106 10.670479 3.6816406 10.474609 L 1.7070312 8.5 L 9.5 8.5 C 9.777 8.5 10 8.277 10 8 C 10 7.723 9.777 7.5 9.5 7.5 L 1.7070312 7.5 L 3.6816406 5.5253906 C 3.8775106 5.3295206 3.8775106 5.0142294 3.6816406 4.8183594 C 3.5837066 4.7204254 3.455935 4.6699219 3.328125 4.6699219 z " />
</svg>
