<?xml version="1.0" encoding="UTF-8" standalone="no"?>
<svg
   width="16px"
   height="16px"
   version="1.1"
   viewBox="0 0 16 16"
   id="svg1"
   sodipodi:docname="aspect-ratio-symbolic.svg"
   inkscape:version="1.4.2 (ebf0e940d0, 2025-05-08)"
   xmlns:inkscape="http://www.inkscape.org/namespaces/inkscape"
   xmlns:sodipodi="http://sodipodi.sourceforge.net/DTD/sodipodi-0.dtd"
   xmlns="http://www.w3.org/2000/svg"
   xmlns:svg="http://www.w3.org/2000/svg">
  <defs
     id="defs1">
      <style
          id="current-color-scheme"
          type="text/css">
          .ColorScheme-Text { color:#363636; }
      </style>
  </defs>
  <sodipodi:namedview
     id="namedview1"
     pagecolor="#ffffff"
     bordercolor="#000000"
     borderopacity="0.25"
     inkscape:showpageshadow="2"
     inkscape:pageopacity="0.0"
     inkscape:pagecheckerboard="0"
     inkscape:deskcolor="#d1d1d1"
     inkscape:zoom="49.125"
     inkscape:cx="7.9898219"
     inkscape:cy="8"
     inkscape:window-width="1920"
     inkscape:window-height="1011"
     inkscape:window-x="0"
     inkscape:window-y="0"
     inkscape:window-maximized="1"
     inkscape:current-layer="svg1" />
  <path
     id="path1"
     style="fill:currentColor"
     class="ColorScheme-Text"
     d="M 3 0 C 1.3555 0 0 1.3555 0 3 L 0 4 L 1 4 L 1 3 C 1 1.892 1.892 1 3 1 L 4 1 L 4 0 L 3 0 z M 6 0 L 6 1 L 10 1 L 10 0 L 6 0 z M 12 0 L 12 1 L 13 1 C 14.108 1 15 1.892 15 3 L 15 4 L 16 4 L 16 3 C 16 1.3555 14.6445 0 13 0 L 12 0 z M 0 6 L 0 10 L 1 10 L 1 6 L 0 6 z M 15 6 L 15 10 L 16 10 L 16 6 L 15 6 z M 0 12 L 0 13 C 0 14.6445 1.3555 16 3 16 L 4 16 L 4 15 L 3 15 C 1.892 15 1 14.108 1 13 L 1 12 L 0 12 z M 15 12 L 15 13 C 15 14.108 14.108 15 13 15 L 12 15 L 12 16 L 13 16 C 14.6445 16 16 14.6445 16 13 L 16 12 L 15 12 z M 6 15 L 6 16 L 10 16 L 10 15 L 6 15 z " />
</svg>
