<?xml version="1.0" encoding="UTF-8" standalone="no"?>
<svg
   width="16"
   height="16"
   version="1.1"
   id="svg6"
   sodipodi:docname="builder-keyboard-shortcuts-symbolic.svg"
   inkscape:version="1.4.2 (ebf0e940d0, 2025-05-08)"
   xmlns:inkscape="http://www.inkscape.org/namespaces/inkscape"
   xmlns:sodipodi="http://sodipodi.sourceforge.net/DTD/sodipodi-0.dtd"
   xmlns="http://www.w3.org/2000/svg"
   xmlns:svg="http://www.w3.org/2000/svg">
  <defs
      id="defs6">
      <style id="current-color-scheme" type="text/css">
          .ColorScheme-Text { color:#363636; }
      </style>
  </defs>
  <sodipodi:namedview
     id="namedview6"
     pagecolor="#ffffff"
     bordercolor="#000000"
     borderopacity="0.25"
     inkscape:showpageshadow="2"
     inkscape:pageopacity="0.0"
     inkscape:pagecheckerboard="0"
     inkscape:deskcolor="#d1d1d1"
     inkscape:zoom="49.6875"
     inkscape:cx="8"
     inkscape:cy="8"
     inkscape:window-width="1920"
     inkscape:window-height="1010"
     inkscape:window-x="0"
     inkscape:window-y="0"
     inkscape:window-maximized="1"
     inkscape:current-layer="svg6" />
  <path
     id="path1"
     style="fill:currentColor"
     class="ColorScheme-Text"
     d="M 10 0 C 8.892 0 8 0.892 8 2 L 8 5 C 8 6.108 8.892 7 10 7 L 13 7 C 14.108 7 15 6.108 15 5 L 15 2 C 15 0.892 14.108 0 13 0 L 10 0 z M 2 1 C 0.892 1 0 1.892 0 3 L 0 5 C 0 6.108 0.892 7 2 7 L 5 7 C 6.108 7 7 6.108 7 5 L 7 3 C 7 1.892 6.108 1 5 1 L 2 1 z M 10 1 L 13 1 C 13.554 1 14 1.446 14 2 L 14 5 C 14 5.554 13.554 6 13 6 L 10 6 C 9.446 6 9 5.554 9 5 L 9 2 C 9 1.446 9.446 1 10 1 z M 2 2 L 5 2 C 5.554 2 6 2.446 6 3 L 6 5 C 6 5.554 5.554 6 5 6 L 2 6 C 1.446 6 1 5.554 1 5 L 1 3 C 1 2.446 1.446 2 2 2 z M 2 8 C 0.892 8 0 8.892 0 10 L 0 13 C 0 14.108 0.892 15 2 15 L 10 15 C 11.108 15 12 14.108 12 13 L 12 10 C 12 8.892 11.108 8 10 8 L 2 8 z M 2 9 L 10 9 C 10.554 9 11 9.446 11 10 L 11 13 C 11 13.554 10.554 14 10 14 L 2 14 C 1.446 14 1 13.554 1 13 L 1 10 C 1 9.446 1.446 9 2 9 z " />
  <path
     id="path4"
     style="fill:currentColor;opacity:0.35"
     class="ColorScheme-Text"
     d="M 1 4 L 1 5 C 1 5.554 1.446 6 2 6 L 5 6 C 5.554 6 6 5.554 6 5 L 6 4 C 6 4.554 5.554 5 5 5 L 2 5 C 1.446 5 1 4.554 1 4 z M 9 4 L 9 5 C 9 5.554 9.446 6 10 6 L 13 6 C 13.554 6 14 5.554 14 5 L 14 4 C 14 4.554 13.554 5 13 5 L 10 5 C 9.446 5 9 4.554 9 4 z M 1 12 L 1 13 C 1 13.554 1.446 14 2 14 L 10 14 C 10.554 14 11 13.554 11 13 L 11 12 C 11 12.554 10.554 13 10 13 L 2 13 C 1.446 13 1 12.554 1 12 z " />
</svg>
