<?xml version="1.0" encoding="UTF-8" standalone="no"?>
<svg
   width="16px"
   height="16px"
   version="1.1"
   id="svg1"
   sodipodi:docname="cigarette-none-symbolic.svg"
   inkscape:version="1.4.2 (ebf0e940d0, 2025-05-08)"
   xmlns:inkscape="http://www.inkscape.org/namespaces/inkscape"
   xmlns:sodipodi="http://sodipodi.sourceforge.net/DTD/sodipodi-0.dtd"
   xmlns="http://www.w3.org/2000/svg"
   xmlns:svg="http://www.w3.org/2000/svg">
  <defs
     id="defs1">
     <style
        id="current-color-scheme"
        type="text/css">
        .ColorScheme-Text { color:#363636; }
     </style>
  </defs>
  <sodipodi:namedview
     id="namedview1"
     pagecolor="#ffffff"
     bordercolor="#000000"
     borderopacity="0.25"
     inkscape:showpageshadow="2"
     inkscape:pageopacity="0.0"
     inkscape:pagecheckerboard="0"
     inkscape:deskcolor="#d1d1d1"
     inkscape:zoom="49.6875"
     inkscape:cx="8"
     inkscape:cy="8"
     inkscape:window-width="1920"
     inkscape:window-height="1010"
     inkscape:window-x="0"
     inkscape:window-y="0"
     inkscape:window-maximized="1"
     inkscape:current-layer="svg1" />
  <path
     id="path1"
     d="M 3 0 A 5 5 0 0 0 8 5 L 11 5 A 1 1 0 0 1 11.101562 5.0058594 A 1 1 0 0 1 11.136719 5.0097656 C 11.144619 5.0108456 11.152336 5.0124119 11.160156 5.0136719 C 11.194286 5.0191619 11.228859 5.0263223 11.261719 5.0351562 A 1 1 0 0 1 11.269531 5.0371094 L 11.271484 5.0371094 C 11.292674 5.0430294 11.313394 5.0513438 11.333984 5.0585938 C 11.352894 5.0652538 11.372255 5.070382 11.390625 5.078125 A 1 1 0 0 1 11.398438 5.0820312 A 1 1 0 0 1 11.476562 5.1210938 C 11.483662 5.1249638 11.491007 5.1287735 11.498047 5.1328125 A 1 1 0 0 1 11.519531 5.1464844 C 11.538811 5.1582084 11.557792 5.1706307 11.576172 5.1835938 A 1 1 0 0 1 11.630859 5.2246094 L 11.632812 5.2265625 L 11.634766 5.2265625 L 11.636719 5.2285156 A 1 1 0 0 1 11.681641 5.2695312 L 11.683594 5.2714844 A 1 1 0 0 1 11.730469 5.3183594 C 11.744369 5.3332614 11.758514 5.3475453 11.771484 5.3632812 A 1 1 0 0 1 11.816406 5.4238281 C 11.829366 5.4422121 11.841796 5.4611918 11.853516 5.4804688 A 1 1 0 0 1 11.867188 5.5019531 C 11.871187 5.5089831 11.875086 5.5163005 11.878906 5.5234375 A 1 1 0 0 1 11.917969 5.6015625 C 11.919169 5.6042725 11.920775 5.606655 11.921875 5.609375 A 1 1 0 0 1 11.941406 5.6660156 C 11.948706 5.6866066 11.956971 5.7073236 11.962891 5.7285156 A 1 1 0 0 1 11.962891 5.7304688 C 11.963593 5.7329988 11.964144 5.7357412 11.964844 5.7382812 C 11.973644 5.7711422 11.980838 5.8057178 11.986328 5.8398438 A 1 1 0 0 1 11.990234 5.8632812 C 11.991834 5.8750053 11.992941 5.8865855 11.994141 5.8984375 A 1 1 0 0 1 12 6 L 12 7 L 13 7 L 13 6 A 2 2 0 0 0 11 4 L 8 4 A 4 4 0 0 1 4 0 L 3 0 z M 5 0 A 3 3 0 0 0 8 3 L 11 3 A 3 3 0 0 1 14 6 L 14 7 L 15 7 L 15 6 A 4 4 0 0 0 11 2 L 8 2 A 2 2 0 0 1 6 0 L 5 0 z M 12 8 L 12 12 L 14 12 C 14.554 12 15 11.554 15 11 L 15 9 C 15 8.446 14.554 8 14 8 L 13 8 L 12 8 z M 0 8.0117188 L 0 12.011719 L 11 12.011719 L 11 11 L 1 11 L 1 9 L 11 9 L 11 8.0117188 L 0 8.0117188 z "
     style="fill:currentColor;opacity:0.35"
     class="ColorScheme-Text" />
  <rect
     transform="rotate(45)"
     x=".31371"
     y="-.5"
     width="22"
     height="1"
     rx=".5"
     ry=".5"
     stroke-linecap="round"
     stroke-linejoin="round"
     stroke-width="1.9932"
     style="fill:currentColor"
     class="ColorScheme-Text"
     id="rect1" />
</svg>
