<?xml version="1.0" encoding="UTF-8" standalone="no"?>
<svg
   width="16"
   height="16"
   version="1.1"
   id="svg1"
   sodipodi:docname="font-select-symbolic.svg"
   inkscape:version="1.4.2 (ebf0e940d0, 2025-05-08)"
   xmlns:inkscape="http://www.inkscape.org/namespaces/inkscape"
   xmlns:sodipodi="http://sodipodi.sourceforge.net/DTD/sodipodi-0.dtd"
   xmlns="http://www.w3.org/2000/svg"
   xmlns:svg="http://www.w3.org/2000/svg">
  <defs
     id="defs1">
      <style id="current-color-scheme" type="text/css">
          .ColorScheme-Text { color:#363636; }
      </style>
  </defs>
  <sodipodi:namedview
     id="namedview1"
     pagecolor="#ffffff"
     bordercolor="#000000"
     borderopacity="0.25"
     inkscape:showpageshadow="2"
     inkscape:pageopacity="0.0"
     inkscape:pagecheckerboard="0"
     inkscape:deskcolor="#d1d1d1"
     inkscape:zoom="49.6875"
     inkscape:cx="8"
     inkscape:cy="8"
     inkscape:window-width="1920"
     inkscape:window-height="1010"
     inkscape:window-x="0"
     inkscape:window-y="0"
     inkscape:window-maximized="1"
     inkscape:current-layer="svg1" />
  <path
     id="path1"
     style="fill:currentColor"
     class="ColorScheme-Text"
     d="M 7.4394531 3 L 3.8769531 12.28125 L 3.0019531 12.28125 L 3.0019531 13 L 5.8144531 13 L 5.8144531 12.28125 L 4.7207031 12.28125 L 5.5644531 10.09375 L 9.7519531 10.09375 L 10.595703 12.28125 L 9.5019531 12.28125 L 9.5019531 13 L 13.126953 13 L 13.126953 12.28125 L 12.126953 12.28125 L 8.5644531 3 L 7.4394531 3 z M 7.6582031 4.625 L 9.5019531 9.375 L 5.8457031 9.375 L 7.6582031 4.625 z M 0.81445312 6.109375 L 0.18945312 6.890625 L 2.2011719 8.5 L 0.18945312 10.109375 L 0.81445312 10.890625 L 3.8027344 8.5 L 0.81445312 6.109375 z M 15.177734 6.109375 L 12.189453 8.5 L 15.177734 10.890625 L 15.802734 10.109375 L 13.791016 8.5 L 15.802734 6.890625 L 15.177734 6.109375 z " />
</svg>
