<?xml version="1.0" encoding="UTF-8" standalone="no"?>
<svg
   width="16"
   height="16"
   version="1.1"
   id="svg1"
   sodipodi:docname="format-text-italic-es-symbolic.svg"
   inkscape:version="1.4.2 (ebf0e940d0, 2025-05-08)"
   xmlns:inkscape="http://www.inkscape.org/namespaces/inkscape"
   xmlns:sodipodi="http://sodipodi.sourceforge.net/DTD/sodipodi-0.dtd"
   xmlns="http://www.w3.org/2000/svg"
   xmlns:svg="http://www.w3.org/2000/svg">
  <defs
     id="defs1">
     <style
        id="current-color-scheme"
        type="text/css">
        .ColorScheme-Text { color:#363636; }
     </style>
  </defs>
  <sodipodi:namedview
     id="namedview1"
     pagecolor="#ffffff"
     bordercolor="#000000"
     borderopacity="0.25"
     inkscape:showpageshadow="2"
     inkscape:pageopacity="0.0"
     inkscape:pagecheckerboard="0"
     inkscape:deskcolor="#d1d1d1"
     inkscape:zoom="49.6875"
     inkscape:cx="8"
     inkscape:cy="8"
     inkscape:window-width="1920"
     inkscape:window-height="1010"
     inkscape:window-x="0"
     inkscape:window-y="0"
     inkscape:window-maximized="1"
     inkscape:current-layer="svg1" />
  <path
     id="path1"
     style="fill:currentColor"
     class="ColorScheme-Text"
     d="M 9.6464844 2.2480469 C 8.5722844 2.2480469 7.629226 2.4347873 6.8183594 2.8066406 C 6.012706 3.1785073 5.2941425 3.7533365 4.6640625 4.5332031 C 4.0701358 5.2665365 3.6131754 6.0784635 3.2929688 6.9667969 C 2.9779288 7.8550635 2.8203125 8.758401 2.8203125 9.6777344 C 2.8203125 11.113534 3.236826 12.233396 4.0683594 13.039062 C 4.905026 13.844729 6.0646083 14.248047 7.546875 14.248047 C 8.176955 14.248047 8.8047675 14.181155 9.4296875 14.046875 C 10.059768 13.912595 10.680335 13.714565 11.294922 13.451172 L 11.660156 11.599609 C 11.03523 12.059269 10.391542 12.404312 9.7304688 12.636719 C 9.0694021 12.863959 8.379976 12.978516 7.6621094 12.978516 C 6.6240227 12.978516 5.8326029 12.701051 5.2851562 12.148438 C 4.7428696 11.595838 4.4707031 10.793834 4.4707031 9.7402344 C 4.4707031 9.110121 4.5508375 8.4849877 4.7109375 7.8652344 C 4.8762042 7.2403477 5.1139481 6.6495769 5.4238281 6.0917969 C 5.9093281 5.2241635 6.4841573 4.5777969 7.1503906 4.1542969 C 7.8217906 3.7307969 8.5992885 3.5195313 9.4824219 3.5195312 C 10.128009 3.5195313 10.728637 3.6400725 11.28125 3.8828125 C 11.83905 4.1255792 12.365528 4.4970802 12.861328 4.9980469 L 13.177734 3.3496094 L 13.177734 3.3476562 C 12.666468 2.9809696 12.113465 2.7081038 11.519531 2.5273438 C 10.930738 2.3414171 10.307558 2.2480469 9.6464844 2.2480469 z " />
</svg>
