<?xml version="1.0" encoding="UTF-8" standalone="no"?>
<svg
   height="16"
   width="16"
   enable-background="new"
   version="1.1"
   id="svg1"
   sodipodi:docname="mail-flag-symbolic.svg"
   inkscape:version="1.4.2 (ebf0e940d0, 2025-05-08)"
   xmlns:inkscape="http://www.inkscape.org/namespaces/inkscape"
   xmlns:sodipodi="http://sodipodi.sourceforge.net/DTD/sodipodi-0.dtd"
   xmlns="http://www.w3.org/2000/svg"
   xmlns:svg="http://www.w3.org/2000/svg">
  <sodipodi:namedview
     id="namedview1"
     pagecolor="#ffffff"
     bordercolor="#000000"
     borderopacity="0.25"
     inkscape:showpageshadow="2"
     inkscape:pageopacity="0.0"
     inkscape:pagecheckerboard="0"
     inkscape:deskcolor="#d1d1d1"
     inkscape:zoom="49.6875"
     inkscape:cx="8"
     inkscape:cy="8"
     inkscape:window-width="1920"
     inkscape:window-height="1010"
     inkscape:window-x="0"
     inkscape:window-y="0"
     inkscape:window-maximized="1"
     inkscape:current-layer="svg1" />
  <defs
     id="defs1">
     <style
        id="current-color-scheme"
        type="text/css">
        .ColorScheme-Text { color:#363636; }
     </style>
  </defs>
  <path
     id="rect1"
     style="fill:currentColor"
     class="ColorScheme-Text"
     d="M 12.396484 0.83203125 C 9.7800978 0.84925116 8.9360313 5.1484375 5 2 L 5 10 C 10 14 10 6 15 10 L 15 2 C 14.063 1.25 13.30825 0.90775 12.65625 0.84375 C 12.568 0.835 12.480884 0.83147577 12.396484 0.83203125 z M 3 1 L 3 16 L 4 16 L 4 1 L 3 1 z M 12.34375 1.8632812 C 12.72577 1.8599043 13.2545 2.043625 14 2.5625 L 14 8.25 C 13.253 7.93 12.525 7.771 11.875 7.875 C 10.765 8.053 10 8.71875 9.375 9.21875 C 8.75 9.71875 8.2645 10.053 7.8125 10.125 C 7.4225 10.187 6.852 10.0305 6 9.4375 L 6 3.75 C 6.748 4.07 7.475 4.229 8.125 4.125 C 9.235 3.947 10 3.28125 10.625 2.78125 C 11.25 2.28125 11.7345 1.947 12.1875 1.875 C 12.23625 1.86725 12.289176 1.8637637 12.34375 1.8632812 z " />
</svg>
