<?xml version="1.0" encoding="UTF-8" standalone="no"?>
<svg
   width="16"
   height="16"
   version="1.1"
   id="svg2"
   sodipodi:docname="path-difference-symbolic.svg"
   inkscape:version="1.4.2 (ebf0e940d0, 2025-05-08)"
   xmlns:inkscape="http://www.inkscape.org/namespaces/inkscape"
   xmlns:sodipodi="http://sodipodi.sourceforge.net/DTD/sodipodi-0.dtd"
   xmlns="http://www.w3.org/2000/svg"
   xmlns:svg="http://www.w3.org/2000/svg">
  <defs
      id="defs2">
      <style
          id="current-color-scheme"
          type="text/css">
          .ColorScheme-Text { color:#363636; }
      </style>
  </defs>
  <sodipodi:namedview
     id="namedview2"
     pagecolor="#ffffff"
     bordercolor="#000000"
     borderopacity="0.25"
     inkscape:showpageshadow="2"
     inkscape:pageopacity="0.0"
     inkscape:pagecheckerboard="0"
     inkscape:deskcolor="#d1d1d1"
     inkscape:zoom="49.6875"
     inkscape:cx="8"
     inkscape:cy="8"
     inkscape:window-width="1920"
     inkscape:window-height="1010"
     inkscape:window-x="0"
     inkscape:window-y="0"
     inkscape:window-maximized="1"
     inkscape:current-layer="svg2" />
  <path
     id="path1"
     style="fill:currentColor"
     class="ColorScheme-Text"
     d="M 10.173828 0.001953125 A 6 6 0 0 0 4.0898438 5 L 1 5 C 0.446 5 0 5.446 0 6 L 0 15 C 0 15.554 0.446 16 1 16 L 10 16 C 10.554 16 11 15.554 11 15 L 11 11.912109 A 6 6 0 0 0 16 6 A 6 6 0 0 0 10.173828 0.001953125 z M 10.144531 1.0019531 A 5 5 0 0 1 10.146484 1.0019531 A 5 5 0 0 1 11.136719 1.1308594 A 5 5 0 0 1 13.332031 2.2714844 A 5 5 0 0 1 14.005859 3.0078125 A 5 5 0 0 1 14.285156 3.421875 A 5 5 0 0 1 14.285156 3.4238281 A 5 5 0 0 1 14.710938 4.3261719 A 5 5 0 0 1 15 6 A 5 5 0 0 1 14.605469 7.9472656 A 5 5 0 0 1 14.388672 8.3964844 A 5 5 0 0 1 14.388672 8.3984375 A 5 5 0 0 1 14.289062 8.5585938 A 5 5 0 0 1 13.826172 9.2207031 A 5 5 0 0 1 12.267578 10.457031 A 5 5 0 0 1 8.3828125 10.732422 A 5 5 0 0 1 7.921875 10.548828 A 5 5 0 0 1 7.9199219 10.546875 A 5 5 0 0 1 6.3144531 9.3808594 A 5 5 0 0 1 6.2460938 9.2988281 A 5 5 0 0 1 5.9941406 8.9921875 A 5 5 0 0 1 5.7167969 8.5820312 A 5 5 0 0 1 5.7148438 8.578125 A 5 5 0 0 1 5.2890625 7.6757812 A 5 5 0 0 1 5.1464844 7.2011719 A 5 5 0 0 1 5.0878906 6.8984375 A 5 5 0 0 1 5.0507812 6.7070312 A 5 5 0 0 1 5.0039062 6.2128906 A 5 5 0 0 1 5.0039062 6.2089844 A 5 5 0 0 1 5 6 A 5 5 0 0 1 5.0253906 5.5019531 A 5 5 0 0 1 5.0253906 5.5 A 5 5 0 0 1 5.0996094 5.0078125 A 5 5 0 0 1 5.0996094 5.0058594 A 5 5 0 0 1 5.2226562 4.5234375 A 5 5 0 0 1 5.2226562 4.5214844 A 5 5 0 0 1 5.3945312 4.0527344 A 5 5 0 0 1 5.8730469 3.1757812 A 5 5 0 0 1 6.1757812 2.7792969 A 5 5 0 0 1 7.2988281 1.7929688 A 5 5 0 0 1 8.1875 1.3398438 A 5 5 0 0 1 10.144531 1.0019531 z M 1.5 6 L 4 6 A 6 6 0 0 0 10 11.996094 L 10 14.5 C 10 14.777 9.777 15 9.5 15 L 1.5 15 C 1.223 15 1 14.777 1 14.5 L 1 6.5 C 1 6.223 1.223 6 1.5 6 z " />
  <path
     id="path2"
     style="fill:currentColor;opacity:0.25"
     class="ColorScheme-Text"
     d="M 1.5,6 C 1.223,6 1,6.223 1,6.5 v 8 C 1,14.777 1.223,15 1.5,15 h 8 C 9.777,15 10,14.777 10,14.5 V 11.994141 C 6.6885782,11.994143 4.0032336,9.3114202 4,6 Z"
     sodipodi:nodetypes="ssssssccs" />
</svg>
