<?xml version="1.0" encoding="UTF-8" standalone="no"?>
<svg
   width="16px"
   height="16px"
   version="1.1"
   id="svg1"
   sodipodi:docname="strong-language-none-symbolic.svg"
   inkscape:version="1.4.2 (ebf0e940d0, 2025-05-08)"
   xmlns:inkscape="http://www.inkscape.org/namespaces/inkscape"
   xmlns:sodipodi="http://sodipodi.sourceforge.net/DTD/sodipodi-0.dtd"
   xmlns="http://www.w3.org/2000/svg"
   xmlns:svg="http://www.w3.org/2000/svg">
  <defs
      id="defs1">
      <style
          id="current-color-scheme"
          type="text/css">
          .ColorScheme-Text { color:#363636; }
      </style>
  </defs>
  <sodipodi:namedview
     id="namedview1"
     pagecolor="#ffffff"
     bordercolor="#000000"
     borderopacity="0.25"
     inkscape:showpageshadow="2"
     inkscape:pageopacity="0.0"
     inkscape:pagecheckerboard="0"
     inkscape:deskcolor="#d1d1d1"
     inkscape:zoom="49.6875"
     inkscape:cx="8"
     inkscape:cy="8"
     inkscape:window-width="1920"
     inkscape:window-height="1010"
     inkscape:window-x="0"
     inkscape:window-y="0"
     inkscape:window-maximized="1"
     inkscape:current-layer="svg1" />
  <path
     id="path1"
     d="M 4 2 L 4 5 L 2 5 L 2 6 L 4 6 L 4 10 L 2 10 L 2 11 L 4 11 L 4 14 L 5 14 L 5 11 L 9 11 L 9 14 L 10 14 L 10 11 L 12 11 L 12 10 L 10 10 L 10 6 L 12 6 L 12 5 L 10 5 L 10 2 L 9 2 L 9 5 L 5 5 L 5 2 L 4 2 z M 13.5 2 C 13.223 2 13 2.223 13 2.5 L 13 11.5 C 13 11.777 13.223 12 13.5 12 C 13.777 12 14 11.777 14 11.5 L 14 2.5 C 14 2.223 13.777 2 13.5 2 z M 5 6 L 9 6 L 9 10 L 5 10 L 5 6 z M 13.5 13 A 0.5 0.5 0 0 0 13 13.5 A 0.5 0.5 0 0 0 13.5 14 A 0.5 0.5 0 0 0 14 13.5 A 0.5 0.5 0 0 0 13.5 13 z "
     style="fill:currentColor;opacity:0.35"
     class="ColorScheme-Text"/>
  <rect
     transform="rotate(45)"
     x=".31371"
     y="-.5"
     width="22"
     height="1"
     rx=".5"
     ry=".5"
     style="fill:currentColor"
     class="ColorScheme-Text"
     id="rect1" />
</svg>
