<?xml version="1.0" encoding="UTF-8" standalone="no"?>
<svg
   width="16px"
   height="16px"
   version="1.1"
   viewBox="0 0 16 16"
   id="svg4"
   sodipodi:docname="system-switch-user-rtl-symbolic.svg"
   inkscape:version="1.4.2 (ebf0e940d0, 2025-05-08)"
   xmlns:inkscape="http://www.inkscape.org/namespaces/inkscape"
   xmlns:sodipodi="http://sodipodi.sourceforge.net/DTD/sodipodi-0.dtd"
   xmlns="http://www.w3.org/2000/svg"
   xmlns:svg="http://www.w3.org/2000/svg">
  <defs
      id="defs4">
      <style
          id="current-color-scheme"
          type="text/css">
          .ColorScheme-Text { color:#363636; }
      </style>
  </defs>
  <sodipodi:namedview
     id="namedview4"
     pagecolor="#ffffff"
     bordercolor="#000000"
     borderopacity="0.25"
     inkscape:showpageshadow="2"
     inkscape:pageopacity="0.0"
     inkscape:pagecheckerboard="0"
     inkscape:deskcolor="#d1d1d1"
     inkscape:zoom="49.6875"
     inkscape:cx="8"
     inkscape:cy="8"
     inkscape:window-width="1920"
     inkscape:window-height="1010"
     inkscape:window-x="0"
     inkscape:window-y="0"
     inkscape:window-maximized="1"
     inkscape:current-layer="svg4" />
  <path
     id="rect1"
     style="fill:currentColor"
     class="ColorScheme-Text"
     d="M -7.1230469 3.8769531 C -6.9952367 3.8769531 -6.867466 3.9274559 -6.7695312 4.0253906 L -4.6484375 6.1464844 C -4.6471097 6.1478122 -4.6458411 6.1490519 -4.6445312 6.1503906 C -4.6273359 6.1679612 -4.6121171 6.1870708 -4.5976562 6.2070312 C -4.5843997 6.2252576 -4.5729896 6.2442279 -4.5625 6.2636719 C -4.5583654 6.2713666 -4.5545181 6.2791771 -4.5507812 6.2871094 C -4.5426138 6.3044206 -4.5353613 6.3218963 -4.5292969 6.3398438 C -4.5284315 6.3424005 -4.5281689 6.3450809 -4.5273438 6.3476562 C -4.5213124 6.3664868 -4.5154539 6.3850101 -4.5117188 6.4042969 C -4.5106849 6.4096132 -4.5086775 6.4145457 -4.5078125 6.4199219 C -4.5076088 6.4211952 -4.5080063 6.4225536 -4.5078125 6.4238281 C -4.5056183 6.4381851 -4.504861 6.4520571 -4.5039062 6.4667969 C -4.5033555 6.475219 -4.5020772 6.4837518 -4.5019531 6.4921875 C -4.5019136 6.4947887 -4.5019531 6.497389 -4.5019531 6.5 C -4.5019531 6.5053168 -4.5037431 6.5103492 -4.5039062 6.515625 C -4.5043619 6.5298542 -4.5041888 6.5444367 -4.5058594 6.5585938 C -4.5070635 6.568986 -4.5079389 6.5796596 -4.5097656 6.5898438 C -4.5103524 6.5930714 -4.5110679 6.5963914 -4.5117188 6.5996094 C -4.5155416 6.618732 -4.521419 6.6379951 -4.5273438 6.65625 C -4.5348937 6.6792191 -4.5437079 6.7007449 -4.5546875 6.7226562 C -4.5570663 6.727466 -4.5599726 6.7316084 -4.5625 6.7363281 C -4.5813285 6.7710978 -4.6031716 6.8054357 -4.6308594 6.8359375 C -4.6360639 6.8416944 -4.6429723 6.8480084 -4.6484375 6.8535156 C -4.6570071 6.8620989 -4.6666057 6.8690111 -4.6757812 6.8769531 C -4.6824743 6.8827367 -4.6883985 6.8891604 -4.6953125 6.8945312 C -4.7004764 6.8985417 -4.7056137 6.9024409 -4.7109375 6.90625 C -4.7296916 6.9197081 -4.749515 6.9328102 -4.7695312 6.9433594 L -4.7714844 6.9433594 C -4.7892672 6.9526493 -4.8076293 6.9597963 -4.8261719 6.9667969 C -4.8636897 6.9809403 -4.9021013 6.9913035 -4.9433594 6.9960938 C -4.9466879 6.9964814 -4.9497908 6.9977264 -4.953125 6.9980469 C -4.9692503 6.9996023 -4.9854064 7 -5.0019531 7 L -11.001953 7 C -11.278953 7 -11.501953 6.777 -11.501953 6.5 C -11.501953 6.223 -11.278953 6 -11.001953 6 L -6.2089844 6 L -7.4765625 4.7324219 C -7.672432 4.5365524 -7.672432 4.2212601 -7.4765625 4.0253906 C -7.3786278 3.9274559 -7.250857 3.8769531 -7.1230469 3.8769531 z M -5.0019531 9 C -4.7249531 9 -4.5019531 9.223 -4.5019531 9.5 C -4.5019531 9.777 -4.7249531 10 -5.0019531 10 L -9.7949219 10 L -8.5253906 11.269531 C -8.3295212 11.465401 -8.3295212 11.780693 -8.5253906 11.976562 C -8.7212601 12.172432 -9.0365524 12.172432 -9.2324219 11.976562 L -11.320312 9.8867188 C -11.345383 9.866046 -11.366122 9.8415413 -11.386719 9.8164062 C -11.396386 9.8046317 -11.405632 9.7936451 -11.414062 9.78125 C -11.414572 9.7805008 -11.415511 9.7800482 -11.416016 9.7792969 C -11.423366 9.7683986 -11.43101 9.7575854 -11.4375 9.7460938 C -11.438927 9.7435578 -11.440027 9.7408361 -11.441406 9.7382812 C -11.449086 9.7241096 -11.454629 9.7102773 -11.460938 9.6953125 C -11.46728 9.6803464 -11.473702 9.665782 -11.478516 9.6503906 C -11.478702 9.649794 -11.478331 9.6490347 -11.478516 9.6484375 C -11.478706 9.6478228 -11.478328 9.6471001 -11.478516 9.6464844 C -11.483058 9.631567 -11.487123 9.6167621 -11.490234 9.6015625 C -11.493667 9.5847938 -11.496356 9.5677584 -11.498047 9.5507812 C -11.498897 9.5423566 -11.49957 9.5339362 -11.5 9.5253906 C -11.500411 9.5170767 -11.501958 9.508322 -11.501953 9.5 C -11.501953 9.4973949 -11.501992 9.4947829 -11.501953 9.4921875 C -11.501619 9.4711008 -11.499094 9.4506063 -11.496094 9.4296875 C -11.496005 9.4290465 -11.496185 9.4283746 -11.496094 9.4277344 C -11.492915 9.4061771 -11.488435 9.3843615 -11.482422 9.3632812 C -11.471361 9.3238242 -11.455368 9.2867676 -11.435547 9.2519531 C -11.435096 9.2511606 -11.434049 9.2507898 -11.433594 9.25 C -11.427406 9.2394161 -11.421095 9.2289593 -11.414062 9.21875 C -11.409051 9.211389 -11.403826 9.2043355 -11.398438 9.1972656 C -11.38801 9.1837426 -11.377234 9.1689061 -11.365234 9.15625 C -11.35598 9.146457 -11.345954 9.1379224 -11.335938 9.1289062 C -11.329742 9.1233187 -11.322803 9.1185049 -11.316406 9.1132812 C -11.292213 9.0936165 -11.265944 9.0754577 -11.238281 9.0605469 C -11.236973 9.0598418 -11.23569 9.0592874 -11.234375 9.0585938 C -11.22419 9.0532262 -11.213577 9.0475832 -11.203125 9.0429688 C -11.196964 9.040266 -11.189883 9.0376152 -11.183594 9.0351562 C -11.177176 9.0326362 -11.170557 9.0295875 -11.164062 9.0273438 C -11.157063 9.0249318 -11.149717 9.0235915 -11.142578 9.0214844 C -11.126831 9.0168364 -11.112066 9.0128701 -11.095703 9.0097656 C -11.092406 9.0091246 -11.089245 9.0083864 -11.085938 9.0078125 C -11.074083 9.0058174 -11.060956 9.0031043 -11.048828 9.0019531 C -11.046842 9.0017622 -11.044957 9.0021202 -11.042969 9.0019531 C -11.028921 9.0007778 -11.016315 9 -11.001953 9 L -5.0019531 9 z "
     transform="scale(-1,1)" />
  <path
     id="path4"
     style="fill:currentColor"
     class="ColorScheme-Text"
     d="M 8 1 A 7 7 0 0 0 1 8 A 7 7 0 0 0 8 15 A 7 7 0 0 0 15 8 A 7 7 0 0 0 8 1 z M 8 2 A 6 6 0 0 1 14 8 A 6 6 0 0 1 8 14 A 6 6 0 0 1 2 8 A 6 6 0 0 1 8 2 z " />
</svg>
