<?xml version="1.0" encoding="UTF-8" standalone="no"?>
<svg
   height="16"
   width="16"
   version="1.1"
   id="svg1"
   sodipodi:docname="view-dual-symbolic.svg"
   inkscape:version="1.4.2 (ebf0e940d0, 2025-05-08)"
   xmlns:inkscape="http://www.inkscape.org/namespaces/inkscape"
   xmlns:sodipodi="http://sodipodi.sourceforge.net/DTD/sodipodi-0.dtd"
   xmlns="http://www.w3.org/2000/svg"
   xmlns:svg="http://www.w3.org/2000/svg">
  <defs
     id="defs1">
    <style
       id="current-color-scheme"
       type="text/css">
        .ColorScheme-Text { color:#363636; }
     </style>
  </defs>
  <sodipodi:namedview
     id="namedview1"
     pagecolor="#ffffff"
     bordercolor="#000000"
     borderopacity="0.25"
     inkscape:showpageshadow="2"
     inkscape:pageopacity="0.0"
     inkscape:pagecheckerboard="0"
     inkscape:deskcolor="#d1d1d1"
     inkscape:zoom="49.6875"
     inkscape:cx="8"
     inkscape:cy="8"
     inkscape:window-width="1920"
     inkscape:window-height="1010"
     inkscape:window-x="0"
     inkscape:window-y="0"
     inkscape:window-maximized="1"
     inkscape:current-layer="svg1" />
  <path
     id="path1"
     style="fill:currentColor"
     class="ColorScheme-Text"
     d="M 0 1 L 0 14 L 6 14 C 6.975 14 7.6015625 14.800781 7.6015625 14.800781 L 7.9921875 15.318359 L 8.3925781 14.808594 C 8.3925781 14.808594 9.0439062 14.015 10.003906 14 L 16 14 L 16 1 L 10 1 C 8.964 1 8.365 1.4653125 8 1.8203125 C 7.635 1.4653125 7.036 1 6 1 L 0 1 z M 1 2 L 6 2 C 6.983 2 7.5996094 2.7988281 7.5996094 2.7988281 L 8 3.3339844 L 8.4003906 2.7988281 C 8.4003906 2.7988281 9.017 2 10 2 L 15 2 L 15 13 L 9.9921875 13 C 8.9671875 13.015 8.3679063 13.478219 8.0039062 13.824219 A 2.791 2.791 0 0 0 6 13 L 1 13 L 1 2 z M 2 4 L 2 5 L 6 5 L 6 4 L 2 4 z M 9 4 L 9 5 L 13 5 L 13 4 L 9 4 z M 2 6 L 2 7 L 6 7 L 6 6 L 2 6 z M 9 6 L 9 7 L 13 7 L 13 6 L 9 6 z M 2 8 L 2 9 L 6 9 L 6 8 L 2 8 z M 9 8 L 9 9 L 13 9 L 13 8 L 9 8 z M 2 10 L 2 11 L 6 11 L 6 10 L 2 10 z M 9 10 L 9 11 L 13 11 L 13 10 L 9 10 z " />
</svg>
