<?xml version="1.0" encoding="UTF-8" standalone="no"?>
<svg
   height="16"
   width="16"
   version="1.1"
   id="svg3"
   sodipodi:docname="view-more-horizontal-symbolic.svg"
   inkscape:version="1.4.2 (ebf0e940d0, 2025-05-08)"
   xmlns:inkscape="http://www.inkscape.org/namespaces/inkscape"
   xmlns:sodipodi="http://sodipodi.sourceforge.net/DTD/sodipodi-0.dtd"
   xmlns="http://www.w3.org/2000/svg"
   xmlns:svg="http://www.w3.org/2000/svg">
  <defs
     id="defs3">
     <style
        id="current-color-scheme"
        type="text/css">
        .ColorScheme-Text { color:#363636; }
     </style>
  </defs>
  <sodipodi:namedview
     id="namedview3"
     pagecolor="#ffffff"
     bordercolor="#000000"
     borderopacity="0.25"
     inkscape:showpageshadow="2"
     inkscape:pageopacity="0.0"
     inkscape:pagecheckerboard="0"
     inkscape:deskcolor="#d1d1d1"
     inkscape:zoom="49.6875"
     inkscape:cx="8"
     inkscape:cy="8"
     inkscape:window-width="1920"
     inkscape:window-height="1010"
     inkscape:window-x="0"
     inkscape:window-y="0"
     inkscape:window-maximized="1"
     inkscape:current-layer="svg3" />
  <path
     id="rect1"
     style="fill:currentColor"
     class="ColorScheme-Text"
     d="M 8 -3 C 7.446 -3 7 -3.446 7 -4 C 7 -4.554 7.446 -5 8 -5 C 8.554 -5 9 -4.554 9 -4 C 9 -3.446 8.554 -3 8 -3 z M 8 -7 C 7.446 -7 7 -7.446 7 -8 C 7 -8.554 7.446 -9 8 -9 C 8.554 -9 9 -8.554 9 -8 C 9 -7.446 8.554 -7 8 -7 z M 8 -11 C 7.446 -11 7 -11.446 7 -12 C 7 -12.554 7.446 -13 8 -13 C 8.554 -13 9 -12.554 9 -12 C 9 -11.446 8.554 -11 8 -11 z "
     transform="scale(1,-1)" />
</svg>
