<?xml version="1.0" encoding="UTF-8" standalone="no"?>
<svg
   width="16"
   height="16"
   version="1.1"
   viewBox="0 0 16 16"
   id="svg2"
   sodipodi:docname="wheelchair-limited-symbolic.svg"
   inkscape:version="1.4.2 (ebf0e940d0, 2025-05-08)"
   xmlns:inkscape="http://www.inkscape.org/namespaces/inkscape"
   xmlns:sodipodi="http://sodipodi.sourceforge.net/DTD/sodipodi-0.dtd"
   xmlns="http://www.w3.org/2000/svg"
   xmlns:svg="http://www.w3.org/2000/svg"
   xmlns:rdf="http://www.w3.org/1999/02/22-rdf-syntax-ns#"
   xmlns:cc="http://creativecommons.org/ns#"
   xmlns:dc="http://purl.org/dc/elements/1.1/">
  <defs
     id="defs2" />
  <sodipodi:namedview
     id="namedview2"
     pagecolor="#ffffff"
     bordercolor="#000000"
     borderopacity="0.25"
     inkscape:showpageshadow="2"
     inkscape:pageopacity="0.0"
     inkscape:pagecheckerboard="0"
     inkscape:deskcolor="#d1d1d1"
     inkscape:zoom="49.6875"
     inkscape:cx="8"
     inkscape:cy="8"
     inkscape:window-width="1920"
     inkscape:window-height="1010"
     inkscape:window-x="0"
     inkscape:window-y="0"
     inkscape:window-maximized="1"
     inkscape:current-layer="svg2" />
  <title
     id="title1">Gnome Symbolic Icon Theme</title>
  <path
     id="path1"
     style="fill:#363636;stroke-linecap:round;stroke-linejoin:round;-inkscape-stroke:none;paint-order:stroke fill markers"
     d="M 6 -0.01171875 A 2 2 0 0 0 4 1.9882812 A 2 2 0 0 0 4.8808594 3.6425781 L 7.0292969 9.65625 A 0.50005 0.50005 0 0 0 7.5 9.9882812 L 11.675781 9.9882812 L 13.542969 14.191406 A 0.50005 0.50005 0 0 0 14 14.488281 L 15.5 14.488281 A 0.5 0.5 0 0 0 16 13.988281 A 0.5 0.5 0 0 0 15.5 13.488281 L 14.324219 13.488281 L 12.457031 9.2851562 A 0.50005 0.50005 0 0 0 12 8.9882812 L 7.8515625 8.9882812 L 7.1386719 6.9882812 L 11.5 6.9882812 C 11.777 6.9882812 12 6.7652813 12 6.4882812 C 12 6.2112812 11.777 5.9882813 11.5 5.9882812 L 6.78125 5.9882812 L 6.0664062 3.984375 A 2 2 0 0 0 8 1.9882812 A 2 2 0 0 0 6 -0.01171875 z M 6 0.98828125 A 1 1 0 0 1 7 1.9882812 A 1 1 0 0 1 6 2.9882812 A 1 1 0 0 1 5 1.9882812 A 1 1 0 0 1 6 0.98828125 z " />
  <path
     id="path2"
     style="fill:#363636;stroke-linecap:round;stroke-linejoin:round;paint-order:stroke fill markers;opacity:0.35"
     d="M 4.4492188 5.3984375 A 5.5 5.5 0 0 0 1.0019531 10.488281 A 5.5 5.5 0 0 0 6.5019531 15.988281 A 5.5 5.5 0 0 0 11.648438 12.388672 L 11.027344 10.988281 L 10.962891 10.988281 A 4.5 4.5 0 0 1 6.5019531 14.988281 A 4.5 4.5 0 0 1 2.0019531 10.488281 A 4.5 4.5 0 0 1 4.7871094 6.34375 L 4.4492188 5.3984375 z " />
  <metadata
     id="metadata2">
    <rdf:RDF>
      <cc:Work
         rdf:about="">
        <dc:title>Gnome Symbolic Icon Theme</dc:title>
      </cc:Work>
    </rdf:RDF>
  </metadata>
</svg>
