<?xml version="1.0" encoding="UTF-8" standalone="no"?>
<svg
   width="16"
   height="16"
   version="1.1"
   id="svg2"
   sodipodi:docname="xapp-favorite-symbolic.svg"
   inkscape:version="1.4.2 (ebf0e940d0, 2025-05-08)"
   xmlns:inkscape="http://www.inkscape.org/namespaces/inkscape"
   xmlns:sodipodi="http://sodipodi.sourceforge.net/DTD/sodipodi-0.dtd"
   xmlns="http://www.w3.org/2000/svg"
   xmlns:svg="http://www.w3.org/2000/svg">
  <defs
     id="defs2">
     <style
        id="current-color-scheme"
        type="text/css">
        .ColorScheme-Text { color:#363636; }
     </style>
  </defs>
  <sodipodi:namedview
     id="namedview2"
     pagecolor="#ffffff"
     bordercolor="#000000"
     borderopacity="0.25"
     inkscape:showpageshadow="2"
     inkscape:pageopacity="0.0"
     inkscape:pagecheckerboard="0"
     inkscape:deskcolor="#d1d1d1"
     inkscape:zoom="49.6875"
     inkscape:cx="8"
     inkscape:cy="8"
     inkscape:window-width="1920"
     inkscape:window-height="1010"
     inkscape:window-x="0"
     inkscape:window-y="0"
     inkscape:window-maximized="1"
     inkscape:current-layer="svg2" />
  <path
     id="path1"
     style="fill:currentColor;fill-opacity:1"
     class="ColorScheme-Text"
     d="M 7.0097656 0 L 7.0058594 0.00390625 C 6.1624694 1.8139062 5.511125 3.6587625 5.140625 4.7890625 C 3.921625 4.7900626 1.9135 4.8356664 0 5.0839844 L 0.001953125 5.0859375 L 0.001953125 5.0878906 L 0.00390625 5.0898438 L 0.00390625 5.0917969 C 1.4647063 6.4531969 3.0180156 7.64195 3.9785156 8.34375 C 3.6026556 9.50335 3.0250519 11.427519 2.6699219 13.324219 L 2.6777344 13.324219 C 4.4240344 12.355599 6.0358 11.245428 7 10.548828 C 7.022563 10.565198 7.0646176 10.592555 7.0878906 10.609375 A 4.5 4.5 0 0 1 7.4160156 9.6152344 L 7.0019531 9.3144531 L 6.4160156 9.7382812 C 5.9398356 10.082341 5.0194562 10.625459 4.2851562 11.105469 C 4.5177262 10.250949 4.7435975 9.2264438 4.9296875 8.6523438 L 5.1523438 7.9648438 L 4.5683594 7.5371094 C 4.0938994 7.1904794 3.292875 6.4835937 2.609375 5.9335938 C 3.493925 5.8906937 4.5389781 5.7895525 5.1425781 5.7890625 L 5.8652344 5.7871094 L 6.0917969 5.0996094 C 6.2747969 4.5414294 6.6999488 3.5618875 7.0117188 2.7421875 C 7.3258387 3.5699275 7.7447806 4.5317687 7.9316406 5.1054688 L 8.15625 5.7929688 L 8.8789062 5.7949219 C 9.4668862 5.7969219 10.531303 5.8981563 11.408203 5.9414062 C 10.777433 6.4481763 10.089909 7.0449219 9.5996094 7.4199219 A 4.5 4.5 0 0 1 11.5 7 A 4.5 4.5 0 0 1 11.792969 7.0097656 C 12.514249 6.4340356 13.286225 5.7853031 14.015625 5.0957031 L 14.013672 5.09375 L 14.011719 5.09375 L 14.009766 5.0917969 L 14.009766 5.0898438 C 12.027866 4.8470138 10.072312 4.7980519 8.8828125 4.7949219 C 8.5053925 3.6361219 7.8387187 1.7423 7.0117188 0 L 7.0097656 0 z M 11.5 8 A 3.5 3.5 0 0 0 8 11.5 A 3.5 3.5 0 0 0 11.5 15 A 3.5 3.5 0 0 0 15 11.5 A 3.5 3.5 0 0 0 11.5 8 z M 11 9 L 12 9 L 12 11 L 14 11 L 14 12 L 12 12 L 12 14 L 11 14 L 11 12 L 9 12 L 9 11 L 11 11 L 11 9 z " />
</svg>
