<?xml version="1.0" encoding="UTF-8" standalone="no"?>
<!-- Created with Inkscape (http://www.inkscape.org/) -->

<svg
   width="16"
   height="16"
   viewBox="0 0 16 16"
   version="1.1"
   id="svg1"
   inkscape:version="1.4.2 (ebf0e940d0, 2025-05-08)"
   sodipodi:docname="zoom-fit-best-symbolic.svg"
   xmlns:inkscape="http://www.inkscape.org/namespaces/inkscape"
   xmlns:sodipodi="http://sodipodi.sourceforge.net/DTD/sodipodi-0.dtd"
   xmlns="http://www.w3.org/2000/svg"
   xmlns:svg="http://www.w3.org/2000/svg">
  <sodipodi:namedview
     id="namedview1"
     pagecolor="#ffffff"
     bordercolor="#000000"
     borderopacity="0.25"
     inkscape:showpageshadow="2"
     inkscape:pageopacity="0.0"
     inkscape:pagecheckerboard="0"
     inkscape:deskcolor="#d1d1d1"
     inkscape:document-units="px"
     inkscape:zoom="49.6875"
     inkscape:cx="8"
     inkscape:cy="8"
     inkscape:window-width="1920"
     inkscape:window-height="1010"
     inkscape:window-x="0"
     inkscape:window-y="0"
     inkscape:window-maximized="1"
     inkscape:current-layer="svg1" />
  <defs
    id="defs1">
    <style
      id="current-color-scheme"
      type="text/css">
      .ColorScheme-Text { color:#363636; }
    </style>
  </defs>
  <path
     id="rect1"
     style="fill:currentColor"
     class="ColorScheme-Text"
     d="M 4,2 C 2.892,2 2,2.892 2,4 V 7 H 3 V 4 C 3,3.446 3.446,3 4,3 H 7 V 2 Z m 5,0 v 1 h 3 c 0.554,0 1,0.446 1,1 v 3 h 1 V 4 C 14,2.892 13.108,2 12,2 Z M 2,9 v 3 c 0,1.108 0.892,2 2,2 H 7 V 13 H 4 C 3.446,13 3,12.554 3,12 V 9 Z m 11,0 v 3 c 0,0.554 -0.446,1 -1,1 H 9 v 1 h 3 c 1.108,0 2,-0.892 2,-2 V 9 Z" />
</svg>
