<?xml version="1.0" encoding="UTF-8" standalone="no"?>
<!-- Created with Inkscape (http://www.inkscape.org/) -->

<svg
   width="16"
   height="16"
   viewBox="0 0 16 16"
   version="1.1"
   id="svg5"
   inkscape:version="1.2.2 (1:1.2.2+202305151914+b0a8486541)"
   sodipodi:docname="applications-all.svg"
   xmlns:inkscape="http://www.inkscape.org/namespaces/inkscape"
   xmlns:sodipodi="http://sodipodi.sourceforge.net/DTD/sodipodi-0.dtd"
   xmlns="http://www.w3.org/2000/svg"
   xmlns:svg="http://www.w3.org/2000/svg">
  <sodipodi:namedview
     id="namedview7"
     pagecolor="#ffffff"
     bordercolor="#000000"
     borderopacity="0.25"
     inkscape:showpageshadow="2"
     inkscape:pageopacity="0.0"
     inkscape:pagecheckerboard="0"
     inkscape:deskcolor="#d1d1d1"
     inkscape:document-units="px"
     showgrid="false"
     inkscape:zoom="50.1875"
     inkscape:cx="7.1830635"
     inkscape:cy="7.9900374"
     inkscape:window-width="1920"
     inkscape:window-height="1008"
     inkscape:window-x="0"
     inkscape:window-y="0"
     inkscape:window-maximized="1"
     inkscape:current-layer="svg5" />
  <defs
     id="defs2">
    <style
       id="current-color-scheme"
       type="text/css">
         .ColorScheme-Text { color:#232629; }
         .ColorScheme-Highlight { color:#3daee9; }
     </style>
  </defs>
  <path
     id="path530"
     style="fill:currentColor;fill-opacity:1;stroke-width:0.5;stroke-linecap:round;stroke-linejoin:round"
     class="ColorScheme-Highlight"
     d="M 6 0 C 1.4494094 0 0 1.469913 0 6 L 0 10 C 0 14.530087 1.4494094 16 6 16 L 10 16 C 14.550591 16 16 14.530086 16 10 L 16 6 C 16 1.469913 14.550591 0 10 0 L 6 0 z " />
  <path
     id="path1026"
     style="opacity:0.6;fill:currentColor;fill-opacity:1;stroke-width:9;stroke-linecap:round;stroke-linejoin:round"
     class="ColorScheme-Text"
     d="M 4 3 C 3.4477156 3 3 3.4477155 3 4 C 3 4.5522844 3.4477156 5 4 5 C 4.5522833 5 5 4.5522844 5 4 C 5 3.4477155 4.5522834 3 4 3 z M 8 3 C 7.4477155 3 7 3.4477155 7 4 C 7 4.5522844 7.4477155 5 8 5 C 8.5522847 5 9 4.5522844 9 4 C 9 3.4477155 8.5522847 3 8 3 z M 12 3 C 11.447716 3 11 3.4477155 11 4 C 11 4.5522844 11.447716 5 12 5 C 12.552284 5 13 4.5522844 13 4 C 13 3.4477155 12.552284 3 12 3 z M 4 7 C 3.4477156 7 3 7.4477156 3 8 C 3 8.5522844 3.4477156 9 4 9 C 4.5522834 9 5 8.5522844 5 8 C 5 7.4477156 4.5522834 7 4 7 z M 8 7 C 7.4477156 7 7 7.4477156 7 8 C 7 8.5522844 7.4477156 9 8 9 C 8.5522847 9 9 8.5522844 9 8 C 9 7.4477156 8.5522847 7 8 7 z M 12 7 C 11.447716 7 11 7.4477156 11 8 C 11 8.5522844 11.447716 9 12 9 C 12.552284 9 13 8.5522844 13 8 C 13 7.4477156 12.552284 7 12 7 z M 4 11 C 3.4477156 11 3 11.447716 3 12 C 3 12.552284 3.4477156 13 4 13 C 4.5522833 13 5 12.552284 5 12 C 5 11.447716 4.5522834 11 4 11 z M 8 11 C 7.4477155 11 7 11.447716 7 12 C 7 12.552284 7.4477155 13 8 13 C 8.5522847 13 9 12.552284 9 12 C 9 11.447716 8.5522847 11 8 11 z M 12 11 C 11.447716 11 11 11.447716 11 12 C 11 12.552284 11.447716 13 12 13 C 12.552284 13 13 12.552284 13 12 C 13 11.447716 12.552284 11 12 11 z " />
</svg>
