<?xml version="1.0" encoding="UTF-8" standalone="no"?>
<!-- Created with Inkscape (http://www.inkscape.org/) -->

<svg
   width="16"
   height="16"
   viewBox="0 0 16 16"
   version="1.1"
   id="svg5"
   inkscape:version="1.2.2 (1:1.2.2+202305151914+b0a8486541)"
   sodipodi:docname="firefox.svg"
   xmlns:inkscape="http://www.inkscape.org/namespaces/inkscape"
   xmlns:sodipodi="http://sodipodi.sourceforge.net/DTD/sodipodi-0.dtd"
   xmlns="http://www.w3.org/2000/svg"
   xmlns:svg="http://www.w3.org/2000/svg">
  <sodipodi:namedview
     id="namedview7"
     pagecolor="#ffffff"
     bordercolor="#000000"
     borderopacity="0.25"
     inkscape:showpageshadow="2"
     inkscape:pageopacity="0.0"
     inkscape:pagecheckerboard="0"
     inkscape:deskcolor="#d1d1d1"
     inkscape:document-units="px"
     showgrid="false"
     inkscape:zoom="50.375"
     inkscape:cx="7.9900744"
     inkscape:cy="8"
     inkscape:window-width="1920"
     inkscape:window-height="1008"
     inkscape:window-x="0"
     inkscape:window-y="0"
     inkscape:window-maximized="1"
     inkscape:current-layer="svg5"
     showguides="false" />
  <defs
     id="defs2">
    <style
       id="current-color-scheme"
       type="text/css">
         .ColorScheme-Text { color:#232629; }
         .ColorScheme-Highlight { color:#3daee9; }
     </style>
  </defs>
  <path
     id="path530"
     style="fill:currentColor;fill-opacity:1;stroke-width:0.5;stroke-linecap:round;stroke-linejoin:round"
     d="M 6 0 C 1.4494094 0 0 1.469913 0 6 L 0 10 C 0 14.530087 1.4494094 16 6 16 L 10 16 C 14.550591 16 16 14.530086 16 10 L 16 6 C 16 1.469913 14.550591 0 10 0 L 6 0 z "
     class="ColorScheme-Highlight" />
  <g
     id="g2686"
     style="opacity:0.6;fill:currentColor"
     class="ColorScheme-Text">
    <path
       id="path2068"
       style="opacity:0.4;stroke-width:0.99993"
       d="M 9.8867188 2 C 8.6792848 2.8206381 8.1196085 3.6483534 7.8691406 4.5097656 A 3.5 3.5 0 0 1 8 4.5 A 3.5 3.5 0 0 1 11.5 8 A 3.5 3.5 0 0 1 10.351562 10.585938 L 10.939453 11.189453 L 13.779297 8.7441406 C 13.401357 7.4306398 13.57704 6.7253867 12.554688 5.4160156 C 11.347541 3.8699424 10.246471 3.4204829 9.8867188 2 z " />
    <path
       id="path2058"
       style="opacity:0.7;stroke:none;stroke-width:2;stroke-linecap:round;stroke-linejoin:round"
       d="M 8 5 A 3 3 0 0 0 6.6660156 5.3203125 C 6.8244134 5.4475519 6.9940309 5.5846221 7.0800781 5.6523438 C 7.4966935 5.9802434 8.0353977 6.1875062 8.1425781 6.2167969 A 0.50005 0.50005 0 0 1 8.4980469 6.5800781 C 8.5392162 6.7504916 8.4721134 7.0732651 8.3203125 7.2597656 C 8.1685116 7.4462662 7.96412 7.6038134 7.6230469 7.828125 A 0.50005 0.50005 0 0 1 7.3652344 7.9101562 C 6.7182263 7.9308001 6.3926382 8.0467586 6.1796875 8.1816406 L 6.1777344 8.1816406 C 5.9525541 8.3348876 5.8944986 8.4216405 5.8867188 8.4453125 C 5.8786871 8.4697369 5.8702197 8.5634609 5.9609375 8.828125 A 0.50005 0.50005 0 0 0 5.9609375 8.8300781 C 5.9730865 8.8656284 5.9879254 8.9036634 6.0058594 8.9433594 C 6.0064994 8.9447794 6.0071643 8.9458456 6.0078125 8.9472656 C 6.0091125 8.9501056 6.0103888 8.9522081 6.0117188 8.9550781 C 6.0176536 8.9686031 6.0203538 8.980237 6.0273438 9 L 6.015625 8.9609375 C 6.032819 8.997772 6.0537133 9.0387664 6.0800781 9.0839844 A 0.50005 0.50005 0 0 1 6.0820312 9.0898438 C 6.0832012 9.0918236 6.0847575 9.0937231 6.0859375 9.0957031 C 6.0897465 9.1021021 6.0937164 9.1088044 6.0976562 9.1152344 C 6.1135062 9.1410772 6.1307405 9.1657804 6.1484375 9.1914062 L 6.1484375 9.1933594 L 6.15625 9.203125 C 6.1605393 9.2089526 6.1587213 9.2077221 6.1640625 9.2148438 A 0.50005 0.50005 0 0 1 6.1757812 9.2304688 A 0.50005 0.50005 0 0 1 6.1796875 9.234375 C 6.1916775 9.250691 6.1996481 9.2623714 6.2050781 9.2695312 L 6.2070312 9.2714844 C 6.2279142 9.2985732 6.24186 9.318375 6.25 9.328125 A 0.50005 0.50005 0 0 1 6.2539062 9.3320312 A 0.50005 0.50005 0 0 1 6.2597656 9.3398438 L 6.2617188 9.3417969 L 6.2636719 9.34375 A 0.50005 0.50005 0 0 1 6.2734375 9.3535156 C 6.2737747 9.3540797 6.2708878 9.3501159 6.2792969 9.3613281 C 6.3114397 9.3980578 6.3449503 9.4330008 6.3769531 9.4648438 L 6.3789062 9.4667969 A 0.50005 0.50005 0 0 1 6.390625 9.4785156 C 6.4091639 9.4966489 6.4302757 9.516733 6.4550781 9.5390625 L 6.4589844 9.5410156 C 6.4654244 9.5466256 6.4723369 9.5532681 6.4667969 9.5488281 A 0.50005 0.50005 0 0 1 6.4824219 9.5644531 C 6.500139 9.579875 6.5184126 9.5936066 6.5351562 9.6074219 L 6.5371094 9.609375 C 6.5464944 9.617017 6.5517144 9.6222337 6.5527344 9.6230469 A 0.50005 0.50005 0 0 0 6.5546875 9.6230469 C 6.573454 9.638112 6.5993542 9.6589628 6.6328125 9.6835938 L 6.6328125 9.6816406 C 6.6484635 9.6931356 6.6557336 9.6995556 6.6523438 9.6972656 A 0.50005 0.50005 0 0 1 6.6835938 9.71875 C 6.6938547 9.7269147 6.6883787 9.7234065 6.6953125 9.7285156 C 6.7038216 9.7343634 6.7258104 9.7477063 6.7285156 9.75 C 6.7399651 9.7574476 6.7461915 9.7627456 6.7597656 9.7714844 A 0.50005 0.50005 0 0 1 6.9042969 9.8984375 L 6.7832031 9.7871094 L 6.7753906 9.7792969 C 6.8069566 9.7992109 6.8307855 9.815995 6.8515625 9.828125 C 6.8992626 9.855967 6.9463078 9.8801099 6.9941406 9.9042969 L 6.9960938 9.90625 C 7.0319226 9.92421 7.0403826 9.9301816 7.0117188 9.9160156 L 7.0136719 9.9160156 C 7.3371425 10.076149 7.7297806 10.174046 8.1660156 10.199219 C 9.1509092 10.082617 9.9194185 9.2290818 9.9199219 8.2148438 C 9.9189091 7.4475822 9.4760437 6.7538895 8.78125 6.4277344 A 0.50005 0.50005 0 0 1 8.9589844 5.4765625 C 9.0199792 5.4722725 9.0713424 5.4711343 9.1152344 5.4707031 A 0.50005 0.50005 0 0 1 9.1210938 5.4707031 C 9.3255764 5.4707016 9.5222655 5.495436 9.7109375 5.5371094 A 3 3 0 0 0 8 5 z " />
    <path
       d="m 4.3049745,3.396477 c -1.298775,1.0043805 -2.16273,2.5285005 -2.28516,4.2539115 -0.00525,0.055898 -0.009,0.1149795 -0.0117,0.1777297 -0.003,0.077004 -0.0081,0.1541108 -0.0081,0.24219 C 2.0000145,11.345309 4.6863195,14 8.000022,14 c 3.31371,0 5.999992,-2.654691 5.999992,-5.9296918 0,-1.5247305 -0.5823,-2.9162205 -1.539052,-3.9667905 0.0213,-8.25e-4 -0.08937,-0.085698 -0.146498,-0.0645 0.35409,0.5868998 0.57309,1.2645 0.619147,1.98828 -0.06015,-0.1544092 -0.127492,-0.3058297 -0.203129,-0.4531192 0.04042,0.2397795 0.06442,0.4850295 0.06442,0.7363297 0,1.3890405 -0.595447,2.6267603 -1.558597,3.4335908 0.23136,-0.37686 0.363285,-0.8202998 0.363293,-1.29492 7e-6,-1.3689705 -1.109558,-2.478531 -2.478525,-2.4785205 -0.04275,4.2e-4 -0.08433,9.75e-4 -0.1269525,0.00397 0.868867,0.4078702 1.4245125,1.2804 1.4257795,2.2402305 -6.34e-4,1.2775557 -0.970563,2.367415 -2.2285005,2.496105 h -0.0015 C 7.664667,10.688659 7.190817,10.562305 6.789507,10.363304 c -0.006,-0.003 -0.01155,-0.007 -0.017625,-0.01 -0.0591,-0.0298 -0.11601,-0.0611 -0.1718625,-0.0937 -0.0315,-0.01839 -0.06135,-0.03739 -0.0918,-0.0566 l -0.0015,-0.002 c -0.00525,-0.003 -0.0123,-0.006 -0.01755,-0.01 -0.03495,-0.0225 -0.070125,-0.04481 -0.1035225,-0.0684 -0.00525,-0.003 -0.009,-0.008 -0.01365,-0.0117 -0.01185,-0.008 -0.023475,-0.0168 -0.035175,-0.02539 -0.032325,-0.0238 -0.0648,-0.0475 -0.095693,-0.0723 -0.0075,-0.006 -0.01425,-0.0117 -0.021525,-0.017595 -0.02175,-0.017902 -0.04335,-0.0363 -0.0645,-0.054705 l -0.0015,-0.00195 c -0.00997,-0.00801 -0.0198,-0.017003 -0.029325,-0.025395 -0.028725,-0.0258 -0.056775,-0.051495 -0.08397,-0.078102 -0.006,-0.00502 -0.0102,-0.0102 -0.0156,-0.0156 -0.044925,-0.0447 -0.08838,-0.092001 -0.1289025,-0.1386705 -0.00525,-0.00502 -0.0111,-0.0123 -0.0156,-0.017603 v -0.00195 c -0.00375,-0.00502 -0.00998,-0.009 -0.01365,-0.013695 -0.01995,-0.023903 -0.0378,-0.047895 -0.056625,-0.0723 -0.01125,-0.0147 -0.02235,-0.030098 -0.033225,-0.044903 -0.00375,-0.00502 -0.0081,-0.010402 -0.0117,-0.0156 -0.003,-0.00398 -0.0075,-0.00801 -0.00997,-0.0117 -0.0015,-0.003 -0.00375,-0.00705 -0.006,-0.01 l -0.0015,-0.00195 C 5.713332,9.4428495 5.681232,9.3930465 5.6518395,9.343107 c -7.5e-4,-0.00195 -0.003,-0.006 -0.00375,-0.00801 -0.031425,-0.053902 -0.0603,-0.10716 -0.08595,-0.1621103 -7.5e-4,-0.003 -0.003,-0.00502 -0.00375,-0.00801 C 5.5317645,9.1073767 5.5080645,9.0495262 5.4881145,8.9911462 5.2817145,8.388996 5.3493345,8.132886 5.909982,7.758726 h 0.0015 c 0.30516,-0.19329 0.73452,-0.32523 1.43751,-0.3476603 0.64314,-0.42297 0.6930375,-0.5848297 0.6621,-0.71289 C 7.8112995,6.6435757 7.260522,6.4312147 6.770862,6.045825 6.573042,5.8901347 6.346842,5.6627452 6.0442995,5.459895 5.931687,5.0828655 5.849202,4.660065 5.9974245,3.870045 5.4367095,4.0543845 4.941942,4.5687345 4.5501495,5.0067652 c -0.009,-1.395e-4 -0.016575,-0.00195 -0.02535,-0.00195 C 4.2860295,4.5450442 4.3314195,3.941355 4.308012,3.3954345 Z"
       style="stroke-width:0.999997"
       id="path1986" />
  </g>
</svg>
