<?xml version="1.0" encoding="UTF-8" standalone="no"?>
<!-- Created with Inkscape (http://www.inkscape.org/) -->

<svg
   width="16"
   height="16"
   viewBox="0 0 16 16"
   version="1.1"
   id="svg5"
   inkscape:version="1.2.2 (1:1.2.2+202305151914+b0a8486541)"
   sodipodi:docname="firewall-config.svg"
   xmlns:inkscape="http://www.inkscape.org/namespaces/inkscape"
   xmlns:sodipodi="http://sodipodi.sourceforge.net/DTD/sodipodi-0.dtd"
   xmlns="http://www.w3.org/2000/svg"
   xmlns:svg="http://www.w3.org/2000/svg">
  <sodipodi:namedview
     id="namedview7"
     pagecolor="#ffffff"
     bordercolor="#000000"
     borderopacity="0.25"
     inkscape:showpageshadow="2"
     inkscape:pageopacity="0.0"
     inkscape:pagecheckerboard="0"
     inkscape:deskcolor="#d1d1d1"
     inkscape:document-units="px"
     showgrid="false"
     inkscape:zoom="50.1875"
     inkscape:cx="6.6550436"
     inkscape:cy="7.9900374"
     inkscape:window-width="1920"
     inkscape:window-height="1008"
     inkscape:window-x="0"
     inkscape:window-y="0"
     inkscape:window-maximized="1"
     inkscape:current-layer="svg5" />
  <defs
     id="defs2">
    <style
       id="current-color-scheme"
       type="text/css">
         .ColorScheme-Text { color:#232629; }
         .ColorScheme-Highlight { color:#3daee9; }
     </style>
  </defs>
  <path
     id="path530"
     style="fill:currentColor;fill-opacity:1;stroke-width:0.5;stroke-linecap:round;stroke-linejoin:round"
     class="ColorScheme-Highlight"
     d="M 6 0 C 1.4494094 0 0 1.469913 0 6 L 0 10 C 0 14.530087 1.4494094 16 6 16 L 10 16 C 14.550591 16 16 14.530086 16 10 L 16 6 C 16 1.469913 14.550591 0 10 0 L 6 0 z " />
  <path
     d="M 10,0 V 5 H 5 V 0.03125 C 4.646549,0.0519202 4.309861,0.0813008 4.0000001,0.1269531 V 5 H 0.03125 C 0.0127877,5.3171788 0,5.6462591 0,6 h 1 v 4 H 0 c 0,0.353741 0.0127877,0.682821 0.03125,1 h 3.9687501 v 4.873047 C 4.3098609,15.918697 4.646549,15.948077 5,15.968747 V 11 h 5 v 5 c 0.354222,0 0.68258,-0.01269 1,-0.03125 V 11 h 4.96875 C 15.98721,10.682821 16,10.353741 16,10 H 14 V 6 h 2 C 16,5.6462591 15.98721,5.3171788 15.96875,5 H 11 V 0.03125 C 10.68258,0.0126869 10.354222,0 10,0 Z M 2.0000001,6 H 7 v 4 H 2.0000001 Z M 8,6 h 5 v 4 H 8 Z"
     style="opacity:0.4;fill:currentColor;stroke-linecap:square;stroke-linejoin:round"
     id="path297"
     class="ColorScheme-Text" />
</svg>
