<?xml version="1.0" encoding="UTF-8" standalone="no"?>
<!-- Created with Inkscape (http://www.inkscape.org/) -->

<svg
   width="16"
   height="16"
   viewBox="0 0 16 16"
   version="1.1"
   id="svg5"
   inkscape:version="1.2.2 (1:1.2.2+202305151914+b0a8486541)"
   sodipodi:docname="multimedia-photo-viewer.svg"
   xmlns:inkscape="http://www.inkscape.org/namespaces/inkscape"
   xmlns:sodipodi="http://sodipodi.sourceforge.net/DTD/sodipodi-0.dtd"
   xmlns="http://www.w3.org/2000/svg"
   xmlns:svg="http://www.w3.org/2000/svg">
  <sodipodi:namedview
     id="namedview7"
     pagecolor="#ffffff"
     bordercolor="#000000"
     borderopacity="0.25"
     inkscape:showpageshadow="2"
     inkscape:pageopacity="0.0"
     inkscape:pagecheckerboard="0"
     inkscape:deskcolor="#d1d1d1"
     inkscape:document-units="px"
     showgrid="false"
     inkscape:zoom="50.375"
     inkscape:cx="7.9900744"
     inkscape:cy="8"
     inkscape:window-width="1920"
     inkscape:window-height="1008"
     inkscape:window-x="0"
     inkscape:window-y="0"
     inkscape:window-maximized="1"
     inkscape:current-layer="svg5" />
  <defs
     id="defs2">
    <style
       id="current-color-scheme"
       type="text/css">
         .ColorScheme-Text { color:#232629; }
         .ColorScheme-Highlight { color:#3daee9; }
     </style>
  </defs>
  <path
     id="path530"
     style="fill:currentColor;fill-opacity:1;stroke-width:0.5;stroke-linecap:round;stroke-linejoin:round"
     d="M 6 0 C 1.4494094 0 0 1.469913 0 6 L 0 10 C 0 14.530087 1.4494094 16 6 16 L 10 16 C 14.550591 16 16 14.530086 16 10 L 16 6 C 16 1.469913 14.550591 0 10 0 L 6 0 z "
     class="ColorScheme-Highlight" />
  <g
     id="g3058"
     style="opacity:0.6;fill:currentColor"
     class="ColorScheme-Text">
    <path
       id="path1600"
       style="opacity:0.6;stroke-width:0.0744079;stroke-linecap:round;stroke-linejoin:round"
       d="M 6.0546875 8.984375 C 5.8825162 8.9838061 5.7096734 9.0388539 5.6015625 9.1542969 L 2 13 L 4 13 L 7.0644531 9.7734375 L 6.5 9.1542969 C 6.3970221 9.0411295 6.2268588 8.9849439 6.0546875 8.984375 z " />
    <path
       id="rect234"
       style="stroke-width:0.0744079;stroke-linecap:round;stroke-linejoin:round"
       d="M 8.6011125,8.1556827 4,13.000341 H 14 L 9.5008875,8.1556827 c -0.2082409,-0.2242345 -0.6835628,-0.2308948 -0.899775,0 z"
       sodipodi:nodetypes="sccss" />
    <circle
       style="fill-opacity:1;stroke-width:1.5;stroke-linecap:round;stroke-linejoin:round"
       id="path3505"
       cx="4.5"
       cy="4.5"
       r="1.5" />
  </g>
</svg>
