<?xml version="1.0" encoding="UTF-8" standalone="no"?>
<!-- Created with Inkscape (http://www.inkscape.org/) -->

<svg
   width="16"
   height="16"
   viewBox="0 0 16 16"
   version="1.1"
   id="svg5"
   inkscape:version="1.2.2 (b0a8486541, 2022-12-01)"
   sodipodi:docname="preferences-devices-cpu.svg"
   xmlns:inkscape="http://www.inkscape.org/namespaces/inkscape"
   xmlns:sodipodi="http://sodipodi.sourceforge.net/DTD/sodipodi-0.dtd"
   xmlns="http://www.w3.org/2000/svg"
   xmlns:svg="http://www.w3.org/2000/svg">
  <sodipodi:namedview
     id="namedview7"
     pagecolor="#ffffff"
     bordercolor="#000000"
     borderopacity="0.25"
     inkscape:showpageshadow="2"
     inkscape:pageopacity="0.0"
     inkscape:pagecheckerboard="0"
     inkscape:deskcolor="#d1d1d1"
     inkscape:document-units="px"
     showgrid="false"
     inkscape:zoom="50.1875"
     inkscape:cx="8"
     inkscape:cy="8"
     inkscape:window-width="1920"
     inkscape:window-height="1000"
     inkscape:window-x="0"
     inkscape:window-y="0"
     inkscape:window-maximized="1"
     inkscape:current-layer="svg5" />
  <defs
     id="defs2">
    <style
       id="current-color-scheme"
       type="text/css">
         .ColorScheme-Text { color:#232629; }
         .ColorScheme-Highlight { color:#3daee9; }
     </style>
  </defs>
  <path
     id="path530"
     style="fill:currentColor;fill-opacity:1;stroke-width:0.5;stroke-linecap:round;stroke-linejoin:round"
     class="ColorScheme-Highlight"
     d="M 6 0 C 1.4494094 0 0 1.469913 0 6 L 0 10 C 0 14.530087 1.4494094 16 6 16 L 10 16 C 14.550591 16 16 14.530086 16 10 L 16 6 C 16 1.469913 14.550591 0 10 0 L 6 0 z " />
  <path
     id="rect389"
     style="opacity:0.6;fill:currentColor"
     class="ColorScheme-Text"
     d="M 6 3 L 6 4 L 5 4 C 4.4460012 4 4 4.4460012 4 5 L 4 6 L 3 6 L 3 7 L 4 7 L 4 9 L 3 9 L 3 10 L 4 10 L 4 11 C 4 11.553998 4.4460012 12 5 12 L 6 12 L 6 13 L 7 13 L 7 12 L 9 12 L 9 13 L 10 13 L 10 12 L 11 12 C 11.553998 12 12 11.553998 12 11 L 12 10 L 13 10 L 13 9 L 12 9 L 12 7 L 13 7 L 13 6 L 12 6 L 12 5 C 12 4.4460012 11.553998 4 11 4 L 10 4 L 10 3 L 9 3 L 9 4 L 7 4 L 7 3 L 6 3 z M 5 5 L 11 5 L 11 11 L 5 11 L 5 5 z " />
</svg>
