<?xml version="1.0" encoding="UTF-8" standalone="no"?>
<!-- Created with Inkscape (http://www.inkscape.org/) -->

<svg
   width="16"
   height="16"
   viewBox="0 0 16 16"
   version="1.1"
   id="svg5"
   inkscape:version="1.2.1 (9c6d41e410, 2022-07-14)"
   sodipodi:docname="preferences-desktop-filetype-association.svg"
   xmlns:inkscape="http://www.inkscape.org/namespaces/inkscape"
   xmlns:sodipodi="http://sodipodi.sourceforge.net/DTD/sodipodi-0.dtd"
   xmlns:xlink="http://www.w3.org/1999/xlink"
   xmlns="http://www.w3.org/2000/svg"
   xmlns:svg="http://www.w3.org/2000/svg">
  <sodipodi:namedview
     id="namedview7"
     pagecolor="#ffffff"
     bordercolor="#000000"
     borderopacity="0.25"
     inkscape:showpageshadow="2"
     inkscape:pageopacity="0.0"
     inkscape:pagecheckerboard="0"
     inkscape:deskcolor="#d1d1d1"
     inkscape:document-units="px"
     showgrid="false"
     inkscape:zoom="51.625"
     inkscape:cx="7.9903148"
     inkscape:cy="8"
     inkscape:window-width="1920"
     inkscape:window-height="1006"
     inkscape:window-x="0"
     inkscape:window-y="0"
     inkscape:window-maximized="1"
     inkscape:current-layer="svg5" />
  <defs
     id="defs2">
    <linearGradient
       inkscape:collect="always"
       id="linearGradient2116">
      <stop
         style="stop-color:#657481;stop-opacity:1;"
         offset="0"
         id="stop2112" />
      <stop
         style="stop-color:#9ba6b0;stop-opacity:1;"
         offset="1"
         id="stop2114" />
    </linearGradient>
    <linearGradient
       inkscape:collect="always"
       xlink:href="#linearGradient2116"
       id="linearGradient2118"
       x1="0"
       y1="0"
       x2="16"
       y2="16"
       gradientUnits="userSpaceOnUse" />
  </defs>
  <path
     id="path530"
     style="fill:url(#linearGradient2118);stroke-width:0.5;stroke-linecap:round;stroke-linejoin:round;fill-opacity:1"
     d="M 6 0 C 1.4494094 0 0 1.469913 0 6 L 0 10 C 0 14.530087 1.4494094 16 6 16 L 10 16 C 14.550591 16 16 14.530086 16 10 L 16 6 C 16 1.469913 14.550591 0 10 0 L 6 0 z " />
  <path
     id="rect291"
     style="opacity:0.6;fill:#ffffff;stroke-linecap:round;stroke-linejoin:round"
     d="M 5,3 H 9 L 9.5,5 12,6 v 6 c 0,0.554 -0.446,1 -1,1 H 5 C 4.446,13 4,12.554 4,12 V 4 C 4,3.446 4.446,3 5,3 Z"
     sodipodi:nodetypes="scccssssss" />
  <path
     id="rect444"
     style="opacity:1;fill:#ffffff;stroke-linecap:round;stroke-linejoin:round"
     d="M 12,6 H 10 C 9.446,6 9,5.554 9,5 V 3 Z"
     sodipodi:nodetypes="csscc" />
</svg>
