<?xml version="1.0" encoding="UTF-8" standalone="no"?>
<!-- Created with Inkscape (http://www.inkscape.org/) -->

<svg
   width="16"
   height="16"
   viewBox="0 0 16 16"
   version="1.1"
   id="svg5"
   inkscape:version="1.2.2 (1:1.2.2+202305151914+b0a8486541)"
   sodipodi:docname="system-file-manager.svg"
   xmlns:inkscape="http://www.inkscape.org/namespaces/inkscape"
   xmlns:sodipodi="http://sodipodi.sourceforge.net/DTD/sodipodi-0.dtd"
   xmlns="http://www.w3.org/2000/svg"
   xmlns:svg="http://www.w3.org/2000/svg">
  <sodipodi:namedview
     id="namedview7"
     pagecolor="#ffffff"
     bordercolor="#000000"
     borderopacity="0.25"
     inkscape:showpageshadow="2"
     inkscape:pageopacity="0.0"
     inkscape:pagecheckerboard="0"
     inkscape:deskcolor="#d1d1d1"
     inkscape:document-units="px"
     showgrid="false"
     inkscape:zoom="51.125"
     inkscape:cx="6.4645477"
     inkscape:cy="8"
     inkscape:window-width="1920"
     inkscape:window-height="1008"
     inkscape:window-x="0"
     inkscape:window-y="0"
     inkscape:window-maximized="1"
     inkscape:current-layer="svg5" />
  <defs
     id="defs2">
    <style
       id="current-color-scheme"
       type="text/css">
         .ColorScheme-Text { color:#232629; }
         .ColorScheme-Highlight { color:#3daee9; }
     </style>
  </defs>
  <path
     id="path530"
     style="fill:currentColor;fill-opacity:1;stroke-width:0.5;stroke-linecap:round;stroke-linejoin:round"
     d="M 6,0 C 1.4494094,0 0,1.469913 0,6 v 4 c 0,4.530087 1.4494094,6 6,6 h 4 c 4.550591,0 6,-1.469914 6,-6 V 6 C 16,1.469913 14.550591,0 10,0 Z"
     class="ColorScheme-Highlight" />
  <g
     id="g297"
     class="ColorScheme-Text"
     style="opacity:0.6;fill:currentColor">
    <path
       id="rect954"
       style="opacity:0.5;stroke-width:1;stroke-linecap:round;stroke-linejoin:round"
       d="M 4 4 C 3.4460006 4 3 4.4460006 3 5 L 3 7 C 3 6.4460026 3.4460017 6 4 6 L 8 6 L 8 5 C 8 4.4460006 7.5539994 4 7 4 L 4 4 z " />
    <path
       id="rect346"
       style="stroke-width:1;stroke-linecap:round;stroke-linejoin:round"
       d="m 4,5.9999999 c -0.553999,0 -1,0.446002 -1,1 V 11 c 0,1.104569 0.895431,2 2,2 h 6 c 1.104569,0 2,-0.895431 2,-2 V 7.9999999 c 0,-1.104569 -0.895431,-2 -2,-2 z"
       sodipodi:nodetypes="sssssssss" />
  </g>
</svg>
