<?xml version="1.0" encoding="UTF-8" standalone="no"?>
<!-- Created with Inkscape (http://www.inkscape.org/) -->

<svg
   width="256"
   height="256"
   viewBox="0 0 256 256"
   version="1.1"
   id="svg5"
   inkscape:version="1.2.1 (1:1.2.1+202210291243+9c6d41e410)"
   sodipodi:docname="input-gaming.svg"
   xmlns:inkscape="http://www.inkscape.org/namespaces/inkscape"
   xmlns:sodipodi="http://sodipodi.sourceforge.net/DTD/sodipodi-0.dtd"
   xmlns:xlink="http://www.w3.org/1999/xlink"
   xmlns="http://www.w3.org/2000/svg"
   xmlns:svg="http://www.w3.org/2000/svg">
  <sodipodi:namedview
     id="namedview7"
     pagecolor="#ffffff"
     bordercolor="#000000"
     borderopacity="0.25"
     inkscape:showpageshadow="2"
     inkscape:pageopacity="0.0"
     inkscape:pagecheckerboard="0"
     inkscape:deskcolor="#d1d1d1"
     inkscape:document-units="px"
     showgrid="false"
     inkscape:zoom="3.2226562"
     inkscape:cx="127.84485"
     inkscape:cy="128"
     inkscape:window-width="1920"
     inkscape:window-height="1018"
     inkscape:window-x="0"
     inkscape:window-y="28"
     inkscape:window-maximized="1"
     inkscape:current-layer="svg5"
     showguides="false" />
  <defs
     id="defs2">
    <linearGradient
       inkscape:collect="always"
       id="linearGradient1401">
      <stop
         style="stop-color:#9f9f9f;stop-opacity:1;"
         offset="0"
         id="stop1397" />
      <stop
         style="stop-color:#d0d0d0;stop-opacity:1;"
         offset="1"
         id="stop1399" />
    </linearGradient>
    <linearGradient
       inkscape:collect="always"
       id="linearGradient1339">
      <stop
         style="stop-color:#6ac326;stop-opacity:1;"
         offset="0"
         id="stop1335" />
      <stop
         style="stop-color:#b0d839;stop-opacity:1;"
         offset="1"
         id="stop1337" />
    </linearGradient>
    <linearGradient
       inkscape:collect="always"
       id="linearGradient1331">
      <stop
         style="stop-color:#e4940d;stop-opacity:1;"
         offset="0"
         id="stop1327" />
      <stop
         style="stop-color:#e4ad0d;stop-opacity:1;"
         offset="1"
         id="stop1329" />
    </linearGradient>
    <linearGradient
       inkscape:collect="always"
       id="linearGradient1199">
      <stop
         style="stop-color:#2d7be6;stop-opacity:1;"
         offset="0"
         id="stop1195" />
      <stop
         style="stop-color:#5897ed;stop-opacity:1;"
         offset="1"
         id="stop1197" />
    </linearGradient>
    <linearGradient
       inkscape:collect="always"
       id="linearGradient1139">
      <stop
         style="stop-color:#d43b3b;stop-opacity:1;"
         offset="0"
         id="stop1135" />
      <stop
         style="stop-color:#cb6060;stop-opacity:1;"
         offset="1"
         id="stop1137" />
    </linearGradient>
    <linearGradient
       inkscape:collect="always"
       id="linearGradient1014">
      <stop
         style="stop-color:#5a5a5a;stop-opacity:1;"
         offset="0"
         id="stop1010" />
      <stop
         style="stop-color:#686868;stop-opacity:1;"
         offset="1"
         id="stop1012" />
    </linearGradient>
    <linearGradient
       inkscape:collect="always"
       xlink:href="#linearGradient1014"
       id="linearGradient1016"
       x1="30"
       y1="25.000002"
       x2="30"
       y2="7.0000005"
       gradientUnits="userSpaceOnUse"
       gradientTransform="scale(8)" />
    <linearGradient
       inkscape:collect="always"
       xlink:href="#linearGradient1139"
       id="linearGradient1141"
       x1="24"
       y1="14"
       x2="24"
       y2="12"
       gradientUnits="userSpaceOnUse"
       gradientTransform="matrix(8,0,0,8,8,-4e-6)" />
    <linearGradient
       inkscape:collect="always"
       xlink:href="#linearGradient1199"
       id="linearGradient1201"
       x1="20"
       y1="14"
       x2="20"
       y2="12"
       gradientUnits="userSpaceOnUse"
       gradientTransform="matrix(8,0,0,8,8,-4e-6)" />
    <linearGradient
       inkscape:collect="always"
       xlink:href="#linearGradient1331"
       id="linearGradient1333"
       x1="22"
       y1="12"
       x2="22"
       y2="10"
       gradientUnits="userSpaceOnUse"
       gradientTransform="matrix(8,0,0,8,8,-4e-6)" />
    <linearGradient
       inkscape:collect="always"
       xlink:href="#linearGradient1339"
       id="linearGradient1341"
       x1="22"
       y1="16"
       x2="22"
       y2="14"
       gradientUnits="userSpaceOnUse"
       gradientTransform="matrix(8,0,0,8,8,-4e-6)" />
    <linearGradient
       inkscape:collect="always"
       xlink:href="#linearGradient1401"
       id="linearGradient1403"
       x1="10"
       y1="16"
       x2="10"
       y2="10"
       gradientUnits="userSpaceOnUse"
       gradientTransform="matrix(8,0,0,8,-8,-4e-6)" />
    <linearGradient
       inkscape:collect="always"
       xlink:href="#linearGradient1401"
       id="linearGradient1465"
       x1="16"
       y1="11"
       x2="16"
       y2="10"
       gradientUnits="userSpaceOnUse"
       gradientTransform="matrix(16,0,0,8,-128,-4e-6)" />
  </defs>
  <path
     id="path375"
     style="opacity:0.2;fill:#000000;fill-opacity:1;stroke-width:18.8325"
     d="M 72,57 C 58.904464,57 48.69128,64.361808 41.019536,84.15056 24.81872,125.90968 16,150.2389 16,169.82812 c 0,15.06637 5.225676,24.57274 16.324216,30.1598 1.300688,0.65656 2.74536,1.0145 4.197272,1.01208 2.311256,0.004 4.561632,-0.85262 6.289056,-2.4155 L 72,169.90907 C 77.199016,165.21594 81.53748,161 94.230464,161 h 67.539076 c 12.69298,0 17.021,4.21329 22.23046,8.90907 l 29.18946,28.67543 c 2.88064,2.5984 7.03618,3.1402 10.48632,1.40342 C 234.7717,194.40341 240,184.86464 240,169.78763 240,150.20106 231.17346,125.90169 214.98046,84.15056 207.30874,64.361808 197.0929,57 184,57 c -6.12433,0 -15.61884,1.61532 -20.78125,4.331672 -22.15787,11.618384 -47.77334,11.865808 -70.396486,0 C 87.64156,58.615352 78.121696,57 72,57 Z"
     sodipodi:nodetypes="scsccccsscccscsccs" />
  <path
     d="m 72,56 c -13.095532,0 -23.308716,7.361808 -30.98046,27.15056 -16.200818,41.75912 -25.019538,66.08834 -25.019538,85.67756 0,15.06637 5.225676,24.57274 16.324216,30.1598 1.300688,0.65656 2.74536,1.0145 4.197272,1.01207 2.311256,0.005 4.561634,-0.85261 6.289058,-2.41549 L 72,168.90907 c 5.199016,-4.69313 9.53748,-8.90906 22.230464,-8.90906 h 67.539076 c 12.69298,0 17.021,4.21329 22.23046,8.90907 l 29.18946,28.67542 c 2.88064,2.5984 7.03618,3.1402 10.48632,1.40342 C 234.7717,193.40341 240,183.86464 240,168.78763 240,149.20106 231.17346,124.9017 214.98046,83.15056 207.30874,63.361808 197.0929,56 184,56 c -6.12433,0 -15.61884,1.61532 -20.78125,4.331672 -22.15787,11.618392 -47.77334,11.865816 -70.396486,0 C 87.64156,57.615352 78.121696,56 72,56 Z"
     style="fill:url(#linearGradient1016);fill-opacity:1;stroke-width:18.8325"
     id="path975" />
  <path
     id="rect1070"
     style="opacity:1;fill:url(#linearGradient1403);fill-opacity:1;stroke-width:16;stroke-linecap:round;stroke-linejoin:round"
     d="M 64,80 V 96 H 48 v 16 h 16 v 16 H 80 V 112 H 96 V 96 H 80 V 80 Z" />
  <circle
     style="opacity:1;fill:url(#linearGradient1333);fill-opacity:1;stroke-width:16;stroke-linecap:round;stroke-linejoin:round"
     id="path1127"
     cx="184"
     cy="88"
     r="8" />
  <circle
     style="opacity:1;fill:url(#linearGradient1201);fill-opacity:1;stroke-width:16;stroke-linecap:round;stroke-linejoin:round"
     id="path1129"
     cx="168"
     cy="104"
     r="8" />
  <circle
     style="opacity:1;fill:url(#linearGradient1141);fill-opacity:1;stroke-width:16;stroke-linecap:round;stroke-linejoin:round"
     id="path1131"
     cx="200"
     cy="104"
     r="8" />
  <circle
     style="opacity:1;fill:url(#linearGradient1341);fill-opacity:1;stroke-width:16;stroke-linecap:round;stroke-linejoin:round"
     id="path1133"
     cx="184"
     cy="120"
     r="8" />
  <rect
     style="opacity:1;fill:url(#linearGradient1465);fill-opacity:1;stroke-width:22.6274;stroke-linecap:round;stroke-linejoin:round"
     id="rect1457"
     width="32"
     height="8"
     x="112"
     y="80"
     ry="4" />
</svg>
