<?xml version="1.0" encoding="UTF-8" standalone="no"?>
<!-- Created with Inkscape (http://www.inkscape.org/) -->

<svg
   width="16"
   height="16"
   viewBox="0 0 16 16"
   version="1.1"
   id="svg5"
   inkscape:version="1.2.1 (9c6d41e410, 2022-07-14)"
   sodipodi:docname="akregator.svg"
   xmlns:inkscape="http://www.inkscape.org/namespaces/inkscape"
   xmlns:sodipodi="http://sodipodi.sourceforge.net/DTD/sodipodi-0.dtd"
   xmlns:xlink="http://www.w3.org/1999/xlink"
   xmlns="http://www.w3.org/2000/svg"
   xmlns:svg="http://www.w3.org/2000/svg">
  <sodipodi:namedview
     id="namedview7"
     pagecolor="#ffffff"
     bordercolor="#000000"
     borderopacity="0.25"
     inkscape:showpageshadow="2"
     inkscape:pageopacity="0.0"
     inkscape:pagecheckerboard="0"
     inkscape:deskcolor="#d1d1d1"
     inkscape:document-units="px"
     showgrid="false"
     inkscape:zoom="50.1875"
     inkscape:cx="8"
     inkscape:cy="8"
     inkscape:window-width="1920"
     inkscape:window-height="1006"
     inkscape:window-x="0"
     inkscape:window-y="0"
     inkscape:window-maximized="1"
     inkscape:current-layer="svg5" />
  <defs
     id="defs2">
    <linearGradient
       inkscape:collect="always"
       id="linearGradient1428">
      <stop
         style="stop-color:#ffbb75;stop-opacity:1;"
         offset="0"
         id="stop1424" />
      <stop
         style="stop-color:#f68200;stop-opacity:1;"
         offset="1"
         id="stop1426" />
    </linearGradient>
    <linearGradient
       inkscape:collect="always"
       xlink:href="#linearGradient1428"
       id="linearGradient1091"
       x1="16"
       y1="16"
       x2="0"
       y2="0"
       gradientUnits="userSpaceOnUse" />
  </defs>
  <path
     id="path530"
     style="fill:url(#linearGradient1091);fill-opacity:1.0;stroke-width:0.5;stroke-linecap:round;stroke-linejoin:round"
     d="M 6,0 C 1.4494094,0 0,1.469913 0,6 v 4 c 0,4.530087 1.4494094,6 6,6 h 4 c 4.550591,0 6,-1.469914 6,-6 V 6 C 16,1.469913 14.550591,0 10,0 Z"
     sodipodi:nodetypes="sssssssss" />
  <path
     id="path1009"
     style="color:#000000;fill:#ffffff;stroke-linecap:round;-inkscape-stroke:none"
     d="M 4.5 3 A 0.5 0.5 0 0 0 4 3.5 A 0.5 0.5 0 0 0 4.5 4 C 8.6480497 4 12 7.3519503 12 11.5 A 0.5 0.5 0 0 0 12.5 12 A 0.5 0.5 0 0 0 13 11.5 C 13 6.8115113 9.1884887 3 4.5 3 z M 4.5 6 A 0.5 0.5 0 0 0 4 6.5 A 0.5 0.5 0 0 0 4.5 7 C 6.9911987 7 9 9.0088013 9 11.5 A 0.5 0.5 0 0 0 9.5 12 A 0.5 0.5 0 0 0 10 11.5 C 10 8.4683622 7.5316378 6 4.5 6 z M 4.5 10 A 1.5 1.5 0 0 0 3 11.5 A 1.5 1.5 0 0 0 4.5 13 A 1.5 1.5 0 0 0 6 11.5 A 1.5 1.5 0 0 0 4.5 10 z " />
</svg>
