<?xml version="1.0" encoding="UTF-8" standalone="no"?>
<!-- Created with Inkscape (http://www.inkscape.org/) -->

<svg
   width="16"
   height="16"
   viewBox="0 0 16 16"
   version="1.1"
   id="svg5"
   inkscape:version="1.2.1 (9c6d41e410, 2022-07-14)"
   sodipodi:docname="chrome-store.svg"
   xmlns:inkscape="http://www.inkscape.org/namespaces/inkscape"
   xmlns:sodipodi="http://sodipodi.sourceforge.net/DTD/sodipodi-0.dtd"
   xmlns:xlink="http://www.w3.org/1999/xlink"
   xmlns="http://www.w3.org/2000/svg"
   xmlns:svg="http://www.w3.org/2000/svg">
  <sodipodi:namedview
     id="namedview7"
     pagecolor="#ffffff"
     bordercolor="#000000"
     borderopacity="0.25"
     inkscape:showpageshadow="2"
     inkscape:pageopacity="0.0"
     inkscape:pagecheckerboard="0"
     inkscape:deskcolor="#d1d1d1"
     inkscape:document-units="px"
     showgrid="false"
     inkscape:zoom="51.125"
     inkscape:cx="8"
     inkscape:cy="8"
     inkscape:window-width="1920"
     inkscape:window-height="1004"
     inkscape:window-x="0"
     inkscape:window-y="0"
     inkscape:window-maximized="1"
     inkscape:current-layer="svg5" />
  <defs
     id="defs2">
    <linearGradient
       inkscape:collect="always"
       xlink:href="#linearGradient12495"
       id="linearGradient12497"
       x1="3.7041574"
       y1="5.15939"
       x2="8.9958239"
       y2="5.15939"
       gradientUnits="userSpaceOnUse"
       gradientTransform="matrix(1.556276,0,0,1.556276,-1.8823528,4.1176167)" />
    <linearGradient
       inkscape:collect="always"
       id="linearGradient12495">
      <stop
         style="stop-color:#db3328;stop-opacity:1;"
         offset="0"
         id="stop12491" />
      <stop
         style="stop-color:#e53d30;stop-opacity:1"
         offset="1"
         id="stop12493" />
    </linearGradient>
    <linearGradient
       inkscape:collect="always"
       xlink:href="#linearGradient13171"
       id="linearGradient13173"
       x1="4.4023013"
       y1="4.2994838"
       x2="5.9898009"
       y2="7.474484"
       gradientUnits="userSpaceOnUse"
       gradientTransform="matrix(1.556276,0,0,1.556276,-1.8823528,4.1176167)" />
    <linearGradient
       inkscape:collect="always"
       id="linearGradient13171">
      <stop
         style="stop-color:#32a651;stop-opacity:1;"
         offset="0"
         id="stop13167" />
      <stop
         style="stop-color:#279847;stop-opacity:1"
         offset="1"
         id="stop13169" />
    </linearGradient>
  </defs>
  <path
     id="path530"
     style="fill:#eeeeee;fill-opacity:1;stroke-width:0.5;stroke-linecap:round;stroke-linejoin:round"
     d="M 6 0 C 1.4494094 0 0 1.469913 0 6 L 0 10 C 0 14.530087 1.4494094 16 6 16 L 10 16 C 14.550591 16 16 14.530086 16 10 L 16 6 C 16 1.469913 14.550591 0 10 0 L 6 0 z " />
  <path
     id="path15252"
     style="opacity:0.05;fill:#212121;fill-opacity:1;stroke-width:3.00002;stroke-linecap:round;stroke-linejoin:round"
     d="M 6 0 C 1.449414 0 0 1.4699175 0 6 L 0 8 L 16 8 L 16 6 C 16 1.4699175 14.550587 -5.9211835e-16 10 0 L 6 0 z " />
  <path
     id="path1309"
     style="fill:url(#linearGradient12497);fill-opacity:1;stroke-width:0.0273436"
     d="M 8 7 C 5.3011438 7.0002406 2.8428114 8.5519918 1.6816406 10.988281 L 4.5488281 15.935547 C 4.9338107 15.971578 5.3502758 15.991447 5.7949219 15.996094 L 8 14 L 8 10.5 L 13.882812 10.207031 C 12.594055 8.2080249 10.378429 7.0001707 8 7 z " />
  <path
     id="path1449"
     style="fill:url(#linearGradient13173);fill-opacity:1;stroke-width:0.0273436"
     d="M 1.8515625 10.675781 A 6.9999998 6.9999998 0 0 0 1 14 A 6.9999998 6.9999998 0 0 0 1.0234375 14.388672 C 1.7320616 15.304051 2.8563731 15.774195 4.5273438 15.933594 L 1.8515625 10.675781 z M 8 14 L 5.0585938 15.972656 C 5.3581846 15.988917 5.6680453 16 6 16 L 10 16 C 10.366833 16 10.70581 15.986734 11.033203 15.966797 L 11.03125 15.75 L 8 14 z " />
  <path
     id="path1829"
     style="fill:#fbbf12;stroke-width:0.0273436"
     d="M 8 10 L 8 14 L 11.699219 15.5 L 11.404297 15.939453 C 13.121418 15.785419 14.271084 15.310733 14.988281 14.373047 C 14.994803 14.249189 15 14.125482 15 14 C 14.999877 12.569675 14.561593 11.173712 13.744141 10 L 8 10 z " />
  <path
     id="path2229"
     style="fill:#ffffff;stroke-width:0.0312497"
     d="M 8 10 C 5.7908899 10 4 11.79089 4 14 C 4 14.700987 4.1812563 15.358733 4.4980469 15.931641 C 4.9569745 15.976553 5.4549213 16 6 16 L 10 16 C 10.545079 16 11.043026 15.976554 11.501953 15.931641 C 11.818744 15.358733 12 14.700987 12 14 C 12 11.79089 10.20911 10 8 10 z " />
  <path
     id="path2029"
     style="fill:#4688f4;fill-opacity:1;stroke-width:0.0288457"
     d="M 8 11 C 6.3431711 11 5 12.343172 5 14 C 5 14.765674 5.2876628 15.46405 5.7597656 15.994141 C 5.8413734 15.995145 5.9163043 16 6 16 L 10 16 C 10.083696 16 10.158627 15.995145 10.240234 15.994141 C 10.712337 15.46405 11 14.765674 11 14 C 11 12.343172 9.6568273 11 8 11 z " />
  <rect
     style="fill:#fafafa;fill-opacity:1;stroke-width:2;stroke-linecap:round;stroke-linejoin:round"
     id="rect16046"
     width="6"
     height="2"
     x="5"
     y="2"
     ry="1" />
</svg>
