<?xml version="1.0" encoding="UTF-8" standalone="no"?>
<!-- Created with Inkscape (http://www.inkscape.org/) -->

<svg
   width="16"
   height="16"
   viewBox="0 0 16 16"
   version="1.1"
   id="svg5"
   inkscape:version="1.4.4 (dcaf3e7d9e, 2026-05-05)"
   sodipodi:docname="cities-skylines-2.svg"
   xmlns:inkscape="http://www.inkscape.org/namespaces/inkscape"
   xmlns:sodipodi="http://sodipodi.sourceforge.net/DTD/sodipodi-0.dtd"
   xmlns:xlink="http://www.w3.org/1999/xlink"
   xmlns="http://www.w3.org/2000/svg"
   xmlns:svg="http://www.w3.org/2000/svg">
  <sodipodi:namedview
     id="namedview7"
     pagecolor="#ffffff"
     bordercolor="#000000"
     borderopacity="0.25"
     inkscape:showpageshadow="2"
     inkscape:pageopacity="0.0"
     inkscape:pagecheckerboard="0"
     inkscape:deskcolor="#d1d1d1"
     inkscape:document-units="px"
     showgrid="false"
     inkscape:zoom="50.25"
     inkscape:cx="8"
     inkscape:cy="8"
     inkscape:window-width="1920"
     inkscape:window-height="1012"
     inkscape:window-x="0"
     inkscape:window-y="0"
     inkscape:window-maximized="1"
     inkscape:current-layer="svg5" />
  <defs
     id="defs2">
    <linearGradient
       inkscape:collect="always"
       id="linearGradient3">
      <stop
         style="stop-color:#18d7ff;stop-opacity:1;"
         offset="0"
         id="stop1" />
      <stop
         style="stop-color:#0071de;stop-opacity:1;"
         offset="1"
         id="stop2" />
    </linearGradient>
    <linearGradient
       inkscape:collect="always"
       xlink:href="#linearGradient3"
       id="linearGradient4"
       x1="8"
       y1="16"
       x2="8"
       y2="0"
       gradientUnits="userSpaceOnUse" />
  </defs>
  <path
     id="path530"
     style="fill:url(#linearGradient4);fill-opacity:1;stroke-width:0.5;stroke-linecap:round;stroke-linejoin:round"
     d="M 6 0 C 1.4494094 0 0 1.469913 0 6 L 0 10 C 0 14.530087 1.4494094 16 6 16 L 10 16 C 14.550591 16 16 14.530086 16 10 L 16 6 C 16 1.469913 14.550591 0 10 0 L 6 0 z " />
  <path
     id="path1"
     style="fill:#ffffff"
     d="M 7.2481362,3 C 7.1996992,3.026998 7.1518398,3.0550333 7.103605,3.0820312 5.8732071,3.7891747 4.6445497,4.4979346 3.4141518,5.2050781 3.3717698,5.2290761 3.3288449,5.2532051 3.291105,5.2832031 3.1240986,5.4133927 3.0154635,5.6157887 3.0020424,5.8261719 v 0.1523437 1.484375 c 5.047e-4,0.053996 -3.253e-4,0.1081137 0.00977,0.1621094 0.018164,0.1234901 0.080486,0.2401255 0.1738281,0.3242188 0.053482,0.051996 0.1222762,0.08475 0.1855469,0.1230468 0.439262,0.2555796 0.8771441,0.5100454 1.3164062,0.765625 0.065592,0.036997 0.1306649,0.078084 0.1972657,0.1132813 5.046e-4,-0.090993 -2.018e-4,-0.1808917 0,-0.2714844 -4.037e-4,-0.4903608 -7.065e-4,-0.9803424 0,-1.4707031 3.993e-4,-0.2308816 6.369e-4,-0.4605248 0.00195,-0.6914063 C 4.9513911,6.4785811 5.0168317,6.4415939 5.0821206,6.4042969 5.8060503,5.99063 6.529965,5.5754763 7.2539956,5.1621094 c 0,-0.7208423 5.045e-4,-1.4413671 0,-2.1621094 z m 0.5019531,0.00195 c -6.026e-4,0.720295 -0.00175,1.4418209 -0.00195,2.1621125 1.3828728,0.787437 2.7674167,1.5737911 4.1503907,2.3613281 0.0333,0.017999 0.06429,0.039689 0.09961,0.054687 V 5.8828125 C 11.998947,5.8318165 11.998531,5.7790116 11.98642,5.7285156 11.957155,5.5549292 11.864128,5.3930878 11.728605,5.2792969 11.65595,5.216302 11.568659,5.1753493 11.486417,5.1269531 10.536146,4.5857964 9.585126,4.044963 8.634855,3.5039062 8.3402621,3.3366575 8.045079,3.168712 7.7500893,3.0019531 Z m 2.3652347,4.044925 c 0.0012,7.191e-4 0.0027,0.00123 0.0039,0.00195 v -0.00195 z m 0.0039,0.00195 c -4.78e-4,0.065289 10e-5,0.1296412 0,0.1953125 5.04e-4,0.4917607 -0.0012,0.9848018 -0.002,1.4765625 -1.01e-4,0.2541796 1.01e-4,0.5074391 0,0.7617188 -0.789569,0.451267 -1.5794656,0.9021542 -2.3690878,1.3535192 3.027e-4,0.720741 8.43e-4,1.44332 0.00195,2.164062 0.081737,-0.046 0.1640538,-0.09558 0.2460938,-0.142578 1.178429,-0.677445 2.356627,-1.353804 3.535156,-2.03125 0.06156,-0.036 0.124591,-0.06848 0.179688,-0.113281 0.140063,-0.110791 0.237679,-0.27288 0.271484,-0.447266 0.02018,-0.09499 0.01462,-0.191017 0.01563,-0.2871094 -1.01e-4,-0.4801616 -1.01e-4,-0.9613446 0,-1.4414062 -5.04e-4,-0.054996 -0.0016,-0.1109201 -0.01172,-0.1660156 C 11.963204,8.2125064 11.865202,8.0668684 11.726652,7.984375 11.190644,7.6724207 10.655636,7.3600896 10.11923,7.0488281 Z M 3.0000893,8.4199219 c -2.01e-4,0.5552423 0,1.1108732 0,1.6660161 5.045e-4,0.032 0,0.06467 0,0.09766 0.010091,0.139089 0.054744,0.276134 0.1347657,0.390625 0.063573,0.09199 0.1482108,0.168513 0.2460937,0.224609 1.2884213,0.733341 2.5769141,1.467831 3.8652344,2.201172 8.073e-4,-0.721042 -4.036e-4,-1.443021 0,-2.164062 C 6.9153996,10.646854 6.5850819,10.460069 6.2539956,10.271484 5.1993833,9.6709327 4.1445454,9.0711551 3.0899331,8.4707031 3.0602601,8.4550216 3.0316244,8.4338726 3.0000893,8.4199219 Z" />
</svg>
