<?xml version="1.0" encoding="UTF-8" standalone="no"?>
<!-- Created with Inkscape (http://www.inkscape.org/) -->

<svg
   width="16"
   height="16"
   viewBox="0 0 16 16"
   version="1.1"
   id="svg5"
   inkscape:version="1.2.1 (9c6d41e410, 2022-07-14)"
   sodipodi:docname="discord.svg"
   xmlns:inkscape="http://www.inkscape.org/namespaces/inkscape"
   xmlns:sodipodi="http://sodipodi.sourceforge.net/DTD/sodipodi-0.dtd"
   xmlns="http://www.w3.org/2000/svg"
   xmlns:svg="http://www.w3.org/2000/svg">
  <sodipodi:namedview
     id="namedview7"
     pagecolor="#ffffff"
     bordercolor="#000000"
     borderopacity="0.25"
     inkscape:showpageshadow="2"
     inkscape:pageopacity="0.0"
     inkscape:pagecheckerboard="0"
     inkscape:deskcolor="#d1d1d1"
     inkscape:document-units="px"
     showgrid="false"
     inkscape:zoom="50"
     inkscape:cx="7.99"
     inkscape:cy="8"
     inkscape:window-width="1920"
     inkscape:window-height="1006"
     inkscape:window-x="0"
     inkscape:window-y="0"
     inkscape:window-maximized="1"
     inkscape:current-layer="svg5" />
  <defs
     id="defs2" />
  <path
     id="path530"
     style="fill:#5865f2;fill-opacity:1;stroke-width:0.5;stroke-linecap:round;stroke-linejoin:round"
     d="M 6 0 C 1.4494094 0 0 1.469913 0 6 L 0 10 C 0 14.530087 1.4494094 16 6 16 L 10 16 C 14.550591 16 16 14.530086 16 10 L 16 6 C 16 1.469913 14.550591 0 10 0 L 6 0 z " />
  <path
     id="path492"
     style="display:inline;fill:#ffffff;stroke-width:0.279557;enable-background:new"
     d="M 6.296875,4.0006089 C 6.0089606,4.010218 4.7760859,4.1121151 3.4804688,5.1236558 3.4804688,5.1236558 2,7.9232513 2,11.36975 c 0,0 0.8642535,1.555233 3.1367188,1.630859 -10e-8,0 0.3809685,-0.476163 0.6894531,-0.886719 -1.3058988,-0.410547 -1.8007813,-1.263672 -1.8007813,-1.263672 0,0 0.1039765,0.07556 0.2890625,0.183594 0.010302,0 0.020478,0.01076 0.041016,0.02149 0.030844,0.02164 0.060993,0.03309 0.091797,0.05469 0.2570728,0.151256 0.5134941,0.269958 0.75,0.367187 0.4215896,0.183671 0.9256094,0.345997 1.5117188,0.464844 0.7712066,0.151257 1.6769281,0.20424 2.6640625,0.0098 0.4832845,-0.09724 0.9760976,-0.236012 1.4902336,-0.462891 0.359888,-0.140461 0.762004,-0.346956 1.183594,-0.638672 0,0 -0.514302,0.875639 -1.861328,1.275391 0.308477,0.399746 0.677734,0.863281 0.677734,0.863281 C 13.135746,12.913259 14,11.35903 14,11.36975 14,7.9232519 12.519531,5.1236558 12.519531,5.1236558 11.049117,3.9676196 9.640625,4.0006089 9.640625,4.0006089 L 9.4960938,4.174437 C 11.244146,4.7254416 12.056641,5.5357651 12.056641,5.5357651 10.987243,4.930739 9.9377928,4.6272676 8.9609375,4.5084214 c -0.740353,-0.086464 -1.4489292,-0.06495 -2.0761719,0.021484 -0.061696,0 -0.1140843,0.010653 -0.1757812,0.021484 C 6.349091,4.5946025 5.475241,4.7252333 4.375,5.2330308 3.9945356,5.4058989 3.7695312,5.5357651 3.7695312,5.5357651 c 0,1e-7 0.8424757,-0.8532956 2.6933594,-1.4042968 L 6.359375,4.0006089 c 0,0 -0.021369,-0.00137 -0.0625,0 z m -0.296875,4 c 0.5587698,0 1.0098,0.5011319 1,1.125 0,0.6238586 -0.4412302,1.1250001 -1,1.1250001 -0.5489684,0 -1,-0.5011415 -1,-1.1250001 0,-0.6238681 0.4412321,-1.125 1,-1.125 z m 4,0 c 0.558769,0 1.0098,0.5011319 1,1.125 0,0.6238583 -0.441231,1.1250001 -1,1.1250001 -0.5489682,0 -1,-0.5011418 -1,-1.1250001 0,-0.6238681 0.4412323,-1.125 1,-1.125 z" />
</svg>
