<?xml version="1.0" encoding="UTF-8" standalone="no"?>
<!-- Created with Inkscape (http://www.inkscape.org/) -->

<svg
   width="16"
   height="16"
   viewBox="0 0 16 16"
   version="1.1"
   id="svg5"
   inkscape:version="1.2.1 (9c6d41e410, 2022-07-14)"
   sodipodi:docname="dolphin-emu.svg"
   xmlns:inkscape="http://www.inkscape.org/namespaces/inkscape"
   xmlns:sodipodi="http://sodipodi.sourceforge.net/DTD/sodipodi-0.dtd"
   xmlns:xlink="http://www.w3.org/1999/xlink"
   xmlns="http://www.w3.org/2000/svg"
   xmlns:svg="http://www.w3.org/2000/svg">
  <sodipodi:namedview
     id="namedview7"
     pagecolor="#ffffff"
     bordercolor="#000000"
     borderopacity="0.25"
     inkscape:showpageshadow="2"
     inkscape:pageopacity="0.0"
     inkscape:pagecheckerboard="0"
     inkscape:deskcolor="#d1d1d1"
     inkscape:document-units="px"
     showgrid="false"
     inkscape:zoom="50"
     inkscape:cx="7.99"
     inkscape:cy="8"
     inkscape:window-width="1920"
     inkscape:window-height="1011"
     inkscape:window-x="0"
     inkscape:window-y="32"
     inkscape:window-maximized="1"
     inkscape:current-layer="svg5" />
  <defs
     id="defs2">
    <linearGradient
       inkscape:collect="always"
       id="linearGradient1786">
      <stop
         style="stop-color:#0b9af0;stop-opacity:1;"
         offset="0"
         id="stop1782" />
      <stop
         style="stop-color:#4bb7f6;stop-opacity:1;"
         offset="1"
         id="stop1784" />
    </linearGradient>
    <linearGradient
       inkscape:collect="always"
       xlink:href="#linearGradient1786"
       id="linearGradient1091"
       x1="0"
       y1="0"
       x2="16"
       y2="16"
       gradientUnits="userSpaceOnUse" />
    <linearGradient
       inkscape:collect="always"
       id="linearGradient1606">
      <stop
         style="stop-color:#eaebed;stop-opacity:1;"
         offset="0"
         id="stop1602" />
      <stop
         style="stop-color:#f9fafa;stop-opacity:1;"
         offset="1"
         id="stop1604" />
    </linearGradient>
    <linearGradient
       inkscape:collect="always"
       xlink:href="#linearGradient1606"
       id="linearGradient1788"
       x1="2"
       y1="4.994"
       x2="14.000093"
       y2="11.605485"
       gradientUnits="userSpaceOnUse" />
  </defs>
  <path
     id="path530"
     style="fill:url(#linearGradient1091);fill-opacity:1.0;stroke-width:0.5;stroke-linecap:round;stroke-linejoin:round"
     d="M 6 0 C 1.4494094 0 0 1.469913 0 6 L 0 10 C 0 14.530087 1.4494094 16 6 16 L 10 16 C 14.550591 16 16 14.530086 16 10 L 16 6 C 16 1.469913 14.550591 0 10 0 L 6 0 z " />
  <path
     id="path358"
     style="fill:url(#linearGradient1788);stroke-width:0.374983;fill-opacity:1.0"
     d="m 10.468797,4.9941168 c -0.08295,6.118e-4 -0.172502,0.00379 -0.265625,0.00977 C 9.5039975,5.0487348 8.87725,5.4581279 8.7598124,5.5156012 8.3832672,5.4078142 7.9536739,5.1828788 7.4512187,5.0976324 5.7133083,4.8027768 4.2420153,5.2728626 3.503953,5.7851324 2.5365824,6.4565573 2.5641722,7.2104823 2.4844218,7.5234137 2.4350223,7.7172673 1.9947852,8.0766216 2.0000468,8.3281012 2.0086439,8.6563569 2.2129374,8.761695 2.2129374,8.761695 2.3975331,8.7471236 2.6729296,8.6143434 2.9082499,8.5175543 3.2575497,8.3738794 3.2856665,8.2967061 4.2402812,8.1542731 c 0.4391871,-0.06553 0.9019677,-0.085003 1.2460937,-0.087891 0.133914,0.2827683 0.4661067,0.8637824 1.0429688,1.1425782 0.3423051,0.1575126 0.8581239,0.2284638 1.0859375,0.2734375 l 0.6660156,0.099609 V 9.3124762 c 0,0 -0.5602877,-0.2321859 -0.9042969,-0.5761719 C 7.2318147,8.5911298 7.2316126,8.4174476 7.191453,8.2441168 7.7215659,8.3439144 8.1927543,8.4195187 9.3105937,8.8476324 10.34015,9.2419338 11.044162,9.8137723 11.044968,9.8144293 v 0.00195 l 0.002,0.00195 v -0.269525 l -0.002,-0.00195 C 11.03556,9.5352313 10.314641,8.6412284 9.1016093,8.042945 8.0990775,7.5484697 7.2752832,7.3033343 6.1348124,7.2480231 4.9503814,7.1905763 4.1618628,7.3275048 4.0762187,7.3417731 4.1777794,7.1399215 4.3832346,6.880172 4.9355937,6.62107 5.753934,6.2371944 7.042047,6.1738252 8.519578,6.5507574 c 2.087426,0.5325249 2.799356,1.4398983 3.697265,2.3769532 0.955134,0.9967877 1.780295,2.6699364 1.78125,2.6718744 v 0.002 l 0.002,0.0039 v -0.269531 l -0.0078,-0.02149 C 13.952254,11.180612 13.704422,10.373184 13.285202,9.5995856 12.732903,8.5804077 12.258265,7.8512356 11.466843,7.1113043 10.914691,6.6994573 10.353196,6.1404241 10.449266,5.8984137 10.697737,5.5714805 11.370604,5.3715876 11.373093,5.37107 h 0.002 V 5.36912 5.1015419 c 0,0 -0.325622,-0.111704 -0.906249,-0.1074219 z" />
</svg>
