<?xml version="1.0" encoding="UTF-8" standalone="no"?>
<!-- Created with Inkscape (http://www.inkscape.org/) -->

<svg
   width="16"
   height="16"
   viewBox="0 0 16 16"
   version="1.1"
   id="svg5"
   inkscape:version="1.2.2 (1:1.2.2+202305151914+b0a8486541)"
   sodipodi:docname="firewall-config.svg"
   xmlns:inkscape="http://www.inkscape.org/namespaces/inkscape"
   xmlns:sodipodi="http://sodipodi.sourceforge.net/DTD/sodipodi-0.dtd"
   xmlns:xlink="http://www.w3.org/1999/xlink"
   xmlns="http://www.w3.org/2000/svg"
   xmlns:svg="http://www.w3.org/2000/svg">
  <sodipodi:namedview
     id="namedview7"
     pagecolor="#ffffff"
     bordercolor="#000000"
     borderopacity="0.25"
     inkscape:showpageshadow="2"
     inkscape:pageopacity="0.0"
     inkscape:pagecheckerboard="0"
     inkscape:deskcolor="#d1d1d1"
     inkscape:document-units="px"
     showgrid="false"
     inkscape:zoom="50.625"
     inkscape:cx="7.9901235"
     inkscape:cy="8"
     inkscape:window-width="1920"
     inkscape:window-height="1012"
     inkscape:window-x="0"
     inkscape:window-y="0"
     inkscape:window-maximized="1"
     inkscape:current-layer="svg5" />
  <defs
     id="defs2">
    <linearGradient
       inkscape:collect="always"
       id="linearGradient918">
      <stop
         style="stop-color:#923b26;stop-opacity:1;"
         offset="0"
         id="stop914" />
      <stop
         style="stop-color:#c17b6e;stop-opacity:1;"
         offset="1"
         id="stop916" />
    </linearGradient>
    <linearGradient
       inkscape:collect="always"
       xlink:href="#linearGradient918"
       id="linearGradient1091"
       x1="0"
       y1="0"
       x2="16"
       y2="16"
       gradientUnits="userSpaceOnUse" />
  </defs>
  <path
     id="path530"
     style="fill:url(#linearGradient1091);fill-opacity:1.0;stroke-width:0.5;stroke-linecap:round;stroke-linejoin:round"
     d="M 6 0 C 1.4494094 0 0 1.469913 0 6 L 0 10 C 0 14.530087 1.4494094 16 6 16 L 10 16 C 14.550591 16 16 14.530086 16 10 L 16 6 C 16 1.469913 14.550591 0 10 0 L 6 0 z " />
  <path
     id="rect972"
     style="fill:#ffffff;stroke-linecap:square;stroke-linejoin:round;opacity:0.5"
     d="M 10 0 L 10 5 L 5 5 L 5 0.03125 C 4.6465491 0.051920221 4.3098609 0.081300769 4 0.12695312 L 4 5 L 0.03125 5 C 0.012787721 5.3171788 0 5.6462591 0 6 L 1 6 L 1 10 L 0 10 C 0 10.353741 0.012787721 10.682821 0.03125 11 L 4 11 L 4 15.873047 C 4.3098609 15.918699 4.6465491 15.94808 5 15.96875 L 5 11 L 10 11 L 10 16 C 10.354222 16 10.68258 15.987313 11 15.96875 L 11 11 L 15.96875 11 C 15.987212 10.682821 16 10.353741 16 10 L 14 10 L 14 6 L 16 6 C 16 5.6462591 15.987212 5.3171788 15.96875 5 L 11 5 L 11 0.03125 C 10.68258 0.012686934 10.354222 -9.2182103e-17 10 0 z M 2 6 L 7 6 L 7 10 L 2 10 L 2 6 z M 8 6 L 13 6 L 13 10 L 8 10 L 8 6 z " />
</svg>
