<?xml version="1.0" encoding="UTF-8" standalone="no"?>
<!-- Created with Inkscape (http://www.inkscape.org/) -->

<svg
   width="16"
   height="16"
   viewBox="0 0 16 16"
   version="1.1"
   id="svg5"
   inkscape:version="1.2.1 (9c6d41e410, 2022-07-14)"
   sodipodi:docname="gnome-contacts.svg"
   xmlns:inkscape="http://www.inkscape.org/namespaces/inkscape"
   xmlns:sodipodi="http://sodipodi.sourceforge.net/DTD/sodipodi-0.dtd"
   xmlns:xlink="http://www.w3.org/1999/xlink"
   xmlns="http://www.w3.org/2000/svg"
   xmlns:svg="http://www.w3.org/2000/svg">
  <sodipodi:namedview
     id="namedview7"
     pagecolor="#ffffff"
     bordercolor="#000000"
     borderopacity="0.25"
     inkscape:showpageshadow="2"
     inkscape:pageopacity="0.0"
     inkscape:pagecheckerboard="0"
     inkscape:deskcolor="#d1d1d1"
     inkscape:document-units="px"
     showgrid="false"
     inkscape:zoom="24.75"
     inkscape:cx="4"
     inkscape:cy="9.9393939"
     inkscape:window-width="1920"
     inkscape:window-height="1004"
     inkscape:window-x="0"
     inkscape:window-y="0"
     inkscape:window-maximized="1"
     inkscape:current-layer="svg5" />
  <defs
     id="defs2">
    <linearGradient
       inkscape:collect="always"
       xlink:href="#linearGradient8443"
       id="linearGradient1091"
       x1="0"
       y1="0"
       x2="16"
       y2="16"
       gradientUnits="userSpaceOnUse" />
    <linearGradient
       inkscape:collect="always"
       id="linearGradient8443">
      <stop
         style="stop-color:#3465c4;stop-opacity:1;"
         offset="0"
         id="stop8439" />
      <stop
         style="stop-color:#68b4f7;stop-opacity:1;"
         offset="1"
         id="stop8441" />
    </linearGradient>
  </defs>
  <path
     id="path530"
     style="fill:url(#linearGradient1091);fill-opacity:1;stroke-width:0.5;stroke-linecap:round;stroke-linejoin:round"
     d="M 6 0 C 1.4494094 0 0 1.469913 0 6 L 0 10 C 0 14.530087 1.4494094 16 6 16 L 10 16 C 14.550591 16 16 14.530086 16 10 L 16 6 C 16 1.469913 14.550591 0 10 0 L 6 0 z " />
  <path
     id="rect294"
     style="fill:#8ace64;fill-opacity:1;stroke-width:0.948683;stroke-linecap:round;stroke-linejoin:round"
     d="M 13 0.34375 L 13 11.5 L 15.933594 11.5 C 15.978252 11.041524 16 10.543973 16 10 L 16 6 C 16 2.6738024 15.21665 0.99985798 13 0.34375 z " />
  <path
     id="rect956"
     style="fill:#f44d4d;fill-opacity:1;stroke-width:0.908295;stroke-linecap:round;stroke-linejoin:round"
     d="M 13 5 L 13 12 L 15.873047 12 C 15.959513 11.411715 16 10.747985 16 10 L 16 6 C 16 5.6462591 15.987212 5.3171788 15.96875 5 L 13 5 z " />
  <path
     id="rect1736"
     style="fill:#ffbc42;fill-opacity:1;stroke-width:0.858117;stroke-linecap:round;stroke-linejoin:round"
     d="M 13 10 L 13 15.65625 C 15.21665 15.000142 16 13.326197 16 10 L 13 10 z " />
  <path
     id="rect4024"
     style="opacity:0.2;fill:#000000;fill-opacity:1;stroke-width:1.09545;stroke-linecap:round;stroke-linejoin:round"
     d="m 13,5 v 1 h 3 V 5 Z m 0,5 v 1 h 3 v -1 z"
     sodipodi:nodetypes="cccccccccc" />
  <path
     d="M 7,4 C 4.790861,4 3,5.790861 3,8 c 0,2.209139 1.790861,4 4,4 h 2.5 c 0.2769999,0 0.4999999,-0.223 0.4999999,-0.5 0,-0.277 -0.223,-0.5 -0.4999999,-0.5 H 7 C 5.3431458,11 4.0000001,9.6568542 4,8 c 1e-7,-1.6568542 1.3431458,-2.9999999 3,-3 1.6568542,1e-7 2.9999999,1.3431458 2.9999999,3 V 8.5 C 9.9999999,8.7769994 9.7769989,9 9.5,9 9.2230006,9 9,8.7769994 9,8.5 V 8 C 9,6.8954305 8.1045695,6 7,6 5.8954305,6 5,6.8954305 5,8 5,9.1045695 5.8954305,10 7,10 7.5018444,9.9990022 7.9849739,9.8093752 8.3535156,9.4687502 8.6282459,9.7938962 9.039056,10 9.5,10 10.330997,10 11,9.3309976 11,8.5 V 8 C 11,5.790861 9.209139,4 7,4 Z M 7,7 C 7.5522847,7 8,7.4477153 8,8 8,8.5522847 7.5522847,9 7,9 6.4477153,9 6,8.5522847 6,8 6,7.4477153 6.4477153,7 7,7 Z"
     style="fill:#ffffff;fill-opacity:1;stroke-linecap:round;stroke-linejoin:round"
     id="path4535" />
</svg>
