<?xml version="1.0" encoding="UTF-8" standalone="no"?>
<!-- Created with Inkscape (http://www.inkscape.org/) -->

<svg
   width="16"
   height="16"
   viewBox="0 0 16 16"
   version="1.1"
   id="svg5"
   inkscape:version="1.2.1 (9c6d41e410, 2022-07-14)"
   sodipodi:docname="google-drive.svg"
   xmlns:inkscape="http://www.inkscape.org/namespaces/inkscape"
   xmlns:sodipodi="http://sodipodi.sourceforge.net/DTD/sodipodi-0.dtd"
   xmlns="http://www.w3.org/2000/svg"
   xmlns:svg="http://www.w3.org/2000/svg">
  <sodipodi:namedview
     id="namedview7"
     pagecolor="#ffffff"
     bordercolor="#000000"
     borderopacity="0.25"
     inkscape:showpageshadow="2"
     inkscape:pageopacity="0.0"
     inkscape:pagecheckerboard="0"
     inkscape:deskcolor="#d1d1d1"
     inkscape:document-units="px"
     showgrid="false"
     inkscape:zoom="49.625"
     inkscape:cx="8"
     inkscape:cy="8"
     inkscape:window-width="1920"
     inkscape:window-height="1006"
     inkscape:window-x="0"
     inkscape:window-y="0"
     inkscape:window-maximized="1"
     inkscape:current-layer="svg5" />
  <defs
     id="defs2" />
  <path
     id="path530"
     style="fill:#fafafa;fill-opacity:1;stroke-width:0.5;stroke-linecap:round;stroke-linejoin:round"
     d="M 6 0 C 1.4494094 0 0 1.469913 0 6 L 0 10 C 0 14.530087 1.4494094 16 6 16 L 10 16 C 14.550591 16 16 14.530086 16 10 L 16 6 C 16 1.469913 14.550591 0 10 0 L 6 0 z " />
  <path
     inkscape:connector-curvature="0"
     d="m 3.7560146,11.6575 0.4410079,0.761741 c 0.091638,0.160365 0.2233663,0.286367 0.3780072,0.378007 L 6.1500582,10.071019 H 3.0000007 c 0,0.177551 0.04582,0.355095 0.1374584,0.515461 z"
     id="path2-0"
     style="fill:#0066da;stroke-width:0.114547" />
  <path
     inkscape:connector-curvature="0"
     d="M 8.0000009,6.863688 6.4249716,4.1374573 C 6.2703322,4.2290889 6.1386044,4.3550984 6.0469652,4.5154637 L 3.1374577,9.5555546 A 1.0378006,1.0378006 0 0 0 3.0000026,10.071019 h 3.1500575 z"
     id="path4-3"
     style="fill:#00ac47;stroke-width:0.114547" />
  <path
     inkscape:connector-curvature="0"
     d="m 11.424973,12.797248 c 0.15464,-0.09163 0.286367,-0.21764 0.378007,-0.378007 l 0.183275,-0.315005 0.876289,-1.517755 c 0.09164,-0.160364 0.137458,-0.337912 0.137458,-0.515461 H 9.8497134 l 0.6703326,1.317295 z"
     id="path6-0"
     style="fill:#ea4335;stroke-width:0.114547" />
  <path
     inkscape:connector-curvature="0"
     d="M 8.0000009,6.863688 9.5750284,4.1374573 C 9.4203893,4.0458196 9.2428411,4 9.0595654,4 H 6.9404357 C 6.7571588,4 6.5796117,4.051549 6.4249716,4.1374577 Z"
     id="path8-4"
     style="fill:#00832d;stroke-width:0.114547" />
  <path
     inkscape:connector-curvature="0"
     d="M 9.8499444,10.071019 H 6.1500582 l -1.5750285,2.726229 c 0.1546393,0.09165 0.3321864,0.137458 0.5154633,0.137458 h 5.819015 c 0.183277,0 0.360824,-0.05155 0.515465,-0.137458 z"
     id="path10-4"
     style="fill:#2684fc;stroke-width:0.114547" />
  <path
     inkscape:connector-curvature="0"
     d="M 11.40779,7.0355099 9.9530354,4.5154637 C 9.8614024,4.3550972 9.7296684,4.229095 9.5750284,4.1374573 L 8.0000009,6.863688 9.8499444,10.071019 h 3.1443296 c 0,-0.1775494 -0.04582,-0.3550974 -0.137454,-0.5154644 z"
     id="path12"
     style="fill:#ffba00;stroke-width:0.114547" />
</svg>
