<?xml version="1.0" encoding="UTF-8" standalone="no"?>
<!-- Created with Inkscape (http://www.inkscape.org/) -->

<svg
   width="16"
   height="16"
   viewBox="0 0 16 16"
   version="1.1"
   id="svg5"
   inkscape:version="1.2.1 (9c6d41e410, 2022-07-14)"
   sodipodi:docname="gwenview.svg"
   xmlns:inkscape="http://www.inkscape.org/namespaces/inkscape"
   xmlns:sodipodi="http://sodipodi.sourceforge.net/DTD/sodipodi-0.dtd"
   xmlns:xlink="http://www.w3.org/1999/xlink"
   xmlns="http://www.w3.org/2000/svg"
   xmlns:svg="http://www.w3.org/2000/svg">
  <sodipodi:namedview
     id="namedview7"
     pagecolor="#ffffff"
     bordercolor="#000000"
     borderopacity="0.25"
     inkscape:showpageshadow="2"
     inkscape:pageopacity="0.0"
     inkscape:pagecheckerboard="0"
     inkscape:deskcolor="#d1d1d1"
     inkscape:document-units="px"
     showgrid="false"
     inkscape:zoom="49.5"
     inkscape:cx="7.989899"
     inkscape:cy="8"
     inkscape:window-width="1920"
     inkscape:window-height="1004"
     inkscape:window-x="0"
     inkscape:window-y="0"
     inkscape:window-maximized="1"
     inkscape:current-layer="svg5" />
  <defs
     id="defs2">
    <linearGradient
       inkscape:collect="always"
       xlink:href="#linearGradient928"
       id="linearGradient1091"
       x1="16"
       y1="16"
       x2="0"
       y2="0"
       gradientUnits="userSpaceOnUse" />
    <linearGradient
       inkscape:collect="always"
       id="linearGradient928">
      <stop
         style="stop-color:#ef7fb2;stop-opacity:1;"
         offset="0"
         id="stop924" />
      <stop
         style="stop-color:#c01c66;stop-opacity:1;"
         offset="1"
         id="stop926" />
    </linearGradient>
  </defs>
  <path
     id="path530"
     style="fill:url(#linearGradient1091);fill-opacity:1;stroke-width:0.5;stroke-linecap:round;stroke-linejoin:round"
     d="M 6 0 C 1.4494094 0 0 1.469913 0 6 L 0 10 C 0 14.530087 1.4494094 16 6 16 L 10 16 C 14.550591 16 16 14.530086 16 10 L 16 6 C 16 1.469913 14.550591 0 10 0 L 6 0 z " />
  <path
     id="path1204"
     style="opacity:0.5;fill:#ffffff;stroke-width:0.277777;stroke-linecap:round;stroke-linejoin:round"
     d="M 8,5.5 C 6.61929,5.5 5.5,6.61929 5.5,8 5.5,9.380709 6.61929,10.5 8,10.5 9.380709,10.5 10.5,9.380709 10.5,8 10.5,6.61929 9.380709,5.5 8,5.5 Z M 8,7 C 8.552283,7 9,7.447716 9,8 9,8.552283 8.552283,9 8,9 7.447716,9 7,8.552283 7,8 7,7.447716 7.447716,7 8,7 Z" />
  <path
     id="path1336"
     style="color:#000000;fill:#ffffff;stroke:none;stroke-width:0.5;stroke-linecap:round;stroke-linejoin:round"
     d="M 8,5 C 4.872289,4.9946 3,8 3,8 3,8 4.800026,11.005502 8,11 11.199974,11.0055 13,8 13,8 13,8 11.127711,4.994595 8,5 Z M 8,6 C 9.104567,6 10,6.895433 10,8 10,9.104567 9.104567,9.9999997 8,9.9999997 6.895433,9.9999997 6,9.104567 6,8 6,6.895433 6.895433,6 8,6 Z" />
</svg>
