<?xml version="1.0" encoding="UTF-8" standalone="no"?>
<!-- Created with Inkscape (http://www.inkscape.org/) -->

<svg
   width="16"
   height="16"
   viewBox="0 0 16 16"
   version="1.1"
   id="svg5"
   inkscape:version="1.2.2 (b0a8486541, 2022-12-01)"
   sodipodi:docname="lunarclient.svg"
   xmlns:inkscape="http://www.inkscape.org/namespaces/inkscape"
   xmlns:sodipodi="http://sodipodi.sourceforge.net/DTD/sodipodi-0.dtd"
   xmlns:xlink="http://www.w3.org/1999/xlink"
   xmlns="http://www.w3.org/2000/svg"
   xmlns:svg="http://www.w3.org/2000/svg">
  <sodipodi:namedview
     id="namedview7"
     pagecolor="#ffffff"
     bordercolor="#000000"
     borderopacity="0.25"
     inkscape:showpageshadow="2"
     inkscape:pageopacity="0.0"
     inkscape:pagecheckerboard="0"
     inkscape:deskcolor="#d1d1d1"
     inkscape:document-units="px"
     showgrid="false"
     inkscape:zoom="49.75"
     inkscape:cx="8"
     inkscape:cy="8"
     inkscape:window-width="1920"
     inkscape:window-height="1002"
     inkscape:window-x="0"
     inkscape:window-y="0"
     inkscape:window-maximized="1"
     inkscape:current-layer="svg5" />
  <defs
     id="defs2">
    <linearGradient
       inkscape:collect="always"
       xlink:href="#linearGradient1768"
       id="linearGradient1091"
       x1="0"
       y1="0"
       x2="16"
       y2="16"
       gradientUnits="userSpaceOnUse" />
    <linearGradient
       inkscape:collect="always"
       id="linearGradient1768">
      <stop
         style="stop-color:#333333;stop-opacity:1;"
         offset="0"
         id="stop1764" />
      <stop
         style="stop-color:#6a6a6a;stop-opacity:1;"
         offset="1"
         id="stop1766" />
    </linearGradient>
  </defs>
  <path
     id="path530"
     style="fill:url(#linearGradient1091);fill-opacity:1.0;stroke-width:0.5;stroke-linecap:round;stroke-linejoin:round"
     d="M 6 0 C 1.4494094 0 0 1.469913 0 6 L 0 10 C 0 14.530087 1.4494094 16 6 16 L 10 16 C 14.550591 16 16 14.530086 16 10 L 16 6 C 16 1.469913 14.550591 0 10 0 L 6 0 z " />
  <path
     d="M 7.8046875,3.4979999 7.6992188,3.6933124 7.5058594,3.7987811 7.6992188,3.9042499 7.8046875,4.0995624 7.9121094,3.9042499 8.1054688,3.7987811 7.9121094,3.6933124 Z M 6.2597656,4.0585468 C 4.8945046,4.6061778 3.9997622,5.9293449 4,7.4003436 4.0002089,9.3882665 5.6116866,10.999744 7.5996094,10.999953 9.070608,11.000191 10.393775,10.105448 10.941406,8.7401875 10.514831,8.9116615 10.059359,8.9998385 9.5996091,8.9999535 7.6116863,8.9997445 6.0002088,7.3882664 6,5.4003436 6.0001146,4.9405941 6.0882919,4.485122 6.2597656,4.0585468 Z M 7.5996094,10.999952 H 3 v 0.222657 h 1.1992188 v 0.216796 H 3 v 0.222657 H 13 V 11.439405 H 11.800781 V 11.222609 H 13 V 10.999952 Z M 10.603516,5.078078 10.498047,5.2714374 10.304688,5.3788592 10.498047,5.484328 10.603516,5.6776874 10.710938,5.484328 10.904297,5.3788592 10.710938,5.2714374 Z M 7.3964844,5.4179218 7.2558594,5.6757342 6.9960938,5.8163592 7.2558594,5.9589374 7.3964844,6.2167499 7.5390625,5.9589374 7.796875,5.8163592 7.5390625,5.6757342 Z M 3.859375,5.5194842 3.7539062,5.7147968 3.5605469,5.8202655 3.7539062,5.9257342 3.859375,6.1190936 3.9667969,5.9257342 4.1601562,5.8202655 3.9667969,5.7147968 Z m 5.1015621,0.78125 -0.1054683,0.1953126 -0.1933594,0.1054687 0.1933594,0.1054687 0.1054683,0.1953126 0.107422,-0.1953126 0.19336,-0.1054687 -0.19336,-0.1054687 z M 11.5,6.8007342 11.287109,7.187453 10.900391,7.4003436 11.287109,7.6112815 11.5,7.9999535 11.712891,7.6112815 12.099609,7.4003436 11.712891,7.187453 Z m -2.0996099,0.5996094 -0.142578,0.2578129 -0.257812,0.142578 0.257812,0.140625 0.142578,0.257812 0.140625,-0.257812 0.259766,-0.140625 -0.259766,-0.142578 z M 3.7128906,8.8124535 3.5,9.1991715 3.1113281,9.4120625 3.5,9.6249535 3.7128906,10.011672 3.9238281,9.6249535 4.3125,9.4120625 3.9238281,9.1991715 Z M 5,11.669874 v 0.220703 H 3.4003906 v 0.220703 h 2.4003906 v 0.21875 H 4.5996094 v 0.222657 H 11.400391 V 12.33003 h -1.201172 v -0.21875 h 2.40039 v -0.220703 h -1.199218 v -0.220703 z m 2.4003906,0.890625 v 0.21875 H 7 v 0.222656 H 9.0000001 V 12.77925 H 8.5996094 V 12.5605 Z"
     style="fill:#ffffff"
     id="path3062" />
  <path
     d="m 7.7539062,1.0647482 c 0,0 -1.3790776,0.7778371 -2.7617187,1.607422 C 4.3008669,3.0869626 3.6095501,3.5132455 3.0800781,3.8694358 2.8153421,4.0475308 2.5927902,4.2065137 2.4199219,4.3479513 2.3334877,4.4186702 2.2588538,4.4838705 2.1894531,4.560842 2.1200525,4.6378135 2,4.6888362 2,5.0002951 V 10.000295 H 3 V 5.170217 C 3.019565,5.152486 3.024315,5.144641 3.052734,5.121389 3.180647,5.0167332 3.3877834,4.8682933 3.6386719,4.6995138 4.1404488,4.3619549 4.8241344,3.939799 5.5078125,3.529592 6.7524243,2.7828249 7.7860505,2.1993845 8,2.0784202 c 0.2139495,0.1209643 1.2475754,0.7044047 2.492188,1.4511718 0.683678,0.410207 1.367363,0.8323629 1.86914,1.1699218 0.250889,0.1687795 0.458025,0.3172194 0.585938,0.421875 0.02842,0.023253 0.03317,0.031097 0.05273,0.048828 v 4.8300782 h 1 V 5.0002951 C 14,4.6888362 13.879948,4.6378135 13.810547,4.560842 13.741146,4.4838705 13.666512,4.4186702 13.580078,4.3479513 13.40721,4.2065137 13.184658,4.0475308 12.919922,3.8694358 12.39045,3.5132455 11.699133,3.0869626 11.007813,2.6721702 9.6251714,1.8425853 8.2460938,1.0647482 8.2460938,1.0647482 c -0.1527056,-0.0863309 -0.339482,-0.0863309 -0.4921876,0 z"
     style="color:#000000;fill:#ffffff;stroke-linejoin:round;-inkscape-stroke:none"
     id="path2671" />
</svg>
