<?xml version="1.0" encoding="UTF-8" standalone="no"?>
<!-- Created with Inkscape (http://www.inkscape.org/) -->

<svg
   width="16"
   height="16"
   viewBox="0 0 16 16"
   version="1.1"
   id="svg5"
   inkscape:version="1.3 (0e150ed6c4, 2023-07-21)"
   sodipodi:docname="org.kde.merkuro.calendar.svg"
   xmlns:inkscape="http://www.inkscape.org/namespaces/inkscape"
   xmlns:sodipodi="http://sodipodi.sourceforge.net/DTD/sodipodi-0.dtd"
   xmlns:xlink="http://www.w3.org/1999/xlink"
   xmlns="http://www.w3.org/2000/svg"
   xmlns:svg="http://www.w3.org/2000/svg">
  <sodipodi:namedview
     id="namedview7"
     pagecolor="#ffffff"
     bordercolor="#000000"
     borderopacity="0.25"
     inkscape:showpageshadow="2"
     inkscape:pageopacity="0.0"
     inkscape:pagecheckerboard="0"
     inkscape:deskcolor="#d1d1d1"
     inkscape:document-units="px"
     showgrid="false"
     inkscape:zoom="49"
     inkscape:cx="8"
     inkscape:cy="8"
     inkscape:window-width="1920"
     inkscape:window-height="1004"
     inkscape:window-x="0"
     inkscape:window-y="0"
     inkscape:window-maximized="1"
     inkscape:current-layer="svg5" />
  <defs
     id="defs2">
    <linearGradient
       inkscape:collect="always"
       id="linearGradient1428">
      <stop
         style="stop-color:#ffbb75;stop-opacity:1;"
         offset="0"
         id="stop1424" />
      <stop
         style="stop-color:#f68200;stop-opacity:1;"
         offset="1"
         id="stop1426" />
    </linearGradient>
    <linearGradient
       inkscape:collect="always"
       xlink:href="#linearGradient1428"
       id="linearGradient1091"
       x1="16"
       y1="16"
       x2="0"
       y2="0"
       gradientUnits="userSpaceOnUse" />
  </defs>
  <path
     id="path530"
     style="fill:url(#linearGradient1091);fill-opacity:1.0;stroke-width:0.5;stroke-linecap:round;stroke-linejoin:round"
     d="M 6,0 C 1.4494094,0 0,1.469913 0,6 v 4 c 0,4.530087 1.4494094,6 6,6 h 4 c 4.550591,0 6,-1.469914 6,-6 V 6 C 16,1.469913 14.550591,0 10,0 Z"
     sodipodi:nodetypes="sssssssss" />
  <rect
     style="fill:#ffffff"
     width="2"
     height="2"
     x="11"
     y="6"
     ry="0.5"
     id="rect4" />
  <rect
     style="fill:#ffffff"
     width="2"
     height="2"
     x="5"
     y="6"
     ry="0.5"
     id="rect5" />
  <rect
     style="fill:#ffffff"
     width="2"
     height="2"
     x="5"
     y="9"
     ry="0.5"
     id="rect6" />
  <rect
     style="fill:#ffffff"
     width="2"
     height="2"
     x="2"
     y="9"
     ry="0.5"
     id="rect7" />
  <rect
     style="fill:#f6cb9f"
     width="2"
     height="2"
     x="11"
     y="9"
     ry="0.5"
     id="rect8" />
  <rect
     style="fill:#f6cb9f"
     width="2"
     height="2"
     x="8"
     y="6"
     ry="0.5"
     id="rect9" />
  <path
     style="color:#000000;fill:#ffffff;stroke-linecap:round;stroke-linejoin:round;-inkscape-stroke:none"
     d="M 9.701172,9.003906 A 0.25,0.25 0 0 0 9.541016,9.111328 L 8.7109375,10.355469 8.4277344,10.072266 a 0.25,0.25 0 0 0 -0.3554688,0 0.25,0.25 0 0 0 0,0.355468 l 0.5,0.5 a 0.250025,0.250025 0 0 0 0.3867188,-0.03906 l 0.9999996,-1.5 a 0.25,0.25 0 0 0 -0.07031,-0.347656 0.25,0.25 0 0 0 -0.1875,-0.03711 z"
     id="path9" />
</svg>
