<?xml version="1.0" encoding="UTF-8" standalone="no"?>
<!-- Created with Inkscape (http://www.inkscape.org/) -->

<svg
   width="16"
   height="16"
   viewBox="0 0 16 16"
   version="1.1"
   id="svg5"
   inkscape:version="1.2.1 (9c6d41e410, 2022-07-14)"
   sodipodi:docname="skype.svg"
   xmlns:inkscape="http://www.inkscape.org/namespaces/inkscape"
   xmlns:sodipodi="http://sodipodi.sourceforge.net/DTD/sodipodi-0.dtd"
   xmlns:xlink="http://www.w3.org/1999/xlink"
   xmlns="http://www.w3.org/2000/svg"
   xmlns:svg="http://www.w3.org/2000/svg">
  <sodipodi:namedview
     id="namedview7"
     pagecolor="#ffffff"
     bordercolor="#000000"
     borderopacity="0.25"
     inkscape:showpageshadow="2"
     inkscape:pageopacity="0.0"
     inkscape:pagecheckerboard="0"
     inkscape:deskcolor="#d1d1d1"
     inkscape:document-units="px"
     showgrid="false"
     inkscape:zoom="51.75"
     inkscape:cx="8"
     inkscape:cy="8"
     inkscape:window-width="1920"
     inkscape:window-height="1008"
     inkscape:window-x="0"
     inkscape:window-y="0"
     inkscape:window-maximized="1"
     inkscape:current-layer="svg5" />
  <defs
     id="defs2">
    <linearGradient
       inkscape:collect="always"
       xlink:href="#linearGradient1298"
       id="linearGradient1616"
       x1="-112.15405"
       y1="222.701"
       x2="-95.503441"
       y2="286.70099"
       gradientUnits="userSpaceOnUse"
       gradientTransform="matrix(0.09945687,0,0,0.11249999,16.07363,-23.053862)" />
    <linearGradient
       inkscape:collect="always"
       id="linearGradient1298">
      <stop
         style="stop-color:#00b7f0;stop-opacity:1;"
         offset="0"
         id="stop1294" />
      <stop
         style="stop-color:#009de5;stop-opacity:1;"
         offset="0.34"
         id="stop1300" />
      <stop
         style="stop-color:#0082d9;stop-opacity:1;"
         offset="0.75"
         id="stop1302" />
      <stop
         style="stop-color:#0078d4;stop-opacity:1;"
         offset="1"
         id="stop1296" />
    </linearGradient>
    <linearGradient
       inkscape:collect="always"
       xlink:href="#linearGradient1532"
       id="linearGradient1608"
       x1="-37.954132"
       y1="385.64984"
       x2="35.820042"
       y2="341.35733"
       gradientUnits="userSpaceOnUse"
       gradientTransform="matrix(0.08127352,0,0,0.08896437,10.65197,-21.687423)" />
    <linearGradient
       inkscape:collect="always"
       id="linearGradient1532">
      <stop
         style="stop-color:#0078d4;stop-opacity:1;"
         offset="0"
         id="stop1528" />
      <stop
         style="stop-color:#007ad5;stop-opacity:1;"
         offset="0.37"
         id="stop1536" />
      <stop
         style="stop-color:#0082d9;stop-opacity:1;"
         offset="0.56999999"
         id="stop1538" />
      <stop
         style="stop-color:#0090df;stop-opacity:1;"
         offset="0.74000001"
         id="stop1540" />
      <stop
         style="stop-color:#00a3e7;stop-opacity:1;"
         offset="0.88499999"
         id="stop1542" />
      <stop
         style="stop-color:#00bcff;stop-opacity:1;"
         offset="1"
         id="stop1530" />
    </linearGradient>
    <radialGradient
       inkscape:collect="always"
       xlink:href="#linearGradient6242"
       id="radialGradient6244"
       cx="11.111111"
       cy="12.247032"
       fx="11.111111"
       fy="12.247032"
       r="5.8000002"
       gradientUnits="userSpaceOnUse"
       gradientTransform="matrix(0,-0.62068956,0.62068956,0,-1.7241383,12.924135)" />
    <linearGradient
       inkscape:collect="always"
       id="linearGradient6242">
      <stop
         style="stop-color:#000000;stop-opacity:1;"
         offset="0"
         id="stop6238" />
      <stop
         style="stop-color:#000000;stop-opacity:0;"
         offset="1"
         id="stop6240" />
    </linearGradient>
    <radialGradient
       inkscape:collect="always"
       xlink:href="#linearGradient6304"
       id="radialGradient6306"
       cx="18.797539"
       cy="21.643984"
       fx="18.797539"
       fy="21.643984"
       r="5.8000002"
       gradientUnits="userSpaceOnUse"
       gradientTransform="matrix(0,-0.72770488,0.72770501,0,-25.174376,4.2165879)" />
    <linearGradient
       inkscape:collect="always"
       id="linearGradient6304">
      <stop
         style="stop-color:#000000;stop-opacity:1;"
         offset="0"
         id="stop6300" />
      <stop
         style="stop-color:#000000;stop-opacity:0;"
         offset="0.87751532"
         id="stop6302" />
    </linearGradient>
    <linearGradient
       inkscape:collect="always"
       xlink:href="#linearGradient1280"
       id="linearGradient1626"
       x1="-116.60806"
       y1="234.88477"
       x2="-86.178307"
       y2="290.25656"
       gradientUnits="userSpaceOnUse"
       gradientTransform="matrix(0.15625001,0,0,0.15625001,23.798695,-31.797036)" />
    <linearGradient
       inkscape:collect="always"
       id="linearGradient1280">
      <stop
         style="stop-color:#00b7f0;stop-opacity:1;"
         offset="0"
         id="stop1276" />
      <stop
         style="stop-color:#007cc1;stop-opacity:1;"
         offset="1"
         id="stop1278" />
    </linearGradient>
  </defs>
  <path
     id="path530"
     style="fill:#fafafa;fill-opacity:1;stroke-width:0.5;stroke-linecap:round;stroke-linejoin:round"
     d="M 6 0 C 1.4494094 0 0 1.469913 0 6 L 0 10 C 0 14.530087 1.4494094 16 6 16 L 10 16 C 14.550591 16 16 14.530086 16 10 L 16 6 C 16 1.469913 14.550591 0 10 0 L 6 0 z " />
  <circle
     style="fill:url(#linearGradient1616);fill-opacity:1;stroke-width:0.105777;stroke-linecap:round;stroke-linejoin:round;paint-order:stroke fill markers"
     id="path1598"
     cx="5.5999999"
     cy="5.5999999"
     r="3.5999999" />
  <circle
     style="fill:url(#linearGradient1608);fill-opacity:1;stroke-width:0.0850322;stroke-linecap:round;stroke-linejoin:round;paint-order:stroke fill markers"
     id="path1600"
     cx="10.4"
     cy="10.4"
     r="3.5999999" />
  <circle
     style="opacity:0.4;fill:url(#radialGradient6244);fill-opacity:1;stroke-width:0.620691;stroke-linecap:round;stroke-linejoin:round;paint-order:stroke fill markers"
     id="path6236"
     cx="5.5999999"
     cy="5.5999999"
     r="3.5999999" />
  <circle
     style="opacity:0.4;fill:url(#radialGradient6306);fill-opacity:1;stroke-width:0.708349;stroke-linecap:round;stroke-linejoin:round;paint-order:stroke fill markers"
     id="path6298"
     cx="-10.4"
     cy="-10.4"
     r="3.5999999"
     transform="matrix(0,-1,-1,0,0,0)" />
  <circle
     style="fill:url(#linearGradient1626);fill-opacity:1;stroke-width:0.0205865;stroke-linecap:round;stroke-linejoin:round;paint-order:stroke fill markers"
     id="path1596"
     cx="8"
     cy="8"
     r="5" />
  <path
     d="M 6.6610971,7.8978844 C 6.4592867,7.7607379 6.2909189,7.5773516 6.1691262,7.3620289 6.0514566,7.1346685 5.9933662,6.8795558 6.0006022,6.6219285 5.9916422,6.2949607 6.0997878,5.9760501 6.3043717,5.7261409 6.5169347,5.4751788 6.7901585,5.2867914 7.0962344,5.1801527 7.4291982,5.0588626 7.7800082,4.9979739 8.1331152,5.0001848 c 0.231076,-0.00225 0.4619109,0.016006 0.6899501,0.0546 0.1631198,0.026018 0.3233281,0.068691 0.4782643,0.127398 0.1423285,0.049725 0.2708123,0.1343829 0.3743952,0.2466864 0.076348,0.09237 0.1174546,0.2102693 0.1156373,0.3316426 0.00556,0.1273283 -0.03816,0.2517174 -0.121528,0.3457891 -0.079072,0.086818 -0.1903377,0.1346484 -0.3057765,0.1314452 -0.078552,-6e-4 -0.1560777,-0.018533 -0.2273554,-0.052605 C 8.9612091,6.1041156 8.7804277,6.0358791 8.5956861,5.9809288 8.4255832,5.9347062 8.2502295,5.9122662 8.0743328,5.9142087 7.8452522,5.9054412 7.6185925,5.9651262 7.4216077,6.0860736 7.252139,6.1922451 7.152219,6.385242 7.1609286,6.5895787 c -0.0012,0.1316018 0.047272,0.2585244 0.1352272,0.3538599 0.1045894,0.1118678 0.2281631,0.2030206 0.3645997,0.2689411 0.1528975,0.078231 0.3809143,0.1820371 0.6840493,0.3114144 0.0336,0.010958 0.066368,0.02448 0.098021,0.040455 0.2958117,0.1206811 0.5794186,0.2710374 0.8467401,0.4489043 0.2111745,0.1420434 0.3892338,0.3305665 0.5213884,0.5520296 0.13006,0.2326557 0.1951857,0.4978967 0.1881671,0.7663692 0.010934,0.3288467 -0.080433,0.6526736 -0.2607133,0.9241148 -0.1835634,0.256965 -0.4375039,0.451348 -0.7291106,0.558112 -0.3513777,0.129444 -0.7226679,0.1918 -1.0957028,0.184018 -0.5126365,0.01861 -1.0228507,-0.08087 -1.4935456,-0.291189 -0.1204518,-0.05527 -0.2260645,-0.139932 -0.3077325,-0.246687 -0.067696,-0.09778 -0.1027801,-0.215575 -0.099977,-0.33569 -0.0068,-0.1282466 0.041152,-0.2531417 0.1312999,-0.3417385 0.093501,-0.084479 0.2149056,-0.128636 0.3390902,-0.1233431 0.1382152,0.00193 0.2739679,0.038027 0.3959238,0.1051432 0.1515343,0.078229 0.2711053,0.1368867 0.3587149,0.1759544 0.100076,0.043243 0.2037319,0.077083 0.3097055,0.101091 0.130636,0.02961 0.2641014,0.04385 0.3978445,0.04245 0.2364686,0.01736 0.4717676,-0.04741 0.6684203,-0.1839864 C 8.7627213,9.7792216 8.8466269,9.5917786 8.8387285,9.3962845 8.8390179,9.2595098 8.7885285,9.1278137 8.6976261,9.0282442 8.5775022,8.9005911 8.4369374,8.7952543 8.2821112,8.7168707 8.0991377,8.6171266 7.8417026,8.4957967 7.5098045,8.3528819 7.2128782,8.2308441 6.9285529,8.0784209 6.6610906,7.8978957"
     style="fill:#ffffff;fill-rule:evenodd;stroke-width:0.414039"
     id="path12815" />
</svg>
