<?xml version="1.0" encoding="UTF-8" standalone="no"?>
<!-- Created with Inkscape (http://www.inkscape.org/) -->

<svg
   width="16"
   height="16"
   viewBox="0 0 16 16"
   version="1.1"
   id="svg5"
   inkscape:version="1.2.1 (9c6d41e410, 2022-07-14)"
   sodipodi:docname="telegram.svg"
   xmlns:inkscape="http://www.inkscape.org/namespaces/inkscape"
   xmlns:sodipodi="http://sodipodi.sourceforge.net/DTD/sodipodi-0.dtd"
   xmlns:xlink="http://www.w3.org/1999/xlink"
   xmlns="http://www.w3.org/2000/svg"
   xmlns:svg="http://www.w3.org/2000/svg">
  <sodipodi:namedview
     id="namedview7"
     pagecolor="#ffffff"
     bordercolor="#000000"
     borderopacity="0.25"
     inkscape:showpageshadow="2"
     inkscape:pageopacity="0.0"
     inkscape:pagecheckerboard="0"
     inkscape:deskcolor="#d1d1d1"
     inkscape:document-units="px"
     showgrid="false"
     inkscape:zoom="50"
     inkscape:cx="7.99"
     inkscape:cy="8"
     inkscape:window-width="1920"
     inkscape:window-height="1006"
     inkscape:window-x="0"
     inkscape:window-y="0"
     inkscape:window-maximized="1"
     inkscape:current-layer="svg5" />
  <defs
     id="defs2">
    <linearGradient
       inkscape:collect="always"
       xlink:href="#linearGradient1595"
       id="linearGradient1091"
       x1="8"
       y1="16"
       x2="8"
       y2="0"
       gradientUnits="userSpaceOnUse" />
    <linearGradient
       inkscape:collect="always"
       id="linearGradient1595">
      <stop
         style="stop-color:#1d9ad8;stop-opacity:1"
         offset="0"
         id="stop1591" />
      <stop
         style="stop-color:#3cacde;stop-opacity:1"
         offset="1"
         id="stop1593" />
    </linearGradient>
  </defs>
  <path
     id="path530"
     style="fill:url(#linearGradient1091);fill-opacity:1;stroke-width:0.5;stroke-linecap:round;stroke-linejoin:round"
     d="M 6,0 C 1.4494094,0 0,1.469913 0,6 v 4 c 0,4.530087 1.4494094,6 6,6 h 4 c 4.550591,0 6,-1.469914 6,-6 V 6 C 16,1.469913 14.550591,0 10,0 Z"
     sodipodi:nodetypes="sssssssss" />
  <path
     id="path10"
     style="fill:#ffffff;stroke-width:0.579767"
     d="m 12.448216,4.0003472 c -0.2207,0.00609 -0.481831,0.091112 -0.735282,0.1729877 -1.658206,0.5375933 -6.9012748,2.7163763 -8.3362498,3.4352243 -0.353232,0.1405685 -0.505212,0.3796475 -0.248157,0.5859299 0.221298,0.174856 1.031146,0.415656 1.684252,0.53794 0.556754,0.161712 0.988438,0.0067 1.387842,-0.209819 0.959397,-0.5457074 3.8181408,-2.2822925 3.9716698,-2.3794339 0.154113,-0.09657 0.322548,0.082783 0.236666,0.16964 -0.08588,0.087427 -2.1098441,1.8302799 -2.7745368,2.6182709 -0.352346,0.433137 -0.342228,0.664348 0.01957,0.937488 0.8117497,0.6108499 2.9800878,2.0041469 3.3030228,2.0881459 0.411169,0.107424 0.652515,0.01816 0.826041,-0.304684 0.158204,-0.295424 1.069393,-5.3404512 1.199391,-6.6450064 0.08824,-0.8076684 -0.166384,-1.0168227 -0.534225,-1.0066834 z" />
</svg>
