<?xml version="1.0" encoding="UTF-8" standalone="no"?>
<!-- Created with Inkscape (http://www.inkscape.org/) -->

<svg
   width="16"
   height="16"
   viewBox="0 0 16 16"
   version="1.1"
   id="svg5"
   inkscape:version="1.2.1 (9c6d41e410, 2022-07-14)"
   sodipodi:docname="ubuntusoftware.svg"
   xmlns:inkscape="http://www.inkscape.org/namespaces/inkscape"
   xmlns:sodipodi="http://sodipodi.sourceforge.net/DTD/sodipodi-0.dtd"
   xmlns:xlink="http://www.w3.org/1999/xlink"
   xmlns="http://www.w3.org/2000/svg"
   xmlns:svg="http://www.w3.org/2000/svg">
  <sodipodi:namedview
     id="namedview7"
     pagecolor="#ffffff"
     bordercolor="#000000"
     borderopacity="0.25"
     inkscape:showpageshadow="2"
     inkscape:pageopacity="0.0"
     inkscape:pagecheckerboard="0"
     inkscape:deskcolor="#d1d1d1"
     inkscape:document-units="px"
     showgrid="false"
     inkscape:zoom="51.125"
     inkscape:cx="7.804401"
     inkscape:cy="8"
     inkscape:window-width="1920"
     inkscape:window-height="1008"
     inkscape:window-x="0"
     inkscape:window-y="0"
     inkscape:window-maximized="1"
     inkscape:current-layer="svg5" />
  <defs
     id="defs2">
    <linearGradient
       inkscape:collect="always"
       xlink:href="#linearGradient877"
       id="linearGradient1091"
       x1="0"
       y1="0"
       x2="16"
       y2="16"
       gradientUnits="userSpaceOnUse" />
    <linearGradient
       inkscape:collect="always"
       id="linearGradient877">
      <stop
         style="stop-color:#e95420;stop-opacity:1;"
         offset="0"
         id="stop873" />
      <stop
         style="stop-color:#ff8e31;stop-opacity:1;"
         offset="1"
         id="stop875" />
    </linearGradient>
  </defs>
  <path
     id="path530"
     style="fill:url(#linearGradient1091);fill-opacity:1.0;stroke-width:0.5;stroke-linecap:round;stroke-linejoin:round"
     d="M 6 0 C 1.4494094 0 0 1.469913 0 6 L 0 10 C 0 14.530087 1.4494094 16 6 16 L 10 16 C 14.550591 16 16 14.530086 16 10 L 16 6 C 16 1.469913 14.550591 0 10 0 L 6 0 z " />
  <path
     id="rect2385"
     style="fill:#ffffff;stroke-width:0.25;stroke-linejoin:round"
     d="M 7.25,4 5.625,8 h 1.5 L 8,5.8457031 8.875,8 h 1.5 L 8.75,4 Z M 4.5,9 C 4.223001,9 4,9.223001 4,9.5 4,9.776999 4.223001,10 4.5,10 h 7 C 11.776999,10 12,9.776999 12,9.5 12,9.223001 11.776999,9 11.5,9 Z M 4.40625,11 4,12 h 1.5 l 0.40625,-1 z m 5.6875,0 L 10.5,12 H 12 l -0.40625,-1 z"
     sodipodi:nodetypes="ccccccccssssssscccccccccc" />
</svg>
