<?xml version="1.0" encoding="UTF-8" standalone="no"?>
<!-- Created with Inkscape (http://www.inkscape.org/) -->

<svg
   width="16"
   height="16"
   viewBox="0 0 16 16"
   version="1.1"
   id="svg5"
   inkscape:version="1.2.1 (9c6d41e410, 2022-07-14)"
   sodipodi:docname="xfwm4.svg"
   xmlns:inkscape="http://www.inkscape.org/namespaces/inkscape"
   xmlns:sodipodi="http://sodipodi.sourceforge.net/DTD/sodipodi-0.dtd"
   xmlns:xlink="http://www.w3.org/1999/xlink"
   xmlns="http://www.w3.org/2000/svg"
   xmlns:svg="http://www.w3.org/2000/svg">
  <sodipodi:namedview
     id="namedview7"
     pagecolor="#ffffff"
     bordercolor="#000000"
     borderopacity="0.25"
     inkscape:showpageshadow="2"
     inkscape:pageopacity="0.0"
     inkscape:pagecheckerboard="0"
     inkscape:deskcolor="#d1d1d1"
     inkscape:document-units="px"
     showgrid="false"
     inkscape:zoom="50.5"
     inkscape:cx="8"
     inkscape:cy="8"
     inkscape:window-width="1920"
     inkscape:window-height="1011"
     inkscape:window-x="0"
     inkscape:window-y="32"
     inkscape:window-maximized="1"
     inkscape:current-layer="svg5"
     showguides="true" />
  <defs
     id="defs2">
    <linearGradient
       inkscape:collect="always"
       id="linearGradient1484">
      <stop
         style="stop-color:#007dde;stop-opacity:1;"
         offset="0"
         id="stop1480" />
      <stop
         style="stop-color:#2fbce5;stop-opacity:1;"
         offset="1"
         id="stop1482" />
    </linearGradient>
    <linearGradient
       inkscape:collect="always"
       xlink:href="#linearGradient1484"
       id="linearGradient1091"
       x1="0"
       y1="0"
       x2="16"
       y2="16"
       gradientUnits="userSpaceOnUse" />
    <linearGradient
       inkscape:collect="always"
       xlink:href="#linearGradient1484"
       id="linearGradient4027"
       x1="0"
       y1="0"
       x2="22.627417"
       y2="3.5527137e-15"
       gradientUnits="userSpaceOnUse" />
  </defs>
  <path
     id="path530"
     style="fill:url(#linearGradient1091);fill-opacity:1.0;stroke-width:0.5;stroke-linecap:round;stroke-linejoin:round"
     d="M 6 0 C 1.4494094 0 0 1.469913 0 6 L 0 10 C 0 14.530087 1.4494094 16 6 16 L 10 16 C 14.550591 16 16 14.530086 16 10 L 16 6 C 16 1.469913 14.550591 0 10 0 L 6 0 z " />
  <rect
     style="fill:#5cb9ea;opacity:1;fill-opacity:1"
     id="rect371"
     width="8"
     height="7"
     x="5"
     y="3"
     ry="0.5" />
  <rect
     style="fill:#b0dbf3;opacity:1;fill-opacity:1"
     id="rect346"
     width="8"
     height="7"
     x="4"
     y="4"
     ry="0.5" />
  <rect
     style="fill:#ffffff"
     id="rect344"
     width="8"
     height="7"
     x="3"
     y="5"
     ry="0.5" />
  <path
     id="rect3263"
     style="opacity:1;fill:url(#linearGradient4027);fill-opacity:1"
     d="M 8.4604222 0.56071358 L 8.4604222 1.5606068 L 10.460209 1.5606068 L 10.460209 3.5603931 L 11.460102 3.5603931 L 11.460102 1.5606068 L 13.459888 1.5606068 L 13.459888 0.56071358 L 11.460102 0.56071358 L 11.460102 -1.4390728 L 10.460209 -1.4390728 L 10.460209 0.56071358 L 8.4604222 0.56071358 z "
     transform="rotate(45)" />
</svg>
