<?xml version="1.0" encoding="UTF-8" standalone="no"?>
<!-- Created with Inkscape (http://www.inkscape.org/) -->

<svg
   width="16"
   height="16"
   viewBox="0 0 16 16"
   version="1.1"
   id="svg5"
   inkscape:version="1.2.2 (1:1.2.2+202305151914+b0a8486541)"
   sodipodi:docname="zanshin.svg"
   xmlns:inkscape="http://www.inkscape.org/namespaces/inkscape"
   xmlns:sodipodi="http://sodipodi.sourceforge.net/DTD/sodipodi-0.dtd"
   xmlns:xlink="http://www.w3.org/1999/xlink"
   xmlns="http://www.w3.org/2000/svg"
   xmlns:svg="http://www.w3.org/2000/svg">
  <sodipodi:namedview
     id="namedview7"
     pagecolor="#ffffff"
     bordercolor="#000000"
     borderopacity="0.25"
     inkscape:showpageshadow="2"
     inkscape:pageopacity="0.0"
     inkscape:pagecheckerboard="0"
     inkscape:deskcolor="#d1d1d1"
     inkscape:document-units="px"
     showgrid="false"
     inkscape:zoom="50.625"
     inkscape:cx="8.0098765"
     inkscape:cy="8"
     inkscape:window-width="1920"
     inkscape:window-height="1012"
     inkscape:window-x="0"
     inkscape:window-y="0"
     inkscape:window-maximized="1"
     inkscape:current-layer="svg5" />
  <defs
     id="defs2">
    <linearGradient
       inkscape:collect="always"
       id="linearGradient1231">
      <stop
         style="stop-color:#60acdb;stop-opacity:1;"
         offset="0"
         id="stop1227" />
      <stop
         style="stop-color:#158cba;stop-opacity:1;"
         offset="1"
         id="stop1229" />
    </linearGradient>
    <linearGradient
       inkscape:collect="always"
       xlink:href="#linearGradient1231"
       id="linearGradient1091"
       x1="16"
       y1="16"
       x2="0"
       y2="0"
       gradientUnits="userSpaceOnUse" />
  </defs>
  <path
     id="path530"
     style="fill:url(#linearGradient1091);fill-opacity:1.0;stroke-width:0.5;stroke-linecap:round;stroke-linejoin:round"
     d="M 6 0 C 1.4494094 0 0 1.469913 0 6 L 0 10 C 0 14.530087 1.4494094 16 6 16 L 10 16 C 14.550591 16 16 14.530086 16 10 L 16 6 C 16 1.469913 14.550591 0 10 0 L 6 0 z " />
  <path
     id="rect344"
     style="opacity:0.4;fill:#ffffff;stroke-width:2;stroke-linecap:round;stroke-linejoin:round"
     d="m 5,9 h 6 c 0.554,0 0.752244,0.5044873 1,1 l 1,2 c 0.247756,0.495513 -0.446,1 -1,1 H 4 C 3.446,13 2.7522437,12.495513 3,12 L 4,10 C 4.2477563,9.5044873 4.446,9 5,9 Z"
     sodipodi:nodetypes="sssssssss" />
  <ellipse
     style="opacity:0.8;fill:#ffffff;stroke-width:2;stroke-linecap:round;stroke-linejoin:round"
     id="path398"
     cx="8"
     cy="11"
     rx="3"
     ry="1" />
  <circle
     style="opacity:0.8;fill:#ffffff;stroke-width:2;stroke-linecap:round;stroke-linejoin:round"
     id="path452"
     cx="8"
     cy="4"
     r="1" />
  <circle
     style="opacity:0.8;fill:#ffffff;stroke-width:2;stroke-linecap:round;stroke-linejoin:round"
     id="path626"
     cx="8"
     cy="7"
     r="1" />
</svg>
