<?xml version="1.0" encoding="UTF-8" standalone="no"?>
<svg
   width="22"
   height="22"
   version="1.1"
   id="svg1"
   sodipodi:docname="audio-headset-symbolic.svg"
   inkscape:version="1.4.2 (ebf0e940d0, 2025-05-08)"
   xmlns:inkscape="http://www.inkscape.org/namespaces/inkscape"
   xmlns:sodipodi="http://sodipodi.sourceforge.net/DTD/sodipodi-0.dtd"
   xmlns="http://www.w3.org/2000/svg"
   xmlns:svg="http://www.w3.org/2000/svg">
  <defs
     id="defs1">
    <style
       id="current-color-scheme"
       type="text/css">
        .ColorScheme-Text { color:#363636; }
     </style>
  </defs>
  <sodipodi:namedview
     id="namedview1"
     pagecolor="#ffffff"
     bordercolor="#000000"
     borderopacity="0.25"
     inkscape:showpageshadow="2"
     inkscape:pageopacity="0.0"
     inkscape:pagecheckerboard="0"
     inkscape:deskcolor="#d1d1d1"
     inkscape:zoom="36.136364"
     inkscape:cx="11"
     inkscape:cy="11"
     inkscape:window-width="1920"
     inkscape:window-height="1010"
     inkscape:window-x="0"
     inkscape:window-y="0"
     inkscape:window-maximized="1"
     inkscape:current-layer="svg1" />
  <path
     id="path1"
     style="fill:currentColor"
     class="ColorScheme-Text"
     d="m 11,3.002 c -3.3137,0 -6,2.6863 -6,5.9999999 V 15.002 c 0,1.6569 1.3432,3 3,3 h 1.267578 c 0.3458,0.5978 0.992142,1 1.732422,1 1.1046,0 2,-0.8954 2,-2 0,-1.1046 -0.8954,-2 -2,-2 -1.10457,0 -2,0.8954 -2,2 H 8 c -1.10457,0 -2,-0.8954 -2,-2 v -1 h 2 c 0.55228,0 1,-0.4477 1,-1 v -3 C 9,9.4497199 8.55228,9.0019999 8,9.0019999 H 6 C 6,6.2406 8.2386,4.002 11,4.002 c 2.7614,0 5,2.2386 5,4.9999999 h -2 c -0.5523,0 -1,0.44772 -1,1.0000001 v 3 c 0,0.5523 0.4477,1 1,1 h 1 c 1.1046,0 2,-0.8954 2,-2 V 9.0019999 C 17,5.6883 14.3137,3.002 11,3.002 Z m -5,7 h 2 v 3 H 6 Z m 8,0 h 2 v 2 c 0,0.5523 -0.4477,1 -1,1 h -1 z m -3,6 c 0.5523,0 1,0.4477 1,1 0,0.5523 -0.4477,1 -1,1 -0.55228,0 -1,-0.4477 -1,-1 0,-0.5523 0.44772,-1 1,-1 z" />
</svg>
