<?xml version="1.0" encoding="UTF-8" standalone="no"?>
<!-- Created with Inkscape (http://www.inkscape.org/) -->

<svg
   width="22"
   height="22"
   viewBox="0 0 22 22"
   version="1.1"
   id="svg5"
   inkscape:version="1.4.2 (ebf0e940d0, 2025-05-08)"
   sodipodi:docname="network-wireless-symbolic.svg"
   xmlns:inkscape="http://www.inkscape.org/namespaces/inkscape"
   xmlns:sodipodi="http://sodipodi.sourceforge.net/DTD/sodipodi-0.dtd"
   xmlns="http://www.w3.org/2000/svg"
   xmlns:svg="http://www.w3.org/2000/svg">
  <sodipodi:namedview
     id="namedview7"
     pagecolor="#ffffff"
     bordercolor="#666666"
     borderopacity="1.0"
     inkscape:showpageshadow="2"
     inkscape:pageopacity="0.0"
     inkscape:pagecheckerboard="0"
     inkscape:deskcolor="#d1d1d1"
     inkscape:document-units="px"
     showgrid="false"
     showguides="false"
     inkscape:zoom="36.136364"
     inkscape:cx="11"
     inkscape:cy="11"
     inkscape:window-width="1920"
     inkscape:window-height="1010"
     inkscape:window-x="0"
     inkscape:window-y="0"
     inkscape:window-maximized="1"
     inkscape:current-layer="svg5" />
  <defs
     id="defs2">
    <style
       id="current-color-scheme"
       type="text/css">
        .ColorScheme-Text { color:#363636; }
     </style>
  </defs>
  <path
     id="path356"
     style="fill:currentColor;fill-opacity:1;fill-rule:evenodd;paint-order:stroke fill markers"
     class="ColorScheme-Text"
     d="m 11.000328,6 c -2.8404972,-3e-7 -5.4324302,1.0071048 -7.4863281,2.6582031 -0.034685,0.020162 -0.066817,0.044425 -0.095703,0.072266 C 3.3202019,8.8243431 3.2645049,8.9540696 3.264,9.089844 c 0,0.276142 0.2238579,0.5 0.5,0.5 0.1160503,3.3e-4 0.2286013,-0.03972 0.3183592,-0.113281 C 5.9733574,7.937764 8.3721306,7 11.000328,7 c 2.628197,-3e-7 5.026871,0.937724 6.917969,2.476563 0.08976,0.07356 0.202308,0.113611 0.318359,0.113281 0.276142,0 0.5,-0.223858 0.5,-0.5 -5.05e-4,-0.1357747 -0.05621,-0.265501 -0.154297,-0.3593752 -0.02889,-0.027841 -0.06102,-0.052104 -0.0957,-0.072266 C 16.432758,7.0071048 13.840725,6 11.000328,6 Z m 0,3 c -2.0730979,0 -3.9680828,0.717246 -5.4882812,1.896484 -0.036843,0.02037 -0.070969,0.0453 -0.1015626,0.07422 -0.099301,0.09401 -0.1557673,0.224587 -0.15625,0.361329 0,0.276142 0.2238579,0.5 0.5,0.5 0.116961,2.36e-4 0.2303064,-0.04054 0.3203126,-0.115235 C 7.4333454,10.647998 9.13723,10 11.000328,10 c 1.863098,0 3.566983,0.647958 4.925781,1.716797 0.09001,0.07469 0.203352,0.11547 0.320313,0.115234 0.276141,0 0.5,-0.223858 0.5,-0.5 -4.83e-4,-0.136742 -0.05695,-0.267318 -0.15625,-0.361328 -0.03059,-0.02892 -0.06472,-0.05385 -0.101563,-0.07422 C 14.968411,9.717286 13.073426,9 11.000328,9 Z m 0,3 c -1.352499,0 -2.5832384,0.46892 -3.5859375,1.224609 -0.1103399,0.09497 -0.1679488,0.239176 -0.1679687,0.384766 0,0.27614 0.2238602,0.5 0.5,0.5 0.1243598,-3.26e-4 0.2441275,-0.04698 0.3359374,-0.130859 C 8.9045084,13.375456 9.902229,13 11.000328,13 c 1.098099,0 2.09577,0.375456 2.917969,0.978516 0.09181,0.08388 0.211577,0.130529 0.335937,0.130859 0.27614,0 0.5,-0.22386 0.5,-0.5 -1.6e-5,-0.14559 -0.05762,-0.289796 -0.167968,-0.384766 C 13.583567,12.46891 12.352826,12 11.000328,12 Z m 0,3 a 1,1 0 0 0 -1,1 1,1 0 0 0 1,1 1,1 0 0 0 1,-1 1,1 0 0 0 -1,-1 z" />
</svg>
