<?xml version="1.0" encoding="UTF-8" standalone="no"?>
<!-- Created with Inkscape (http://www.inkscape.org/) -->

<svg
   width="48"
   height="48"
   viewBox="0 0 48 48"
   version="1.1"
   id="svg5"
   inkscape:version="1.2.1 (9c6d41e410, 2022-07-14)"
   sodipodi:docname="accessories-document-viewer.svg"
   xmlns:inkscape="http://www.inkscape.org/namespaces/inkscape"
   xmlns:sodipodi="http://sodipodi.sourceforge.net/DTD/sodipodi-0.dtd"
   xmlns:xlink="http://www.w3.org/1999/xlink"
   xmlns="http://www.w3.org/2000/svg"
   xmlns:svg="http://www.w3.org/2000/svg">
  <sodipodi:namedview
     id="namedview7"
     pagecolor="#ffffff"
     bordercolor="#000000"
     borderopacity="0.25"
     inkscape:showpageshadow="2"
     inkscape:pageopacity="0.0"
     inkscape:pagecheckerboard="0"
     inkscape:deskcolor="#d1d1d1"
     inkscape:document-units="px"
     showgrid="false"
     inkscape:zoom="16.666667"
     inkscape:cx="23.97"
     inkscape:cy="24"
     inkscape:window-width="1920"
     inkscape:window-height="1006"
     inkscape:window-x="0"
     inkscape:window-y="0"
     inkscape:window-maximized="1"
     inkscape:current-layer="svg5"
     showguides="false" />
  <defs
     id="defs2">
    <linearGradient
       inkscape:collect="always"
       xlink:href="#linearGradient1090"
       id="linearGradient3500"
       x1="2"
       y1="2"
       x2="30"
       y2="30"
       gradientUnits="userSpaceOnUse"
       gradientTransform="scale(1.5)" />
    <linearGradient
       inkscape:collect="always"
       id="linearGradient1090">
      <stop
         style="stop-color:#e23737;stop-opacity:1;"
         offset="0"
         id="stop1086" />
      <stop
         style="stop-color:#e37d7d;stop-opacity:1;"
         offset="1"
         id="stop1088" />
    </linearGradient>
  </defs>
  <path
     d="M 19.5,4 C 5.8482145,4 3,6.9097255 3,20.5 v 9 C 3,43.090274 5.8482145,46 19.5,46 h 9 C 42.151785,46 45,43.090274 45,29.5 v -9 C 45,6.9097255 42.151785,4 28.5,4"
     style="opacity:0.2;fill:#000000;stroke-width:1.5;stroke-linecap:round;stroke-linejoin:round"
     id="path563" />
  <path
     id="path530"
     style="fill:url(#linearGradient3500);fill-opacity:1.0;stroke-width:1.50001;stroke-linecap:round;stroke-linejoin:round"
     d="M 19.5,3 C 5.848228,3 3,5.909739 3,19.5 v 9 C 3,42.09026 5.848228,45 19.5,45 h 9 C 42.151773,45 45,42.09026 45,28.5 v -9 C 45,5.909739 42.151773,3 28.5,3 Z" />
  <path
     d="m 22.386192,10 c -0.48277,0 -0.57799,0.0226 -0.77218,0.18535 -0.38663,0.32406 -0.60695,1.321201 -0.60472,2.770971 0.002,1.49898 0.20755,2.92561 0.67914,4.781999 l 0.29771,1.15843 -0.2791,0.87114 c -0.88647,2.83279 -2.1717,5.78089 -4.06557,9.31379 -2.87023,5.35428 -5.0884,8.16513 -6.63328,8.41486 -0.24857,0.0402 -0.26049,0.0298 -0.26049,-0.14827 0,-0.90366 1.71344,-3.16324 3.619,-4.77275 0.97339,-0.82216 -0.15936,-0.27269 -1.46993,0.71359 -1.32072,0.99392 -2.41474,2.28268 -2.7538,3.24361 -0.24108,0.68331 -0.19009,0.92492 0.25119,1.14917 0.78847,0.40069 1.1897,0.41645 1.86067,0.0834 1.30429,-0.64739 3.02916,-2.69625 4.94939,-5.87556 0.62263,-1.0309 0.81801,-1.28819 0.97685,-1.28819 0.056,0 0.64439,-0.16311 1.30247,-0.36142 2.63019,-0.79264 5.78843,-1.43242 8.8847,-1.80716 l 1.03267,-0.12974 0.52099,0.25949 c 1.35679,0.68063 3.24732,1.34106 4.63306,1.61253 0.93723,0.18361 2.15767,0.21745 2.56772,0.0741 0.25837,-0.0903 0.79662,-0.40936 0.79663,-0.51421 -1.05173,0.49326 -2.63698,-0.11624 -3.82952,-0.46814 -0.78627,-0.24772 -2.51664,-0.92424 -2.61424,-1.01943 2.09507,-0.40551 6.02493,-0.49544 6.44723,0.95455 0.12371,0 0.0919,-0.58207 -0.0465,-0.81553 -0.2593,-0.43727 -1.01068,-0.79027 -2.09325,-0.99162 -0.87648,-0.16302 -2.95334,-0.20866 -4.57725,-0.10194 l -1.44202,0.0927 -0.52098,-0.3151 c -2.98739,-1.80964 -4.56956,-3.85115 -6.00066,-7.72906 -0.21476,-0.58194 -0.22921,-0.66179 -0.15817,-1.02868 0.25016,-1.29181 0.48232,-5.65644 0.30702,-5.76437 -0.31928,1.43021 -0.57748,2.86072 -0.90243,4.15182 -0.0671,0 -0.26379,-1.00637 -0.41865,-2.17785 -0.16847,-1.27457 -0.10729,-2.99884 0.12095,-3.5865 0.0915,-0.23549 0.21074,-0.45008 0.2698,-0.47264 0.58504,0.1678 0.91065,0.63115 0.99545,1.34378 0.083,0 0.10433,-0.13619 0.12094,-0.57458 C 23.613632,10.26837 23.355162,10 22.386192,10 Z m 0.23257,10.63904 c 0.0332,-0.0106 0.052,0.061 0.093,0.17608 0.0505,0.14165 0.33315,0.7216 0.62332,1.28818 1.24855,2.43784 2.63117,4.03669 4.62377,5.34731 0.10095,0.0664 0.16332,0.14209 0.13955,0.16682 -0.0237,0.0248 -0.42937,0.11205 -0.89313,0.194621 -3.16243,0.56312 -7.09958,1.747759 -9.01493,2.706099 -0.0305,0.0152 -0.0558,-0.0147 -0.0558,-0.0648 0,-0.0502 0.18828,-0.44243 0.42796,-0.87114 1.8053,-3.22914 3.01839,-5.83905 3.70272,-7.98855 0.21709,-0.68189 0.29827,-0.93696 0.35352,-0.95455 z"
     style="display:inline;fill:#ffffff;fill-opacity:1;fill-rule:nonzero;stroke:none;stroke-width:0.5;stroke-miterlimit:4;stroke-dasharray:none;stroke-opacity:1;enable-background:new"
     id="path11869"
     sodipodi:nodetypes="scccccccssscsccsccccsccccccscccsccccccccscccscccscscc" />
</svg>
