<?xml version="1.0" encoding="UTF-8" standalone="no"?>
<!-- Created with Inkscape (http://www.inkscape.org/) -->

<svg
   width="48"
   height="48"
   viewBox="0 0 48 48"
   version="1.1"
   id="svg5"
   inkscape:version="1.4.4 (dcaf3e7d9e, 2026-05-05)"
   sodipodi:docname="androidstudio-preview.svg"
   xmlns:inkscape="http://www.inkscape.org/namespaces/inkscape"
   xmlns:sodipodi="http://sodipodi.sourceforge.net/DTD/sodipodi-0.dtd"
   xmlns="http://www.w3.org/2000/svg"
   xmlns:svg="http://www.w3.org/2000/svg">
  <sodipodi:namedview
     id="namedview7"
     pagecolor="#ffffff"
     bordercolor="#000000"
     borderopacity="0.25"
     inkscape:showpageshadow="2"
     inkscape:pageopacity="0.0"
     inkscape:pagecheckerboard="0"
     inkscape:deskcolor="#d1d1d1"
     inkscape:document-units="px"
     showgrid="false"
     inkscape:zoom="17.291667"
     inkscape:cx="24"
     inkscape:cy="24"
     inkscape:window-width="1920"
     inkscape:window-height="1010"
     inkscape:window-x="0"
     inkscape:window-y="0"
     inkscape:window-maximized="1"
     inkscape:current-layer="svg5" />
  <defs
     id="defs2" />
  <path
     d="m 19.500001,3.9999975 c -13.6517856,0 -16.5,2.9097254 -16.5,16.4999995 v 9 c 0,13.590274 2.8482144,16.499999 16.5,16.499999 H 28.5 c 13.651785,0 16.5,-2.909725 16.5,-16.499999 v -9 C 45,6.9097229 42.151785,3.9999975 28.5,3.9999975"
     style="opacity:0.2;fill:#000000;stroke-width:1.5;stroke-linecap:round;stroke-linejoin:round"
     id="path563" />
  <path
     id="path530"
     style="fill:#132f40;fill-opacity:1;stroke-width:1.5;stroke-linecap:round;stroke-linejoin:round"
     d="M 19.5,3 C 5.8482279,3 3,5.9097389 3,19.5 v 8.999999 c 0,13.590263 2.8482279,16.499998 16.5,16.499998 h 8.999999 C 42.151772,44.999997 45,42.090262 45,28.499999 V 19.5 C 45,5.9097389 42.151772,3 28.499999,3 Z" />
  <path
     id="path3"
     d="m 34.455554,19 c -0.134112,-0.0022 -0.269404,0.05344 -0.363281,0.164062 l -1.068359,1.261719 C 32.155008,19.729484 31.05335,19.3125 29.855945,19.3125 c -0.41085,0 -1.109562,0.05009 -1.492188,0.142578 L 31.84032,29 c 1.349896,-0.683693 2.656548,-1.953985 2.986328,-3.478516 l 1.61914,0.314454 c 0.252387,0.04912 0.498005,-0.117249 0.546876,-0.371094 0.04884,-0.253845 -0.116669,-0.497765 -0.369141,-0.546875 l -1.683594,-0.328125 c 0.0012,-0.05349 0.002,-0.10817 0.002,-0.16211 0,-1.283281 -0.470013,-2.4555 -1.246094,-3.353515 l 1.105469,-1.302735 c 0.166883,-0.196665 0.142799,-0.49229 -0.05273,-0.660156 -0.0856,-0.07341 -0.18871,-0.10959 -0.29302,-0.111328 z m -2.955078,2 a 0.5,0.50000042 0 0 1 0.5,0.5 0.5,0.50000042 0 0 1 -0.5,0.5 0.5,0.50000042 0 0 1 -0.5,-0.5 0.5,0.50000042 0 0 1 0.5,-0.5 z m 2,4 a 0.5,0.50000042 0 0 1 0.5,0.5 0.5,0.50000042 0 0 1 -0.5,0.5 0.5,0.50000042 0 0 1 -0.5,-0.5 0.5,0.50000042 0 0 1 0.5,-0.5 z"
     style="fill:#3ddc84;fill-opacity:1" />
  <path
     id="path10"
     style="fill:#ffffff;fill-opacity:1"
     d="m 24.295398,9 c -0.3588,0 -0.701378,0.1624024 -0.955078,0.4511719 -0.2537,0.2887694 -0.396485,0.6795181 -0.396485,1.0878901 v 2.921876 c 0,0.144735 0.01638,0.287133 0.05078,0.423828 -0.240709,0.02342 -0.477848,0.0867 -0.701172,0.191406 -0.5169,0.2425 -0.916228,0.681703 -1.111328,1.220703 L 17.88524,24.404297 C 17.074121,23.69464 16.363861,22.855815 15.789538,21.90625 15.398649,21.284236 14.805407,21 14.203601,21 c -0.694634,0 -1.4009,0.35508 -1.820313,0.910156 -0.419411,0.555076 -0.55318,1.309282 -0.101562,2.109375 l 0.002,0.002 v 0.002 c 1.079127,1.782901 2.50441,3.266124 4.148438,4.40039 l -1.560547,4.3125 c -0.0966,0.2669 -0.07227,4.582031 -0.07227,4.582031 -0.0395,0.124 -0.03056,0.258653 0.02344,0.376953 0.0539,0.118401 0.150431,0.212772 0.269531,0.263672 0.1192,0.0509 0.2528,0.05482 0.375,0.01172 0.1221,-0.0432 0.223856,-0.131394 0.285156,-0.246094 0,0 3.063656,-3.241012 3.160156,-3.507812 l 1.408203,-3.890625 C 21.72343,30.768839 23.195793,31 24.687976,31 c 1.214372,0 2.441559,-0.152915 3.654297,-0.470703 l 1.347656,3.699219 c 0.0938,0.2665 3.148438,3.496093 3.148438,3.496093 0.0613,0.1147 0.163056,0.202894 0.285156,0.246094 0.1221,0.0431 0.2558,0.03918 0.375,-0.01172 0.1191,-0.0508 0.215631,-0.145271 0.269531,-0.263672 0.054,-0.118299 0.06088,-0.252953 0.02148,-0.376953 0,0 -0.0078,-4.296047 -0.107421,-4.560547 L 27.316882,15.285156 c -0.1984,-0.5266 -0.594315,-0.9535 -1.103515,-1.1875 -0.20015,-0.09202 -0.412449,-0.151369 -0.626953,-0.177734 0.04054,-0.147482 0.0625,-0.301598 0.0625,-0.458984 v -2.921876 c 0,-0.408374 -0.142785,-0.7991207 -0.396485,-1.0878901 C 24.998729,9.1624024 24.654198,9 24.295398,9 Z m -0.01367,10.380859 2.695312,7.398438 C 26.215114,26.935445 25.447104,27 24.686023,27 23.664428,27 22.654632,26.841515 21.689929,26.541016 Z" />
  <path
     d="m 24.074176,18.8699 c 0.7709,0 1.5102,-0.308 2.0553,-0.8562 0.5451,-0.5483 0.8513,-1.2919 0.8513,-2.0672 0,-0.7754 -0.3062,-1.519 -0.8513,-2.0672 -0.5451,-0.5483 -1.2844,-0.8563 -2.0553,-0.8563 -0.7709,0 -1.5102,0.308 -2.0553,0.8563 -0.5451,0.5482 -0.8514,1.2918 -0.8514,2.0672 0,0.7753 0.3063,1.5189 0.8514,2.0672 0.5451,0.5482 1.2844,0.8562 2.0553,0.8562 z"
     fill="#e4e4e4"
     id="path17"
     style="fill:#132f40;fill-opacity:1" />
  <path
     d="m 24.000876,13.6661 c -0.619,0 -1.2126,0.2459 -1.6503,0.6835 -0.4377,0.4377 -0.6836,1.0313 -0.6836,1.6502 0,0.619 0.2459,1.2125 0.6836,1.6502 0.4377,0.4378 1.0313,0.6835 1.6503,0.6835 0.619,0 1.2126,-0.2457 1.6503,-0.6835 0.4377,-0.4377 0.6836,-1.0312 0.6836,-1.6502 0,-0.6189 -0.2459,-1.2125 -0.6836,-1.6502 -0.4377,-0.4376 -1.0313,-0.6835 -1.6503,-0.6835 z m -4.0004,2.3337 c 0,-0.5252 0.1034,-1.0454 0.3045,-1.5306 0.2009,-0.4853 0.4956,-0.9262 0.867,-1.2977 0.3714,-0.3714 0.8124,-0.666 1.2977,-0.8671 0.4853,-0.2009 1.0054,-0.3044 1.5308,-0.3044 0.5253,0 1.0453,0.1035 1.5307,0.3044 0.4853,0.2011 0.9263,0.4957 1.2977,0.8671 0.3714,0.3715 0.6661,0.8124 0.867,1.2977 0.2011,0.4852 0.3046,1.0054 0.3046,1.5306 0,1.0609 -0.4214,2.0782 -1.1716,2.8284 -0.7502,0.75 -1.7676,1.1714 -2.8284,1.1714 -1.0609,0 -2.0783,-0.4214 -2.8285,-1.1714 -0.7501,-0.7502 -1.1715,-1.7675 -1.1715,-2.8284 z"
     fill="#0a455f"
     fill-rule="evenodd"
     id="path19"
     style="fill:#ffffff;fill-opacity:1" />
</svg>
