<?xml version="1.0" encoding="UTF-8" standalone="no"?>
<!-- Created with Inkscape (http://www.inkscape.org/) -->

<svg
   width="48"
   height="48"
   viewBox="0 0 48 48"
   version="1.1"
   id="svg5"
   inkscape:version="1.2.1 (9c6d41e410, 2022-07-14)"
   sodipodi:docname="baloo.svg"
   xmlns:inkscape="http://www.inkscape.org/namespaces/inkscape"
   xmlns:sodipodi="http://sodipodi.sourceforge.net/DTD/sodipodi-0.dtd"
   xmlns:xlink="http://www.w3.org/1999/xlink"
   xmlns="http://www.w3.org/2000/svg"
   xmlns:svg="http://www.w3.org/2000/svg">
  <sodipodi:namedview
     id="namedview7"
     pagecolor="#ffffff"
     bordercolor="#000000"
     borderopacity="0.25"
     inkscape:showpageshadow="2"
     inkscape:pageopacity="0.0"
     inkscape:pagecheckerboard="0"
     inkscape:deskcolor="#d1d1d1"
     inkscape:document-units="px"
     showgrid="false"
     inkscape:zoom="16.5"
     inkscape:cx="16.151515"
     inkscape:cy="24"
     inkscape:window-width="1920"
     inkscape:window-height="999"
     inkscape:window-x="0"
     inkscape:window-y="0"
     inkscape:window-maximized="1"
     inkscape:current-layer="svg5"
     showguides="false" />
  <defs
     id="defs2">
    <linearGradient
       inkscape:collect="always"
       xlink:href="#linearGradient1265"
       id="linearGradient3500"
       x1="2"
       y1="2"
       x2="30"
       y2="30"
       gradientUnits="userSpaceOnUse"
       gradientTransform="scale(1.5)" />
    <linearGradient
       inkscape:collect="always"
       id="linearGradient1265">
      <stop
         style="stop-color:#2d7ff3;stop-opacity:1;"
         offset="0"
         id="stop1261" />
      <stop
         style="stop-color:#2cdbfa;stop-opacity:1;"
         offset="1"
         id="stop1263" />
    </linearGradient>
  </defs>
  <path
     d="M 19.5,4 C 5.8482145,4 3,6.9097255 3,20.5 v 9 C 3,43.090274 5.8482145,46 19.5,46 h 9 C 42.151785,46 45,43.090274 45,29.5 v -9 C 45,6.9097255 42.151785,4 28.5,4"
     style="opacity:0.2;fill:#000000;stroke-width:1.5;stroke-linecap:round;stroke-linejoin:round"
     id="path563" />
  <path
     id="path530"
     style="fill:url(#linearGradient3500);fill-opacity:1.0;stroke-width:1.50001;stroke-linecap:round;stroke-linejoin:round"
     d="M 19.5,3 C 5.848228,3 3,5.909739 3,19.5 v 9 C 3,42.09026 5.848228,45 19.5,45 h 9 C 42.151773,45 45,42.09026 45,28.5 v -9 C 45,5.909739 42.151773,3 28.5,3 Z" />
  <path
     d="m 20.107657,11.638 c -0.36557,1.1732 -0.43416,1.11709 -0.54687,2.37109 -0.58224,0.5209 -0.66027,1.11339 -0.63477,1.68945 0.02761,0.62551 0.45906,1.0338 0.96484,1.0625 0.62748,-0.002 0.99289,-0.61928 1.05079,-1.21875 0.06783,-0.70283 -0.0531,-1.15975 -0.55664,-1.52148 -0.01323,-0.951 -0.05275,-1.17791 -0.27735,-2.38281 z m -2.90234,1.18359 c -0.36557,1.1732 -0.43417,1.1171 -0.54688,2.37109 -0.58224,0.5209 -0.66026,1.1134 -0.63476,1.68946 0.02761,0.62551 0.4571,1.0338 0.96289,1.0625 0.62748,-0.002 0.99288,-0.61928 1.05078,-1.21875 0.06783,-0.70283 -0.05115,-1.16171 -0.55469,-1.52344 -0.01323,-0.951 -0.05274,-1.17596 -0.27734,-2.38086 z m 5.64453,0 c -0.2246,1.2049 -0.26411,1.42986 -0.27734,2.38086 -0.50354,0.36173 -0.62252,0.82061 -0.55469,1.52344 0.0579,0.59947 0.4233,1.21675 1.05078,1.21875 0.50579,-0.0287 0.93528,-0.43699 0.96289,-1.0625 0.0255,-0.57606 -0.05253,-1.16856 -0.63477,-1.68946 -0.11271,-1.25399 -0.1813,-1.19789 -0.54687,-2.37109 z m 3,2 c -0.2246,1.2049 -0.26411,1.42986 -0.27734,2.38086 -0.50354,0.36173 -0.62252,0.82061 -0.55469,1.52344 0.0579,0.59947 0.4233,1.21675 1.05078,1.21875 0.50579,-0.0287 0.93528,-0.43699 0.96289,-1.0625 0.0255,-0.57606 -0.05253,-1.16856 -0.63477,-1.68946 -0.11271,-1.25399 -0.1813,-1.19789 -0.54687,-2.37109 z m -11.66406,0.34766 c -0.36557,1.1732 -0.43417,1.11709 -0.54688,2.37109 -0.58224,0.5209 -0.66026,1.11144 -0.63476,1.6875 0.02761,0.62551 0.45905,1.03575 0.96484,1.06445 0.62748,-0.002 0.99288,-0.62123 1.05078,-1.2207 0.06783,-0.70283 -0.0531,-1.15975 -0.55664,-1.52148 -0.01323,-0.951 -0.05274,-1.17596 -0.27734,-2.38086 z m 5.59765,3.10156 c -0.92959,0.01611 -1.5287,0.51926 -3.04297,1.74414 -2.09092,1.27934 -2.71814,1.98609 -2.74804,3.86133 -0.0331,2.07318 2.64924,2.74125 4.80859,1.82226 0.65824,-0.28012 2.07764,-0.30376 2.83594,0.0293 1.57567,0.50995 4.36956,0.1805 4.41406,-2.08984 0.08954,-1.90246 -1.12241,-2.4405 -2.96289,-3.62305 -1.10047,-1.07011 -1.64914,-1.67079 -3.11523,-1.74219 -0.06529,-0.0032 -0.12748,-0.003 -0.18946,-0.0019 z"
     id="path3291"
     sodipodi:nodetypes="ccccccccccccccccccccccccccccccccccccccccccccc"
     style="fill:#ffffff" />
  <path
     id="path10824"
     style="fill:#d7f2fd;fill-opacity:1;stroke-width:0.916666;stroke-linecap:round;stroke-linejoin:round"
     d="m 19.213183,9.0278988 c -2.639176,0.1894787 -5.121621,1.3239142 -6.992188,3.1953122 -4.29466,4.295577 -4.29466,11.259111 0,15.554688 4.024051,4.004092 10.434153,4.288384 14.796875,0.65625 l 9.244141,9.24414 c 0.391737,0.391737 1.022326,0.391737 1.414062,0 0.391737,-0.391736 0.391737,-1.022325 0,-1.414062 l -9.224609,-9.22461 c 3.638888,-4.370862 3.345883,-10.794944 -0.675781,-14.816406 -2.25569,-2.2564934 -5.379997,-3.4224072 -8.5625,-3.1953122 z m 0.785156,1.9726562 c 2.38681,3.61e-4 4.675732,0.948809 6.363281,2.636719 3.513812,3.514563 3.513812,9.211999 0,12.726562 -3.514563,3.513812 -9.211999,3.513812 -12.726562,0 -3.513812,-3.514563 -3.513812,-9.211999 0,-12.726562 1.687549,-1.68791 3.976471,-2.636358 6.363281,-2.636719 z"
     sodipodi:nodetypes="ccccsssccccsccsc" />
</svg>
