<?xml version="1.0" encoding="UTF-8" standalone="no"?>
<!-- Created with Inkscape (http://www.inkscape.org/) -->

<svg
   width="48"
   height="48"
   viewBox="0 0 48 48"
   version="1.1"
   id="svg5"
   inkscape:version="1.3.2 (091e20ef0f, 2023-11-25, custom)"
   sodipodi:docname="cider.svg"
   xmlns:inkscape="http://www.inkscape.org/namespaces/inkscape"
   xmlns:sodipodi="http://sodipodi.sourceforge.net/DTD/sodipodi-0.dtd"
   xmlns:xlink="http://www.w3.org/1999/xlink"
   xmlns="http://www.w3.org/2000/svg"
   xmlns:svg="http://www.w3.org/2000/svg">
  <sodipodi:namedview
     id="namedview7"
     pagecolor="#ffffff"
     bordercolor="#000000"
     borderopacity="0.25"
     inkscape:showpageshadow="2"
     inkscape:pageopacity="0.0"
     inkscape:pagecheckerboard="0"
     inkscape:deskcolor="#d1d1d1"
     inkscape:document-units="px"
     showgrid="false"
     inkscape:zoom="16.666667"
     inkscape:cx="24"
     inkscape:cy="24"
     inkscape:window-width="1920"
     inkscape:window-height="1008"
     inkscape:window-x="0"
     inkscape:window-y="0"
     inkscape:window-maximized="1"
     inkscape:current-layer="svg5" />
  <defs
     id="defs2">
    <linearGradient
       inkscape:collect="always"
       xlink:href="#linearGradient1768"
       id="linearGradient3500"
       x1="2"
       y1="2"
       x2="30"
       y2="30"
       gradientUnits="userSpaceOnUse"
       gradientTransform="scale(1.5)" />
    <linearGradient
       inkscape:collect="always"
       id="linearGradient1768">
      <stop
         style="stop-color:#333333;stop-opacity:1;"
         offset="0"
         id="stop1764" />
      <stop
         style="stop-color:#6a6a6a;stop-opacity:1;"
         offset="1"
         id="stop1766" />
    </linearGradient>
  </defs>
  <path
     d="M 19.5,4 C 5.8482145,4 3,6.9097255 3,20.5 v 9 C 3,43.090274 5.8482145,46 19.5,46 h 9 C 42.151785,46 45,43.090274 45,29.5 v -9 C 45,6.9097255 42.151785,4 28.5,4"
     style="opacity:0.2;fill:#000000;stroke-width:1.5;stroke-linecap:round;stroke-linejoin:round"
     id="path563" />
  <path
     id="path530"
     style="fill:url(#linearGradient3500);fill-opacity:1;stroke-width:1.5;stroke-linecap:round;stroke-linejoin:round"
     d="M 19.5,3 C 5.8482285,3 3,5.9097391 3,19.5 v 9 C 3,42.090261 5.8482285,45 19.5,45 h 9 C 42.151773,45 45,42.090261 45,28.5 v -9 C 45,5.9097391 42.151773,3 28.5,3 Z" />
  <circle
     style="fill:#f50057;fill-opacity:1;stroke-width:1.875;stroke-linecap:round"
     id="path233"
     cx="24"
     cy="24"
     r="15" />
  <path
     id="path12122"
     style="fill:#212121;fill-opacity:1;stroke-width:0.218797"
     d="M 24 15 C 19.029447 15 15 19.029447 15 24 C 15 28.970553 19.029447 33 24 33 C 28.970553 33 33 28.970553 33 24 C 33 19.029447 28.970553 15 24 15 z M 24 16 C 28.41827 16 32 19.58173 32 24 C 32 28.41827 28.41827 32 24 32 C 19.58173 32 16 28.41827 16 24 C 16 19.58173 19.58173 16 24 16 z M 21.548828 20.419922 C 21.248746 20.435862 20.999721 20.684614 21 21 L 21 24 L 21 27 C 20.99957 27.446292 21.482046 27.72602 21.869141 27.503906 L 24.5 26 L 27.130859 24.496094 C 27.514648 24.276705 27.514648 23.723295 27.130859 23.503906 L 24.5 22 L 21.869141 20.496094 C 21.810461 20.462444 21.74634 20.439304 21.679688 20.427734 C 21.635298 20.42002 21.591697 20.417645 21.548828 20.419922 z " />
</svg>
