<?xml version="1.0" encoding="UTF-8" standalone="no"?>
<!-- Created with Inkscape (http://www.inkscape.org/) -->

<svg
   width="48"
   height="48"
   viewBox="0 0 48 48"
   version="1.1"
   id="svg5"
   inkscape:version="1.2.1 (9c6d41e410, 2022-07-14)"
   sodipodi:docname="electron.svg"
   xmlns:inkscape="http://www.inkscape.org/namespaces/inkscape"
   xmlns:sodipodi="http://sodipodi.sourceforge.net/DTD/sodipodi-0.dtd"
   xmlns:xlink="http://www.w3.org/1999/xlink"
   xmlns="http://www.w3.org/2000/svg"
   xmlns:svg="http://www.w3.org/2000/svg">
  <sodipodi:namedview
     id="namedview7"
     pagecolor="#ffffff"
     bordercolor="#000000"
     borderopacity="0.25"
     inkscape:showpageshadow="2"
     inkscape:pageopacity="0.0"
     inkscape:pagecheckerboard="0"
     inkscape:deskcolor="#d1d1d1"
     inkscape:document-units="px"
     showgrid="false"
     inkscape:zoom="16.5"
     inkscape:cx="14.242424"
     inkscape:cy="24"
     inkscape:window-width="1920"
     inkscape:window-height="1008"
     inkscape:window-x="0"
     inkscape:window-y="0"
     inkscape:window-maximized="1"
     inkscape:current-layer="svg5"
     showguides="false" />
  <defs
     id="defs2">
    <linearGradient
       inkscape:collect="always"
       xlink:href="#linearGradient3800"
       id="linearGradient3500"
       x1="2"
       y1="2"
       x2="30"
       y2="30"
       gradientUnits="userSpaceOnUse"
       gradientTransform="scale(1.5)" />
    <linearGradient
       inkscape:collect="always"
       id="linearGradient3800">
      <stop
         style="stop-color:#373b4a;stop-opacity:1;"
         offset="0"
         id="stop3796" />
      <stop
         style="stop-color:#525670;stop-opacity:1;"
         offset="1"
         id="stop3798" />
    </linearGradient>
  </defs>
  <path
     d="M 19.5,4 C 5.8482145,4 3,6.9097255 3,20.5 v 9 C 3,43.090274 5.8482145,46 19.5,46 h 9 C 42.151785,46 45,43.090274 45,29.5 v -9 C 45,6.9097255 42.151785,4 28.5,4"
     style="opacity:0.2;fill:#000000;stroke-width:1.5;stroke-linecap:round;stroke-linejoin:round"
     id="path563" />
  <path
     id="path530"
     style="fill:url(#linearGradient3500);fill-opacity:1.0;stroke-width:1.50001;stroke-linecap:round;stroke-linejoin:round"
     d="M 19.5,3 C 5.848228,3 3,5.909739 3,19.5 v 9 C 3,42.09026 5.848228,45 19.5,45 h 9 C 42.151773,45 45,42.09026 45,28.5 v -9 C 45,5.909739 42.151773,3 28.5,3 Z" />
  <path
     d="M 23.859375,8.0043127 C 22.839079,8.0522157 21.91326,8.6159501 21.402344,9.5004065 20.574133,10.935081 21.065527,12.769503 22.5,13.598063 c 0.94177,0.527085 2.094076,0.507693 3.017578,-0.05078 0.402786,0.465347 0.782257,0.996058 1.132813,1.583984 -2.522359,0.848254 -5.121499,2.130416 -7.398438,3.720703 -1.76806,1.234871 -3.244275,2.686311 -4.392578,4.232422 -0.775006,-1.006176 -1.342769,-2.007045 -1.638672,-2.929687 -0.367123,-1.144708 -0.347368,-2.127236 0.107422,-3.039063 0.498751,-0.999967 1.07934,-1.494231 1.691406,-1.77539 0.612068,-0.281161 1.295362,-0.33847 1.96875,-0.267578 1.346779,0.14178 2.511719,0.79492 2.511719,0.794921 0.478865,0.27667 1.09137,0.112169 1.367188,-0.367188 0.27667,-0.478865 0.112169,-1.09137 -0.367188,-1.367188 0,0 -1.450383,-0.855773 -3.302734,-1.050781 -0.926176,-0.0975 -1.987796,-0.02984 -3.013672,0.441407 -1.025876,0.471247 -1.976516,1.35597 -2.646485,2.699218 -0.713928,1.43139 -0.706832,3.031323 -0.222656,4.541016 0.452997,1.41247 1.304341,2.782015 2.400391,4.089844 -0.602828,1.072624 -1.051145,2.165546 -1.337891,3.24414 -1.374095,0.291651 -2.361838,1.49772 -2.376953,2.902344 0,1.656854 1.343146,3 3,3 1.656854,0 3,-1.343146 3,-3 -0.0013,-1.108918 -0.614207,-2.126679 -1.59375,-2.646484 0.191874,-0.627904 0.449517,-1.273746 0.775391,-1.923828 2.303631,2.247199 5.266251,4.236096 8.248047,5.630859 1.596209,0.746643 3.199499,1.026424 4.748046,1.003906 -0.398161,1.317623 -0.931997,2.373616 -1.529296,3.037109 -0.617055,0.685441 -1.225569,0.982271 -2.058594,0.949219 -1.910341,-0.0758 -2.972042,-1.076273 -3.679688,-2.144531 -0.707644,-1.068258 -0.93164,-2.111328 -0.93164,-2.111328 -0.113431,-0.540304 -0.643212,-0.886498 -1.183594,-0.773438 -0.540304,0.113431 -0.886498,0.643212 -0.773438,1.183594 0,0 0.285486,1.392886 1.220704,2.804688 0.935217,1.4118 2.649984,2.935127 5.269531,3.039062 1.431916,0.05681 2.708616,-0.591433 3.625,-1.609375 0.916384,-1.017942 1.545888,-2.378135 2.001953,-3.943359 0.06153,-0.211188 0.118715,-0.427753 0.173828,-0.646485 1.711238,-0.314457 3.305352,-0.934002 4.693359,-1.611328 0.965505,0.860402 2.373715,1.005237 3.494141,0.359375 1.434473,-0.82856 1.925867,-2.662982 1.097656,-4.097656 -0.548193,-0.950177 -1.571287,-1.525387 -2.667968,-1.5 -0.502753,0.01216 -0.994381,0.150518 -1.429688,0.402344 -1.066944,0.626999 -1.639392,1.844809 -1.441406,3.066406 -1.024134,0.49258 -2.145848,0.934391 -3.320313,1.226562 0.381433,-2.548488 0.420173,-5.400489 0.179688,-8.1875 -0.191481,-2.219104 -0.670205,-4.292023 -1.392578,-6.115234 0.198296,-0.04503 0.394482,-0.08569 0.58789,-0.123047 1.5224,-0.294038 2.882242,-0.341122 3.859375,-0.15039 0.977133,0.19073 1.493793,0.549902 1.742188,1.068359 0.626783,1.30825 0.1462,2.717359 -0.623047,3.945312 -0.769248,1.227956 -1.736328,2.085938 -1.736328,2.085938 -0.415561,0.364462 -0.456675,0.996913 -0.0918,1.412109 0.364462,0.415561 0.996913,0.456675 1.412109,0.0918 0,0 1.164113,-1.015297 2.111328,-2.527344 0.947216,-1.512044 1.766296,-3.709073 0.730469,-5.871093 -0.58291,-1.216678 -1.804163,-1.902904 -3.162109,-2.167969 -1.357949,-0.265065 -2.928737,-0.178429 -4.621094,0.148438 -0.353675,0.06831 -0.713148,0.150808 -1.076172,0.240234 C 28.128757,13.581804 27.518849,12.72008 26.832031,11.984782 27.304366,10.625837 26.745481,9.1229015 25.5,8.4027503 25.002543,8.1156206 24.433116,7.9773311 23.859375,8.0043127 Z m 3.697266,8.9375003 c 0.695527,1.659713 1.185118,3.605616 1.36914,5.738282 0.249217,2.888197 0.163955,5.866516 -0.273437,8.349609 -1.446825,0.09557 -2.930003,-0.103385 -4.375,-0.779297 -2.928279,-1.36973 -5.893799,-3.409224 -8.039063,-5.589844 1.041249,-1.508227 2.430454,-2.963205 4.158203,-4.169922 2.181837,-1.523865 4.746528,-2.76299 7.160157,-3.548828 z M 24,21.000407 c -1.646769,0 -3,1.353231 -3,3 0,1.646769 1.353231,3 3,3 1.646769,0 3,-1.353231 3,-3 0,-1.646769 -1.353231,-3 -3,-3 z"
     style="color:#000000;fill:#cff7ff;stroke-linecap:round"
     id="path1657" />
  <path
     d="m 24,10.000406 c -0.552285,0 -1,0.447716 -1,1.000001 0,0.552285 0.447715,1 1,1 0.552285,0 1,-0.447715 1,-1 0,-0.552285 -0.447715,-1.000001 -1,-1.000001 z m 13,18.000001 c -0.552285,0 -1,0.447715 -1,1 0,0.552285 0.447715,1 1,1 0.552285,0 1,-0.447715 1,-1 0,-0.552285 -0.447715,-1 -1,-1 z m -24,2 c -0.552285,0 -1,0.447715 -1,1 0,0.552285 0.447715,1 1,1 0.552285,0 1,-0.447715 1,-1 0,-0.552285 -0.447715,-1 -1,-1 z"
     style="fill:#494c60"
     id="path1740" />
</svg>
