<?xml version="1.0" encoding="UTF-8" standalone="no"?>
<!-- Created with Inkscape (http://www.inkscape.org/) -->

<svg
   width="48"
   height="48"
   viewBox="0 0 48 48"
   version="1.1"
   id="svg5"
   inkscape:version="1.2.1 (9c6d41e410, 2022-07-14)"
   sodipodi:docname="emacs.svg"
   xmlns:inkscape="http://www.inkscape.org/namespaces/inkscape"
   xmlns:sodipodi="http://sodipodi.sourceforge.net/DTD/sodipodi-0.dtd"
   xmlns:xlink="http://www.w3.org/1999/xlink"
   xmlns="http://www.w3.org/2000/svg"
   xmlns:svg="http://www.w3.org/2000/svg">
  <sodipodi:namedview
     id="namedview7"
     pagecolor="#ffffff"
     bordercolor="#000000"
     borderopacity="0.25"
     inkscape:showpageshadow="2"
     inkscape:pageopacity="0.0"
     inkscape:pagecheckerboard="0"
     inkscape:deskcolor="#d1d1d1"
     inkscape:document-units="px"
     showgrid="false"
     inkscape:zoom="17.041667"
     inkscape:cx="24"
     inkscape:cy="24"
     inkscape:window-width="1920"
     inkscape:window-height="1004"
     inkscape:window-x="0"
     inkscape:window-y="0"
     inkscape:window-maximized="1"
     inkscape:current-layer="svg5"
     showguides="false" />
  <defs
     id="defs2">
    <linearGradient
       inkscape:collect="always"
       xlink:href="#linearGradient1312"
       id="linearGradient3500"
       x1="2"
       y1="2"
       x2="30"
       y2="30"
       gradientUnits="userSpaceOnUse"
       gradientTransform="scale(1.5)" />
    <linearGradient
       inkscape:collect="always"
       id="linearGradient1312">
      <stop
         style="stop-color:#9d4dcd;stop-opacity:1;"
         offset="0"
         id="stop1308" />
      <stop
         style="stop-color:#b589df;stop-opacity:1;"
         offset="1"
         id="stop1310" />
    </linearGradient>
  </defs>
  <path
     d="M 19.5,4 C 5.8482145,4 3,6.9097255 3,20.5 v 9 C 3,43.090274 5.8482145,46 19.5,46 h 9 C 42.151785,46 45,43.090274 45,29.5 v -9 C 45,6.9097255 42.151785,4 28.5,4"
     style="opacity:0.2;fill:#000000;stroke-width:1.5;stroke-linecap:round;stroke-linejoin:round"
     id="path563" />
  <path
     id="path530"
     style="fill:url(#linearGradient3500);fill-opacity:1.0;stroke-width:1.50001;stroke-linecap:round;stroke-linejoin:round"
     d="M 19.5,3 C 5.848228,3 3,5.909739 3,19.5 v 9 C 3,42.09026 5.848228,45 19.5,45 h 9 C 42.151773,45 45,42.09026 45,28.5 v -9 C 45,5.909739 42.151773,3 28.5,3 Z" />
  <path
     d="m 15.364733,36.74399 c 0,0 1.66909,0.484642 3.890703,0.761714 0.899752,0.112217 4.323135,0.504365 6.947939,0.494098 0,0 3.19662,0.0029 4.961217,-0.24705 1.846413,-0.262292 2.892353,-0.597013 3.474436,-1.265021 0.01521,-0.159255 0.280989,-0.67846 -0.436725,-1.179094 -1.835531,-1.281758 -4.20616,-1.630197 -8.814895,-2.725291 -5.094992,-1.28176 -6.617548,-2.50752 -7.378205,-3.394173 -0.721458,-0.890388 0.135333,-2.738048 4.240693,-3.644612 2.078505,-0.50586 9.821327,-0.598882 9.821327,-0.598882 -2.221306,-1.76335 -6.391999,-4.920459 -7.244123,-5.591826 -0.747525,-0.588864 -1.952188,-1.492503 -2.081613,-2.300011 -0.174683,-0.786073 1.062646,-1.164565 1.717781,-1.208214 2.110696,-0.145568 4.992941,0.101889 7.554904,0.611387 1.287832,0.256104 1.513913,0.218365 1.513913,0.218365 1.834122,0.08736 3.260703,-0.8734 3.187903,-2.896867 -0.01465,-2.052527 -2.06668,-3.698435 -4.33776,-3.770299 -2.138855,-0.067732 -7.409304,0.305692 -7.409304,0.305692 6.143107,1.266452 7.147355,1.589599 7.467796,2.329099 0.189775,0.436948 -0.315775,0.871098 -2.008188,0.786321 -1.843315,-0.0924 -5.620141,-0.538681 -5.620141,-0.538681 -3.594836,-0.553146 -6.09925,-1.077205 -7.191231,0.349373 -0.713272,0.932013 0.10192,2.067147 0.422147,2.736648 1.426572,2.489319 3.893493,4.197139 5.458674,5.400497 0.58898,0.452847 2.387271,1.455701 2.387271,1.455701 -5.589649,-1.528467 -10.044076,-0.669627 -12.868296,0.815192 -3.2460867,1.921547 -2.690921,5.164056 2.460071,8.195478 3.04247,1.790572 4.557093,2.650627 9.538526,3.262262 2.911646,0.464265 3.345328,0.654226 3.323246,0.896578 -0.03127,0.341222 -3.446128,0.470517 -4.384744,0.535259 -2.388046,0.164699 -8.564136,0.205859 -8.594936,0.205859 z"
     style="fill:#ffffff;stroke-width:3.11106"
     id="path397"
     sodipodi:nodetypes="cscccccccccccccccccccccccccccccc" />
</svg>
