<?xml version="1.0" encoding="UTF-8" standalone="no"?>
<!-- Created with Inkscape (http://www.inkscape.org/) -->

<svg
   width="48"
   height="48"
   viewBox="0 0 48 48"
   version="1.1"
   id="svg5"
   inkscape:version="1.2.1 (9c6d41e410, 2022-07-14)"
   sodipodi:docname="gmail.svg"
   xmlns:inkscape="http://www.inkscape.org/namespaces/inkscape"
   xmlns:sodipodi="http://sodipodi.sourceforge.net/DTD/sodipodi-0.dtd"
   xmlns="http://www.w3.org/2000/svg"
   xmlns:svg="http://www.w3.org/2000/svg">
  <sodipodi:namedview
     id="namedview7"
     pagecolor="#ffffff"
     bordercolor="#000000"
     borderopacity="0.25"
     inkscape:showpageshadow="2"
     inkscape:pageopacity="0.0"
     inkscape:pagecheckerboard="0"
     inkscape:deskcolor="#d1d1d1"
     inkscape:document-units="px"
     showgrid="false"
     inkscape:zoom="16.5"
     inkscape:cx="23.969697"
     inkscape:cy="24"
     inkscape:window-width="1920"
     inkscape:window-height="1004"
     inkscape:window-x="0"
     inkscape:window-y="0"
     inkscape:window-maximized="1"
     inkscape:current-layer="svg5" />
  <defs
     id="defs2" />
  <path
     d="m 19.500001,3.9999975 c -13.6517856,0 -16.5,2.9097254 -16.5,16.4999995 v 9 c 0,13.590274 2.8482144,16.499999 16.5,16.499999 H 28.5 c 13.651785,0 16.5,-2.909725 16.5,-16.499999 v -9 C 45,6.9097229 42.151785,3.9999975 28.5,3.9999975"
     style="opacity:0.2;fill:#000000;stroke-width:1.5;stroke-linecap:round;stroke-linejoin:round"
     id="path563" />
  <path
     id="path530"
     style="fill:#fafafa;fill-opacity:1;stroke-width:1.5;stroke-linecap:round;stroke-linejoin:round"
     d="M 19.5,3 C 5.8482279,3 3,5.9097389 3,19.5 v 8.999999 c 0,13.590263 2.8482279,16.499998 16.5,16.499998 h 8.999999 C 42.151772,44.999997 45,42.090262 45,28.499999 V 19.5 C 45,5.9097389 42.151772,3 28.499999,3 Z" />
  <path
     id="path523"
     style="fill:#4285f4;stroke-width:0.75"
     d="m 9,17.300782 v 16.654757 c 0,1.129835 0.905602,2.044922 2.024414,2.044922 H 15 V 21.844726 Z"
     sodipodi:nodetypes="cssccc" />
  <path
     id="path391"
     style="fill:#34a853;stroke-width:0.75"
     d="m 39,17.300782 -6,4.543944 v 14.155735 h 3.975586 C 38.094396,36.000461 39,35.085372 39,33.955539 Z"
     sodipodi:nodetypes="cccssc" />
  <path
     d="m 13.860001,21.933845 v -8.314848 l 10.14,7.562822 10.14,-7.562822 v 8.314848 l -10.14,7.564991 z"
     style="fill:#ea4335;stroke-width:0.75"
     id="path457"
     sodipodi:nodetypes="ccccccc" />
  <path
     id="path424"
     style="fill:#fbbc04;stroke-width:0.75"
     d="m 35.950195,13 c -0.61589,1.3e-5 -1.247188,0.191601 -1.810546,0.618163 L 33,14.482421 v 8.314454 l 6,-4.543946 V 16.073242 C 39,14.256805 37.524136,12.999965 35.950195,13 Z"
     sodipodi:nodetypes="sccccss" />
  <path
     id="path490"
     style="fill:#c5221f;stroke-width:0.75"
     d="M 12.049804,13 C 10.475862,12.999965 9,14.256805 9,16.073242 v 2.18092 l 6,4.543944 V 14.482421 L 13.860351,13.618163 C 13.296991,13.191599 12.665695,13.000013 12.049804,13 Z"
     sodipodi:nodetypes="ssccccs" />
</svg>
