<?xml version="1.0" encoding="UTF-8" standalone="no"?>
<!-- Created with Inkscape (http://www.inkscape.org/) -->

<svg
   width="48"
   height="48"
   viewBox="0 0 48 48"
   version="1.1"
   id="svg5"
   inkscape:version="1.2.1 (9c6d41e410, 2022-07-14)"
   sodipodi:docname="gnome-todo.svg"
   xmlns:inkscape="http://www.inkscape.org/namespaces/inkscape"
   xmlns:sodipodi="http://sodipodi.sourceforge.net/DTD/sodipodi-0.dtd"
   xmlns:xlink="http://www.w3.org/1999/xlink"
   xmlns="http://www.w3.org/2000/svg"
   xmlns:svg="http://www.w3.org/2000/svg">
  <sodipodi:namedview
     id="namedview7"
     pagecolor="#ffffff"
     bordercolor="#000000"
     borderopacity="0.25"
     inkscape:showpageshadow="2"
     inkscape:pageopacity="0.0"
     inkscape:pagecheckerboard="0"
     inkscape:deskcolor="#d1d1d1"
     inkscape:document-units="px"
     showgrid="false"
     inkscape:zoom="16.458333"
     inkscape:cx="24"
     inkscape:cy="24"
     inkscape:window-width="1920"
     inkscape:window-height="1011"
     inkscape:window-x="0"
     inkscape:window-y="0"
     inkscape:window-maximized="1"
     inkscape:current-layer="svg5" />
  <defs
     id="defs2">
    <linearGradient
       inkscape:collect="always"
       xlink:href="#linearGradient975"
       id="linearGradient4780"
       x1="30"
       y1="30"
       x2="2"
       y2="2"
       gradientUnits="userSpaceOnUse"
       gradientTransform="scale(1.5)" />
    <linearGradient
       inkscape:collect="always"
       id="linearGradient975">
      <stop
         style="stop-color:#6da7ff;stop-opacity:1;"
         offset="0"
         id="stop971" />
      <stop
         style="stop-color:#057ffa;stop-opacity:1;"
         offset="1"
         id="stop973" />
    </linearGradient>
  </defs>
  <path
     d="M 19.5,4 C 5.8482142,4 3,6.9097255 3,20.5 v 9 C 3,43.090274 5.8482142,46 19.5,46 h 9 C 42.151785,46 45,43.090274 45,29.5 v -9 C 45,6.9097255 42.151785,4 28.5,4"
     style="opacity:0.2;fill:#000000;stroke-width:1.5;stroke-linecap:round;stroke-linejoin:round"
     id="path563" />
  <path
     id="path530"
     style="fill:url(#linearGradient4780);fill-opacity:1.0;stroke-width:1.5;stroke-linecap:round;stroke-linejoin:round"
     d="M 19.5,3 C 5.8482279,3 3,5.9097391 3,19.5 v 9 C 3,42.090261 5.8482279,45 19.5,45 h 9 C 42.151773,45 45,42.090261 45,28.5 v -9 C 45,5.9097391 42.151773,3 28.5,3 Z" />
  <path
     id="rect291"
     style="opacity:0.5;fill:#ffffff;stroke-linecap:round"
     d="M 9.5,15 C 9.223001,15 9,15.223001 9,15.5 9,15.777 9.223001,16 9.5,16 h 29 C 38.777,16 39,15.777 39,15.5 39,15.223001 38.777,15 38.5,15 Z m 0,6 C 9.223001,21 9,21.223 9,21.5 9,21.777 9.223001,22 9.5,22 h 29 C 38.777,22 39,21.777 39,21.5 39,21.223 38.777,21 38.5,21 Z m 0,6 C 9.223001,27 9,27.223 9,27.5 9,27.777 9.223001,28 9.5,28 h 29 C 38.777,28 39,27.777 39,27.5 39,27.223 38.777,27 38.5,27 Z m 0,6 C 9.223001,33 9,33.223 9,33.5 9,33.777 9.223001,34 9.5,34 h 15 C 24.777,34 25,33.777 25,33.5 25,33.223 24.777,33 24.5,33 Z"
     sodipodi:nodetypes="ssssssssssssssssssssssssssss" />
  <path
     id="rect898"
     style="fill:#ffffff;stroke-width:2"
     d="m 11.221802,22.636624 c -0.391736,0.391736 -0.391736,1.022476 0,1.414214 l 9.071068,9.071068 c 0.04896,0.04896 0.1019,0.09314 0.1575,0.12978 0.05544,0.03678 0.11384,0.06666 0.17402,0.09114 0.06018,0.02448 0.1221,0.04024 0.18508,0.05248 0.06296,0.0122 0.12668,0.0194 0.1906,0.0194 0.0639,6e-6 0.12762,-0.0072 0.19058,-0.0194 0.06298,-0.0122 0.12488,-0.028 0.18506,-0.05248 0.06018,-0.02448 0.11852,-0.05442 0.17402,-0.09114 0.0555,-0.03672 0.10848,-0.08086 0.15746,-0.12982 l 16.727934,-16.72885 c 0.391738,-0.391736 0.391738,-1.022476 0,-1.414214 -0.391736,-0.391736 -1.022474,-0.391736 -1.414214,0 L 21.000056,31.000524 12.636094,22.636562 c -0.391738,-0.391738 -1.022478,-0.391736 -1.414214,-2e-6 z"
     sodipodi:nodetypes="ccccscssssccsccscc" />
</svg>
