<?xml version="1.0" encoding="UTF-8" standalone="no"?>
<!-- Created with Inkscape (http://www.inkscape.org/) -->

<svg
   width="48"
   height="48"
   viewBox="0 0 48 48"
   version="1.1"
   id="svg5"
   inkscape:version="1.4.4 (dcaf3e7d9e, 2026-05-05)"
   sodipodi:docname="google-gemini.svg"
   xmlns:inkscape="http://www.inkscape.org/namespaces/inkscape"
   xmlns:sodipodi="http://sodipodi.sourceforge.net/DTD/sodipodi-0.dtd"
   xmlns:xlink="http://www.w3.org/1999/xlink"
   xmlns="http://www.w3.org/2000/svg"
   xmlns:svg="http://www.w3.org/2000/svg">
  <sodipodi:namedview
     id="namedview7"
     pagecolor="#ffffff"
     bordercolor="#000000"
     borderopacity="0.25"
     inkscape:showpageshadow="2"
     inkscape:pageopacity="0.0"
     inkscape:pagecheckerboard="0"
     inkscape:deskcolor="#d1d1d1"
     inkscape:document-units="px"
     showgrid="false"
     inkscape:zoom="16.708333"
     inkscape:cx="24"
     inkscape:cy="24"
     inkscape:window-width="1920"
     inkscape:window-height="1010"
     inkscape:window-x="0"
     inkscape:window-y="0"
     inkscape:window-maximized="1"
     inkscape:current-layer="svg5" />
  <defs
     id="defs2">
    <radialGradient
       inkscape:collect="always"
       xlink:href="#linearGradient1"
       id="radialGradient2"
       cx="6.0314078"
       cy="5.2960987"
       fx="6.0314078"
       fy="5.2960987"
       r="5"
       gradientUnits="userSpaceOnUse"
       gradientTransform="matrix(3.8441378,-0.02065239,0.01840773,3.4263176,-3.7520175,-2.3181057)" />
    <linearGradient
       id="linearGradient1"
       inkscape:collect="always">
      <stop
         style="stop-color:#fc413d;stop-opacity:1;"
         offset="0"
         id="stop1" />
      <stop
         style="stop-color:#fc413d;stop-opacity:0;"
         offset="1"
         id="stop2" />
    </linearGradient>
    <radialGradient
       inkscape:collect="always"
       xlink:href="#linearGradient2"
       id="radialGradient4"
       cx="4.4745617"
       cy="7.4917331"
       fx="4.4745617"
       fy="7.4917331"
       r="5"
       gradientUnits="userSpaceOnUse"
       gradientTransform="matrix(2.9999998,0,0,2.5705286,0.6446895,5.6201675)" />
    <linearGradient
       id="linearGradient2"
       inkscape:collect="always">
      <stop
         style="stop-color:#fbbc04;stop-opacity:1;"
         offset="0"
         id="stop3" />
      <stop
         style="stop-color:#fbbc04;stop-opacity:0;"
         offset="1"
         id="stop4" />
    </linearGradient>
    <radialGradient
       inkscape:collect="always"
       xlink:href="#linearGradient8"
       id="radialGradient10"
       cx="6.3957481"
       cy="12.007661"
       fx="6.3957481"
       fy="12.007661"
       r="5"
       gradientUnits="userSpaceOnUse"
       gradientTransform="matrix(2.9006546,-0.02193868,0.01939998,2.564995,0.3324365,5.340723)" />
    <linearGradient
       id="linearGradient8"
       inkscape:collect="always">
      <stop
         style="stop-color:#00b95c;stop-opacity:1;"
         offset="0"
         id="stop9" />
      <stop
         style="stop-color:#00b95c;stop-opacity:0;"
         offset="1"
         id="stop10" />
    </linearGradient>
  </defs>
  <path
     d="M 19.5,4 C 5.848214,4 3,6.9097255 3,20.5 v 9 C 3,43.090274 5.8482135,46 19.5,46 h 9 C 42.151785,46 45,43.090274 45,29.5 v -9 C 45,6.9097255 42.151785,4 28.5,4"
     style="opacity:0.2;fill:#000000;stroke-width:1.5;stroke-linecap:round;stroke-linejoin:round"
     id="path563" />
  <path
     id="path533"
     style="fill:#fafafa;fill-opacity:1;stroke-width:1.5;stroke-linecap:round;stroke-linejoin:round"
     d="m 19.500001,3 c -13.651772,0 -16.5,2.909739 -16.5,16.5 v 9 c 0,13.590259 2.848228,16.5 16.5,16.5 h 9 C 42.151775,45 45,42.090259 45,28.5 v -9 C 45,5.909739 42.151775,3 28.500001,3 Z" />
  <path
     d="m 24.000001,9 c 0,8.284272 -6.715728,15 -15.0000005,15 8.2842725,0 15.0000005,6.715727 15.0000005,15 0,-8.284273 6.715729,-15 15,-15 -8.284272,0 -15,-6.715728 -15,-15 z"
     style="fill:#3186ff;fill-opacity:1;stroke-width:1.5"
     id="path1" />
  <path
     d="m 24.000001,9 c 0,8.284272 -6.715728,15 -15.0000005,15 8.2842725,0 15.0000005,6.715727 15.0000005,15 0,-8.284273 6.715729,-15 15,-15 -8.284272,0 -15,-6.715728 -15,-15 z"
     style="fill:url(#radialGradient2);fill-opacity:1;stroke-width:1.5"
     id="path2" />
  <path
     d="m 24.000001,9 c 0,8.284272 -6.715728,15 -15.0000005,15 8.2842725,0 15.0000005,6.715727 15.0000005,15 0,-8.284273 6.715729,-15 15,-15 -8.284272,0 -15,-6.715728 -15,-15 z"
     style="fill:url(#radialGradient4);fill-opacity:1;stroke-width:1.5"
     id="path3" />
  <path
     d="m 24.000001,9 c 0,8.284272 -6.715728,15 -15.0000005,15 8.2842725,0 15.0000005,6.715727 15.0000005,15 0,-8.284273 6.715729,-15 15,-15 -8.284272,0 -15,-6.715728 -15,-15 z"
     style="fill:url(#radialGradient10);stroke-width:1.5"
     id="path4" />
</svg>
