<?xml version="1.0" encoding="UTF-8" standalone="no"?>
<!-- Created with Inkscape (http://www.inkscape.org/) -->

<svg
   width="48"
   height="48"
   viewBox="0 0 48 48"
   version="1.1"
   id="svg5"
   inkscape:version="1.4.4 (dcaf3e7d9e, 2026-05-05)"
   sodipodi:docname="google-sheets.svg"
   xmlns:inkscape="http://www.inkscape.org/namespaces/inkscape"
   xmlns:sodipodi="http://sodipodi.sourceforge.net/DTD/sodipodi-0.dtd"
   xmlns:xlink="http://www.w3.org/1999/xlink"
   xmlns="http://www.w3.org/2000/svg"
   xmlns:svg="http://www.w3.org/2000/svg">
  <sodipodi:namedview
     id="namedview7"
     pagecolor="#ffffff"
     bordercolor="#000000"
     borderopacity="0.25"
     inkscape:showpageshadow="2"
     inkscape:pageopacity="0.0"
     inkscape:pagecheckerboard="0"
     inkscape:deskcolor="#d1d1d1"
     inkscape:document-units="px"
     showgrid="false"
     inkscape:zoom="16.75"
     inkscape:cx="24"
     inkscape:cy="24"
     inkscape:window-width="1920"
     inkscape:window-height="1012"
     inkscape:window-x="0"
     inkscape:window-y="0"
     inkscape:window-maximized="1"
     inkscape:current-layer="svg5"
     showguides="false" />
  <defs
     id="defs2">
    <filter
       id="b"
       width="168"
       height="126"
       x="-4"
       y="33"
       color-interpolation-filters="sRGB"
       filterUnits="userSpaceOnUse">
      <feFlood
         flood-opacity="0"
         result="BackgroundImageFix"
         id="feFlood4" />
      <feBlend
         in="SourceGraphic"
         in2="BackgroundImageFix"
         result="shape"
         mode="normal"
         id="feBlend4" />
      <feGaussianBlur
         result="effect1_foregroundBlur_37435_8174"
         stdDeviation="6"
         id="feGaussianBlur4" />
    </filter>
    <linearGradient
       inkscape:collect="always"
       xlink:href="#linearGradient4"
       id="linearGradient6"
       x1="144.00005"
       y1="96.000008"
       x2="24"
       y2="96"
       gradientUnits="userSpaceOnUse"
       gradientTransform="translate(0,4.5999669)" />
    <linearGradient
       id="linearGradient4"
       inkscape:collect="always">
      <stop
         style="stop-color:#0ebc5f;stop-opacity:1;"
         offset="0"
         id="stop5" />
      <stop
         style="stop-color:#78c9ff;stop-opacity:1;"
         offset="0.95074314"
         id="stop6" />
    </linearGradient>
    <mask
       maskUnits="userSpaceOnUse"
       id="mask1">
      <rect
         width="158.40001"
         height="129.06667"
         x="25.6"
         y="32"
         fill="#ffffff"
         id="rect5"
         style="stroke-width:0.976149"
         ry="17.6" />
    </mask>
  </defs>
  <path
     d="M 19.5,4 C 5.8482145,4 3,6.9097255 3,20.5 v 9 C 3,43.090274 5.8482145,46 19.5,46 h 9 C 42.151785,46 45,43.090274 45,29.5 v -9 C 45,6.9097255 42.151785,4 28.5,4"
     style="opacity:0.2;fill:#000000;stroke-width:1.5;stroke-linecap:round;stroke-linejoin:round"
     id="path563" />
  <path
     id="path530"
     style="fill:#fafafa;fill-opacity:1;stroke-width:1.5;stroke-linecap:round;stroke-linejoin:round"
     d="M 19.5,3 C 5.848228,3 3,5.909739 3,19.5 v 9 C 3,42.090261 5.848228,45 19.5,45 h 9 C 42.151773,45 45,42.090261 45,28.5 v -9 C 45,5.909739 42.151773,3 28.5,3 Z" />
  <g
     id="g4"
     transform="matrix(1.5,0,0,1.5,0,0.49999425)">
    <rect
       style="fill:#009954"
       id="rect1"
       width="13"
       height="10.666667"
       x="6"
       y="11"
       ry="2" />
    <g
       mask="url(#mask1)"
       transform="matrix(0.11363636,0,0,0.11363636,5.0909091,5.3636403)"
       id="g3">
      <path
         id="path2"
         d="M 25.600001,31.999966 V 161.06664 H 184.00001 V 31.999966 Z"
         style="fill:#0ebc5f;fill-opacity:1;stroke-width:0.99912" />
      <g
         filter="url(#b)"
         id="g2">
        <rect
           style="fill:url(#linearGradient6);stroke-width:0.22"
           id="rect4"
           width="140.8"
           height="93.866669"
           x="8"
           y="49.599968"
           rx="23.466667" />
      </g>
    </g>
    <path
       id="rect6"
       style="fill:#ffffff;stroke-width:0.333333"
       d="m 22,13.66667 c -0.369333,0 -0.666667,0.297333 -0.666667,0.666666 v 4.666667 H 14.666667 C 14.297333,19.000003 14,19.297336 14,19.66667 c 0,0.369333 0.297333,0.666666 0.666667,0.666666 h 6.666666 v 1.333334 c 0,0.369333 0.297334,0.666666 0.666667,0.666666 0.369333,0 0.666667,-0.297333 0.666667,-0.666666 V 20.333336 H 24 c 0.369333,0 0.666667,-0.297333 0.666667,-0.666666 0,-0.369334 -0.297334,-0.666667 -0.666667,-0.666667 H 22.666667 V 14.333336 C 22.666667,13.964003 22.369333,13.66667 22,13.66667 Z" />
  </g>
</svg>
