<?xml version="1.0" encoding="UTF-8" standalone="no"?>
<!-- Created with Inkscape (http://www.inkscape.org/) -->

<svg
   width="48"
   height="48"
   viewBox="0 0 48 48"
   version="1.1"
   id="svg5"
   inkscape:version="1.2.1 (1:1.2.1+202210291243+9c6d41e410)"
   sodipodi:docname="io.bassi.Amberol.svg"
   xmlns:inkscape="http://www.inkscape.org/namespaces/inkscape"
   xmlns:sodipodi="http://sodipodi.sourceforge.net/DTD/sodipodi-0.dtd"
   xmlns:xlink="http://www.w3.org/1999/xlink"
   xmlns="http://www.w3.org/2000/svg"
   xmlns:svg="http://www.w3.org/2000/svg">
  <sodipodi:namedview
     id="namedview7"
     pagecolor="#ffffff"
     bordercolor="#000000"
     borderopacity="0.25"
     inkscape:showpageshadow="2"
     inkscape:pageopacity="0.0"
     inkscape:pagecheckerboard="0"
     inkscape:deskcolor="#d1d1d1"
     inkscape:document-units="px"
     showgrid="false"
     inkscape:zoom="17.1875"
     inkscape:cx="24"
     inkscape:cy="24"
     inkscape:window-width="1920"
     inkscape:window-height="1018"
     inkscape:window-x="0"
     inkscape:window-y="28"
     inkscape:window-maximized="1"
     inkscape:current-layer="svg5"
     showguides="false" />
  <defs
     id="defs2">
    <linearGradient
       inkscape:collect="always"
       xlink:href="#linearGradient988"
       id="linearGradient3500"
       x1="2"
       y1="2"
       x2="30"
       y2="30"
       gradientUnits="userSpaceOnUse"
       gradientTransform="scale(1.5)" />
    <linearGradient
       inkscape:collect="always"
       id="linearGradient988">
      <stop
         style="stop-color:#1f6ad8;stop-opacity:1;"
         offset="0"
         id="stop984" />
      <stop
         style="stop-color:#6ac0fc;stop-opacity:1;"
         offset="1"
         id="stop986" />
    </linearGradient>
  </defs>
  <path
     d="M 19.5,4 C 5.8482145,4 3,6.9097255 3,20.5 v 9 C 3,43.090274 5.8482145,46 19.5,46 h 9 C 42.151785,46 45,43.090274 45,29.5 v -9 C 45,6.9097255 42.151785,4 28.5,4"
     style="opacity:0.2;fill:#000000;stroke-width:1.5;stroke-linecap:round;stroke-linejoin:round"
     id="path563" />
  <path
     id="path530"
     style="fill:url(#linearGradient3500);fill-opacity:1.0;stroke-width:1.5;stroke-linecap:round;stroke-linejoin:round"
     d="M 19.5,3 C 5.8482275,3 3,5.909739 3,19.5 v 9 C 3,42.090263 5.8482275,45 19.5,45 h 9 C 42.151774,45 45,42.090263 45,28.5 v -9 C 45,5.909739 42.151774,3 28.5,3 Z" />
  <path
     id="path344"
     style="fill:#ffffff;stroke:none;stroke-width:6;stroke-linecap:round;stroke-linejoin:round"
     d="M 24,9 C 15.715737,9 9,15.715736 9,24 9,32.284264 15.715737,39 24,39 32.284263,39 39,32.284264 39,24 39,15.715736 32.284263,9 24,9 Z m -4.447321,7.001953 c 0.272685,-0.0096 0.55479,0.0504 0.822266,0.195313 L 31.162,22.59375 c 1.118476,0.606016 1.118476,2.206485 0,2.8125 l -10.787055,6.396484 c -1.069904,0.579652 -2.3731,-0.189685 -2.375,-1.402343 V 17.599609 c 0.0014,-0.909494 0.734682,-1.568846 1.552734,-1.597656 z"
     sodipodi:nodetypes="ssssssccccccs" />
</svg>
