<?xml version="1.0" encoding="UTF-8" standalone="no"?>
<!-- Created with Inkscape (http://www.inkscape.org/) -->

<svg
   width="48"
   height="48"
   viewBox="0 0 48 48"
   version="1.1"
   id="svg5"
   inkscape:version="1.2.1 (9c6d41e410, 2022-07-14)"
   sodipodi:docname="konqueror.svg"
   xmlns:inkscape="http://www.inkscape.org/namespaces/inkscape"
   xmlns:sodipodi="http://sodipodi.sourceforge.net/DTD/sodipodi-0.dtd"
   xmlns:xlink="http://www.w3.org/1999/xlink"
   xmlns="http://www.w3.org/2000/svg"
   xmlns:svg="http://www.w3.org/2000/svg">
  <sodipodi:namedview
     id="namedview7"
     pagecolor="#ffffff"
     bordercolor="#000000"
     borderopacity="0.25"
     inkscape:showpageshadow="2"
     inkscape:pageopacity="0.0"
     inkscape:pagecheckerboard="0"
     inkscape:deskcolor="#d1d1d1"
     inkscape:document-units="px"
     showgrid="false"
     inkscape:zoom="17.041667"
     inkscape:cx="24"
     inkscape:cy="24"
     inkscape:window-width="1920"
     inkscape:window-height="1004"
     inkscape:window-x="0"
     inkscape:window-y="0"
     inkscape:window-maximized="1"
     inkscape:current-layer="svg5"
     showguides="false" />
  <defs
     id="defs2">
    <linearGradient
       inkscape:collect="always"
       xlink:href="#linearGradient3147"
       id="linearGradient3500"
       x1="30"
       y1="30"
       x2="2"
       y2="2"
       gradientUnits="userSpaceOnUse"
       gradientTransform="scale(1.5)" />
    <linearGradient
       inkscape:collect="always"
       id="linearGradient3147">
      <stop
         style="stop-color:#41bbff;stop-opacity:1;"
         offset="0"
         id="stop3143" />
      <stop
         style="stop-color:#0091f9;stop-opacity:1;"
         offset="1"
         id="stop3145" />
    </linearGradient>
  </defs>
  <path
     d="M 19.5,4 C 5.8482145,4 3,6.9097255 3,20.5 v 9 C 3,43.090274 5.8482145,46 19.5,46 h 9 C 42.151785,46 45,43.090274 45,29.5 v -9 C 45,6.9097255 42.151785,4 28.5,4"
     style="opacity:0.2;fill:#000000;stroke-width:1.5;stroke-linecap:round;stroke-linejoin:round"
     id="path563" />
  <path
     id="path530"
     style="fill:url(#linearGradient3500);fill-opacity:1.0;stroke-width:1.5;stroke-linecap:round;stroke-linejoin:round"
     d="M 19.5,3 C 5.848228,3 3,5.909739 3,19.5 v 9 C 3,42.090261 5.848228,45 19.5,45 h 9 C 42.151773,45 45,42.090261 45,28.5 v -9 C 45,5.909739 42.151773,3 28.5,3 Z" />
  <path
     id="path3699"
     style="opacity:0.6;fill:#ffffff;stroke-width:1.5;stroke-linecap:round;stroke-linejoin:round"
     d="m 21.75,8 c -0.208052,0.985948 -0.960746,3.191651 -1.5,4.5 v 1.157226 C 21.205157,13.393576 22.710996,13.25 23.75,13.25 c 1.039006,0 2.544843,0.143576 3.5,0.407226 V 12.5 C 26.710746,11.191651 25.958051,8.985948 25.75,8 Z m -7.472656,3.095703 -2.828125,2.828125 c 0.550055,0.844285 1.577262,2.935735 2.121093,4.242187 l 0.81836,0.81836 c 0.488968,-0.861828 1.451835,-2.028008 2.186523,-2.762696 0.734687,-0.734686 1.900868,-1.697554 2.762695,-2.186523 l -0.818359,-0.818359 c -1.306452,-0.543831 -3.397902,-1.571038 -4.242187,-2.121094 z m 19.445312,0 c -0.844285,0.550056 -2.935734,1.577261 -4.242187,2.121094 l -0.81836,0.818359 c 0.861828,0.488969 2.028009,1.451837 2.762695,2.186523 0.734688,0.734688 1.697556,1.900868 2.186524,2.762696 l 0.818359,-0.81836 c 0.543833,-1.306452 1.571039,-3.397902 2.121094,-4.242187 z M 12.5,20.25 c -1.308348,0.539254 -3.514052,1.291948 -4.5,1.5 v 4 c 0.985948,0.208051 3.191652,0.960746 4.5,1.5 h 1.157226 C 13.393576,26.294843 13.25,24.789006 13.25,23.75 c 0,-1.039004 0.143576,-2.544843 0.407226,-3.5 z m 21.842773,0 c 0.263651,0.955157 0.407227,2.460996 0.407227,3.5 0,1.039006 -0.143576,2.544843 -0.407227,3.5 H 35.5 c 1.308348,-0.539254 3.514052,-1.291949 4.5,-1.5 v -4 c -0.985946,-0.208052 -3.191652,-0.960746 -4.5,-1.5 z m -20.307617,8.412109 -0.818359,0.81836 c -0.543831,1.306451 -1.571038,3.397902 -2.121094,4.242187 l 2.828125,2.828125 c 0.844285,-0.550055 2.935735,-1.577262 4.242187,-2.121094 l 0.81836,-0.818359 C 18.122548,33.12236 16.956367,32.159492 16.221679,31.424804 15.486993,30.690118 14.524125,29.523937 14.035156,28.662109 Z m 19.929688,0 c -0.48897,0.861828 -1.451837,2.028009 -2.186524,2.762695 -0.734688,0.734688 -1.900868,1.697556 -2.762695,2.186524 l 0.818359,0.818359 c 1.306452,0.543832 3.397903,1.571039 4.242188,2.121094 l 2.829101,-2.828125 C 36.355218,32.878372 35.327034,30.78692 34.783203,29.480469 Z M 20.25,34.342773 V 35.5 c 0.539254,1.308348 1.291948,3.514052 1.5,4.5 h 4 c 0.208051,-0.985948 0.960746,-3.191652 1.5,-4.5 V 34.342773 C 26.294843,34.606424 24.789006,34.75 23.75,34.75 c -1.039004,0 -2.544843,-0.143576 -3.5,-0.407227 z" />
  <path
     id="path285"
     style="fill:#ffffff;stroke-width:2.5;stroke-linecap:round;stroke-linejoin:round"
     d="M 24 11.5 C 17.096468 11.5 11.5 17.096468 11.5 24 C 11.5 30.903531 17.096468 36.5 24 36.5 C 30.903531 36.5 36.5 30.903531 36.5 24 C 36.5 17.096468 30.903531 11.5 24 11.5 z M 24 14 A 10 10 0 0 1 34 24 A 10 10 0 0 1 24 34 A 10 10 0 0 1 14 24 A 10 10 0 0 1 24 14 z " />
  <path
     d="m 23.996161,14 c -0.726153,0 -1.432305,0.08 -2.113072,0.225376 l -0.886922,1.774542 -1.339997,-1.004574 c -2.403071,1.155338 -4.264608,3.236024 -5.126914,5.792074 l 1.966922,-0.786892 1.499997,0.99996 0.499999,-1.499941 6.499985,-3.499857 -0.396153,-1.98069 c -0.2,-0.0116 -0.400767,-0.0192 -0.603845,-0.0192 m 7.405373,3.283713 -0.405385,1.216106 0.499999,0.499979 -1.999996,2.99988 0.999998,3.499855 3.316147,0.415367 c 0.11924,-0.619973 0.18384,-1.259177 0.18384,-1.915306 0,-1.712237 -0.428459,-3.319863 -1.180766,-4.726729 l -0.819224,-0.273065 0.297693,-0.596901 c -0.267693,-0.396895 -0.572306,-0.765344 -0.892306,-1.119176 m -17.206891,4.715963 c -0.11,0.547671 -0.17308,1.113802 -0.19078,1.690701 l 3.492301,1.309179 -0.499999,-1.499941 -0.999998,-1.499939 z m 3.301531,2.99988 2.499995,5.999756 v 2.169144 C 21.220783,33.701551 22.57155,34 23.996161,34 c 0.09924,0 0.19692,-0.0038 0.296153,-0.007 l 3.20384,-5.492779 -7.999982,-4.499819 z"
     style="fill:#97e286;fill-opacity:1;stroke-width:2"
     id="path677" />
</svg>
