<?xml version="1.0" encoding="UTF-8" standalone="no"?>
<!-- Created with Inkscape (http://www.inkscape.org/) -->

<svg
   width="48"
   height="48"
   viewBox="0 0 48 48"
   version="1.1"
   id="svg5"
   inkscape:version="1.2.2 (b0a8486541, 2022-12-01)"
   sodipodi:docname="lunarclient.svg"
   xmlns:inkscape="http://www.inkscape.org/namespaces/inkscape"
   xmlns:sodipodi="http://sodipodi.sourceforge.net/DTD/sodipodi-0.dtd"
   xmlns:xlink="http://www.w3.org/1999/xlink"
   xmlns="http://www.w3.org/2000/svg"
   xmlns:svg="http://www.w3.org/2000/svg">
  <sodipodi:namedview
     id="namedview7"
     pagecolor="#ffffff"
     bordercolor="#000000"
     borderopacity="0.25"
     inkscape:showpageshadow="2"
     inkscape:pageopacity="0.0"
     inkscape:pagecheckerboard="0"
     inkscape:deskcolor="#d1d1d1"
     inkscape:document-units="px"
     showgrid="false"
     inkscape:zoom="16.833333"
     inkscape:cx="24"
     inkscape:cy="24"
     inkscape:window-width="1920"
     inkscape:window-height="1002"
     inkscape:window-x="0"
     inkscape:window-y="0"
     inkscape:window-maximized="1"
     inkscape:current-layer="svg5"
     showguides="false" />
  <defs
     id="defs2">
    <linearGradient
       inkscape:collect="always"
       id="linearGradient1768">
      <stop
         style="stop-color:#333333;stop-opacity:1;"
         offset="0"
         id="stop1764" />
      <stop
         style="stop-color:#6a6a6a;stop-opacity:1;"
         offset="1"
         id="stop1766" />
    </linearGradient>
    <linearGradient
       inkscape:collect="always"
       xlink:href="#linearGradient1768"
       id="linearGradient3500"
       x1="2"
       y1="2"
       x2="30"
       y2="30"
       gradientUnits="userSpaceOnUse"
       gradientTransform="scale(1.5)" />
  </defs>
  <path
     d="M 19.5,4 C 5.8482145,4 3,6.9097255 3,20.5 v 9 C 3,43.090274 5.8482145,46 19.5,46 h 9 C 42.151785,46 45,43.090274 45,29.5 v -9 C 45,6.9097255 42.151785,4 28.5,4"
     style="opacity:0.2;fill:#000000;stroke-width:1.5;stroke-linecap:round;stroke-linejoin:round"
     id="path563" />
  <path
     id="path530"
     style="fill:url(#linearGradient3500);fill-opacity:1;stroke-width:1.5;stroke-linecap:round;stroke-linejoin:round"
     d="M 19.5,3 C 5.848228,3 3,5.909739 3,19.5 v 9 C 3,42.090261 5.848228,45 19.5,45 h 9 C 42.151773,45 45,42.090261 45,28.5 v -9 C 45,5.909739 42.151773,3 28.5,3 Z" />
  <path
     d="m 23.990234,9.000059 c -0.16232,0.0014 -0.32186,0.04229 -0.464843,0.119141 0,0 -3.258727,1.756011 -6.525391,3.640625 -1.633332,0.942306 -3.266808,1.913934 -4.515625,2.730468 -0.624409,0.408268 -1.150931,0.775452 -1.554687,1.101563 -0.201879,0.163055 -0.37111,0.312067 -0.527344,0.486328 C 10.24611,17.252445 10,17.395892 10,18.000059 v 12.060547 h 2 V 18.314512 c 0.0537,-0.05071 0.09044,-0.08958 0.1875,-0.167969 0.307181,-0.248107 0.796284,-0.591861 1.390625,-0.980468 1.188683,-0.777216 2.805207,-1.743088 4.421875,-2.675782 2.996515,-1.728758 5.576155,-3.116841 6,-3.345703 0.423845,0.228862 3.003485,1.616945 6,3.345703 1.616668,0.932694 3.233192,1.898566 4.421875,2.675782 0.594341,0.388607 1.083444,0.732361 1.390625,0.980468 0.09706,0.07839 0.133803,0.11726 0.1875,0.167969 v 11.685547 h 2 v -12 C 38,17.395892 37.75389,17.252445 37.597656,17.078184 37.441422,16.903923 37.272191,16.754911 37.070312,16.591856 36.666556,16.265745 36.140034,15.898561 35.515625,15.490293 34.266808,14.673759 32.633332,13.702131 31,12.759825 27.733336,10.875211 24.474609,9.1192 24.474609,9.1192 24.325805,9.039213 24.159164,8.9982243 23.990234,9.000059 Z m -0.476562,3.746094 -0.265625,0.486328 -0.484375,0.263672 0.484375,0.265625 0.265625,0.484375 0.263672,-0.484375 0.486328,-0.265625 -0.486328,-0.263672 z m -2.865234,1.902344 C 17.236666,16.017493 15.000451,19.323874 15,23.000059 c 0,3.487611 1.987963,6.505867 4.888672,8 H 9 v 0.5 h 3 v 0.5 H 9 v 0.5 h 5 v 0.5 h -4 v 0.5 h 6 v 0.5 h -3 v 0.5 h 7 v 0.5 h -1 v 0.5 h 10 v -0.5 h -1 v -0.5 h 7 v -0.5 h -3 v -0.5 h 6 v -0.5 h -3 v -0.5 h 4 v -0.5 h -3 v -0.5 h 3 v -0.5 H 28.089844 c 1.894432,-0.969453 3.435036,-2.588203 4.261718,-4.648438 -1.065589,0.427983 -2.203237,0.648087 -3.351562,0.648438 -4.970563,0 -9,-4.029437 -9,-9 3.51e-4,-1.148325 0.220455,-2.285974 0.648438,-3.351562 z m 9.861328,2.046874 -0.265625,0.486329 -0.484375,0.263671 0.484375,0.265626 0.265625,0.484374 0.265625,-0.484374 0.484375,-0.265626 -0.484375,-0.263671 z m -8.017578,0.847657 -0.353516,0.646484 -0.646484,0.353516 0.646484,0.353515 0.353516,0.646485 0.353515,-0.646485 0.646485,-0.353515 -0.646485,-0.353516 z m -8.091797,0.257812 -0.265625,0.484375 -0.484375,0.265625 0.484375,0.263672 0.265625,0.486328 0.265625,-0.486328 0.484375,-0.263672 -0.484375,-0.265625 z m 12.003906,1.953125 -0.265625,0.484375 -0.484375,0.265625 0.484375,0.265625 0.265625,0.484375 0.265625,-0.484375 0.484375,-0.265625 -0.484375,-0.265625 z M 32.5,21.000059 31.96875,21.968809 31,22.500059 31.96875,23.031309 32.5,24.000059 33.03125,23.031309 34,22.500059 33.03125,21.968809 Z m -5,1.5 -0.353516,0.646484 L 26.5,23.500059 27.146484,23.853575 27.5,24.500059 27.853516,23.853575 28.5,23.500059 27.853516,23.146543 Z M 14.53125,26.031309 14,27.000059 13.03125,27.531309 14,28.060606 l 0.53125,0.970703 0.529297,-0.970703 0.970703,-0.529297 -0.970703,-0.53125 z"
     style="opacity:1;fill:#ffffff"
     id="path2232" />
</svg>
