<?xml version="1.0" encoding="UTF-8" standalone="no"?>
<!-- Created with Inkscape (http://www.inkscape.org/) -->

<svg
   width="48"
   height="48"
   viewBox="0 0 48 48"
   version="1.1"
   id="svg5"
   inkscape:version="1.4.4 (dcaf3e7d9e, 2026-05-05)"
   sodipodi:docname="mpv.svg"
   xmlns:inkscape="http://www.inkscape.org/namespaces/inkscape"
   xmlns:sodipodi="http://sodipodi.sourceforge.net/DTD/sodipodi-0.dtd"
   xmlns:xlink="http://www.w3.org/1999/xlink"
   xmlns="http://www.w3.org/2000/svg"
   xmlns:svg="http://www.w3.org/2000/svg">
  <sodipodi:namedview
     id="namedview7"
     pagecolor="#ffffff"
     bordercolor="#000000"
     borderopacity="0.25"
     inkscape:showpageshadow="2"
     inkscape:pageopacity="0.0"
     inkscape:pagecheckerboard="0"
     inkscape:deskcolor="#d1d1d1"
     inkscape:document-units="px"
     showgrid="false"
     inkscape:zoom="16.75"
     inkscape:cx="24"
     inkscape:cy="24"
     inkscape:window-width="1920"
     inkscape:window-height="1012"
     inkscape:window-x="0"
     inkscape:window-y="0"
     inkscape:window-maximized="1"
     inkscape:current-layer="svg5"
     showguides="false" />
  <defs
     id="defs2">
    <linearGradient
       inkscape:collect="always"
       id="linearGradient6304">
      <stop
         style="stop-color:#8d348e;stop-opacity:1;"
         offset="0"
         id="stop6300" />
      <stop
         style="stop-color:#c275c3;stop-opacity:1;"
         offset="1"
         id="stop6302" />
    </linearGradient>
    <linearGradient
       inkscape:collect="always"
       xlink:href="#linearGradient6304"
       id="linearGradient2"
       x1="3"
       y1="3"
       x2="45"
       y2="45"
       gradientUnits="userSpaceOnUse" />
  </defs>
  <path
     id="path563"
     style="opacity:0.2;fill:#000000;stroke-width:1.5;stroke-linecap:round;stroke-linejoin:round"
     d="M 19.5,4 C 5.848228,4 3,6.909739 3,20.5 v 9 C 3,43.090259 5.848228,46 19.5,46 h 9 C 42.15177,46 45,43.090259 45,29.5 v -9 C 45,6.909739 42.15177,4 28.5,4 Z" />
  <path
     id="path530"
     style="fill:url(#linearGradient2);stroke-width:1.5;stroke-linecap:round;stroke-linejoin:round"
     d="M 19.5,3 C 5.848228,3 3,5.909739 3,19.5 v 9 C 3,42.090259 5.848228,45 19.5,45 h 9 C 42.15177,45 45,42.090259 45,28.5 v -9 C 45,5.909739 42.15177,3 28.5,3 Z" />
  <path
     id="path4648"
     style="fill:#ffffff;stroke-width:3;stroke-linejoin:round"
     d="M 24,9 C 15.715744,9 9,15.715746 9,24 9,32.284256 15.715744,39 24,39 32.284256,39 39,32.284256 39,24 39,15.715746 32.284256,9 24,9 Z m -4.654297,7.576172 c 0.236314,-0.0089 0.483044,0.04512 0.714844,0.179687 l 10.212891,5.94336 c 0.969297,0.562695 0.969296,2.04863 0,2.611328 L 20.060547,31.251953 C 19.133338,31.790169 18.001584,31.071279 18,29.945312 V 18.0625 c 0.0013,-0.84448 0.636758,-1.45958 1.345703,-1.486328 z" />
</svg>
