<?xml version="1.0" encoding="UTF-8" standalone="no"?>
<!-- Created with Inkscape (http://www.inkscape.org/) -->

<svg
   width="48"
   height="48"
   viewBox="0 0 48 48"
   version="1.1"
   id="svg5"
   inkscape:version="1.2.1 (9c6d41e410, 2022-07-14)"
   sodipodi:docname="org.gnome.TextEditor.svg"
   xmlns:inkscape="http://www.inkscape.org/namespaces/inkscape"
   xmlns:sodipodi="http://sodipodi.sourceforge.net/DTD/sodipodi-0.dtd"
   xmlns:xlink="http://www.w3.org/1999/xlink"
   xmlns="http://www.w3.org/2000/svg"
   xmlns:svg="http://www.w3.org/2000/svg">
  <sodipodi:namedview
     id="namedview7"
     pagecolor="#ffffff"
     bordercolor="#000000"
     borderopacity="0.25"
     inkscape:showpageshadow="2"
     inkscape:pageopacity="0.0"
     inkscape:pagecheckerboard="0"
     inkscape:deskcolor="#d1d1d1"
     inkscape:document-units="px"
     showgrid="false"
     inkscape:zoom="12.050278"
     inkscape:cx="16.099214"
     inkscape:cy="25.227634"
     inkscape:window-width="1920"
     inkscape:window-height="1004"
     inkscape:window-x="0"
     inkscape:window-y="0"
     inkscape:window-maximized="1"
     inkscape:current-layer="svg5" />
  <defs
     id="defs2">
    <linearGradient
       inkscape:collect="always"
       xlink:href="#linearGradient3147"
       id="linearGradient4780"
       x1="30"
       y1="30"
       x2="2"
       y2="2"
       gradientUnits="userSpaceOnUse"
       gradientTransform="scale(1.5)" />
    <linearGradient
       inkscape:collect="always"
       id="linearGradient3147">
      <stop
         style="stop-color:#41bbff;stop-opacity:1;"
         offset="0"
         id="stop3143" />
      <stop
         style="stop-color:#0091f9;stop-opacity:1;"
         offset="1"
         id="stop3145" />
    </linearGradient>
  </defs>
  <path
     d="M 19.5,4 C 5.8482142,4 3,6.9097255 3,20.5 v 9 C 3,43.090274 5.8482142,46 19.5,46 h 9 C 42.151785,46 45,43.090274 45,29.5 v -9 C 45,6.9097255 42.151785,4 28.5,4"
     style="opacity:0.2;fill:#000000;stroke-width:1.5;stroke-linecap:round;stroke-linejoin:round"
     id="path563" />
  <path
     id="path530"
     style="fill:url(#linearGradient4780);fill-opacity:1;stroke-width:1.5;stroke-linecap:round;stroke-linejoin:round"
     d="M 19.5,3 C 5.8482279,3 3,5.9097391 3,19.5 v 9 C 3,42.090261 5.8482279,45 19.5,45 h 9 C 42.151773,45 45,42.090261 45,28.5 v -9 C 45,5.9097391 42.151773,3 28.5,3 Z" />
  <path
     id="rect755"
     style="fill:#ffffff;stroke-width:3.99998;stroke-linecap:round;stroke-linejoin:round"
     d="M 15.999988,10 C 14.891999,10 14,10.891999 14,11.999988 v 23.999854 c 0,1.107987 0.891999,1.999987 1.999988,1.999987 h 0.785151 l 1.999988,-1.999987 H 15.999988 V 11.999988 H 31.99989 v 10.78509 L 33.999878,20.78509 V 11.999988 C 33.999878,10.891999 33.107878,10 31.99989,10 Z m 22.000178,10.444592 c -0.511841,2e-6 -1.023536,0.195419 -1.414054,0.585935 l -14.726472,14.726472 -1.414053,4.242162 4.24216,-1.414053 14.726472,-14.726472 c 0.781037,-0.781038 0.781045,-2.047064 0,-2.828109 -0.390522,-0.390522 -0.902212,-0.585935 -1.414053,-0.585935 z m -4.000288,11.656835 -1.999988,1.999988 v 1.898427 h -1.898426 l -1.999988,1.999987 h 3.898414 c 1.107988,0 1.999988,-0.892 1.999988,-1.999987 z"
     sodipodi:nodetypes="sssscccccccssssscccssscccccssc" />
</svg>
