<?xml version="1.0" encoding="UTF-8" standalone="no"?>
<!-- Created with Inkscape (http://www.inkscape.org/) -->

<svg
   width="48"
   height="48"
   viewBox="0 0 48 48"
   version="1.1"
   id="svg5"
   inkscape:version="1.2.1 (9c6d41e410, 2022-07-14)"
   sodipodi:docname="polari.svg"
   xmlns:inkscape="http://www.inkscape.org/namespaces/inkscape"
   xmlns:sodipodi="http://sodipodi.sourceforge.net/DTD/sodipodi-0.dtd"
   xmlns:xlink="http://www.w3.org/1999/xlink"
   xmlns="http://www.w3.org/2000/svg"
   xmlns:svg="http://www.w3.org/2000/svg">
  <sodipodi:namedview
     id="namedview7"
     pagecolor="#ffffff"
     bordercolor="#000000"
     borderopacity="0.25"
     inkscape:showpageshadow="2"
     inkscape:pageopacity="0.0"
     inkscape:pagecheckerboard="0"
     inkscape:deskcolor="#d1d1d1"
     inkscape:document-units="px"
     showgrid="false"
     inkscape:zoom="16.5"
     inkscape:cx="24"
     inkscape:cy="24"
     inkscape:window-width="1920"
     inkscape:window-height="1004"
     inkscape:window-x="0"
     inkscape:window-y="0"
     inkscape:window-maximized="1"
     inkscape:current-layer="svg5" />
  <defs
     id="defs2">
    <linearGradient
       inkscape:collect="always"
       xlink:href="#linearGradient2742"
       id="linearGradient4780"
       x1="30"
       y1="30"
       x2="2"
       y2="2"
       gradientUnits="userSpaceOnUse"
       gradientTransform="scale(1.5)" />
    <linearGradient
       inkscape:collect="always"
       id="linearGradient2742">
      <stop
         style="stop-color:#8be65c;stop-opacity:1;"
         offset="0"
         id="stop2738" />
      <stop
         style="stop-color:#1ccd6b;stop-opacity:1;"
         offset="1"
         id="stop2740" />
    </linearGradient>
  </defs>
  <path
     d="M 19.5,4 C 5.8482145,4 3,6.9097255 3,20.5 v 9 C 3,43.090274 5.8482145,46 19.5,46 h 9 C 42.151785,46 45,43.090274 45,29.5 v -9 C 45,6.9097255 42.151785,4 28.5,4"
     style="opacity:0.2;fill:#000000;stroke-width:1.5;stroke-linecap:round;stroke-linejoin:round"
     id="path563" />
  <path
     id="path530"
     style="fill:url(#linearGradient4780);fill-opacity:1;stroke-width:1.5;stroke-linecap:round;stroke-linejoin:round"
     d="M 19.5,3 C 5.848228,3 3,5.909739 3,19.5 v 9 C 3,42.090261 5.848228,45 19.5,45 h 9 C 42.151773,45 45,42.090261 45,28.5 v -9 C 45,5.909739 42.151773,3 28.5,3 Z" />
  <rect
     style="fill:#3bbd1e;fill-opacity:1;stroke-width:2.75206;stroke-linecap:round;stroke-linejoin:round"
     id="rect2744"
     width="20"
     height="16"
     x="14.999999"
     y="14" />
  <path
     id="rect1798"
     style="fill:#ffffff;stroke-width:6;stroke-linecap:round;stroke-linejoin:round"
     d="m 14,12 c -1.661995,0 -3,1.338005 -3,3 v 22 c 0.01095,1.058063 1.080834,1.712514 1.810547,0.8125 L 18.5,32 H 34 c 1.661992,0 3,-1.338008 3,-3 V 15 c 0,-1.661995 -1.338008,-3 -3,-3 z m 8,3 h 1 l -0.460938,3 h 3 L 26,15 h 1 l -0.460938,3 H 29 v 1 h -2.615234 l -0.769532,5 H 29 v 1 H 25.460938 L 25,28 h -1 l 0.460938,-3 h -3 L 21,28 h -1 l 0.460938,-3 H 18 v -1 h 2.615234 l 0.769532,-5 H 18 v -1 h 3.539062 z m 0.384766,4 -0.769532,5 h 3 l 0.769532,-5 z"
     sodipodi:nodetypes="sscccssssscccccccccccccccccccccccccccccccccc" />
</svg>
