<?xml version="1.0" encoding="UTF-8" standalone="no"?>
<!-- Created with Inkscape (http://www.inkscape.org/) -->

<svg
   width="48"
   height="48"
   viewBox="0 0 48 48"
   version="1.1"
   id="svg5"
   inkscape:version="1.2.1 (9c6d41e410, 2022-07-14)"
   sodipodi:docname="preferences-desktop-keyboard-shortcuts.svg"
   xmlns:inkscape="http://www.inkscape.org/namespaces/inkscape"
   xmlns:sodipodi="http://sodipodi.sourceforge.net/DTD/sodipodi-0.dtd"
   xmlns:xlink="http://www.w3.org/1999/xlink"
   xmlns="http://www.w3.org/2000/svg"
   xmlns:svg="http://www.w3.org/2000/svg">
  <sodipodi:namedview
     id="namedview7"
     pagecolor="#ffffff"
     bordercolor="#000000"
     borderopacity="0.25"
     inkscape:showpageshadow="2"
     inkscape:pageopacity="0.0"
     inkscape:pagecheckerboard="0"
     inkscape:deskcolor="#d1d1d1"
     inkscape:document-units="px"
     showgrid="false"
     inkscape:zoom="17.041667"
     inkscape:cx="25.90709"
     inkscape:cy="26.933985"
     inkscape:window-width="1920"
     inkscape:window-height="1004"
     inkscape:window-x="0"
     inkscape:window-y="0"
     inkscape:window-maximized="1"
     inkscape:current-layer="svg5"
     showguides="false" />
  <defs
     id="defs2">
    <linearGradient
       inkscape:collect="always"
       xlink:href="#linearGradient22024"
       id="linearGradient3500"
       x1="2"
       y1="2"
       x2="30"
       y2="30"
       gradientUnits="userSpaceOnUse"
       gradientTransform="scale(1.5)" />
    <linearGradient
       inkscape:collect="always"
       id="linearGradient22024">
      <stop
         style="stop-color:#cdcdcd;stop-opacity:1;"
         offset="0"
         id="stop22020" />
      <stop
         style="stop-color:#eff0f1;stop-opacity:1;"
         offset="1"
         id="stop22022" />
    </linearGradient>
  </defs>
  <path
     d="M 19.5,4 C 5.8482145,4 3,6.9097255 3,20.5 v 9 C 3,43.090274 5.8482145,46 19.5,46 h 9 C 42.151785,46 45,43.090274 45,29.5 v -9 C 45,6.9097255 42.151785,4 28.5,4"
     style="opacity:0.2;fill:#000000;stroke-width:1.5;stroke-linecap:round;stroke-linejoin:round"
     id="path563" />
  <path
     id="path530"
     style="fill:url(#linearGradient3500);fill-opacity:1.0;stroke-width:1.50001;stroke-linecap:round;stroke-linejoin:round"
     d="M 19.5,3 C 5.848228,3 3,5.909739 3,19.5 v 9 C 3,42.09026 5.848228,45 19.5,45 h 9 C 42.151773,45 45,42.09026 45,28.5 v -9 C 45,5.909739 42.151773,3 28.5,3 Z" />
  <path
     d="m 10,13 c -0.554,0 -1,0.446 -1,1 v 4 c 0,0.553999 0.446,1 1,1 h 4 c 0.553999,0 1,-0.446001 1,-1 v -4 c 0,-0.554 -0.446001,-1 -1,-1 z m 8,0 c -0.553999,0 -1,0.446 -1,1 v 4 c 0,0.553999 0.446001,1 1,1 h 4 c 0.554,0 1,-0.446001 1,-1 v -4 c 0,-0.554 -0.446,-1 -1,-1 z m 8,0 c -0.554,0 -1,0.446 -1,1 v 4 c 0,0.553999 0.446,1 1,1 h 4 c 0.553999,0 1,-0.446001 1,-1 v -4 c 0,-0.554 -0.446001,-1 -1,-1 z m -16,8 c -0.554,0 -1,0.446 -1,1 v 4 c 0,0.553999 0.446,1 1,1 h 4 c 0.553999,0 1,-0.446001 1,-1 v -4 c 0,-0.554 -0.446001,-1 -1,-1 z m 8,0 c -0.553999,0 -1,0.446 -1,1 v 4 c 0,0.553999 0.446001,1 1,1 h 4 c 0.554,0 1,-0.446001 1,-1 v -4 c 0,-0.554 -0.446,-1 -1,-1 z m 16,0 c -0.554,0 -1,0.446 -1,1 v 4 c 0,0.553999 0.446,1 1,1 h 4 c 0.553999,0 1,-0.446001 1,-1 v -4 c 0,-0.554 -0.446001,-1 -1,-1 z m -20,8 c -0.554,0 -1,0.446 -1,1 v 4 c 0,0.553999 0.446,1 1,1 h 20 c 0.553999,0 1,-0.446001 1,-1 v -4 c 0,-0.554 -0.446001,-1 -1,-1 z"
     style="fill:#a1a1a1;fill-opacity:1;stroke-width:1;stroke-linecap:round;stroke-linejoin:round"
     id="path1728"
     sodipodi:nodetypes="sssssssssssssssssssssssssssssssssssssssssssssssssssssssssssssss" />
  <path
     d="m 34,13 c -0.554,0 -1,0.446 -1,1 v 4 c 0,0.553999 0.446,1 1,1 h 4 c 0.553999,0 1,-0.446001 1,-1 v -4 c 0,-0.554 -0.446001,-1 -1,-1 z m -8,8 c -0.554,0 -1,0.446 -1,1 v 4 c 0,0.553999 0.446,1 1,1 h 4 c 0.553999,0 1,-0.446001 1,-1 v -4 c 0,-0.554 -0.446001,-1 -1,-1 z"
     style="fill:#d98d49;fill-opacity:1;stroke-width:1;stroke-linecap:round;stroke-linejoin:round"
     id="path29089" />
</svg>
