<?xml version="1.0" encoding="UTF-8" standalone="no"?>
<!-- Created with Inkscape (http://www.inkscape.org/) -->

<svg
   width="48"
   height="48"
   viewBox="0 0 48 48"
   version="1.1"
   id="svg5"
   inkscape:version="1.2.1 (9c6d41e410, 2022-07-14)"
   sodipodi:docname="preferences-desktop-notification-bell.svg"
   xmlns:inkscape="http://www.inkscape.org/namespaces/inkscape"
   xmlns:sodipodi="http://sodipodi.sourceforge.net/DTD/sodipodi-0.dtd"
   xmlns:xlink="http://www.w3.org/1999/xlink"
   xmlns="http://www.w3.org/2000/svg"
   xmlns:svg="http://www.w3.org/2000/svg">
  <sodipodi:namedview
     id="namedview7"
     pagecolor="#ffffff"
     bordercolor="#000000"
     borderopacity="0.25"
     inkscape:showpageshadow="2"
     inkscape:pageopacity="0.0"
     inkscape:pagecheckerboard="0"
     inkscape:deskcolor="#d1d1d1"
     inkscape:document-units="px"
     showgrid="false"
     inkscape:zoom="16.5"
     inkscape:cx="16.484848"
     inkscape:cy="24"
     inkscape:window-width="1920"
     inkscape:window-height="1004"
     inkscape:window-x="0"
     inkscape:window-y="0"
     inkscape:window-maximized="1"
     inkscape:current-layer="svg5" />
  <defs
     id="defs2">
    <linearGradient
       inkscape:collect="always"
       id="linearGradient868">
      <stop
         style="stop-color:#ffe32b;stop-opacity:1;"
         offset="0"
         id="stop864" />
      <stop
         style="stop-color:#ff9e1d;stop-opacity:1;"
         offset="1"
         id="stop866" />
    </linearGradient>
    <linearGradient
       inkscape:collect="always"
       xlink:href="#linearGradient868"
       id="linearGradient4780"
       x1="30"
       y1="30"
       x2="2"
       y2="2"
       gradientUnits="userSpaceOnUse"
       gradientTransform="scale(1.5)" />
  </defs>
  <path
     d="M 19.5,4 C 5.8482145,4 3,6.9097255 3,20.5 v 9 C 3,43.090274 5.8482145,46 19.5,46 h 9 C 42.151785,46 45,43.090274 45,29.5 v -9 C 45,6.9097255 42.151785,4 28.5,4"
     style="opacity:0.2;fill:#000000;stroke-width:1.5;stroke-linecap:round;stroke-linejoin:round"
     id="path563" />
  <path
     id="path530"
     style="fill:url(#linearGradient4780);fill-opacity:1;stroke-width:1.5;stroke-linecap:round;stroke-linejoin:round"
     d="M 19.5,3 C 5.848228,3 3,5.909739 3,19.5 v 9 C 3,42.090261 5.848228,45 19.5,45 h 9 C 42.151773,45 45,42.090261 45,28.5 v -9 C 45,5.909739 42.151773,3 28.5,3 Z" />
  <path
     d="m 24.00007,10 c -1.107999,0 -1.999998,0.892039 -1.999998,1.999998 -4.6e-4,0.0222 -2e-5,0.0408 -6e-5,0.0624 -3.455977,0.89628 -5.999995,3.937637 -5.999995,7.937614 0,4.010476 0.0014,12.00001 -3.562497,12.00001 -0.23742,0 -0.43746,0.223079 -0.4375,0.499979 L 12,34.00002 l 24,-4e-5 v -1.499999 c 6e-5,-0.277 -0.20102,-0.499639 -0.4375,-0.499999 -3.577817,2e-5 -3.562497,-7.990214 -3.562497,-11.99997 0,-3.999997 -2.543718,-7.041454 -5.999995,-7.937514 6.8e-4,-0.0216 -4e-5,-0.041 8e-5,-0.0624 0,-1.108019 -0.892039,-1.999978 -2.000018,-1.999978 z m -3.437497,25.999998 c 0.692079,1.193779 1.958298,1.999999 3.437497,1.999999 1.479199,0 2.745398,-0.80622 3.437497,-2.000019 z"
     style="color:#000000;display:inline;overflow:visible;visibility:visible;fill:#ffffff;fill-opacity:1;fill-rule:nonzero;stroke:none;stroke-width:7.99999;marker:none;enable-background:accumulate"
     id="path478"
     sodipodi:nodetypes="cccsscccccscccccscc" />
</svg>
