<?xml version="1.0" encoding="UTF-8" standalone="no"?>
<!-- Created with Inkscape (http://www.inkscape.org/) -->

<svg
   width="48"
   height="48"
   viewBox="0 0 48 48"
   version="1.1"
   id="svg5"
   inkscape:version="1.2.1 (9c6d41e410, 2022-07-14)"
   sodipodi:docname="sound-recorder.svg"
   xmlns:inkscape="http://www.inkscape.org/namespaces/inkscape"
   xmlns:sodipodi="http://sodipodi.sourceforge.net/DTD/sodipodi-0.dtd"
   xmlns:xlink="http://www.w3.org/1999/xlink"
   xmlns="http://www.w3.org/2000/svg"
   xmlns:svg="http://www.w3.org/2000/svg">
  <sodipodi:namedview
     id="namedview7"
     pagecolor="#ffffff"
     bordercolor="#000000"
     borderopacity="0.25"
     inkscape:showpageshadow="2"
     inkscape:pageopacity="0.0"
     inkscape:pagecheckerboard="0"
     inkscape:deskcolor="#d1d1d1"
     inkscape:document-units="px"
     showgrid="false"
     inkscape:zoom="16.208333"
     inkscape:cx="24"
     inkscape:cy="24"
     inkscape:window-width="1920"
     inkscape:window-height="999"
     inkscape:window-x="0"
     inkscape:window-y="0"
     inkscape:window-maximized="1"
     inkscape:current-layer="svg5" />
  <defs
     id="defs2">
    <linearGradient
       inkscape:collect="always"
       xlink:href="#linearGradient1344"
       id="linearGradient4780"
       x1="2"
       y1="2"
       x2="30"
       y2="30"
       gradientUnits="userSpaceOnUse"
       gradientTransform="scale(1.5)" />
    <linearGradient
       inkscape:collect="always"
       id="linearGradient1344">
      <stop
         style="stop-color:#da2d2d;stop-opacity:1;"
         offset="0"
         id="stop1340" />
      <stop
         style="stop-color:#ff7676;stop-opacity:1;"
         offset="1"
         id="stop1342" />
    </linearGradient>
  </defs>
  <path
     d="M 19.5,4 C 5.8482145,4 3,6.9097255 3,20.5 v 9 C 3,43.090274 5.8482145,46 19.5,46 h 9 C 42.151785,46 45,43.090274 45,29.5 v -9 C 45,6.9097255 42.151785,4 28.5,4"
     style="opacity:0.2;fill:#000000;stroke-width:1.5;stroke-linecap:round;stroke-linejoin:round"
     id="path563" />
  <path
     id="path530"
     style="fill:url(#linearGradient4780);fill-opacity:1.0;stroke-width:1.5;stroke-linecap:round;stroke-linejoin:round"
     d="M 19.5,3 C 5.848228,3 3,5.909739 3,19.5 v 9 C 3,42.090261 5.848228,45 19.5,45 h 9 C 42.151773,45 45,42.090261 45,28.5 v -9 C 45,5.909739 42.151773,3 28.5,3 Z" />
  <rect
     style="fill:#ffffff;stroke-width:8;stroke-linecap:round;stroke-linejoin:round"
     id="rect286"
     width="2"
     height="6"
     x="7.9999995"
     y="21"
     ry="1" />
  <rect
     style="opacity:0.5;fill:#ffffff;stroke-width:8;stroke-linecap:round;stroke-linejoin:round"
     id="rect288"
     width="2"
     height="6"
     x="38"
     y="21"
     ry="1" />
  <rect
     style="opacity:0.5;fill:#ffffff;stroke-width:8;stroke-linecap:round;stroke-linejoin:round"
     id="rect290"
     width="2"
     height="14"
     x="13.999999"
     y="17"
     ry="1" />
  <rect
     style="fill:#ffffff;stroke-width:8.43276;stroke-linecap:round;stroke-linejoin:round"
     id="rect400"
     width="2"
     height="28"
     x="19.999998"
     y="10"
     ry="1" />
  <rect
     style="fill:#ffffff;stroke-width:8;stroke-linecap:round;stroke-linejoin:round"
     id="rect402"
     width="2"
     height="18"
     x="31.999998"
     y="15"
     ry="1" />
  <rect
     style="opacity:0.5;fill:#ffffff;stroke-width:8;stroke-linecap:round;stroke-linejoin:round"
     id="rect404"
     width="2"
     height="10"
     x="25.999998"
     y="19"
     ry="1" />
</svg>
