<?xml version="1.0" encoding="UTF-8" standalone="no"?>
<!-- Created with Inkscape (http://www.inkscape.org/) -->

<svg
   width="48"
   height="48"
   viewBox="0 0 48 48"
   version="1.1"
   id="svg5"
   inkscape:version="1.2.1 (9c6d41e410, 2022-07-14)"
   sodipodi:docname="system-users.svg"
   xmlns:inkscape="http://www.inkscape.org/namespaces/inkscape"
   xmlns:sodipodi="http://sodipodi.sourceforge.net/DTD/sodipodi-0.dtd"
   xmlns:xlink="http://www.w3.org/1999/xlink"
   xmlns="http://www.w3.org/2000/svg"
   xmlns:svg="http://www.w3.org/2000/svg">
  <sodipodi:namedview
     id="namedview7"
     pagecolor="#ffffff"
     bordercolor="#000000"
     borderopacity="0.25"
     inkscape:showpageshadow="2"
     inkscape:pageopacity="0.0"
     inkscape:pagecheckerboard="0"
     inkscape:deskcolor="#d1d1d1"
     inkscape:document-units="px"
     showgrid="false"
     inkscape:zoom="16.5625"
     inkscape:cx="24"
     inkscape:cy="24"
     inkscape:window-width="1920"
     inkscape:window-height="1007"
     inkscape:window-x="0"
     inkscape:window-y="0"
     inkscape:window-maximized="1"
     inkscape:current-layer="svg5" />
  <defs
     id="defs2">
    <linearGradient
       inkscape:collect="always"
       xlink:href="#linearGradient3147"
       id="linearGradient4780"
       x1="30"
       y1="30"
       x2="2"
       y2="2"
       gradientUnits="userSpaceOnUse"
       gradientTransform="scale(1.5)" />
    <linearGradient
       inkscape:collect="always"
       id="linearGradient3147">
      <stop
         style="stop-color:#41bbff;stop-opacity:1;"
         offset="0"
         id="stop3143" />
      <stop
         style="stop-color:#0091f9;stop-opacity:1;"
         offset="1"
         id="stop3145" />
    </linearGradient>
  </defs>
  <path
     d="M 19.5,4 C 5.8482142,4 3,6.9097255 3,20.5 v 9 C 3,43.090274 5.8482142,46 19.5,46 h 9 C 42.151785,46 45,43.090274 45,29.5 v -9 C 45,6.9097255 42.151785,4 28.5,4"
     style="opacity:0.2;fill:#000000;stroke-width:1.5;stroke-linecap:round;stroke-linejoin:round"
     id="path563" />
  <path
     id="path530"
     style="fill:url(#linearGradient4780);fill-opacity:1;stroke-width:1.5;stroke-linecap:round;stroke-linejoin:round"
     d="M 19.5,3 C 5.8482279,3 3,5.9097391 3,19.5 v 9 C 3,42.090261 5.8482279,45 19.5,45 h 9 C 42.151773,45 45,42.090261 45,28.5 v -9 C 45,5.9097391 42.151773,3 28.5,3 Z" />
  <path
     id="rect396"
     style="opacity:0.6;fill:#ffffff;stroke-width:2.73861"
     d="m 24,23 c -9.34311,5.820357 -14,8.734239 -14,12 v 1 c 0,1.661988 1.338012,3 3,3 h 22 c 1.661988,0 3,-1.338012 3,-3 V 35 C 38,31.734239 33.34311,28.820357 24,23 Z"
     sodipodi:nodetypes="cssccssc" />
  <path
     id="path234"
     style="fill:#ffffff;stroke-width:2.17946"
     d="m 32,17 c 0,5.246705 -3.581724,11 -8,11 -4.418277,0 -8,-5.753295 -8,-11 0,-5.246706 3.581723,-8 8,-8 4.418276,0 8,2.753293 8,8 z"
     sodipodi:nodetypes="sssss" />
</svg>
