<?xml version="1.0" encoding="UTF-8" standalone="no"?>
<!-- Created with Inkscape (http://www.inkscape.org/) -->

<svg
   width="48"
   height="48"
   viewBox="0 0 48 48"
   version="1.1"
   id="svg5"
   inkscape:version="1.2.1 (9c6d41e410, 2022-07-14)"
   sodipodi:docname="vim.svg"
   xmlns:inkscape="http://www.inkscape.org/namespaces/inkscape"
   xmlns:sodipodi="http://sodipodi.sourceforge.net/DTD/sodipodi-0.dtd"
   xmlns:xlink="http://www.w3.org/1999/xlink"
   xmlns="http://www.w3.org/2000/svg"
   xmlns:svg="http://www.w3.org/2000/svg">
  <sodipodi:namedview
     id="namedview7"
     pagecolor="#ffffff"
     bordercolor="#000000"
     borderopacity="0.25"
     inkscape:showpageshadow="2"
     inkscape:pageopacity="0.0"
     inkscape:pagecheckerboard="0"
     inkscape:deskcolor="#d1d1d1"
     inkscape:document-units="px"
     showgrid="false"
     inkscape:zoom="16.708333"
     inkscape:cx="24"
     inkscape:cy="24"
     inkscape:window-width="1920"
     inkscape:window-height="1008"
     inkscape:window-x="0"
     inkscape:window-y="0"
     inkscape:window-maximized="1"
     inkscape:current-layer="svg5" />
  <defs
     id="defs2">
    <linearGradient
       inkscape:collect="always"
       xlink:href="#linearGradient4207"
       id="linearGradient4780"
       x1="2"
       y1="2"
       x2="30"
       y2="30"
       gradientUnits="userSpaceOnUse"
       gradientTransform="scale(1.5)" />
    <linearGradient
       inkscape:collect="always"
       id="linearGradient4207">
      <stop
         style="stop-color:#418d29;stop-opacity:1;"
         offset="0"
         id="stop4203" />
      <stop
         style="stop-color:#8fd989;stop-opacity:1;"
         offset="1"
         id="stop4205" />
    </linearGradient>
  </defs>
  <path
     d="M 19.5,4 C 5.8482142,4 3,6.9097255 3,20.5 v 9 C 3,43.090274 5.8482142,46 19.5,46 h 9 C 42.151785,46 45,43.090274 45,29.5 v -9 C 45,6.9097255 42.151785,4 28.5,4"
     style="opacity:0.2;fill:#000000;stroke-width:1.5;stroke-linecap:round;stroke-linejoin:round"
     id="path563" />
  <path
     id="path530"
     style="fill:url(#linearGradient4780);fill-opacity:1;stroke-width:1.5;stroke-linecap:round;stroke-linejoin:round"
     d="M 19.5,3 C 5.8482279,3 3,5.9097391 3,19.5 v 9 C 3,42.090261 5.8482279,45 19.5,45 h 9 C 42.151773,45 45,42.090261 45,28.5 v -9 C 45,5.9097391 42.151773,3 28.5,3 Z" />
  <rect
     style="opacity:0.5;fill:#ffffff;stroke:none;stroke-width:6;stroke-linecap:square;stroke-linejoin:miter;stroke-dasharray:none;stroke-opacity:1;paint-order:stroke fill markers"
     id="rect4147"
     width="24"
     height="24"
     x="21.941122"
     y="-11.999999"
     ry="3"
     transform="rotate(45)" />
  <path
     id="rect898"
     style="fill:#ffffff;stroke:none;stroke-width:2.25;stroke-linecap:round;stroke-linejoin:round;paint-order:stroke fill markers"
     d="m 12.5,14 c -0.830998,0 -1.5,0.669002 -1.5,1.5 0,0.830998 0.669002,1.5 1.5,1.5 h 1.75 v 0.375 16.874847 c 0.0023,2.049383 2.521153,3.029175 3.908203,1.520508 L 35.396484,16.704101 C 35.763402,16.431161 36,15.994467 36,15.5 36,14.669002 35.330998,14 34.5,14 h -6 c -0.830999,0 -1.5,0.669002 -1.5,1.5 0,0.830998 0.669001,1.5 1.5,1.5 h 0.457032 L 18.75,28.466643 V 17.375 17 H 19.5 C 20.330998,17 21,16.330998 21,15.5 21,14.669002 20.330998,14 19.5,14 Z"
     sodipodi:nodetypes="ssscccccsssssccccssss" />
</svg>
