<?xml version="1.0" encoding="UTF-8" standalone="no"?>
<!-- Created with Inkscape (http://www.inkscape.org/) -->

<svg
   width="48"
   height="48"
   viewBox="0 0 48 48"
   version="1.1"
   id="svg5"
   inkscape:version="1.2.2 (1:1.2.2+202305151914+b0a8486541)"
   sodipodi:docname="waydroid.svg"
   xmlns:inkscape="http://www.inkscape.org/namespaces/inkscape"
   xmlns:sodipodi="http://sodipodi.sourceforge.net/DTD/sodipodi-0.dtd"
   xmlns:xlink="http://www.w3.org/1999/xlink"
   xmlns="http://www.w3.org/2000/svg"
   xmlns:svg="http://www.w3.org/2000/svg">
  <sodipodi:namedview
     id="namedview7"
     pagecolor="#ffffff"
     bordercolor="#000000"
     borderopacity="0.25"
     inkscape:showpageshadow="2"
     inkscape:pageopacity="0.0"
     inkscape:pagecheckerboard="0"
     inkscape:deskcolor="#d1d1d1"
     inkscape:document-units="px"
     showgrid="false"
     inkscape:zoom="17.291667"
     inkscape:cx="24"
     inkscape:cy="24"
     inkscape:window-width="1920"
     inkscape:window-height="1008"
     inkscape:window-x="0"
     inkscape:window-y="0"
     inkscape:window-maximized="1"
     inkscape:current-layer="svg5" />
  <defs
     id="defs2">
    <linearGradient
       inkscape:collect="always"
       id="linearGradient1624">
      <stop
         style="stop-color:#21b963;stop-opacity:1;"
         offset="0"
         id="stop1620" />
      <stop
         style="stop-color:#7ad4b3;stop-opacity:1;"
         offset="1"
         id="stop1622" />
    </linearGradient>
    <linearGradient
       inkscape:collect="always"
       xlink:href="#linearGradient1624"
       id="linearGradient4780"
       x1="2"
       y1="2"
       x2="30"
       y2="30"
       gradientUnits="userSpaceOnUse"
       gradientTransform="scale(1.5)" />
  </defs>
  <path
     d="M 19.5,4 C 5.8482142,4 3,6.9097255 3,20.5 v 9 C 3,43.090274 5.8482142,46 19.5,46 h 9 C 42.151785,46 45,43.090274 45,29.5 v -9 C 45,6.9097255 42.151785,4 28.5,4"
     style="opacity:0.2;fill:#000000;stroke-width:1.5;stroke-linecap:round;stroke-linejoin:round"
     id="path563" />
  <path
     id="path530"
     style="fill:url(#linearGradient4780);fill-opacity:1.0;stroke-width:1.5;stroke-linecap:round;stroke-linejoin:round"
     d="M 19.5,3 C 5.8482279,3 3,5.9097391 3,19.5 v 9 C 3,42.090261 5.8482279,45 19.5,45 h 9 C 42.151773,45 45,42.090261 45,28.5 v -9 C 45,5.9097391 42.151773,3 28.5,3 Z" />
  <path
     id="path437"
     style="fill:#ffffff;stroke-width:0.538467;opacity:0.5"
     d="M 13.460938 9 C 13.219247 9.0065283 12.976849 9.0732815 12.751953 9.203125 C 12.032288 9.6186242 11.787625 10.532288 12.203125 11.251953 L 14.310547 14.900391 C 12.164113 16.960181 10.670334 19.694685 10.177734 22.765625 C 10.061014 23.493269 10.636719 24.342968 10.636719 25.103516 C 10.636719 32.835487 16.566855 37.496094 24.298828 37.496094 C 32.030797 37.496094 36.919922 32.776893 36.919922 25.044922 C 36.919922 24.318505 37.94456 23.559873 37.837891 22.863281 C 37.361598 19.752827 35.860357 16.980067 33.691406 14.898438 L 35.796875 11.251953 C 36.212375 10.532288 35.967712 9.6186242 35.248047 9.203125 C 34.528381 8.7876258 33.614717 9.0322874 33.199219 9.7519531 L 31.294922 13.050781 C 29.170215 11.750833 26.673237 11 24 11 C 21.327424 11 18.831398 11.751426 16.707031 13.050781 L 14.800781 9.7519531 C 14.515126 9.257183 13.992656 8.9856377 13.460938 9 z M 35.869141 22.560547 L 32.248047 33.808594 C 31.747091 35.557954 30.74782 35.483774 30.029297 34.509766 L 24.060547 28.226562 L 17.888672 34.697266 C 17.131935 35.322139 16.425091 35.52788 15.876953 34.412109 L 12.009766 22.634766 C 13.624392 22.93914 15.261944 23.187079 16.833984 23.386719 L 18.144531 28.789062 L 22.060547 23.875 C 22.775874 23.9133 23.445045 23.939453 24 23.939453 C 24.549526 23.939453 25.222608 23.910254 25.949219 23.865234 L 29.857422 28.876953 L 31.220703 23.316406 C 32.723725 23.109803 34.296434 22.860792 35.869141 22.560547 z " />
  <path
     id="path439"
     style="fill:#ffffff;stroke-width:0.538467"
     d="M 37.730469 22.173828 C 35.852937 22.580196 33.918117 22.92229 32.072266 23.195312 C 33.313582 23.014221 34.589973 22.804752 35.869141 22.560547 L 32.248047 33.808594 C 31.747091 35.557954 30.74782 35.483774 30.029297 34.509766 L 24.060547 28.226562 L 17.888672 34.697266 C 17.131935 35.322139 16.425091 35.52788 15.876953 34.412109 L 12.009766 22.634766 C 13.284283 22.875026 14.570921 23.079784 15.830078 23.253906 C 13.992231 22.997031 12.086684 22.671825 10.269531 22.277344 C 10.123394 23.069353 10.008044 24.194663 10 25 C 10 32.73198 16.268021 39 24 39 C 31.731979 39 38 32.73198 38 25 C 37.9989 24.160604 37.881614 22.999504 37.730469 22.173828 z M 31.457031 23.283203 C 29.4051 23.57246 27.508751 23.768212 25.949219 23.865234 L 29.857422 28.876953 L 31.220703 23.316406 C 31.298539 23.305707 31.378839 23.294129 31.457031 23.283203 z M 16.480469 23.339844 C 16.597748 23.355195 16.717373 23.37191 16.833984 23.386719 L 18.144531 28.789062 L 22.058594 23.876953 C 20.461201 23.791006 18.53611 23.611106 16.480469 23.339844 z M 24.994141 23.916016 C 24.642004 23.929393 24.297874 23.939453 24 23.939453 C 24.297437 23.939453 24.635193 23.93117 24.994141 23.916016 z " />
</svg>
