<?xml version="1.0" encoding="UTF-8" standalone="no"?>
<!-- Created with Inkscape (http://www.inkscape.org/) -->

<svg
   width="48"
   height="48"
   viewBox="0 0 48 48"
   version="1.1"
   id="svg5"
   inkscape:version="1.2.1 (9c6d41e410, 2022-07-14)"
   sodipodi:docname="web-microsoft.svg"
   xmlns:inkscape="http://www.inkscape.org/namespaces/inkscape"
   xmlns:sodipodi="http://sodipodi.sourceforge.net/DTD/sodipodi-0.dtd"
   xmlns="http://www.w3.org/2000/svg"
   xmlns:svg="http://www.w3.org/2000/svg">
  <sodipodi:namedview
     id="namedview7"
     pagecolor="#ffffff"
     bordercolor="#000000"
     borderopacity="0.25"
     inkscape:showpageshadow="2"
     inkscape:pageopacity="0.0"
     inkscape:pagecheckerboard="0"
     inkscape:deskcolor="#d1d1d1"
     inkscape:document-units="px"
     showgrid="false"
     inkscape:zoom="16.5"
     inkscape:cx="22.848485"
     inkscape:cy="24"
     inkscape:window-width="1920"
     inkscape:window-height="1004"
     inkscape:window-x="0"
     inkscape:window-y="0"
     inkscape:window-maximized="1"
     inkscape:current-layer="svg5" />
  <defs
     id="defs2" />
  <path
     d="M 19.5,4 C 5.8482145,4 3,6.9097255 3,20.5 v 9 C 3,43.090274 5.8482145,46 19.5,46 h 9 C 42.151785,46 45,43.090274 45,29.5 v -9 C 45,6.9097255 42.151785,4 28.5,4"
     style="opacity:0.2;fill:#000000;stroke-width:1.5;stroke-linecap:round;stroke-linejoin:round"
     id="path563" />
  <path
     id="path530"
     style="fill:#fafafa;fill-opacity:1;stroke-width:1.5;stroke-linecap:round;stroke-linejoin:round"
     d="M 19.5,3 C 5.8482279,3 3,5.9097389 3,19.5 v 8.999999 c 0,13.590261 2.8482279,16.5 16.5,16.5 h 8.999999 C 42.151772,44.999999 45,42.09026 45,28.499999 V 19.5 C 45,5.9097389 42.151772,3 28.499999,3 Z" />
  <rect
     style="fill:#f25022;fill-opacity:1;stroke-width:3.97417;stroke-linejoin:round"
     id="rect942"
     width="13"
     height="13"
     x="10"
     y="9.9999981" />
  <rect
     style="fill:#00a4ef;fill-opacity:1;stroke-width:4.58823;stroke-linejoin:round"
     id="rect1090"
     width="13"
     height="13"
     x="10"
     y="25" />
  <rect
     style="fill:#7fba00;fill-opacity:1;stroke-width:4.58823;stroke-linejoin:round"
     id="rect1274"
     width="13"
     height="13"
     x="25"
     y="9.9999981" />
  <rect
     style="fill:#ffb900;fill-opacity:1;stroke-width:4.58823;stroke-linejoin:round"
     id="rect1408"
     width="13"
     height="13"
     x="25"
     y="25" />
  <g
     id="g7872"
     transform="matrix(1.5,0,0,1.5,2.1240237,2.1407895)" />
</svg>
