<?xml version="1.0" encoding="UTF-8" standalone="no"?>
<!-- Created with Inkscape (http://www.inkscape.org/) -->

<svg
   width="256"
   height="256"
   viewBox="0 0 256 256"
   version="1.1"
   id="svg5"
   inkscape:version="1.4 (e7c3feb100, 2024-10-09)"
   sodipodi:docname="accessories-camera.svg"
   xmlns:inkscape="http://www.inkscape.org/namespaces/inkscape"
   xmlns:sodipodi="http://sodipodi.sourceforge.net/DTD/sodipodi-0.dtd"
   xmlns:xlink="http://www.w3.org/1999/xlink"
   xmlns="http://www.w3.org/2000/svg"
   xmlns:svg="http://www.w3.org/2000/svg">
  <sodipodi:namedview
     id="namedview7"
     pagecolor="#ffffff"
     bordercolor="#000000"
     borderopacity="0.25"
     inkscape:showpageshadow="2"
     inkscape:pageopacity="0.0"
     inkscape:pagecheckerboard="0"
     inkscape:deskcolor="#d1d1d1"
     inkscape:document-units="px"
     showgrid="false"
     inkscape:zoom="3.0703125"
     inkscape:cx="128"
     inkscape:cy="128"
     inkscape:window-width="1920"
     inkscape:window-height="1011"
     inkscape:window-x="0"
     inkscape:window-y="0"
     inkscape:window-maximized="1"
     inkscape:current-layer="svg5"
     showguides="false" />
  <defs
     id="defs2">
    <linearGradient
       inkscape:collect="always"
       id="linearGradient2596">
      <stop
         style="stop-color:#644fce;stop-opacity:1;"
         offset="0"
         id="stop2592" />
      <stop
         style="stop-color:#526ad8;stop-opacity:1;"
         offset="1"
         id="stop2594" />
    </linearGradient>
    <linearGradient
       inkscape:collect="always"
       xlink:href="#linearGradient2596"
       id="linearGradient2"
       x1="4"
       y1="4"
       x2="60"
       y2="60"
       gradientUnits="userSpaceOnUse"
       gradientTransform="scale(4)" />
    <linearGradient
       inkscape:collect="always"
       xlink:href="#4852"
       id="linearGradient3500"
       x1="2"
       y1="2"
       x2="30"
       y2="30"
       gradientUnits="userSpaceOnUse"
       gradientTransform="scale(8)" />
    <linearGradient
       inkscape:collect="always"
       id="4852">
      <stop
         style="stop-color:#272727;stop-opacity:1;"
         offset="0"
         id="stop14555" />
      <stop
         style="stop-color:#5d5d5d;stop-opacity:1;"
         offset="1"
         id="stop14557" />
    </linearGradient>
  </defs>
  <path
     d="M 104,17 C 31.190476,17 16,32.518536 16,105 v 48 c 0,72.48146 15.190476,88 88,88 h 48 c 72.80952,0 88,-15.51854 88,-88 V 105 C 240,32.518536 224.80952,17 152,17"
     style="opacity:0.2;fill:#000000;stroke-width:8;stroke-linecap:round;stroke-linejoin:round"
     id="path563" />
  <path
     id="path530"
     style="fill:url(#linearGradient3500);fill-opacity:1;stroke-width:8;stroke-linecap:round;stroke-linejoin:round"
     d="M 104,16 C 31.190548,16 16,31.518608 16,104 v 48 c 0,72.4814 15.190548,88 88,88 h 48 c 72.80946,0 88,-15.5186 88,-88 V 104 C 240,31.518608 224.80946,16 152,16 Z" />
  <rect
     style="fill:#ffffff;stroke-width:4"
     id="rect1"
     width="24"
     height="24"
     x="176"
     y="88" />
  <path
     id="rect446"
     style="fill:url(#linearGradient2);stroke-width:8;stroke-linecap:round;stroke-linejoin:round"
     d="m 112,56 c -8.86396,0 -11.08316,4.624748 -16,12 L 88,80 H 68 c -11.079964,0 -20,8.920036 -20,20 v 72 c 0,11.07996 8.920036,20 20,20 h 120 c 11.07996,0 20,-8.92004 20,-20 v -72 c 0,-11.079964 -8.92004,-20 -20,-20 h -20 l -8,-12 c -4.91684,-7.375252 -7.13604,-12 -16,-12 z m 76,36 c 4.41826,0 8,3.58174 8,8 0,4.41826 -3.58174,8 -8,8 -4.41826,0 -8,-3.58174 -8,-8 0,-4.41826 3.58174,-8 8,-8 z m -60,20 c 13.25483,0 24,10.74517 24,24 0,13.25483 -10.74517,24 -24,24 -13.25483,0 -24,-10.74517 -24,-24 0,-13.25483 10.74517,-24 24,-24 z"
     sodipodi:nodetypes="sscsssssssscsssssssssssss" />
  <path
     id="path669"
     style="opacity:0.6;fill:#ffffff;stroke-width:28.5714;stroke-linecap:round;stroke-linejoin:round"
     d="m 128,96 a 40,40 0 0 0 -40,40 40,40 0 0 0 40,40 40,40 0 0 0 40,-40 40,40 0 0 0 -40,-40 z m 0,16 c 13.2548,0 24,10.74522 24,24 0,13.2548 -10.7452,24 -24,24 -13.25479,0 -24,-10.7452 -24,-24 0,-13.25478 10.74521,-24 24,-24 z" />
</svg>
