<?xml version="1.0" encoding="UTF-8" standalone="no"?>
<!-- Created with Inkscape (http://www.inkscape.org/) -->

<svg
   width="32"
   height="32"
   viewBox="0 0 32 32"
   version="1.1"
   id="svg5"
   inkscape:version="1.2.1 (9c6d41e410, 2022-07-14)"
   sodipodi:docname="akregator.svg"
   xmlns:inkscape="http://www.inkscape.org/namespaces/inkscape"
   xmlns:sodipodi="http://sodipodi.sourceforge.net/DTD/sodipodi-0.dtd"
   xmlns:xlink="http://www.w3.org/1999/xlink"
   xmlns="http://www.w3.org/2000/svg"
   xmlns:svg="http://www.w3.org/2000/svg">
  <sodipodi:namedview
     id="namedview7"
     pagecolor="#ffffff"
     bordercolor="#000000"
     borderopacity="0.25"
     inkscape:showpageshadow="2"
     inkscape:pageopacity="0.0"
     inkscape:pagecheckerboard="0"
     inkscape:deskcolor="#d1d1d1"
     inkscape:document-units="px"
     showgrid="false"
     inkscape:zoom="25.09375"
     inkscape:cx="15.980075"
     inkscape:cy="16"
     inkscape:window-width="1920"
     inkscape:window-height="1006"
     inkscape:window-x="0"
     inkscape:window-y="0"
     inkscape:window-maximized="1"
     inkscape:current-layer="svg5" />
  <defs
     id="defs2">
    <linearGradient
       inkscape:collect="always"
       xlink:href="#linearGradient1428"
       id="linearGradient4780"
       x1="30"
       y1="30"
       x2="2"
       y2="2"
       gradientUnits="userSpaceOnUse" />
    <linearGradient
       inkscape:collect="always"
       id="linearGradient1428">
      <stop
         style="stop-color:#ffbb75;stop-opacity:1;"
         offset="0"
         id="stop1424" />
      <stop
         style="stop-color:#f68200;stop-opacity:1;"
         offset="1"
         id="stop1426" />
    </linearGradient>
  </defs>
  <path
     d="M 13,3 C 3.8988095,3 2,4.939817 2,14 v 6 c 0,9.060183 1.8988095,11 11,11 h 6 c 9.10119,0 11,-1.939817 11,-11 V 14 C 30,4.939817 28.10119,3 19,3"
     style="opacity:0.2;fill:#000000;stroke-width:1;stroke-linecap:round;stroke-linejoin:round"
     id="path563" />
  <path
     id="path530"
     style="fill:url(#linearGradient4780);fill-opacity:1;stroke-width:1;stroke-linecap:round;stroke-linejoin:round"
     d="M 13,2 C 3.8988186,2 2,3.9398261 2,13 v 6 c 0,9.060174 1.8988186,11 11,11 h 6 c 9.101182,0 11,-1.939826 11,-11 V 13 C 30,3.9398261 28.101182,2 19,2 Z" />
  <path
     id="path1148"
     style="color:#000000;fill:#ffffff;stroke:none;stroke-linecap:round;-inkscape-stroke:none"
     d="M 8.5,6 A 1.5,1.5 0 0 0 7,7.5 1.5,1.5 0 0 0 8.5,9 C 16.52588,9 23,15.47412 23,23.5 A 1.5,1.5 0 0 0 24.5,25 1.5,1.5 0 0 0 26,23.5 C 26,13.852803 18.147197,6 8.5,6 Z m 0,7 A 1.5,1.5 0 0 0 7,14.5 1.5,1.5 0 0 0 8.5,16 c 4.159894,0 7.5,3.340106 7.5,7.5 A 1.5,1.5 0 0 0 17.5,25 1.5,1.5 0 0 0 19,23.5 C 19,17.718789 14.281211,13 8.5,13 Z M 9,20 c -1.6568967,0 -3,1.343004 -3,3 0,1.656996 1.3431033,3 3,3 1.656997,0 3,-1.343004 3,-3 0,-1.656996 -1.343003,-3 -3,-3 z" />
</svg>
