<?xml version="1.0" encoding="UTF-8" standalone="no"?>
<!-- Created with Inkscape (http://www.inkscape.org/) -->

<svg
   width="32"
   height="32"
   viewBox="0 0 32 32"
   version="1.1"
   id="svg5"
   inkscape:version="1.2.1 (9c6d41e410, 2022-07-14)"
   sodipodi:docname="applications-utilities.svg"
   xmlns:inkscape="http://www.inkscape.org/namespaces/inkscape"
   xmlns:sodipodi="http://sodipodi.sourceforge.net/DTD/sodipodi-0.dtd"
   xmlns:xlink="http://www.w3.org/1999/xlink"
   xmlns="http://www.w3.org/2000/svg"
   xmlns:svg="http://www.w3.org/2000/svg">
  <sodipodi:namedview
     id="namedview7"
     pagecolor="#ffffff"
     bordercolor="#000000"
     borderopacity="0.25"
     inkscape:showpageshadow="2"
     inkscape:pageopacity="0.0"
     inkscape:pagecheckerboard="0"
     inkscape:deskcolor="#d1d1d1"
     inkscape:document-units="px"
     showgrid="false"
     inkscape:zoom="25.8125"
     inkscape:cx="15.98063"
     inkscape:cy="16"
     inkscape:window-width="1920"
     inkscape:window-height="1006"
     inkscape:window-x="0"
     inkscape:window-y="0"
     inkscape:window-maximized="1"
     inkscape:current-layer="svg5"
     showguides="false" />
  <defs
     id="defs2">
    <linearGradient
       inkscape:collect="always"
       id="linearGradient1217">
      <stop
         style="stop-color:#96a3ad;stop-opacity:1;"
         offset="0"
         id="stop1213" />
      <stop
         style="stop-color:#c4c8cd;stop-opacity:1;"
         offset="1"
         id="stop1215" />
    </linearGradient>
    <linearGradient
       inkscape:collect="always"
       xlink:href="#linearGradient1217"
       id="linearGradient6780"
       x1="2"
       y1="2"
       x2="30"
       y2="30"
       gradientUnits="userSpaceOnUse" />
  </defs>
  <path
     d="M 13,3 C 3.8988095,3 2,4.939817 2,14 v 6 c 0,9.060183 1.8988095,11 11,11 h 6 c 9.10119,0 11,-1.939817 11,-11 V 14 C 30,4.939817 28.10119,3 19,3"
     style="opacity:0.2;fill:#000000;stroke-width:1;stroke-linecap:round;stroke-linejoin:round"
     id="path563" />
  <path
     id="path530"
     style="fill:url(#linearGradient6780);stroke-width:1;stroke-linecap:round;stroke-linejoin:round;fill-opacity:1"
     d="M 13 2 C 3.8988186 2 2 3.9398261 2 13 L 2 19 C 2 28.060174 3.8988186 30 13 30 L 19 30 C 28.101182 30 30 28.060174 30 19 L 30 13 C 30 3.9398261 28.101182 2 19 2 L 13 2 z " />
  <path
     d="M 11,7 C 9.338,7 8,8.338 8,10 v 12 c 0,1.662 1.338,3 3,3 1.662,0 3,-1.338 3,-3 V 10 C 14,8.338 12.662,7 11,7 Z m 2.53125,0 C 14.40925,7.713 15,8.7920003 15,10 v 1 h 4.125 c -0.074,-1.093 1.248,-2 2,-2 0.68,0 1,0.01198 1,1 v 1 h 1.21875 c 1.228,-0.6 1.7793,-1.9695 1.7793,-2.6874997 C 25.12305,7.5775001 22.7395,7 21.4375,7 Z M 15,12 v 4.310551 c 2.766,2.660989 8.124999,2.408199 8.124999,2.408199 0,0 0.352751,-1.519299 -1.906249,-4.0293 L 18.84961,12 Z M 20,14.5332 21.5,16 C 19.701,16.165 19.533,15.4132 20,14.5332 Z"
     style="fill:#ffffff;stroke-width:0.999999"
     id="path17626"
     sodipodi:nodetypes="ssssssscsccssccsscccccccccc" />
</svg>
