<?xml version="1.0" encoding="UTF-8" standalone="no"?>
<!-- Created with Inkscape (http://www.inkscape.org/) -->

<svg
   width="32"
   height="32"
   viewBox="0 0 32 32"
   version="1.1"
   id="svg5"
   inkscape:version="1.2.1 (9c6d41e410, 2022-07-14)"
   sodipodi:docname="cawbird.svg"
   xmlns:inkscape="http://www.inkscape.org/namespaces/inkscape"
   xmlns:sodipodi="http://sodipodi.sourceforge.net/DTD/sodipodi-0.dtd"
   xmlns:xlink="http://www.w3.org/1999/xlink"
   xmlns="http://www.w3.org/2000/svg"
   xmlns:svg="http://www.w3.org/2000/svg">
  <sodipodi:namedview
     id="namedview7"
     pagecolor="#ffffff"
     bordercolor="#000000"
     borderopacity="0.25"
     inkscape:showpageshadow="2"
     inkscape:pageopacity="0.0"
     inkscape:pagecheckerboard="0"
     inkscape:deskcolor="#d1d1d1"
     inkscape:document-units="px"
     showgrid="false"
     inkscape:zoom="25"
     inkscape:cx="15.98"
     inkscape:cy="16"
     inkscape:window-width="1920"
     inkscape:window-height="1011"
     inkscape:window-x="0"
     inkscape:window-y="32"
     inkscape:window-maximized="1"
     inkscape:current-layer="svg5" />
  <defs
     id="defs2">
    <linearGradient
       inkscape:collect="always"
       xlink:href="#linearGradient1455"
       id="linearGradient4780"
       x1="2"
       y1="2"
       x2="30"
       y2="30"
       gradientUnits="userSpaceOnUse" />
    <linearGradient
       inkscape:collect="always"
       id="linearGradient1455">
      <stop
         style="stop-color:#28303e;stop-opacity:1;"
         offset="0"
         id="stop1451" />
      <stop
         style="stop-color:#5f6375;stop-opacity:1;"
         offset="1"
         id="stop1453" />
    </linearGradient>
    <linearGradient
       inkscape:collect="always"
       xlink:href="#linearGradient1218"
       id="linearGradient1220"
       x1="7"
       y1="7"
       x2="5"
       y2="5"
       gradientUnits="userSpaceOnUse"
       gradientTransform="scale(2)" />
    <linearGradient
       inkscape:collect="always"
       id="linearGradient1218">
      <stop
         style="stop-color:#2e79c2;stop-opacity:1;"
         offset="0"
         id="stop1214" />
      <stop
         style="stop-color:#679ddb;stop-opacity:1;"
         offset="1"
         id="stop1216" />
    </linearGradient>
    <linearGradient
       inkscape:collect="always"
       xlink:href="#linearGradient1218"
       id="linearGradient1404"
       x1="11"
       y1="7"
       x2="9"
       y2="5"
       gradientUnits="userSpaceOnUse"
       gradientTransform="scale(2)" />
    <linearGradient
       inkscape:collect="always"
       xlink:href="#linearGradient1461"
       id="linearGradient1463"
       x1="7.9999995"
       y1="13.5"
       x2="8"
       y2="6"
       gradientUnits="userSpaceOnUse"
       gradientTransform="scale(2)" />
    <linearGradient
       inkscape:collect="always"
       id="linearGradient1461">
      <stop
         style="stop-color:#778394;stop-opacity:1;"
         offset="0"
         id="stop1457" />
      <stop
         style="stop-color:#6a7590;stop-opacity:1;"
         offset="1"
         id="stop1459" />
    </linearGradient>
  </defs>
  <path
     d="M 13,3 C 3.8988095,3 2,4.939817 2,14 v 6 c 0,9.060183 1.8988095,11 11,11 h 6 c 9.10119,0 11,-1.939817 11,-11 V 14 C 30,4.939817 28.10119,3 19,3"
     style="opacity:0.2;fill:#000000;stroke-width:1;stroke-linecap:round;stroke-linejoin:round"
     id="path563" />
  <path
     id="path530"
     style="fill:url(#linearGradient4780);fill-opacity:1.0;stroke-width:1;stroke-linecap:round;stroke-linejoin:round"
     d="M 13,2 C 3.8988186,2 2,3.9398261 2,13 v 6 c 0,9.060174 1.8988186,11 11,11 h 6 c 9.101182,0 11,-1.939826 11,-11 V 13 C 30,3.9398261 28.101182,2 19,2 Z" />
  <path
     id="path344"
     style="fill:#ffffff;stroke-width:4"
     d="M 12,5.9999999 A 5.9999999,5.9999999 0 0 0 5.9999999,12 5.9999999,5.9999999 0 0 0 12,17.999999 a 5.9999999,5.9999999 0 0 0 3.999999,-1.535156 5.9999999,5.9999999 0 0 0 4,1.535156 5.9999999,5.9999999 0 0 0 6,-5.999999 5.9999999,5.9999999 0 0 0 -6,-6.0000001 A 5.9999999,5.9999999 0 0 0 16.003905,7.5312498 5.9999999,5.9999999 0 0 0 12,5.9999999 Z" />
  <circle
     style="fill:url(#linearGradient1220);fill-opacity:1;stroke-width:4"
     id="path1210"
     cx="12"
     cy="12"
     r="2" />
  <circle
     style="fill:url(#linearGradient1404);fill-opacity:1;stroke-width:4"
     id="path1212"
     cx="20"
     cy="12"
     r="2" />
  <path
     id="path448"
     style="fill:url(#linearGradient1463);fill-opacity:1;stroke-width:4"
     d="m 17.999999,15.999999 c 0,4.418278 -2,11.000001 -2,11.000001 C 15.999999,27 14,20.418277 14,15.999999 14,13.999999 14.89543,12 15.999999,12 c 1.10457,0 2,1.999999 2,3.999999 z"
     sodipodi:nodetypes="scsss" />
</svg>
