<?xml version="1.0" encoding="UTF-8" standalone="no"?>
<!-- Created with Inkscape (http://www.inkscape.org/) -->

<svg
   width="32"
   height="32"
   viewBox="0 0 32 32"
   version="1.1"
   id="svg5"
   inkscape:version="1.2.1 (9c6d41e410, 2022-07-14)"
   sodipodi:docname="discord-canary.svg"
   xmlns:inkscape="http://www.inkscape.org/namespaces/inkscape"
   xmlns:sodipodi="http://sodipodi.sourceforge.net/DTD/sodipodi-0.dtd"
   xmlns="http://www.w3.org/2000/svg"
   xmlns:svg="http://www.w3.org/2000/svg">
  <sodipodi:namedview
     id="namedview7"
     pagecolor="#ffffff"
     bordercolor="#000000"
     borderopacity="0.25"
     inkscape:showpageshadow="2"
     inkscape:pageopacity="0.0"
     inkscape:pagecheckerboard="0"
     inkscape:deskcolor="#d1d1d1"
     inkscape:document-units="px"
     showgrid="false"
     inkscape:zoom="25.5625"
     inkscape:cx="16.01956"
     inkscape:cy="16"
     inkscape:window-width="1920"
     inkscape:window-height="1006"
     inkscape:window-x="0"
     inkscape:window-y="0"
     inkscape:window-maximized="1"
     inkscape:current-layer="svg5" />
  <defs
     id="defs2" />
  <path
     d="M 13,3 C 3.8988095,3 2,4.939817 2,14 v 6 c 0,9.060183 1.8988095,11 11,11 h 6 c 9.10119,0 11,-1.939817 11,-11 V 14 C 30,4.939817 28.10119,3 19,3"
     style="opacity:0.2;fill:#000000;stroke-width:1;stroke-linecap:round;stroke-linejoin:round"
     id="path563" />
  <path
     id="path530"
     style="fill:#faa61a;fill-opacity:1;stroke-width:1;stroke-linecap:round;stroke-linejoin:round"
     d="M 13,2 C 3.8988186,2 2,3.9398261 2,13 v 6 c 0,9.060174 1.8988186,11 11,11 h 6 c 9.101182,0 11,-1.939826 11,-11 V 13 C 30,3.9398261 28.101182,2 19,2 Z" />
  <path
     d="m 13.266477,9.0001764 0.171383,0.20586 c -3.08481,0.8740176 -4.489978,2.2279066 -4.489978,2.2279066 0,0 0.3767637,-0.205781 1.0108722,-0.479989 1.8337368,-0.805487 3.2906508,-1.0109366 3.8904728,-1.0794816 0.102828,-0.01718 0.188382,-0.0345 0.291209,-0.0345 1.045404,-0.137105 2.228113,-0.171246 3.462036,-0.03409 1.628095,0.188519 3.376087,0.6683776 5.158418,1.6280906 0,0 -1.353958,-1.285272 -4.267381,-2.1592946 l 0.23999,-0.274471 c 0,0 2.347887,-0.05135 4.798583,1.7823946 0,0 2.467918,4.438826 2.467918,9.905781 0,-0.01709 -1.439578,2.450705 -5.227023,2.570673 0,0 -0.617241,-0.736927 -1.131368,-1.371018 2.245045,-0.6341 3.102204,-2.022405 3.102204,-2.022405 -0.70265,0.462728 -1.371023,0.788409 -1.970836,1.011213 -0.856895,0.359883 -1.679514,0.58281 -2.484987,0.73705 -1.645227,0.308483 -3.153418,0.222528 -4.438763,-0.01741 -0.97685,-0.188513 -1.816805,-0.445382 -2.519454,-0.736727 -0.394177,-0.154241 -0.82241,-0.342823 -1.250864,-0.58275 -0.05134,-0.03427 -0.1028954,-0.05135 -0.1542996,-0.08569 -0.034229,-0.01709 -0.051436,-0.03418 -0.0686,-0.03418 -0.3084772,-0.171373 -0.4796593,-0.29155 -0.4796593,-0.29155 0,0 0.8226129,1.3541 2.9991129,2.005327 -0.51414,0.651237 -1.14844,1.405168 -1.14844,1.405168 C 7.4395772,23.156108 6,20.688321 6,20.688321 6,15.221366 8.4679093,10.78254 8.4679093,10.78254 10.935754,8.9487944 13.266491,9.0001444 13.266491,9.0001444 Z m -0.462586,6.3239166 c -0.976855,0 -1.748264,0.839746 -1.748264,1.88516 0,1.0454 0.788541,1.885159 1.748264,1.885159 0.976859,0 1.747918,-0.839759 1.747918,-1.885159 0.01709,-1.045414 -0.771059,-1.88516 -1.747918,-1.88516 z m 6.255299,0 c -0.976854,0 -1.748268,0.839746 -1.748268,1.88516 0,1.0454 0.788545,1.885159 1.748268,1.885159 0.976846,0 1.747919,-0.839759 1.747919,-1.885159 0,-1.045414 -0.78821,-1.88516 -1.747919,-1.88516 z"
     style="display:inline;fill:#ffffff;stroke-width:0.454546;enable-background:new"
     id="path492"
     sodipodi:nodetypes="cccccccccccccccccccccccccccccssscssssss" />
</svg>
