<?xml version="1.0" encoding="UTF-8" standalone="no"?>
<!-- Created with Inkscape (http://www.inkscape.org/) -->

<svg
   width="32"
   height="32"
   viewBox="0 0 32 32"
   version="1.1"
   id="svg5"
   inkscape:version="1.2.2 (1:1.2.2+202305151914+b0a8486541)"
   sodipodi:docname="firewall-config.svg"
   xmlns:inkscape="http://www.inkscape.org/namespaces/inkscape"
   xmlns:sodipodi="http://sodipodi.sourceforge.net/DTD/sodipodi-0.dtd"
   xmlns:xlink="http://www.w3.org/1999/xlink"
   xmlns="http://www.w3.org/2000/svg"
   xmlns:svg="http://www.w3.org/2000/svg">
  <sodipodi:namedview
     id="namedview7"
     pagecolor="#ffffff"
     bordercolor="#000000"
     borderopacity="0.25"
     inkscape:showpageshadow="2"
     inkscape:pageopacity="0.0"
     inkscape:pagecheckerboard="0"
     inkscape:deskcolor="#d1d1d1"
     inkscape:document-units="px"
     showgrid="false"
     inkscape:zoom="25.3125"
     inkscape:cx="15.980247"
     inkscape:cy="16"
     inkscape:window-width="1920"
     inkscape:window-height="1012"
     inkscape:window-x="0"
     inkscape:window-y="0"
     inkscape:window-maximized="1"
     inkscape:current-layer="svg5" />
  <defs
     id="defs2">
    <linearGradient
       inkscape:collect="always"
       xlink:href="#linearGradient918"
       id="linearGradient4780"
       x1="2"
       y1="2"
       x2="30"
       y2="30"
       gradientUnits="userSpaceOnUse" />
    <linearGradient
       inkscape:collect="always"
       id="linearGradient918">
      <stop
         style="stop-color:#923b26;stop-opacity:1;"
         offset="0"
         id="stop914" />
      <stop
         style="stop-color:#c17b6e;stop-opacity:1;"
         offset="1"
         id="stop916" />
    </linearGradient>
  </defs>
  <path
     d="M 13,3 C 3.8988095,3 2,4.939817 2,14 v 6 c 0,9.060183 1.8988095,11 11,11 h 6 c 9.10119,0 11,-1.939817 11,-11 V 14 C 30,4.939817 28.10119,3 19,3"
     style="opacity:0.2;fill:#000000;stroke-width:1;stroke-linecap:round;stroke-linejoin:round"
     id="path563" />
  <path
     id="path530"
     style="fill:url(#linearGradient4780);fill-opacity:1.0;stroke-width:1;stroke-linecap:round;stroke-linejoin:round"
     d="M 13,2 C 3.8988186,2 2,3.9398261 2,13 v 6 c 0,9.060174 1.8988186,11 11,11 h 6 c 9.101182,0 11,-1.939826 11,-11 V 13 C 30,3.9398261 28.101182,2 19,2 Z" />
  <path
     id="rect4492"
     style="opacity:0.5;fill:#ffffff;stroke-linecap:square;stroke-linejoin:round"
     d="M 15 2 L 15 5 L 8 5 L 8 2.3339844 C 7.6467198 2.3965851 7.3150361 2.4711612 7 2.5546875 L 7 5 L 3.3828125 5 C 3.1920687 5.3049779 3.0225617 5.6355773 2.8769531 6 L 3 6 L 3 12 L 2.0136719 12 C 2.0076937 12.329177 2 12.649853 2 13 L 7 13 L 7 19 L 2 19 C 2 19.350147 2.0076937 19.670823 2.0136719 20 L 3 20 L 3 26 L 2.8769531 26 C 3.0225617 26.364423 3.1920687 26.695022 3.3828125 27 L 7 27 L 7 29.445312 C 7.3150361 29.528839 7.6467198 29.603415 8 29.666016 L 8 27 L 15 27 L 15 30 L 16 30 L 16 27 L 23 27 L 23 29.808594 C 23.348344 29.767871 23.683786 29.722048 24 29.666016 L 24 27 L 28.617188 27 C 28.807931 26.695022 28.977438 26.364423 29.123047 26 L 28 26 L 28 20 L 29.986328 20 C 29.992306 19.670823 30 19.350147 30 19 L 24 19 L 24 13 L 30 13 C 30 12.649853 29.992306 12.329177 29.986328 12 L 28 12 L 28 6 L 29.123047 6 C 28.977438 5.6355773 28.807931 5.3049779 28.617188 5 L 24 5 L 24 2.3339844 C 23.683786 2.2779517 23.348344 2.2321293 23 2.1914062 L 23 5 L 16 5 L 16 2 L 15 2 z M 4 6 L 11 6 L 11 12 L 4 12 L 4 6 z M 12 6 L 19 6 L 19 12 L 12 12 L 12 6 z M 20 6 L 27 6 L 27 12 L 20 12 L 20 6 z M 8 13 L 15 13 L 15 19 L 8 19 L 8 13 z M 16 13 L 23 13 L 23 19 L 16 19 L 16 13 z M 4 20 L 11 20 L 11 26 L 4 26 L 4 20 z M 12 20 L 19 20 L 19 26 L 12 26 L 12 20 z M 20 20 L 27 20 L 27 26 L 20 26 L 20 20 z " />
</svg>
