<?xml version="1.0" encoding="UTF-8" standalone="no"?>
<!-- Created with Inkscape (http://www.inkscape.org/) -->

<svg
   width="32"
   height="32"
   viewBox="0 0 32 32"
   version="1.1"
   id="svg5"
   inkscape:version="1.2.1 (9c6d41e410, 2022-07-14)"
   sodipodi:docname="firefox.svg"
   xmlns:inkscape="http://www.inkscape.org/namespaces/inkscape"
   xmlns:sodipodi="http://sodipodi.sourceforge.net/DTD/sodipodi-0.dtd"
   xmlns="http://www.w3.org/2000/svg"
   xmlns:svg="http://www.w3.org/2000/svg">
  <sodipodi:namedview
     id="namedview7"
     pagecolor="#ffffff"
     bordercolor="#000000"
     borderopacity="0.25"
     inkscape:showpageshadow="2"
     inkscape:pageopacity="0.0"
     inkscape:pagecheckerboard="0"
     inkscape:deskcolor="#d1d1d1"
     inkscape:document-units="px"
     showgrid="false"
     inkscape:zoom="24.75"
     inkscape:cx="16"
     inkscape:cy="16"
     inkscape:window-width="1920"
     inkscape:window-height="1004"
     inkscape:window-x="0"
     inkscape:window-y="0"
     inkscape:window-maximized="1"
     inkscape:current-layer="svg5" />
  <defs
     id="defs2">
    <linearGradient
       gradientTransform="matrix(0.07518612,0,0,0.07518612,1.2251988,1.3226105)"
       gradientUnits="userSpaceOnUse"
       y2="74.468002"
       x2="6.447"
       y1="12.393"
       x1="70.786003"
       id="a">
      <stop
         id="stop834"
         stop-color="#fff44f"
         offset=".048" />
      <stop
         id="stop836"
         stop-color="#ffe847"
         offset=".111" />
      <stop
         id="stop838"
         stop-color="#ffc830"
         offset=".225" />
      <stop
         id="stop840"
         stop-color="#ff980e"
         offset=".368" />
      <stop
         id="stop842"
         stop-color="#ff8b16"
         offset=".401" />
      <stop
         id="stop844"
         stop-color="#ff672a"
         offset=".462" />
      <stop
         id="stop846"
         stop-color="#ff3647"
         offset=".534" />
      <stop
         id="stop848"
         stop-color="#e31587"
         offset=".705" />
    </linearGradient>
    <radialGradient
       gradientUnits="userSpaceOnUse"
       gradientTransform="matrix(0.07518612,0,0,0.07518612,600.8345,642.20915)"
       r="80.796997"
       cy="-8515.1211"
       cx="-7907.187"
       id="b">
      <stop
         id="stop851"
         stop-color="#ffbd4f"
         offset=".129" />
      <stop
         id="stop853"
         stop-color="#ffac31"
         offset=".186" />
      <stop
         id="stop855"
         stop-color="#ff9d17"
         offset=".247" />
      <stop
         id="stop857"
         stop-color="#ff980e"
         offset=".283" />
      <stop
         id="stop859"
         stop-color="#ff563b"
         offset=".403" />
      <stop
         id="stop861"
         stop-color="#ff3750"
         offset=".467" />
      <stop
         id="stop863"
         stop-color="#f5156c"
         offset=".71" />
      <stop
         id="stop865"
         stop-color="#eb0878"
         offset=".782" />
      <stop
         id="stop867"
         stop-color="#e50080"
         offset=".86" />
    </radialGradient>
    <radialGradient
       gradientUnits="userSpaceOnUse"
       gradientTransform="matrix(0.07518612,0,0,0.07518612,600.8345,642.20915)"
       r="80.796997"
       cy="-8482.0889"
       cx="-7936.7109"
       id="c">
      <stop
         id="stop870"
         stop-color="#960e18"
         offset=".3" />
      <stop
         id="stop872"
         stop-opacity=".74"
         stop-color="#b11927"
         offset=".351" />
      <stop
         id="stop874"
         stop-opacity=".343"
         stop-color="#db293d"
         offset=".435" />
      <stop
         id="stop876"
         stop-opacity=".094"
         stop-color="#f5334b"
         offset=".497" />
      <stop
         id="stop878"
         stop-opacity="0"
         stop-color="#ff3750"
         offset=".53" />
    </radialGradient>
    <radialGradient
       gradientUnits="userSpaceOnUse"
       gradientTransform="matrix(0.07518612,0,0,0.07518612,600.8345,642.20915)"
       r="58.534"
       cy="-8533.457"
       cx="-7926.9702"
       id="d">
      <stop
         id="stop881"
         stop-color="#fff44f"
         offset=".132" />
      <stop
         id="stop883"
         stop-color="#ffdc3e"
         offset=".252" />
      <stop
         id="stop885"
         stop-color="#ff9d12"
         offset=".506" />
      <stop
         id="stop887"
         stop-color="#ff980e"
         offset=".526" />
    </radialGradient>
    <radialGradient
       gradientUnits="userSpaceOnUse"
       gradientTransform="matrix(0.07518612,0,0,0.07518612,600.8345,642.20915)"
       r="38.471001"
       cy="-8460.9844"
       cx="-7945.6479"
       id="e">
      <stop
         id="stop890"
         stop-color="#3a8ee6"
         offset=".353" />
      <stop
         id="stop892"
         stop-color="#5c79f0"
         offset=".472" />
      <stop
         id="stop894"
         stop-color="#9059ff"
         offset=".669" />
      <stop
         id="stop896"
         stop-color="#c139e6"
         offset="1" />
    </radialGradient>
    <radialGradient
       gradientUnits="userSpaceOnUse"
       gradientTransform="matrix(0.07308091,-0.01766873,0.02067619,0.08556181,759.95103,590.31549)"
       r="20.396999"
       cy="-8491.5459"
       cx="-7935.6201"
       id="f">
      <stop
         id="stop899"
         stop-opacity="0"
         stop-color="#9059ff"
         offset=".206" />
      <stop
         id="stop901"
         stop-opacity=".064"
         stop-color="#8c4ff3"
         offset=".278" />
      <stop
         id="stop903"
         stop-opacity=".45"
         stop-color="#7716a8"
         offset=".747" />
      <stop
         id="stop905"
         stop-opacity=".6"
         stop-color="#6e008b"
         offset=".975" />
    </radialGradient>
    <radialGradient
       gradientUnits="userSpaceOnUse"
       gradientTransform="matrix(0.07518612,0,0,0.07518612,600.8345,642.20915)"
       r="27.676001"
       cy="-8518.4268"
       cx="-7937.731"
       id="g">
      <stop
         id="stop908"
         stop-color="#ffe226"
         offset="0" />
      <stop
         id="stop910"
         stop-color="#ffdb27"
         offset=".121" />
      <stop
         id="stop912"
         stop-color="#ffc82a"
         offset=".295" />
      <stop
         id="stop914"
         stop-color="#ffa930"
         offset=".502" />
      <stop
         id="stop916"
         stop-color="#ff7e37"
         offset=".732" />
      <stop
         id="stop918"
         stop-color="#ff7139"
         offset=".792" />
    </radialGradient>
    <radialGradient
       gradientUnits="userSpaceOnUse"
       gradientTransform="matrix(0.07518612,0,0,0.07518612,600.8345,642.20915)"
       r="118.081"
       cy="-8535.9814"
       cx="-7915.9771"
       id="h">
      <stop
         id="stop921"
         stop-color="#fff44f"
         offset=".113" />
      <stop
         id="stop923"
         stop-color="#ff980e"
         offset=".456" />
      <stop
         id="stop925"
         stop-color="#ff5634"
         offset=".622" />
      <stop
         id="stop927"
         stop-color="#ff3647"
         offset=".716" />
      <stop
         id="stop929"
         stop-color="#e31587"
         offset=".904" />
    </radialGradient>
    <radialGradient
       gradientUnits="userSpaceOnUse"
       gradientTransform="matrix(0.00789455,0.07481019,-0.04909654,0.00518784,-350.9469,638.16341)"
       r="86.499001"
       cy="-8522.8594"
       cx="-7927.165"
       id="i">
      <stop
         id="stop932"
         stop-color="#fff44f"
         offset="0" />
      <stop
         id="stop934"
         stop-color="#ffe847"
         offset=".06" />
      <stop
         id="stop936"
         stop-color="#ffc830"
         offset=".168" />
      <stop
         id="stop938"
         stop-color="#ff980e"
         offset=".304" />
      <stop
         id="stop940"
         stop-color="#ff8b16"
         offset=".356" />
      <stop
         id="stop942"
         stop-color="#ff672a"
         offset=".455" />
      <stop
         id="stop944"
         stop-color="#ff3647"
         offset=".57" />
      <stop
         id="stop946"
         stop-color="#e31587"
         offset=".737" />
    </radialGradient>
    <radialGradient
       gradientUnits="userSpaceOnUse"
       gradientTransform="matrix(0.07518612,0,0,0.07518612,600.8345,642.20915)"
       r="73.720001"
       cy="-8508.1758"
       cx="-7938.3828"
       id="j">
      <stop
         id="stop949"
         stop-color="#fff44f"
         offset=".137" />
      <stop
         id="stop951"
         stop-color="#ff980e"
         offset=".48" />
      <stop
         id="stop953"
         stop-color="#ff5634"
         offset=".592" />
      <stop
         id="stop955"
         stop-color="#ff3647"
         offset=".655" />
      <stop
         id="stop957"
         stop-color="#e31587"
         offset=".904" />
    </radialGradient>
    <radialGradient
       gradientUnits="userSpaceOnUse"
       gradientTransform="matrix(0.07518612,0,0,0.07518612,600.8345,642.20915)"
       r="80.685997"
       cy="-8503.8613"
       cx="-7918.9229"
       id="k">
      <stop
         id="stop960"
         stop-color="#fff44f"
         offset=".094" />
      <stop
         id="stop962"
         stop-color="#ffe141"
         offset=".231" />
      <stop
         id="stop964"
         stop-color="#ffaf1e"
         offset=".509" />
      <stop
         id="stop966"
         stop-color="#ff980e"
         offset=".626" />
    </radialGradient>
    <linearGradient
       gradientTransform="matrix(0.07518612,0,0,0.07518612,1.2251988,1.3226105)"
       gradientUnits="userSpaceOnUse"
       y2="66.806"
       x2="15.267"
       y1="12.061"
       x1="70.013"
       id="l">
      <stop
         id="stop969"
         stop-opacity=".8"
         stop-color="#fff44f"
         offset=".167" />
      <stop
         id="stop971"
         stop-opacity=".634"
         stop-color="#fff44f"
         offset=".266" />
      <stop
         id="stop973"
         stop-opacity=".217"
         stop-color="#fff44f"
         offset=".489" />
      <stop
         id="stop975"
         stop-opacity="0"
         stop-color="#fff44f"
         offset=".6" />
    </linearGradient>
  </defs>
  <path
     d="M 13,3 C 3.8988095,3 2,4.939817 2,14 v 6 c 0,9.060183 1.8988095,11 11,11 h 6 c 9.10119,0 11,-1.939817 11,-11 V 14 C 30,4.939817 28.10119,3 19,3"
     style="opacity:0.2;fill:#000000;stroke-width:1;stroke-linecap:round;stroke-linejoin:round"
     id="path563" />
  <path
     id="path533"
     style="fill:#3b005e;fill-opacity:1;stroke-width:1;stroke-linecap:round;stroke-linejoin:round"
     d="M 13 2 C 3.8988186 2 2 3.9398261 2 13 L 2 19 C 2 28.060174 3.8988186 30 13 30 L 19 30 C 28.101182 30 30 28.060174 30 19 L 30 13 C 30 3.9398261 28.101182 2 19 2 L 13 2 z " />
  <g
     id="g978"
     transform="matrix(3.3263935,0,0,3.3263935,1.9182633,1.5994586)">
    <path
       style="fill:url(#a);stroke-width:0.0751865"
       id="path980"
       d="M 6.9330283,3.3399293 C 6.8064147,3.0352752 6.5495792,2.7063358 6.3484561,2.6023535 a 3.0274444,3.0274444 0 0 1 0.2951053,0.8844896 l 5.164e-4,0.00489 C 6.3146084,2.6703224 5.7559004,2.3391272 5.299596,1.617942 5.2765133,1.581477 5.2534314,1.5449366 5.2309513,1.5063658 5.2180939,1.4843368 5.207794,1.4644873 5.198847,1.4462171 A 0.53028767,0.53028767 0 0 1 5.15539,1.3308064 a 0.00751861,0.00751861 0 0 0 -0.00662,-0.00752 0.01037568,0.01037568 0 0 0 -0.00549,0 c -3.689e-4,0 -9.585e-4,6.714e-4 -0.00144,8.486e-4 -4.646e-4,1.503e-4 -0.00144,8.485e-4 -0.00211,0.00115 L 5.14088,1.323335 C 4.4089477,1.7518901 4.1606076,2.5452542 4.1377511,2.9420866 A 1.4576333,1.4576333 0 0 0 3.3358162,3.2511767 0.87118156,0.87118156 0 0 0 3.2606299,3.1941858 1.3509442,1.3509442 0 0 1 3.2524324,2.4819475 2.1582176,2.1582176 0 0 0 2.5510215,3.0240394 h -0.00134 C 2.4341991,2.8776452 2.4423193,2.3949503 2.4489358,2.2941256 A 0.52088945,0.52088945 0 0 0 2.3516447,2.3457784 2.1221283,2.1221283 0 0 0 2.06684,2.5897574 2.5446744,2.5446744 0 0 0 1.7944403,2.9165916 v 4.646e-4 -5.464e-4 A 2.4610673,2.4610673 0 0 0 1.403466,3.7994083 l -0.00391,0.019248 c -0.00549,0.025639 -0.025262,0.1540563 -0.028646,0.1819504 0,0.00218 -4.646e-4,0.00421 -6.833e-4,0.00639 a 2.7771498,2.7771498 0 0 0 -0.047292,0.4017229 v 0.015038 A 2.9141388,2.9141388 0 0 0 7.1088075,4.916527 c 0.0049,-0.037593 0.00887,-0.07481 0.013231,-0.1127788 A 2.9966933,2.9966933 0 0 0 6.9330283,3.3399299 Z m -3.358564,2.2809966 c 0.013612,0.00655 0.026391,0.01361 0.040375,0.019849 l 0.00202,0.00129 Q 3.5956538,5.6319095 3.5744514,5.6209325 Z M 4.2419669,3.8633752 Z M 6.6443133,3.4924069 v -0.00278 l 5.165e-4,0.00308 z" />
    <path
       style="fill:url(#b);stroke-width:0.0751865"
       id="path982"
       d="M 6.9330283,3.3399293 C 6.8064147,3.0352752 6.5495792,2.7063358 6.3484561,2.6023535 a 3.0274444,3.0274444 0 0 1 0.2951053,0.8844896 v 0.00278 l 5.164e-4,0.00308 A 2.6390326,2.6390326 0 0 1 6.5534108,5.4594275 C 6.2194449,6.1760263 5.4110438,6.9105197 4.1456614,6.8748062 2.7784018,6.8360853 1.5742962,5.8215236 1.3491887,4.4926844 c -0.040976,-0.209544 0,-0.3157816 0.020601,-0.4860783 A 2.1710742,2.1710742 0 0 0 1.322949,4.4087016 v 0.015038 a 2.9141388,2.9141388 0 0 0 5.7858726,0.4927695 c 0.0049,-0.037593 0.00887,-0.07481 0.013232,-0.1127791 A 2.9966933,2.9966933 0 0 0 6.933037,3.339931 Z" />
    <path
       style="fill:url(#c);stroke-width:0.0751865"
       id="path984"
       d="M 6.9330283,3.3399293 C 6.8064147,3.0352752 6.5495792,2.7063358 6.3484561,2.6023535 a 3.0274444,3.0274444 0 0 1 0.2951053,0.8844896 v 0.00278 l 5.164e-4,0.00308 A 2.6390326,2.6390326 0 0 1 6.5534108,5.4594275 C 6.2194449,6.1760263 5.4110438,6.9105197 4.1456614,6.8748062 2.7784018,6.8360853 1.5742962,5.8215236 1.3491887,4.4926844 c -0.040976,-0.209544 0,-0.3157816 0.020601,-0.4860783 A 2.1710742,2.1710742 0 0 0 1.322949,4.4087016 v 0.015038 a 2.9141388,2.9141388 0 0 0 5.7858726,0.4927695 c 0.0049,-0.037593 0.00887,-0.07481 0.013232,-0.1127791 A 2.9966933,2.9966933 0 0 0 6.933037,3.339931 Z" />
    <path
       style="fill:url(#d);stroke-width:0.0751865"
       id="path986"
       d="m 5.5169728,3.6824773 c 0.00632,0.00444 0.012179,0.00887 0.018119,0.013311 A 1.5864271,1.5864271 0 0 0 5.2644218,3.3427882 C 4.3587298,2.4369439 5.0270593,1.3786994 5.1397635,1.3249412 l 0.00115,-0.00165 c -0.7319384,0.4285601 -0.9802784,1.2219239 -1.003135,1.6187566 0.033985,-0.00233 0.067668,-0.00519 0.1024037,-0.00519 a 1.4706405,1.4706405 0 0 1 1.2768104,0.7456253 z" />
    <path
       style="fill:url(#e);stroke-width:0.0751865"
       id="path988"
       d="m 4.2420421,3.8633752 c -0.00482,0.07248 -0.2608962,0.3224733 -0.3504427,0.3224733 -0.8286264,0 -0.9631342,0.5012659 -0.9631342,0.5012659 0.03669,0.4220948 0.3308188,0.7697554 0.6863739,0.9536606 0.016241,0.00842 0.032706,0.016015 0.049172,0.023458 q 0.042781,0.018948 0.085561,0.035037 A 1.2958327,1.2958327 0 0 0 4.1287366,5.772426 C 5.5811067,5.8405444 5.862453,4.0356267 4.8143584,3.5118802 A 1.0059903,1.0059903 0 0 1 5.5169728,3.6824773 1.4706405,1.4706405 0 0 0 4.2401622,2.9368565 c -0.034586,0 -0.068419,0.00286 -0.1024034,0.00519 A 1.4576333,1.4576333 0 0 0 3.3358237,3.2511351 c 0.044434,0.037593 0.094584,0.087817 0.2002206,0.1919501 0.1977393,0.1948075 0.7048696,0.3966072 0.7059978,0.42029 z" />
    <path
       style="fill:url(#f);stroke-width:0.0751865"
       id="path990"
       d="m 4.2420421,3.8633752 c -0.00482,0.07248 -0.2608962,0.3224733 -0.3504427,0.3224733 -0.8286264,0 -0.9631342,0.5012659 -0.9631342,0.5012659 0.03669,0.4220948 0.3308188,0.7697554 0.6863739,0.9536606 0.016241,0.00842 0.032706,0.016015 0.049172,0.023458 q 0.042781,0.018948 0.085561,0.035037 A 1.2958327,1.2958327 0 0 0 4.1287366,5.772426 C 5.5811067,5.8405444 5.862453,4.0356267 4.8143584,3.5118802 A 1.0059903,1.0059903 0 0 1 5.5169728,3.6824773 1.4706405,1.4706405 0 0 0 4.2401622,2.9368565 c -0.034586,0 -0.068419,0.00286 -0.1024034,0.00519 A 1.4576333,1.4576333 0 0 0 3.3358237,3.2511351 c 0.044434,0.037593 0.094584,0.087817 0.2002206,0.1919501 0.1977393,0.1948075 0.7048696,0.3966072 0.7059978,0.42029 z" />
    <path
       style="fill:url(#g);stroke-width:0.0751865"
       id="path992"
       d="m 3.1999622,3.1542196 c 0.023608,0.015037 0.043081,0.028119 0.060149,0.039924 a 1.3509442,1.3509442 0 0 1 -0.0082,-0.712238 2.1582176,2.1582176 0 0 0 -0.7014111,0.5420922 c 0.014212,-3.69e-4 0.4369065,-0.00797 0.6494575,0.1302221 z" />
    <path
       style="fill:url(#h);stroke-width:0.0751865"
       id="path994"
       d="M 1.3495565,4.492683 C 1.5744382,5.8215223 2.7787696,6.8360839 4.1460291,6.8748048 5.4114114,6.9105935 6.2198126,6.1760251 6.5537893,5.4594261 a 2.6390326,2.6390326 0 0 0 0.090674,-1.9667184 v -0.00278 c 0,-0.00218 -4.643e-4,-0.00346 0,-0.00278 l 5.165e-4,0.00489 C 6.7483609,4.1669718 6.4050608,4.8208654 5.8683825,5.2630351 l -0.00165,0.00376 C 4.8210467,6.118432 3.8203195,5.7806207 3.617768,5.6427294 Q 3.5965656,5.6325788 3.5753631,5.6216016 C 2.9656891,5.3301799 2.7138156,4.7747048 2.7677994,4.2983256 A 0.74832742,0.74832742 0 0 1 2.0775157,3.8641257 1.0990707,1.0990707 0 0 1 3.1488422,3.8211193 1.4510921,1.4510921 0 0 0 4.2429508,3.8641257 C 4.241803,3.840442 3.7346928,3.6385674 3.536953,3.4438355 3.4313164,3.3397027 3.3811675,3.2895534 3.3367327,3.2518851 A 0.87118156,0.87118156 0 0 0 3.2615438,3.1948945 C 3.2442517,3.1830908 3.224778,3.1703089 3.2013948,3.1549709 2.9888438,3.0167786 2.5661477,3.0243724 2.552163,3.0247482 H 2.550823 C 2.435338,2.878361 2.4434582,2.3956661 2.4500747,2.2948412 A 0.52088945,0.52088945 0 0 0 2.3527837,2.3464941 2.1221283,2.1221283 0 0 0 2.0679786,2.590473 2.5446744,2.5446744 0 0 0 1.7944515,2.9165553 v 4.374e-4 -5.465e-4 A 2.4610673,2.4610673 0 0 0 1.4034837,3.7993545 c -0.00145,0.00594 -0.1049599,0.4585602 -0.053909,0.6932909 z" />
    <path
       style="fill:url(#i);stroke-width:0.0751865"
       id="path996"
       d="m 5.264573,3.3427867 a 1.5864271,1.5864271 0 0 1 0.2706702,0.3533749 c 0.016015,0.012105 0.030977,0.024135 0.043683,0.035788 C 6.2395868,4.3409575 5.8934296,5.2018384 5.867641,5.2631151 6.4043191,4.8209458 6.7473187,4.1670518 6.6442384,3.4921063 6.3146223,2.670322 5.7559143,2.3391268 5.2996098,1.6179414 5.2765279,1.5814764 5.2534452,1.544936 5.2309651,1.5063653 5.2181069,1.4843362 5.2078078,1.4644867 5.1988609,1.4462165 a 0.53028767,0.53028767 0 0 1 -0.043457,-0.1154107 0.00751861,0.00751861 0 0 0 -0.00662,-0.00752 0.01037568,0.01037568 0 0 0 -0.00548,0 c -3.689e-4,0 -9.9e-4,6.818e-4 -0.00144,8.486e-4 -4.646e-4,1.503e-4 -0.00144,8.486e-4 -0.00211,0.00115 C 5.027056,1.3787399 4.3587266,2.4369842 5.264569,3.3428268 Z" />
    <path
       style="fill:url(#j);stroke-width:0.0751865"
       id="path998"
       d="M 5.578475,3.7315739 C 5.565769,3.7199199 5.550807,3.7078899 5.534792,3.6957849 5.528852,3.6913449 5.522988,3.6869149 5.516671,3.6824759 A 1.0059903,1.0059903 0 0 0 4.8140577,3.5118783 C 5.8621522,4.0359254 5.5809564,5.8405424 4.1284356,5.772424 A 1.2958327,1.2958327 0 0 1 3.749272,5.6992682 Q 3.706491,5.6832532 3.66371,5.6642312 C 3.647245,5.6567112 3.630778,5.6491932 3.614538,5.6407732 l 0.00202,0.00127 C 3.819121,5.7803084 4.8195474,6.1181199 5.8655369,5.2661107 l 0.00165,-0.00376 C 5.8932792,5.201454 6.239436,4.3403473 5.578475,3.7315655 Z" />
    <path
       style="fill:url(#k);stroke-width:0.0751865"
       id="path1000"
       d="m 2.9284652,4.6871144 c 0,0 0.1345078,-0.5012659 0.9631342,-0.5012659 0.089546,0 0.3458562,-0.2499938 0.3504427,-0.3224733 A 1.4510921,1.4510921 0 0 1 3.1479334,3.8203688 1.0990707,1.0990707 0 0 0 2.0766066,3.8633752 0.74832742,0.74832742 0 0 0 2.7668903,4.2975749 c -0.053984,0.4764546 0.1978896,1.0319298 0.807574,1.3232758 0.013612,0.00655 0.026391,0.01361 0.040375,0.01985 C 3.2589833,5.4568701 2.9651561,5.1092096 2.9284652,4.6871144 Z" />
    <path
       style="fill:url(#l);stroke-width:0.0751865"
       id="path1002"
       d="M 6.9330283,3.3399293 C 6.8064147,3.0352752 6.5495792,2.7063358 6.3484561,2.6023535 a 3.0274444,3.0274444 0 0 1 0.2951053,0.8844896 l 5.164e-4,0.00489 C 6.3146084,2.6703224 5.7559004,2.3391272 5.299596,1.617942 5.2765133,1.581477 5.2534314,1.5449366 5.2309513,1.5063658 5.2180939,1.4843368 5.207794,1.4644873 5.198847,1.4462171 A 0.53028767,0.53028767 0 0 1 5.15539,1.3308064 a 0.00751861,0.00751861 0 0 0 -0.00662,-0.00752 0.01037568,0.01037568 0 0 0 -0.00549,0 c -3.689e-4,0 -9.585e-4,6.714e-4 -0.00144,8.486e-4 -4.646e-4,1.503e-4 -0.00144,8.485e-4 -0.00211,0.00115 L 5.14088,1.323335 C 4.4089455,1.7518951 4.1606055,2.5452589 4.1377489,2.9420911 c 0.033984,-0.00233 0.067667,-0.00519 0.1024035,-0.00519 A 1.4706405,1.4706405 0 0 1 5.5169656,3.6824966 1.0059903,1.0059903 0 0 0 4.8143512,3.5118996 C 5.8624457,4.0359467 5.5812497,5.8405639 4.128729,5.7724454 A 1.2958327,1.2958327 0 0 1 3.7495647,5.6992904 q -0.042781,-0.016015 -0.085562,-0.035037 c -0.016466,-0.00752 -0.032932,-0.015038 -0.049172,-0.023458 l 0.00202,0.00129 q -0.021201,-0.01015 -0.042403,-0.021128 c 0.013612,0.00655 0.02639,0.01361 0.040375,0.01985 C 3.2589646,5.4568972 2.9651374,5.1092365 2.9284465,4.6871418 c 0,0 0.1345082,-0.5012658 0.9631343,-0.5012658 0.089547,0 0.3458561,-0.2499938 0.3504427,-0.3224734 C 4.2408756,3.8397191 3.7337651,3.6378442 3.5360256,3.4431122 3.430386,3.3389767 3.3802366,3.2888278 3.3358017,3.2511593 A 0.87118156,0.87118156 0 0 0 3.2606156,3.1941576 1.3509442,1.3509442 0 0 1 3.2524181,2.4819195 2.1582176,2.1582176 0 0 0 2.5510067,3.0240112 H 2.549671 C 2.4341826,2.877628 2.4423028,2.3949331 2.4489192,2.2941086 a 0.52088945,0.52088945 0 0 0 -0.097291,0.051653 2.1221283,2.1221283 0 0 0 -0.2848053,0.243979 2.5446744,2.5446744 0 0 0 -0.2723994,0.326834 v 4.373e-4 -5.465e-4 A 2.4610673,2.4610673 0 0 0 1.4034563,3.7993759 l -0.00391,0.019248 c -0.00548,0.025639 -0.030075,0.155861 -0.033608,0.1838302 0,0.00211 0,-0.00218 0,0 a 3.3904428,3.3904428 0 0 0 -0.043019,0.4062383 v 0.015038 a 2.9141388,2.9141388 0 0 0 5.7858935,0.4927662 c 0.0049,-0.037593 0.00887,-0.07481 0.013231,-0.1127792 A 2.9966933,2.9966933 0 0 0 6.9330288,3.3399297 Z m -0.2890909,0.1496957 5.164e-4,0.00308 z" />
  </g>
</svg>
