<?xml version="1.0" encoding="UTF-8" standalone="no"?>
<!-- Created with Inkscape (http://www.inkscape.org/) -->

<svg
   width="32"
   height="32"
   viewBox="0 0 32 32"
   version="1.1"
   id="svg5"
   inkscape:version="1.4.4 (dcaf3e7d9e, 2026-05-05)"
   sodipodi:docname="google-docs.svg"
   xmlns:inkscape="http://www.inkscape.org/namespaces/inkscape"
   xmlns:sodipodi="http://sodipodi.sourceforge.net/DTD/sodipodi-0.dtd"
   xmlns:xlink="http://www.w3.org/1999/xlink"
   xmlns="http://www.w3.org/2000/svg"
   xmlns:svg="http://www.w3.org/2000/svg">
  <sodipodi:namedview
     id="namedview7"
     pagecolor="#ffffff"
     bordercolor="#000000"
     borderopacity="0.25"
     inkscape:showpageshadow="2"
     inkscape:pageopacity="0.0"
     inkscape:pagecheckerboard="0"
     inkscape:deskcolor="#d1d1d1"
     inkscape:document-units="px"
     showgrid="false"
     inkscape:zoom="25.125"
     inkscape:cx="16"
     inkscape:cy="15.960199"
     inkscape:window-width="1920"
     inkscape:window-height="1012"
     inkscape:window-x="0"
     inkscape:window-y="0"
     inkscape:window-maximized="1"
     inkscape:current-layer="svg5" />
  <defs
     id="defs2">
    <mask
       maskUnits="userSpaceOnUse"
       id="mask9">
      <path
         id="path10"
         style="fill:#ffffff;stroke-width:0.999983"
         d="m 61.597653,8.0000019 c -8.943499,-2e-7 -13.411457,-0.00388 -16.958758,1.4005741 -5.134576,2.032858 -9.20541,6.103951 -11.238341,11.238341 -1.4045,3.547171 -1.400574,8.015585 -1.400574,16.958758 V 151.19605 c 0,8.94266 -0.004,13.41187 1.400574,16.95875 2.032703,5.13476 6.103568,9.20526 11.238341,11.23835 3.547301,1.40395 8.01526,1.40057 16.958758,1.40057 H 131.9976 c 8.94499,0 13.41174,0.003 16.95875,-1.40057 5.13457,-2.03285 9.20542,-6.10397 11.23835,-11.23835 1.405,-3.54688 1.40057,-8.02682 1.40057,-16.99251 0.001,-29.56591 0.032,-26.84927 0.0674,-75.76599 0.002,-2.372016 -0.007,-3.558845 -0.21937,-4.674204 -0.30667,-1.611907 -0.93396,-3.148352 -1.85608,-4.505462 -0.63799,-0.939065 -1.47762,-1.764659 -3.13863,-3.4255 L 101.65745,8.0000019 Z" />
    </mask>
    <filter
       id="b"
       x="31"
       y="8"
       width="130"
       height="196"
       filterUnits="userSpaceOnUse"
       color-interpolation-filters="sRGB">
      <feFlood
         flood-opacity="0"
         result="BackgroundImageFix"
         id="feFlood6" />
      <feBlend
         mode="normal"
         in="SourceGraphic"
         in2="BackgroundImageFix"
         result="shape"
         id="feBlend6" />
      <feGaussianBlur
         stdDeviation="6"
         result="effect1_foregroundBlur_37242_8762"
         id="feGaussianBlur6" />
    </filter>
    <linearGradient
       inkscape:collect="always"
       xlink:href="#linearGradient6"
       id="linearGradient8"
       x1="88.793152"
       y1="64.067459"
       x2="46.999973"
       y2="171.64619"
       gradientUnits="userSpaceOnUse" />
    <linearGradient
       id="linearGradient6"
       inkscape:collect="always">
      <stop
         style="stop-color:#3186ff;stop-opacity:1;"
         offset="0.32950369"
         id="stop7" />
      <stop
         style="stop-color:#a9a8ff;stop-opacity:1;"
         offset="1"
         id="stop8" />
    </linearGradient>
  </defs>
  <path
     d="M 13,3 C 3.8988095,3 2,4.939817 2,14 v 6 c 0,9.060183 1.8988095,11 11,11 h 6 c 9.10119,0 11,-1.939817 11,-11 V 14 C 30,4.939817 28.10119,3 19,3"
     style="opacity:0.2;fill:#000000;stroke-width:1;stroke-linecap:round;stroke-linejoin:round"
     id="path563" />
  <path
     id="path533"
     style="fill:#fafafa;fill-opacity:1;stroke-width:1;stroke-linecap:round;stroke-linejoin:round"
     d="M 13,2 C 3.898819,2 2,3.9398261 2,13 v 6 c 0,9.060174 1.898819,11 11,11 h 6 c 9.101182,0 11,-1.939826 11,-11 V 13 C 30,3.9398261 28.101182,2 19,2 Z" />
  <g
     mask="url(#mask9)"
     transform="matrix(0.11574495,0,0,0.11574495,5.2961639,5.0860121)"
     id="g4">
    <path
       id="path2"
       style="fill:#3186ff;fill-opacity:1;stroke-width:0.990835"
       d="M 31.99998,8.0000019 V 180.79372 H 161.59527 L 161.66276,66.908485 101.65745,8.0000019 Z" />
    <g
       filter="url(#b)"
       id="g3">
      <path
         d="M 46.999972,199.60011 H 152.99998 V 27.600102 H 46.999972 Z"
         style="fill:url(#linearGradient8);fill-opacity:1"
         id="path3" />
    </g>
  </g>
  <path
     id="path4"
     style="fill:#76bbff;fill-opacity:1;stroke-width:0.0185185"
     d="m 17.050528,6 v 4.537037 c 0,0.8182 0.663279,1.481481 1.481481,1.481481 h 3.842593 c 0.39064,0 0.75161,0.12953 1.041667,0.347223 z" />
  <rect
     x="12"
     y="17"
     width="9"
     height="2"
     id="rect4"
     style="fill:#ffffff;stroke-width:1"
     ry="1" />
  <rect
     x="12"
     y="21"
     width="7"
     height="2"
     id="rect5"
     style="fill:#ffffff;stroke-width:0.025"
     ry="1" />
</svg>
