<?xml version="1.0" encoding="UTF-8" standalone="no"?>
<!-- Created with Inkscape (http://www.inkscape.org/) -->

<svg
   width="32"
   height="32"
   viewBox="0 0 32 32"
   version="1.1"
   id="svg5"
   inkscape:version="1.2.1 (9c6d41e410, 2022-07-14)"
   sodipodi:docname="google-chrome-beta.svg"
   xmlns:inkscape="http://www.inkscape.org/namespaces/inkscape"
   xmlns:sodipodi="http://sodipodi.sourceforge.net/DTD/sodipodi-0.dtd"
   xmlns:xlink="http://www.w3.org/1999/xlink"
   xmlns="http://www.w3.org/2000/svg"
   xmlns:svg="http://www.w3.org/2000/svg">
  <sodipodi:namedview
     id="namedview7"
     pagecolor="#ffffff"
     bordercolor="#000000"
     borderopacity="0.25"
     inkscape:showpageshadow="2"
     inkscape:pageopacity="0.0"
     inkscape:pagecheckerboard="0"
     inkscape:deskcolor="#d1d1d1"
     inkscape:document-units="px"
     showgrid="false"
     inkscape:zoom="24.75"
     inkscape:cx="16"
     inkscape:cy="16"
     inkscape:window-width="1920"
     inkscape:window-height="1004"
     inkscape:window-x="0"
     inkscape:window-y="0"
     inkscape:window-maximized="1"
     inkscape:current-layer="svg5" />
  <defs
     id="defs2">
    <linearGradient
       inkscape:collect="always"
       xlink:href="#linearGradient12495"
       id="linearGradient12497"
       x1="3.7041574"
       y1="5.15939"
       x2="8.9958239"
       y2="5.15939"
       gradientUnits="userSpaceOnUse" />
    <linearGradient
       inkscape:collect="always"
       id="linearGradient12495">
      <stop
         style="stop-color:#db3328;stop-opacity:1;"
         offset="0"
         id="stop12491" />
      <stop
         style="stop-color:#e53d30;stop-opacity:1"
         offset="1"
         id="stop12493" />
    </linearGradient>
    <linearGradient
       inkscape:collect="always"
       xlink:href="#linearGradient13171"
       id="linearGradient13173"
       x1="4.4023013"
       y1="4.2994838"
       x2="5.9898009"
       y2="7.474484"
       gradientUnits="userSpaceOnUse" />
    <linearGradient
       inkscape:collect="always"
       id="linearGradient13171">
      <stop
         style="stop-color:#32a651;stop-opacity:1;"
         offset="0"
         id="stop13167" />
      <stop
         style="stop-color:#279847;stop-opacity:1"
         offset="1"
         id="stop13169" />
    </linearGradient>
  </defs>
  <path
     d="M 13,3 C 3.8988095,3 2,4.939817 2,14 v 6 c 0,9.060183 1.8988095,11 11,11 h 6 c 9.10119,0 11,-1.939817 11,-11 V 14 C 30,4.939817 28.10119,3 19,3"
     style="opacity:0.2;fill:#000000;stroke-width:1;stroke-linecap:round;stroke-linejoin:round"
     id="path563" />
  <path
     id="path533"
     style="fill:#fafafa;fill-opacity:1;stroke-width:1;stroke-linecap:round;stroke-linejoin:round"
     d="M 13,2 C 3.8988181,2 2,3.9398261 2,13 v 6 c 0,9.060174 1.8988181,11 11,11 h 6 c 9.101182,0 11,-1.939826 11,-11 V 13 C 30,3.9398261 28.101182,2 19,2 Z" />
  <g
     id="g13900"
     transform="matrix(2.2232514,0,0,2.2232514,1.8823532,1.8823532)">
    <path
       d="m 6.3499908,1.8520833 c -1.6648002,0 -3.1172325,0.9051142 -3.8949803,2.2495046 L 2.6017322,6.7248018 4.4023011,7.4744838 6.3499908,6.3500302 V 4.1010567 H 10.244704 C 9.4668234,2.7569983 8.014591,1.8520833 6.3499908,1.8520833 Z"
       style="fill:url(#linearGradient12497);fill-opacity:1;stroke-width:0.0175699"
       id="path1309" />
    <path
       d="m 1.8521097,6.3500302 c 0,2.4841174 2.013697,4.4978798 4.4978805,4.4978798 L 8.322717,9.7933342 8.2976798,7.4744838 6.3499902,6.3500302 4.4023011,7.4744838 2.4550101,4.1015879 C 2.0722656,4.7632044 1.8520833,5.5305796 1.8520833,6.3499639"
       style="fill:url(#linearGradient13173);fill-opacity:1;stroke-width:0.0175699"
       id="path1449"
       sodipodi:nodetypes="cccccccc" />
    <path
       d="m 6.3500375,6.3500302 1.947689,1.1244536 -1.947689,3.3734262 c 2.4841163,0 4.4978795,-2.0137624 4.4978795,-4.4978798 0,-0.819517 -0.220254,-1.5871712 -0.603213,-2.2489735 H 6.3499908 Z"
       style="fill:#fbbf12;stroke-width:0.0175699"
       id="path1829" />
    <path
       d="m 8.5990112,6.3500302 c 0,1.2420585 -1.0069151,2.2489734 -2.2489737,2.2489734 -1.242059,0 -2.2489739,-1.0069149 -2.2489739,-2.2489734 0,-1.2420588 1.0069149,-2.2489735 2.2489739,-2.2489735 1.2420586,0 2.2489737,1.0069147 2.2489737,2.2489735"
       style="fill:#ffffff;stroke-width:0.0175699"
       id="path2229" />
    <path
       d="m 8.1492041,6.3500006 c 0,0.9936381 -0.8055294,1.7991654 -1.7991667,1.7991654 -0.9936381,0 -1.7991668,-0.8055273 -1.7991668,-1.7991654 0,-0.9936377 0.8055287,-1.7991663 1.7991668,-1.7991663 0.9936373,0 1.7991667,0.8055286 1.7991667,1.7991663"
       style="fill:#4688f4;fill-opacity:1;stroke-width:0.0172995"
       id="path2029" />
  </g>
  <path
     id="path520"
     style="fill:#414342;stroke-linecap:round;stroke-linejoin:round;fill-opacity:1"
     d="M 6.4726562 19 A 10 9.9999924 0 0 0 16 26 A 10 9.9999924 0 0 0 25.527344 19 L 6.4726562 19 z " />
  <path
     id="path727"
     style="font-size:4px;font-family:'Google Sans';-inkscape-font-specification:'Google Sans';text-align:center;text-anchor:middle;fill:#ffffff;stroke-width:0.187758;stroke-linecap:round;stroke-linejoin:round"
     d="m 11.312076,20 v 3.520747 h 1.33289 c 0.186901,0 0.360476,-0.04203 0.521147,-0.127284 0.163949,-0.08525 0.293969,-0.202202 0.389059,-0.353036 0.09837,-0.154112 0.1489,-0.326163 0.1489,-0.516344 0,-0.19346 -0.05663,-0.362463 -0.168113,-0.506738 -0.111486,-0.144275 -0.255223,-0.245982 -0.432289,-0.305003 v -0.01921 c 0.147555,-0.06886 0.262979,-0.167516 0.348234,-0.295397 0.08853,-0.12788 0.132087,-0.278592 0.132087,-0.4491 0,-0.180343 -0.04508,-0.340848 -0.136892,-0.485123 C 13.355289,20.319237 13.229842,20.204459 13.07245,20.122484 12.918338,20.040504 12.754785,20 12.57772,20 Z m 5.857506,0.305004 v 0.708472 H 16.73249 v 0.379452 h 0.437092 v 1.469781 c 0,0.118043 0.01764,0.218225 0.05043,0.3002 0.03279,0.08197 0.08092,0.153843 0.146497,0.216144 0.05902,0.05574 0.13089,0.0993 0.216144,0.132089 0.08853,0.03279 0.184143,0.05043 0.28579,0.05043 0.0787,0 0.142944,-0.0046 0.192129,-0.01441 0.05246,-0.0098 0.104517,-0.02748 0.153702,-0.05043 V 23.08846 c -0.08853,0.05574 -0.181093,0.08405 -0.276184,0.08405 -0.118043,0 -0.209081,-0.03593 -0.27138,-0.108071 -0.05247,-0.06558 -0.07925,-0.167286 -0.07925,-0.305004 v -1.366512 h 0.610006 V 21.013471 H 17.58746 v -0.708472 z m -5.44443,0.09366 h 0.871781 c 0.114764,0 0.214946,0.02831 0.300201,0.08406 0.08853,0.05574 0.155828,0.127611 0.201733,0.216144 0.04919,0.08525 0.07205,0.17084 0.07205,0.259373 0,0.09181 -0.02286,0.182848 -0.07205,0.271381 -0.04918,0.08525 -0.119528,0.155598 -0.21134,0.211341 -0.08853,0.05574 -0.191763,0.08405 -0.309807,0.08405 h -0.852568 z m 3.566377,0.535557 c -0.242644,0 -0.455203,0.0612 -0.638825,0.182521 -0.183623,0.121323 -0.325837,0.284228 -0.427485,0.487526 -0.09837,0.203297 -0.1489,0.425 -0.1489,0.667645 0,0.252481 0.05358,0.48116 0.158506,0.684456 0.108206,0.200018 0.256517,0.35595 0.446698,0.470714 C 14.871704,23.54185 15.085787,23.6 15.325152,23.6 c 0.262319,0 0.486424,-0.05968 0.670047,-0.177718 0.186902,-0.118044 0.333688,-0.277024 0.441895,-0.48032 l -0.353037,-0.172916 c -0.173785,0.301667 -0.420753,0.451503 -0.742094,0.451503 -0.137717,0 -0.270785,-0.03289 -0.398666,-0.09847 -0.124601,-0.06558 -0.227831,-0.161835 -0.309806,-0.292996 -0.08197,-0.131159 -0.129456,-0.292539 -0.139293,-0.482721 h 1.983723 c 0.0098,-0.03607 0.01441,-0.0781 0.01441,-0.127284 0,-0.249203 -0.05053,-0.471784 -0.1489,-0.665244 -0.09509,-0.193461 -0.232731,-0.343296 -0.413076,-0.451502 -0.180343,-0.111484 -0.392902,-0.168112 -0.638826,-0.168111 z m 4.298867,0 c -0.209854,0 -0.402598,0.04203 -0.576384,0.127285 -0.170508,0.08525 -0.3051,0.204603 -0.403469,0.355437 l 0.31701,0.235357 c 0.06886,-0.108207 0.160543,-0.190745 0.278587,-0.249767 0.118043,-0.0623 0.248063,-0.09366 0.389059,-0.09366 0.200019,0 0.365973,0.05575 0.497132,0.170513 0.131159,0.111486 0.196931,0.262198 0.196931,0.449099 v 0.151301 c -0.06886,-0.04263 -0.169041,-0.08008 -0.3002,-0.112875 -0.12788,-0.03279 -0.267045,-0.04803 -0.417879,-0.04803 -0.304945,0 -0.558888,0.07492 -0.758906,0.22575 -0.200018,0.147556 -0.3002,0.354016 -0.3002,0.619614 0,0.16067 0.04138,0.304407 0.12008,0.432288 0.0787,0.124601 0.189547,0.22326 0.333822,0.295397 0.144276,0.07214 0.308706,0.108071 0.492329,0.108071 0.180345,0 0.340848,-0.04203 0.485123,-0.127284 0.144276,-0.08526 0.254481,-0.188485 0.326618,-0.309807 h 0.01921 v 0.357839 h 0.398666 V 21.93329 c 0,-0.308226 -0.09866,-0.550621 -0.295397,-0.727686 -0.19346,-0.180344 -0.461121,-0.271381 -0.802135,-0.271381 z m -4.30367,0.379452 c 0.170508,0 0.311196,0.03593 0.422682,0.108073 0.114764,0.07214 0.199705,0.159249 0.252168,0.264176 0.05246,0.104928 0.0799,0.212084 0.08646,0.317011 h -1.529821 c 0.04263,-0.206576 0.13214,-0.372529 0.266578,-0.497131 0.137717,-0.127881 0.305195,-0.192129 0.501933,-0.192129 z m -3.561574,0.605205 h 0.924616 c 0.124602,0 0.233929,0.02984 0.32902,0.08886 0.09509,0.05574 0.170885,0.130661 0.223348,0.225751 0.05246,0.09181 0.07685,0.187421 0.07685,0.285791 0,0.09837 -0.02439,0.193102 -0.07685,0.288192 -0.04918,0.09181 -0.121053,0.16913 -0.216144,0.228152 -0.09181,0.05902 -0.198967,0.08646 -0.317011,0.08646 h -0.943829 z m 7.908473,0.338627 c 0.12788,0 0.250279,0.01764 0.365043,0.05043 0.114764,0.03279 0.211898,0.07482 0.290594,0.127285 0,0.144275 -0.03593,0.277343 -0.108072,0.398666 -0.07214,0.121322 -0.169272,0.216054 -0.290593,0.288191 -0.121323,0.07214 -0.252867,0.110474 -0.393864,0.110474 -0.160669,0 -0.293737,-0.04443 -0.398666,-0.129684 -0.104927,-0.08526 -0.156104,-0.196106 -0.156104,-0.333824 0,-0.150833 0.05575,-0.274756 0.170514,-0.369846 0.118044,-0.09509 0.291619,-0.141694 0.521148,-0.141694 z" />
</svg>
