<?xml version="1.0" encoding="UTF-8" standalone="no"?>
<!-- Created with Inkscape (http://www.inkscape.org/) -->

<svg
   width="32"
   height="32"
   viewBox="0 0 32 32"
   version="1.1"
   id="svg5"
   inkscape:version="1.4.4 (dcaf3e7d9e, 2026-05-05)"
   sodipodi:docname="google-gemini.svg"
   xmlns:inkscape="http://www.inkscape.org/namespaces/inkscape"
   xmlns:sodipodi="http://sodipodi.sourceforge.net/DTD/sodipodi-0.dtd"
   xmlns:xlink="http://www.w3.org/1999/xlink"
   xmlns="http://www.w3.org/2000/svg"
   xmlns:svg="http://www.w3.org/2000/svg">
  <sodipodi:namedview
     id="namedview7"
     pagecolor="#ffffff"
     bordercolor="#000000"
     borderopacity="0.25"
     inkscape:showpageshadow="2"
     inkscape:pageopacity="0.0"
     inkscape:pagecheckerboard="0"
     inkscape:deskcolor="#d1d1d1"
     inkscape:document-units="px"
     showgrid="false"
     inkscape:zoom="25.9375"
     inkscape:cx="16"
     inkscape:cy="16"
     inkscape:window-width="1920"
     inkscape:window-height="1010"
     inkscape:window-x="0"
     inkscape:window-y="0"
     inkscape:window-maximized="1"
     inkscape:current-layer="svg5" />
  <defs
     id="defs2">
    <radialGradient
       inkscape:collect="always"
       xlink:href="#linearGradient1"
       id="radialGradient2"
       cx="6.0314078"
       cy="5.2960987"
       fx="6.0314078"
       fy="5.2960987"
       r="5"
       gradientUnits="userSpaceOnUse"
       gradientTransform="matrix(2.5627586,-0.01376826,0.01227182,2.2842118,-2.5013457,-1.5454038)" />
    <linearGradient
       id="linearGradient1"
       inkscape:collect="always">
      <stop
         style="stop-color:#fc413d;stop-opacity:1;"
         offset="0"
         id="stop1" />
      <stop
         style="stop-color:#fc413d;stop-opacity:0;"
         offset="1"
         id="stop2" />
    </linearGradient>
    <radialGradient
       inkscape:collect="always"
       xlink:href="#linearGradient2"
       id="radialGradient4"
       cx="4.4745617"
       cy="7.4917331"
       fx="4.4745617"
       fy="7.4917331"
       r="5"
       gradientUnits="userSpaceOnUse"
       gradientTransform="matrix(1.9999999,0,0,1.7136858,0.42979218,3.7467786)" />
    <linearGradient
       id="linearGradient2"
       inkscape:collect="always">
      <stop
         style="stop-color:#fbbc04;stop-opacity:1;"
         offset="0"
         id="stop3" />
      <stop
         style="stop-color:#fbbc04;stop-opacity:0;"
         offset="1"
         id="stop4" />
    </linearGradient>
    <radialGradient
       inkscape:collect="always"
       xlink:href="#linearGradient8"
       id="radialGradient10"
       cx="6.3957481"
       cy="12.007661"
       fx="6.3957481"
       fy="12.007661"
       r="5"
       gradientUnits="userSpaceOnUse"
       gradientTransform="matrix(1.9337698,-0.01462579,0.01293332,1.7099966,0.22162368,3.5604819)" />
    <linearGradient
       id="linearGradient8"
       inkscape:collect="always">
      <stop
         style="stop-color:#00b95c;stop-opacity:1;"
         offset="0"
         id="stop9" />
      <stop
         style="stop-color:#00b95c;stop-opacity:0;"
         offset="1"
         id="stop10" />
    </linearGradient>
  </defs>
  <path
     d="M 13,3 C 3.8988095,3 2,4.939817 2,14 v 6 c 0,9.060183 1.8988095,11 11,11 h 6 c 9.10119,0 11,-1.939817 11,-11 V 14 C 30,4.939817 28.10119,3 19,3"
     style="opacity:0.2;fill:#000000;stroke-width:1;stroke-linecap:round;stroke-linejoin:round"
     id="path563" />
  <path
     id="path533"
     style="fill:#fafafa;fill-opacity:1;stroke-width:1;stroke-linecap:round;stroke-linejoin:round"
     d="M 13,2 C 3.898819,2 2,3.9398261 2,13 v 6 c 0,9.060174 1.898819,11 11,11 h 6 c 9.101182,0 11,-1.939826 11,-11 V 13 C 30,3.9398261 28.101182,2 19,2 Z" />
  <path
     d="m 16,6 c 0,5.522848 -4.477152,10 -10,10 5.522848,0 10,4.477152 10,10 C 16,20.477152 20.477152,16 26,16 20.477152,16 16,11.522848 16,6 Z"
     style="fill:#3186ff;fill-opacity:1;stroke-width:1"
     id="path1" />
  <path
     d="m 16,6 c 0,5.522848 -4.477152,10 -10,10 5.522848,0 10,4.477152 10,10 C 16,20.477152 20.477152,16 26,16 20.477152,16 16,11.522848 16,6 Z"
     style="fill:url(#radialGradient2);fill-opacity:1;stroke-width:1"
     id="path2" />
  <path
     d="m 16,6 c 0,5.522848 -4.477152,10 -10,10 5.522848,0 10,4.477152 10,10 C 16,20.477152 20.477152,16 26,16 20.477152,16 16,11.522848 16,6 Z"
     style="fill:url(#radialGradient4);fill-opacity:1;stroke-width:1"
     id="path3" />
  <path
     d="m 16,6 c 0,5.522848 -4.477152,10 -10,10 5.522848,0 10,4.477152 10,10 C 16,20.477152 20.477152,16 26,16 20.477152,16 16,11.522848 16,6 Z"
     style="fill:url(#radialGradient10);stroke-width:1"
     id="path4" />
</svg>
