<?xml version="1.0" encoding="UTF-8" standalone="no"?>
<!-- Created with Inkscape (http://www.inkscape.org/) -->

<svg
   width="32"
   height="32"
   viewBox="0 0 32 32"
   version="1.1"
   id="svg5"
   inkscape:version="1.4.4 (dcaf3e7d9e, 2026-05-05)"
   sodipodi:docname="google-slides.svg"
   xmlns:inkscape="http://www.inkscape.org/namespaces/inkscape"
   xmlns:sodipodi="http://sodipodi.sourceforge.net/DTD/sodipodi-0.dtd"
   xmlns:xlink="http://www.w3.org/1999/xlink"
   xmlns="http://www.w3.org/2000/svg"
   xmlns:svg="http://www.w3.org/2000/svg">
  <sodipodi:namedview
     id="namedview7"
     pagecolor="#ffffff"
     bordercolor="#000000"
     borderopacity="0.25"
     inkscape:showpageshadow="2"
     inkscape:pageopacity="0.0"
     inkscape:pagecheckerboard="0"
     inkscape:deskcolor="#d1d1d1"
     inkscape:document-units="px"
     showgrid="false"
     inkscape:zoom="25.0625"
     inkscape:cx="16"
     inkscape:cy="16"
     inkscape:window-width="1920"
     inkscape:window-height="1010"
     inkscape:window-x="0"
     inkscape:window-y="0"
     inkscape:window-maximized="1"
     inkscape:current-layer="svg5" />
  <defs
     id="defs2">
    <linearGradient
       id="linearGradient7"
       inkscape:collect="always">
      <stop
         style="stop-color:#fff549;stop-opacity:1;"
         offset="0"
         id="stop7" />
      <stop
         style="stop-color:#ffbe00;stop-opacity:0;"
         offset="1"
         id="stop8" />
    </linearGradient>
    <linearGradient
       id="linearGradient4"
       inkscape:collect="always">
      <stop
         style="stop-color:#ffbe00;stop-opacity:1;"
         offset="0"
         id="stop5" />
      <stop
         style="stop-color:#fec700;stop-opacity:1;"
         offset="1"
         id="stop6" />
    </linearGradient>
    <linearGradient
       id="linearGradient2"
       inkscape:collect="always">
      <stop
         style="stop-color:#ffdb0f;stop-opacity:1;"
         offset="0.20075995"
         id="stop2" />
      <stop
         style="stop-color:#ffbe00;stop-opacity:1;"
         offset="0.66614175"
         id="stop4" />
      <stop
         style="stop-color:#ffa8e3;stop-opacity:1;"
         offset="0.90882242"
         id="stop3" />
    </linearGradient>
    <linearGradient
       inkscape:collect="always"
       xlink:href="#linearGradient2"
       id="linearGradient3"
       x1="11.844881"
       y1="10.397112"
       x2="18.162739"
       y2="27.397112"
       gradientUnits="userSpaceOnUse"
       gradientTransform="translate(0.79921263,-0.47637113)" />
    <linearGradient
       inkscape:collect="always"
       xlink:href="#linearGradient4"
       id="linearGradient6"
       x1="16"
       y1="9"
       x2="16"
       y2="24"
       gradientUnits="userSpaceOnUse" />
    <linearGradient
       inkscape:collect="always"
       xlink:href="#linearGradient7"
       id="linearGradient8"
       x1="22.231325"
       y1="25.664824"
       x2="14.356627"
       y2="9"
       gradientUnits="userSpaceOnUse" />
  </defs>
  <path
     d="M 13,3 C 3.8988095,3 2,4.939817 2,14 v 6 c 0,9.060183 1.8988095,11 11,11 h 6 c 9.10119,0 11,-1.939817 11,-11 V 14 C 30,4.939817 28.10119,3 19,3"
     style="opacity:0.2;fill:#000000;stroke-width:1;stroke-linecap:round;stroke-linejoin:round"
     id="path563" />
  <path
     id="path533"
     style="fill:#fafafa;fill-opacity:1;stroke-width:1;stroke-linecap:round;stroke-linejoin:round"
     d="M 13,2 C 3.898819,2 2,3.9398261 2,13 v 6 c 0,9.060174 1.898819,11 11,11 h 6 c 9.101182,0 11,-1.939826 11,-11 V 13 C 30,3.9398261 28.101182,2 19,2 Z" />
  <rect
     style="fill:url(#linearGradient3)"
     id="rect2"
     width="17"
     height="17"
     x="5.0584812"
     y="9.9207411"
     ry="3"
     transform="rotate(-7.5)" />
  <rect
     style="fill:url(#linearGradient6);fill-opacity:1"
     id="rect1"
     width="20"
     height="15"
     x="6"
     y="9"
     ry="3" />
  <rect
     style="fill:url(#linearGradient8);fill-opacity:1"
     id="rect6"
     width="20"
     height="15"
     x="6"
     y="9"
     ry="3" />
  <path
     id="rect1220"
     style="fill:#ffffff;stroke-width:0.61237;stroke-linecap:square;stroke-linejoin:bevel"
     d="M 9 12 L 9 21 L 23 21 L 23 12 L 9 12 z M 10 13 L 22 13 L 22 20 L 10 20 L 10 13 z " />
</svg>
