<?xml version="1.0" encoding="UTF-8" standalone="no"?>
<!-- Created with Inkscape (http://www.inkscape.org/) -->

<svg
   width="32"
   height="32"
   viewBox="0 0 32 32"
   version="1.1"
   id="svg5"
   inkscape:version="1.2.1 (9c6d41e410, 2022-07-14)"
   sodipodi:docname="gwenview.svg"
   xmlns:inkscape="http://www.inkscape.org/namespaces/inkscape"
   xmlns:sodipodi="http://sodipodi.sourceforge.net/DTD/sodipodi-0.dtd"
   xmlns:xlink="http://www.w3.org/1999/xlink"
   xmlns="http://www.w3.org/2000/svg"
   xmlns:svg="http://www.w3.org/2000/svg">
  <sodipodi:namedview
     id="namedview7"
     pagecolor="#ffffff"
     bordercolor="#000000"
     borderopacity="0.25"
     inkscape:showpageshadow="2"
     inkscape:pageopacity="0.0"
     inkscape:pagecheckerboard="0"
     inkscape:deskcolor="#d1d1d1"
     inkscape:document-units="px"
     showgrid="false"
     inkscape:zoom="24.75"
     inkscape:cx="15.979798"
     inkscape:cy="16"
     inkscape:window-width="1920"
     inkscape:window-height="1004"
     inkscape:window-x="0"
     inkscape:window-y="0"
     inkscape:window-maximized="1"
     inkscape:current-layer="svg5"
     showguides="true" />
  <defs
     id="defs2">
    <linearGradient
       inkscape:collect="always"
       id="linearGradient928">
      <stop
         style="stop-color:#ef7fb2;stop-opacity:1;"
         offset="0"
         id="stop924" />
      <stop
         style="stop-color:#c01c66;stop-opacity:1;"
         offset="1"
         id="stop926" />
    </linearGradient>
    <linearGradient
       inkscape:collect="always"
       xlink:href="#linearGradient928"
       id="linearGradient3500"
       x1="30"
       y1="30"
       x2="2"
       y2="2"
       gradientUnits="userSpaceOnUse" />
  </defs>
  <path
     d="M 13,3 C 3.8988095,3 2,4.939817 2,14 v 6 c 0,9.060183 1.8988095,11 11,11 h 6 c 9.10119,0 11,-1.939817 11,-11 V 14 C 30,4.939817 28.10119,3 19,3"
     style="opacity:0.2;fill:#000000;stroke-width:1;stroke-linecap:round;stroke-linejoin:round"
     id="path563" />
  <path
     id="path530"
     style="fill:url(#linearGradient3500);fill-opacity:1;stroke-width:1;stroke-linecap:round;stroke-linejoin:round"
     d="M 13,2 C 3.8988186,2 2,3.9398261 2,13 v 6 c 0,9.060174 1.8988186,11 11,11 h 6 c 9.101182,0 11,-1.939826 11,-11 V 13 C 30,3.9398261 28.101182,2 19,2 Z" />
  <path
     id="path1204"
     style="opacity:0.5;fill:#ffffff;stroke-width:0.555555;stroke-linecap:round;stroke-linejoin:round"
     d="m 16,11 c -2.761421,0 -5,2.238579 -5,5 0,2.761421 2.238579,5 5,5 2.761421,0 5,-2.238579 5,-5 0,-2.761421 -2.238579,-5 -5,-5 z m 0,2 c 1.656853,0 3,1.343147 3,3 0,1.656853 -1.343147,3 -3,3 -1.656853,0 -3,-1.343147 -3,-3 0,-1.656853 1.343147,-3 3,-3 z" />
  <path
     id="path1336"
     style="color:#000000;fill:#ffffff;stroke:none;stroke-width:1;stroke-linecap:round;stroke-linejoin:round"
     d="M 15.998047,10 C 9.742613,9.98919 6.0800781,15.728516 6.0800781,15.728516 a 0.50005,0.50005 0 0 0 -0.00391,0.535156 c 0,0 3.5519721,5.7439 9.9257809,5.736328 6.372524,0.0063 9.923828,-5.736328 9.923828,-5.736328 a 0.50005,0.50005 0 0 0 -0.0059,-0.535156 c 0,0 -3.664486,-5.739322 -9.919922,-5.728516 z M 16,11 c 2.761421,0 5,2.238579 5,5 0,2.761421 -2.238579,5 -5,5 -2.761421,0 -5,-2.238579 -5,-5 0,-2.761421 2.238579,-5 5,-5 z" />
</svg>
