<?xml version="1.0" encoding="UTF-8" standalone="no"?>
<!-- Created with Inkscape (http://www.inkscape.org/) -->

<svg
   width="32"
   height="32"
   viewBox="0 0 32 32"
   version="1.1"
   id="svg5"
   inkscape:version="1.2.1 (9c6d41e410, 2022-07-14)"
   sodipodi:docname="KakaoTalk.svg"
   xmlns:inkscape="http://www.inkscape.org/namespaces/inkscape"
   xmlns:sodipodi="http://sodipodi.sourceforge.net/DTD/sodipodi-0.dtd"
   xmlns="http://www.w3.org/2000/svg"
   xmlns:svg="http://www.w3.org/2000/svg">
  <sodipodi:namedview
     id="namedview7"
     pagecolor="#ffffff"
     bordercolor="#000000"
     borderopacity="0.25"
     inkscape:showpageshadow="2"
     inkscape:pageopacity="0.0"
     inkscape:pagecheckerboard="0"
     inkscape:deskcolor="#d1d1d1"
     inkscape:document-units="px"
     showgrid="false"
     inkscape:zoom="24.75"
     inkscape:cx="15.979798"
     inkscape:cy="16"
     inkscape:window-width="1920"
     inkscape:window-height="1004"
     inkscape:window-x="0"
     inkscape:window-y="0"
     inkscape:window-maximized="1"
     inkscape:current-layer="svg5"
     showguides="false" />
  <defs
     id="defs2" />
  <path
     d="M 13,3 C 3.8988095,3 2,4.939817 2,14 v 6 c 0,9.060183 1.8988095,11 11,11 h 6 c 9.10119,0 11,-1.939817 11,-11 V 14 C 30,4.939817 28.10119,3 19,3"
     style="opacity:0.2;fill:#000000;stroke-width:1;stroke-linecap:round;stroke-linejoin:round"
     id="path563" />
  <path
     id="path530"
     style="fill:#ffdb0b;stroke-width:1;stroke-linecap:round;stroke-linejoin:round;fill-opacity:1"
     d="M 13 2 C 3.8988186 2 2 3.9398261 2 13 L 2 19 C 2 28.060174 3.8988186 30 13 30 L 19 30 C 28.101182 30 30 28.060174 30 19 L 30 13 C 30 3.9398261 28.101182 2 19 2 L 13 2 z " />
  <path
     id="path12794"
     style="fill:#353535;stroke-width:0.5"
     d="M 16,6 C 9.9248678,6 5,10.029437 5,15 c 0.00332,2.646286 1.4298992,5.157271 3.9003905,6.865234 L 7.5,27 12.416992,23.488281 C 13.568348,23.820346 14.779233,23.993283 16,24 22.075132,24 27,19.970563 27,15 27,10.029437 22.075132,6 16,6 Z m -9.0004045,6 h 3 c 0.2769995,0 0.5000005,0.223001 0.5000005,0.5 0,0.277 -0.223001,0.5 -0.5000005,0.5 h -1 v 4.5 c 0,0.277 -0.2230005,0.5 -0.5,0.5 -0.2769995,0 -0.5,-0.223 -0.5,-0.5 V 13 h -1 c -0.2769995,0 -0.5,-0.223 -0.5,-0.5 0,-0.276999 0.2230005,-0.5 0.5,-0.5 z m 5.7324225,0 c 0.0064,-2.48e-4 0.01307,-2e-6 0.01953,0 0.0094,5e-5 0.01897,4.27e-4 0.02832,10e-4 6.5e-4,3.7e-5 0.0013,-3.9e-5 0.002,0 0.0036,2.5e-4 0.0071,7e-4 0.01074,0.001 0.0111,9e-4 0.02207,0.0022 0.03321,0.0039 0.0066,10e-4 0.01303,0.0026 0.01953,0.0039 0.0095,0.0018 0.019,0.0035 0.02832,0.0059 0.0029,7e-4 0.0059,0.0011 0.0088,0.0019 0.01037,0.0028 0.02023,0.0064 0.03027,0.0098 0.0155,0.0052 0.03027,0.01103 0.04492,0.01758 0.01484,0.0066 0.02904,0.01356 0.04297,0.02149 0.128823,0.07331 0.216694,0.199926 0.243164,0.342774 l 1.742188,5.006835 c 0.07169,0.267561 -0.08595,0.540613 -0.353516,0.612305 -0.267561,0.07169 -0.540612,-0.08595 -0.612304,-0.353516 L 13.679284,16.5 h -1.855469 l -0.34082,1.174804 c -0.07169,0.267563 -0.344744,0.425209 -0.612305,0.353516 -0.267562,-0.07169 -0.425209,-0.344744 -0.353516,-0.612305 l 1.740235,-5.002929 c 0.02557,-0.144654 0.11486,-0.272711 0.245117,-0.34668 0.01353,-0.0077 0.02758,-0.01501 0.04199,-0.02149 0.01371,-0.0062 0.02753,-0.0116 0.04199,-0.0166 0.0035,-0.0013 0.0073,-0.0018 0.01074,-0.003 0.0079,-0.0025 0.01539,-0.0057 0.02344,-0.0078 0.003,-8e-4 0.0058,-0.0012 0.0088,-0.002 0.01368,-0.0035 0.02701,-0.0065 0.04101,-0.0088 0.002,-3.5e-4 0.0038,-7e-4 0.0059,-0.001 0.01099,-0.0016 0.02205,-0.003 0.03321,-0.0039 0.0035,-3e-4 0.0072,-7.5e-4 0.01074,-10e-4 6.5e-4,-4e-5 0.0013,3.8e-5 0.0019,0 0.0032,-2e-4 0.0065,-8.5e-4 0.0098,-0.001 z m 3.767577,0 c 0.277,0 0.5,0.223001 0.5,0.5 V 17 h 2.5 c 0.277,0 0.5,0.223001 0.5,0.5 0,0.277 -0.223,0.5 -0.5,0.5 h -3 c -0.277,0 -0.499999,-0.223 -0.499999,-0.5 v -5 c 0,-0.276999 0.222999,-0.5 0.499999,-0.5 z m 5,0 c 0.277,0 0.5,0.223001 0.5,0.5 v 1.606446 l 1.617187,-1.927735 c 0.178052,-0.212194 0.491909,-0.239575 0.704102,-0.06152 0.212195,0.178052 0.243907,0.496596 0.06152,0.705078 l -1.882812,2.152344 1.882812,2.153319 c 0.178052,0.212195 0.150672,0.527026 -0.06152,0.705079 -0.212193,0.178052 -0.52605,0.15067 -0.704102,-0.06152 L 21.999595,15.84375 V 17.5 c 0,0.277 -0.223,0.5 -0.5,0.5 -0.276998,0 -0.5,-0.223 -0.5,-0.5 v -5 c 0,-0.276999 0.223002,-0.5 0.5,-0.5 z M 12.751549,13.799805 12.113853,15.5 h 1.275391 z"
     sodipodi:nodetypes="scccccsssssscssscsssccscccccccccccsccccsccccccccccccsccsscsssssssssccscccsccssssscccc" />
</svg>
