<?xml version="1.0" encoding="UTF-8" standalone="no"?>
<!-- Created with Inkscape (http://www.inkscape.org/) -->

<svg
   width="32"
   height="32"
   viewBox="0 0 32 32"
   version="1.1"
   id="svg5"
   inkscape:version="1.2.1 (9c6d41e410, 2022-07-14)"
   sodipodi:docname="kdeconnect.svg"
   xmlns:inkscape="http://www.inkscape.org/namespaces/inkscape"
   xmlns:sodipodi="http://sodipodi.sourceforge.net/DTD/sodipodi-0.dtd"
   xmlns:xlink="http://www.w3.org/1999/xlink"
   xmlns="http://www.w3.org/2000/svg"
   xmlns:svg="http://www.w3.org/2000/svg">
  <sodipodi:namedview
     id="namedview7"
     pagecolor="#ffffff"
     bordercolor="#000000"
     borderopacity="0.25"
     inkscape:showpageshadow="2"
     inkscape:pageopacity="0.0"
     inkscape:pagecheckerboard="0"
     inkscape:deskcolor="#d1d1d1"
     inkscape:document-units="px"
     showgrid="false"
     inkscape:zoom="25.5625"
     inkscape:cx="16"
     inkscape:cy="16"
     inkscape:window-width="1920"
     inkscape:window-height="1004"
     inkscape:window-x="0"
     inkscape:window-y="0"
     inkscape:window-maximized="1"
     inkscape:current-layer="svg5" />
  <defs
     id="defs2">
    <linearGradient
       inkscape:collect="always"
       xlink:href="#linearGradient3201"
       id="linearGradient4780"
       x1="1.9999999"
       y1="2"
       x2="30"
       y2="30"
       gradientUnits="userSpaceOnUse" />
    <linearGradient
       inkscape:collect="always"
       id="linearGradient3201">
      <stop
         style="stop-color:#3daee9;stop-opacity:1;"
         offset="0"
         id="stop3197" />
      <stop
         style="stop-color:#5fd3ff;stop-opacity:1;"
         offset="1"
         id="stop3199" />
    </linearGradient>
  </defs>
  <path
     d="M 13,3 C 3.8988095,3 2,4.939817 2,14 v 6 c 0,9.060183 1.8988095,11 11,11 h 6 c 9.10119,0 11,-1.939817 11,-11 V 14 C 30,4.939817 28.10119,3 19,3"
     style="opacity:0.2;fill:#000000;stroke-width:1;stroke-linecap:round;stroke-linejoin:round"
     id="path563" />
  <path
     id="path530"
     style="fill:url(#linearGradient4780);fill-opacity:1;stroke-width:1;stroke-linecap:round;stroke-linejoin:round"
     d="M 13,2 C 3.8988186,2 2,3.9398261 2,13 v 6 c 0,9.060174 1.8988186,11 11,11 h 6 c 9.101182,0 11,-1.939826 11,-11 V 13 C 30,3.9398261 28.101182,2 19,2 Z" />
  <path
     id="rect634"
     style="fill:#ffffff;stroke-linejoin:round"
     d="M 11 5 C 9.8920011 5 9 5.8920011 9 7 L 9 25 C 9 26.107999 9.8920011 27 11 27 L 21 27 C 22.107999 27 23 26.107999 23 25 L 23 7 C 23 5.8920011 22.107999 5 21 5 L 11 5 z M 14 23 L 18 23 C 18.553999 23 19 23.446001 19 24 C 19 24.553999 18.553999 25 18 25 L 14 25 C 13.446001 25 13 24.553999 13 24 C 13 23.446001 13.446001 23 14 23 z " />
  <path
     id="path488"
     style="opacity:0.8;fill:#4ab2ec;fill-opacity:1;stroke-width:0.999999"
     d="M 14 10 A 1 1 0 0 0 13 11 A 1 1 0 0 0 14 12 A 1 1 0 0 0 15 11 A 1 1 0 0 0 14 10 z M 17.5 10 L 16.5 11 L 19 13.5 L 16.5 16 L 17.5 17 L 21 13.5 L 17.5 10 z M 12 13.5 A 1 1 0 0 0 11 14.5 A 1 1 0 0 0 12 15.5 A 1 1 0 0 0 13 14.5 A 1 1 0 0 0 12 13.5 z M 14.5 17 A 1.5 1.5 0 0 0 13 18.5 A 1.5 1.5 0 0 0 14.5 20 A 1.5 1.5 0 0 0 16 18.5 A 1.5 1.5 0 0 0 14.5 17 z " />
</svg>
