<?xml version="1.0" encoding="UTF-8" standalone="no"?>
<!-- Created with Inkscape (http://www.inkscape.org/) -->

<svg
   width="32"
   height="32"
   viewBox="0 0 32 32"
   version="1.1"
   id="svg5"
   inkscape:version="1.2.1 (9c6d41e410, 2022-07-14)"
   sodipodi:docname="kwalletmanager.svg"
   xmlns:inkscape="http://www.inkscape.org/namespaces/inkscape"
   xmlns:sodipodi="http://sodipodi.sourceforge.net/DTD/sodipodi-0.dtd"
   xmlns:xlink="http://www.w3.org/1999/xlink"
   xmlns="http://www.w3.org/2000/svg"
   xmlns:svg="http://www.w3.org/2000/svg">
  <sodipodi:namedview
     id="namedview7"
     pagecolor="#ffffff"
     bordercolor="#000000"
     borderopacity="0.25"
     inkscape:showpageshadow="2"
     inkscape:pageopacity="0.0"
     inkscape:pagecheckerboard="0"
     inkscape:deskcolor="#d1d1d1"
     inkscape:document-units="px"
     showgrid="false"
     inkscape:zoom="25.8125"
     inkscape:cx="15.98063"
     inkscape:cy="16"
     inkscape:window-width="1920"
     inkscape:window-height="1006"
     inkscape:window-x="0"
     inkscape:window-y="0"
     inkscape:window-maximized="1"
     inkscape:current-layer="svg5"
     showguides="false" />
  <defs
     id="defs2">
    <linearGradient
       inkscape:collect="always"
       xlink:href="#linearGradient2572"
       id="linearGradient3500"
       x1="2"
       y1="2"
       x2="30"
       y2="30"
       gradientUnits="userSpaceOnUse" />
    <linearGradient
       inkscape:collect="always"
       id="linearGradient2572">
      <stop
         style="stop-color:#bd9565;stop-opacity:1;"
         offset="0"
         id="stop2568" />
      <stop
         style="stop-color:#dec18b;stop-opacity:1;"
         offset="1"
         id="stop2570" />
    </linearGradient>
    <linearGradient
       inkscape:collect="always"
       xlink:href="#linearGradient2572"
       id="linearGradient5220"
       x1="2"
       y1="2"
       x2="30"
       y2="30"
       gradientUnits="userSpaceOnUse"
       gradientTransform="translate(0,2)" />
  </defs>
  <path
     d="M 13,3 C 3.8988095,3 2,4.939817 2,14 v 6 c 0,9.060183 1.8988095,11 11,11 h 6 c 9.10119,0 11,-1.939817 11,-11 V 14 C 30,4.939817 28.10119,3 19,3"
     style="opacity:0.2;fill:#000000;stroke-width:1;stroke-linecap:round;stroke-linejoin:round"
     id="path563" />
  <path
     id="path530"
     style="fill:url(#linearGradient3500);stroke-width:1;stroke-linecap:round;stroke-linejoin:round;fill-opacity:1.0"
     d="M 13 2 C 3.8988186 2 2 3.9398261 2 13 L 2 19 C 2 28.060174 3.8988186 30 13 30 L 19 30 C 28.101182 30 30 28.060174 30 19 L 30 13 C 30 3.9398261 28.101182 2 19 2 L 13 2 z " />
  <rect
     style="opacity:1;fill:#9f825a;fill-opacity:1;stroke-width:4;stroke-linecap:round;stroke-linejoin:round"
     id="rect5398"
     width="12"
     height="10"
     x="7"
     y="7"
     ry="2" />
  <path
     id="rect419"
     style="opacity:1;fill:#eaddca;fill-opacity:1;stroke-width:8;stroke-linecap:round;stroke-linejoin:round"
     d="M 7 9 L 7 13 L 7 23 C 7 24.107999 7.8920011 25 9 25 L 23 25 C 24.107999 25 25 24.107999 25 23 L 25 13 C 25 11.892001 24.107999 11 23 11 L 11 11 L 9 11 A 2 2 0 0 1 7 9 z " />
  <rect
     style="fill:#ffffff;stroke-width:8;stroke-linecap:round;stroke-linejoin:round"
     id="rect421"
     width="8"
     height="4"
     x="19"
     y="16"
     ry="1" />
  <circle
     style="opacity:1;fill:url(#linearGradient5220);fill-opacity:1;stroke-width:4;stroke-linecap:round;stroke-linejoin:round"
     id="path5204"
     cx="25.000002"
     cy="18"
     r="1" />
</svg>
