<?xml version="1.0" encoding="UTF-8" standalone="no"?>
<!-- Created with Inkscape (http://www.inkscape.org/) -->

<svg
   width="32"
   height="32"
   viewBox="0 0 32 32"
   version="1.1"
   id="svg5"
   inkscape:version="1.2.2 (b0a8486541, 2022-12-01)"
   sodipodi:docname="libreoffice-impress.svg"
   xmlns:inkscape="http://www.inkscape.org/namespaces/inkscape"
   xmlns:sodipodi="http://sodipodi.sourceforge.net/DTD/sodipodi-0.dtd"
   xmlns:xlink="http://www.w3.org/1999/xlink"
   xmlns="http://www.w3.org/2000/svg"
   xmlns:svg="http://www.w3.org/2000/svg">
  <sodipodi:namedview
     id="namedview7"
     pagecolor="#ffffff"
     bordercolor="#000000"
     borderopacity="0.25"
     inkscape:showpageshadow="2"
     inkscape:pageopacity="0.0"
     inkscape:pagecheckerboard="0"
     inkscape:deskcolor="#d1d1d1"
     inkscape:document-units="px"
     showgrid="false"
     inkscape:zoom="25.03125"
     inkscape:cx="16"
     inkscape:cy="16"
     inkscape:window-width="1920"
     inkscape:window-height="998"
     inkscape:window-x="0"
     inkscape:window-y="0"
     inkscape:window-maximized="1"
     inkscape:current-layer="svg5"
     showguides="false" />
  <defs
     id="defs2">
    <linearGradient
       inkscape:collect="always"
       id="linearGradient2879">
      <stop
         style="stop-color:#d75112;stop-opacity:1;"
         offset="0"
         id="stop2875" />
      <stop
         style="stop-color:#f47700;stop-opacity:1;"
         offset="1"
         id="stop2877" />
    </linearGradient>
    <linearGradient
       inkscape:collect="always"
       xlink:href="#linearGradient2879"
       id="linearGradient3500"
       x1="2"
       y1="2"
       x2="30"
       y2="30"
       gradientUnits="userSpaceOnUse" />
  </defs>
  <path
     d="M 13,3 C 3.8988095,3 2,4.939817 2,14 v 6 c 0,9.060183 1.8988095,11 11,11 h 6 c 9.10119,0 11,-1.939817 11,-11 V 14 C 30,4.939817 28.10119,3 19,3"
     style="opacity:0.2;fill:#000000;stroke-width:1;stroke-linecap:round;stroke-linejoin:round"
     id="path563" />
  <path
     id="path530"
     style="fill:url(#linearGradient3500);fill-opacity:1.0;stroke-width:1;stroke-linecap:round;stroke-linejoin:round"
     d="M 13,2 C 3.8988186,2 2,3.9398261 2,13 v 6 c 0,9.060174 1.8988186,11 11,11 h 6 c 9.101182,0 11,-1.939826 11,-11 V 13 C 30,3.9398261 28.101182,2 19,2 Z"
     sodipodi:nodetypes="sssssssss" />
  <rect
     style="fill:#f7c195;fill-opacity:1;stroke-width:2.29129;stroke-linecap:round;stroke-linejoin:round"
     id="rect549"
     width="8"
     height="6"
     x="16"
     y="16"
     ry="1" />
  <path
     id="rect346"
     style="fill:#ffffff;stroke-width:0.999995;stroke-linecap:round;stroke-linejoin:round"
     d="M 8.5,10 C 8.223001,10 8,10.223001 8,10.5 8,10.776999 8.223001,11 8.5,11 h 15 C 23.776999,11 24,10.776999 24,10.5 24,10.223001 23.776999,10 23.5,10 Z m 2,2 c -0.276999,0 -0.5,0.223001 -0.5,0.5 0,0.276999 0.223001,0.5 0.5,0.5 h 11 C 21.776999,13 22,12.776999 22,12.5 22,12.223001 21.776999,12 21.5,12 Z m -2,4 C 8.2238575,16 8,16.223858 8,16.5 8,16.776143 8.2238575,17 8.5,17 8.7761425,17 9,16.776143 9,16.5 9,16.223858 8.7761425,16 8.5,16 Z m 2,0 c -0.276999,0 -0.5,0.223001 -0.5,0.5 0,0.276999 0.223001,0.5 0.5,0.5 h 4 C 14.776999,17 15,16.776999 15,16.5 15,16.223001 14.776999,16 14.5,16 Z m -2,2 C 8.2238575,18 8,18.223858 8,18.5 8,18.776143 8.2238575,19 8.5,19 8.7761425,19 9,18.776143 9,18.5 9,18.223858 8.7761425,18 8.5,18 Z m 2,0 c -0.276999,0 -0.5,0.223001 -0.5,0.5 0,0.276999 0.223001,0.5 0.5,0.5 h 4 C 14.776999,19 15,18.776999 15,18.5 15,18.223001 14.776999,18 14.5,18 Z m -2,2 C 8.2238575,20 8,20.223858 8,20.5 8,20.776143 8.2238575,21 8.5,21 8.7761425,21 9,20.776143 9,20.5 9,20.223858 8.7761425,20 8.5,20 Z m 2,0 c -0.276999,0 -0.5,0.223001 -0.5,0.5 0,0.276999 0.223001,0.5 0.5,0.5 h 4 C 14.776999,21 15,20.776999 15,20.5 15,20.223001 14.776999,20 14.5,20 Z"
     sodipodi:nodetypes="ssssssssssssssssssssssssssssssssssssssssssssssssss" />
  <path
     style="color:#000000;fill:#e35100;fill-opacity:1;stroke-width:0.5;stroke-linecap:round;stroke-linejoin:round;-inkscape-stroke:none"
     d="m 22.8125,17.109438 c -0.215695,-0.172729 -0.530606,-0.137739 -0.703125,0.07813 L 20.681604,19 19.574182,18.076172 c -0.210107,-0.175367 -0.522156,-0.149255 -0.700195,0.05859 l -1.75387,2.040195 c -0.179636,0.209792 -0.15515,0.525495 0.05469,0.705078 0.209792,0.179637 0.525495,0.15515 0.705079,-0.05469 l 1.43258,-1.665196 1.121094,0.934571 c 0.215088,0.179652 0.535802,0.147493 0.710938,-0.07129 l 1.74613,-2.210875 c 0.172729,-0.215696 0.137739,-0.530607 -0.07813,-0.703125 z"
     id="path691"
     sodipodi:nodetypes="ccccccccccccc" />
</svg>
