<?xml version="1.0" encoding="UTF-8" standalone="no"?>
<!-- Created with Inkscape (http://www.inkscape.org/) -->

<svg
   width="32"
   height="32"
   viewBox="0 0 32 32"
   version="1.1"
   id="svg5"
   inkscape:version="1.2.2 (1:1.2.2+202305151914+b0a8486541)"
   sodipodi:docname="marble.svg"
   xmlns:inkscape="http://www.inkscape.org/namespaces/inkscape"
   xmlns:sodipodi="http://sodipodi.sourceforge.net/DTD/sodipodi-0.dtd"
   xmlns:xlink="http://www.w3.org/1999/xlink"
   xmlns="http://www.w3.org/2000/svg"
   xmlns:svg="http://www.w3.org/2000/svg">
  <sodipodi:namedview
     id="namedview7"
     pagecolor="#ffffff"
     bordercolor="#000000"
     borderopacity="0.25"
     inkscape:showpageshadow="2"
     inkscape:pageopacity="0.0"
     inkscape:pagecheckerboard="0"
     inkscape:deskcolor="#d1d1d1"
     inkscape:document-units="px"
     showgrid="false"
     inkscape:zoom="25.3125"
     inkscape:cx="15.980247"
     inkscape:cy="16"
     inkscape:window-width="1920"
     inkscape:window-height="1012"
     inkscape:window-x="0"
     inkscape:window-y="0"
     inkscape:window-maximized="1"
     inkscape:current-layer="svg5" />
  <defs
     id="defs2">
    <linearGradient
       inkscape:collect="always"
       xlink:href="#linearGradient1217"
       id="linearGradient4780"
       x1="2"
       y1="2"
       x2="30"
       y2="30"
       gradientUnits="userSpaceOnUse" />
    <linearGradient
       inkscape:collect="always"
       id="linearGradient1217">
      <stop
         style="stop-color:#96a3ad;stop-opacity:1;"
         offset="0"
         id="stop1213" />
      <stop
         style="stop-color:#c4c8cd;stop-opacity:1;"
         offset="1"
         id="stop1215" />
    </linearGradient>
    <linearGradient
       inkscape:collect="always"
       xlink:href="#linearGradient1054"
       id="linearGradient1056"
       x1="3.5"
       y1="3.5"
       x2="12.5"
       y2="12.5"
       gradientUnits="userSpaceOnUse"
       gradientTransform="matrix(2.1111112,0,0,2.1111112,-0.88888975,-0.88885657)" />
    <linearGradient
       inkscape:collect="always"
       id="linearGradient1054">
      <stop
         style="stop-color:#3fb2ea;stop-opacity:1;"
         offset="0"
         id="stop1050" />
      <stop
         style="stop-color:#6ec6ef;stop-opacity:1;"
         offset="1"
         id="stop1052" />
    </linearGradient>
    <linearGradient
       inkscape:collect="always"
       xlink:href="#linearGradient1435"
       id="linearGradient1437"
       x1="8.0001793"
       y1="3.5098948"
       x2="9"
       y2="8"
       gradientUnits="userSpaceOnUse" />
    <linearGradient
       inkscape:collect="always"
       id="linearGradient1435">
      <stop
         style="stop-color:#df4026;stop-opacity:1;"
         offset="0"
         id="stop1431" />
      <stop
         style="stop-color:#ad2d1a;stop-opacity:1;"
         offset="0.99989998"
         id="stop1439" />
    </linearGradient>
    <linearGradient
       inkscape:collect="always"
       xlink:href="#linearGradient1425"
       id="linearGradient1427"
       x1="7"
       y1="8"
       x2="8.0001793"
       y2="12.489727"
       gradientUnits="userSpaceOnUse" />
    <linearGradient
       inkscape:collect="always"
       id="linearGradient1425">
      <stop
         style="stop-color:#c4c4c4;stop-opacity:1;"
         offset="0"
         id="stop1429" />
      <stop
         style="stop-color:#d7d7d7;stop-opacity:1;"
         offset="1"
         id="stop1423" />
    </linearGradient>
  </defs>
  <path
     d="M 13,3 C 3.8988095,3 2,4.939817 2,14 v 6 c 0,9.060183 1.8988095,11 11,11 h 6 c 9.10119,0 11,-1.939817 11,-11 V 14 C 30,4.939817 28.10119,3 19,3"
     style="opacity:0.2;fill:#000000;stroke-width:1;stroke-linecap:round;stroke-linejoin:round"
     id="path563" />
  <path
     id="path530"
     style="fill:url(#linearGradient4780);fill-opacity:1;stroke-width:1;stroke-linecap:round;stroke-linejoin:round"
     d="M 13,2 C 3.8988186,2 2,3.9398261 2,13 v 6 c 0,9.060174 1.8988186,11 11,11 h 6 c 9.101182,0 11,-1.939826 11,-11 V 13 C 30,3.9398261 28.101182,2 19,2 Z" />
  <circle
     style="fill:url(#linearGradient1056);fill-opacity:1;stroke-width:4.22222;stroke-linecap:round;stroke-linejoin:round"
     id="path471"
     cx="16"
     cy="16.000034"
     r="9.5" />
  <path
     d="M 15.996931,8 C 15.416007,8 14.851084,8.064 14.306469,8.1802994 L 13.596931,9.599937 12.524929,8.7962761 C 10.602468,9.720549 9.1132356,11.385099 8.4233885,13.429944 l 1.5735401,-0.629515 1.2000004,0.913857 0.4,-1.313841 5.2,-2.799893 -0.316924,-1.5845531 c -0.16,-0.00926 -0.320614,-0.01536 -0.483076,-0.01536 m 5.92431,2.6269741 -0.324308,0.972886 0.4,0.399984 -1.6,2.39991 0.80052,2.742464 2.652402,0.38972 c 0.09539,-0.495978 0.147072,-1.007344 0.147072,-1.532248 0,-1.369792 -0.342768,-2.655896 -0.944614,-3.781392 l -0.65538,-0.218452 0.238154,-0.47752 c -0.214153,-0.31755 -0.457844,-0.612309 -0.713844,-0.895374 M 8.1556994,14.400368 c -0.088,0.438137 -0.138464,0.891043 -0.152624,1.352563 l 2.7938476,1.047346 -0.4,-1.199956 -0.8000004,-0.743178 z m 2.6412316,2.399909 2,4.799814 v 1.735318 C 13.776623,23.76124 14.857239,24 15.996931,24 c 0.07939,0 0.157536,-0.0031 0.236922,-0.0056 l 2.563078,-4.565829 -6.4,-3.428266 z"
     style="fill:#97e286;fill-opacity:1;stroke-width:1.6"
     id="path677"
     sodipodi:nodetypes="cccccccccccccccccscccccccccccccscccc" />
  <path
     id="path285"
     style="fill:#ffffff;stroke-width:2;stroke-linecap:round;stroke-linejoin:round"
     d="M 16 6 C 10.477175 5.9999999 6 10.477175 6 16 C 5.9999999 21.522825 10.477175 26 16 26 C 21.522825 26 26 21.522825 26 16 C 26 10.477175 21.522825 5.9999999 16 6 z M 16 8 C 20.418274 7.9999999 24 11.581727 24 16 C 24 20.418274 20.418274 24 16 24 C 11.581726 24 8 20.418274 8 16 C 8 11.581727 11.581726 8 16 8 z " />
  <g
     id="g1443"
     transform="matrix(1.0606602,1.0606602,-1.0101525,1.0101525,15.591057,-0.5030012)">
    <path
       id="path1317"
       style="fill:url(#linearGradient1437);fill-opacity:1;stroke-width:1.41421;stroke-linecap:round;stroke-linejoin:round"
       d="M 8.0001796,3.5098949 7,8 9,8 Z"
       sodipodi:nodetypes="cccc" />
    <path
       id="path1345"
       style="fill:url(#linearGradient1427);fill-opacity:1;stroke-width:1.41421;stroke-linecap:round;stroke-linejoin:round"
       d="M 9,8 7,8 8.0001796,12.489727 Z"
       sodipodi:nodetypes="cccc" />
  </g>
</svg>
