<?xml version="1.0" encoding="UTF-8" standalone="no"?>
<!-- Created with Inkscape (http://www.inkscape.org/) -->

<svg
   width="32"
   height="32"
   viewBox="0 0 32 32"
   version="1.1"
   id="svg5"
   inkscape:version="1.4.4 (dcaf3e7d9e, 2026-05-05)"
   sodipodi:docname="mpv.svg"
   xmlns:inkscape="http://www.inkscape.org/namespaces/inkscape"
   xmlns:sodipodi="http://sodipodi.sourceforge.net/DTD/sodipodi-0.dtd"
   xmlns:xlink="http://www.w3.org/1999/xlink"
   xmlns="http://www.w3.org/2000/svg"
   xmlns:svg="http://www.w3.org/2000/svg">
  <sodipodi:namedview
     id="namedview7"
     pagecolor="#ffffff"
     bordercolor="#000000"
     borderopacity="0.25"
     inkscape:showpageshadow="2"
     inkscape:pageopacity="0.0"
     inkscape:pagecheckerboard="0"
     inkscape:deskcolor="#d1d1d1"
     inkscape:document-units="px"
     showgrid="false"
     inkscape:zoom="24.8125"
     inkscape:cx="12.211587"
     inkscape:cy="15.959698"
     inkscape:window-width="1920"
     inkscape:window-height="1012"
     inkscape:window-x="0"
     inkscape:window-y="0"
     inkscape:window-maximized="1"
     inkscape:current-layer="svg5" />
  <defs
     id="defs2">
    <linearGradient
       inkscape:collect="always"
       id="linearGradient6304">
      <stop
         style="stop-color:#8d348e;stop-opacity:1;"
         offset="0"
         id="stop6300" />
      <stop
         style="stop-color:#c275c3;stop-opacity:1;"
         offset="1"
         id="stop6302" />
    </linearGradient>
    <linearGradient
       inkscape:collect="always"
       xlink:href="#linearGradient6304"
       id="linearGradient2"
       x1="2"
       y1="2"
       x2="30"
       y2="30"
       gradientUnits="userSpaceOnUse" />
  </defs>
  <path
     id="path563"
     style="opacity:0.2;fill:#000000;stroke-width:1;stroke-linecap:round;stroke-linejoin:round"
     d="M 13 3 C 3.8988186 3 2 4.9398261 2 14 L 2 20 C 2 29.060174 3.8988186 31 13 31 L 19 31 C 28.101181 31 30 29.060174 30 20 L 30 14 C 30 4.9398261 28.101181 3 19 3 L 13 3 z " />
  <path
     id="path530"
     style="fill:url(#linearGradient2);stroke-width:1;stroke-linecap:round;stroke-linejoin:round"
     d="M 13 2 C 3.8988186 2 2 3.9398261 2 13 L 2 19 C 2 28.060174 3.8988186 30 13 30 L 19 30 C 28.101182 30 30 28.060174 30 19 L 30 13 C 30 3.9398261 28.101182 2 19 2 L 13 2 z " />
  <path
     id="path4648"
     style="fill:#ffffff;stroke-width:2;stroke-linejoin:round"
     d="M 16,6 C 10.477168,6 6,10.47717 6,16 6,21.522831 10.477168,26 16,26 21.522831,26 26,21.522831 26,16 26,10.47717 21.522831,6 16,6 Z m -3.06836,5.000976 c 0.163602,-0.006 0.334641,0.03053 0.495118,0.121094 l 7.070312,3.999024 c 0.671052,0.378713 0.671052,1.37812 0,1.756835 l -7.070312,3.999024 C 12.784844,21.239191 12.001097,20.756838 12,19.999023 V 12 c 9.5e-4,-0.568366 0.440832,-0.981021 0.93164,-0.999024 z" />
</svg>
