<?xml version="1.0" encoding="UTF-8" standalone="no"?>
<!-- Created with Inkscape (http://www.inkscape.org/) -->

<svg
   width="32"
   height="32"
   viewBox="0 0 32 32"
   version="1.1"
   id="svg5"
   inkscape:version="1.2.1 (9c6d41e410, 2022-07-14)"
   sodipodi:docname="naver-whale.svg"
   xmlns:inkscape="http://www.inkscape.org/namespaces/inkscape"
   xmlns:sodipodi="http://sodipodi.sourceforge.net/DTD/sodipodi-0.dtd"
   xmlns:xlink="http://www.w3.org/1999/xlink"
   xmlns="http://www.w3.org/2000/svg"
   xmlns:svg="http://www.w3.org/2000/svg">
  <sodipodi:namedview
     id="namedview7"
     pagecolor="#ffffff"
     bordercolor="#000000"
     borderopacity="0.25"
     inkscape:showpageshadow="2"
     inkscape:pageopacity="0.0"
     inkscape:pagecheckerboard="0"
     inkscape:deskcolor="#d1d1d1"
     inkscape:document-units="px"
     showgrid="false"
     inkscape:zoom="25.0625"
     inkscape:cx="15.98005"
     inkscape:cy="16"
     inkscape:window-width="1920"
     inkscape:window-height="1008"
     inkscape:window-x="0"
     inkscape:window-y="0"
     inkscape:window-maximized="1"
     inkscape:current-layer="svg5" />
  <defs
     id="defs2">
    <linearGradient
       inkscape:collect="always"
       xlink:href="#linearGradient1969"
       id="linearGradient4780"
       x1="16"
       y1="2"
       x2="16"
       y2="25"
       gradientUnits="userSpaceOnUse" />
    <linearGradient
       inkscape:collect="always"
       xlink:href="#linearGradient17511"
       id="linearGradient17513"
       x1="38.999996"
       y1="24.000418"
       x2="38.999996"
       y2="39.000496"
       gradientUnits="userSpaceOnUse"
       gradientTransform="matrix(0.6666668,0,0,0.6636876,5.19e-5,0.1158555)" />
    <linearGradient
       inkscape:collect="always"
       id="linearGradient17511">
      <stop
         style="stop-color:#e4e5e7;stop-opacity:1;"
         offset="0"
         id="stop17507" />
      <stop
         style="stop-color:#c1c1c5;stop-opacity:1;"
         offset="1"
         id="stop17509" />
    </linearGradient>
    <linearGradient
       inkscape:collect="always"
       xlink:href="#linearGradient15319"
       id="linearGradient15327"
       x1="9.0688782"
       y1="25.661974"
       x2="9"
       y2="38.999268"
       gradientUnits="userSpaceOnUse"
       gradientTransform="matrix(0.6666668,0,0,0.6636876,5.19e-5,0.1158555)" />
    <linearGradient
       inkscape:collect="always"
       id="linearGradient15319">
      <stop
         style="stop-color:#00dcb4;stop-opacity:1;"
         offset="0"
         id="stop15315" />
      <stop
         style="stop-color:#1f9ea2;stop-opacity:1;"
         offset="1"
         id="stop15317" />
    </linearGradient>
    <linearGradient
       inkscape:collect="always"
       xlink:href="#linearGradient10097"
       id="linearGradient15313"
       x1="9.0688782"
       y1="25.661974"
       x2="9.0184727"
       y2="38.999268"
       gradientUnits="userSpaceOnUse"
       gradientTransform="matrix(0.6666668,0,0,0.6636876,5.19e-5,0.1158555)" />
    <linearGradient
       inkscape:collect="always"
       id="linearGradient10097">
      <stop
         style="stop-color:#00dcb4;stop-opacity:1;"
         offset="0"
         id="stop10093" />
      <stop
         style="stop-color:#0baeb5;stop-opacity:1"
         offset="1"
         id="stop10095" />
    </linearGradient>
    <linearGradient
       inkscape:collect="always"
       id="linearGradient1969">
      <stop
         style="stop-color:#1b34a8;stop-opacity:1;"
         offset="0"
         id="stop1965" />
      <stop
         style="stop-color:#3683ae;stop-opacity:1"
         offset="1"
         id="stop1967" />
    </linearGradient>
  </defs>
  <path
     d="M 13,3 C 3.8988095,3 2,4.939817 2,14 v 6 c 0,9.060183 1.8988095,11 11,11 h 6 c 9.10119,0 11,-1.939817 11,-11 V 14 C 30,4.939817 28.10119,3 19,3"
     style="opacity:0.2;fill:#000000;stroke-width:1;stroke-linecap:round;stroke-linejoin:round"
     id="path563" />
  <path
     id="path530"
     style="fill:url(#linearGradient4780);fill-opacity:1;stroke-width:1;stroke-linecap:round;stroke-linejoin:round"
     d="M 13,2 C 3.8988186,2 2,3.9398261 2,13 v 6 c 0,9.060174 1.8988186,11 11,11 h 6 c 9.101182,0 11,-1.939826 11,-11 V 13 C 30,3.9398261 28.101182,2 19,2 Z" />
  <path
     d="M 26.000053,16.044635 C 26.000053,21.542831 21.522877,26 16,26 c -1.612475,0 -3.135812,-0.37994 -4.484608,-1.054799 0.420641,-2.147516 0.969814,-3.981148 1.603493,-5.546673 0.732824,-1.810469 2.499319,-1.569894 3.39009,-2.734042 1.426789,-1.864668 2.048192,-4.683547 3.4257,-5.362668 1.702601,-0.839395 4.11514,-1.174743 4.11514,-1.174743 l 0.108902,0.159595 c 0.105796,0.148302 0.207614,0.299612 0.305299,0.453776 0.973017,1.53559 1.536037,3.354433 1.536037,5.304189 z"
     style="fill:url(#linearGradient17513);fill-opacity:1;stroke-width:0.356346"
     id="path405" />
  <path
     id="path372"
     style="fill:url(#linearGradient15327);fill-opacity:1;stroke-width:0.356346"
     d="m 23.036133,9.997071 c -1.297094,1.7e-4 -2.693907,0.376701 -3.851563,0.921875 -0.991684,0.467012 -1.95947,1.275085 -3.834961,2.757812 -1.38753,1.096956 -2.319824,1.474233 -3.21289,1.648437 -0.352429,0.06875 -1.062302,0.05323 -1.435547,-0.03125 C 9.105766,14.932884 7.882463,13.742347 7.6552735,12.116211 7.585838,11.619236 7.633552,10.947662 7.770508,10.5 7.799143,10.40639 7.817884,10.324697 7.811524,10.31836 7.792579,10.2995 7.3963835,10.921459 7.2080085,11.266602 6.641625,12.304334 6.2891775,13.339874 6.094727,14.535156 5.992538,15.1633 5.967946,16.475183 6.045899,17.147461 c 0.2677755,2.309433 1.3254305,4.461022 2.97168,6.046875 l 0.266602,0.256836 -0.220703,0.203125 c -0.865971,0.795443 -1.963685,1.472301 -3.015626,1.859375 -0.059074,0.02173 -0.048806,0.03205 0.069336,0.07422 0.4262405,0.152124 1.318963,0.330641 1.950196,0.389649 0.50008,0.04675 1.402146,0.01438 1.880858,-0.06738 0.593261,-0.10133 1.136789,-0.252961 1.691407,-0.47168 l 0.798828,-0.367187 c 0.995616,-0.511918 2.030516,-1.359753 2.625976,-2.151367 0.777817,-1.034045 1.764279,-3.068579 2.838867,-5.858399 0.518146,-1.345199 0.753809,-1.900806 1.106445,-2.604492 0.49362,-0.985019 0.992235,-1.730592 1.497071,-2.238281 0.799475,-0.803991 2.093236,-1.673613 3.34082,-2.007812 l 0.191406,-0.07813 -0.0059,-0.0068 -0.448242,-0.109375 c -0.18021,-0.0126 -0.363529,-0.01957 -0.548828,-0.01953 z M 15.5,16 C 15.776142,16 16,16.223858 16,16.5 16,16.776142 15.776142,17 15.5,17 15.223858,17 15,16.776142 15,16.5 15,16.223858 15.223858,16 15.5,16 Z"
     sodipodi:nodetypes="cssccsccssccccccscccssssccccccsssss" />
  <path
     id="path5945"
     style="fill:url(#linearGradient15313);fill-opacity:1;stroke-width:0.356346"
     d="m 12.666721,18.699108 c -0.809243,2.480266 -2.487221,3.898695 -3.382813,4.752106 l -0.220052,0.203514 c -0.216492,0.198861 -0.447678,0.39034 -0.688802,0.571653 -0.241124,0.181313 -0.4916155,0.35228 -0.748699,0.510728 -3.08e-4,1.9e-4 -0.001,-1.9e-4 -0.00135,0 -0.513877,0.316636 -1.051179,0.583046 -1.576823,0.776463 -0.014765,0.0054 -0.02572,0.0096 -0.031245,0.01425 -0.00554,0.0048 -0.00627,0.009 -0.00125,0.01426 0.00988,0.01058 0.042495,0.02428 0.101562,0.04537 0.426241,0.152124 1.319289,0.331168 1.950521,0.390176 0.500081,0.04675 1.401497,0.01436 1.880209,-0.06741 0.593261,-0.10133 1.136789,-0.253122 1.691407,-0.47184 l 0.799479,-0.366844 c 0.995618,-0.511918 2.030843,-1.360184 2.626302,-2.151799 0.61554,-0.818266 1.362579,-2.270712 2.179718,-4.220633 z" />
  <path
     d="M 16.75,7.5 C 16.611929,7.5 16.5,7.611929 16.5,7.75 16.5,7.888071 16.611929,8 16.75,8 16.888071,8 17,7.888071 17,7.75 17,7.611929 16.888071,7.5 16.75,7.5 Z m 2.875,1.25 C 19.55597,8.75 19.5,8.80597 19.5,8.875 19.5,8.94404 19.55597,9 19.625,9 19.69403,9 19.75,8.94404 19.75,8.875 19.75,8.80597 19.69403,8.75 19.625,8.75 Z m -6.442383,1.828125 c -0.04157,-1.08e-4 -0.0753,0.03362 -0.0752,0.0752 -1.08e-4,0.04157 0.03362,0.0753 0.0752,0.0752 0.04157,1.08e-4 0.0753,-0.03362 0.0752,-0.0752 1.08e-4,-0.04157 -0.03362,-0.0753 -0.0752,-0.0752 z M 16.125,10.75 C 16.05597,10.75 16,10.80597 16,10.875 16,10.94404 16.05597,11 16.125,11 c 0.06903,0 0.125,-0.05596 0.125,-0.125 0,-0.06903 -0.05597,-0.125 -0.125,-0.125 z m -3.049804,0.09961 c -0.04157,-1.09e-4 -0.0753,0.03362 -0.0752,0.07519 -1.08e-4,0.04157 0.03362,0.0753 0.0752,0.0752 0.04157,1.08e-4 0.0753,-0.03362 0.0752,-0.0752 1.08e-4,-0.04157 -0.03362,-0.0753 -0.0752,-0.07519 z M 10.625,11.25 c -0.06903,0 -0.125,0.05597 -0.125,0.125 0,0.06904 0.05597,0.125 0.125,0.125 0.06904,0 0.125,-0.05596 0.125,-0.125 0,-0.06903 -0.05596,-0.125 -0.125,-0.125 z M 12.25,12 C 12.111929,12 12,12.111929 12,12.25 c 0,0.138071 0.111929,0.25 0.25,0.25 0.138071,0 0.25,-0.111929 0.25,-0.25 C 12.5,12.111929 12.388071,12 12.25,12 Z"
     style="fill:#ffffff;stroke-width:0.5"
     id="path19127" />
</svg>
