<?xml version="1.0" encoding="UTF-8" standalone="no"?>
<!-- Created with Inkscape (http://www.inkscape.org/) -->

<svg
   width="32"
   height="32"
   viewBox="0 0 32 32"
   version="1.1"
   id="svg5"
   inkscape:version="1.2.1 (9c6d41e410, 2022-07-14)"
   sodipodi:docname="org.gnome.PasswordSafe.svg"
   xmlns:inkscape="http://www.inkscape.org/namespaces/inkscape"
   xmlns:sodipodi="http://sodipodi.sourceforge.net/DTD/sodipodi-0.dtd"
   xmlns:xlink="http://www.w3.org/1999/xlink"
   xmlns="http://www.w3.org/2000/svg"
   xmlns:svg="http://www.w3.org/2000/svg">
  <sodipodi:namedview
     id="namedview7"
     pagecolor="#ffffff"
     bordercolor="#000000"
     borderopacity="0.25"
     inkscape:showpageshadow="2"
     inkscape:pageopacity="0.0"
     inkscape:pagecheckerboard="0"
     inkscape:deskcolor="#d1d1d1"
     inkscape:document-units="px"
     showgrid="false"
     inkscape:zoom="25.25"
     inkscape:cx="15.980198"
     inkscape:cy="16"
     inkscape:window-width="1920"
     inkscape:window-height="1011"
     inkscape:window-x="0"
     inkscape:window-y="32"
     inkscape:window-maximized="1"
     inkscape:current-layer="svg5" />
  <defs
     id="defs2">
    <linearGradient
       inkscape:collect="always"
       xlink:href="#linearGradient1267"
       id="linearGradient4780"
       x1="2"
       y1="2"
       x2="30"
       y2="30"
       gradientUnits="userSpaceOnUse" />
    <linearGradient
       inkscape:collect="always"
       id="linearGradient1267">
      <stop
         style="stop-color:#591980;stop-opacity:1;"
         offset="0"
         id="stop1263" />
      <stop
         style="stop-color:#a040da;stop-opacity:1;"
         offset="1"
         id="stop1265" />
    </linearGradient>
    <linearGradient
       inkscape:collect="always"
       xlink:href="#linearGradient1606"
       id="linearGradient1523"
       x1="2.0909092"
       y1="2.0909092"
       x2="19.909092"
       y2="19.909092"
       gradientUnits="userSpaceOnUse"
       gradientTransform="matrix(1.5714285,0,0,1.5714285,-1.2857142,-1.2857145)" />
    <linearGradient
       inkscape:collect="always"
       id="linearGradient1606">
      <stop
         style="stop-color:#eaebed;stop-opacity:1;"
         offset="0"
         id="stop1602" />
      <stop
         style="stop-color:#f9fafa;stop-opacity:1;"
         offset="1"
         id="stop1604" />
    </linearGradient>
    <linearGradient
       inkscape:collect="always"
       xlink:href="#linearGradient1267"
       id="linearGradient4662"
       x1="2"
       y1="2"
       x2="30"
       y2="30"
       gradientUnits="userSpaceOnUse" />
    <linearGradient
       inkscape:collect="always"
       xlink:href="#linearGradient1606"
       id="linearGradient4815"
       x1="2"
       y1="2"
       x2="30"
       y2="30"
       gradientUnits="userSpaceOnUse" />
  </defs>
  <path
     d="M 13,3 C 3.8988095,3 2,4.939817 2,14 v 6 c 0,9.060183 1.8988095,11 11,11 h 6 c 9.10119,0 11,-1.939817 11,-11 V 14 C 30,4.939817 28.10119,3 19,3"
     style="opacity:0.2;fill:#000000;stroke-width:1;stroke-linecap:round;stroke-linejoin:round"
     id="path563" />
  <path
     id="path530"
     style="fill:url(#linearGradient4780);fill-opacity:1.0;stroke-width:1;stroke-linecap:round;stroke-linejoin:round"
     d="M 13,2 C 3.8988186,2 2,3.9398261 2,13 v 6 c 0,9.060174 1.8988186,11 11,11 h 6 c 9.101182,0 11,-1.939826 11,-11 V 13 C 30,3.9398261 28.101182,2 19,2 Z" />
  <path
     id="rect1507"
     style="fill:url(#linearGradient1523);stroke-width:1.83334;stroke-linecap:square;stroke-linejoin:round"
     d="M 13,4 C 5.2211932,4 4,5.1920288 4,13 v 6 c 0,7.48343 1.4158622,9 9,9 h 6 c 7.734505,0 9,-1.474106 9,-9 V 13 C 28,5.192029 26.884052,4 19,4 Z"
     sodipodi:nodetypes="sssssssss" />
  <circle
     style="opacity:1;fill:url(#linearGradient4662);fill-opacity:1;stroke-width:2.57143;stroke-linecap:round;stroke-linejoin:round"
     id="path346"
     cx="16"
     cy="16"
     r="9" />
  <circle
     style="opacity:1;fill:url(#linearGradient4815);stroke-width:2.01933;stroke-linecap:round;stroke-linejoin:round;fill-opacity:1"
     id="path510"
     cx="16"
     cy="16"
     r="7" />
  <path
     id="rect616"
     style="fill:#1a1a1a;stroke-width:2;stroke-linecap:round;stroke-linejoin:round"
     d="m 15,11 c -0.554,0 -1,0.446001 -1,1 v 1 l 1,1 -1,1 v 5 c 0,0.553999 0.446,1 1,1 h 2 c 0.553999,0 1,-0.446001 1,-1 v -1 l -1,-1 1,-1 v -5 c 0,-0.553999 -0.446001,-1 -1,-1 z" />
</svg>
