<?xml version="1.0" encoding="UTF-8" standalone="no"?>
<!-- Created with Inkscape (http://www.inkscape.org/) -->

<svg
   width="32"
   height="32"
   viewBox="0 0 32 32"
   version="1.1"
   id="svg5"
   inkscape:version="1.2.1 (9c6d41e410, 2022-07-14)"
   sodipodi:docname="partitionmanager.svg"
   xmlns:inkscape="http://www.inkscape.org/namespaces/inkscape"
   xmlns:sodipodi="http://sodipodi.sourceforge.net/DTD/sodipodi-0.dtd"
   xmlns:xlink="http://www.w3.org/1999/xlink"
   xmlns="http://www.w3.org/2000/svg"
   xmlns:svg="http://www.w3.org/2000/svg">
  <sodipodi:namedview
     id="namedview7"
     pagecolor="#ffffff"
     bordercolor="#000000"
     borderopacity="0.25"
     inkscape:showpageshadow="2"
     inkscape:pageopacity="0.0"
     inkscape:pagecheckerboard="0"
     inkscape:deskcolor="#d1d1d1"
     inkscape:document-units="px"
     showgrid="false"
     inkscape:zoom="25.875"
     inkscape:cx="16"
     inkscape:cy="16"
     inkscape:window-width="1920"
     inkscape:window-height="1008"
     inkscape:window-x="0"
     inkscape:window-y="0"
     inkscape:window-maximized="1"
     inkscape:current-layer="svg5"
     showguides="false" />
  <defs
     id="defs2">
    <linearGradient
       inkscape:collect="always"
       xlink:href="#linearGradient1291"
       id="linearGradient3500"
       x1="2"
       y1="2"
       x2="30"
       y2="30"
       gradientUnits="userSpaceOnUse" />
    <linearGradient
       inkscape:collect="always"
       xlink:href="#linearGradient6077"
       id="linearGradient6079"
       x1="8"
       y1="13"
       x2="8"
       y2="3"
       gradientUnits="userSpaceOnUse"
       gradientTransform="scale(2)" />
    <linearGradient
       inkscape:collect="always"
       id="linearGradient6077">
      <stop
         style="stop-color:#454545;stop-opacity:1;"
         offset="0"
         id="stop6073" />
      <stop
         style="stop-color:#5d5d5d;stop-opacity:1;"
         offset="1"
         id="stop6075" />
    </linearGradient>
    <linearGradient
       inkscape:collect="always"
       xlink:href="#linearGradient5135"
       id="linearGradient5137"
       x1="8"
       y1="12"
       x2="8"
       y2="4"
       gradientUnits="userSpaceOnUse"
       gradientTransform="scale(1.9999999)" />
    <linearGradient
       inkscape:collect="always"
       id="linearGradient5135">
      <stop
         style="stop-color:#81868a;stop-opacity:1;"
         offset="0"
         id="stop5131" />
      <stop
         style="stop-color:#a7aaad;stop-opacity:1;"
         offset="1"
         id="stop5133" />
    </linearGradient>
    <linearGradient
       inkscape:collect="always"
       xlink:href="#linearGradient9100"
       id="linearGradient9102"
       x1="8"
       y1="10"
       x2="8"
       y2="6"
       gradientUnits="userSpaceOnUse"
       gradientTransform="matrix(2.5,0,0,2.5,-3.9999993,-3.9999996)" />
    <linearGradient
       inkscape:collect="always"
       id="linearGradient9100">
      <stop
         style="stop-color:#1b8f71;stop-opacity:1;"
         offset="0"
         id="stop9096" />
      <stop
         style="stop-color:#42c9a1;stop-opacity:1;"
         offset="1"
         id="stop9098" />
    </linearGradient>
    <linearGradient
       inkscape:collect="always"
       id="linearGradient1291">
      <stop
         style="stop-color:#d3d3d3;stop-opacity:1;"
         offset="0"
         id="stop1287" />
      <stop
         style="stop-color:#eeeeee;stop-opacity:1;"
         offset="1"
         id="stop1289" />
    </linearGradient>
  </defs>
  <path
     d="M 13,3 C 3.8988095,3 2,4.939817 2,14 v 6 c 0,9.060183 1.8988095,11 11,11 h 6 c 9.10119,0 11,-1.939817 11,-11 V 14 C 30,4.939817 28.10119,3 19,3"
     style="opacity:0.2;fill:#000000;stroke-width:1;stroke-linecap:round;stroke-linejoin:round"
     id="path563" />
  <path
     id="path530"
     style="fill:url(#linearGradient3500);stroke-width:1;stroke-linecap:round;stroke-linejoin:round;fill-opacity:1"
     d="M 13 2 C 3.8988186 2 2 3.9398261 2 13 L 2 19 C 2 28.060174 3.8988186 30 13 30 L 19 30 C 28.101182 30 30 28.060174 30 19 L 30 13 C 30 3.9398261 28.101182 2 19 2 L 13 2 z " />
  <path
     id="path2797"
     style="fill:url(#linearGradient6079);fill-opacity:1;stroke-width:2;stroke-linecap:round;stroke-linejoin:round;paint-order:stroke fill markers"
     d="M 16.000001,5.9999997 A 10,10 0 0 0 6,16.000001 h 10.000001 z m 0,10.0000013 V 26 a 10,10 0 0 0 10,-9.999999 z" />
  <path
     id="path3677"
     style="fill:url(#linearGradient5137);fill-opacity:1;stroke-width:2;stroke-linecap:round;stroke-linejoin:round;paint-order:stroke fill markers"
     d="M 16.000002,7.9999995 A 7.9999995,7.9999995 0 0 0 8,16.000001 a 7.9999995,7.9999995 0 0 0 8.000001,8 7.9999995,7.9999995 0 0 0 8,-8 h -8 z" />
  <circle
     style="fill:url(#linearGradient9102);fill-opacity:1;stroke-width:1.66667;stroke-linecap:round;stroke-linejoin:round;paint-order:stroke fill markers"
     id="path8366"
     cx="16"
     cy="16"
     r="5" />
  <circle
     style="fill:#ffffff;fill-opacity:1;stroke-width:0.833332;stroke-linecap:round;stroke-linejoin:round;paint-order:stroke fill markers"
     id="path8368"
     cx="16"
     cy="16"
     r="2.5" />
</svg>
