<?xml version="1.0" encoding="UTF-8" standalone="no"?>
<!-- Created with Inkscape (http://www.inkscape.org/) -->

<svg
   width="32"
   height="32"
   viewBox="0 0 32 32"
   version="1.1"
   id="svg5"
   inkscape:version="1.2.1 (9c6d41e410, 2022-07-14)"
   sodipodi:docname="preferences-devices-cpu.svg"
   xmlns:inkscape="http://www.inkscape.org/namespaces/inkscape"
   xmlns:sodipodi="http://sodipodi.sourceforge.net/DTD/sodipodi-0.dtd"
   xmlns:xlink="http://www.w3.org/1999/xlink"
   xmlns="http://www.w3.org/2000/svg"
   xmlns:svg="http://www.w3.org/2000/svg">
  <sodipodi:namedview
     id="namedview7"
     pagecolor="#ffffff"
     bordercolor="#000000"
     borderopacity="0.25"
     inkscape:showpageshadow="2"
     inkscape:pageopacity="0.0"
     inkscape:pagecheckerboard="0"
     inkscape:deskcolor="#d1d1d1"
     inkscape:document-units="px"
     showgrid="false"
     inkscape:zoom="24.84375"
     inkscape:cx="16"
     inkscape:cy="16"
     inkscape:window-width="1920"
     inkscape:window-height="1007"
     inkscape:window-x="0"
     inkscape:window-y="0"
     inkscape:window-maximized="1"
     inkscape:current-layer="svg5" />
  <defs
     id="defs2">
    <linearGradient
       inkscape:collect="always"
       id="linearGradient1993">
      <stop
         style="stop-color:#e9e9e9;stop-opacity:1;"
         offset="0"
         id="stop1989" />
      <stop
         style="stop-color:#d0d0d0;stop-opacity:1;"
         offset="1"
         id="stop1991" />
    </linearGradient>
    <linearGradient
       inkscape:collect="always"
       id="linearGradient1940">
      <stop
         style="stop-color:#28b013;stop-opacity:1;"
         offset="0"
         id="stop1936" />
      <stop
         style="stop-color:#4ac265;stop-opacity:1;"
         offset="1"
         id="stop1938" />
    </linearGradient>
    <linearGradient
       inkscape:collect="always"
       xlink:href="#linearGradient1940"
       id="linearGradient4780"
       x1="2"
       y1="2"
       x2="30"
       y2="30"
       gradientUnits="userSpaceOnUse" />
    <linearGradient
       inkscape:collect="always"
       xlink:href="#linearGradient1993"
       id="linearGradient1190"
       x1="12.857142"
       y1="20.857143"
       x2="-1.4285715"
       y2="6.5714288"
       gradientUnits="userSpaceOnUse"
       gradientTransform="matrix(1.4,0,0,1.4,8,-3.2)" />
  </defs>
  <path
     d="M 13,3 C 3.8988095,3 2,4.939817 2,14 v 6 c 0,9.060183 1.8988095,11 11,11 h 6 c 9.10119,0 11,-1.939817 11,-11 V 14 C 30,4.939817 28.10119,3 19,3"
     style="opacity:0.2;fill:#000000;stroke-width:1;stroke-linecap:round;stroke-linejoin:round"
     id="path563" />
  <path
     id="path530"
     style="fill:url(#linearGradient4780);fill-opacity:1;stroke-width:1;stroke-linecap:round;stroke-linejoin:round"
     d="M 13,2 C 3.8988186,2 2,3.9398261 2,13 v 6 c 0,9.060174 1.8988186,11 11,11 h 6 c 9.101182,0 11,-1.939826 11,-11 V 13 C 30,3.9398261 28.101182,2 19,2 Z" />
  <path
     d="M 11,7 C 7.287394,7 6,8.27155 6,12 v 10 c 0,3.72845 1.287394,5 5,5 h 10 c 3.712606,0 5,-1.27155 5,-5 V 12 C 26,8.27155 24.712606,7 21,7 Z"
     style="opacity:0.2;fill:#000000;fill-opacity:1;stroke-width:2.8;stroke-linecap:round;stroke-linejoin:round"
     id="path2003"
     sodipodi:nodetypes="sssssssss" />
  <path
     id="rect368"
     style="fill:url(#linearGradient1190);fill-opacity:1;stroke-width:2.8;stroke-linecap:round;stroke-linejoin:round"
     d="M 11,6 C 7.287394,6 6,7.27155 6,11 v 10 c 0,3.72845 1.287394,5 5,5 h 10 c 3.712606,0 5,-1.27155 5,-5 V 11 C 26,7.27155 24.712606,6 21,6 Z"
     sodipodi:nodetypes="sssssssss" />
  <path
     id="rect15233"
     style="opacity:0.3;fill:#000000;fill-opacity:1;stroke-width:8.21582;stroke-linecap:round;stroke-linejoin:round"
     d="m 9,9 v 1 h 8 V 9 Z m 0,3 v 1 h 10 v -1 z m 0,3 v 1 h 5 v -1 z"
     sodipodi:nodetypes="ccccccccccccccc" />
</svg>
