<?xml version="1.0" encoding="UTF-8" standalone="no"?>
<!-- Created with Inkscape (http://www.inkscape.org/) -->

<svg
   width="32"
   height="32"
   viewBox="0 0 32 32"
   version="1.1"
   id="svg5"
   inkscape:version="1.2.1 (9c6d41e410, 2022-07-14)"
   sodipodi:docname="preferences-desktop-filetype-association.svg"
   xmlns:inkscape="http://www.inkscape.org/namespaces/inkscape"
   xmlns:sodipodi="http://sodipodi.sourceforge.net/DTD/sodipodi-0.dtd"
   xmlns:xlink="http://www.w3.org/1999/xlink"
   xmlns="http://www.w3.org/2000/svg"
   xmlns:svg="http://www.w3.org/2000/svg">
  <sodipodi:namedview
     id="namedview7"
     pagecolor="#ffffff"
     bordercolor="#000000"
     borderopacity="0.25"
     inkscape:showpageshadow="2"
     inkscape:pageopacity="0.0"
     inkscape:pagecheckerboard="0"
     inkscape:deskcolor="#d1d1d1"
     inkscape:document-units="px"
     showgrid="false"
     inkscape:zoom="25.8125"
     inkscape:cx="15.98063"
     inkscape:cy="16"
     inkscape:window-width="1920"
     inkscape:window-height="1006"
     inkscape:window-x="0"
     inkscape:window-y="0"
     inkscape:window-maximized="1"
     inkscape:current-layer="svg5"
     showguides="false" />
  <defs
     id="defs2">
    <linearGradient
       inkscape:collect="always"
       id="linearGradient2116">
      <stop
         style="stop-color:#657481;stop-opacity:1;"
         offset="0"
         id="stop2112" />
      <stop
         style="stop-color:#9ba6b0;stop-opacity:1;"
         offset="1"
         id="stop2114" />
    </linearGradient>
    <linearGradient
       inkscape:collect="always"
       xlink:href="#linearGradient2116"
       id="linearGradient3500"
       x1="2"
       y1="2"
       x2="30"
       y2="30"
       gradientUnits="userSpaceOnUse" />
  </defs>
  <path
     d="M 13,3 C 3.8988095,3 2,4.939817 2,14 v 6 c 0,9.060183 1.8988095,11 11,11 h 6 c 9.10119,0 11,-1.939817 11,-11 V 14 C 30,4.939817 28.10119,3 19,3"
     style="opacity:0.2;fill:#000000;stroke-width:1;stroke-linecap:round;stroke-linejoin:round"
     id="path563" />
  <path
     id="path530"
     style="fill:url(#linearGradient3500);stroke-width:1;stroke-linecap:round;stroke-linejoin:round;fill-opacity:1"
     d="M 13 2 C 3.8988186 2 2 3.9398261 2 13 L 2 19 C 2 28.060174 3.8988186 30 13 30 L 19 30 C 28.101182 30 30 28.060174 30 19 L 30 13 C 30 3.9398261 28.101182 2 19 2 L 13 2 z " />
  <path
     id="rect291"
     style="opacity:0.6;fill:#ffffff;stroke-width:2;stroke-linecap:round;stroke-linejoin:round"
     d="M 9.9999997,6.0000005 H 18 L 19,10 l 5,2 v 12 c 0,1.107999 -0.892,2 -2,2 H 9.9999997 C 8.8919998,26 7.9999998,25.107999 7.9999998,24 V 8.0000005 c 0,-1.108 0.892,-2 1.9999999,-2 z"
     sodipodi:nodetypes="scccssssss" />
  <path
     id="rect444"
     style="fill:#ffffff;stroke-width:2;stroke-linecap:round;stroke-linejoin:round"
     d="m 24,12 h -4 c -1.108,0 -2,-0.892 -2,-2 V 6.0000005 Z"
     sodipodi:nodetypes="csscc" />
</svg>
