<?xml version="1.0" encoding="UTF-8" standalone="no"?>
<!-- Created with Inkscape (http://www.inkscape.org/) -->

<svg
   width="32"
   height="32"
   viewBox="0 0 32 32"
   version="1.1"
   id="svg5"
   inkscape:version="1.2.1 (9c6d41e410, 2022-07-14)"
   sodipodi:docname="skype.svg"
   xmlns:inkscape="http://www.inkscape.org/namespaces/inkscape"
   xmlns:sodipodi="http://sodipodi.sourceforge.net/DTD/sodipodi-0.dtd"
   xmlns:xlink="http://www.w3.org/1999/xlink"
   xmlns="http://www.w3.org/2000/svg"
   xmlns:svg="http://www.w3.org/2000/svg">
  <sodipodi:namedview
     id="namedview7"
     pagecolor="#ffffff"
     bordercolor="#000000"
     borderopacity="0.25"
     inkscape:showpageshadow="2"
     inkscape:pageopacity="0.0"
     inkscape:pagecheckerboard="0"
     inkscape:deskcolor="#d1d1d1"
     inkscape:document-units="px"
     showgrid="false"
     inkscape:zoom="25.875"
     inkscape:cx="16"
     inkscape:cy="16"
     inkscape:window-width="1920"
     inkscape:window-height="1008"
     inkscape:window-x="0"
     inkscape:window-y="0"
     inkscape:window-maximized="1"
     inkscape:current-layer="svg5" />
  <defs
     id="defs2">
    <linearGradient
       inkscape:collect="always"
       xlink:href="#linearGradient1298"
       id="linearGradient1616"
       x1="-112.15405"
       y1="222.701"
       x2="-95.503441"
       y2="286.70099"
       gradientUnits="userSpaceOnUse"
       gradientTransform="matrix(0.16023608,0,0,0.18124999,28.674183,-34.364554)" />
    <linearGradient
       inkscape:collect="always"
       id="linearGradient1298">
      <stop
         style="stop-color:#00b7f0;stop-opacity:1;"
         offset="0"
         id="stop1294" />
      <stop
         style="stop-color:#009de5;stop-opacity:1;"
         offset="0.34"
         id="stop1300" />
      <stop
         style="stop-color:#0082d9;stop-opacity:1;"
         offset="0.75"
         id="stop1302" />
      <stop
         style="stop-color:#0078d4;stop-opacity:1;"
         offset="1"
         id="stop1296" />
    </linearGradient>
    <linearGradient
       inkscape:collect="always"
       xlink:href="#linearGradient1532"
       id="linearGradient1608"
       x1="-37.954132"
       y1="385.64984"
       x2="35.820042"
       y2="341.35733"
       gradientUnits="userSpaceOnUse"
       gradientTransform="matrix(0.13094069,0,0,0.14333149,20.605953,-31.496405)" />
    <linearGradient
       inkscape:collect="always"
       id="linearGradient1532">
      <stop
         style="stop-color:#0078d4;stop-opacity:1;"
         offset="0"
         id="stop1528" />
      <stop
         style="stop-color:#007ad5;stop-opacity:1;"
         offset="0.37"
         id="stop1536" />
      <stop
         style="stop-color:#0082d9;stop-opacity:1;"
         offset="0.56999999"
         id="stop1538" />
      <stop
         style="stop-color:#0090df;stop-opacity:1;"
         offset="0.74000001"
         id="stop1540" />
      <stop
         style="stop-color:#00a3e7;stop-opacity:1;"
         offset="0.88499999"
         id="stop1542" />
      <stop
         style="stop-color:#00bcff;stop-opacity:1;"
         offset="1"
         id="stop1530" />
    </linearGradient>
    <radialGradient
       inkscape:collect="always"
       xlink:href="#linearGradient6242"
       id="radialGradient6244"
       cx="11.111111"
       cy="12.247032"
       fx="11.111111"
       fy="12.247032"
       r="5.8000002"
       gradientUnits="userSpaceOnUse"
       gradientTransform="rotate(-90,11.8,11.8)" />
    <linearGradient
       inkscape:collect="always"
       id="linearGradient6242">
      <stop
         style="stop-color:#000000;stop-opacity:1;"
         offset="0"
         id="stop6238" />
      <stop
         style="stop-color:#000000;stop-opacity:0;"
         offset="1"
         id="stop6240" />
    </linearGradient>
    <radialGradient
       inkscape:collect="always"
       xlink:href="#linearGradient6304"
       id="radialGradient6306"
       cx="19.42392"
       cy="20.898375"
       fx="19.42392"
       fy="20.898375"
       r="5.8000002"
       gradientUnits="userSpaceOnUse"
       gradientTransform="matrix(0,-1.1724136,1.1724138,0,-44.003169,3.3489475)" />
    <linearGradient
       inkscape:collect="always"
       id="linearGradient6304">
      <stop
         style="stop-color:#000000;stop-opacity:1;"
         offset="0"
         id="stop6300" />
      <stop
         style="stop-color:#000000;stop-opacity:0;"
         offset="0.87751532"
         id="stop6302" />
    </linearGradient>
    <linearGradient
       inkscape:collect="always"
       xlink:href="#linearGradient1280"
       id="linearGradient1626"
       x1="-116.60806"
       y1="234.88477"
       x2="-86.178307"
       y2="290.25656"
       gradientUnits="userSpaceOnUse"
       gradientTransform="matrix(0.28124999,0,0,0.28124999,44.437648,-55.63465)" />
    <linearGradient
       inkscape:collect="always"
       id="linearGradient1280">
      <stop
         style="stop-color:#00b7f0;stop-opacity:1;"
         offset="0"
         id="stop1276" />
      <stop
         style="stop-color:#007cc1;stop-opacity:1;"
         offset="1"
         id="stop1278" />
    </linearGradient>
  </defs>
  <path
     id="path563"
     style="opacity:0.2;fill:#000000;stroke-width:1;stroke-linecap:round;stroke-linejoin:round"
     d="M 13 3 C 3.8988186 3 2 4.9398261 2 14 L 2 20 C 2 29.060174 3.8988186 31 13 31 L 19 31 C 28.101181 31 30 29.060174 30 20 L 30 14 C 30 4.9398261 28.101181 3 19 3 L 13 3 z " />
  <path
     id="path530"
     style="fill:#f5f5f5;stroke-width:1;stroke-linecap:round;stroke-linejoin:round;fill-opacity:1"
     d="M 13 2 C 3.8988186 2 2 3.9398261 2 13 L 2 19 C 2 28.060174 3.8988186 30 13 30 L 19 30 C 28.101182 30 30 28.060174 30 19 L 30 13 C 30 3.9398261 28.101182 2 19 2 L 13 2 z " />
  <circle
     style="fill:url(#linearGradient1616);fill-opacity:1;stroke-width:0.170419;stroke-linecap:round;stroke-linejoin:round;paint-order:stroke fill markers"
     id="path1598"
     cx="11.8"
     cy="11.800001"
     r="5.8000002" />
  <circle
     style="fill:url(#linearGradient1608);fill-opacity:1;stroke-width:0.136996;stroke-linecap:round;stroke-linejoin:round;paint-order:stroke fill markers"
     id="path1600"
     cx="20.200001"
     cy="20.200001"
     r="5.8000002" />
  <circle
     style="opacity:0.4;fill:url(#radialGradient6244);fill-opacity:1;stroke-width:1;stroke-linecap:round;stroke-linejoin:round;paint-order:stroke fill markers"
     id="path6236"
     cx="11.8"
     cy="11.800001"
     r="5.8000002" />
  <circle
     style="opacity:0.4;fill:url(#radialGradient6306);fill-opacity:1;stroke-width:1.14123;stroke-linecap:round;stroke-linejoin:round;paint-order:stroke fill markers"
     id="path6298"
     cx="-20.200001"
     cy="-20.200001"
     r="5.8000002"
     transform="matrix(0,-1,-1,0,0,0)" />
  <circle
     style="fill:url(#linearGradient1626);fill-opacity:1;stroke-width:0.0370558;stroke-linecap:round;stroke-linejoin:round;paint-order:stroke fill markers"
     id="path1596"
     cx="16"
     cy="16"
     r="9" />
  <path
     d="m 13.656919,15.829817 c -0.353167,-0.228577 -0.64781,-0.534221 -0.860948,-0.893092 -0.205923,-0.378935 -0.307581,-0.804123 -0.294917,-1.233503 -0.01568,-0.544948 0.173575,-1.076464 0.531596,-1.49298 0.371986,-0.418271 0.850128,-0.73225 1.385761,-0.909981 0.582686,-0.20215 1.196605,-0.303632 1.814542,-0.299946 0.404383,-0.0038 0.808345,0.02668 1.207412,0.09099 0.28546,0.04336 0.565826,0.114482 0.836963,0.21233 0.249075,0.08288 0.473922,0.223972 0.655191,0.411144 0.133606,0.15395 0.205547,0.350449 0.202365,0.552737 0.0097,0.212216 -0.06678,0.419531 -0.212674,0.576316 -0.138377,0.144699 -0.333091,0.224416 -0.535108,0.219076 -0.137472,-10e-4 -0.273136,-0.03089 -0.397872,-0.08767 -0.307113,-0.135039 -0.623481,-0.248769 -0.946778,-0.340355 -0.297681,-0.07705 -0.604549,-0.114447 -0.912369,-0.111202 -0.400892,-0.01461 -0.797545,0.08486 -1.142269,0.286441 -0.296571,0.176953 -0.471431,0.498614 -0.456189,0.839177 -0.0022,0.219337 0.08273,0.430873 0.236649,0.589766 0.18303,0.186446 0.399284,0.338367 0.638049,0.448236 0.267571,0.130385 0.666599,0.303394 1.197086,0.519025 0.05881,0.01825 0.116143,0.04079 0.171536,0.06742 0.51767,0.201134 1.013984,0.451728 1.481796,0.748174 0.369555,0.236738 0.681159,0.550945 0.912431,0.920051 0.227606,0.387759 0.341574,0.829827 0.329291,1.27728 0.01913,0.548079 -0.140753,1.08779 -0.456248,1.540193 -0.321235,0.428275 -0.765631,0.75225 -1.275943,0.930189 -0.614911,0.215738 -1.264669,0.319666 -1.91748,0.306698 -0.897115,0.03101 -1.78999,-0.13478 -2.613706,-0.485317 -0.210791,-0.09212 -0.395614,-0.233222 -0.538533,-0.411148 -0.118466,-0.162952 -0.179865,-0.359293 -0.174958,-0.559483 -0.01196,-0.213744 0.07202,-0.421903 0.229775,-0.569562 0.163625,-0.140793 0.376083,-0.214394 0.593407,-0.205574 0.241877,0.0033 0.479444,0.06337 0.692868,0.175238 0.265184,0.130393 0.474434,0.228146 0.627751,0.29326 0.175133,0.07207 0.35653,0.12846 0.541984,0.168485 0.228612,0.04934 0.462178,0.07307 0.696229,0.07074 0.41382,0.02893 0.825593,-0.07902 1.169736,-0.306643 0.261418,-0.200956 0.408253,-0.51336 0.39443,-0.839184 5e-4,-0.227957 -0.08785,-0.447451 -0.246928,-0.613401 -0.210218,-0.212769 -0.456205,-0.388331 -0.727151,-0.51897 -0.320204,-0.166238 -0.770716,-0.368453 -1.351537,-0.606646 -0.519622,-0.203396 -1.017191,-0.457435 -1.485251,-0.75831"
     style="fill:#ffffff;fill-rule:evenodd;stroke-width:1"
     id="path9000" />
</svg>
