<?xml version="1.0" encoding="UTF-8" standalone="no"?>
<!-- Created with Inkscape (http://www.inkscape.org/) -->

<svg
   width="32"
   height="32"
   viewBox="0 0 32 32"
   version="1.1"
   id="svg5"
   inkscape:version="1.2.1 (9c6d41e410, 2022-07-14)"
   sodipodi:docname="sysprof.svg"
   xmlns:inkscape="http://www.inkscape.org/namespaces/inkscape"
   xmlns:sodipodi="http://sodipodi.sourceforge.net/DTD/sodipodi-0.dtd"
   xmlns:xlink="http://www.w3.org/1999/xlink"
   xmlns="http://www.w3.org/2000/svg"
   xmlns:svg="http://www.w3.org/2000/svg">
  <sodipodi:namedview
     id="namedview7"
     pagecolor="#ffffff"
     bordercolor="#000000"
     borderopacity="0.25"
     inkscape:showpageshadow="2"
     inkscape:pageopacity="0.0"
     inkscape:pagecheckerboard="0"
     inkscape:deskcolor="#d1d1d1"
     inkscape:document-units="px"
     showgrid="false"
     inkscape:zoom="12.15625"
     inkscape:cx="12.092545"
     inkscape:cy="18.344473"
     inkscape:window-width="1920"
     inkscape:window-height="1011"
     inkscape:window-x="0"
     inkscape:window-y="32"
     inkscape:window-maximized="1"
     inkscape:current-layer="svg5" />
  <defs
     id="defs2">
    <linearGradient
       inkscape:collect="always"
       xlink:href="#linearGradient2279"
       id="linearGradient4780"
       x1="2"
       y1="2"
       x2="30"
       y2="30"
       gradientUnits="userSpaceOnUse" />
    <linearGradient
       inkscape:collect="always"
       id="linearGradient2279">
      <stop
         style="stop-color:#838383;stop-opacity:1;"
         offset="0"
         id="stop2275" />
      <stop
         style="stop-color:#c2c2c2;stop-opacity:1;"
         offset="1"
         id="stop2277" />
    </linearGradient>
  </defs>
  <path
     d="M 13,3 C 3.8988095,3 2,4.939817 2,14 v 6 c 0,9.060183 1.8988095,11 11,11 h 6 c 9.10119,0 11,-1.939817 11,-11 V 14 C 30,4.939817 28.10119,3 19,3"
     style="opacity:0.2;fill:#000000;stroke-width:1;stroke-linecap:round;stroke-linejoin:round"
     id="path563" />
  <path
     id="path530"
     style="fill:url(#linearGradient4780);fill-opacity:1.0;stroke-width:1;stroke-linecap:round;stroke-linejoin:round"
     d="M 13,2 C 3.8988186,2 2,3.9398261 2,13 v 6 c 0,9.060174 1.8988186,11 11,11 h 6 c 9.101182,0 11,-1.939826 11,-11 V 13 C 30,3.9398261 28.101182,2 19,2 Z" />
  <path
     id="path1415"
     style="opacity:0.6;fill:#ffffff;fill-opacity:1;stroke-width:2.22222;stroke-linecap:round;stroke-linejoin:round"
     d="M 16,6.0000003 A 10,10 0 0 0 9.6835941,8.2695313 L 8.4140628,7.0000003 7.0000003,8.4140623 8.2695315,9.6835943 A 10,10 0 0 0 6.0000003,16 10,10 0 0 0 16,26 10,10 0 0 0 26,16 10,10 0 0 0 16,6.0000003 Z" />
  <circle
     style="opacity:0.6;fill:#ffffff;stroke-width:1.33333;stroke-linecap:round;stroke-linejoin:round"
     id="path2281"
     cx="16"
     cy="16"
     r="10" />
  <rect
     style="opacity:1;fill:#b3b3b3;fill-opacity:1;stroke-width:2;stroke-linecap:round;stroke-linejoin:round"
     id="rect451"
     width="2"
     height="9"
     x="20.856407"
     y="-1.4115424"
     ry="1"
     transform="rotate(30)" />
  <circle
     style="opacity:1;fill:#666666;fill-opacity:1;stroke-width:2;stroke-linecap:round;stroke-linejoin:round"
     id="path2027"
     cx="16"
     cy="16"
     r="2" />
</svg>
