<?xml version="1.0" encoding="UTF-8" standalone="no"?>
<!-- Created with Inkscape (http://www.inkscape.org/) -->

<svg
   width="32"
   height="32"
   viewBox="0 0 32 32"
   version="1.1"
   id="svg5"
   inkscape:version="1.2.1 (9c6d41e410, 2022-07-14)"
   sodipodi:docname="vim.svg"
   xmlns:inkscape="http://www.inkscape.org/namespaces/inkscape"
   xmlns:sodipodi="http://sodipodi.sourceforge.net/DTD/sodipodi-0.dtd"
   xmlns:xlink="http://www.w3.org/1999/xlink"
   xmlns="http://www.w3.org/2000/svg"
   xmlns:svg="http://www.w3.org/2000/svg">
  <sodipodi:namedview
     id="namedview7"
     pagecolor="#ffffff"
     bordercolor="#000000"
     borderopacity="0.25"
     inkscape:showpageshadow="2"
     inkscape:pageopacity="0.0"
     inkscape:pagecheckerboard="0"
     inkscape:deskcolor="#d1d1d1"
     inkscape:document-units="px"
     showgrid="false"
     inkscape:zoom="25.0625"
     inkscape:cx="16"
     inkscape:cy="16"
     inkscape:window-width="1920"
     inkscape:window-height="1008"
     inkscape:window-x="0"
     inkscape:window-y="0"
     inkscape:window-maximized="1"
     inkscape:current-layer="svg5" />
  <defs
     id="defs2">
    <linearGradient
       inkscape:collect="always"
       xlink:href="#linearGradient4207"
       id="linearGradient4780"
       x1="2"
       y1="2"
       x2="30"
       y2="30"
       gradientUnits="userSpaceOnUse" />
    <linearGradient
       inkscape:collect="always"
       id="linearGradient4207">
      <stop
         style="stop-color:#418d29;stop-opacity:1;"
         offset="0"
         id="stop4203" />
      <stop
         style="stop-color:#8fd989;stop-opacity:1;"
         offset="1"
         id="stop4205" />
    </linearGradient>
  </defs>
  <path
     d="M 13,3 C 3.8988095,3 2,4.939817 2,14 v 6 c 0,9.060183 1.8988095,11 11,11 h 6 c 9.10119,0 11,-1.939817 11,-11 V 14 C 30,4.939817 28.10119,3 19,3"
     style="opacity:0.2;fill:#000000;stroke-width:1;stroke-linecap:round;stroke-linejoin:round"
     id="path563" />
  <path
     id="path530"
     style="fill:url(#linearGradient4780);fill-opacity:1.0;stroke-width:1;stroke-linecap:round;stroke-linejoin:round"
     d="M 13,2 C 3.8988186,2 2,3.9398261 2,13 v 6 c 0,9.060174 1.8988186,11 11,11 h 6 c 9.101182,0 11,-1.939826 11,-11 V 13 C 30,3.9398261 28.101182,2 19,2 Z" />
  <rect
     style="opacity:0.5;fill:#ffffff;stroke:none;stroke-width:4;stroke-linecap:square;stroke-linejoin:miter;stroke-dasharray:none;stroke-opacity:1;paint-order:stroke fill markers"
     id="rect4147"
     width="16"
     height="16"
     x="14.627417"
     y="-8"
     ry="2"
     transform="rotate(45)" />
  <path
     id="rect898"
     style="fill:#ffffff;stroke:none;stroke-width:1.5;stroke-linecap:round;stroke-linejoin:round;paint-order:stroke fill markers"
     d="m 9,9 c -0.5539994,0 -1,0.446001 -1,1 0,0.553999 0.4460006,1 1,1 h 0.5 v 0.25 11.249898 c 0.0015,1.366255 1.680769,2.01945 2.605469,1.013672 L 23.597656,10.802734 C 23.842268,10.620774 24,10.329645 24,10 24,9.446001 23.553999,9 23,9 h -4 c -0.553999,0 -1,0.446001 -1,1 0,0.553999 0.446001,1 1,1 h 0.304688 L 12.5,18.644429 V 11.25 11 H 13 c 0.553999,0 1,-0.446001 1,-1 0,-0.553999 -0.446001,-1 -1,-1 z"
     sodipodi:nodetypes="ssscccccsssssccccssss" />
</svg>
