<?xml version="1.0" encoding="UTF-8" standalone="no"?>
<!-- Created with Inkscape (http://www.inkscape.org/) -->

<svg
   width="32"
   height="32"
   viewBox="0 0 32 32"
   version="1.1"
   id="svg5"
   inkscape:version="1.2.1 (9c6d41e410, 2022-07-14)"
   sodipodi:docname="web-microsoft.svg"
   xmlns:inkscape="http://www.inkscape.org/namespaces/inkscape"
   xmlns:sodipodi="http://sodipodi.sourceforge.net/DTD/sodipodi-0.dtd"
   xmlns="http://www.w3.org/2000/svg"
   xmlns:svg="http://www.w3.org/2000/svg">
  <sodipodi:namedview
     id="namedview7"
     pagecolor="#ffffff"
     bordercolor="#000000"
     borderopacity="0.25"
     inkscape:showpageshadow="2"
     inkscape:pageopacity="0.0"
     inkscape:pagecheckerboard="0"
     inkscape:deskcolor="#d1d1d1"
     inkscape:document-units="px"
     showgrid="false"
     inkscape:zoom="25.5625"
     inkscape:cx="15.98044"
     inkscape:cy="16"
     inkscape:window-width="1920"
     inkscape:window-height="1004"
     inkscape:window-x="0"
     inkscape:window-y="0"
     inkscape:window-maximized="1"
     inkscape:current-layer="svg5" />
  <defs
     id="defs2" />
  <path
     d="M 13,3 C 3.8988095,3 2,4.939817 2,14 v 6 c 0,9.060183 1.8988095,11 11,11 h 6 c 9.10119,0 11,-1.939817 11,-11 V 14 C 30,4.939817 28.10119,3 19,3"
     style="opacity:0.2;fill:#000000;stroke-width:1;stroke-linecap:round;stroke-linejoin:round"
     id="path563" />
  <path
     id="path530"
     style="fill:#fafafa;fill-opacity:1;stroke-width:1;stroke-linecap:round;stroke-linejoin:round"
     d="M 13,2 C 3.8988185,2 2,3.9398261 2,13 v 6 c 0,9.060174 1.8988185,11 11,11 h 6 c 9.101182,0 11,-1.939826 11,-11 V 13 C 30,3.9398261 28.101182,2 19,2 Z" />
  <rect
     style="fill:#f25022;fill-opacity:1;stroke-width:2.44565;stroke-linejoin:round"
     id="rect942"
     width="8"
     height="8"
     x="7"
     y="7" />
  <rect
     style="fill:#00a4ef;fill-opacity:1;stroke-width:2.65743;stroke-linejoin:round"
     id="rect1090"
     width="8"
     height="8"
     x="7"
     y="17" />
  <rect
     style="fill:#7fba00;fill-opacity:1;stroke-width:2.65743;stroke-linejoin:round"
     id="rect1274"
     width="8"
     height="8"
     x="17"
     y="7" />
  <rect
     style="fill:#ffb900;fill-opacity:1;stroke-width:2.65743;stroke-linejoin:round"
     id="rect1408"
     width="8"
     height="8"
     x="17"
     y="17" />
</svg>
