<?xml version="1.0" encoding="UTF-8" standalone="no"?>
<!-- Created with Inkscape (http://www.inkscape.org/) -->

<svg
   width="32"
   height="32"
   viewBox="0 0 32 32"
   version="1.1"
   id="svg5"
   inkscape:version="1.4.4 (dcaf3e7d9e, 2026-05-05)"
   sodipodi:docname="xbox.svg"
   xmlns:inkscape="http://www.inkscape.org/namespaces/inkscape"
   xmlns:sodipodi="http://sodipodi.sourceforge.net/DTD/sodipodi-0.dtd"
   xmlns="http://www.w3.org/2000/svg"
   xmlns:svg="http://www.w3.org/2000/svg">
  <sodipodi:namedview
     id="namedview7"
     pagecolor="#ffffff"
     bordercolor="#000000"
     borderopacity="0.25"
     inkscape:showpageshadow="2"
     inkscape:pageopacity="0.0"
     inkscape:pagecheckerboard="0"
     inkscape:deskcolor="#d1d1d1"
     inkscape:document-units="px"
     showgrid="false"
     inkscape:zoom="25.0625"
     inkscape:cx="16"
     inkscape:cy="16"
     inkscape:window-width="1920"
     inkscape:window-height="1010"
     inkscape:window-x="0"
     inkscape:window-y="0"
     inkscape:window-maximized="1"
     inkscape:current-layer="svg5" />
  <defs
     id="defs2" />
  <path
     d="M 13,3 C 3.8988097,3 2,4.939817 2,14 v 6 c 0,9.060183 1.8988097,11 11,11 h 6 c 9.10119,0 11,-1.939817 11,-11 V 14 C 30,4.939817 28.10119,3 19,3"
     style="opacity:0.2;fill:#000000;stroke-width:1;stroke-linecap:round;stroke-linejoin:round"
     id="path563" />
  <path
     id="path530"
     style="fill:#107c10;fill-opacity:1;stroke-width:1;stroke-linecap:round;stroke-linejoin:round"
     d="M 13,2 C 3.8988187,2 2,3.939826 2,13 v 6 c 0,9.060174 1.8988187,11 11,11 h 6 c 9.101182,0 11,-1.939826 11,-11 V 13 C 30,3.939826 28.101182,2 19,2 Z" />
  <path
     d="M 15.002785,25.958923 C 13.462095,25.811399 11.902344,25.25847 10.562492,24.384704 9.439749,23.652888 9.186378,23.351565 9.186378,22.75101 c 0,-1.206452 1.3273,-3.319893 3.598353,-5.728614 1.28941,-1.368382 3.085798,-2.97141 3.279894,-2.928197 0.377967,0.08434 3.397515,3.028095 4.528161,4.414132 1.787554,2.190805 2.609039,3.985266 2.191556,4.785154 -0.317298,0.607987 -2.286628,1.796552 -3.733176,2.253066 -1.192478,0.376362 -2.758506,0.535736 -4.048381,0.412372 z M 7.6698613,21.4967 C 6.7367993,20.066056 6.2653877,18.657715 6.0380503,16.620709 5.962736,15.948134 5.9892357,15.563641 6.2084377,14.182714 6.4811033,12.463525 7.461352,10.472519 8.6398827,9.248179 9.141514,8.7277747 9.186144,8.7138353 9.797958,8.9206027 10.53948,9.171511 11.33214,9.718864 12.561809,10.830296 l 0.718277,0.64911 -0.392844,0.480908 c -1.819633,2.232622 -3.740149,5.399182 -4.463074,7.357663 -0.392844,1.064038 -0.5509107,2.132723 -0.3812207,2.577621 0.1139014,0.300625 0.0093,0.188646 -0.374248,-0.398201 z m 16.3769257,0.243242 c 0.09229,-0.449777 -0.02441,-1.275452 -0.297538,-2.108563 -0.591591,-1.803985 -2.569522,-5.159887 -4.385668,-7.441762 l -0.571832,-0.718343 0.618788,-0.567564 c 0.807537,-0.741109 1.36821,-1.184846 1.973514,-1.561906 0.477224,-0.297373 1.159471,-0.5605947 1.452824,-0.5605947 0.180615,0 0.817301,0.6621197 1.331019,1.3823197 0.795915,1.11515 1.381229,2.469592 1.677837,3.877468 0.191772,0.910706 0.207812,2.85757 0.03092,3.765952 -0.146444,0.745292 -0.45328,1.71129 -0.750818,2.366672 -0.225478,0.490899 -0.781039,1.444584 -1.025112,1.754967 -0.125525,0.159606 -0.125525,0.159373 -0.05579,-0.184929 z M 15.167827,8.440624 C 14.329605,8.0154733 13.036708,7.5589587 12.322616,7.4358287 c -0.250117,-0.04298 -0.677131,-0.067372 -0.948403,-0.053433 -0.589498,0.02974 -0.56323,-9.333e-4 0.381919,-0.447222 0.785686,-0.3710196 1.441201,-0.5891703 2.331491,-0.7759583 1.000705,-0.2102523 2.882402,-0.212575 3.8673,-0.00514 1.063467,0.2241913 2.31615,0.6899983 3.021873,1.1244423 L 21.186933,7.407224 20.705757,7.383064 C 19.748986,7.3347773 18.35474,7.7211253 16.857751,8.44876 16.40633,8.6685373 16.013951,8.8437087 15.985128,8.839062 15.956535,8.833462 15.588563,8.6543653 15.166896,8.4406287 Z"
     style="fill:#ffffff;stroke-width:1"
     id="path1" />
</svg>
