<?xml version="1.0" encoding="UTF-8" standalone="no"?>
<!-- Created with Inkscape (http://www.inkscape.org/) -->

<svg
   width="32"
   height="32"
   viewBox="0 0 32 32"
   version="1.1"
   id="svg5"
   inkscape:version="1.2.1 (9c6d41e410, 2022-07-14)"
   sodipodi:docname="xfwm4.svg"
   xmlns:inkscape="http://www.inkscape.org/namespaces/inkscape"
   xmlns:sodipodi="http://sodipodi.sourceforge.net/DTD/sodipodi-0.dtd"
   xmlns:xlink="http://www.w3.org/1999/xlink"
   xmlns="http://www.w3.org/2000/svg"
   xmlns:svg="http://www.w3.org/2000/svg">
  <sodipodi:namedview
     id="namedview7"
     pagecolor="#ffffff"
     bordercolor="#000000"
     borderopacity="0.25"
     inkscape:showpageshadow="2"
     inkscape:pageopacity="0.0"
     inkscape:pagecheckerboard="0"
     inkscape:deskcolor="#d1d1d1"
     inkscape:document-units="px"
     showgrid="false"
     inkscape:zoom="25.25"
     inkscape:cx="16"
     inkscape:cy="16"
     inkscape:window-width="1920"
     inkscape:window-height="1011"
     inkscape:window-x="0"
     inkscape:window-y="32"
     inkscape:window-maximized="1"
     inkscape:current-layer="svg5" />
  <defs
     id="defs2">
    <linearGradient
       inkscape:collect="always"
       xlink:href="#linearGradient1484"
       id="linearGradient4780"
       x1="2"
       y1="2"
       x2="30"
       y2="30"
       gradientUnits="userSpaceOnUse" />
    <linearGradient
       inkscape:collect="always"
       xlink:href="#linearGradient1484"
       id="linearGradient4027"
       x1="1.0606601"
       y1="-0.35355353"
       x2="20.85965"
       y2="-0.35355353"
       gradientUnits="userSpaceOnUse"
       gradientTransform="matrix(1.4142136,1.4142136,-1.4142136,1.4142136,-2.4047363e-7,1.0000002)" />
    <linearGradient
       inkscape:collect="always"
       id="linearGradient1484">
      <stop
         style="stop-color:#007dde;stop-opacity:1;"
         offset="0"
         id="stop1480" />
      <stop
         style="stop-color:#2fbce5;stop-opacity:1;"
         offset="1"
         id="stop1482" />
    </linearGradient>
  </defs>
  <path
     d="M 13,3 C 3.8988095,3 2,4.939817 2,14 v 6 c 0,9.060183 1.8988095,11 11,11 h 6 c 9.10119,0 11,-1.939817 11,-11 V 14 C 30,4.939817 28.10119,3 19,3"
     style="opacity:0.2;fill:#000000;stroke-width:1;stroke-linecap:round;stroke-linejoin:round"
     id="path563" />
  <path
     id="path530"
     style="fill:url(#linearGradient4780);fill-opacity:1.0;stroke-width:1;stroke-linecap:round;stroke-linejoin:round"
     d="M 13,2 C 3.8988186,2 2,3.9398261 2,13 v 6 c 0,9.060174 1.8988186,11 11,11 h 6 c 9.101182,0 11,-1.939826 11,-11 V 13 C 30,3.9398261 28.101182,2 19,2 Z" />
  <rect
     style="fill:#5cb9ea;fill-opacity:1;stroke-width:2"
     id="rect371"
     width="16"
     height="14"
     x="10"
     y="7"
     ry="1" />
  <rect
     style="fill:#b0dbf3;fill-opacity:1;stroke-width:2"
     id="rect346"
     width="16"
     height="14"
     x="8"
     y="9"
     ry="1" />
  <rect
     style="fill:#ffffff;stroke-width:2"
     id="rect344"
     width="16"
     height="14"
     x="6"
     y="11"
     ry="1" />
  <path
     id="rect3263"
     style="fill:url(#linearGradient4027);fill-opacity:1;stroke-width:2"
     d="M 11.171874,13.757813 9.7578124,15.171876 12.585937,18.000001 9.7578134,20.828126 11.171875,22.242188 14,19.414064 16.828124,22.242188 18.242186,20.828126 15.414062,18.000001 18.242186,15.171876 16.828124,13.757814 14,16.585939 Z" />
</svg>
