<?xml version="1.0" encoding="UTF-8" standalone="no"?>
<!-- Created with Inkscape (http://www.inkscape.org/) -->

<svg
   width="32"
   height="32"
   viewBox="0 0 32 32"
   version="1.1"
   id="svg5"
   inkscape:version="1.2.1 (9c6d41e410, 2022-07-14)"
   sodipodi:docname="yast.svg"
   xmlns:inkscape="http://www.inkscape.org/namespaces/inkscape"
   xmlns:sodipodi="http://sodipodi.sourceforge.net/DTD/sodipodi-0.dtd"
   xmlns:xlink="http://www.w3.org/1999/xlink"
   xmlns="http://www.w3.org/2000/svg"
   xmlns:svg="http://www.w3.org/2000/svg">
  <sodipodi:namedview
     id="namedview7"
     pagecolor="#ffffff"
     bordercolor="#000000"
     borderopacity="0.25"
     inkscape:showpageshadow="2"
     inkscape:pageopacity="0.0"
     inkscape:pagecheckerboard="0"
     inkscape:deskcolor="#d1d1d1"
     inkscape:document-units="px"
     showgrid="false"
     inkscape:zoom="25.875"
     inkscape:cx="16"
     inkscape:cy="16"
     inkscape:window-width="1920"
     inkscape:window-height="1008"
     inkscape:window-x="0"
     inkscape:window-y="0"
     inkscape:window-maximized="1"
     inkscape:current-layer="svg5" />
  <defs
     id="defs2">
    <linearGradient
       inkscape:collect="always"
       xlink:href="#linearGradient4246"
       id="linearGradient4780"
       x1="2"
       y1="2"
       x2="30"
       y2="30"
       gradientUnits="userSpaceOnUse" />
    <linearGradient
       inkscape:collect="always"
       id="linearGradient4246">
      <stop
         style="stop-color:#23aea1;stop-opacity:1;"
         offset="0"
         id="stop4242" />
      <stop
         style="stop-color:#49c77c;stop-opacity:1;"
         offset="1"
         id="stop4244" />
    </linearGradient>
  </defs>
  <path
     d="M 13,3 C 3.8988095,3 2,4.939817 2,14 v 6 c 0,9.060183 1.8988095,11 11,11 h 6 c 9.10119,0 11,-1.939817 11,-11 V 14 C 30,4.939817 28.10119,3 19,3"
     style="opacity:0.2;fill:#000000;stroke-width:1;stroke-linecap:round;stroke-linejoin:round"
     id="path563" />
  <path
     id="path530"
     style="fill:url(#linearGradient4780);fill-opacity:1.0;stroke-width:1;stroke-linecap:round;stroke-linejoin:round"
     d="M 13,2 C 3.8988186,2 2,3.9398261 2,13 v 6 c 0,9.060174 1.8988186,11 11,11 h 6 c 9.101182,0 11,-1.939826 11,-11 V 13 C 30,3.9398261 28.101182,2 19,2 Z" />
  <path
     d="m 9.2605944,7 0.8523226,2.001005 2.083987,2.380344 c -0.675695,0.106688 -1.276708,0.288059 -1.843343,0.504993 -0.320067,0.154106 -0.6259076,0.320065 -0.7966096,0.657913 l -0.519218,0.919894 C 8.8705863,13.801997 8.5161443,13.857846 8.1688133,14.13168 l -1.422515,1.110749 c 0.283316,0.13751 0.536999,0.317693 0.770529,0.531073 -0.251312,-0.138697 -0.49551,-0.284505 -0.788311,-0.361558 -0.203894,-0.03201 -0.405417,-0.02963 -0.59153,0.118543 -0.167147,0.138697 -0.148179,0.37341 -0.1138,0.592714 0.06401,0.339034 0.347331,0.640133 0.669767,0.867736 0.299915,0.133953 0.576119,0.06519 0.841656,-0.09128 0.229972,-0.213378 0.323621,-0.587975 0.295171,-1.100079 0.165958,-0.03082 0.12921,0.95664 0.158848,0.844026 0.01542,-0.06046 2.4384287,-1.486117 3.0797467,-1.636668 0.654356,-0.16833 1.675012,-0.0084 2.413535,-0.238406 0.458761,-0.146994 0.794237,-0.281358 1.078741,-0.718782 l -0.228789,0.486026 c -0.171057,0.27652 -0.439006,0.479383 -0.751562,0.569007 l -1.576162,4.376607 -0.0083,4.231982 -0.751957,1.066889 0.487211,-0.0166 0.519219,-0.686364 -0.381708,0.821504 c 0,0 2.4977,-0.16714 2.4977,-0.14936 0,0.0178 -0.77053,-5.061784 -0.77053,-5.061784 0,0 0.834543,-0.932933 0.852325,-0.945973 0.01778,-0.01422 3.852934,1.024211 3.852934,1.024211 l -0.467061,-0.551223 -0.384079,-0.212193 0.465875,0.154106 c 0,0 1.082297,1.311085 1.087038,1.330053 0.0047,0.0178 0.193227,-0.2359 0.193227,-0.2359 l -1.13327,4.599465 1.505495,0.513293 -0.0474,-0.702962 0.360371,0.872478 0.553594,0.03674 -0.374597,-0.909216 0.651987,0.791868 0.357999,-0.07112 -0.644873,-0.928192 0.752749,-4.480922 -0.867735,-0.685186 -0.672136,-0.900926 0.636572,0.64843 -0.689918,-0.982721 -0.05454,-1.298046 0.241829,1.117861 0.260791,-0.918709 -0.13514,1.072814 0.501437,1.100079 1.002874,0.746822 -0.019,0.1719 1.18982,-0.289247 0.509735,-1.152236 0.04386,-0.713629 0.0735,0.723112 c 0,0 -0.438608,1.062145 -0.438608,1.098893 0,0.03556 0.572561,-0.541741 0.572561,-0.541741 l -0.628278,0.739708 1.00406,1.811337 0.340219,1.974925 0.250125,-0.179 -0.05336,0.07112 -0.806092,1.052662 0.528701,-0.11498 0.205078,-0.324809 -0.09008,0.395935 0.188481,0.0094 -0.04386,0.432683 0.393563,-0.352073 0.293987,0.09126 0.09128,-0.525145 v 0.533443 l 0.276205,-0.05454 0.13394,0.450464 0.19678,-0.567821 L 26,24.596407 c -0.367433,-2.78811 -0.85346,-5.219136 -0.983856,-8.007268 -0.01429,-0.531073 -0.459947,-0.670042 -0.940048,-1.284095 -0.560717,-0.645968 -1.705841,-2.026994 -3.331064,-2.414629 -0.886701,-0.105504 -1.789998,0.03794 -2.773905,0.359184 -0.870106,0.254869 -1.768663,-0.591543 -2.745456,-0.123299 0.229973,0.376967 0.534629,0.746821 1.053847,1.185429 0.162404,0.158849 0.455205,0.202709 0.743264,0.180187 -0.199152,0.07113 -0.404231,0.130396 -0.618794,0.01778 -0.349702,-0.237081 -0.637761,-0.533439 -0.912781,-0.846392 -0.167327,-0.207641 -0.308651,-0.434952 -0.420828,-0.67688 -0.16596,-0.376967 0.02964,-0.85588 0.349702,-1.370357 0.290431,-0.356815 0.610496,-0.705331 1.261298,-0.955457 0.585602,-0.233529 1.173575,-0.467059 1.729541,-0.775271 0.628277,-0.407788 1.63115,-1.707019 2.164595,-2.6150581 -1.453338,0.5334441 -2.905488,0.9601986 -4.350527,1.8113371 -0.540556,0.371039 -1.070443,0.945973 -1.610999,1.541059 -0.229974,0.260794 -0.478914,0.504993 -0.806093,0.678065 -0.449277,0.240642 -0.758674,0.01186 -0.966124,-0.171886 C 12.520276,10.780873 12.235458,10.400715 11.991824,9.994396 11.671758,9.555787 11.336282,9.115992 10.845514,8.6773836 10.281249,8.1534231 9.7727004,7.5488533 9.2605944,7 Z m 9.1941926,1.4379259 -1.280264,1.5540981 0.868921,-0.301099 -1.74851,0.857066 z m -6.072956,3.2445221 c 0.112616,-0.0024 0.225231,0 0.334291,0.01186 -0.707702,0.05453 -1.031324,0.176626 -1.645377,0.491951 0.225232,-0.171888 0.352073,-0.299914 0.75749,-0.43861 0.177815,-0.03911 0.366298,-0.06164 0.553596,-0.06519 z m 0.19678,0.976793 c 0.349702,0.0059 0.586788,0.160033 0.586788,0.160033 -0.775271,-0.208636 -1.20084,-0.03556 -1.532761,0.471801 -0.03911,-0.03201 0.22049,-0.472986 0.564265,-0.577304 0.137511,-0.04149 0.265537,-0.0569 0.381708,-0.05454 z m -0.05927,0.260796 c 0.07355,-0.0031 0.147204,0.0029 0.219304,0.01778 0.144622,0.05097 0.211006,0.158846 0.282132,0.260794 -0.15055,-0.132768 -0.305841,-0.237085 -0.494324,-0.188484 0.213378,0.02371 0.292802,0.157662 0.323623,0.333106 0.02608,0.235901 -0.17663,0.374596 -0.311769,0.394748 -0.135138,0.02016 -0.308211,-0.01422 -0.407788,-0.160032 -0.02846,-0.05927 -0.104318,-0.277391 0.0166,-0.432682 -0.132048,0.05372 -0.253323,0.130826 -0.358,0.227602 0.09128,-0.132768 0.202709,-0.237086 0.37104,-0.348515 0.109538,-0.06346 0.23273,-0.09964 0.359185,-0.105505 z m -5.7208857,2.864132 c 0.18137,0.214564 0.358,0.420828 0.444537,0.70533 0.01186,0.263166 -0.104319,0.257239 -0.218119,0.256055 -0.09483,-0.0011 -0.275021,-0.109061 -0.216934,-0.196783 0.05607,-0.11391 0.07985,-0.241007 0.06876,-0.367483 z m -0.66384,0.06519 c 0.14225,0.149364 0.282132,0.24894 0.308211,0.457575 0.01068,0.04979 0.02016,0.173076 -0.07824,0.154107 -0.286875,-0.271459 -0.113802,-0.241824 -0.228789,-0.611679 z"
     style="fill:#ffffff;stroke-width:2"
     id="path2154"
     sodipodi:nodetypes="cccccccccccccccccccccccccccscccccccccccccccccccccccccccccccccsccccccccccccccccccccccccccccccccccccccccccccccccccccccccccccccccccccccccccccccccc" />
</svg>
