<?xml version="1.0" encoding="UTF-8" standalone="no"?>
<!-- Created with Inkscape (http://www.inkscape.org/) -->

<svg
   width="128"
   height="128"
   viewBox="0 0 128 128"
   version="1.1"
   id="svg5"
   inkscape:version="1.4 (e7c3feb100, 2024-10-09)"
   sodipodi:docname="accessories-camera.svg"
   xmlns:inkscape="http://www.inkscape.org/namespaces/inkscape"
   xmlns:sodipodi="http://sodipodi.sourceforge.net/DTD/sodipodi-0.dtd"
   xmlns:xlink="http://www.w3.org/1999/xlink"
   xmlns="http://www.w3.org/2000/svg"
   xmlns:svg="http://www.w3.org/2000/svg">
  <sodipodi:namedview
     id="namedview7"
     pagecolor="#ffffff"
     bordercolor="#000000"
     borderopacity="0.25"
     inkscape:showpageshadow="2"
     inkscape:pageopacity="0.0"
     inkscape:pagecheckerboard="0"
     inkscape:deskcolor="#d1d1d1"
     inkscape:document-units="px"
     showgrid="false"
     inkscape:zoom="6.140625"
     inkscape:cx="64"
     inkscape:cy="64"
     inkscape:window-width="1920"
     inkscape:window-height="1011"
     inkscape:window-x="0"
     inkscape:window-y="0"
     inkscape:window-maximized="1"
     inkscape:current-layer="svg5"
     showguides="false" />
  <defs
     id="defs2">
    <linearGradient
       inkscape:collect="always"
       id="linearGradient2596">
      <stop
         style="stop-color:#644fce;stop-opacity:1;"
         offset="0"
         id="stop2592" />
      <stop
         style="stop-color:#526ad8;stop-opacity:1;"
         offset="1"
         id="stop2594" />
    </linearGradient>
    <linearGradient
       inkscape:collect="always"
       xlink:href="#linearGradient2596"
       id="linearGradient2"
       x1="4"
       y1="4"
       x2="60"
       y2="60"
       gradientUnits="userSpaceOnUse"
       gradientTransform="scale(2)" />
    <linearGradient
       inkscape:collect="always"
       xlink:href="#4852"
       id="linearGradient3500"
       x1="2"
       y1="2"
       x2="30"
       y2="30"
       gradientUnits="userSpaceOnUse"
       gradientTransform="scale(4)" />
    <linearGradient
       inkscape:collect="always"
       id="4852">
      <stop
         style="stop-color:#272727;stop-opacity:1;"
         offset="0"
         id="stop14555" />
      <stop
         style="stop-color:#5d5d5d;stop-opacity:1;"
         offset="1"
         id="stop14557" />
    </linearGradient>
  </defs>
  <path
     d="M 52,9 C 15.595238,9 8,16.759268 8,53 v 24 c 0,36.24073 7.595238,44 44,44 h 24 c 36.40476,0 44,-7.75927 44,-44 V 53 C 120,16.759268 112.40476,9 76,9"
     style="opacity:0.2;fill:#000000;stroke-width:4;stroke-linecap:round;stroke-linejoin:round"
     id="path563" />
  <path
     id="path530"
     style="fill:url(#linearGradient3500);fill-opacity:1;stroke-width:4;stroke-linecap:round;stroke-linejoin:round"
     d="M 52,8 C 15.595274,8 8,15.759304 8,52 v 24 c 0,36.2407 7.595274,44 44,44 h 24 c 36.40473,0 44,-7.7593 44,-44 V 52 C 120,15.759304 112.40473,8 76,8 Z" />
  <rect
     style="fill:#ffffff;stroke-width:2"
     id="rect1"
     width="12"
     height="12"
     x="88"
     y="44" />
  <path
     id="rect446"
     style="fill:url(#linearGradient2);stroke-width:4;stroke-linecap:round;stroke-linejoin:round"
     d="m 56,28 c -4.43198,0 -5.541582,2.312374 -8,6 l -4,6 H 34 c -5.539982,0 -10,4.460018 -10,10 v 36 c 0,5.539982 4.460018,10 10,10 h 60 c 5.539982,0 10,-4.460018 10,-10 V 50 C 104,44.460018 99.539982,40 94,40 H 84 l -4,-6 c -2.45842,-3.687626 -3.56802,-6 -8,-6 z m 38,18 c 2.209132,0 4,1.79087 4,4 0,2.209132 -1.790868,4 -4,4 -2.209132,0 -4,-1.790868 -4,-4 0,-2.20913 1.790868,-4 4,-4 z M 64,56 c 6.627416,0 12,5.372584 12,12 0,6.627416 -5.372584,12 -12,12 -6.627416,0 -12,-5.372584 -12,-12 0,-6.627416 5.372584,-12 12,-12 z"
     sodipodi:nodetypes="sscsssssssscsssssssssssss" />
  <path
     id="path669"
     style="opacity:0.6;fill:#ffffff;stroke-width:14.2857;stroke-linecap:round;stroke-linejoin:round"
     d="M 64,48 A 20,20 0 0 0 44,68 20,20 0 0 0 64,88 20,20 0 0 0 84,68 20,20 0 0 0 64,48 Z m 0,8 c 6.627398,0 12,5.37261 12,12 0,6.627398 -5.372602,12 -12,12 -6.627394,0 -12,-5.372602 -12,-12 0,-6.62739 5.372606,-12 12,-12 z" />
</svg>
