<?xml version="1.0" encoding="UTF-8" standalone="no"?>
<!-- Created with Inkscape (http://www.inkscape.org/) -->

<svg
   width="128"
   height="128"
   viewBox="0 0 128 128"
   version="1.1"
   id="svg5"
   inkscape:version="1.4 (e7c3feb100, 2024-10-09)"
   sodipodi:docname="indicator-weather.svg"
   xmlns:inkscape="http://www.inkscape.org/namespaces/inkscape"
   xmlns:sodipodi="http://sodipodi.sourceforge.net/DTD/sodipodi-0.dtd"
   xmlns:xlink="http://www.w3.org/1999/xlink"
   xmlns="http://www.w3.org/2000/svg"
   xmlns:svg="http://www.w3.org/2000/svg">
  <sodipodi:namedview
     id="namedview7"
     pagecolor="#ffffff"
     bordercolor="#000000"
     borderopacity="0.25"
     inkscape:showpageshadow="2"
     inkscape:pageopacity="0.0"
     inkscape:pagecheckerboard="0"
     inkscape:deskcolor="#d1d1d1"
     inkscape:document-units="px"
     showgrid="false"
     inkscape:zoom="6.140625"
     inkscape:cx="64"
     inkscape:cy="64"
     inkscape:window-width="1920"
     inkscape:window-height="1011"
     inkscape:window-x="0"
     inkscape:window-y="0"
     inkscape:window-maximized="1"
     inkscape:current-layer="svg5" />
  <defs
     id="defs2">
    <linearGradient
       inkscape:collect="always"
       xlink:href="#linearGradient4367"
       id="linearGradient7467"
       x1="23"
       y1="23"
       x2="15"
       y2="12"
       gradientUnits="userSpaceOnUse"
       gradientTransform="matrix(4,0,0,4,11.999997,3.9999888)" />
    <linearGradient
       inkscape:collect="always"
       id="linearGradient4367">
      <stop
         style="stop-color:#d3d3d3;stop-opacity:1;"
         offset="0"
         id="stop4363" />
      <stop
         style="stop-color:#ebf3fb;stop-opacity:1;"
         offset="1"
         id="stop4365" />
    </linearGradient>
    <linearGradient
       inkscape:collect="always"
       xlink:href="#linearGradient2879"
       id="linearGradient2881"
       x1="29"
       y1="29"
       x2="16"
       y2="3"
       gradientUnits="userSpaceOnUse"
       gradientTransform="matrix(2.1538462,0,0,2.1538462,17.538448,25.538454)" />
    <linearGradient
       inkscape:collect="always"
       id="linearGradient2879">
      <stop
         style="stop-color:#ff8e42;stop-opacity:1;"
         offset="0"
         id="stop2875" />
      <stop
         style="stop-color:#ffdc42;stop-opacity:1;"
         offset="1"
         id="stop2877" />
    </linearGradient>
    <linearGradient
       inkscape:collect="always"
       xlink:href="#4852"
       id="linearGradient3500"
       x1="2"
       y1="2"
       x2="30"
       y2="30"
       gradientUnits="userSpaceOnUse"
       gradientTransform="scale(4)" />
    <linearGradient
       inkscape:collect="always"
       id="4852">
      <stop
         style="stop-color:#272727;stop-opacity:1;"
         offset="0"
         id="stop14555" />
      <stop
         style="stop-color:#5d5d5d;stop-opacity:1;"
         offset="1"
         id="stop14557" />
    </linearGradient>
  </defs>
  <path
     d="M 52,9 C 15.595238,9 8,16.759268 8,53 v 24 c 0,36.24073 7.595238,44 44,44 h 24 c 36.40476,0 44,-7.75927 44,-44 V 53 C 120,16.759268 112.40476,9 76,9"
     style="opacity:0.2;fill:#000000;stroke-width:4;stroke-linecap:round;stroke-linejoin:round"
     id="path563" />
  <path
     id="path530"
     style="fill:url(#linearGradient3500);fill-opacity:1;stroke-width:4;stroke-linecap:round;stroke-linejoin:round"
     d="M 52,8 C 15.595274,8 8,15.759304 8,52 v 24 c 0,36.2407 7.595274,44 44,44 h 24 c 36.40473,0 44,-7.7593 44,-44 V 52 C 120,15.759304 112.40473,8 76,8 Z" />
  <circle
     style="fill:url(#linearGradient2881);fill-opacity:1;stroke:none;stroke-width:4.30768;stroke-linecap:round;stroke-linejoin:round;stroke-dasharray:none;stroke-opacity:1"
     id="path2873"
     cx="51.999996"
     cy="60"
     r="28" />
  <path
     id="path3280"
     style="fill:url(#linearGradient7467);fill-opacity:1;stroke-width:20;stroke-linecap:round;stroke-linejoin:round"
     d="m 72.000004,51.999988 a 20,20 0 0 0 -20,20 c -6.647996,0 -12.000008,5.352008 -12.000008,12 0,6.647992 5.352012,12 12.000008,12 h 40 c 6.647992,0 11.999996,-5.352008 11.999996,-12 0,-6.647992 -5.352004,-12 -11.999996,-12 a 20,20 0 0 0 -20,-20 z" />
</svg>
