<?xml version="1.0" encoding="UTF-8" standalone="no"?>
<!-- Created with Inkscape (http://www.inkscape.org/) -->

<svg
   width="128"
   height="128"
   viewBox="0 0 128 128"
   version="1.1"
   id="svg5"
   inkscape:version="1.2.1 (9c6d41e410, 2022-07-14)"
   sodipodi:docname="tilix.svg"
   xmlns:inkscape="http://www.inkscape.org/namespaces/inkscape"
   xmlns:sodipodi="http://sodipodi.sourceforge.net/DTD/sodipodi-0.dtd"
   xmlns:xlink="http://www.w3.org/1999/xlink"
   xmlns="http://www.w3.org/2000/svg"
   xmlns:svg="http://www.w3.org/2000/svg">
  <sodipodi:namedview
     id="namedview7"
     pagecolor="#ffffff"
     bordercolor="#000000"
     borderopacity="0.25"
     inkscape:showpageshadow="2"
     inkscape:pageopacity="0.0"
     inkscape:pagecheckerboard="0"
     inkscape:deskcolor="#d1d1d1"
     inkscape:document-units="px"
     showgrid="false"
     inkscape:zoom="6.1875"
     inkscape:cx="63.919192"
     inkscape:cy="64"
     inkscape:window-width="1920"
     inkscape:window-height="1004"
     inkscape:window-x="0"
     inkscape:window-y="0"
     inkscape:window-maximized="1"
     inkscape:current-layer="svg5"
     showguides="false" />
  <defs
     id="defs2">
    <linearGradient
       inkscape:collect="always"
       xlink:href="#4852"
       id="linearGradient3500"
       x1="2"
       y1="2"
       x2="30"
       y2="30"
       gradientUnits="userSpaceOnUse"
       gradientTransform="scale(4)" />
    <linearGradient
       inkscape:collect="always"
       id="4852">
      <stop
         style="stop-color:#272727;stop-opacity:1;"
         offset="0"
         id="stop14555" />
      <stop
         style="stop-color:#5d5d5d;stop-opacity:1;"
         offset="1"
         id="stop14557" />
    </linearGradient>
  </defs>
  <path
     d="M 52,9 C 15.595238,9 8,16.759268 8,53 v 24 c 0,36.24073 7.595238,44 44,44 h 24 c 36.40476,0 44,-7.75927 44,-44 V 53 C 120,16.759268 112.40476,9 76,9"
     style="opacity:0.2;fill:#000000;stroke-width:4;stroke-linecap:round;stroke-linejoin:round"
     id="path563" />
  <path
     id="path530"
     style="fill:url(#linearGradient3500);fill-opacity:1;stroke-width:4;stroke-linecap:round;stroke-linejoin:round"
     d="M 51.999998,8 C 15.595274,8 8,15.759304 8,51.999998 V 76.000002 C 8,112.2407 15.595274,120 51.999998,120 H 76.000002 C 112.40472,120 120,112.2407 120,76.000002 V 51.999998 C 120,15.759304 112.40472,8 76.000002,8 Z" />
  <path
     id="rect8005"
     style="opacity:0.1;fill:#ffffff;stroke-width:8.00002;stroke-linecap:round;stroke-linejoin:round"
     d="M 64,8 V 120 H 76.000002 C 112.4047,120 120,112.24066 120,76.000002 V 51.999998 C 120,15.75934 112.4047,8 76.000002,8 Z" />
  <path
     id="path14734"
     style="fill:#ffffff;stroke-width:3.3381"
     d="m 22,28 v 4 l 16,8 -16,8.000002 v 3.999996 L 42,42.000002 V 38 Z m 49.999998,0 v 4 l 15.999998,8 -15.999998,8.000002 v 3.999996 L 92,42.000002 V 38 Z M 42,51.999998 v 4.000004 h 16 v -4.000004 z m 50,0 v 4.000004 h 16 v -4.000004 z"
     sodipodi:nodetypes="cccccccccccccccccccccccccc" />
</svg>
