<?xml version="1.0" encoding="UTF-8" standalone="no"?>
<!-- Created with Inkscape (http://www.inkscape.org/) -->

<svg
   width="16"
   height="16"
   viewBox="0 0 16 16"
   version="1.1"
   id="svg5"
   inkscape:version="1.4 (e7c3feb100, 2024-10-09)"
   sodipodi:docname="accessories-document-viewer.svg"
   xmlns:inkscape="http://www.inkscape.org/namespaces/inkscape"
   xmlns:sodipodi="http://sodipodi.sourceforge.net/DTD/sodipodi-0.dtd"
   xmlns:xlink="http://www.w3.org/1999/xlink"
   xmlns="http://www.w3.org/2000/svg"
   xmlns:svg="http://www.w3.org/2000/svg">
  <sodipodi:namedview
     id="namedview7"
     pagecolor="#ffffff"
     bordercolor="#000000"
     borderopacity="0.25"
     inkscape:showpageshadow="2"
     inkscape:pageopacity="0.0"
     inkscape:pagecheckerboard="0"
     inkscape:deskcolor="#d1d1d1"
     inkscape:document-units="px"
     showgrid="false"
     inkscape:zoom="50"
     inkscape:cx="8"
     inkscape:cy="8"
     inkscape:window-width="1920"
     inkscape:window-height="1011"
     inkscape:window-x="0"
     inkscape:window-y="0"
     inkscape:window-maximized="1"
     inkscape:current-layer="svg5" />
  <defs
     id="defs2">
    <linearGradient
       inkscape:collect="always"
       id="linearGradient1090">
      <stop
         style="stop-color:#e23737;stop-opacity:1;"
         offset="0"
         id="stop1086" />
      <stop
         style="stop-color:#e37d7d;stop-opacity:1;"
         offset="1"
         id="stop1088" />
    </linearGradient>
    <linearGradient
       inkscape:collect="always"
       xlink:href="#linearGradient1090"
       id="linearGradient2"
       x1="0"
       y1="0"
       x2="16"
       y2="16"
       gradientUnits="userSpaceOnUse" />
    <linearGradient
       inkscape:collect="always"
       xlink:href="#4852"
       id="linearGradient1091"
       x1="0"
       y1="0"
       x2="16"
       y2="16"
       gradientUnits="userSpaceOnUse" />
    <linearGradient
       inkscape:collect="always"
       id="4852">
      <stop
         style="stop-color:#272727;stop-opacity:1;"
         offset="0"
         id="stop14555" />
      <stop
         style="stop-color:#5d5d5d;stop-opacity:1;"
         offset="1"
         id="stop14557" />
    </linearGradient>
  </defs>
  <path
     id="path530"
     style="fill:url(#linearGradient1091);fill-opacity:1;stroke-width:0.5;stroke-linecap:round;stroke-linejoin:round"
     d="M 6,0 C 1.4494094,0 0,1.469913 0,6 v 4 c 0,4.530087 1.4494094,6 6,6 h 4 c 4.550591,0 6,-1.469914 6,-6 V 6 C 16,1.469913 14.550591,0 10,0 Z" />
  <path
     id="path24130"
     style="color:#000000;fill:url(#linearGradient2);stroke-width:0.5;-inkscape-stroke:none"
     d="m 7.3383155,2.0002517 c -0.1029177,0 -0.1760671,-9.538e-4 -0.2617187,0.019531 -0.085652,0.020485 -0.1657285,0.072208 -0.2167969,0.1152346 -0.1582212,0.1326252 -0.2194839,0.3135551 -0.2675781,0.5332032 -0.048094,0.2196479 -0.070788,0.486413 -0.070312,0.796875 7.463e-4,0.6383612 0.090224,1.2501485 0.2871094,2.0253906 l 0.1035156,0.40625 -0.091797,0.2890625 v 0.00195 C 6.4624517,7.3326703 5.9411225,8.5275339 5.1683937,9.9689986 4.8732692,10.519543 4.6504084,10.803387 4.3910499,11.218998 c -0.018618,-0.02419 -0.038666,-0.05045 -0.039063,-0.05078 -3.44e-4,-2.9e-4 -0.038641,-0.02711 -0.039063,-0.02734 -4.206e-4,-2.35e-4 -0.027202,-0.01327 -0.039063,-0.01758 -0.094879,-0.03446 -0.1290622,-0.01435 -0.1582031,-0.0078 -0.058282,0.01306 -0.08929,0.03061 -0.1308594,0.05078 -0.1662753,0.08069 -0.4163665,0.239279 -0.6953125,0.449218 -0.572389,0.430767 -1.0447292,0.96156 -1.2167969,1.449219 -0.054411,0.154242 -0.095052,0.284493 -0.060547,0.443359 0.034506,0.158866 0.1676002,0.273272 0.2871093,0.333985 0.1760021,0.08944 0.3322863,0.150773 0.5019531,0.158203 0.1696668,0.0074 0.3293512,-0.04509 0.4863282,-0.123047 0.6452101,-0.320258 1.3383803,-1.185999 2.1367187,-2.507812 0.126636,-0.20967 0.2088399,-0.3384 0.2558594,-0.400391 0.011755,-0.0155 0.00978,-0.01313 0.015625,-0.01953 0.010105,-0.0023 0.019607,-0.0049 0.03125,-0.0078 0.033562,-0.0084 0.07523,-0.0194 0.125,-0.0332 0.099539,-0.02762 0.2285186,-0.06427 0.3652344,-0.105469 1.0629085,-0.3203 2.3493072,-0.582107 3.6074219,-0.734375 l 0.34961,-0.04297 0.146483,0.07227 c 0.582514,0.292235 1.364677,0.565644 1.966797,0.683594 0.20971,0.04108 0.440259,0.06437 0.648438,0.07031 0.208178,0.0059 0.374243,0.008 0.537109,-0.04883 0.08855,-0.03096 0.170023,-0.07581 0.251953,-0.126953 0.04097,-0.02557 0.0796,-0.05221 0.117188,-0.08398 0.0188,-0.01589 0.03816,-0.0327 0.06055,-0.06055 0.02239,-0.02785 0.06445,-0.06344 0.06445,-0.175781 v -0.148466 c 0.0068,-0.01888 0.02022,-0.04329 0.02344,-0.05859 0.01269,-0.06032 0.01068,-0.107535 0.0078,-0.1582023 C 13.99276,9.8891531 13.98509,9.7931334 13.91447,9.6740834 13.730037,9.3630183 13.36103,9.2371919 12.885191,9.1486892 12.463589,9.0702223 11.629305,9.0587493 10.943784,9.1037673 l -0.513671,0.033203 -0.146485,-0.089844 C 9.0944724,8.3267732 8.5011786,7.5635597 7.924253,6.0002517 7.8808137,5.8825307 7.8629688,5.825286 7.8597999,5.8049392 c -0.00317,-0.020347 -0.00355,-0.024809 0.00977,-0.09375 0.058623,-0.3027074 0.1048167,-0.874438 0.1328125,-1.4003906 0.013998,-0.2629765 0.023002,-0.5095035 0.023437,-0.6992188 2.182e-4,-0.094858 -0.00283,-0.1740264 -0.00781,-0.2402343 -0.00249,-0.033104 -0.00465,-0.063309 -0.011719,-0.097656 -0.00354,-0.017174 -0.00623,-0.034784 -0.017578,-0.0625 -0.00567,-0.013858 -0.014777,-0.029431 -0.029297,-0.050781 -0.00179,-0.00263 -0.00382,-0.00699 -0.00586,-0.00977 0.014166,-0.012072 0.039885,-0.012784 0.048828,-0.025391 0.041163,-0.058033 0.047637,-0.099511 0.054687,-0.1347656 0.014103,-0.07051 0.015965,-0.1315915 0.019531,-0.2246094 0.00838,-0.2211596 -0.00846,-0.4268667 -0.1601563,-0.5839844 -0.030771,-0.031871 -0.0823,-0.015293 -0.1171875,-0.037109 0,0 -0.064248,-0.1611641 -0.4609375,-0.1445312 z m 0.1269532,0.9277344 c 0.013103,0.041733 0.054943,0.030263 0.0625,0.09375 l 0.00977,0.080078 -0.03125,0.140625 c -0.026064,0.1167369 -0.047872,0.2183 -0.072266,0.3339844 -0.00239,-0.104101 -0.017045,-0.2046339 -0.013672,-0.3027344 0.00562,-0.1634808 0.027317,-0.2405586 0.044922,-0.3457031 z m -0.00977,4.3105468 c 0.016968,0.033596 0.031443,0.061759 0.048828,0.095703 0.4588996,0.8960265 1.0390904,1.475304 1.7285157,1.9980468 C 8.1079561,9.5361173 6.9178971,9.9277456 6.0414405,10.291267 6.7099604,9.0832391 7.172052,8.0870227 7.455503,7.2385329 Z m 5.0761763,2.6640626 c 0.03299,-0.00162 0.06615,-8.349e-4 0.09961,0.00195 0.250522,0.020873 0.475861,0.064902 0.626953,0.1269535 0.08853,0.03636 0.09506,0.06931 0.128907,0.103515 -0.120675,0.01241 -0.225879,0.04177 -0.386719,0.0098 -0.250413,-0.04983 -0.522932,-0.142475 -0.773438,-0.2167966 0.10734,-5.048e-4 0.205703,-0.020525 0.304688,-0.025391 z M 3.8519874,12.084235 c -0.067745,0.09333 -0.1621667,0.281613 -0.2265625,0.363282 -0.2119057,0.268743 -0.3145609,0.271557 -0.4824219,0.410156 0.024581,-0.0343 0.035709,-0.06037 0.0625,-0.0957 0.1688877,-0.222724 0.4170131,-0.449852 0.6464844,-0.677735 z"
     sodipodi:nodetypes="cscsccccccccccccccscccsscccccccscccssscccccccccscsssccsccscscccccccsccccccssscccscsccc" />
</svg>
