<?xml version="1.0" encoding="UTF-8" standalone="no"?>
<!-- Created with Inkscape (http://www.inkscape.org/) -->

<svg
   width="16"
   height="16"
   viewBox="0 0 16 16"
   version="1.1"
   id="svg5"
   inkscape:version="1.4 (e7c3feb100, 2024-10-09)"
   sodipodi:docname="accessories-calculator.svg"
   xmlns:inkscape="http://www.inkscape.org/namespaces/inkscape"
   xmlns:sodipodi="http://sodipodi.sourceforge.net/DTD/sodipodi-0.dtd"
   xmlns:xlink="http://www.w3.org/1999/xlink"
   xmlns="http://www.w3.org/2000/svg"
   xmlns:svg="http://www.w3.org/2000/svg">
  <sodipodi:namedview
     id="namedview7"
     pagecolor="#ffffff"
     bordercolor="#000000"
     borderopacity="0.25"
     inkscape:showpageshadow="2"
     inkscape:pageopacity="0.0"
     inkscape:pagecheckerboard="0"
     inkscape:deskcolor="#d1d1d1"
     inkscape:document-units="px"
     showgrid="false"
     inkscape:zoom="51.125"
     inkscape:cx="8"
     inkscape:cy="8"
     inkscape:window-width="1920"
     inkscape:window-height="1011"
     inkscape:window-x="0"
     inkscape:window-y="0"
     inkscape:window-maximized="1"
     inkscape:current-layer="svg5" />
  <defs
     id="defs2">
    <linearGradient
       inkscape:collect="always"
       xlink:href="#linearGradient3147"
       id="linearGradient1525"
       x1="39.553715"
       y1="37.459599"
       x2="43.894829"
       y2="43.990013"
       gradientUnits="userSpaceOnUse"
       gradientTransform="translate(-30.553713,-29.459597)" />
    <linearGradient
       inkscape:collect="always"
       id="linearGradient3147">
      <stop
         style="stop-color:#41bbff;stop-opacity:1;"
         offset="0"
         id="stop3143" />
      <stop
         style="stop-color:#0091f9;stop-opacity:1;"
         offset="1"
         id="stop3145" />
    </linearGradient>
    <linearGradient
       inkscape:collect="always"
       xlink:href="#4852"
       id="linearGradient1091"
       x1="0"
       y1="0"
       x2="16"
       y2="16"
       gradientUnits="userSpaceOnUse" />
    <linearGradient
       inkscape:collect="always"
       id="4852">
      <stop
         style="stop-color:#272727;stop-opacity:1;"
         offset="0"
         id="stop14555" />
      <stop
         style="stop-color:#5d5d5d;stop-opacity:1;"
         offset="1"
         id="stop14557" />
    </linearGradient>
  </defs>
  <path
     id="path530"
     style="fill:url(#linearGradient1091);fill-opacity:1;stroke-width:0.5;stroke-linecap:round;stroke-linejoin:round"
     d="M 6,0 C 1.4494094,0 0,1.469913 0,6 v 4 c 0,4.530087 1.4494094,6 6,6 h 4 c 4.550591,0 6,-1.469914 6,-6 V 6 C 16,1.469913 14.550591,0 10,0 Z" />
  <path
     id="rect686"
     style="fill:url(#linearGradient1525);fill-opacity:1;stroke-width:1.57143;stroke-linecap:round;stroke-linejoin:round"
     d="M 9 8 C 8.4460006 8 8 8.4460006 8 9 L 8 14 C 8 14.553999 8.4460006 15 9 15 L 11 15 C 13.755824 15 15 13.733613 15 11 L 15 9 C 15 8.4460006 14.553999 8 14 8 L 9 8 z " />
  <path
     id="path364"
     style="fill:#ffffff;stroke-width:5.7966;stroke-linejoin:round"
     d="M 4,2 V 4 H 2 V 5 H 4 V 7 H 5 V 5 H 7 V 4 H 5 V 2 Z m 5,2 v 1 h 4 V 4 Z M 2.3535156,8.6464844 1.6464844,9.3535156 3.2929688,11 1.6464844,12.646484 2.3535156,13.353516 4,11.707031 5.6464844,13.353516 6.3535156,12.646484 4.7070312,11 6.3535156,9.3535156 5.6464844,8.6464844 4,10.292969 Z"
     sodipodi:nodetypes="ccccccccccccccccccccccccccccccc" />
  <path
     d="m 9,10 v 0.999999 h 4 V 10 Z m 0,2.000001 V 13 h 4 v -0.999999 z"
     style="fill:#ffffff;stroke-width:5.18461;stroke-linejoin:round"
     id="path697"
     sodipodi:nodetypes="cccccccccc" />
</svg>
