<?xml version="1.0" encoding="UTF-8" standalone="no"?>
<!-- Created with Inkscape (http://www.inkscape.org/) -->

<svg
   width="16"
   height="16"
   viewBox="0 0 16 16"
   version="1.1"
   id="svg5"
   inkscape:version="1.4 (e7c3feb100, 2024-10-09)"
   sodipodi:docname="google-docs.svg"
   xmlns:inkscape="http://www.inkscape.org/namespaces/inkscape"
   xmlns:sodipodi="http://sodipodi.sourceforge.net/DTD/sodipodi-0.dtd"
   xmlns:xlink="http://www.w3.org/1999/xlink"
   xmlns="http://www.w3.org/2000/svg"
   xmlns:svg="http://www.w3.org/2000/svg">
  <sodipodi:namedview
     id="namedview7"
     pagecolor="#ffffff"
     bordercolor="#000000"
     borderopacity="0.25"
     inkscape:showpageshadow="2"
     inkscape:pageopacity="0.0"
     inkscape:pagecheckerboard="0"
     inkscape:deskcolor="#d1d1d1"
     inkscape:document-units="px"
     showgrid="false"
     inkscape:zoom="49.125"
     inkscape:cx="8"
     inkscape:cy="8"
     inkscape:window-width="1920"
     inkscape:window-height="1011"
     inkscape:window-x="0"
     inkscape:window-y="0"
     inkscape:window-maximized="1"
     inkscape:current-layer="svg5" />
  <defs
     id="defs2">
    <linearGradient
       inkscape:collect="always"
       xlink:href="#4852"
       id="linearGradient1091"
       x1="0"
       y1="0"
       x2="16"
       y2="16"
       gradientUnits="userSpaceOnUse" />
    <linearGradient
       inkscape:collect="always"
       id="4852">
      <stop
         style="stop-color:#272727;stop-opacity:1;"
         offset="0"
         id="stop14555" />
      <stop
         style="stop-color:#5d5d5d;stop-opacity:1;"
         offset="1"
         id="stop14557" />
    </linearGradient>
  </defs>
  <path
     id="path530"
     style="fill:url(#linearGradient1091);fill-opacity:1;stroke-width:0.5;stroke-linecap:round;stroke-linejoin:round"
     d="M 6,0 C 1.4494094,0 0,1.469913 0,6 v 4 c 0,4.530087 1.4494094,6 6,6 h 4 c 4.550591,0 6,-1.469914 6,-6 V 6 C 16,1.469913 14.550591,0 10,0 Z" />
  <path
     id="path1151"
     style="fill:#3086f6;fill-opacity:1;stroke-width:0.249999;stroke-linecap:square;stroke-linejoin:bevel"
     d="M 5 2 C 4.4477155 2 4 2.4477155 4 3 L 4 13 C 4 13.552285 4.4477155 14 5 14 L 11 14 C 11.552285 14 12 13.552285 12 13 L 12 5 L 9.5 4.5 L 9 2 L 5 2 z M 5 7 L 11 7 L 11 8 L 5 8 L 5 7 z M 5 9 L 11 9 L 11 10 L 5 10 L 5 9 z M 5 11 L 9 11 L 9 12 L 5 12 L 5 11 z " />
  <path
     d="m 9,2 3,3 H 9 Z"
     style="fill:#0c67d6;stroke-width:0.144338;stroke-linecap:square;stroke-linejoin:bevel"
     id="path1123" />
</svg>
