<?xml version="1.0" encoding="UTF-8" standalone="no"?>
<!-- Created with Inkscape (http://www.inkscape.org/) -->

<svg
   width="22"
   height="22"
   viewBox="0 0 22 22"
   version="1.1"
   id="svg5"
   inkscape:version="1.2.2 (1:1.2.2+202305151914+b0a8486541)"
   sodipodi:docname="folder-music-open.svg"
   xmlns:inkscape="http://www.inkscape.org/namespaces/inkscape"
   xmlns:sodipodi="http://sodipodi.sourceforge.net/DTD/sodipodi-0.dtd"
   xmlns="http://www.w3.org/2000/svg"
   xmlns:svg="http://www.w3.org/2000/svg">
  <sodipodi:namedview
     id="namedview7"
     pagecolor="#ffffff"
     bordercolor="#000000"
     borderopacity="0.25"
     inkscape:showpageshadow="2"
     inkscape:pageopacity="0.0"
     inkscape:pagecheckerboard="0"
     inkscape:deskcolor="#d1d1d1"
     inkscape:document-units="px"
     showgrid="false"
     inkscape:zoom="36.636364"
     inkscape:cx="10.986352"
     inkscape:cy="11"
     inkscape:window-width="1920"
     inkscape:window-height="1008"
     inkscape:window-x="0"
     inkscape:window-y="0"
     inkscape:window-maximized="1"
     inkscape:current-layer="svg5" />
  <defs
     id="defs2">
    <style
       id="current-color-scheme"
       type="text/css">
         .ColorScheme-Text { color:#232629; }
         .ColorScheme-Highlight { color:#3daee9; }
     </style>
  </defs>
  <path
     d="M 1,2 C 0.4460005,2 0,2.4460005 0,3 v 18 c 0,0.554 0.4460005,1 1,1 h 20 c 0.554,0 1,-0.446 1,-1 V 6 C 22,5.4460005 21.554,5 21,5 H 11 L 9,2.5 C 8.6603625,2.169952 8.5539995,2 8,2 Z"
     style="opacity:0.3;fill:#000000;stroke-width:0.5"
     id="path1016"
     sodipodi:nodetypes="ssssssssccss" />
  <path
     id="rect184"
     style="fill:currentColor;fill-opacity:1;stroke-width:0.5"
     class="ColorScheme-Highlight"
     d="M 1,1 C 0.4460006,1 0,1.4460004 0,2 v 18 c 0,0.554 0.4460006,1 1,1 h 20 c 0.554,0 1,-0.446 1,-1 V 5 C 22,4.4460005 21.554,4 21,4 H 11 L 9,1.5 C 8.655655,1.1853323 8.554,1 8,1 Z"
     sodipodi:nodetypes="sccsssssccss" />
  <path
     d="M 1,1 C 0.4460012,1 0,1.446001 0,2 v 9 C 0,10.447716 0.4477164,10 1,10 H 7.9999998 C 8.5539982,9.999999 8.6665972,9.806988 8.9999999,9.5 L 11,7 h 10 c 0.553998,0 1,0.4460021 1,1 V 5 C 22,4.4460011 21.553999,4 21,4 H 11 L 9,1.5 C 8.6556548,1.1853326 8.5539989,1 8,1 Z"
     style="opacity:0.4;fill:#000000;fill-opacity:1;stroke-width:0.5"
     id="path1511"
     sodipodi:nodetypes="sscssccscssccss" />
  <path
     id="path3081"
     style="opacity:0.2;fill:#ffffff;stroke-width:0.5"
     d="M 11,7 9,9.5 C 8.666598,9.806988 8.553999,10 8,10 H 1 c -0.5522836,0 -1,0.447716 -1,1 v 1 c 0,-0.552284 0.4477164,-1 1,-1 h 7 c 0.553999,0 0.666597,-0.193012 1,-0.5 L 11,8 h 10 c 0.553998,0 1,0.446002 1,1 V 8 C 22,7.446002 21.553998,7 21,7 Z"
     sodipodi:nodetypes="ccssscssccscssc" />
  <path
     id="path920"
     style="opacity:0.6;fill:currentColor;stroke-width:2;stroke-linecap:round"
     class="ColorScheme-Text"
     d="m 14.636719,8.999549 c -0.0302,0.0016 -0.06216,0.0071 -0.09375,0.01563 L 9.457031,10.380413 C 9.204297,10.448248 9,10.726456 9,11.003455 v 1.603516 4.4375 C 8.549377,16.88473 8.01475,16.874946 7.509766,17.017131 6.4389652,17.319479 5.7901626,18.209615 6.0605469,19.005412 6.3316071,19.801129 7.419427,20.200753 8.490234,19.897991 9.372038,19.648187 9.991642,18.987648 9.998047,18.290569 H 10 v -5.453125 l 4,-1.072266 v 4.279297 c -0.450622,-0.159711 -0.98525,-0.169525 -1.490234,-0.02734 -1.070801,0.302348 -1.719603,1.192484 -1.449219,1.988281 0.271061,0.795717 1.35888,1.195341 2.429687,0.892579 0.881802,-0.249804 1.501408,-0.910342 1.507813,-1.607422 H 15 V 10.995647 9.392131 c 0,-0.20775 -0.113497,-0.354994 -0.277344,-0.386719 -0.02731,-0.0053 -0.05574,-0.0075 -0.08594,-0.0059 z" />
</svg>
