<?xml version="1.0" encoding="UTF-8" standalone="no"?>
<!-- Created with Inkscape (http://www.inkscape.org/) -->

<svg
   width="22"
   height="22"
   viewBox="0 0 22 22"
   version="1.1"
   id="svg5"
   inkscape:version="1.2.2 (1:1.2.2+202305151914+b0a8486541)"
   sodipodi:docname="user-home-open.svg"
   xmlns:inkscape="http://www.inkscape.org/namespaces/inkscape"
   xmlns:sodipodi="http://sodipodi.sourceforge.net/DTD/sodipodi-0.dtd"
   xmlns="http://www.w3.org/2000/svg"
   xmlns:svg="http://www.w3.org/2000/svg">
  <sodipodi:namedview
     id="namedview7"
     pagecolor="#ffffff"
     bordercolor="#000000"
     borderopacity="0.25"
     inkscape:showpageshadow="2"
     inkscape:pageopacity="0.0"
     inkscape:pagecheckerboard="0"
     inkscape:deskcolor="#d1d1d1"
     inkscape:document-units="px"
     showgrid="false"
     inkscape:zoom="36.636364"
     inkscape:cx="10.986352"
     inkscape:cy="11"
     inkscape:window-width="1920"
     inkscape:window-height="1008"
     inkscape:window-x="0"
     inkscape:window-y="0"
     inkscape:window-maximized="1"
     inkscape:current-layer="svg5" />
  <defs
     id="defs2">
    <style
       id="current-color-scheme"
       type="text/css">
         .ColorScheme-Text { color:#232629; }
         .ColorScheme-Highlight { color:#3daee9; }
     </style>
  </defs>
  <path
     d="M 1,2 C 0.4460005,2 0,2.4460005 0,3 v 18 c 0,0.554 0.4460005,1 1,1 h 20 c 0.554,0 1,-0.446 1,-1 V 6 C 22,5.4460005 21.554,5 21,5 H 11 L 9,2.5 C 8.6603625,2.169952 8.5539995,2 8,2 Z"
     style="opacity:0.3;fill:#000000;stroke-width:0.5"
     id="path1016"
     sodipodi:nodetypes="ssssssssccss" />
  <path
     id="rect184"
     style="fill:currentColor;fill-opacity:1;stroke-width:0.5"
     class="ColorScheme-Highlight"
     d="M 1,1 C 0.4460006,1 0,1.4460004 0,2 v 18 c 0,0.554 0.4460006,1 1,1 h 20 c 0.554,0 1,-0.446 1,-1 V 5 C 22,4.4460005 21.554,4 21,4 H 11 L 9,1.5 C 8.655655,1.1853323 8.554,1 8,1 Z"
     sodipodi:nodetypes="sccsssssccss" />
  <path
     d="m 1.0000002,1 c -0.5539988,0 -1,0.446001 -1,1 v 9 c 0,-0.552284 0.4477164,-1 1,-1 H 8 C 8.553998,10 8.666597,9.8069883 9,9.5000003 L 11,7 h 10 c 0.553998,0 1,0.4460023 1,1.0000003 V 5 C 22,4.4460011 21.553999,4 21,4 H 11 L 9,1.5 C 8.655655,1.1853326 8.553999,1 8,1 Z"
     style="opacity:0.4;fill:#000000;fill-opacity:1;stroke-width:0.5"
     id="path1511"
     sodipodi:nodetypes="sscssccscssccss" />
  <path
     id="path3081"
     style="opacity:0.2;fill:#ffffff;stroke-width:0.5"
     d="M 11,7 9,9.5 C 8.666598,9.806988 8.553999,10 8,10 H 1 c -0.5522836,0 -1,0.447716 -1,1 v 1 c 0,-0.552284 0.4477164,-1 1,-1 h 7 c 0.553999,0 0.666597,-0.193012 1,-0.5 L 11,8 h 10 c 0.553998,0 1,0.446002 1,1 V 8 C 22,7.446002 21.553998,7 21,7 Z"
     sodipodi:nodetypes="ccssscssccscssc" />
  <path
     id="path396"
     style="opacity:0.6;fill:currentColor;stroke-width:2;stroke-linecap:round"
     d="M 11,10.293 5.6464844,15.646515 6.3535156,16.353547 7,15.707062 v 3.292969 a 1,1 0 0 0 1,1 h 6 a 1,1 0 0 0 1,-1 v -3.292969 l 0.646484,0.646485 0.707032,-0.707032 L 15,14.293 V 11.000031 H 14 V 13.293 Z m 0,1.414062 3,3 v 4.292969 H 8 v -4.292969 z"
     class="ColorScheme-Text" />
</svg>
