<?xml version="1.0" encoding="UTF-8" standalone="no"?>
<!-- Created with Inkscape (http://www.inkscape.org/) -->

<svg
   width="16"
   height="16"
   viewBox="0 0 16 16"
   version="1.1"
   id="svg5"
   inkscape:version="1.3.2 (091e20ef0f, 2023-11-25, custom)"
   sodipodi:docname="airplane-mode.svg"
   xmlns:inkscape="http://www.inkscape.org/namespaces/inkscape"
   xmlns:sodipodi="http://sodipodi.sourceforge.net/DTD/sodipodi-0.dtd"
   xmlns="http://www.w3.org/2000/svg"
   xmlns:svg="http://www.w3.org/2000/svg">
  <sodipodi:namedview
     id="namedview7"
     pagecolor="#ffffff"
     bordercolor="#666666"
     borderopacity="1.0"
     inkscape:showpageshadow="2"
     inkscape:pageopacity="0.0"
     inkscape:pagecheckerboard="0"
     inkscape:deskcolor="#d1d1d1"
     inkscape:document-units="px"
     showgrid="false"
     showguides="false"
     inkscape:zoom="52"
     inkscape:cx="6.4230769"
     inkscape:cy="8"
     inkscape:window-width="1920"
     inkscape:window-height="1008"
     inkscape:window-x="0"
     inkscape:window-y="0"
     inkscape:window-maximized="1"
     inkscape:current-layer="svg5" />
  <defs
     id="defs2">
    <style
       id="current-color-scheme"
       type="text/css">
         .ColorScheme-Text { color:#f2f2f2; }
     </style>
    <inkscape:path-effect
       effect="bspline"
       id="path-effect1577"
       is_visible="true"
       lpeversion="1"
       weight="33.333333"
       steps="2"
       helper_size="0"
       apply_no_weight="true"
       apply_with_weight="true"
       only_selected="false" />
  </defs>
  <path
     d="M 7.33592,0 7.21873,0.00195 c -0.037877,4.567e-4 -0.075698,0.00307 -0.11328,0.00781 -0.62496,0.078164 -1.0859,0.67193 -1.0078,1.2969 -1.59e-5,0.00326 -1.59e-5,0.00651 0,0.00977 L 6.77148,6.28523 4.14058,6.363355 3.1816,4.685655 C 2.93999,4.262855 2.48694,4.000105 2,4.000105 c -0.5522619,5.52e-5 -0.9999448,0.4477381 -1,1 v 1.5 0.066406 c -0.58022,0.22092 -1,0.7862 -1,1.4336 0,0.64764 0.41935,1.213 1,1.4336 v 0.06641 0.499999 1 c 2.319e-4,0.593888 0.5149198,1.05673 1.1055,0.99414 l 0.076172,-0.0078 c 0.035445,-0.004 0.070652,-0.0098 0.10547,-0.01758 0.37375,-0.08066 0.70117,-0.31581 0.89453,-0.6543 l 0.95898,-1.679699 2.6309,0.07813 -0.67383,4.992199 c -0.0062,0.044 -0.00946,0.08837 -0.00977,0.13281 4.4e-6,0.63006 0.53193,1.1621 1.1621,1.1621 h 0.095703 c 0.59272,0 1.1349,-0.35582 1.373,-0.89844 h 0.00195 l 2.490201,-5.244099 2.8047,0.09375 c 0.01107,1.83e-4 0.02214,1.83e-4 0.0332,0 1.0656,0 1.9512,-0.8856 1.9512,-1.9512 v -0.00195 -0.00195 -0.00195 -0.00195 -0.00195 -0.00195 -0.00195 -0.00195 -0.03125 c -6e-4,-0.00587 -0.0013,-0.011725 -0.002,-0.017578 -0.03546,-1.065 -0.9487,-1.9203 -2.0137,-1.8848 L 11.210906,6.1427 8.720705,0.8986 H 8.718755 C 8.480575,0.35595 7.938435,1.6e-4 7.345755,1.6e-4 c -0.00326,-1.59e-5 -0.00651,-1.59e-5 -0.00977,0 z m 0.00977,1 c 0.19865,0 0.37936,0.11684 0.45898,0.29883 l 2.7832,5.8633 3.4297,-0.11328 c 0.525,-0.0175 0.96492,0.39508 0.98242,0.91992 v 0.03125 c 0,0.5251 -0.42607,0.95117 -0.95117,0.95117 l -3.4609,-0.11523 -2.7832,5.8652 c -0.07963,0.182 -0.26033,0.29883 -0.45898,0.29883 H 7.250037 c -0.08952,0 -0.16211,-0.07261 -0.16211,-0.16211 l 0.82227,-6.0918 -4.3398,-0.12695 -1.2559,2.1992 c -0.05147,0.0901 -0.13912,0.15243 -0.23828,0.17383 l -0.076172,0.0078 v -1 -1 -0.43359 L 1.515665,8.533167 c -0.28777,-0.0096 -0.51562,-0.2453 -0.51562,-0.5332 0,-0.28794 0.22786,-0.52361 0.51562,-0.5332 l 0.48438,-0.035156 v -0.43164 -1 -1 c 0.12976,0 0.25007,0.068981 0.31445,0.18164 l 1.2559,2.1992 4.3398,-0.12891 -0.82031,-6.0703 c -0.01111,-0.08886 0.051795,-0.16858 0.14062,-0.17969 l 0.11523,-0.00195 z"
     style="fill:currentColor"
     id="path1"
     class="ColorScheme-Text" />
</svg>
