<?xml version="1.0" encoding="UTF-8" standalone="no"?>
<!-- Created with Inkscape (http://www.inkscape.org/) -->

<svg
   width="16"
   height="16"
   viewBox="0 0 16 16"
   version="1.1"
   id="svg5"
   inkscape:version="1.2.1 (9c6d41e410, 2022-07-14)"
   sodipodi:docname="input-keyboard-virtual-on.svg"
   xmlns:inkscape="http://www.inkscape.org/namespaces/inkscape"
   xmlns:sodipodi="http://sodipodi.sourceforge.net/DTD/sodipodi-0.dtd"
   xmlns="http://www.w3.org/2000/svg"
   xmlns:svg="http://www.w3.org/2000/svg">
  <sodipodi:namedview
     id="namedview7"
     pagecolor="#ffffff"
     bordercolor="#000000"
     borderopacity="0.25"
     inkscape:showpageshadow="2"
     inkscape:pageopacity="0.0"
     inkscape:pagecheckerboard="0"
     inkscape:deskcolor="#d1d1d1"
     inkscape:document-units="px"
     showgrid="false"
     showguides="false"
     inkscape:zoom="50.125"
     inkscape:cx="8"
     inkscape:cy="8"
     inkscape:window-width="1920"
     inkscape:window-height="1008"
     inkscape:window-x="0"
     inkscape:window-y="0"
     inkscape:window-maximized="1"
     inkscape:current-layer="svg5" />
  <defs
     id="defs2">
    <style
       id="current-color-scheme"
       type="text/css">
         .ColorScheme-Text { color:#f2f2f2; }
     </style>
  </defs>
  <path
     d="M 2,2 C 0.8920022,2 0,2.8920022 0,4 v 8 c 0,1.107998 0.8920022,2 2,2 h 11 c 1.107998,0 2,-0.892002 2,-2 V 4 C 15,2.8920022 14.107998,2 13,2 Z m 0,1 h 11 c 0.553998,0 1,0.4460012 1,1 v 8 c 0,0.553998 -0.446002,1 -1,1 H 2 C 1.4460012,13 1,12.553998 1,12 V 4 C 1,3.4460012 1.4460012,3 2,3 Z M 3,4 C 2.4477153,4 2,4.4477153 2,5 2,5.5522847 2.4477153,6 3,6 3.5522847,6 4,5.5522847 4,5 4,4.4477153 3.5522847,4 3,4 Z M 6,4 C 5.4477153,4 5,4.4477153 5,5 5,5.5522847 5.4477153,6 6,6 6.5522847,6 7,5.5522847 7,5 7,4.4477153 6.5522847,4 6,4 Z M 9,4 C 8.4477153,4 8,4.4477153 8,5 8,5.5522847 8.4477153,6 9,6 9.5522847,6 10,5.5522847 10,5 10,4.4477153 9.5522847,4 9,4 Z m 3,0 c -0.552285,0 -1,0.4477153 -1,1 0,0.5522847 0.447715,1 1,1 0.552285,0 1,-0.4477153 1,-1 C 13,4.4477153 12.552285,4 12,4 Z M 3,7 C 2.4477153,7 2,7.4477153 2,8 2,8.5522847 2.4477153,9 3,9 3.5522847,9 4,8.5522847 4,8 4,7.4477153 3.5522847,7 3,7 Z M 6,7 C 5.4477153,7 5,7.4477153 5,8 5,8.5522847 5.4477153,9 6,9 6.5522847,9 7,8.5522847 7,8 7,7.4477153 6.5522847,7 6,7 Z M 9,7 C 8.4477153,7 8,7.4477153 8,8 8,8.5522847 8.4477153,9 9,9 9.5522847,9 10,8.5522847 10,8 10,7.4477153 9.5522847,7 9,7 Z m 3,0 c -0.552285,0 -1,0.4477153 -1,1 0,0.5522847 0.447715,1 1,1 0.552285,0 1,-0.4477153 1,-1 0,-0.5522847 -0.447715,-1 -1,-1 z m -7,3 c -0.5539994,0 -1,0.446001 -1,1 0,0.553999 0.4460006,1 1,1 h 5 c 0.553999,0 1,-0.446001 1,-1 0,-0.553999 -0.446001,-1 -1,-1 z"
     style="fill:currentColor;stroke-width:2;stroke-linecap:round;stroke-linejoin:round;paint-order:stroke fill markers"
     class="ColorScheme-Text"
     id="path3161" />
</svg>
