<?xml version="1.0" encoding="UTF-8" standalone="no"?>
<!-- Created with Inkscape (http://www.inkscape.org/) -->

<svg
   width="16"
   height="16"
   viewBox="0 0 16 16"
   version="1.1"
   id="svg5"
   inkscape:version="1.2.1 (9c6d41e410, 2022-07-14)"
   sodipodi:docname="network-cellular-no-route.svg"
   xmlns:inkscape="http://www.inkscape.org/namespaces/inkscape"
   xmlns:sodipodi="http://sodipodi.sourceforge.net/DTD/sodipodi-0.dtd"
   xmlns="http://www.w3.org/2000/svg"
   xmlns:svg="http://www.w3.org/2000/svg">
  <sodipodi:namedview
     id="namedview7"
     pagecolor="#ffffff"
     bordercolor="#666666"
     borderopacity="1.0"
     inkscape:showpageshadow="2"
     inkscape:pageopacity="0.0"
     inkscape:pagecheckerboard="0"
     inkscape:deskcolor="#d1d1d1"
     inkscape:document-units="px"
     showgrid="false"
     showguides="true"
     inkscape:zoom="25.65625"
     inkscape:cx="-0.89646772"
     inkscape:cy="10.017052"
     inkscape:window-width="1920"
     inkscape:window-height="1008"
     inkscape:window-x="0"
     inkscape:window-y="0"
     inkscape:window-maximized="1"
     inkscape:current-layer="svg5" />
  <defs
     id="defs2">
    <style
       id="current-color-scheme"
       type="text/css">
         .ColorScheme-Text { color:#f2f2f2; }
     </style>
  </defs>
  <path
     id="rect788"
     style="opacity:0.2;fill:currentColor;stroke-linecap:round;stroke-linejoin:round"
     d="m 14,1 c -0.553998,0 -1,0.4460012 -1,1 v 12 c 0,0.553998 0.446002,1 1,1 0.553998,0 1,-0.446002 1,-1 V 2 C 15,1.4460012 14.553998,1 14,1 Z M 9.5546874,4.5273438 c 0.0022,0.00203 0.0017,0.00576 0.0039,0.00781 0.0022,0.0021 0.0056,0.0018 0.0078,0.00391 z M 6.0000001,7 c -0.5539988,0 -1,0.4460012 -1,1 v 6 c 0,0.553998 0.4460011,1 1,1 0.5539988,0 1,-0.446002 1,-1 v -1.304687 c -0.092205,-0.06074 -0.1780084,-0.129181 -0.2539063,-0.205078 -0.00593,-0.0058 -0.011792,-0.01165 -0.017578,-0.01758 -0.2989769,-0.314717 -0.4804687,-0.781219 -0.4804687,-1.208983 0,-0.427774 0.1814587,-0.8962 0.4804687,-1.210939 0.00579,-0.0059 0.011646,-0.01179 0.017578,-0.01758 0.042452,-0.04245 0.1180517,-0.03054 0.1660156,-0.068359 C 6.7236977,9.8708705 6.5705324,9.7177045 6.4746095,9.5292935 v -0.511715 c 0,-0.4641962 0.1053751,-0.9334564 0.3457031,-1.3398441 0.023838,-0.041073 0.048561,-0.081175 0.074219,-0.1210938 C 6.7314646,7.2267794 6.3942029,7 6.0000001,7 Z M 11,7.091797 C 10.96928,7.165102 10.93669,7.2379016 10.90039,7.3085939 10.741489,7.6180303 10.60018,7.8671142 10.373047,8.109375 10.255769,8.2349167 10.104789,8.3779293 9.9316404,8.5390625 l -0.0098,0.011719 -0.04102,0.042969 c -0.01755,0.01826 -0.0358,0.03585 -0.05469,0.05273 -0.31926,0.287862 -0.332027,0.41987 -0.332027,0.447266 v 0.435546 c -0.09661,0.19252 -0.252793,0.348704 -0.4453123,0.445313 0.049367,0.039612 0.1265753,0.027492 0.1699223,0.072272 0.306086,0.311558 0.501953,0.782795 0.501953,1.216797 0,0.433974 -0.195811,0.903255 -0.501953,1.214844 -0.06545,0.0676 -0.1404371,0.127717 -0.2187503,0.183593 V 14 c 0,0.553998 0.4460013,1 1.0000003,1 0.5539976,0 0.9999996,-0.446002 0.9999996,-1 z M 2.0000001,11 C 1.4460013,11 1,11.446002 1,12 v 2 c 0,0.553998 0.4460013,1 1.0000001,1 0.5539988,0 1,-0.446002 1,-1 v -2 c 0,-0.553998 -0.4460012,-1 -1,-1 z"
     sodipodi:nodetypes="sssssssccccssssscccsccccsccscccccccscccsccssscsssssss"
     class="ColorScheme-Text" />
  <path
     d="m 7.9949501,4 c 0.65763,0 1.1922003,0.19569 1.6041003,0.58594 0.4119196,0.38302 0.6171896,0.87414 0.6171896,1.474 0,0.26016 -0.06843,0.52428 -0.20573,0.79167 -0.1373096,0.26739 -0.2587896,0.4573 -0.3671896,0.57292 -0.10117,0.1084 -0.247,0.25104 -0.4349,0.42448 l -0.05208,0.054688 C 8.7155101,8.301168 8.4948701,8.6963285 8.4948701,9.0937975 v 0.4349 h -1.0208 v -0.51042 c 0,-0.325199 0.068422,-0.6020795 0.20573,-0.8333395 0.13731,-0.23848 0.37968,-0.51796 0.72656,-0.83594 0.19512,-0.18067 0.33196,-0.31432 0.41146,-0.40104 0.08672,-0.093949 0.17051,-0.21861 0.25,-0.3776 0.086721,-0.16621 0.1302103,-0.33698 0.1302103,-0.51042 0,-0.33243 -0.1087203,-0.59974 -0.3255203,-0.80209 -0.20957,-0.20235 -0.50182,-0.3047 -0.87761,-0.3047 -0.6215,0 -1.0474,0.3479 -1.2786,1.0417 L 5.784,5.604218 c 0.1517601,-0.41192 0.41268,-0.78158 0.78126,-1.1068 0.37579,-0.33243 0.85155,-0.4974 1.4297,-0.4974 z m -0.0104,6.526001 c 0.2095699,0 0.38352,0.07161 0.52083,0.21615 0.14453,0.14454 0.21615,0.31848 0.21615,0.52083 0,0.20235 -0.071614,0.3763 -0.21615,0.52083 -0.13731,0.14453 -0.31127,0.21615 -0.52084,0.21615 -0.20957,0 -0.38672,-0.07161 -0.53126,-0.21615 -0.13731,-0.14454 -0.20573,-0.31848 -0.20573,-0.52083 0,-0.20235 0.068422,-0.3763 0.20573,-0.52083 0.14453,-0.14453 0.32168,-0.21615 0.53126,-0.21615 z"
     style="fill:currentColor;fill-opacity:1;stroke:none;enable-background:new"
     id="path904"
     class="ColorScheme-Text" />
</svg>
