<?xml version="1.0" encoding="UTF-8" standalone="no"?>
<!-- Created with Inkscape (http://www.inkscape.org/) -->

<svg
   width="16"
   height="16"
   viewBox="0 0 16 16"
   version="1.1"
   id="svg5"
   inkscape:version="1.2.1 (9c6d41e410, 2022-07-14)"
   sodipodi:docname="network-cellular-3g.svg"
   xmlns:inkscape="http://www.inkscape.org/namespaces/inkscape"
   xmlns:sodipodi="http://sodipodi.sourceforge.net/DTD/sodipodi-0.dtd"
   xmlns="http://www.w3.org/2000/svg"
   xmlns:svg="http://www.w3.org/2000/svg">
  <sodipodi:namedview
     id="namedview7"
     pagecolor="#ffffff"
     bordercolor="#000000"
     borderopacity="0.25"
     inkscape:showpageshadow="2"
     inkscape:pageopacity="0.0"
     inkscape:pagecheckerboard="0"
     inkscape:deskcolor="#d1d1d1"
     inkscape:document-units="px"
     showgrid="false"
     showguides="true"
     inkscape:zoom="50.125"
     inkscape:cx="6.5835411"
     inkscape:cy="8"
     inkscape:window-width="1920"
     inkscape:window-height="1008"
     inkscape:window-x="0"
     inkscape:window-y="0"
     inkscape:window-maximized="1"
     inkscape:current-layer="svg5" />
  <defs
     id="defs2">
    <style
       id="current-color-scheme"
       type="text/css">
         .ColorScheme-Text { color:#f2f2f2; }
     </style>
  </defs>
  <path
     id="rect1055"
     style="fill:currentColor;stroke-width:2.26822;stroke-linecap:round;stroke-linejoin:round;paint-order:stroke fill markers"
     class="ColorScheme-Text"
     d="M 4.25 4 C 3.0073629 4 2 4.8954338 2 6 L 3 6 C 3 5.4477171 3.5596556 5.0036079 4.25 5 C 5.2102908 4.9949813 5.5027809 5.6723333 5.5 6.2246094 C 5.4959354 7.0318414 5.3253042 7.5 4.25 7.5 L 4 7.5 L 4 8.5 L 4.25 8.5 C 5.3253042 8.5 5.745935 8.9681586 5.75 9.7753906 C 5.7527809 10.327666 5.2102908 11.005 4.25 11 C 3.5596556 10.996392 3 10.552282 3 10 L 2 10 C 2 11.104567 3.0073629 12 4.25 12 C 5.4926371 12 6.7501224 11.104567 6.75 10 C 6.7498902 9.0091077 6.4182401 8.5107257 5.7324219 8 C 6.1132375 7.6206455 6.4998902 6.9908923 6.5 6 C 6.5001224 4.8954338 5.4926371 4 4.25 4 z M 11 4 C 9.000561 4 8 5.3773376 8 8 L 8 8.4003906 C 8 10.628279 8.9922553 12 11 12 C 13.070025 12 14 10.709526 14 9 L 14 8 L 13 8 L 11 8 L 11 9 L 13 9 C 12.90911 10.041184 12.660886 10.993898 11 11 C 9.7573724 11.0046 8.9631707 10.100725 9 8 C 9.038188 5.8217726 9.5910834 5.0117156 11 5 C 12.478602 5.00521 12.797988 5.7872702 13 7 L 14 7 C 13.754897 4.8511241 12.487734 4 11 4 z " />
</svg>
