<?xml version="1.0" encoding="UTF-8" standalone="no"?>
<!-- Created with Inkscape (http://www.inkscape.org/) -->

<svg
   width="16"
   height="16"
   viewBox="0 0 16 16"
   version="1.1"
   id="svg5"
   inkscape:version="1.2.1 (9c6d41e410, 2022-07-14)"
   sodipodi:docname="network-cellular-secure-signal-excellent.svg"
   xmlns:inkscape="http://www.inkscape.org/namespaces/inkscape"
   xmlns:sodipodi="http://sodipodi.sourceforge.net/DTD/sodipodi-0.dtd"
   xmlns="http://www.w3.org/2000/svg"
   xmlns:svg="http://www.w3.org/2000/svg">
  <sodipodi:namedview
     id="namedview7"
     pagecolor="#ffffff"
     bordercolor="#666666"
     borderopacity="1.0"
     inkscape:showpageshadow="2"
     inkscape:pageopacity="0.0"
     inkscape:pagecheckerboard="0"
     inkscape:deskcolor="#d1d1d1"
     inkscape:document-units="px"
     showgrid="false"
     showguides="false"
     inkscape:zoom="36.283417"
     inkscape:cx="5.6775249"
     inkscape:cy="11.410171"
     inkscape:window-width="1920"
     inkscape:window-height="1008"
     inkscape:window-x="0"
     inkscape:window-y="0"
     inkscape:window-maximized="1"
     inkscape:current-layer="svg5" />
  <defs
     id="defs2">
    <style
       id="current-color-scheme"
       type="text/css">
         .ColorScheme-Text { color:#f2f2f2; }
     </style>
  </defs>
  <path
     id="rect788"
     style="fill:currentColor;stroke-linecap:round;stroke-linejoin:round"
     class="ColorScheme-Text"
     d="M 14 1 C 13.446002 1 13 1.4460012 13 2 L 13 8 C 13.76959 8 14.470027 8.2866628 15 8.7597656 L 15 2 C 15 1.4460012 14.553998 1 14 1 z M 10 4 C 9.4460008 4 9 4.4460012 9 5 L 9 11 L 10 11 C 10 10.107593 10.38545 9.3083695 11 8.7597656 L 11 5 C 11 4.4460012 10.553998 4 10 4 z M 6 7 C 5.4460012 7 5 7.4460012 5 8 L 5 14 C 5 14.553997 5.4460012 15 6 15 C 6.5539988 15 7 14.553997 7 14 L 7 8 C 7 7.4460012 6.5539988 7 6 7 z M 2 11 C 1.4460012 11 1 11.446002 1 12 L 1 14 C 1 14.553997 1.4460012 15 2 15 C 2.5539988 15 3 14.553997 3 14 L 3 12 C 3 11.446002 2.5539988 11 2 11 z " />
  <path
     id="rect8392"
     style="color:#f2f2f2;fill:currentColor;fill-opacity:1;stroke-width:1.6527;stroke-linecap:round;stroke-linejoin:round;paint-order:stroke fill markers"
     d="m 13,8.9999997 c -1.107998,0 -2,0.892002 -2,2.0000003 v 1 h -1 v 4 h 6 V 12 H 15 V 11 C 15,9.8920017 14.107998,8.9999997 13,8.9999997 Z m 0,1 c 0.553998,0 1,0.4460023 1,1.0000003 v 1 h -2 v -1 c 0,-0.553998 0.446002,-1.0000003 1,-1.0000003 z"
     class="ColorScheme-Text" />
</svg>
