<?xml version="1.0" encoding="UTF-8" standalone="no"?>
<svg
   width="16"
   height="16"
   version="1.1"
   id="svg2"
   sodipodi:docname="printer-error.svg"
   inkscape:version="1.4.2 (ebf0e940d0, 2025-05-08)"
   xmlns:inkscape="http://www.inkscape.org/namespaces/inkscape"
   xmlns:sodipodi="http://sodipodi.sourceforge.net/DTD/sodipodi-0.dtd"
   xmlns="http://www.w3.org/2000/svg"
   xmlns:svg="http://www.w3.org/2000/svg">
  <defs
     id="defs2">
    <style
       id="current-color-scheme"
       type="text/css">
        .ColorScheme-Text { color:#f2f2f2; }
        .ColorScheme-NeutralText { color:#f67400; }
        .ColorScheme-PositiveText { color:#37c837; }
        .ColorScheme-NegativeText { color:#f44336; }
        .ColorScheme-Highlight { color:#3daee9; }
     </style>
  </defs>
  <sodipodi:namedview
     id="namedview2"
     pagecolor="#ffffff"
     bordercolor="#000000"
     borderopacity="0.25"
     inkscape:showpageshadow="2"
     inkscape:pageopacity="0.0"
     inkscape:pagecheckerboard="0"
     inkscape:deskcolor="#d1d1d1"
     inkscape:zoom="49.656464"
     inkscape:cx="8.0050001"
     inkscape:cy="8.0050001"
     inkscape:window-width="1920"
     inkscape:window-height="1010"
     inkscape:window-x="0"
     inkscape:window-y="0"
     inkscape:window-maximized="1"
     inkscape:current-layer="svg2" />
  <path
     id="path1"
     style="fill:currentColor"
     class="ColorScheme-Text"
     d="M 4.5 1 C 3.67157 1.0000001 3 1.67157 3 2.5 L 3 3 L 2.5 3 C 1.1193 3 0 4.1193 0 5.5 L 0 10.5 C 0 11.3284 0.67157 12 1.5 12 L 3 12 L 3 13.5 C 3 14.3284 3.67157 15 4.5 15 L 9.6914062 15 A 4.5 4.5 0 0 1 8.7675781 14 L 4.5 14 C 4.22386 14 4 13.7761 4 13.5 L 4 9.5 C 4 9.22386 4.22386 9 4.5 9 L 8.7617188 9 A 4.5 4.5 0 0 1 9.6796875 8 L 4.5 8 C 3.67157 8 3 8.67157 3 9.5 L 3 11 L 1.5 11 C 1.22386 11 1 10.77614 1 10.5 L 1 5.5 C 1 4.67157 1.67157 4 2.5 4 L 13.5 4 C 14.3284 4 15 4.67157 15 5.5 L 15 7.7539062 A 4.5 4.5 0 0 1 16 8.6679688 L 16 5.5 C 16 4.1193 14.8807 3 13.5 3 L 13 3 L 13 2.5 C 13 1.67157 12.3284 1 11.5 1 L 4.5 1 z M 4.5 2 L 11.5 2 C 11.7761 2 12 2.22386 12 2.5 L 12 3 L 4 3 L 4 2.5 C 4 2.22386 4.22386 2 4.5 2 z " />
  <path
     id="path2"
     style="fill:currentColor"
     class="ColorScheme-NegativeText error"
     d="m 12.5,8 a 3.5,3.5 0 0 0 0,7 3.5,3.5 0 0 0 0,-7 z M 12,9 h 1 v 3 h -1 z m 0,4 h 1 v 1 h -1 z" />
</svg>
