<?xml version="1.0" encoding="UTF-8" standalone="no"?>
<!-- Created with Inkscape (http://www.inkscape.org/) -->

<svg
   width="16"
   height="16"
   viewBox="0 0 16 16.000001"
   version="1.1"
   id="svg5"
   inkscape:version="1.2.2 (1:1.2.2+202305151914+b0a8486541)"
   sodipodi:docname="user-desktop-symbolic.svg"
   xmlns:inkscape="http://www.inkscape.org/namespaces/inkscape"
   xmlns:sodipodi="http://sodipodi.sourceforge.net/DTD/sodipodi-0.dtd"
   xmlns="http://www.w3.org/2000/svg"
   xmlns:svg="http://www.w3.org/2000/svg">
  <sodipodi:namedview
     id="namedview7"
     pagecolor="#ffffff"
     bordercolor="#000000"
     borderopacity="0.25"
     inkscape:showpageshadow="2"
     inkscape:pageopacity="0.0"
     inkscape:pagecheckerboard="0"
     inkscape:deskcolor="#d1d1d1"
     inkscape:document-units="px"
     showgrid="false"
     inkscape:zoom="49.375"
     inkscape:cx="8"
     inkscape:cy="8"
     inkscape:window-width="1920"
     inkscape:window-height="1012"
     inkscape:window-x="0"
     inkscape:window-y="0"
     inkscape:window-maximized="1"
     inkscape:current-layer="svg5" />
  <defs
     id="defs2">
     <style
        id="current-color-scheme"
        type="text/css">
        .ColorScheme-Text { color:#f2f2f2; }
     </style>
  </defs>
  <path
     id="rect234"
     style="fill:currentColor;fill-opacity:1"
     class="ColorScheme-Text"
     d="M 2,2 C 0.89200222,2 0,2.8920022 0,4 v 8 c 0,1.107998 0.89200222,2 2,2 h 12 c 1.107998,0 2,-0.892002 2,-2 V 4 C 16,2.8920022 15.107998,2 14,2 Z m 0,1 h 12 c 0.553998,0 1,0.4460012 1,1 v 8 c 0,0.553998 -0.446002,1 -1,1 H 2 C 1.4460012,13 1,12.553998 1,12 V 4 C 1,3.4460012 1.4460012,3 2,3 Z m 0,8 v 1 h 12 v -1 z" />
</svg>
