<?xml version="1.0" encoding="UTF-8" standalone="no"?>
<svg
   height="16"
   width="16"
   version="1.1"
   id="svg1"
   sodipodi:docname="weather-fog.svg"
   inkscape:version="1.4.2 (ebf0e940d0, 2025-05-08)"
   xmlns:inkscape="http://www.inkscape.org/namespaces/inkscape"
   xmlns:sodipodi="http://sodipodi.sourceforge.net/DTD/sodipodi-0.dtd"
   xmlns="http://www.w3.org/2000/svg"
   xmlns:svg="http://www.w3.org/2000/svg">
  <defs
     id="defs1">
     <style
        id="current-color-scheme"
        type="text/css">
        .ColorScheme-Text { color:#f2f2f2; }
        .ColorScheme-NeutralText { color:#f67400; }
        .ColorScheme-PositiveText { color:#37c837; }
        .ColorScheme-NegativeText { color:#f44336; }
        .ColorScheme-Highlight { color:#3daee9; }
     </style>
  </defs>
  <sodipodi:namedview
     id="namedview1"
     pagecolor="#ffffff"
     bordercolor="#000000"
     borderopacity="0.25"
     inkscape:showpageshadow="2"
     inkscape:pageopacity="0.0"
     inkscape:pagecheckerboard="0"
     inkscape:deskcolor="#d1d1d1"
     inkscape:zoom="49.6875"
     inkscape:cx="8"
     inkscape:cy="8"
     inkscape:window-width="1920"
     inkscape:window-height="1010"
     inkscape:window-x="0"
     inkscape:window-y="0"
     inkscape:window-maximized="1"
     inkscape:current-layer="svg1" />
  <path
     id="path1"
     style="fill:currentColor"
     class="ColorScheme-Text"
     d="m 8.6425781,0.6679688 c -2.158,0.002 -3.9931406,1.3314218 -4.8691406,3.2324218 l -0.060547,0.1289063 -0.1386718,0.00977 c -1.994,0.144 -3.57226567,1.87075 -3.57226567,3.9687505 0,0.727 0.20124999,1.403187 0.53124999,1.9921866 H 1.734375 A 3.057,3.057 0 0 1 1.0019531,8.007813 c 0,-1.5970005 1.1845313,-2.8656568 2.6445313,-2.9726568 L 4.3691406,4.984375 4.6796875,4.3222656 v -0.00391 c 0.729,-1.58 2.2129375,-2.6493906 3.9609375,-2.6503906 2.368,0.002 4.291297,1.9522656 4.404297,4.4472656 V 6.125 l 0.05078,0.7753906 0.703125,0.296875 A 1.944,1.944 0 0 1 14.99414,9.011719 C 15.004141,10.125719 14.148047,11 13.123047,11 H 0 v 1 h 13.121094 c 1.591,0 2.876953,-1.350281 2.876953,-2.988281 A 2.958,2.958 0 0 0 14.193359,6.2773438 L 14.056641,6.21875 14.046875,6.0703125 c -0.135,-2.993 -2.486297,-5.4003438 -5.4042969,-5.4023437 z M 0.00195313,13 v 1 H 16.001953 v -1 z m 0,2 v 1 H 16.001953 v -1 z" />
</svg>
