<?xml version="1.0" encoding="UTF-8" standalone="no"?>
<svg
   width="16"
   height="16"
   version="1.1"
   id="svg5821"
   sodipodi:docname="avatar-default-symbolic.svg"
   inkscape:version="1.2.1 (9c6d41e410, 2022-07-14)"
   xmlns:inkscape="http://www.inkscape.org/namespaces/inkscape"
   xmlns:sodipodi="http://sodipodi.sourceforge.net/DTD/sodipodi-0.dtd"
   xmlns="http://www.w3.org/2000/svg"
   xmlns:svg="http://www.w3.org/2000/svg">
  <defs
     id="defs5825" />
  <sodipodi:namedview
     id="namedview5823"
     pagecolor="#ffffff"
     bordercolor="#000000"
     borderopacity="0.25"
     inkscape:showpageshadow="2"
     inkscape:pageopacity="0.0"
     inkscape:pagecheckerboard="0"
     inkscape:deskcolor="#d1d1d1"
     showgrid="false"
     inkscape:zoom="49.6875"
     inkscape:cx="7.9899371"
     inkscape:cy="8"
     inkscape:window-width="1920"
     inkscape:window-height="1007"
     inkscape:window-x="0"
     inkscape:window-y="0"
     inkscape:window-maximized="1"
     inkscape:current-layer="svg5821" />
  <path
     id="path385"
     style="opacity:1;fill:#f2f2f2;fill-opacity:1;stroke-width:3;stroke-linecap:round;stroke-linejoin:round"
     d="M 8,2 A 3,3 0 0 0 5,5 3,3 0 0 0 8,7.9999996 3,3 0 0 0 11,5 3,3 0 0 0 8,2 Z M 8,3 A 2,2 0 0 1 10,5 2,2 0 0 1 8,6.9999996 2,2 0 0 1 6,5 2,2 0 0 1 8,3 Z M 8,8.9999996 A 6,6 0 0 0 2,15 h 1 a 5,5 0 0 1 5,-5 5,5 0 0 1 5,5 h 1 A 6,6 0 0 0 8,8.9999996 Z" />
</svg>
