<?xml version="1.0" encoding="UTF-8" standalone="no"?>
<!-- Created with Inkscape (http://www.inkscape.org/) -->

<svg
   width="16"
   height="16"
   viewBox="0 0 16 16"
   version="1.1"
   id="svg5"
   sodipodi:docname="battery-level-20-charging-symbolic.svg"
   inkscape:version="1.2.1 (9c6d41e410, 2022-07-14)"
   xmlns:inkscape="http://www.inkscape.org/namespaces/inkscape"
   xmlns:sodipodi="http://sodipodi.sourceforge.net/DTD/sodipodi-0.dtd"
   xmlns="http://www.w3.org/2000/svg"
   xmlns:svg="http://www.w3.org/2000/svg">
  <sodipodi:namedview
     id="namedview7"
     pagecolor="#ffffff"
     bordercolor="#666666"
     borderopacity="1.0"
     inkscape:showpageshadow="2"
     inkscape:pageopacity="0.0"
     inkscape:pagecheckerboard="0"
     inkscape:deskcolor="#d1d1d1"
     inkscape:document-units="px"
     showgrid="false"
     inkscape:zoom="52"
     inkscape:cx="8.9038462"
     inkscape:cy="9.125"
     inkscape:window-width="1920"
     inkscape:window-height="1007"
     inkscape:window-x="0"
     inkscape:window-y="0"
     inkscape:window-maximized="1"
     inkscape:current-layer="svg5" />
  <defs
     id="defs2" />
  <path
     d="M 1,6 C 0.4460006,6 0,6.4460006 0,7 v 3 c 0,0.553999 0.4460006,1 1,1 z M 4,3 C 2.8920011,3 2,3.8920011 2,5 v 7 c 0,1.107999 0.8920011,2 2,2 h 10 c 1.107999,0 2,-0.892001 2,-2 V 5 C 16,3.8920011 15.107999,3 14,3 Z m 0,1 h 10 c 0.553999,0 1,0.4460006 1,1 v 7 c 0,0.553999 -0.446001,1 -1,1 H 4 C 3.4460006,13 3,12.553999 3,12 V 5 C 3,4.4460006 3.4460006,4 4,4 Z"
     id="path1017"
     sodipodi:nodetypes="cssccssssssssssssssssss"
     style="fill:#f2f2f2;fill-opacity:1" />
  <path
     id="path1056"
     style="fill:#37c837;fill-opacity:1;stroke-width:1.08012"
     class="success"
     d="m 12,5 v 7 h 2 V 5 Z"
     sodipodi:nodetypes="ccccc" />
  <path
     style="fill:#f2f2f2;stroke:none;stroke-width:2;stroke-linecap:round;stroke-linejoin:round;-inkscape-stroke:none;fill-opacity:1"
     d="m 9,5 v 3 h 2 L 9,12 V 9 H 7 Z"
     id="path2100" />
</svg>
