<?xml version="1.0" encoding="UTF-8" standalone="no"?>
<svg
   version="1.1"
   viewBox="0 0 16 16"
   id="svg9"
   sodipodi:docname="media-playlist-no-repeat-symbolic-rtl.svg"
   inkscape:version="1.2.1 (9c6d41e410, 2022-07-14)"
   xmlns:inkscape="http://www.inkscape.org/namespaces/inkscape"
   xmlns:sodipodi="http://sodipodi.sourceforge.net/DTD/sodipodi-0.dtd"
   xmlns="http://www.w3.org/2000/svg"
   xmlns:svg="http://www.w3.org/2000/svg">
  <sodipodi:namedview
     id="namedview11"
     pagecolor="#ffffff"
     bordercolor="#000000"
     borderopacity="0.25"
     inkscape:showpageshadow="2"
     inkscape:pageopacity="0.0"
     inkscape:pagecheckerboard="0"
     inkscape:deskcolor="#d1d1d1"
     showgrid="false"
     inkscape:zoom="51.5"
     inkscape:cx="8"
     inkscape:cy="8"
     inkscape:window-width="1920"
     inkscape:window-height="1012"
     inkscape:window-x="0"
     inkscape:window-y="0"
     inkscape:window-maximized="1"
     inkscape:current-layer="svg9" />
  <defs
     id="defs3">
    <style
       id="current-color-scheme"
       type="text/css">.ColorScheme-Text {
        color:#f2f2f2;
      }</style>
  </defs>
  <path
     d="m 11.878888,2 -1,1 H 2.9999879 l 2.5352,2.5352 -0.70703,0.70703 -3.5352,-3.5352 L 1.9999879,2 Z m 1.1328,0.28125 c 0.58954,0.34713 0.98828,0.98238 0.98828,1.7188 v 3.0391 c -0.06484,-0.010837 -0.1234,-0.039062 -0.19141,-0.039062 h -0.80859 v -3 c 0,-0.46744 -0.32386,-0.84054 -0.75586,-0.95117 l 0.76758,-0.76758 z M 1.9996879,8.96095 c 0.064835,0.010837 0.1234,0.039062 0.19141,0.039062 h 0.80859 v 1.8789 l -1,1 v -2.918 z m 9.1719001,0.79688 3.5352,3.5352 -0.70703,0.70703 H 3.9997579 c -0.73637,0 -1.3716,-0.39874 -1.7188,-0.98828 l 0.76758,-0.76758 c 0.11064,0.432 0.48374,0.75586 0.95117,0.75586 h 9.0000001 l -2.5352,-2.5352 0.70703,-0.70703 z"
     fill="#f2f2f2"
     id="path5" />
  <rect
     transform="matrix(-0.70710678,0.70710678,0.70710678,0.70710678,0,0)"
     x="-10"
     y="10.8137"
     width="20"
     height="1"
     ry="0"
     fill="#f2f2f2"
     id="rect7" />
</svg>
