<?xml version="1.0" encoding="UTF-8" standalone="no"?>
<!-- Created with Inkscape (http://www.inkscape.org/) -->

<svg
   width="16"
   height="16"
   viewBox="0 0 16 16"
   version="1.1"
   id="svg5"
   inkscape:version="1.2.1 (9c6d41e410, 2022-07-14)"
   sodipodi:docname="mintupdate-installing-symbolic.svg"
   xmlns:inkscape="http://www.inkscape.org/namespaces/inkscape"
   xmlns:sodipodi="http://sodipodi.sourceforge.net/DTD/sodipodi-0.dtd"
   xmlns="http://www.w3.org/2000/svg"
   xmlns:svg="http://www.w3.org/2000/svg">
  <sodipodi:namedview
     id="namedview7"
     pagecolor="#ffffff"
     bordercolor="#000000"
     borderopacity="0.25"
     inkscape:showpageshadow="2"
     inkscape:pageopacity="0.0"
     inkscape:pagecheckerboard="0"
     inkscape:deskcolor="#d1d1d1"
     inkscape:document-units="px"
     showgrid="false"
     inkscape:zoom="50.5"
     inkscape:cx="7.990099"
     inkscape:cy="8"
     inkscape:window-width="1920"
     inkscape:window-height="1011"
     inkscape:window-x="0"
     inkscape:window-y="32"
     inkscape:window-maximized="1"
     inkscape:current-layer="svg5" />
  <defs
     id="defs2" />
  <path
     id="rect3333"
     style="fill:#f2f2f2;fill-opacity:1;stroke:none;stroke-width:1;stroke-linecap:square;stroke-linejoin:round;stroke-dasharray:none;stroke-opacity:1"
     d="M 8.0078125 1 C 7.9196136 0.998887 7.8326892 1.0211232 7.7558594 1.0644531 C 7.7558594 1.0644531 6.3189852 1.8760353 2.3613281 3.0195312 C 2.1473118 3.0813284 1.9999795 3.2772403 2 3.5 C 1.9998301 11.4948 7.7460937 14.931641 7.7460938 14.931641 C 7.90277 15.023981 8.09723 15.023981 8.2539062 14.931641 C 8.2539062 14.931641 14.00017 11.4948 14 3.5 C 13.999915 3.274317 13.848671 3.0766601 13.630859 3.0175781 C 9.6955337 1.9455903 8.2578125 1.0722656 8.2578125 1.0722656 C 8.1823177 1.0265352 8.0960632 1.0016022 8.0078125 1 z M 7.9707031 2.0351562 C 8.219161 2.1745163 9.6823381 2.9096998 12.941406 3.8398438 C 12.776963 10.50467 8.679372 13.449945 8 13.884766 C 7.3201723 13.449653 3.2156183 10.502314 3.0566406 3.828125 C 6.2658672 2.8495148 7.8332167 2.1094147 7.9707031 2.0351562 z M 8 5 C 7.4460012 5 7 5.4460012 7 6 L 7 8 L 6 8 L 8 11 L 10 8 L 9 8 L 9 6 C 9 5.4460012 8.5539988 5 8 5 z " />
</svg>
