<?xml version="1.0" encoding="UTF-8" standalone="no"?>
<!-- Created with Inkscape (http://www.inkscape.org/) -->

<svg
   width="16"
   height="16"
   viewBox="0 0 16 16"
   version="1.1"
   id="svg5"
   inkscape:version="1.2.1 (9c6d41e410, 2022-07-14)"
   sodipodi:docname="network-wireless-signal-ok-secure-symbolic.svg"
   xmlns:inkscape="http://www.inkscape.org/namespaces/inkscape"
   xmlns:sodipodi="http://sodipodi.sourceforge.net/DTD/sodipodi-0.dtd"
   xmlns="http://www.w3.org/2000/svg"
   xmlns:svg="http://www.w3.org/2000/svg">
  <sodipodi:namedview
     id="namedview7"
     pagecolor="#ffffff"
     bordercolor="#666666"
     borderopacity="1.0"
     inkscape:showpageshadow="2"
     inkscape:pageopacity="0.0"
     inkscape:pagecheckerboard="0"
     inkscape:deskcolor="#d1d1d1"
     inkscape:document-units="px"
     showgrid="false"
     showguides="false"
     inkscape:zoom="50.125"
     inkscape:cx="8"
     inkscape:cy="8"
     inkscape:window-width="1920"
     inkscape:window-height="1008"
     inkscape:window-x="0"
     inkscape:window-y="0"
     inkscape:window-maximized="1"
     inkscape:current-layer="svg5" />
  <defs
     id="defs2">
    <inkscape:path-effect
       effect="bspline"
       id="path-effect1577"
       is_visible="true"
       lpeversion="1"
       weight="33.333333"
       steps="2"
       helper_size="0"
       apply_no_weight="true"
       apply_with_weight="true"
       only_selected="false" />
  </defs>
  <path
     id="path356"
     style="fill:#f2f2f2;fill-opacity:1;fill-rule:evenodd;paint-order:stroke fill markers"
     d="m 8,9 c -1.3524972,-2e-7 -2.5832394,0.4689212 -3.5859375,1.224609 -0.1103398,0.09497 -0.1679489,0.239176 -0.1679687,0.384766 0,0.27614 0.2238604,0.5 0.5,0.5 0.1243596,-3.26e-4 0.2441276,-0.04698 0.3359374,-0.130859 C 5.9041796,10.375456 6.9019022,10 8,10 c 0.7364514,-10e-8 1.4273092,0.169741 2.050781,0.462891 0.06092,-0.338646 0.177972,-0.6568862 0.341797,-0.9453129 C 9.6615468,9.1885965 8.8552928,9 8,9 Z m 0,3 c -0.5522847,0 -1,0.447715 -1,1 0,0.552285 0.4477153,1 1,1 0.5522847,0 1,-0.447715 1,-1 0,-0.552285 -0.4477153,-1 -1,-1 z"
     sodipodi:nodetypes="sccccsccssssss" />
  <path
     id="path10669"
     style="fill:#f2f2f2;fill-opacity:1;fill-rule:evenodd;paint-order:stroke fill markers;opacity:0.2"
     d="M 8 3 C 5.1595084 2.9999997 2.5675657 4.0071082 0.51367188 5.6582031 C 0.47898701 5.6783651 0.44685462 5.7026278 0.41796875 5.7304688 C 0.31987405 5.8243427 0.26417675 5.9540695 0.26367188 6.0898438 C 0.26367188 6.3659853 0.48753029 6.5898437 0.76367188 6.5898438 C 0.87972206 6.5901737 0.99227364 6.5501247 1.0820312 6.4765625 C 2.9730258 4.9377667 5.3718078 4 8 4 C 10.628191 3.9999997 13.026875 4.937727 14.917969 6.4765625 C 15.007729 6.5501244 15.120277 6.5901737 15.236328 6.5898438 C 15.51247 6.5898438 15.736328 6.3659853 15.736328 6.0898438 C 15.735823 5.9540695 15.680118 5.8243428 15.582031 5.7304688 C 15.553141 5.7026278 15.521008 5.6783651 15.486328 5.6582031 C 13.432431 4.0071085 10.840391 3 8 3 z M 8 6 C 5.9269063 6 4.031914 6.717248 2.5117188 7.8964844 C 2.4748758 7.9168504 2.4407498 7.9417872 2.4101562 7.9707031 C 2.3108553 8.064713 2.2543889 8.1952897 2.2539062 8.3320312 C 2.2539062 8.608173 2.4777647 8.8320312 2.7539062 8.8320312 C 2.870867 8.832267 2.9842126 8.7914884 3.0742188 8.7167969 C 4.4330146 7.6479999 6.1369057 7 8 7 C 9.4984294 6.9999998 10.894086 7.4204992 12.089844 8.140625 C 12.376659 8.0500121 12.682457 8 13 8 C 13.232976 8 13.458332 8.028335 13.675781 8.078125 C 13.652421 8.038844 13.623654 8.002708 13.589844 7.9707031 C 13.559254 7.9417872 13.525124 7.9168504 13.488281 7.8964844 C 11.96809 6.7172883 10.073094 6 8 6 z " />
  <path
     id="rect8392"
     style="opacity:1;fill:#f2f2f2;fill-opacity:1;stroke-width:1.6527;stroke-linecap:round;stroke-linejoin:round;paint-order:stroke fill markers"
     d="M 13 9 C 11.892002 9 11 9.8920022 11 11 L 11 12 L 10 12 L 10 16 L 16 16 L 16 12 L 15 12 L 15 11 C 15 9.8920022 14.107998 9 13 9 z M 13 10 C 13.553998 10 14 10.446002 14 11 L 14 12 L 12 12 L 12 11 C 12 10.446002 12.446002 10 13 10 z " />
</svg>
