<?xml version="1.0" encoding="UTF-8" standalone="no"?>
<!-- Created with Inkscape (http://www.inkscape.org/) -->

<svg
   width="16"
   height="16"
   viewBox="0 0 4.2333332 4.2333335"
   version="1.1"
   id="svg830"
   inkscape:version="1.1.1 (3bf5ae0d25, 2021-09-20, custom)"
   sodipodi:docname="network-cellular-4g-symbolic.svg"
   xmlns:inkscape="http://www.inkscape.org/namespaces/inkscape"
   xmlns:sodipodi="http://sodipodi.sourceforge.net/DTD/sodipodi-0.dtd"
   xmlns="http://www.w3.org/2000/svg"
   xmlns:svg="http://www.w3.org/2000/svg">
  <sodipodi:namedview
     id="namedview832"
     pagecolor="#ffffff"
     bordercolor="#666666"
     borderopacity="1.0"
     inkscape:pageshadow="2"
     inkscape:pageopacity="0.0"
     inkscape:pagecheckerboard="0"
     inkscape:document-units="px"
     showgrid="false"
     units="px"
     inkscape:zoom="24.968749"
     inkscape:cx="-1.241552"
     inkscape:cy="10.833542"
     inkscape:window-width="1920"
     inkscape:window-height="1019"
     inkscape:window-x="0"
     inkscape:window-y="0"
     inkscape:window-maximized="1"
     inkscape:current-layer="svg830" />
  <defs
     id="defs827" />
  <path
     id="path10013"
     style="fill:#f2f2f2;stroke-width:0.254939"
     d="M 2 0 C 0.89199998 0 0 0.89199998 0 2 L 0 14 C 0 15.108 0.89199998 16 2 16 L 14 16 C 15.108 16 16 15.108 16 14 L 16 2 C 16 0.89199998 15.108 0 14 0 L 2 0 z M 2 1 L 14 1 C 14.554 1 15 1.446 15 2 L 15 14 C 15 14.554 14.554 15 14 15 L 2 15 C 1.446 15 1 14.554 1 14 L 1 2 C 1 1.446 1.446 1 2 1 z M 11.123047 4.5 C 10.532571 4.5 10.009877 4.6447048 9.5527344 4.9335938 C 9.0955914 5.2224827 8.7402962 5.635367 8.4863281 6.171875 C 8.23236 6.7052082 8.1054688 7.3286831 8.1054688 8.0429688 C 8.1054688 8.7604294 8.23236 9.3873204 8.4863281 9.9238281 C 8.7402962 10.457162 9.0990082 10.867362 9.5625 11.15625 C 10.029167 11.441964 10.568942 11.585938 11.181641 11.585938 C 11.727672 11.585937 12.213275 11.470027 12.638672 11.238281 C 13.067244 11.006535 13.400577 10.680035 13.638672 10.257812 C 13.879942 9.8324156 14 9.3372953 14 8.7753906 L 14 8.0332031 L 11.361328 8.0332031 L 11.361328 8.7851562 L 13.162109 8.7851562 C 13.158937 9.1883308 13.072552 9.5421626 12.904297 9.84375 C 12.736043 10.142162 12.503491 10.373981 12.205078 10.539062 C 11.906665 10.704142 11.565768 10.785156 11.181641 10.785156 C 10.749895 10.781981 10.36312 10.673637 10.023438 10.460938 C 9.6869293 10.248239 9.4214346 9.9388208 9.2246094 9.5292969 C 9.030959 9.1165984 8.9335938 8.6207466 8.9335938 8.0429688 C 8.9335938 7.4651911 9.030959 6.9693391 9.2246094 6.5566406 C 9.41826 6.1439432 9.6796068 5.8318398 10.009766 5.6191406 C 10.339924 5.4064414 10.710348 5.3007813 11.123047 5.3007812 C 11.605586 5.3007813 12.014323 5.4284039 12.347656 5.6855469 C 12.680989 5.9395153 12.923791 6.2940788 13.076172 6.7480469 L 13.960938 6.7480469 C 13.875223 6.306777 13.700992 5.9158544 13.4375 5.5761719 C 13.174008 5.2364886 12.843359 4.972457 12.443359 4.7851562 C 12.043359 4.5946781 11.602412 4.5 11.123047 4.5 z M 5.1054688 4.5957031 L 2 9.3769531 L 2 10.080078 L 5.34375 10.080078 L 5.34375 11.490234 L 6.1621094 11.490234 L 6.1621094 10.080078 L 7.1230469 10.080078 L 7.1230469 9.328125 L 6.1621094 9.328125 L 6.1621094 4.5957031 L 5.1054688 4.5957031 z M 5.2578125 5.6816406 L 5.34375 5.6816406 L 5.34375 9.328125 L 2.9238281 9.328125 L 2.9238281 9.2714844 L 5.2578125 5.6816406 z "
     transform="scale(0.26458333)" />
</svg>
