<?xml version="1.0" encoding="UTF-8" standalone="no"?>
<svg
   width="16"
   height="16"
   version="1.1"
   id="svg16331"
   sodipodi:docname="network-wired-symbolic.svg"
   inkscape:version="1.2.1 (9c6d41e410, 2022-07-14)"
   xmlns:inkscape="http://www.inkscape.org/namespaces/inkscape"
   xmlns:sodipodi="http://sodipodi.sourceforge.net/DTD/sodipodi-0.dtd"
   xmlns="http://www.w3.org/2000/svg"
   xmlns:svg="http://www.w3.org/2000/svg">
  <defs
     id="defs16335" />
  <sodipodi:namedview
     id="namedview16333"
     pagecolor="#ffffff"
     bordercolor="#000000"
     borderopacity="0.25"
     inkscape:showpageshadow="2"
     inkscape:pageopacity="0.0"
     inkscape:pagecheckerboard="0"
     inkscape:deskcolor="#d1d1d1"
     showgrid="false"
     inkscape:zoom="49.6875"
     inkscape:cx="8"
     inkscape:cy="8"
     inkscape:window-width="1920"
     inkscape:window-height="1007"
     inkscape:window-x="0"
     inkscape:window-y="0"
     inkscape:window-maximized="1"
     inkscape:current-layer="svg16331" />
  <path
     d="m 0.14153,7.87996 2.9889,2.951345 c 0.18936,0.21992 0.49832,0.22092 0.69067,0.003 0.191321,-0.228746 0.1921587,-0.562 0.00199,-0.79171 L 1,7.5 3.84399,4.95709 C 4.0349182,4.728199 4.0357551,4.3952337 3.84598,4.16538 3.6682932,3.9459741 3.3348846,3.9445259 3.15531,4.16238 L 0.14451,7.09024 C 0.05047561,7.2000941 -8.4187666e-4,7.3403143 0,7.4851 0,7.62805 0.046842,7.772 0.14152,7.88196 Z m 15.717,-0.75972 -2.9889,-2.95176 c -0.177687,-0.2194059 -0.511095,-0.2208541 -0.69067,-0.003 -0.191324,0.2287433 -0.192166,0.5619972 -0.002,0.79171 L 15,7.5 12.15706,10.042695 c -0.190931,0.228889 -0.191772,0.561854 -0.002,0.79171 0.18936,0.21992 0.49832,0.21992 0.69067,0.003 L 15.85553,7.91096 C 15.94956,7.8011059 16.000882,7.6608857 16.00004,7.5161 16.00214,7.3710272 15.95185,7.2300898 15.85852,7.11924 Z"
     fill="#f2f2f2"
     stroke-width="1.4972"
     id="path16329"
     sodipodi:nodetypes="cccccccccccccccccccccccc" />
  <path
     id="rect16506"
     style="fill:#f2f2f2;stroke-width:2;stroke-linecap:round;stroke-linejoin:round;fill-opacity:1"
     d="m 4,7 h 8 V 8 H 4 Z" />
</svg>
