<?xml version="1.0" encoding="UTF-8" standalone="no"?>
<!-- Created with Inkscape (http://www.inkscape.org/) -->

<svg
   width="16"
   height="16"
   viewBox="0 0 16 16"
   version="1.1"
   id="svg5"
   inkscape:version="1.2.1 (9c6d41e410, 2022-07-14)"
   sodipodi:docname="network-wireless-signal-good-secure-symbolic.svg"
   xmlns:inkscape="http://www.inkscape.org/namespaces/inkscape"
   xmlns:sodipodi="http://sodipodi.sourceforge.net/DTD/sodipodi-0.dtd"
   xmlns="http://www.w3.org/2000/svg"
   xmlns:svg="http://www.w3.org/2000/svg">
  <sodipodi:namedview
     id="namedview7"
     pagecolor="#ffffff"
     bordercolor="#666666"
     borderopacity="1.0"
     inkscape:showpageshadow="2"
     inkscape:pageopacity="0.0"
     inkscape:pagecheckerboard="0"
     inkscape:deskcolor="#d1d1d1"
     inkscape:document-units="px"
     showgrid="false"
     showguides="false"
     inkscape:zoom="50.125"
     inkscape:cx="8"
     inkscape:cy="8"
     inkscape:window-width="1920"
     inkscape:window-height="1008"
     inkscape:window-x="0"
     inkscape:window-y="0"
     inkscape:window-maximized="1"
     inkscape:current-layer="svg5" />
  <defs
     id="defs2">
    <inkscape:path-effect
       effect="bspline"
       id="path-effect1577"
       is_visible="true"
       lpeversion="1"
       weight="33.333333"
       steps="2"
       helper_size="0"
       apply_no_weight="true"
       apply_with_weight="true"
       only_selected="false" />
  </defs>
  <path
     id="path356"
     style="fill:#f2f2f2;fill-opacity:1;fill-rule:evenodd;paint-order:stroke fill markers"
     d="M 8,6 C 5.9269042,6 4.0319156,6.7172468 2.5117188,7.8964844 c -0.036843,0.020366 -0.070969,0.045303 -0.1015626,0.074219 -0.099301,0.09401 -0.1557673,0.2245864 -0.15625,0.3613281 0,0.276142 0.2238582,0.5 0.5,0.5 C 2.8708671,8.8322673 2.9842126,8.7914887 3.0742188,8.7167969 4.433016,7.6479989 6.1369038,7 8,7 c 1.4984309,-2e-7 2.894085,0.4204985 4.089844,1.140625 C 12.37666,8.0500116 12.682457,8 13,8 c 0.232976,0 0.458332,0.028335 0.675781,0.078125 -0.02336,-0.039281 -0.05213,-0.075417 -0.08594,-0.1074219 -0.03059,-0.028916 -0.06472,-0.053853 -0.101563,-0.074219 C 11.968085,6.7172868 10.073096,6 8,6 Z m 0,3 c -1.3524972,-2e-7 -2.5832394,0.4689212 -3.5859375,1.224609 -0.1103398,0.09497 -0.1679489,0.239176 -0.1679687,0.384766 0,0.27614 0.2238604,0.5 0.5,0.5 0.1243596,-3.26e-4 0.2441276,-0.04698 0.3359374,-0.130859 C 5.9041796,10.375456 6.9019022,10 8,10 c 0.7364514,-10e-8 1.4273092,0.169741 2.050781,0.462891 0.06092,-0.338646 0.177972,-0.6568862 0.341797,-0.9453129 C 9.6615468,9.1885965 8.8552928,9 8,9 Z m 0,3 c -0.5522847,0 -1,0.447715 -1,1 0,0.552285 0.4477153,1 1,1 0.5522847,0 1,-0.447715 1,-1 0,-0.552285 -0.4477153,-1 -1,-1 z"
     sodipodi:nodetypes="scccccscscccssccccsccssssss" />
  <path
     d="m 8,3 c -2.8404944,-3e-7 -5.4324323,1.0071065 -7.48632813,2.6582031 -0.0346849,0.020162 -0.0668172,0.044425 -0.0957031,0.072266 -0.0980948,0.093874 -0.15379199,0.2236006 -0.15429687,0.359375 0,0.2761418 0.22385814,0.4999999 0.5,0.5 0.1160503,3.3e-4 0.2286016,-0.039719 0.3183593,-0.1132813 C 2.9730276,4.9377655 5.3718052,4 8,4 c 2.628194,-3e-7 5.026873,0.9377255 6.917969,2.4765625 0.08976,0.073562 0.202308,0.1136113 0.318359,0.1132813 0.276142,0 0.5,-0.2238582 0.5,-0.5 -5.05e-4,-0.1357744 -0.05621,-0.2655009 -0.154297,-0.359375 -0.02889,-0.027841 -0.06102,-0.052104 -0.0957,-0.072266 C 13.432432,4.0071065 10.840394,3 8,3 Z"
     style="fill:#f2f2f2;fill-opacity:1;fill-rule:evenodd;paint-order:stroke fill markers;opacity:0.2"
     id="path10669" />
  <path
     id="rect8392"
     style="opacity:1;fill:#f2f2f2;fill-opacity:1;stroke-width:1.6527;stroke-linecap:round;stroke-linejoin:round;paint-order:stroke fill markers"
     d="M 13 9 C 11.892002 9 11 9.8920022 11 11 L 11 12 L 10 12 L 10 16 L 16 16 L 16 12 L 15 12 L 15 11 C 15 9.8920022 14.107998 9 13 9 z M 13 10 C 13.553998 10 14 10.446002 14 11 L 14 12 L 12 12 L 12 11 C 12 10.446002 12.446002 10 13 10 z " />
</svg>
