<?xml version="1.0" encoding="UTF-8" standalone="no"?>
<!-- Created with Inkscape (http://www.inkscape.org/) -->

<svg
   width="16"
   height="16"
   viewBox="0 0 4.2333332 4.2333335"
   version="1.1"
   id="svg830"
   inkscape:version="1.1.1 (3bf5ae0d25, 2021-09-20, custom)"
   sodipodi:docname="network-cellular-5g-symbolic.svg"
   xmlns:inkscape="http://www.inkscape.org/namespaces/inkscape"
   xmlns:sodipodi="http://sodipodi.sourceforge.net/DTD/sodipodi-0.dtd"
   xmlns="http://www.w3.org/2000/svg"
   xmlns:svg="http://www.w3.org/2000/svg">
  <sodipodi:namedview
     id="namedview832"
     pagecolor="#ffffff"
     bordercolor="#666666"
     borderopacity="1.0"
     inkscape:pageshadow="2"
     inkscape:pageopacity="0.0"
     inkscape:pagecheckerboard="0"
     inkscape:document-units="px"
     showgrid="false"
     units="px"
     inkscape:zoom="24.968749"
     inkscape:cx="-1.241552"
     inkscape:cy="10.833542"
     inkscape:window-width="1920"
     inkscape:window-height="1019"
     inkscape:window-x="0"
     inkscape:window-y="0"
     inkscape:window-maximized="1"
     inkscape:current-layer="svg830" />
  <defs
     id="defs827" />
  <path
     id="path10013"
     style="fill:#f2f2f2;stroke-width:0.254939"
     d="M 2 0 C 0.89199998 0 0 0.89199998 0 2 L 0 14 C 0 15.108 0.89199998 16 2 16 L 14 16 C 15.108 16 16 15.108 16 14 L 16 2 C 16 0.89199998 15.108 0 14 0 L 2 0 z M 2 1 L 14 1 C 14.554 1 15 1.446 15 2 L 15 14 C 15 14.554 14.554 15 14 15 L 2 15 C 1.446 15 1 14.554 1 14 L 1 2 C 1 1.446 1.446 1 2 1 z M 11.011719 4.5 C 10.398363 4.5 9.8557157 4.6491361 9.3808594 4.9492188 C 8.9060031 5.2493016 8.5352934 5.6790315 8.2714844 6.2363281 C 8.0076754 6.7903272 7.8769531 7.4377247 7.8769531 8.1796875 C 7.8769531 8.9249481 8.0076754 9.577469 8.2714844 10.134766 C 8.5352934 10.688765 8.9091727 11.115933 9.390625 11.416016 C 9.8753741 11.712801 10.435826 11.859375 11.072266 11.859375 C 11.639455 11.859375 12.144057 11.740726 12.585938 11.5 C 13.031116 11.259274 13.37768 10.919051 13.625 10.480469 C 13.875618 10.038589 14 9.5250837 14 8.9414062 L 14 8.1699219 L 11.259766 8.1699219 L 11.259766 8.9511719 L 13.128906 8.9511719 C 13.125609 9.3699687 13.038055 9.7375081 12.863281 10.050781 C 12.688508 10.360757 12.444741 10.600007 12.134766 10.771484 C 11.82479 10.942959 11.471277 11.029297 11.072266 11.029297 C 10.62379 11.026001 10.221985 10.9143 9.8691406 10.693359 C 9.5195938 10.472419 9.2435148 10.148048 9.0390625 9.7226562 C 8.8379085 9.2939664 8.7363281 8.779853 8.7363281 8.1796875 C 8.7363281 7.579522 8.8379085 7.0654084 9.0390625 6.6367188 C 9.240217 6.2080299 9.5125169 5.8830505 9.8554688 5.6621094 C 10.198421 5.4411683 10.583029 5.3300781 11.011719 5.3300781 C 11.512956 5.3300781 11.936954 5.4653151 12.283203 5.7324219 C 12.629453 5.9962309 12.88273 6.3624256 13.041016 6.8339844 L 13.960938 6.8339844 C 13.871902 6.3756161 13.689717 5.9700321 13.416016 5.6171875 C 13.142314 5.2643437 12.798312 4.991435 12.382812 4.796875 C 11.967313 4.5990193 11.509658 4.5 11.011719 4.5 z M 2.5742188 4.5996094 L 2.0683594 8.515625 L 2.9296875 8.515625 C 3.1770085 8.0770423 3.6225904 7.8631541 4.265625 7.8730469 C 4.582196 7.8730469 4.866569 7.94414 5.1171875 8.0859375 C 5.3711037 8.2277348 5.5671883 8.4226012 5.7089844 8.6699219 C 5.8540804 8.9139453 5.9277344 9.1894158 5.9277344 9.4960938 C 5.9277344 9.7928791 5.8572495 10.062009 5.71875 10.302734 C 5.580251 10.54346 5.3905083 10.732594 5.1464844 10.871094 C 4.9057585 11.009593 4.6308967 11.078125 4.3242188 11.078125 C 4.0703026 11.078125 3.8348301 11.028615 3.6171875 10.929688 C 3.4028425 10.83076 3.228952 10.697476 3.09375 10.529297 C 2.9585467 10.361118 2.8811127 10.171984 2.8613281 9.9609375 L 2 9.9609375 C 2.0164881 10.323675 2.1275792 10.649263 2.3320312 10.939453 C 2.5397809 11.226345 2.81586 11.452306 3.1621094 11.617188 C 3.5116564 11.77877 3.8988266 11.859375 4.3242188 11.859375 C 4.7957786 11.859377 5.2191665 11.757187 5.5917969 11.552734 C 5.9677251 11.348282 6.2622179 11.065863 6.4765625 10.703125 C 6.6909071 10.340388 6.7988281 9.931633 6.7988281 9.4765625 C 6.7988281 9.0181942 6.6940787 8.6062695 6.4863281 8.2402344 C 6.2818761 7.8741995 5.9975033 7.5872648 5.6347656 7.3828125 C 5.275326 7.1750619 4.8723036 7.0722656 4.4238281 7.0722656 C 4.1765072 7.0722656 3.9378643 7.1097018 3.7070312 7.1855469 C 3.479496 7.2613922 3.2820681 7.362972 3.1171875 7.4882812 L 3.0488281 7.4882812 L 3.3164062 5.390625 L 6.4511719 5.390625 L 6.4511719 4.5996094 L 2.5742188 4.5996094 z "
     transform="scale(0.26458333)" />
</svg>
