<?xml version="1.0" encoding="UTF-8" standalone="no"?>
<!-- Created with Inkscape (http://www.inkscape.org/) -->

<svg
   width="16"
   height="16"
   viewBox="0 0 16 16"
   version="1.1"
   id="svg5"
   inkscape:version="1.2.1 (9c6d41e410, 2022-07-14)"
   sodipodi:docname="network-wireless-signal-weak-symbolic.svg"
   xmlns:inkscape="http://www.inkscape.org/namespaces/inkscape"
   xmlns:sodipodi="http://sodipodi.sourceforge.net/DTD/sodipodi-0.dtd"
   xmlns="http://www.w3.org/2000/svg"
   xmlns:svg="http://www.w3.org/2000/svg">
  <sodipodi:namedview
     id="namedview7"
     pagecolor="#ffffff"
     bordercolor="#666666"
     borderopacity="1.0"
     inkscape:showpageshadow="2"
     inkscape:pageopacity="0.0"
     inkscape:pagecheckerboard="0"
     inkscape:deskcolor="#d1d1d1"
     inkscape:document-units="px"
     showgrid="false"
     showguides="false"
     inkscape:zoom="25.65625"
     inkscape:cx="6.8404385"
     inkscape:cy="8.3995128"
     inkscape:window-width="1920"
     inkscape:window-height="1007"
     inkscape:window-x="0"
     inkscape:window-y="0"
     inkscape:window-maximized="1"
     inkscape:current-layer="svg5" />
  <defs
     id="defs2">
    <inkscape:path-effect
       effect="bspline"
       id="path-effect1577"
       is_visible="true"
       lpeversion="1"
       weight="33.333333"
       steps="2"
       helper_size="0"
       apply_no_weight="true"
       apply_with_weight="true"
       only_selected="false" />
  </defs>
  <path
     id="path356"
     style="fill-rule:evenodd;paint-order:stroke fill markers;fill:#f2f2f2;fill-opacity:1;opacity:0.2"
     d="M 8 3 C 5.1595056 2.9999997 2.5675677 4.0071065 0.51367188 5.6582031 C 0.47898694 5.6783651 0.44685469 5.7026278 0.41796875 5.7304688 C 0.31987395 5.8243426 0.26417676 5.9540694 0.26367188 6.0898438 C 0.26367188 6.3659856 0.48753002 6.5898437 0.76367188 6.5898438 C 0.87972218 6.5901738 0.99227345 6.5501243 1.0820312 6.4765625 C 2.9730276 4.9377655 5.3718052 4 8 4 C 10.628194 3.9999997 13.026873 4.9377255 14.917969 6.4765625 C 15.007729 6.5501243 15.120277 6.5901738 15.236328 6.5898438 C 15.51247 6.5898438 15.736328 6.3659856 15.736328 6.0898438 C 15.735823 5.9540694 15.680121 5.8243429 15.582031 5.7304688 C 15.553141 5.7026278 15.521008 5.6783651 15.486328 5.6582031 C 13.432432 4.0071065 10.840394 3 8 3 z M 8 6 C 5.9269042 6 4.0319156 6.7172468 2.5117188 7.8964844 C 2.4748758 7.9168504 2.4407502 7.9417873 2.4101562 7.9707031 C 2.3108554 8.0647129 2.2543889 8.1952895 2.2539062 8.3320312 C 2.2539062 8.6081732 2.4777644 8.8320312 2.7539062 8.8320312 C 2.8708671 8.8322673 2.9842126 8.7914887 3.0742188 8.7167969 C 4.433016 7.6479989 6.1369038 7 8 7 C 9.8630961 6.9999998 11.566985 7.6479589 12.925781 8.7167969 C 13.015791 8.7914887 13.129133 8.8322673 13.246094 8.8320312 C 13.522234 8.8320312 13.746094 8.6081732 13.746094 8.3320312 C 13.745611 8.1952895 13.689144 8.0647129 13.589844 7.9707031 C 13.559254 7.9417873 13.525121 7.9168504 13.488281 7.8964844 C 11.968085 6.7172868 10.073096 6 8 6 z M 8 9 C 6.6475014 8.9999998 5.4167616 9.4689201 4.4140625 10.224609 C 4.3037226 10.319579 4.2461137 10.463785 4.2460938 10.609375 C 4.2460938 10.885515 4.469954 11.109375 4.7460938 11.109375 C 4.8704536 11.109049 4.9902213 11.062396 5.0820312 10.978516 C 5.9041804 10.375456 6.9019011 10 8 10 C 9.0980989 9.9999998 10.09577 10.375456 10.917969 10.978516 C 11.009779 11.062396 11.129546 11.109045 11.253906 11.109375 C 11.530046 11.109375 11.753906 10.885515 11.753906 10.609375 C 11.75389 10.463785 11.696287 10.319579 11.585938 10.224609 C 10.583239 9.4689101 9.3524985 9 8 9 z " />
  <circle
     style="fill:#f2f2f2;stroke-linecap:round;stroke-linejoin:round"
     id="path668"
     cx="8.0004902"
     cy="13"
     r="1" />
</svg>
