<?xml version="1.0" encoding="UTF-8" standalone="no"?>
<!-- Created with Inkscape (http://www.inkscape.org/) -->

<svg
   width="16"
   height="16"
   viewBox="0 0 16 16"
   version="1.1"
   id="svg5"
   sodipodi:docname="network-cellular-signal-none-symbolic.svg"
   inkscape:version="1.2.1 (9c6d41e410, 2022-07-14)"
   xmlns:inkscape="http://www.inkscape.org/namespaces/inkscape"
   xmlns:sodipodi="http://sodipodi.sourceforge.net/DTD/sodipodi-0.dtd"
   xmlns="http://www.w3.org/2000/svg"
   xmlns:svg="http://www.w3.org/2000/svg">
  <sodipodi:namedview
     id="namedview7"
     pagecolor="#ffffff"
     bordercolor="#000000"
     borderopacity="0.25"
     inkscape:showpageshadow="2"
     inkscape:pageopacity="0.0"
     inkscape:pagecheckerboard="0"
     inkscape:deskcolor="#d1d1d1"
     inkscape:document-units="px"
     showgrid="false"
     inkscape:zoom="25.65625"
     inkscape:cx="1.1303289"
     inkscape:cy="9.4908648"
     inkscape:window-width="1920"
     inkscape:window-height="1007"
     inkscape:window-x="0"
     inkscape:window-y="0"
     inkscape:window-maximized="1"
     inkscape:current-layer="svg5" />
  <defs
     id="defs2" />
  <path
     id="rect788"
     style="fill:#f2f2f2;stroke-linecap:round;stroke-linejoin:round;opacity:0.2"
     d="M 14 1 C 13.446002 1 13 1.4460012 13 2 L 13 14 C 13 14.553998 13.446002 15 14 15 C 14.553998 15 15 14.553998 15 14 L 15 2 C 15 1.4460012 14.553998 1 14 1 z M 10 4 C 9.4460012 4 9 4.4460012 9 5 L 9 14 C 9 14.553998 9.4460012 15 10 15 C 10.553998 15 11 14.553998 11 14 L 11 5 C 11 4.4460012 10.553998 4 10 4 z M 6 7 C 5.4460012 7 5 7.4460012 5 8 L 5 14 C 5 14.553998 5.4460012 15 6 15 C 6.5539988 15 7 14.553998 7 14 L 7 8 C 7 7.4460012 6.5539988 7 6 7 z M 2 11 C 1.4460006 11 1 11.446001 1 12 L 1 14 C 1 14.553999 1.4460006 15 2 15 C 2.5539994 15 3 14.553999 3 14 L 3 12 C 3 11.446001 2.5539994 11 2 11 z " />
</svg>
