<?xml version="1.0" encoding="UTF-8" standalone="no"?>
<!-- Created with Inkscape (http://www.inkscape.org/) -->

<svg
   width="16"
   height="16"
   viewBox="0 0 16 16"
   version="1.1"
   id="svg5"
   inkscape:version="1.2.1 (9c6d41e410, 2022-07-14)"
   sodipodi:docname="network-cellular-no-route-symbolic.svg"
   xmlns:inkscape="http://www.inkscape.org/namespaces/inkscape"
   xmlns:sodipodi="http://sodipodi.sourceforge.net/DTD/sodipodi-0.dtd"
   xmlns="http://www.w3.org/2000/svg"
   xmlns:svg="http://www.w3.org/2000/svg">
  <sodipodi:namedview
     id="namedview7"
     pagecolor="#ffffff"
     bordercolor="#000000"
     borderopacity="0.25"
     inkscape:showpageshadow="2"
     inkscape:pageopacity="0.0"
     inkscape:pagecheckerboard="0"
     inkscape:deskcolor="#d1d1d1"
     inkscape:document-units="px"
     showgrid="false"
     inkscape:zoom="25.65625"
     inkscape:cx="-2.455542"
     inkscape:cy="9.5103532"
     inkscape:window-width="1920"
     inkscape:window-height="1008"
     inkscape:window-x="0"
     inkscape:window-y="0"
     inkscape:window-maximized="1"
     inkscape:current-layer="svg5" />
  <defs
     id="defs2" />
  <path
     id="rect788"
     style="fill:#f2f2f2;stroke-linecap:round;stroke-linejoin:round;opacity:0.2;fill-opacity:1"
     d="m 14,1 c -0.553998,0 -1,0.4460012 -1,1 v 12 c 0,0.553998 0.446002,1 1,1 0.553998,0 1,-0.446002 1,-1 V 2 C 15,1.4460012 14.553998,1 14,1 Z M 9.5546875,4.5273438 c 0.00218,0.00203 0.00174,0.00576 0.00391,0.00781 0.00219,0.0021 0.00562,0.0018 0.00781,0.00391 z M 6,7 C 5.4460012,7 5,7.4460012 5,8 v 6 c 0,0.553998 0.4460012,1 1,1 0.5539988,0 1,-0.446002 1,-1 v -1.304688 c -0.092205,-0.06074 -0.1780083,-0.12918 -0.2539062,-0.205078 -0.00593,-0.0058 -0.011792,-0.01165 -0.017578,-0.01758 -0.2989769,-0.314718 -0.4804687,-0.781219 -0.4804687,-1.208984 0,-0.427774 0.1814587,-0.8962 0.4804687,-1.210938 0.00579,-0.0059 0.011646,-0.01179 0.017578,-0.01758 0.042452,-0.04245 0.1180516,-0.03054 0.1660156,-0.068359 -0.1884117,-0.095923 -0.3415771,-0.2490883 -0.4375,-0.4375 V 9.0175781 c 0,-0.4641958 0.1053751,-0.933456 0.3457031,-1.3398437 0.023838,-0.041073 0.048561,-0.081175 0.074219,-0.1210938 C 6.7314645,7.2267794 6.3942029,7 6,7 Z m 5,0.091797 c -0.03072,0.073305 -0.06331,0.1461046 -0.09961,0.2167969 C 10.741489,7.6180303 10.60018,7.8671142 10.373047,8.109375 10.255769,8.2349167 10.104789,8.3779293 9.9316406,8.5390625 l -0.00977,0.011719 -0.041016,0.042969 c -0.017555,0.018264 -0.035797,0.035855 -0.054687,0.052734 C 9.5069072,8.9343465 9.4941406,9.066354 9.4941406,9.09375 v 0.4355469 c -0.096609,0.1925196 -0.2527929,0.3487035 -0.4453125,0.4453125 0.049367,0.039606 0.1265749,0.027486 0.1699219,0.072266 0.3060861,0.311558 0.5019531,0.782795 0.5019531,1.216797 0,0.433974 -0.195811,0.903255 -0.5019531,1.214844 C 9.1533026,12.546119 9.0783133,12.606234 9,12.662109 V 14 c 0,0.553998 0.4460012,1 1,1 0.553998,0 1,-0.446002 1,-1 z M 2,11 c -0.5539988,0 -1,0.446002 -1,1 v 2 c 0,0.553998 0.4460012,1 1,1 0.5539988,0 1,-0.446002 1,-1 V 12 C 3,11.446002 2.5539988,11 2,11 Z"
     sodipodi:nodetypes="sssssssccccssssscccsccccsccscccccccscccsccssscsssssss" />
  <path
     d="m 7.99495,4 c 0.65763,0 1.1922,0.19569 1.6041,0.58594 0.41192,0.38302 0.61719,0.87414 0.61719,1.474 0,0.26016 -0.06843,0.52428 -0.20573,0.79167 C 9.8732,7.119 9.75172,7.30891 9.64332,7.42453 9.54215,7.53293 9.39632,7.67557 9.20842,7.84901 L 9.15634,7.903698 C 8.71551,8.301168 8.49487,8.696328 8.49487,9.0937978 v 0.4349 h -1.0208 v -0.51042 c 0,-0.3251998 0.068422,-0.6020798 0.20573,-0.8333398 0.13731,-0.23848 0.37968,-0.51796 0.72656,-0.83594 0.19512,-0.18067 0.33196,-0.31432 0.41146,-0.40104 0.08672,-0.093949 0.17051,-0.21861 0.25,-0.3776 0.086721,-0.16621 0.13021,-0.33698 0.13021,-0.51042 0,-0.33243 -0.10872,-0.59974 -0.32552,-0.80209 -0.20957,-0.20235 -0.50182,-0.3047 -0.87761,-0.3047 -0.6215,0 -1.0474,0.3479 -1.2786,1.0417 L 5.784,5.604218 c 0.15176,-0.41192 0.41268,-0.78158 0.78126,-1.1068 0.37579,-0.33243 0.85155,-0.4974 1.4297,-0.4974 z m -0.0104,6.526 c 0.20957,0 0.38352,0.07161 0.52083,0.21615 0.14453,0.14454 0.21615,0.31848 0.21615,0.52083 0,0.20235 -0.071614,0.3763 -0.21615,0.52083 -0.13731,0.14453 -0.31127,0.21615 -0.52084,0.21615 -0.20957,0 -0.38672,-0.07161 -0.53126,-0.21615 -0.13731,-0.14454 -0.20573,-0.31848 -0.20573,-0.52083 0,-0.20235 0.068422,-0.3763 0.20573,-0.52083 C 7.59781,10.59762 7.77496,10.526 7.98454,10.526 Z"
     style="fill:#f2f2f2;enable-background:new;stroke:none;fill-opacity:1"
     id="path904" />
</svg>
