<?xml version="1.0" encoding="UTF-8" standalone="no"?>
<!-- Created with Inkscape (http://www.inkscape.org/) -->

<svg
   width="16"
   height="16"
   viewBox="0 0 16 16"
   version="1.1"
   id="svg5"
   inkscape:version="1.2.1 (9c6d41e410, 2022-07-14)"
   sodipodi:docname="sensors-temperature-symbolic.svg"
   xmlns:inkscape="http://www.inkscape.org/namespaces/inkscape"
   xmlns:sodipodi="http://sodipodi.sourceforge.net/DTD/sodipodi-0.dtd"
   xmlns="http://www.w3.org/2000/svg"
   xmlns:svg="http://www.w3.org/2000/svg">
  <sodipodi:namedview
     id="namedview7"
     pagecolor="#ffffff"
     bordercolor="#000000"
     borderopacity="0.25"
     inkscape:showpageshadow="2"
     inkscape:pageopacity="0.0"
     inkscape:pagecheckerboard="0"
     inkscape:deskcolor="#d1d1d1"
     inkscape:document-units="px"
     showgrid="false"
     inkscape:zoom="50.5"
     inkscape:cx="8"
     inkscape:cy="8"
     inkscape:window-width="1920"
     inkscape:window-height="1011"
     inkscape:window-x="0"
     inkscape:window-y="32"
     inkscape:window-maximized="1"
     inkscape:current-layer="svg5" />
  <defs
     id="defs2" />
  <path
     id="path1603"
     style="opacity:0.3;fill:#f2f2f2;fill-opacity:1"
     d="M 6.5,6 V 8.8417969 C 5.2798894,9.4205451 4.5015725,10.649586 4.5,12 c 0,1.932997 1.5670034,3.5 3.5,3.5 1.9329966,0 3.5,-1.567003 3.5,-3.5 -6.5e-5,-1.351825 -0.778615,-2.5827557 -2,-3.1621094 V 6 Z"
     sodipodi:nodetypes="cccscccc" />
  <path
     d="M 8,0 C 6.8920055,0 6,0.8920056 6,2 V 8.546875 C 4.7657867,9.2594412 4.0039139,10.574862 4,12 c 0,2.209137 1.7908632,4 4,4 2.209137,0 4,-1.790863 4,-4 -4.33e-4,-1.428629 -0.762771,-2.7485765 -2,-3.4628906 V 2 C 10,0.8920056 9.1079945,0 8,0 Z M 8,1 C 8.553997,1 9,1.446003 9,2 V 9.171875 C 10.198535,9.595621 10.999872,10.728762 11,12 11,13.656854 9.6568542,15 8,15 6.3431458,15 5,13.656854 5,12 5.00343,10.73163 5.8041636,9.6024743 7,9.1796875 V 2 C 7,1.446003 7.446003,1 8,1 Z"
     style="fill:#f2f2f2;fill-opacity:1"
     id="path2003" />
</svg>
