<?xml version="1.0" encoding="UTF-8" standalone="no"?>
<!-- Created with Inkscape (http://www.inkscape.org/) -->

<svg
   width="22"
   height="22"
   viewBox="0 0 22 22"
   version="1.1"
   id="svg5"
   inkscape:version="1.4 (e7c3feb100, 2024-10-09)"
   sodipodi:docname="accessories-document-viewer.svg"
   xmlns:inkscape="http://www.inkscape.org/namespaces/inkscape"
   xmlns:sodipodi="http://sodipodi.sourceforge.net/DTD/sodipodi-0.dtd"
   xmlns:xlink="http://www.w3.org/1999/xlink"
   xmlns="http://www.w3.org/2000/svg"
   xmlns:svg="http://www.w3.org/2000/svg">
  <sodipodi:namedview
     id="namedview7"
     pagecolor="#ffffff"
     bordercolor="#000000"
     borderopacity="0.25"
     inkscape:showpageshadow="2"
     inkscape:pageopacity="0.0"
     inkscape:pagecheckerboard="0"
     inkscape:deskcolor="#d1d1d1"
     inkscape:document-units="px"
     showgrid="false"
     inkscape:zoom="36.363636"
     inkscape:cx="11"
     inkscape:cy="11"
     inkscape:window-width="1920"
     inkscape:window-height="1011"
     inkscape:window-x="0"
     inkscape:window-y="0"
     inkscape:window-maximized="1"
     inkscape:current-layer="svg5"
     showguides="true" />
  <defs
     id="defs2">
    <linearGradient
       inkscape:collect="always"
       id="linearGradient1090">
      <stop
         style="stop-color:#e23737;stop-opacity:1;"
         offset="0"
         id="stop1086" />
      <stop
         style="stop-color:#e37d7d;stop-opacity:1;"
         offset="1"
         id="stop1088" />
    </linearGradient>
    <linearGradient
       inkscape:collect="always"
       xlink:href="#linearGradient1090"
       id="linearGradient2"
       x1="1"
       y1="1"
       x2="21"
       y2="21"
       gradientUnits="userSpaceOnUse" />
    <linearGradient
       inkscape:collect="always"
       xlink:href="#4852"
       id="linearGradient3500"
       x1="2"
       y1="2"
       x2="28.666666"
       y2="28.666666"
       gradientUnits="userSpaceOnUse"
       gradientTransform="matrix(0.75,0,0,0.75,-0.5,-0.5)" />
    <linearGradient
       inkscape:collect="always"
       id="4852">
      <stop
         style="stop-color:#272727;stop-opacity:1;"
         offset="0"
         id="stop14555" />
      <stop
         style="stop-color:#5d5d5d;stop-opacity:1;"
         offset="1"
         id="stop14557" />
    </linearGradient>
  </defs>
  <path
     id="path530"
     style="fill:url(#linearGradient3500);fill-opacity:1;stroke-width:0.750005;stroke-linecap:round;stroke-linejoin:round"
     d="M 9,1 C 2.174114,1 1,2.2048695 1,9 v 4 c 0,6.79513 1.174114,8 8,8 h 4 c 6.825886,0 8,-1.20487 8,-8 V 9 C 21,2.2048695 19.825886,1 13,1 Z"
     sodipodi:nodetypes="sssssssss" />
  <path
     id="path40871"
     style="color:#000000;fill:url(#linearGradient2);stroke-width:0.5"
     d="m 10.224251,4.0000046 c -0.120283,0 -0.203617,-8.727e-4 -0.296875,0.021484 -0.09326,0.022358 -0.178463,0.078457 -0.236328,0.1269531 -0.172036,0.1441949 -0.245322,0.3482719 -0.300781,0.6015629 -0.05546,0.253291 -0.08063,0.563533 -0.08008,0.925781 9.94e-4,0.745365 0.103354,1.459323 0.333984,2.367188 l 0.126953,0.488281 -0.113281,0.353516 C 9.236243,10.232029 8.62444,11.638209 7.716437,13.332036 7.356329,14.0038 7.08034,14.356108 6.765265,14.857427 c -0.0027,-0.0077 -0.0058,-0.01742 -0.0059,-0.01758 -4.42e-4,-9.39e-4 -0.06755,-0.08526 -0.06836,-0.08594 -4.04e-4,-3.39e-4 -0.03857,-0.02902 -0.03906,-0.0293 -4.94e-4,-2.75e-4 -0.02711,-0.01128 -0.03906,-0.01563 -0.09559,-0.03473 -0.131474,-0.0166 -0.162109,-0.0098 -0.06127,0.01373 -0.09716,0.0317 -0.144531,0.05469 -0.1895,0.09196 -0.482825,0.280232 -0.808594,0.525391 -0.666738,0.501759 -1.215825,1.123398 -1.41211,1.679687 -0.06303,0.17866 -0.109479,0.324816 -0.07227,0.496094 0.03721,0.171278 0.179213,0.296509 0.314454,0.365234 0.204166,0.103754 0.382415,0.171365 0.572266,0.179688 0.189849,0.0083 0.369846,-0.04886 0.550781,-0.138672 0.738384,-0.3665 1.552779,-1.37883 2.488281,-2.927734 0.148873,-0.246493 0.247201,-0.398819 0.304688,-0.47461 0.02013,-0.02654 0.0249,-0.0305 0.03125,-0.03711 0.01424,-0.0031 0.02968,-0.0055 0.04687,-0.0098 0.0388,-0.0097 0.08827,-0.02291 0.146485,-0.03906 0.116424,-0.0323 0.267515,-0.07672 0.427734,-0.125 1.250773,-0.376936 2.762909,-0.684246 4.242188,-0.863281 l 0.423828,-0.05273 0.181641,0.0918 c 0.679425,0.340832 1.597733,0.661482 2.298828,0.798828 0.243187,0.04764 0.513847,0.07514 0.755859,0.08203 0.242012,0.0069 0.435712,0.0074 0.613281,-0.05469 0.09781,-0.03419 0.193259,-0.0879 0.28711,-0.146484 0.04693,-0.02929 0.09133,-0.05869 0.132812,-0.09375 0.02074,-0.01753 0.04098,-0.03525 0.06445,-0.06445 0.02348,-0.0292 0.06639,-0.06643 0.06641,-0.179687 V 13.58392 c 0.0096,-0.02379 0.02335,-0.05133 0.02734,-0.07031 0.01356,-0.06442 0.01292,-0.116934 0.0098,-0.173828 -0.0064,-0.11379 -0.01624,-0.224111 -0.0918,-0.351563 -0.202984,-0.342301 -0.626536,-0.494774 -1.179688,-0.597656 -0.483725,-0.08997 -1.466428,-0.105249 -2.267578,-0.05273 h -0.002 l -0.615234,0.03906 -0.183594,-0.109375 -0.002,-0.002 c -1.400785,-0.849142 -2.108397,-1.758519 -2.787109,-3.5976564 -0.05112,-0.138514 -0.07342,-0.210022 -0.07813,-0.240235 -0.0047,-0.03021 -0.0022,-0.04103 0.01367,-0.123046 0.06755,-0.348842 0.121485,-1.020329 0.154296,-1.636719 0.01641,-0.308196 0.02683,-0.598843 0.02734,-0.820313 2.55e-4,-0.110735 -0.0021,-0.203644 -0.0078,-0.279297 -0.0028,-0.03783 -0.006,-0.07034 -0.01367,-0.107421 -0.0038,-0.01854 -0.0078,-0.03787 -0.01953,-0.06641 -0.0058,-0.01427 -0.01459,-0.03112 -0.0293,-0.05273 -0.0074,-0.01081 -0.01663,-0.02211 -0.0293,-0.03516 -0.0025,-0.0026 -0.0059,-0.0045 -0.0098,-0.0078 0.03116,-0.01975 0.07325,-0.02351 0.08984,-0.04687 0.0422,-0.05942 0.04894,-0.102166 0.05664,-0.140625 0.0154,-0.07692 0.01737,-0.149062 0.02148,-0.257812 0.0097,-0.255605 -0.0092,-0.483788 -0.173828,-0.6542972 C 10.708189,4.028811 10.480919,4.0000046 10.224247,4.0000046 Z m 0.121094,0.935547 c 0.04567,0.06709 0.13007,0.0769 0.146484,0.214844 l 0.01172,0.099609 -0.03906,0.173828 c -0.05626,0.251993 -0.105253,0.476009 -0.15625,0.722656 -0.01825,-0.230984 -0.03702,-0.470031 -0.0293,-0.695312 0.0082,-0.239758 0.04053,-0.395211 0.06641,-0.515625 z m 0.01758,5.0703124 c 0.03274,0.06549 0.06091,0.125422 0.0957,0.19336 0.550075,1.07404 1.231659,1.771249 2.066407,2.388672 -0.0081,0.0015 -0.01328,0.0024 -0.02148,0.0039 -1.361965,0.242519 -2.84662,0.728277 -3.880859,1.167969 0.835655,-1.500297 1.403245,-2.721518 1.740234,-3.753907 z m 5.90625,3.181641 c 0.05658,-0.0021 0.114292,-8.91e-4 0.171875,0.0039 0.296848,0.02473 0.564057,0.07874 0.748047,0.154297 0.157598,0.06472 0.210715,0.133754 0.244141,0.199219 -0.16402,0.03413 -0.338403,0.06178 -0.570313,0.01563 -0.301258,-0.05996 -0.626694,-0.17252 -0.921875,-0.259766 l -0.0039,-0.002 c -0.04587,-0.0145 -0.130039,-0.04776 -0.189453,-0.06836 0.184512,-0.0068 0.351747,-0.03679 0.521484,-0.04297 z m -9.882812,2.277344 c -0.151649,0.221532 -0.347465,0.605138 -0.486328,0.78125 -0.339179,0.430156 -0.547716,0.507824 -0.78711,0.664062 0.07038,-0.112669 0.130042,-0.218413 0.226563,-0.345703 0.274232,-0.361654 0.657633,-0.752235 1.046875,-1.099609 z"
     sodipodi:nodetypes="sscsccccsccsccccscssccssccsccccsccssccccccscccccscccsccccccssccscccccccccccccssscccccscscsc" />
</svg>
