<?xml version="1.0" encoding="UTF-8" standalone="no"?>
<!-- Created with Inkscape (http://www.inkscape.org/) -->

<svg
   width="22"
   height="22"
   viewBox="0 0 22 22"
   version="1.1"
   id="svg5"
   inkscape:version="1.4 (e7c3feb100, 2024-10-09)"
   sodipodi:docname="lollypop.svg"
   xmlns:inkscape="http://www.inkscape.org/namespaces/inkscape"
   xmlns:sodipodi="http://sodipodi.sourceforge.net/DTD/sodipodi-0.dtd"
   xmlns:xlink="http://www.w3.org/1999/xlink"
   xmlns="http://www.w3.org/2000/svg"
   xmlns:svg="http://www.w3.org/2000/svg">
  <sodipodi:namedview
     id="namedview7"
     pagecolor="#ffffff"
     bordercolor="#000000"
     borderopacity="0.25"
     inkscape:showpageshadow="2"
     inkscape:pageopacity="0.0"
     inkscape:pagecheckerboard="0"
     inkscape:deskcolor="#d1d1d1"
     inkscape:document-units="px"
     showgrid="false"
     inkscape:zoom="26.291516"
     inkscape:cx="7.8352272"
     inkscape:cy="11.068209"
     inkscape:window-width="1920"
     inkscape:window-height="1011"
     inkscape:window-x="0"
     inkscape:window-y="0"
     inkscape:window-maximized="1"
     inkscape:current-layer="svg5"
     showguides="true" />
  <defs
     id="defs2">
    <linearGradient
       inkscape:collect="always"
       xlink:href="#linearGradient5215"
       id="linearGradient6178"
       x1="3.1428497"
       y1="2.7505212"
       x2="13.142876"
       y2="13.249479"
       gradientUnits="userSpaceOnUse"
       gradientTransform="matrix(1.3999964,0,0,1.3334657,-0.39997826,0.33227433)" />
    <linearGradient
       inkscape:collect="always"
       id="linearGradient5215">
      <stop
         style="stop-color:#e64686;stop-opacity:1;"
         offset="0"
         id="stop5211" />
      <stop
         style="stop-color:#ec7e93;stop-opacity:1;"
         offset="1"
         id="stop5213" />
    </linearGradient>
    <linearGradient
       inkscape:collect="always"
       xlink:href="#4852"
       id="linearGradient5279"
       x1="-2.9500001e-07"
       y1="8.925e-07"
       x2="16"
       y2="15.999999"
       gradientUnits="userSpaceOnUse"
       gradientTransform="matrix(1.4,0,0,1.4,-0.19999974,-0.19999953)" />
    <linearGradient
       inkscape:collect="always"
       xlink:href="#linearGradient5215"
       id="linearGradient11784"
       x1="1"
       y1="1"
       x2="21"
       y2="21"
       gradientUnits="userSpaceOnUse" />
    <linearGradient
       inkscape:collect="always"
       xlink:href="#4852"
       id="linearGradient3500"
       x1="2"
       y1="2"
       x2="28.666666"
       y2="28.666666"
       gradientUnits="userSpaceOnUse"
       gradientTransform="matrix(0.75,0,0,0.75,-0.5,-0.5)" />
    <linearGradient
       inkscape:collect="always"
       id="4852">
      <stop
         style="stop-color:#272727;stop-opacity:1;"
         offset="0"
         id="stop14555" />
      <stop
         style="stop-color:#5d5d5d;stop-opacity:1;"
         offset="1"
         id="stop14557" />
    </linearGradient>
  </defs>
  <path
     id="path530"
     style="fill:url(#linearGradient3500);fill-opacity:1;stroke-width:0.750005;stroke-linecap:round;stroke-linejoin:round"
     d="M 9,1 C 2.174114,1 1,2.2048695 1,9 v 4 c 0,6.79513 1.174114,8 8,8 h 4 c 6.825886,0 8,-1.20487 8,-8 V 9 C 21,2.2048695 19.825886,1 13,1 Z"
     sodipodi:nodetypes="sssssssss" />
  <path
     id="path10967"
     style="fill:url(#linearGradient11784);stroke-width:2.37172;stroke-linecap:round;stroke-linejoin:round;fill-opacity:1"
     d="M 9 1 C 8.7119339 1 8.4479584 1.0051442 8.1796875 1.0097656 C 8.0664063 1.7422859 7.9983038 2.5627324 8 3.5 C 7.98945 7.6803514 11 11 11 11 C 11 11 11.568816 5.5046091 14.341797 1.0214844 C 13.918931 1.0082551 13.476405 1 13 1 L 9 1 z M 11 11 C 11 11 15.844498 8.8339184 20.998047 8.8984375 C 20.992811 6.0660342 20.77516 4.2153875 20.013672 3.0253906 C 18.867341 3.2854765 17.555374 3.7483259 15.996094 4.6523438 C 12.370527 6.7333829 11 11 11 11 z M 11 11 C 11 11 16.348186 14.873215 18.611328 20.21875 C 20.470911 19.291561 20.956679 17.343113 20.994141 13.498047 C 20.431233 13.051293 19.777127 12.601391 18.996094 12.152344 C 15.381077 10.053031 11 11 11 11 z M 11 11 C 11 11 10.431184 16.495391 7.6582031 20.978516 C 8.0810688 20.991745 8.5235949 21 9 21 L 13 21 C 13.289438 21 13.554764 20.994901 13.824219 20.990234 C 13.935197 20.261939 14.001705 19.442509 14 18.5 C 14.01045 14.319648 11 11 11 11 z M 11 11 C 11 11 6.155502 13.166082 1.0019531 13.101562 C 1.0071967 15.937964 1.2241773 17.790653 1.9882812 18.980469 C 3.1282364 18.723302 4.4287333 18.260886 6.0039062 17.347656 C 9.6294214 15.26653 11 11 11 11 z M 11 11 C 11 11 5.6518146 7.1267848 3.3886719 1.78125 C 1.528453 2.708756 1.0430265 4.6581712 1.0058594 8.5058594 C 1.5662612 8.9484963 2.2190378 9.3964033 3.0039062 9.8476562 C 6.6189715 11.946881 11 11 11 11 z " />
  <circle
     style="fill:url(#linearGradient5279);fill-opacity:1;stroke-width:2.8;stroke-linecap:round;stroke-linejoin:round"
     id="path5271"
     cx="11"
     cy="11"
     r="7" />
  <path
     d="M 8.4439389,7.0366707 C 8.2004795,6.9033242 8.00014,7.1700173 8,7.4367104 v 7.1261736 c -2.8e-6,0.336033 0.3615071,0.545921 0.6507603,0.378037 l 3.0661317,-1.781509 3.066274,-1.781511 c 0.289113,-0.168016 0.289113,-0.588058 0,-0.756208 L 11.716892,8.8401834 8.6507603,7.0586729 C 8.5877885,7.0213361 8.5166966,7.0013337 8.4440089,7.0000001 Z"
     style="fill:url(#linearGradient6178);fill-opacity:1;stroke-width:1.36633"
     id="path5776" />
</svg>
