<?xml version="1.0" encoding="UTF-8" standalone="no"?>
<!-- Created with Inkscape (http://www.inkscape.org/) -->

<svg
   width="22"
   height="22"
   viewBox="0 0 22 22"
   version="1.1"
   id="svg5"
   inkscape:version="1.4 (e7c3feb100, 2024-10-09)"
   sodipodi:docname="office-calendar.svg"
   xmlns:inkscape="http://www.inkscape.org/namespaces/inkscape"
   xmlns:sodipodi="http://sodipodi.sourceforge.net/DTD/sodipodi-0.dtd"
   xmlns:xlink="http://www.w3.org/1999/xlink"
   xmlns="http://www.w3.org/2000/svg"
   xmlns:svg="http://www.w3.org/2000/svg">
  <sodipodi:namedview
     id="namedview7"
     pagecolor="#ffffff"
     bordercolor="#000000"
     borderopacity="0.25"
     inkscape:showpageshadow="2"
     inkscape:pageopacity="0.0"
     inkscape:pagecheckerboard="0"
     inkscape:deskcolor="#d1d1d1"
     inkscape:document-units="px"
     showgrid="false"
     inkscape:zoom="25.391562"
     inkscape:cx="8.5855293"
     inkscape:cy="11.933098"
     inkscape:window-width="1920"
     inkscape:window-height="1011"
     inkscape:window-x="0"
     inkscape:window-y="0"
     inkscape:window-maximized="1"
     inkscape:current-layer="svg5"
     showguides="false" />
  <defs
     id="defs2">
    <linearGradient
       inkscape:collect="always"
       id="linearGradient2556">
      <stop
         style="stop-color:#de1212;stop-opacity:1;"
         offset="0"
         id="stop2552" />
      <stop
         style="stop-color:#e76969;stop-opacity:1;"
         offset="1"
         id="stop2554" />
    </linearGradient>
    <linearGradient
       inkscape:collect="always"
       xlink:href="#4852"
       id="linearGradient3500"
       x1="2"
       y1="2"
       x2="31.333334"
       y2="31.333334"
       gradientUnits="userSpaceOnUse"
       gradientTransform="matrix(0.75,0,0,0.75,-0.5,-0.5)" />
    <linearGradient
       inkscape:collect="always"
       xlink:href="#linearGradient2556"
       id="linearGradient2558"
       x1="11"
       y1="1"
       x2="11"
       y2="21"
       gradientUnits="userSpaceOnUse" />
    <linearGradient
       inkscape:collect="always"
       id="4852">
      <stop
         style="stop-color:#272727;stop-opacity:1;"
         offset="0"
         id="stop14555" />
      <stop
         style="stop-color:#5d5d5d;stop-opacity:1;"
         offset="1"
         id="stop14557" />
    </linearGradient>
  </defs>
  <path
     id="path530"
     style="fill:url(#linearGradient3500);fill-opacity:1.0;stroke-width:0.750005;stroke-linecap:round;stroke-linejoin:round"
     d="M 9,1 C 2.174114,1 1,2.2048695 1,9 v 4 c 0,6.79513 1.174114,8 8,8 h 4 c 6.825886,0 8,-1.20487 8,-8 V 9 C 21,2.2048695 19.825886,1 13,1 Z"
     sodipodi:nodetypes="sssssssss" />
  <rect
     style="fill:#efefef;fill-opacity:1"
     id="rect425"
     width="6"
     height="1"
     x="8"
     y="3"
     ry="0.5" />
  <path
     id="path1587"
     style="fill:url(#linearGradient2558);fill-opacity:1"
     d="M 5,7 C 4.4477152,7 3.9999999,7.4477153 4,8 3.9999999,8.5522847 4.4477152,9 5,9 5.5522848,9 6.0000001,8.5522847 6,8 6.0000001,7.4477153 5.5522848,7 5,7 Z M 8,7 C 7.4477152,7 6.9999999,7.4477153 7,8 6.9999999,8.5522847 7.4477152,9 8,9 8.5522848,9 9.0000001,8.5522847 9,8 9.0000001,7.4477153 8.5522848,7 8,7 Z m 3,0 c -0.552285,0 -1.0000001,0.4477153 -1,1 -10e-8,0.5522847 0.447715,1 1,1 0.552285,0 1,-0.4477153 1,-1 0,-0.5522847 -0.447715,-1 -1,-1 z m 3,0 c -0.552285,0 -1,0.4477153 -1,1 0,0.5522847 0.447715,1 1,1 0.552285,0 1,-0.4477153 1,-1 0,-0.5522847 -0.447715,-1 -1,-1 z m 3,0 c -0.552285,0 -1,0.4477153 -1,1 0,0.5522847 0.447715,1 1,1 0.552285,0 1,-0.4477153 1,-1 C 18,7.4477153 17.552285,7 17,7 Z M 5,10 c -0.5522848,0 -1.0000001,0.447715 -1,1 -10e-8,0.552285 0.4477152,1 1,1 0.5522848,0 1.0000001,-0.447715 1,-1 1e-7,-0.552285 -0.4477152,-1 -1,-1 z m 3,0 c -0.5522848,0 -1.0000001,0.447715 -1,1 -1e-7,0.552285 0.4477152,1 1,1 0.5522848,0 1.0000001,-0.447715 1,-1 10e-8,-0.552285 -0.4477152,-1 -1,-1 z m 3,0 c -0.552285,0 -1.0000001,0.447715 -1,1 -10e-8,0.552285 0.447715,1 1,1 0.552285,0 1,-0.447715 1,-1 0,-0.552285 -0.447715,-1 -1,-1 z m 3,0 c -0.552285,0 -1,0.447715 -1,1 0,0.552285 0.447715,1 1,1 0.552285,0 1,-0.447715 1,-1 0,-0.552285 -0.447715,-1 -1,-1 z m 3,0 c -0.552285,0 -1,0.447715 -1,1 0,0.552285 0.447715,1 1,1 0.552285,0 1,-0.447715 1,-1 0,-0.552285 -0.447715,-1 -1,-1 z M 5,13 c -0.5522848,0 -1.0000001,0.447715 -1,1 -10e-8,0.552285 0.4477152,1 1,1 0.5522848,0 1.0000001,-0.447715 1,-1 1e-7,-0.552285 -0.4477152,-1 -1,-1 z m 3,0 c -0.5522848,0 -1.0000001,0.447715 -1,1 -1e-7,0.552285 0.4477152,1 1,1 0.5522848,0 1.0000001,-0.447715 1,-1 10e-8,-0.552285 -0.4477152,-1 -1,-1 z m 3,0 c -0.552285,0 -1.0000001,0.447715 -1,1 -10e-8,0.552285 0.447715,1 1,1 0.552285,0 1,-0.447715 1,-1 0,-0.552285 -0.447715,-1 -1,-1 z m 3,0 c -0.552285,0 -1,0.447715 -1,1 0,0.552285 0.447715,1 1,1 0.552285,0 1,-0.447715 1,-1 0,-0.552285 -0.447715,-1 -1,-1 z m 3,0 c -0.552285,0 -1,0.447715 -1,1 0,0.552285 0.447715,1 1,1 0.552285,0 1,-0.447715 1,-1 0,-0.552285 -0.447715,-1 -1,-1 z M 5,16 c -0.5522848,0 -1.0000001,0.447715 -1,1 -10e-8,0.552285 0.4477152,1 1,1 0.5522848,0 1.0000001,-0.447715 1,-1 1e-7,-0.552285 -0.4477152,-1 -1,-1 z m 3,0 c -0.5522848,0 -1.0000001,0.447715 -1,1 -1e-7,0.552285 0.4477152,1 1,1 0.5522848,0 1.0000001,-0.447715 1,-1 10e-8,-0.552285 -0.4477152,-1 -1,-1 z m 3,0 c -0.552285,0 -1.0000001,0.447715 -1,1 -10e-8,0.552285 0.447715,1 1,1 0.552285,0 1,-0.447715 1,-1 0,-0.552285 -0.447715,-1 -1,-1 z"
     sodipodi:nodetypes="ssssssssssssssssssssssssssssssssssssssssssssssssssssssssssssssssssssssssssssssssssssssssss" />
</svg>
