<?xml version="1.0" encoding="UTF-8" standalone="no"?>
<!-- Created with Inkscape (http://www.inkscape.org/) -->

<svg
   width="128"
   height="128"
   viewBox="0 0 128 128"
   version="1.1"
   id="svg5"
   inkscape:version="1.2.1 (9c6d41e410, 2022-07-14)"
   sodipodi:docname="calls-app.svg"
   xmlns:inkscape="http://www.inkscape.org/namespaces/inkscape"
   xmlns:sodipodi="http://sodipodi.sourceforge.net/DTD/sodipodi-0.dtd"
   xmlns:xlink="http://www.w3.org/1999/xlink"
   xmlns="http://www.w3.org/2000/svg"
   xmlns:svg="http://www.w3.org/2000/svg">
  <sodipodi:namedview
     id="namedview7"
     pagecolor="#ffffff"
     bordercolor="#000000"
     borderopacity="0.25"
     inkscape:showpageshadow="2"
     inkscape:pageopacity="0.0"
     inkscape:pagecheckerboard="0"
     inkscape:deskcolor="#d1d1d1"
     inkscape:document-units="px"
     showgrid="false"
     inkscape:zoom="6.25"
     inkscape:cx="63.92"
     inkscape:cy="64"
     inkscape:window-width="1920"
     inkscape:window-height="1011"
     inkscape:window-x="0"
     inkscape:window-y="32"
     inkscape:window-maximized="1"
     inkscape:current-layer="svg5" />
  <defs
     id="defs2">
    <linearGradient
       inkscape:collect="always"
       id="linearGradient1717">
      <stop
         style="stop-color:#4ca90b;stop-opacity:1;"
         offset="0"
         id="stop1713" />
      <stop
         style="stop-color:#9ad77b;stop-opacity:1;"
         offset="1"
         id="stop1715" />
    </linearGradient>
    <linearGradient
       inkscape:collect="always"
       xlink:href="#linearGradient1717"
       id="linearGradient4780"
       x1="2"
       y1="2"
       x2="30"
       y2="30"
       gradientUnits="userSpaceOnUse"
       gradientTransform="scale(4)" />
  </defs>
  <path
     d="M 51.999998,9 C 15.595238,9 8,16.759268 8,53.000004 V 77 c 0,36.24073 7.595238,44 43.999998,44 H 76.000002 C 112.40476,121 120,113.24073 120,77 V 53.000004 C 120,16.759268 112.40476,9 76.000002,9"
     style="opacity:0.2;fill:#000000;stroke-width:4;stroke-linecap:round;stroke-linejoin:round"
     id="path563" />
  <path
     id="path530"
     style="fill:url(#linearGradient4780);fill-opacity:1;stroke-width:4;stroke-linecap:round;stroke-linejoin:round"
     d="M 51.999998,8 C 15.595274,8 8,15.759304 8,51.999998 V 76.000002 C 8,112.2407 15.595274,120 51.999998,120 H 76.000002 C 112.40472,120 120,112.2407 120,76.000002 V 51.999998 C 120,15.759304 112.40472,8 76.000002,8 Z" />
  <path
     id="rect338"
     style="fill:#ffffff;stroke-width:2"
     d="m 31.606464,36.168136 c -6.267782,6.267784 -3.744816,18.882598 5.656856,28.28427 l 28.28427,28.284272 c 9.401674,9.401672 22.01649,11.924632 28.28427,5.656854 l 4.242642,-4.24264 c 2.350418,-2.350418 2.350418,-6.134862 0,-8.485282 l -8.48528,-8.485282 c -2.35042,-2.350418 -6.134862,-2.350418 -8.485282,0 l -2.828426,2.828426 c -2.35042,2.350422 -6.134866,2.35042 -8.485284,0 L 49.99124,60.209766 c -2.350416,-2.350416 -2.350416,-6.134864 2e-6,-8.485282 l 2.828426,-2.828426 c 2.350422,-2.350418 2.350422,-6.134862 0,-8.485282 l -8.48528,-8.48528 c -2.35042,-2.350422 -6.134862,-2.35042 -8.48528,0 z"
     sodipodi:nodetypes="sssssssssssssssss" />
</svg>
