<?xml version="1.0" encoding="UTF-8" standalone="no"?>
<!-- Created with Inkscape (http://www.inkscape.org/) -->

<svg
   width="128"
   height="128"
   viewBox="0 0 128 128"
   version="1.1"
   id="svg5"
   inkscape:version="1.2.1 (9c6d41e410, 2022-07-14)"
   sodipodi:docname="cawbird.svg"
   xmlns:inkscape="http://www.inkscape.org/namespaces/inkscape"
   xmlns:sodipodi="http://sodipodi.sourceforge.net/DTD/sodipodi-0.dtd"
   xmlns:xlink="http://www.w3.org/1999/xlink"
   xmlns="http://www.w3.org/2000/svg"
   xmlns:svg="http://www.w3.org/2000/svg">
  <sodipodi:namedview
     id="namedview7"
     pagecolor="#ffffff"
     bordercolor="#000000"
     borderopacity="0.25"
     inkscape:showpageshadow="2"
     inkscape:pageopacity="0.0"
     inkscape:pagecheckerboard="0"
     inkscape:deskcolor="#d1d1d1"
     inkscape:document-units="px"
     showgrid="false"
     inkscape:zoom="6.25"
     inkscape:cx="63.92"
     inkscape:cy="64"
     inkscape:window-width="1920"
     inkscape:window-height="1011"
     inkscape:window-x="0"
     inkscape:window-y="32"
     inkscape:window-maximized="1"
     inkscape:current-layer="svg5" />
  <defs
     id="defs2">
    <linearGradient
       inkscape:collect="always"
       xlink:href="#linearGradient1455"
       id="linearGradient4780"
       x1="2"
       y1="2"
       x2="30"
       y2="30"
       gradientUnits="userSpaceOnUse"
       gradientTransform="scale(4)" />
    <linearGradient
       inkscape:collect="always"
       id="linearGradient1455">
      <stop
         style="stop-color:#28303e;stop-opacity:1;"
         offset="0"
         id="stop1451" />
      <stop
         style="stop-color:#5f6375;stop-opacity:1;"
         offset="1"
         id="stop1453" />
    </linearGradient>
    <linearGradient
       inkscape:collect="always"
       xlink:href="#linearGradient1218"
       id="linearGradient1220"
       x1="7"
       y1="7"
       x2="5"
       y2="5"
       gradientUnits="userSpaceOnUse"
       gradientTransform="scale(8)" />
    <linearGradient
       inkscape:collect="always"
       id="linearGradient1218">
      <stop
         style="stop-color:#2e79c2;stop-opacity:1;"
         offset="0"
         id="stop1214" />
      <stop
         style="stop-color:#679ddb;stop-opacity:1;"
         offset="1"
         id="stop1216" />
    </linearGradient>
    <linearGradient
       inkscape:collect="always"
       xlink:href="#linearGradient1218"
       id="linearGradient1404"
       x1="11"
       y1="7"
       x2="9"
       y2="5"
       gradientUnits="userSpaceOnUse"
       gradientTransform="scale(8)" />
    <linearGradient
       inkscape:collect="always"
       xlink:href="#linearGradient1461"
       id="linearGradient1463"
       x1="7.9999995"
       y1="13"
       x2="8"
       y2="6"
       gradientUnits="userSpaceOnUse"
       gradientTransform="matrix(8,0,0,8,0,4)" />
    <linearGradient
       inkscape:collect="always"
       id="linearGradient1461">
      <stop
         style="stop-color:#778394;stop-opacity:1;"
         offset="0"
         id="stop1457" />
      <stop
         style="stop-color:#6a7590;stop-opacity:1;"
         offset="1"
         id="stop1459" />
    </linearGradient>
  </defs>
  <path
     d="M 52,9 C 15.595238,9 8,16.759268 8,53 v 24 c 0,36.24073 7.595238,44 44,44 h 24 c 36.40476,0 44,-7.75927 44,-44 V 53 C 120,16.759268 112.40476,9 76,9"
     style="opacity:0.2;fill:#000000;stroke-width:4;stroke-linecap:round;stroke-linejoin:round"
     id="path563" />
  <path
     id="path530"
     style="fill:url(#linearGradient4780);fill-opacity:1;stroke-width:4;stroke-linecap:round;stroke-linejoin:round"
     d="M 52,8 C 15.595274,8 8,15.759304 8,52 v 24 c 0,36.2407 7.595274,44 44,44 h 24 c 36.40473,0 44,-7.7593 44,-44 V 52 C 120,15.759304 112.40473,8 76,8 Z" />
  <path
     id="path344"
     style="fill:#ffffff;stroke-width:16"
     d="m 48,24 a 24,24 0 0 0 -24,24 24,24 0 0 0 24,23.999996 24,24 0 0 0 15.999996,-6.140624 24,24 0 0 0 16,6.140624 A 24,24 0 0 0 104,48 24,24 0 0 0 79.999996,24 24,24 0 0 0 64.01562,30.125 24,24 0 0 0 48,24 Z" />
  <circle
     style="fill:url(#linearGradient1220);fill-opacity:1;stroke-width:16"
     id="path1210"
     cx="48"
     cy="48"
     r="8" />
  <circle
     style="fill:url(#linearGradient1404);fill-opacity:1;stroke-width:16"
     id="path1212"
     cx="80"
     cy="48"
     r="8" />
  <path
     id="path448"
     style="fill:url(#linearGradient1463);fill-opacity:1;stroke-width:16"
     d="m 71.999996,63.999996 c 0,17.673112 -8,44.000004 -8,44.000004 C 63.999996,108 56,81.673108 56,63.999996 56,55.999996 59.58172,52 63.999996,52 c 4.41828,0 8,3.999996 8,11.999996 z"
     sodipodi:nodetypes="scsss" />
</svg>
