<?xml version="1.0" encoding="UTF-8" standalone="no"?>
<!-- Created with Inkscape (http://www.inkscape.org/) -->

<svg
   width="128"
   height="128"
   viewBox="0 0 128 128"
   version="1.1"
   id="svg5"
   inkscape:version="1.2.1 (9c6d41e410, 2022-07-14)"
   sodipodi:docname="com.gitlab.newsflash.svg"
   xmlns:inkscape="http://www.inkscape.org/namespaces/inkscape"
   xmlns:sodipodi="http://sodipodi.sourceforge.net/DTD/sodipodi-0.dtd"
   xmlns:xlink="http://www.w3.org/1999/xlink"
   xmlns="http://www.w3.org/2000/svg"
   xmlns:svg="http://www.w3.org/2000/svg">
  <sodipodi:namedview
     id="namedview7"
     pagecolor="#ffffff"
     bordercolor="#000000"
     borderopacity="0.25"
     inkscape:showpageshadow="2"
     inkscape:pageopacity="0.0"
     inkscape:pagecheckerboard="0"
     inkscape:deskcolor="#d1d1d1"
     inkscape:document-units="px"
     showgrid="false"
     inkscape:zoom="6.46875"
     inkscape:cx="64"
     inkscape:cy="64"
     inkscape:window-width="1920"
     inkscape:window-height="1008"
     inkscape:window-x="0"
     inkscape:window-y="0"
     inkscape:window-maximized="1"
     inkscape:current-layer="svg5"
     showguides="true">
    <sodipodi:guide
       position="-15.304348,135.49759"
       orientation="0,-1"
       id="guide3379"
       inkscape:locked="false" />
  </sodipodi:namedview>
  <defs
     id="defs2">
    <linearGradient
       inkscape:collect="always"
       id="linearGradient1173">
      <stop
         style="stop-color:#ff944e;stop-opacity:1;"
         offset="0"
         id="stop1169" />
      <stop
         style="stop-color:#f26600;stop-opacity:1;"
         offset="1"
         id="stop1171" />
    </linearGradient>
    <linearGradient
       inkscape:collect="always"
       xlink:href="#linearGradient1173"
       id="linearGradient4780"
       x1="30"
       y1="30"
       x2="2"
       y2="2"
       gradientUnits="userSpaceOnUse"
       gradientTransform="scale(4)" />
  </defs>
  <path
     d="M 52,9 C 15.595238,9 8,16.759268 8,53 v 24 c 0,36.24073 7.595238,44 44,44 h 24 c 36.40476,0 44,-7.75927 44,-44 V 53 C 120,16.759268 112.40476,9 76,9"
     style="opacity:0.2;fill:#000000;stroke-width:4;stroke-linecap:round;stroke-linejoin:round"
     id="path563" />
  <path
     id="path530"
     style="fill:url(#linearGradient4780);fill-opacity:1;stroke-width:4;stroke-linecap:round;stroke-linejoin:round"
     d="M 52,8 C 15.595274,8 8,15.759304 8,52 v 24 c 0,36.2407 7.595274,44 44,44 h 24 c 36.40473,0 44,-7.7593 44,-44 V 52 C 120,15.759304 112.40473,8 76,8 Z" />
  <path
     d="M 58.039754,30.64498 46.041082,64.737508 c -0.09132,0.33296 -0.0192,0.682588 0.10652,0.878208 0.15976,0.19568 0.30432,0.4287 0.730408,0.470324 l 12.41442,-0.0416 c 0.28528,0 0.536392,0.13732 0.642912,0.428692 0.06848,0.25392 0.08744,0.507784 0,0.86156 l -7.29264,29.450796 c -0.05328,0.23312 -0.12556,0.757508 0.37276,1.111284 0.32336,0.21224 0.966268,0.09572 1.358096,-0.33296 L 81.843662,59.7765 c 0.17884,-0.31216 0.19784,-0.857396 0.08744,-1.111288 -0.10648,-0.25392 -0.3386,-0.607668 -0.871156,-0.665936 l -12.820132,0.10028 c -0.3728,-0.07908 -0.498352,-0.27468 -0.604872,-0.4287 -0.14076,-0.23724 -0.1788,-0.566048 -0.0344,-0.919828 L 78.100126,31.09038 c 0.14076,-0.3288 0.14076,-0.561884 0.05328,-0.74086 -0.07228,-0.15402 -0.30428,-0.34962 -0.711368,-0.34962 H 59.12755 c -0.19784,0 -0.874968,0.07908 -1.088004,0.645128 z"
     style="fill:#ffffff;stroke-width:4"
     id="path354"
     sodipodi:nodetypes="ccccccccccccccccccsscc" />
</svg>
