<?xml version="1.0" encoding="UTF-8" standalone="no"?>
<!-- Created with Inkscape (http://www.inkscape.org/) -->

<svg
   width="128"
   height="128"
   viewBox="0 0 128 128"
   version="1.1"
   id="svg5"
   inkscape:version="1.3.2 (091e20ef0f, 2023-11-25, custom)"
   sodipodi:docname="desktop-environment-xfce.svg"
   xmlns:inkscape="http://www.inkscape.org/namespaces/inkscape"
   xmlns:sodipodi="http://sodipodi.sourceforge.net/DTD/sodipodi-0.dtd"
   xmlns:xlink="http://www.w3.org/1999/xlink"
   xmlns="http://www.w3.org/2000/svg"
   xmlns:svg="http://www.w3.org/2000/svg">
  <sodipodi:namedview
     id="namedview7"
     pagecolor="#ffffff"
     bordercolor="#000000"
     borderopacity="0.25"
     inkscape:showpageshadow="2"
     inkscape:pageopacity="0.0"
     inkscape:pagecheckerboard="0"
     inkscape:deskcolor="#d1d1d1"
     inkscape:document-units="px"
     showgrid="false"
     inkscape:zoom="6.296875"
     inkscape:cx="63.920596"
     inkscape:cy="64"
     inkscape:window-width="1920"
     inkscape:window-height="1019"
     inkscape:window-x="0"
     inkscape:window-y="0"
     inkscape:window-maximized="1"
     inkscape:current-layer="svg5" />
  <defs
     id="defs2">
    <linearGradient
       inkscape:collect="always"
       id="linearGradient2">
      <stop
         style="stop-color:#26448e;stop-opacity:1;"
         offset="0"
         id="stop1" />
      <stop
         style="stop-color:#6074be;stop-opacity:1;"
         offset="1"
         id="stop2" />
    </linearGradient>
    <linearGradient
       inkscape:collect="always"
       xlink:href="#linearGradient2"
       id="linearGradient4780"
       x1="2"
       y1="2"
       x2="30"
       y2="30"
       gradientUnits="userSpaceOnUse"
       gradientTransform="scale(4)" />
  </defs>
  <path
     d="M 52,9 C 15.595238,9 8,16.759268 8,53.000004 V 77 c 0,36.24073 7.595238,44 44,44 h 24 c 36.40476,0 44,-7.75927 44,-44 V 53.000004 C 120,16.759268 112.40476,9 76,9"
     style="opacity:0.2;fill:#000000;stroke-width:4;stroke-linecap:round;stroke-linejoin:round"
     id="path563" />
  <path
     id="path530"
     style="fill:url(#linearGradient4780);stroke-width:4;stroke-linecap:round;stroke-linejoin:round"
     d="M 52,8 C 15.595274,8 8,15.759304 8,52 v 24 c 0,36.2407 7.595274,44 44,44 h 24 c 36.40472,0 44,-7.7593 44,-44 V 52 C 120,15.759304 112.40472,8 76,8 Z" />
  <path
     style="fill:#f9f9f9;stroke-width:4"
     d="m 15.004207,39.799036 c -0.204161,0.400048 -0.408323,0.797336 -0.604207,1.19738 3.103804,1.72434 12.048276,6.218648 16.29428,8.88102 5.366132,3.285896 12.619376,9.990108 13.190472,11.118516 -5.581328,9.719732 -3.04862,18.322096 -3.708008,19.238064 -0.474536,0.764228 -4.861246,5.581328 -3.44867,6.293132 1.401538,0.700772 3.630762,-0.400044 3.96735,-0.61524 0.700772,-0.430392 1.423612,-1.056676 1.120132,0.18208 -0.593172,2.532704 -3.285896,8.62168 0.430392,7.327736 0.452464,-0.25936 6.43384,-6.853196 7.156684,-7.079428 11.899292,3.1038 25.2084,1.680192 27.672128,0.526956 1.282908,0.08552 4.913668,2.369928 6.982872,3.459708 2.069204,1.07874 7.705712,3.7825 6.036552,-1.131164 -0.51868,-1.553284 -4.223932,-5.517872 -3.622484,-5.777216 1.324292,-0.526956 4.601908,1.368432 5.86274,1.724336 3.771468,1.056672 4.279112,-0.408324 1.898148,-3.63076 -2.350612,-3.22244 -2.703756,-2.725828 -3.448668,-4.212896 -0.58214,-1.19738 0,-2.521668 0.430392,-2.844464 0.764228,-0.582136 12.026208,-6.833888 14.666508,-9.225888 3.91217,-3.556264 0,-7.995396 -0.96011,-8.621672 -8.114034,-5.840668 -16.446022,-4.590872 -16.553618,-5.517876 -0.0552,-1.056668 -0.0328,-4.105296 -0.17384,-5.161972 -0.808372,-7.156684 -4.116336,-5.355096 -4.5688,-5.355096 -3.307968,0.51868 -2.091276,5.581332 -0.689736,10.346016 0.1076,1.216692 -1.153236,0.6787 -1.898148,-0.604208 -2.54374,-6.822852 -3.611448,-6.704216 -4.31222,-6.90838 -0.678696,-0.15176 -3.070692,1.30498 -3.029308,4.063916 0.0112,0.786296 0.949072,4.538452 0.949072,5.691688 -1.56156,1.368432 -1.638808,4.472236 -3.277616,5.6034 -4.77296,0.990456 -16.24186,-2.358892 -17.673748,-2.510636 -4.957812,-0.927 -7.123576,2.792048 -7.920908,1.898152 C 39.338028,50.782368 29.507936,45.30864 25.250898,44.359564 23.601054,44.00366 18.03076,41.545444 16.025014,40.30668 15.702218,40.113556 15.33528,39.972848 14.979376,39.788 m 88.479094,6.466952 c -1.55328,1.66916 -1.2829,7.909872 -0.96011,7.857452 1.58364,-0.3228 1.43465,-8.359576 0.96011,-7.857452 m 4.49431,0.949076 c -0.18208,-0.507644 -4.26807,5.228184 -3.54523,7.338772 0.3228,0.915964 4.09426,-5.733072 3.54523,-7.338772 m -21.21898,9.75284 c 0.0552,-0.0552 0.11864,0.0224 0.18208,0.08552 0.474536,1.572596 1.001488,3.070696 4.127368,3.448668 0.36696,0.04416 -1.735376,1.271872 -3.178296,0.518684 -1.316016,-0.797336 -1.434648,-3.696976 -1.131164,-4.05288 m 8.105756,7.920908 c 0.28968,-0.04416 0.496608,-0.0328 0.700772,0 0.764224,0.19312 -5.545464,3.481776 -6.036556,3.029312 -0.30072,-0.28968 3.363144,-2.662372 5.346816,-3.029312 m 1.638812,2.080236 c 0.656628,0.0552 -3.652832,4.51638 -4.138408,4.052876 -0.35592,-0.3228 2.792048,-4.160472 4.138408,-4.052876"
     id="path3" />
</svg>
