<?xml version="1.0" encoding="UTF-8" standalone="no"?>
<!-- Created with Inkscape (http://www.inkscape.org/) -->

<svg
   width="128"
   height="128"
   viewBox="0 0 128 128"
   version="1.1"
   id="svg5"
   inkscape:version="1.2.1 (9c6d41e410, 2022-07-14)"
   sodipodi:docname="discord.svg"
   xmlns:inkscape="http://www.inkscape.org/namespaces/inkscape"
   xmlns:sodipodi="http://sodipodi.sourceforge.net/DTD/sodipodi-0.dtd"
   xmlns="http://www.w3.org/2000/svg"
   xmlns:svg="http://www.w3.org/2000/svg">
  <sodipodi:namedview
     id="namedview7"
     pagecolor="#ffffff"
     bordercolor="#000000"
     borderopacity="0.25"
     inkscape:showpageshadow="2"
     inkscape:pageopacity="0.0"
     inkscape:pagecheckerboard="0"
     inkscape:deskcolor="#d1d1d1"
     inkscape:document-units="px"
     showgrid="false"
     inkscape:zoom="6.25"
     inkscape:cx="63.92"
     inkscape:cy="64"
     inkscape:window-width="1920"
     inkscape:window-height="1006"
     inkscape:window-x="0"
     inkscape:window-y="0"
     inkscape:window-maximized="1"
     inkscape:current-layer="svg5" />
  <defs
     id="defs2" />
  <path
     d="M 52,9 C 15.595238,9 8,16.759268 8,53 v 24 c 0,36.24073 7.595238,44 44,44 h 24 c 36.40476,0 44,-7.75927 44,-44 V 53 C 120,16.759268 112.40476,9 76,9"
     style="opacity:0.2;fill:#000000;stroke-width:4;stroke-linecap:round;stroke-linejoin:round"
     id="path563" />
  <path
     id="path530"
     style="fill:#5865f2;fill-opacity:1;stroke-width:4;stroke-linecap:round;stroke-linejoin:round"
     d="M 52,8 C 15.595274,8 8,15.759304 8,52 v 24 c 0,36.2407 7.595274,44 44,44 h 24 c 36.40473,0 44,-7.7593 44,-44 V 52 C 120,15.759304 112.40473,8 76,8 Z" />
  <path
     d="m 53.06591,36.000704 0.68553,0.82344 c -12.33924,3.496072 -17.959912,8.911628 -17.959912,8.911628 0,0 1.507056,-0.823124 4.043488,-1.919956 7.334948,-3.221948 13.162604,-4.043748 15.561894,-4.317928 0.41131,-0.06872 0.753525,-0.138 1.164835,-0.138 4.181615,-0.54842 8.91245,-0.684984 13.848145,-0.13636 6.51238,0.754076 13.504345,2.673512 20.63367,6.512364 0,0 -5.41583,-5.141088 -17.069525,-8.63718 l 0.95996,-1.097884 c 0,0 9.39155,-0.2054 19.194335,7.12958 0,0 9.87167,17.755302 9.87167,39.623122 0,-0.06836 -5.75831,9.80282 -20.90809,10.28269 0,0 -2.468965,-2.947705 -4.525475,-5.48407 8.98018,-2.5364 12.408815,-8.08962 12.408815,-8.08962 -2.8106,1.850915 -5.48409,3.15364 -7.88334,4.044855 -3.42758,1.43953 -6.71806,2.33124 -9.93995,2.9482 -6.58091,1.23393 -12.61367,0.89011 -17.75505,-0.06964 -3.9074,-0.754055 -7.267222,-1.78153 -10.077818,-2.94691 -1.576708,-0.616965 -3.28964,-1.37129 -5.003456,-2.331 -0.20536,-0.13708 -0.41158,-0.2054 -0.6172,-0.34276 -0.13692,-0.06836 -0.20576,-0.13672 -0.2744,-0.13672 -1.233908,-0.68549 -1.918636,-1.1662 -1.918636,-1.1662 0,0 3.290452,5.4164 11.996452,8.02131 -2.05656,2.604945 -4.59376,5.620675 -4.59376,5.620675 C 29.758308,92.62443 24,82.753285 24,82.753285 24,60.885465 33.871636,43.13016 33.871636,43.13016 43.743016,35.795176 53.065965,36.000576 53.065965,36.000576 Z M 51.215565,61.29637 c -3.907421,0 -6.993057,3.358985 -6.993057,7.54064 0,4.1816 3.154164,7.54064 6.993057,7.54064 3.907435,0 6.99167,-3.35904 6.99167,-7.54064 0.06836,-4.181655 -3.084235,-7.54064 -6.99167,-7.54064 z m 25.021195,0 c -3.907415,0 -6.99307,3.358985 -6.99307,7.54064 0,4.1816 3.15418,7.54064 6.99307,7.54064 3.907385,0 6.991675,-3.35904 6.991675,-7.54064 0,-4.181655 -3.15284,-7.54064 -6.991675,-7.54064 z"
     style="display:inline;fill:#ffffff;stroke-width:1.81818;enable-background:new"
     id="path492"
     sodipodi:nodetypes="cccccccccccccccccccccccccccccssscssssss" />
</svg>
