<?xml version="1.0" encoding="UTF-8" standalone="no"?>
<!-- Created with Inkscape (http://www.inkscape.org/) -->

<svg
   width="128"
   height="128"
   viewBox="0 0 128 128"
   version="1.1"
   id="svg5"
   inkscape:version="1.2.1 (9c6d41e410, 2022-07-14)"
   sodipodi:docname="glade.svg"
   xmlns:inkscape="http://www.inkscape.org/namespaces/inkscape"
   xmlns:sodipodi="http://sodipodi.sourceforge.net/DTD/sodipodi-0.dtd"
   xmlns:xlink="http://www.w3.org/1999/xlink"
   xmlns="http://www.w3.org/2000/svg"
   xmlns:svg="http://www.w3.org/2000/svg">
  <sodipodi:namedview
     id="namedview7"
     pagecolor="#ffffff"
     bordercolor="#000000"
     borderopacity="0.25"
     inkscape:showpageshadow="2"
     inkscape:pageopacity="0.0"
     inkscape:pagecheckerboard="0"
     inkscape:deskcolor="#d1d1d1"
     inkscape:document-units="px"
     showgrid="false"
     inkscape:zoom="6.46875"
     inkscape:cx="63.922705"
     inkscape:cy="64"
     inkscape:window-width="1920"
     inkscape:window-height="1008"
     inkscape:window-x="0"
     inkscape:window-y="0"
     inkscape:window-maximized="1"
     inkscape:current-layer="svg5" />
  <defs
     id="defs2">
    <linearGradient
       inkscape:collect="always"
       xlink:href="#linearGradient1141"
       id="linearGradient4780"
       x1="2"
       y1="2"
       x2="30"
       y2="30"
       gradientUnits="userSpaceOnUse"
       gradientTransform="scale(4)" />
    <linearGradient
       inkscape:collect="always"
       id="linearGradient1141">
      <stop
         style="stop-color:#5bb920;stop-opacity:1;"
         offset="0"
         id="stop1137" />
      <stop
         style="stop-color:#97cc7d;stop-opacity:1;"
         offset="1"
         id="stop1139" />
    </linearGradient>
  </defs>
  <path
     d="M 51.999998,9 C 15.595238,9 8,16.759268 8,53.000004 V 77 c 0,36.24073 7.595238,44 43.999998,44 H 76.000002 C 112.40476,121 120,113.24073 120,77 V 53.000004 C 120,16.759268 112.40476,9 76.000002,9"
     style="opacity:0.2;fill:#000000;stroke-width:4;stroke-linecap:round;stroke-linejoin:round"
     id="path563" />
  <path
     id="path530"
     style="fill:url(#linearGradient4780);fill-opacity:1;stroke-width:4;stroke-linecap:round;stroke-linejoin:round"
     d="M 51.999998,8 C 15.595274,8 8,15.759304 8,51.999998 V 76.000002 C 8,112.2407 15.595274,120 51.999998,120 H 76.000002 C 112.40472,120 120,112.2407 120,76.000002 V 51.999998 C 120,15.759304 112.40472,8 76.000002,8 Z" />
  <rect
     style="opacity:0.6;fill:#ffffff;stroke-width:8.00002;stroke-linecap:round;stroke-linejoin:round;paint-order:stroke fill markers"
     id="rect527"
     width="63.999996"
     height="80"
     x="32.000004"
     y="24.001801"
     ry="6" />
  <path
     id="path5201"
     style="color:#000000;fill:#ffffff;fill-opacity:1;stroke-width:8.00002;stroke-linecap:round;stroke-linejoin:round"
     d="m 30.195936,48.007676 c 0.709666,0.03384 1.409972,0.248616 2.02344,0.65625 L 98.21337,90.672324 c 2.17461,1.47799 1.213544,5.2602 -2.218748,5.3284 H 30.000626 c -2.209042,-2.2e-4 -3.999782,-1.790956 -4.000002,-4.000002 V 51.999866 c 0.0022,-1.474978 0.815864,-2.82909 2.11719,-3.52343 0.64943,-0.347522 1.368458,-0.502554 2.078122,-0.46876 z M 36,62 v 24.00005 h 38 z"
     sodipodi:nodetypes="ccccccccccccc" />
</svg>
