<?xml version="1.0" encoding="UTF-8" standalone="no"?>
<!-- Created with Inkscape (http://www.inkscape.org/) -->

<svg
   width="128"
   height="128"
   viewBox="0 0 128 128"
   version="1.1"
   id="svg5"
   inkscape:version="1.2.1 (9c6d41e410, 2022-07-14)"
   sodipodi:docname="gmail.svg"
   xmlns:inkscape="http://www.inkscape.org/namespaces/inkscape"
   xmlns:sodipodi="http://sodipodi.sourceforge.net/DTD/sodipodi-0.dtd"
   xmlns="http://www.w3.org/2000/svg"
   xmlns:svg="http://www.w3.org/2000/svg">
  <sodipodi:namedview
     id="namedview7"
     pagecolor="#ffffff"
     bordercolor="#000000"
     borderopacity="0.25"
     inkscape:showpageshadow="2"
     inkscape:pageopacity="0.0"
     inkscape:pagecheckerboard="0"
     inkscape:deskcolor="#d1d1d1"
     inkscape:document-units="px"
     showgrid="false"
     inkscape:zoom="6.203125"
     inkscape:cx="64"
     inkscape:cy="64"
     inkscape:window-width="1920"
     inkscape:window-height="1006"
     inkscape:window-x="0"
     inkscape:window-y="0"
     inkscape:window-maximized="1"
     inkscape:current-layer="svg5" />
  <defs
     id="defs2" />
  <path
     d="M 52,9 C 15.595238,9 8,16.759268 8,53 v 24 c 0,36.24073 7.595238,44 44,44 h 24 c 36.40476,0 44,-7.75927 44,-44 V 53 C 120,16.759268 112.40476,9 76,9"
     style="opacity:0.2;fill:#000000;stroke-width:4;stroke-linecap:round;stroke-linejoin:round"
     id="path563" />
  <path
     d="M 52,8 C 15.595238,8 8,15.759268 8,52 v 24 c 0,36.24073 7.595238,44 44,44 h 24 c 36.40476,0 44,-7.75927 44,-44 V 52 C 120,15.759268 112.40476,8 76,8"
     style="fill:#fafafa;fill-opacity:1;stroke-width:4;stroke-linecap:round;stroke-linejoin:round"
     id="path530"
     sodipodi:nodetypes="cssssssc" />
  <path
     id="path523"
     style="fill:#4285f4;stroke-width:2"
     d="M 23.999997,45.468752 V 88.546876 C 23.999997,91.559768 26.414937,94 29.398433,94 H 39.999997 V 57.585936 Z" />
  <path
     id="path391"
     style="fill:#34a853;stroke-width:2"
     d="M 104,45.468752 87.999999,57.585936 V 94 h 10.60156 C 101.58505,94 104,91.559764 104,88.546876 Z" />
  <path
     d="M 36.960002,57.823588 V 35.65066 L 64.000001,55.818184 91.039998,35.65066 V 57.823588 L 64.000001,77.996896 Z"
     style="fill:#ea4335;stroke-width:2"
     id="path457"
     sodipodi:nodetypes="ccccccc" />
  <path
     id="path424"
     style="fill:#fbbc04;stroke-width:2"
     d="m 95.867188,34 c -1.64238,3.6e-5 -3.32584,0.510936 -4.82813,1.648436 l -3.03906,2.304688 V 60.125 L 104,48.007812 v -5.8125 C 104,37.35148 100.06436,33.999908 95.867188,34 Z" />
  <path
     id="path490"
     style="fill:#c5221f;stroke-width:2"
     d="m 32.132809,34 c -4.19718,-9.2e-5 -8.132812,3.35148 -8.132812,8.195312 V 48.0111 L 39.999998,60.128284 V 37.953124 L 36.960933,35.648436 C 35.458641,34.510932 33.775185,34.000036 32.132809,34 Z"
     sodipodi:nodetypes="ssccccs" />
</svg>
