<?xml version="1.0" encoding="UTF-8" standalone="no"?>
<!-- Created with Inkscape (http://www.inkscape.org/) -->

<svg
   width="128"
   height="128"
   viewBox="0 0 128 128"
   version="1.1"
   id="svg5"
   inkscape:version="1.2.1 (9c6d41e410, 2022-07-14)"
   sodipodi:docname="gnome-contacts.svg"
   xmlns:inkscape="http://www.inkscape.org/namespaces/inkscape"
   xmlns:sodipodi="http://sodipodi.sourceforge.net/DTD/sodipodi-0.dtd"
   xmlns:xlink="http://www.w3.org/1999/xlink"
   xmlns="http://www.w3.org/2000/svg"
   xmlns:svg="http://www.w3.org/2000/svg">
  <sodipodi:namedview
     id="namedview7"
     pagecolor="#ffffff"
     bordercolor="#000000"
     borderopacity="0.25"
     inkscape:showpageshadow="2"
     inkscape:pageopacity="0.0"
     inkscape:pagecheckerboard="0"
     inkscape:deskcolor="#d1d1d1"
     inkscape:document-units="px"
     showgrid="false"
     inkscape:zoom="6.390625"
     inkscape:cx="63.92176"
     inkscape:cy="64"
     inkscape:window-width="1920"
     inkscape:window-height="1004"
     inkscape:window-x="0"
     inkscape:window-y="0"
     inkscape:window-maximized="1"
     inkscape:current-layer="svg5"
     showguides="false" />
  <defs
     id="defs2">
    <linearGradient
       inkscape:collect="always"
       xlink:href="#linearGradient8443"
       id="linearGradient4780"
       x1="2"
       y1="2"
       x2="30"
       y2="30"
       gradientUnits="userSpaceOnUse"
       gradientTransform="scale(4)" />
    <linearGradient
       inkscape:collect="always"
       id="linearGradient8443">
      <stop
         style="stop-color:#3465c4;stop-opacity:1;"
         offset="0"
         id="stop8439" />
      <stop
         style="stop-color:#68b4f7;stop-opacity:1;"
         offset="1"
         id="stop8441" />
    </linearGradient>
  </defs>
  <path
     d="M 52,9 C 15.595238,9 8,16.759268 8,53 v 24 c 0,36.24073 7.595238,44 44,44 h 24 c 36.40476,0 44,-7.75927 44,-44 V 53 C 120,16.759268 112.40476,9 76,9"
     style="opacity:0.2;fill:#000000;stroke-width:4;stroke-linecap:round;stroke-linejoin:round"
     id="path563" />
  <path
     id="path530"
     style="fill:url(#linearGradient4780);fill-opacity:1;stroke-width:4;stroke-linecap:round;stroke-linejoin:round"
     d="M 52,8 C 15.595274,8 8,15.759304 8,52 v 24 c 0,36.2407 7.595274,44 44,44 h 24 c 36.40473,0 44,-7.7593 44,-44 V 52 C 120,15.759304 112.40473,8 76,8 Z" />
  <path
     id="rect294"
     style="fill:#8ace64;fill-opacity:1;stroke-width:7.15542;stroke-linecap:round;stroke-linejoin:round"
     d="M 104,11.523438 V 54 h 16 v -2 c 0,-23.89964 -3.30931,-35.406896 -16,-40.476562 z" />
  <path
     id="rect956"
     style="fill:#f44d4d;fill-opacity:1;stroke-width:3.4254;stroke-linecap:round;stroke-linejoin:round"
     d="m 104,46 v 36 h 15.91406 C 119.96983,80.863969 120,81.24887 120,76 V 52 c 0,-2.102172 -0.0307,-4.085446 -0.0859,-6 z"
     sodipodi:nodetypes="cccsscc" />
  <path
     id="rect1736"
     style="fill:#ffbc42;fill-opacity:1;stroke-width:6.19678;stroke-linecap:round;stroke-linejoin:round"
     inkscape:label="rect1736"
     d="m 104,82 v 34.47656 C 115.57444,111.85282 119.34116,101.85206 119.91406,82 Z" />
  <path
     id="rect4024"
     style="opacity:0.2;fill:#000000;fill-opacity:1;stroke-width:4.13118;stroke-linecap:round;stroke-linejoin:round"
     d="M 104 46 L 104 47 L 119.92773 47 C 119.9247 46.662113 119.92321 46.319089 119.91406 46 L 104 46 z M 104 82 L 104 83 L 119.86914 83 C 119.88562 82.669876 119.90411 82.345689 119.91406 82 L 104 82 z " />
  <path
     d="m 75.569988,79.09988 c -1.791712,0 -3.516236,-0.447926 -5.173572,-1.343778 -1.657334,-0.940654 -2.82195,-2.418822 -3.49384,-4.434498 h -0.06704 c -0.403204,1.075026 -1.007938,1.970882 -1.814198,2.687568 -0.80627,0.716688 -1.702126,1.298992 -2.68757,1.746922 -0.940646,0.447938 -1.90369,0.761486 -2.889134,0.940646 -0.985444,0.17914 -1.8813,0.268726 -2.687572,0.268726 -4.30011,0 -7.569986,-1.20941 -9.80963,-3.628224 -2.239684,-2.418794 -3.359524,-5.666272 -3.359524,-9.742416 v -5.240764 c 0,-4.12094 1.075028,-7.36842 3.22508,-9.74244 2.194848,-2.418814 5.173574,-3.628218 8.93617,-3.628218 2.508402,0 4.50168,0.38074 5.979844,1.142216 1.478164,0.761482 2.530794,1.679736 3.157894,2.75476 v -3.493844 h 6.315792 V 68.55115 c 0,1.881296 0.38074,3.26988 1.14222,4.165732 0.761478,0.851062 1.858904,1.276594 3.292274,1.276594 1.119822,0 2.105262,-0.201562 2.956328,-0.604696 0.851062,-0.447944 1.567748,-1.14223 2.150052,-2.082866 0.582304,-0.985444 1.03023,-2.239642 1.343778,-3.762596 0.313538,-1.567752 0.470326,-3.471446 0.470326,-5.711084 v -0.739048 c 0,-3.762596 -0.559914,-7.12206 -1.679734,-10.078386 -1.075016,-2.956348 -2.68755,-5.464752 -4.837606,-7.525224 -2.150058,-2.10526 -4.792838,-3.695406 -7.928336,-4.770434 -3.135498,-1.119822 -6.741318,-1.67973 -10.817468,-1.67973 -3.49384,0 -6.696528,0.559908 -9.608062,1.67973 -2.911534,1.11982 -5.419932,2.75476 -7.525196,4.904816 -2.060472,2.105262 -3.673012,4.703246 -4.837628,7.793952 -1.16461,3.090704 -1.746918,6.584546 -1.746918,10.481522 v 1.14222 c 0,4.165738 0.559912,7.86114 1.679734,11.08623 1.16461,3.18029 2.821946,5.84546 4.972004,7.995518 2.150052,2.19485 4.770432,3.852184 7.86114,4.972006 3.1355,1.164614 6.651736,1.746922 10.54871,1.746922 3.359462,0 6.696528,-0.380746 10.011202,-1.14222 3.314666,-0.716686 6.360578,-1.791712 9.137734,-3.225088 l 1.8813,4.703246 c -2.821946,1.522958 -6.00224,2.687572 -9.540874,3.493846 -3.493842,0.851062 -7.256438,1.276596 -11.287792,1.276596 -4.837624,0 -9.160134,-0.716684 -12.967528,-2.150054 -3.80739,-1.433378 -7.032472,-3.493848 -9.67525,-6.181418 -2.64278,-2.687568 -4.680852,-5.935046 -6.114222,-9.74244 C 28.69429,72.067406 28,67.812084 28,63.10884 v -1.2766 c 0,-4.30011 0.671894,-8.264276 2.015678,-11.89249 1.38858,-3.673014 3.337068,-6.830906 5.845466,-9.473686 2.55319,-2.642778 5.621498,-4.70325 9.204926,-6.181414 3.628218,-1.522954 7.704368,-2.284432 12.228442,-2.284432 4.972006,0 9.361704,0.716686 13.169092,2.150058 3.80739,1.388576 7.010078,3.35946 9.608064,5.912652 2.597984,2.553192 4.568868,5.599106 5.912654,9.137738 C 87.328108,52.739296 88,56.636274 88,60.891592 v 0.873452 c 0,1.970884 -0.201562,3.986564 -0.604698,6.047032 -0.35835,2.015682 -1.007846,3.87459 -1.948494,5.576718 -0.94065,1.657334 -2.217246,3.023516 -3.829788,4.098544 -1.567748,1.07503 -3.583424,1.612544 -6.047032,1.612542 z M 50.239642,64.519816 c 0,2.55319 0.559908,4.591262 1.67973,6.114216 1.11982,1.478164 2.889138,2.217248 5.307952,2.217248 0.940646,0 1.836502,-0.11198 2.687568,-0.335962 0.895852,-0.223988 1.679726,-0.604714 2.351626,-1.14222 0.71668,-0.537514 1.276594,-1.254202 1.67973,-2.15006 0.403136,-0.895848 0.604702,-2.01567 0.604702,-3.35946 v -5.912646 c 0,-0.89585 -0.13436,-1.746916 -0.403144,-2.553192 -0.223988,-0.851066 -0.627108,-1.590146 -1.209402,-2.217244 -0.58231,-0.671894 -1.343788,-1.187014 -2.284436,-1.545352 -0.940646,-0.403132 -2.082862,-0.6047 -3.426648,-0.6047 -2.194848,0 -3.919376,0.6047 -5.173574,1.814108 -1.209402,1.209406 -1.814104,3.404254 -1.814104,6.584544 z"
     style="font-weight:bold;font-size:4.74057px;line-height:1.25;font-family:'나눔스퀘어';-inkscape-font-specification:'나눔스퀘어 Bold';fill:#ffffff;stroke-width:1.67974"
     id="path6805"
     sodipodi:nodetypes="scccscsscsscsscccscscccsscccsscssscccsccccssscsscccscsssscccsscsccssscccscss" />
</svg>
