<?xml version="1.0" encoding="UTF-8" standalone="no"?>
<!-- Created with Inkscape (http://www.inkscape.org/) -->

<svg
   width="128"
   height="128"
   viewBox="0 0 128 128"
   version="1.1"
   id="svg5"
   inkscape:version="1.4.4 (dcaf3e7d9e, 2026-05-05)"
   sodipodi:docname="google-slides.svg"
   xmlns:inkscape="http://www.inkscape.org/namespaces/inkscape"
   xmlns:sodipodi="http://sodipodi.sourceforge.net/DTD/sodipodi-0.dtd"
   xmlns:xlink="http://www.w3.org/1999/xlink"
   xmlns="http://www.w3.org/2000/svg"
   xmlns:svg="http://www.w3.org/2000/svg">
  <sodipodi:namedview
     id="namedview7"
     pagecolor="#ffffff"
     bordercolor="#000000"
     borderopacity="0.25"
     inkscape:showpageshadow="2"
     inkscape:pageopacity="0.0"
     inkscape:pagecheckerboard="0"
     inkscape:deskcolor="#d1d1d1"
     inkscape:document-units="px"
     showgrid="false"
     inkscape:zoom="6.265625"
     inkscape:cx="64"
     inkscape:cy="64"
     inkscape:window-width="1920"
     inkscape:window-height="1010"
     inkscape:window-x="0"
     inkscape:window-y="0"
     inkscape:window-maximized="1"
     inkscape:current-layer="svg5" />
  <defs
     id="defs2">
    <linearGradient
       id="linearGradient7"
       inkscape:collect="always">
      <stop
         style="stop-color:#fff549;stop-opacity:1;"
         offset="0"
         id="stop7" />
      <stop
         style="stop-color:#ffbe00;stop-opacity:0;"
         offset="1"
         id="stop8" />
    </linearGradient>
    <linearGradient
       id="linearGradient4"
       inkscape:collect="always">
      <stop
         style="stop-color:#ffbe00;stop-opacity:1;"
         offset="0"
         id="stop5" />
      <stop
         style="stop-color:#fec700;stop-opacity:1;"
         offset="1"
         id="stop6" />
    </linearGradient>
    <linearGradient
       id="linearGradient2"
       inkscape:collect="always">
      <stop
         style="stop-color:#ffdb0f;stop-opacity:1;"
         offset="0.20075995"
         id="stop2" />
      <stop
         style="stop-color:#ffbe00;stop-opacity:1;"
         offset="0.66614175"
         id="stop4" />
      <stop
         style="stop-color:#ffa8e3;stop-opacity:1;"
         offset="0.90882242"
         id="stop3" />
    </linearGradient>
    <linearGradient
       inkscape:collect="always"
       xlink:href="#linearGradient2"
       id="linearGradient3"
       x1="11.844881"
       y1="10.397112"
       x2="18.162739"
       y2="27.397112"
       gradientUnits="userSpaceOnUse"
       gradientTransform="matrix(4.0000001,1.5918533e-8,-1.5918533e-8,4.0000001,3.1968505,-1.9054844)" />
    <linearGradient
       inkscape:collect="always"
       xlink:href="#linearGradient4"
       id="linearGradient6"
       x1="16"
       y1="9"
       x2="16"
       y2="24"
       gradientUnits="userSpaceOnUse"
       gradientTransform="scale(3.9999999)" />
    <linearGradient
       inkscape:collect="always"
       xlink:href="#linearGradient7"
       id="linearGradient8"
       x1="22.231325"
       y1="25.664824"
       x2="14.356627"
       y2="9"
       gradientUnits="userSpaceOnUse"
       gradientTransform="scale(3.9999999)" />
  </defs>
  <path
     d="M 52,9 C 15.595239,9 8,16.759268 8,53 v 24 c 0,36.24074 7.595239,44 44,44 h 24 c 36.40476,0 44,-7.75926 44,-44 V 53 C 120,16.759268 112.40476,9 76,9"
     style="opacity:0.2;fill:#000000;stroke-width:4;stroke-linecap:round;stroke-linejoin:round"
     id="path563" />
  <path
     id="path533"
     style="fill:#fafafa;fill-opacity:1;stroke-width:4;stroke-linecap:round;stroke-linejoin:round"
     d="M 52,8 C 15.595276,8 8,15.759304 8,52 v 24 c 0,36.2407 7.595276,44 44,44 h 24 c 36.40473,0 44,-7.7593 44,-44 V 52 C 120,15.759304 112.40473,8 76,8 Z" />
  <rect
     style="fill:url(#linearGradient3);stroke-width:4"
     id="rect2"
     width="68"
     height="68"
     x="20.233923"
     y="39.682968"
     ry="12"
     transform="rotate(-7.5)" />
  <rect
     style="fill:url(#linearGradient6);stroke-width:4"
     id="rect1"
     width="80"
     height="60"
     x="24"
     y="36"
     ry="12" />
  <rect
     style="fill:url(#linearGradient8);stroke-width:4"
     id="rect6"
     width="80"
     height="60"
     x="24"
     y="36"
     ry="12" />
  <path
     id="rect1220"
     style="fill:#ffffff;stroke-width:2.44948;stroke-linecap:square;stroke-linejoin:bevel"
     d="m 38,48 a 2,2 0 0 0 -2,2 v 32 a 2,2 0 0 0 2,2 h 52 a 2,2 0 0 0 2,-2 V 50 a 2,2 0 0 0 -2,-2 z m 2,4 H 88 V 80 H 40 Z" />
</svg>
