<?xml version="1.0" encoding="UTF-8" standalone="no"?>
<!-- Created with Inkscape (http://www.inkscape.org/) -->

<svg
   width="128"
   height="128"
   viewBox="0 0 128 128"
   version="1.1"
   id="svg5"
   inkscape:version="1.4.4 (dcaf3e7d9e, 2026-05-05)"
   sodipodi:docname="google-drive.svg"
   xmlns:inkscape="http://www.inkscape.org/namespaces/inkscape"
   xmlns:sodipodi="http://sodipodi.sourceforge.net/DTD/sodipodi-0.dtd"
   xmlns:xlink="http://www.w3.org/1999/xlink"
   xmlns="http://www.w3.org/2000/svg"
   xmlns:svg="http://www.w3.org/2000/svg">
  <sodipodi:namedview
     id="namedview7"
     pagecolor="#ffffff"
     bordercolor="#000000"
     borderopacity="0.25"
     inkscape:showpageshadow="2"
     inkscape:pageopacity="0.0"
     inkscape:pagecheckerboard="0"
     inkscape:deskcolor="#d1d1d1"
     inkscape:document-units="px"
     showgrid="false"
     inkscape:zoom="6.265625"
     inkscape:cx="64"
     inkscape:cy="64"
     inkscape:window-width="1920"
     inkscape:window-height="1010"
     inkscape:window-x="0"
     inkscape:window-y="0"
     inkscape:window-maximized="1"
     inkscape:current-layer="svg5" />
  <defs
     id="defs2">
    <linearGradient
       inkscape:collect="always"
       xlink:href="#linearGradient13"
       id="linearGradient14"
       x1="27.921406"
       y1="4.5649314"
       x2="4.3621516"
       y2="14.928198"
       gradientUnits="userSpaceOnUse"
       gradientTransform="matrix(1.9997917,0,0,1.9997311,23.979249,26)" />
    <linearGradient
       id="linearGradient13"
       inkscape:collect="always">
      <stop
         style="stop-color:#0ebc5f;stop-opacity:1;"
         offset="0.55433369"
         id="stop13" />
      <stop
         style="stop-color:#78c9ff;stop-opacity:1;"
         offset="0.85000002"
         id="stop14" />
    </linearGradient>
    <linearGradient
       inkscape:collect="always"
       xlink:href="#linearGradient15"
       id="linearGradient16"
       x1="29.841557"
       y1="40.302322"
       x2="6.8733001"
       y2="27"
       gradientUnits="userSpaceOnUse"
       gradientTransform="matrix(1.9997917,0,0,1.9997311,52.10047,17.2932)" />
    <linearGradient
       id="linearGradient15"
       inkscape:collect="always">
      <stop
         style="stop-color:#ffe921;stop-opacity:1;"
         offset="0.08805338"
         id="stop15" />
      <stop
         style="stop-color:#fec700;stop-opacity:1;"
         offset="1"
         id="stop16" />
    </linearGradient>
    <linearGradient
       inkscape:collect="always"
       xlink:href="#linearGradient17"
       id="linearGradient18"
       x1="-5.2821426"
       y1="53.52346"
       x2="-29.530891"
       y2="38.855247"
       gradientUnits="userSpaceOnUse"
       gradientTransform="matrix(1.9997917,0,0,1.9997311,84.60734,-3.694492)" />
    <linearGradient
       id="linearGradient17"
       inkscape:collect="always">
      <stop
         style="stop-color:#a9a8ff;stop-opacity:1;"
         offset="0.15268342"
         id="stop17" />
      <stop
         style="stop-color:#6d97ff;stop-opacity:1;"
         offset="0.32774994"
         id="stop19" />
      <stop
         style="stop-color:#3186ff;stop-opacity:1;"
         offset="0.48973903"
         id="stop18" />
    </linearGradient>
  </defs>
  <path
     d="M 52,9 C 15.595238,9 8,16.759268 8,53 v 24 c 0,36.24073 7.595238,44 44,44 h 24 c 36.40476,0 44,-7.75927 44,-44 V 53 C 120,16.759268 112.40476,9 76,9"
     style="opacity:0.2;fill:#000000;stroke-width:4;stroke-linecap:round;stroke-linejoin:round"
     id="path563" />
  <path
     d="M 52,8 C 15.595238,8 8,15.759268 8,52 v 24 c 0,36.24073 7.595238,44 44,44 h 24 c 36.40476,0 44,-7.75927 44,-44 V 52 C 120,15.759268 112.40476,8 76,8"
     style="fill:#fafafa;fill-opacity:1;stroke-width:4;stroke-linecap:round;stroke-linejoin:round"
     id="path530"
     sodipodi:nodetypes="cssssssc" />
  <path
     id="path1"
     style="fill:url(#linearGradient14);fill-opacity:1;stroke-width:1.99976"
     d="m 48.13393,35.128636 c 0,0 5.26062,-9.128636 15.844575,-9.128636 10.583955,0 15.83774,9.128636 15.83774,9.128636 l 6.279195,10.810096 -9.14924,15.817418 -44.243557,6e-5 z" />
  <path
     id="path2"
     style="fill:url(#linearGradient16);stroke-width:1.99976"
     d="M 86.09544,45.93532 63.980555,84.16846 73.13585,99.99055 h 12.87366 c 0,0 9.94081,0.45984 15.23279,-8.70586 5.29193,-9.165685 1.3397,-16.8532 1.3397,-16.8532 z" />
  <path
     id="path3"
     style="fill:url(#linearGradient18);stroke-width:1.99976"
     d="m 41.852723,99.99173 c 0,0 -9.344246,0.61653 -15.198682,-8.798145 -5.854436,-9.41467 -0.19698,-18.589745 -0.19698,-18.589745 L 32.702643,61.75621 H 51.00377 l 22.11731,38.23528 z" />
</svg>
