<?xml version="1.0" encoding="UTF-8" standalone="no"?>
<!-- Created with Inkscape (http://www.inkscape.org/) -->

<svg
   width="128"
   height="128"
   viewBox="0 0 128 128"
   version="1.1"
   id="svg5"
   inkscape:version="1.4.4 (dcaf3e7d9e, 2026-05-05)"
   sodipodi:docname="google-docs.svg"
   xmlns:inkscape="http://www.inkscape.org/namespaces/inkscape"
   xmlns:sodipodi="http://sodipodi.sourceforge.net/DTD/sodipodi-0.dtd"
   xmlns:xlink="http://www.w3.org/1999/xlink"
   xmlns="http://www.w3.org/2000/svg"
   xmlns:svg="http://www.w3.org/2000/svg">
  <sodipodi:namedview
     id="namedview7"
     pagecolor="#ffffff"
     bordercolor="#000000"
     borderopacity="0.25"
     inkscape:showpageshadow="2"
     inkscape:pageopacity="0.0"
     inkscape:pagecheckerboard="0"
     inkscape:deskcolor="#d1d1d1"
     inkscape:document-units="px"
     showgrid="false"
     inkscape:zoom="6.28125"
     inkscape:cx="64"
     inkscape:cy="64"
     inkscape:window-width="1920"
     inkscape:window-height="1012"
     inkscape:window-x="0"
     inkscape:window-y="0"
     inkscape:window-maximized="1"
     inkscape:current-layer="svg5" />
  <defs
     id="defs2">
    <filter
       id="b"
       x="31"
       y="8"
       width="130"
       height="196"
       filterUnits="userSpaceOnUse"
       color-interpolation-filters="sRGB">
      <feFlood
         flood-opacity="0"
         result="BackgroundImageFix"
         id="feFlood6" />
      <feBlend
         mode="normal"
         in="SourceGraphic"
         in2="BackgroundImageFix"
         result="shape"
         id="feBlend6" />
      <feGaussianBlur
         stdDeviation="6"
         result="effect1_foregroundBlur_37242_8762"
         id="feGaussianBlur6" />
    </filter>
    <linearGradient
       inkscape:collect="always"
       xlink:href="#linearGradient6"
       id="linearGradient8"
       x1="88.793152"
       y1="64.067459"
       x2="46.999973"
       y2="171.64619"
       gradientUnits="userSpaceOnUse" />
    <linearGradient
       id="linearGradient6"
       inkscape:collect="always">
      <stop
         style="stop-color:#3186ff;stop-opacity:1;"
         offset="0.32950369"
         id="stop7" />
      <stop
         style="stop-color:#a9a8ff;stop-opacity:1;"
         offset="1"
         id="stop8" />
    </linearGradient>
    <mask
       maskUnits="userSpaceOnUse"
       id="mask1">
      <path
         id="path1"
         style="fill:#ffffff;stroke-width:0.999983"
         d="m 65.917494,7.997815 c -8.9435,0 -13.411462,-0.00388 -16.958752,1.4005734 -5.134583,2.0328576 -9.205415,6.1039516 -11.238345,11.2383416 -1.4045,3.547171 -1.400574,8.015585 -1.400574,16.958758 V 151.19386 c 0,8.94265 -0.004,13.41188 1.400574,16.95875 2.032703,5.13477 6.103563,9.20525 11.238345,11.23834 3.54729,1.40395 8.015252,1.40058 16.958752,1.40058 H 131.9976 c 8.94498,0 13.41174,0.003 16.95875,-1.40058 5.13457,-2.03285 9.20542,-6.10395 11.23835,-11.23834 1.405,-3.54687 1.40057,-8.02682 1.40057,-16.9925 0.001,-29.56592 0.032,-26.84928 0.0674,-75.765996 0.002,-2.372018 -0.007,-3.558851 -0.21937,-4.674209 -0.3067,-1.611915 -0.93407,-3.148344 -1.85618,-4.505458 -0.63795,-0.939064 -1.47762,-1.764655 -3.13863,-3.425497 L 101.65745,7.997815 Z" />
    </mask>
  </defs>
  <path
     d="M 52,9 C 15.595238,9 8,16.759268 8,53 v 24 c 0,36.24073 7.595238,44 44,44 h 24 c 36.40476,0 44,-7.75927 44,-44 V 53 C 120,16.759268 112.40476,9 76,9"
     style="opacity:0.2;fill:#000000;stroke-width:4;stroke-linecap:round;stroke-linejoin:round"
     id="path563" />
  <path
     id="path533"
     style="fill:#fafafa;fill-opacity:1;stroke-width:4;stroke-linecap:round;stroke-linejoin:round"
     d="M 52,8 C 15.595276,8 8,15.759304 8,52 v 24 c 0,36.2407 7.595276,44 44,44 h 24 c 36.40473,0 44,-7.7593 44,-44 V 52 C 120,15.759304 112.40473,8 76,8 Z" />
  <g
     mask="url(#mask1)"
     transform="matrix(0.4629798,0,0,0.4629798,18.184656,20.344048)"
     id="g4">
    <path
       id="path2"
       style="fill:#3186ff;fill-opacity:1;stroke-width:0.990835"
       d="M 36.319823,7.9978146 V 180.79153 H 161.59527 L 161.66276,66.906297 101.65745,7.9978146 Z" />
    <g
       filter="url(#b)"
       id="g3"
       transform="translate(1.5540365,-0.10424581)">
      <path
         d="M 46.999972,199.60011 H 152.99998 V 27.600102 H 46.999972 Z"
         style="fill:url(#linearGradient8);fill-opacity:1"
         id="path3" />
    </g>
  </g>
  <path
     id="path4"
     style="fill:#76bbff;fill-opacity:1;stroke-width:0.074074"
     d="m 65.202112,24 v 18.148148 c 0,3.2728 2.653116,5.925924 5.925924,5.925924 h 15.370372 c 1.56256,0 3.00644,0.51812 4.166668,1.388892 z" />
  <rect
     x="47"
     y="70"
     width="32"
     height="6"
     id="rect4"
     style="fill:#ffffff;stroke-width:4"
     ry="3" />
  <rect
     x="47"
     y="84"
     width="22"
     height="6"
     id="rect5"
     style="fill:#ffffff;stroke-width:0.1"
     ry="3" />
</svg>
