<?xml version="1.0" encoding="UTF-8" standalone="no"?>
<!-- Created with Inkscape (http://www.inkscape.org/) -->

<svg
   width="128"
   height="128"
   viewBox="0 0 128 128"
   version="1.1"
   id="svg5"
   inkscape:version="1.2.1 (9c6d41e410, 2022-07-14)"
   sodipodi:docname="google-chrome-beta.svg"
   xmlns:inkscape="http://www.inkscape.org/namespaces/inkscape"
   xmlns:sodipodi="http://sodipodi.sourceforge.net/DTD/sodipodi-0.dtd"
   xmlns:xlink="http://www.w3.org/1999/xlink"
   xmlns="http://www.w3.org/2000/svg"
   xmlns:svg="http://www.w3.org/2000/svg">
  <sodipodi:namedview
     id="namedview7"
     pagecolor="#ffffff"
     bordercolor="#000000"
     borderopacity="0.25"
     inkscape:showpageshadow="2"
     inkscape:pageopacity="0.0"
     inkscape:pagecheckerboard="0"
     inkscape:deskcolor="#d1d1d1"
     inkscape:document-units="px"
     showgrid="false"
     inkscape:zoom="6.1875"
     inkscape:cx="63.919192"
     inkscape:cy="64"
     inkscape:window-width="1920"
     inkscape:window-height="1004"
     inkscape:window-x="0"
     inkscape:window-y="0"
     inkscape:window-maximized="1"
     inkscape:current-layer="svg5" />
  <defs
     id="defs2">
    <linearGradient
       inkscape:collect="always"
       xlink:href="#linearGradient12495"
       id="linearGradient12497"
       x1="3.7041574"
       y1="5.15939"
       x2="8.9958239"
       y2="5.15939"
       gradientUnits="userSpaceOnUse" />
    <linearGradient
       inkscape:collect="always"
       id="linearGradient12495">
      <stop
         style="stop-color:#db3328;stop-opacity:1;"
         offset="0"
         id="stop12491" />
      <stop
         style="stop-color:#e53d30;stop-opacity:1"
         offset="1"
         id="stop12493" />
    </linearGradient>
    <linearGradient
       inkscape:collect="always"
       xlink:href="#linearGradient13171"
       id="linearGradient13173"
       x1="4.4023013"
       y1="4.2994838"
       x2="5.9898009"
       y2="7.474484"
       gradientUnits="userSpaceOnUse" />
    <linearGradient
       inkscape:collect="always"
       id="linearGradient13171">
      <stop
         style="stop-color:#32a651;stop-opacity:1;"
         offset="0"
         id="stop13167" />
      <stop
         style="stop-color:#279847;stop-opacity:1"
         offset="1"
         id="stop13169" />
    </linearGradient>
  </defs>
  <path
     d="M 52,9 C 15.595239,9 8,16.759268 8,53 v 24 c 0,36.24073 7.595239,44 44,44 h 24 c 36.40476,0 44,-7.75927 44,-44 V 53 C 120,16.759268 112.40476,9 76,9"
     style="opacity:0.2;fill:#000000;stroke-width:4;stroke-linecap:round;stroke-linejoin:round"
     id="path563" />
  <path
     id="path533"
     style="fill:#fafafa;fill-opacity:1;stroke-width:4;stroke-linecap:round;stroke-linejoin:round"
     d="M 52,8 C 15.595272,8 8,15.759304 8,52 v 24 c 0,36.2407 7.595272,44 44,44 h 24 c 36.40473,0 44,-7.7593 44,-44 V 52 C 120,15.759304 112.40473,8 76,8 Z" />
  <g
     id="g13900"
     transform="matrix(8.8930056,0,0,8.8930056,7.5294128,7.5294128)">
    <path
       d="m 6.3499908,1.8520833 c -1.6648002,0 -3.1172325,0.9051142 -3.8949803,2.2495046 L 2.6017322,6.7248018 4.4023011,7.4744838 6.3499908,6.3500302 V 4.1010567 H 10.244704 C 9.4668234,2.7569983 8.014591,1.8520833 6.3499908,1.8520833 Z"
       style="fill:url(#linearGradient12497);fill-opacity:1;stroke-width:0.0175699"
       id="path1309" />
    <path
       d="m 1.8521097,6.3500302 c 0,2.4841174 2.013697,4.4978798 4.4978805,4.4978798 L 8.322717,9.7933342 8.2976798,7.4744838 6.3499902,6.3500302 4.4023011,7.4744838 2.4550101,4.1015879 C 2.0722656,4.7632044 1.8520833,5.5305796 1.8520833,6.3499639"
       style="fill:url(#linearGradient13173);fill-opacity:1;stroke-width:0.0175699"
       id="path1449"
       sodipodi:nodetypes="cccccccc" />
    <path
       d="m 6.3500375,6.3500302 1.947689,1.1244536 -1.947689,3.3734262 c 2.4841163,0 4.4978795,-2.0137624 4.4978795,-4.4978798 0,-0.819517 -0.220254,-1.5871712 -0.603213,-2.2489735 H 6.3499908 Z"
       style="fill:#fbbf12;stroke-width:0.0175699"
       id="path1829" />
    <path
       d="m 8.5990112,6.3500302 c 0,1.2420585 -1.0069151,2.2489734 -2.2489737,2.2489734 -1.242059,0 -2.2489739,-1.0069149 -2.2489739,-2.2489734 0,-1.2420588 1.0069149,-2.2489735 2.2489739,-2.2489735 1.2420586,0 2.2489737,1.0069147 2.2489737,2.2489735"
       style="fill:#ffffff;stroke-width:0.0175699"
       id="path2229" />
    <path
       d="m 8.1492041,6.3500006 c 0,0.9936381 -0.8055294,1.7991654 -1.7991667,1.7991654 -0.9936381,0 -1.7991668,-0.8055273 -1.7991668,-1.7991654 0,-0.9936377 0.8055287,-1.7991663 1.7991668,-1.7991663 0.9936373,0 1.7991667,0.8055286 1.7991667,1.7991663"
       style="fill:#4688f4;fill-opacity:1;stroke-width:0.0172995"
       id="path2029" />
  </g>
  <path
     id="path520"
     style="fill:#414342;fill-opacity:1;stroke-width:4;stroke-linecap:round;stroke-linejoin:round"
     d="M 25.890624,76 A 40,39.999969 0 0 0 64,104 40,39.999969 0 0 0 102.10938,76 Z" />
  <path
     id="path727"
     style="font-size:4px;font-family:'Google Sans';-inkscape-font-specification:'Google Sans';text-align:center;text-anchor:middle;fill:#ffffff;stroke-width:0.730171;stroke-linecap:round;stroke-linejoin:round"
     d="m 46,80 v 13.691787 h 5.183457 c 0.726839,0 1.401854,-0.16344 2.026684,-0.494991 0.637579,-0.331528 1.143214,-0.786343 1.513006,-1.372919 0.382549,-0.599322 0.579057,-1.26841 0.579057,-2.008002 0,-0.752347 -0.220229,-1.409576 -0.653773,-1.970647 -0.433556,-0.561069 -0.992535,-0.956599 -1.681124,-1.186124 v -0.07471 c 0.573825,-0.267786 1.022697,-0.651448 1.354244,-1.148765 0.344281,-0.497309 0.513669,-1.083412 0.513669,-1.746496 0,-0.701335 -0.1753,-1.32552 -0.532357,-1.886591 -0.357038,-0.561069 -0.84489,-1.007426 -1.456968,-1.326217 C 52.246572,80.157516 51.610532,80 50.921945,80 Z m 22.77918,1.186125 v 2.755168 h -1.699803 v 1.475647 h 1.699803 v 5.715813 c 0,0.459055 0.0686,0.848651 0.19612,1.167443 0.12752,0.318772 0.314685,0.598277 0.569708,0.84056 0.229521,0.216765 0.509017,0.386168 0.840561,0.51368 0.34428,0.12752 0.71611,0.19612 1.111403,0.19612 0.306056,0 0.555893,-0.0178 0.747168,-0.05604 0.204015,-0.03811 0.406456,-0.10688 0.597732,-0.19612 v -1.587719 c -0.344287,0.216767 -0.704252,0.326863 -1.074048,0.326863 -0.459056,0 -0.813092,-0.13972 -1.055368,-0.420276 -0.204051,-0.255036 -0.308195,-0.650556 -0.308195,-1.186127 v -5.314212 h 2.372244 v -1.47565 H 70.40426 v -2.755168 z m -21.172775,0.364232 h 3.390259 c 0.446301,0 0.835901,0.110107 1.167448,0.326903 0.344284,0.216767 0.605997,0.496267 0.784517,0.840559 0.19128,0.331529 0.280192,0.664377 0.280192,1.008672 0,0.35704 -0.08891,0.711076 -0.280192,1.055372 -0.19126,0.331525 -0.464833,0.605101 -0.821877,0.82188 -0.344284,0.216765 -0.745747,0.32686 -1.204807,0.32686 h -3.315538 z m 13.869239,2.082723 c -0.943616,0 -1.770235,0.238 -2.48432,0.709804 -0.714088,0.471811 -1.267143,1.105331 -1.66244,1.895932 -0.382551,0.7906 -0.579055,1.652779 -0.579055,2.596396 0,0.981871 0.208367,1.871179 0.616412,2.661772 0.4208,0.777851 0.997564,1.384252 1.737159,1.830555 0.739589,0.446316 1.572137,0.672453 2.503,0.672453 1.020129,0 1.891648,-0.232085 2.605737,-0.691124 0.72684,-0.459057 1.297675,-1.077313 1.71848,-1.867909 l -1.372921,-0.672451 c -0.675831,1.173148 -1.636263,1.755843 -2.88592,1.755843 -0.535567,0 -1.053052,-0.127907 -1.550368,-0.382939 -0.484559,-0.255032 -0.886011,-0.629356 -1.2048,-1.139425 -0.318771,-0.510063 -0.50344,-1.137652 -0.541695,-1.877248 h 7.714476 c 0.03809,-0.14028 0.05604,-0.303723 0.05604,-0.494995 0,-0.969124 -0.1965,-1.834713 -0.579053,-2.58706 -0.369795,-0.752348 -0.905063,-1.335037 -1.606404,-1.75584 -0.701335,-0.433548 -1.527952,-0.653768 -2.484324,-0.653764 z m 16.717808,0 c -0.8161,0 -1.565659,0.16344 -2.241492,0.494996 -0.663087,0.331531 -1.1865,0.79568 -1.569047,1.382256 l 1.232819,0.915276 c 0.267785,-0.420805 0.624332,-0.741784 1.083392,-0.971316 0.459056,-0.242276 0.964688,-0.364233 1.513007,-0.364233 0.77785,0 1.423226,0.216808 1.93329,0.663108 0.510063,0.433554 0.765843,1.019657 0.765843,1.746493 v 0.588392 c -0.267791,-0.1658 -0.657384,-0.31142 -1.167445,-0.438956 -0.497311,-0.12752 -1.038507,-0.18678 -1.625083,-0.18678 -1.185897,0 -2.173455,0.291353 -2.9513,0.877916 -0.777848,0.573828 -1.167444,1.376728 -1.167444,2.409608 0,0.624828 0.16092,1.183807 0.466977,1.68112 0.306055,0.484557 0.737127,0.868233 1.298195,1.148765 C 76.326236,93.860269 76.965688,94 77.679777,94 c 0.70134,0 1.32552,-0.16344 1.886587,-0.494992 0.561075,-0.331565 0.989649,-0.732997 1.270181,-1.204804 h 0.07471 V 93.6918 h 1.550361 v -6.173452 c 0,-1.198659 -0.383677,-2.141307 -1.148764,-2.829891 -0.752344,-0.701337 -1.793248,-1.055372 -3.119412,-1.055372 z m -16.736488,1.475644 c 0.663088,0 1.210208,0.13972 1.643764,0.420284 0.446305,0.280547 0.776629,0.619304 0.980652,1.027352 0.204012,0.408053 0.310721,0.824772 0.336233,1.23282 h -5.949298 c 0.165798,-0.803349 0.513876,-1.448724 1.036689,-1.933288 0.535567,-0.497312 1.186871,-0.747168 1.95196,-0.747168 z M 47.606405,87.4623 h 3.595727 c 0.484564,0 0.909724,0.11604 1.279524,0.345567 0.369793,0.216765 0.664552,0.508125 0.868573,0.87792 0.204011,0.357037 0.298863,0.72886 0.298863,1.111409 0,0.382551 -0.09485,0.750952 -0.298863,1.120748 -0.19126,0.357036 -0.470761,0.657724 -0.840557,0.887256 -0.35704,0.22952 -0.773763,0.336232 -1.232823,0.336232 h -3.670444 z m 30.75516,1.316883 c 0.497311,0 0.973307,0.0686 1.419611,0.19612 0.446304,0.12752 0.824045,0.290968 1.130088,0.494996 0,0.561069 -0.13972,1.078557 -0.42028,1.550368 -0.280544,0.471808 -0.65828,0.840209 -1.130087,1.120741 -0.471809,0.280547 -0.983368,0.429623 -1.531692,0.429623 -0.624821,0 -1.142309,-0.1728 -1.550364,-0.504324 -0.408052,-0.331568 -0.607073,-0.762639 -0.607073,-1.298207 0,-0.586573 0.216808,-1.068493 0.663109,-1.438289 0.45906,-0.369795 1.134075,-0.551031 2.026688,-0.551028 z" />
</svg>
