<?xml version="1.0" encoding="UTF-8" standalone="no"?>
<!-- Created with Inkscape (http://www.inkscape.org/) -->

<svg
   width="128"
   height="128"
   viewBox="0 0 128 128"
   version="1.1"
   id="svg5"
   inkscape:version="1.2.1 (9c6d41e410, 2022-07-14)"
   sodipodi:docname="gparted.svg"
   xmlns:inkscape="http://www.inkscape.org/namespaces/inkscape"
   xmlns:sodipodi="http://sodipodi.sourceforge.net/DTD/sodipodi-0.dtd"
   xmlns:xlink="http://www.w3.org/1999/xlink"
   xmlns="http://www.w3.org/2000/svg"
   xmlns:svg="http://www.w3.org/2000/svg">
  <sodipodi:namedview
     id="namedview7"
     pagecolor="#ffffff"
     bordercolor="#000000"
     borderopacity="0.25"
     inkscape:showpageshadow="2"
     inkscape:pageopacity="0.0"
     inkscape:pagecheckerboard="0"
     inkscape:deskcolor="#d1d1d1"
     inkscape:document-units="px"
     showgrid="false"
     inkscape:zoom="6.46875"
     inkscape:cx="63.922705"
     inkscape:cy="64"
     inkscape:window-width="1920"
     inkscape:window-height="1008"
     inkscape:window-x="0"
     inkscape:window-y="0"
     inkscape:window-maximized="1"
     inkscape:current-layer="svg5"
     showguides="false" />
  <defs
     id="defs2">
    <linearGradient
       inkscape:collect="always"
       xlink:href="#linearGradient1273"
       id="linearGradient6780"
       x1="2"
       y1="2"
       x2="30"
       y2="30"
       gradientUnits="userSpaceOnUse"
       gradientTransform="scale(4)" />
    <linearGradient
       inkscape:collect="always"
       id="linearGradient1273">
      <stop
         style="stop-color:#a1a1a1;stop-opacity:1;"
         offset="0"
         id="stop1269" />
      <stop
         style="stop-color:#dedede;stop-opacity:1;"
         offset="1"
         id="stop1271" />
    </linearGradient>
    <linearGradient
       inkscape:collect="always"
       xlink:href="#linearGradient1857"
       id="linearGradient1859"
       x1="13.387063"
       y1="13.399749"
       x2="20.292116"
       y2="24"
       gradientUnits="userSpaceOnUse"
       gradientTransform="scale(2.6666666)" />
    <linearGradient
       inkscape:collect="always"
       id="linearGradient1857">
      <stop
         style="stop-color:#e29731;stop-opacity:1;"
         offset="0"
         id="stop1853" />
      <stop
         style="stop-color:#e2c531;stop-opacity:1;"
         offset="1"
         id="stop1855" />
    </linearGradient>
    <linearGradient
       inkscape:collect="always"
       xlink:href="#linearGradient1865"
       id="linearGradient1867"
       x1="24"
       y1="9"
       x2="34.606602"
       y2="34.606602"
       gradientUnits="userSpaceOnUse"
       gradientTransform="scale(2.6666666)" />
    <linearGradient
       inkscape:collect="always"
       id="linearGradient1865">
      <stop
         style="stop-color:#81b037;stop-opacity:1;"
         offset="0"
         id="stop1861" />
      <stop
         style="stop-color:#a5c84c;stop-opacity:1;"
         offset="1"
         id="stop1863" />
    </linearGradient>
    <linearGradient
       inkscape:collect="always"
       xlink:href="#linearGradient1946"
       id="linearGradient1125"
       x1="24"
       y1="24"
       x2="34.606602"
       y2="38.959782"
       gradientUnits="userSpaceOnUse"
       gradientTransform="scale(2.6666666)" />
    <linearGradient
       inkscape:collect="always"
       id="linearGradient1946">
      <stop
         style="stop-color:#c21010;stop-opacity:1;"
         offset="0"
         id="stop1942" />
      <stop
         style="stop-color:#d26f6f;stop-opacity:1;"
         offset="1"
         id="stop1944" />
    </linearGradient>
  </defs>
  <path
     d="M 52,9 C 15.595238,9 8,16.759268 8,53 v 24 c 0,36.24073 7.595238,44 44,44 h 24 c 36.40476,0 44,-7.75927 44,-44 V 53 C 120,16.759268 112.40476,9 76,9"
     style="opacity:0.2;fill:#000000;stroke-width:4;stroke-linecap:round;stroke-linejoin:round"
     id="path563" />
  <path
     id="path530"
     style="fill:url(#linearGradient6780);fill-opacity:1;stroke-width:4;stroke-linecap:round;stroke-linejoin:round"
     d="M 52,8 C 15.595274,8 8,15.759304 8,52 v 24 c 0,36.2407 7.595274,44 44,44 h 24 c 36.40473,0 44,-7.7593 44,-44 V 52 C 120,15.759304 112.40473,8 76,8 Z" />
  <path
     id="path346"
     style="opacity:0.6;fill:#ffffff;stroke-width:8;stroke-linecap:round;stroke-linejoin:round;paint-order:stroke fill markers"
     d="m 64,24 c -22.091368,0 -40,17.908632 -40,40 0,22.091364 17.908636,40 40,40 22.091364,0 40,-17.908636 40,-40 C 104,41.908632 86.091368,24 64,24 Z m 0,28 c 6.627408,0 12,5.372592 12,12 0,6.627408 -5.372592,12 -12,12 -6.627408,0 -12,-5.372592 -12,-12 0,-6.627408 5.372592,-12 12,-12 z" />
  <path
     id="path347"
     style="fill:url(#linearGradient1867);fill-opacity:1;stroke-width:2.66666;stroke-linecap:round;stroke-linejoin:round;paint-order:stroke fill markers"
     d="m 64,24 c -7.91819,0.03008 -15.638716,2.376686 -22.152344,6.695312 -0.0259,0.0172 -0.05226,0.03354 -0.07812,0.05078 -0.354742,0.236402 -0.699494,0.486288 -1.046876,0.734374 -0.201912,0.1448 -0.410296,0.281258 -0.609374,0.429688 -0.261114,0.19468 -0.513388,0.400712 -0.769532,0.601562 -0.25417,0.19884 -0.51215,0.392308 -0.761718,0.597658 -0.1904,0.15686 -0.37116,0.324092 -0.558594,0.484374 -0.298406,0.255106 -0.599378,0.504974 -0.890626,0.769532 -0.0096,0.0086 -0.0178,0.0186 -0.02734,0.02734 -0.0971,0.08838 -0.18888,0.18402 -0.285156,0.273438 -0.37773,0.35081 -0.75628,0.70353 -1.121094,1.070314 L 44,53.777344 53.324218,58.542968 C 55.31213,54.662528 59.340412,52 64,52 c 6.627402,0 12,5.372598 12,12 0,4.83746 -2.868714,8.995496 -6.992188,10.894532 l 4.15625,9.05078 19.121094,8.339844 c 0.455026,-0.452582 0.893928,-0.918382 1.32422,-1.390624 0.429182,-0.472206 0.847422,-0.952906 1.253906,-1.445314 0.0012,-0.0014 0.0028,-0.0024 0.004,-0.004 0.407588,-0.493882 0.80358,-0.998356 1.1875,-1.511718 0.298966,-0.399766 0.583024,-0.81153 0.867188,-1.222656 0.0805,-0.11692 0.16688,-0.22992 0.246092,-0.347656 0.0112,-0.0164 0.02016,-0.03432 0.03126,-0.05078 0.1272,-0.1889 0.247048,-0.383056 0.371094,-0.574218 0.25465,-0.394334 0.509788,-0.788746 0.75,-1.191406 C 101.99394,78.38887 103.97233,71.28284 104,64 104,41.908632 86.091368,24 64,24 Z" />
  <path
     id="path536"
     style="fill:url(#linearGradient1125);fill-opacity:1;stroke-width:2.66666;stroke-linecap:round;stroke-linejoin:round;paint-order:stroke fill markers"
     d="M 72.484376,72.484376 C 70.312804,74.655946 67.3137,76 64,76 v 28 c 2.053476,0 4.068892,-0.15468 6.039062,-0.45312 0.342348,-0.0524 0.683032,-0.11832 1.023438,-0.17968 0.256156,-0.0457 0.515088,-0.0862 0.769532,-0.13672 0.013,-0.003 0.02602,-0.005 0.03906,-0.008 7.667446,-1.54718 14.78439,-5.350442 20.414062,-10.937504 z" />
  <path
     id="path538"
     style="fill:url(#linearGradient1859);fill-opacity:1;stroke-width:2.66666;stroke-linecap:round;stroke-linejoin:round;paint-order:stroke fill markers"
     d="m 35.699218,35.734376 c -0.1431,0.14328 -0.280952,0.292076 -0.421874,0.4375 -6.395176,6.599356 -10.533038,15.392774 -11.179688,25.14453 -0.0144,0.221814 -0.03606,0.441412 -0.04688,0.664062 -0.0012,0.0233 -0.0028,0.047 -0.004,0.07032 C 24.015872,62.696766 24,63.346334 24,64 h 28 c 0,-3.311718 1.342436,-6.309206 3.511718,-8.480468 z" />
  <path
     id="path400"
     style="fill:#ffffff;stroke-width:16;stroke-linecap:round;stroke-linejoin:round;paint-order:stroke fill markers"
     d="m 91.99866,106.92822 c 3.82636,2.20912 8.71906,0.89812 10.9282,-2.92821 2.20915,-3.82635 0.89815,-8.719066 -2.928192,-10.92821 L 61.357644,80 Z"
     sodipodi:nodetypes="csccc" />
</svg>
