<?xml version="1.0" encoding="UTF-8" standalone="no"?>
<!-- Created with Inkscape (http://www.inkscape.org/) -->

<svg
   width="128"
   height="128"
   viewBox="0 0 128 128"
   version="1.1"
   id="svg5"
   inkscape:version="1.3.2 (091e20ef0f, 2023-11-25, custom)"
   sodipodi:docname="heroic.svg"
   xmlns:inkscape="http://www.inkscape.org/namespaces/inkscape"
   xmlns:sodipodi="http://sodipodi.sourceforge.net/DTD/sodipodi-0.dtd"
   xmlns:xlink="http://www.w3.org/1999/xlink"
   xmlns="http://www.w3.org/2000/svg"
   xmlns:svg="http://www.w3.org/2000/svg">
  <sodipodi:namedview
     id="namedview7"
     pagecolor="#ffffff"
     bordercolor="#000000"
     borderopacity="0.25"
     inkscape:showpageshadow="2"
     inkscape:pageopacity="0.0"
     inkscape:pagecheckerboard="0"
     inkscape:deskcolor="#d1d1d1"
     inkscape:document-units="px"
     showgrid="false"
     inkscape:zoom="6.28125"
     inkscape:cx="64"
     inkscape:cy="64"
     inkscape:window-width="1920"
     inkscape:window-height="1008"
     inkscape:window-x="0"
     inkscape:window-y="0"
     inkscape:window-maximized="1"
     inkscape:current-layer="svg5" />
  <defs
     id="defs2">
    <linearGradient
       inkscape:collect="always"
       xlink:href="#linearGradient1768"
       id="linearGradient4780"
       x1="2"
       y1="2"
       x2="30"
       y2="30"
       gradientUnits="userSpaceOnUse"
       gradientTransform="scale(4)" />
    <linearGradient
       inkscape:collect="always"
       id="linearGradient1768">
      <stop
         style="stop-color:#333333;stop-opacity:1;"
         offset="0"
         id="stop1764" />
      <stop
         style="stop-color:#6a6a6a;stop-opacity:1;"
         offset="1"
         id="stop1766" />
    </linearGradient>
    <linearGradient
       inkscape:collect="always"
       xlink:href="#linearGradient1"
       id="linearGradient2"
       x1="72"
       y1="78"
       x2="24"
       y2="18"
       gradientUnits="userSpaceOnUse"
       gradientTransform="scale(1.3333333)" />
    <linearGradient
       id="linearGradient1"
       inkscape:collect="always">
      <stop
         style="stop-color:#67def9;stop-opacity:1;"
         offset="0"
         id="stop1" />
      <stop
         style="stop-color:#3bb4f6;stop-opacity:1;"
         offset="1"
         id="stop2" />
    </linearGradient>
  </defs>
  <path
     d="M 52,9 C 15.595238,9 8,16.759268 8,53 v 24 c 0,36.24073 7.595238,44 44,44 h 24 c 36.40476,0 44,-7.75927 44,-44 V 53 C 120,16.759268 112.40476,9 76,9"
     style="opacity:0.2;fill:#000000;stroke-width:4;stroke-linecap:round;stroke-linejoin:round"
     id="path563" />
  <path
     id="path530"
     style="fill:url(#linearGradient4780);fill-opacity:1;stroke-width:4;stroke-linecap:round;stroke-linejoin:round"
     d="M 52,8 C 15.595274,8 8,15.759304 8,52 v 24 c 0,36.2407 7.595274,44 44,44 h 24 c 36.40473,0 44,-7.7593 44,-44 V 52 C 120,15.759304 112.40473,8 76,8 Z" />
  <path
     d="M 69.82,25.4284 C 68.364,24.8484 65.452,24 64,24 c -1.452,0 -4.364,0.8484 -5.82,1.4284 L 34.9092,34 C 33.2396,34.6588 32,35.5372 32,36.8572 c 0,1.4284 0.3344,2.1324 0.7268,3.5712 L 46.5456,88.284 c 0,0 0.588,1.66 1.4544,2.86 C 48.7936,92.24 50.9092,94 50.9092,94 l 10.1828,8.572 c 0,0 1.824,1.428 2.908,1.428 1.084,0 2.908,-1.428 2.908,-1.428 L 77.092,94 c 0,0 2.084,-1.784 2.908,-2.856 0.86,-1.12 1.456,-2.86 1.456,-2.86 L 95.272,40.4284 C 95.732,39.014 96,38.2856 96,36.8572 96,35.594 95.068,34.6956 93.092,34 Z"
     style="fill:url(#linearGradient2);fill-opacity:1;stroke-width:4"
     id="path461" />
  <path
     d="m 64,33.9988 -6,10 4,36 2,2 2,-2 4,-36 z m -10,47 -2,3 2,3 6,-1 2,-2 -2,-2 z m 20,0 -6,1 -2,2 2,2 6,1 2,-3 z m -10,5 -2,2 -1,6 3,2 3,-2 -1,-6 z"
     style="fill:#4f4f4f;stroke-width:4"
     id="path433"
     sodipodi:nodetypes="cccccccccccccccccccccccccccc" />
</svg>
