<?xml version="1.0" encoding="UTF-8" standalone="no"?>
<!-- Created with Inkscape (http://www.inkscape.org/) -->

<svg
   width="128"
   height="128"
   viewBox="0 0 128 128"
   version="1.1"
   id="svg5"
   inkscape:version="1.2.1 (9c6d41e410, 2022-07-14)"
   sodipodi:docname="hexchat.svg"
   xmlns:inkscape="http://www.inkscape.org/namespaces/inkscape"
   xmlns:sodipodi="http://sodipodi.sourceforge.net/DTD/sodipodi-0.dtd"
   xmlns:xlink="http://www.w3.org/1999/xlink"
   xmlns="http://www.w3.org/2000/svg"
   xmlns:svg="http://www.w3.org/2000/svg">
  <sodipodi:namedview
     id="namedview7"
     pagecolor="#ffffff"
     bordercolor="#000000"
     borderopacity="0.25"
     inkscape:showpageshadow="2"
     inkscape:pageopacity="0.0"
     inkscape:pagecheckerboard="0"
     inkscape:deskcolor="#d1d1d1"
     inkscape:document-units="px"
     showgrid="false"
     inkscape:zoom="6.3125"
     inkscape:cx="64"
     inkscape:cy="64"
     inkscape:window-width="1920"
     inkscape:window-height="1011"
     inkscape:window-x="0"
     inkscape:window-y="32"
     inkscape:window-maximized="1"
     inkscape:current-layer="svg5" />
  <defs
     id="defs2">
    <linearGradient
       inkscape:collect="always"
       xlink:href="#linearGradient1123"
       id="linearGradient4780"
       x1="2"
       y1="2"
       x2="30"
       y2="30"
       gradientUnits="userSpaceOnUse"
       gradientTransform="scale(4)" />
    <linearGradient
       inkscape:collect="always"
       id="linearGradient1123">
      <stop
         style="stop-color:#f87c00;stop-opacity:1;"
         offset="0"
         id="stop1119" />
      <stop
         style="stop-color:#ff981e;stop-opacity:1;"
         offset="1"
         id="stop1121" />
    </linearGradient>
  </defs>
  <path
     d="M 52,9 C 15.595238,9 8,16.759268 8,53 v 24 c 0,36.24073 7.595238,44 44,44 h 24 c 36.40476,0 44,-7.75927 44,-44 V 53 C 120,16.759268 112.40476,9 76,9"
     style="opacity:0.2;fill:#000000;stroke-width:4;stroke-linecap:round;stroke-linejoin:round"
     id="path563" />
  <path
     id="path530"
     style="fill:url(#linearGradient4780);fill-opacity:1;stroke-width:4;stroke-linecap:round;stroke-linejoin:round"
     d="M 52,8 C 15.595274,8 8,15.759304 8,52 v 24 c 0,36.2407 7.595274,44 44,44 h 24 c 36.40473,0 44,-7.7593 44,-44 V 52 C 120,15.759304 112.40473,8 76,8 Z" />
  <path
     id="path350"
     style="fill:#ffffff;stroke-width:3.0868"
     d="m 63.62798,30.012414 c -9.133224,0.0869 -18.263284,0.621864 -19.985084,1.57906 -3.4436,1.914386 -19.683256,28.998878 -19.64282,32.761762 0.04044,3.762888 16.873072,30.544328 20.357104,32.392828 3.484032,1.848492 36.556328,1.58234 39.999924,-0.33204 3.4436,-1.914396 19.683256,-28.998884 19.642816,-32.761768 -0.0404,-3.762876 -16.873068,-30.5886 -20.3571,-32.437098 -1.742016,-0.92425 -10.881632,-1.289608 -20.01484,-1.202744 z m 2.66368,7.54111 c 5.957212,0.0248 11.36274,0.34528 12.51486,0.973996 0.07896,0.04308 0.18624,0.1666 0.28276,0.24352 L 64.558036,54.989588 63.91816,55.668436 63.31548,54.989588 48.18158,39.1326 c 0.1404,-0.12728 0.30076,-0.26264 0.409228,-0.32468 1.301436,-0.744172 8.223064,-1.179476 15.126456,-1.247012 0.862928,-0.0084 1.72338,-0.0108 2.5744,-0.0072 z m 20.677048,12.19712 c 3.712852,6.00268 7.231012,12.434484 7.247012,13.968016 0.0176,1.66164 -3.94988,9.129828 -7.849688,15.576596 l -14.278248,-12.7579 -0.684524,-0.61244 0.64732,-0.59768 z m -46.063904,0.04428 13.958308,15.532328 0.565476,0.59768 -0.595236,0.568164 -13.244024,12.7579 C 37.666556,72.984676 33.801196,65.898444 33.78428,64.279448 33.76788,62.7134 37.245808,55.973588 40.904804,49.794912 Z m 23.013352,22.896344 0.565472,0.560788 15.892828,14.934644 c -0.409432,0.470516 -0.754368,0.82362 -1.00446,0.96662 -2.60286,1.488328 -27.582292,1.79868 -30.215716,0.36152 -0.2938,-0.16032 -0.774456,-0.611284 -1.2872,-1.20274 L 63.315476,73.252016 Z" />
</svg>
