<?xml version="1.0" encoding="UTF-8" standalone="no"?>
<!-- Created with Inkscape (http://www.inkscape.org/) -->

<svg
   width="128"
   height="128"
   viewBox="0 0 128 128"
   version="1.1"
   id="svg5"
   inkscape:version="1.2.1 (9c6d41e410, 2022-07-14)"
   sodipodi:docname="java.svg"
   xmlns:inkscape="http://www.inkscape.org/namespaces/inkscape"
   xmlns:sodipodi="http://sodipodi.sourceforge.net/DTD/sodipodi-0.dtd"
   xmlns:xlink="http://www.w3.org/1999/xlink"
   xmlns="http://www.w3.org/2000/svg"
   xmlns:svg="http://www.w3.org/2000/svg">
  <sodipodi:namedview
     id="namedview7"
     pagecolor="#ffffff"
     bordercolor="#000000"
     borderopacity="0.25"
     inkscape:showpageshadow="2"
     inkscape:pageopacity="0.0"
     inkscape:pagecheckerboard="0"
     inkscape:deskcolor="#d1d1d1"
     inkscape:document-units="px"
     showgrid="false"
     inkscape:zoom="6.3125"
     inkscape:cx="64"
     inkscape:cy="64"
     inkscape:window-width="1920"
     inkscape:window-height="1011"
     inkscape:window-x="0"
     inkscape:window-y="32"
     inkscape:window-maximized="1"
     inkscape:current-layer="svg5"
     showguides="true" />
  <defs
     id="defs2">
    <linearGradient
       inkscape:collect="always"
       id="linearGradient1606">
      <stop
         style="stop-color:#eaebed;stop-opacity:1;"
         offset="0"
         id="stop1602" />
      <stop
         style="stop-color:#f9fafa;stop-opacity:1;"
         offset="1"
         id="stop1604" />
    </linearGradient>
    <linearGradient
       inkscape:collect="always"
       xlink:href="#linearGradient1606"
       id="linearGradient3500"
       x1="2"
       y1="2"
       x2="30"
       y2="30"
       gradientUnits="userSpaceOnUse"
       gradientTransform="scale(4)" />
  </defs>
  <path
     d="M 52,9 C 15.595238,9 8,16.759268 8,53 v 24 c 0,36.24073 7.595238,44 44,44 h 24 c 36.40476,0 44,-7.75927 44,-44 V 53 C 120,16.759268 112.40476,9 76,9"
     style="opacity:0.2;fill:#000000;stroke-width:4;stroke-linecap:round;stroke-linejoin:round"
     id="path563" />
  <path
     id="path530"
     style="fill:url(#linearGradient3500);fill-opacity:1;stroke-width:4;stroke-linecap:round;stroke-linejoin:round"
     d="M 52,8 C 15.595274,8 8,15.759304 8,52 v 24 c 0,36.2407 7.595274,44 44,44 h 24 c 36.40473,0 44,-7.7593 44,-44 V 52 C 120,15.759304 112.40473,8 76,8 Z" />
  <path
     d="m 85.710984,67.265272 c -0.913284,0.0018 -1.8801,0.17072 -2.874976,0.53906 -0.797652,0.29748 -1.21874,0.984368 -1.21874,0.984368 0,0 0.508464,-0.21372 1.6328,-0.460936 4.597856,-1.00962 11.183684,6.483348 -3.062476,14.281136 -0.066,0.1858 -0.28924,0.39844 -0.28908,0.39844 16.942412,-4.692284 13.24922,-15.756692 5.812452,-15.742064 z M 54.492488,68.02308 c -1.81628,0.05008 -6.066196,0.465608 -11.00772,2.984348 -7.794632,3.970816 19.272764,5.782392 33.288788,1.898424 1.456992,-1.0477 3.468724,-1.953108 3.468724,-1.953108 0,0 -5.733496,1.073044 -11.44522,1.578108 -6.990592,0.617976 -14.485548,0.741672 -18.249852,0.21092 -8.912532,-1.25538 4.882776,-4.7109 4.882776,-4.7109 0,0 -0.33208,-0.0244 -0.937496,-0.008 z m -2.273416,9.085864 c -12.856256,4.496108 7.154896,9.600456 25.124796,4.062468 -1.909276,-0.709108 -3.11716,-2.007796 -3.11716,-2.007796 -8.785636,1.781548 -13.860776,1.722632 -20.2889,1.023428 -4.969712,-0.541116 -1.718736,-3.0781 -1.718736,-3.0781 z m 1.820296,8.757744 c -11.674388,3.43694 7.095712,10.538172 21.96076,3.828092 -2.4346,-0.996868 -4.179656,-2.14842 -4.179656,-2.14842 -6.628744,1.320188 -9.701612,1.426924 -15.71862,0.70312 -4.96594,-0.60002 -2.062484,-2.382792 -2.062484,-2.382792 z m -8.109308,5.80464 c -5.242732,0.1704 -15.501626,5.138836 -6.124948,6.742132 30.304784,5.17565 55.24336,-2.333564 47.382424,-6.070264 0,0 2.15178,1.870512 -2.359356,3.312472 -8.577992,2.737488 -35.71376,3.56312 -43.249648,0.10936 -2.706992,-1.242316 2.370788,-2.964388 3.96872,-3.328096 1.666188,-0.3798 2.617164,-0.31252 2.617164,-0.31252 -0.470752,-0.34928 -1.26348,-0.48468 -2.234356,-0.45312 z m 46.069936,4.74996 c 0,0 -0.952344,2.582432 -11.296784,4.632772 -11.670228,2.31487 -26.07336,2.04745 -34.609092,0.5625 0,0 1.748948,1.5236 10.734288,2.1328 13.67148,0.92094 34.674916,-0.51143 35.171588,-7.328072 z"
     style="fill:#5a87b6;fill-opacity:1;stroke-width:1.33459"
     id="path4299" />
  <path
     d="M 71.601728,24 C 74.783284,37.208236 60.379048,41.196332 55.179984,49.421668 51.639572,55.025276 56.91332,61.049908 64.1096,67.890272 61.30338,61.206492 51.7902,55.360084 64.1176,45.101392 79.48928,32.317828 71.601728,24 71.601728,24 Z m 9.507732,16.335804 c 1.68e-4,0 -25.992212,6.841896 -13.578016,21.913884 3.66458,4.444532 -0.960928,8.445252 -0.960928,8.445252 0,0 9.301156,-5.062392 5.031212,-11.398352 -3.9895,-5.905948 -7.050812,-8.842372 9.507732,-18.960784 z"
     style="fill:#ff9955;stroke-width:1.33459"
     id="path4332" />
</svg>
