<?xml version="1.0" encoding="UTF-8" standalone="no"?>
<!-- Created with Inkscape (http://www.inkscape.org/) -->

<svg
   width="128"
   height="128"
   viewBox="0 0 128 128"
   version="1.1"
   id="svg5"
   inkscape:version="1.2.1 (9c6d41e410, 2022-07-14)"
   sodipodi:docname="karbon.svg"
   xmlns:inkscape="http://www.inkscape.org/namespaces/inkscape"
   xmlns:sodipodi="http://sodipodi.sourceforge.net/DTD/sodipodi-0.dtd"
   xmlns:xlink="http://www.w3.org/1999/xlink"
   xmlns="http://www.w3.org/2000/svg"
   xmlns:svg="http://www.w3.org/2000/svg">
  <sodipodi:namedview
     id="namedview7"
     pagecolor="#ffffff"
     bordercolor="#000000"
     borderopacity="0.25"
     inkscape:showpageshadow="2"
     inkscape:pageopacity="0.0"
     inkscape:pagecheckerboard="0"
     inkscape:deskcolor="#d1d1d1"
     inkscape:document-units="px"
     showgrid="false"
     inkscape:zoom="6.265625"
     inkscape:cx="62.483791"
     inkscape:cy="64"
     inkscape:window-width="1920"
     inkscape:window-height="1008"
     inkscape:window-x="0"
     inkscape:window-y="0"
     inkscape:window-maximized="1"
     inkscape:current-layer="svg5"
     showguides="true" />
  <defs
     id="defs2">
    <linearGradient
       inkscape:collect="always"
       id="linearGradient6680">
      <stop
         style="stop-color:#000000;stop-opacity:1;"
         offset="0"
         id="stop6676" />
      <stop
         style="stop-color:#000000;stop-opacity:0;"
         offset="1"
         id="stop6678" />
    </linearGradient>
    <linearGradient
       inkscape:collect="always"
       id="linearGradient5222">
      <stop
         style="stop-color:#663079;stop-opacity:1;"
         offset="0"
         id="stop5218" />
      <stop
         style="stop-color:#10a585;stop-opacity:1;"
         offset="1"
         id="stop5220" />
    </linearGradient>
    <linearGradient
       inkscape:collect="always"
       id="linearGradient7627">
      <stop
         style="stop-color:#c6cdd1;stop-opacity:1;"
         offset="0"
         id="stop7623" />
      <stop
         style="stop-color:#e0e5e7;stop-opacity:1;"
         offset="1"
         id="stop7625" />
    </linearGradient>
    <linearGradient
       inkscape:collect="always"
       xlink:href="#linearGradient5222"
       id="linearGradient2299"
       x1="2"
       y1="30"
       x2="2"
       y2="7.4277344"
       gradientUnits="userSpaceOnUse"
       gradientTransform="scale(4)" />
    <linearGradient
       inkscape:collect="always"
       xlink:href="#linearGradient7627"
       id="linearGradient2307"
       x1="30"
       y1="30"
       x2="30"
       y2="2"
       gradientUnits="userSpaceOnUse"
       gradientTransform="scale(4)" />
    <linearGradient
       inkscape:collect="always"
       xlink:href="#linearGradient1884"
       id="linearGradient2034"
       x1="4"
       y1="6"
       x2="4"
       y2="4"
       gradientUnits="userSpaceOnUse"
       gradientTransform="matrix(1.75,0,0,1.75,-1,-1)" />
    <linearGradient
       inkscape:collect="always"
       id="linearGradient1884">
      <stop
         style="stop-color:#1d1e1e;stop-opacity:1;"
         offset="0"
         id="stop1880" />
      <stop
         style="stop-color:#44484c;stop-opacity:1;"
         offset="1"
         id="stop1882" />
    </linearGradient>
    <linearGradient
       inkscape:collect="always"
       xlink:href="#linearGradient1884"
       id="linearGradient2026"
       x1="12"
       y1="9"
       x2="12"
       y2="7"
       gradientUnits="userSpaceOnUse"
       gradientTransform="matrix(2,0,0,2,-5.0000997,-3.9999994)" />
    <linearGradient
       inkscape:collect="always"
       xlink:href="#linearGradient1884"
       id="linearGradient2018"
       x1="12"
       y1="15"
       x2="12"
       y2="12"
       gradientUnits="userSpaceOnUse"
       gradientTransform="matrix(1.6666667,0,0,1.6666667,-2.0001002,-1.9999994)" />
    <linearGradient
       inkscape:collect="always"
       xlink:href="#linearGradient1884"
       id="linearGradient1886"
       x1="20.5"
       y1="19"
       x2="20.5"
       y2="15"
       gradientUnits="userSpaceOnUse"
       gradientTransform="matrix(1.5,0,0,1.5,-1.7500001,-1.4999995)" />
    <linearGradient
       inkscape:collect="always"
       xlink:href="#linearGradient6680"
       id="linearGradient6682"
       x1="16.999901"
       y1="12"
       x2="29.453125"
       y2="24.978516"
       gradientUnits="userSpaceOnUse"
       gradientTransform="scale(4)" />
    <linearGradient
       inkscape:collect="always"
       xlink:href="#linearGradient6680"
       id="linearGradient7607"
       x1="-1.5466361"
       y1="-20.613821"
       x2="-1.5466361"
       y2="-28.613821"
       gradientUnits="userSpaceOnUse"
       gradientTransform="translate(-0.43543331,0.03532488)" />
    <linearGradient
       inkscape:collect="always"
       xlink:href="#linearGradient6680"
       id="linearGradient8425"
       x1="1.0521072"
       y1="-25.146484"
       x2="1.0521072"
       y2="-33.146484"
       gradientUnits="userSpaceOnUse" />
    <linearGradient
       inkscape:collect="always"
       xlink:href="#linearGradient6680"
       id="linearGradient8433"
       x1="-3.6215606"
       y1="8.4850407"
       x2="-3.6215606"
       y2="17.485041"
       gradientUnits="userSpaceOnUse"
       gradientTransform="translate(-0.60523338,0.13459229)" />
  </defs>
  <path
     id="path563"
     style="opacity:0.2;fill:#000000;stroke-width:4;stroke-linecap:round;stroke-linejoin:round"
     d="M 52,9 C 15.595274,9 8,16.759304 8,53 v 24 c 0,36.2407 7.595274,44 44,44 h 24 c 36.40472,0 44,-7.7593 44,-44 V 53 C 120,16.759304 112.40472,9 76,9 Z" />
  <path
     id="path530"
     style="fill:url(#linearGradient2307);fill-opacity:1;stroke-width:4;stroke-linecap:round;stroke-linejoin:round"
     d="M 52,8 C 24.76375,8 13.65795,12.34702 9.7890624,29.710938 13.654546,58.842824 27.584254,62.774284 37.726564,73.6875 46.507368,85.695524 41.312084,99.914064 57.636368,106.37461 67.9996,109.40476 116,104.9118 118.5,96.851564 119.58018,91.25388 120,84.399716 120,76 V 52 C 120,15.75934 112.40469,8 76,8 Z M 9.7890624,29.710938 C 9.6263256,30.441316 9.47371,31.19165 9.3359376,31.96875 9.4738864,31.191456 9.6262664,30.44158 9.7890624,29.710938 Z M 9.3359376,31.96875 C 9.0919128,33.34516 8.8902032,34.80734 8.71875,36.335936 8.890652,34.808224 9.0917664,33.344568 9.3359376,31.96875 Z"
     sodipodi:nodetypes="sccccsssscccccc" />
  <path
     id="rect6454"
     style="opacity:0.2;fill:url(#linearGradient6682);fill-opacity:1;stroke-width:4;stroke-linecap:round;stroke-linejoin:round;paint-order:stroke fill markers"
     d="M 74.398436,43.203124 37.726564,87.109376 56.703124,120 H 76 c 31.81116,0 41.62373,-5.92605 43.59375,-31.601564 z" />
  <path
     id="path2212"
     style="fill:url(#linearGradient2299);fill-opacity:1;stroke-width:4;stroke-linecap:round;stroke-linejoin:round"
     d="M 9.7890624,29.710938 C 8.4866924,35.556088 8,42.872872 8,52 v 24 c 0,36.24066 7.595312,44 44,44 h 24 c 27.96696,0 38.91975,-4.59486 42.5,-23.148436 C 94.120408,94.491404 61.687912,89.719484 58.273436,81.179688 52.547444,66.8661 72.59096,64.001084 69.726564,49.6875 66.430084,34.90008 36.677264,30.673464 9.7890624,29.710938 Z" />
  <path
     id="path475"
     style="fill:#1d1e1e;stroke-width:4;fill-opacity:1"
     d="m 9.7968752,29.679688 c -0.0322,0.14408 -0.06254,0.291628 -0.093752,0.4375 C 33.928584,31.686074 63.82168,34.18652 66.921876,49.6875 c 2.861596,14.313584 -14.499432,17.0536 -8.77344,31.367188 4.567628,11.415444 35.363748,17.220836 59.664064,18.859376 0.39224,-1.493724 0.72403,-3.09666 1,-4.804688 C 98.407152,94.41116 65.40382,91.984972 61.078124,81.171876 55.352132,66.858288 72.58816,64.001084 69.726564,49.6875 66.365392,32.881652 39.51694,29.974148 9.7968752,29.679688 Z" />
  <g
     id="g8444"
     transform="scale(4)">
    <rect
       style="opacity:0.2;fill:url(#linearGradient8433);fill-opacity:1;stroke-linecap:round;stroke-linejoin:round;paint-order:stroke fill markers"
       id="rect6771"
       width="3.5"
       height="9"
       x="-4.2267942"
       y="8.6196327"
       transform="rotate(-45)" />
    <rect
       style="opacity:0.2;fill:url(#linearGradient8425);fill-opacity:1;stroke-linecap:round;stroke-linejoin:round;paint-order:stroke fill markers"
       id="rect6775"
       width="5"
       height="8"
       x="1.0521072"
       y="-33.146484"
       transform="rotate(135)" />
    <rect
       style="opacity:0.2;fill:url(#linearGradient7607);fill-opacity:1;stroke-linecap:round;stroke-linejoin:round;paint-order:stroke fill markers"
       id="rect6773"
       width="3.5"
       height="8"
       x="-4.9820695"
       y="-28.578497"
       transform="rotate(135)" />
  </g>
  <g
     id="g8439"
     transform="scale(4)">
    <circle
       style="fill:url(#linearGradient2034);fill-opacity:1;stroke-width:1.75;stroke-linecap:round;stroke-linejoin:round;paint-order:stroke fill markers"
       id="path350"
       cx="4.25"
       cy="7.75"
       r="1.75" />
    <circle
       style="fill:url(#linearGradient2026);fill-opacity:1;stroke-width:2;stroke-linecap:round;stroke-linejoin:round;paint-order:stroke fill markers"
       id="path906"
       cx="16.999901"
       cy="12"
       r="2" />
    <circle
       style="fill:url(#linearGradient2018);fill-opacity:1;stroke-width:1.66667;stroke-linecap:round;stroke-linejoin:round;paint-order:stroke fill markers"
       id="path908"
       cx="15.4999"
       cy="20.5"
       r="2.5" />
    <circle
       style="fill:url(#linearGradient1886);fill-opacity:1;stroke-width:1.5;stroke-linecap:round;stroke-linejoin:round;paint-order:stroke fill markers"
       id="path910"
       cx="26"
       cy="24"
       r="3" />
  </g>
  <g
     id="g2390"
     transform="scale(4)">
    <circle
       style="fill:#ffffff;stroke-width:3;stroke-linecap:round;stroke-linejoin:round;paint-order:stroke fill markers"
       id="path682"
       cx="4.25"
       cy="7.75"
       r="0.75" />
    <circle
       style="fill:#ffffff;stroke-width:1.5;stroke-linecap:round;stroke-linejoin:round;paint-order:stroke fill markers"
       id="path684"
       cx="17"
       cy="12"
       r="1" />
    <circle
       style="fill:#ffffff;stroke-width:0.999997;stroke-linecap:round;stroke-linejoin:round;paint-order:stroke fill markers"
       id="path686"
       cx="15.4999"
       cy="20.5"
       r="1.5" />
    <circle
       style="fill:#ffffff;stroke-width:1;stroke-linecap:round;stroke-linejoin:round;paint-order:stroke fill markers"
       id="path688"
       cx="26"
       cy="24"
       r="2" />
  </g>
</svg>
