<?xml version="1.0" encoding="UTF-8" standalone="no"?>
<!-- Created with Inkscape (http://www.inkscape.org/) -->

<svg
   width="128"
   height="128"
   viewBox="0 0 128 128"
   version="1.1"
   id="svg5"
   inkscape:version="1.2.1 (9c6d41e410, 2022-07-14)"
   sodipodi:docname="kmix.svg"
   xmlns:inkscape="http://www.inkscape.org/namespaces/inkscape"
   xmlns:sodipodi="http://sodipodi.sourceforge.net/DTD/sodipodi-0.dtd"
   xmlns:xlink="http://www.w3.org/1999/xlink"
   xmlns="http://www.w3.org/2000/svg"
   xmlns:svg="http://www.w3.org/2000/svg">
  <sodipodi:namedview
     id="namedview7"
     pagecolor="#ffffff"
     bordercolor="#000000"
     borderopacity="0.25"
     inkscape:showpageshadow="2"
     inkscape:pageopacity="0.0"
     inkscape:pagecheckerboard="0"
     inkscape:deskcolor="#d1d1d1"
     inkscape:document-units="px"
     showgrid="false"
     inkscape:zoom="6.078125"
     inkscape:cx="64"
     inkscape:cy="64"
     inkscape:window-width="1920"
     inkscape:window-height="999"
     inkscape:window-x="0"
     inkscape:window-y="0"
     inkscape:window-maximized="1"
     inkscape:current-layer="svg5"
     showguides="false" />
  <defs
     id="defs2">
    <linearGradient
       inkscape:collect="always"
       xlink:href="#linearGradient6542"
       id="linearGradient3500"
       x1="30"
       y1="30"
       x2="2"
       y2="2"
       gradientUnits="userSpaceOnUse"
       gradientTransform="scale(4)" />
    <linearGradient
       inkscape:collect="always"
       id="linearGradient6542">
      <stop
         style="stop-color:#9aafb9;stop-opacity:1;"
         offset="0"
         id="stop6538" />
      <stop
         style="stop-color:#688492;stop-opacity:1;"
         offset="1"
         id="stop6540" />
    </linearGradient>
  </defs>
  <path
     d="M 52,9 C 15.595238,9 8,16.759268 8,53 v 24 c 0,36.24073 7.595238,44 44,44 h 24 c 36.40476,0 44,-7.75927 44,-44 V 53 C 120,16.759268 112.40476,9 76,9"
     style="opacity:0.2;fill:#000000;stroke-width:4;stroke-linecap:round;stroke-linejoin:round"
     id="path563" />
  <path
     id="path530"
     style="fill:url(#linearGradient3500);fill-opacity:1;stroke-width:4;stroke-linecap:round;stroke-linejoin:round"
     d="M 52,8 C 15.595274,8 8,15.759304 8,52 v 24 c 0,36.2407 7.595274,44 44,44 h 24 c 36.40473,0 44,-7.7593 44,-44 V 52 C 120,15.759304 112.40473,8 76,8 Z" />
  <path
     id="path1855"
     style="fill:#ffffff;stroke-width:8;stroke-linecap:round"
     d="m 85.257812,32.568696 c -0.25892,-0.0324 -0.52166,-0.014 -0.773436,0.05468 -0.5136,0.13572 -0.952092,0.470232 -1.218752,0.929688 -0.55348,0.957712 -0.22444,2.182828 0.734376,2.734376 9.903592,5.71784 16,16.275256 16,27.710936 0,11.435684 -6.096404,21.9931 -16,27.710936 -0.958824,0.551548 -1.287856,1.776664 -0.734376,2.734376 0.551548,0.958824 1.776664,1.287856 2.734376,0.734376 11.13564,-6.429168 18,-18.321356 18,-31.179688 0,-12.858328 -6.86436,-24.75052 -18,-31.179688 -0.22852,-0.13144 -0.480736,-0.2164 -0.742188,-0.25 z M 60,33.998384 l -16,14 H 32 c -4.431982,0 -8,3.568016 -8,8 v 16 c 0,4.431976 3.568018,8 8,8 h 12 l 16,14 z m 13.734376,10.179688 c -0.805948,-0.06284 -1.570484,0.36564 -1.9375,1.085936 -0.499636,0.983824 -0.10808,2.186424 0.875,2.6875 C 78.706456,51.02628 82.5,57.217804 82.5,63.990572 c 0,6.772768 -3.793544,12.964288 -9.828124,16.03906 -0.983096,0.501076 -1.37464,1.703676 -0.875,2.687504 0.501076,0.983092 1.703676,1.374636 2.6875,0.875 C 81.851888,79.838196 86.5,72.259328 86.5,63.990572 c 0,-8.268756 -4.648112,-15.847628 -12.015624,-19.601564 -0.23376,-0.1188 -0.488592,-0.19044 -0.75,-0.21092 z"
     sodipodi:nodetypes="ccccscccsccccsssscccsccscccscss" />
</svg>
