<?xml version="1.0" encoding="UTF-8" standalone="no"?>
<!-- Created with Inkscape (http://www.inkscape.org/) -->

<svg
   width="128"
   height="128"
   viewBox="0 0 128 128"
   version="1.1"
   id="svg5"
   inkscape:version="1.2.1 (9c6d41e410, 2022-07-14)"
   sodipodi:docname="ktnef.svg"
   xmlns:inkscape="http://www.inkscape.org/namespaces/inkscape"
   xmlns:sodipodi="http://sodipodi.sourceforge.net/DTD/sodipodi-0.dtd"
   xmlns:xlink="http://www.w3.org/1999/xlink"
   xmlns="http://www.w3.org/2000/svg"
   xmlns:svg="http://www.w3.org/2000/svg">
  <sodipodi:namedview
     id="namedview7"
     pagecolor="#ffffff"
     bordercolor="#000000"
     borderopacity="0.25"
     inkscape:showpageshadow="2"
     inkscape:pageopacity="0.0"
     inkscape:pagecheckerboard="0"
     inkscape:deskcolor="#d1d1d1"
     inkscape:document-units="px"
     showgrid="false"
     inkscape:zoom="6.25"
     inkscape:cx="63.92"
     inkscape:cy="64"
     inkscape:window-width="1920"
     inkscape:window-height="1006"
     inkscape:window-x="0"
     inkscape:window-y="0"
     inkscape:window-maximized="1"
     inkscape:current-layer="svg5" />
  <defs
     id="defs2">
    <linearGradient
       inkscape:collect="always"
       id="linearGradient3788">
      <stop
         style="stop-color:#ffcf41;stop-opacity:1;"
         offset="0"
         id="stop3784" />
      <stop
         style="stop-color:#f98d00;stop-opacity:1;"
         offset="1"
         id="stop3786" />
    </linearGradient>
    <linearGradient
       inkscape:collect="always"
       xlink:href="#linearGradient3788"
       id="linearGradient4780"
       x1="30"
       y1="30"
       x2="2"
       y2="2"
       gradientUnits="userSpaceOnUse"
       gradientTransform="scale(4)" />
  </defs>
  <path
     d="M 52,9 C 15.595238,9 8,16.759268 8,53 v 24 c 0,36.24073 7.595238,44 44,44 h 24 c 36.40476,0 44,-7.75927 44,-44 V 53 C 120,16.759268 112.40476,9 76,9"
     style="opacity:0.2;fill:#000000;stroke-width:4;stroke-linecap:round;stroke-linejoin:round"
     id="path563" />
  <path
     id="path530"
     style="fill:url(#linearGradient4780);fill-opacity:1;stroke-width:4;stroke-linecap:round;stroke-linejoin:round"
     d="M 52,8 C 15.595274,8 8,15.759304 8,52 v 24 c 0,36.2407 7.595274,44 44,44 h 24 c 36.40473,0 44,-7.7593 44,-44 V 52 C 120,15.759304 112.40473,8 76,8 Z" />
  <path
     id="rect950"
     style="fill:#ffffff;stroke-width:4.27616;stroke-linecap:round"
     d="m 30.644684,69.071068 c -7.029556,7.029302 -7.02943,18.426414 0,25.455844 7.02943,7.029428 18.426416,7.029428 25.455844,0 L 98.526936,52.100506 c 5.467334,-5.467336 5.467334,-14.331656 0,-19.79899 -5.467336,-5.467336 -14.331656,-5.467334 -19.79899,0 L 40.54418,70.485282 c -3.905238,3.905236 -3.905238,10.236898 0,14.142134 3.905236,3.905238 10.236898,3.905238 14.142134,0 L 88.62744,50.686292 a 2,2 0 0 0 0,-2.828428 2,2 0 0 0 -2.828428,0 L 51.857888,81.79899 c -2.343186,2.343098 -6.14214,2.343142 -8.485282,0 -2.343142,-2.343142 -2.343142,-6.14214 0,-8.485282 L 81.556372,35.129942 c 3.90524,-3.905238 10.236896,-3.90524 14.142136,0 3.905238,3.905236 3.905238,10.236896 0,14.142136 L 53.272102,91.698484 c -5.467336,5.467334 -14.331656,5.467334 -19.79899,0 -5.467334,-5.467334 -5.467334,-14.331654 0,-19.79899 L 68.82845,36.544156 a 2,2 0 0 0 0,-2.828428 2,2 0 0 0 -2.828426,0 z" />
</svg>
