<?xml version="1.0" encoding="UTF-8" standalone="no"?>
<!-- Created with Inkscape (http://www.inkscape.org/) -->

<svg
   width="128"
   height="128"
   viewBox="0 0 128 128"
   version="1.1"
   id="svg5"
   inkscape:version="1.2.1 (9c6d41e410, 2022-07-14)"
   sodipodi:docname="libreoffice-draw.svg"
   xmlns:inkscape="http://www.inkscape.org/namespaces/inkscape"
   xmlns:sodipodi="http://sodipodi.sourceforge.net/DTD/sodipodi-0.dtd"
   xmlns:xlink="http://www.w3.org/1999/xlink"
   xmlns="http://www.w3.org/2000/svg"
   xmlns:svg="http://www.w3.org/2000/svg">
  <sodipodi:namedview
     id="namedview7"
     pagecolor="#ffffff"
     bordercolor="#000000"
     borderopacity="0.25"
     inkscape:showpageshadow="2"
     inkscape:pageopacity="0.0"
     inkscape:pagecheckerboard="0"
     inkscape:deskcolor="#d1d1d1"
     inkscape:document-units="px"
     showgrid="false"
     inkscape:zoom="6.390625"
     inkscape:cx="63.92176"
     inkscape:cy="64"
     inkscape:window-width="1920"
     inkscape:window-height="1004"
     inkscape:window-x="0"
     inkscape:window-y="0"
     inkscape:window-maximized="1"
     inkscape:current-layer="svg5"
     showguides="false" />
  <defs
     id="defs2">
    <linearGradient
       inkscape:collect="always"
       xlink:href="#linearGradient16449"
       id="linearGradient3500"
       x1="2"
       y1="2"
       x2="30"
       y2="30"
       gradientUnits="userSpaceOnUse"
       gradientTransform="scale(4)" />
    <linearGradient
       inkscape:collect="always"
       id="linearGradient16449">
      <stop
         style="stop-color:#ee9b00;stop-opacity:1;"
         offset="0"
         id="stop16445" />
      <stop
         style="stop-color:#eece00;stop-opacity:1;"
         offset="1"
         id="stop16447" />
    </linearGradient>
  </defs>
  <path
     d="M 52,9 C 15.595238,9 8,16.759268 8,53 v 24 c 0,36.24073 7.595238,44 44,44 h 24 c 36.40476,0 44,-7.75927 44,-44 V 53 C 120,16.759268 112.40476,9 76,9"
     style="opacity:0.2;fill:#000000;stroke-width:4;stroke-linecap:round;stroke-linejoin:round"
     id="path563" />
  <path
     id="path530"
     style="fill:url(#linearGradient3500);fill-opacity:1;stroke-width:4;stroke-linecap:round;stroke-linejoin:round"
     d="M 52,8 C 15.595274,8 8,15.759304 8,52 v 24 c 0,36.2407 7.595274,44 44,44 h 24 c 36.40473,0 44,-7.7593 44,-44 V 52 C 120,15.759304 112.40473,8 76,8 Z"
     sodipodi:nodetypes="sssssssss" />
  <path
     id="path782"
     style="fill:#f2f2f2;fill-opacity:1;stroke-width:4;stroke-linecap:round;stroke-linejoin:round"
     d="M 52,16 C 22.101826,16 16,22.240622 16,52 v 24 c 0,29.75938 6.101826,36 36,36 h 24 c 29.89818,0 36,-6.24062 36,-36 V 48 L 80,16 Z"
     sodipodi:nodetypes="ssssssccs" />
  <path
     d="m 82.28932,44.462592 c -2.42578,1.351868 -3.336908,3.998696 -3.468752,6.484376 -0.13184,2.48568 0.32044,5.113328 0.726564,7.64844 0.406116,2.535108 0.760356,4.97478 0.648436,6.734372 -0.11192,1.759592 -0.453164,2.524164 -1.445312,3.02344 -0.807736,0.406468 -1.270612,0.428592 -1.72656,0.32812 -0.455948,-0.10048 -0.992928,-0.39692 -1.632816,-1 -1.279772,-1.206148 -2.740992,-3.545176 -4.406248,-6.046872 -1.665256,-2.501696 -3.575576,-5.199176 -6.257808,-7.132812 -2.682236,-1.933636 -6.254872,-2.96082 -10.421872,-2.015624 l -0.0392,0.008 -0.0392,0.0156 c -2.746532,0.740436 -4.747816,2.8993 -6.140628,5.52344 -1.392808,2.624136 -2.258748,5.815048 -2.679684,9.203124 -0.05528,0.444916 0.04832,0.908708 0.008,1.359372 -0.937072,-0.0642 -1.730192,-0.38576 -2.679688,-0.406248 h -0.008 l -4.640632,-0.10156 -2,-0.0392 -0.08592,4 2,0.0392 4.64844,0.10156 c 1.018948,0.022 1.808236,0.34552 2.804684,0.421876 0.06012,5.156248 0.792548,10.293764 3.171876,14.125 l 0.0392,0.06252 0.04688,0.05468 c 3.57758,4.90418 9.75398,6.105356 14.234376,4.117184 2.2402,-0.994084 4.113024,-2.927732 4.695312,-5.531248 0.58228,-2.603516 -0.12504,-5.644836 -2.210936,-8.867188 -1.987984,-3.071068 -5.396808,-5.048996 -9.375,-6.351564 -1.986816,-0.650536 -4.415112,-0.683392 -6.656252,-1.015624 0.038,-0.49126 -0.08324,-0.995288 -0.0236,-1.47656 0.37488,-3.017472 1.168076,-5.79662 2.242188,-7.820312 1.067108,-2.0105 2.330544,-3.156064 3.625,-3.515628 3.121076,-0.690892 5.202272,-0.038 7.140624,1.359376 1.953068,1.407972 3.663432,3.694616 5.26562,6.101564 1.602188,2.406948 3.055368,4.901616 5,6.734372 0.97232,0.91638 2.12172,1.692844 3.515628,2 1.393904,0.30716 2.945268,0.07108 4.390624,-0.656248 2.480252,-1.248124 3.476036,-3.878812 3.632812,-6.343752 0.15676,-2.46494 -0.2886,-5.086164 -0.695312,-7.625 -0.406712,-2.538836 -0.775688,-4.994736 -0.679688,-6.804684 0.096,-1.809952 0.456972,-2.665392 1.421876,-3.203128 -0.04512,0.0252 0.20652,-0.0698 0.906248,0.21876 0.699728,0.28856 1.636828,0.891876 2.5,1.570312 1.726356,1.356868 3.171876,2.945312 3.171876,2.945312 l 1.343748,1.484376 2.968752,-2.679688 -1.343752,-1.484376 c 0,0 -1.610196,-1.793636 -3.671868,-3.41406 -1.03084,-0.810216 -2.16954,-1.594292 -3.4375,-2.117188 -1.26796,-0.5229 -2.878556,-0.85418 -4.382812,-0.0156 z M 49.461196,73.220404 c 1.7833,0.29572 3.829688,0.3064 5.351564,0.804688 3.4595,1.132732 6.013612,2.784624 7.265624,4.718752 1.693692,2.616444 1.951004,4.537344 1.664068,5.820312 -0.28696,1.282968 -1.111984,2.168736 -2.421876,2.75 -2.602452,1.154832 -6.873444,0.51146 -9.320312,-2.773436 -1.6714,-2.729428 -2.361548,-6.962824 -2.539068,-11.320316 z"
     style="color:#000000;fill:#797979;fill-opacity:1;stroke-width:4;stroke-linecap:square"
     id="path17715" />
</svg>
