<?xml version="1.0" encoding="UTF-8" standalone="no"?>
<!-- Created with Inkscape (http://www.inkscape.org/) -->

<svg
   width="128"
   height="128"
   viewBox="0 0 128 128"
   version="1.1"
   id="svg5"
   inkscape:version="1.2.1 (9c6d41e410, 2022-07-14)"
   sodipodi:docname="libreoffice-base.svg"
   xmlns:inkscape="http://www.inkscape.org/namespaces/inkscape"
   xmlns:sodipodi="http://sodipodi.sourceforge.net/DTD/sodipodi-0.dtd"
   xmlns:xlink="http://www.w3.org/1999/xlink"
   xmlns="http://www.w3.org/2000/svg"
   xmlns:svg="http://www.w3.org/2000/svg">
  <sodipodi:namedview
     id="namedview7"
     pagecolor="#ffffff"
     bordercolor="#000000"
     borderopacity="0.25"
     inkscape:showpageshadow="2"
     inkscape:pageopacity="0.0"
     inkscape:pagecheckerboard="0"
     inkscape:deskcolor="#d1d1d1"
     inkscape:document-units="px"
     showgrid="false"
     inkscape:zoom="6.390625"
     inkscape:cx="63.92176"
     inkscape:cy="64"
     inkscape:window-width="1920"
     inkscape:window-height="1004"
     inkscape:window-x="0"
     inkscape:window-y="0"
     inkscape:window-maximized="1"
     inkscape:current-layer="svg5"
     showguides="false" />
  <defs
     id="defs2">
    <linearGradient
       inkscape:collect="always"
       xlink:href="#linearGradient3523"
       id="linearGradient3500"
       x1="2"
       y1="2"
       x2="30"
       y2="30"
       gradientUnits="userSpaceOnUse"
       gradientTransform="scale(4)" />
    <linearGradient
       inkscape:collect="always"
       id="linearGradient3523">
      <stop
         style="stop-color:#af3b72;stop-opacity:1;"
         offset="0"
         id="stop3519" />
      <stop
         style="stop-color:#e578ad;stop-opacity:1;"
         offset="1"
         id="stop3521" />
    </linearGradient>
  </defs>
  <path
     d="M 52,9 C 15.595238,9 8,16.759268 8,53 v 24 c 0,36.24073 7.595238,44 44,44 h 24 c 36.40476,0 44,-7.75927 44,-44 V 53 C 120,16.759268 112.40476,9 76,9"
     style="opacity:0.2;fill:#000000;stroke-width:4;stroke-linecap:round;stroke-linejoin:round"
     id="path563" />
  <path
     id="path530"
     style="fill:url(#linearGradient3500);fill-opacity:1;stroke-width:4;stroke-linecap:round;stroke-linejoin:round"
     d="M 52,8 C 15.595274,8 8,15.759304 8,52 v 24 c 0,36.2407 7.595274,44 44,44 h 24 c 36.40473,0 44,-7.7593 44,-44 V 52 C 120,15.759304 112.40473,8 76,8 Z"
     sodipodi:nodetypes="sssssssss" />
  <path
     id="path782"
     style="fill:#f2f2f2;fill-opacity:1;stroke-width:4;stroke-linecap:round;stroke-linejoin:round"
     d="M 52,16 C 22.101826,16 16,22.240622 16,52 v 24 c 0,29.75938 6.101826,36 36,36 h 24 c 29.89818,0 36,-6.24062 36,-36 V 48 L 80,16 Z"
     sodipodi:nodetypes="ssssssccs" />
  <path
     id="path935"
     style="fill:#808080;stroke-width:16.0997;stroke-linecap:round;stroke-linejoin:round"
     d="M 64,38 A 24,12 0 0 0 40,50 24,12 0 0 0 64,62 24,12 0 0 0 88,50 24,12 0 0 0 64,38 Z M 85.234376,60.406248 A 28,16 0 0 1 64,66 28,16 0 0 1 42.804688,60.4375 24,12 0 0 0 40,66 24,12 0 0 0 64,78 24,12 0 0 0 88,66 24,12 0 0 0 85.234376,60.406248 Z m -0.0236,15.984376 A 28,16 0 0 1 64,82 28,16 0 0 1 42.8125,76.406248 24,12 0 0 0 40,82 24,12 0 0 0 64,94 24,12 0 0 0 88,82 24,12 0 0 0 85.210936,76.390624 Z" />
</svg>
