<?xml version="1.0" encoding="UTF-8" standalone="no"?>
<!-- Created with Inkscape (http://www.inkscape.org/) -->

<svg
   width="128"
   height="128"
   viewBox="0 0 128 128"
   version="1.1"
   id="svg5"
   inkscape:version="1.2.1 (9c6d41e410, 2022-07-14)"
   sodipodi:docname="microsoft-edge-beta.svg"
   xmlns:inkscape="http://www.inkscape.org/namespaces/inkscape"
   xmlns:sodipodi="http://sodipodi.sourceforge.net/DTD/sodipodi-0.dtd"
   xmlns:xlink="http://www.w3.org/1999/xlink"
   xmlns="http://www.w3.org/2000/svg"
   xmlns:svg="http://www.w3.org/2000/svg">
  <sodipodi:namedview
     id="namedview7"
     pagecolor="#ffffff"
     bordercolor="#000000"
     borderopacity="0.25"
     inkscape:showpageshadow="2"
     inkscape:pageopacity="0.0"
     inkscape:pagecheckerboard="0"
     inkscape:deskcolor="#d1d1d1"
     inkscape:document-units="px"
     showgrid="false"
     inkscape:zoom="6.1875"
     inkscape:cx="64"
     inkscape:cy="64"
     inkscape:window-width="1920"
     inkscape:window-height="1004"
     inkscape:window-x="0"
     inkscape:window-y="0"
     inkscape:window-maximized="1"
     inkscape:current-layer="svg5"
     showguides="false" />
  <defs
     id="defs2">
    <linearGradient
       inkscape:collect="always"
       xlink:href="#linearGradient2180"
       id="linearGradient1833"
       x1="6.5871072"
       y1="15.827564"
       x2="20.517012"
       y2="15.827564"
       gradientUnits="userSpaceOnUse" />
    <linearGradient
       inkscape:collect="always"
       id="linearGradient2180">
      <stop
         style="stop-color:#0c59a4;stop-opacity:1;"
         offset="0"
         id="stop2176" />
      <stop
         style="stop-color:#114a8b;stop-opacity:1;"
         offset="1"
         id="stop2178" />
    </linearGradient>
    <radialGradient
       inkscape:collect="always"
       xlink:href="#linearGradient27818"
       id="radialGradient1823"
       cx="13.964947"
       cy="15.070184"
       fx="13.964947"
       fy="15.070184"
       r="6.9649525"
       gradientTransform="matrix(0.00133244,0.84210075,-1.150171,0.00181993,31.545253,4.3477182)"
       gradientUnits="userSpaceOnUse" />
    <linearGradient
       inkscape:collect="always"
       id="linearGradient27818">
      <stop
         style="stop-color:#000000;stop-opacity:0;"
         offset="0.72000003"
         id="stop27812" />
      <stop
         style="stop-color:#000000;stop-opacity:0.5;"
         offset="0.94999999"
         id="stop27814" />
      <stop
         style="stop-color:#000000;stop-opacity:1"
         offset="1"
         id="stop27816" />
    </linearGradient>
    <linearGradient
       inkscape:collect="always"
       xlink:href="#linearGradient1748"
       id="linearGradient1841"
       x1="13.139339"
       y1="8.2946587"
       x2="5.5388999"
       y2="19.625275"
       gradientUnits="userSpaceOnUse" />
    <linearGradient
       inkscape:collect="always"
       id="linearGradient1748">
      <stop
         style="stop-color:#1b9ed2;stop-opacity:1;"
         offset="0"
         id="stop1744" />
      <stop
         style="stop-color:#1595df;stop-opacity:1;"
         offset="0.15000001"
         id="stop1752" />
      <stop
         style="stop-color:#0680df;stop-opacity:1;"
         offset="0.67000002"
         id="stop1754" />
      <stop
         style="stop-color:#0078d4;stop-opacity:1;"
         offset="1"
         id="stop1746" />
    </linearGradient>
    <radialGradient
       inkscape:collect="always"
       xlink:href="#linearGradient1360"
       id="radialGradient1815"
       cx="7.720675"
       cy="15.910741"
       fx="7.720675"
       fy="15.910741"
       r="6.5812793"
       gradientTransform="matrix(1.3946929,0.46534247,-0.50264665,1.5064984,3.8924491,-10.936195)"
       gradientUnits="userSpaceOnUse" />
    <linearGradient
       inkscape:collect="always"
       id="linearGradient1360">
      <stop
         style="stop-color:#000000;stop-opacity:0;"
         offset="0.75"
         id="stop1356" />
      <stop
         style="stop-color:#000000;stop-opacity:0.49803922;"
         offset="0.94999999"
         id="stop1364" />
      <stop
         style="stop-color:#000000;stop-opacity:1;"
         offset="1"
         id="stop1358" />
    </linearGradient>
    <radialGradient
       inkscape:collect="always"
       xlink:href="#linearGradient1290"
       id="radialGradient1805"
       cx="18.083834"
       cy="14.548402"
       fx="18.083834"
       fy="14.548402"
       r="9.9997654"
       gradientTransform="matrix(-2.7997325,-0.01668205,0.00863725,-1.4495504,54.590382,27.273247)"
       gradientUnits="userSpaceOnUse" />
    <linearGradient
       inkscape:collect="always"
       id="linearGradient1290">
      <stop
         style="stop-color:#35c1f1;stop-opacity:1;"
         offset="0"
         id="stop1286" />
      <stop
         style="stop-color:#34c1ed;stop-opacity:1;"
         offset="0.1"
         id="stop1294" />
      <stop
         style="stop-color:#2fc2df;stop-opacity:1;"
         offset="0.23"
         id="stop1296" />
      <stop
         style="stop-color:#2bc3d2;stop-opacity:1;"
         offset="0.30000001"
         id="stop1298" />
      <stop
         style="stop-color:#36c752;stop-opacity:1;"
         offset="1"
         id="stop1288" />
    </linearGradient>
    <radialGradient
       inkscape:collect="always"
       xlink:href="#linearGradient1280"
       id="radialGradient1624"
       cx="0.61833256"
       cy="6.561069"
       fx="0.61833256"
       fy="6.561069"
       r="9.9997663"
       gradientTransform="matrix(-0.70510525,0.15923948,-0.20485941,-0.90710844,21.867116,14.51222)"
       gradientUnits="userSpaceOnUse" />
    <linearGradient
       inkscape:collect="always"
       id="linearGradient1280">
      <stop
         style="stop-color:#66eb6e;stop-opacity:1;"
         offset="0"
         id="stop1276" />
      <stop
         style="stop-color:#66eb6e;stop-opacity:0;"
         offset="1"
         id="stop1278" />
    </linearGradient>
  </defs>
  <path
     d="M 52,9 C 15.595238,9 8,16.759268 8,53 v 24 c 0,36.24073 7.595238,44 44,44 h 24 c 36.40476,0 44,-7.75927 44,-44 V 53 C 120,16.759268 112.40476,9 76,9"
     style="opacity:0.2;fill:#000000;stroke-width:4;stroke-linecap:round;stroke-linejoin:round"
     id="path563" />
  <path
     id="path533"
     style="fill:#fafafa;fill-opacity:1;stroke-width:4;stroke-linecap:round;stroke-linejoin:round"
     d="M 52,8 C 15.595274,8 8,15.759304 8,52 v 24 c 0,36.2407 7.595274,44 44,44 h 24 c 36.40473,0 44,-7.7593 44,-44 V 52 C 120,15.759304 112.40473,8 76,8 Z" />
  <g
     id="g1849"
     transform="matrix(4.0000936,0,0,4.0000936,15.999814,16.000472)">
    <path
       d="m 20.050795,16.882888 c -0.958269,0.942903 -2.444763,1.166719 -3.627814,1.172531 -3.696557,0 -6.916594,-2.842616 -6.916594,-6.105452 0.0096,-0.891127 0.50068,-1.707299 1.283484,-2.133303 -3.343463,0.1406058 -4.202764,3.624506 -4.202764,5.665634 0,5.771088 5.319074,6.356165 6.46507,6.356165 0.617916,0 1.549867,-0.179663 2.109194,-0.356201 l 0.102335,-0.03437 c 2.152349,-0.744046 3.987241,-2.198662 5.202678,-4.124437 0.17359,-0.273484 -0.13243,-0.597894 -0.415589,-0.440565 z"
       style="fill:url(#linearGradient1833);fill-opacity:1"
       id="path396" />
    <path
       d="m 20.050795,16.882888 c -0.95827,0.942903 -2.444764,1.166718 -3.627814,1.17253 -3.696557,0 -6.9165945,-2.842615 -6.9165945,-6.105451 0.0096,-0.891127 0.5006805,-1.707299 1.2834845,-2.133303 -3.3434635,0.140605 -4.2027645,3.624506 -4.2027645,5.665633 0,5.771089 5.3190745,6.356165 6.4650705,6.356165 0.617916,0 1.549867,-0.179663 2.109194,-0.356201 l 0.102335,-0.03437 c 2.152349,-0.744046 3.987241,-2.198662 5.202678,-4.124438 0.17359,-0.273483 -0.13243,-0.597894 -0.415589,-0.440565 z"
       style="opacity:0.35;fill:url(#radialGradient1823);fill-opacity:1"
       id="path358" />
    <path
       d="M 9.9595242,20.857346 C 9.2627585,20.424906 8.6589187,19.858271 8.1831143,19.190385 5.8743683,16.027408 7.2768803,11.547082 10.78987,9.8166639 c 0.243729,-0.1148283 0.6601,-0.3226124 1.213959,-0.3124571 0.791026,0.00576 1.533718,0.381567 2.006858,1.0154862 0.31546,0.42118 0.48939,0.931457 0.496832,1.457614 0,-0.0164 1.910774,-6.2179025 -6.2494627,-6.2179025 -3.429393,0 -6.249463,3.2542438 -6.249463,6.1093235 -0.01353,1.510299 0.30964,3.004638 0.946012,4.374403 2.152757,4.592979 7.4037987,6.846334 12.2161387,5.242254 -1.647439,0.519401 -3.739664,0.291021 -5.2041889,-0.624915 z"
       style="fill:url(#linearGradient1841);fill-opacity:1"
       id="path434" />
    <path
       d="M 9.9595239,20.857346 C 9.2627582,20.424907 8.6589184,19.858271 8.183114,19.190386 5.8743676,16.027408 7.2768798,11.547081 10.78987,9.8166642 c 0.243729,-0.1148289 0.6601,-0.3226127 1.213959,-0.3124579 0.791026,0.0058 1.533718,0.3815679 2.006858,1.0154867 0.31546,0.421179 0.48939,0.931456 0.496832,1.457614 0,-0.0164 1.910774,-6.2179025 -6.2494627,-6.2179025 -3.429393,0 -6.2494633,3.2542437 -6.2494633,6.1093235 -0.01353,1.510299 0.30964,3.004638 0.946012,4.374403 2.1527571,4.592979 7.403799,6.846334 12.216139,5.242254 -1.647439,0.519402 -3.739664,0.291022 -5.2041892,-0.624915 z"
       style="opacity:0.45;fill:url(#radialGradient1815);fill-opacity:1"
       id="path472" />
    <path
       d="m 13.899759,13.327232 c -0.06327,0.08202 -0.25779,0.195285 -0.25779,0.442127 0,0.203878 0.132801,0.399945 0.368718,0.564767 1.123341,0.781143 3.241128,0.678032 3.246597,0.678032 0.83237,-0.002 1.648964,-0.227245 2.36464,-0.652255 1.469068,-0.85774 2.373654,-2.129763 2.377139,-3.830836 C 22.019373,8.7785245 21.374117,7.6146207 21.113202,7.0990658 19.457875,3.8612261 15.884745,1.9989799 11.999141,1.9989799 6.531218,1.9984394 2.076893,6.3899039 2,11.857011 2.0375,9.0027127 4.874753,6.4975594 8.249464,6.4975594 c 0.273413,0 1.832655,0.026559 3.280968,0.7866116 1.276452,0.6702208 1.945145,1.6794846 2.409949,2.4817188 0.675573,1.2746672 0.704647,2.5882402 -0.04062,3.5613422 z"
       style="fill:url(#radialGradient1805);fill-opacity:1"
       id="path510" />
    <path
       d="m 13.899759,13.327232 c -0.06327,0.08202 -0.25779,0.195285 -0.25779,0.442127 0,0.203878 0.132801,0.399945 0.368718,0.564767 1.123341,0.781143 3.241128,0.678032 3.246597,0.678032 0.83237,-0.002 1.648964,-0.227244 2.36464,-0.652255 1.469068,-0.85774 2.373654,-2.129763 2.377139,-3.830836 C 22.019373,8.7785247 21.374117,7.6146209 21.113202,7.099066 19.457875,3.8612261 15.884745,1.9989799 11.999141,1.9989799 6.5312175,1.9984394 2.0768925,6.3899041 1.9999998,11.857011 2.0374965,9.0027129 4.8747529,6.4975596 8.249463,6.4975596 c 0.273414,0 1.832656,0.026559 3.280969,0.7866116 1.276452,0.6702208 1.945145,1.6794846 2.409949,2.4817185 0.675573,1.2746673 0.704647,2.5882413 -0.04062,3.5613423 z"
       style="opacity:1;fill:url(#radialGradient1624);fill-opacity:1"
       id="path548" />
  </g>
  <rect
     style="fill:#50e6ff;fill-opacity:1;stroke-width:4.151;stroke-linecap:round;stroke-linejoin:round"
     id="rect378"
     width="60"
     height="24"
     x="44"
     y="80"
     ry="4" />
  <path
     d="m 52,85.3429 v 13.314424 h 5.113176 c 1.510332,0 2.70288,-0.35436 3.575652,-1.066196 0.87276,-0.718052 1.309992,-1.686628 1.309992,-2.90604 0,-0.835632 -0.28548,-1.544036 -0.854924,-2.125884 -0.563248,-0.581812 -1.318612,-0.932312 -2.265656,-1.049932 v -0.0392 c 0.755208,-0.2104 1.373276,-0.582904 1.856088,-1.12146 0.489016,-0.538528 0.734616,-1.167312 0.734616,-1.885336 0,-0.99038 -0.39772,-1.756708 -1.19622,-2.30142 -0.79848,-0.544776 -1.940552,-0.819184 -3.42612,-0.819184 z m 12.189708,0 v 13.314424 h 7.983464 v -2.431448 h -4.98316 v -3.0458 h 4.352536 v -2.431448 h -4.352536 v -2.964532 h 4.677596 V 85.3429 Z m 9.052896,0 v 2.441196 h 3.777188 v 10.873228 h 3.010056 V 87.784096 h 3.796688 V 85.3429 Z m 14.46514,0 -4.846624,13.314424 h 3.25058 l 0.936164,-2.961296 h 4.73612 l 0.945924,2.961296 H 96 L 91.263888,85.3429 Z m -32.710696,2.210396 h 1.124704 c 1.460816,0 2.190904,0.488036 2.190904,1.466016 0,0.526108 -0.18064,0.941664 -0.53962,1.244984 -0.3528,0.29708 -0.83728,0.445384 -1.456268,0.445384 h -1.31974 z m 34.371748,0.1658 h 0.07504 c 0.04304,0.464236 0.119,0.865172 0.22436,1.199468 l 1.430268,4.47606 h -3.410208 l 1.449712,-4.515048 c 0.12364,-0.38372 0.19984,-0.770484 0.23084,-1.160456 z m -34.371748,5.220456 h 1.644796 c 0.693256,0 1.231764,0.1518 1.615544,0.455084 0.38992,0.30332 0.585104,0.719148 0.585104,1.251488 0,0.557016 -0.19868,0.997836 -0.594904,1.319736 -0.38992,0.32184 -0.932028,0.481064 -1.625288,0.481064 h -1.625292 z"
     style="font-weight:bold;font-size:3.02297px;line-height:1.25;font-family:'Segoe UI';-inkscape-font-specification:'Segoe UI Bold';stroke-width:0.713072"
     id="path10318" />
</svg>
