<?xml version="1.0" encoding="UTF-8" standalone="no"?>
<!-- Created with Inkscape (http://www.inkscape.org/) -->

<svg
   width="128"
   height="128"
   viewBox="0 0 128 128"
   version="1.1"
   id="svg5"
   inkscape:version="1.2.1 (9c6d41e410, 2022-07-14)"
   sodipodi:docname="org.kde.spacebar.svg"
   xmlns:inkscape="http://www.inkscape.org/namespaces/inkscape"
   xmlns:sodipodi="http://sodipodi.sourceforge.net/DTD/sodipodi-0.dtd"
   xmlns:xlink="http://www.w3.org/1999/xlink"
   xmlns="http://www.w3.org/2000/svg"
   xmlns:svg="http://www.w3.org/2000/svg">
  <sodipodi:namedview
     id="namedview7"
     pagecolor="#ffffff"
     bordercolor="#000000"
     borderopacity="0.25"
     inkscape:showpageshadow="2"
     inkscape:pageopacity="0.0"
     inkscape:pagecheckerboard="0"
     inkscape:deskcolor="#d1d1d1"
     inkscape:document-units="px"
     showgrid="false"
     inkscape:zoom="6.25"
     inkscape:cx="63.92"
     inkscape:cy="64"
     inkscape:window-width="1920"
     inkscape:window-height="1011"
     inkscape:window-x="0"
     inkscape:window-y="32"
     inkscape:window-maximized="1"
     inkscape:current-layer="svg5" />
  <defs
     id="defs2">
    <linearGradient
       inkscape:collect="always"
       xlink:href="#linearGradient1396"
       id="linearGradient4780"
       x1="30"
       y1="30"
       x2="2"
       y2="2"
       gradientUnits="userSpaceOnUse"
       gradientTransform="scale(4.0000001)" />
    <linearGradient
       inkscape:collect="always"
       id="linearGradient1396">
      <stop
         style="stop-color:#9fbfe8;stop-opacity:1;"
         offset="0"
         id="stop1392" />
      <stop
         style="stop-color:#3c7ee5;stop-opacity:1;"
         offset="1"
         id="stop1394" />
    </linearGradient>
  </defs>
  <path
     d="M 52,9 C 15.595238,9 8,16.759268 8,53 v 24 c 0,36.24073 7.595238,44 44,44 h 24 c 36.40476,0 44,-7.75927 44,-44 V 53 C 120,16.759268 112.40476,9 76,9"
     style="opacity:0.2;fill:#000000;stroke-width:4;stroke-linecap:round;stroke-linejoin:round"
     id="path563" />
  <path
     id="path530"
     style="fill:url(#linearGradient4780);fill-opacity:1;stroke-width:4;stroke-linecap:round;stroke-linejoin:round"
     d="M 52,8 C 15.595274,8 8,15.759304 8,52 v 24 c 0,36.2407 7.595274,44 44,44 h 24 c 36.40473,0 44,-7.7593 44,-44 V 52 C 120,15.759304 112.40473,8 76,8 Z" />
  <rect
     style="opacity:0.2;fill:#ffffff;stroke-width:7.2108"
     id="rect1398"
     width="40"
     height="45.270054"
     x="44"
     y="36" />
  <path
     id="rect1798"
     style="fill:#ffffff;stroke-width:16;stroke-linecap:round;stroke-linejoin:round"
     d="m 36,32 c -4.431988,0 -8,3.568012 -8,8 v 59 c 0.0292,2.8215 2.882222,4.23207 4.828124,1.83203 L 48,84 h 44 c 4.43198,0 8,-3.56802 8,-8 V 40 c 0,-4.431988 -3.56802,-8 -8,-8 z m 28.050782,8 c 0.779354,0.0018 1.486712,0.456068 1.8125,1.164062 l 4.421874,9.625 10.015626,1.492188 c 1.624854,0.23968 2.284306,2.227186 1.125,3.390626 l -7.367188,7.406248 1.742188,10.593752 c 0.279158,1.66185 -1.495912,2.903006 -2.960938,2.070312 l -8.890626,-5.015626 -8.914062,5.015626 c -1.466642,0.825626 -3.235112,-0.418856 -2.953124,-2.078126 L 53.902344,63.023438 46.574218,55.546876 C 45.42292,54.37544 46.09613,52.392446 47.722656,52.164062 l 10.03125,-1.429686 4.476562,-9.578126 C 62.559748,40.448738 63.27041,39.997316 64.050782,40 Z" />
</svg>
