<?xml version="1.0" encoding="UTF-8" standalone="no"?>
<!-- Created with Inkscape (http://www.inkscape.org/) -->

<svg
   width="128"
   height="128"
   viewBox="0 0 128 128"
   version="1.1"
   id="svg5"
   inkscape:version="1.2.1 (9c6d41e410, 2022-07-14)"
   sodipodi:docname="org.gnome.font-viewer.svg"
   xmlns:inkscape="http://www.inkscape.org/namespaces/inkscape"
   xmlns:sodipodi="http://sodipodi.sourceforge.net/DTD/sodipodi-0.dtd"
   xmlns:xlink="http://www.w3.org/1999/xlink"
   xmlns="http://www.w3.org/2000/svg"
   xmlns:svg="http://www.w3.org/2000/svg">
  <sodipodi:namedview
     id="namedview7"
     pagecolor="#ffffff"
     bordercolor="#000000"
     borderopacity="0.25"
     inkscape:showpageshadow="2"
     inkscape:pageopacity="0.0"
     inkscape:pagecheckerboard="0"
     inkscape:deskcolor="#d1d1d1"
     inkscape:document-units="px"
     showgrid="false"
     inkscape:zoom="6.46875"
     inkscape:cx="63.922705"
     inkscape:cy="64"
     inkscape:window-width="1920"
     inkscape:window-height="1008"
     inkscape:window-x="0"
     inkscape:window-y="0"
     inkscape:window-maximized="1"
     inkscape:current-layer="svg5" />
  <defs
     id="defs2">
    <linearGradient
       inkscape:collect="always"
       id="linearGradient1173">
      <stop
         style="stop-color:#b369e3;stop-opacity:1;"
         offset="0"
         id="stop1169" />
      <stop
         style="stop-color:#a52ed9;stop-opacity:1;"
         offset="1"
         id="stop1171" />
    </linearGradient>
    <linearGradient
       inkscape:collect="always"
       xlink:href="#linearGradient1173"
       id="linearGradient4780"
       x1="30"
       y1="30"
       x2="2"
       y2="2"
       gradientUnits="userSpaceOnUse"
       gradientTransform="scale(4)" />
  </defs>
  <path
     d="M 52,9 C 15.595238,9 8,16.759268 8,53 v 24 c 0,36.24073 7.595238,44 44,44 h 24 c 36.40476,0 44,-7.75927 44,-44 V 53 C 120,16.759268 112.40476,9 76,9"
     style="opacity:0.2;fill:#000000;stroke-width:4;stroke-linecap:round;stroke-linejoin:round"
     id="path563" />
  <path
     id="path530"
     style="fill:url(#linearGradient4780);fill-opacity:1;stroke-width:4;stroke-linecap:round;stroke-linejoin:round"
     d="M 52,8 C 15.595274,8 8,15.759304 8,52 v 24 c 0,36.2407 7.595274,44 44,44 h 24 c 36.40473,0 44,-7.7593 44,-44 V 52 C 120,15.759304 112.40473,8 76,8 Z" />
  <path
     d="m 55.943764,53.472264 c -0.986508,0.834072 -1.6829,1.131956 -2.553376,1.131956 -1.334756,0 -1.740948,-0.834072 -1.740948,-3.455304 V 39.531968 c 0,-3.097856 -0.29016,-4.825492 -1.160632,-6.255276 -1.276668,-2.14466 -4.774416,-3.276572 -8.198268,-3.276572 -5.45496,0 -9.7493,2.91914 -9.7493,6.672312 0,1.37012 1.102692,2.561668 2.495376,2.561668 1.3927,0 2.611408,-1.191536 2.611408,-2.502104 0,-0.23832 -0.05796,-0.536192 -0.11588,-0.953228 -0.11588,-0.536192 -0.17412,-1.012804 -0.17412,-1.429844 0,-1.608496 1.857012,-2.919128 4.178276,-2.919128 2.843536,0 4.878164,1.72764 4.878164,4.944648 v 4.736948 c -7.99244,2.421744 -10.391168,3.067268 -12.886516,5.33108 -1.276664,1.191388 -2.089152,3.216996 -2.089152,5.18294 0,3.753172 2.553392,6.374432 6.093308,6.374432 2.553376,0 5.400444,-1.251112 8.94036,-4.348912 0.29016,3.15742 1.869328,4.348912 4.248624,4.348912 1.973064,0 3.191728,-0.71492 5.22282,-2.97872 z M 46.414292,50.07652 c 0,1.787228 -0.29016,2.44256 -1.508808,3.15742 -1.450792,0.834076 -3.48542,1.310688 -4.704084,1.310688 -2.031108,0 -3.655976,-2.025504 -3.655976,-4.5872 v -0.23832 c 0.05792,-3.574456 3.07918,-4.73534 9.868868,-7.177872 z m 36.38384,19.936124 c -0.949812,-0.08616 -2.147484,0.25672 -3.592912,1.027068 -1.44544,0.770336 -2.911488,1.925712 -4.398204,3.466284 -1.486716,1.497768 -2.870188,3.316508 -4.15042,5.456176 -1.238932,2.13968 -2.1475,4.514728 -2.72566,7.125128 -0.454328,1.925696 -0.61954,3.594648 -0.495632,5.00684 0.12332,1.369372 0.412876,2.503412 0.867208,3.402068 0.454328,0.855916 1.011764,1.476348 1.67256,1.861528 0.66084,0.428032 1.280232,0.641976 1.858396,0.641976 1.238928,-0.08616 2.477872,-0.36368 3.7168,-0.83452 1.07372,-0.427884 2.209436,-1.091252 3.407064,-1.989896 1.197624,-0.941488 2.29204,-2.268048 3.283184,-3.9798 -0.0416,1.155432 0.0208,2.118288 0.18584,2.888564 0.20652,0.77034 0.413028,1.390772 0.61954,1.861516 0.2478,0.556248 0.557584,0.98428 0.92916,1.283796 0.37172,0.25688 0.805252,0.428032 1.300884,0.513608 0.495632,0.12776 1.011764,0.17116 1.548668,0.12776 0.578088,-0.04308 1.135672,-0.14992 1.672548,-0.32104 0.536932,-0.17116 1.011764,-0.38508 1.424788,-0.641824 0.61954,-0.427884 1.383492,-1.155436 2.292028,-2.182472 0.949812,-1.069856 1.899696,-2.225244 2.849568,-3.466284 0.991112,-1.283796 1.940984,-2.546216 2.849536,-3.787224 0.908508,-1.283796 1.651896,-2.35364 2.230074,-3.209508 0.49563,-0.684612 0.7846,-1.283796 0.86721,-1.797332 0.12332,-0.51346 0.10252,-0.898704 -0.0624,-1.155432 -0.1652,-0.25672 -0.41303,-0.34232 -0.74345,-0.25672 -0.330442,0.04308 -0.660694,0.25672 -0.991114,0.641972 -0.2478,0.34232 -0.660692,0.877308 -1.238932,1.604752 -0.536932,0.727552 -1.156324,1.561968 -1.858408,2.503428 -0.701996,0.941492 -1.466092,1.925712 -2.292024,2.952764 -0.784604,0.98428 -1.548672,1.904304 -2.292028,2.760156 -0.743296,0.813128 -1.44544,1.497784 -2.106196,2.054092 -0.660692,0.513608 -1.197624,0.77034 -1.610608,0.77034 -0.495628,0 -0.887856,-0.10696 -1.176972,-0.32092 -0.2478,-0.25672 -0.43368,-0.577644 -0.557588,-0.962888 -0.12332,-0.38508 -0.20652,-0.791732 -0.2478,-1.219616 0,-0.470668 0.0208,-0.8987 0.0624,-1.283796 0.12332,-0.641824 0.22716,-1.176828 0.30976,-1.604752 0.0832,-0.427884 0.14412,-0.791732 0.18584,-1.091252 0.0832,-0.34232 0.14412,-0.663368 0.18588,-0.962884 0.0832,-0.34232 0.1652,-0.706156 0.2478,-1.091252 0.413028,-1.9685 0.7433,-3.573268 0.991116,-4.814276 0.2478,-1.241012 0.433528,-2.225276 0.557436,-2.952764 0.12332,-0.727552 0.18584,-1.219616 0.18584,-1.476344 0,-0.29952 -0.0208,-0.492068 -0.0624,-0.577644 -0.0832,-0.04308 -0.2478,-0.06388 -0.495628,-0.06388 -0.20652,0 -0.516284,0.0208 -0.92916,0.06388 -0.37172,0.04308 -0.846556,0.12776 -1.424792,0.25672 0.867208,-1.369376 1.197628,-2.460628 0.991112,-3.273708 -0.1652,-0.855916 -0.536932,-1.497784 -1.11502,-1.925724 C 84.821028,70.568636 83.912416,70.22618 82.79738,70.01224 Z m -1.458816,4.0151 c 0.15748,0.0088 0.29224,0.06092 0.405748,0.15732 0.12332,0.17116 0.20652,0.406488 0.2478,0.706152 0.0416,0.25672 0.0208,0.620432 -0.0624,1.091252 -0.0416,0.427884 -0.22716,0.98428 -0.557588,1.668968 0.33044,-0.08616 0.660696,-0.14976 0.991116,-0.19256 0.3304,-0.04308 0.59874,-0.10696 0.805252,-0.19256 0.2478,-0.08616 0.474832,-0.14976 0.681344,-0.19256 0.1652,-0.04308 0.18588,0.29952 0.0624,1.027068 -0.0832,0.68476 -0.22716,1.561964 -0.433676,2.631808 -0.20652,1.069856 -0.454332,2.182484 -0.7433,3.337888 -0.28912,1.155432 -0.536932,2.161076 -0.743296,3.016944 -0.0416,0.21396 -0.22716,0.556248 -0.557588,1.027068 -0.28912,0.470672 -0.681344,0.98428 -1.176976,1.54056 -0.454328,0.556396 -0.991112,1.091248 -1.610608,1.604768 -0.578084,0.51346 -1.176972,0.941492 -1.796452,1.283796 -0.578088,0.29952 -1.156324,0.470672 -1.7345,0.51346 -0.57824,0 -1.094372,-0.23532 -1.548672,-0.706156 -0.2478,-0.25688 -0.412876,-0.791732 -0.495628,-1.604752 -0.0832,-0.855916 -0.0624,-1.840152 0.0624,-2.952764 0.1652,-1.112644 0.43368,-2.289456 0.805252,-3.530468 0.37172,-1.283796 0.867208,-2.482016 1.486732,-3.594648 1.486716,-2.696004 2.787596,-4.536124 3.902632,-5.520372 0.867208,-0.770336 1.537824,-1.14414 2.01016,-1.120072 z m -0.14264,-44.027668 c -4.296388,0 -8.642728,1.123784 -11.590248,3.1759 l 2.79764,5.325748 c 1.948352,-1.514664 4.895872,-2.443004 7.74348,-2.443004 4.196476,0 6.543964,3.1202 6.543964,6.39382 l -7.756508,-0.0356 c -8.193008,-0.0372 -11.539768,3.105212 -11.539768,7.746928 0,4.54398 3.419292,7.83602 9.714,7.83602 3.946672,0 8.133504,-1.142208 9.582276,-3.536348 l 4.76e-4,3.237576 8.271512,-0.0015 -9.36e-4,-15.777828 C 94.962116,33.957548 89.389844,30 81.196732,30 Z m -1.81152,22.997668 c -2.747692,0 -4.396304,-1.270428 -4.396304,-3.175916 0,-1.75894 1.1486,-2.573748 4.79544,-2.550868 l 6.90722,0.0356 4.76e-4,1.516428 c 4.6e-4,2.550568 -4.709076,4.174652 -7.306888,4.174652 z M 34.63274,70.00012 c -3.155264,-0.04456 -3.155264,4.700964 0,4.656436 h 11.527096 c 0.0128,0.0012 0.33324,0.0388 0.683572,0.22968 0.35732,0.19552 0.566796,0.21928 0.626668,1.093628 v -0.0224 l 0.28704,6.978592 c -0.53738,-0.20548 -0.897812,-0.29328 -0.897812,-0.29328 l -0.27576,-0.06836 H 35.79926 c -5.05532,0 -6.8789,5.083888 -6.8789,5.083888 L 28.8,88.017544 v 1.772684 c 0,3.531132 1.669752,5.96922 3.4292,7.066516 1.759432,1.09734 3.57046,1.082188 3.57046,1.082188 h 8.856656 l 3.957816,-2.564684 0.0224,0.37292 c 0.104,3.184252 4.926804,2.901744 4.657312,-0.27276 l -1.16666,-19.801112 v -0.0116 c -0.16432,-2.404272 -1.70528,-4.127732 -3.041848,-4.858804 -1.33654,-0.731116 -2.633976,-0.79812 -2.633976,-0.79812 l -0.07724,-0.0044 z m 1.166576,17.230488 h 10.084788 c 0.1248,0.0356 0.612704,0.16448 1.209956,0.5616 0.651632,0.433228 1.024096,0.802576 1.04356,1.577904 l 0.1618,0.654008 -5.024176,3.258136 h -7.47586 c 0,0 -0.522224,-0.0148 -1.096004,-0.37292 -0.57378,-0.35776 -1.237296,-0.830064 -1.237296,-3.119444 v -0.888304 c 0.12036,-0.35508 0.623848,-1.671136 2.333224,-1.671136 z"
     style="fill:#ffffff;stroke-width:3.96904"
     id="path513" />
</svg>
