<?xml version="1.0" encoding="UTF-8" standalone="no"?>
<!-- Created with Inkscape (http://www.inkscape.org/) -->

<svg
   width="128"
   height="128"
   viewBox="0 0 128 128"
   version="1.1"
   id="svg5"
   inkscape:version="1.2.1 (9c6d41e410, 2022-07-14)"
   sodipodi:docname="org.kde.angelfish.svg"
   xmlns:inkscape="http://www.inkscape.org/namespaces/inkscape"
   xmlns:sodipodi="http://sodipodi.sourceforge.net/DTD/sodipodi-0.dtd"
   xmlns:xlink="http://www.w3.org/1999/xlink"
   xmlns="http://www.w3.org/2000/svg"
   xmlns:svg="http://www.w3.org/2000/svg">
  <sodipodi:namedview
     id="namedview7"
     pagecolor="#ffffff"
     bordercolor="#000000"
     borderopacity="0.25"
     inkscape:showpageshadow="2"
     inkscape:pageopacity="0.0"
     inkscape:pagecheckerboard="0"
     inkscape:deskcolor="#d1d1d1"
     inkscape:document-units="px"
     showgrid="false"
     inkscape:zoom="6.25"
     inkscape:cx="63.92"
     inkscape:cy="64"
     inkscape:window-width="1920"
     inkscape:window-height="1011"
     inkscape:window-x="0"
     inkscape:window-y="32"
     inkscape:window-maximized="1"
     inkscape:current-layer="svg5" />
  <defs
     id="defs2">
    <linearGradient
       inkscape:collect="always"
       xlink:href="#linearGradient3147"
       id="linearGradient4780"
       x1="30"
       y1="30"
       x2="2"
       y2="2"
       gradientUnits="userSpaceOnUse"
       gradientTransform="scale(3.9999999)" />
    <linearGradient
       inkscape:collect="always"
       id="linearGradient3147">
      <stop
         style="stop-color:#41bbff;stop-opacity:1;"
         offset="0"
         id="stop3143" />
      <stop
         style="stop-color:#0091f9;stop-opacity:1;"
         offset="1"
         id="stop3145" />
    </linearGradient>
    <linearGradient
       inkscape:collect="always"
       xlink:href="#linearGradient2075"
       id="linearGradient2077"
       x1="4"
       y1="4"
       x2="14"
       y2="14"
       gradientUnits="userSpaceOnUse"
       gradientTransform="matrix(6.6666674,0,0,6.6378626,10.666663,11.448413)" />
    <linearGradient
       inkscape:collect="always"
       id="linearGradient2075">
      <stop
         style="stop-color:#ffffff;stop-opacity:1;"
         offset="0"
         id="stop2071" />
      <stop
         style="stop-color:#c8edfc;stop-opacity:1;"
         offset="0.64999998"
         id="stop2203" />
      <stop
         style="stop-color:#91dbf9;stop-opacity:0.99990427;"
         offset="1"
         id="stop2073" />
    </linearGradient>
    <linearGradient
       inkscape:collect="always"
       xlink:href="#linearGradient2209"
       id="linearGradient2211"
       x1="4"
       y1="4"
       x2="14"
       y2="14"
       gradientUnits="userSpaceOnUse"
       gradientTransform="matrix(6.6666674,0,0,6.6378626,10.666663,11.448413)" />
    <linearGradient
       inkscape:collect="always"
       id="linearGradient2209">
      <stop
         style="stop-color:#8adc3f;stop-opacity:1;"
         offset="0"
         id="stop2205" />
      <stop
         style="stop-color:#d0e675;stop-opacity:1;"
         offset="1"
         id="stop2207" />
    </linearGradient>
  </defs>
  <path
     d="M 52,9 C 15.595239,9 8,16.759268 8,53 v 24 c 0,36.24073 7.595239,44 44,44 h 24 c 36.40476,0 44,-7.75927 44,-44 V 53 C 120,16.759268 112.40476,9 76,9"
     style="opacity:0.2;fill:#000000;stroke-width:4;stroke-linecap:round;stroke-linejoin:round"
     id="path563" />
  <path
     id="path530"
     style="fill:url(#linearGradient4780);fill-opacity:1;stroke-width:4;stroke-linecap:round;stroke-linejoin:round"
     d="M 52,8 C 15.595275,8 8,15.759304 8,52 v 24 c 0,36.2407 7.595275,44 44,44 h 24 c 36.40473,0 44,-7.7593 44,-44 V 52 C 120,15.759304 112.40473,8 76,8 Z" />
  <path
     d="m 83.217636,38.006808 c -5.94786,0.14196 -20.259816,2.505124 -29.14598,4.832832 -0.20848,0.05336 -0.41696,0.11708 -0.62368,0.17208 -2.824256,0.757584 -5.653852,1.653528 -8.155592,3.142052 -4.730856,2.815596 -9.7575,6.626512 -12.481972,10.7958 -2.726255,4.169296 -4.540196,9.066004 -5.443599,11.32628 -0.901628,2.262076 -0.889156,1.880628 -1.421928,1.981756 -0.53104,0.10116 -1.60368,0.684856 -1.878085,2.270928 -0.27264,1.58788 0.26016,4.162204 2.138236,5.789104 1.879869,1.625132 5.097916,2.29222 8.743616,4.011396 3.608276,1.703192 7.654896,4.43364 18.497532,6.032152 l 0.3136,0.05308 c 11.095672,1.593208 29.202988,2.00658 38.6344,1.146112 9.431416,-0.862248 10.160206,-2.9948 9.082176,-5.801528 -1.07804,-2.806728 -3.962876,-6.289408 -6.847716,-9.77034 l -0.4704,-1.574988 -2.581916,-8.626 c -1.16712,-3.903176 -2.56232,-8.563908 -2.6728,-12.530944 -0.11408,-3.968808 1.056644,-7.243924 1.099412,-9.388892 0.04052,-2.14674 -1.044176,-3.16334 -4.787876,-3.778976 -0.468692,-0.07648 -1.14752,-0.10292 -1.995684,-0.0816 z"
     style="fill:url(#linearGradient2077);fill-opacity:1;stroke:#000000;stroke-width:1.47931;stroke-dasharray:0, 16.2671;image-rendering:optimizeSpeed"
     id="path1984" />
  <path
     d="m 58.984252,41.675776 c -1.73554,0.38324 -3.415836,0.771768 -4.91082,1.16386 -0.20848,0.05336 -0.41696,0.11708 -0.62368,0.17216 -2.82426,0.757584 -5.65386,1.653528 -8.155596,3.142048 -0.589836,0.35128 -1.184944,0.718564 -1.780084,1.099984 l -0.0017,0.0017 c -1.16982,0.751932 -2.312132,1.545532 -3.424736,2.37916 -2.252288,1.699648 -4.342408,3.578492 -5.972816,5.567332 -0.40808,0.496776 -0.783996,1.002404 -1.129708,1.511588 1.436184,0.409852 2.977496,0.677696 4.071564,0.620988 0.714556,-0.0364 1.920852,-0.956276 1.920852,-0.956276 h 4.673832 v 1.163848 l 1.168904,1.163856 V 56.38008 l 1.168908,-1.163856 1.16712,-1.163856 h 1.168904 v -1.163832 l 1.168908,-1.162076 2.33602,-1.16386 1.168908,-1.163852 2.336024,-1.16386 v 1.16386 l 2.337804,-1.16386 h -1.168876 v -1.16214 L 55.33508,45.908892 h 4.673832 l -1.1689,1.163856 3.506708,1.16208 -1.1689,-2.324168 v -2.3277 z m 41.697438,5.271052 c -0.56486,-0.0084 -1.521714,0.31588 -3.916538,1.445948 -1.568048,0.739828 -4.554452,1.31288 -7.854468,2.047388 -0.525652,0.11708 -1.05664,0.24484 -1.594764,0.37252 -0.35636,0.08344 -0.707444,0.15976 -1.065556,0.24836 -0.516744,0.12952 -1.028144,0.27684 -1.543104,0.418764 -0.35636,0.09752 -0.712712,0.18628 -1.065552,0.291 -0.468584,0.14196 -0.9141,0.30512 -1.37204,0.459496 -0.392,0.13128 -0.794716,0.25192 -1.172464,0.39568 -0.784156,0.28884 -1.549984,0.624728 -2.293252,1.005944 l 0.6112,1.02016 c -0.0172,-0.0192 -0.04692,-0.0364 -0.05868,-0.05896 -0.17812,-0.32468 -0.35996,-0.64576 -0.5524,-0.961596 l -1.268416,0.420472 -2.337812,1.163852 v 1.163856 l -2.33602,2.324156 -1.168912,2.327712 v 4.653636 l 1.168912,2.327716 2.33602,1.16208 1.1689,1.16384 5.511312,-0.913688 6.521636,0.19516 c 0.905184,-0.04888 1.803236,-0.08872 2.690612,-0.1136 0.748388,-0.0172 1.486068,-0.0244 2.202376,0.0052 0.4544,0.0192 0.901632,0.0478 1.3364,0.0976 1.931548,0.22176 3.649264,0.780604 4.8645,1.041436 1.21523,0.259 1.92441,0.22176 2.52134,-0.0212 0.59874,-0.24132 1.08159,-0.686616 1.45578,-2.508668 0.37428,-1.822076 0.63613,-5.020896 0.48646,-8.53552 -0.14964,-3.51444 -0.7092,-7.344852 -1.23305,-9.539496 -0.52208,-2.192876 -1.01034,-2.753516 -1.56805,-2.994808 -0.14908,-0.06692 -0.3104,-0.10264 -0.47403,-0.10468 z m -24.315334,3.39576 v 2.545928 h 1.977868 c -0.0388,-0.05736 -0.06668,-0.12124 -0.08372,-0.18812 -0.12832,-0.482544 0.13724,-1.234812 -0.14964,-1.60562 -0.32964,-0.425832 -1.386288,-0.35128 -1.744448,-0.752252 z m -32.641996,0.07648 h 0.0712 l -0.14432,0.14196 z m -4.746896,10.613068 -1.168908,1.163848 h -1.16712 l -0.760872,-0.755756 v 0.0052 c -0.14256,0.762928 -0.24416,1.529332 -0.31008,2.299324 l -0.0017,0.0356 2.239808,0.74158 2.337812,1.163852 1.1689,1.163856 1.167128,1.16386 h 2.3378 v 2.325916 l -1.168904,1.163864 -1.168896,2.325936 v 1.163856 l 1.168896,1.163836 1.168904,1.162096 1.167124,2.3277 1.168904,1.163856 2.337812,1.162076 v 5.026204 l -0.13548,0.638768 c 1.252652,0.25728 2.594396,0.503844 4.08938,0.725652 0.11228,0.016 0.19964,0.0364 0.3136,0.05308 2.122204,0.3016 4.55088,0.550016 7.07758,0.768184 l 0.33856,-2.558344 v -1.163616 l 2.336024,-1.162084 1.168908,-1.16384 1.168896,-4.653648 1.167124,-1.163836 V 74.99536 L 64.682592,73.831516 H 63.51376 l -2.336028,-1.162812 h -1.168908 l -1.1689,-2.327708 -1.167132,-1.16386 h -2.3378 L 52.998964,66.851212 H 50.66116 L 47.156228,65.687356 45.987324,68.01506 43.65308,66.851212 H 42.482396 V 64.52528 l -2.336028,-1.16386 1.168908,-2.32772 z"
     style="fill:url(#linearGradient2211);fill-opacity:1;stroke-width:1.77801"
     id="path1954" />
</svg>
