<?xml version="1.0" encoding="UTF-8" standalone="no"?>
<!-- Created with Inkscape (http://www.inkscape.org/) -->

<svg
   width="128"
   height="128"
   viewBox="0 0 128 128"
   version="1.1"
   id="svg5"
   inkscape:version="1.2.2 (1:1.2.2+202305151914+b0a8486541)"
   sodipodi:docname="owncloud.svg"
   xmlns:inkscape="http://www.inkscape.org/namespaces/inkscape"
   xmlns:sodipodi="http://sodipodi.sourceforge.net/DTD/sodipodi-0.dtd"
   xmlns="http://www.w3.org/2000/svg"
   xmlns:svg="http://www.w3.org/2000/svg">
  <sodipodi:namedview
     id="namedview7"
     pagecolor="#ffffff"
     bordercolor="#000000"
     borderopacity="0.25"
     inkscape:showpageshadow="2"
     inkscape:pageopacity="0.0"
     inkscape:pagecheckerboard="0"
     inkscape:deskcolor="#d1d1d1"
     inkscape:document-units="px"
     showgrid="false"
     inkscape:zoom="6.328125"
     inkscape:cx="63.920988"
     inkscape:cy="64"
     inkscape:window-width="1920"
     inkscape:window-height="1012"
     inkscape:window-x="0"
     inkscape:window-y="0"
     inkscape:window-maximized="1"
     inkscape:current-layer="svg5" />
  <defs
     id="defs2" />
  <path
     d="M 52,9 C 15.595238,9 8,16.759268 8,53 v 24 c 0,36.24073 7.595238,44 44,44 h 24 c 36.40476,0 44,-7.75927 44,-44 V 53 C 120,16.759268 112.40476,9 76,9"
     style="opacity:0.2;fill:#000000;stroke-width:4;stroke-linecap:round;stroke-linejoin:round"
     id="path563" />
  <path
     id="path530"
     style="fill:#394e6f;fill-opacity:1;stroke-width:4;stroke-linecap:round;stroke-linejoin:round"
     d="M 52,8 C 15.595274,8 8,15.759304 8,52 v 24 c 0,36.2407 7.595274,44 44,44 h 24 c 36.40473,0 44,-7.7593 44,-44 V 52 C 120,15.759304 112.40473,8 76,8 Z" />
  <path
     style="color:#000000;fill:#ffffff;stroke-width:2;stroke-linecap:round;stroke-linejoin:round;-inkscape-stroke:none"
     d="M 87,58 A 13,13 0 0 1 74,71 13,13 0 0 1 61,58 13,13 0 0 1 74,45 13,13 0 0 1 87,58 Z"
     id="path6161" />
  <path
     style="color:#000000;fill:#394e6f;stroke-width:4;stroke-linecap:round;stroke-linejoin:round;-inkscape-stroke:none"
     d="m 74,44 c -7.720136,0 -14,6.279864 -14,14 0,7.720136 6.279864,14 14,14 7.720136,0 14,-6.279864 14,-14 0,-7.720136 -6.279864,-14 -14,-14 z m 0,2 c 6.639256,0 12,5.360744 12,12 0,6.639256 -5.360744,12 -12,12 -6.639256,0 -12,-5.360744 -12,-12 0,-6.639256 5.360744,-12 12,-12 z"
     id="path6163" />
  <path
     style="color:#000000;fill:#ffffff;stroke-width:2;stroke-linecap:round;stroke-linejoin:round;-inkscape-stroke:none"
     d="m 111,84 a 7,7 0 0 1 -7,7 7,7 0 0 1 -7,-7 7,7 0 0 1 7,-7 7,7 0 0 1 7,7 z"
     id="path6167" />
  <path
     style="color:#000000;fill:#394e6f;stroke-width:4;stroke-linecap:round;stroke-linejoin:round;-inkscape-stroke:none"
     d="m 104,76 c -4.406428,0 -8,3.593572 -8,8 0,4.406428 3.593572,8 8,8 4.40643,0 8,-3.593572 8,-8 0,-4.406428 -3.59357,-8 -8,-8 z m 0,2 c 3.32555,0 6,2.674452 6,6 0,3.325548 -2.67445,6 -6,6 -3.32555,0 -6,-2.674452 -6,-6 0,-3.325548 2.67445,-6 6,-6 z"
     id="path6169" />
  <path
     style="color:#000000;fill:#ffffff;stroke-width:2;stroke-linecap:round;stroke-linejoin:round;-inkscape-stroke:none"
     d="M 103,76 A 15,15 0 0 1 88,91 15,15 0 0 1 73,76 15,15 0 0 1 88,61 15,15 0 0 1 103,76 Z"
     id="path6173" />
  <path
     style="color:#000000;fill:#394e6f;stroke-width:4;stroke-linecap:round;stroke-linejoin:round;-inkscape-stroke:none"
     d="m 88,60 c -8.824704,0 -16,7.175296 -16,16 0,8.824704 7.175296,16 16,16 8.824704,0 16,-7.175296 16,-16 0,-8.824704 -7.175296,-16 -16,-16 z m 0,2 c 7.743824,0 14,6.256176 14,14 0,7.743824 -6.256176,14 -14,14 -7.743824,0 -14,-6.256176 -14,-14 0,-7.743824 6.256176,-14 14,-14 z"
     id="path6175" />
  <path
     style="color:#000000;fill:#ffffff;stroke-width:2;stroke-linecap:round;stroke-linejoin:round;-inkscape-stroke:none"
     d="M 43,78 A 13,13 0 0 1 30,91 13,13 0 0 1 17,78 13,13 0 0 1 30,65 13,13 0 0 1 43,78 Z"
     id="path6179" />
  <path
     style="color:#000000;fill:#394e6f;stroke-width:4;stroke-linecap:round;stroke-linejoin:round;-inkscape-stroke:none"
     d="m 30,64 c -7.720134,0 -14,6.279864 -14,14 0,7.720136 6.279866,14 14,14 7.720136,0 14.000004,-6.279864 14.000004,-14 0,-7.720136 -6.279868,-14 -14.000004,-14 z m 0,2 c 6.639256,0 12,5.360744 12,12 0,6.639256 -5.360744,12 -12,12 -6.639254,0 -12,-5.360744 -12,-12 0,-6.639256 5.360746,-12 12,-12 z"
     id="path6181" />
  <path
     style="color:#000000;fill:#ffffff;stroke-width:2;stroke-linecap:round;stroke-linejoin:round;-inkscape-stroke:none"
     d="M 49.000004,52 A 7,7 0 0 1 42,59 a 7,7 0 0 1 -7,-7 7,7 0 0 1 7,-7 7,7 0 0 1 7.000004,7 z"
     id="path6185" />
  <path
     style="color:#000000;fill:#394e6f;stroke-width:4;stroke-linecap:round;stroke-linejoin:round;-inkscape-stroke:none"
     d="m 42,44 c -4.406428,0 -8,3.593572 -8,8 0,4.406428 3.593572,8 8,8 4.406432,0 8.000004,-3.593572 8.000004,-8 0,-4.406428 -3.593572,-8 -8.000004,-8 z m 0,2 c 3.325552,0 6.000004,2.674452 6.000004,6 0,3.325548 -2.674452,6 -6.000004,6 -3.325548,0 -6,-2.674452 -6,-6 0,-3.325548 2.674452,-6 6,-6 z"
     id="path6187" />
  <path
     style="color:#000000;fill:#ffffff;stroke-width:2;stroke-linecap:round;stroke-linejoin:round;-inkscape-stroke:none"
     d="m 59.000004,68 a 15,15 0 0 1 -15,15 A 15,15 0 0 1 29,68 15,15 0 0 1 44.000004,53 a 15,15 0 0 1 15,15 z"
     id="path6191" />
  <path
     style="color:#000000;fill:#394e6f;stroke-width:4;stroke-linecap:round;stroke-linejoin:round;-inkscape-stroke:none"
     d="M 44.000004,52 C 35.175296,52 28,59.175296 28,68 c 0,8.824704 7.175296,16 16.000004,16 8.824704,0 16,-7.175296 16,-16 0,-8.824704 -7.175296,-16 -16,-16 z m 0,2 c 7.743824,0 14,6.256176 14,14 0,7.743824 -6.256176,14 -14,14 C 36.256176,82 30,75.743824 30,68 30,60.256176 36.256176,54 44.000004,54 Z"
     id="path6193" />
  <path
     style="color:#000000;fill:#ffffff;stroke-width:2;stroke-linecap:round;stroke-linejoin:round;-inkscape-stroke:none"
     d="m 51.000004,84 a 7,7 0 0 1 -7,7 A 7,7 0 0 1 37,84 a 7,7 0 0 1 7.000004,-7 7,7 0 0 1 7,7 z"
     id="path6197" />
  <path
     style="color:#000000;fill:#394e6f;stroke-width:4;stroke-linecap:round;stroke-linejoin:round;-inkscape-stroke:none"
     d="M 44.000004,76 C 39.593572,76 36,79.593572 36,84 c 0,4.406428 3.593572,8 8.000004,8 4.406428,0 8,-3.593572 8,-8 0,-4.406428 -3.593572,-8 -8,-8 z m 0,2 c 3.325548,0 6,2.674452 6,6 0,3.325548 -2.674452,6 -6,6 C 40.674452,90 38,87.325548 38,84 c 0,-3.325548 2.674452,-6 6.000004,-6 z"
     id="path6199" />
  <path
     style="color:#000000;fill:#ffffff;stroke-width:2;stroke-linecap:round;stroke-linejoin:round;-inkscape-stroke:none"
     d="M 71,50 A 13,13 0 0 1 58,63 13,13 0 0 1 45,50 13,13 0 0 1 58,37 13,13 0 0 1 71,50 Z"
     id="path6203" />
  <path
     style="color:#000000;fill:#394e6f;stroke-width:4;stroke-linecap:round;stroke-linejoin:round;-inkscape-stroke:none"
     d="m 58.000004,36 c -7.720136,0 -14,6.279864 -14,14 0,7.720136 6.279864,14 14,14 C 65.72014,64 72,57.720136 72,50 72,42.279864 65.720136,36 58.000004,36 Z m 0,2 C 64.639256,38 70,43.360744 70,50 70,56.639256 64.639256,62 58,62 51.360744,62 46,56.639256 46,50 46,43.360744 51.360744,38 58.000004,38 Z"
     id="path6205" />
  <path
     style="color:#000000;fill:#ffffff;stroke-width:2;stroke-linecap:round;stroke-linejoin:round;-inkscape-stroke:none"
     d="M 83,72 A 19,19 0 0 1 64,91 19,19 0 0 1 45,72 19,19 0 0 1 64,53 19,19 0 0 1 83,72 Z"
     id="path6209" />
  <path
     style="color:#000000;fill:#394e6f;stroke-width:4;stroke-linecap:round;stroke-linejoin:round;-inkscape-stroke:none"
     d="M 64,52 C 52.966164,52 44.000004,60.96616 44.000004,72 44.000004,83.03384 52.966164,92 64,92 75.033844,92 84,83.03384 84,72 84,60.96616 75.03384,52 64,52 Z m 0,2 c 9.95296,0 18,8.04704 18,18 0,9.95296 -8.04704,18 -18,18 -9.95296,0 -18,-8.04704 -18,-18 0,-9.95296 8.04704,-18 18,-18 z"
     id="path6211" />
</svg>
