<?xml version="1.0" encoding="UTF-8" standalone="no"?>
<!-- Created with Inkscape (http://www.inkscape.org/) -->

<svg
   width="128"
   height="128"
   viewBox="0 0 128 128"
   version="1.1"
   id="svg5"
   inkscape:version="1.2.1 (9c6d41e410, 2022-07-14)"
   sodipodi:docname="polari.svg"
   xmlns:inkscape="http://www.inkscape.org/namespaces/inkscape"
   xmlns:sodipodi="http://sodipodi.sourceforge.net/DTD/sodipodi-0.dtd"
   xmlns:xlink="http://www.w3.org/1999/xlink"
   xmlns="http://www.w3.org/2000/svg"
   xmlns:svg="http://www.w3.org/2000/svg">
  <sodipodi:namedview
     id="namedview7"
     pagecolor="#ffffff"
     bordercolor="#000000"
     borderopacity="0.25"
     inkscape:showpageshadow="2"
     inkscape:pageopacity="0.0"
     inkscape:pagecheckerboard="0"
     inkscape:deskcolor="#d1d1d1"
     inkscape:document-units="px"
     showgrid="false"
     inkscape:zoom="4.3862718"
     inkscape:cx="-22.000461"
     inkscape:cy="61.099725"
     inkscape:window-width="1920"
     inkscape:window-height="1006"
     inkscape:window-x="0"
     inkscape:window-y="0"
     inkscape:window-maximized="1"
     inkscape:current-layer="svg5" />
  <defs
     id="defs2">
    <linearGradient
       inkscape:collect="always"
       xlink:href="#linearGradient2742"
       id="linearGradient4780"
       x1="30"
       y1="30"
       x2="2"
       y2="2"
       gradientUnits="userSpaceOnUse"
       gradientTransform="scale(4)" />
    <linearGradient
       inkscape:collect="always"
       id="linearGradient2742">
      <stop
         style="stop-color:#8be65c;stop-opacity:1;"
         offset="0"
         id="stop2738" />
      <stop
         style="stop-color:#1ccd6b;stop-opacity:1;"
         offset="1"
         id="stop2740" />
    </linearGradient>
  </defs>
  <path
     d="M 52,9 C 15.595238,9 8,16.759268 8,53 v 24 c 0,36.24073 7.595238,44 44,44 h 24 c 36.40476,0 44,-7.75927 44,-44 V 53 C 120,16.759268 112.40476,9 76,9"
     style="opacity:0.2;fill:#000000;stroke-width:4;stroke-linecap:round;stroke-linejoin:round"
     id="path563" />
  <path
     d="M 52,8 C 15.595238,8 8,15.759268 8,52 v 24 c 0,36.24073 7.595238,44 44,44 h 24 c 36.40476,0 44,-7.75927 44,-44 V 52 C 120,15.759268 112.40476,8 76,8"
     style="fill:url(#linearGradient4780);fill-opacity:1;stroke-width:4;stroke-linecap:round;stroke-linejoin:round"
     id="path530"
     sodipodi:nodetypes="cssssssc" />
  <rect
     style="fill:#3bbd1e;fill-opacity:1;stroke-width:6.45416;stroke-linecap:round;stroke-linejoin:round"
     id="rect2744"
     width="40"
     height="44"
     x="44"
     y="36" />
  <path
     id="rect1798"
     style="fill:#ffffff;stroke-width:16;stroke-linecap:round;stroke-linejoin:round"
     d="m 36,32 c -4.431988,0 -8,3.568016 -8,8 v 59 c 0.0292,2.8215 2.882222,4.22816 4.828124,1.82812 L 48,84 h 44 c 4.43198,0 8,-3.56802 8,-8 V 40 c 0,-4.431984 -3.56802,-8 -8,-8 z m 24,8 h 4 l -1.781248,8 h 8 L 72,40 h 4 l -1.781248,8 H 80 v 4 H 73.335936 L 70.664064,64 H 80 v 4 H 69.781248 L 68,76 h -4 l 1.781248,-8 h -8 L 56,76 h -4 l 1.781248,-8 H 48 v -4 h 6.664064 L 57.335936,52 H 48 v -4 h 10.218752 z m 1.335936,12 -2.671872,12 h 8 l 2.671872,-12 z" />
</svg>
