<?xml version="1.0" encoding="UTF-8" standalone="no"?>
<!-- Created with Inkscape (http://www.inkscape.org/) -->

<svg
   width="128"
   height="128"
   viewBox="0 0 128 128"
   version="1.1"
   id="svg5"
   inkscape:version="1.2.1 (9c6d41e410, 2022-07-14)"
   sodipodi:docname="preferences-desktop-keyboard.svg"
   xmlns:inkscape="http://www.inkscape.org/namespaces/inkscape"
   xmlns:sodipodi="http://sodipodi.sourceforge.net/DTD/sodipodi-0.dtd"
   xmlns:xlink="http://www.w3.org/1999/xlink"
   xmlns="http://www.w3.org/2000/svg"
   xmlns:svg="http://www.w3.org/2000/svg">
  <sodipodi:namedview
     id="namedview7"
     pagecolor="#ffffff"
     bordercolor="#000000"
     borderopacity="0.25"
     inkscape:showpageshadow="2"
     inkscape:pageopacity="0.0"
     inkscape:pagecheckerboard="0"
     inkscape:deskcolor="#d1d1d1"
     inkscape:document-units="px"
     showgrid="false"
     inkscape:zoom="6.390625"
     inkscape:cx="63.92176"
     inkscape:cy="64"
     inkscape:window-width="1920"
     inkscape:window-height="1004"
     inkscape:window-x="0"
     inkscape:window-y="0"
     inkscape:window-maximized="1"
     inkscape:current-layer="svg5"
     showguides="false" />
  <defs
     id="defs2">
    <linearGradient
       inkscape:collect="always"
       xlink:href="#linearGradient22024"
       id="linearGradient3500"
       x1="2"
       y1="2"
       x2="30"
       y2="30"
       gradientUnits="userSpaceOnUse"
       gradientTransform="scale(4)" />
    <linearGradient
       inkscape:collect="always"
       id="linearGradient22024">
      <stop
         style="stop-color:#cdcdcd;stop-opacity:1;"
         offset="0"
         id="stop22020" />
      <stop
         style="stop-color:#eff0f1;stop-opacity:1;"
         offset="1"
         id="stop22022" />
    </linearGradient>
  </defs>
  <path
     d="M 52,9 C 15.595238,9 8,16.759268 8,53 v 24 c 0,36.24073 7.595238,44 44,44 h 24 c 36.40476,0 44,-7.75927 44,-44 V 53 C 120,16.759268 112.40476,9 76,9"
     style="opacity:0.2;fill:#000000;stroke-width:4;stroke-linecap:round;stroke-linejoin:round"
     id="path563" />
  <path
     id="path530"
     style="fill:url(#linearGradient3500);fill-opacity:1;stroke-width:4;stroke-linecap:round;stroke-linejoin:round"
     d="M 52,8 C 15.595274,8 8,15.759304 8,52 v 24 c 0,36.2407 7.595274,44 44,44 h 24 c 36.40473,0 44,-7.7593 44,-44 V 52 C 120,15.759304 112.40473,8 76,8 Z" />
  <path
     id="path1728"
     style="fill:#a1a1a1;fill-opacity:1;stroke-width:4;stroke-linecap:round;stroke-linejoin:round"
     d="M 24 32 C 21.784004 32 20 33.784006 20 36 L 20 44 C 20 46.215994 21.784004 48 24 48 L 32 48 C 34.215994 48 36 46.215994 36 44 L 36 36 C 36 33.784006 34.215994 32 32 32 L 24 32 z M 48 32 C 45.784006 32 44 33.784006 44 36 L 44 44 C 44 46.215994 45.784006 48 48 48 L 56 48 C 58.215998 48 60 46.215994 60 44 L 60 36 C 60 33.784006 58.215998 32 56 32 L 48 32 z M 72 32 C 69.784002 32 68 33.784006 68 36 L 68 44 C 68 46.215994 69.784002 48 72 48 L 80 48 C 82.215994 48 84 46.215994 84 44 L 84 36 C 84 33.784006 82.215994 32 80 32 L 72 32 z M 96 32 C 93.784002 32 92 33.784006 92 36 L 92 44 C 92 46.215994 93.784002 48 96 48 L 104 48 C 106.216 48 108 46.215994 108 44 L 108 36 C 108 33.784006 106.216 32 104 32 L 96 32 z M 24 56 C 21.784004 56 20 57.784002 20 60 L 20 68 C 20 70.215994 21.784004 72 24 72 L 32 72 C 34.215994 72 36 70.215994 36 68 L 36 60 C 36 57.784002 34.215994 56 32 56 L 24 56 z M 48 56 C 45.784006 56 44 57.784002 44 60 L 44 68 C 44 70.215994 45.784006 72 48 72 L 56 72 C 58.215998 72 60 70.215994 60 68 L 60 60 C 60 57.784002 58.215998 56 56 56 L 48 56 z M 72 56 C 69.784002 56 68 57.784002 68 60 L 68 68 C 68 70.215994 69.784002 72 72 72 L 80 72 C 82.215994 72 84 70.215994 84 68 L 84 60 C 84 57.784002 82.215994 56 80 56 L 72 56 z M 96 56 C 93.784002 56 92 57.784002 92 60 L 92 68 C 92 70.215994 93.784002 72 96 72 L 104 72 C 106.216 72 108 70.215994 108 68 L 108 60 C 108 57.784002 106.216 56 104 56 L 96 56 z M 40 80 C 37.784002 80 36 81.784002 36 84 L 36 92 C 36 94.215994 37.784002 96 40 96 L 88 96 C 90.215994 96 92 94.215994 92 92 L 92 84 C 92 81.784002 90.215994 80 88 80 L 40 80 z " />
</svg>
