<?xml version="1.0" encoding="UTF-8" standalone="no"?>
<!-- Created with Inkscape (http://www.inkscape.org/) -->

<svg
   width="128"
   height="128"
   viewBox="0 0 128 128"
   version="1.1"
   id="svg5"
   inkscape:version="1.4.4 (dcaf3e7d9e, 2026-05-05)"
   sodipodi:docname="preferences-desktop-screensaver.svg"
   xmlns:inkscape="http://www.inkscape.org/namespaces/inkscape"
   xmlns:sodipodi="http://sodipodi.sourceforge.net/DTD/sodipodi-0.dtd"
   xmlns:xlink="http://www.w3.org/1999/xlink"
   xmlns="http://www.w3.org/2000/svg"
   xmlns:svg="http://www.w3.org/2000/svg">
  <sodipodi:namedview
     id="namedview7"
     pagecolor="#ffffff"
     bordercolor="#000000"
     borderopacity="0.25"
     inkscape:showpageshadow="2"
     inkscape:pageopacity="0.0"
     inkscape:pagecheckerboard="0"
     inkscape:deskcolor="#d1d1d1"
     inkscape:document-units="px"
     showgrid="false"
     inkscape:zoom="6.28125"
     inkscape:cx="64"
     inkscape:cy="64"
     inkscape:window-width="1920"
     inkscape:window-height="1012"
     inkscape:window-x="0"
     inkscape:window-y="0"
     inkscape:window-maximized="1"
     inkscape:current-layer="svg5"
     showguides="false" />
  <defs
     id="defs2">
    <linearGradient
       inkscape:collect="always"
       xlink:href="#linearGradient3"
       id="linearGradient3500"
       x1="2"
       y1="2"
       x2="30"
       y2="30"
       gradientUnits="userSpaceOnUse"
       gradientTransform="scale(4)" />
    <linearGradient
       inkscape:collect="always"
       id="linearGradient3">
      <stop
         style="stop-color:#5b25b4;stop-opacity:1;"
         offset="0"
         id="stop1" />
      <stop
         style="stop-color:#bb3fee;stop-opacity:1;"
         offset="1"
         id="stop2" />
    </linearGradient>
  </defs>
  <path
     d="M 52,9 C 15.595238,9 8,16.759268 8,53 v 24 c 0,36.24073 7.595238,44 44,44 h 24 c 36.40476,0 44,-7.75927 44,-44 V 53 C 120,16.759268 112.40476,9 76,9"
     style="opacity:0.2;fill:#000000;stroke-width:4;stroke-linecap:round;stroke-linejoin:round"
     id="path563" />
  <path
     id="path530"
     style="fill:url(#linearGradient3500);stroke-width:4;stroke-linecap:round;stroke-linejoin:round"
     d="M 52,8 C 15.595274,8 8,15.759304 8,52 v 24 c 0,36.2407 7.595274,44 44,44 h 24 c 36.40473,0 44,-7.7593 44,-44 V 52 C 120,15.759304 112.40473,8 76,8 Z" />
  <path
     d="M 78.2,46.400004 77.156884,43.24312 74,42.200004 77.156884,41.156888 78.2,38 79.243116,41.156888 82.4,42.200004 79.243116,43.24312 Z m -20,0.08 L 56.11376,40.16624 49.8,38.080004 56.11376,35.993764 58.2,29.68 60.286236,35.993764 66.6,38.080004 60.286236,40.16624 Z m -24.4,9.72 L 30.322936,45.677068 19.8,42.200004 30.322936,38.722936 33.8,28.2 37.277064,38.722936 47.8,42.200004 37.277064,45.677068 Z m 50.587444,-6.600156 c 3.123188,3.78444 5.01722,8.621428 5.01722,13.911412 0,12.090956 -9.801792,21.893252 -21.893256,21.893252 -5.289984,0 -10.126872,-1.89398 -13.911408,-5.017168 C 56.24726,91.671404 66.366824,100 78.457784,100 92.56424,100 104,88.56424 104,74.457788 104,62.36632 95.6714,52.247008 84.387344,49.600004 Z"
     style="fill:#ffffff;stroke-width:4"
     id="path1" />
</svg>
