<?xml version="1.0" encoding="UTF-8" standalone="no"?>
<!-- Created with Inkscape (http://www.inkscape.org/) -->

<svg
   width="128"
   height="128"
   viewBox="0 0 128 128"
   version="1.1"
   id="svg5"
   inkscape:version="1.2.1 (9c6d41e410, 2022-07-14)"
   sodipodi:docname="preferences-system-time.svg"
   xmlns:inkscape="http://www.inkscape.org/namespaces/inkscape"
   xmlns:sodipodi="http://sodipodi.sourceforge.net/DTD/sodipodi-0.dtd"
   xmlns:xlink="http://www.w3.org/1999/xlink"
   xmlns="http://www.w3.org/2000/svg"
   xmlns:svg="http://www.w3.org/2000/svg">
  <sodipodi:namedview
     id="namedview7"
     pagecolor="#ffffff"
     bordercolor="#000000"
     borderopacity="0.25"
     inkscape:showpageshadow="2"
     inkscape:pageopacity="0.0"
     inkscape:pagecheckerboard="0"
     inkscape:deskcolor="#d1d1d1"
     inkscape:document-units="px"
     showgrid="false"
     inkscape:zoom="6.078125"
     inkscape:cx="63.917738"
     inkscape:cy="64"
     inkscape:window-width="1920"
     inkscape:window-height="999"
     inkscape:window-x="0"
     inkscape:window-y="0"
     inkscape:window-maximized="1"
     inkscape:current-layer="svg5"
     showguides="true" />
  <defs
     id="defs2">
    <linearGradient
       inkscape:collect="always"
       id="linearGradient1606">
      <stop
         style="stop-color:#eaebed;stop-opacity:1;"
         offset="0"
         id="stop1602" />
      <stop
         style="stop-color:#f9fafa;stop-opacity:1;"
         offset="1"
         id="stop1604" />
    </linearGradient>
    <linearGradient
       inkscape:collect="always"
       xlink:href="#linearGradient1606"
       id="linearGradient3500"
       x1="2"
       y1="2"
       x2="30"
       y2="30"
       gradientUnits="userSpaceOnUse"
       gradientTransform="scale(4)" />
  </defs>
  <path
     d="M 52,9 C 15.595238,9 8,16.759268 8,53 v 24 c 0,36.24073 7.595238,44 44,44 h 24 c 36.40476,0 44,-7.75927 44,-44 V 53 C 120,16.759268 112.40476,9 76,9"
     style="opacity:0.2;fill:#000000;stroke-width:4;stroke-linecap:round;stroke-linejoin:round"
     id="path563" />
  <path
     id="path530"
     style="fill:url(#linearGradient3500);fill-opacity:1;stroke-width:4;stroke-linecap:round;stroke-linejoin:round"
     d="M 52,8 C 15.595274,8 8,15.759304 8,52 v 24 c 0,36.2407 7.595274,44 44,44 h 24 c 36.40473,0 44,-7.7593 44,-44 V 52 C 120,15.759304 112.40473,8 76,8 Z" />
  <circle
     style="opacity:1;fill:#6e6e6e;fill-opacity:1;stroke-width:8;stroke-linecap:round;stroke-linejoin:round"
     id="path291"
     cx="64"
     cy="64"
     r="40" />
  <path
     id="rect451"
     style="fill:#ffffff;stroke-width:8;stroke-linecap:round;stroke-linejoin:round"
     d="m 64,36 c -2.215996,0 -4,1.784004 -4,4 v 24 c 0,0.13584 0.0096,0.27096 0.0236,0.406248 0.0132,0.1274 0.0296,0.25688 0.05468,0.3828 0.014,0.07 0.0292,0.14232 0.04688,0.21092 0.0136,0.05256 0.0312,0.10416 0.04688,0.15624 0.0038,0.0124 0.004,0.0268 0.008,0.0392 0.0328,0.10528 0.07532,0.20964 0.1172,0.31252 0.04924,0.12168 0.10356,0.23628 0.16404,0.35156 0.008,0.0156 0.0152,0.0316 0.0236,0.04688 0.10688,0.19724 0.22984,0.3872 0.3672,0.562504 0.016,0.0204 0.0304,0.04216 0.04688,0.06248 0.08548,0.1048 0.17792,0.20136 0.27344,0.29688 0.0014,0.0014 -0.0014,0.0064 0,0.008 l 16.97656,16.968752 c 1.566948,1.566948 4.089304,1.566948 5.656252,0 1.566948,-1.566948 1.566948,-4.089304 0,-5.656252 L 68,62.335936 V 40 c 0,-2.215996 -1.784004,-4 -4,-4 z"
     sodipodi:nodetypes="sssscccccscccsccsccss" />
</svg>
