<?xml version="1.0" encoding="UTF-8" standalone="no"?>
<!-- Created with Inkscape (http://www.inkscape.org/) -->

<svg
   width="128"
   height="128"
   viewBox="0 0 128 128"
   version="1.1"
   id="svg5"
   inkscape:version="1.2.1 (9c6d41e410, 2022-07-14)"
   sodipodi:docname="sysprof.svg"
   xmlns:inkscape="http://www.inkscape.org/namespaces/inkscape"
   xmlns:sodipodi="http://sodipodi.sourceforge.net/DTD/sodipodi-0.dtd"
   xmlns:xlink="http://www.w3.org/1999/xlink"
   xmlns="http://www.w3.org/2000/svg"
   xmlns:svg="http://www.w3.org/2000/svg">
  <sodipodi:namedview
     id="namedview7"
     pagecolor="#ffffff"
     bordercolor="#000000"
     borderopacity="0.25"
     inkscape:showpageshadow="2"
     inkscape:pageopacity="0.0"
     inkscape:pagecheckerboard="0"
     inkscape:deskcolor="#d1d1d1"
     inkscape:document-units="px"
     showgrid="false"
     inkscape:zoom="6.3125"
     inkscape:cx="64"
     inkscape:cy="64"
     inkscape:window-width="1920"
     inkscape:window-height="1011"
     inkscape:window-x="0"
     inkscape:window-y="32"
     inkscape:window-maximized="1"
     inkscape:current-layer="svg5" />
  <defs
     id="defs2">
    <linearGradient
       inkscape:collect="always"
       xlink:href="#linearGradient2279"
       id="linearGradient4780"
       x1="2"
       y1="2"
       x2="30"
       y2="30"
       gradientUnits="userSpaceOnUse"
       gradientTransform="scale(4)" />
    <linearGradient
       inkscape:collect="always"
       id="linearGradient2279">
      <stop
         style="stop-color:#838383;stop-opacity:1;"
         offset="0"
         id="stop2275" />
      <stop
         style="stop-color:#c2c2c2;stop-opacity:1;"
         offset="1"
         id="stop2277" />
    </linearGradient>
  </defs>
  <path
     d="M 52,9 C 15.595238,9 8,16.759268 8,53 v 24 c 0,36.24073 7.595238,44 44,44 h 24 c 36.40476,0 44,-7.75927 44,-44 V 53 C 120,16.759268 112.40476,9 76,9"
     style="opacity:0.2;fill:#000000;stroke-width:4;stroke-linecap:round;stroke-linejoin:round"
     id="path563" />
  <path
     id="path530"
     style="fill:url(#linearGradient4780);fill-opacity:1;stroke-width:4;stroke-linecap:round;stroke-linejoin:round"
     d="M 52,8 C 15.595274,8 8,15.759304 8,52 v 24 c 0,36.2407 7.595274,44 44,44 h 24 c 36.40473,0 44,-7.7593 44,-44 V 52 C 120,15.759304 112.40473,8 76,8 Z" />
  <path
     id="path1468"
     style="opacity:0.6;fill:#ffffff;fill-opacity:1;stroke-width:8.46596;stroke-linecap:round;stroke-linejoin:round"
     d="m 64,26 a 38,38 0 0 0 -24.972656,9.371094 l -4.78125,-4.785156 c -0.783474,-0.783474 -2.044652,-0.783474 -2.828126,0 l -2.83203,2.832032 c -0.783474,0.783472 -0.783474,2.04465 0,2.828124 l 5.058594,5.058594 A 38,38 0 0 0 26,64 38,38 0 0 0 64,102 38,38 0 0 0 102,64 38,38 0 0 0 64,26 Z" />
  <circle
     style="opacity:0.6;fill:#ffffff;stroke-width:8;stroke-linecap:round;stroke-linejoin:round"
     id="path291"
     cx="64"
     cy="64"
     r="38" />
  <rect
     style="opacity:1;fill:#b3b3b3;fill-opacity:1;stroke-width:8;stroke-linecap:round;stroke-linejoin:round"
     id="rect451"
     width="8"
     height="36"
     x="83.856171"
     y="-7.8356371"
     ry="4"
     transform="rotate(30)" />
  <circle
     style="opacity:1;fill:#666666;fill-opacity:1;stroke-width:6;stroke-linecap:round;stroke-linejoin:round"
     id="path2027"
     cx="64"
     cy="64"
     r="6" />
</svg>
