<?xml version="1.0" encoding="UTF-8" standalone="no"?>
<!-- Created with Inkscape (http://www.inkscape.org/) -->

<svg
   width="128"
   height="128"
   viewBox="0 0 128 128"
   version="1.1"
   id="svg5"
   inkscape:version="1.3.2 (091e20ef0f, 2023-11-25, custom)"
   sodipodi:docname="thermal-monitor.svg"
   xmlns:inkscape="http://www.inkscape.org/namespaces/inkscape"
   xmlns:sodipodi="http://sodipodi.sourceforge.net/DTD/sodipodi-0.dtd"
   xmlns:xlink="http://www.w3.org/1999/xlink"
   xmlns="http://www.w3.org/2000/svg"
   xmlns:svg="http://www.w3.org/2000/svg">
  <sodipodi:namedview
     id="namedview7"
     pagecolor="#ffffff"
     bordercolor="#000000"
     borderopacity="0.25"
     inkscape:showpageshadow="2"
     inkscape:pageopacity="0.0"
     inkscape:pagecheckerboard="0"
     inkscape:deskcolor="#d1d1d1"
     inkscape:document-units="px"
     showgrid="false"
     inkscape:zoom="6.296875"
     inkscape:cx="64"
     inkscape:cy="64"
     inkscape:window-width="1920"
     inkscape:window-height="1019"
     inkscape:window-x="0"
     inkscape:window-y="0"
     inkscape:window-maximized="1"
     inkscape:current-layer="svg5"
     showguides="false" />
  <defs
     id="defs2">
    <linearGradient
       inkscape:collect="always"
       xlink:href="#linearGradient1144"
       id="linearGradient3500"
       x1="2"
       y1="2"
       x2="30"
       y2="30"
       gradientUnits="userSpaceOnUse"
       gradientTransform="scale(4)" />
    <linearGradient
       inkscape:collect="always"
       id="linearGradient1144">
      <stop
         style="stop-color:#adb2b9;stop-opacity:1;"
         offset="0"
         id="stop1140" />
      <stop
         style="stop-color:#e0e2e4;stop-opacity:1;"
         offset="1"
         id="stop1142" />
    </linearGradient>
  </defs>
  <path
     d="M 52,9 C 15.595238,9 8,16.759268 8,53 v 24 c 0,36.24073 7.595238,44 44,44 h 24 c 36.40476,0 44,-7.75927 44,-44 V 53 C 120,16.759268 112.40476,9 76,9"
     style="opacity:0.2;fill:#000000;stroke-width:4;stroke-linecap:round;stroke-linejoin:round"
     id="path563" />
  <path
     id="path530"
     style="fill:url(#linearGradient3500);fill-opacity:1;stroke-width:4;stroke-linecap:round;stroke-linejoin:round"
     d="M 52,8 C 15.595274,8 8,15.759304 8,52 v 24 c 0,36.2407 7.595274,44 44,44 h 24 c 36.40473,0 44,-7.7593 44,-44 V 52 C 120,15.759304 112.40473,8 76,8 Z" />
  <path
     id="path18"
     style="opacity:1;fill:#666666;fill-opacity:1;stroke-width:2"
     d="M 64,24 C 58.460012,24 54,28.460012 54,34 V 66.710938 C 47.821704,70.277966 44.011222,76.865934 44,84 c 0,11.045682 8.954318,20 20,20 11.045682,0 20,-8.954318 20,-20 C 83.993,76.861744 80.181916,70.268346 74,66.699218 V 34 C 74,28.460012 69.539988,24 64,24 Z m 0,6 c 2.31978,0 4,1.68022 4,4 v 36.164062 l 3,1.73047 c 4.3345,2.502518 6.99368,7.104542 7,12.109374 C 77.997876,91.805056 71.8017,98 64,98 56.199636,98 50.004246,91.807074 50,84.007812 v -0.004 c 0.0092,-5.001872 2.668058,-9.596616 7,-12.097656 l 3,-1.730374 V 34 c 0,-2.31978 1.68022,-4 4,-4 z" />
  <path
     id="path20"
     style="fill:#f75f5f;stroke-width:2"
     d="m 60,52 v 18.175782 l -3,1.730468 c -4.331946,2.501042 -6.9908,7.095778 -7,12.097656 v 0.004 C 50.004246,91.806988 56.199628,98 64,98 71.801708,98 77.997876,91.805064 78,84.003906 77.9936,78.999068 75.334504,74.397054 71,71.894532 l -3,-1.73047 V 52 Z" />
</svg>
