<?xml version="1.0" encoding="UTF-8" standalone="no"?>
<!-- Created with Inkscape (http://www.inkscape.org/) -->

<svg
   width="128"
   height="128"
   viewBox="0 0 128 128"
   version="1.1"
   id="svg5"
   inkscape:version="1.2.1 (9c6d41e410, 2022-07-14)"
   sodipodi:docname="timeshift.svg"
   xmlns:inkscape="http://www.inkscape.org/namespaces/inkscape"
   xmlns:sodipodi="http://sodipodi.sourceforge.net/DTD/sodipodi-0.dtd"
   xmlns:xlink="http://www.w3.org/1999/xlink"
   xmlns="http://www.w3.org/2000/svg"
   xmlns:svg="http://www.w3.org/2000/svg">
  <sodipodi:namedview
     id="namedview7"
     pagecolor="#ffffff"
     bordercolor="#000000"
     borderopacity="0.25"
     inkscape:showpageshadow="2"
     inkscape:pageopacity="0.0"
     inkscape:pagecheckerboard="0"
     inkscape:deskcolor="#d1d1d1"
     inkscape:document-units="px"
     showgrid="false"
     inkscape:zoom="6.25"
     inkscape:cx="63.92"
     inkscape:cy="64"
     inkscape:window-width="1920"
     inkscape:window-height="1006"
     inkscape:window-x="0"
     inkscape:window-y="0"
     inkscape:window-maximized="1"
     inkscape:current-layer="svg5" />
  <defs
     id="defs2">
    <linearGradient
       inkscape:collect="always"
       id="linearGradient2775">
      <stop
         style="stop-color:#d44e41;stop-opacity:1;"
         offset="0"
         id="stop2771" />
      <stop
         style="stop-color:#d37272;stop-opacity:1;"
         offset="1"
         id="stop2773" />
    </linearGradient>
    <linearGradient
       inkscape:collect="always"
       xlink:href="#linearGradient2775"
       id="linearGradient4780"
       x1="2"
       y1="2"
       x2="30"
       y2="30"
       gradientUnits="userSpaceOnUse"
       gradientTransform="scale(4)" />
  </defs>
  <path
     d="M 52,9 C 15.595238,9 8,16.759268 8,53 v 24 c 0,36.24073 7.595238,44 44,44 h 24 c 36.40476,0 44,-7.75927 44,-44 V 53 C 120,16.759268 112.40476,9 76,9"
     style="opacity:0.2;fill:#000000;stroke-width:4;stroke-linecap:round;stroke-linejoin:round"
     id="path563" />
  <path
     id="path530"
     style="fill:url(#linearGradient4780);fill-opacity:1;stroke-width:4;stroke-linecap:round;stroke-linejoin:round"
     d="M 52,8 C 15.595274,8 8,15.759304 8,52 v 24 c 0,36.2407 7.595274,44 44,44 h 24 c 36.40473,0 44,-7.7593 44,-44 V 52 C 120,15.759304 112.40473,8 76,8 Z" />
  <path
     d="M 66.813736,92.104892 C 58.97519,89.276798 54.867364,89.897662 51.645582,90 c -3.422956,0.295696 -6.735494,1.18046 -10.091982,2.28344 -1.839348,0.536236 -1.84178,0.508374 -0.1232,-1.413186 5.289028,-4.62813 11.431048,-8.414516 17.563452,-9.653196 4.452204,0 7.398064,-3.565394 6.446116,-6.525832 -3.575128,-5.82095 -13.43997,-13.419524 -13.43997,-15.490282 0,-1.733258 3.026706,-6.134116 6.983172,-10.312422 1.750692,-1.848844 4.106156,-3.327546 3.560084,-3.830462 C 61.40537,44.010144 50.49291,42 45.393528,42 c -4.072924,0 -7.663056,2.74388 -7.663056,5.433728 0,0.746238 0.499396,2.818676 2.088776,4.60542 l 2.88978,3.248622 c -1.911436,2.179886 -2.727992,4.5428 -6.015552,4.5428 -4.715148,0 -4.715148,-3.817442 -4.69021,-7.530628 0.665788,-9.09272 14.544962,-19.493484 27.672422,-18.18846 8.30324,0.826934 15.58148,1.29343 23.530324,1.888518 4.42236,0.218192 7.194764,-0.16586 11.342444,-1.736826 3.005668,-1.138434 1.088864,2.524242 -3.410744,6.51734 C 85.725666,45.58334 82.523566,46.79899 73.855,46 c -6.483756,-0.597612 -8.257716,0.663124 -9.743112,4.619842 -1.178764,3.139952 1.706892,6.132556 7.829776,12.522714 3.019284,3.151066 4.079272,5.18636 4.058334,7.17794 -0.0188,1.782268 -0.82289,3.529518 -3.166352,6.010076 -2.066204,2.187086 -4.84806,4.362668 -4.552544,4.834616 C 69.208274,82.645942 75.34702,86 78.692822,86 c 1.763524,0 6.690832,-1.107498 8.670356,-2.104288 3.348376,-1.686074 4.76964,-1.670868 4.76964,0.05106 0,1.363556 -12.138256,10.068976 -18.165812,10.053208 -1.096468,-0.003 -4.315292,-0.871142 -7.15327,-1.895088 z"
     style="fill:#3f3f3f;stroke-width:2"
     id="path304" />
</svg>
