<?xml version="1.0" encoding="UTF-8" standalone="no"?>
<!-- Created with Inkscape (http://www.inkscape.org/) -->

<svg
   width="128"
   height="128"
   viewBox="0 0 128 128"
   version="1.1"
   id="svg5"
   inkscape:version="1.4.4 (dcaf3e7d9e, 2026-05-05)"
   sodipodi:docname="twitter-x.svg"
   xmlns:inkscape="http://www.inkscape.org/namespaces/inkscape"
   xmlns:sodipodi="http://sodipodi.sourceforge.net/DTD/sodipodi-0.dtd"
   xmlns="http://www.w3.org/2000/svg"
   xmlns:svg="http://www.w3.org/2000/svg">
  <sodipodi:namedview
     id="namedview7"
     pagecolor="#ffffff"
     bordercolor="#000000"
     borderopacity="0.25"
     inkscape:showpageshadow="2"
     inkscape:pageopacity="0.0"
     inkscape:pagecheckerboard="0"
     inkscape:deskcolor="#d1d1d1"
     inkscape:document-units="px"
     showgrid="false"
     inkscape:zoom="6.265625"
     inkscape:cx="64"
     inkscape:cy="64"
     inkscape:window-width="1920"
     inkscape:window-height="1010"
     inkscape:window-x="0"
     inkscape:window-y="0"
     inkscape:window-maximized="1"
     inkscape:current-layer="svg5"
     showguides="false" />
  <defs
     id="defs2" />
  <path
     d="M 51.999999,8.9999999 C 15.595239,8.9999999 8,16.759268 8,52.999999 V 77 c 0,36.24073 7.595239,44 43.999999,44 H 76.000001 C 112.40476,121 120,113.24073 120,77 V 52.999999 C 120,16.759268 112.40476,8.9999999 76.000001,8.9999999"
     style="opacity:0.2;fill:#000000;stroke-width:4;stroke-linecap:round;stroke-linejoin:round"
     id="path563" />
  <path
     id="path530"
     style="fill:#2f2f2f;fill-opacity:1;stroke-width:4;stroke-linecap:round;stroke-linejoin:round"
     d="M 51.999999,8 C 15.595275,8 8,15.759304 8,51.999999 V 76.000001 C 8,112.2407 15.595275,120 51.999999,120 H 76.000001 C 112.40473,120 120,112.2407 120,76.000001 V 51.999999 C 120,15.759304 112.40473,8 76.000001,8 Z" />
  <path
     d="M 26.000001,23.999999 57.875001,66.5 26.000001,104 h 8 L 61.625001,71.500001 86,104 h 16 L 70.124999,61.5 102,23.999999 h -8.000001 l -27.625,32.5 L 42,23.999999 Z m 8,4.000001 h 6 l 53.999998,72 h -6 z"
     style="fill:#ffffff;stroke-width:4"
     id="path3" />
</svg>
