<?xml version="1.0" encoding="UTF-8" standalone="no"?>
<!-- Created with Inkscape (http://www.inkscape.org/) -->

<svg
   width="128"
   height="128"
   viewBox="0 0 128 128"
   version="1.1"
   id="svg5"
   inkscape:version="1.2.1 (9c6d41e410, 2022-07-14)"
   sodipodi:docname="utilities-log-viewer.svg"
   xmlns:inkscape="http://www.inkscape.org/namespaces/inkscape"
   xmlns:sodipodi="http://sodipodi.sourceforge.net/DTD/sodipodi-0.dtd"
   xmlns:xlink="http://www.w3.org/1999/xlink"
   xmlns="http://www.w3.org/2000/svg"
   xmlns:svg="http://www.w3.org/2000/svg">
  <sodipodi:namedview
     id="namedview7"
     pagecolor="#ffffff"
     bordercolor="#000000"
     borderopacity="0.25"
     inkscape:showpageshadow="2"
     inkscape:pageopacity="0.0"
     inkscape:pagecheckerboard="0"
     inkscape:deskcolor="#d1d1d1"
     inkscape:document-units="px"
     showgrid="false"
     inkscape:zoom="6.2734375"
     inkscape:cx="64"
     inkscape:cy="64"
     inkscape:window-width="1920"
     inkscape:window-height="1006"
     inkscape:window-x="0"
     inkscape:window-y="0"
     inkscape:window-maximized="1"
     inkscape:current-layer="svg5" />
  <defs
     id="defs2">
    <linearGradient
       inkscape:collect="always"
       xlink:href="#linearGradient1217"
       id="linearGradient4780"
       x1="2"
       y1="2"
       x2="30"
       y2="30"
       gradientUnits="userSpaceOnUse"
       gradientTransform="scale(4)" />
    <linearGradient
       inkscape:collect="always"
       id="linearGradient1217">
      <stop
         style="stop-color:#96a3ad;stop-opacity:1;"
         offset="0"
         id="stop1213" />
      <stop
         style="stop-color:#c4c8cd;stop-opacity:1;"
         offset="1"
         id="stop1215" />
    </linearGradient>
  </defs>
  <path
     d="M 52,9 C 15.595238,9 8,16.759268 8,53 v 24 c 0,36.24073 7.595238,44 44,44 h 24 c 36.40476,0 44,-7.75927 44,-44 V 53 C 120,16.759268 112.40476,9 76,9"
     style="opacity:0.2;fill:#000000;stroke-width:4;stroke-linecap:round;stroke-linejoin:round"
     id="path563" />
  <path
     id="path530"
     style="fill:url(#linearGradient4780);fill-opacity:1;stroke-width:4;stroke-linecap:round;stroke-linejoin:round"
     d="M 52,8 C 15.595274,8 8,15.759304 8,52 v 24 c 0,36.2407 7.595274,44 44,44 h 24 c 36.40473,0 44,-7.7593 44,-44 V 52 C 120,15.759304 112.40473,8 76,8 Z" />
  <path
     id="rect291"
     style="opacity:0.5;fill:#ffffff;stroke-width:4;stroke-linecap:round"
     d="m 26,36 c -1.107998,0 -2,0.892002 -2,2 0,1.107998 0.892002,2 2,2 h 76 c 1.108,0 2,-0.892002 2,-2 0,-1.107998 -0.892,-2 -2,-2 z m 0,16 c -1.107998,0 -2,0.892 -2,2 0,1.108 0.892002,2 2,2 h 76 c 1.108,0 2,-0.892 2,-2 0,-1.108 -0.892,-2 -2,-2 z m 0,16 c -1.107994,0 -2,0.892 -2,2 0,1.108 0.892006,2 2,2 h 76 c 1.108,0 2,-0.892 2,-2 0,-1.108 -0.892,-2 -2,-2 z m 0,16 c -1.107994,0 -2,0.892 -2,2 0,1.108 0.892006,2 2,2 h 36 c 1.108,0 2,-0.892 2,-2 0,-1.108 -0.892,-2 -2,-2 z"
     sodipodi:nodetypes="ssssssssssssssssssssssssssss" />
  <path
     id="path557"
     style="opacity:1;fill:#ffffff;stroke-width:4.4;stroke-linecap:round"
     d="M 68,46 A 22,22 0 0 0 46,68 22,22 0 0 0 68,90 22,22 0 0 0 82.078124,84.90625 l 15.621094,15.62109 c 0.783474,0.78348 2.044652,0.78348 2.828122,0 0.78348,-0.78347 0.78348,-2.044648 0,-2.828122 L 84.90625,82.078124 A 22,22 0 0 0 90,68 22,22 0 0 0 68,46 Z m 0,4 A 18,18 0 0 1 86,68 18,18 0 0 1 80.726562,80.726562 18,18 0 0 1 68,86 18,18 0 0 1 50,68 18,18 0 0 1 68,50 Z" />
</svg>
