<?xml version="1.0" encoding="UTF-8" standalone="no"?>
<!-- Created with Inkscape (http://www.inkscape.org/) -->

<svg
   width="128"
   height="128"
   viewBox="0 0 128 128"
   version="1.1"
   id="svg5"
   inkscape:version="1.2.1 (9c6d41e410, 2022-07-14)"
   sodipodi:docname="vim.svg"
   xmlns:inkscape="http://www.inkscape.org/namespaces/inkscape"
   xmlns:sodipodi="http://sodipodi.sourceforge.net/DTD/sodipodi-0.dtd"
   xmlns:xlink="http://www.w3.org/1999/xlink"
   xmlns="http://www.w3.org/2000/svg"
   xmlns:svg="http://www.w3.org/2000/svg">
  <sodipodi:namedview
     id="namedview7"
     pagecolor="#ffffff"
     bordercolor="#000000"
     borderopacity="0.25"
     inkscape:showpageshadow="2"
     inkscape:pageopacity="0.0"
     inkscape:pagecheckerboard="0"
     inkscape:deskcolor="#d1d1d1"
     inkscape:document-units="px"
     showgrid="false"
     inkscape:zoom="6.265625"
     inkscape:cx="64"
     inkscape:cy="64"
     inkscape:window-width="1920"
     inkscape:window-height="1008"
     inkscape:window-x="0"
     inkscape:window-y="0"
     inkscape:window-maximized="1"
     inkscape:current-layer="svg5" />
  <defs
     id="defs2">
    <linearGradient
       inkscape:collect="always"
       xlink:href="#linearGradient4207"
       id="linearGradient4780"
       x1="2"
       y1="2"
       x2="30"
       y2="30"
       gradientUnits="userSpaceOnUse"
       gradientTransform="scale(4.0000002)" />
    <linearGradient
       inkscape:collect="always"
       id="linearGradient4207">
      <stop
         style="stop-color:#418d29;stop-opacity:1;"
         offset="0"
         id="stop4203" />
      <stop
         style="stop-color:#8fd989;stop-opacity:1;"
         offset="1"
         id="stop4205" />
    </linearGradient>
  </defs>
  <path
     d="M 51.999999,8.9999998 C 15.59524,8.9999998 8,16.759267 8,52.999998 V 77.000001 C 8,113.24073 15.59524,121 51.999999,121 H 76.000001 C 112.40476,121 120,113.24073 120,77.000001 V 52.999998 C 120,16.759267 112.40476,8.9999998 76.000001,8.9999998"
     style="opacity:0.2;fill:#000000;stroke-width:4.00001;stroke-linecap:round;stroke-linejoin:round"
     id="path563" />
  <path
     id="path530"
     style="fill:url(#linearGradient4780);fill-opacity:1;stroke-width:4.00001;stroke-linecap:round;stroke-linejoin:round"
     d="M 51.999999,8 C 15.595276,8 8,15.759304 8,51.999999 V 76.000001 C 8,112.2407 15.595276,120 51.999999,120 H 76.000001 C 112.40473,120 120,112.2407 120,76.000001 V 51.999999 C 120,15.759304 112.40473,8 76.000001,8 Z" />
  <rect
     style="opacity:0.5;fill:#ffffff;stroke:none;stroke-width:16;stroke-linecap:square;stroke-linejoin:miter;stroke-dasharray:none;stroke-opacity:1;paint-order:stroke fill markers"
     id="rect4147"
     width="64"
     height="64"
     x="58.509655"
     y="-32"
     ry="8"
     transform="rotate(45)" />
  <path
     id="rect898"
     style="fill:#ffffff;stroke:none;stroke-width:5.99999;stroke-linecap:round;stroke-linejoin:round;paint-order:stroke fill markers"
     d="m 34.000001,36 c -2.215998,0 -4.000002,1.784003 -4.000002,4.000002 0,2.215994 1.784004,3.999997 4.000002,3.999997 h 3.999998 v 1 44.999593 c 0.006,5.465022 6.723079,8.077801 10.421877,4.054689 l 45.96875,-50.843344 c 0.978446,-0.727839 1.609376,-1.892358 1.609376,-3.210935 C 96.000002,37.784003 94.215994,36 92,36 H 76.000001 c -2.215998,0 -4.000002,1.784003 -4.000002,4.000002 0,2.215994 1.784004,3.999997 4.000002,3.999997 h 1.218753 L 50,74.577718 v -29.577719 -1 h 1.999999 c 2.215998,0 4.000002,-1.784003 4.000002,-3.999997 C 56.000001,37.784003 54.215997,36 51.999999,36 Z"
     sodipodi:nodetypes="ssscccccsssssccccssss" />
</svg>
