<?xml version="1.0" encoding="UTF-8" standalone="no"?>
<!-- Created with Inkscape (http://www.inkscape.org/) -->

<svg
   width="32"
   height="32"
   viewBox="0 0 32 32"
   version="1.1"
   id="svg5"
   inkscape:version="1.4 (e7c3feb100, 2024-10-09)"
   sodipodi:docname="accessories-calculator.svg"
   xmlns:inkscape="http://www.inkscape.org/namespaces/inkscape"
   xmlns:sodipodi="http://sodipodi.sourceforge.net/DTD/sodipodi-0.dtd"
   xmlns:xlink="http://www.w3.org/1999/xlink"
   xmlns="http://www.w3.org/2000/svg"
   xmlns:svg="http://www.w3.org/2000/svg">
  <sodipodi:namedview
     id="namedview7"
     pagecolor="#ffffff"
     bordercolor="#000000"
     borderopacity="0.25"
     inkscape:showpageshadow="2"
     inkscape:pageopacity="0.0"
     inkscape:pagecheckerboard="0"
     inkscape:deskcolor="#d1d1d1"
     inkscape:document-units="px"
     showgrid="false"
     inkscape:zoom="28.206897"
     inkscape:cx="16.02445"
     inkscape:cy="16.48533"
     inkscape:window-width="1920"
     inkscape:window-height="1011"
     inkscape:window-x="0"
     inkscape:window-y="0"
     inkscape:window-maximized="1"
     inkscape:current-layer="svg5"
     showguides="true" />
  <defs
     id="defs2">
    <linearGradient
       inkscape:collect="always"
       xlink:href="#linearGradient3147"
       id="linearGradient1525"
       x1="35.553715"
       y1="35.459599"
       x2="44.404575"
       y2="47.949219"
       gradientUnits="userSpaceOnUse"
       gradientTransform="translate(-19.553713,-19.459597)" />
    <linearGradient
       inkscape:collect="always"
       id="linearGradient3147">
      <stop
         style="stop-color:#41bbff;stop-opacity:1;"
         offset="0"
         id="stop3143" />
      <stop
         style="stop-color:#0091f9;stop-opacity:1;"
         offset="1"
         id="stop3145" />
    </linearGradient>
    <linearGradient
       inkscape:collect="always"
       xlink:href="#4852"
       id="linearGradient3500"
       x1="2"
       y1="2"
       x2="30"
       y2="30"
       gradientUnits="userSpaceOnUse" />
    <linearGradient
       inkscape:collect="always"
       id="4852">
      <stop
         style="stop-color:#272727;stop-opacity:1;"
         offset="0"
         id="stop14555" />
      <stop
         style="stop-color:#5d5d5d;stop-opacity:1;"
         offset="1"
         id="stop14557" />
    </linearGradient>
  </defs>
  <path
     d="M 13,3 C 3.8988095,3 2,4.939817 2,14 v 6 c 0,9.060183 1.8988095,11 11,11 h 6 c 9.10119,0 11,-1.939817 11,-11 V 14 C 30,4.939817 28.10119,3 19,3"
     style="opacity:0.2;fill:#000000;stroke-width:1;stroke-linecap:round;stroke-linejoin:round"
     id="path563" />
  <path
     id="path530"
     style="fill:url(#linearGradient3500);fill-opacity:1;stroke-width:1;stroke-linecap:round;stroke-linejoin:round"
     d="M 13,2 C 3.8988186,2 2,3.9398261 2,13 v 6 c 0,9.060174 1.8988186,11 11,11 h 6 c 9.101182,0 11,-1.939826 11,-11 V 13 C 30,3.9398261 28.101182,2 19,2 Z" />
  <path
     id="rect686"
     style="fill:url(#linearGradient1525);fill-opacity:1;stroke-width:1.57143;stroke-linecap:round;stroke-linejoin:round"
     d="M 18 16 C 16.892001 16 16 16.892001 16 18 L 16 27 C 16 28.107999 16.892001 29 18 29 L 21 29 C 27.072313 29 29 27.027865 29 21 L 29 18 C 29 16.892001 28.107999 16 27 16 L 18 16 z " />
  <path
     id="path364"
     style="fill:#ffffff;stroke-width:6.85863;stroke-linejoin:round"
     d="M 9 7 L 9 10 L 6 10 L 6 11 L 9 11 L 9 14 L 10 14 L 10 11 L 13 11 L 13 10 L 10 10 L 10 7 L 9 7 z M 19 10 L 19 11 L 26 11 L 26 10 L 19 10 z M 6.3535156 18.646484 L 5.6464844 19.353516 L 8.2929688 22 L 5.6464844 24.646484 L 6.3535156 25.353516 L 9 22.707031 L 11.646484 25.353516 L 12.353516 24.646484 L 9.7070312 22 L 12.353516 19.353516 L 11.646484 18.646484 L 9 21.292969 L 6.3535156 18.646484 z " />
  <path
     d="m 19,20 v 0.999999 h 7 V 20 Z m 0,3.000001 V 24 h 7 v -0.999999 z"
     style="fill:#ffffff;stroke-width:6.8586;stroke-linejoin:round"
     id="path697"
     sodipodi:nodetypes="cccccccccc" />
</svg>
