<?xml version="1.0" encoding="UTF-8" standalone="no"?>
<svg
   width="22"
   height="22"
   version="1.1"
   id="svg1"
   sodipodi:docname="audio-volume-muted-headphones-symbolic.svg"
   inkscape:version="1.4.2 (ebf0e940d0, 2025-05-08)"
   xmlns:inkscape="http://www.inkscape.org/namespaces/inkscape"
   xmlns:sodipodi="http://sodipodi.sourceforge.net/DTD/sodipodi-0.dtd"
   xmlns="http://www.w3.org/2000/svg"
   xmlns:svg="http://www.w3.org/2000/svg">
  <defs
     id="defs1">
    <style
       id="current-color-scheme"
       type="text/css">
        .ColorScheme-Text { color:#f2f2f2; }
        .ColorScheme-NeutralText { color:#f67400; }
        .ColorScheme-PositiveText { color:#37c837; }
        .ColorScheme-NegativeText { color:#f44336; }
     </style>
  </defs>
  <sodipodi:namedview
     id="namedview1"
     pagecolor="#ffffff"
     bordercolor="#000000"
     borderopacity="0.25"
     inkscape:showpageshadow="2"
     inkscape:pageopacity="0.0"
     inkscape:pagecheckerboard="0"
     inkscape:deskcolor="#d1d1d1"
     inkscape:zoom="36.136364"
     inkscape:cx="11"
     inkscape:cy="11"
     inkscape:window-width="1920"
     inkscape:window-height="1010"
     inkscape:window-x="0"
     inkscape:window-y="0"
     inkscape:window-maximized="1"
     inkscape:current-layer="svg1" />
  <path
     id="path1"
     style="opacity:0.35;fill:currentColor"
     class="ColorScheme-Text"
     d="m 4.2834181,3.781 c -0.12781,0 -0.2555806,0.050502 -0.3535156,0.1484375 -0.19587,0.19587 -0.19587,0.5111613 0,0.7070313 L 5.7052931,6.4118594 C 4.6420459,7.6385961 4.000215,9.241462 4.000215,10.99975 v 5 c 0,1.1046 0.89543,2 2,2 h 1.5 c 0.27614,0 0.5,-0.2239 0.5,-0.5 v -5 c 0,-0.2761 -0.22386,-0.5 -0.5,-0.5 h -2.5 v -1 c 0,-1.481243 0.5310667,-2.8341639 1.4140625,-3.8789062 l 7.5859375,7.5859372 v 2.792969 c 0,0.2761 0.2239,0.5 0.5,0.5 h 1.5 c 0.370754,0 0.717883,-0.101378 1.015625,-0.277344 l 0.347656,0.347656 c 0.195869,0.195869 0.511162,0.19587 0.707031,0 0.195869,-0.195869 0.19587,-0.511162 0,-0.707031 L 4.6369338,3.9294375 C 4.5389987,3.8315025 4.4112281,3.781 4.2834181,3.781 Z m 6.7167969,0.21875 c -1.393818,0 -2.6906522,0.4028599 -3.7792969,1.0996094 L 7.9494338,5.827875 C 8.8423701,5.3017129 9.884641,4.99975 11.000215,4.99975 c 3.324,0 6,2.676 6,6 v 1 h -2.5 c -0.107076,0 -0.20575,0.03446 -0.287109,0.0918 l 0.908203,0.9082 h 1.878906 v 1.878906 l 1,1 V 10.99975 c 0,-3.878 -3.122,-7 -7,-7 z m -6,9 h 2 v 4 h -1 c -0.55228,0 -1,-0.4477 -1,-1 z m 10,2.707031 1.259766,1.259766 c -0.08258,0.02212 -0.170184,0.0332 -0.259766,0.0332 h -1 z" />
</svg>
