<?xml version="1.0" encoding="UTF-8" standalone="no"?>
<svg
   width="22"
   height="22"
   version="1.1"
   id="svg2"
   sodipodi:docname="brightness-low-symbolic.svg"
   inkscape:version="1.4.2 (ebf0e940d0, 2025-05-08)"
   xmlns:inkscape="http://www.inkscape.org/namespaces/inkscape"
   xmlns:sodipodi="http://sodipodi.sourceforge.net/DTD/sodipodi-0.dtd"
   xmlns="http://www.w3.org/2000/svg"
   xmlns:svg="http://www.w3.org/2000/svg">
  <defs
     id="defs2">
    <style
       id="current-color-scheme"
       type="text/css">
        .ColorScheme-Text { color:#f2f2f2; }
        .ColorScheme-NeutralText { color:#f67400; }
        .ColorScheme-PositiveText { color:#37c837; }
        .ColorScheme-NegativeText { color:#f44336; }
        .ColorScheme-Highlight { color:#3daee9; }
     </style>
  </defs>
  <sodipodi:namedview
     id="namedview2"
     pagecolor="#ffffff"
     bordercolor="#000000"
     borderopacity="0.25"
     inkscape:showpageshadow="2"
     inkscape:pageopacity="0.0"
     inkscape:pagecheckerboard="0"
     inkscape:deskcolor="#d1d1d1"
     inkscape:zoom="36.136364"
     inkscape:cx="11"
     inkscape:cy="11"
     inkscape:window-width="1920"
     inkscape:window-height="1010"
     inkscape:window-x="0"
     inkscape:window-y="0"
     inkscape:window-maximized="1"
     inkscape:current-layer="svg2" />
  <path
     id="path1"
     style="fill:currentColor"
     class="ColorScheme-Text"
     d="m 11,4 c -0.27614,0 -0.5,0.22386 -0.5,0.5 v 1 c 0,0.27614 0.22386,0.5 0.5,0.5 0.27614,0 0.5,-0.22386 0.5,-0.5 v -1 C 11.5,4.22386 11.27614,4 11,4 Z M 6.4042969,5.9042969 c -0.1279625,0 -0.2558856,0.048854 -0.3535157,0.1464843 -0.19526,0.1952601 -0.19526,0.5117713 0,0.7070313 l 0.7070313,0.7070313 c 0.19526,0.19526 0.5117612,0.19526 0.7070313,0 0.19526,-0.19527 0.19526,-0.5117713 0,-0.7070313 L 6.7578125,6.0507812 C 6.6601825,5.9531512 6.5322594,5.9042969 6.4042969,5.9042969 Z m 9.1914061,0 c -0.127962,0 -0.255866,0.048854 -0.353515,0.1464843 l -0.707032,0.7070313 c -0.1952,0.19526 -0.1952,0.5117613 0,0.7070313 0.1953,0.19526 0.511831,0.19526 0.707032,0 l 0.707031,-0.7070313 c 0.1953,-0.19526 0.1953,-0.5117712 0,-0.7070313 -0.0976,-0.09763 -0.225553,-0.1464843 -0.353516,-0.1464843 z M 11,7 c -2.2091,0 -4,1.7909 -4,4 0,2.2091 1.7909,4 4,4 2.2091,0 4,-1.7909 4,-4 0,-2.2091 -1.7909,-4 -4,-4 z m 0,1 c 1.6568,0 3,1.3432 3,3 0,1.6568 -1.3432,3 -3,3 C 9.3432,14 8,12.6569 8,11 8,9.3432 9.3432,8 11,8 Z M 4.5,10.5 C 4.22386,10.5 4,10.72386 4,11 c 0,0.27614 0.22386,0.5 0.5,0.5 h 1 C 5.77614,11.5 6,11.27614 6,11 6,10.72386 5.77614,10.5 5.5,10.5 Z m 12,0 c -0.2761,0 -0.5,0.22386 -0.5,0.5 0,0.27614 0.2239,0.5 0.5,0.5 h 1 c 0.2761,0 0.5,-0.22386 0.5,-0.5 0,-0.27614 -0.2239,-0.5 -0.5,-0.5 z m -9.3886719,3.888672 c -0.1279612,0 -0.2558856,0.04888 -0.3535156,0.146484 l -0.7070313,0.707032 c -0.19526,0.195299 -0.1952599,0.511831 0,0.707031 0.1952601,0.1953 0.5117713,0.1953 0.7070313,0 l 0.7070313,-0.707031 c 0.19526,-0.1952 0.1952599,-0.511732 0,-0.707032 -0.097635,-0.0976 -0.2255544,-0.146484 -0.3535157,-0.146484 z m 7.7773439,0 c -0.127963,0 -0.255866,0.04888 -0.353516,0.146484 -0.1952,0.1953 -0.1952,0.511831 0,0.707032 l 0.707032,0.707031 c 0.195299,0.1953 0.511831,0.1953 0.707031,0 0.1953,-0.1952 0.1953,-0.511732 0,-0.707031 l -0.707031,-0.707032 c -0.0976,-0.0976 -0.225554,-0.146484 -0.353516,-0.146484 z M 11,16 c -0.27614,0 -0.5,0.2239 -0.5,0.5 v 1 c 0,0.2761 0.22386,0.5 0.5,0.5 0.27614,0 0.5,-0.2239 0.5,-0.5 v -1 C 11.5,16.2239 11.27614,16 11,16 Z" />
  <path
     id="path2"
     style="fill:currentColor"
     class="ColorScheme-Text"
     d="M 10,9.267578 A 2,2 0 0 0 9,11 a 2,2 0 0 0 1,1.732422 z" />
</svg>
