<?xml version="1.0" encoding="UTF-8" standalone="no"?>
<svg
   width="22"
   height="22"
   version="1.1"
   id="svg3"
   sodipodi:docname="daytime-sunset-symbolic.svg"
   inkscape:version="1.4.2 (ebf0e940d0, 2025-05-08)"
   xmlns:inkscape="http://www.inkscape.org/namespaces/inkscape"
   xmlns:sodipodi="http://sodipodi.sourceforge.net/DTD/sodipodi-0.dtd"
   xmlns="http://www.w3.org/2000/svg"
   xmlns:svg="http://www.w3.org/2000/svg">
  <defs
     id="defs3">
    <style
       id="current-color-scheme"
       type="text/css">
        .ColorScheme-Text { color:#f2f2f2; }
        .ColorScheme-NeutralText { color:#f67400; }
        .ColorScheme-PositiveText { color:#37c837; }
        .ColorScheme-NegativeText { color:#f44336; }
     </style>
  </defs>
  <sodipodi:namedview
     id="namedview3"
     pagecolor="#ffffff"
     bordercolor="#000000"
     borderopacity="0.25"
     inkscape:showpageshadow="2"
     inkscape:pageopacity="0.0"
     inkscape:pagecheckerboard="0"
     inkscape:deskcolor="#d1d1d1"
     inkscape:zoom="36.136364"
     inkscape:cx="11"
     inkscape:cy="11"
     inkscape:window-width="1920"
     inkscape:window-height="1010"
     inkscape:window-x="0"
     inkscape:window-y="0"
     inkscape:window-maximized="1"
     inkscape:current-layer="svg3" />
  <path
     id="path1"
     style="fill:currentColor"
     class="ColorScheme-Text"
     d="M 10.5,18.5 7,14 h 3 v -2.5 a 0.5,0.5 0 0 1 1,0 V 14 h 3 z M 5.5507812,10.951172 a 0.5,0.5 0 0 1 -0.3535156,-0.148438 0.499,0.499 0 0 1 0,-0.707031 L 5.9042969,9.388672 a 0.498,0.498 0 0 1 0.7070312,0 0.499,0.499 0 0 1 0,0.707031 l -0.7070312,0.707031 a 0.5,0.5 0 0 1 -0.3535157,0.148438 z m 9.8984378,-0.0019 a 0.498,0.498 0 0 1 -0.353516,-0.146485 l -0.707031,-0.707031 a 0.49994659,0.49994659 0 1 1 0.707031,-0.707031 l 0.707031,0.707028 a 0.499,0.499 0 0 1 -0.353515,0.853466 z M 10.5,10 C 8.186,10 6.3027813,8.247 6.0507812,6 H 14.949219 C 14.698219,8.247 12.814,10 10.5,10 Z m -7,-3 a 0.5,0.5 0 0 1 0,-1 h 1 a 0.5,0.5 0 0 1 0,1 z m 13,0 a 0.5,0.5 0 0 1 0,-1 h 1 a 0.5,0.5 0 0 1 0,1 z M 3,5 V 4 h 15 v 1 z" />
</svg>
