<?xml version="1.0" encoding="UTF-8" standalone="no"?>
<svg
   height="22"
   width="22"
   version="1.1"
   id="svg2"
   sodipodi:docname="x-office-document-symbolic.svg"
   inkscape:version="1.4.2 (ebf0e940d0, 2025-05-08)"
   xmlns:inkscape="http://www.inkscape.org/namespaces/inkscape"
   xmlns:sodipodi="http://sodipodi.sourceforge.net/DTD/sodipodi-0.dtd"
   xmlns="http://www.w3.org/2000/svg"
   xmlns:svg="http://www.w3.org/2000/svg">
  <defs
     id="defs2">
    <style
       id="current-color-scheme"
       type="text/css">
        .ColorScheme-Text { color:#363636; }
        .ColorScheme-NeutralText { color:#f67400; }
        .ColorScheme-PositiveText { color:#37c837; }
        .ColorScheme-NegativeText { color:#f44336; }
        .ColorScheme-Highlight { color:#3daee9; }
     </style>
  </defs>
  <sodipodi:namedview
     id="namedview2"
     pagecolor="#ffffff"
     bordercolor="#000000"
     borderopacity="0.25"
     inkscape:showpageshadow="2"
     inkscape:pageopacity="0.0"
     inkscape:pagecheckerboard="0"
     inkscape:deskcolor="#d1d1d1"
     inkscape:zoom="36.181818"
     inkscape:cx="10.986181"
     inkscape:cy="11"
     inkscape:window-width="1920"
     inkscape:window-height="1011"
     inkscape:window-x="0"
     inkscape:window-y="0"
     inkscape:window-maximized="1"
     inkscape:current-layer="svg2" />
  <path
     id="path1"
     style="fill:currentColor;marker:none"
     class="ColorScheme-Text"
     d="M 6,3 C 5.446,3 5,3.446 5,4 v 14 c 0,0.554 0.446,1 1,1 h 10 c 0.554,0 1,-0.446 1,-1 V 8 C 17,7.446 12.554,3 12,3 Z M 6.5,4 H 12 v 4 h 4 v 9.5 c 0,0.277 -0.223,0.5 -0.5,0.5 h -9 C 6.2236283,18.000554 5.9994456,17.776372 6,17.5 V 4.5 C 6,4.223 6.223,4 6.5,4 Z m 3,5 c -0.86,0 -1.5683594,0.708359 -1.5683594,1.568359 0,0.86 0.7083594,1.56836 1.5683594,1.56836 0.86,0 1.568359,-0.70736 1.568359,-1.56836 C 11.068359,9.708359 10.36,9 9.5,9 Z m 0,1 c 0.315843,-0.0047 0.57311,0.252516 0.568359,0.568359 0,0.32 -0.248359,0.56836 -0.568359,0.56836 -0.315843,0.0048 -0.5731104,-0.252516 -0.5683594,-0.56836 C 8.9268896,10.252516 9.184157,9.995249 9.5,10 Z m 2.5,1 v 1 h 2 v -1 z m -4,2 v 1 h 6 v -1 z m 0,2 v 1 h 4 v -1 z" />
</svg>
