<?xml version="1.0" encoding="UTF-8" standalone="no"?>
<svg
   height="22"
   width="22"
   version="1.1"
   id="svg1"
   sodipodi:docname="accessories-calculator-symbolic.svg"
   inkscape:version="1.4.2 (ebf0e940d0, 2025-05-08)"
   xmlns:inkscape="http://www.inkscape.org/namespaces/inkscape"
   xmlns:sodipodi="http://sodipodi.sourceforge.net/DTD/sodipodi-0.dtd"
   xmlns="http://www.w3.org/2000/svg"
   xmlns:svg="http://www.w3.org/2000/svg">
  <defs
     id="defs1">
    <style
       id="current-color-scheme"
       type="text/css">
        .ColorScheme-Text { color:#f2f2f2; }
     </style>
  </defs>
  <sodipodi:namedview
     id="namedview1"
     pagecolor="#ffffff"
     bordercolor="#000000"
     borderopacity="0.25"
     inkscape:showpageshadow="2"
     inkscape:pageopacity="0.0"
     inkscape:pagecheckerboard="0"
     inkscape:deskcolor="#d1d1d1"
     inkscape:zoom="36.136364"
     inkscape:cx="11"
     inkscape:cy="11"
     inkscape:window-width="1920"
     inkscape:window-height="1010"
     inkscape:window-x="0"
     inkscape:window-y="0"
     inkscape:window-maximized="1"
     inkscape:current-layer="svg1" />
  <path
     id="path1"
     style="fill:currentColor"
     class="ColorScheme-Text"
     d="M 6.5,4 C 5,4 5,5.5 5,5.5 v 11.000001 c 0,0 0,1.5 1.5,1.5 h 10 c 1.5,0 1.5,-1.5 1.5,-1.5 V 5.5 C 18,5.5 18,4 16.5,4 Z m 0,1 h 10 c 0,0 0.5,0 0.5,0.5 v 2 C 17,8 16.5,8 16.5,8 H 6.5 C 6,8 6,7.5 6,7.5 v -2 C 6,5.5 6,5 6.5,5 Z M 6.1660156,9 c 0.00666,-6.104e-4 0.012594,0 0.019531,0 h 1.625 c 0.11,0 0.1875,0.07945 0.1875,0.189453 v 1.625 c 0,0.1 -0.0765,0.179688 -0.1875,0.179688 h -1.625 a 0.181,0.181 0 0 1 -0.1875,-0.189453 v -1.625 C 5.9980469,9.085938 6.0660946,9.009155 6.1660156,9 Z M 9.166016,9 c 0.0067,-6.104e-4 0.01259,0 0.01953,0 h 1.625 c 0.11,0 0.1875,0.07945 0.1875,0.189453 v 1.625 c 0,0.1 -0.0765,0.179688 -0.1875,0.179688 h -1.625 A 0.181,0.181 0 0 1 8.9980466,10.804688 v -1.625 C 8.9980469,9.085938 9.0660946,9.009155 9.166016,9 Z m 3,0 c 0.0067,-6.104e-4 0.01259,0 0.01953,0 h 1.625 c 0.11,0 0.1875,0.07945 0.1875,0.189453 v 1.625 c 0,0.1 -0.0765,0.179688 -0.1875,0.179688 h -1.625 a 0.181,0.181 0 0 1 -0.1875,-0.189453 v -1.625 c 0,-0.09375 0.06805,-0.170533 0.167969,-0.179688 z m 3,0 c 0.0067,-6.104e-4 0.01259,0 0.01953,0 h 1.625 c 0.11,0 0.1875,0.07945 0.1875,0.189453 v 1.625 c 0,0.1 -0.0765,0.179688 -0.1875,0.179688 h -1.625 a 0.181,0.181 0 0 1 -0.1875,-0.189453 v -1.625 c 0,-0.09375 0.06805,-0.170533 0.16797,-0.179688 z m -9.0000004,3 c 0.00666,-6.1e-4 0.012594,0 0.019531,0 h 1.625 c 0.11,0 0.1875,0.07945 0.1875,0.189453 v 1.625001 c 0,0.1 -0.0765,0.179687 -0.1875,0.179687 h -1.625 a 0.181,0.181 0 0 1 -0.1875,-0.189453 v -1.625 c 3e-7,-0.09375 0.068048,-0.170533 0.167969,-0.179688 z m 3.0000004,0 c 0.0067,-6.1e-4 0.01259,0 0.01953,0 h 1.625 c 0.11,0 0.1875,0.07945 0.1875,0.189453 v 1.625001 c 0,0.1 -0.0765,0.179687 -0.1875,0.179687 h -1.625 A 0.181,0.181 0 0 1 8.9980466,13.804688 v -1.625 C 8.9980469,12.085938 9.0660946,12.009155 9.166016,12 Z m 3,0 c 0.0067,-6.1e-4 0.01259,0 0.01953,0 h 1.625 c 0.11,0 0.1875,0.07945 0.1875,0.189453 v 1.625001 c 0,0.1 -0.0765,0.179687 -0.1875,0.179687 h -1.625 a 0.181,0.181 0 0 1 -0.1875,-0.189453 v -1.625 c 0,-0.09375 0.06805,-0.170533 0.167969,-0.179688 z m 3,0 c 0.0067,-6.1e-4 0.01259,0 0.01953,0 h 1.625 c 0.11,0 0.1875,0.07945 0.1875,0.189453 v 1.625001 c 0,0.1 -0.0765,0.179687 -0.1875,0.179687 h -1.625 a 0.181,0.181 0 0 1 -0.1875,-0.189453 v -1.625 c 0,-0.09375 0.06805,-0.170533 0.16797,-0.179688 z m -9.0000004,3.000001 c 0.00666,-6.11e-4 0.012594,0 0.019531,0 h 1.625 c 0.11,0 0.1875,0.07945 0.1875,0.189453 v 1.625 c 0,0.1 -0.0765,0.179687 -0.1875,0.179687 h -1.625 a 0.181,0.181 0 0 1 -0.1875,-0.189453 v -1.625 c 0,-0.09375 0.068048,-0.170532 0.167969,-0.179687 z m 3.0000004,0 c 0.0067,-6.11e-4 0.01259,0 0.01953,0 h 1.625 c 0.11,0 0.1875,0.07945 0.1875,0.189453 v 1.625 c 0,0.1 -0.0765,0.179687 -0.1875,0.179687 h -1.625 A 0.181,0.181 0 0 1 8.9980466,16.804688 v -1.625 c 0,-0.09375 0.068048,-0.170532 0.1679694,-0.179687 z m 3,0 c 0.0067,-6.11e-4 0.01259,0 0.01953,0 h 1.625 c 0.11,0 0.1875,0.07945 0.1875,0.189453 v 1.625 c 0,0.1 -0.0765,0.179687 -0.1875,0.179687 h -1.625 a 0.181,0.181 0 0 1 -0.1875,-0.189453 v -1.625 c 0,-0.09375 0.06805,-0.170532 0.167969,-0.179687 z m 3,0 c 0.0067,-6.11e-4 0.01259,0 0.01953,0 h 1.625 c 0.11,0 0.1875,0.07945 0.1875,0.189453 v 1.625 c 0,0.1 -0.0765,0.179687 -0.1875,0.179687 h -1.625 a 0.181,0.181 0 0 1 -0.1875,-0.189453 v -1.625 c 0,-0.09375 0.06805,-0.170532 0.16797,-0.179687 z" />
</svg>
