<?xml version="1.0" encoding="UTF-8" standalone="no"?>
<svg
   width="22"
   height="22"
   version="1.1"
   id="svg1"
   sodipodi:docname="clock-app-symbolic.svg"
   inkscape:version="1.4.2 (ebf0e940d0, 2025-05-08)"
   xmlns:inkscape="http://www.inkscape.org/namespaces/inkscape"
   xmlns:sodipodi="http://sodipodi.sourceforge.net/DTD/sodipodi-0.dtd"
   xmlns="http://www.w3.org/2000/svg"
   xmlns:svg="http://www.w3.org/2000/svg">
  <defs
     id="defs1">
    <style
       id="current-color-scheme"
       type="text/css">
        .ColorScheme-Text { color:#f2f2f2; }
        .ColorScheme-NeutralText { color:#f67400; }
        .ColorScheme-PositiveText { color:#37c837; }
        .ColorScheme-NegativeText { color:#f44336; }
        .ColorScheme-Highlight { color:#3daee9; }
     </style>
  </defs>
  <sodipodi:namedview
     id="namedview1"
     pagecolor="#ffffff"
     bordercolor="#000000"
     borderopacity="0.25"
     inkscape:showpageshadow="2"
     inkscape:pageopacity="0.0"
     inkscape:pagecheckerboard="0"
     inkscape:deskcolor="#d1d1d1"
     inkscape:zoom="35.727273"
     inkscape:cx="10.986005"
     inkscape:cy="11"
     inkscape:window-width="1920"
     inkscape:window-height="1011"
     inkscape:window-x="0"
     inkscape:window-y="0"
     inkscape:window-maximized="1"
     inkscape:current-layer="svg1" />
  <path
     id="path1"
     style="fill:currentColor"
     class="ColorScheme-Text"
     d="m 11,3 a 8.162,8.162 0 0 0 -0.699219,0.035156 c -0.12,0.013 -0.240375,0.026922 -0.359375,0.044922 -0.139,0.017 -0.278015,0.0375 -0.416015,0.0625 A 7.97,7.97 0 0 0 9.154297,3.224609 c -0.142,0.032 -0.281922,0.067422 -0.419922,0.1074219 -0.11,0.034 -0.2172187,0.070422 -0.3242188,0.1074219 A 8,8 0 0 0 7.9765625,3.5996094 7.927,7.927 0 0 0 7.6582031,3.7421875 c -0.132,0.06 -0.2635781,0.1224531 -0.3925781,0.1894531 A 8,8 0 0 0 3,11 8,8 0 0 0 7.1289062,18 h 0.017578 a 8,8 0 0 0 3.6738278,0.992188 L 11,19 c 0.234,-0.002 0.466219,-0.01316 0.699219,-0.03516 0.12,-0.012 0.240375,-0.02692 0.359375,-0.04492 0.139,-0.017 0.278015,-0.0385 0.416015,-0.0625 0.117,-0.024 0.235563,-0.05012 0.351563,-0.07813 0.155,-0.036 0.308937,-0.07414 0.460937,-0.119141 0.087,-0.027 0.172813,-0.05494 0.257813,-0.08594 0.163,-0.053 0.323422,-0.112781 0.482422,-0.175781 0.098,-0.041 0.195015,-0.08291 0.291015,-0.128907 A 8,8 0 0 0 18,14.871094 v -0.01563 a 8,8 0 0 0 0.992188,-3.673823 L 19,11 A 8.162,8.162 0 0 0 18.96484,10.300781 8.036,8.036 0 0 0 18.91992,9.941406 7.992,7.992 0 0 0 18.85742,9.525391 8.1,8.1 0 0 0 18.77539,9.154297 7.96,7.96 0 0 0 18.667969,8.734375 7.986,7.986 0 0 0 18.560547,8.4101562 8,8 0 0 0 18.400391,7.9765625 8.071,8.071 0 0 0 18.257812,7.6582031 8.025,8.025 0 0 0 18.068359,7.265625 8,8 0 0 0 14.910156,4.0253906 l -0.01563,-0.00195 A 8,8 0 0 0 12.658203,3.1777344 8.028,8.028 0 0 0 11.96875,3.0644531 l -0.101562,-0.015625 h -0.0098 A 7.772,7.772 0 0 0 11.351563,3.0175781 7.296,7.296 0 0 0 11,3 Z m 0,1 a 7,7 0 0 1 7,7 7,7 0 0 1 -7,7 7,7 0 0 1 -7,-7 7,7 0 0 1 7,-7 z m 3.519531,3.984375 a 0.469,0.469 0 0 0 -0.27539,0.089844 l -3.359375,2.001953 a 1.002,1.002 0 0 0 -0.783203,0.0078 L 7.7558594,9.091797 c -0.206,-0.1520001 -0.4867969,-0.094125 -0.5917969,0.04687 l -0.085937,0.113281 c -0.126,0.17 -0.1063906,0.495438 0.099609,0.648438 L 9.507813,10.882808 A 1,1 0 0 0 10,11.863281 V 14.5 c 0,0.277 0.20775,0.5 0.46875,0.5 h 0.0625 C 10.79125,15 11,14.777 11,14.5 v -2.634766 a 1,1 0 0 0 0.490234,-1 l 3.332032,-1.9824215 c 0.206,-0.152 0.225609,-0.4784375 0.09961,-0.6484375 l -0.08594,-0.1132812 a 0.377,0.377 0 0 0 -0.257813,-0.1328126 0.469,0.469 0 0 0 -0.05859,-0.00391 z" />
</svg>
