<?xml version="1.0" encoding="UTF-8" standalone="no"?>
<svg
   width="22"
   height="22"
   version="1.1"
   id="svg1"
   sodipodi:docname="google-chrome-symbolic.svg"
   inkscape:version="1.4.2 (ebf0e940d0, 2025-05-08)"
   xmlns:inkscape="http://www.inkscape.org/namespaces/inkscape"
   xmlns:sodipodi="http://sodipodi.sourceforge.net/DTD/sodipodi-0.dtd"
   xmlns="http://www.w3.org/2000/svg"
   xmlns:svg="http://www.w3.org/2000/svg">
  <defs
     id="defs1">
    <style
       id="current-color-scheme"
       type="text/css">
        .ColorScheme-Text { color:#f2f2f2; }
     </style>
  </defs>
  <sodipodi:namedview
     id="namedview1"
     pagecolor="#ffffff"
     bordercolor="#000000"
     borderopacity="0.25"
     inkscape:showpageshadow="2"
     inkscape:pageopacity="0.0"
     inkscape:pagecheckerboard="0"
     inkscape:deskcolor="#d1d1d1"
     inkscape:zoom="36.136364"
     inkscape:cx="11"
     inkscape:cy="11"
     inkscape:window-width="1920"
     inkscape:window-height="1010"
     inkscape:window-x="0"
     inkscape:window-y="0"
     inkscape:window-maximized="1"
     inkscape:current-layer="svg1" />
  <path
     id="path1"
     style="fill:currentColor"
     class="ColorScheme-Text"
     d="m 11,3 a 8,8 0 0 0 -8,8 8,8 0 0 0 8,8 8,8 0 0 0 8,-8 8,8 0 0 0 -8,-8 z m 0,1 a 7,7 0 0 1 5.742188,3 H 11 C 9.0956,7.0007039 7.4557781,8.3440375 7.0800781,10.210938 L 5.2460938,7.0332031 A 7,7 0 0 1 11,4 Z m 0,4 c 1.6569,0 3,1.3431 3,3 0,1.6569 -1.3431,3 -3,3 C 9.3431,14 8,12.6569 8,11 8,9.3431 9.3431,8 11,8 Z m 2.638672,0 h 3.683594 A 7,7 0 0 1 18,11 7,7 0 0 1 11.605469,17.953125 L 14.464844,13 h -0.0039 C 14.813118,12.39223 14.99904,11.7024 15,11 14.998209,9.8509 14.502272,8.758 13.638672,8 Z M 4.671875,8.0410156 7.5351562,13 h 0.00586 C 8.2546356,14.236 9.5728,14.9982 11,15 c 0.43507,-2.72e-4 0.867167,-0.07152 1.279297,-0.210938 l -1.832031,3.167969 A 7,7 0 0 1 4,11 7,7 0 0 1 4.671875,8.0410156 Z" />
</svg>
