<?xml version="1.0" encoding="UTF-8" standalone="no"?>
<svg
   width="22"
   height="22"
   version="1.1"
   id="svg3"
   sodipodi:docname="inkscape-symbolic.svg"
   inkscape:version="1.4.2 (ebf0e940d0, 2025-05-08)"
   xmlns:inkscape="http://www.inkscape.org/namespaces/inkscape"
   xmlns:sodipodi="http://sodipodi.sourceforge.net/DTD/sodipodi-0.dtd"
   xmlns="http://www.w3.org/2000/svg"
   xmlns:svg="http://www.w3.org/2000/svg">
  <defs
     id="defs3">
    <style
       id="current-color-scheme"
       type="text/css">
        .ColorScheme-Text { color:#f2f2f2; }
        .ColorScheme-NeutralText { color:#f67400; }
        .ColorScheme-PositiveText { color:#37c837; }
        .ColorScheme-NegativeText { color:#f44336; }
        .ColorScheme-Highlight { color:#3daee9; }
     </style>
  </defs>
  <sodipodi:namedview
     id="namedview3"
     pagecolor="#ffffff"
     bordercolor="#000000"
     borderopacity="0.25"
     inkscape:showpageshadow="2"
     inkscape:pageopacity="0.0"
     inkscape:pagecheckerboard="0"
     inkscape:deskcolor="#d1d1d1"
     inkscape:zoom="36.181818"
     inkscape:cx="10.986181"
     inkscape:cy="11"
     inkscape:window-width="1920"
     inkscape:window-height="1011"
     inkscape:window-x="0"
     inkscape:window-y="0"
     inkscape:window-maximized="1"
     inkscape:current-layer="svg3" />
  <path
     id="path1"
     style="fill:currentColor"
     class="ColorScheme-Text"
     d="m 10.916028,2.9960391 c -0.58806,4.977e-4 -1.1708631,0.2195557 -1.6015631,0.6660157 v 0.00195 L 3.8027463,9.3983794 c -0.56791,0.5769 -0.8802825,1.0889316 -0.7890625,1.6445316 0.045611,0.2778 0.2058918,0.510415 0.3886719,0.671875 0.18278,0.16146 0.391235,0.270421 0.609375,0.363281 0.4363,0.18573 0.9289956,0.30482 1.3847656,0.43164 0.20388,0.05674 0.3126281,0.122404 0.4863281,0.183594 -0.23687,0.11676 -0.4893837,0.231839 -0.7148437,0.417969 -0.1136901,0.09385 -0.2426207,0.210607 -0.3066407,0.435547 -0.06363,0.22356 0.037432,0.520995 0.1835938,0.671875 0.23836,0.24788 0.5115175,0.355738 0.8359375,0.486328 0.32531,0.13095 0.6950637,0.253067 1.0585937,0.373047 0.36353,0.11997 0.7212531,0.238209 1.0019531,0.349609 0.20407,0.081 0.2827851,0.135721 0.359375,0.181641 -0.039081,0.04839 -0.053798,0.0714 -0.1210937,0.142578 -0.12218,0.12922 -0.2760681,0.270532 -0.3925781,0.513672 -0.058253,0.12157 -0.1062905,0.284094 -0.085937,0.464844 0.020182,0.17927 0.1128387,0.350549 0.2304687,0.474609 0.42358,0.45323 0.9555338,0.421174 1.2460939,0.490234 0.14547,0.03457 0.232003,0.07414 0.283203,0.119141 0.0512,0.045 0.101309,0.103258 0.136719,0.304688 0.06963,0.39865 0.4097911,0.696521 0.7382811,0.800781 0.32849,0.10426 0.670715,0.09723 1.021484,0.04492 0.70151,-0.10462 1.440556,-0.400036 1.972656,-0.847656 l 0.002,-0.002 0.0039,-0.002 c 0.10946,-0.09451 0.217601,-0.211213 0.269531,-0.402343 0.05193,-0.191141 -0.01397,-0.425259 -0.105469,-0.548829 -0.10854,-0.14658 -0.185751,-0.156765 -0.275391,-0.203125 0.38109,-0.28982 0.736518,-0.49127 1.117188,-0.59375 0.2412,-0.06493 0.507064,-0.133264 0.771483,-0.302734 0.26333,-0.16877 0.49555,-0.448167 0.636719,-0.810547 v -0.0019 c 0.07748,-0.19863 0.05848,-0.441315 -0.01758,-0.609375 -0.0763,-0.1686 -0.183826,-0.28046 -0.291016,-0.375 -0.21438,-0.18908 -0.452269,-0.317407 -0.662109,-0.435547 h -0.002 l -0.002,-0.002 c 0.26661,-0.12519 0.492699,-0.246122 0.880859,-0.382813 0.59566,-0.209759 1.263663,-0.429664 1.851562,-0.708984 0.587821,-0.27933 1.136819,-0.604149 1.386719,-1.193359 0.12496,-0.29458 0.137631,-0.651612 0.02539,-0.982422 -0.11175,-0.32921 -0.326489,-0.6371346 -0.636719,-0.9531246 l -0.0039,-0.0039 -5.720703,-5.9472657 -0.0078,-0.00781 c -0.4535,-0.4346 -1.046665,-0.6528438 -1.634765,-0.6523438 z m 0.0078,1.0078125 c 0.335829,4.977e-4 0.679387,0.1217075 0.935546,0.3671876 l 5.705078,5.9316398 0.002,0.002 c 0.24306,0.24691 0.36179,0.447075 0.40625,0.578125 0.04446,0.13106 0.03678,0.187312 0.002,0.269532 -0.06975,0.16444 -0.393044,0.44241 -0.896484,0.68164 -0.50344,0.23923 -1.146206,0.453959 -1.753906,0.667969 -0.60774,0.21401 -1.171963,0.409537 -1.601563,0.716797 l -0.002,0.002 c -0.14654,0.10529 -0.315658,0.334251 -0.298828,0.587891 0.01683,0.25364 0.14993,0.392058 0.25,0.486328 0.20013,0.18854 0.410267,0.28976 0.617187,0.40625 0.19132,0.10771 0.357565,0.214025 0.453126,0.291016 -0.05237,0.09026 -0.100289,0.185135 -0.167969,0.228515 -0.09835,0.06303 -0.259718,0.117108 -0.492188,0.179688 -0.46493,0.12516 -1.186947,0.314841 -1.873047,1.019531 l -0.002,0.002 h -0.002 c -0.10384,0.10842 -0.201999,0.247293 -0.230469,0.439453 -0.02847,0.19217 0.04902,0.396469 0.138672,0.511719 0.07404,0.09518 0.12553,0.09403 0.19336,0.140625 -0.34121,0.19365 -0.721417,0.40679 -1.097657,0.46289 -0.253449,0.0378 -0.471592,0.02161 -0.570312,-0.0098 -0.03187,-0.01011 -0.0484,-0.01318 -0.05664,-0.01367 v -0.002 -0.002 -0.002 c -0.06507,-0.36989 -0.230127,-0.680003 -0.460937,-0.882813 -0.2308101,-0.20281 -0.4935011,-0.289657 -0.7128911,-0.341797 -0.35615,-0.08464 -0.5034684,-0.121709 -0.6054684,-0.162109 0.037813,-0.04581 0.045944,-0.06021 0.1035156,-0.121094 0.1221798,-0.12921 0.2780308,-0.272495 0.3945308,-0.515625 0.05825,-0.12157 0.104331,-0.28214 0.08398,-0.46289 -0.02035,-0.18076 -0.113402,-0.356209 -0.232421,-0.480469 l -0.0019,-0.002 -0.0039,-0.002 C 8.9065955,14.732781 8.634908,14.626576 8.310508,14.497816 7.986108,14.369056 7.6166874,14.248425 7.2538673,14.128675 6.8910074,14.008925 6.5355505,13.889713 6.2558205,13.777113 c -0.078658,-0.03166 -0.074275,-0.03822 -0.1386719,-0.07031 0.081729,-0.04459 0.1181806,-0.07435 0.2128906,-0.121093 0.23336,-0.115171 0.4736894,-0.218442 0.6933594,-0.388672 0.10984,-0.08511 0.2549738,-0.185925 0.3085937,-0.453125 0.026812,-0.1336 -0.00129,-0.303865 -0.068359,-0.421875 -0.067018,-0.117837 -0.1524514,-0.189145 -0.2323714,-0.242015 l -0.00391,-0.0039 C 6.6208756,11.814157 6.1385144,11.67885 5.6640744,11.54682 5.1896344,11.41479 4.7208856,11.293748 4.4023557,11.158148 4.2430856,11.090346 4.124735,11.018029 4.064465,10.964789 c -0.060273,-0.05324 -0.059783,-0.06744 -0.0625,-0.08398 -0.00543,-0.0331 0.035235,-0.295267 0.5117188,-0.779297 l 0.00195,-0.0039 5.5195312,-5.740234 c 0.22539,-0.23362 0.552842,-0.3540157 0.888672,-0.3535157 z m 0.04297,1.6191407 C 10.6317,5.6212723 10.296461,5.7455104 10.052746,5.9999454 9.5788459,6.5088454 8.0764594,7.9811516 7.3046994,8.8476016 6.9120514,9.2464414 6.85723,9.6444764 7.2363404,9.6444764 l 1.9628905,0.01367 0.785156,-1.7324217 0.4882821,1.9941407 1.474609,-0.9492188 0.908203,0.4941408 0.216797,-1.3339845 1.095703,0.9082035 C 14.289841,8.915226 14.291003,8.4894366 14.087901,8.2831466 L 11.880871,5.9999454 C 11.637121,5.7523904 11.301918,5.6247123 10.966809,5.6229923 Z M 8.3203244,12.830023 c -0.056063,0 -0.092793,0.0068 -0.109375,0.01953 l -0.00195,0.002 -0.00195,0.002 -0.00195,0.0019 c -4.663e-4,7.52e-4 -0.00158,0.0051 -0.00195,0.0059 l -0.00195,0.002 v 0.0019 c -1.142e-4,8.61e-4 2.78e-5,0.005 0,0.0059 v 0.002 c 0.032144,0.211451 2.2068446,1.078666 2.7304536,0.933612 1.557,-0.42635 -2.4894786,-0.976563 -2.6113286,-0.976563 z m 8.8124996,1.587891 c -0.468811,0.01719 -0.946509,0.255212 -1.068359,0.695312 0,0.28881 2.207838,0.454261 2.085938,-0.06836 -0.088,-0.4401 -0.548767,-0.644146 -1.017579,-0.626952 z M 6.345715,15.540961 c -0.6376327,0.03834 -1.3191906,0.507397 -0.7792969,0.970703 0.5009701,0.4401 1.2582532,-0.09595 1.5019532,-0.714844 C 6.9160494,15.594823 6.6355481,15.523534 6.345715,15.540961 Z m 9.449219,0.177734 c -0.62283,0.57762 0.107517,1.182073 0.716797,0.783203 0.16248,-0.11003 -0.01274,-0.645663 -0.716797,-0.783203 z" />
</svg>
