<?xml version="1.0" encoding="UTF-8" standalone="no"?>
<!-- Created with Inkscape (http://www.inkscape.org/) -->

<svg
   width="22"
   height="22"
   viewBox="0 0 22 22"
   version="1.1"
   id="svg5"
   inkscape:version="1.4.2 (ebf0e940d0, 2025-05-08)"
   sodipodi:docname="io.github.seadve.Kooha-symbolic.svg"
   xmlns:inkscape="http://www.inkscape.org/namespaces/inkscape"
   xmlns:sodipodi="http://sodipodi.sourceforge.net/DTD/sodipodi-0.dtd"
   xmlns="http://www.w3.org/2000/svg"
   xmlns:svg="http://www.w3.org/2000/svg">
  <sodipodi:namedview
     id="namedview7"
     pagecolor="#ffffff"
     bordercolor="#000000"
     borderopacity="0.25"
     inkscape:showpageshadow="2"
     inkscape:pageopacity="0.0"
     inkscape:pagecheckerboard="0"
     inkscape:deskcolor="#d1d1d1"
     inkscape:document-units="px"
     showgrid="false"
     inkscape:zoom="36.136364"
     inkscape:cx="11"
     inkscape:cy="11"
     inkscape:window-width="1920"
     inkscape:window-height="1010"
     inkscape:window-x="0"
     inkscape:window-y="0"
     inkscape:window-maximized="1"
     inkscape:current-layer="svg5" />
  <defs
     id="defs2">
    <style
       id="current-color-scheme"
       type="text/css">
        .ColorScheme-Text { color:#f2f2f2; }
        .ColorScheme-NeutralText { color:#f67400; }
        .ColorScheme-PositiveText { color:#37c837; }
        .ColorScheme-NegativeText { color:#f44336; }
        .ColorScheme-Highlight { color:#3daee9; }
     </style>
  </defs>
  <path
     id="rect236"
     style="fill:currentColor"
     class="ColorScheme-Text"
     d="M 6,4 C 4.8920055,4 4,4.8920055 4,6 V 7.5 C 4,7.7761415 4.2238585,8 4.5,8 4.7761415,8 5,7.7761415 5,7.5 5.0002149,7.49154 5.0002149,7.4830724 5,7.4746094 V 6 C 5,5.446003 5.446003,5 6,5 H 7.5 C 7.7761415,5 8,4.7761415 8,4.5 8,4.2238585 7.7761415,4 7.5,4 Z m 8.5,0 C 14.223858,4 14,4.2238585 14,4.5 14,4.7761415 14.223858,5 14.5,5 H 16 c 0.553996,0 1,0.446003 1,1 V 7.4746094 C 16.999785,7.4830694 16.999785,7.4915 17,7.5 17,7.7761411 17.223858,8 17.5,8 17.776142,8 18,7.7761411 18,7.5 V 6 C 18,4.8920055 17.107995,4 16,4 Z M 7,8 C 6.4460017,8 6,8.4460017 6,9 v 4 c 0,0.553998 0.4460017,1 1,1 h 6 c 0.553998,0 1,-0.446002 1,-1 v -1 l 2,2 V 8 l -2,2 V 9 C 14,8.4460017 13.553998,8 13,8 Z m 3,1 a 2,2 0 0 1 2,2 2,2 0 0 1 -2,2 2,2 0 0 1 -2,-2 2,2 0 0 1 2,-2 z m 0,1 a 1,1 0 0 0 -1,1 1,1 0 0 0 1,1 1,1 0 0 0 1,-1 1,1 0 0 0 -1,-1 z M 4.5,14 C 4.2238585,14 4,14.223858 4,14.5 V 16 c 0,1.107995 0.8920055,2 2,2 H 7.5 C 7.7761415,18 8,17.776142 8,17.5 8,17.223858 7.7761415,17 7.5,17 H 6 C 5.446003,17 5,16.553996 5,16 V 14.525391 C 5.0002149,14.516931 5.0002149,14.5085 5,14.5 5,14.223858 4.7761415,14 4.5,14 Z m 13,0 c -0.276142,0 -0.5,0.223858 -0.5,0.5 -2.15e-4,0.0085 -2.15e-4,0.01689 0,0.02539 V 16 c 0,0.553996 -0.446004,1 -1,1 h -1.5 c -0.276142,0 -0.5,0.223858 -0.5,0.5 0,0.276142 0.223858,0.5 0.5,0.5 H 16 c 1.107995,0 2,-0.892005 2,-2 V 14.5 C 18,14.223858 17.776142,14 17.5,14 Z" />
</svg>
