<?xml version="1.0" encoding="UTF-8" standalone="no"?>
<svg
   width="22"
   height="22"
   version="1.1"
   viewBox="0 0 22 22"
   id="svg2"
   sodipodi:docname="org.gnome.Settings-accessibility-seeing-symbolic.svg"
   inkscape:version="1.4.2 (ebf0e940d0, 2025-05-08)"
   xmlns:inkscape="http://www.inkscape.org/namespaces/inkscape"
   xmlns:sodipodi="http://sodipodi.sourceforge.net/DTD/sodipodi-0.dtd"
   xmlns="http://www.w3.org/2000/svg"
   xmlns:svg="http://www.w3.org/2000/svg"
   xmlns:rdf="http://www.w3.org/1999/02/22-rdf-syntax-ns#"
   xmlns:cc="http://creativecommons.org/ns#"
   xmlns:dc="http://purl.org/dc/elements/1.1/">
  <sodipodi:namedview
     id="namedview2"
     pagecolor="#ffffff"
     bordercolor="#000000"
     borderopacity="0.25"
     inkscape:showpageshadow="2"
     inkscape:pageopacity="0.0"
     inkscape:pagecheckerboard="0"
     inkscape:deskcolor="#d1d1d1"
     inkscape:zoom="35.727273"
     inkscape:cx="10.986005"
     inkscape:cy="11"
     inkscape:window-width="1920"
     inkscape:window-height="1011"
     inkscape:window-x="0"
     inkscape:window-y="0"
     inkscape:window-maximized="1"
     inkscape:current-layer="svg2" />
  <metadata
     id="metadata1">
    <rdf:RDF>
      <cc:Work
         rdf:about="">
        <dc:format>image/svg+xml</dc:format>
        <dc:type
           rdf:resource="http://purl.org/dc/dcmitype/StillImage" />
      </cc:Work>
    </rdf:RDF>
  </metadata>
  <defs
     id="defs1">
    <style
       id="current-color-scheme"
       type="text/css">
        .ColorScheme-Text { color:#f2f2f2; }
        .ColorScheme-NeutralText { color:#f67400; }
        .ColorScheme-PositiveText { color:#37c837; }
        .ColorScheme-NegativeText { color:#f44336; }
        .ColorScheme-Highlight { color:#3daee9; }
     </style>
  </defs>
  <path
     id="path1"
     style="fill:currentColor"
     class="ColorScheme-Text"
     d="M 10.997701,5.0390004 C 7.2278835,5.0435804 3.9275675,7.4057826 2.9898881,10.769469 a 1.0419771,0.95987616 0 0 0 0,0.478516 c 0.9456692,3.356087 4.2458484,5.710591 8.0097659,5.712891 a 1.0419771,0.95987616 0 0 0 0.002,0 c 3.769817,-0.0046 7.070133,-2.366782 8.007813,-5.730469 a 1.0419771,0.95987616 0 0 0 0,-0.480469 C 18.063751,7.3938513 14.763571,5.0413004 10.999654,5.0390004 a 1.0419771,0.95987616 0 0 0 -0.002,0 z m 0.002,0.9609375 c 3.294727,0.00204 6.172218,2.0543993 7,4.9921881 -0.820852,2.944387 -3.700073,5.003812 -7,5.007812 -3.2947278,-0.002 -6.1722185,-2.054399 -7.0000003,-4.992187 0.820852,-2.9443889 3.7000726,-5.0038131 7.0000003,-5.0078131 z m 0,2 a 3,3 0 0 0 -3.0000003,3.0000001 3,3 0 0 0 3.0000003,3 3,3 0 0 0 3,-3 3,3 0 0 0 -3,-3.0000001 z m 0,1 a 2,2 0 0 1 2,2.0000001 2,2 0 0 1 -2,2 2,2 0 0 1 -2.0000003,-2 2,2 0 0 1 2.0000003,-2.0000001 z" />
</svg>
