<?xml version="1.0" encoding="UTF-8" standalone="no"?>
<svg
   width="22"
   height="22"
   version="1.1"
   id="svg3"
   sodipodi:docname="org.gnome.Sysprof-symbolic.svg"
   inkscape:version="1.4.2 (ebf0e940d0, 2025-05-08)"
   xmlns:inkscape="http://www.inkscape.org/namespaces/inkscape"
   xmlns:sodipodi="http://sodipodi.sourceforge.net/DTD/sodipodi-0.dtd"
   xmlns="http://www.w3.org/2000/svg"
   xmlns:svg="http://www.w3.org/2000/svg"
   xmlns:rdf="http://www.w3.org/1999/02/22-rdf-syntax-ns#"
   xmlns:cc="http://creativecommons.org/ns#"
   xmlns:dc="http://purl.org/dc/elements/1.1/">
  <defs
     id="defs3">
    <style
       id="current-color-scheme"
       type="text/css">
        .ColorScheme-Text { color:#f2f2f2; }
     </style>
  </defs>
  <sodipodi:namedview
     id="namedview3"
     pagecolor="#ffffff"
     bordercolor="#000000"
     borderopacity="0.25"
     inkscape:showpageshadow="2"
     inkscape:pageopacity="0.0"
     inkscape:pagecheckerboard="0"
     inkscape:deskcolor="#d1d1d1"
     inkscape:zoom="35.727273"
     inkscape:cx="10.986005"
     inkscape:cy="11"
     inkscape:window-width="1920"
     inkscape:window-height="1011"
     inkscape:window-x="0"
     inkscape:window-y="0"
     inkscape:window-maximized="1"
     inkscape:current-layer="svg3" />
  <title
     id="title1">Gnome Symbolic Icon Theme</title>
  <path
     id="path1"
     style="fill:currentColor"
     class="ColorScheme-Text"
     d="m 11.029297,3.5 c -0.686,0 -1.371434,0.2323788 -1.927734,0.6992188 C 7.9888625,5.1329087 7.7053606,6.7401469 8.4316406,7.9980469 l 0.8652344,-0.5 c -0.48695,-0.84343 -0.2987944,-1.90525 0.447266,-2.53125 0.74605,-0.62602 1.824212,-0.62602 2.570312,0 0.7461,0.62602 0.934216,1.68785 0.447266,2.53125 l 0.865234,0.5 c 0.72628,-1.258 0.442798,-2.8651282 -0.669922,-3.7988281 C 12.400671,3.7323788 11.715297,3.5 11.029297,3.5 Z M 10,6 v 1 h 2 V 6 Z m 4.919922,1.6269531 -0.72461,0.6914063 1.382813,1.4453126 0.722656,-0.689453 z M 11,8 c -2.7614,0 -5,2.2386 -5,5 0,2.7614 2.2386,5 5,5 2.7614,0 5,-2.2386 5,-5 0,-2.7614 -2.2386,-5 -5,-5 z m 0,1 c 2.2091,0 4,1.7909 4,4 0,2.2091 -1.7909,4 -4,4 C 8.7909,17 7,15.2091 7,13 7,10.7909 8.7909,9 11,9 Z m 0,0 -0.269531,3.037109 C 10.298619,12.157979 10.00005,12.55156 10,13 c 6.5e-4,0.38282 0.219863,0.731677 0.564453,0.898438 l -0.04883,0.542968 c -0.06629,0.30936 0.227045,0.585316 0.484375,0.603516 0.29331,0.0207 0.553966,-0.249966 0.509766,-0.603516 l -0.05274,-0.552734 C 11.790161,13.717502 11.99971,13.37453 12,13 11.99936,12.55808 11.708726,12.168989 11.285156,12.042969 Z" />
  <metadata
     id="metadata3">
    <rdf:RDF>
      <cc:Work
         rdf:about="">
        <dc:title>Gnome Symbolic Icon Theme</dc:title>
      </cc:Work>
    </rdf:RDF>
  </metadata>
</svg>
