<?xml version="1.0" encoding="UTF-8" standalone="no"?>
<svg
   width="22"
   height="22"
   version="1.1"
   viewBox="0 0 22 22"
   id="svg2"
   sodipodi:docname="org.gnome.Settings-location-access-symbolic.svg"
   inkscape:version="1.4.2 (ebf0e940d0, 2025-05-08)"
   xmlns:inkscape="http://www.inkscape.org/namespaces/inkscape"
   xmlns:sodipodi="http://sodipodi.sourceforge.net/DTD/sodipodi-0.dtd"
   xmlns="http://www.w3.org/2000/svg"
   xmlns:svg="http://www.w3.org/2000/svg">
  <defs
     id="defs2">
    <style
       id="current-color-scheme"
       type="text/css">
        .ColorScheme-Text { color:#f2f2f2; }
     </style>
  </defs>
  <sodipodi:namedview
     id="namedview2"
     pagecolor="#ffffff"
     bordercolor="#000000"
     borderopacity="0.25"
     inkscape:showpageshadow="2"
     inkscape:pageopacity="0.0"
     inkscape:pagecheckerboard="0"
     inkscape:deskcolor="#d1d1d1"
     inkscape:zoom="36.181818"
     inkscape:cx="10.986181"
     inkscape:cy="11"
     inkscape:window-width="1920"
     inkscape:window-height="1011"
     inkscape:window-x="0"
     inkscape:window-y="0"
     inkscape:window-maximized="1"
     inkscape:current-layer="svg2" />
  <path
     id="path1"
     style="fill:currentColor"
     class="ColorScheme-Text"
     d="m 11,3 c -3.8555,0 -7,3.1484 -7,7 0,0.875 0.1640612,1.714775 0.4570312,2.484375 0.13672,0.39062 0.3281338,0.769568 0.5585938,1.148437 C 5.074219,13.726562 5.1289,13.8164 5.1875,13.90625 h 0.00391 c 0.73047,1.1094 1.9960876,2.253938 3.1171876,3.210938 1.1211004,0.957029 2.0937504,1.683593 2.0937504,1.683593 C 10.578124,18.933591 10.78857,19 11,19 c 0.21143,0 0.421876,-0.0664 0.597656,-0.199219 0,0 0.9727,-0.726553 2.09375,-1.683593 1.1211,-0.95703 2.386688,-2.101638 3.117188,-3.210938 h 0.0039 c 0.05859,-0.08984 0.113275,-0.179688 0.171875,-0.273438 0.23047,-0.378899 0.421884,-0.757847 0.558594,-1.148437 C 17.835939,11.714845 18,10.875 18,10 18,6.1484 14.8555,3 11,3 Z m 0,1 c 3.311,0 6,2.6927 6,6 0,0.75 -0.139585,1.469506 -0.390625,2.128906 -0.0034,0.0084 -0.0067,0.01688 -0.0098,0.02539 -0.10605,0.303 -0.26166,0.617209 -0.46289,0.949219 l -0.002,0.002 v 0.002 0.002 l -0.002,0.002 -0.002,0.002 c -0.05764,0.09236 -0.107793,0.169682 -0.152343,0.238281 -0.002,0.0013 -0.004,0.0026 -0.0059,0.0039 -0.61243,0.93011 -1.825387,2.059153 -2.929687,3.001953 C 11.949069,17.291272 11,18 11,18 c 0,0 -0.948989,-0.708698 -2.0429688,-1.642578 -1.1043,-0.94271 -2.3172875,-2.071753 -2.9296874,-3.001953 -0.00195,-0.0013 -0.0039,-0.0026 -0.00586,-0.0039 -0.044553,-0.0686 -0.0947,-0.145921 -0.1523438,-0.238281 l -0.00195,-0.002 -0.00195,-0.002 v -0.002 -0.002 l -0.00195,-0.002 C 5.6620513,12.771506 5.5064406,12.457297 5.4003906,12.154297 c -0.00314,-0.0085 -0.0064,-0.01697 -0.00977,-0.02539 C 5.139565,11.469466 5,10.75 5,10 5,6.6927 7.689,4 11,4 Z m 0,3 a 3,3 0 0 0 -3,3 3,3 0 0 0 3,3 3,3 0 0 0 3,-3 3,3 0 0 0 -3,-3 z m 0,1 a 2,2 0 0 1 2,2 2,2 0 0 1 -2,2 2,2 0 0 1 -2,-2 2,2 0 0 1 2,-2 z" />
</svg>
