<?xml version="1.0" encoding="UTF-8" standalone="no"?>
<svg
   width="22"
   height="22"
   version="1.1"
   id="svg3"
   sodipodi:docname="org.gnome.Terminal.Preferences-symbolic.svg"
   inkscape:version="1.4.2 (ebf0e940d0, 2025-05-08)"
   xmlns:inkscape="http://www.inkscape.org/namespaces/inkscape"
   xmlns:sodipodi="http://sodipodi.sourceforge.net/DTD/sodipodi-0.dtd"
   xmlns="http://www.w3.org/2000/svg"
   xmlns:svg="http://www.w3.org/2000/svg"
   xmlns:rdf="http://www.w3.org/1999/02/22-rdf-syntax-ns#"
   xmlns:cc="http://creativecommons.org/ns#"
   xmlns:dc="http://purl.org/dc/elements/1.1/">
  <defs
     id="defs3">
    <style
       id="current-color-scheme"
       type="text/css">
        .ColorScheme-Text { color:#f2f2f2; }
     </style>
  </defs>
  <sodipodi:namedview
     id="namedview3"
     pagecolor="#ffffff"
     bordercolor="#000000"
     borderopacity="0.25"
     inkscape:showpageshadow="2"
     inkscape:pageopacity="0.0"
     inkscape:pagecheckerboard="0"
     inkscape:deskcolor="#d1d1d1"
     inkscape:zoom="36.181818"
     inkscape:cx="10.986181"
     inkscape:cy="11"
     inkscape:window-width="1920"
     inkscape:window-height="1011"
     inkscape:window-x="0"
     inkscape:window-y="0"
     inkscape:window-maximized="1"
     inkscape:current-layer="svg3" />
  <title
     id="title1">Gnome Symbolic Icon Theme</title>
  <path
     id="path1"
     style="fill:currentColor"
     class="ColorScheme-Text"
     d="M 5,4 C 3.892,4 3,4.892 3,6 v 10 c 0,1.108 0.892,2 2,2 h 6.015625 A 5,5 0 0 1 10.423828,17 H 5 C 4.446,17 4,16.554 4,16 V 6 C 4,5.446 4.446,5 5,5 h 12 c 0.554,0 1,0.446 1,1 v 5.001953 a 5,5 0 0 1 1,1 V 6 C 19,4.892 18.108,4 17,4 Z M 7.1757812,8.171875 6.46875,8.8789062 8.5917969,11.003906 6.46875,13.125 l 0.7070312,0.707031 2.8300778,-2.828125 -0.002,-0.002 -0.705078,-0.705078 z m 7.5332028,2.822266 c -0.11093,0 -0.266714,0.03199 -0.396484,0.140625 -0.122224,0.102314 -0.183268,0.24962 -0.203125,0.361328 l -0.164063,0.683594 c -0.0695,0.0254 -0.135361,0.05233 -0.201171,0.08203 l -0.621094,-0.38086 h -0.002 c -0.0899,-0.054 -0.237595,-0.109503 -0.396485,-0.08984 -0.1589,0.0196 -0.277333,0.101433 -0.345703,0.164063 l -0.0078,0.0059 -0.425781,0.419922 -0.0078,0.0098 c -0.0773,0.0844 -0.154893,0.226173 -0.164062,0.376953 -0.009,0.15079 0.03984,0.274629 0.08594,0.355469 l 0.0059,0.0078 0.390625,0.626953 c -0.0278,0.0608 -0.05047,0.12526 -0.07617,0.19336 l -0.708985,0.166016 -0.0039,0.002 c -0.0807,0.0202 -0.218758,0.06719 -0.330078,0.201171 C 11.025409,14.454263 11,14.615714 11,14.714844 v 0.574218 c 0,0.110861 0.0299,0.268578 0.138672,0.398438 0.102478,0.122324 0.251588,0.185276 0.363281,0.205078 l 0.683594,0.16211 c 0.0234,0.0626 0.04577,0.12299 0.07227,0.18164 l -0.386719,0.628906 c -0.0512,0.0836 -0.105337,0.215383 -0.0918,0.376954 0.0135,0.161569 0.105462,0.310068 0.195312,0.392578 l 0.390625,0.392578 h 0.002 c 0.0787,0.0786 0.209697,0.16377 0.367187,0.18164 0.15749,0.0179 0.300175,-0.036 0.390625,-0.0918 L 13.752,17.732418 c 0.0619,0.0285 0.124583,0.05403 0.189453,0.07813 l 0.171875,0.707031 v 0.002 l 0.002,0.0078 c 0.02655,0.111409 0.09429,0.250614 0.210938,0.341797 0.1358,0.10617 0.281772,0.125 0.382812,0.125 h 0.583985 c 0.1013,0 0.256272,-0.0243 0.388672,-0.13086 0.13239,-0.10655 0.191237,-0.257608 0.210937,-0.355469 L 16.0625,17.8125 c 0.065,-0.0244 0.128223,-0.04983 0.189453,-0.07813 l 0.621094,0.382813 c 0.0903,0.0558 0.234668,0.109726 0.392578,0.0918 0.15791,-0.0179 0.288688,-0.10314 0.367187,-0.18164 l 0.002,-0.002 0.390625,-0.394532 c 0.0842,-0.0774 0.181132,-0.225945 0.195312,-0.390625 0.0142,-0.16469 -0.04028,-0.288804 -0.08398,-0.365234 l -0.0039,-0.0078 -0.390624,-0.63086 c 0.027,-0.0587 0.05032,-0.11874 0.07422,-0.18164 l 0.691406,-0.164063 c 0.0063,-0.0012 0.01304,-0.0044 0.01953,-0.0059 h 0.0039 c 0.111178,-0.02626 0.250151,-0.09365 0.341797,-0.210938 C 18.979247,15.537968 19,15.390042 19,15.289062 v -0.574218 c 0,-0.0901 -0.0164,-0.242703 -0.125,-0.382813 -0.10861,-0.1401 -0.254561,-0.19202 -0.337891,-0.21289 l -0.0039,-0.002 -0.707031,-0.166016 c -0.0264,-0.0686 -0.04837,-0.133319 -0.07617,-0.19336 l 0.376953,-0.613281 v -0.002 c 0.0522,-0.0819 0.113736,-0.20906 0.103516,-0.375 -0.0103,-0.16674 -0.109019,-0.321647 -0.199219,-0.404297 l -0.396484,-0.392578 0.002,0.0039 c -0.0712,-0.0711 -0.199525,-0.161611 -0.359375,-0.181641 -0.15985,-0.02 -0.29383,0.03092 -0.375,0.07422 l -0.01367,0.0078 -0.63086,0.386719 c -0.0625,-0.0287 -0.127552,-0.05418 -0.195312,-0.08008 l -0.168026,-0.68936 c -0.0182,-0.0973 -0.0731,-0.250079 -0.207031,-0.361329 -0.13392,-0.11125 -0.293491,-0.136718 -0.394531,-0.136718 h -0.376953 z m 0.292969,1.0625 0.21875,0.898437 0.294922,0.07227 c 0.19376,0.0477 0.382908,0.131579 0.548828,0.224609 l 0.255859,0.144531 0.767579,-0.472656 -0.46875,0.761719 0.134765,0.253906 c 0.0848,0.15916 0.179323,0.363958 0.220703,0.548828 l 0.06836,0.304688 0.882812,0.208984 -0.882812,0.210938 -0.07031,0.298828 c -0.0436,0.18305 -0.131253,0.382977 -0.214844,0.523437 l -0.154296,0.259766 0.480468,0.777344 -0.779296,-0.482422 -0.263672,0.162109 c -0.15023,0.0933 -0.318798,0.16906 -0.523438,0.21875 l -0.296875,0.07031 -0.21875,0.898437 -0.21875,-0.898437 -0.298828,-0.07227 c -0.1891,-0.0451 -0.380628,-0.126121 -0.517578,-0.212891 l -0.263672,-0.167968 -0.783203,0.482421 0.474609,-0.773437 -0.15039,-0.257813 c -0.0851,-0.146039 -0.168471,-0.340593 -0.212891,-0.527343 l -0.07031,-0.298828 -0.882813,-0.210938 0.882813,-0.208984 0.06836,-0.304688 c 0.0427,-0.19066 0.135517,-0.394545 0.216797,-0.541015 l 0.142578,-0.257813 -0.474609,-0.763672 0.779296,0.478516 0.261719,-0.164063 c 0.1112,-0.0693 0.343893,-0.167947 0.539063,-0.216796 l 0.294921,-0.07422 z M 15,14 a 1,1 0 0 0 -1,1 1,1 0 0 0 1,1 1,1 0 0 0 1,-1 1,1 0 0 0 -1,-1 z" />
  <metadata
     id="metadata3">
    <rdf:RDF>
      <cc:Work
         rdf:about="">
        <dc:title>Gnome Symbolic Icon Theme</dc:title>
      </cc:Work>
    </rdf:RDF>
  </metadata>
</svg>
