<?xml version="1.0" encoding="UTF-8" standalone="no"?>
<!-- Created with Inkscape (http://www.inkscape.org/) -->

<svg
   width="22"
   height="22"
   viewBox="0 0 22 22"
   version="1.1"
   id="svg5"
   inkscape:version="1.4.2 (ebf0e940d0, 2025-05-08)"
   sodipodi:docname="org.gnome.Games-symbolic.svg"
   xmlns:inkscape="http://www.inkscape.org/namespaces/inkscape"
   xmlns:sodipodi="http://sodipodi.sourceforge.net/DTD/sodipodi-0.dtd"
   xmlns="http://www.w3.org/2000/svg"
   xmlns:svg="http://www.w3.org/2000/svg">
  <sodipodi:namedview
     id="namedview7"
     pagecolor="#ffffff"
     bordercolor="#000000"
     borderopacity="0.25"
     inkscape:showpageshadow="2"
     inkscape:pageopacity="0.0"
     inkscape:pagecheckerboard="0"
     inkscape:deskcolor="#d1d1d1"
     inkscape:document-units="px"
     showgrid="false"
     inkscape:zoom="36.136364"
     inkscape:cx="11"
     inkscape:cy="11"
     inkscape:window-width="1920"
     inkscape:window-height="1010"
     inkscape:window-x="0"
     inkscape:window-y="0"
     inkscape:window-maximized="1"
     inkscape:current-layer="svg5"
     showguides="false" />
  <defs
     id="defs2">
    <style
       id="current-color-scheme"
       type="text/css">
        .ColorScheme-Text { color:#f2f2f2; }
        .ColorScheme-NeutralText { color:#f67400; }
        .ColorScheme-PositiveText { color:#37c837; }
        .ColorScheme-NegativeText { color:#f44336; }
        .ColorScheme-Highlight { color:#3daee9; }
     </style>
  </defs>
  <path
     id="path1076"
     style="fill:currentColor;fill-opacity:1;stroke:none;stroke-width:2"
     class="ColorScheme-Text"
     d="M 7.71875,7 C 6.9002783,7 6.0439376,7.4357066 5.5644531,8.6074219 4.5519014,11.080026 4,12.992443 4,14.152344 c 0,0.892097 0.3278253,1.458249 1.0214844,1.789062 0.081299,0.03888 0.1709734,0.05873 0.2617187,0.05859 0.1444541,2.79e-4 0.2826615,-0.05003 0.390625,-0.142578 L 7.4882812,14.511719 C 7.81322,14.233833 8.0973118,13.947266 8.890625,13.947266 h 4.21875 c 0.793314,0 1.076751,0.28641 1.402344,0.564453 l 1.814453,1.345703 c 0.180042,0.153856 0.438662,0.186828 0.654297,0.08398 C 17.673964,15.610751 18,15.045071 18,14.152344 18,12.992601 17.449562,11.079555 16.4375,8.6074219 15.958015,7.4357066 15.099558,7 14.28125,7 c -0.382771,0 -0.757425,0.095021 -1.080078,0.2558594 -1.384867,0.6879382 -2.986442,0.7025884 -4.4003908,0 C 8.4769874,7.0950225 8.1013567,7 7.71875,7 Z m 0,1 c 0.2170372,0 0.448348,0.058775 0.6367188,0.1523438 1.6883922,0.8389595 3.6361052,0.8220839 5.2910152,0 v -0.00195 C 13.833259,8.057283 14.063976,8 14.28125,8 14.744597,8 15.157775,8.1213983 15.511719,8.9863281 16.503414,11.408712 17,13.309014 17,14.152344 c 0,0.510616 -0.144977,0.568576 -0.353516,0.697265 l -1.539062,-1.140625 c -0.314103,-0.260112 -1.017315,-0.761718 -1.998047,-0.761718 h -4.21875 c -1.0069046,0 -1.7244197,0.529726 -2.0253906,0.783203 l -1.5097656,1.11914 C 5.1461339,14.720321 5,14.661401 5,14.152344 5,13.309654 5.4979185,11.409517 6.4902344,8.9863281 6.8445682,8.1204432 7.2551701,8 7.71875,8 Z M 8,9 v 1 H 7 v 1 h 1 v 1 h 1 v -1 h 1 V 10 H 9 V 9 Z m 5.5,0 A 0.5,0.5 0 0 0 13,9.5 0.5,0.5 0 0 0 13.5,10 0.5,0.5 0 0 0 14,9.5 0.5,0.5 0 0 0 13.5,9 Z m -1,1 A 0.5,0.5 0 0 0 12,10.5 0.5,0.5 0 0 0 12.5,11 0.5,0.5 0 0 0 13,10.5 0.5,0.5 0 0 0 12.5,10 Z m 2,0 A 0.5,0.5 0 0 0 14,10.5 0.5,0.5 0 0 0 14.5,11 0.5,0.5 0 0 0 15,10.5 0.5,0.5 0 0 0 14.5,10 Z m -1,1 A 0.5,0.5 0 0 0 13,11.5 0.5,0.5 0 0 0 13.5,12 0.5,0.5 0 0 0 14,11.5 0.5,0.5 0 0 0 13.5,11 Z" />
</svg>
