<?xml version="1.0" encoding="UTF-8" standalone="no"?>
<svg
   width="22"
   height="22"
   version="1.1"
   viewBox="0 0 22 22"
   id="svg3"
   sodipodi:docname="org.gnome.Settings-removable-media-symbolic.svg"
   inkscape:version="1.4.2 (ebf0e940d0, 2025-05-08)"
   xmlns:inkscape="http://www.inkscape.org/namespaces/inkscape"
   xmlns:sodipodi="http://sodipodi.sourceforge.net/DTD/sodipodi-0.dtd"
   xmlns="http://www.w3.org/2000/svg"
   xmlns:svg="http://www.w3.org/2000/svg">
  <defs
     id="defs3">
    <style
       id="current-color-scheme"
       type="text/css">
        .ColorScheme-Text { color:#f2f2f2; }
     </style>
  </defs>
  <sodipodi:namedview
     id="namedview3"
     pagecolor="#ffffff"
     bordercolor="#000000"
     borderopacity="0.25"
     inkscape:showpageshadow="2"
     inkscape:pageopacity="0.0"
     inkscape:pagecheckerboard="0"
     inkscape:deskcolor="#d1d1d1"
     inkscape:zoom="36.181818"
     inkscape:cx="10.986181"
     inkscape:cy="11"
     inkscape:window-width="1920"
     inkscape:window-height="1011"
     inkscape:window-x="0"
     inkscape:window-y="0"
     inkscape:window-maximized="1"
     inkscape:current-layer="svg3" />
  <path
     id="path1"
     style="fill:currentColor"
     class="ColorScheme-Text"
     d="M 7,3 V 7 C 5.892,7 5,7.892 5,9 v 4 c 0,3.324 2.676,6 6,6 3.324,0 6,-2.676 6,-6 V 9 C 17,7.892 16.108,7 15,7 V 3 Z m 1,1 h 6 V 7 H 8 Z m 1,1 v 1 h 1 V 5 Z m 3,0 v 1 h 1 V 5 Z M 7,8 h 1 6 1 c 0.554,0 1,0.446 1,1 v 4 c 0,2.77 -2.23,5 -5,5 C 8.23,18 6,15.77 6,13 V 9 C 6,8.446 6.446,8 7,8 Z" />
</svg>
