<?xml version="1.0" encoding="UTF-8" standalone="no"?>
<svg
   width="22"
   height="22"
   version="1.1"
   viewBox="0 0 22 22"
   id="svg1"
   sodipodi:docname="org.gnome.Settings-privacy-symbolic.svg"
   inkscape:version="1.4.2 (ebf0e940d0, 2025-05-08)"
   xmlns:inkscape="http://www.inkscape.org/namespaces/inkscape"
   xmlns:sodipodi="http://sodipodi.sourceforge.net/DTD/sodipodi-0.dtd"
   xmlns="http://www.w3.org/2000/svg"
   xmlns:svg="http://www.w3.org/2000/svg">
  <defs
     id="defs1">
    <style
       id="current-color-scheme"
       type="text/css">
        .ColorScheme-Text { color:#f2f2f2; }
     </style>
  </defs>
  <sodipodi:namedview
     id="namedview1"
     pagecolor="#ffffff"
     bordercolor="#000000"
     borderopacity="0.25"
     inkscape:showpageshadow="2"
     inkscape:pageopacity="0.0"
     inkscape:pagecheckerboard="0"
     inkscape:deskcolor="#d1d1d1"
     inkscape:zoom="36.181818"
     inkscape:cx="10.986181"
     inkscape:cy="11"
     inkscape:window-width="1920"
     inkscape:window-height="1011"
     inkscape:window-x="0"
     inkscape:window-y="0"
     inkscape:window-maximized="1"
     inkscape:current-layer="svg1" />
  <path
     id="path1"
     style="fill:currentColor"
     class="ColorScheme-Text"
     d="M 10.5,3 C 10.223,3 10,3.223 10,3.5 V 10 C 10,10.554 9.554,11 9,11 8.446,11 8,10.554 8,10 V 9 4.5 C 8,4.223 7.777,4 7.5,4 7.223,4 7,4.223 7,4.5 v 6 0.5 C 7,11.554 6.554,12 6,12 5.446,12 5,11.554 5,11 V 10 7.5 C 5,7.223 4.777,7 4.5,7 4.223,7 4,7.223 4,7.5 V 10 11 12.107422 13.5 16 c 0,1.662 1.338,3 3,3 h 5 c 0.83273,0 1.5827,-0.336649 2.125,-0.880859 0.01863,-0.01404 0.0377,-0.02989 0.05469,-0.04687 l 4.242187,-4.242188 c 0.19587,-0.19587 0.19587,-0.511161 0,-0.707031 -0.19587,-0.19587 -0.511161,-0.19587 -0.707031,0 l -2.865235,2.865234 C 14.368059,15.915647 14,15.50244 14,15 V 10 5.5 C 14,5.223 13.777,5 13.5,5 13.223,5 13,5.223 13,5.5 V 10 c 0,0.554 -0.446,1 -1,1 -0.554,0 -1,-0.446 -1,-1 V 9 3.5 C 11,3.223 10.777,3 10.5,3 Z m 0,8.326172 C 10.8659,11.739732 11.40186,12 12,12 c 0.36464,0 0.70624,-0.09651 1,-0.265625 V 14.5 15 c 0,0.69447 0.350366,1.305762 0.884766,1.664062 C 13.611806,17.443162 12.8746,18 12,18 H 7 C 5.892,18 5,17.108 5,16 V 13.5 12.734375 C 5.29376,12.903495 5.63536,13 6,13 6.87493,13 7.6140187,12.443583 7.8867188,11.664063 8.2046588,11.876853 8.58705,12 9,12 c 0.59814,0 1.1341,-0.260268 1.5,-0.673828 z" />
</svg>
