<?xml version="1.0" encoding="UTF-8" standalone="no"?>
<svg
   width="22"
   height="22"
   version="1.1"
   id="svg2"
   sodipodi:docname="preferences-desktop-keyboard-symbolic.svg"
   inkscape:version="1.4.2 (ebf0e940d0, 2025-05-08)"
   xmlns:inkscape="http://www.inkscape.org/namespaces/inkscape"
   xmlns:sodipodi="http://sodipodi.sourceforge.net/DTD/sodipodi-0.dtd"
   xmlns="http://www.w3.org/2000/svg"
   xmlns:svg="http://www.w3.org/2000/svg">
  <defs
     id="defs2">
    <style
       id="current-color-scheme"
       type="text/css">
        .ColorScheme-Text { color:#f2f2f2; }
     </style>
  </defs>
  <sodipodi:namedview
     id="namedview2"
     pagecolor="#ffffff"
     bordercolor="#000000"
     borderopacity="0.25"
     inkscape:showpageshadow="2"
     inkscape:pageopacity="0.0"
     inkscape:pagecheckerboard="0"
     inkscape:deskcolor="#d1d1d1"
     inkscape:zoom="36.136364"
     inkscape:cx="11"
     inkscape:cy="11"
     inkscape:window-width="1920"
     inkscape:window-height="1010"
     inkscape:window-x="0"
     inkscape:window-y="0"
     inkscape:window-maximized="1"
     inkscape:current-layer="svg2" />
  <path
     id="path1"
     style="fill:currentColor"
     class="ColorScheme-Text"
     d="M 5,5 C 3.892,5 3,5.892 3,7 v 8 c 0,1.108 0.892,2 2,2 h 12 c 1.108,0 2,-0.892 2,-2 V 7 C 19,5.892 18.108,5 17,5 Z m 0,1 h 12 c 0.554,0 1,0.446 1,1 v 8 c 0,0.554 -0.446,1 -1,1 H 5 C 4.446,16 4,15.554 4,15 V 7 C 4,6.446 4.446,6 5,6 Z M 5.25,7 C 5.11193,7 5,7.11193 5,7.25 v 1.5 C 5,8.88807 5.11193,9 5.25,9 h 1.5 C 6.88807,9 7,8.88807 7,8.75 V 7.25 C 7,7.11193 6.88807,7 6.75,7 Z m 3,0 C 8.11193,7 8,7.11193 8,7.25 v 1.5 C 8,8.88807 8.11193,9 8.25,9 h 1.5 C 9.88807,9 10,8.88807 10,8.75 V 7.25 C 10,7.11193 9.88807,7 9.75,7 Z m 3,0 C 11.11193,7 11,7.11193 11,7.25 v 1.5 C 11,8.88807 11.11193,9 11.25,9 h 1.5 C 12.88807,9 13,8.88807 13,8.75 V 7.25 C 13,7.11193 12.88807,7 12.75,7 Z m 3,0 C 14.11193,7 14,7.11193 14,7.25 v 1.5 C 14,8.88807 14.11193,9 14.25,9 h 1.5 C 15.88807,9 16,8.88807 16,8.75 V 7.25 C 16,7.11193 15.88807,7 15.75,7 Z m -8,3 C 6.11193,10 6,10.11193 6,10.25 v 1.5 C 6,11.88807 6.11193,12 6.25,12 h 1.5 C 7.88807,12 8,11.88807 8,11.75 v -1.5 C 8,10.11193 7.88807,10 7.75,10 Z m 3,0 C 9.11193,10 9,10.11193 9,10.25 v 1.5 C 9,11.88807 9.11193,12 9.25,12 h 1.5 C 10.88807,12 11,11.88807 11,11.75 v -1.5 C 11,10.11193 10.88807,10 10.75,10 Z m 3,0 C 12.11193,10 12,10.11193 12,10.25 v 1.5 c 0,0.13807 0.11193,0.25 0.25,0.25 h 1.5 C 13.88807,12 14,11.88807 14,11.75 v -1.5 C 14,10.11193 13.88807,10 13.75,10 Z m 3,0 C 15.11193,10 15,10.11193 15,10.25 v 1.5 c 0,0.13807 0.11193,0.25 0.25,0.25 h 1.5 C 16.88807,12 17,11.88807 17,11.75 v -1.5 C 17,10.11193 16.88807,10 16.75,10 Z m -10,3 C 5.11193,13 5,13.11193 5,13.25 v 1.5 C 5,14.88807 5.11193,15 5.25,15 h 1.5 C 6.88807,15 7,14.88807 7,14.75 v -1.5 C 7,13.11193 6.88807,13 6.75,13 Z m 3,0 C 8.11193,13 8,13.11193 8,13.25 v 1.5 C 8,14.88807 8.11193,15 8.25,15 h 5.5 C 13.88807,15 14,14.88807 14,14.75 v -1.5 C 14,13.11193 13.88807,13 13.75,13 Z m 7,0 C 15.11193,13 15,13.11193 15,13.25 v 1.5 c 0,0.13807 0.11193,0.25 0.25,0.25 h 1.5 C 16.88807,15 17,14.88807 17,14.75 v -1.5 C 17,13.11193 16.88807,13 16.75,13 Z" />
</svg>
