<?xml version="1.0" encoding="UTF-8" standalone="no"?>
<!-- Created with Inkscape (http://www.inkscape.org/) -->

<svg
   width="128"
   height="128"
   viewBox="0 0 128 128"
   version="1.1"
   id="svg5"
   inkscape:version="1.2.1 (9c6d41e410, 2022-07-14)"
   sodipodi:docname="system-shutdown.svg"
   xmlns:inkscape="http://www.inkscape.org/namespaces/inkscape"
   xmlns:sodipodi="http://sodipodi.sourceforge.net/DTD/sodipodi-0.dtd"
   xmlns:xlink="http://www.w3.org/1999/xlink"
   xmlns="http://www.w3.org/2000/svg"
   xmlns:svg="http://www.w3.org/2000/svg">
  <sodipodi:namedview
     id="namedview7"
     pagecolor="#ffffff"
     bordercolor="#666666"
     borderopacity="1.0"
     inkscape:showpageshadow="2"
     inkscape:pageopacity="0.0"
     inkscape:pagecheckerboard="0"
     inkscape:deskcolor="#d1d1d1"
     inkscape:document-units="px"
     showgrid="false"
     inkscape:zoom="6.078125"
     inkscape:cx="63.917738"
     inkscape:cy="64"
     inkscape:window-width="1920"
     inkscape:window-height="999"
     inkscape:window-x="0"
     inkscape:window-y="0"
     inkscape:window-maximized="1"
     inkscape:current-layer="svg5" />
  <defs
     id="defs2">
    <linearGradient
       inkscape:collect="always"
       id="linearGradient1086">
      <stop
         style="stop-color:#d61b1b;stop-opacity:1;"
         offset="0"
         id="stop1082" />
      <stop
         style="stop-color:#d57b6c;stop-opacity:1;"
         offset="1"
         id="stop1084" />
    </linearGradient>
    <linearGradient
       inkscape:collect="always"
       xlink:href="#linearGradient1086"
       id="linearGradient4780"
       x1="2"
       y1="2"
       x2="30"
       y2="30"
       gradientUnits="userSpaceOnUse"
       gradientTransform="scale(4)" />
  </defs>
  <path
     d="M 52,9 C 15.595238,9 8,16.759268 8,53 v 24 c 0,36.24073 7.595238,44 44,44 h 24 c 36.40476,0 44,-7.75927 44,-44 V 53 C 120,16.759268 112.40476,8.9999998 76,8.9999998"
     style="opacity:0.2;fill:#000000;stroke-width:4;stroke-linecap:round;stroke-linejoin:round"
     id="path563" />
  <path
     id="path530"
     style="fill:url(#linearGradient4780);fill-opacity:1;stroke-width:4;stroke-linecap:round;stroke-linejoin:round"
     d="M 52,8 C 15.595274,8 8,15.759304 8,52 v 24 c 0,36.2407 7.595274,44 44,44 h 24 c 36.40473,0 44,-7.7593 44,-44 V 52 C 120,15.759304 112.40473,7.9999998 76,7.9999998 Z" />
  <path
     id="path368"
     style="fill:#ffffff;stroke-width:7.2;stroke-linecap:round;stroke-linejoin:round"
     d="m 62,28 v 28 h 4 V 28 Z m 14,2.0625 v 4.28125 C 88.08511,39.232416 95.99652,50.963554 96,64 96,81.673112 81.673112,96 64,96 46.326888,96 32,81.673112 32,64 32.041592,50.99774 39.946494,39.313306 52,34.4375 V 30.148438 C 37.647268,35.222842 28.03789,48.776694 28,64 c 0,19.88225 16.11775,36 36,36 19.88225,0 36,-16.11775 36,-36 C 99.9985,48.745142 90.382418,35.147452 76,30.0625 Z"
     sodipodi:nodetypes="ccccccccsccccscc" />
</svg>
