<?xml version="1.0" encoding="UTF-8" standalone="no"?>
<!-- Created with Inkscape (http://www.inkscape.org/) -->

<svg
   width="128"
   height="128"
   viewBox="0 0 128 128"
   version="1.1"
   id="svg5"
   inkscape:version="1.2.2 (1:1.2.2+202305151914+b0a8486541)"
   sodipodi:docname="accessories-clock.svg"
   xmlns:inkscape="http://www.inkscape.org/namespaces/inkscape"
   xmlns:sodipodi="http://sodipodi.sourceforge.net/DTD/sodipodi-0.dtd"
   xmlns="http://www.w3.org/2000/svg"
   xmlns:svg="http://www.w3.org/2000/svg">
  <sodipodi:namedview
     id="namedview7"
     pagecolor="#ffffff"
     bordercolor="#000000"
     borderopacity="0.25"
     inkscape:showpageshadow="2"
     inkscape:pageopacity="0.0"
     inkscape:pagecheckerboard="0"
     inkscape:deskcolor="#d1d1d1"
     inkscape:document-units="px"
     showgrid="false"
     inkscape:zoom="6.296875"
     inkscape:cx="63.920596"
     inkscape:cy="64"
     inkscape:window-width="1920"
     inkscape:window-height="1008"
     inkscape:window-x="0"
     inkscape:window-y="0"
     inkscape:window-maximized="1"
     inkscape:current-layer="svg5"
     showguides="false" />
  <defs
     id="defs2">
    <style
       id="current-color-scheme"
       type="text/css">
         .ColorScheme-Text { color:#232629; }
         .ColorScheme-Highlight { color:#3daee9; }
     </style>
  </defs>
  <path
     d="M 52,9 C 15.595238,9 8,16.759268 8,53 v 24 c 0,36.24073 7.595238,44 44,44 h 24 c 36.40476,0 44,-7.75927 44,-44 V 53 C 120,16.759268 112.40476,9 76,9"
     style="opacity:0.2;fill:#000000;stroke-width:4;stroke-linecap:round;stroke-linejoin:round"
     id="path563" />
  <path
     id="path530"
     style="fill:currentColor;fill-opacity:1;stroke-width:4;stroke-linecap:round;stroke-linejoin:round"
     class="ColorScheme-Highlight"
     d="M 52,8 C 15.595274,8 8,15.759304 8,52 v 24 c 0,36.2407 7.595274,44 44,44 h 24 c 36.40473,0 44,-7.7593 44,-44 V 52 C 120,15.759304 112.40473,8 76,8 Z" />
  <circle
     style="opacity:0.3;fill:currentColor;stroke-width:0.5;stroke-linecap:round;stroke-linejoin:round"
     id="path724"
     cx="64"
     cy="64"
     r="40"
     class="ColorScheme-Text" />
  <path
     d="m 64,36 c 2.215995,0 4,1.784006 4,4 v 22.335945 l 15.80469,15.81249 c 1.566945,1.566945 1.566945,4.0893 0,5.65625 -1.56695,1.566945 -4.089305,1.566945 -5.65625,0 L 61.171875,66.835935 c -0.0015,-0.0015 0.0015,-0.0064 0,-0.0078 -0.09552,-0.09552 -0.18796,-0.19208 -0.273435,-0.296875 -0.0164,-0.0203 -0.0309,-0.0421 -0.0469,-0.0625 -0.13736,-0.1753 -0.26031,-0.36526 -0.36719,-0.5625 -0.0084,-0.0152 -0.0154,-0.0313 -0.02345,-0.0469 -0.06048,-0.11528 -0.11482,-0.229885 -0.16406,-0.35156 -0.0419,-0.10288 -0.08438,-0.207225 -0.11718,-0.3125 -0.004,-0.0124 -0.004,-0.02665 -0.0078,-0.03905 -0.0156,-0.05208 -0.0333,-0.1037 -0.0469,-0.15626 -0.0176,-0.0686 -0.0329,-0.14094 -0.0469,-0.210935 -0.0251,-0.12592 -0.0415,-0.25541 -0.05468,-0.382815 -0.014,-0.13528 -0.02345,-0.27041 -0.02345,-0.40625 V 40 c 0,-2.215994 1.78401,-4 4,-4 z"
     style="opacity:0.6;fill:currentColor;fill-opacity:1;stroke-width:8;stroke-linecap:round;stroke-linejoin:round"
     id="path652"
     class="ColorScheme-Text" />
</svg>
