<?xml version="1.0" encoding="UTF-8" standalone="no"?>
<!-- Created with Inkscape (http://www.inkscape.org/) -->

<svg
   width="128"
   height="128"
   viewBox="0 0 128 128"
   version="1.1"
   id="svg5"
   inkscape:version="1.2.2 (1:1.2.2+202305151914+b0a8486541)"
   sodipodi:docname="applications-graphics.svg"
   xmlns:inkscape="http://www.inkscape.org/namespaces/inkscape"
   xmlns:sodipodi="http://sodipodi.sourceforge.net/DTD/sodipodi-0.dtd"
   xmlns="http://www.w3.org/2000/svg"
   xmlns:svg="http://www.w3.org/2000/svg">
  <sodipodi:namedview
     id="namedview7"
     pagecolor="#ffffff"
     bordercolor="#000000"
     borderopacity="0.25"
     inkscape:showpageshadow="2"
     inkscape:pageopacity="0.0"
     inkscape:pagecheckerboard="0"
     inkscape:deskcolor="#d1d1d1"
     inkscape:document-units="px"
     showgrid="false"
     inkscape:zoom="6.296875"
     inkscape:cx="63.920596"
     inkscape:cy="64"
     inkscape:window-width="1920"
     inkscape:window-height="1008"
     inkscape:window-x="0"
     inkscape:window-y="0"
     inkscape:window-maximized="1"
     inkscape:current-layer="svg5" />
  <defs
     id="defs2">
    <style
       id="current-color-scheme"
       type="text/css">
         .ColorScheme-Text { color:#232629; }
         .ColorScheme-Highlight { color:#3daee9; }
     </style>
  </defs>
  <path
     d="M 52,9 C 15.595238,9 8,16.759268 8,53 v 24 c 0,36.24073 7.595238,44 44,44 h 24 c 36.40476,0 44,-7.75927 44,-44 V 53 C 120,16.759268 112.40476,9 76,9"
     style="opacity:0.2;fill:#000000;stroke-width:3.99998;stroke-linecap:round;stroke-linejoin:round"
     id="path563" />
  <path
     id="path530"
     style="fill:currentColor;fill-opacity:1;stroke-width:3.99998;stroke-linecap:round;stroke-linejoin:round"
     d="M 52,8 C 15.595274,8 8,15.759304 8,52 v 24 c 0,36.2407 7.595274,44 44,44 h 24 c 36.40473,0 44,-7.7593 44,-44 V 52 C 120,15.759304 112.40473,8 76,8 Z"
     class="ColorScheme-Highlight" />
  <path
     d="m 99.687492,26.034556 c -5.72203,-0.72124 -20.648562,9.510112 -35.3594,24.226744 -6.560154,6.564132 -12.253542,13.050904 -16.61414,19.16936 5.110696,1.628262 9.229562,5.744428 10.85698,10.856968 C 64.68704,75.92579 71.188536,70.257198 77.750882,63.694692 94.4409,46.997746 104.96422,30.45692 101.25666,26.744928 c -0.38104,-0.3838 -0.90098,-0.624624 -1.569168,-0.71041 z M 44.999716,76.65097 v 0.01 C 26.001026,81.754488 40.248994,93.78528 26,102.0013 c 18.99869,0 28.499564,-9.509762 28.499564,-15.850774 0,-3.160888 0.322144,-8.973812 -9.499848,-9.499848 z"
     style="opacity:0.6;fill:currentColor;fill-opacity:1;stroke-width:5.4285"
     id="path347"
     sodipodi:nodetypes="ccccccccccscc"
     class="ColorScheme-Text" />
</svg>
