<?xml version="1.0" encoding="UTF-8" standalone="no"?>
<!-- Created with Inkscape (http://www.inkscape.org/) -->

<svg
   width="128"
   height="128"
   viewBox="0 0 128 128"
   version="1.1"
   id="svg5"
   inkscape:version="1.2.2 (1:1.2.2+202305151914+b0a8486541)"
   sodipodi:docname="kate.svg"
   xmlns:inkscape="http://www.inkscape.org/namespaces/inkscape"
   xmlns:sodipodi="http://sodipodi.sourceforge.net/DTD/sodipodi-0.dtd"
   xmlns="http://www.w3.org/2000/svg"
   xmlns:svg="http://www.w3.org/2000/svg">
  <sodipodi:namedview
     id="namedview7"
     pagecolor="#ffffff"
     bordercolor="#000000"
     borderopacity="0.25"
     inkscape:showpageshadow="2"
     inkscape:pageopacity="0.0"
     inkscape:pagecheckerboard="0"
     inkscape:deskcolor="#d1d1d1"
     inkscape:document-units="px"
     showgrid="false"
     inkscape:zoom="6.484375"
     inkscape:cx="63.922892"
     inkscape:cy="64"
     inkscape:window-width="1920"
     inkscape:window-height="1008"
     inkscape:window-x="0"
     inkscape:window-y="0"
     inkscape:window-maximized="1"
     inkscape:current-layer="svg5" />
  <defs
     id="defs2">
    <style
       id="current-color-scheme"
       type="text/css">
         .ColorScheme-Text { color:#232629; }
         .ColorScheme-Highlight { color:#3daee9; }
     </style>
  </defs>
  <path
     d="M 52,9 C 15.595238,9 8,16.759268 8,53 v 24 c 0,36.24073 7.595238,44 44,44 h 24 c 36.40476,0 44,-7.75927 44,-44 V 53 C 120,16.759268 112.40476,9 76,9"
     style="opacity:0.2;fill:#000000;stroke-width:4;stroke-linecap:round;stroke-linejoin:round"
     id="path563" />
  <path
     id="path530"
     style="fill:currentColor;fill-opacity:1;stroke-width:4;stroke-linecap:round;stroke-linejoin:round"
     d="M 52,8 C 15.595274,8 8,15.759304 8,52 v 24 c 0,36.2407 7.595274,44 44,44 h 24 c 36.40473,0 44,-7.7593 44,-44 V 52 C 120,15.759304 112.40473,8 76,8 Z"
     class="ColorScheme-Highlight" />
  <path
     id="path10"
     style="opacity:0.35;fill:currentColor;fill-opacity:1;stroke-width:3.04798"
     d="m 59.239584,26.361384 c -0.15548,0.07534 -0.3076,0.15492 -0.458364,0.236136 0.15084,-0.08146 0.30288,-0.16058 0.458364,-0.236136 z m -1.111236,0.611182 c -0.17488,0.10986 -0.34712,0.214496 -0.513976,0.333372 0.16564,-0.1181 0.34044,-0.224168 0.513976,-0.333372 z M 56.94766,27.83377 c -0.184,0.15626 -0.357,0.316744 -0.527848,0.486162 0.17056,-0.16928 0.34416,-0.33002 0.527848,-0.486162 z m -0.527848,0.486162 c -0.31712,0.31458 -0.62158,0.65298 -0.888988,1.014002 0.26796,-0.36208 0.57116,-0.698546 0.888988,-1.014002 z m -1.347364,1.708526 c -0.12416,0.207164 -0.23924,0.418202 -0.34728,0.638962 0.1094,-0.223852 0.22124,-0.429054 0.34728,-0.638962 z m -0.34728,0.638962 c -0.08344,0.17048 -0.1628,0.349152 -0.23612,0.527838 0.07332,-0.1788 0.15276,-0.357244 0.23612,-0.527838 z m -0.583392,1.527948 c -0.06188,0.221324 -0.11928,0.448192 -0.16668,0.680608 0.04764,-0.233272 0.1044,-0.458504 0.16668,-0.680608 z m -0.16668,0.680608 c -0.04764,0.23334 -0.0788,0.477636 -0.11116,0.722306 0.032,-0.242588 0.064,-0.490862 0.11116,-0.722306 z m -0.12504,0.875098 c -0.0176,0.15206 -0.0434,0.302044 -0.05548,0.458362 -8.84574,-0.658276 -13.554552,2.415082 -25.794562,5.13946 3.014778,0.23 20.815518,-2.288014 24.474942,7.889764 0.28064,-0.09272 0.545412,-0.1876 0.833428,-0.2778 1.24728,-0.3906 2.468788,-0.754304 3.694852,-1.125132 C 54.34144,40.823484 53.484,36.844126 53.850128,33.751068 Z"
     class="ColorScheme-Text" />
  <path
     id="path12"
     style="opacity:0.6;fill:currentColor;fill-opacity:1;stroke-width:3.04798"
     class="ColorScheme-Text"
     d="M 101.49428,32.93155 C 68.098572,45.656036 25.284548,54.245056 40.056892,75.519612 c 0.0022,0.0032 -0.0022,0.0108 0,0.0144 0.0024,0.006 0.01,0.0092 0.0144,0.0144 0.0236,0.0328 0.04552,0.064 0.06968,0.0972 6.015916,7.62464 15.484352,8.804448 25.72508,15.654568 9.317556,6.232672 12.406456,9.40444 18.418708,18.04366 C 83.034528,97.407156 76.456228,82.021104 73.755816,75.242836 l -0.0144,-0.04196 C 69.231012,71.888052 65.155636,67.57868 61.50392,62.01886 c 4.451316,7.718444 5.431124,17.465932 -3.889324,19.404928 -9.622308,2.001788 -20.12587,-6.314008 -17.488052,-15.210024 2.864368,-9.660048 16.449132,-7.797596 29.41994,-9.473272 12.9708,-1.675708 24.819704,-14.392608 31.947996,-23.808198 z M 65.004112,43.474388 c -3.803808,1.093164 -7.698084,2.234608 -11.69574,3.486496 -0.0056,0.0018 -0.008,0.012 -0.0144,0.0136 4.002476,-1.25338 7.90074,-2.405364 11.709608,-3.500364 z M 51.572064,47.54428 c -0.468816,0.16408 -0.927932,0.3288 -1.375152,0.50004 0.449404,-0.17184 0.904032,-0.33548 1.375152,-0.50004 z m -2.097456,0.791756 c -0.35944,0.1446 -0.724724,0.28128 -1.06956,0.430624 0.34324,-0.14836 0.711916,-0.28696 1.06956,-0.430624 z m -2.541952,1.111232 c -0.25604,0.12368 -0.503024,0.24848 -0.750076,0.37508 0.24664,-0.12608 0.49442,-0.25184 0.750076,-0.37508 z m -5.014444,3.028116 c -0.22324,0.17024 -0.441864,0.34016 -0.652872,0.51398 0.21336,-0.17532 0.427,-0.34224 0.652872,-0.51398 z m -1.305704,1.083452 c -0.1564,0.14024 -0.32344,0.27436 -0.4723,0.416756 0.14864,-0.1418 0.31612,-0.277 0.4723,-0.416756 z m -4.542164,13.695972 c 0.276652,1.294892 0.714832,2.639944 1.37515,4.028224 0.760134,1.59812 1.62458,2.973256 2.56973,4.194912 C 38.01811,72.65626 36.70048,69.89948 36.070344,67.254808 Z" />
  <path
     style="opacity:0.45;fill:currentColor;fill-opacity:1;stroke-width:3.04798"
     d="m 60.047552,59.694648 c 4.27088,-0.24488 3.476424,-0.18144 10.718896,-0.546548 C 81.561752,68.34992 85.139956,71.533776 104,84.959176 85.043128,83.603076 70.699836,77.451824 60.047552,59.694664 Z"
     id="path14"
     class="ColorScheme-Text" />
  <path
     id="path16"
     style="opacity:0.25;fill:currentColor;fill-opacity:1;stroke-width:3.04798"
     d="m 62.878876,24.00001 c -6.50556,-0.005 -13.983148,1.856096 -21.238468,7.111902 C 34.551078,36.24748 31.438832,37.64191 28,39.348938 40.240024,36.624554 44.948812,33.551194 53.794532,34.20948 c 0.506868,-6.665372 6.539432,-9.379318 12.876432,-9.389934 2.950244,-0.005 5.973132,0.566556 8.528728,1.61129 -3.254976,-1.41115 -7.51752,-2.427062 -12.320816,-2.430826 z"
     class="ColorScheme-Text" />
  <path
     id="path18"
     style="opacity:0.4;fill:currentColor;fill-opacity:1;stroke-width:3.04798"
     d="m 66.670964,24.819546 c -9.211328,0.0154 -17.771928,5.755814 -9.66774,21.016222 2.220924,-0.674492 4.41214,-1.3191 6.570172,-1.944656 -2.843052,-5.809786 -5.687804,-15.872764 13.41816,-16.59907 -2.860128,-1.579874 -6.643888,-2.478662 -10.320592,-2.472496 z"
     class="ColorScheme-Text" />
  <path
     style="opacity:0.45;fill:currentColor;fill-opacity:1;stroke-width:3.04798"
     d="M 41.009348,76.815536 C 31.322616,64.34268 34.330148,52.910192 53.298188,46.970264 72.016512,41.108516 88.870304,37.238808 101.49428,32.931556 67.426852,45.911984 23.54881,54.585444 41.009348,76.815536 Z"
     id="path20"
     class="ColorScheme-Text" />
</svg>
