<?xml version="1.0" encoding="UTF-8" standalone="no"?>
<!-- Created with Inkscape (http://www.inkscape.org/) -->

<svg
   width="128"
   height="128"
   viewBox="0 0 128 128"
   version="1.1"
   id="svg5"
   inkscape:version="1.2.2 (1:1.2.2+202305151914+b0a8486541)"
   sodipodi:docname="system-software-install.svg"
   xmlns:inkscape="http://www.inkscape.org/namespaces/inkscape"
   xmlns:sodipodi="http://sodipodi.sourceforge.net/DTD/sodipodi-0.dtd"
   xmlns="http://www.w3.org/2000/svg"
   xmlns:svg="http://www.w3.org/2000/svg">
  <sodipodi:namedview
     id="namedview7"
     pagecolor="#ffffff"
     bordercolor="#000000"
     borderopacity="0.25"
     inkscape:showpageshadow="2"
     inkscape:pageopacity="0.0"
     inkscape:pagecheckerboard="0"
     inkscape:deskcolor="#d1d1d1"
     inkscape:document-units="px"
     showgrid="false"
     inkscape:zoom="6.296875"
     inkscape:cx="63.920596"
     inkscape:cy="64"
     inkscape:window-width="1920"
     inkscape:window-height="1008"
     inkscape:window-x="0"
     inkscape:window-y="0"
     inkscape:window-maximized="1"
     inkscape:current-layer="svg5" />
  <defs
     id="defs2">
    <style
       id="current-color-scheme"
       type="text/css">
         .ColorScheme-Text { color:#232629; }
         .ColorScheme-Highlight { color:#3daee9; }
     </style>
  </defs>
  <path
     d="M 52,9 C 15.595238,9 8,16.759268 8,53 v 24 c 0,36.24073 7.595238,44 44,44 h 24 c 36.40476,0 44,-7.75927 44,-44 V 53 C 120,16.759268 112.40476,9 76,9"
     style="opacity:0.2;fill:#000000;stroke-width:4;stroke-linecap:round;stroke-linejoin:round"
     id="path563" />
  <path
     id="path530"
     style="fill:currentColor;fill-opacity:1;stroke-width:4;stroke-linecap:round;stroke-linejoin:round"
     d="M 52,8 C 15.595274,8 8,15.759304 8,52 v 24 c 0,36.2407 7.595274,44 44,44 h 24 c 36.40473,0 44,-7.7593 44,-44 V 52 C 120,15.759304 112.40473,8 76,8 Z"
     class="ColorScheme-Highlight" />
  <path
     style="opacity:0.3;fill:currentColor;stroke:none;stroke-width:4;stroke-linecap:round;stroke-linejoin:round;-inkscape-stroke:none"
     d="M 64,40 C 52.978004,40 44,31.021992 44,20 a 2,2 0 0 1 2,-2 2,2 0 0 1 2,2 c 0,8.860236 7.139764,16 16,16 8.860236,0 16,-7.139764 16,-16 a 2,2 0 0 1 2,-2 2,2 0 0 1 2,2 c 0,11.021992 -8.978004,20 -20,20 z"
     id="path6892"
     class="ColorScheme-Text" />
  <path
     d="m 64.000042,54 c -1.107998,0 -2,0.892002 -2,2 V 97.171876 L 48.92973,84.097656 c -0.783474,-0.783472 -2.044656,-0.783472 -2.828126,0 -0.783472,0.783474 -0.783474,2.04856 0,2.832032 L 62.58598,103.41406 c 0.783474,0.78348 2.04465,0.78348 2.828124,0 L 81.89848,86.929688 c 0.783472,-0.783472 0.783472,-2.048558 0,-2.832032 -0.78347,-0.783468 -2.044652,-0.783472 -2.828126,0 L 66.000042,97.171876 V 56 c 0,-1.107998 -0.892002,-2 -2,-2 z"
     style="opacity:0.6;fill:currentColor;stroke-width:2"
     id="path299"
     class="ColorScheme-Text" />
</svg>
