<?xml version="1.0" encoding="UTF-8" standalone="no"?>
<!-- Created with Inkscape (http://www.inkscape.org/) -->

<svg
   width="24"
   height="24"
   viewBox="0 0 24 24"
   version="1.1"
   id="svg5"
   inkscape:version="1.2.1 (9c6d41e410, 2022-07-14)"
   sodipodi:docname="go-next-skip.svg"
   xmlns:inkscape="http://www.inkscape.org/namespaces/inkscape"
   xmlns:sodipodi="http://sodipodi.sourceforge.net/DTD/sodipodi-0.dtd"
   xmlns="http://www.w3.org/2000/svg"
   xmlns:svg="http://www.w3.org/2000/svg">
  <sodipodi:namedview
     id="namedview7"
     pagecolor="#ffffff"
     bordercolor="#666666"
     borderopacity="1.0"
     inkscape:showpageshadow="2"
     inkscape:pageopacity="0.0"
     inkscape:pagecheckerboard="0"
     inkscape:deskcolor="#d1d1d1"
     inkscape:document-units="px"
     showgrid="false"
     inkscape:zoom="25.947075"
     inkscape:cx="9.4808375"
     inkscape:cy="14.799356"
     inkscape:window-width="1920"
     inkscape:window-height="1012"
     inkscape:window-x="0"
     inkscape:window-y="0"
     inkscape:window-maximized="1"
     inkscape:current-layer="svg5" />
  <defs
     id="defs2">
    <style
       id="current-color-scheme"
       type="text/css">
      .ColorScheme-Text { color:#f2f2f2; }
    </style>
  </defs>
  <path
     id="path510"
     style="fill:currentColor;stroke-width:2;stroke-linecap:round;stroke-linejoin:round"
     class="ColorScheme-Text"
     d="m 7.3434161,7.051 c -0.1278099,0 -0.2555857,0.04858 -0.3535156,0.1464844 -0.1958668,0.1958998 -0.1958578,0.5111325 0,0.7070313 l 4.6054685,4.5976563 -4.6054685,4.595703 c -0.1958688,0.195901 -0.1958658,0.511132 0,0.707032 0.1958698,0.195798 0.5111634,0.195798 0.7070312,0 L 12.999666,12.500219 7.6969317,7.1974844 C 7.5990018,7.0989845 7.471226,7.051 7.3434161,7.051 Z m 4.9999999,0 c -0.12781,1e-7 -0.255586,0.048584 -0.353516,0.1464844 -0.195866,0.1958996 -0.195857,0.5111317 0,0.7070313 l 4.605469,4.5976563 -4.605469,4.595703 c -0.195868,0.1959 -0.195865,0.511132 0,0.707032 0.19587,0.195798 0.511164,0.195798 0.707032,0 L 17.999666,12.500219 12.696932,7.1974844 C 12.599001,7.0989846 12.471226,7.051 12.343416,7.051 Z" />
</svg>
