<?xml version="1.0" encoding="UTF-8" standalone="no"?>
<!-- Created with Inkscape (http://www.inkscape.org/) -->

<svg
   width="256"
   height="256"
   viewBox="0 0 256 256"
   version="1.1"
   id="svg5"
   inkscape:version="1.2.1 (1:1.2.1+202210291243+9c6d41e410)"
   sodipodi:docname="folder-purple-download.svg"
   xmlns:inkscape="http://www.inkscape.org/namespaces/inkscape"
   xmlns:sodipodi="http://sodipodi.sourceforge.net/DTD/sodipodi-0.dtd"
   xmlns="http://www.w3.org/2000/svg"
   xmlns:svg="http://www.w3.org/2000/svg">
  <sodipodi:namedview
     id="namedview7"
     pagecolor="#ffffff"
     bordercolor="#000000"
     borderopacity="0.25"
     inkscape:showpageshadow="2"
     inkscape:pageopacity="0.0"
     inkscape:pagecheckerboard="0"
     inkscape:deskcolor="#d1d1d1"
     inkscape:document-units="px"
     showgrid="false"
     inkscape:zoom="3.2226562"
     inkscape:cx="128.93091"
     inkscape:cy="128.93091"
     inkscape:window-width="1920"
     inkscape:window-height="1018"
     inkscape:window-x="0"
     inkscape:window-y="28"
     inkscape:window-maximized="1"
     inkscape:current-layer="svg5" />
  <defs
     id="defs2">
    <style
       id="current-color-scheme"
       type="text/css">
         .ColorScheme-Highlight { color:#3daee9; }
     </style>
  </defs>
  <path
     d="m 32,33 c -8.863992,0 -16,7.136008 -16,16 v 160 c 0,8.864 7.136008,16 16,16 h 192 c 8.864,0 16,-7.136 16,-16 V 73 c 0,-8.863992 -7.136,-16 -16,-16 H 128 L 112,41 c -5.4342,-5.280768 -7.13601,-8 -16,-8 z"
     style="opacity:0.3;fill:#000000;stroke-width:8"
     id="path1016"
     sodipodi:nodetypes="ssssssssccss" />
  <path
     id="rect184"
     style="fill:#8e44ad;fill-opacity:1;stroke-width:8"

     d="m 32,32 c -8.863992,0 -16,7.136008 -16,16 v 160 c 0,8.864 7.136008,16 16,16 h 192 c 8.864,0 16,-7.136 16,-16 V 72 c 0,-8.863992 -7.136,-16 -16,-16 H 128 L 112,40 c -5.50953,-5.034684 -7.13601,-8 -16,-8 z"
     sodipodi:nodetypes="sccsssssccss" />
  <path
     id="path1511"
     style="opacity:0.4;fill:#000000;fill-opacity:1;stroke-width:4"
     d="m 32,32 c -8.863982,0 -15.999999,7.136016 -15.999999,16 v 48 c 0,-8.836536 7.163471,-16 15.999999,-16 h 64 c 8.86397,0 10.66557,-3.0882 16,-8 L 128,56 112,40 c -5.50952,-5.03468 -7.13602,-8 -16,-8 z" />
  <path
     id="path3081"
     style="opacity:0.2;fill:#ffffff;stroke-width:8"
     d="m 128,56 -16,16 c -5.33444,4.911804 -7.13602,8 -16,8 H 32 c -8.836538,0 -16,7.163456 -16,16 v 1 c 0,-8.836544 7.163462,-16 16,-16 h 64 c 8.86398,0 10.66556,-3.0882 16,-8 l 16,-16 h 96 c 8.86396,0 16,7.136032 16,16 v -1 c 0,-8.863968 -7.13604,-16 -16,-16 z"
     sodipodi:nodetypes="ccssscssccscssc" />
  <path
     id="rect6657"
     style="opacity:0.6;fill:#ffffff;stroke-width:12;stroke-linecap:round;stroke-linejoin:round"
     d="m 126.00096,112 c -1.108,0 -2,0.892 -2,2 v 58.34276 L 103.619,151.96192 c -0.78348,-0.78344 -2.04464,-0.78348 -2.82812,0 -0.3916,0.3916 -0.58592,0.90284 -0.58592,1.41408 0,0.51124 0.1944,1.02232 0.58592,1.41408 l 25.21008,25.20896 25.21708,-25.20896 c 0.78348,-0.78348 0.78348,-2.04468 0,-2.82816 -0.78348,-0.78348 -2.04464,-0.78348 -2.82812,0 l -20.38896,20.38084 V 114 c 0,-1.108 -0.892,-2 -2,-2 z M 98,188 c -1.23312,0 -2,0.892 -2,2 0,1.108 0.76688,2 2,2 h 56 c 1.23308,0 2,-0.892 2,-2 0,-1.108 -0.76692,-2 -2,-2 z"
     sodipodi:nodetypes="ssccsscccsccsssssssss" />
</svg>
