<?xml version="1.0" encoding="UTF-8" standalone="no"?>
<!-- Created with Inkscape (http://www.inkscape.org/) -->

<svg
   width="256"
   height="256"
   viewBox="0 0 256 256"
   version="1.1"
   id="svg5"
   inkscape:version="1.2.1 (1:1.2.1+202210291243+9c6d41e410)"
   sodipodi:docname="folder-grey-recent-open.svg"
   xmlns:inkscape="http://www.inkscape.org/namespaces/inkscape"
   xmlns:sodipodi="http://sodipodi.sourceforge.net/DTD/sodipodi-0.dtd"
   xmlns="http://www.w3.org/2000/svg"
   xmlns:svg="http://www.w3.org/2000/svg">
  <sodipodi:namedview
     id="namedview7"
     pagecolor="#ffffff"
     bordercolor="#000000"
     borderopacity="0.25"
     inkscape:showpageshadow="2"
     inkscape:pageopacity="0.0"
     inkscape:pagecheckerboard="0"
     inkscape:deskcolor="#d1d1d1"
     inkscape:document-units="px"
     showgrid="false"
     inkscape:zoom="3.2226562"
     inkscape:cx="128.93091"
     inkscape:cy="128.93091"
     inkscape:window-width="1920"
     inkscape:window-height="1018"
     inkscape:window-x="0"
     inkscape:window-y="28"
     inkscape:window-maximized="1"
     inkscape:current-layer="svg5" />
  <defs
     id="defs2">
    <style
       id="current-color-scheme"
       type="text/css">
         .ColorScheme-Highlight { color:#3daee9; }
     </style>
  </defs>
  <path
     d="m 32,33 c -8.863992,0 -16,7.136008 -16,16 v 160 c 0,8.864 7.136008,16 16,16 h 192 c 8.864,0 16,-7.136 16,-16 V 73 c 0,-8.863992 -7.136,-16 -16,-16 H 128 L 112,41 c -5.4342,-5.280768 -7.13601,-8 -16,-8 z"
     style="opacity:0.3;fill:#000000;stroke-width:8"
     id="path1016"
     sodipodi:nodetypes="ssssssssccss" />
  <path
     id="rect184"
     style="fill:#a7afb4;fill-opacity:1;stroke-width:8"

     d="m 32,32 c -8.863992,0 -16,7.136006 -16,16 v 160 c 0,8.864 7.136008,16 16,16 h 192 c 8.864,0 16,-7.136 16,-16 V 72 c 0,-8.863992 -7.136,-16 -16,-16 H 128 L 112,40 c -5.50953,-5.034684 -7.13601,-8 -16,-8 z"
     sodipodi:nodetypes="sccsssssccss" />
  <path
     id="path1511"
     style="opacity:0.4;fill:#000000;fill-opacity:1;stroke-width:4"
     d="m 32,32 c -8.863976,0 -16,7.136024 -16,16 v 72 c 0,-8.83654 7.163464,-16 16,-16 h 64 c 8.86398,0 10.66556,-3.0882 16,-8 l 16,-16 h 96 c 8.86396,0 16,7.136032 16,16 V 72 c 0,-8.863976 -7.13602,-16 -16,-16 H 128 L 112,40 c -5.50951,-5.034672 -7.13602,-8 -16,-8 z" />
  <path
     id="path3081"
     style="opacity:0.2;fill:#ffffff;stroke-width:8"
     d="m 128,80 -16,16 c -5.33444,4.9118 -7.13602,8 -16,8 H 32 c -8.836538,0 -16,7.16346 -16,16 v 1 c 0,-8.83654 7.163462,-16 16,-16 h 64 c 8.86398,0 10.66556,-3.0882 16,-8 l 16,-16 h 96 c 8.86396,0 16,7.136032 16,16 v -1 c 0,-8.863968 -7.13604,-16 -16,-16 z"
     sodipodi:nodetypes="ccssscssccscssc" />
  <path
     id="path5851"
     style="opacity:0.6;fill:#ffffff;fill-opacity:1;stroke-width:4.5;stroke-linecap:round;stroke-linejoin:round"
     d="m 100,128 v 16 h 16 v -4 h -8.95312 c 5.79056,-5.10712 13.23232,-7.94844 20.95312,-8 17.67312,0 32,14.32692 32,32 0,17.67312 -14.32688,32 -32,32 -8.47532,-0.032 -16.59248,-3.42152 -22.57032,-9.42968 l -2.8828,2.88284 c 10.29464,10.29372 25.77572,13.37392 39.22656,7.80468 C 155.22632,191.68696 163.99872,178.56076 164,164 163.99872,149.43928 155.22632,136.31308 141.77344,130.7422 137.4068,128.9328 132.72664,128.00104 128,128 c -8.8692,0.028 -17.41548,3.33144 -24,9.27344 V 128 Z m 28,12.0016 v 23.99996 l 15.79688,15.79688 2.82812,-2.82812 L 132,162.34532 V 140.0016 Z"
     sodipodi:nodetypes="ccccccsccccccccccccccccc" />
</svg>
