<?xml version="1.0" encoding="UTF-8" standalone="no"?>
<!-- Created with Inkscape (http://www.inkscape.org/) -->

<svg
   width="24"
   height="24"
   viewBox="0 0 24 24"
   version="1.1"
   id="svg5"
   inkscape:version="1.2.2 (1:1.2.2+202305151914+b0a8486541)"
   sodipodi:docname="brave-browser.svg"
   xmlns:inkscape="http://www.inkscape.org/namespaces/inkscape"
   xmlns:sodipodi="http://sodipodi.sourceforge.net/DTD/sodipodi-0.dtd"
   xmlns="http://www.w3.org/2000/svg"
   xmlns:svg="http://www.w3.org/2000/svg">
  <sodipodi:namedview
     id="namedview7"
     pagecolor="#ffffff"
     bordercolor="#000000"
     borderopacity="0.25"
     inkscape:showpageshadow="2"
     inkscape:pageopacity="0.0"
     inkscape:pagecheckerboard="0"
     inkscape:deskcolor="#d1d1d1"
     inkscape:document-units="px"
     showgrid="false"
     inkscape:zoom="34.583333"
     inkscape:cx="11.985542"
     inkscape:cy="12"
     inkscape:window-width="1920"
     inkscape:window-height="1008"
     inkscape:window-x="0"
     inkscape:window-y="0"
     inkscape:window-maximized="1"
     inkscape:current-layer="svg5"
     showguides="true" />
  <defs
     id="defs2">
    <style
       id="current-color-scheme"
       type="text/css">
         .ColorScheme-Text { color:#232629; }
         .ColorScheme-Highlight { color:#3daee9; }
     </style>
  </defs>
  <path
     id="path530"
     style="fill:currentColor;fill-opacity:1;stroke-width:0.750005;stroke-linecap:round;stroke-linejoin:round"
     class="ColorScheme-Highlight"
     d="M 10,2 C 3.174114,2 2,3.2048695 2,10 v 4 c 0,6.79513 1.174114,8 8,8 h 4 c 6.825886,0 8,-1.20487 8,-8 V 10 C 22,3.2048695 20.825886,2 14,2 Z"
     sodipodi:nodetypes="sssssssss" />
  <path
     id="path494"
     style="display:inline;opacity:0.6;fill:currentColor;fill-opacity:1;stroke-width:0.310314;enable-background:new"
     d="M 9.8339844,5 8.5957031,6.4003906 8.1074219,6.2011719 C 7.5777984,5.9855546 6.9371357,6.070445 6.5175781,6.4121094 L 5.5,7.5195312 6.1875,8.359375 5.5,9.4804692 7.484375,15.771484 c 0.2716807,0.638384 0.8183311,1.17265 1.5371094,1.50586 L 12,19 14.978516,17.277344 c 0.718781,-0.33321 1.265429,-0.867476 1.537109,-1.50586 L 18.5,9.4804692 17.8125,8.359375 18.5,7.5195312 17.482422,6.4121094 C 17.062863,6.070508 16.422203,5.9855546 15.892578,6.2011719 L 15.404297,6.4003906 14.166016,5 Z M 12,6.671875 c 0.357656,0 0.715313,0.0776 1.035156,0.234375 0.440198,0.2127819 0.962727,0.2882211 1.464844,0.2070312 l 0.9375,-0.1542968 1.279297,1.7402344 c 0.261359,0.2995964 0.258705,0.7001514 -0.01367,0.9941404 h 0.002 l -1.609375,1.7460938 0.195313,0.238281 c 0.141075,0.170808 0.210937,0.370413 0.210937,0.566407 0,0.218387 -0.08356,0.434078 -0.251953,0.613281 -0.178836,0.195994 -0.443245,0.352921 -0.701172,0.445312 -0.175402,0.06441 -0.348753,0.09766 -0.486328,0.09766 -0.309508,0 -0.899213,-0.454796 -1.71875,-0.933594 v -0.308594 l 1.552734,-0.757812 c 0.126944,-0.06191 0.190174,-0.183176 0.158204,-0.300782 l -0.5,-1.8378898 c 0.0598,-0.113718 0.151034,-0.209889 0.289013,-0.271488 L 15.783203,8.359375 14.751953,8.0800781 H 14.0625 l -0.0039,0.00391 c -0.03435,4.812e-4 -0.06885,0.00138 -0.103516,0.011719 L 12.921875,8.375 C 12.754739,8.42036 12.657149,8.5631382 12.695312,8.703125 L 13.330078,11.025391 12,11.673828 10.669922,11.025391 11.304688,8.7011719 C 11.342877,8.5611544 11.243312,8.4206431 11.076172,8.375 l -1.03125,-0.2792969 c -0.03483,-0.00945 -0.06886,-0.011719 -0.1035158,-0.011719 l -0.00586,-0.00391 h -0.6875 L 8.2167969,8.359375 10.15625,8.9902342 c 0.137863,0.06159 0.229231,0.155864 0.289063,0.269531 L 9.9453125,11.099609 c -0.03194,0.117651 0.031256,0.238901 0.1582035,0.300782 l 1.552734,0.757812 v 0.314453 c -0.841539,0.488327 -1.416699,0.927735 -1.7207031,0.927735 -0.1375409,0 -0.3089902,-0.03325 -0.484375,-0.09766 C 9.1932281,13.210264 8.9288198,13.053431 8.75,12.857422 8.4301383,12.513015 8.4131997,12.038929 8.7089844,11.677734 L 8.9042969,11.439453 7.2949219,9.6933592 C 7.0232421,9.3993692 7.0205753,8.9988312 7.28125,8.6992188 l 1.2792969,-1.7402344 0.9375,0.1542968 c 0.1306388,0.022527 0.2662667,0.03125 0.4003906,0.03125 0.3714265,0 0.7431275,-0.081417 1.0664065,-0.2382812 C 11.284672,6.7493793 11.642327,6.671875 12,6.671875 Z m 0,6.447266 c 0.343919,0 2.0625,0.841796 2.0625,0.841797 L 12,15.640625 9.9375,13.960938 c 0,0 1.718581,-0.841797 2.0625,-0.841797 z"
     class="ColorScheme-Text" />
</svg>
