<?xml version="1.0" encoding="UTF-8" standalone="no"?>
<!-- Created with Inkscape (http://www.inkscape.org/) -->

<svg
   width="24"
   height="24"
   viewBox="0 0 24 24"
   version="1.1"
   id="svg5"
   inkscape:version="1.2.2 (1:1.2.2+202305151914+b0a8486541)"
   sodipodi:docname="office-address-book.svg"
   xmlns:inkscape="http://www.inkscape.org/namespaces/inkscape"
   xmlns:sodipodi="http://sodipodi.sourceforge.net/DTD/sodipodi-0.dtd"
   xmlns="http://www.w3.org/2000/svg"
   xmlns:svg="http://www.w3.org/2000/svg">
  <sodipodi:namedview
     id="namedview7"
     pagecolor="#ffffff"
     bordercolor="#000000"
     borderopacity="0.25"
     inkscape:showpageshadow="2"
     inkscape:pageopacity="0.0"
     inkscape:pagecheckerboard="0"
     inkscape:deskcolor="#d1d1d1"
     inkscape:document-units="px"
     showgrid="false"
     inkscape:zoom="33.583333"
     inkscape:cx="11.985112"
     inkscape:cy="12"
     inkscape:window-width="1920"
     inkscape:window-height="1008"
     inkscape:window-x="0"
     inkscape:window-y="0"
     inkscape:window-maximized="1"
     inkscape:current-layer="svg5"
     showguides="true" />
  <defs
     id="defs2">
    <style
       id="current-color-scheme"
       type="text/css">
         .ColorScheme-Text { color:#232629; }
         .ColorScheme-Highlight { color:#3daee9; }
     </style>
  </defs>
  <path
     id="path530"
     style="fill:currentColor;fill-opacity:1;stroke-width:0.750005;stroke-linecap:round;stroke-linejoin:round"
     class="ColorScheme-Highlight"
     d="M 10,2 C 3.174114,2 2,3.2048695 2,10 v 4 c 0,6.79513 1.174114,8 8,8 h 4 c 6.825886,0 8,-1.20487 8,-8 V 10 C 22,3.2048695 20.825886,2 14,2 Z"
     sodipodi:nodetypes="sssssssss" />
  <path
     id="rect396"
     style="opacity:0.3;fill:currentColor;stroke-width:1.36931"
     d="M 9.9902344,13.261719 C 6.674196,15.362939 5,16.62393 5,18 v 0.5 C 5,19.330993 5.6690068,20 6.5,20 h 11 C 18.330993,20 19,19.330993 19,18.5 V 18 C 19,16.62393 17.325804,15.362939 14.009766,13.261719 13.419121,13.722251 12.732787,14 12,14 11.267213,14 10.580879,13.722251 9.9902344,13.261719 Z"
     class="ColorScheme-Text" />
  <path
     id="path234"
     style="opacity:0.6;fill:currentColor;stroke-width:1.06067"
     d="M 16,8.9999999 C 16,11.485281 14.209138,14 12,14 9.790861,14 7.9999999,11.485281 7.9999999,8.9999999 7.9999999,6.5147182 9.790861,5 12,5 c 2.209138,0 4,1.5147172 4,3.9999999 z"
     sodipodi:nodetypes="sssss"
     class="ColorScheme-Text" />
</svg>
