<?xml version="1.0" encoding="UTF-8" standalone="no"?>
<!-- Created with Inkscape (http://www.inkscape.org/) -->

<svg
   width="24"
   height="24"
   viewBox="0 0 24 24"
   version="1.1"
   id="svg5"
   inkscape:version="1.2.2 (1:1.2.2+202305151914+b0a8486541)"
   sodipodi:docname="preferences-desktop-wallpaper.svg"
   xmlns:inkscape="http://www.inkscape.org/namespaces/inkscape"
   xmlns:sodipodi="http://sodipodi.sourceforge.net/DTD/sodipodi-0.dtd"
   xmlns="http://www.w3.org/2000/svg"
   xmlns:svg="http://www.w3.org/2000/svg">
  <sodipodi:namedview
     id="namedview7"
     pagecolor="#ffffff"
     bordercolor="#000000"
     borderopacity="0.25"
     inkscape:showpageshadow="2"
     inkscape:pageopacity="0.0"
     inkscape:pagecheckerboard="0"
     inkscape:deskcolor="#d1d1d1"
     inkscape:document-units="px"
     showgrid="false"
     inkscape:zoom="33.583333"
     inkscape:cx="11.985112"
     inkscape:cy="12"
     inkscape:window-width="1920"
     inkscape:window-height="1008"
     inkscape:window-x="0"
     inkscape:window-y="0"
     inkscape:window-maximized="1"
     inkscape:current-layer="svg5"
     showguides="true" />
  <defs
     id="defs2">
    <style
       id="current-color-scheme"
       type="text/css">
         .ColorScheme-Text { color:#232629; }
         .ColorScheme-Highlight { color:#3daee9; }
     </style>
  </defs>
  <path
     id="path530"
     style="fill:currentColor;fill-opacity:1;stroke-width:0.750005;stroke-linecap:round;stroke-linejoin:round"
     class="ColorScheme-Highlight"
     d="M 10,2 C 3.174114,2 2,3.2048695 2,10 v 4 c 0,6.79513 1.174114,8 8,8 h 4 c 6.825886,0 8,-1.20487 8,-8 V 10 C 22,3.2048695 20.825886,2 14,2 Z"
     sodipodi:nodetypes="sssssssss" />
  <path
     id="path1600"
     style="opacity:0.6;fill:currentColor;stroke-width:0.111611;stroke-linecap:round;stroke-linejoin:round"
     d="M 8 6 A 2 2 0 0 0 6 8 A 2 2 0 0 0 8 10 A 2 2 0 0 0 10 8 A 2 2 0 0 0 8 6 z M 14.082031 11.976562 C 13.823785 11.975709 13.564523 12.059274 13.402344 12.232422 L 10.580078 15.244141 L 9.2519531 13.732422 C 8.9490414 13.387544 8.2224834 13.382222 7.9023438 13.732422 L 4 18 L 8 18 L 13 18 L 20 18 L 14.751953 12.232422 C 14.597473 12.062687 14.340277 11.977416 14.082031 11.976562 z "
     class="ColorScheme-Text" />
</svg>
