<?xml version="1.0" encoding="UTF-8" standalone="no"?>
<!-- Created with Inkscape (http://www.inkscape.org/) -->

<svg
   width="24"
   height="24"
   viewBox="0 0 24 24"
   version="1.1"
   id="svg5"
   inkscape:version="1.2.2 (1:1.2.2+202305151914+b0a8486541)"
   sodipodi:docname="preferences-desktop-activities.svg"
   xmlns:inkscape="http://www.inkscape.org/namespaces/inkscape"
   xmlns:sodipodi="http://sodipodi.sourceforge.net/DTD/sodipodi-0.dtd"
   xmlns="http://www.w3.org/2000/svg"
   xmlns:svg="http://www.w3.org/2000/svg">
  <sodipodi:namedview
     id="namedview7"
     pagecolor="#ffffff"
     bordercolor="#000000"
     borderopacity="0.25"
     inkscape:showpageshadow="2"
     inkscape:pageopacity="0.0"
     inkscape:pagecheckerboard="0"
     inkscape:deskcolor="#d1d1d1"
     inkscape:document-units="px"
     showgrid="false"
     inkscape:zoom="33.583333"
     inkscape:cx="11.985112"
     inkscape:cy="12"
     inkscape:window-width="1920"
     inkscape:window-height="1008"
     inkscape:window-x="0"
     inkscape:window-y="0"
     inkscape:window-maximized="1"
     inkscape:current-layer="svg5"
     showguides="true" />
  <defs
     id="defs2">
    <style
       id="current-color-scheme"
       type="text/css">
         .ColorScheme-Text { color:#232629; }
         .ColorScheme-Highlight { color:#3daee9; }
     </style>
  </defs>
  <path
     id="path530"
     style="fill:currentColor;fill-opacity:1;stroke-width:0.750005;stroke-linecap:round;stroke-linejoin:round"
     class="ColorScheme-Highlight"
     d="M 10,2 C 3.174114,2 2,3.2048695 2,10 v 4 c 0,6.79513 1.174114,8 8,8 h 4 c 6.825886,0 8,-1.20487 8,-8 V 10 C 22,3.2048695 20.825886,2 14,2 Z"
     sodipodi:nodetypes="sssssssss" />
  <path
     id="rect686"
     style="opacity:0.6;fill:currentColor;fill-opacity:1;stroke-width:1.57143;stroke-linecap:round;stroke-linejoin:round"
     d="m 3.0000001,11 c 0,0.553998 0.4460016,1 1,1 H 20 c 0.553998,0 1,-0.446002 1,-1 V 8.9999998 C 21,4.3941869 19.691972,3 15,3 H 9.0000001 c -4.6919722,0 -6,1.3941869 -6,5.9999998 z"
     sodipodi:nodetypes="sccssccss"
     class="ColorScheme-Text" />
  <path
     d="m 3,14 c 0,-0.553998 0.4460016,-1 1,-1 h 16 c 0.553998,0 1,0.446002 1,1 v 1.000001 C 21,19.605813 19.691972,21 15,21 H 9 C 4.3080278,21 3,19.605813 3,15.000001 Z"
     style="opacity:0.3;fill:currentColor;fill-opacity:1;stroke-width:1.57143;stroke-linecap:round;stroke-linejoin:round"
     id="path1343"
     sodipodi:nodetypes="sssssssss"
     class="ColorScheme-Text" />
</svg>
