<?xml version="1.0" encoding="UTF-8" standalone="no"?>
<!-- Created with Inkscape (http://www.inkscape.org/) -->

<svg
   width="24"
   height="24"
   viewBox="0 0 24 24"
   version="1.1"
   id="svg5"
   inkscape:version="1.2.2 (1:1.2.2+202305151914+b0a8486541)"
   sodipodi:docname="preferences-system-hotcorners.svg"
   xmlns:inkscape="http://www.inkscape.org/namespaces/inkscape"
   xmlns:sodipodi="http://sodipodi.sourceforge.net/DTD/sodipodi-0.dtd"
   xmlns="http://www.w3.org/2000/svg"
   xmlns:svg="http://www.w3.org/2000/svg">
  <sodipodi:namedview
     id="namedview7"
     pagecolor="#ffffff"
     bordercolor="#000000"
     borderopacity="0.25"
     inkscape:showpageshadow="2"
     inkscape:pageopacity="0.0"
     inkscape:pagecheckerboard="0"
     inkscape:deskcolor="#d1d1d1"
     inkscape:document-units="px"
     showgrid="false"
     inkscape:zoom="33.583333"
     inkscape:cx="11.985112"
     inkscape:cy="12"
     inkscape:window-width="1920"
     inkscape:window-height="1008"
     inkscape:window-x="0"
     inkscape:window-y="0"
     inkscape:window-maximized="1"
     inkscape:current-layer="svg5"
     showguides="true" />
  <defs
     id="defs2">
    <style
       id="current-color-scheme"
       type="text/css">
         .ColorScheme-Text { color:#232629; }
         .ColorScheme-Highlight { color:#3daee9; }
     </style>
  </defs>
  <path
     id="path530"
     style="fill:currentColor;fill-opacity:1;stroke-width:0.750005;stroke-linecap:round;stroke-linejoin:round"
     d="M 9.9999995,2 C 3.174114,2 2,3.2048695 2,10 v 4 c 0,6.79513 1.174114,8 7.9999995,8 H 14 c 6.825886,0 8,-1.20487 8,-8 V 10 C 22,3.2048695 20.825886,2 14,2 Z"
     sodipodi:nodetypes="sssssssss"
     class="ColorScheme-Highlight" />
  <path
     id="path501"
     style="opacity:0.4;fill:currentColor;stroke-width:4.66667;stroke-linecap:round;stroke-linejoin:round"
     d="M 9.0003281,2.014 C 3.3894259,2.1355977 2.1336069,3.4139505 2.014,9.0003281 A 7,7 0 0 0 9.0003281,2.014 Z"
     class="ColorScheme-Text" />
  <path
     id="path503"
     style="opacity:0.2;fill:currentColor;stroke-width:2.33333;stroke-linecap:round;stroke-linejoin:round"
     d="m 21.986656,15.000328 a 7,7 0 0 0 -6.986328,6.986328 c 5.610902,-0.121598 6.866721,-1.399951 6.986328,-6.986328 z"
     class="ColorScheme-Text" />
</svg>
