<?xml version="1.0" encoding="UTF-8" standalone="no"?>
<!-- Created with Inkscape (http://www.inkscape.org/) -->

<svg
   width="24"
   height="24"
   viewBox="0 0 24 24"
   version="1.1"
   id="svg5"
   inkscape:version="1.2.2 (1:1.2.2+202305151914+b0a8486541)"
   sodipodi:docname="preferences-system-windows.svg"
   xmlns:inkscape="http://www.inkscape.org/namespaces/inkscape"
   xmlns:sodipodi="http://sodipodi.sourceforge.net/DTD/sodipodi-0.dtd"
   xmlns="http://www.w3.org/2000/svg"
   xmlns:svg="http://www.w3.org/2000/svg">
  <sodipodi:namedview
     id="namedview7"
     pagecolor="#ffffff"
     bordercolor="#000000"
     borderopacity="0.25"
     inkscape:showpageshadow="2"
     inkscape:pageopacity="0.0"
     inkscape:pagecheckerboard="0"
     inkscape:deskcolor="#d1d1d1"
     inkscape:document-units="px"
     showgrid="false"
     inkscape:zoom="33.583333"
     inkscape:cx="11.985112"
     inkscape:cy="12"
     inkscape:window-width="1920"
     inkscape:window-height="1008"
     inkscape:window-x="0"
     inkscape:window-y="0"
     inkscape:window-maximized="1"
     inkscape:current-layer="svg5"
     showguides="true" />
  <defs
     id="defs2">
    <style
       id="current-color-scheme"
       type="text/css">
         .ColorScheme-Text { color:#232629; }
         .ColorScheme-Highlight { color:#3daee9; }
     </style>
  </defs>
  <path
     id="path530"
     style="fill:currentColor;fill-opacity:1;stroke-width:0.750005;stroke-linecap:round;stroke-linejoin:round"
     class="ColorScheme-Highlight"
     d="M 10,2 C 3.174114,2 2,3.2048695 2,10 v 4 c 0,6.79513 1.174114,8 8,8 h 4 c 6.825886,0 8,-1.20487 8,-8 V 10 C 22,3.2048695 20.825886,2 14,2 Z"
     sodipodi:nodetypes="sssssssss" />
  <g
     id="g3394"
     style="opacity:0.6;fill:currentColor"
     class="ColorScheme-Text"
     transform="translate(1,1)">
    <path
       id="rect598"
       style="opacity:0.8;fill-opacity:1;stroke-width:2.25;stroke-linecap:round;stroke-linejoin:round"
       d="m 4,7 v 5 c 0,0.553998 0.4460012,1 1,1 H 7 V 9.9999998 C 7,8.8920011 7.8920011,8 9,8 h 5 V 7 Z" />
    <path
       id="rect1268"
       style="opacity:0.4;fill-opacity:1;stroke-width:3;stroke-linecap:round;stroke-linejoin:round"
       d="m 5,5 h 8 c 0.554,0 1,0.446 1,0.9999995 V 7 H 4 V 5.9999995 C 4,5.446 4.446,5 5,5 Z"
       sodipodi:nodetypes="sssccss" />
    <path
       id="rect652"
       style="fill-opacity:1;stroke-width:2.25;stroke-linecap:round;stroke-linejoin:round"
       d="m 8,11 v 5 c 0,0.553999 0.4460006,1 1,1 h 8 c 0.553999,0 1,-0.446001 1,-1 v -5 z" />
    <path
       d="m 9,8.999999 h 8 c 0.554,0 1,0.4459988 1,0.9999988 V 11 H 8 V 9.9999978 C 8,9.4459978 8.446,8.999998 9,8.999999 Z"
       style="opacity:0.5;fill-opacity:1;stroke-width:3;stroke-linecap:round;stroke-linejoin:round"
       id="path2537"
       sodipodi:nodetypes="cssccsc" />
  </g>
</svg>
