<?xml version="1.0" encoding="UTF-8" standalone="no"?>
<!-- Created with Inkscape (http://www.inkscape.org/) -->

<svg
   width="24"
   height="24"
   viewBox="0 0 24 24"
   version="1.1"
   id="svg5"
   inkscape:version="1.2.2 (1:1.2.2+202305151914+b0a8486541)"
   sodipodi:docname="utilities-log-viewer.svg"
   xmlns:inkscape="http://www.inkscape.org/namespaces/inkscape"
   xmlns:sodipodi="http://sodipodi.sourceforge.net/DTD/sodipodi-0.dtd"
   xmlns="http://www.w3.org/2000/svg"
   xmlns:svg="http://www.w3.org/2000/svg">
  <sodipodi:namedview
     id="namedview7"
     pagecolor="#ffffff"
     bordercolor="#000000"
     borderopacity="0.25"
     inkscape:showpageshadow="2"
     inkscape:pageopacity="0.0"
     inkscape:pagecheckerboard="0"
     inkscape:deskcolor="#d1d1d1"
     inkscape:document-units="px"
     showgrid="false"
     inkscape:zoom="33.583333"
     inkscape:cx="11.985112"
     inkscape:cy="12"
     inkscape:window-width="1920"
     inkscape:window-height="1008"
     inkscape:window-x="0"
     inkscape:window-y="0"
     inkscape:window-maximized="1"
     inkscape:current-layer="svg5"
     showguides="true" />
  <defs
     id="defs2">
    <style
       id="current-color-scheme"
       type="text/css">
         .ColorScheme-Text { color:#232629; }
         .ColorScheme-Highlight { color:#3daee9; }
     </style>
  </defs>
  <path
     id="path530"
     style="fill:currentColor;fill-opacity:1;stroke-width:0.750005;stroke-linecap:round;stroke-linejoin:round"
     class="ColorScheme-Highlight"
     d="M 10,2 C 3.174114,2 2,3.2048695 2,10 v 4 c 0,6.79513 1.174114,8 8,8 h 4 c 6.825886,0 8,-1.20487 8,-8 V 10 C 22,3.2048695 20.825886,2 14,2 Z"
     sodipodi:nodetypes="sssssssss" />
  <g
     id="g944"
     class="ColorScheme-Text"
     style="opacity:0.6;fill:currentColor"
     transform="translate(1,1)">
    <path
       d="M 4,6 V 7 H 18 V 6 Z m 0,4 v 1 h 14 v -1 z m 0,4 v 1 h 9 v -1 z"
       style="opacity:0.5;stroke-linecap:round"
       id="path1024" />
    <path
       id="path914"
       style="stroke-width:2;stroke-linecap:round;stroke-linejoin:round"
       d="M 12.5,8 C 10.567003,8 9,9.567003 9,11.5 c 0,1.932997 1.567003,3.5 3.5,3.5 0.754175,-0.0031 1.487178,-0.249711 2.089844,-0.703125 l 2.21264,2.212641 c 0.195869,0.195868 0.511163,0.195868 0.707032,0 0.195868,-0.195869 0.195868,-0.511163 0,-0.707032 l -2.212641,-2.21264 C 15.750289,12.987178 15.996907,12.254175 16,11.5 16,9.567003 14.432997,8 12.5,8 Z m 0,1 C 13.880712,9 15,10.119288 15,11.5 15,12.880712 13.880712,14 12.5,14 11.119288,14 10,12.880712 10,11.5 10,10.119288 11.119288,9 12.5,9 Z"
       sodipodi:nodetypes="sscccscccssssss" />
  </g>
</svg>
