<?xml version="1.0" encoding="UTF-8" standalone="no"?>
<!-- Created with Inkscape (http://www.inkscape.org/) -->

<svg
   width="22"
   height="22"
   viewBox="0 0 22 22"
   version="1.1"
   id="svg5"
   inkscape:version="1.2.1 (9c6d41e410, 2022-07-14)"
   sodipodi:docname="folder-green-template.svg"
   xmlns:inkscape="http://www.inkscape.org/namespaces/inkscape"
   xmlns:sodipodi="http://sodipodi.sourceforge.net/DTD/sodipodi-0.dtd"
   xmlns:xlink="http://www.w3.org/1999/xlink"
   xmlns="http://www.w3.org/2000/svg"
   xmlns:svg="http://www.w3.org/2000/svg">
  <sodipodi:namedview
     id="namedview7"
     pagecolor="#ffffff"
     bordercolor="#000000"
     borderopacity="0.25"
     inkscape:showpageshadow="2"
     inkscape:pageopacity="0.0"
     inkscape:pagecheckerboard="0"
     inkscape:deskcolor="#d1d1d1"
     inkscape:document-units="px"
     showgrid="false"
     inkscape:zoom="23.334524"
     inkscape:cx="9.2352431"
     inkscape:cy="12.213663"
     inkscape:window-width="1920"
     inkscape:window-height="1004"
     inkscape:window-x="0"
     inkscape:window-y="0"
     inkscape:window-maximized="1"
     inkscape:current-layer="svg5" />
  <defs
     id="defs2">
    <linearGradient
       inkscape:collect="always"
       id="linearGradient3155">
      <stop
         style="stop-color:#60a53e;stop-opacity:1;"
         offset="0"
         id="stop3151" />
      <stop
         style="stop-color:#49883d;stop-opacity:1;"
         offset="1"
         id="stop3153" />
    </linearGradient>
    <linearGradient
       inkscape:collect="always"
       id="linearGradient3147">
      <stop
         style="stop-color:#38b053;stop-opacity:1;"
         offset="0"
         id="stop3143" />
      <stop
         style="stop-color:#6ec555;stop-opacity:1;"
         offset="1"
         id="stop3145" />
    </linearGradient>
    <linearGradient
       inkscape:collect="always"
       xlink:href="#linearGradient3147"
       id="linearGradient3149"
       x1="76"
       y1="81"
       x2="36"
       y2="13"
       gradientUnits="userSpaceOnUse"
       gradientTransform="matrix(0.25,0,0,0.25,2,0.75)" />
    <linearGradient
       inkscape:collect="always"
       xlink:href="#linearGradient3155"
       id="linearGradient3157"
       x1="22"
       y1="7"
       x2="22"
       y2="35"
       gradientUnits="userSpaceOnUse"
       gradientTransform="matrix(0.25,0,0,0.25,-1,-0.75)" />
  </defs>
  <path
     d="M 1,2 C 0.4460005,2 0,2.4460005 0,3 v 18 c 0,0.554 0.4460005,1 1,1 h 20 c 0.554,0 1,-0.446 1,-1 V 6 C 22,5.4460005 21.554,5 21,5 H 11 L 9,2.5 C 8.6603625,2.169952 8.5539995,2 8,2 Z"
     style="opacity:0.3;fill:#000000;stroke-width:0.5"
     id="path1016"
     sodipodi:nodetypes="ssssssssccss" />
  <path
     id="rect184"
     style="fill:url(#linearGradient3157);fill-opacity:1;stroke-width:0.5"
     d="M 1,1 C 0.4460006,1 0,1.4460004 0,2 v 16 c 0,0.554 0.4460006,1 1,1 h 20 c 0.554,0 1,-0.446 1,-1 V 5 C 22,4.4460005 21.554,4 21,4 H 11 L 9,1.5 C 8.655655,1.1853323 8.554,1 8,1 Z"
     sodipodi:nodetypes="sccsssssccss" />
  <path
     id="rect1043"
     style="fill:url(#linearGradient3149);fill-opacity:1;stroke-width:0.5"
     d="M 11,4 9,6.5 C 8.666597,6.806988 8.553999,7 8,7 H 1 C 0.4477158,7 0,7.4477155 0,8 v 12 c 0,0.553998 0.4460017,1 1,1 h 20 c 0.553999,0 1,-0.446002 1,-1 V 5 C 22,4.4460015 21.553999,4 21,4 Z"
     sodipodi:nodetypes="ccsssssssssc" />
  <path
     id="path3081"
     style="opacity:0.2;fill:#ffffff;stroke-width:0.5"
     d="M 11,4 9,6.5 C 8.666598,6.806988 8.553999,7 8,7 H 1 C 0.4477164,7 0,7.447716 0,8 V 9 C 0,8.447716 0.4477164,8 1,8 H 8 C 8.553999,8 8.666597,7.8069875 9,7.5 L 11,5 h 10 c 0.553998,0 1,0.446002 1,1 V 5 C 22,4.446002 21.553998,4 21,4 Z"
     sodipodi:nodetypes="ccssscssccscssc" />
  <path
     id="path1011"
     style="color:#000000;opacity:0.6;fill:#ffffff;fill-opacity:1;stroke:none;stroke-width:7.1424;stroke-linejoin:round;-inkscape-stroke:none"
     d="m 15.498191,10.000003 c -0.100914,-2.99e-4 -0.20124,0.03003 -0.287109,0.08984 l -8.9998066,6.001952 c -0.395539,0.280388 -0.195752,0.903371 0.289062,0.908203 h 8.9998066 c 0.274788,-9.5e-4 0.499028,-0.225214 0.5,-0.5 V 10.5 C 15.999851,10.313698 15.892018,10.142559 15.726707,10.05664 15.654517,10.01906 15.576671,10.00023 15.498191,10 Z m -0.498047,1.5 v 4.5 H 8.2503372 Z"
     sodipodi:nodetypes="ccccccccsccccc" />
</svg>
