<?xml version="1.0" encoding="UTF-8" standalone="no"?>
<!-- Created with Inkscape (http://www.inkscape.org/) -->

<svg
   width="22"
   height="22"
   viewBox="0 0 22 22"
   version="1.1"
   id="svg5"
   inkscape:version="1.2.1 (9c6d41e410, 2022-07-14)"
   sodipodi:docname="user-yellow-home.svg"
   xmlns:inkscape="http://www.inkscape.org/namespaces/inkscape"
   xmlns:sodipodi="http://sodipodi.sourceforge.net/DTD/sodipodi-0.dtd"
   xmlns:xlink="http://www.w3.org/1999/xlink"
   xmlns="http://www.w3.org/2000/svg"
   xmlns:svg="http://www.w3.org/2000/svg">
  <sodipodi:namedview
     id="namedview7"
     pagecolor="#ffffff"
     bordercolor="#000000"
     borderopacity="0.25"
     inkscape:showpageshadow="2"
     inkscape:pageopacity="0.0"
     inkscape:pagecheckerboard="0"
     inkscape:deskcolor="#d1d1d1"
     inkscape:document-units="px"
     showgrid="false"
     inkscape:zoom="23.334524"
     inkscape:cx="11.335136"
     inkscape:cy="13.027907"
     inkscape:window-width="1920"
     inkscape:window-height="1004"
     inkscape:window-x="0"
     inkscape:window-y="0"
     inkscape:window-maximized="1"
     inkscape:current-layer="svg5" />
  <defs
     id="defs2">
    <linearGradient
       inkscape:collect="always"
       id="linearGradient3155">
      <stop
         style="stop-color:#e7b64b;stop-opacity:1;"
         offset="0"
         id="stop3151" />
      <stop
         style="stop-color:#be8d1b;stop-opacity:1;"
         offset="1"
         id="stop3153" />
    </linearGradient>
    <linearGradient
       inkscape:collect="always"
       id="linearGradient3147">
      <stop
         style="stop-color:#ffb327;stop-opacity:1;"
         offset="0"
         id="stop3143" />
      <stop
         style="stop-color:#f0c462;stop-opacity:1;"
         offset="1"
         id="stop3145" />
    </linearGradient>
    <linearGradient
       inkscape:collect="always"
       xlink:href="#linearGradient3147"
       id="linearGradient3149"
       x1="76"
       y1="81"
       x2="36"
       y2="13"
       gradientUnits="userSpaceOnUse"
       gradientTransform="matrix(0.25,0,0,0.25,2,0.75)" />
    <linearGradient
       inkscape:collect="always"
       xlink:href="#linearGradient3155"
       id="linearGradient3157"
       x1="22"
       y1="7"
       x2="22"
       y2="35"
       gradientUnits="userSpaceOnUse"
       gradientTransform="matrix(0.25,0,0,0.25,-1,-0.75)" />
  </defs>
  <path
     d="M 1,2 C 0.4460005,2 0,2.4460005 0,3 v 18 c 0,0.554 0.4460005,1 1,1 h 20 c 0.554,0 1,-0.446 1,-1 V 6 C 22,5.4460005 21.554,5 21,5 H 11 L 9,2.5 C 8.6603625,2.169952 8.5539995,2 8,2 Z"
     style="opacity:0.3;fill:#000000;stroke-width:0.5"
     id="path1016"
     sodipodi:nodetypes="ssssssssccss" />
  <path
     id="rect184"
     style="fill:url(#linearGradient3157);fill-opacity:1;stroke-width:0.5"
     d="M 1,1 C 0.4460006,1 0,1.4460004 0,2 v 16 c 0,0.554 0.4460006,1 1,1 h 20 c 0.554,0 1,-0.446 1,-1 V 5 C 22,4.4460005 21.554,4 21,4 H 11 L 9,1.5 C 8.655655,1.1853323 8.554,1 8,1 Z"
     sodipodi:nodetypes="sccsssssccss" />
  <path
     id="rect1043"
     style="fill:url(#linearGradient3149);fill-opacity:1;stroke-width:0.5"
     d="M 11,4 9,6.5 C 8.666597,6.806988 8.553999,7 8,7 H 1 C 0.4477158,7 0,7.4477155 0,8 v 12 c 0,0.553998 0.4460017,1 1,1 h 20 c 0.553999,0 1,-0.446002 1,-1 V 5 C 22,4.4460015 21.553999,4 21,4 Z"
     sodipodi:nodetypes="ccsssssssssc" />
  <path
     id="path3081"
     style="opacity:0.2;fill:#ffffff;stroke-width:0.5"
     d="M 11,4 9,6.5 C 8.666598,6.806988 8.553999,7 8,7 H 1 C 0.4477164,7 0,7.447716 0,8 V 9 C 0,8.447716 0.4477164,8 1,8 H 8 C 8.553999,8 8.666597,7.8069875 9,7.5 L 11,5 h 10 c 0.553998,0 1,0.446002 1,1 V 5 C 22,4.446002 21.553998,4 21,4 Z"
     sodipodi:nodetypes="ccssscssccscssc" />
  <path
     id="path463"
     style="color:#000000;font-style:normal;font-variant:normal;font-weight:normal;font-stretch:normal;font-size:medium;line-height:normal;font-family:sans-serif;font-variant-ligatures:normal;font-variant-position:normal;font-variant-caps:normal;font-variant-numeric:normal;font-variant-alternates:normal;font-variant-east-asian:normal;font-feature-settings:normal;font-variation-settings:normal;text-indent:0;text-align:start;text-decoration:none;text-decoration-line:none;text-decoration-style:solid;text-decoration-color:#000000;letter-spacing:normal;word-spacing:normal;text-transform:none;writing-mode:lr-tb;direction:ltr;text-orientation:mixed;dominant-baseline:auto;baseline-shift:baseline;text-anchor:start;white-space:normal;shape-padding:0;shape-margin:0;inline-size:0;clip-rule:nonzero;display:inline;overflow:visible;visibility:visible;opacity:0.3;isolation:auto;mix-blend-mode:normal;color-interpolation:sRGB;color-interpolation-filters:linearRGB;solid-color:#000000;solid-opacity:1;fill:#000000;fill-opacity:1;fill-rule:nonzero;stroke:none;stroke-width:0.999999;stroke-linecap:butt;stroke-linejoin:miter;stroke-miterlimit:4;stroke-dasharray:none;stroke-dashoffset:0;stroke-opacity:1;color-rendering:auto;image-rendering:auto;shape-rendering:auto;text-rendering:auto;enable-background:new;stop-color:#000000"
     d="M 10.999515,9.293 5.646,14.646515 6.3530312,15.353547 6.9995156,14.707062 v 3.292969 a 1,1 0 0 0 1,1 h 5.9999994 a 1,1 0 0 0 1,-1 v -3.292969 l 0.646484,0.646485 0.707032,-0.707032 L 14.999515,13.293 v -3.292969 h -1 V 12.293 Z m 0,1.414062 3,3 v 4.292969 H 7.9995156 v -4.292969 z" />
</svg>
