<?xml version="1.0" encoding="UTF-8" standalone="no"?>
<svg
   width="16px"
   height="16px"
   version="1.1"
   viewBox="0 0 16 16"
   id="svg3"
   sodipodi:docname="package-x-generic-symbolic.svg"
   inkscape:version="1.4.2 (ebf0e940d0, 2025-05-08)"
   xmlns:inkscape="http://www.inkscape.org/namespaces/inkscape"
   xmlns:sodipodi="http://sodipodi.sourceforge.net/DTD/sodipodi-0.dtd"
   xmlns="http://www.w3.org/2000/svg"
   xmlns:svg="http://www.w3.org/2000/svg">
  <defs
      id="defs3">
      <style
          id="current-color-scheme"
          type="text/css">
          .ColorScheme-Text { color:#363636; }
          .ColorScheme-NeutralText { color:#f67400; }
          .ColorScheme-PositiveText { color:#37c837; }
          .ColorScheme-NegativeText { color:#f44336; }
          .ColorScheme-Highlight { color:#3daee9; }
      </style>
  </defs>
  <sodipodi:namedview
     id="namedview3"
     pagecolor="#ffffff"
     bordercolor="#000000"
     borderopacity="0.25"
     inkscape:showpageshadow="2"
     inkscape:pageopacity="0.0"
     inkscape:pagecheckerboard="0"
     inkscape:deskcolor="#d1d1d1"
     inkscape:zoom="49.75"
     inkscape:cx="7.9899497"
     inkscape:cy="8"
     inkscape:window-width="1920"
     inkscape:window-height="1011"
     inkscape:window-x="0"
     inkscape:window-y="0"
     inkscape:window-maximized="1"
     inkscape:current-layer="svg3" />
  <path
     id="path1"
     style="fill:currentColor"
     class="ColorScheme-Text"
     d="M 4.0273438 1 C 2.3502437 1 1 2.3502437 1 4.0273438 L 1 11.972656 C 1 13.649756 2.3502438 15 4.0273438 15 L 11.972656 15 C 13.649756 15 15 13.649756 15 11.972656 L 15 4.0273438 C 15 2.3502437 13.649756 1 11.972656 1 L 4.0273438 1 z M 4 2 L 12 2 C 13.108 2 14 2.892 14 4 L 14 12 C 14 13.108 13.108 14 12 14 L 4 14 C 2.892 14 2 13.108 2 12 L 2 4 C 2 2.892 2.892 2 4 2 z " />
  <path
     id="path2"
     style="fill:currentColor"
     class="ColorScheme-Text"
     d="M 4 1 C 2.338 1 1 2.338 1 4 C 1 5.662 2.338 7 4 7 L 12 7 C 13.662 7 15 5.662 15 4 C 15 2.338 13.662 1 12 1 L 4 1 z M 4 2 L 12 2 C 13.108 2 14 2.892 14 4 C 14 5.108 13.108 6 12 6 L 4 6 C 2.892 6 2 5.108 2 4 C 2 2.892 2.892 2 4 2 z " />
  <path
     id="path3"
     style="fill:currentColor;opacity:0.45"
     class="ColorScheme-Text"
     d="M 7 1 L 7 10 L 9 11 L 9 1 L 7 1 z " />
</svg>
