<?xml version="1.0" encoding="UTF-8" standalone="no"?>
<!-- Created with Inkscape (http://www.inkscape.org/) -->

<svg
   width="16"
   height="16"
   viewBox="0 0 16 16"
   version="1.1"
   id="svg5"
   sodipodi:docname="computer-symbolic.svg"
   inkscape:version="1.2.1 (9c6d41e410, 2022-07-14)"
   xmlns:inkscape="http://www.inkscape.org/namespaces/inkscape"
   xmlns:sodipodi="http://sodipodi.sourceforge.net/DTD/sodipodi-0.dtd"
   xmlns="http://www.w3.org/2000/svg"
   xmlns:svg="http://www.w3.org/2000/svg">
  <sodipodi:namedview
     id="namedview7"
     pagecolor="#ffffff"
     bordercolor="#666666"
     borderopacity="1.0"
     inkscape:showpageshadow="2"
     inkscape:pageopacity="0.0"
     inkscape:pagecheckerboard="0"
     inkscape:deskcolor="#d1d1d1"
     inkscape:document-units="px"
     showgrid="false"
     inkscape:zoom="50.25"
     inkscape:cx="8"
     inkscape:cy="8"
     inkscape:window-width="1920"
     inkscape:window-height="1011"
     inkscape:window-x="0"
     inkscape:window-y="32"
     inkscape:window-maximized="1"
     inkscape:current-layer="svg5" />
  <defs
     id="defs2" />
  <path
     id="path1017"
     style="fill:#f2f2f2;fill-opacity:1"
     d="M 3 2 C 1.8920033 2 1 2.8920033 1 4 L 1 10 C 1 11.107997 1.8920033 12 3 12 L 13 12 C 14.107997 12 15 11.107997 15 10 L 15 4 C 15 2.8920033 14.107997 2 13 2 L 3 2 z M 3 3 L 13 3 C 13.553997 3 14 3.4460018 14 4 L 14 10 C 14 10.553997 13.553997 11 13 11 L 3 11 C 2.4460018 11 2 10.553997 2 10 L 2 4 C 2 3.4460018 2.4460018 3 3 3 z M 4.5 13 C 4.2230003 13 4 13.223 4 13.5 C 4 13.777 4.2230003 14 4.5 14 L 11.5 14 C 11.777 14 12 13.777 12 13.5 C 12 13.223 11.777 13 11.5 13 L 4.5 13 z " />
</svg>
