<?xml version="1.0" encoding="UTF-8" standalone="no"?>
<!-- Created with Inkscape (http://www.inkscape.org/) -->

<svg
   width="16"
   height="16"
   viewBox="0 0 16 16"
   version="1.1"
   id="svg5"
   inkscape:version="1.2.1 (9c6d41e410, 2022-07-14)"
   sodipodi:docname="drive-harddisk-solidstate-symbolic.svg"
   xmlns:inkscape="http://www.inkscape.org/namespaces/inkscape"
   xmlns:sodipodi="http://sodipodi.sourceforge.net/DTD/sodipodi-0.dtd"
   xmlns="http://www.w3.org/2000/svg"
   xmlns:svg="http://www.w3.org/2000/svg">
  <sodipodi:namedview
     id="namedview7"
     pagecolor="#ffffff"
     bordercolor="#000000"
     borderopacity="0.25"
     inkscape:showpageshadow="2"
     inkscape:pageopacity="0.0"
     inkscape:pagecheckerboard="0"
     inkscape:deskcolor="#d1d1d1"
     inkscape:document-units="px"
     showgrid="false"
     showguides="true"
     inkscape:zoom="50.5"
     inkscape:cx="8"
     inkscape:cy="8"
     inkscape:window-width="1920"
     inkscape:window-height="1011"
     inkscape:window-x="0"
     inkscape:window-y="32"
     inkscape:window-maximized="1"
     inkscape:current-layer="svg5" />
  <defs
     id="defs2" />
  <path
     id="rect339"
     style="opacity:1;fill:#f2f2f2;stroke-linecap:square;stroke-linejoin:round;fill-opacity:1"
     d="M 4 0 C 2.8920022 0 2 0.89200222 2 2 L 2 14 C 2 15.107998 2.8920022 16 4 16 L 12 16 C 13.107998 16 14 15.107998 14 14 L 14 2 C 14 0.89200222 13.107998 0 12 0 L 4 0 z M 4 1 L 12 1 C 12.553998 1 13 1.4460012 13 2 L 13 14 C 13 14.553998 12.553998 15 12 15 L 4 15 C 3.4460012 15 3 14.553998 3 14 L 3 2 C 3 1.4460012 3.4460012 1 4 1 z M 5 12 A 1 1 0 0 0 4 13 A 1 1 0 0 0 5 14 A 1 1 0 0 0 6 13 A 1 1 0 0 0 5 12 z " />
</svg>
