<?xml version="1.0" encoding="UTF-8" standalone="no"?>
<!-- Created with Inkscape (http://www.inkscape.org/) -->

<svg
   width="16"
   height="16"
   viewBox="0 0 16 16"
   version="1.1"
   id="svg5"
   inkscape:version="1.2.1 (9c6d41e410, 2022-07-14)"
   sodipodi:docname="drive-harddisk-symbolic.svg"
   xmlns:inkscape="http://www.inkscape.org/namespaces/inkscape"
   xmlns:sodipodi="http://sodipodi.sourceforge.net/DTD/sodipodi-0.dtd"
   xmlns="http://www.w3.org/2000/svg"
   xmlns:svg="http://www.w3.org/2000/svg">
  <sodipodi:namedview
     id="namedview7"
     pagecolor="#ffffff"
     bordercolor="#000000"
     borderopacity="0.25"
     inkscape:showpageshadow="2"
     inkscape:pageopacity="0.0"
     inkscape:pagecheckerboard="0"
     inkscape:deskcolor="#d1d1d1"
     inkscape:document-units="px"
     showgrid="false"
     showguides="true"
     inkscape:zoom="50.25"
     inkscape:cx="8"
     inkscape:cy="8"
     inkscape:window-width="1920"
     inkscape:window-height="1011"
     inkscape:window-x="0"
     inkscape:window-y="32"
     inkscape:window-maximized="1"
     inkscape:current-layer="svg5" />
  <defs
     id="defs2" />
  <path
     id="rect4822"
     style="fill:#f2f2f2;stroke-width:0.25;stroke-linecap:round;stroke-linejoin:round;fill-opacity:1"
     d="m 4.4882812,3 c -0.5539982,0 -0.8284162,0.1262232 -1,0.5 L 1.140625,8.328125 C 1.0422248,8.6490515 1,8.7270083 1,9 v 3 c 0,0.553996 0.4460024,1 1,1 h 12 c 0.553996,0 1,-0.446004 1,-1 V 9 c 0,-0.050892 -0.0045,-0.09963 -0.01172,-0.1484375 H 15 l -0.01758,-0.037109 C 14.378425,7.5273214 12.488281,3.5 12.488281,3.5 c -0.141406,-0.3013923 -0.446,-0.5 -1,-0.5 z M 4.5,4 h 7 l 2,4 H 2.5 Z M 2,9 h 12 v 3 H 2 Z m 10,1 v 1 h 1 v -1 z" />
</svg>
