<?xml version="1.0" encoding="UTF-8" standalone="no"?>
<!-- Created with Inkscape (http://www.inkscape.org/) -->

<svg
   width="16"
   height="16"
   viewBox="0 0 16 16"
   version="1.1"
   id="svg5"
   sodipodi:docname="laptop-symbolic.svg"
   inkscape:version="1.2.1 (9c6d41e410, 2022-07-14)"
   xmlns:inkscape="http://www.inkscape.org/namespaces/inkscape"
   xmlns:sodipodi="http://sodipodi.sourceforge.net/DTD/sodipodi-0.dtd"
   xmlns="http://www.w3.org/2000/svg"
   xmlns:svg="http://www.w3.org/2000/svg">
  <sodipodi:namedview
     id="namedview7"
     pagecolor="#ffffff"
     bordercolor="#666666"
     borderopacity="1.0"
     inkscape:showpageshadow="2"
     inkscape:pageopacity="0.0"
     inkscape:pagecheckerboard="0"
     inkscape:deskcolor="#d1d1d1"
     inkscape:document-units="px"
     showgrid="false"
     inkscape:zoom="50.25"
     inkscape:cx="8"
     inkscape:cy="8"
     inkscape:window-width="1920"
     inkscape:window-height="1011"
     inkscape:window-x="0"
     inkscape:window-y="32"
     inkscape:window-maximized="1"
     inkscape:current-layer="svg5" />
  <defs
     id="defs2" />
  <path
     id="path1017"
     style="fill:#f2f2f2;fill-opacity:1"
     d="M 3,2 C 1.8920033,2 1,2.8920033 1,4 v 6 c 0,1.107997 0.8920033,2 2,2 h 10 c 1.107997,0 2,-0.892003 2,-2 V 4 C 15,2.8920033 14.107997,2 13,2 Z m 0,1 h 10 c 0.553997,0 1,0.4460018 1,1 v 6 c 0,0.553997 -0.446003,1 -1,1 H 3 C 2.4460018,11 2,10.553997 2,10 V 4 C 2,3.4460018 2.4460018,3 3,3 Z M 0.5,13 C 0.2230003,13 0,13.223 0,13.5 0,13.777 0.2230003,14 0.5,14 h 15 C 15.777,14 16,13.777 16,13.5 16,13.223 15.777,13 15.5,13 Z"
     sodipodi:nodetypes="sssssssssssssssssssssssss" />
</svg>
