<?xml version="1.0" encoding="UTF-8" standalone="no"?>
<!-- Created with Inkscape (http://www.inkscape.org/) -->

<svg
   width="128"
   height="128"
   viewBox="0 0 128 128"
   version="1.1"
   id="svg5"
   inkscape:version="1.2.1 (9c6d41e410, 2022-07-14)"
   sodipodi:docname="folder-yellow-music-open.svg"
   xmlns:inkscape="http://www.inkscape.org/namespaces/inkscape"
   xmlns:sodipodi="http://sodipodi.sourceforge.net/DTD/sodipodi-0.dtd"
   xmlns:xlink="http://www.w3.org/1999/xlink"
   xmlns="http://www.w3.org/2000/svg"
   xmlns:svg="http://www.w3.org/2000/svg">
  <sodipodi:namedview
     id="namedview7"
     pagecolor="#ffffff"
     bordercolor="#000000"
     borderopacity="0.25"
     inkscape:showpageshadow="2"
     inkscape:pageopacity="0.0"
     inkscape:pagecheckerboard="0"
     inkscape:deskcolor="#d1d1d1"
     inkscape:document-units="px"
     showgrid="false"
     inkscape:zoom="4.1340206"
     inkscape:cx="4.3541147"
     inkscape:cy="77.648379"
     inkscape:window-width="1920"
     inkscape:window-height="1004"
     inkscape:window-x="0"
     inkscape:window-y="0"
     inkscape:window-maximized="1"
     inkscape:current-layer="svg5" />
  <defs
     id="defs2">
    <linearGradient
       inkscape:collect="always"
       id="linearGradient3155">
      <stop
         style="stop-color:#e7b64b;stop-opacity:1;"
         offset="0"
         id="stop3151" />
      <stop
         style="stop-color:#be8d1b;stop-opacity:1;"
         offset="1"
         id="stop3153" />
    </linearGradient>
    <linearGradient
       inkscape:collect="always"
       xlink:href="#linearGradient3155"
       id="linearGradient3157"
       x1="16"
       y1="7"
       x2="16"
       y2="30.5"
       gradientUnits="userSpaceOnUse"
       gradientTransform="matrix(2,0,0,2,0,2)" />
    <linearGradient
       inkscape:collect="always"
       xlink:href="#linearGradient3147"
       id="linearGradient3149"
       x1="56"
       y1="55"
       x2="32"
       y2="19"
       gradientUnits="userSpaceOnUse"
       gradientTransform="matrix(1.9999996,0,0,1.9999996,1.65e-5,2.000008)" />
    <linearGradient
       inkscape:collect="always"
       id="linearGradient3147">
      <stop
         style="stop-color:#ffb327;stop-opacity:1;"
         offset="0"
         id="stop3143" />
      <stop
         style="stop-color:#f0c462;stop-opacity:1;"
         offset="1"
         id="stop3145" />
    </linearGradient>
  </defs>
  <path
     d="m 16,17 c -4.431996,0 -8,3.568004 -8,8 v 80 c 0,4.432 3.568004,8 8,8 h 96 c 4.432,0 8,-3.568 8,-8 V 37 c 0,-4.431996 -3.568,-8 -8,-8 H 64 l -8,-8 c -2.7171,-2.640384 -3.568004,-4 -8,-4 z"
     style="opacity:0.3;fill:#000000;stroke-width:4"
     id="path1016"
     sodipodi:nodetypes="ssssssssccss" />
  <path
     id="rect184"
     style="fill:url(#linearGradient3157);fill-opacity:1;stroke-width:4"
     d="m 16,16 c -4.431996,0 -8,3.568003 -8,8 v 80 c 0,4.432 3.568004,8 8,8 h 96 c 4.432,0 8,-3.568 8,-8 V 36 c 0,-4.431996 -3.568,-8 -8,-8 H 64 l -8,-8 c -2.754764,-2.517342 -3.568004,-4 -8,-4 z"
     sodipodi:nodetypes="sccsssssccss" />
  <path
     id="rect1043"
     style="fill:url(#linearGradient3149);fill-opacity:1;stroke-width:4"
     d="m 64.000006,40 -8,7.999999 c -2.66722,2.455903 -3.568,3.999999 -7.999995,3.999999 H 16.000018 c -4.418272,0 -7.9999995,3.581725 -7.9999995,7.999995 V 104 c 0,4.43196 3.5680115,8 7.9999995,8 h 95.999972 c 4.43199,0 8,-3.56804 8,-8 V 47.999999 c 0,-4.431988 -3.56801,-7.999999 -8,-7.999999 z"
     sodipodi:nodetypes="ccsssssssssc" />
  <path
     id="path3081"
     style="opacity:0.2;fill:#ffffff;stroke-width:4"
     d="m 64,40 -8,8 c -2.667217,2.4559 -3.568014,4 -8,4 H 16 c -4.418265,0 -8,3.581732 -8,8 v 1 c 0,-4.418272 3.58173,-8 8,-8 h 32 c 4.431988,0 5.332779,-1.544098 8,-4 l 8,-8 h 48 c 4.43199,0 8,3.568016 8,8 v -1 c 0,-4.43198 -3.56802,-8 -8,-8 z" />
  <path
     d="m 78.267296,60 -20.429687,5.276205 c -1.534759,0.410842 -2.771716,2.044715 -2.771716,3.632118 v 25.170041 c -1.556305,-0.814177 -3.555408,-1.143653 -5.627621,-0.605706 -3.739283,0.97065 -6.08288,4.108978 -5.281187,7.006982 0.801556,2.89799 4.486976,4.51633 8.226262,3.54571 2.983288,-0.77441 5.039987,-2.96585 5.367866,-5.276211 L 57.837873,74.963711 77.228264,69.7739 v 18.768715 c -1.556301,-0.814185 -3.553194,-1.143677 -5.625411,-0.605707 -3.739277,0.970651 -6.082872,4.108963 -5.281179,7.006968 0.801556,2.897988 4.484474,4.516329 8.223768,3.54571 2.983286,-0.774404 5.039993,-2.965825 5.367859,-5.276195 L 80,62.250671 c 0,-1.190574 -0.737385,-2.082457 -1.732344,-2.249939 z"
     style="opacity:0.3;fill:#000000;stroke-width:2.76922"
     id="path960" />
</svg>
