<?xml version="1.0" encoding="UTF-8" standalone="no"?>
<!-- Created with Inkscape (http://www.inkscape.org/) -->

<svg
   width="128"
   height="128"
   viewBox="0 0 128 128"
   version="1.1"
   id="svg5"
   inkscape:version="1.2.1 (9c6d41e410, 2022-07-14)"
   sodipodi:docname="folder-yellow-download-open.svg"
   xmlns:inkscape="http://www.inkscape.org/namespaces/inkscape"
   xmlns:sodipodi="http://sodipodi.sourceforge.net/DTD/sodipodi-0.dtd"
   xmlns:xlink="http://www.w3.org/1999/xlink"
   xmlns="http://www.w3.org/2000/svg"
   xmlns:svg="http://www.w3.org/2000/svg">
  <sodipodi:namedview
     id="namedview7"
     pagecolor="#ffffff"
     bordercolor="#000000"
     borderopacity="0.25"
     inkscape:showpageshadow="2"
     inkscape:pageopacity="0.0"
     inkscape:pagecheckerboard="0"
     inkscape:deskcolor="#d1d1d1"
     inkscape:document-units="px"
     showgrid="false"
     inkscape:zoom="6.1875"
     inkscape:cx="63.919192"
     inkscape:cy="64"
     inkscape:window-width="1920"
     inkscape:window-height="1004"
     inkscape:window-x="0"
     inkscape:window-y="0"
     inkscape:window-maximized="1"
     inkscape:current-layer="svg5" />
  <defs
     id="defs2">
    <linearGradient
       inkscape:collect="always"
       id="linearGradient3155">
      <stop
         style="stop-color:#e7b64b;stop-opacity:1;"
         offset="0"
         id="stop3151" />
      <stop
         style="stop-color:#be8d1b;stop-opacity:1;"
         offset="1"
         id="stop3153" />
    </linearGradient>
    <linearGradient
       inkscape:collect="always"
       id="linearGradient3147">
      <stop
         style="stop-color:#ffb327;stop-opacity:1;"
         offset="0"
         id="stop3143" />
      <stop
         style="stop-color:#f0c462;stop-opacity:1;"
         offset="1"
         id="stop3145" />
    </linearGradient>
    <linearGradient
       inkscape:collect="always"
       xlink:href="#linearGradient3147"
       id="linearGradient3149"
       x1="56"
       y1="55"
       x2="32"
       y2="19"
       gradientUnits="userSpaceOnUse"
       gradientTransform="matrix(2,0,0,2,0,2)" />
    <linearGradient
       inkscape:collect="always"
       xlink:href="#linearGradient3155"
       id="linearGradient3157"
       x1="16"
       y1="7"
       x2="16"
       y2="32"
       gradientUnits="userSpaceOnUse"
       gradientTransform="matrix(2,0,0,2,0,2)" />
  </defs>
  <path
     d="m 16,17 c -4.431996,0 -8,3.568004 -8,8 v 80 c 0,4.432 3.568004,8 8,8 h 96 c 4.432,0 8,-3.568 8,-8 V 37 c 0,-4.431996 -3.568,-8 -8,-8 H 64 l -8,-8 c -2.7171,-2.640384 -3.568004,-4 -8,-4 z"
     style="opacity:0.3;fill:#000000;stroke-width:4"
     id="path1016"
     sodipodi:nodetypes="ssssssssccss" />
  <path
     id="rect184"
     style="fill:url(#linearGradient3157);fill-opacity:1;stroke-width:4"
     d="m 16,16 c -4.431996,0 -8,3.568004 -8,8 v 80 c 0,4.432 3.568004,8 8,8 h 96 c 4.432,0 8,-3.568 8,-8 V 36 c 0,-4.431996 -3.568,-8 -8,-8 H 64 l -8,-8 c -2.754764,-2.517342 -3.568004,-4 -8,-4 z"
     sodipodi:nodetypes="sccsssssccss" />
  <path
     id="rect1043"
     style="fill:url(#linearGradient3149);fill-opacity:1;stroke-width:4"
     d="m 64,40 -8,8 c -2.667224,2.455904 -3.568008,4 -8,4 H 16 c -4.418274,0 -8,3.581724 -8,8 v 44 c 0,4.43199 3.568013,8 8,8 h 96 c 4.43199,0 8,-3.56801 8,-8 V 48 c 0,-4.431988 -3.56801,-8 -8,-8 z"
     sodipodi:nodetypes="ccsssssssssc" />
  <path
     id="path3081"
     style="opacity:0.2;fill:#ffffff;stroke-width:4"
     d="m 64,40 -8,8 c -2.66722,2.455902 -3.56801,4 -8,4 H 16 c -4.418269,0 -8,3.581728 -8,8 v 1 c 0,-4.418272 3.581731,-8 8,-8 h 32 c 4.431988,0 5.332778,-1.5441 8,-4 l 8,-8 h 48 c 4.43198,0 8,3.568016 8,8 v -1 c 0,-4.431984 -3.56802,-8 -8,-8 z"
     sodipodi:nodetypes="ccssscssccscssc" />
  <path
     id="rect6657"
     style="opacity:0.3;fill:#000000;stroke-width:6;stroke-linecap:round;stroke-linejoin:round"
     d="m 63.000484,62 c -0.554,0 -1,0.446 -1,1 V 92.171392 L 51.809516,81.98097 c -0.391754,-0.39172 -1.022326,-0.391738 -1.414064,0 -0.19586,0.19586 -0.292966,0.451414 -0.292968,0.707032 -2e-6,0.255618 0.0971,0.511168 0.292968,0.707032 L 63.000484,95.999518 75.609032,83.395036 c 0.391732,-0.39174 0.391732,-1.022328 0,-1.414066 -0.391738,-0.391736 -1.022332,-0.391742 -1.414064,0 L 64.000484,92.171392 V 63 c 0,-0.554 -0.446004,-1 -1,-1 z M 49,100 c -0.616548,0 -1,0.446 -1,1 0,0.554 0.383452,1 1,1 h 28 c 0.61655,0 1,-0.446 1,-1 0,-0.554 -0.38345,-1 -1,-1 z"
     sodipodi:nodetypes="ssccsscccsccsssssssss" />
</svg>
