<?xml version="1.0" encoding="UTF-8" standalone="no"?>
<!-- Created with Inkscape (http://www.inkscape.org/) -->

<svg
   width="128"
   height="128"
   viewBox="0 0 128 128"
   version="1.1"
   id="svg5"
   inkscape:version="1.2 (dc2aedaf03, 2022-05-15)"
   sodipodi:docname="user-grey-home.svg"
   xmlns:inkscape="http://www.inkscape.org/namespaces/inkscape"
   xmlns:sodipodi="http://sodipodi.sourceforge.net/DTD/sodipodi-0.dtd"
   xmlns:xlink="http://www.w3.org/1999/xlink"
   xmlns="http://www.w3.org/2000/svg"
   xmlns:svg="http://www.w3.org/2000/svg">
  <sodipodi:namedview
     id="namedview7"
     pagecolor="#ffffff"
     bordercolor="#000000"
     borderopacity="0.25"
     inkscape:showpageshadow="2"
     inkscape:pageopacity="0.0"
     inkscape:pagecheckerboard="0"
     inkscape:deskcolor="#d1d1d1"
     inkscape:document-units="px"
     showgrid="false"
     inkscape:zoom="6.265625"
     inkscape:cx="63.9202"
     inkscape:cy="64"
     inkscape:window-width="1920"
     inkscape:window-height="991"
     inkscape:window-x="0"
     inkscape:window-y="0"
     inkscape:window-maximized="1"
     inkscape:current-layer="svg5" />
  <defs
     id="defs2">
    <linearGradient
       inkscape:collect="always"
       id="linearGradient3155">
      <stop
         style="stop-color:#424242;stop-opacity:1;"
         offset="0"
         id="stop3151" />
      <stop
         style="stop-color:#2f2f2f;stop-opacity:1;"
         offset="1"
         id="stop3153" />
    </linearGradient>
    <linearGradient
       inkscape:collect="always"
       id="linearGradient3147">
      <stop
         style="stop-color:#414141;stop-opacity:1;"
         offset="0"
         id="stop3143" />
      <stop
         style="stop-color:#6a6a6a;stop-opacity:1;"
         offset="1"
         id="stop3145" />
    </linearGradient>
    <linearGradient
       inkscape:collect="always"
       xlink:href="#linearGradient3147"
       id="linearGradient3149"
       x1="56"
       y1="55"
       x2="32"
       y2="13"
       gradientUnits="userSpaceOnUse"
       gradientTransform="matrix(2,0,0,2,0,2)" />
    <linearGradient
       inkscape:collect="always"
       xlink:href="#linearGradient3155"
       id="linearGradient3157"
       x1="16"
       y1="7"
       x2="16"
       y2="24"
       gradientUnits="userSpaceOnUse"
       gradientTransform="matrix(2,0,0,2,0,2)" />
  </defs>
  <path
     d="m 16,17 c -4.431996,0 -8,3.568004 -8,8 v 80 c 0,4.432 3.568004,8 8,8 h 96 c 4.432,0 8,-3.568 8,-8 V 37 c 0,-4.431996 -3.568,-8 -8,-8 H 64 l -8,-8 c -2.7171,-2.640384 -3.568004,-4 -8,-4 z"
     style="opacity:0.3;fill:#000000;stroke-width:4"
     id="path1016"
     sodipodi:nodetypes="ssssssssccss" />
  <path
     id="rect184"
     style="fill:url(#linearGradient3157);fill-opacity:1;stroke-width:4"
     d="m 16,16 c -4.431996,0 -8,3.568003 -8,8 v 80 c 0,4.432 3.568004,8 8,8 h 96 c 4.432,0 8,-3.568 8,-8 V 36 c 0,-4.431996 -3.568,-8 -8,-8 H 64 l -8,-8 c -2.754764,-2.517342 -3.568004,-4 -8,-4 z"
     sodipodi:nodetypes="sccsssssccss" />
  <path
     id="rect1043"
     style="fill:url(#linearGradient3149);fill-opacity:1;stroke-width:4"
     d="m 64,28 -8,8 c -2.667224,2.455904 -3.568008,4 -8,4 H 16 c -4.418274,0 -8,3.581724 -8,8 v 56 c 0,4.43199 3.568013,8 8,8 h 96 c 4.43199,0 8,-3.56801 8,-8 V 36 c 0,-4.431988 -3.56801,-8 -8,-8 z"
     sodipodi:nodetypes="ccsssssssssc" />
  <path
     id="path3081"
     style="opacity:0.2;fill:#ffffff;stroke-width:4"
     d="m 64,28 -8,8 c -2.66722,2.455902 -3.56801,4 -8,4 H 16 c -4.418269,0 -8,3.581728 -8,8 v 1 c 0,-4.418272 3.581731,-8 8,-8 h 32 c 4.431988,0 5.332778,-1.5441 8,-4 l 8,-8 h 48 c 4.43198,0 8,3.568016 8,8 v -1 c 0,-4.431984 -3.56802,-8 -8,-8 z"
     sodipodi:nodetypes="ccssscssccscssc" />
  <path
     id="rect6252"
     style="opacity:0.6;fill:#ffffff;stroke-width:2;stroke-linejoin:round"
     d="m 64.000717,52.926 c -1.022472,0 -2.044656,0.392314 -2.828124,1.17578 L 41.614,73.660373 l 1.417968,1.414059 2.96875,-2.968747 v 19.894317 c 0,2.21599 1.784008,4 4,4 h 28 c 2.21599,0 4,-1.78401 4,-4 V 72.105685 l 2.96875,2.968747 1.41797,-1.414059 -6.38672,-6.386718 v -7.273438 h -2 v 5.273438 L 66.828838,54.10178 C 66.045377,53.318312 65.023191,52.926 64.000717,52.926 Z m 0,2.003906 c 0.511238,0 1.022326,0.1942 1.414064,0.585936 l 14.585937,14.589843 v 21.894317 c 0,1.10799 -0.89201,2 -2,2 h -8.00072 v -15.99979 c 0,-1.10799 -0.892,-2 -2,-2 h -7.999999 c -1.107996,0 -2,0.89201 -2,2 v 15.99979 h -7.999281 c -1.107992,0 -2,-0.89201 -2,-2 V 70.105685 L 62.586655,55.515842 c 0.391738,-0.39173 0.902826,-0.585936 1.414062,-0.585936 z"
     sodipodi:nodetypes="sccccsssscccccccsssccsscsssscssccs" />
</svg>
