<?xml version="1.0" encoding="UTF-8" standalone="no"?>
<!-- Created with Inkscape (http://www.inkscape.org/) -->

<svg
   width="24"
   height="24"
   viewBox="0 0 24 24"
   version="1.1"
   id="svg5"
   inkscape:version="1.4.4 (dcaf3e7d9e, 2026-05-05)"
   sodipodi:docname="androidstudio-preview.svg"
   xmlns:inkscape="http://www.inkscape.org/namespaces/inkscape"
   xmlns:sodipodi="http://sodipodi.sourceforge.net/DTD/sodipodi-0.dtd"
   xmlns="http://www.w3.org/2000/svg"
   xmlns:svg="http://www.w3.org/2000/svg">
  <sodipodi:namedview
     id="namedview7"
     pagecolor="#ffffff"
     bordercolor="#000000"
     borderopacity="0.25"
     inkscape:showpageshadow="2"
     inkscape:pageopacity="0.0"
     inkscape:pagecheckerboard="0"
     inkscape:deskcolor="#d1d1d1"
     inkscape:document-units="px"
     showgrid="false"
     inkscape:zoom="33.416667"
     inkscape:cx="12"
     inkscape:cy="12"
     inkscape:window-width="1920"
     inkscape:window-height="1010"
     inkscape:window-x="0"
     inkscape:window-y="0"
     inkscape:window-maximized="1"
     inkscape:current-layer="svg5"
     showguides="false" />
  <defs
     id="defs2" />
  <path
     id="path530"
     style="fill:#132f40;fill-opacity:1;stroke-width:0.750005;stroke-linecap:round;stroke-linejoin:round"
     d="M 10,2 C 3.174114,2 2,3.2048695 2,10 v 4 c 0,6.79513 1.174114,8 8,8 h 4 c 6.825886,0 8,-1.20487 8,-8 V 10 C 22,3.2048695 20.825886,2 14,2 Z"
     sodipodi:nodetypes="sssssssss" />
  <path
     id="path3"
     style="fill:#3ddc84;fill-opacity:1"
     d="m 17.738281,9 c -0.07881,0.00114 -0.159932,0.033999 -0.220703,0.097656 L 16.738281,9.9140625 C 16.206573,9.3977285 15.221731,9.0341653 14.597656,9.046875 14.257185,9.0538089 13.548995,9.3087045 13,9.4746094 l 0.759766,3.0664066 0.763672,3.066406 c 0.552008,-0.153762 1.282184,-0.317684 1.580078,-0.496094 0.54603,-0.32702 1.2321,-1.175273 1.453125,-1.910156 l 1.050781,0.285156 c 0.16417,0.04436 0.33521,-0.06081 0.380859,-0.232422 0.04563,-0.171651 -0.05068,-0.346249 -0.214843,-0.390625 l -1.087891,-0.294922 c 0.05042,-0.427496 0.02389,-0.813658 -0.04687,-1.154297 -0.09653,-0.333164 -0.252478,-0.682698 -0.494141,-1.02539 l 0.806636,-0.841797 c 0.121526,-0.1273223 0.120907,-0.3312245 0.002,-0.4550781 C 17.893573,9.0298961 17.817095,8.9988632 17.738281,9 Z M 15.5,10 A 0.5,0.50000042 0 0 1 16,10.5 0.5,0.50000042 0 0 1 15.5,11 0.5,0.50000042 0 0 1 15,10.5 0.5,0.50000042 0 0 1 15.5,10 Z m 1,3 A 0.5,0.50000042 0 0 1 17,13.5 0.5,0.50000042 0 0 1 16.5,14 0.5,0.50000042 0 0 1 16,13.5 0.5,0.50000042 0 0 1 16.5,13 Z" />
  <path
     id="path10"
     style="fill:#ffffff;fill-opacity:1"
     d="m 11.761719,4 c -0.197324,0 -0.385867,0.088726 -0.525391,0.2480469 -0.139523,0.1593211 -0.21875,0.3762525 -0.21875,0.6015625 v 1.6113281 c 0,0.1297666 0.02552,0.2565339 0.07422,0.3710937 -0.254687,0.1384179 -0.449338,0.3668302 -0.548829,0.6425782 h -0.0019 L 8.6660188,12.673828 C 8.1857804,12.28687 7.7309078,11.848095 7.2832031,11.400391 6.9322006,11.049388 6.5419034,11 6.2109375,11 5.6115499,11 5,11.433154 5,12.111328 c 0,0.175375 0.046402,0.362925 0.1542969,0.554688 h 0.00195 v 0.002 c 0.6554889,1.086464 1.5426825,1.970846 2.5683594,2.617187 l -0.6542938,1.8105 C 7.0171865,17.242959 7.0136719,19.625 7.0136719,19.625 c -0.021723,0.06841 -0.017979,0.141762 0.011719,0.207031 0.029643,0.06533 0.082938,0.116449 0.1484375,0.144531 0.065555,0.02808 0.1398269,0.03158 0.2070313,0.0078 0.067149,-0.02384 0.1225377,-0.07343 0.15625,-0.136719 0,0 1.7047415,-1.788347 1.7578125,-1.935547 l 0.6035156,-1.671875 c 0.6730402,0.182302 1.3734152,0.277344 2.0800782,0.277344 0.71096,0 1.429833,-0.09774 2.138672,-0.296875 l 0.611328,1.681641 c 0.05159,0.147034 0.132551,0.282795 0.236328,0.398437 0.103776,0.115641 1.496094,1.546875 1.496094,1.546875 0.03371,0.06329 0.0891,0.112879 0.15625,0.136719 0.06715,0.02375 0.139528,0.02025 0.205078,-0.0078 0.0655,-0.02803 0.118797,-0.0792 0.148437,-0.144531 0.0297,-0.06527 0.03534,-0.138621 0.01367,-0.207031 0.03533,-0.720557 0.07512,-1.385394 0.01563,-2.078125 0.0052,-0.155916 -0.02139,-0.3111 -0.07617,-0.457031 l -3.5,-9.6386721 c -0.109111,-0.2905381 -0.327385,-0.5271465 -0.607422,-0.65625 -0.108735,-0.050151 -0.223354,-0.080897 -0.339844,-0.095703 0.01949,-0.076458 0.0293,-0.1572181 0.0293,-0.2382813 V 4.8496094 c 0,-0.22531 -0.07923,-0.4422414 -0.21875,-0.6015625 C 12.14757,4.0887256 11.959042,4 11.761719,4 Z m 0.242187,6.398438 1.263672,3.478515 C 12.838385,13.964952 12.405456,14 11.976562,14 11.547754,14 11.145366,13.94023 10.765625,13.832031 Z" />
  <path
     d="m 12.03685,9.43495 c 0.38545,0 0.7551,-0.154 1.02765,-0.4281 0.27255,-0.27415 0.42565,-0.64595 0.42565,-1.0336 0,-0.3877 -0.1531,-0.7595 -0.42565,-1.0336 C 12.79195,6.6655 12.4223,6.5115 12.03685,6.5115 c -0.38545,0 -0.7551,0.154 -1.02765,0.42815 -0.27255,0.2741 -0.4257,0.6459 -0.4257,1.0336 0,0.38765 0.15315,0.75945 0.4257,1.0336 0.27255,0.2741 0.6422,0.4281 1.02765,0.4281 z"
     fill="#e4e4e4"
     id="path17"
     style="fill:#132f40;fill-opacity:1" />
  <path
     d="m 12.0002,6.83305 c -0.3095,0 -0.6063,0.12295 -0.82515,0.34175 -0.21885,0.21885 -0.3418,0.51565 -0.3418,0.8251 0,0.3095 0.12295,0.60625 0.3418,0.8251 0.21885,0.2189 0.51565,0.34175 0.82515,0.34175 0.3095,0 0.6063,-0.12285 0.82515,-0.34175 0.21885,-0.21885 0.3418,-0.5156 0.3418,-0.8251 0,-0.30945 -0.12295,-0.60625 -0.3418,-0.8251 C 12.6065,6.956 12.3097,6.83305 12.0002,6.83305 Z M 10,7.9999 c 0,-0.2626 0.0517,-0.5227 0.15225,-0.7653 0.10045,-0.24265 0.2478,-0.4631 0.4335,-0.64885 0.1857,-0.1857 0.4062,-0.333 0.64885,-0.43355 C 11.47725,6.05175 11.7373,6 12,6 12.26265,6 12.52265,6.05175 12.76535,6.1522 13.008,6.25275 13.2285,6.40005 13.4142,6.58575 13.5999,6.7715 13.74725,6.99195 13.8477,7.2346 13.94825,7.4772 14,7.7373 14,7.9999 14,8.53035 13.7893,9.039 13.4142,9.4141 13.0391,9.7891 12.5304,9.9998 12,9.9998 11.46955,9.9998 10.96085,9.7891 10.58575,9.4141 10.2107,9.039 10,8.53035 10,7.9999 Z"
     fill="#0a455f"
     fill-rule="evenodd"
     id="path19"
     style="fill:#ffffff;fill-opacity:1" />
</svg>
