<?xml version="1.0" encoding="UTF-8" standalone="no"?>
<!-- Created with Inkscape (http://www.inkscape.org/) -->

<svg
   width="24"
   height="24"
   viewBox="0 0 24 24"
   version="1.1"
   id="svg5"
   inkscape:version="1.2.1 (9c6d41e410, 2022-07-14)"
   sodipodi:docname="applications-office.svg"
   xmlns:inkscape="http://www.inkscape.org/namespaces/inkscape"
   xmlns:sodipodi="http://sodipodi.sourceforge.net/DTD/sodipodi-0.dtd"
   xmlns:xlink="http://www.w3.org/1999/xlink"
   xmlns="http://www.w3.org/2000/svg"
   xmlns:svg="http://www.w3.org/2000/svg">
  <sodipodi:namedview
     id="namedview7"
     pagecolor="#ffffff"
     bordercolor="#000000"
     borderopacity="0.25"
     inkscape:showpageshadow="2"
     inkscape:pageopacity="0.0"
     inkscape:pagecheckerboard="0"
     inkscape:deskcolor="#d1d1d1"
     inkscape:document-units="px"
     showgrid="false"
     inkscape:zoom="33.458333"
     inkscape:cx="12"
     inkscape:cy="12"
     inkscape:window-width="1920"
     inkscape:window-height="1006"
     inkscape:window-x="0"
     inkscape:window-y="0"
     inkscape:window-maximized="1"
     inkscape:current-layer="svg5"
     showguides="false" />
  <defs
     id="defs2">
    <linearGradient
       inkscape:collect="always"
       xlink:href="#linearGradient1606"
       id="linearGradient3500"
       x1="2"
       y1="2"
       x2="31.333334"
       y2="31.333334"
       gradientUnits="userSpaceOnUse"
       gradientTransform="matrix(0.75,0,0,0.75,0.5,0.50000027)" />
    <linearGradient
       inkscape:collect="always"
       id="linearGradient1606">
      <stop
         style="stop-color:#eaebed;stop-opacity:1;"
         offset="0"
         id="stop1602" />
      <stop
         style="stop-color:#f9fafa;stop-opacity:1;"
         offset="1"
         id="stop1604" />
    </linearGradient>
  </defs>
  <path
     id="path530"
     style="fill:url(#linearGradient3500);fill-opacity:1;stroke-width:0.750005;stroke-linecap:round;stroke-linejoin:round"
     d="M 10,2.0000003 C 3.174114,2.0000003 2,3.2048698 2,10 v 4 c 0,6.79513 1.174114,8 8,8 h 4 c 6.825886,0 8,-1.20487 8,-8 V 10 C 22,3.2048698 20.825886,2.0000003 14,2.0000003 Z"
     sodipodi:nodetypes="sssssssss" />
  <path
     id="path1945"
     style="fill:#666666;stroke-linecap:round"
     d="m 18.449747,6.2573594 c -0.976311,-0.9763108 -2.559223,-0.9763109 -3.535534,-1e-7 l -7.3033,7.3033007 c -0.5857867,0.585787 -0.5857868,1.535535 1e-7,2.121321 0.5857864,0.585786 1.5355339,0.585786 2.1213203,0 L 16.68198,8.7322331 15.974873,8.0251264 9.0251266,14.974874 c -0.1952621,0.195262 -0.5118446,0.195262 -0.7071067,0 -0.1952623,-0.195262 -0.1952622,-0.511845 0,-0.707107 L 15.62132,6.9644662 c 0.585786,-0.5857863 1.535534,-0.5857862 2.12132,0 0.585786,0.5857864 0.585786,1.5355338 0,2.1213203 l -7.656853,7.6568545 c -0.9763106,0.976311 -2.5592233,0.976311 -3.5355341,0 -0.9763108,-0.976311 -0.9763109,-2.559223 -1e-7,-3.535534 L 11.146446,8.6109127 10.439339,7.9038059 5.8431461,12.5 c -1.366835,1.366835 -1.3668354,3.582913 0,4.949748 1.366835,1.366835 3.5829122,1.366835 4.9497469,0 l 7.656854,-7.6568547 c 0.976311,-0.9763108 0.976311,-2.5592232 0,-3.5355339 z"
     sodipodi:nodetypes="sssssccsssssssssccsssss" />
</svg>
