<?xml version="1.0" encoding="UTF-8" standalone="no"?>
<!-- Created with Inkscape (http://www.inkscape.org/) -->

<svg
   width="24"
   height="24"
   viewBox="0 0 24 24"
   version="1.1"
   id="svg5"
   inkscape:version="1.4.4 (dcaf3e7d9e, 2026-05-05)"
   sodipodi:docname="cities-skylines-2.svg"
   xmlns:inkscape="http://www.inkscape.org/namespaces/inkscape"
   xmlns:sodipodi="http://sodipodi.sourceforge.net/DTD/sodipodi-0.dtd"
   xmlns:xlink="http://www.w3.org/1999/xlink"
   xmlns="http://www.w3.org/2000/svg"
   xmlns:svg="http://www.w3.org/2000/svg">
  <sodipodi:namedview
     id="namedview7"
     pagecolor="#ffffff"
     bordercolor="#000000"
     borderopacity="0.25"
     inkscape:showpageshadow="2"
     inkscape:pageopacity="0.0"
     inkscape:pagecheckerboard="0"
     inkscape:deskcolor="#d1d1d1"
     inkscape:document-units="px"
     showgrid="false"
     inkscape:zoom="33.5"
     inkscape:cx="12"
     inkscape:cy="12"
     inkscape:window-width="1920"
     inkscape:window-height="1012"
     inkscape:window-x="0"
     inkscape:window-y="0"
     inkscape:window-maximized="1"
     inkscape:current-layer="svg5"
     showguides="false" />
  <defs
     id="defs2">
    <linearGradient
       inkscape:collect="always"
       xlink:href="#linearGradient3"
       id="linearGradient3500"
       x1="15.333333"
       y1="28.666666"
       x2="15.333333"
       y2="2"
       gradientUnits="userSpaceOnUse"
       gradientTransform="matrix(0.75,0,0,0.75,0.5,0.5)" />
    <linearGradient
       inkscape:collect="always"
       id="linearGradient3">
      <stop
         style="stop-color:#18d7ff;stop-opacity:1;"
         offset="0"
         id="stop1" />
      <stop
         style="stop-color:#0071de;stop-opacity:1;"
         offset="1"
         id="stop2" />
    </linearGradient>
  </defs>
  <path
     id="path530"
     style="fill:url(#linearGradient3500);fill-opacity:1;stroke-width:0.750005;stroke-linecap:round;stroke-linejoin:round"
     d="M 10,2 C 3.174114,2 2,3.2048695 2,10 v 4 c 0,6.79513 1.174114,8 8,8 h 4 c 6.825886,0 8,-1.20487 8,-8 V 10 C 22,3.2048695 20.825886,2 14,2 Z"
     sodipodi:nodetypes="sssssssss" />
  <path
     d="m 11.86264,5.0009799 c -8.74e-4,1.0093195 0,2.018779 -2.92e-4,3.0280984 1.997486,1.1024117 3.995409,2.2045437 5.99304,3.3070967 0.0481,0.0252 0.09329,0.0546 0.1443,0.0756 V 9.035044 c 0.0011,-0.071394 0,-0.1432086 -0.01749,-0.213903 C 17.939928,8.5781144 17.805247,8.3509126 17.609491,8.1916053 17.504546,8.1034124 17.378464,8.045457 17.259669,7.9777024 15.887055,7.2200828 14.514148,6.4627432 13.141532,5.7052638 12.714894,5.4705024 12.289278,5.2340613 11.862057,5 Z m -0.723549,1.4e-4 c -0.06997,0.037798 -0.138466,0.076994 -0.208146,0.1147918 C 9.1537017,6.1059124 7.3767507,7.0959134 5.5995076,8.0859145 5.5382886,8.1195115 5.4770691,8.1545085 5.4225557,8.1965061 5.1813241,8.3787716 5.0253617,8.6611292 5.0059757,8.9556657 v 0.2140423 2.077435 c 7.288e-4,0.0756 0,0.152727 0.014575,0.228321 0.026237,0.172886 0.1151499,0.336255 0.2499772,0.453984 0.077251,0.0728 0.1757857,0.117586 0.2671769,0.171206 0.6344901,0.357812 1.2686887,0.715903 1.9031791,1.073715 0.094743,0.0518 0.1880294,0.109188 0.2842306,0.158467 7.289e-4,-0.127386 0,-0.25366 2.914e-4,-0.380488 -5.829e-4,-0.686507 0,-1.372872 0.00102,-2.059377 5.831e-4,-0.323234 -0.00102,-0.646469 8.746e-4,-0.969703 0.093288,-0.0546 0.1896327,-0.106388 0.283939,-0.158607 1.0456772,-0.579134 2.0912085,-1.1586875 3.1370345,-1.7374013 0,-1.0091794 4.36e-4,-2.018079 -2.93e-4,-3.0271184 z m 4.146416,5.6632471 c -7.3e-4,0.0924 0,0.185626 -1.46e-4,0.278578 7.28e-4,0.688465 0,1.377212 -10e-4,2.065676 -1.47e-4,0.355852 0,0.711564 -1.47e-4,1.067554 -1.140565,0.63177 -2.281277,1.26354 -3.421846,1.895449 4.39e-4,1.009039 -8.74e-4,2.01808 7.3e-4,3.027118 0.118072,-0.0644 0.236713,-0.131586 0.355216,-0.197383 1.702177,-0.948425 3.404501,-1.896709 5.106823,-2.845133 0.08892,-0.0504 0.180887,-0.09659 0.260471,-0.159308 0.202314,-0.155107 0.343845,-0.381049 0.392676,-0.625189 0.02916,-0.132986 0.01894,-0.26864 0.02042,-0.403168 -1.45e-4,-0.672227 -1.45e-4,-1.344453 0,-2.016539 -7.26e-4,-0.077 0,-0.156368 -0.01458,-0.233503 -0.03352,-0.222021 -0.17579,-0.425705 -0.375918,-0.541197 -0.776023,-0.437745 -1.551463,-0.87619 -2.328068,-1.312955 z M 5.002769,12.586835 c -2.916e-4,0.778058 -1.458e-4,1.556115 -1.458e-4,2.334033 7.287e-4,0.0448 0,0.0896 0,0.135786 0.014575,0.194725 0.07871,0.386089 0.1942972,0.546377 0.091829,0.128786 0.2157237,0.23798 0.3571103,0.316515 1.8610547,1.026677 3.721818,2.053777 5.5827283,3.080454 0.0011,-1.009459 0,-2.018919 5.83e-4,-3.028379 -0.4778,-0.264716 -0.956474,-0.527895 -1.4347103,-0.791914 C 8.1793015,14.338935 6.6559709,13.498441 5.1326405,12.657809 5.0889115,12.635409 5.0466435,12.607409 5,12.587809 Z"
     style="fill:#ffffff"
     id="path1" />
</svg>
