<?xml version="1.0" encoding="UTF-8" standalone="no"?>
<!-- Created with Inkscape (http://www.inkscape.org/) -->

<svg
   width="24"
   height="24"
   viewBox="0 0 24 24"
   version="1.1"
   id="svg5"
   inkscape:version="1.2.2 (1:1.2.2+202305151914+b0a8486541)"
   sodipodi:docname="com.rafaelmardojai.Blanket.svg"
   xmlns:inkscape="http://www.inkscape.org/namespaces/inkscape"
   xmlns:sodipodi="http://sodipodi.sourceforge.net/DTD/sodipodi-0.dtd"
   xmlns:xlink="http://www.w3.org/1999/xlink"
   xmlns="http://www.w3.org/2000/svg"
   xmlns:svg="http://www.w3.org/2000/svg">
  <sodipodi:namedview
     id="namedview7"
     pagecolor="#ffffff"
     bordercolor="#000000"
     borderopacity="0.25"
     inkscape:showpageshadow="2"
     inkscape:pageopacity="0.0"
     inkscape:pagecheckerboard="0"
     inkscape:deskcolor="#d1d1d1"
     inkscape:document-units="px"
     showgrid="false"
     inkscape:zoom="33.75"
     inkscape:cx="11.985185"
     inkscape:cy="12"
     inkscape:window-width="1920"
     inkscape:window-height="1012"
     inkscape:window-x="0"
     inkscape:window-y="0"
     inkscape:window-maximized="1"
     inkscape:current-layer="svg5"
     showguides="true" />
  <defs
     id="defs2">
    <linearGradient
       inkscape:collect="always"
       xlink:href="#linearGradient1619"
       id="linearGradient3500"
       x1="2"
       y1="2"
       x2="28.666666"
       y2="28.666666"
       gradientUnits="userSpaceOnUse"
       gradientTransform="matrix(0.75,0,0,0.75,0.5,0.5)" />
    <linearGradient
       inkscape:collect="always"
       id="linearGradient1619">
      <stop
         style="stop-color:#4577b9;stop-opacity:1;"
         offset="0"
         id="stop1615" />
      <stop
         style="stop-color:#6cb2ea;stop-opacity:1;"
         offset="1"
         id="stop1617" />
    </linearGradient>
  </defs>
  <path
     id="path530"
     style="fill:url(#linearGradient3500);fill-opacity:1;stroke-width:0.750005;stroke-linecap:round;stroke-linejoin:round"
     d="M 10,2 C 3.174114,2 2,3.2048695 2,10 v 4 c 0,6.79513 1.174114,8 8,8 h 4 c 6.825886,0 8,-1.20487 8,-8 V 10 C 22,3.2048695 20.825886,2 14,2 Z"
     sodipodi:nodetypes="sssssssss" />
  <rect
     style="fill:#ffffff;stroke-width:1.5;stroke-linecap:square;stroke-linejoin:round"
     id="rect688"
     width="3"
     height="3"
     x="9"
     y="9" />
  <rect
     style="fill:#ffffff;stroke-width:1.5;stroke-linecap:square;stroke-linejoin:round"
     id="rect765"
     width="3"
     height="3"
     x="12"
     y="12" />
  <rect
     style="fill:#ffffff;stroke-width:1.5;stroke-linecap:square;stroke-linejoin:round"
     id="rect767"
     width="3"
     height="3"
     x="15"
     y="9" />
  <path
     id="rect773"
     style="fill:#ffffff;stroke-width:1.5;stroke-linecap:square;stroke-linejoin:round"
     d="m 10.535156,6 a 1.5,1.5 0 0 1 1.447266,1.4472657 v 1.5527341 h 2.999999 V 7.4472657 A 1.5,1.5 0 0 0 13.535156,6 h -1.552734 z" />
  <path
     id="rect860"
     style="opacity:0.6;fill:#ffffff;stroke-width:1.5;stroke-linecap:square;stroke-linejoin:round"
     d="M 7.5,6 C 8.330998,6 9,6.6690016 9,7.5 v 1.4999998 h 3 V 6 Z"
     sodipodi:nodetypes="cscccc" />
  <path
     id="rect876"
     style="opacity:0.6;fill:#ffffff;stroke-width:1.5;stroke-linecap:square;stroke-linejoin:round"
     d="M 13.552735,6 V 8.9999998 H 18 V 7.5 C 17.97276,6.7122564 17.287744,6.0272402 16.5,6 Z"
     sodipodi:nodetypes="cccccc" />
  <path
     id="rect892"
     style="opacity:0.3;fill:#ffffff;stroke-width:1.5;stroke-linecap:square;stroke-linejoin:round"
     d="M 7.5,6 C 6.669001,6 6,6.6690008 6,7.5 V 17 H 6.5 V 16 H 7 v 1 H 7.5 V 16 H 8 v 1 H 8.5 V 16 H 9 V 7.5 C 9,6.6690008 8.330999,6 7.5,6 Z"
     sodipodi:nodetypes="ssccccccccccccss" />
  <path
     id="rect991"
     style="fill:#ffffff;stroke-width:1.5;stroke-linecap:square;stroke-linejoin:round"
     d="m 9,15 v 3 H 9.5 V 17 H 10 v 1 h 0.5 V 17 H 11 v 1 h 0.5 V 17 H 12 v -2 z" />
  <path
     id="rect996"
     style="opacity:0.6;fill:#ffffff;stroke-width:1.5;stroke-linecap:square;stroke-linejoin:round"
     d="m 12,15 v 3 h 0.5 V 17 H 13 v 1 h 0.5 V 17 H 14 v 1 h 0.5 V 17 H 15 v -2 z" />
  <path
     id="rect1001"
     style="fill:#ffffff;stroke-width:1.5;stroke-linecap:square;stroke-linejoin:round"
     d="m 15,15 v 3 h 0.5 V 17 H 16 v 1 h 0.5 V 17 H 17 v 1 h 0.5 V 17 H 18 v -2 z" />
  <rect
     style="opacity:0.6;fill:#ffffff;stroke-width:1.5;stroke-linecap:square;stroke-linejoin:round"
     id="rect1008"
     width="3"
     height="3"
     x="9"
     y="12" />
  <rect
     style="opacity:0.6;fill:#ffffff;stroke-width:1.5;stroke-linecap:square;stroke-linejoin:round"
     id="rect1010"
     width="3"
     height="3"
     x="12"
     y="9" />
  <rect
     style="opacity:0.6;fill:#ffffff;stroke-width:1.5;stroke-linecap:square;stroke-linejoin:round"
     id="rect1012"
     width="3"
     height="3"
     x="15"
     y="12" />
</svg>
