<?xml version="1.0" encoding="UTF-8" standalone="no"?>
<!-- Created with Inkscape (http://www.inkscape.org/) -->

<svg
   width="24"
   height="24"
   viewBox="0 0 24 24"
   version="1.1"
   id="svg5"
   inkscape:version="1.2.2 (1:1.2.2+202305151914+b0a8486541)"
   sodipodi:docname="firewall-config.svg"
   xmlns:inkscape="http://www.inkscape.org/namespaces/inkscape"
   xmlns:sodipodi="http://sodipodi.sourceforge.net/DTD/sodipodi-0.dtd"
   xmlns:xlink="http://www.w3.org/1999/xlink"
   xmlns="http://www.w3.org/2000/svg"
   xmlns:svg="http://www.w3.org/2000/svg">
  <sodipodi:namedview
     id="namedview7"
     pagecolor="#ffffff"
     bordercolor="#000000"
     borderopacity="0.25"
     inkscape:showpageshadow="2"
     inkscape:pageopacity="0.0"
     inkscape:pagecheckerboard="0"
     inkscape:deskcolor="#d1d1d1"
     inkscape:document-units="px"
     showgrid="false"
     inkscape:zoom="33.75"
     inkscape:cx="11.985185"
     inkscape:cy="12"
     inkscape:window-width="1920"
     inkscape:window-height="1012"
     inkscape:window-x="0"
     inkscape:window-y="0"
     inkscape:window-maximized="1"
     inkscape:current-layer="svg5"
     showguides="false" />
  <defs
     id="defs2">
    <linearGradient
       inkscape:collect="always"
       xlink:href="#linearGradient918"
       id="linearGradient3500"
       x1="2"
       y1="2"
       x2="28.666666"
       y2="28.666666"
       gradientUnits="userSpaceOnUse"
       gradientTransform="matrix(0.75,0,0,0.75,0.5,0.5)" />
    <linearGradient
       inkscape:collect="always"
       id="linearGradient918">
      <stop
         style="stop-color:#923b26;stop-opacity:1;"
         offset="0"
         id="stop914" />
      <stop
         style="stop-color:#c17b6e;stop-opacity:1;"
         offset="1"
         id="stop916" />
    </linearGradient>
  </defs>
  <path
     id="path530"
     style="fill:url(#linearGradient3500);fill-opacity:1;stroke-width:0.750005;stroke-linecap:round;stroke-linejoin:round"
     d="M 10,2 C 3.174114,2 2,3.2048695 2,10 v 4 c 0,6.79513 1.174114,8 8,8 h 4 c 6.825886,0 8,-1.20487 8,-8 V 10 C 22,3.2048695 20.825886,2 14,2 Z"
     sodipodi:nodetypes="sssssssss" />
  <path
     id="rect972"
     style="opacity:0.5;fill:#ffffff;stroke-linecap:square;stroke-linejoin:round"
     d="M 11,2 V 4 H 6 V 2.2714844 C 5.6359838,2.3408287 5.3030596,2.4260495 5,2.5292969 V 4 H 3.0019531 C 2.2178103,5.2038075 2,7.0872465 2,10 h 3 v 4 H 2 c 0,2.912753 0.2178103,4.796192 1.0019531,6 H 5 v 1.470703 c 0.3030596,0.103248 0.6359838,0.188468 1,0.257813 V 20 h 5 v 2 h 1 v -2 h 5 v 1.869141 c 0.35433,-0.03772 0.69256,-0.08206 1,-0.140625 V 20 h 2.998047 c 0.189852,-0.291459 0.346391,-0.623709 0.474609,-1 H 21 v -4 h 0.986328 C 21.993223,14.677989 22,14.351286 22,14 h -4 v -4 h 4 C 22,9.648714 21.9932,9.3220114 21.98633,9 H 21 V 5 h 0.472656 C 21.344438,4.6237092 21.187899,4.2914588 20.998047,4 H 18 V 2.2714844 C 17.69256,2.2129177 17.35433,2.1685813 17,2.1308594 V 4 H 12 V 2 Z M 3,5 H 8 V 9 H 3 Z m 6,0 h 5 V 9 H 9 Z m 6,0 h 5 v 4 h -5 z m -9,5 h 5 v 4 H 6 Z m 6,0 h 5 v 4 h -5 z m -9,5 h 5 v 4 H 3 Z m 6,0 h 5 v 4 H 9 Z m 6,0 h 5 v 4 h -5 z" />
</svg>
