<?xml version="1.0" encoding="UTF-8" standalone="no"?>
<!-- Created with Inkscape (http://www.inkscape.org/) -->

<svg
   width="24"
   height="24"
   viewBox="0 0 24 24"
   version="1.1"
   id="svg5"
   inkscape:version="1.2.1 (9c6d41e410, 2022-07-14)"
   sodipodi:docname="garrysmod.svg"
   xmlns:inkscape="http://www.inkscape.org/namespaces/inkscape"
   xmlns:sodipodi="http://sodipodi.sourceforge.net/DTD/sodipodi-0.dtd"
   xmlns="http://www.w3.org/2000/svg"
   xmlns:svg="http://www.w3.org/2000/svg">
  <sodipodi:namedview
     id="namedview7"
     pagecolor="#ffffff"
     bordercolor="#000000"
     borderopacity="0.25"
     inkscape:showpageshadow="2"
     inkscape:pageopacity="0.0"
     inkscape:pagecheckerboard="0"
     inkscape:deskcolor="#d1d1d1"
     inkscape:document-units="px"
     showgrid="false"
     inkscape:zoom="33.666667"
     inkscape:cx="11.985149"
     inkscape:cy="12"
     inkscape:window-width="1920"
     inkscape:window-height="1011"
     inkscape:window-x="0"
     inkscape:window-y="32"
     inkscape:window-maximized="1"
     inkscape:current-layer="svg5" />
  <defs
     id="defs2" />
  <path
     id="path530"
     style="fill:#1295f0;fill-opacity:1;stroke-width:0.750005;stroke-linecap:round;stroke-linejoin:round"
     d="M 10,2 C 3.174114,2 2,3.2048695 2,10 v 4 c 0,6.79513 1.174114,8 8,8 h 4 c 6.825886,0 8,-1.20487 8,-8 V 10 C 22,3.2048695 20.825886,2 14,2 Z"
     sodipodi:nodetypes="sssssssss" />
  <path
     d="M 14.032,6.2147 V 7.3695 C 13.398,6.4456 12.468,6 11.229,6 8.797,6 7,8.0126 7,10.7186 c 0,2.821 1.7659,4.8502 4.2134,4.8502 1.2082,0 2.0138,-0.41244 2.8193,-1.4188 -0.07745,1.9632 -0.86745,2.92 -2.401,2.92 -0.9604,0 -1.549,-0.26397 -2.1532,-0.97335 H 7.1394 c 0.6975,1.831 2.3085,2.9035 4.415,2.9035 1.549,0 2.7728,-0.5774 3.5783,-1.6662 0.604,-0.8415 0.8675,-1.9635 0.8675,-3.712 v -7.4075 h -1.9673 m -2.571,1.798 c 1.4716,0 2.4785,1.1383 2.4785,2.8046 0,1.6498 -0.9759,2.7386 -2.4475,2.7386 -1.4716,0 -2.4166,-1.0724 -2.4166,-2.7386 0,-1.6828 0.94495,-2.8046 2.3856,-2.8046"
     style="fill:#ffffff"
     id="path1392" />
</svg>
