<?xml version="1.0" encoding="UTF-8" standalone="no"?>
<!-- Created with Inkscape (http://www.inkscape.org/) -->

<svg
   width="24"
   height="24"
   viewBox="0 0 24 24"
   version="1.1"
   id="svg5"
   inkscape:version="1.2.2 (1:1.2.2+202305151914+b0a8486541)"
   sodipodi:docname="google-sheets.svg"
   xmlns:inkscape="http://www.inkscape.org/namespaces/inkscape"
   xmlns:sodipodi="http://sodipodi.sourceforge.net/DTD/sodipodi-0.dtd"
   xmlns="http://www.w3.org/2000/svg"
   xmlns:svg="http://www.w3.org/2000/svg">
  <sodipodi:namedview
     id="namedview7"
     pagecolor="#ffffff"
     bordercolor="#000000"
     borderopacity="0.25"
     inkscape:showpageshadow="2"
     inkscape:pageopacity="0.0"
     inkscape:pagecheckerboard="0"
     inkscape:deskcolor="#d1d1d1"
     inkscape:document-units="px"
     showgrid="false"
     inkscape:zoom="34.583333"
     inkscape:cx="11.985542"
     inkscape:cy="12"
     inkscape:window-width="1920"
     inkscape:window-height="1008"
     inkscape:window-x="0"
     inkscape:window-y="0"
     inkscape:window-maximized="1"
     inkscape:current-layer="svg5"
     showguides="false" />
  <defs
     id="defs2" />
  <path
     id="path530"
     style="fill:#fafafa;fill-opacity:1;stroke-width:0.750005;stroke-linecap:round;stroke-linejoin:round"
     d="M 10,2 C 3.174114,2 2,3.2048695 2,10 v 4 c 0,6.79513 1.174114,8 8,8 h 4 c 6.825886,0 8,-1.20487 8,-8 V 10 C 22,3.2048695 20.825886,2 14,2 Z"
     sodipodi:nodetypes="sssssssss" />
  <path
     id="path1151"
     style="fill:#34a853;fill-opacity:1;stroke-width:0.249999;stroke-linecap:square;stroke-linejoin:bevel"
     d="M 8,5 C 7.4477155,5 7,5.4477155 7,6 v 12 c 0,0.552285 0.4477155,1 1,1 h 8 c 0.552285,0 1,-0.447715 1,-1 V 9 L 13.5,8.5 13,5 Z" />
  <path
     d="m 13,5 4,4 h -4 z"
     style="fill:#188038;fill-opacity:1;stroke-width:0.19245;stroke-linecap:square;stroke-linejoin:bevel"
     id="path1123" />
  <path
     id="rect1220"
     style="fill:#ffffff;stroke-width:0.61237;stroke-linecap:square;stroke-linejoin:bevel"
     d="m 8,11 v 5 h 7 v -5 z m 1,1 h 2 v 1 H 9 Z m 3,0 h 2 v 1 h -2 z m -3,2 h 2 v 1 H 9 Z m 3,0 h 2 v 1 h -2 z" />
</svg>
