<?xml version="1.0" encoding="UTF-8" standalone="no"?>
<!-- Created with Inkscape (http://www.inkscape.org/) -->

<svg
   width="24"
   height="24"
   viewBox="0 0 24 24"
   version="1.1"
   id="svg5"
   inkscape:version="1.2.1 (9c6d41e410, 2022-07-14)"
   sodipodi:docname="gthumb.svg"
   xmlns:inkscape="http://www.inkscape.org/namespaces/inkscape"
   xmlns:sodipodi="http://sodipodi.sourceforge.net/DTD/sodipodi-0.dtd"
   xmlns:xlink="http://www.w3.org/1999/xlink"
   xmlns="http://www.w3.org/2000/svg"
   xmlns:svg="http://www.w3.org/2000/svg">
  <sodipodi:namedview
     id="namedview7"
     pagecolor="#ffffff"
     bordercolor="#000000"
     borderopacity="0.25"
     inkscape:showpageshadow="2"
     inkscape:pageopacity="0.0"
     inkscape:pagecheckerboard="0"
     inkscape:deskcolor="#d1d1d1"
     inkscape:document-units="px"
     showgrid="false"
     inkscape:zoom="33"
     inkscape:cx="11.984848"
     inkscape:cy="12"
     inkscape:window-width="1920"
     inkscape:window-height="1004"
     inkscape:window-x="0"
     inkscape:window-y="0"
     inkscape:window-maximized="1"
     inkscape:current-layer="svg5"
     showguides="true" />
  <defs
     id="defs2">
    <linearGradient
       inkscape:collect="always"
       xlink:href="#linearGradient1555"
       id="linearGradient3500"
       x1="15.333333"
       y1="28.666666"
       x2="15.333333"
       y2="2"
       gradientUnits="userSpaceOnUse"
       gradientTransform="matrix(0.75,0,0,0.75,0.5,0.5)" />
    <linearGradient
       inkscape:collect="always"
       xlink:href="#linearGradient2287"
       id="linearGradient2289"
       x1="20"
       y1="18"
       x2="20"
       y2="5"
       gradientUnits="userSpaceOnUse"
       gradientTransform="translate(2.6e-7,1)" />
    <linearGradient
       inkscape:collect="always"
       id="linearGradient2287">
      <stop
         style="stop-color:#8e9529;stop-opacity:1;"
         offset="0"
         id="stop2283" />
      <stop
         style="stop-color:#bbc236;stop-opacity:1;"
         offset="1"
         id="stop2285" />
    </linearGradient>
    <linearGradient
       inkscape:collect="always"
       xlink:href="#linearGradient3796"
       id="linearGradient3798"
       x1="19"
       y1="18"
       x2="19"
       y2="5"
       gradientUnits="userSpaceOnUse"
       gradientTransform="translate(2.6e-7,1)" />
    <linearGradient
       inkscape:collect="always"
       id="linearGradient3796">
      <stop
         style="stop-color:#ff7010;stop-opacity:1;"
         offset="0"
         id="stop3792" />
      <stop
         style="stop-color:#ff9a10;stop-opacity:1;"
         offset="1"
         id="stop3794" />
    </linearGradient>
    <linearGradient
       inkscape:collect="always"
       id="linearGradient1555">
      <stop
         style="stop-color:#eac045;stop-opacity:1;"
         offset="0"
         id="stop1551" />
      <stop
         style="stop-color:#a2d2f9;stop-opacity:1;"
         offset="1"
         id="stop1553" />
    </linearGradient>
  </defs>
  <path
     id="path530"
     style="fill:url(#linearGradient3500);fill-opacity:1;stroke-width:0.750005;stroke-linecap:round;stroke-linejoin:round"
     d="M 10,2 C 3.174114,2 2,3.2048695 2,10 v 4 c 0,6.79513 1.174114,8 8,8 h 4 c 6.825886,0 8,-1.20487 8,-8 V 10 C 22,3.2048695 20.825886,2 14,2 Z"
     sodipodi:nodetypes="sssssssss" />
  <path
     d="M 8.9632077,6.0006136 C 7.0300682,6.0378876 5.3567817,7.7722552 6.3210017,11.531314 4.6317352,11.859282 3.3477751,13.759409 4.3560711,17.543963 6.6031882,15.247643 7.1076837,16.750401 8.8914277,16.394112 9.3375579,17.301607 10.314104,18.23708 12.009241,19 c 0.24559,-0.681935 1.28167,-1.707243 1.966884,-2.730197 1.956433,0.89122 2.898902,-0.52989 4.830778,2.285438 1.993059,-3.222959 1.230569,-5.322257 -0.397478,-6.144089 C 19.9093,8.1061306 15.536681,6.3781815 12.366679,7.9396193 11.550177,6.6550097 10.205885,5.9766515 8.9632077,6.0006136 Z m -0.123052,4.5296104 c 0.5019482,0.01646 0.9626502,0.179741 1.5557323,0.189011 2.192776,1.8248 3.361628,1.296638 4.619833,1.607346 -0.58806,0.218698 -1.154612,0.55397 -1.651928,1.015354 -0.456733,-0.176408 -1.058769,-0.318452 -1.837973,-0.416738 -0.611671,-0.07716 -1.16741,0.01997 -1.6280011,0.240974 -0.8324857,-1.148177 -2.0531487,-1.736236 -3.1710382,-1.684275 0.928747,-0.795942 1.5496625,-0.970156 2.113375,-0.951672 z"
     style="fill:url(#linearGradient2289);fill-opacity:1;fill-rule:evenodd"
     id="path467"
     sodipodi:nodetypes="sccccccccssccccccs" />
  <path
     d="M 15.396545,18.952968 C 14.664997,19.454799 12.783461,15.791206 11.465929,15.073012 10.029356,15.425227 8.2619479,18.397643 7.5389822,17.853974 6.7121744,17.232216 7.7274456,13.398368 8.2035415,12.560058 8.8171511,11.479615 4.6712806,11.394145 5.0209819,10.479954 5.3659792,9.5780465 8.7692753,8.7451204 9.8409029,8.5896399 10.229534,7.5180463 11.23619,5.8307472 12.613242,6.0137336 c 1.377055,0.182987 2.144922,2.2526431 2.430945,3.3141165 1.431007,0.2529202 3.775634,1.2564009 3.951325,2.2269289 0.173327,0.957478 -4.734593,0.791535 -4.109262,1.902127 0.456521,0.810791 1.058134,4.961654 0.510294,5.496062 z"
     style="fill:url(#linearGradient3798);fill-opacity:1"
     id="path866"
     sodipodi:nodetypes="scssccscssss" />
  <ellipse
     style="opacity:0.2;fill:#000000;fill-opacity:1;stroke-width:2;stroke-linecap:round;stroke-linejoin:round"
     id="path3887"
     cx="11.5"
     cy="11"
     rx="2.5"
     ry="2" />
  <path
     d="m 11.316524,7.7810641 c -0.06905,-0.00219 -0.126782,0.052043 -0.128906,0.1210938 l -0.105469,3.0937501 c -0.0022,0.06905 0.05204,0.126782 0.121094,0.128906 0.06905,0.0022 0.126782,-0.05204 0.128906,-0.121094 l 0.105469,-3.0937497 c 0.0022,-0.069049 -0.05204,-0.1267823 -0.121094,-0.1289062 z M 13.03918,9.622861 c -0.0507,-0.00233 -0.09778,0.026223 -0.11914,0.072266 l -1.033203,2.251953 c -0.0291,0.06256 -0.002,0.136872 0.06055,0.166015 0.06256,0.0291 0.136872,0.002 0.166015,-0.06055 l 1.033203,-2.2519527 c 0.0291,-0.062564 0.002,-0.1368724 -0.06055,-0.1660156 -0.01471,-0.00692 -0.03064,-0.010898 -0.04688,-0.011719 z m -3.5136701,0.535156 c -0.02202,2.52e-4 -0.04358,0.0063 -0.0625,0.01758 -0.0597,0.03411 -0.08064,0.110029 -0.04687,0.169922 l 0.9746081,1.716797 c 0.03416,0.06087 0.111544,0.08198 0.171875,0.04687 0.06087,-0.03416 0.08198,-0.111543 0.04687,-0.171874 L 9.6329319,10.22247 c -0.01617,-0.02964 -0.04365,-0.05148 -0.07617,-0.06055 -0.01021,-0.0026 -0.02071,-0.0039 -0.03125,-0.0039 z"
     style="color:#000000;fill:#ffffe0;stroke-linecap:round;-inkscape-stroke:none"
     id="path5727" />
</svg>
