<?xml version="1.0" encoding="UTF-8" standalone="no"?>
<!-- Created with Inkscape (http://www.inkscape.org/) -->

<svg
   width="24"
   height="24"
   viewBox="0 0 24 24"
   version="1.1"
   id="svg5"
   inkscape:version="1.2.2 (b0a8486541, 2022-12-01)"
   sodipodi:docname="htop.svg"
   xmlns:inkscape="http://www.inkscape.org/namespaces/inkscape"
   xmlns:sodipodi="http://sodipodi.sourceforge.net/DTD/sodipodi-0.dtd"
   xmlns:xlink="http://www.w3.org/1999/xlink"
   xmlns="http://www.w3.org/2000/svg"
   xmlns:svg="http://www.w3.org/2000/svg">
  <sodipodi:namedview
     id="namedview7"
     pagecolor="#ffffff"
     bordercolor="#000000"
     borderopacity="0.25"
     inkscape:showpageshadow="2"
     inkscape:pageopacity="0.0"
     inkscape:pagecheckerboard="0"
     inkscape:deskcolor="#d1d1d1"
     inkscape:document-units="px"
     showgrid="false"
     inkscape:zoom="32.833333"
     inkscape:cx="12"
     inkscape:cy="12"
     inkscape:window-width="1920"
     inkscape:window-height="1011"
     inkscape:window-x="0"
     inkscape:window-y="0"
     inkscape:window-maximized="1"
     inkscape:current-layer="svg5"
     showguides="true" />
  <defs
     id="defs2">
    <linearGradient
       inkscape:collect="always"
       xlink:href="#4852"
       id="linearGradient3500"
       x1="2"
       y1="2"
       x2="28.666666"
       y2="28.666666"
       gradientUnits="userSpaceOnUse"
       gradientTransform="matrix(0.75,0,0,0.75,0.5,0.5)" />
    <linearGradient
       inkscape:collect="always"
       id="4852">
      <stop
         style="stop-color:#272727;stop-opacity:1;"
         offset="0"
         id="stop14555" />
      <stop
         style="stop-color:#5d5d5d;stop-opacity:1;"
         offset="1"
         id="stop14557" />
    </linearGradient>
  </defs>
  <path
     id="path530"
     style="fill:url(#linearGradient3500);fill-opacity:1;stroke-width:0.750005;stroke-linecap:round;stroke-linejoin:round"
     d="M 10,2 C 3.174114,2 2,3.2048695 2,10 v 4 c 0,6.79513 1.174114,8 8,8 h 4 c 6.825886,0 8,-1.20487 8,-8 V 10 C 22,3.2048695 20.825886,2 14,2 Z"
     sodipodi:nodetypes="sssssssss" />
  <path
     id="path1240"
     style="fill:#8bc34a"
     d="M 6,5 V 9 H 7 V 5 Z M 8,5 V 9 H 9 V 5 Z m -2,5 v 4 h 1 v -4 z m 2,0 v 4 h 1 v -4 z m -2,5 v 4 h 1 v -4 z m 2,0 v 4 h 1 v -4 z"
     sodipodi:nodetypes="cccccccccccccccccccccccccccccc" />
  <path
     d="M 10,9.9999998 V 14 h 1 V 9.9999998 Z m 2,0 V 14 h 1 V 9.9999998 Z"
     style="fill:#ff9800"
     id="path1212"
     sodipodi:nodetypes="cccccccccc" />
  <path
     id="path1128"
     style="fill:#ff5722"
     d="m 14,5 v 4 h 1 V 5 Z m 2,0 v 4 h 1 V 5 Z m -2,5 v 4 h 1 v -4 z m 2,0 v 4 h 1 v -4 z m -2,5 v 4 h 1 v -4 z m 2,0 v 4 h 1 v -4 z" />
  <path
     id="path1156"
     style="fill:#f9f9f9"
     d="M 4,5 V 8.9999998 H 5 V 5 Z m 14,0 v 3.9999998 h 1 V 5 Z M 4,9.9999998 V 14 H 5 V 9.9999998 Z m 14,0 V 14 h 1 V 9.9999998 Z M 4,15 v 4 h 1 v -4 z m 14,0 v 4 h 1 v -4 z"
     sodipodi:nodetypes="cccccccccccccccccccccccccccccc" />
</svg>
