<?xml version="1.0" encoding="UTF-8" standalone="no"?>
<!-- Created with Inkscape (http://www.inkscape.org/) -->

<svg
   width="24"
   height="24"
   viewBox="0 0 24 24"
   version="1.1"
   id="svg5"
   inkscape:version="1.2.2 (1:1.2.2+202305151914+b0a8486541)"
   sodipodi:docname="hwloc.svg"
   xmlns:inkscape="http://www.inkscape.org/namespaces/inkscape"
   xmlns:sodipodi="http://sodipodi.sourceforge.net/DTD/sodipodi-0.dtd"
   xmlns:xlink="http://www.w3.org/1999/xlink"
   xmlns="http://www.w3.org/2000/svg"
   xmlns:svg="http://www.w3.org/2000/svg">
  <sodipodi:namedview
     id="namedview7"
     pagecolor="#ffffff"
     bordercolor="#000000"
     borderopacity="0.25"
     inkscape:showpageshadow="2"
     inkscape:pageopacity="0.0"
     inkscape:pagecheckerboard="0"
     inkscape:deskcolor="#d1d1d1"
     inkscape:document-units="px"
     showgrid="false"
     inkscape:zoom="33.75"
     inkscape:cx="11.985185"
     inkscape:cy="12"
     inkscape:window-width="1920"
     inkscape:window-height="1012"
     inkscape:window-x="0"
     inkscape:window-y="0"
     inkscape:window-maximized="1"
     inkscape:current-layer="svg5"
     showguides="true" />
  <defs
     id="defs2">
    <linearGradient
       inkscape:collect="always"
       xlink:href="#linearGradient2917"
       id="linearGradient3500"
       x1="2"
       y1="2"
       x2="28.666666"
       y2="28.666666"
       gradientUnits="userSpaceOnUse"
       gradientTransform="matrix(0.75,0,0,0.75,0.5,0.5)" />
    <linearGradient
       inkscape:collect="always"
       xlink:href="#linearGradient2866"
       id="linearGradient2746"
       x1="37"
       y1="37"
       x2="9"
       y2="9"
       gradientUnits="userSpaceOnUse"
       gradientTransform="matrix(0.19642857,0,0,0.19642857,10.232143,10.232143)" />
    <linearGradient
       inkscape:collect="always"
       id="linearGradient2866">
      <stop
         style="stop-color:#96d36f;stop-opacity:1;"
         offset="0"
         id="stop2862" />
      <stop
         style="stop-color:#85ca73;stop-opacity:1;"
         offset="1"
         id="stop2864" />
    </linearGradient>
    <linearGradient
       inkscape:collect="always"
       id="linearGradient2917">
      <stop
         style="stop-color:#0c8f61;stop-opacity:1;"
         offset="0"
         id="stop2913" />
      <stop
         style="stop-color:#3bb298;stop-opacity:1;"
         offset="1"
         id="stop2915" />
    </linearGradient>
  </defs>
  <path
     id="path530"
     style="fill:url(#linearGradient3500);fill-opacity:1.0;stroke-width:0.750005;stroke-linecap:round;stroke-linejoin:round"
     d="M 10,2 C 3.174114,2 2,3.2048695 2,10 v 4 c 0,6.79513 1.174114,8 8,8 h 4 c 6.825886,0 8,-1.20487 8,-8 V 10 C 22,3.2048695 20.825886,2 14,2 Z"
     sodipodi:nodetypes="sssssssss" />
  <g
     id="g3010"
     transform="matrix(1.4142136,1.4142136,-1.4142136,1.4142136,12,-29.719301)">
    <rect
       style="fill:url(#linearGradient2746);fill-opacity:1;stroke-width:0.196428"
       id="rect2738"
       width="5.4999995"
       height="5.4999995"
       x="12"
       y="12"
       ry="0.49999997" />
    <path
       id="rect2975"
       style="opacity:0.6;fill:#ffffff;fill-opacity:1;stroke-width:0.25"
       d="M 12.499999,13 C 12.223,13 12,13.223 12,13.499999 V 14 c 0,-0.277001 0.223,-0.5 0.499999,-0.5 H 17 c 0.276999,0 0.5,0.222999 0.5,0.5 V 13.499999 C 17.5,13.223 17.276999,13 17,13 Z"
       sodipodi:nodetypes="sscsscsss" />
    <path
       id="rect1280"
       style="opacity:0.6;fill:#ffffff;stroke-width:0.666667"
       d="m 12.5,15 v 0.25 h 2 V 15 Z m 0,0.5 V 17 h 2 v -1.5 z" />
    <path
       id="rect1282"
       style="opacity:0.6;fill:#ffffff;stroke-width:0.666667"
       d="m 15,15 v 0.25 h 2 V 15 Z m 0,0.5 V 17 h 2 v -1.5 z" />
    <path
       id="rect1284"
       style="opacity:1;fill:#4a4a4a;fill-opacity:1;stroke-width:0.866025"
       d="m 12.75,15.75 v 0.375 h 0.625 V 15.75 Z m 0.875,0 v 0.375 H 14.25 V 15.75 Z m -0.875,0.625 v 0.375 h 0.625 v -0.375 z m 0.875,0 v 0.375 h 0.625 v -0.375 z" />
  </g>
</svg>
