<?xml version="1.0" encoding="UTF-8" standalone="no"?>
<!-- Created with Inkscape (http://www.inkscape.org/) -->

<svg
   width="24"
   height="24"
   viewBox="0 0 24 24"
   version="1.1"
   id="svg5"
   inkscape:version="1.2.1 (9c6d41e410, 2022-07-14)"
   sodipodi:docname="kalk.svg"
   xmlns:inkscape="http://www.inkscape.org/namespaces/inkscape"
   xmlns:sodipodi="http://sodipodi.sourceforge.net/DTD/sodipodi-0.dtd"
   xmlns:xlink="http://www.w3.org/1999/xlink"
   xmlns="http://www.w3.org/2000/svg"
   xmlns:svg="http://www.w3.org/2000/svg">
  <sodipodi:namedview
     id="namedview7"
     pagecolor="#ffffff"
     bordercolor="#000000"
     borderopacity="0.25"
     inkscape:showpageshadow="2"
     inkscape:pageopacity="0.0"
     inkscape:pagecheckerboard="0"
     inkscape:deskcolor="#d1d1d1"
     inkscape:document-units="px"
     showgrid="false"
     inkscape:zoom="13.145758"
     inkscape:cx="1.2551578"
     inkscape:cy="17.343998"
     inkscape:window-width="1920"
     inkscape:window-height="1004"
     inkscape:window-x="0"
     inkscape:window-y="0"
     inkscape:window-maximized="1"
     inkscape:current-layer="svg5"
     showguides="true" />
  <defs
     id="defs2">
    <linearGradient
       inkscape:collect="always"
       xlink:href="#linearGradient1606"
       id="linearGradient3500"
       x1="2"
       y1="2"
       x2="31.333334"
       y2="31.333334"
       gradientUnits="userSpaceOnUse"
       gradientTransform="matrix(0.75,0,0,0.75,0.5,0.5)" />
    <linearGradient
       inkscape:collect="always"
       id="linearGradient1606">
      <stop
         style="stop-color:#eaebed;stop-opacity:1;"
         offset="0"
         id="stop1602" />
      <stop
         style="stop-color:#f9fafa;stop-opacity:1;"
         offset="1"
         id="stop1604" />
    </linearGradient>
    <linearGradient
       inkscape:collect="always"
       xlink:href="#linearGradient1084"
       id="linearGradient1525"
       x1="39.553257"
       y1="28.459597"
       x2="46.016529"
       y2="45.451828"
       gradientUnits="userSpaceOnUse"
       gradientTransform="translate(-26.553258,-25.459597)" />
    <linearGradient
       inkscape:collect="always"
       id="linearGradient1084">
      <stop
         style="stop-color:#ffbe41;stop-opacity:1;"
         offset="0"
         id="stop1080" />
      <stop
         style="stop-color:#f98b00;stop-opacity:1;"
         offset="1"
         id="stop1082" />
    </linearGradient>
  </defs>
  <path
     id="path530"
     style="fill:url(#linearGradient3500);fill-opacity:1;stroke-width:0.750005;stroke-linecap:round;stroke-linejoin:round"
     d="M 10,2 C 3.174114,2 2,3.2048695 2,10 v 4 c 0,6.79513 1.174114,8 8,8 h 4 c 6.825886,0 8,-1.20487 8,-8 V 10 C 22,3.2048695 20.825886,2 14,2 Z"
     sodipodi:nodetypes="sssssssss" />
  <path
     id="rect686"
     style="fill:url(#linearGradient1525);fill-opacity:1;stroke-width:1.57143;stroke-linecap:round;stroke-linejoin:round"
     d="m 13,3 c -0.553998,0 -1,0.4460016 -1,1 v 16 c 0,0.553998 0.446002,1 1,1 h 2 c 4.605813,0 6,-1.308028 6,-6 V 9 C 21,4.3080278 19.605813,3 15,3 Z"
     sodipodi:nodetypes="sccssccss" />
  <path
     id="path364"
     style="fill:#666666;stroke-width:5.7966;stroke-linejoin:round"
     d="m 7.0007578,5 v 2 h -2 v 1.0000001 h 2 V 10 h 1 V 8.0000001 H 10.000758 V 7 H 8.0007578 V 5 Z M 5.0002275,16 v 1 h 4.999545 v -1 z"
     sodipodi:nodetypes="cccccccccccccccccc" />
  <path
     d="m 14,10 v 0.999999 h 5 V 10 Z m 0,2.000001 V 13 h 5 v -0.999999 z"
     style="fill:#ffffff;stroke-width:5.79657;stroke-linejoin:round"
     id="path697"
     sodipodi:nodetypes="cccccccccc" />
</svg>
