<?xml version="1.0" encoding="UTF-8" standalone="no"?>
<!-- Created with Inkscape (http://www.inkscape.org/) -->

<svg
   width="24"
   height="24"
   viewBox="0 0 24 24"
   version="1.1"
   id="svg5"
   inkscape:version="1.2.1 (9c6d41e410, 2022-07-14)"
   sodipodi:docname="kleopatra.svg"
   xmlns:inkscape="http://www.inkscape.org/namespaces/inkscape"
   xmlns:sodipodi="http://sodipodi.sourceforge.net/DTD/sodipodi-0.dtd"
   xmlns:xlink="http://www.w3.org/1999/xlink"
   xmlns="http://www.w3.org/2000/svg"
   xmlns:svg="http://www.w3.org/2000/svg">
  <sodipodi:namedview
     id="namedview7"
     pagecolor="#ffffff"
     bordercolor="#000000"
     borderopacity="0.25"
     inkscape:showpageshadow="2"
     inkscape:pageopacity="0.0"
     inkscape:pagecheckerboard="0"
     inkscape:deskcolor="#d1d1d1"
     inkscape:document-units="px"
     showgrid="false"
     inkscape:zoom="35.666667"
     inkscape:cx="11.985981"
     inkscape:cy="12"
     inkscape:window-width="1920"
     inkscape:window-height="1014"
     inkscape:window-x="0"
     inkscape:window-y="32"
     inkscape:window-maximized="1"
     inkscape:current-layer="svg5"
     showguides="true" />
  <defs
     id="defs2">
    <linearGradient
       inkscape:collect="always"
       xlink:href="#linearGradient1142"
       id="linearGradient3500"
       x1="2"
       y1="2"
       x2="28.666666"
       y2="28.666666"
       gradientUnits="userSpaceOnUse"
       gradientTransform="matrix(0.75,0,0,0.75,0.5,0.5)" />
    <linearGradient
       inkscape:collect="always"
       id="linearGradient1142">
      <stop
         style="stop-color:#da9925;stop-opacity:1;"
         offset="0"
         id="stop1138" />
      <stop
         style="stop-color:#e9b68c;stop-opacity:1;"
         offset="1"
         id="stop1140" />
    </linearGradient>
  </defs>
  <path
     id="path530"
     style="fill:url(#linearGradient3500);fill-opacity:1;stroke-width:0.750005;stroke-linecap:round;stroke-linejoin:round"
     d="M 10,2 C 3.174114,2 2,3.2048695 2,10 v 4 c 0,6.79513 1.174114,8 8,8 h 4 c 6.825886,0 8,-1.20487 8,-8 V 10 C 22,3.2048695 20.825886,2 14,2 Z"
     sodipodi:nodetypes="sssssssss" />
  <path
     d="M 10.607388,7 C 9.2852821,7 7.8929881,7.3569274 6.4618641,8.0615277 c -1.164897,0.5735248 -1.66315,1.0462682 -1.387701,1.3183648 0.09717,0.095985 0.03043,0.1163505 1.662116,-0.511721 1.115098,-0.4292263 2.48616,-0.7916107 3.227552,-0.8535189 1.1447729,-0.095591 2.5082259,0.2017103 4.9218939,1.0722697 0.866755,0.3126198 1.863534,0.6408866 2.214853,0.729495 0.751365,0.1895067 0.830599,0.1600086 1.457037,0.1621101 L 19,9.9795274 V 9.6074559 c 0,-0.4239862 -0.05137,-0.4638693 -0.592776,-0.4638693 -1.207006,0 -1.5076,-0.1923758 -3.324232,-0.9873085 C 13.137217,7.3048317 11.958111,7.0000235 10.607388,7.0000235 Z m -0.7890649,3.005872 c -0.201424,0.0073 -0.381783,0.02627 -0.52637,0.05566 -0.666864,0.135573 -1.559643,0.627988 -2.10743,1.127934 -0.849092,0.774935 -1.808829,2.223561 -1.714851,2.588877 0.04232,0.164506 0.0868,0.17521 0.834965,0.206055 0.434318,0.01791 1.285406,0.115551 1.952156,0.215822 l 1.261723,0.181642 v 0.509767 c -0.209128,0.934882 -0.05967,1.439801 -0.02246,1.78028 0.139368,1.232269 0.141219,1.36592 0.463869,1.321294 0.4984249,-0.799698 0.5559609,-2.332937 0.5595719,-3.216809 l 0.507816,0.48633 c 1.393349,1.212966 1.804054,1.19558 2.999034,1.762702 0.988378,0.397609 1.835283,0.57333 2.790051,0.504886 0.586913,0 1.328579,-0.641579 1.32813,-1.383794 -2.42e-4,-0.572312 -0.163406,-0.882545 -0.560549,-1.066411 -0.730102,-0.338016 -1.540045,0.0633 -1.540045,0.81348 0,0.73628 0.719223,1.145139 1.196294,0.67969 0.199005,-0.194159 0.247765,-0.520847 0.106445,-0.717776 -0.06272,-0.0874 -0.06944,-0.07281 -0.03027,0.0625 0.135162,0.466945 -0.233406,0.790003 -0.657229,0.576174 -0.442932,-0.223469 -0.3589,-0.941321 0.124024,-1.059574 0.238542,-0.05841 0.6561,0.145544 0.812503,0.457032 0.08429,0.167853 0.08788,0.269644 0.01563,0.504885 -0.23699,0.771734 -1.30244,0.775458 -2.905285,0.0127 -0.38852,-0.18489 -0.909232,-0.463734 -1.157231,-0.620119 -0.427434,-0.269535 -0.948321,-0.49521 -1.694343,-1.13477 -0.395202,-0.338808 -0.453576,-0.292984 0.577151,-0.457033 0.296334,-0.04716 1.162816,-0.292263 1.924813,-0.544924 1.353726,-0.448864 1.405154,-0.659236 2.23243,-0.665042 0.465668,-0.0033 -0.307739,-0.03179 0.464846,10e-4 l 1.446296,0.05857 v -0.744148 -0.743168 l -1.676765,-0.04101 c -2.338491,-0.05993 -1.198589,0.06111 -3.612319,-0.848641 -0.4609,-0.173715 -0.95215,-0.383597 -1.274419,-0.465822 C 11.365,10.058297 10.422601,9.9839895 9.8183331,10.005872 Z m 2.7382919,1.184574 c 0.02802,0 0.427115,0.220489 1.070316,0.48926 0.643202,0.268771 1.252156,0.508382 1.353522,0.533206 0.101368,0.02482 0.184571,0.07169 0.184571,0.103516 0,0.03182 -0.389964,0.246824 -0.866215,0.477541 -0.971233,0.470508 -1.547888,0.667436 -2.486338,0.712894 l -0.23047,0.0098 0.250001,-0.191407 c 0.13761,-0.10581 0.345525,-0.350775 0.461917,-0.543948 0.184659,-0.306472 0.211914,-0.430112 0.211914,-0.970708 0,-0.340742 0.02276,-0.62012 0.05078,-0.620119 z m -4.1914229,0.163087 c 0.115355,-0.02133 0.11513,0.153276 0.116211,0.501955 0.0022,0.686175 0.170763,1.059682 0.656253,1.453131 l 0.317384,0.257814 -1.491217,-0.135743 c -0.792835,-0.07379 -1.409171,-0.149923 -1.43067,-0.170899 -0.07706,-0.07518 0.348425,-0.649626 0.971684,-1.233404 0.464062,-0.434666 0.745,-0.651529 0.860355,-0.672854 z"
     style="fill:#482f00;stroke-width:0.500002"
     id="path2297"
     sodipodi:nodetypes="cssssssccsssccscsscccccccccccsssssssscssscsccccccssssssssscccsssscccccss" />
</svg>
