<?xml version="1.0" encoding="UTF-8" standalone="no"?>
<!-- Created with Inkscape (http://www.inkscape.org/) -->

<svg
   width="24"
   height="24"
   viewBox="0 0 24 24"
   version="1.1"
   id="svg5"
   inkscape:version="1.2.1 (9c6d41e410, 2022-07-14)"
   sodipodi:docname="kmines.svg"
   xmlns:inkscape="http://www.inkscape.org/namespaces/inkscape"
   xmlns:sodipodi="http://sodipodi.sourceforge.net/DTD/sodipodi-0.dtd"
   xmlns:xlink="http://www.w3.org/1999/xlink"
   xmlns="http://www.w3.org/2000/svg"
   xmlns:svg="http://www.w3.org/2000/svg">
  <sodipodi:namedview
     id="namedview7"
     pagecolor="#ffffff"
     bordercolor="#000000"
     borderopacity="0.25"
     inkscape:showpageshadow="2"
     inkscape:pageopacity="0.0"
     inkscape:pagecheckerboard="0"
     inkscape:deskcolor="#d1d1d1"
     inkscape:document-units="px"
     showgrid="false"
     inkscape:zoom="34.416667"
     inkscape:cx="11.985472"
     inkscape:cy="12"
     inkscape:window-width="1920"
     inkscape:window-height="1006"
     inkscape:window-x="0"
     inkscape:window-y="0"
     inkscape:window-maximized="1"
     inkscape:current-layer="svg5"
     showguides="false" />
  <defs
     id="defs2">
    <linearGradient
       inkscape:collect="always"
       xlink:href="#linearGradient1144"
       id="linearGradient3500"
       x1="2"
       y1="2"
       x2="31.333334"
       y2="31.333334"
       gradientUnits="userSpaceOnUse"
       gradientTransform="matrix(0.75,0,0,0.75,0.5,0.5)" />
    <linearGradient
       inkscape:collect="always"
       id="linearGradient1144">
      <stop
         style="stop-color:#adb2b9;stop-opacity:1;"
         offset="0"
         id="stop1140" />
      <stop
         style="stop-color:#e0e2e4;stop-opacity:1;"
         offset="1"
         id="stop1142" />
    </linearGradient>
    <linearGradient
       inkscape:collect="always"
       xlink:href="#linearGradient1283"
       id="linearGradient9629"
       x1="24"
       y1="40"
       x2="24"
       y2="8"
       gradientUnits="userSpaceOnUse"
       gradientTransform="scale(0.50000001)" />
    <linearGradient
       inkscape:collect="always"
       id="linearGradient1283">
      <stop
         style="stop-color:#3f3f3f;stop-opacity:1;"
         offset="0"
         id="stop1279" />
      <stop
         style="stop-color:#666666;stop-opacity:1;"
         offset="1"
         id="stop1281" />
    </linearGradient>
  </defs>
  <path
     id="path530"
     style="fill:url(#linearGradient3500);fill-opacity:1;stroke-width:0.750005;stroke-linecap:round;stroke-linejoin:round"
     d="M 10,2 C 3.174114,2 2,3.2048695 2,10 v 4 c 0,6.79513 1.174114,8 8,8 h 4 c 6.825886,0 8,-1.20487 8,-8 V 10 C 22,3.2048695 20.825886,2 14,2 Z"
     sodipodi:nodetypes="sssssssss" />
  <path
     id="path9265"
     style="fill:url(#linearGradient9629);fill-opacity:1;stroke-width:2.6;stroke-linecap:round;stroke-linejoin:round"
     d="m 12,4.0000003 c -0.553999,0 -1,0.446001 -1,1 v 1.0000001 c 0,0.5539989 0.446001,1 1,1 0.553999,0 1,-0.4460011 1,-1 V 5.0000003 c 0,-0.553999 -0.446001,-1 -1,-1 z m 2,1.817383 v 0.1826171 c 0,1.107995 -0.892005,2 -2,2 -1.107995,0 -2,-0.892005 -2,-2 V 5.8261723 A 6.5000001,6.5000001 0 0 0 7.651367,7.1796879 l 0.152344,0.08789 C 8.763262,7.8215754 9.0901305,9.0404484 8.536133,9.9999999 7.9821355,10.959551 6.763262,11.286419 5.8037109,10.732422 l -0.144531,-0.08301 A 6.5000001,6.5000001 0 0 0 5.4999999,12 a 6.5000001,6.5000001 0 0 0 0.15918,1.350586 l 0.144531,-0.08301 c 0.2998591,-0.173123 0.6250131,-0.25985 0.9472656,-0.268555 0.7089575,-0.01915 1.404282,0.341285 1.7851565,1.000977 0.5539975,0.959551 0.2271295,2.178424 -0.732422,2.732422 L 7.651367,16.82031 A 6.5000001,6.5000001 0 0 0 10,18.173825 v -0.173828 c 0,-1.107994 0.892005,-1.999999 2,-1.999999 1.107995,0 2,0.892005 2,1.999999 v 0.173828 a 6.5000001,6.5000001 0 0 0 2.348633,-1.353515 l -0.152344,-0.08789 c -0.959551,-0.553998 -1.28642,-1.772871 -0.732422,-2.732422 0.380874,-0.659692 1.076199,-1.020126 1.785156,-1.000977 0.322253,0.0087 0.647407,0.09543 0.947266,0.268555 l 0.144531,0.08301 A 6.5000001,6.5000001 0 0 0 18.5,12 6.5000001,6.5000001 0 0 0 18.354492,10.640625 l -0.158203,0.0918 C 17.236737,11.28642 16.017864,10.959552 15.463867,10 14.909869,9.0404489 15.236737,7.8215759 16.196289,7.2675784 l 0.15918,-0.091797 A 6.5000001,6.5000001 0 0 0 14,5.8173833 Z M 5.9638669,7.4990239 c -0.354479,-0.00957 -0.701164,0.17113 -0.891601,0.5009765 -0.277,0.479777 -0.114543,1.089211 0.365234,1.366211 l 0.8662111,0.5 C 6.783488,10.14321 7.392922,9.9797774 7.669922,9.5000004 7.946921,9.0202234 7.783488,8.4107894 7.303711,8.1337894 l -0.866211,-0.5 C 6.2875695,7.5472274 6.124994,7.5033759 5.9638669,7.4990239 Z m 12.0722661,0 c -0.161127,0.00435 -0.323703,0.048205 -0.473633,0.1347655 l -0.866211,0.5 c -0.479777,0.277 -0.64321,0.886434 -0.366211,1.366211 0.277,0.479777 0.886434,0.6432096 1.366211,0.366211 l 0.866211,-0.5 C 19.042276,9.0892119 19.204734,8.4797779 18.927734,8.0000004 18.737297,7.6701539 18.390612,7.4894489 18.036133,7.4990239 Z M 12,10 a 2,2 0 0 1 2,2 2,2 0 0 1 -2,2.000001 A 2,2 0 0 1 10,12 2,2 0 0 1 12,10 Z m 0,1 a 1,1 0 0 0 -1,1 1,1 0 0 0 1,1.000001 A 1,1 0 0 0 13,12 1,1 0 0 0 12,11 Z m -5.222656,2.999024 c -0.161127,0.0043 -0.3237025,0.0482 -0.473633,0.134766 l -0.8662111,0.5 c -0.479777,0.277 -0.642234,0.886434 -0.365234,1.366211 0.276999,0.479777 0.885457,0.64321 1.3652341,0.366211 l 0.866211,-0.5 c 0.479777,-0.277 0.64321,-0.886434 0.366211,-1.366211 C 7.4794845,14.170154 7.131823,13.989449 6.777344,13.999024 Z m 10.445312,0 c -0.354479,-0.0096 -0.702141,0.17113 -0.892578,0.500977 -0.277,0.479777 -0.113566,1.089211 0.366211,1.366211 l 0.866211,0.5 c 0.479777,0.276999 1.088235,0.113566 1.365234,-0.366211 0.276999,-0.479777 0.114543,-1.089211 -0.365234,-1.366211 l -0.866211,-0.5 C 17.546358,14.04723 17.383783,14.003376 17.222656,13.999024 Z M 12,17.000001 c -0.553999,0 -1,0.446001 -1,0.999999 v 1 c 0,0.553999 0.446001,1 1,1 0.553999,0 1,-0.446001 1,-1 v -1 c 0,-0.553998 -0.446001,-0.999999 -1,-0.999999 z" />
</svg>
