<?xml version="1.0" encoding="UTF-8" standalone="no"?>
<!-- Created with Inkscape (http://www.inkscape.org/) -->

<svg
   width="24"
   height="24"
   viewBox="0 0 24 24"
   version="1.1"
   id="svg5"
   inkscape:version="1.2.1 (9c6d41e410, 2022-07-14)"
   sodipodi:docname="libreoffice-draw.svg"
   xmlns:inkscape="http://www.inkscape.org/namespaces/inkscape"
   xmlns:sodipodi="http://sodipodi.sourceforge.net/DTD/sodipodi-0.dtd"
   xmlns:xlink="http://www.w3.org/1999/xlink"
   xmlns="http://www.w3.org/2000/svg"
   xmlns:svg="http://www.w3.org/2000/svg">
  <sodipodi:namedview
     id="namedview7"
     pagecolor="#ffffff"
     bordercolor="#000000"
     borderopacity="0.25"
     inkscape:showpageshadow="2"
     inkscape:pageopacity="0.0"
     inkscape:pagecheckerboard="0"
     inkscape:deskcolor="#d1d1d1"
     inkscape:document-units="px"
     showgrid="false"
     inkscape:zoom="34.083333"
     inkscape:cx="11.98533"
     inkscape:cy="12"
     inkscape:window-width="1920"
     inkscape:window-height="1004"
     inkscape:window-x="0"
     inkscape:window-y="0"
     inkscape:window-maximized="1"
     inkscape:current-layer="svg5"
     showguides="true" />
  <defs
     id="defs2">
    <linearGradient
       inkscape:collect="always"
       xlink:href="#linearGradient16449"
       id="linearGradient3500"
       x1="2"
       y1="2"
       x2="31.333334"
       y2="31.333334"
       gradientUnits="userSpaceOnUse"
       gradientTransform="matrix(0.75,0,0,0.75,0.5,0.5)" />
    <linearGradient
       inkscape:collect="always"
       id="linearGradient16449">
      <stop
         style="stop-color:#ee9b00;stop-opacity:1;"
         offset="0"
         id="stop16445" />
      <stop
         style="stop-color:#eece00;stop-opacity:1;"
         offset="1"
         id="stop16447" />
    </linearGradient>
  </defs>
  <path
     id="path530"
     style="fill:url(#linearGradient3500);fill-opacity:1;stroke-width:0.750005;stroke-linecap:round;stroke-linejoin:round"
     d="M 10,2 C 3.174114,2 2,3.2048695 2,10 v 4 c 0,6.79513 1.174114,8 8,8 h 4 c 6.825886,0 8,-1.20487 8,-8 V 10 C 22,3.2048695 20.825886,2 14,2 Z"
     sodipodi:nodetypes="sssssssss" />
  <path
     id="path9276"
     style="fill:#f2f2f2;fill-opacity:1;stroke-width:0.750005;stroke-linecap:round;stroke-linejoin:round"
     d="M 10,4 C 4.9182665,4 4,5.1039036 4,10 v 4 c 0,4.896097 0.9182661,6 6,6 h 4 c 5.081734,0 6,-1.103903 6,-6 V 9 L 15,4 Z"
     sodipodi:nodetypes="ssssssccs" />
  <path
     d="m 15.58594,9.04194 c -0.233,-0.07208 -0.536178,-0.1146611 -0.830079,0.048828 -0.461486,0.2566944 -0.632553,0.7807558 -0.632812,1.212891 -2.59e-4,0.432134 0.10652,0.854896 0.199219,1.253906 0.0927,0.39901 0.170348,0.774984 0.167968,1.013672 -0.0024,0.238687 -0.0088,0.255016 -0.115234,0.308593 -0.101222,0.05095 -0.126491,0.04586 -0.169922,0.03516 -0.04343,-0.01071 -0.122472,-0.05 -0.226562,-0.148438 -0.208181,-0.196875 -0.474621,-0.604836 -0.777344,-1.046878 -0.302723,-0.442042 -0.649679,-0.924578 -1.138672,-1.283203 -0.488993,-0.358625 -1.156251,-0.563238 -1.896484,-0.394531 l -0.0098,0.002 -0.0098,0.002 c -0.5192497,0.14059 -0.8798415,0.54742 -1.1230378,1.013578 -0.2431963,0.466157 -0.3895143,1.020607 -0.4609375,1.605469 -0.015959,0.130679 0.010806,0.265451 0.00195,0.398437 -0.096114,-0.0034 -0.1762713,-0.02718 -0.2734375,-0.0293 l -0.7695312,-0.01758 -0.5,-0.0098 -0.021484,1 0.5,0.0098 0.7695312,0.01758 c 0.1151344,0.0025 0.1907886,0.02672 0.3027344,0.03125 0.059605,0.721517 0.2025505,1.419456 0.546875,1.976563 l 0.00977,0.01563 0.011719,0.01367 c 0.6306515,0.868745 1.6862694,1.142561 2.4980464,0.8125 0.405889,-0.165031 0.760791,-0.527935 0.857422,-1.007813 0.09663,-0.479878 -0.04757,-1.011619 -0.40625,-1.568359 -0.362005,-0.561916 -0.964828,-0.86516 -1.623046,-1.035156 -0.257632,-0.06654 -0.5711209,-0.05865 -0.851563,-0.09375 0.00555,-0.146807 -0.077902,-0.250464 -0.060547,-0.392579 0.060295,-0.493738 0.1901986,-0.946883 0.3554688,-1.263671 0.1633482,-0.313106 0.3418612,-0.460797 0.4921872,-0.503907 0.46299,-0.101376 0.756623,-0.006 1.068359,0.222657 0.315673,0.231513 0.61833,0.622542 0.90625,1.042968 0.28792,0.420426 0.552742,0.865443 0.916016,1.208985 0.181637,0.17177 0.397845,0.325036 0.671875,0.392578 0.27403,0.06754 0.589,0.02379 0.861328,-0.113281 0.470624,-0.236872 0.659775,-0.761404 0.664062,-1.191407 0.0043,-0.430002 -0.100503,-0.85031 -0.193359,-1.25 -0.09286,-0.399689 -0.173977,-0.779001 -0.173828,-1.027343 1.49e-4,-0.248343 0.01607,-0.282514 0.119141,-0.339844 -0.05193,0.028889 -0.04604,0.00446 0.04687,0.033203 0.09292,0.028744 0.235297,0.09944 0.36914,0.185547 0.267687,0.172212 0.498047,0.382812 0.498047,0.382812 l 0.365234,0.339844 0.681641,-0.730469 -0.367187,-0.3417965 c 0,0 -0.277265,-0.258984 -0.636719,-0.4902344 C 16.019494,9.227096 15.818939,9.1140195 15.58594,9.04194 Z m -5.816406,5.15039 c 0.1357979,0.02306 0.327029,0.01582 0.447266,0.04687 0.523504,0.135205 0.856704,0.338442 1.031249,0.609375 0.267242,0.414809 0.296147,0.688201 0.267578,0.830079 -0.02857,0.141877 -0.09688,0.215452 -0.253906,0.279296 -0.309507,0.125848 -0.925224,0.02576 -1.2929683,-0.458979 C 9.7954877,15.21386 9.843344,14.654177 9.769534,14.19233 Z"
     style="color:#000000;opacity:0.5;fill:#000000;stroke-linecap:square;-inkscape-stroke:none"
     id="path20536" />
</svg>
