<?xml version="1.0" encoding="UTF-8" standalone="no"?>
<!-- Created with Inkscape (http://www.inkscape.org/) -->

<svg
   width="24"
   height="24"
   viewBox="0 0 24 24"
   version="1.1"
   id="svg5"
   inkscape:version="1.2.2 (b0a8486541, 2022-12-01)"
   sodipodi:docname="lunarclient.svg"
   xmlns:inkscape="http://www.inkscape.org/namespaces/inkscape"
   xmlns:sodipodi="http://sodipodi.sourceforge.net/DTD/sodipodi-0.dtd"
   xmlns:xlink="http://www.w3.org/1999/xlink"
   xmlns="http://www.w3.org/2000/svg"
   xmlns:svg="http://www.w3.org/2000/svg">
  <sodipodi:namedview
     id="namedview7"
     pagecolor="#ffffff"
     bordercolor="#000000"
     borderopacity="0.25"
     inkscape:showpageshadow="2"
     inkscape:pageopacity="0.0"
     inkscape:pagecheckerboard="0"
     inkscape:deskcolor="#d1d1d1"
     inkscape:document-units="px"
     showgrid="false"
     inkscape:zoom="33.166667"
     inkscape:cx="11.984925"
     inkscape:cy="12"
     inkscape:window-width="1920"
     inkscape:window-height="1002"
     inkscape:window-x="0"
     inkscape:window-y="0"
     inkscape:window-maximized="1"
     inkscape:current-layer="svg5"
     showguides="true" />
  <defs
     id="defs2">
    <linearGradient
       inkscape:collect="always"
       xlink:href="#linearGradient1768"
       id="linearGradient3500"
       x1="2"
       y1="2"
       x2="28.666666"
       y2="28.666666"
       gradientUnits="userSpaceOnUse"
       gradientTransform="matrix(0.75,0,0,0.75,0.5,0.5)" />
    <linearGradient
       inkscape:collect="always"
       id="linearGradient1768">
      <stop
         style="stop-color:#333333;stop-opacity:1;"
         offset="0"
         id="stop1764" />
      <stop
         style="stop-color:#6a6a6a;stop-opacity:1;"
         offset="1"
         id="stop1766" />
    </linearGradient>
  </defs>
  <path
     id="path530"
     style="fill:url(#linearGradient3500);fill-opacity:1;stroke-width:0.750005;stroke-linecap:round;stroke-linejoin:round"
     d="M 10,2 C 3.174114,2 2,3.2048695 2,10 v 4 c 0,6.79513 1.174114,8 8,8 h 4 c 6.825886,0 8,-1.20487 8,-8 V 10 C 22,3.2048695 20.825886,2 14,2 Z"
     sodipodi:nodetypes="sssssssss" />
  <path
     d="m 12,4.5000021 c -0.0824,-2.387e-4 -0.163583,0.019889 -0.236328,0.058594 0,0 -1.630343,0.8760545 -3.263672,1.8183593 C 7.683336,6.8481078 6.866595,7.3358765 6.242188,7.7441428 5.929984,7.9482759 5.666721,8.1299157 5.464844,8.2929709 5.363905,8.3744979 5.279289,8.4499811 5.201172,8.5371116 5.123052,8.6242416 5,8.6959666 5,8.9980486 V 14.998049 H 6 V 9.1562526 c 0.02685,-0.02535 0.04522,-0.04479 0.09375,-0.08398 C 6.24734,8.9482186 6.491892,8.7743886 6.789063,8.5800846 7.383403,8.1914775 8.191667,7.7104928 9,7.2441471 c 1.498422,-0.8644744 2.788342,-1.5595409 3,-1.6738282 0.211658,0.1142873 1.501577,0.8093538 3,1.6738282 0.808332,0.4663457 1.616598,0.9473304 2.210938,1.3359375 0.29717,0.194304 0.541722,0.368134 0.695312,0.492188 0.04853,0.0392 0.0669,0.05863 0.09375,0.08398 V 14.99805 h 1 V 8.9980496 C 19,8.6959666 18.876945,8.6242426 18.798828,8.5371116 18.720711,8.4499811 18.636095,8.3744984 18.535156,8.2929709 18.333278,8.1299157 18.070017,7.9482759 17.757812,7.7441428 17.133405,7.3358765 16.316664,6.8481078 15.5,6.3769552 13.866672,5.4346504 12.236328,4.5585959 12.236328,4.5585959 12.163583,4.5198913 12.0824,4.4997634 12,4.5000021 Z m -0.244141,1.8710938 -0.132812,0.2421875 -0.242188,0.1328125 0.242188,0.1328125 0.132812,0.2421875 0.132813,-0.2421875 0.242187,-0.1328125 -0.242187,-0.1328125 z m -1.27539,1.1074219 C 8.960423,8.2418826 8.000699,9.7970886 8,11.498049 c 0.0039,1.689173 0.953543,3.233863 2.458984,4 H 5 v 0.25 h 1 v 0.25 H 5 v 0.25 h 2 v 0.25 H 5.5 v 0.25 H 8 v 0.25 H 6.5 v 0.25 H 10 v 0.25 H 9.5 v 0.25 h 5 v -0.25 H 14 v -0.25 h 3.5 v -0.25 H 16 v -0.25 h 2.5 v -0.25 h -1 v -0.25 H 19 v -0.25 h -1 v -0.25 h 1 v -0.25 H 14.539062 C 15.393082,15.065372 16.086854,14.3716 16.519531,13.51758 15.893,13.832942 15.201423,13.997475 14.5,13.998049 c -2.485281,0 -4.5,-2.014719 -4.5,-4.5000004 5.73e-4,-0.701422 0.165107,-1.3929995 0.480469,-2.0195308 z m 4.77539,0.8671874 -0.132812,0.2421874 -0.242188,0.132813 0.242188,0.132812 0.132812,0.242188 0.13086,-0.242188 0.24414,-0.132812 -0.24414,-0.132813 z m -4.009765,0.4238284 -0.177735,0.322265 -0.322265,0.177735 0.322265,0.177734 0.177735,0.322266 0.175781,-0.322266 0.324219,-0.177734 -0.324219,-0.177735 z m -4.046875,0.128906 -0.13086,0.242188 -0.24414,0.132812 0.24414,0.132813 0.13086,0.242187 0.132812,-0.242187 0.242188,-0.132813 -0.242188,-0.132812 z m 6.001953,0.976563 -0.13086,0.2421874 -0.24414,0.132813 0.24414,0.132812 0.13086,0.242188 0.132812,-0.242188 0.242188,-0.132812 -0.242188,-0.132813 z M 16.25,10.498049 15.984375,10.982424 15.5,11.248049 15.984375,11.513674 16.25,11.998049 16.515625,11.513674 17,11.248049 16.515625,10.982424 Z m -2.5,0.75 -0.177734,0.322266 L 13.25,11.748049 13.572266,11.925783 13.75,12.248049 13.927734,11.925783 14.25,11.748049 13.927734,11.570315 Z M 7.265625,13.013674 7,13.498049 6.515625,13.763674 7,14.029299 7.265625,14.513674 7.53125,14.029299 8.015625,13.763674 7.53125,13.498049 Z"
     style="fill:#ffffff"
     id="path1015" />
</svg>
