<?xml version="1.0" encoding="UTF-8" standalone="no"?>
<!-- Created with Inkscape (http://www.inkscape.org/) -->

<svg
   width="24"
   height="24"
   viewBox="0 0 24 24"
   version="1.1"
   id="svg5"
   inkscape:version="1.2.1 (9c6d41e410, 2022-07-14)"
   sodipodi:docname="microsoft-edge-beta.svg"
   xmlns:inkscape="http://www.inkscape.org/namespaces/inkscape"
   xmlns:sodipodi="http://sodipodi.sourceforge.net/DTD/sodipodi-0.dtd"
   xmlns:xlink="http://www.w3.org/1999/xlink"
   xmlns="http://www.w3.org/2000/svg"
   xmlns:svg="http://www.w3.org/2000/svg">
  <sodipodi:namedview
     id="namedview7"
     pagecolor="#ffffff"
     bordercolor="#000000"
     borderopacity="0.25"
     inkscape:showpageshadow="2"
     inkscape:pageopacity="0.0"
     inkscape:pagecheckerboard="0"
     inkscape:deskcolor="#d1d1d1"
     inkscape:document-units="px"
     showgrid="false"
     inkscape:zoom="18"
     inkscape:cx="7.25"
     inkscape:cy="12.111111"
     inkscape:window-width="1920"
     inkscape:window-height="1004"
     inkscape:window-x="0"
     inkscape:window-y="0"
     inkscape:window-maximized="1"
     inkscape:current-layer="svg5"
     showguides="false" />
  <defs
     id="defs2">
    <linearGradient
       inkscape:collect="always"
       xlink:href="#linearGradient2180"
       id="linearGradient6538"
       x1="52.979992"
       y1="11.062179"
       x2="64.124176"
       y2="11.062179"
       gradientUnits="userSpaceOnUse"
       gradientTransform="translate(-45.310219,4)" />
    <linearGradient
       inkscape:collect="always"
       id="linearGradient2180">
      <stop
         style="stop-color:#0c59a4;stop-opacity:1;"
         offset="0"
         id="stop2176" />
      <stop
         style="stop-color:#114a8b;stop-opacity:1;"
         offset="1"
         id="stop2178" />
    </linearGradient>
    <radialGradient
       inkscape:collect="always"
       xlink:href="#linearGradient27818"
       id="radialGradient22002"
       cx="58.907425"
       cy="10.507384"
       fx="58.907425"
       fy="10.507384"
       r="5.5720921"
       gradientTransform="matrix(-0.01849023,1.0884935,-1.2375515,-0.0210223,28.62948,-48.795373)"
       gradientUnits="userSpaceOnUse" />
    <linearGradient
       inkscape:collect="always"
       id="linearGradient27818">
      <stop
         style="stop-color:#000000;stop-opacity:0;"
         offset="0.72000003"
         id="stop27812" />
      <stop
         style="stop-color:#000000;stop-opacity:0.5;"
         offset="0.94999999"
         id="stop27814" />
      <stop
         style="stop-color:#000000;stop-opacity:1"
         offset="1"
         id="stop27816" />
    </linearGradient>
    <linearGradient
       inkscape:collect="always"
       xlink:href="#linearGradient1748"
       id="linearGradient5078"
       x1="58.266792"
       y1="4.0557728"
       x2="51.794773"
       y2="13.788569"
       gradientUnits="userSpaceOnUse"
       gradientTransform="translate(-45.310219,4)" />
    <linearGradient
       inkscape:collect="always"
       id="linearGradient1748">
      <stop
         style="stop-color:#1b9ed2;stop-opacity:1;"
         offset="0"
         id="stop1744" />
      <stop
         style="stop-color:#1595df;stop-opacity:1;"
         offset="0.15000001"
         id="stop1752" />
      <stop
         style="stop-color:#0680df;stop-opacity:1;"
         offset="0.67000002"
         id="stop1754" />
      <stop
         style="stop-color:#0078d4;stop-opacity:1;"
         offset="1"
         id="stop1746" />
    </linearGradient>
    <radialGradient
       inkscape:collect="always"
       xlink:href="#linearGradient1360"
       id="radialGradient16878"
       cx="53.329948"
       cy="11.518138"
       fx="53.329948"
       fy="11.518138"
       r="5.2651467"
       gradientTransform="matrix(1.1921052,0.2696288,-0.3947838,1.7454509,-50.922453,-18.73033)"
       gradientUnits="userSpaceOnUse" />
    <linearGradient
       inkscape:collect="always"
       id="linearGradient1360">
      <stop
         style="stop-color:#000000;stop-opacity:0;"
         offset="0.75"
         id="stop1356" />
      <stop
         style="stop-color:#000000;stop-opacity:0.49803922;"
         offset="0.94999999"
         id="stop1364" />
      <stop
         style="stop-color:#000000;stop-opacity:1;"
         offset="1"
         id="stop1358" />
    </linearGradient>
    <radialGradient
       inkscape:collect="always"
       xlink:href="#linearGradient1290"
       id="radialGradient6548"
       cx="60.962425"
       cy="7.331109"
       fx="60.962425"
       fy="7.331109"
       r="8"
       gradientTransform="matrix(-2.4048944,0.02462482,-0.01385136,-1.3527445,152.73813,15.090685)"
       gradientUnits="userSpaceOnUse" />
    <linearGradient
       inkscape:collect="always"
       id="linearGradient1290">
      <stop
         style="stop-color:#35c1f1;stop-opacity:1;"
         offset="0"
         id="stop1286" />
      <stop
         style="stop-color:#34c1ed;stop-opacity:1;"
         offset="0.1"
         id="stop1294" />
      <stop
         style="stop-color:#2fc2df;stop-opacity:1;"
         offset="0.23"
         id="stop1296" />
      <stop
         style="stop-color:#2bc3d2;stop-opacity:1;"
         offset="0.30000001"
         id="stop1298" />
      <stop
         style="stop-color:#36c752;stop-opacity:1;"
         offset="1"
         id="stop1288" />
    </linearGradient>
    <radialGradient
       inkscape:collect="always"
       xlink:href="#linearGradient1280"
       id="radialGradient27857"
       gradientUnits="userSpaceOnUse"
       gradientTransform="matrix(-0.74855999,0.18254118,-0.26413608,-1.0831623,56.346948,1.2654551)"
       cx="50.600605"
       cy="1.8082892"
       fx="50.600605"
       fy="1.8082892"
       r="8" />
    <linearGradient
       inkscape:collect="always"
       id="linearGradient1280">
      <stop
         style="stop-color:#66eb6e;stop-opacity:1;"
         offset="0"
         id="stop1276" />
      <stop
         style="stop-color:#66eb6e;stop-opacity:0;"
         offset="1"
         id="stop1278" />
    </linearGradient>
  </defs>
  <path
     id="path530"
     style="fill:#fafafa;fill-opacity:1;stroke-width:0.750005;stroke-linecap:round;stroke-linejoin:round"
     d="M 10,2 C 3.174114,2 2,3.2048695 2,10 v 4 c 0,6.79513 1.174114,8 8,8 h 4 c 6.825886,0 8,-1.20487 8,-8 V 10 C 22,3.2048695 20.825886,2 14,2 Z"
     sodipodi:nodetypes="sssssssss" />
  <path
     style="fill:url(#linearGradient6538);fill-opacity:1;stroke-width:1"
     class="cls-1"
     d="m 18.440972,15.906387 c -0.766632,0.754276 -1.955856,1.132964 -2.902318,1.137614 -2.957316,0 -5.533405,-2.473599 -5.533405,-5.083705 0.0078,-0.712857 0.400554,-1.365755 1.026813,-1.706538 -2.6748326,0.11248 -3.3622909,2.899426 -3.3622909,4.532227 0,4.616584 4.2553579,5.084616 5.1721789,5.084616 0.494342,0 1.239921,-0.143728 1.687393,-0.284944 l 0.08186,-0.02751 c 1.721918,-0.5952 3.189866,-1.758822 4.162238,-3.299348 0.13888,-0.21877 -0.105942,-0.478282 -0.33248,-0.352428 z"
     id="path2965"
     sodipodi:nodetypes="scccsscccss" />
  <path
     d="m 18.440972,15.906387 c -0.766632,0.754276 -1.955856,1.132964 -2.902318,1.137614 -2.957316,0 -5.533405,-2.473599 -5.533405,-5.083705 0.0078,-0.712858 0.400554,-1.365756 1.026813,-1.706538 -2.6748326,0.11248 -3.3622909,2.899426 -3.3622909,4.532227 0,4.616584 4.2553579,5.084616 5.1721789,5.084616 0.494342,0 1.239921,-0.143728 1.687393,-0.284944 l 0.08186,-0.02751 c 1.721918,-0.5952 3.189866,-1.758822 4.162238,-3.299348 0.13888,-0.21877 -0.105942,-0.478282 -0.33248,-0.352428 z"
     style="opacity:0.35;fill:url(#radialGradient22002);fill-opacity:1;stroke-width:1"
     id="path20518" />
  <path
     style="fill:url(#linearGradient5078);fill-opacity:1;stroke-width:1"
     class="cls-3"
     d="M 10.367768,19.085756 C 9.8103425,18.739826 9.327259,18.286546 8.9466065,17.75227 7.0995665,15.222048 8.221603,11.638008 11.032062,10.253758 c 0.194986,-0.09186 0.528091,-0.2580732 0.971187,-0.249949 0.632838,0.0046 1.327493,0.305234 1.706014,0.812338 0.252373,0.336924 0.39152,0.745118 0.397474,1.16602 0,-0.01312 1.428167,-4.9740142 -5.1001762,-4.9740142 -2.7435769,0 -4.9996856,2.6032332 -4.9996856,4.8871562 -0.01088,1.208163 0.2477168,2.403562 0.7568272,3.499305 1.7222463,3.674155 5.9231776,5.476728 9.7731386,4.193542 -1.317979,0.415498 -2.9918,0.232803 -4.163448,-0.499901 z"
     id="path2967"
     sodipodi:nodetypes="ccccccsccccc" />
  <path
     d="M 10.367768,19.085756 C 9.8103425,18.739826 9.327259,18.286546 8.9466065,17.75227 7.0995665,15.222048 8.221603,11.638008 11.032062,10.253758 c 0.194986,-0.09186 0.528091,-0.2580732 0.971187,-0.249949 0.632838,0.0046 1.327493,0.305234 1.706014,0.812338 0.252373,0.336924 0.39152,0.745118 0.397474,1.16602 0,-0.01312 1.428167,-4.9740142 -5.1001762,-4.9740142 -2.7435769,0 -4.9996856,2.6032332 -4.9996856,4.8871562 -0.01088,1.208163 0.2477168,2.403562 0.7568272,3.499305 1.7222463,3.674155 5.9231776,5.476728 9.7731386,4.193542 -1.317979,0.415498 -2.9918,0.232803 -4.163448,-0.499901 z"
     style="opacity:0.4;fill:url(#radialGradient16878);fill-opacity:1;stroke-width:1"
     id="path15394" />
  <path
     style="fill:url(#radialGradient6548);fill-opacity:1;stroke-width:1"
     class="cls-5"
     d="m 13.719745,12.662072 c -0.05063,0.06561 -0.206237,0.156218 -0.206237,0.35368 0,0.163091 0.10624,0.319936 0.294982,0.451785 0.898694,0.624877 2.393247,0.542392 2.397622,0.542392 0.665912,-0.0016 1.319202,-0.181784 1.891756,-0.521771 1.175282,-0.68615 1.898968,-1.303739 1.901757,-2.664513 C 20.015875,9.4232989 19.499656,8.492234 19.290918,8.0798149 17.966626,5.4897049 15.108056,4 11.999502,4 7.6250591,3.999568 4.0615168,7.5125208 4,11.885936 4.03,9.602638 6.2998559,6.998375 8.9996877,6.998375 13,6.998375 15.24344,10.576432 13.719748,12.662072 Z"
     id="path2969"
     sodipodi:nodetypes="sscccccccsss" />
  <path
     d="m 13.719745,12.662072 c -0.05063,0.06561 -0.206237,0.156218 -0.206237,0.35368 0,0.163091 0.10624,0.319936 0.294982,0.451785 0.898694,0.624877 2.393247,0.542392 2.397622,0.542392 0.665912,-0.0016 1.319202,-0.181784 1.891756,-0.521771 1.175282,-0.68615 1.898968,-1.303739 1.901757,-2.664513 C 20.015875,9.4232989 19.499656,8.492234 19.290918,8.0798149 17.966626,5.4897049 15.108056,4 11.999502,4 7.6250591,3.999568 4.0615168,7.5125208 4,11.885936 4.03,9.602638 6.2998559,6.998375 8.9996877,6.998375 13,6.998375 15.24344,10.576432 13.719748,12.662072 Z"
     style="fill:url(#radialGradient27857);fill-opacity:1;stroke-width:1"
     id="path27828" />
  <rect
     style="fill:#50e6ff;fill-opacity:1;stroke-width:2.0755;stroke-linecap:round;stroke-linejoin:round"
     id="rect378"
     width="8"
     height="7"
     x="12"
     y="14"
     ry="1" />
  <path
     id="rect575"
     style="fill:#000000;stroke-linecap:round;stroke-linejoin:round"
     d="m 14,15 v 5 h 1 1.5 C 17.328427,20 18,19.328427 18,18.5 18.000335,17.987361 17.738846,17.510051 17.306641,17.234374 17.433018,17.01022 17.499605,16.757324 17.5,16.5 17.5,15.671573 16.828427,15 16,15 h -1 z m 1,1 h 1 c 0.276142,0 0.5,0.223858 0.5,0.5 0,0.276142 -0.223858,0.5 -0.5,0.5 h -1 z m 0,2 h 1.5 c 0.276142,0 0.5,0.223858 0.5,0.5 0,0.276142 -0.223858,0.5 -0.5,0.5 H 15 Z"
     sodipodi:nodetypes="cccscccscccssscccssscc" />
</svg>
