<?xml version="1.0" encoding="UTF-8" standalone="no"?>
<!-- Created with Inkscape (http://www.inkscape.org/) -->

<svg
   width="24"
   height="24"
   viewBox="0 0 24 24"
   version="1.1"
   id="svg5"
   inkscape:version="1.2.1 (9c6d41e410, 2022-07-14)"
   sodipodi:docname="naver-whale.svg"
   xmlns:inkscape="http://www.inkscape.org/namespaces/inkscape"
   xmlns:sodipodi="http://sodipodi.sourceforge.net/DTD/sodipodi-0.dtd"
   xmlns:xlink="http://www.w3.org/1999/xlink"
   xmlns="http://www.w3.org/2000/svg"
   xmlns:svg="http://www.w3.org/2000/svg">
  <sodipodi:namedview
     id="namedview7"
     pagecolor="#ffffff"
     bordercolor="#000000"
     borderopacity="0.25"
     inkscape:showpageshadow="2"
     inkscape:pageopacity="0.0"
     inkscape:pagecheckerboard="0"
     inkscape:deskcolor="#d1d1d1"
     inkscape:document-units="px"
     showgrid="false"
     inkscape:zoom="33.416667"
     inkscape:cx="11.985037"
     inkscape:cy="12"
     inkscape:window-width="1920"
     inkscape:window-height="1008"
     inkscape:window-x="0"
     inkscape:window-y="0"
     inkscape:window-maximized="1"
     inkscape:current-layer="svg5"
     showguides="true" />
  <defs
     id="defs2">
    <linearGradient
       inkscape:collect="always"
       xlink:href="#linearGradient1969"
       id="linearGradient3500"
       x1="15.333333"
       y1="2"
       x2="15.333333"
       y2="23.333334"
       gradientUnits="userSpaceOnUse"
       gradientTransform="matrix(0.75,0,0,0.75,0.50000007,0.50000046)" />
    <linearGradient
       inkscape:collect="always"
       id="linearGradient1969">
      <stop
         style="stop-color:#1b34a8;stop-opacity:1;"
         offset="0"
         id="stop1965" />
      <stop
         style="stop-color:#3683ae;stop-opacity:1"
         offset="1"
         id="stop1967" />
    </linearGradient>
    <linearGradient
       inkscape:collect="always"
       xlink:href="#linearGradient15319"
       id="linearGradient15327"
       x1="9.0688782"
       y1="25.661974"
       x2="9"
       y2="38.999268"
       gradientUnits="userSpaceOnUse"
       gradientTransform="matrix(0.53333034,0,0,0.53915191,-0.8002548,-1.0271643)" />
    <linearGradient
       inkscape:collect="always"
       id="linearGradient15319">
      <stop
         style="stop-color:#00dcb4;stop-opacity:1;"
         offset="0"
         id="stop15315" />
      <stop
         style="stop-color:#1f9ea2;stop-opacity:1;"
         offset="1"
         id="stop15317" />
    </linearGradient>
    <linearGradient
       inkscape:collect="always"
       xlink:href="#linearGradient17511"
       id="linearGradient17513"
       x1="38.999996"
       y1="24.000418"
       x2="38.999996"
       y2="39.000496"
       gradientUnits="userSpaceOnUse"
       gradientTransform="matrix(0.53333034,0,0,0.53915191,-0.8002548,-1.0271643)" />
    <linearGradient
       inkscape:collect="always"
       id="linearGradient17511">
      <stop
         style="stop-color:#e4e5e7;stop-opacity:1;"
         offset="0"
         id="stop17507" />
      <stop
         style="stop-color:#c1c1c5;stop-opacity:1;"
         offset="1"
         id="stop17509" />
    </linearGradient>
    <linearGradient
       inkscape:collect="always"
       xlink:href="#linearGradient10097"
       id="linearGradient15313"
       x1="9.0688782"
       y1="25.661974"
       x2="9.0184727"
       y2="38.999268"
       gradientUnits="userSpaceOnUse"
       gradientTransform="matrix(0.53333034,0,0,0.53915191,-0.8002548,-1.0271643)" />
    <linearGradient
       inkscape:collect="always"
       id="linearGradient10097">
      <stop
         style="stop-color:#00dcb4;stop-opacity:1;"
         offset="0"
         id="stop10093" />
      <stop
         style="stop-color:#0baeb5;stop-opacity:1"
         offset="1"
         id="stop10095" />
    </linearGradient>
  </defs>
  <path
     id="path530"
     style="fill:url(#linearGradient3500);fill-opacity:1;stroke-width:0.750005;stroke-linecap:round;stroke-linejoin:round"
     d="m 10,2.0000005 c -6.8258859,0 -7.9999999,1.2048695 -7.9999999,8.0000005 V 14 c 0,6.79513 1.174114,8 7.9999999,8 h 4 c 6.825886,0 8,-1.20487 8,-8 V 10.000001 C 22,3.20487 20.825886,2.0000005 14,2.0000005 Z"
     sodipodi:nodetypes="sssssssss" />
  <path
     d="m 11.722702,5.0000005 c -0.157189,0 -0.284615,0.1274268 -0.284615,0.2846154 0,0.1571885 0.127426,0.2846153 0.284615,0.2846153 0.157188,0 0.284615,-0.1274268 0.284615,-0.2846153 0,-0.1571886 -0.127427,-0.2846154 -0.284615,-0.2846154 z m 2.134615,0.8538461 c -0.07859,0 -0.142307,0.063713 -0.142307,0.1423078 0,0.078594 0.06371,0.1423077 0.142307,0.1423077 0.07859,0 0.142308,-0.063713 0.142308,-0.1423077 0,-0.078594 -0.06371,-0.1423078 -0.142308,-0.1423078 z M 8.6519689,7.4420227 c -0.032998,-1.48e-4 -0.059877,0.02648 -0.060036,0.05948 -1.486e-4,0.033221 0.026816,0.060185 0.060036,0.060036 0.032998,-1.593e-4 0.059628,-0.027033 0.05948,-0.060036 -1.582e-4,-0.032782 -0.026697,-0.059322 -0.05948,-0.05948 z m 2.3591941,0.1195162 c -0.07859,0 -0.142307,0.063713 -0.142307,0.1423077 0,0.078594 0.06371,0.1423078 0.142307,0.1423078 0.07859,0 0.142308,-0.063713 0.142308,-0.1423078 0,-0.078594 -0.06371,-0.1423077 -0.142308,-0.1423077 z M 8.5380112,7.7266381 c -0.033004,-1.48e-4 -0.059877,0.02648 -0.060036,0.05948 -1.486e-4,0.033221 0.026816,0.060185 0.060036,0.060036 0.032998,-1.595e-4 0.059628,-0.027033 0.05948,-0.060036 -1.583e-4,-0.032782 -0.026697,-0.059322 -0.05948,-0.05948 z M 6.7419327,7.8461544 c -0.078594,0 -0.1423077,0.063713 -0.1423077,0.1423077 0,0.078594 0.063713,0.1423076 0.1423077,0.1423076 0.078594,0 0.1423077,-0.063713 0.1423077,-0.1423076 0,-0.078594 -0.063713,-0.1423077 -0.1423077,-0.1423077 z m 1.2807692,0.8254961 c -0.1571885,0 -0.2846154,0.1274269 -0.2846154,0.2846154 0,0.1571885 0.1274269,0.2846154 0.2846154,0.2846154 0.1571885,0 0.2846154,-0.1274269 0.2846154,-0.2846154 0,-0.1571885 -0.1274269,-0.2846154 -0.2846154,-0.2846154 z"
     style="fill:#ffffff;stroke-width:0.284616"
     id="path40148" />
  <path
     d="m 19.999626,11.912706 c 0,4.466505 -3.58172,8.087321 -7.999996,8.087321 -1.289973,0 -2.5086349,-0.308647 -3.5876669,-0.856874 0.336512,-1.744552 0.775848,-3.234118 1.282788,-4.505884 0.5862559,-1.470749 1.8132069,-0.475368 2.5258189,-1.421073 1.141425,-1.514778 1.824782,-4.6046654 2.926781,-5.1563554 1.362074,-0.681888 3.292093,-0.954311 3.292093,-0.954311 l 0.08712,0.129648 c 0.08464,0.120474 0.166091,0.243392 0.244238,0.368628 0.778409,1.247449 1.228823,2.7250014 1.228823,4.3089004 z"
     style="fill:url(#linearGradient17513);fill-opacity:1;stroke-width:0.28727"
     id="path405"
     sodipodi:nodetypes="sscsssccsss" />
  <path
     id="path372"
     style="fill:url(#linearGradient15327);fill-opacity:1;stroke-width:0.28727"
     d="M 17.628531,7.0000005 C 16.590863,7.0001385 15.474572,7.3051718 14.548453,7.7480474 13.755111,8.127428 12.980475,8.783778 11.480094,9.9882817 10.370077,10.879402 9.6242285,11.186609 8.9097812,11.328125 8.6278405,11.383965 8.0599385,11.371364 7.7613438,11.302734 6.485028,11.009423 5.5055946,10.043659 5.3238438,8.7226567 5.2682938,8.3189362 5.3060707,7.7718653 5.4156406,7.4082036 5.4385506,7.3321536 5.4539336,7.2668672 5.4488436,7.2617193 5.4336836,7.2463993 5.1171204,7.7508718 4.9664217,8.0312505 4.5133179,8.8742607 4.231356,9.7165035 4.0757967,10.6875 c -0.081751,0.510279 -0.1014236,1.574963 -0.039063,2.121094 0.2142192,1.876084 1.0599624,3.62383 2.3769531,4.912109 l 0.2128906,0.208985 -0.1757812,0.166015 c -0.6927713,0.646185 -1.570562,1.195323 -2.4121094,1.509766 -0.047257,0.01765 -0.039826,0.02434 0.054687,0.05859 0.34099,0.12358 1.0555644,0.270425 1.5605469,0.31836 0.4000616,0.03798 1.1209406,0.01174 1.5039062,-0.05469 0.4746056,-0.08232 0.9098241,-0.207088 1.3535157,-0.384765 l 0.6386723,-0.296875 c 0.7964882,-0.41586 1.6251991,-1.104973 2.1015631,-1.748047 0.622249,-0.840013 1.411818,-2.493436 2.271484,-4.759766 0.414515,-1.092782 0.602659,-1.54359 0.884766,-2.115234 0.394893,-0.8001888 0.7934,-1.4059344 1.197266,-1.818359 0.639575,-0.6531283 1.673814,-1.3593706 2.671875,-1.6308594 l 0.154297,-0.0625 -0.0039,-0.00781 -0.359375,-0.087891 c -0.144173,-0.010227 -0.291222,-0.015642 -0.43946,-0.015622 z M 12.474234,11 c 0.0085,-4.32e-4 0.01676,0 0.02539,0 0.276142,0 0.5,0.223858 0.5,0.5 0,0.276142 -0.223858,0.5 -0.5,0.5 -0.276142,0 -0.5,-0.223858 -0.5,-0.5 0,-0.267513 0.210425,-0.486608 0.474609,-0.5 z" />
  <path
     id="path5945"
     style="fill:url(#linearGradient15313);fill-opacity:1;stroke-width:0.28727"
     d="m 9.3330221,14.069089 c -0.647391,2.014864 -1.989766,3.167136 -2.706235,3.860412 l -0.176041,0.165326 c -0.173193,0.161546 -0.35814,0.317095 -0.551038,0.464387 -0.192899,0.14729 -0.39329,0.286178 -0.598955,0.414893 -2.47e-4,1.55e-4 -7.96e-4,-1.53e-4 -10e-4,0 -0.4110991,0.257223 -0.8409386,0.473643 -1.2614513,0.630766 -0.011815,0.0044 -0.020577,0.0078 -0.025,0.01159 -0.00442,0.0038 -0.00499,0.0073 -0.00104,0.01159 0.0079,0.0086 0.033993,0.01973 0.08125,0.03686 0.3409903,0.123579 1.0554253,0.269027 1.5604073,0.316963 0.400063,0.03798 1.121192,0.01167 1.504159,-0.05476 0.474606,-0.08232 0.909426,-0.205626 1.353117,-0.383303 l 0.63958,-0.298009 c 0.796489,-0.41586 1.6246649,-1.104956 2.1010299,-1.748031 0.492406,-0.664729 1.090033,-1.844635 1.74374,-3.428669 z" />
</svg>
