<?xml version="1.0" encoding="UTF-8" standalone="no"?>
<!-- Created with Inkscape (http://www.inkscape.org/) -->

<svg
   width="24"
   height="24"
   viewBox="0 0 24 24"
   version="1.1"
   id="svg5"
   inkscape:version="1.2.1 (9c6d41e410, 2022-07-14)"
   sodipodi:docname="org.kde.kalendar.svg"
   xmlns:inkscape="http://www.inkscape.org/namespaces/inkscape"
   xmlns:sodipodi="http://sodipodi.sourceforge.net/DTD/sodipodi-0.dtd"
   xmlns:xlink="http://www.w3.org/1999/xlink"
   xmlns="http://www.w3.org/2000/svg"
   xmlns:svg="http://www.w3.org/2000/svg">
  <sodipodi:namedview
     id="namedview7"
     pagecolor="#ffffff"
     bordercolor="#000000"
     borderopacity="0.25"
     inkscape:showpageshadow="2"
     inkscape:pageopacity="0.0"
     inkscape:pagecheckerboard="0"
     inkscape:deskcolor="#d1d1d1"
     inkscape:document-units="px"
     showgrid="false"
     inkscape:zoom="9.9"
     inkscape:cx="-10.050505"
     inkscape:cy="8.4848485"
     inkscape:window-width="1920"
     inkscape:window-height="1004"
     inkscape:window-x="0"
     inkscape:window-y="0"
     inkscape:window-maximized="1"
     inkscape:current-layer="svg5"
     showguides="false" />
  <defs
     id="defs2">
    <linearGradient
       inkscape:collect="always"
       xlink:href="#linearGradient3201"
       id="linearGradient3500"
       x1="2"
       y1="2"
       x2="28.666666"
       y2="28.666666"
       gradientUnits="userSpaceOnUse"
       gradientTransform="matrix(0.75,0,0,0.75,0.5,0.5)" />
    <linearGradient
       inkscape:collect="always"
       id="linearGradient3201">
      <stop
         style="stop-color:#3daee9;stop-opacity:1;"
         offset="0"
         id="stop3197" />
      <stop
         style="stop-color:#5fd3ff;stop-opacity:1;"
         offset="1"
         id="stop3199" />
    </linearGradient>
  </defs>
  <path
     id="path530"
     style="fill:url(#linearGradient3500);fill-opacity:1;stroke-width:0.750005;stroke-linecap:round;stroke-linejoin:round"
     d="M 10,2 C 3.174114,2 2,3.2048695 2,10 v 4 c 0,6.79513 1.174114,8 8,8 h 4 c 6.825886,0 8,-1.20487 8,-8 V 10 C 22,3.2048695 20.825886,2 14,2 Z"
     sodipodi:nodetypes="sssssssss" />
  <path
     d="M 11.5,10 C 11.223,10 11,10.223 11,10.5 v 2.999999 c 0,0.277 0.223,0.5 0.5,0.5 h 3 c 0.277,0 0.5,-0.223 0.5,-0.5 V 10.5 C 15,10.223 14.777,10 14.5,10 Z m 5,0 C 16.223,10 16,10.223 16,10.5 v 2.999999 c 0,0.277 0.223,0.5 0.5,0.5 h 3 c 0.277,0 0.5,-0.223 0.5,-0.5 V 10.5 C 20,10.223 19.777,10 19.5,10 Z m -5,4.999999 c -0.277,0 -0.5,0.223 -0.5,0.5 v 3 c 0,0.277 0.223,0.5 0.5,0.5 h 3 c 0.277,0 0.5,-0.223 0.5,-0.5 v -3 c 0,-0.277 -0.223,-0.5 -0.5,-0.5 z m 5,0 c -0.277,0 -0.5,0.223 -0.5,0.5 v 3 c 0,0.277 0.223,0.5 0.5,0.5 h 3 c 0.277,0 0.5,-0.223 0.5,-0.5 v -3 c 0,-0.277 -0.223,-0.5 -0.5,-0.5 z"
     style="opacity:0.2;fill:#000000;fill-opacity:1;stroke-linecap:round;stroke-linejoin:round"
     id="path53377" />
  <path
     id="rect8457"
     style="fill:#ffffff;fill-opacity:1;stroke-linecap:round;stroke-linejoin:round"
     d="M 11.5,9 C 11.223,9 11,9.2230003 11,9.5 v 2.999999 c 0,0.277 0.223,0.5 0.5,0.5 h 3 c 0.277,0 0.5,-0.223 0.5,-0.5 V 9.5 C 15,9.2230003 14.777,9 14.5,9 Z m 5,0 C 16.223,9 16,9.2230003 16,9.5 v 2.999999 c 0,0.277 0.223,0.5 0.5,0.5 h 3 c 0.277,0 0.5,-0.223 0.5,-0.5 V 9.5 C 20,9.2230003 19.777,9 19.5,9 Z m -5,4.999999 c -0.277,0 -0.5,0.223 -0.5,0.5 v 3 c 0,0.277 0.223,0.5 0.5,0.5 h 3 c 0.277,0 0.5,-0.223 0.5,-0.5 v -3 c 0,-0.277 -0.223,-0.5 -0.5,-0.5 z m 5,0 c -0.277,0 -0.5,0.223 -0.5,0.5 v 3 c 0,0.277 0.223,0.5 0.5,0.5 h 3 c 0.277,0 0.5,-0.223 0.5,-0.5 v -3 c 0,-0.277 -0.223,-0.5 -0.5,-0.5 z"
     sodipodi:nodetypes="ssssssssssssssssssssssssssssssssssss" />
  <rect
     style="opacity:0.4;fill:#3daee9;fill-opacity:1;stroke-width:1.6;stroke-linecap:round;stroke-linejoin:round"
     id="rect23005"
     width="2"
     height="2"
     x="12"
     y="15.000007" />
  <path
     id="rect23785"
     style="fill:#3daee9;fill-opacity:1;stroke-linecap:round;stroke-linejoin:round"
     d="m 14.330487,14.754999 -1.332433,1.3315 -0.771538,-0.7705 -0.707032,0.707 0.914116,0.9135 h 0.0039 l 0.5625,0.564 2.037513,-2.0345 z"
     sodipodi:nodetypes="ccccccccc" />
  <path
     id="rect17141"
     style="fill:#00789d;fill-opacity:1;stroke-width:0.500003;stroke-linecap:round;stroke-linejoin:round"
     d="M 11.5,6 C 11.222998,6 11,6.2229984 11,6.5 v 1 C 11,7.7770016 11.222998,8 11.5,8 h 3 C 14.777002,8 15,7.7770016 15,7.5 v -1 C 15,6.2229984 14.777002,6 14.5,6 Z m 5,0 C 16.222998,6 16,6.2229984 16,6.5 v 1 C 16,7.7770016 16.222998,8 16.5,8 h 3 C 19.777002,8 20,7.7770016 20,7.5 v -1 C 20,6.2229984 19.777002,6 19.5,6 Z" />
  <path
     id="rect294"
     style="opacity:0.8;fill:#115267;fill-opacity:1;stroke-width:0.375;stroke-linecap:round;stroke-linejoin:round"
     d="M 10,2 C 3.1741208,2 2,3.2048762 2,10 v 4 c 0,0.705804 0.018476,1.33764 0.048828,1.927734 L 4,13 9.4960938,21.994141 C 9.6655294,21.995837 9.8230457,22 10,22 h 2.5 L 5.5,10.5 11,2 Z" />
</svg>
