<?xml version="1.0" encoding="UTF-8" standalone="no"?>
<!-- Created with Inkscape (http://www.inkscape.org/) -->

<svg
   width="24"
   height="24"
   viewBox="0 0 24 24"
   version="1.1"
   id="svg5"
   inkscape:version="1.2.1 (9c6d41e410, 2022-07-14)"
   sodipodi:docname="org.kde.angelfish.svg"
   xmlns:inkscape="http://www.inkscape.org/namespaces/inkscape"
   xmlns:sodipodi="http://sodipodi.sourceforge.net/DTD/sodipodi-0.dtd"
   xmlns:xlink="http://www.w3.org/1999/xlink"
   xmlns="http://www.w3.org/2000/svg"
   xmlns:svg="http://www.w3.org/2000/svg">
  <sodipodi:namedview
     id="namedview7"
     pagecolor="#ffffff"
     bordercolor="#000000"
     borderopacity="0.25"
     inkscape:showpageshadow="2"
     inkscape:pageopacity="0.0"
     inkscape:pagecheckerboard="0"
     inkscape:deskcolor="#d1d1d1"
     inkscape:document-units="px"
     showgrid="false"
     inkscape:zoom="33.333333"
     inkscape:cx="11.985"
     inkscape:cy="12"
     inkscape:window-width="1920"
     inkscape:window-height="1011"
     inkscape:window-x="0"
     inkscape:window-y="32"
     inkscape:window-maximized="1"
     inkscape:current-layer="svg5"
     showguides="true" />
  <defs
     id="defs2">
    <linearGradient
       inkscape:collect="always"
       xlink:href="#linearGradient3147"
       id="linearGradient3500"
       x1="28.666666"
       y1="28.666666"
       x2="2"
       y2="2"
       gradientUnits="userSpaceOnUse"
       gradientTransform="matrix(0.75,0,0,0.75,0.5,0.5)" />
    <linearGradient
       inkscape:collect="always"
       id="linearGradient3147">
      <stop
         style="stop-color:#41bbff;stop-opacity:1;"
         offset="0"
         id="stop3143" />
      <stop
         style="stop-color:#0091f9;stop-opacity:1;"
         offset="1"
         id="stop3145" />
    </linearGradient>
    <linearGradient
       inkscape:collect="always"
       xlink:href="#linearGradient2209"
       id="linearGradient2211"
       x1="4"
       y1="4"
       x2="14"
       y2="14"
       gradientUnits="userSpaceOnUse"
       gradientTransform="matrix(1.2500005,0,0,1.2500005,1.499999,1.9999622)" />
    <linearGradient
       inkscape:collect="always"
       id="linearGradient2209">
      <stop
         style="stop-color:#8adc3f;stop-opacity:1;"
         offset="0"
         id="stop2205" />
      <stop
         style="stop-color:#d0e675;stop-opacity:1;"
         offset="1"
         id="stop2207" />
    </linearGradient>
    <linearGradient
       inkscape:collect="always"
       xlink:href="#linearGradient2075"
       id="linearGradient2077"
       x1="4"
       y1="4"
       x2="14"
       y2="14"
       gradientUnits="userSpaceOnUse"
       gradientTransform="matrix(1.2500005,0,0,1.2500005,1.499999,1.9999622)" />
    <linearGradient
       inkscape:collect="always"
       id="linearGradient2075">
      <stop
         style="stop-color:#ffffff;stop-opacity:1;"
         offset="0"
         id="stop2071" />
      <stop
         style="stop-color:#c8edfc;stop-opacity:1;"
         offset="0.64999998"
         id="stop2203" />
      <stop
         style="stop-color:#91dbf9;stop-opacity:0.99990427;"
         offset="1"
         id="stop2073" />
    </linearGradient>
  </defs>
  <path
     id="path530"
     style="fill:url(#linearGradient3500);fill-opacity:1;stroke-width:0.750005;stroke-linecap:round;stroke-linejoin:round"
     d="M 10,2 C 3.174114,2 2,3.2048695 2,10 v 4 c 0,6.79513 1.174114,8 8,8 h 4 c 6.825886,0 8,-1.20487 8,-8 V 10 C 22,3.2048695 20.825886,2 14,2 Z"
     sodipodi:nodetypes="sssssssss" />
  <path
     d="m 15.103309,7.0012712 c -1.115224,0.02673 -3.798716,0.4717491 -5.4648724,0.9100889 -0.03909,0.01005 -0.07818,0.02205 -0.11694,0.032415 C 8.9919488,8.0864392 8.4613985,8.2551568 7.9923224,8.5354663 7.105287,9.0656821 6.1627909,9.7833294 5.6519521,10.568464 5.14078,11.353599 4.8006658,12.275716 4.6312777,12.701357 c -0.1690552,0.42598 -0.1667167,0.354148 -0.2666116,0.373192 -0.09957,0.01905 -0.3006899,0.128968 -0.3521412,0.427647 -0.05112,0.299019 0.04878,0.7838 0.4009195,1.090167 0.3524757,0.306035 0.9558595,0.431657 1.6394285,0.755401 0.676552,0.320735 1.4352932,0.834915 3.4682882,1.135937 l 0.0588,0.01 c 2.0804389,0.300022 5.4755609,0.377866 7.2439509,0.215828 1.768392,-0.162373 1.90504,-0.563962 1.702908,-1.092507 -0.202131,-0.528546 -0.743039,-1.184382 -1.283946,-1.839889 l -0.0882,-0.296592 -0.48411,-1.624394 c -0.218835,-0.735021 -0.480435,-1.612701 -0.50115,-2.3597481 -0.02139,-0.7473816 0.198121,-1.3641304 0.20614,-1.7680574 0.0076,-0.4042599 -0.195783,-0.5956995 -0.897727,-0.7116324 -0.08788,-0.0144 -0.21516,-0.01938 -0.374191,-0.015375 z"
     style="fill:url(#linearGradient2077);fill-opacity:1;stroke:#000000;stroke-width:0.277972;stroke-dasharray:0, 3.05669;image-rendering:optimizeSpeed"
     id="path1984" />
  <path
     d="m 10.559549,7.6921886 c -0.325414,0.072165 -0.6404698,0.1453343 -0.9207794,0.21917 -0.03909,0.01005 -0.07818,0.02205 -0.11694,0.032415 C 8.9922812,8.0864379 8.461731,8.2551555 7.9926548,8.5354651 7.882061,8.6016152 7.7704775,8.6707794 7.6588885,8.7426065 L 7.658554,8.742941 C 7.4392123,8.8845401 7.2250283,9.0339857 7.0164155,9.1909689 6.5941121,9.5110359 6.2022136,9.864848 5.8965122,10.239374 c -0.076515,0.09355 -0.1469993,0.188766 -0.21182,0.284653 0.2692847,0.07718 0.5582808,0.127619 0.7634182,0.11694 0.1339793,-0.0068 0.3601602,-0.18008 0.3601602,-0.18008 h 0.8763435 v 0.219169 l 0.2191698,0.21917 v -0.438005 l 0.2191699,-0.21917 0.2188354,-0.21917 H 8.560959 V 9.8037128 L 8.7801289,9.5848775 9.2181326,9.3657075 9.4373025,9.1465377 9.8753082,8.9273679 V 9.1465377 L 10.313646,8.9273679 H 10.094482 V 8.7085204 L 9.8753122,8.4893505 H 10.751656 L 10.532487,8.7085204 11.189995,8.9273559 10.970826,8.4896835 V 8.0513453 Z m 7.818271,0.9926109 c -0.105911,-0.00165 -0.285321,0.059475 -0.734351,0.2722922 -0.294009,0.1393192 -0.85396,0.2472331 -1.472713,0.3855505 -0.09856,0.02205 -0.19812,0.04611 -0.299018,0.070155 -0.06682,0.015705 -0.132646,0.030075 -0.199792,0.04677 -0.09689,0.02439 -0.192777,0.052125 -0.289332,0.078855 -0.06682,0.018375 -0.133634,0.035085 -0.199791,0.054795 -0.08786,0.02673 -0.171394,0.057465 -0.257258,0.086535 -0.0735,0.02472 -0.149009,0.047445 -0.219837,0.074505 -0.147029,0.05439 -0.290622,0.117645 -0.429985,0.1894341 l 0.1146,0.1921097 c -0.0032,-0.0036 -0.0088,-0.0068 -0.011,-0.0111 -0.0334,-0.06114 -0.06749,-0.121605 -0.103575,-0.1810818 l -0.237828,0.079183 -0.43834,0.21917 v 0.21917 l -0.438004,0.43767 -0.219171,0.43834 v 0.876344 l 0.219171,0.43834 0.438004,0.218836 0.219169,0.219167 1.033371,-0.17206 1.222807,0.03675 c 0.169722,-0.0092 0.338107,-0.01671 0.50449,-0.02139 0.140323,-0.0032 0.278638,-0.0046 0.412946,10e-4 0.0852,0.0036 0.169056,0.009 0.250575,0.01838 0.362165,0.04176 0.684237,0.146999 0.912094,0.196117 0.227855,0.04877 0.360827,0.04176 0.47275,-0.004 0.112264,-0.04544 0.202799,-0.129299 0.27296,-0.472417 0.07018,-0.343121 0.119274,-0.945503 0.09121,-1.607354 -0.02806,-0.661818 -0.132974,-1.3831375 -0.231196,-1.7964199 -0.09789,-0.4129479 -0.189438,-0.5185234 -0.29401,-0.5639612 -0.02795,-0.0126 -0.0582,-0.019335 -0.08888,-0.01971 z m -4.559126,0.6394678 v 0.4794335 h 0.37085 c -0.0073,-0.0108 -0.0125,-0.02283 -0.0157,-0.035415 -0.02406,-0.09087 0.02573,-0.2325332 -0.02806,-0.3023608 -0.06181,-0.08019 -0.259929,-0.06615 -0.327084,-0.1416594 z m -6.120376,0.0144 h 0.01335 l -0.02706,0.02673 z m -0.8900429,1.9985867 -0.21917,0.219168 H 6.3702697 L 6.2276055,11.414103 v 10e-4 c -0.02673,0.14367 -0.04578,0.287994 -0.05814,0.432994 l -3.345e-4,0.0067 0.4199636,0.139649 0.4383399,0.21917 0.2191697,0.21917 0.2188355,0.21917 h 0.4383382 v 0.438003 L 7.6846081,13.30913 7.4654397,13.747136 v 0.219169 l 0.2191684,0.219167 0.2191698,0.218839 0.2188354,0.438337 0.2191699,0.21917 0.4383397,0.218835 v 0.946503 l -0.025395,0.120289 c 0.2348718,0.04845 0.486449,0.09488 0.7667586,0.13665 0.021045,0.003 0.037425,0.0068 0.0588,0.01 0.3979137,0.0568 0.8532905,0.103575 1.3270465,0.144659 l 0.06348,-0.481771 v -0.219125 l 0.438005,-0.218836 0.21917,-0.219167 0.219168,-0.876346 0.218836,-0.219166 v -0.437621 l -0.438004,-0.219168 h -0.219156 l -0.438006,-0.218973 h -0.21917 L 10.532487,13.090242 10.31365,12.871071 H 9.8753122 L 9.437307,12.433068 H 8.9989688 L 8.3417937,12.213898 8.1226238,12.652236 7.6849531,12.433068 H 7.4654502 V 11.995063 L 7.027445,11.775892 7.2466147,11.33755 Z"
     style="fill:url(#linearGradient2211);fill-opacity:1;stroke-width:0.334099"
     id="path1954" />
</svg>
