<?xml version="1.0" encoding="UTF-8" standalone="no"?>
<!-- Created with Inkscape (http://www.inkscape.org/) -->

<svg
   width="24"
   height="24"
   viewBox="0 0 24 24"
   version="1.1"
   id="svg5"
   inkscape:version="1.4.4 (dcaf3e7d9e, 2026-05-05)"
   sodipodi:docname="preferences-desktop-screensaver.svg"
   xmlns:inkscape="http://www.inkscape.org/namespaces/inkscape"
   xmlns:sodipodi="http://sodipodi.sourceforge.net/DTD/sodipodi-0.dtd"
   xmlns:xlink="http://www.w3.org/1999/xlink"
   xmlns="http://www.w3.org/2000/svg"
   xmlns:svg="http://www.w3.org/2000/svg">
  <sodipodi:namedview
     id="namedview7"
     pagecolor="#ffffff"
     bordercolor="#000000"
     borderopacity="0.25"
     inkscape:showpageshadow="2"
     inkscape:pageopacity="0.0"
     inkscape:pagecheckerboard="0"
     inkscape:deskcolor="#d1d1d1"
     inkscape:document-units="px"
     showgrid="false"
     inkscape:zoom="33.5"
     inkscape:cx="12"
     inkscape:cy="12"
     inkscape:window-width="1920"
     inkscape:window-height="1012"
     inkscape:window-x="0"
     inkscape:window-y="0"
     inkscape:window-maximized="1"
     inkscape:current-layer="svg5"
     showguides="true" />
  <defs
     id="defs2">
    <linearGradient
       inkscape:collect="always"
       xlink:href="#linearGradient3"
       id="linearGradient3500"
       x1="2"
       y1="2"
       x2="28.666666"
       y2="28.666666"
       gradientUnits="userSpaceOnUse"
       gradientTransform="matrix(0.75,0,0,0.75,0.5,0.5)" />
    <linearGradient
       inkscape:collect="always"
       id="linearGradient3">
      <stop
         style="stop-color:#5b25b4;stop-opacity:1;"
         offset="0"
         id="stop1" />
      <stop
         style="stop-color:#bb3fee;stop-opacity:1;"
         offset="1"
         id="stop2" />
    </linearGradient>
  </defs>
  <path
     id="path530"
     style="fill:url(#linearGradient3500);stroke-width:0.750005;stroke-linecap:round;stroke-linejoin:round"
     d="M 10,2 C 3.174114,2 2,3.2048695 2,10 v 4 c 0,6.79513 1.174114,8 8,8 h 4 c 6.825886,0 8,-1.20487 8,-8 V 10 C 22,3.2048695 20.825886,2 14,2 Z"
     sodipodi:nodetypes="sssssssss" />
  <path
     d="m 15.497758,8.9999725 c 0.557712,0.6757925 0.895932,1.5395405 0.895932,2.4841805 0,2.159099 -1.75032,3.90951 -3.90951,3.90951 -0.94464,0 -1.80837,-0.338211 -2.48418,-0.895923 C 10.472725,16.51275 12.27979,18 14.43889,18 16.9579,18 19,15.9579 19,13.43889 19,11.2797 17.51275,9.4726795 15.49774,9 Z M 6.55,11.05 5.9290955,9.170904 4.05,8.55 5.9290955,7.9290955 6.55,6.0499995 7.1709045,7.9290955 9.05,8.55 7.1709045,9.170904 Z M 14.45,8.3 14.263729,7.736271 13.7,7.55 14.263729,7.363729 14.45,6.7999995 14.636271,7.363729 15.2,7.55 14.636271,7.736271 Z M 11.5,9 11.127458,7.872542 10,7.5 11.127458,7.1274575 11.5,5.9999995 11.872543,7.1274575 13,7.5 11.872543,7.872542 Z"
     style="fill:#ffffff"
     id="path1" />
</svg>
