<?xml version="1.0" encoding="UTF-8" standalone="no"?>
<!-- Created with Inkscape (http://www.inkscape.org/) -->

<svg
   width="24"
   height="24"
   viewBox="0 0 24 24"
   version="1.1"
   id="svg5"
   inkscape:version="1.2.1 (9c6d41e410, 2022-07-14)"
   sodipodi:docname="qtdbusviewer.svg"
   xmlns:inkscape="http://www.inkscape.org/namespaces/inkscape"
   xmlns:sodipodi="http://sodipodi.sourceforge.net/DTD/sodipodi-0.dtd"
   xmlns:xlink="http://www.w3.org/1999/xlink"
   xmlns="http://www.w3.org/2000/svg"
   xmlns:svg="http://www.w3.org/2000/svg">
  <sodipodi:namedview
     id="namedview7"
     pagecolor="#ffffff"
     bordercolor="#000000"
     borderopacity="0.25"
     inkscape:showpageshadow="2"
     inkscape:pageopacity="0.0"
     inkscape:pagecheckerboard="0"
     inkscape:deskcolor="#d1d1d1"
     inkscape:document-units="px"
     showgrid="false"
     inkscape:zoom="34.5"
     inkscape:cx="11.130435"
     inkscape:cy="12"
     inkscape:window-width="1920"
     inkscape:window-height="1008"
     inkscape:window-x="0"
     inkscape:window-y="0"
     inkscape:window-maximized="1"
     inkscape:current-layer="svg5"
     showguides="false" />
  <defs
     id="defs2">
    <linearGradient
       inkscape:collect="always"
       xlink:href="#linearGradient2833"
       id="linearGradient3500"
       x1="2"
       y1="2"
       x2="28.666666"
       y2="28.666666"
       gradientUnits="userSpaceOnUse"
       gradientTransform="matrix(0.75,0,0,0.75,0.5,0.50000049)" />
    <linearGradient
       inkscape:collect="always"
       id="linearGradient2833">
      <stop
         style="stop-color:#16a62f;stop-opacity:1;"
         offset="0"
         id="stop2829" />
      <stop
         style="stop-color:#95e629;stop-opacity:1;"
         offset="1"
         id="stop2831" />
    </linearGradient>
  </defs>
  <path
     id="path530"
     style="fill:url(#linearGradient3500);fill-opacity:1;stroke-width:0.750005;stroke-linecap:round;stroke-linejoin:round"
     d="m 10,2.0000005 c -6.825886,0 -8,1.2048695 -8,8.0000005 V 14 c 0,6.79513 1.174114,8 8,8 h 4 c 6.825886,0 8,-1.20487 8,-8 V 10.000001 C 22,3.20487 20.825886,2.0000005 14,2.0000005 Z"
     sodipodi:nodetypes="sssssssss" />
  <path
     id="rect371"
     style="opacity:0.2;fill:#000000;stroke-width:3;stroke-linecap:round;stroke-linejoin:round"
     d="M 2.0136719,9.0039067 C 2.0068336,9.324772 2,9.6500864 2,10.000001 V 14 c 0,6.795123 1.1741208,8 8,8 h 4 c 6.095405,0 7.679023,-0.973233 7.949219,-6.017578 z" />
  <path
     id="path4963"
     style="fill:#ffffff"
     d="M 5,7.0000005 V 17 h 4 c 1.800498,0 3,-1.199502 3,-3 V 10 C 12,8.1995025 10.800499,7.0000005 9,7.0000005 Z m 8,0 L 16,17 h 1 L 20,7.0000005 H 19 L 16.5,15 14,7.0000005 Z m -7,1 h 3 c 1.244306,0 2,0.8386472 2,1.9999995 v 4 c 0,1.161353 -0.755694,2 -2,2 H 6 Z" />
</svg>
