<?xml version="1.0" encoding="UTF-8" standalone="no"?>
<!-- Created with Inkscape (http://www.inkscape.org/) -->

<svg
   width="24"
   height="24"
   viewBox="0 0 24 24"
   version="1.1"
   id="svg5"
   inkscape:version="1.2.1 (9c6d41e410, 2022-07-14)"
   sodipodi:docname="skype.svg"
   xmlns:inkscape="http://www.inkscape.org/namespaces/inkscape"
   xmlns:sodipodi="http://sodipodi.sourceforge.net/DTD/sodipodi-0.dtd"
   xmlns:xlink="http://www.w3.org/1999/xlink"
   xmlns="http://www.w3.org/2000/svg"
   xmlns:svg="http://www.w3.org/2000/svg">
  <sodipodi:namedview
     id="namedview7"
     pagecolor="#ffffff"
     bordercolor="#000000"
     borderopacity="0.25"
     inkscape:showpageshadow="2"
     inkscape:pageopacity="0.0"
     inkscape:pagecheckerboard="0"
     inkscape:deskcolor="#d1d1d1"
     inkscape:document-units="px"
     showgrid="false"
     inkscape:zoom="34.5"
     inkscape:cx="11.985507"
     inkscape:cy="12"
     inkscape:window-width="1920"
     inkscape:window-height="1008"
     inkscape:window-x="0"
     inkscape:window-y="0"
     inkscape:window-maximized="1"
     inkscape:current-layer="svg5"
     showguides="false" />
  <defs
     id="defs2">
    <linearGradient
       inkscape:collect="always"
       xlink:href="#linearGradient1298"
       id="linearGradient1616"
       x1="-112.15405"
       y1="222.701"
       x2="-95.503441"
       y2="286.70099"
       gradientUnits="userSpaceOnUse"
       gradientTransform="matrix(0.12818886,0,0,0.14499999,22.139348,-28.291642)" />
    <linearGradient
       inkscape:collect="always"
       id="linearGradient1298">
      <stop
         style="stop-color:#00b7f0;stop-opacity:1;"
         offset="0"
         id="stop1294" />
      <stop
         style="stop-color:#009de5;stop-opacity:1;"
         offset="0.34"
         id="stop1300" />
      <stop
         style="stop-color:#0082d9;stop-opacity:1;"
         offset="0.75"
         id="stop1302" />
      <stop
         style="stop-color:#0078d4;stop-opacity:1;"
         offset="1"
         id="stop1296" />
    </linearGradient>
    <linearGradient
       inkscape:collect="always"
       xlink:href="#linearGradient1532"
       id="linearGradient1608"
       x1="-37.954132"
       y1="385.64984"
       x2="35.820042"
       y2="341.35733"
       gradientUnits="userSpaceOnUse"
       gradientTransform="matrix(0.10475256,0,0,0.1146652,15.684762,-25.997122)" />
    <linearGradient
       inkscape:collect="always"
       id="linearGradient1532">
      <stop
         style="stop-color:#0078d4;stop-opacity:1;"
         offset="0"
         id="stop1528" />
      <stop
         style="stop-color:#007ad5;stop-opacity:1;"
         offset="0.37"
         id="stop1536" />
      <stop
         style="stop-color:#0082d9;stop-opacity:1;"
         offset="0.56999999"
         id="stop1538" />
      <stop
         style="stop-color:#0090df;stop-opacity:1;"
         offset="0.74000001"
         id="stop1540" />
      <stop
         style="stop-color:#00a3e7;stop-opacity:1;"
         offset="0.88499999"
         id="stop1542" />
      <stop
         style="stop-color:#00bcff;stop-opacity:1;"
         offset="1"
         id="stop1530" />
    </linearGradient>
    <radialGradient
       inkscape:collect="always"
       xlink:href="#linearGradient6242"
       id="radialGradient6244"
       cx="11.111111"
       cy="12.247032"
       fx="11.111111"
       fy="12.247032"
       r="5.8000002"
       gradientUnits="userSpaceOnUse"
       gradientTransform="matrix(0,-0.79999996,0.79999996,0,-0.8000002,18.080003)" />
    <linearGradient
       inkscape:collect="always"
       id="linearGradient6242">
      <stop
         style="stop-color:#000000;stop-opacity:1;"
         offset="0"
         id="stop6238" />
      <stop
         style="stop-color:#000000;stop-opacity:0;"
         offset="1"
         id="stop6240" />
    </linearGradient>
    <radialGradient
       inkscape:collect="always"
       xlink:href="#linearGradient6304"
       id="radialGradient6306"
       cx="19.42392"
       cy="20.898375"
       fx="19.42392"
       fy="20.898375"
       r="5.8000002"
       gradientUnits="userSpaceOnUse"
       gradientTransform="matrix(0,-0.93793082,0.93793099,0,-34.402537,3.4791591)" />
    <linearGradient
       inkscape:collect="always"
       id="linearGradient6304">
      <stop
         style="stop-color:#000000;stop-opacity:1;"
         offset="0"
         id="stop6300" />
      <stop
         style="stop-color:#000000;stop-opacity:0;"
         offset="0.87751532"
         id="stop6302" />
    </linearGradient>
    <linearGradient
       inkscape:collect="always"
       xlink:href="#linearGradient1280"
       id="linearGradient1626"
       x1="-116.60806"
       y1="234.88477"
       x2="-86.178307"
       y2="290.25656"
       gradientUnits="userSpaceOnUse"
       gradientTransform="matrix(0.21875,0,0,0.21875,34.118169,-43.715839)" />
    <linearGradient
       inkscape:collect="always"
       id="linearGradient1280">
      <stop
         style="stop-color:#00b7f0;stop-opacity:1;"
         offset="0"
         id="stop1276" />
      <stop
         style="stop-color:#007cc1;stop-opacity:1;"
         offset="1"
         id="stop1278" />
    </linearGradient>
  </defs>
  <path
     id="path530"
     style="fill:#fafafa;fill-opacity:1;stroke-width:0.750005;stroke-linecap:round;stroke-linejoin:round"
     d="m 9.9999998,2.0000002 c -6.825886,0 -8,1.2048695 -8,7.9999998 v 4 c 0,6.79513 1.174114,8 8,8 H 14 c 6.825886,0 8,-1.20487 8,-8 V 10 C 22,3.2048697 20.825886,2.0000002 14,2.0000002 Z"
     sodipodi:nodetypes="sssssssss" />
  <circle
     style="fill:url(#linearGradient1616);fill-opacity:1;stroke-width:0.136335;stroke-linecap:round;stroke-linejoin:round;paint-order:stroke fill markers"
     id="path1598"
     cx="8.6400013"
     cy="8.6400051"
     r="4.6400003" />
  <circle
     style="fill:url(#linearGradient1608);fill-opacity:1;stroke-width:0.109597;stroke-linecap:round;stroke-linejoin:round;paint-order:stroke fill markers"
     id="path1600"
     cx="15.360001"
     cy="15.360003"
     r="4.6400003" />
  <circle
     style="opacity:0.4;fill:url(#radialGradient6244);fill-opacity:1;stroke-width:0.8;stroke-linecap:round;stroke-linejoin:round;paint-order:stroke fill markers"
     id="path6236"
     cx="8.6400013"
     cy="8.6400051"
     r="4.6400003" />
  <circle
     style="opacity:0.4;fill:url(#radialGradient6306);fill-opacity:1;stroke-width:0.912983;stroke-linecap:round;stroke-linejoin:round;paint-order:stroke fill markers"
     id="path6298"
     cx="-15.360003"
     cy="-15.360001"
     r="4.6400003"
     transform="matrix(0,-1,-1,0,0,0)" />
  <circle
     style="fill:url(#linearGradient1626);fill-opacity:1;stroke-width:0.0288211;stroke-linecap:round;stroke-linejoin:round;paint-order:stroke fill markers"
     id="path1596"
     cx="12.000001"
     cy="12.000005"
     r="7" />
  <path
     d="M 10.326373,11.863847 C 10.074109,11.680986 9.8636495,11.436472 9.7114085,11.149375 9.5643215,10.846227 9.4917086,10.506078 9.5007536,10.162575 9.4895536,9.726618 9.6247355,9.3014041 9.8804655,8.9681923 10.146169,8.6335765 10.487699,8.3823937 10.870294,8.2402087 c 0.416205,-0.1617199 0.854718,-0.2429048 1.296102,-0.2399568 0.288845,-0.003 0.577389,0.02134 0.862438,0.0728 0.2039,0.03469 0.40416,0.09159 0.59783,0.169864 0.177911,0.066299 0.338517,0.1791769 0.467995,0.3289148 0.09543,0.1231599 0.146818,0.2803589 0.144545,0.4421897 0.0069,0.169771 -0.0477,0.3356228 -0.151909,0.4610517 -0.09884,0.115758 -0.237922,0.1795309 -0.38222,0.1752599 -0.09819,-8e-4 -0.195097,-0.02471 -0.284194,-0.070139 -0.219367,-0.1080343 -0.445344,-0.1990163 -0.676271,-0.2722832 -0.212629,-0.06163 -0.431821,-0.09155 -0.651692,-0.08896 -0.286351,-0.01169 -0.569676,0.06789 -0.815906,0.229153 -0.211837,0.1415619 -0.336737,0.3988907 -0.32585,0.6713392 -0.0015,0.175469 0.05909,0.344699 0.169034,0.471813 0.130737,0.149157 0.285204,0.270694 0.455751,0.358588 0.191121,0.104309 0.476142,0.242716 0.855061,0.415219 0.042,0.01461 0.08296,0.03264 0.122526,0.05395 0.369765,0.160908 0.724274,0.361382 1.058426,0.598538 0.263967,0.189391 0.486542,0.440754 0.651735,0.736038 0.162576,0.310207 0.243982,0.663861 0.235209,1.021825 0.01366,0.438461 -0.100539,0.870231 -0.325892,1.232152 -0.229454,0.34262 -0.54688,0.601798 -0.911388,0.74415 -0.439222,0.17259 -0.903335,0.255731 -1.369629,0.245356 -0.640796,0.02481 -1.278564,-0.107827 -1.866933,-0.388252 -0.1505645,-0.07369 -0.2825805,-0.186577 -0.3846655,-0.328916 -0.08462,-0.130361 -0.1284749,-0.287434 -0.1249709,-0.447587 -0.0085,-0.170994 0.05144,-0.337521 0.1641249,-0.45565 0.116876,-0.112639 0.2686319,-0.171515 0.4238625,-0.164458 0.172769,0.0027 0.34246,0.0507 0.494905,0.140191 0.189418,0.104309 0.338882,0.182516 0.448395,0.234606 0.125094,0.05766 0.254664,0.102767 0.387131,0.134789 0.163295,0.03947 0.330127,0.05846 0.497306,0.05659 0.295586,0.02314 0.58971,-0.06321 0.835526,-0.245314 0.186728,-0.160766 0.291609,-0.410688 0.281737,-0.671347 3.62e-4,-0.182366 -0.06275,-0.35796 -0.176378,-0.490719 -0.150156,-0.170208 -0.325861,-0.310657 -0.519394,-0.415169 -0.228717,-0.132995 -0.55051,-0.294768 -0.965384,-0.48532 -0.371158,-0.162714 -0.726565,-0.365945 -1.060892,-0.606644"
     style="fill:#ffffff;fill-rule:evenodd;stroke-width:0.534522"
     id="path12815" />
</svg>
