<?xml version="1.0" encoding="UTF-8" standalone="no"?>
<!-- Created with Inkscape (http://www.inkscape.org/) -->

<svg
   width="24"
   height="24"
   viewBox="0 0 24 24"
   version="1.1"
   id="svg5"
   inkscape:version="1.2.1 (9c6d41e410, 2022-07-14)"
   sodipodi:docname="twitter.svg"
   xmlns:inkscape="http://www.inkscape.org/namespaces/inkscape"
   xmlns:sodipodi="http://sodipodi.sourceforge.net/DTD/sodipodi-0.dtd"
   xmlns="http://www.w3.org/2000/svg"
   xmlns:svg="http://www.w3.org/2000/svg">
  <sodipodi:namedview
     id="namedview7"
     pagecolor="#ffffff"
     bordercolor="#000000"
     borderopacity="0.25"
     inkscape:showpageshadow="2"
     inkscape:pageopacity="0.0"
     inkscape:pagecheckerboard="0"
     inkscape:deskcolor="#d1d1d1"
     inkscape:document-units="px"
     showgrid="false"
     inkscape:zoom="34.416667"
     inkscape:cx="11.985472"
     inkscape:cy="12"
     inkscape:window-width="1920"
     inkscape:window-height="1006"
     inkscape:window-x="0"
     inkscape:window-y="0"
     inkscape:window-maximized="1"
     inkscape:current-layer="svg5"
     showguides="true" />
  <defs
     id="defs2" />
  <path
     id="path530"
     style="fill:#00acee;fill-opacity:1;stroke-width:0.750005;stroke-linecap:round;stroke-linejoin:round"
     d="M 10,2 C 3.174114,2 2,3.2048695 2,10 v 4 c 0,6.79513 1.174114,8 8,8 h 4 c 6.825886,0 8,-1.20487 8,-8 V 10 C 22,3.2048695 20.825886,2 14,2 Z"
     sodipodi:nodetypes="sssssssss" />
  <path
     id="rect572"
     style="fill:#ffffff;stroke-width:4;stroke-linecap:round;stroke-linejoin:round"
     d="m 15.078125,6 c -1.812798,0 -3.283203,1.4687418 -3.283203,3.28125 0,0.2571797 0.02808,0.5078771 0.08398,0.748047 C 9.1508774,9.892467 6.7321999,8.5870905 5.1132812,6.6015625 4.8306716,7.086222 4.6699219,7.6485706 4.6699219,8.25 c 0,1.1386689 0.5781654,2.143902 1.4589843,2.732422 -0.5380992,-0.0167 -1.0437785,-0.164387 -1.4863281,-0.410156 -3e-4,0.014 0,0.02701 0,0.04101 0,1.590138 1.131244,2.915187 2.6328125,3.216797 -0.2753797,0.0751 -0.5658345,0.115235 -0.8652344,0.115234 -0.2114897,0 -0.4167379,-0.02059 -0.6171874,-0.05859 0.4177393,1.303818 1.6299876,2.252927 3.0664062,2.279297 -1.1234189,0.880341 -2.5382434,1.4043 -4.0761719,1.404298 C 4.5182334,17.570309 4.2567497,17.555691 4,17.525391 5.4526485,18.45658 7.1775319,19 9.03125,19 c 6.037714,0 9.339844,-5.000815 9.339844,-9.3378906 0,-0.1422499 -0.0048,-0.2830682 -0.0098,-0.4238282 C 19.002805,8.7755416 19.55995,8.1972518 20,7.5390625 19.411411,7.8000622 18.779134,7.9753276 18.115234,8.0546875 18.792844,7.6485179 19.311541,7.0066335 19.556641,6.2402344 18.922361,6.616374 18.220386,6.8899995 17.472656,7.0371094 16.873967,6.3993 16.022234,6 15.078125,6 Z" />
</svg>
