<?xml version="1.0" encoding="UTF-8" standalone="no"?>
<!-- Created with Inkscape (http://www.inkscape.org/) -->

<svg
   width="24"
   height="24"
   viewBox="0 0 24 24"
   version="1.1"
   id="svg5"
   inkscape:version="1.4.4 (dcaf3e7d9e, 2026-05-05)"
   sodipodi:docname="xbox.svg"
   xmlns:inkscape="http://www.inkscape.org/namespaces/inkscape"
   xmlns:sodipodi="http://sodipodi.sourceforge.net/DTD/sodipodi-0.dtd"
   xmlns="http://www.w3.org/2000/svg"
   xmlns:svg="http://www.w3.org/2000/svg">
  <sodipodi:namedview
     id="namedview7"
     pagecolor="#ffffff"
     bordercolor="#000000"
     borderopacity="0.25"
     inkscape:showpageshadow="2"
     inkscape:pageopacity="0.0"
     inkscape:pagecheckerboard="0"
     inkscape:deskcolor="#d1d1d1"
     inkscape:document-units="px"
     showgrid="false"
     inkscape:zoom="34.083333"
     inkscape:cx="11.97066"
     inkscape:cy="11.97066"
     inkscape:window-width="1920"
     inkscape:window-height="1010"
     inkscape:window-x="0"
     inkscape:window-y="0"
     inkscape:window-maximized="1"
     inkscape:current-layer="svg5"
     showguides="true" />
  <defs
     id="defs2" />
  <path
     id="path530"
     style="fill:#107c10;fill-opacity:1;stroke-width:0.750005;stroke-linecap:round;stroke-linejoin:round"
     d="M 10,2 C 3.174114,2 2,3.2048695 2,10 v 4 c 0,6.79513 1.174114,8 8,8 h 4 c 6.825886,0 8,-1.20487 8,-8 V 10 C 22,3.2048695 20.825886,2 14,2 Z"
     sodipodi:nodetypes="sssssssss" />
  <path
     d="m 11.301949,18.971246 c -1.078483,-0.103267 -2.170308,-0.490317 -3.1082045,-1.101953 -0.78592,-0.512272 -0.96328,-0.723198 -0.96328,-1.143586 0,-0.844516 0.9291095,-2.323924 2.518847,-4.01003 0.9025875,-0.957867 2.1600585,-2.079986 2.2959255,-2.049737 0.264577,0.05903 2.378261,2.119666 3.169713,3.089893 1.251288,1.533562 1.826327,2.789685 1.534089,3.349606 -0.222108,0.425592 -1.60064,1.257586 -2.613223,1.577147 -0.834734,0.263453 -1.930954,0.375015 -2.833867,0.28866 z M 6.168903,15.84769 C 5.51576,14.846239 5.1857715,13.860401 5.0266355,12.434497 4.9739154,11.963695 4.992465,11.694549 5.1459065,10.7279 5.3367725,9.524468 6.0229465,8.1307635 6.847918,7.273725 7.19906,6.9094425 7.230301,6.899685 7.6585705,7.044422 8.1776355,7.220058 8.732498,7.603205 9.5932665,8.3812075 L 10.09606,8.8355845 9.8210695,9.17222 C 8.5473265,10.735056 7.202965,12.951647 6.6969175,14.322584 6.421927,15.06741 6.31128,15.81549 6.430063,16.126918 c 0.079731,0.210438 0.00651,0.132053 -0.2619735,-0.27874 z m 11.463848,0.170269 c 0.0646,-0.314844 -0.01708,-0.892816 -0.208277,-1.475993 -0.414113,-1.26279 -1.798665,-3.611922 -3.069968,-5.209234 l -0.400282,-0.5028395 0.433151,-0.397295 c 0.565277,-0.518777 0.957748,-0.8293925 1.381461,-1.0933345 0.334056,-0.208161 0.811629,-0.3924165 1.016976,-0.3924165 0.126431,0 0.572111,0.463484 0.931714,0.9676245 0.55714,0.7806045 0.96686,1.728714 1.174485,2.714227 0.134241,0.637494 0.145469,2.000299 0.02164,2.636167 -0.10251,0.521704 -0.317296,1.197903 -0.525573,1.65667 -0.157834,0.343629 -0.546727,1.011209 -0.717578,1.228477 -0.08787,0.111723 -0.08787,0.111561 -0.03905,-0.12945 z M 11.417479,6.708437 C 10.830724,6.4108315 9.925696,6.0912715 9.4258315,6.00508 9.250749,5.974995 8.951839,5.95792 8.761949,5.967675 8.349301,5.98849 8.367688,5.967025 9.029292,5.65462 9.579273,5.394906 10.038133,5.2422005 10.661336,5.111449 c 0.700494,-0.1471767 2.017682,-0.1488027 2.70711,-0.0036 0.744427,0.156934 1.621305,0.482999 2.115311,0.7871095 l 0.147096,0.090095 -0.336823,-0.016915 c -0.66974,-0.0338 -1.645712,0.236645 -2.693604,0.7459895 -0.315996,0.153844 -0.59066,0.276464 -0.610837,0.2732115 -0.02002,-0.0039 -0.277594,-0.1292875 -0.572761,-0.2789035 z"
     style="fill:#ffffff"
     id="path1" />
</svg>
