<?xml version="1.0" encoding="UTF-8" standalone="no"?>
<!-- Created with Inkscape (http://www.inkscape.org/) -->

<svg
   width="16"
   height="16"
   viewBox="0 0 16 16"
   version="1.1"
   id="svg5"
   inkscape:version="1.2.1 (9c6d41e410, 2022-07-14)"
   sodipodi:docname="com.github.maoschanz.drawing-symbolic.svg"
   xmlns:inkscape="http://www.inkscape.org/namespaces/inkscape"
   xmlns:sodipodi="http://sodipodi.sourceforge.net/DTD/sodipodi-0.dtd"
   xmlns="http://www.w3.org/2000/svg"
   xmlns:svg="http://www.w3.org/2000/svg">
  <sodipodi:namedview
     id="namedview7"
     pagecolor="#ffffff"
     bordercolor="#000000"
     borderopacity="0.25"
     inkscape:showpageshadow="2"
     inkscape:pageopacity="0.0"
     inkscape:pagecheckerboard="0"
     inkscape:deskcolor="#d1d1d1"
     inkscape:document-units="px"
     showgrid="false"
     inkscape:zoom="17.854446"
     inkscape:cx="8.9053448"
     inkscape:cy="5.992905"
     inkscape:window-width="1920"
     inkscape:window-height="1011"
     inkscape:window-x="0"
     inkscape:window-y="32"
     inkscape:window-maximized="1"
     inkscape:current-layer="svg5"
     showguides="true" />
  <defs
     id="defs2" />
  <path
     d="m 1.6608454,5.0264404 c -0.2615915,-0.089166 -0.5459059,0.0508 -0.6347657,0.3125 -0.087714,0.261567 0.053004,0.54475 0.3144532,0.632813 0.5137053,0.1743442 0.5665161,0.3135752 0.609375,0.5332032 0.042859,0.219627 -0.024286,0.5926017 -0.091797,1.0195307 -0.067511,0.42693 -0.1348869,0.973412 0.2128906,1.451172 0.3477775,0.47776 0.9819889,0.70519 1.9570312,0.767578 0.8284247,0.05301 1.2867629,0.6666677 1.59375,1.3789057 0.3069872,0.712239 0.3808594,1.425781 0.3808594,1.425781 0.026737,0.275186 0.2717355,0.476435 0.546875,0.449219 0.2751864,-0.02674 0.4764349,-0.271736 0.4492188,-0.546875 0,0 -0.079414,-0.843972 -0.4589844,-1.724609 C 6.1601815,9.8450223 5.3991994,8.8289243 4.0905328,8.7451913 3.2473676,8.6912403 2.9626535,8.4999163 2.8795954,8.3858163 2.7965374,8.2717133 2.7871544,8.0553483 2.8463924,7.6807373 2.9056304,7.3061253 3.0349261,6.8392986 2.9323294,6.3135506 2.8297335,5.7878024 2.3945863,5.2754614 1.6608454,5.0264404 Z"
     style="color:#000000;opacity:0.5;fill:#f2f2f2;fill-opacity:1;stroke-linecap:round"
     id="path6379" />
  <path
     id="path1166"
     style="fill:#f2f2f2;fill-opacity:1;stroke-width:0.375"
     d="M 7.0606612,9.7983223 6,12.980302 9.181981,11.919641 15.667499,5.4341223 c 0.391736,-0.391737 0.391737,-1.0224749 1e-6,-1.4142125 L 14.960392,3.3128034 c -0.391736,-0.391738 -1.022476,-0.3917376 -1.414213,-5e-7 z"
     sodipodi:nodetypes="ccccsssc" />
</svg>
