<?xml version="1.0" encoding="UTF-8" standalone="no"?>
<!-- Created with Inkscape (http://www.inkscape.org/) -->

<svg
   width="16"
   height="16"
   viewBox="0 0 16 16"
   version="1.1"
   id="svg5"
   inkscape:version="1.2.1 (9c6d41e410, 2022-07-14)"
   sodipodi:docname="extensions-symbolic.svg"
   xmlns:inkscape="http://www.inkscape.org/namespaces/inkscape"
   xmlns:sodipodi="http://sodipodi.sourceforge.net/DTD/sodipodi-0.dtd"
   xmlns="http://www.w3.org/2000/svg"
   xmlns:svg="http://www.w3.org/2000/svg">
  <sodipodi:namedview
     id="namedview7"
     pagecolor="#ffffff"
     bordercolor="#666666"
     borderopacity="1.0"
     inkscape:showpageshadow="2"
     inkscape:pageopacity="0.0"
     inkscape:pagecheckerboard="0"
     inkscape:deskcolor="#d1d1d1"
     inkscape:document-units="px"
     showgrid="false"
     showguides="false"
     inkscape:zoom="48.5"
     inkscape:cx="8.0412371"
     inkscape:cy="8"
     inkscape:window-width="1920"
     inkscape:window-height="1012"
     inkscape:window-x="0"
     inkscape:window-y="0"
     inkscape:window-maximized="1"
     inkscape:current-layer="svg5" />
  <defs
     id="defs2">
    <inkscape:path-effect
       effect="bspline"
       id="path-effect1577"
       is_visible="true"
       lpeversion="1"
       weight="33.333333"
       steps="2"
       helper_size="0"
       apply_no_weight="true"
       apply_with_weight="true"
       only_selected="false" />
  </defs>
  <path
     d="M 7,0 C 5.892,0 5,0.892 5,2 V 3 H 2.8456995 c -1.0228,0 -1.8457,0.82293 -1.8457,1.8457 V 8 h 2 C 3.554,8 4,8.446 4,9 4,9.554 3.554,10 2.9999995,10 h -2 v 3.1543 c 0,1.0228 0.82293,1.8457 1.8457,1.8457 H 6 v -2 c 0,-0.554 0.446,-1 1,-1 0.554,0 1,0.446 1,1 v 2 h 3.154299 C 12.177099,15 13,14.17707 13,13.1543 V 11 h 1 c 1.107999,0 2,-0.892 2,-2 C 16,7.892 15.107999,7 14,7 H 13 V 4.8457 C 13,3.8229 12.17707,3 11.154299,3 H 9 V 2 C 9,0.892 8.108,0 7,0 Z M 7,0.99999996 C 7.554,0.99999996 8,1.446 8,2 v 2 h 3 c 0.553999,0 1,0.446 1,1 v 3 h 2 c 0.553999,0 1,0.446 1,1 0,0.554 -0.446001,1 -1,1 h -2 v 3 c 0,0.554 -0.446001,1 -1,1 H 9 V 13 C 9,11.892 8.108,11 7,11 5.892,11 5,11.892 5,13 v 1 H 2.9999995 c -0.554,0 -1,-0.446 -1,-1 v -2 h 1 C 4.107999,11 5,10.108 5,9 5,7.892 4.107999,7 2.9999995,7 h -1 V 5 c 0,-0.554 0.446,-1 1,-1 H 6 V 2 C 6,1.446 6.446,0.99999996 7,0.99999996 Z"
     id="path8987"
     style="fill:#f2f2f2;fill-opacity:1" />
</svg>
