<?xml version="1.0" encoding="UTF-8" standalone="no"?>
<!-- Created with Inkscape (http://www.inkscape.org/) -->

<svg
   width="16"
   height="16"
   viewBox="0 0 16 16"
   version="1.1"
   id="svg5"
   inkscape:version="1.2.1 (9c6d41e410, 2022-07-14)"
   sodipodi:docname="firefox-symbolic.svg"
   xmlns:inkscape="http://www.inkscape.org/namespaces/inkscape"
   xmlns:sodipodi="http://sodipodi.sourceforge.net/DTD/sodipodi-0.dtd"
   xmlns="http://www.w3.org/2000/svg"
   xmlns:svg="http://www.w3.org/2000/svg">
  <sodipodi:namedview
     id="namedview7"
     pagecolor="#ffffff"
     bordercolor="#666666"
     borderopacity="1.0"
     inkscape:showpageshadow="2"
     inkscape:pageopacity="0.0"
     inkscape:pagecheckerboard="0"
     inkscape:deskcolor="#d1d1d1"
     inkscape:document-units="px"
     showgrid="false"
     showguides="false"
     inkscape:zoom="56.720464"
     inkscape:cx="8.0394265"
     inkscape:cy="8.0041658"
     inkscape:window-width="1920"
     inkscape:window-height="1012"
     inkscape:window-x="0"
     inkscape:window-y="0"
     inkscape:window-maximized="1"
     inkscape:current-layer="svg5" />
  <defs
     id="defs2">
    <inkscape:path-effect
       effect="bspline"
       id="path-effect1577"
       is_visible="true"
       lpeversion="1"
       weight="33.333333"
       steps="2"
       helper_size="0"
       apply_no_weight="true"
       apply_with_weight="true"
       only_selected="false" />
  </defs>
  <path
     d="m 4.39731,4.314882 c 0.0046,1.92e-4 0.0025,9.1e-5 0,0 z m 10.098323,1.302994 c -0.304644,-0.732753 -0.921666,-1.5239 -1.406153,-1.773919 0.394334,0.772919 0.622562,1.548547 0.709772,2.127272 0,0.0011 3.5e-4,0.004 0.0014,0.01166 C 13.008045,4.007369 11.664073,3.210682 10.566473,1.476284 10.511053,1.388554 10.455495,1.30064 10.401361,1.20795 c -0.02758,-0.04733 -0.05332,-0.0957 -0.07717,-0.145016 -0.04549,-0.08799 -0.08058,-0.180978 -0.104563,-0.277084 3.5e-4,-0.0095 -0.0065,-0.0176 -0.01593,-0.0188 -0.0043,-0.0014 -0.0089,-0.0014 -0.01316,0 -10e-4,2.8e-4 -0.0024,0.0014 -0.0035,0.0018 -0.0014,7e-4 -0.0035,0.0021 -0.0051,0.0028 7e-4,-0.001 0.0024,-0.0035 0.0028,-0.004 C 8.6261572,1.680569 7.9801162,3.278697 7.8140132,4.295945 l -0.02894,0.364059 c 0.01365,-10e-4 0.02734,-0.0018 0.04098,-0.0028 0.05761,-0.0035 0.115304,-0.0056 0.173019,-0.0062 0.340299,-0.0024 0.679144,0.04456 1.005988,0.139328 0.01908,0.0056 0.03777,0.01207 0.05676,0.01796 0.05428,0.01659 0.108147,0.03451 0.161557,0.05373 0.03907,0.01452 0.07789,0.02971 0.116431,0.04562 0.03133,0.01267 0.06265,0.0253 0.09351,0.03882 0.04815,0.02135 0.0958,0.04377 0.142919,0.06728 0.02167,0.01075 0.04332,0.02145 0.06466,0.03259 0.046,0.02415 0.09147,0.0493 0.1363529,0.07545 0.02898,0.0168 0.05767,0.03409 0.0861,0.0518 0.5077489,0.314122 0.9290819,0.74998 1.2258189,1.268082 -0.374297,-0.262938 -1.044459,-0.52261 -1.6901218,-0.410319 2.5211968,1.260409 1.8443248,5.600792 -1.649232,5.436904 -0.311111,-0.01267 -0.618558,-0.07197 -0.912072,-0.175903 -0.06942,-0.02607 -0.138082,-0.05414 -0.205887,-0.08417 -0.03955,-0.01803 -0.07907,-0.03625 -0.118153,-0.05643 C 5.65769,10.709346 4.950862,9.873283 4.862546,8.857989 c 0,0 0.323547,-1.205603 2.3167972,-1.205603 0.215485,0 0.831485,-0.601244 0.842919,-0.775632 -0.0024,-0.05696 -1.222581,-0.542209 -1.698172,-1.0108 C 6.0699332,5.615557 5.9492705,5.494867 5.842433,5.404276 5.784443,5.355316 5.723835,5.309556 5.66087,5.267192 5.501092,4.708231 5.494298,4.116626 5.6412,3.554144 4.921163,3.882034 4.361075,4.400298 3.953938,4.857895 h -0.0031 C 3.672938,4.505942 3.692569,3.344931 3.708407,3.102525 3.704907,3.087475 3.501119,3.2084 3.474372,3.2266 3.229183,3.401638 2.999954,3.598013 2.789362,3.813434 2.549727,4.05644 2.330774,4.319003 2.134774,4.598398 c 0,3.5e-4 -1.92e-4,7e-4 -2.8e-4,0.0011 0,-3.5e-4 1.93e-4,-7e-4 2.8e-4,-0.0011 C 1.684055,5.237183 1.364414,5.958963 1.194324,6.722026 1.192524,6.729726 1.127534,7.015268 1.07999,7.36798 1.07199,7.42284 1.06445,7.477782 1.05755,7.532802 1.04127,7.638852 1.0286,7.754468 1.01613,7.93434 c -7e-4,0.0069 -10e-4,0.01383 -0.0014,0.02076 -0.0052,0.0777 -0.0099,0.155428 -0.01403,0.233186 0,0.01197 -7e-4,0.0238 -7e-4,0.03578 0,3.870682 3.138335,7.008463 7.0094542,7.008463 3.4669008,0 6.3454768,-2.516735 6.9090638,-5.822544 0.01187,-0.08969 0.02135,-0.179901 0.03185,-0.270375 0.139332,-1.20196 -0.01547,-2.465317 -0.45465,-3.521792 z"
     style="display:inline;fill:#f2f2f2;stroke-width:0.0291667;enable-background:new;fill-opacity:1"
     id="path606"
     sodipodi:nodetypes="cccccccccccccccccccccccccccccccccccscccccccccccccccccccsscccc" />
</svg>
