<?xml version="1.0" encoding="UTF-8" standalone="no"?>
<!-- Created with Inkscape (http://www.inkscape.org/) -->

<svg
   width="48"
   height="48"
   viewBox="0 0 48 48"
   version="1.1"
   id="svg5"
   inkscape:version="1.2.1 (9c6d41e410, 2022-07-14)"
   sodipodi:docname="drive-removable-media.svg"
   xmlns:inkscape="http://www.inkscape.org/namespaces/inkscape"
   xmlns:sodipodi="http://sodipodi.sourceforge.net/DTD/sodipodi-0.dtd"
   xmlns:xlink="http://www.w3.org/1999/xlink"
   xmlns="http://www.w3.org/2000/svg"
   xmlns:svg="http://www.w3.org/2000/svg">
  <sodipodi:namedview
     id="namedview7"
     pagecolor="#ffffff"
     bordercolor="#000000"
     borderopacity="0.25"
     inkscape:showpageshadow="2"
     inkscape:pageopacity="0.0"
     inkscape:pagecheckerboard="0"
     inkscape:deskcolor="#d1d1d1"
     inkscape:document-units="px"
     showgrid="false"
     inkscape:zoom="9.4849841"
     inkscape:cx="8.2235246"
     inkscape:cy="32.894098"
     inkscape:window-width="1920"
     inkscape:window-height="999"
     inkscape:window-x="0"
     inkscape:window-y="0"
     inkscape:window-maximized="1"
     inkscape:current-layer="svg5"
     showguides="true" />
  <defs
     id="defs2">
    <linearGradient
       inkscape:collect="always"
       xlink:href="#linearGradient8064"
       id="linearGradient3500"
       x1="2"
       y1="2"
       x2="30"
       y2="30"
       gradientUnits="userSpaceOnUse"
       gradientTransform="scale(1.5)" />
    <linearGradient
       inkscape:collect="always"
       id="linearGradient8064">
      <stop
         style="stop-color:#c5c5c5;stop-opacity:1;"
         offset="0"
         id="stop8060" />
      <stop
         style="stop-color:#e2e2e2;stop-opacity:1;"
         offset="1"
         id="stop8062" />
    </linearGradient>
  </defs>
  <path
     d="M 19.5,4 C 5.8482142,4 3,6.9097255 3,20.5 v 9 C 3,43.090275 5.8482142,46 19.5,46 h 9 C 42.151785,46 45,43.090274 45,29.5 v -9 C 45,6.9097255 42.151785,4 28.5,4"
     style="opacity:0.2;fill:#000000;stroke-width:1.5;stroke-linecap:round;stroke-linejoin:round"
     id="path563" />
  <path
     id="path530"
     style="fill:url(#linearGradient3500);fill-opacity:1;stroke-width:1.5;stroke-linecap:round;stroke-linejoin:round"
     d="M 19.5,3 C 5.848227,3 3,5.909739 3,19.5 v 9 C 3,42.090261 5.848227,45 19.5,45 h 9 C 42.151773,45 45,42.090261 45,28.5 v -9 C 45,5.909739 42.151773,3 28.5,3 Z" />
  <path
     d="m 24,40 c 1.65686,0 3,-1.34315 3,-3 0,-1.3065 -0.83442,-2.4165 -2,-2.82813 V 29.01562 L 30.09375,25.3125 C 30.35145,25.12234 30.50249,24.82026 30.5,24.5 V 22 H 32 v -5 h -5 v 5 h 1.5 v 1.98437 L 25,26.53125 V 15 h 2.5 L 24,9 20.5,15 H 23 V 29.875 L 19.5,27.01562 V 24.78125 C 20.37976,24.39411 21,23.52285 21,22.5 21,21.11929 19.88071,20 18.5,20 17.11929,20 16,21.11929 16,22.5 c 0,1.02285 0.62024,1.89411 1.5,2.28125 V 27.5 c -0.004,0.30125 0.12803,0.58826 0.35938,0.78125 L 23,32.48437 v 1.6875 C 21.83442,34.5835 21,35.6935 21,37 c 0,1.65685 1.34315,3 3,3 z"
     style="color:#bebebe;display:inline;overflow:visible;visibility:visible;fill:#707070;fill-opacity:1;fill-rule:nonzero;stroke:none;stroke-width:1;marker:none;enable-background:accumulate"
     id="path5122" />
</svg>
