<?xml version="1.0" encoding="UTF-8" standalone="no"?>
<!-- Created with Inkscape (http://www.inkscape.org/) -->

<svg
   width="48"
   height="48"
   viewBox="0 0 48 48"
   version="1.1"
   id="svg5"
   inkscape:version="1.2.1 (1:1.2.1+202210291243+9c6d41e410)"
   sodipodi:docname="input-gaming.svg"
   xmlns:inkscape="http://www.inkscape.org/namespaces/inkscape"
   xmlns:sodipodi="http://sodipodi.sourceforge.net/DTD/sodipodi-0.dtd"
   xmlns:xlink="http://www.w3.org/1999/xlink"
   xmlns="http://www.w3.org/2000/svg"
   xmlns:svg="http://www.w3.org/2000/svg">
  <sodipodi:namedview
     id="namedview7"
     pagecolor="#ffffff"
     bordercolor="#000000"
     borderopacity="0.25"
     inkscape:showpageshadow="2"
     inkscape:pageopacity="0.0"
     inkscape:pagecheckerboard="0"
     inkscape:deskcolor="#d1d1d1"
     inkscape:document-units="px"
     showgrid="false"
     inkscape:zoom="17.1875"
     inkscape:cx="24.058182"
     inkscape:cy="24.058182"
     inkscape:window-width="1920"
     inkscape:window-height="1018"
     inkscape:window-x="0"
     inkscape:window-y="28"
     inkscape:window-maximized="1"
     inkscape:current-layer="svg5"
     showguides="false" />
  <defs
     id="defs2">
    <linearGradient
       inkscape:collect="always"
       id="linearGradient1401">
      <stop
         style="stop-color:#9f9f9f;stop-opacity:1;"
         offset="0"
         id="stop1397" />
      <stop
         style="stop-color:#d0d0d0;stop-opacity:1;"
         offset="1"
         id="stop1399" />
    </linearGradient>
    <linearGradient
       inkscape:collect="always"
       id="linearGradient1339">
      <stop
         style="stop-color:#6ac326;stop-opacity:1;"
         offset="0"
         id="stop1335" />
      <stop
         style="stop-color:#b0d839;stop-opacity:1;"
         offset="1"
         id="stop1337" />
    </linearGradient>
    <linearGradient
       inkscape:collect="always"
       id="linearGradient1331">
      <stop
         style="stop-color:#e4940d;stop-opacity:1;"
         offset="0"
         id="stop1327" />
      <stop
         style="stop-color:#e4ad0d;stop-opacity:1;"
         offset="1"
         id="stop1329" />
    </linearGradient>
    <linearGradient
       inkscape:collect="always"
       id="linearGradient1199">
      <stop
         style="stop-color:#2d7be6;stop-opacity:1;"
         offset="0"
         id="stop1195" />
      <stop
         style="stop-color:#5897ed;stop-opacity:1;"
         offset="1"
         id="stop1197" />
    </linearGradient>
    <linearGradient
       inkscape:collect="always"
       id="linearGradient1139">
      <stop
         style="stop-color:#d43b3b;stop-opacity:1;"
         offset="0"
         id="stop1135" />
      <stop
         style="stop-color:#cb6060;stop-opacity:1;"
         offset="1"
         id="stop1137" />
    </linearGradient>
    <linearGradient
       inkscape:collect="always"
       id="linearGradient1014">
      <stop
         style="stop-color:#5a5a5a;stop-opacity:1;"
         offset="0"
         id="stop1010" />
      <stop
         style="stop-color:#686868;stop-opacity:1;"
         offset="1"
         id="stop1012" />
    </linearGradient>
    <linearGradient
       inkscape:collect="always"
       xlink:href="#linearGradient1014"
       id="linearGradient1016"
       x1="30"
       y1="25.000002"
       x2="30"
       y2="7.0000005"
       gradientUnits="userSpaceOnUse"
       gradientTransform="matrix(1.5,0,0,1.5555554,8e-7,-0.888888)" />
    <linearGradient
       inkscape:collect="always"
       xlink:href="#linearGradient1139"
       id="linearGradient1141"
       x1="24"
       y1="14"
       x2="24"
       y2="12"
       gradientUnits="userSpaceOnUse"
       gradientTransform="matrix(1.5,0,0,1.5,0.5,-1e-6)" />
    <linearGradient
       inkscape:collect="always"
       xlink:href="#linearGradient1199"
       id="linearGradient1201"
       x1="20"
       y1="14"
       x2="20"
       y2="12"
       gradientUnits="userSpaceOnUse"
       gradientTransform="matrix(1.5,0,0,1.5,0.5,-1e-6)" />
    <linearGradient
       inkscape:collect="always"
       xlink:href="#linearGradient1331"
       id="linearGradient1333"
       x1="22"
       y1="12"
       x2="22"
       y2="10"
       gradientUnits="userSpaceOnUse"
       gradientTransform="matrix(1.5,0,0,1.5,0.5,-1e-6)" />
    <linearGradient
       inkscape:collect="always"
       xlink:href="#linearGradient1339"
       id="linearGradient1341"
       x1="22"
       y1="16"
       x2="22"
       y2="14"
       gradientUnits="userSpaceOnUse"
       gradientTransform="matrix(1.5,0,0,1.5,0.5,-1e-6)" />
    <linearGradient
       inkscape:collect="always"
       xlink:href="#linearGradient1401"
       id="linearGradient1403"
       x1="10"
       y1="16"
       x2="10"
       y2="10"
       gradientUnits="userSpaceOnUse"
       gradientTransform="matrix(1.5,0,0,1.5,-0.5,0)" />
    <linearGradient
       inkscape:collect="always"
       xlink:href="#linearGradient1401"
       id="linearGradient1465"
       x1="16"
       y1="11"
       x2="16"
       y2="10"
       gradientUnits="userSpaceOnUse"
       gradientTransform="matrix(2,0,0,2,-8.0000004,-5)" />
  </defs>
  <path
     id="path375"
     style="opacity:0.2;fill:#000000;fill-opacity:1;stroke-width:3.59589"
     d="M 13.5,11 C 11.044587,11 9.129615,12.431462 7.691163,16.279275 4.65351,24.399103 3,29.129784 3,32.938799 c 0,2.929572 0.9798143,4.778032 3.06079,5.864405 0.24388,0.127665 0.514756,0.197264 0.786989,0.196793 0.43336,7.78e-4 0.855306,-0.165787 1.179198,-0.469679 L 13.5,32.95454 c 0.974815,-0.912553 1.788278,-1.454541 4.168212,-1.454541 h 12.663576 c 2.379934,0 3.191439,0.541472 4.168212,1.454541 l 5.473024,5.575778 c 0.54012,0.505243 1.319284,0.610593 1.966185,0.272886 C 44.019693,37.717327 45,35.862567 45,32.930926 45,29.122428 43.345023,24.397549 40.308836,16.279275 38.870388,12.431462 36.954919,11 34.5,11 c -1.148311,0 -2.928532,0.31409 -3.896484,0.842269 -4.154601,2.259131 -8.957502,2.307241 -13.199341,0 C 16.432792,11.314096 14.647818,11 13.5,11 Z"
     sodipodi:nodetypes="scsccccsscccscsccs" />
  <path
     d="M 13.500001,10 C 11.044588,10 9.129617,11.431462 7.691164,15.279275 4.6535111,23.399103 3.0000012,28.129783 3.0000012,31.9388 c 0,2.929571 0.9798142,4.778031 3.0607908,5.864404 0.243879,0.127664 0.514755,0.197264 0.786988,0.196792 0.43336,9.34e-4 0.855307,-0.165786 1.179198,-0.469678 l 5.473023,-5.575778 c 0.974815,-0.912552 1.788277,-1.454539 4.168212,-1.454539 h 12.663576 c 2.379934,0 3.191439,0.541471 4.168212,1.454541 l 5.473024,5.575776 c 0.54012,0.505243 1.319284,0.610593 1.966185,0.272886 2.080485,-1.085877 3.060791,-2.940637 3.060791,-5.872277 0,-3.808499 -1.654975,-8.533376 -4.691163,-16.651652 C 38.87039,11.431462 36.954921,10 34.500001,10 c -1.148311,0 -2.928532,0.31409 -3.896484,0.842269 -4.154601,2.259132 -8.957502,2.307242 -13.199342,0 C 16.432793,10.314096 14.647819,10 13.500001,10 Z"
     style="fill:url(#linearGradient1016);fill-opacity:1;stroke-width:3.59589"
     id="path975"
     sodipodi:nodetypes="scsccccsscccscsccs" />
  <path
     id="rect1070"
     style="opacity:1;fill:url(#linearGradient1403);fill-opacity:1;stroke-width:3;stroke-linecap:round;stroke-linejoin:round"
     d="m 13,15 v 3 h -3 v 3 h 3 v 3 h 3 v -3 h 3 v -3 h -3 v -3 z" />
  <circle
     style="opacity:1;fill:url(#linearGradient1333);fill-opacity:1;stroke-width:3;stroke-linecap:round;stroke-linejoin:round"
     id="path1127"
     cx="33.5"
     cy="16.5"
     r="1.5" />
  <circle
     style="opacity:1;fill:url(#linearGradient1201);fill-opacity:1;stroke-width:3;stroke-linecap:round;stroke-linejoin:round"
     id="path1129"
     cx="30.5"
     cy="19.5"
     r="1.5" />
  <circle
     style="opacity:1;fill:url(#linearGradient1141);fill-opacity:1;stroke-width:3;stroke-linecap:round;stroke-linejoin:round"
     id="path1131"
     cx="36.5"
     cy="19.5"
     r="1.5" />
  <circle
     style="opacity:1;fill:url(#linearGradient1341);fill-opacity:1;stroke-width:3;stroke-linecap:round;stroke-linejoin:round"
     id="path1133"
     cx="33.5"
     cy="22.5"
     r="1.5" />
  <rect
     style="opacity:1;fill:url(#linearGradient1465);fill-opacity:1;stroke-width:4;stroke-linecap:round;stroke-linejoin:round"
     id="rect1457"
     width="4"
     height="2"
     x="22"
     y="15"
     ry="1" />
</svg>
