<?xml version="1.0" encoding="UTF-8" standalone="no"?>
<!-- Created with Inkscape (http://www.inkscape.org/) -->

<svg
   width="48"
   height="48"
   viewBox="0 0 48 48"
   version="1.1"
   id="svg5"
   sodipodi:docname="input-keyboard.svg"
   inkscape:version="1.2.1 (9c6d41e410, 2022-07-14)"
   xmlns:inkscape="http://www.inkscape.org/namespaces/inkscape"
   xmlns:sodipodi="http://sodipodi.sourceforge.net/DTD/sodipodi-0.dtd"
   xmlns:xlink="http://www.w3.org/1999/xlink"
   xmlns="http://www.w3.org/2000/svg"
   xmlns:svg="http://www.w3.org/2000/svg">
  <sodipodi:namedview
     id="namedview7"
     pagecolor="#ffffff"
     bordercolor="#666666"
     borderopacity="1.0"
     inkscape:showpageshadow="2"
     inkscape:pageopacity="0.0"
     inkscape:pagecheckerboard="0"
     inkscape:deskcolor="#d1d1d1"
     inkscape:document-units="px"
     showgrid="false"
     inkscape:zoom="16.5625"
     inkscape:cx="18.354717"
     inkscape:cy="24.030189"
     inkscape:window-width="1920"
     inkscape:window-height="1004"
     inkscape:window-x="0"
     inkscape:window-y="0"
     inkscape:window-maximized="1"
     inkscape:current-layer="svg5" />
  <defs
     id="defs2">
    <linearGradient
       inkscape:collect="always"
       xlink:href="#linearGradient22024"
       id="linearGradient932"
       x1="21.5"
       y1="18.021168"
       x2="0"
       y2="2.0211687"
       gradientUnits="userSpaceOnUse"
       gradientTransform="matrix(2,0,0,2,2,3.9576626)" />
    <linearGradient
       inkscape:collect="always"
       id="linearGradient22024">
      <stop
         style="stop-color:#cdcdcd;stop-opacity:1;"
         offset="0"
         id="stop22020" />
      <stop
         style="stop-color:#eff0f1;stop-opacity:1;"
         offset="1"
         id="stop22022" />
    </linearGradient>
  </defs>
  <rect
     style="opacity:0.2;fill:#000000;stroke-width:2;stroke-linecap:round;stroke-linejoin:round"
     id="rect934"
     width="43"
     height="32"
     x="2"
     y="9"
     ry="2" />
  <rect
     style="fill:url(#linearGradient932);fill-opacity:1;stroke-width:2;stroke-linecap:round;stroke-linejoin:round"
     id="rect370"
     width="43"
     height="32"
     x="2"
     y="8"
     ry="2" />
  <path
     id="rect555"
     style="opacity:1;fill:#b3b3b3;stroke-width:2;stroke-linecap:round;stroke-linejoin:round;fill-opacity:1"
     d="M 7 13 C 5.8920011 13 5 13.892001 5 15 L 5 16 C 5 17.107999 5.8920011 18 7 18 L 8 18 C 9.1079989 18 10 17.107999 10 16 L 10 15 C 10 13.892001 9.1079989 13 8 13 L 7 13 z M 15 13 C 13.892001 13 13 13.892001 13 15 L 13 16 C 13 17.107999 13.892001 18 15 18 L 16 18 C 17.107999 18 18 17.107999 18 16 L 18 15 C 18 13.892001 17.107999 13 16 13 L 15 13 z M 23 13 C 21.892001 13 21 13.892001 21 15 L 21 16 C 21 17.107999 21.892001 18 23 18 L 24 18 C 25.107999 18 26 17.107999 26 16 L 26 15 C 26 13.892001 25.107999 13 24 13 L 23 13 z M 31 13 C 29.892001 13 29 13.892001 29 15 L 29 16 C 29 17.107999 29.892001 18 31 18 L 32 18 C 33.107999 18 34 17.107999 34 16 L 34 15 C 34 13.892001 33.107999 13 32 13 L 31 13 z M 39 13 C 37.892001 13 37 13.892001 37 15 L 37 16 C 37 17.107999 37.892001 18 39 18 L 40 18 C 41.107999 18 42 17.107999 42 16 L 42 15 C 42 13.892001 41.107999 13 40 13 L 39 13 z M 7 21 C 5.8920011 21 5 21.892001 5 23 L 5 24 C 5 25.107999 5.8920011 26 7 26 L 8 26 C 9.1079989 26 10 25.107999 10 24 L 10 23 C 10 21.892001 9.1079989 21 8 21 L 7 21 z M 15 21 C 13.892001 21 13 21.892001 13 23 L 13 24 C 13 25.107999 13.892001 26 15 26 L 16 26 C 17.107999 26 18 25.107999 18 24 L 18 23 C 18 21.892001 17.107999 21 16 21 L 15 21 z M 23 21 C 21.892001 21 21 21.892001 21 23 L 21 24 C 21 25.107999 21.892001 26 23 26 L 24 26 C 25.107999 26 26 25.107999 26 24 L 26 23 C 26 21.892001 25.107999 21 24 21 L 23 21 z M 31 21 C 29.892001 21 29 21.892001 29 23 L 29 24 C 29 25.107999 29.892001 26 31 26 L 32 26 C 33.107999 26 34 25.107999 34 24 L 34 23 C 34 21.892001 33.107999 21 32 21 L 31 21 z M 39 21 C 37.892001 21 37 21.892001 37 23 L 37 24 C 37 25.107999 37.892001 26 39 26 L 40 26 C 41.107999 26 42 25.107999 42 24 L 42 23 C 42 21.892001 41.107999 21 40 21 L 39 21 z M 12 30 C 10.892001 30 10 30.892001 10 32 L 10 33 C 10 34.107999 10.892001 35 12 35 L 35 35 C 36.107999 35 37 34.107999 37 33 L 37 32 C 37 30.892001 36.107999 30 35 30 L 12 30 z " />
  <path
     id="rect657"
     style="opacity:0.3;fill:#000000;stroke-width:2;stroke-linecap:round;stroke-linejoin:round"
     d="M 7 13 C 5.8920022 13 5 13.892002 5 15 L 5 16 C 5 14.892002 5.8920022 14 7 14 L 8 14 C 9.1079978 14 10 14.892002 10 16 L 10 15 C 10 13.892002 9.1079978 13 8 13 L 7 13 z M 15 13 C 13.892002 13 13 13.892002 13 15 L 13 16 C 13 14.892002 13.892002 14 15 14 L 16 14 C 17.107998 14 18 14.892002 18 16 L 18 15 C 18 13.892002 17.107998 13 16 13 L 15 13 z M 23 13 C 21.892002 13 21 13.892002 21 15 L 21 16 C 21 14.892002 21.892002 14 23 14 L 24 14 C 25.107998 14 26 14.892002 26 16 L 26 15 C 26 13.892002 25.107998 13 24 13 L 23 13 z M 31 13 C 29.892002 13 29 13.892002 29 15 L 29 16 C 29 14.892002 29.892002 14 31 14 L 32 14 C 33.107998 14 34 14.892002 34 16 L 34 15 C 34 13.892002 33.107998 13 32 13 L 31 13 z M 39 13 C 37.892002 13 37 13.892002 37 15 L 37 16 C 37 14.892002 37.892002 14 39 14 L 40 14 C 41.107998 14 42 14.892002 42 16 L 42 15 C 42 13.892002 41.107998 13 40 13 L 39 13 z M 7 21 C 5.8920022 21 5 21.892002 5 23 L 5 24 C 5 22.892002 5.8920022 22 7 22 L 8 22 C 9.1079978 22 10 22.892002 10 24 L 10 23 C 10 21.892002 9.1079978 21 8 21 L 7 21 z M 15 21 C 13.892002 21 13 21.892002 13 23 L 13 24 C 13 22.892002 13.892002 22 15 22 L 16 22 C 17.107998 22 18 22.892002 18 24 L 18 23 C 18 21.892002 17.107998 21 16 21 L 15 21 z M 23 21 C 21.892002 21 21 21.892002 21 23 L 21 24 C 21 22.892002 21.892002 22 23 22 L 24 22 C 25.107998 22 26 22.892002 26 24 L 26 23 C 26 21.892002 25.107998 21 24 21 L 23 21 z M 31 21 C 29.892002 21 29 21.892002 29 23 L 29 24 C 29 22.892002 29.892002 22 31 22 L 32 22 C 33.107998 22 34 22.892002 34 24 L 34 23 C 34 21.892002 33.107998 21 32 21 L 31 21 z M 39 21 C 37.892002 21 37 21.892002 37 23 L 37 24 C 37 22.892002 37.892002 22 39 22 L 40 22 C 41.107998 22 42 22.892002 42 24 L 42 23 C 42 21.892002 41.107998 21 40 21 L 39 21 z M 12 30 C 10.892002 30 10 30.892002 10 32 L 10 33 C 10 31.892002 10.892002 31 12 31 L 35 31 C 36.107998 31 37 31.892002 37 33 L 37 32 C 37 30.892002 36.107998 30 35 30 L 12 30 z " />
</svg>
