<?xml version="1.0" encoding="UTF-8" standalone="no"?>
<!-- Created with Inkscape (http://www.inkscape.org/) -->

<svg
   width="64"
   height="64"
   viewBox="0 0 64 64"
   version="1.1"
   id="svg5"
   inkscape:version="1.2.2 (1:1.2.2+202305151914+b0a8486541)"
   sodipodi:docname="folder-music-open.svg"
   xmlns:inkscape="http://www.inkscape.org/namespaces/inkscape"
   xmlns:sodipodi="http://sodipodi.sourceforge.net/DTD/sodipodi-0.dtd"
   xmlns="http://www.w3.org/2000/svg"
   xmlns:svg="http://www.w3.org/2000/svg">
  <sodipodi:namedview
     id="namedview7"
     pagecolor="#ffffff"
     bordercolor="#000000"
     borderopacity="0.25"
     inkscape:showpageshadow="2"
     inkscape:pageopacity="0.0"
     inkscape:pagecheckerboard="0"
     inkscape:deskcolor="#d1d1d1"
     inkscape:document-units="px"
     showgrid="false"
     inkscape:zoom="12.59375"
     inkscape:cx="31.960298"
     inkscape:cy="32"
     inkscape:window-width="1920"
     inkscape:window-height="1008"
     inkscape:window-x="0"
     inkscape:window-y="0"
     inkscape:window-maximized="1"
     inkscape:current-layer="svg5" />
  <defs
     id="defs2">
    <style
       id="current-color-scheme"
       type="text/css">
         .ColorScheme-Text { color:#232629; }
         .ColorScheme-Highlight { color:#3daee9; }
     </style>
  </defs>
  <path
     d="M 8,9 C 5.784002,9 4,10.784002 4,13 v 40 c 0,2.216 1.784002,4 4,4 h 48 c 2.216,0 4,-1.784 4,-4 V 19 c 0,-2.215998 -1.784,-4 -4,-4 H 32 L 28,11 C 26.64145,9.679808 26.215998,9 24,9 Z"
     style="opacity:0.3;fill:#000000;stroke-width:2"
     id="path1016"
     sodipodi:nodetypes="ssssssssccss" />
  <path
     id="rect184"
     style="fill:currentColor;fill-opacity:1;stroke-width:2"
     class="ColorScheme-Highlight"
     d="M 8,8 C 5.784002,8 4,9.7840015 4,12 v 40 c 0,2.216 1.784002,4 4,4 h 48 c 2.216,0 4,-1.784 4,-4 V 18 c 0,-2.215998 -1.784,-4 -4,-4 H 32 L 28,10 C 26.622618,8.741329 26.215998,8 24,8 Z"
     sodipodi:nodetypes="sccsssssccss" />
  <path
     id="path1511"
     style="opacity:0.4;fill:#000000;fill-opacity:1;stroke-width:1"
     d="M 8,8 C 5.784006,8 4.0000001,9.784006 4.0000001,12 V 30 C 4.0000001,27.790864 5.790866,26 8,26 h 16 c 2.215994,0 2.66639,-0.77205 4,-2 l 4,-4 h 24 c 2.21599,0 4,1.784008 4,4 v -6 c 0,-2.215994 -1.784005,-4 -4,-4 H 32 L 28,10 C 26.622622,8.741332 26.215994,8 24,8 Z" />
  <path
     id="path3081"
     style="opacity:0.2;fill:#ffffff;stroke-width:2"
     d="m 32,20 -4,4 c -1.33361,1.227951 -1.784005,2 -4,2 H 8 c -2.2091345,0 -4,1.790864 -4,4 v 1 c 0,-2.209136 1.7908655,-4 4,-4 h 16 c 2.215994,0 2.666389,-0.77205 4,-2 l 4,-4 h 24 c 2.21599,0 4,1.784008 4,4 v -1 c 0,-2.215992 -1.78401,-4 -4,-4 z"
     sodipodi:nodetypes="ccssscssccscssc" />
  <path
     d="m 39.133648,30 -10.214843,2.638103 c -0.76738,0.205421 -1.385858,1.022357 -1.385858,1.816059 v 12.585021 c -0.778153,-0.407089 -1.777704,-0.571827 -2.813811,-0.302853 -1.869641,0.485325 -3.04144,2.054488 -2.640594,3.50349 0.400778,1.448995 2.243488,2.258165 4.113131,1.772855 1.491644,-0.387205 2.519995,-1.482925 2.683933,-2.638105 l 0.04333,-11.892714 9.695195,-2.594906 v 9.384358 c -0.77815,-0.407093 -1.776597,-0.571839 -2.812705,-0.302854 -1.869639,0.485326 -3.041436,2.054482 -2.640589,3.503484 0.400777,1.448994 2.242236,2.258165 4.111883,1.772855 1.491644,-0.387202 2.519997,-1.482912 2.68393,-2.638098 L 40,31.125335 c 0,-0.595287 -0.368693,-1.041228 -0.866172,-1.124969 z"
     style="opacity:0.6;fill:currentColor;stroke-width:1.38461"
     class="ColorScheme-Text"
     id="path960" />
</svg>
