<?xml version="1.0" encoding="UTF-8" standalone="no"?>
<svg
   width="22"
   height="22"
   version="1.1"
   viewBox="0 0 22 22"
   id="svg2"
   sodipodi:docname="auth-face-symbolic.svg"
   inkscape:version="1.4.2 (ebf0e940d0, 2025-05-08)"
   xmlns:inkscape="http://www.inkscape.org/namespaces/inkscape"
   xmlns:sodipodi="http://sodipodi.sourceforge.net/DTD/sodipodi-0.dtd"
   xmlns="http://www.w3.org/2000/svg"
   xmlns:svg="http://www.w3.org/2000/svg">
  <defs
     id="defs2">
    <style
       id="current-color-scheme"
       type="text/css">
        .ColorScheme-Text { color:#f2f2f2; }
     </style>
  </defs>
  <sodipodi:namedview
     id="namedview2"
     pagecolor="#ffffff"
     bordercolor="#000000"
     borderopacity="0.25"
     inkscape:showpageshadow="2"
     inkscape:pageopacity="0.0"
     inkscape:pagecheckerboard="0"
     inkscape:deskcolor="#d1d1d1"
     inkscape:zoom="36.136364"
     inkscape:cx="11"
     inkscape:cy="11"
     inkscape:window-width="1920"
     inkscape:window-height="1010"
     inkscape:window-x="0"
     inkscape:window-y="0"
     inkscape:window-maximized="1"
     inkscape:current-layer="svg2" />
  <path
     id="path1"
     style="fill:currentColor"
     class="ColorScheme-Text"
     d="M 6,4 C 4.338,4 3,5.338 3,7 V 9 H 4 V 7 C 4,5.892 4.892,5 6,5 H 8 V 4 Z m 8,0 v 1 h 2 c 1.108,0 2,0.892 2,2 v 2 h 1 V 7 C 19,5.338 17.662,4 16,4 Z M 9,8.0195312 c -0.55078,0 -1,0.44531 -1,0.9999998 0,0.55078 0.44922,1 1,1 0.55078,0 1,-0.44922 1,-1 C 10,8.4648413 9.55078,8.0195312 9,8.0195312 Z m 4,0 c -0.55078,0 -1,0.44531 -1,0.9999998 0,0.55078 0.44922,1 1,1 0.55078,0 1,-0.44922 1,-1 C 14,8.4648413 13.55078,8.0195312 13,8.0195312 Z M 7.4667969,12.001953 c -0.013371,0.0011 -0.027588,0.0037 -0.041016,0.0059 -0.050781,0.0039 -0.1015574,0.02344 -0.1484374,0.04687 -0.24609,0.12109 -0.3476626,0.421869 -0.2265626,0.667969 C 7.0507812,12.722656 8.2344,15 11,15 c 2.7656,0 3.949219,-2.277344 3.949219,-2.277344 0.12109,-0.24609 0.01953,-0.546879 -0.226563,-0.667968 -0.24609,-0.125 -0.546875,-0.02344 -0.671875,0.222656 C 14.050781,12.277344 13.23439,14 11,14 8.76561,14 7.9492187,12.277344 7.9492188,12.277344 7.8576653,12.094241 7.6673592,11.985714 7.4667969,12.001953 Z M 3,13 v 2 c 0,1.662 1.338,3 3,3 H 8 V 17 H 6 C 4.892,17 4,16.108 4,15 v -2 z m 15,0 v 2 c 0,1.108 -0.892,2 -2,2 h -2 v 1 h 2 c 1.662,0 3,-1.338 3,-3 v -2 z" />
</svg>
