<?xml version="1.0" encoding="UTF-8" standalone="no"?>
<svg
   width="16"
   height="16"
   version="1.1"
   id="svg1"
   sodipodi:docname="applications-games-symbolic.svg"
   inkscape:version="1.4.2 (ebf0e940d0, 2025-05-08)"
   xmlns:inkscape="http://www.inkscape.org/namespaces/inkscape"
   xmlns:sodipodi="http://sodipodi.sourceforge.net/DTD/sodipodi-0.dtd"
   xmlns="http://www.w3.org/2000/svg"
   xmlns:svg="http://www.w3.org/2000/svg">
  <defs
     id="defs1">
     <style
        id="current-color-scheme"
        type="text/css">
        .ColorScheme-Text { color:#363636; }
        .ColorScheme-NeutralText { color:#f67400; }
        .ColorScheme-PositiveText { color:#37c837; }
        .ColorScheme-NegativeText { color:#f44336; }
        .ColorScheme-Highlight { color:#3daee9; }
     </style>
  </defs>
  <sodipodi:namedview
     id="namedview1"
     pagecolor="#ffffff"
     bordercolor="#000000"
     borderopacity="0.25"
     inkscape:showpageshadow="2"
     inkscape:pageopacity="0.0"
     inkscape:pagecheckerboard="0"
     inkscape:deskcolor="#d1d1d1"
     inkscape:zoom="49.6875"
     inkscape:cx="8"
     inkscape:cy="8"
     inkscape:window-width="1920"
     inkscape:window-height="1010"
     inkscape:window-x="0"
     inkscape:window-y="0"
     inkscape:window-maximized="1"
     inkscape:current-layer="svg1" />
  <path
     id="path1"
     style="fill:currentColor"
     class="ColorScheme-Text"
     d="M 4.5 3 C 3.8958067 3 3.3203108 3.1145833 2.7734375 3.34375 C 2.2265775 3.56771 1.7421858 3.8932325 1.3203125 4.3203125 C 0.89322583 4.7473725 0.56510417 5.2343767 0.3359375 5.78125 C 0.1119775 6.32295 0 6.8958333 0 7.5 C 0 7.6822933 0.00520833 7.9010433 0.015625 8.15625 C 0.02604167 8.4114567 0.046875 8.6875017 0.078125 8.984375 C 0.114585 9.281255 0.1640625 9.5885433 0.2265625 9.90625 C 0.2942692 10.218757 0.38020833 10.526043 0.484375 10.828125 C 0.64062833 11.276065 0.82291667 11.643226 1.03125 11.929688 C 1.2395833 12.210933 1.4557275 12.43229 1.6796875 12.59375 C 1.9036475 12.749997 2.1302083 12.856769 2.359375 12.914062 C 2.588535 12.971357 2.80208 13 3 13 C 3.1718733 13 3.3281233 12.971356 3.46875 12.914062 C 3.6145833 12.851557 3.75 12.773433 3.875 12.679688 C 4.0052133 12.585938 4.1250017 12.479168 4.234375 12.359375 C 4.3489617 12.234375 4.4609392 12.109375 4.5703125 11.984375 C 4.6796858 11.859375 4.7864583 11.739587 4.890625 11.625 C 4.9999983 11.510413 5.1119758 11.408853 5.2265625 11.320312 C 5.3411492 11.226562 5.4609375 11.151043 5.5859375 11.09375 C 5.7161508 11.03645 5.8567725 11.0052 6.0078125 11 L 9.9921875 11 C 10.143228 11.0052 10.28125 11.03646 10.40625 11.09375 C 10.536457 11.15104 10.65885 11.226566 10.773438 11.320312 C 10.888017 11.408853 10.997397 11.510413 11.101562 11.625 C 11.210937 11.73958 11.320313 11.859375 11.429688 11.984375 L 11.757812 12.359375 C 11.8724 12.479168 11.992187 12.58594 12.117188 12.679688 C 12.247393 12.773438 12.38281 12.851564 12.523438 12.914062 C 12.66927 12.971356 12.828127 13 13 13 C 13.197913 13 13.411458 12.971363 13.640625 12.914062 C 13.869792 12.856772 14.096353 12.750003 14.320312 12.59375 C 14.544272 12.432297 14.760417 12.210941 14.96875 11.929688 C 15.177083 11.643208 15.359378 11.276045 15.515625 10.828125 C 15.619792 10.526038 15.703125 10.21875 15.765625 9.90625 C 15.833335 9.5885367 15.882817 9.2812483 15.914062 8.984375 C 15.950513 8.6875017 15.973955 8.4114567 15.984375 8.15625 C 15.994798 7.9010453 16 7.6822933 16 7.5 C 16 6.8958 15.885417 6.3229167 15.65625 5.78125 C 15.43229 5.2343967 15.106767 4.7473925 14.679688 4.3203125 C 14.252627 3.8932325 13.765623 3.56771 13.21875 3.34375 C 12.67705 3.1145833 12.104167 3 11.5 3 L 4.5 3 z M 4.5 4 L 11.5 4 C 11.984393 4 12.437502 4.09375 12.859375 4.28125 C 13.286475 4.4635433 13.65625 4.7135433 13.96875 5.03125 C 14.286457 5.34377 14.536457 5.713545 14.71875 6.140625 C 14.90625 6.5625183 15 7.0156267 15 7.5 C 15 7.6354133 14.994805 7.8151025 14.984375 8.0390625 C 14.979175 8.2630225 14.960938 8.5130225 14.929688 8.7890625 C 14.903647 9.0598958 14.861978 9.3437517 14.804688 9.640625 C 14.747397 9.937505 14.669274 10.22396 14.570312 10.5 C 14.440107 10.875 14.296878 11.164066 14.140625 11.367188 C 13.984372 11.570313 13.830727 11.718753 13.679688 11.8125 C 13.533853 11.90625 13.398438 11.960937 13.273438 11.976562 C 13.153651 11.99219 13.0625 12 13 12 C 12.88542 12 12.757813 11.932288 12.617188 11.796875 C 12.481766 11.656248 12.338539 11.499998 12.1875 11.328125 C 12.0625 11.182292 11.927083 11.033853 11.78125 10.882812 C 11.640623 10.72656 11.481767 10.585937 11.304688 10.460938 C 11.132813 10.33073 10.940103 10.223958 10.726562 10.140625 C 10.513017 10.057298 10.276038 10.01042 10.015625 10 L 5.984375 10 C 5.7239617 10.010413 5.4869842 10.057292 5.2734375 10.140625 C 5.0598908 10.223958 4.86458 10.330731 4.6875 10.460938 C 4.5156267 10.585936 4.3567708 10.72656 4.2109375 10.882812 C 4.0703108 11.033853 3.9375 11.182292 3.8125 11.328125 C 3.66146 11.499998 3.5156267 11.656248 3.375 11.796875 C 3.2395867 11.932288 3.1145867 12 3 12 C 2.9375 12 2.84375 11.99219 2.71875 11.976562 C 2.5989567 11.960937 2.46354 11.906247 2.3125 11.8125 C 2.1666733 11.718753 2.0156283 11.570313 1.859375 11.367188 C 1.7031217 11.16406 1.5598942 10.875 1.4296875 10.5 C 1.3307262 10.223953 1.2526045 9.9374983 1.1953125 9.640625 C 1.1380225 9.3437517 1.09375 9.0598958 1.0625 8.7890625 C 1.036458 8.5130225 1.0182285 8.2630225 1.0078125 8.0390625 C 1.0026053 7.8151025 1 7.6354133 1 7.5 C 1 7.0156067 1.0911442 6.5624983 1.2734375 6.140625 C 1.4609375 5.713525 1.7109375 5.34375 2.0234375 5.03125 C 2.3411642 4.7135433 2.7109392 4.4635433 3.1328125 4.28125 C 3.5599058 4.09375 4.0156267 4 4.5 4 z M 3 6 L 3 7 L 2 7 L 2 8 L 3 8 L 3 9 L 4 9 L 4 8 L 5 8 L 5 7 L 4 7 L 4 6 L 3 6 z M 11 6 A 1 1 0 0 0 10 7 A 1 1 0 0 0 11 8 A 1 1 0 0 0 12 7 A 1 1 0 0 0 11 6 z M 13 8 A 1 1 0 0 0 12 9 A 1 1 0 0 0 13 10 A 1 1 0 0 0 14 9 A 1 1 0 0 0 13 8 z " />
</svg>
