<?xml version="1.0" encoding="UTF-8" standalone="no"?>
<svg
   width="16"
   height="16"
   version="1.1"
   id="svg1"
   sodipodi:docname="emoji-travel-symbolic.svg"
   inkscape:version="1.4.2 (ebf0e940d0, 2025-05-08)"
   xmlns:inkscape="http://www.inkscape.org/namespaces/inkscape"
   xmlns:sodipodi="http://sodipodi.sourceforge.net/DTD/sodipodi-0.dtd"
   xmlns="http://www.w3.org/2000/svg"
   xmlns:svg="http://www.w3.org/2000/svg">
  <defs
     id="defs1">
     <style
        id="current-color-scheme"
        type="text/css">
        .ColorScheme-Text { color:#363636; }
        .ColorScheme-NeutralText { color:#f67400; }
        .ColorScheme-PositiveText { color:#37c837; }
        .ColorScheme-NegativeText { color:#f44336; }
        .ColorScheme-Highlight { color:#3daee9; }
     </style>
  </defs>
  <sodipodi:namedview
     id="namedview1"
     pagecolor="#ffffff"
     bordercolor="#000000"
     borderopacity="0.25"
     inkscape:showpageshadow="2"
     inkscape:pageopacity="0.0"
     inkscape:pagecheckerboard="0"
     inkscape:deskcolor="#d1d1d1"
     inkscape:zoom="49.6875"
     inkscape:cx="8"
     inkscape:cy="8"
     inkscape:window-width="1920"
     inkscape:window-height="1010"
     inkscape:window-x="0"
     inkscape:window-y="0"
     inkscape:window-maximized="1"
     inkscape:current-layer="svg1" />
  <path
     id="path1"
     style="fill:currentColor"
     class="ColorScheme-Text"
     d="M 3 1 C 2.272 1 1.67025 2.4999531 1.53125 4.5019531 A 1 1 0 0 0 1.5 4.5 A 1 1 0 0 0 0.5 5.5 A 1 1 0 0 0 0.75390625 6.1621094 C 0.28190625 6.4181094 0 6.7 0 7 L 0 14.5 C 0 14.777 0.223 15 0.5 15 L 2.0683594 15 C 2.3453594 15 2.5683594 14.777 2.5683594 14.5 L 2.5683594 12.462891 C 3.9953594 12.792891 5.892 13 8 13 C 10.108 13 12.004641 12.793891 13.431641 12.462891 L 13.431641 14.5 C 13.431641 14.777 13.654641 15 13.931641 15 L 15.5 15 C 15.777 15 16 14.777 16 14.5 L 16 7 C 16 6.7 15.720047 6.4171094 15.248047 6.1621094 A 1 1 0 0 0 15.5 5.5 A 1 1 0 0 0 14.5 4.5 A 1 1 0 0 0 14.46875 4.5 C 14.32875 2.498 13.727 1 13 1 L 3 1 z M 3.3359375 2 L 12.664062 2 C 13.127062 2 13.5 3.561 13.5 5.5 L 13.498047 5.5507812 C 12.065047 5.2127812 10.139 5 8 5 C 5.86 5 3.9339531 5.2098281 2.5019531 5.5488281 L 2.5 5.5 C 2.5 3.561 2.8729375 2 3.3359375 2 z M 8 6 C 11.878 6 15 6.6433594 15 7.4433594 L 15 10.556641 C 15 11.356641 11.878 12 8 12 C 4.122 12 1 11.356641 1 10.556641 L 1 7.4433594 C 1 6.6433594 4.122 6 8 6 z M 3 8 A 1 1 0 0 0 2 9 A 1 1 0 0 0 3 10 A 1 1 0 0 0 4 9 A 1 1 0 0 0 3 8 z M 13 8 A 1 1 0 0 0 12 9 A 1 1 0 0 0 13 10 A 1 1 0 0 0 14 9 A 1 1 0 0 0 13 8 z M 5.5 10 A 0.5 0.5 0 0 0 5.5 11 L 10.5 11 A 0.5 0.5 0 0 0 10.5 10 L 5.5 10 z " />
</svg>
