<?xml version="1.0" encoding="UTF-8" standalone="no"?>
<svg
   width="24"
   height="24"
   version="1.1"
   viewBox="0 0 24 24"
   id="svg2"
   sodipodi:docname="user-trash-symbolic.svg"
   inkscape:version="1.4.2 (ebf0e940d0, 2025-05-08)"
   xmlns:inkscape="http://www.inkscape.org/namespaces/inkscape"
   xmlns:sodipodi="http://sodipodi.sourceforge.net/DTD/sodipodi-0.dtd"
   xmlns="http://www.w3.org/2000/svg"
   xmlns:svg="http://www.w3.org/2000/svg">
  <sodipodi:namedview
     id="namedview2"
     pagecolor="#ffffff"
     bordercolor="#000000"
     borderopacity="0.25"
     inkscape:showpageshadow="2"
     inkscape:pageopacity="0.0"
     inkscape:pagecheckerboard="0"
     inkscape:deskcolor="#d1d1d1"
     inkscape:zoom="33.125"
     inkscape:cx="12"
     inkscape:cy="12"
     inkscape:window-width="1920"
     inkscape:window-height="1010"
     inkscape:window-x="0"
     inkscape:window-y="0"
     inkscape:window-maximized="1"
     inkscape:current-layer="svg2" />
  <defs
     id="defs1">
    <style
       id="current-color-scheme"
       type="text/css">.ColorScheme-Text { color:#363636; }</style>
  </defs>
  <path
     id="path1"
     style="fill:currentColor;fill-opacity:1"
     class="ColorScheme-Text"
     d="M 12,4 C 10.7309,4.0025929 9.6007344,4.80348 9.1777344,6 H 5 C 4.72386,6 4.5,6.22386 4.5,6.5 L 4.50781,6.589844 C 4.5501425,6.8230837 4.75454,7 5,7 h 0.5527344 l 1.296875,11.228516 C 6.9660494,19.237716 7.8200875,20 8.8359375,20 h 6.3281245 c 1.015901,0 1.869929,-0.762264 1.986329,-1.771484 L 18.445312,7 H 19 C 19.2761,7 19.5,6.77614 19.5,6.5 19.5,6.22386 19.2761,6 19,6 H 14.828125 C 14.404385,4.8015 13.2712,4.0001 12,4 Z m 0,1 c 0.71398,5.537e-4 1.373469,0.38168 1.730469,1 H 10.275391 C 10.631321,5.3835 11.2881,5.00265 12,5 Z M 6.5605469,7 H 17.4375 L 16.15625,18.115234 C 16.09805,18.619834 15.672063,19 15.164062,19 H 8.8359375 C 8.3279975,19 7.90197,18.619834 7.84375,18.115234 Z M 10.5,9 C 10.223,9 10,9.223 10,9.5 v 7 c 0,0.277 0.223,0.5 0.5,0.5 0.277,0 0.5,-0.223 0.5,-0.5 v -7 C 11,9.223 10.777,9 10.5,9 Z m 3,0 C 13.223,9 13,9.223 13,9.5 v 7 c 0,0.277 0.223,0.5 0.5,0.5 0.277,0 0.5,-0.223 0.5,-0.5 v -7 C 14,9.223 13.777,9 13.5,9 Z" />
</svg>
