<?xml version="1.0" encoding="UTF-8" standalone="no"?>
<svg
   width="16"
   height="16"
   version="1.1"
   id="svg1"
   sodipodi:docname="audio-headset-symbolic.svg"
   inkscape:version="1.4.2 (ebf0e940d0, 2025-05-08)"
   xmlns:inkscape="http://www.inkscape.org/namespaces/inkscape"
   xmlns:sodipodi="http://sodipodi.sourceforge.net/DTD/sodipodi-0.dtd"
   xmlns="http://www.w3.org/2000/svg"
   xmlns:svg="http://www.w3.org/2000/svg">
  <defs
     id="defs1">
    <style
       id="current-color-scheme"
       type="text/css">
        .ColorScheme-Text { color:#f2f2f2; }
     </style>
  </defs>
  <sodipodi:namedview
     id="namedview1"
     pagecolor="#ffffff"
     bordercolor="#000000"
     borderopacity="0.25"
     inkscape:showpageshadow="2"
     inkscape:pageopacity="0.0"
     inkscape:pagecheckerboard="0"
     inkscape:deskcolor="#d1d1d1"
     inkscape:zoom="49.678185"
     inkscape:cx="8.0015001"
     inkscape:cy="8.0015001"
     inkscape:window-width="1920"
     inkscape:window-height="1010"
     inkscape:window-x="0"
     inkscape:window-y="0"
     inkscape:window-maximized="1"
     inkscape:current-layer="svg1" />
  <path
     id="path1"
     style="fill:currentColor"
     class="ColorScheme-Text"
     d="m 8,0.00195313 c -3.3137,0 -6,2.68629997 -6,5.99999997 v 5.9999999 c 0,1.6569 1.3432,3 3,3 h 1.2675781 c 0.3458,0.5978 0.9921419,1 1.7324219,1 1.1046,0 2,-0.8954 2,-2 0,-1.1046 -0.8954,-2 -2,-2 -1.10457,0 -2,0.8954 -2,2 H 5 c -1.10457,0 -2,-0.8954 -2,-2 v -1 h 2 c 0.55228,0 1,-0.4477 1,-1 V 7.0019531 c 0,-0.55228 -0.44772,-1 -1,-1 H 3 c 0,-2.7614 2.2386,-5 5,-5 2.7614,0 5,2.2386 5,5 h -2 c -0.5523,0 -1,0.44772 -1,1 v 2.9999999 c 0,0.5523 0.4477,1 1,1 h 1 c 1.1046,0 2,-0.8954 2,-1.9999999 v -3 C 14,2.6882531 11.3137,0.00195313 8,0.00195313 Z M 3,7.0019531 H 5 V 10.001953 H 3 Z m 8,0 h 2 v 2 c 0,0.5523 -0.4477,0.9999999 -1,0.9999999 H 11 Z M 8,13.001953 c 0.5523,0 1,0.4477 1,1 0,0.5523 -0.4477,1 -1,1 -0.55228,0 -1,-0.4477 -1,-1 0,-0.5523 0.44772,-1 1,-1 z" />
</svg>
