<?xml version="1.0" encoding="UTF-8" standalone="no"?>
<svg
   width="16"
   height="16"
   version="1.1"
   id="svg1"
   sodipodi:docname="audio-input-microphone-symbolic.svg"
   inkscape:version="1.4.2 (ebf0e940d0, 2025-05-08)"
   xmlns:inkscape="http://www.inkscape.org/namespaces/inkscape"
   xmlns:sodipodi="http://sodipodi.sourceforge.net/DTD/sodipodi-0.dtd"
   xmlns="http://www.w3.org/2000/svg"
   xmlns:svg="http://www.w3.org/2000/svg">
  <defs
   id="defs1">
   <style
    id="current-color-scheme"
    type="text/css">
    .ColorScheme-Text { color:#f2f2f2; }
   </style>
  </defs>
  <path
     d="M 7.5,0 C 5.561,0 4,1.561 4,3.5 v 5 C 4,10.439 5.561,12 7.5,12 9.439,12 11,10.439 11,8.5 v -5 C 11,1.561 9.439,0 7.5,0 Z m 0,1 C 8.885,1 10,2.115 10,3.5 v 5 C 10,9.885 8.885,11 7.5,11 6.115,11 5,9.885 5,8.5 v -5 C 5,2.115 6.115,1 7.5,1 Z m -5,6 A 0.5,0.5 0 0 0 2,7.5 v 1 c 0,2.8784 2.1891,5.2255 5,5.4766 V 15 H 5.5 C 5.223,15 5,15.223 5,15.5 5,15.777 5.223,16 5.5,16 h 4 C 9.777,16 10,15.777 10,15.5 10,15.223 9.777,15 9.5,15 H 8 V 13.9766 C 10.8109,13.72549 13,11.3784 13,8.5 V 7.5 7.49219 A 0.5,0.5 0 0 0 12.5,6.9999975 0.5,0.5 0 0 0 12,7.4921875 0.5,0.5 0 0 0 12,7.5 v 1 C 12,10.993 9.993,13 7.5,13 5.007,13 3,10.993 3,8.5 V 7.4922 A 0.5,0.5 0 0 0 2.5,7.00001 Z"
     style="fill:currentColor"
     class="ColorScheme-Text"
     id="path1" />
</svg>
