<?xml version="1.0" encoding="UTF-8" standalone="no"?>
<!-- Created with Inkscape (http://www.inkscape.org/) -->

<svg
   width="256"
   height="256"
   viewBox="0 0 256 256.00002"
   version="1.1"
   id="svg5"
   inkscape:version="1.2.2 (1:1.2.2+202305151914+b0a8486541)"
   sodipodi:docname="application-x-cd-image.svg"
   xmlns:inkscape="http://www.inkscape.org/namespaces/inkscape"
   xmlns:sodipodi="http://sodipodi.sourceforge.net/DTD/sodipodi-0.dtd"
   xmlns:xlink="http://www.w3.org/1999/xlink"
   xmlns="http://www.w3.org/2000/svg"
   xmlns:svg="http://www.w3.org/2000/svg">
  <sodipodi:namedview
     id="namedview7"
     pagecolor="#ffffff"
     bordercolor="#000000"
     borderopacity="0.25"
     inkscape:showpageshadow="2"
     inkscape:pageopacity="0.0"
     inkscape:pagecheckerboard="0"
     inkscape:deskcolor="#d1d1d1"
     inkscape:document-units="px"
     showgrid="false"
     inkscape:zoom="3.0859375"
     inkscape:cx="128"
     inkscape:cy="128"
     inkscape:window-width="1920"
     inkscape:window-height="1012"
     inkscape:window-x="0"
     inkscape:window-y="0"
     inkscape:window-maximized="1"
     inkscape:current-layer="svg5" />
  <defs
     id="defs2">
    <linearGradient
       inkscape:collect="always"
       id="linearGradient22024">
      <stop
         style="stop-color:#cccccc;stop-opacity:1;"
         offset="0"
         id="stop22020" />
      <stop
         style="stop-color:#f5f5f5;stop-opacity:1;"
         offset="0.5"
         id="stop2585" />
      <stop
         style="stop-color:#cccccc;stop-opacity:1;"
         offset="1"
         id="stop22022" />
    </linearGradient>
    <linearGradient
       inkscape:collect="always"
       id="linearGradient1334">
      <stop
         style="stop-color:#4b4b4b;stop-opacity:1;"
         offset="0"
         id="stop1330" />
      <stop
         style="stop-color:#737373;stop-opacity:1;"
         offset="1"
         id="stop1332" />
    </linearGradient>
    <linearGradient
       inkscape:collect="always"
       xlink:href="#linearGradient22024"
       id="linearGradient3711"
       x1="24.222958"
       y1="24"
       x2="46"
       y2="45.390713"
       gradientUnits="userSpaceOnUse"
       gradientTransform="scale(4)" />
    <linearGradient
       inkscape:collect="always"
       xlink:href="#linearGradient1334"
       id="linearGradient3719"
       x1="14"
       y1="4"
       x2="50"
       y2="60"
       gradientUnits="userSpaceOnUse"
       gradientTransform="scale(4)" />
  </defs>
  <path
     id="rect234"
     style="opacity:0.2;stroke-width:4;stroke-linecap:round;stroke-linejoin:round"
     d="m 56,17 h 96 l 64,64 v 144 c 0,8.864 -7.136,16 -16,16 H 56 c -8.864,0 -16,-7.136 -16,-16 V 33 c 0,-8.864 7.136,-16 16,-16 z"
     sodipodi:nodetypes="sccssssss" />
  <path
     id="rect448"
     style="fill:url(#linearGradient3719);fill-opacity:1;stroke-width:4;stroke-linecap:round;stroke-linejoin:round"
     d="m 56,16 h 96 l 24,40 40,24 v 144 c 0,8.864 -7.136,16 -16,16 H 56 c -8.864,0 -16,-7.136 -16,-16 V 32 c 0,-8.864 7.136,-16 16,-16 z"
     sodipodi:nodetypes="scccssssss" />
  <path
     id="path4048"
     style="fill:url(#linearGradient3711);fill-opacity:1;stroke:none;stroke-width:3.7333;stroke-linejoin:round"
     d="m 128,96 c -30.927752,0 -56,25.07225 -56,56 0,30.92775 25.072248,56 56,56 30.92775,0 56,-25.07225 56,-56 0,-30.92775 -25.07225,-56 -56,-56 z m 0,44 a 12,12 0 0 1 12,12 12,12 0 0 1 -12,12 12,12 0 0 1 -12,-12 12,12 0 0 1 12,-12 z" />
  <path
     d="m 216,81 h -48 c -8.864,0 -16,-7.136 -16,-16 V 16 l 64,64 z"
     style="opacity:0.2;fill:#000000;stroke-width:4;stroke-linecap:round;stroke-linejoin:round"
     id="path611"
     sodipodi:nodetypes="cssccc" />
  <path
     id="rect600"
     style="fill:#b3b3b3;fill-opacity:1;stroke-width:4;stroke-linecap:round;stroke-linejoin:round"
     d="m 216,80 h -48 c -8.864,0 -16,-7.136 -16,-16 V 16 l 32,32 z"
     sodipodi:nodetypes="cssccc" />
  <path
     id="path498"
     style="opacity:0.2;fill:#000000;fill-opacity:1;stroke-width:4;stroke-linecap:round;stroke-linejoin:round;paint-order:stroke fill markers"
     d="m 128,128 a 24,24 0 0 0 -24,24 24,24 0 0 0 24,24 24,24 0 0 0 24,-24 24,24 0 0 0 -24,-24 z m 0,12 a 12,12 0 0 1 12,12 12,12 0 0 1 -12,12 12,12 0 0 1 -12,-12 12,12 0 0 1 12,-12 z" />
</svg>
