<?xml version="1.0" encoding="UTF-8" standalone="no"?>
<!-- Created with Inkscape (http://www.inkscape.org/) -->

<svg
   width="256"
   height="256"
   viewBox="0 0 256 256.00002"
   version="1.1"
   id="svg5"
   inkscape:version="1.2.2 (1:1.2.2+202305151914+b0a8486541)"
   sodipodi:docname="application-vnd.ms-powerpoint.template.macroenabled.12.svg"
   xmlns:inkscape="http://www.inkscape.org/namespaces/inkscape"
   xmlns:sodipodi="http://sodipodi.sourceforge.net/DTD/sodipodi-0.dtd"
   xmlns:xlink="http://www.w3.org/1999/xlink"
   xmlns="http://www.w3.org/2000/svg"
   xmlns:svg="http://www.w3.org/2000/svg">
  <sodipodi:namedview
     id="namedview7"
     pagecolor="#ffffff"
     bordercolor="#000000"
     borderopacity="0.25"
     inkscape:showpageshadow="2"
     inkscape:pageopacity="0.0"
     inkscape:pagecheckerboard="0"
     inkscape:deskcolor="#d1d1d1"
     inkscape:document-units="px"
     showgrid="false"
     inkscape:zoom="3.0859375"
     inkscape:cx="127.83797"
     inkscape:cy="128"
     inkscape:window-width="1920"
     inkscape:window-height="1012"
     inkscape:window-x="0"
     inkscape:window-y="0"
     inkscape:window-maximized="1"
     inkscape:current-layer="svg5"
     showguides="false" />
  <defs
     id="defs2">
    <linearGradient
       inkscape:collect="always"
       id="linearGradient1865">
      <stop
         style="stop-color:#d04423;stop-opacity:1;"
         offset="0"
         id="stop1861" />
      <stop
         style="stop-color:#e16c4c;stop-opacity:1;"
         offset="1"
         id="stop1863" />
    </linearGradient>
    <linearGradient
       inkscape:collect="always"
       xlink:href="#linearGradient1865"
       id="linearGradient3736"
       x1="56"
       y1="16"
       x2="200"
       y2="240"
       gradientUnits="userSpaceOnUse" />
    <linearGradient
       inkscape:collect="always"
       xlink:href="#linearGradient1865"
       id="linearGradient3738"
       x1="56"
       y1="16"
       x2="200"
       y2="240"
       gradientUnits="userSpaceOnUse" />
    <linearGradient
       inkscape:collect="always"
       xlink:href="#linearGradient1865"
       id="linearGradient3740"
       x1="56"
       y1="16"
       x2="200"
       y2="240"
       gradientUnits="userSpaceOnUse" />
    <linearGradient
       inkscape:collect="always"
       xlink:href="#linearGradient1214"
       id="linearGradient2080"
       x1="92"
       y1="127.99969"
       x2="219.99998"
       y2="243.99855"
       gradientUnits="userSpaceOnUse"
       gradientTransform="translate(-1.2999969e-6)" />
    <linearGradient
       inkscape:collect="always"
       id="linearGradient1214">
      <stop
         style="stop-color:#d3d3db;stop-opacity:1;"
         offset="0"
         id="stop1210" />
      <stop
         style="stop-color:#eaeaee;stop-opacity:1;"
         offset="1"
         id="stop1212" />
    </linearGradient>
  </defs>
  <path
     id="rect234"
     style="opacity:0.2;stroke-width:4;stroke-linecap:round;stroke-linejoin:round"
     d="m 56,17 h 96 l 64,64 v 144 c 0,8.864 -7.136,16 -16,16 H 56 c -8.864,0 -16,-7.136 -16,-16 V 33 c 0,-8.864 7.136,-16 16,-16 z"
     sodipodi:nodetypes="sccssssss" />
  <path
     id="rect448"
     style="fill:url(#linearGradient3736);fill-opacity:1;stroke-width:4;stroke-linecap:round;stroke-linejoin:round"
     d="m 56,16 h 96 l 24,40 40,24 v 144 c 0,8.864 -7.136,16 -16,16 H 56 c -8.864,0 -16,-7.136 -16,-16 V 32 c 0,-8.864 7.136,-16 16,-16 z"
     sodipodi:nodetypes="scccssssss" />
  <circle
     style="opacity:0.3;fill:#ffffff;fill-opacity:1;stroke-width:37.3334;stroke-linejoin:bevel"
     id="path31463"
     cx="136"
     cy="160.00002"
     r="55.999992" />
  <path
     id="path31465"
     style="opacity:0.7;fill:#ffffff;fill-opacity:1;stroke-width:28;stroke-linejoin:bevel"
     d="M 79.999999,159.99999 A 55.999996,55.999996 0 0 0 135.99998,216 55.999996,55.999996 0 0 0 192,159.99999 h -56.00002 z" />
  <path
     id="path31759"
     style="opacity:0.5;fill:#ffffff;fill-opacity:1;stroke-width:28;stroke-linejoin:bevel"
     d="M 135.99998,104 A 55.999992,55.999996 0 0 0 79.999995,159.99999 H 135.99998 Z" />
  <rect
     style="fill:url(#linearGradient3738);fill-opacity:1;stroke-width:8"
     id="rect3242"
     width="72.000008"
     height="72.000008"
     x="56"
     y="124"
     ry="12.000002" />
  <rect
     style="fill:#ffffff;fill-opacity:1;stroke-width:3.99998"
     id="rect2687"
     width="64.000008"
     height="64.000008"
     x="60"
     y="127.99963"
     ry="7.9999986" />
  <path
     id="rect4291"
     style="fill:url(#linearGradient3740);fill-opacity:1;stroke-width:4"
     d="m 75.999995,136 v 48.00001 h 8.000001 v -16 h 8.000001 A 16.000002,16.000002 0 0 0 108,152.00001 16.000002,16.000002 0 0 0 91.999997,136 h -8.000001 z m 8.000001,8.00001 h 8.000001 a 8.0000007,8.0000007 0 0 1 8.000001,8 8.0000007,8.0000007 0 0 1 -8.000001,8 h -8.000001 z" />
  <path
     d="m 216,81 h -48 c -8.864,0 -16,-7.136 -16,-16 V 16 l 64,64 z"
     style="opacity:0.2;fill:#000000;stroke-width:4;stroke-linecap:round;stroke-linejoin:round"
     id="path611"
     sodipodi:nodetypes="cssccc" />
  <path
     id="rect600"
     style="fill:#f2beb2;fill-opacity:1;stroke-width:4;stroke-linecap:round;stroke-linejoin:round"
     d="m 216,80 h -48 c -8.864,0 -16,-7.136 -16,-16 V 16 l 32,32 z"
     sodipodi:nodetypes="cssccc" />
  <path
     d="m 211.60767,141.01306 c -1.41936,0.0672 -2.82,0.49722 -4.04694,1.31253 L 79.575076,230.34204 c -6.58248,4.39182 -3.47552,14.65354 4.43758,14.6565 H 211.99831 c 4.41814,-4.4e-4 7.99969,-3.58196 8.00013,-8.00014 v -88.00082 c -0.004,-2.95002 -1.63177,-5.65827 -4.23445,-7.04699 -1.29888,-0.69507 -2.73696,-1.00513 -4.15632,-0.93753 z m -11.6098,29.98426 v 53.99943 h -77.99916 z"
     style="color:#000000;opacity:0.2;fill:#000000;stroke-width:16.0003;stroke-linecap:round;stroke-linejoin:round"
     id="path5222"
     sodipodi:nodetypes="ccccccccccccc" />
  <path
     id="path5201"
     style="color:#000000;fill:url(#linearGradient2080);fill-opacity:1;stroke-width:16.0003;stroke-linecap:round;stroke-linejoin:round"
     d="m 211.60923,140.01306 c -1.41936,0.0672 -2.82,0.4972 -4.04696,1.31255 L 79.576636,229.34204 c -6.58248,4.39182 -3.47554,14.65352 4.43758,14.6565 H 211.99985 c 4.41816,-4.4e-4 7.9997,-3.58198 8.00014,-8.00014 v -88.00082 c -0.004,-2.95001 -1.63176,-5.65829 -4.23446,-7.04699 -1.29888,-0.69505 -2.73696,-1.0051 -4.1563,-0.93753 z m -11.6098,29.98424 v 54.0018 h -77.99916 z"
     sodipodi:nodetypes="ccccccccccccc" />
</svg>
