<?xml version="1.0" encoding="UTF-8" standalone="no"?>
<!-- Created with Inkscape (http://www.inkscape.org/) -->

<svg
   width="256"
   height="256"
   viewBox="0 0 256 256.00002"
   version="1.1"
   id="svg5"
   inkscape:version="1.2.2 (1:1.2.2+202305151914+b0a8486541)"
   sodipodi:docname="image-svg+xml.svg"
   xmlns:inkscape="http://www.inkscape.org/namespaces/inkscape"
   xmlns:sodipodi="http://sodipodi.sourceforge.net/DTD/sodipodi-0.dtd"
   xmlns:xlink="http://www.w3.org/1999/xlink"
   xmlns="http://www.w3.org/2000/svg"
   xmlns:svg="http://www.w3.org/2000/svg">
  <sodipodi:namedview
     id="namedview7"
     pagecolor="#ffffff"
     bordercolor="#000000"
     borderopacity="0.25"
     inkscape:showpageshadow="2"
     inkscape:pageopacity="0.0"
     inkscape:pagecheckerboard="0"
     inkscape:deskcolor="#d1d1d1"
     inkscape:document-units="px"
     showgrid="false"
     inkscape:zoom="3.0859375"
     inkscape:cx="127.83797"
     inkscape:cy="128"
     inkscape:window-width="1920"
     inkscape:window-height="1012"
     inkscape:window-x="0"
     inkscape:window-y="0"
     inkscape:window-maximized="1"
     inkscape:current-layer="svg5"
     showguides="false" />
  <defs
     id="defs2">
    <linearGradient
       inkscape:collect="always"
       id="linearGradient899">
      <stop
         style="stop-color:#dddddd;stop-opacity:1;"
         offset="0"
         id="stop895" />
      <stop
         style="stop-color:#eeeeee;stop-opacity:1;"
         offset="1"
         id="stop897" />
    </linearGradient>
    <linearGradient
       inkscape:collect="always"
       xlink:href="#linearGradient899"
       id="linearGradient12914"
       x1="56"
       y1="16"
       x2="200"
       y2="240"
       gradientUnits="userSpaceOnUse" />
  </defs>
  <path
     id="rect234"
     style="opacity:0.2;stroke-width:4;stroke-linecap:round;stroke-linejoin:round"
     d="m 56,17 h 96 l 64,64 v 144 c 0,8.864 -7.136,16 -16,16 H 56 c -8.864,0 -16,-7.136 -16,-16 V 33 c 0,-8.864 7.136,-16 16,-16 z"
     sodipodi:nodetypes="sccssssss" />
  <path
     id="rect448"
     style="fill:url(#linearGradient12914);fill-opacity:1;stroke-width:4;stroke-linecap:round;stroke-linejoin:round"
     d="m 56,16 h 96 l 24,40 40,24 v 144 c 0,8.864 -7.136,16 -16,16 H 56 c -8.864,0 -16,-7.136 -16,-16 V 32 c 0,-8.864 7.136,-16 16,-16 z"
     sodipodi:nodetypes="scccssssss" />
  <path
     d="m 216,81 h -48 c -8.864,0 -16,-7.136 -16,-16 V 16 l 64,64 z"
     style="opacity:0.2;fill:#000000;stroke-width:4;stroke-linecap:round;stroke-linejoin:round"
     id="path611"
     sodipodi:nodetypes="cssccc" />
  <path
     id="rect600"
     style="fill:#f8f8f8;fill-opacity:1;stroke-width:4;stroke-linecap:round;stroke-linejoin:round"
     d="m 216,80 h -48 c -8.864,0 -16,-7.136 -16,-16 V 16 l 32,32 z"
     sodipodi:nodetypes="cssccc" />
  <path
     id="path15573"
     style="color:#000000;fill:#f34f17;stroke-width:1.00001;-inkscape-stroke:none"
     d="m 84.000006,128.00002 c -4.394613,0 -8.000006,3.60536 -8.000006,8 0,4.3946 3.605393,8 8.000006,8 2.412636,0 4.58376,-1.08952 6.054681,-2.79688 l 74.171893,40.93749 c -0.1448,0.59916 -0.2264,1.21784 -0.2264,1.8594 0,4.3946 3.6054,8 8,8 4.3946,0 8,-3.6054 8,-8 0,-4.39464 -3.6054,-8.00004 -8,-8.00004 -2.31992,0 -4.40924,1.0142 -5.875,2.6094 L 91.83594,137.61718 v -0.008 c 0.10716,-0.51916 0.16408,-1.06004 0.16408,-1.60936 0,-4.3946 -3.605394,-8 -7.999994,-8 z m 0,4 c 2.232836,0 3.999996,1.76712 3.999996,4 0,2.23284 -1.76716,4 -3.999996,4 -2.232849,0 -4.000001,-1.76716 -4.000001,-4 0,-2.23288 1.767152,-4.00004 4.000001,-4 z m 88.000014,48.00001 c 2.23284,0 4,1.76712 4,4 0,2.23284 -1.76716,4 -4,4 -2.23284,0 -4,-1.76716 -4,-4 0,-2.23288 1.76716,-4.00004 4,-4 z" />
  <path
     d="m 96.0006,216.00187 c 52.00021,23.99985 76.00006,-32.0002 32.00001,-56.00005 -44.000036,-24.00004 -19.99929,-80.000119 32.00001,-56.00009"
     style="color:#000000;opacity:0.25;fill:#8f76e4;fill-opacity:1;fill-rule:evenodd;stroke-width:60.4732;-inkscape-stroke:none"
     id="path15601" />
  <path
     d="m 133.92387,96.274696 c -13.16271,0.719332 -22.92089,7.441234 -27.61533,16.830124 -7.51114,15.02232 -1.87625,36.2642 20.83209,48.65052 21.29178,11.61377 25.65694,30.37201 19.16806,43.34977 -6.48892,12.97788 -24.01688,20.78109 -49.37325,9.07824 l -1.67579,3.6328 c 26.64377,12.29713 47.11604,4.10025 54.62716,-10.92192 7.51113,-15.0222 1.87624,-36.26428 -20.83211,-48.65057 -21.29179,-11.61364 -25.65694,-30.37188 -19.16805,-43.34976 6.48893,-12.97785 24.01688,-20.781096 49.37325,-9.07817 l 1.67576,-3.63284 c -9.99141,-4.611406 -19.11417,-6.339822 -27.01179,-5.908194 z"
     style="color:#000000;fill:#8c59d9;fill-rule:evenodd;stroke-width:60.4736;-inkscape-stroke:none"
     id="path15634" />
  <path
     id="path15581"
     style="color:#000000;fill:#ffffff;stroke:none;stroke-width:4.00004;stroke-dashoffset:1;-inkscape-stroke:none"
     d="m 154.00001,98.000004 v 12.000006 h 12.00001 V 98.000004 Z m -32,56.000016 v 12.00001 h 12 v -12.00001 z m -32.000011,56.00001 v 12.00001 H 102 v -12.00001 z" />
  <path
     id="path15583"
     style="color:#000000;fill:#8f76e4;stroke:none;stroke-width:1.00001;stroke-dashoffset:1;-inkscape-stroke:none"
     d="m 152.00001,96 v 2.000004 14.000016 h 16.00001 V 96 Z m 4.00001,4 h 8 v 8.00001 h -8 z M 120,152.00002 v 2 14.00001 h 16.00001 v -16.00001 z m 4.00001,4 h 8 v 8 h -8 z M 88.000002,208.00003 V 209.99999 224 h 16.000008 v -15.99997 z m 3.999998,4 h 8 v 8.00001 h -8 z" />
</svg>
