<?xml version="1.0" encoding="UTF-8" standalone="no"?>
<!-- Created with Inkscape (http://www.inkscape.org/) -->

<svg
   width="256"
   height="256"
   viewBox="0 0 256 256.00002"
   version="1.1"
   id="svg5"
   inkscape:version="1.2.1 (9c6d41e410, 2022-07-14)"
   sodipodi:docname="playlist.svg"
   xmlns:inkscape="http://www.inkscape.org/namespaces/inkscape"
   xmlns:sodipodi="http://sodipodi.sourceforge.net/DTD/sodipodi-0.dtd"
   xmlns="http://www.w3.org/2000/svg"
   xmlns:svg="http://www.w3.org/2000/svg">
  <sodipodi:namedview
     id="namedview7"
     pagecolor="#ffffff"
     bordercolor="#000000"
     borderopacity="0.25"
     inkscape:showpageshadow="2"
     inkscape:pageopacity="0.0"
     inkscape:pagecheckerboard="0"
     inkscape:deskcolor="#d1d1d1"
     inkscape:document-units="px"
     showgrid="false"
     inkscape:zoom="3.1953125"
     inkscape:cx="127.84352"
     inkscape:cy="128"
     inkscape:window-width="1920"
     inkscape:window-height="1006"
     inkscape:window-x="0"
     inkscape:window-y="0"
     inkscape:window-maximized="1"
     inkscape:current-layer="svg5"
     showguides="false" />
  <defs
     id="defs2" />
  <path
     id="rect234"
     style="opacity:0.2;stroke-width:4;stroke-linecap:round;stroke-linejoin:round"
     d="m 56,17 h 96 l 64,64 v 144 c 0,8.864 -7.136,16 -16,16 H 56 c -8.864,0 -16,-7.136 -16,-16 V 33 c 0,-8.864 7.136,-16 16,-16 z"
     sodipodi:nodetypes="sccssssss" />
  <path
     id="rect448"
     style="fill:#eaeaea;fill-opacity:1;stroke-width:4;stroke-linecap:round;stroke-linejoin:round"
     d="m 56,16 h 96 l 24,40 40,24 v 144 c 0,8.864 -7.136,16 -16,16 H 56 c -8.864,0 -16,-7.136 -16,-16 V 32 c 0,-8.864 7.136,-16 16,-16 z"
     sodipodi:nodetypes="scccssssss" />
  <path
     d="m 216,81 h -48 c -8.864,0 -16,-7.136 -16,-16 V 16 l 64,64 z"
     style="opacity:0.2;fill:#000000;stroke-width:4;stroke-linecap:round;stroke-linejoin:round"
     id="path611"
     sodipodi:nodetypes="cssccc" />
  <path
     id="rect600"
     style="fill:#f8f8f8;fill-opacity:1;stroke-width:4;stroke-linecap:round;stroke-linejoin:round"
     d="m 216,80 h -48 c -8.864,0 -16,-7.136 -16,-16 V 16 l 32,32 z"
     sodipodi:nodetypes="cssccc" />
  <path
     d="m 163.93894,104 c -2.21452,0 -3.99736,1.7828 -3.99736,3.99732 v 76.21501 c -4.89876,-2.05572 -11.02417,-1.33856 -16.27042,1.905 -8.54682,5.28716 -12.24625,15.58125 -8.26014,22.98473 3.97998,7.40332 14.13212,9.11632 22.67244,3.8256 6.179,-3.8292 10.04748,-10.47928 9.8372,-16.91065 5.6e-4,-0.028 0.016,-0.0504 0.016,-0.078 v -64.95685 c 0.96236,-0.53136 2.45752,0.61492 3.24784,1.15548 8.98152,5.43381 16.82284,14.45117 17.37908,25.56113 0.4812,6.42676 -0.86484,12.8188 -2.71692,18.92492 8.25656,-13.5842 7.81256,-32.4834 -2.38903,-44.89205 -6.58049,-6.86636 -12.78593,-14.87056 -15.52097,-24.17144 -0.1996,-0.88344 -1.40588,-3.56012 -3.99732,-3.56012 z m -87.941595,7.99468 c -2.214529,0 -3.997345,1.7828 -3.997345,3.99736 0,2.21452 1.782816,3.99732 3.997345,3.99732 h 55.962835 c 2.21453,0 3.99735,-1.7828 3.99735,-3.99732 0,-2.21456 -1.78282,-3.99736 -3.99735,-3.99736 z m 0,23.98409 c -2.214529,0 -3.997345,1.7828 -3.997345,3.99732 0,2.21456 1.782816,3.99736 3.997345,3.99736 h 55.962835 c 2.21453,0 3.99735,-1.7828 3.99735,-3.99736 0,-2.21452 -1.78282,-3.99732 -3.99735,-3.99732 z m 0,23.98404 c -2.214529,0 -3.997345,1.78284 -3.997345,3.99736 0,2.21452 1.782816,3.99736 3.997345,3.99736 h 55.962835 c 2.21453,0 3.99735,-1.78284 3.99735,-3.99736 0,-2.21452 -1.78282,-3.99736 -3.99735,-3.99736 z m 0,23.98408 c -2.214529,0 -3.997345,1.7828 -3.997345,3.99736 0,2.21452 1.782816,3.99732 3.997345,3.99732 h 31.978765 c 2.21453,0 3.99734,-1.7828 3.99734,-3.99732 0,-2.21456 -1.78281,-3.99736 -3.99734,-3.99736 z"
     style="color:#000000;clip-rule:nonzero;display:inline;overflow:visible;visibility:visible;isolation:auto;mix-blend-mode:normal;color-interpolation:sRGB;color-interpolation-filters:linearRGB;solid-color:#000000;solid-opacity:1;fill:#ff7f2a;fill-opacity:1;fill-rule:nonzero;stroke:none;stroke-width:4;stroke-linecap:butt;stroke-linejoin:round;stroke-miterlimit:4;stroke-dasharray:none;stroke-dashoffset:0;stroke-opacity:1;marker:none;color-rendering:auto;image-rendering:auto;shape-rendering:auto;text-rendering:auto;enable-background:accumulate"
     id="path329" />
</svg>
