<?xml version="1.0" encoding="UTF-8" standalone="no"?>
<!-- Created with Inkscape (http://www.inkscape.org/) -->

<svg
   width="256"
   height="256"
   viewBox="0 0 256 256.00002"
   version="1.1"
   id="svg5"
   inkscape:version="1.2.2 (1:1.2.2+202305151914+b0a8486541)"
   sodipodi:docname="text-x-csharp.svg"
   xmlns:inkscape="http://www.inkscape.org/namespaces/inkscape"
   xmlns:sodipodi="http://sodipodi.sourceforge.net/DTD/sodipodi-0.dtd"
   xmlns:xlink="http://www.w3.org/1999/xlink"
   xmlns="http://www.w3.org/2000/svg"
   xmlns:svg="http://www.w3.org/2000/svg">
  <sodipodi:namedview
     id="namedview7"
     pagecolor="#ffffff"
     bordercolor="#000000"
     borderopacity="0.25"
     inkscape:showpageshadow="2"
     inkscape:pageopacity="0.0"
     inkscape:pagecheckerboard="0"
     inkscape:deskcolor="#d1d1d1"
     inkscape:document-units="px"
     showgrid="false"
     inkscape:zoom="3.0859375"
     inkscape:cx="128"
     inkscape:cy="128"
     inkscape:window-width="1920"
     inkscape:window-height="1012"
     inkscape:window-x="0"
     inkscape:window-y="0"
     inkscape:window-maximized="1"
     inkscape:current-layer="svg5" />
  <defs
     id="defs2">
    <linearGradient
       inkscape:collect="always"
       id="linearGradient899">
      <stop
         style="stop-color:#dddddd;stop-opacity:1;"
         offset="0"
         id="stop895" />
      <stop
         style="stop-color:#eeeeee;stop-opacity:1;"
         offset="1"
         id="stop897" />
    </linearGradient>
    <linearGradient
       inkscape:collect="always"
       id="linearGradient5476">
      <stop
         style="stop-color:#9049c2;stop-opacity:1;"
         offset="0"
         id="stop5472" />
      <stop
         style="stop-color:#b655c6;stop-opacity:1;"
         offset="1"
         id="stop5474" />
    </linearGradient>
    <linearGradient
       inkscape:collect="always"
       xlink:href="#linearGradient5476"
       id="linearGradient900"
       x1="34"
       y1="32"
       x2="46"
       y2="48"
       gradientUnits="userSpaceOnUse"
       gradientTransform="scale(4)" />
    <linearGradient
       inkscape:collect="always"
       xlink:href="#linearGradient899"
       id="linearGradient908"
       x1="14"
       y1="4"
       x2="50"
       y2="60"
       gradientUnits="userSpaceOnUse"
       gradientTransform="scale(4)" />
  </defs>
  <path
     id="rect234"
     style="opacity:0.2;stroke-width:4;stroke-linecap:round;stroke-linejoin:round"
     d="m 56,17 h 96 l 64,64 v 144 c 0,8.864 -7.136,16 -16,16 H 56 c -8.864,0 -16,-7.136 -16,-16 V 33 c 0,-8.864 7.136,-16 16,-16 z"
     sodipodi:nodetypes="sccssssss" />
  <path
     id="rect448"
     style="fill:url(#linearGradient908);fill-opacity:1;stroke-width:4;stroke-linecap:round;stroke-linejoin:round"
     d="m 56,16 h 96 l 24,40 40,24 v 144 c 0,8.864 -7.136,16 -16,16 H 56 c -8.864,0 -16,-7.136 -16,-16 V 32 c 0,-8.864 7.136,-16 16,-16 z"
     sodipodi:nodetypes="scccssssss" />
  <path
     id="path13398"
     style="color:#000000;text-indent:0;text-decoration-line:none;text-transform:none;fill:url(#linearGradient900);fill-opacity:1;stroke-width:15.1184"
     d="m 96,128 a 24,24 0 0 0 -24,24 v 16 a 24,24 0 0 0 24,24 h 16 v -8 H 96 A 16,16 0 0 1 80,168 v -16 a 16.000002,16.000002 0 0 1 16,-16 h 16 v -8 z m 40,0 v 16 h -16 v 8 h 16 v 16 h -16 v 8 h 16 v 16 h 8 v -16 h 16 v 16 h 8 v -16 h 16 v -8 h -16 v -16 h 16 v -8 h -16 v -16 h -8 v 16 h -16 v -16 z m 8,24 h 16 v 16 h -16 z" />
  <path
     d="m 216,81 h -48 c -8.864,0 -16,-7.136 -16,-16 V 16 l 64,64 z"
     style="opacity:0.2;fill:#000000;stroke-width:4;stroke-linecap:round;stroke-linejoin:round"
     id="path611"
     sodipodi:nodetypes="cssccc" />
  <path
     id="rect600"
     style="fill:#f8f8f8;fill-opacity:1;stroke-width:4;stroke-linecap:round;stroke-linejoin:round"
     d="m 216,80 h -48 c -8.864,0 -16,-7.136 -16,-16 V 16 l 32,32 z"
     sodipodi:nodetypes="cssccc" />
</svg>
