<?xml version="1.0" encoding="UTF-8" standalone="no"?>
<!-- Created with Inkscape (http://www.inkscape.org/) -->

<svg
   width="256"
   height="256"
   viewBox="0 0 256 256.00002"
   version="1.1"
   id="svg5"
   inkscape:version="1.2.1 (9c6d41e410, 2022-07-14)"
   sodipodi:docname="x-office-drawing.svg"
   xmlns:inkscape="http://www.inkscape.org/namespaces/inkscape"
   xmlns:sodipodi="http://sodipodi.sourceforge.net/DTD/sodipodi-0.dtd"
   xmlns="http://www.w3.org/2000/svg"
   xmlns:svg="http://www.w3.org/2000/svg">
  <sodipodi:namedview
     id="namedview7"
     pagecolor="#ffffff"
     bordercolor="#000000"
     borderopacity="0.25"
     inkscape:showpageshadow="2"
     inkscape:pageopacity="0.0"
     inkscape:pagecheckerboard="0"
     inkscape:deskcolor="#d1d1d1"
     inkscape:document-units="px"
     showgrid="false"
     inkscape:zoom="3.1953125"
     inkscape:cx="127.84352"
     inkscape:cy="128"
     inkscape:window-width="1920"
     inkscape:window-height="1004"
     inkscape:window-x="0"
     inkscape:window-y="0"
     inkscape:window-maximized="1"
     inkscape:current-layer="svg5" />
  <defs
     id="defs2" />
  <path
     id="rect234"
     style="opacity:0.2;stroke-width:4;stroke-linecap:round;stroke-linejoin:round"
     d="m 56,17 h 96 l 64,64 v 144 c 0,8.864 -7.136,16 -16,16 H 56 c -8.864,0 -16,-7.136 -16,-16 V 33 c 0,-8.864 7.136,-16 16,-16 z"
     sodipodi:nodetypes="sccssssss" />
  <path
     id="rect448"
     style="fill:#ffb940;fill-opacity:1;stroke-width:4;stroke-linecap:round;stroke-linejoin:round"
     d="m 56,16 h 96 l 24,40 40,24 v 144 c 0,8.864 -7.136,16 -16,16 H 56 c -8.864,0 -16,-7.136 -16,-16 V 32 c 0,-8.864 7.136,-16 16,-16 z"
     sodipodi:nodetypes="scccssssss" />
  <path
     d="m 216,81 h -48 c -8.864,0 -16,-7.136 -16,-16 V 16 l 64,64 z"
     style="opacity:0.2;fill:#000000;stroke-width:4;stroke-linecap:round;stroke-linejoin:round"
     id="path611"
     sodipodi:nodetypes="cssccc" />
  <path
     id="rect600"
     style="fill:#fede92;fill-opacity:1;stroke-width:4;stroke-linecap:round;stroke-linejoin:round"
     d="m 216,80 h -48 c -8.864,0 -16,-7.136 -16,-16 V 16 l 32,32 z"
     sodipodi:nodetypes="cssccc" />
  <path
     d="m 158.92186,118.13106 c -1.41844,-0.036 -2.89196,0.24116 -4.34375,1.04688 -4.57886,2.54692 -6.28814,7.59374 -6.33594,12.11719 -0.0478,4.52344 1.05092,9.16167 2.03907,13.60156 0.98814,4.43989 1.85651,8.68406 1.79687,11.64063 -0.0596,2.95656 -0.44319,3.97346 -2.23437,4.875 -1.49845,0.75418 -2.37944,0.81155 -3.1875,0.67187 -0.80807,-0.13968 -1.71571,-0.58429 -2.84376,-1.54687 -2.25609,-1.92517 -4.94026,-5.84324 -8.01562,-10.11719 -3.07536,-4.27395 -6.64451,-8.94176 -11.67188,-12.25 -5.02736,-3.30824 -11.65779,-4.98115 -19.39062,-3.21875 l -0.0781,0.0236 -0.0781,0.0156 c -5.067436,1.37292 -8.880208,5.16972 -11.515624,9.78906 -2.635416,4.61934 -4.256284,10.20282 -5.046876,16.14062 -0.06664,0.50054 0.07076,1.03378 0.0156,1.53906 -1.575068,-0.0959 -3.100548,-0.3326 -4.6875,-0.3672 h -0.0156 l -7.21876,-0.0939 -4,-0.0547 -0.10936,8 4,0.0547 7.171876,0.0938 c 1.808872,0.0396 3.183048,0.65821 4.945312,0.80469 0.18828,8.92661 1.581376,17.85405 5.906248,24.85157 l 0.07812,0.125 0.08592,0.125 c 6.676524,9.19714 18.078574,11.8822 26.585934,8.5703 4.25369,-1.65594 7.92263,-5.17546 9.04688,-10.03124 1.12425,-4.85578 -0.24092,-10.47902 -4.125,-16.50782 -5.64988,-8.76991 -16.94737,-13.15711 -29.734378,-14.94531 0.04008,-0.36224 -0.06332,-0.75109 -0.0156,-1.10937 0.684656,-5.14216 2.1309,-9.83498 4.070308,-13.23438 1.92863,-3.38048 4.18884,-5.31933 6.61719,-5.99218 5.78111,-1.28688 9.58673,-0.20624 13.09375,2.10156 3.53476,2.32603 6.63849,6.15686 9.57813,10.24218 2.93964,4.08533 5.61846,8.37907 9.3125,11.53126 1.84702,1.57609 4.06348,2.89152 6.67969,3.34374 2.6162,0.45223 5.45531,-0.0625 8.14062,-1.41406 4.67205,-2.3515 6.5501,-7.37159 6.64062,-11.85937 0.0906,-4.48779 -0.99496,-9.09349 -1.98437,-13.53907 -0.98941,-4.44557 -1.88382,-8.72832 -1.85156,-11.78124 0.0324,-3.05293 0.4746,-4.23297 2.21875,-5.20313 v -0.008 c -0.1984,0.11036 0.53705,-0.1214 2.03906,0.3672 1.50202,0.48859 3.4691,1.49989 5.3125,2.64844 3.6868,2.29711 6.85156,5.00781 6.85156,5.00781 l 3.02344,2.61719 5.22656,-6.05469 -3.02344,-2.61718 c 0,0 -3.50748,-3.04042 -7.84374,-5.74219 -2.16814,-1.35089 -4.54742,-2.64808 -7.07032,-3.46875 -1.26144,-0.41034 -2.63384,-0.75282 -4.05468,-0.78906 z m -62.8125,54.05469 c 10.47807,1.96401 19.62321,5.14861 22.85938,10.17188 3.12628,4.85255 3.54272,8.26711 3.05468,10.37499 -0.48804,2.1079 -1.82525,3.47536 -4.15625,4.38282 -4.63425,1.8041 -12.60517,0.3302 -17.10156,-5.75 -2.987154,-4.91434 -4.251558,-11.95754 -4.65625,-19.17969 z"
     style="color:#000000;fill:#ffffff;stroke:none;stroke-width:4;stroke-linecap:square;-inkscape-stroke:none"
     id="path1026" />
</svg>
