<?xml version="1.0" encoding="UTF-8" standalone="no"?>
<!-- Created with Inkscape (http://www.inkscape.org/) -->

<svg
   width="256"
   height="256"
   viewBox="0 0 256 256.00002"
   version="1.1"
   id="svg5"
   inkscape:version="1.2.2 (1:1.2.2+202305151914+b0a8486541)"
   sodipodi:docname="x-office-document-template.svg"
   xmlns:inkscape="http://www.inkscape.org/namespaces/inkscape"
   xmlns:sodipodi="http://sodipodi.sourceforge.net/DTD/sodipodi-0.dtd"
   xmlns:xlink="http://www.w3.org/1999/xlink"
   xmlns="http://www.w3.org/2000/svg"
   xmlns:svg="http://www.w3.org/2000/svg">
  <sodipodi:namedview
     id="namedview7"
     pagecolor="#ffffff"
     bordercolor="#000000"
     borderopacity="0.25"
     inkscape:showpageshadow="2"
     inkscape:pageopacity="0.0"
     inkscape:pagecheckerboard="0"
     inkscape:deskcolor="#d1d1d1"
     inkscape:document-units="px"
     showgrid="false"
     inkscape:zoom="3.0859375"
     inkscape:cx="128"
     inkscape:cy="128"
     inkscape:window-width="1920"
     inkscape:window-height="1012"
     inkscape:window-x="0"
     inkscape:window-y="0"
     inkscape:window-maximized="1"
     inkscape:current-layer="svg5" />
  <defs
     id="defs2">
    <linearGradient
       inkscape:collect="always"
       id="linearGradient1060">
      <stop
         style="stop-color:#2275d4;stop-opacity:1;"
         offset="0"
         id="stop1056" />
      <stop
         style="stop-color:#54a0fa;stop-opacity:1;"
         offset="1"
         id="stop1058" />
    </linearGradient>
    <linearGradient
       inkscape:collect="always"
       xlink:href="#linearGradient1060"
       id="linearGradient4146"
       x1="14"
       y1="4"
       x2="50"
       y2="60"
       gradientUnits="userSpaceOnUse"
       gradientTransform="scale(4)" />
    <linearGradient
       inkscape:collect="always"
       xlink:href="#linearGradient1214"
       id="linearGradient2080"
       x1="92"
       y1="127.99969"
       x2="219.99998"
       y2="243.99855"
       gradientUnits="userSpaceOnUse"
       gradientTransform="translate(4.0619612e-6)" />
    <linearGradient
       inkscape:collect="always"
       id="linearGradient1214">
      <stop
         style="stop-color:#d3d3db;stop-opacity:1;"
         offset="0"
         id="stop1210" />
      <stop
         style="stop-color:#eaeaee;stop-opacity:1;"
         offset="1"
         id="stop1212" />
    </linearGradient>
  </defs>
  <path
     id="rect234"
     style="opacity:0.2;stroke-width:4;stroke-linecap:round;stroke-linejoin:round"
     d="m 56,17 h 96 l 64,64 v 144 c 0,8.864 -7.136,16 -16,16 H 56 c -8.864,0 -16,-7.136 -16,-16 V 33 c 0,-8.864 7.136,-16 16,-16 z"
     sodipodi:nodetypes="sccssssss" />
  <path
     id="rect448"
     style="fill:url(#linearGradient4146);fill-opacity:1;stroke-width:4;stroke-linecap:round;stroke-linejoin:round"
     d="m 56,16 h 96 l 24,40 40,24 v 144 c 0,8.864 -7.136,16 -16,16 H 56 c -8.864,0 -16,-7.136 -16,-16 V 32 c 0,-8.864 7.136,-16 16,-16 z"
     sodipodi:nodetypes="scccssssss" />
  <path
     id="rect4373"
     style="fill:#ffffff;stroke-width:8"
     d="m 72,112 c -2.215996,0 -4,1.784 -4,4 0,2.216 1.784004,4 4,4 h 48 c 2.216,0 4,-1.784 4,-4 0,-2.216 -1.784,-4 -4,-4 z m 0,16 c -2.215996,0 -4,1.784 -4,4 0,2.216 1.784004,4 4,4 h 48 c 2.216,0 4,-1.784 4,-4 0,-2.216 -1.784,-4 -4,-4 z m 0,16 c -2.215996,0 -4,1.784 -4,4 0,2.216 1.784004,4 4,4 h 48 c 2.216,0 4,-1.784 4,-4 0,-2.216 -1.784,-4 -4,-4 z m 0,16 c -2.215996,0 -4,1.784 -4,4 0,2.216 1.784004,4 4,4 h 112 c 2.216,0 4,-1.784 4,-4 0,-2.216 -1.784,-4 -4,-4 z m 0,16 c -2.215996,0 -4,1.784 -4,4 0,2.216 1.784004,4 4,4 h 112 c 2.216,0 4,-1.784 4,-4 0,-2.216 -1.784,-4 -4,-4 z m 0,16 c -2.215996,0 -4,1.784 -4,4 0,2.216 1.784004,4 4,4 h 48 c 2.216,0 4,-1.784 4,-4 0,-2.216 -1.784,-4 -4,-4 z"
     sodipodi:nodetypes="ssssssssssssssssssssssssssssssssssssssssss" />
  <path
     id="rect4649"
     style="fill:#7ad2f9;fill-opacity:1;stroke-width:8"
     d="m 140,112 c -4.43199,0 -8,3.56801 -8,8 v 24 c 0,4.43199 3.56801,8 8,8 h 40 c 4.432,0 8,-3.56801 8,-8 v -24 c 0,-4.43199 -3.568,-8 -8,-8 z m 8,12 24,20 h -32 z m 28,-4 c 2.20914,0 4,1.79086 4,4 0,2.20914 -1.79086,4 -4,4 -2.20914,0 -4,-1.79086 -4,-4 0,-2.20914 1.79086,-4 4,-4 z"
     sodipodi:nodetypes="sssssssssccccsssss" />
  <path
     d="m 216,81 h -48 c -8.864,0 -16,-7.136 -16,-16 V 16 l 64,64 z"
     style="opacity:0.2;fill:#000000;stroke-width:4;stroke-linecap:round;stroke-linejoin:round"
     id="path611"
     sodipodi:nodetypes="cssccc" />
  <path
     id="rect600"
     style="fill:#94c4f5;fill-opacity:1;stroke-width:4;stroke-linecap:round;stroke-linejoin:round"
     d="m 216,80 h -48 c -8.864,0 -16,-7.136 -16,-16 V 16 l 32,32 z"
     sodipodi:nodetypes="cssccc" />
  <path
     d="m 211.60767,141.01307 c -1.41936,0.0672 -2.82,0.49722 -4.04694,1.31252 L 79.575073,230.34205 c -6.58248,4.39182 -3.47551,14.65354 4.43758,14.6565 H 211.99831 c 4.41814,-4.4e-4 7.99969,-3.58196 8.00013,-8.00014 v -88.00082 c -0.004,-2.95002 -1.63177,-5.65828 -4.23445,-7.047 -1.29888,-0.69506 -2.73696,-1.00512 -4.15632,-0.93752 z m -11.6098,29.98426 v 53.99942 h -77.99916 z"
     style="color:#000000;opacity:0.2;fill:#000000;stroke-width:16.0003;stroke-linecap:round;stroke-linejoin:round"
     id="path5222"
     sodipodi:nodetypes="ccccccccccccc" />
  <path
     id="path5201"
     style="color:#000000;fill:url(#linearGradient2080);fill-opacity:1;stroke-width:16.0003;stroke-linecap:round;stroke-linejoin:round"
     d="m 211.60923,140.01307 c -1.41936,0.0672 -2.82,0.4972 -4.04696,1.31254 L 79.576633,229.34205 c -6.58248,4.39182 -3.47553,14.65352 4.43758,14.6565 H 211.99985 c 4.41816,-4.4e-4 7.9997,-3.58198 8.00014,-8.00014 v -88.00082 c -0.004,-2.95002 -1.63176,-5.6583 -4.23446,-7.047 -1.29888,-0.69504 -2.73696,-1.0051 -4.1563,-0.93752 z m -11.6098,29.98424 v 54.0018 h -77.99916 z"
     sodipodi:nodetypes="ccccccccccccc" />
</svg>
