<?xml version="1.0" encoding="UTF-8" standalone="no"?>
<!-- Created with Inkscape (http://www.inkscape.org/) -->

<svg
   width="64"
   height="64"
   viewBox="0 0 64 64"
   version="1.1"
   id="svg5"
   inkscape:version="1.2.1 (9c6d41e410, 2022-07-14)"
   sodipodi:docname="folder-blue-recent-open.svg"
   xmlns:inkscape="http://www.inkscape.org/namespaces/inkscape"
   xmlns:sodipodi="http://sodipodi.sourceforge.net/DTD/sodipodi-0.dtd"
   xmlns:xlink="http://www.w3.org/1999/xlink"
   xmlns="http://www.w3.org/2000/svg"
   xmlns:svg="http://www.w3.org/2000/svg">
  <sodipodi:namedview
     id="namedview7"
     pagecolor="#ffffff"
     bordercolor="#000000"
     borderopacity="0.25"
     inkscape:showpageshadow="2"
     inkscape:pageopacity="0.0"
     inkscape:pagecheckerboard="0"
     inkscape:deskcolor="#d1d1d1"
     inkscape:document-units="px"
     showgrid="false"
     inkscape:zoom="6.265625"
     inkscape:cx="11.650873"
     inkscape:cy="18.194514"
     inkscape:window-width="1920"
     inkscape:window-height="1006"
     inkscape:window-x="0"
     inkscape:window-y="0"
     inkscape:window-maximized="1"
     inkscape:current-layer="svg5" />
  <defs
     id="defs2">
    <linearGradient
       inkscape:collect="always"
       id="linearGradient3155">
      <stop
         style="stop-color:#2c89b7;stop-opacity:1;"
         offset="0"
         id="stop3151" />
      <stop
         style="stop-color:#2077a5;stop-opacity:1;"
         offset="1"
         id="stop3153" />
    </linearGradient>
    <linearGradient
       inkscape:collect="always"
       id="linearGradient3147">
      <stop
         style="stop-color:#36aded;stop-opacity:1;"
         offset="0"
         id="stop3143" />
      <stop
         style="stop-color:#30c7f3;stop-opacity:1;"
         offset="1"
         id="stop3145" />
    </linearGradient>
    <linearGradient
       inkscape:collect="always"
       xlink:href="#linearGradient3147"
       id="linearGradient3149"
       x1="56"
       y1="55"
       x2="32"
       y2="19"
       gradientUnits="userSpaceOnUse"
       gradientTransform="translate(0,1)" />
    <linearGradient
       inkscape:collect="always"
       xlink:href="#linearGradient3155"
       id="linearGradient3157"
       x1="16"
       y1="7"
       x2="16"
       y2="32"
       gradientUnits="userSpaceOnUse"
       gradientTransform="translate(0,1)" />
  </defs>
  <path
     d="M 8,9 C 5.784002,9 4,10.784002 4,13 v 40 c 0,2.215998 1.784002,4 4,4 h 48 c 2.215998,0 4,-1.784002 4,-4 V 19 c 0,-2.215998 -1.784002,-4 -4,-4 H 32 L 28,11 C 26.64145,9.6798078 26.215998,9 24,9 Z"
     style="opacity:0.3;fill:#000000;stroke-width:2"
     id="path1016"
     sodipodi:nodetypes="ssssssssccss" />
  <path
     id="rect184"
     style="fill:url(#linearGradient3157);fill-opacity:1;stroke-width:2"
     d="M 8,8 C 5.7840022,8 4,9.7840016 4,12 v 40 c 0,2.215998 1.7840022,4 4,4 h 48 c 2.215998,0 4,-1.784002 4,-4 V 18 c 0,-2.215998 -1.784002,-4 -4,-4 H 32 L 28,10 C 26.622618,8.7413292 26.215998,8 24,8 Z"
     sodipodi:nodetypes="sccsssssccss" />
  <path
     id="rect1043"
     style="fill:url(#linearGradient3149);fill-opacity:1;stroke-width:2"
     d="m 32,20 -4,4 c -1.333612,1.227952 -1.784004,2 -4,2 H 8 c -2.2091368,0 -4,1.790862 -4,4 v 22 c 0,2.215994 1.7840066,4 4,4 h 48 c 2.215994,0 4,-1.784006 4,-4 V 24 c 0,-2.215994 -1.784006,-4 -4,-4 z"
     sodipodi:nodetypes="ccsssssssssc" />
  <path
     id="path3081"
     style="opacity:0.2;fill:#ffffff;stroke-width:2"
     d="m 32,20 -4,4 c -1.33361,1.227951 -1.784005,2 -4,2 H 8 c -2.2091346,0 -4,1.790864 -4,4 v 1 c 0,-2.209136 1.7908654,-4 4,-4 h 16 c 2.215994,0 2.666389,-0.77205 4,-2 l 4,-4 h 24 c 2.215992,0 4,1.784008 4,4 v -1 c 0,-2.215992 -1.784008,-4 -4,-4 z" />
  <path
     id="path5851"
     style="opacity:0.6;fill:#ffffff;fill-opacity:1;stroke-width:1.125;stroke-linecap:round;stroke-linejoin:round"
     d="m 25,32 v 4 h 4 v -1 h -2.238281 c 1.447636,-1.276781 3.308086,-1.98711 5.238282,-2 4.418278,0 8,3.581722 8,8 0,4.418278 -3.581722,8 -8,8 -2.118833,-0.0076 -4.148124,-0.855387 -5.642579,-2.357422 l -0.720703,0.720703 c 2.57366,2.573436 6.443937,3.343483 9.806641,1.951172 C 38.806585,47.921735 40.99968,44.640184 41.000001,41 40.99968,37.359816 38.806585,34.078265 35.44336,32.685547 34.351707,32.233198 33.181661,32.000251 32.000001,32 29.7827,32.0073 27.646131,32.832853 26,34.318359 V 32 Z m 7.000001,3.000391 v 6 l 3.949219,3.949218 0.707031,-0.707031 -3.65625,-3.65625 v -5.585937 z"
     sodipodi:nodetypes="ccccccsccccccccccccccccc" />
</svg>
