<?xml version="1.0" encoding="UTF-8" standalone="no"?>
<!-- Created with Inkscape (http://www.inkscape.org/) -->

<svg
   width="64"
   height="64"
   viewBox="0 0 64 64"
   version="1.1"
   id="svg5"
   inkscape:version="1.2.1 (9c6d41e410, 2022-07-14)"
   sodipodi:docname="folder-blue-pictures.svg"
   xmlns:inkscape="http://www.inkscape.org/namespaces/inkscape"
   xmlns:sodipodi="http://sodipodi.sourceforge.net/DTD/sodipodi-0.dtd"
   xmlns:xlink="http://www.w3.org/1999/xlink"
   xmlns="http://www.w3.org/2000/svg"
   xmlns:svg="http://www.w3.org/2000/svg">
  <sodipodi:namedview
     id="namedview7"
     pagecolor="#ffffff"
     bordercolor="#000000"
     borderopacity="0.25"
     inkscape:showpageshadow="2"
     inkscape:pageopacity="0.0"
     inkscape:pagecheckerboard="0"
     inkscape:deskcolor="#d1d1d1"
     inkscape:document-units="px"
     showgrid="false"
     inkscape:zoom="12.5"
     inkscape:cx="32"
     inkscape:cy="32"
     inkscape:window-width="1920"
     inkscape:window-height="1012"
     inkscape:window-x="0"
     inkscape:window-y="0"
     inkscape:window-maximized="1"
     inkscape:current-layer="svg5" />
  <defs
     id="defs2">
    <linearGradient
       inkscape:collect="always"
       id="linearGradient3155">
      <stop
         style="stop-color:#2c89b7;stop-opacity:1;"
         offset="0"
         id="stop3151" />
      <stop
         style="stop-color:#2077a5;stop-opacity:1;"
         offset="1"
         id="stop3153" />
    </linearGradient>
    <linearGradient
       inkscape:collect="always"
       id="linearGradient3147">
      <stop
         style="stop-color:#36aded;stop-opacity:1;"
         offset="0"
         id="stop3143" />
      <stop
         style="stop-color:#30c7f3;stop-opacity:1;"
         offset="1"
         id="stop3145" />
    </linearGradient>
    <linearGradient
       inkscape:collect="always"
       xlink:href="#linearGradient3147"
       id="linearGradient3149"
       x1="56"
       y1="55"
       x2="32"
       y2="13"
       gradientUnits="userSpaceOnUse"
       gradientTransform="translate(0,1)" />
    <linearGradient
       inkscape:collect="always"
       xlink:href="#linearGradient3155"
       id="linearGradient3157"
       x1="16"
       y1="7"
       x2="16"
       y2="24"
       gradientUnits="userSpaceOnUse"
       gradientTransform="translate(0,1)" />
  </defs>
  <path
     d="M 8,9 C 5.784002,9 4,10.784002 4,13 v 40 c 0,2.215998 1.784002,4 4,4 h 48 c 2.215998,0 4,-1.784002 4,-4 V 19 c 0,-2.215998 -1.784002,-4 -4,-4 H 32 L 28,11 C 26.64145,9.6798078 26.215998,9 24,9 Z"
     style="opacity:0.3;fill:#000000;stroke-width:2"
     id="path1016"
     sodipodi:nodetypes="ssssssssccss" />
  <path
     id="rect184"
     style="fill:url(#linearGradient3157);fill-opacity:1;stroke-width:2"
     d="M 8,8 C 5.7840022,8 4,9.7840016 4,12 v 40 c 0,2.215998 1.7840022,4 4,4 h 48 c 2.215998,0 4,-1.784002 4,-4 V 18 c 0,-2.215998 -1.784002,-4 -4,-4 H 32 L 28,10 C 26.622618,8.7413292 26.215998,8 24,8 Z"
     sodipodi:nodetypes="sccsssssccss" />
  <path
     id="rect1043"
     style="fill:url(#linearGradient3149);fill-opacity:1;stroke-width:2"
     d="m 32,14 -4,4 c -1.333612,1.227952 -1.784004,2 -4,2 H 8 c -2.2091368,0 -4,1.790862 -4,4 v 28 c 0,2.215994 1.7840066,4 4,4 h 48 c 2.215994,0 4,-1.784006 4,-4 V 18 c 0,-2.215994 -1.784006,-4 -4,-4 z"
     sodipodi:nodetypes="ccsssssssssc" />
  <path
     id="path3081"
     style="opacity:0.2;fill:#ffffff;stroke-width:2"
     d="m 32,14 -4,4 c -1.33361,1.227951 -1.784005,2 -4,2 H 8 c -2.2091346,0 -4,1.790864 -4,4 v 1 c 0,-2.209136 1.7908654,-4 4,-4 h 16 c 2.215994,0 2.666389,-0.77205 4,-2 l 4,-4 h 24 c 2.215992,0 4,1.784008 4,4 v -1 c 0,-2.215992 -1.784008,-4 -4,-4 z" />
  <path
     id="path297"
     style="color:#363636;opacity:0.6;fill:#ffffff"
     d="m 23,29 c -1.107999,0 -2,0.892001 -2,2 v 13 c 0,1.107999 0.892001,2 2,2 h 18 c 1.107999,0 2,-0.892001 2,-2 V 31 c 0,-1.107999 -0.892001,-2 -2,-2 z m 0,1 h 18 c 0.553999,0 1,0.446001 1,1 v 10 l -6,-6 -7,6 -3,-3 -4,4 V 31 c 0,-0.553999 0.446001,-1 1,-1 z m 3,2 c -1.104572,0 -2,0.895428 -2,2 0,1.104572 0.895428,2 2,2 1.104573,0 2,-0.895428 2,-2 0,-1.104572 -0.895427,-2 -2,-2 z"
     sodipodi:nodetypes="sssssssssssscccccsssssss" />
</svg>
