<?xml version="1.0" encoding="UTF-8" standalone="no"?>
<!-- Created with Inkscape (http://www.inkscape.org/) -->

<svg
   width="64"
   height="64"
   viewBox="0 0 64 64.000003"
   version="1.1"
   id="svg5"
   inkscape:version="1.2.1 (9c6d41e410, 2022-07-14)"
   sodipodi:docname="user-trash-full.svg"
   xmlns:inkscape="http://www.inkscape.org/namespaces/inkscape"
   xmlns:sodipodi="http://sodipodi.sourceforge.net/DTD/sodipodi-0.dtd"
   xmlns:xlink="http://www.w3.org/1999/xlink"
   xmlns="http://www.w3.org/2000/svg"
   xmlns:svg="http://www.w3.org/2000/svg">
  <sodipodi:namedview
     id="namedview7"
     pagecolor="#ffffff"
     bordercolor="#000000"
     borderopacity="0.25"
     inkscape:showpageshadow="2"
     inkscape:pageopacity="0.0"
     inkscape:pagecheckerboard="0"
     inkscape:deskcolor="#d1d1d1"
     inkscape:document-units="px"
     showgrid="false"
     inkscape:zoom="12.78125"
     inkscape:cx="32"
     inkscape:cy="32"
     inkscape:window-width="1920"
     inkscape:window-height="1004"
     inkscape:window-x="0"
     inkscape:window-y="0"
     inkscape:window-maximized="1"
     inkscape:current-layer="svg5" />
  <defs
     id="defs2">
    <linearGradient
       inkscape:collect="always"
       id="linearGradient2271">
      <stop
         style="stop-color:#989898;stop-opacity:1;"
         offset="0"
         id="stop2267" />
      <stop
         style="stop-color:#797979;stop-opacity:1;"
         offset="1"
         id="stop2269" />
    </linearGradient>
    <linearGradient
       inkscape:collect="always"
       id="linearGradient2263">
      <stop
         style="stop-color:#cdcdcd;stop-opacity:1;"
         offset="0"
         id="stop2259" />
      <stop
         style="stop-color:#e2e2e2;stop-opacity:1;"
         offset="1"
         id="stop2261" />
    </linearGradient>
    <linearGradient
       inkscape:collect="always"
       id="linearGradient1356">
      <stop
         style="stop-color:#333333;stop-opacity:1;"
         offset="0"
         id="stop1352" />
      <stop
         style="stop-color:#333333;stop-opacity:0;"
         offset="1"
         id="stop1354" />
    </linearGradient>
    <radialGradient
       inkscape:collect="always"
       xlink:href="#linearGradient1356"
       id="radialGradient1358"
       cx="32"
       cy="56"
       fx="32"
       fy="56"
       r="22"
       gradientTransform="matrix(0.90909091,0,0,0.31818181,2.9090908,38.181818)"
       gradientUnits="userSpaceOnUse" />
    <linearGradient
       inkscape:collect="always"
       xlink:href="#linearGradient2263"
       id="linearGradient2265"
       x1="48"
       y1="56"
       x2="8"
       y2="12"
       gradientUnits="userSpaceOnUse" />
    <linearGradient
       inkscape:collect="always"
       xlink:href="#linearGradient2271"
       id="linearGradient2273"
       x1="32"
       y1="4"
       x2="32"
       y2="26"
       gradientUnits="userSpaceOnUse" />
    <linearGradient
       inkscape:collect="always"
       xlink:href="#linearGradient1639"
       id="linearGradient1641"
       x1="6.0446973"
       y1="3"
       x2="6.3565812"
       y2="7.8917189"
       gradientUnits="userSpaceOnUse"
       gradientTransform="matrix(4,0,0,4,6.0000002e-8,9.4e-6)" />
    <linearGradient
       inkscape:collect="always"
       id="linearGradient1639">
      <stop
         style="stop-color:#f9f9f9;stop-opacity:1;"
         offset="0"
         id="stop1635" />
      <stop
         style="stop-color:#e2e2e2;stop-opacity:1;"
         offset="1"
         id="stop1637" />
    </linearGradient>
  </defs>
  <ellipse
     style="opacity:0.6;fill:url(#radialGradient1358);fill-opacity:1;stroke-width:2;stroke-linecap:round;stroke-linejoin:round"
     id="path773"
     cx="32"
     cy="56"
     rx="22"
     ry="7" />
  <ellipse
     style="fill:url(#linearGradient2273);fill-opacity:1;stroke-width:2.08893;stroke-linecap:round;stroke-linejoin:round"
     id="path234"
     cx="32"
     cy="12"
     rx="24"
     ry="8" />
  <path
     id="path737"
     style="fill:url(#linearGradient1641);fill-opacity:1;stroke-width:8;stroke-linecap:round;stroke-linejoin:round"
     d="M 28,8.000009 A 8,8 0 0 0 21.054688,12.070321 8,8 0 0 0 20,12.000001 a 8,8 0 0 0 -8,8 8,8 0 0 0 8,8 8,8 0 0 0 1.054688,-0.07032 A 8,8 0 0 0 28,31.999993 8,8 0 0 0 34.945312,27.929681 8,8 0 0 0 36,28.000001 8,8 0 0 0 42.945312,23.929687 8,8 0 0 0 44,24.000007 a 8,8 0 0 0 8,-8 8,8 0 0 0 -8,-8 8,8 0 0 0 -6.945312,4.070314 A 8,8 0 0 0 36,12.000001 8,8 0 0 0 34.960938,12.070321 8,8 0 0 0 28,8.000009 Z" />
  <path
     id="rect767"
     style="fill:url(#linearGradient2265);fill-opacity:1;stroke-width:2;stroke-linecap:round;stroke-linejoin:round"
     d="M 8.1757812 12.964844 L 16 56 A 16 4 0 0 0 32 60 A 16 4 0 0 0 48 56 L 55.824219 12.964844 A 24 8 0 0 1 32 20 A 24 8 0 0 1 8.1757812 12.964844 z " />
</svg>
