<?xml version="1.0" encoding="UTF-8" standalone="no"?>
<svg
   version="1.1"
   viewBox="0 0 24 24"
   id="svg1"
   sodipodi:docname="system-shutdown.svg"
   width="24"
   height="24"
   inkscape:version="1.4.2 (ebf0e940d0, 2025-05-08)"
   xmlns:inkscape="http://www.inkscape.org/namespaces/inkscape"
   xmlns:sodipodi="http://sodipodi.sourceforge.net/DTD/sodipodi-0.dtd"
   xmlns="http://www.w3.org/2000/svg"
   xmlns:svg="http://www.w3.org/2000/svg">
  <sodipodi:namedview
     id="namedview1"
     pagecolor="#ffffff"
     bordercolor="#000000"
     borderopacity="0.25"
     inkscape:showpageshadow="2"
     inkscape:pageopacity="0.0"
     inkscape:pagecheckerboard="0"
     inkscape:deskcolor="#d1d1d1"
     inkscape:zoom="33.125"
     inkscape:cx="12"
     inkscape:cy="12"
     inkscape:window-width="1920"
     inkscape:window-height="1010"
     inkscape:window-x="0"
     inkscape:window-y="0"
     inkscape:window-maximized="1"
     inkscape:current-layer="svg1" />
  <defs
     id="defs1">
    <style
       id="current-color-scheme"
       type="text/css">.ColorScheme-Text {
        color:#363636;
      }</style>
  </defs>
  <path
     class="ColorScheme-Text"
     d="m 11.5,4 v 8 h 1 V 4 Z M 7.0918,5.6895 C 5.2097,7.1465 4,9.4235 4,12 c 0,4.432 3.568,8 8,8 4.432,0 8,-3.568 8,-8 0,-2.5766 -1.2097,-4.8535 -3.0918,-6.3105 l -0.61719,0.79297 c 1.6475,1.2746 2.709,3.2628 2.709,5.5176 0,3.878 -3.122,7 -7,7 -3.878,0 -7,-3.122 -7,-7 0,-2.2548 1.0614,-4.243 2.709,-5.5176 L 7.09182,5.6895 Z"
     fill="currentColor"
     id="path1" />
</svg>
