<?xml version="1.0" encoding="UTF-8" standalone="no"?>
<!-- Created with Inkscape (http://www.inkscape.org/) -->

<svg
   width="256"
   height="256"
   viewBox="0 0 256 256"
   version="1.1"
   id="svg5"
   inkscape:version="1.2.2 (1:1.2.2+202305151914+b0a8486541)"
   sodipodi:docname="kate.svg"
   xmlns:inkscape="http://www.inkscape.org/namespaces/inkscape"
   xmlns:sodipodi="http://sodipodi.sourceforge.net/DTD/sodipodi-0.dtd"
   xmlns="http://www.w3.org/2000/svg"
   xmlns:svg="http://www.w3.org/2000/svg">
  <sodipodi:namedview
     id="namedview7"
     pagecolor="#ffffff"
     bordercolor="#000000"
     borderopacity="0.25"
     inkscape:showpageshadow="2"
     inkscape:pageopacity="0.0"
     inkscape:pagecheckerboard="0"
     inkscape:deskcolor="#d1d1d1"
     inkscape:document-units="px"
     showgrid="false"
     inkscape:zoom="3.2421875"
     inkscape:cx="127.84578"
     inkscape:cy="128"
     inkscape:window-width="1920"
     inkscape:window-height="1008"
     inkscape:window-x="0"
     inkscape:window-y="0"
     inkscape:window-maximized="1"
     inkscape:current-layer="svg5" />
  <defs
     id="defs2">
    <style
       id="current-color-scheme"
       type="text/css">
         .ColorScheme-Text { color:#232629; }
         .ColorScheme-Highlight { color:#3daee9; }
     </style>
  </defs>
  <path
     d="M 104,17 C 31.190476,17 16,32.518536 16,105 v 48 c 0,72.48146 15.190476,88 88,88 h 48 c 72.80952,0 88,-15.51854 88,-88 V 105 C 240,32.518536 224.80952,17 152,17"
     style="opacity:0.2;fill:#000000;stroke-width:8;stroke-linecap:round;stroke-linejoin:round"
     id="path563" />
  <path
     id="path530"
     style="fill:currentColor;fill-opacity:1;stroke-width:8;stroke-linecap:round;stroke-linejoin:round"
     d="M 104,16 C 31.190548,16 16,31.518608 16,104 v 48 c 0,72.4814 15.190548,88 88,88 h 48 c 72.80946,0 88,-15.5186 88,-88 V 104 C 240,31.518608 224.80946,16 152,16 Z"
     class="ColorScheme-Highlight" />
  <path
     id="path10"
     style="opacity:0.35;fill:currentColor;fill-opacity:1;stroke-width:6.09596"
     d="m 118.47917,52.722768 c -0.31096,0.15068 -0.6152,0.30984 -0.91673,0.472272 0.30168,-0.16292 0.60576,-0.32116 0.91673,-0.472272 z m -2.22247,1.222364 c -0.34976,0.21972 -0.69424,0.428992 -1.02796,0.666744 0.33128,-0.2362 0.68088,-0.448336 1.02796,-0.666744 z m -2.36138,1.722408 c -0.368,0.31252 -0.714,0.633488 -1.0557,0.972324 0.34112,-0.33856 0.68832,-0.66004 1.0557,-0.972324 z m -1.0557,0.972324 c -0.63424,0.62916 -1.24316,1.30596 -1.77797,2.028004 0.53592,-0.72416 1.14232,-1.397092 1.77797,-2.028004 z m -2.69472,3.417052 c -0.24832,0.414328 -0.47848,0.836404 -0.69456,1.277924 0.2188,-0.447704 0.44248,-0.858108 0.69456,-1.277924 z m -0.69456,1.277924 c -0.16688,0.34096 -0.3256,0.698304 -0.47224,1.055676 0.14664,-0.3576 0.30552,-0.714488 0.47224,-1.055676 z m -1.16679,3.055896 c -0.12376,0.442648 -0.23856,0.896384 -0.33336,1.361216 0.0953,-0.466544 0.2088,-0.917008 0.33336,-1.361216 z m -0.33336,1.361216 c -0.0953,0.46668 -0.1576,0.955272 -0.22232,1.444612 0.064,-0.485176 0.128,-0.981724 0.22232,-1.444612 z m -0.25008,1.750196 c -0.0352,0.30412 -0.0868,0.604088 -0.11096,0.916724 -17.691478,-1.316552 -27.109102,4.830164 -51.589122,10.27892 6.029556,0.46 41.631036,-4.576028 48.949882,15.779528 0.56128,-0.18544 1.09083,-0.3752 1.66686,-0.5556 2.49456,-0.7812 4.93757,-1.508608 7.3897,-2.250264 -5.32359,-10.024488 -7.03847,-17.983204 -6.30621,-24.16932 z"
     class="ColorScheme-Text" />
  <path
     id="path12"
     style="opacity:0.6;fill:currentColor;fill-opacity:1;stroke-width:6.09596"
     class="ColorScheme-Text"
     d="m 202.98856,65.8631 c -66.79142,25.448972 -152.419464,42.62701 -122.874776,85.17612 0.0044,0.006 -0.0044,0.0216 0,0.0288 0.0048,0.012 0.02,0.0184 0.0288,0.0288 0.0472,0.0656 0.09104,0.128 0.13936,0.1944 12.031832,15.24928 30.968706,17.6089 51.450156,31.30914 18.63512,12.46534 24.81292,18.80888 36.83742,36.08732 -2.50046,-23.87337 -15.65706,-54.64547 -21.05789,-68.20201 l -0.0288,-0.0839 c -9.02081,-6.62565 -17.17156,-15.24439 -24.47499,-26.36403 8.90263,15.43689 10.86225,34.93186 -7.77865,38.80986 -19.244614,4.00357 -40.251738,-12.62802 -34.976102,-30.42005 5.728736,-19.3201 32.898262,-15.59519 58.839882,-18.94655 25.9416,-3.35141 49.63941,-28.785212 63.89599,-47.616392 z m -72.98034,21.085676 c -7.60761,2.186328 -15.39616,4.469216 -23.39148,6.972992 -0.0112,0.0036 -0.016,0.024 -0.0288,0.0272 8.00496,-2.50676 15.80148,-4.810728 23.41922,-7.000728 z m -26.86409,8.139784 c -0.93763,0.32816 -1.85587,0.6576 -2.75031,1.00008 0.89881,-0.34368 1.80807,-0.67096 2.75031,-1.00008 z m -4.194914,1.583512 c -0.71888,0.2892 -1.449448,0.56256 -2.13912,0.861248 0.68648,-0.29672 1.423832,-0.57392 2.13912,-0.861248 z m -5.083904,2.222464 c -0.51208,0.24736 -1.006048,0.49696 -1.500152,0.75016 0.49328,-0.25216 0.98884,-0.50368 1.500152,-0.75016 z m -10.028888,6.056234 c -0.44648,0.34048 -0.883728,0.68032 -1.305744,1.02796 0.42672,-0.35064 0.854,-0.68448 1.305744,-1.02796 z m -2.611408,2.1669 c -0.3128,0.28048 -0.64688,0.54872 -0.9446,0.83351 0.29728,-0.2836 0.63224,-0.554 0.9446,-0.83351 z m -9.084328,27.39195 c 0.553304,2.58978 1.429664,5.27988 2.7503,8.05644 1.520268,3.19624 3.24916,5.94652 5.13946,8.38983 -3.994228,-5.64337 -6.629488,-11.15693 -7.88976,-16.44627 z" />
  <path
     style="opacity:0.45;fill:currentColor;fill-opacity:1;stroke-width:6.09596"
     d="m 120.0951,119.3893 c 8.54176,-0.48976 6.95285,-0.36288 21.4378,-1.0931 21.5906,18.40364 28.74701,24.77135 66.4671,51.62215 -37.91374,-2.7122 -66.60033,-15.0147 -87.9049,-50.52902 z"
     id="path14"
     class="ColorScheme-Text" />
  <path
     id="path16"
     style="opacity:0.25;fill:currentColor;fill-opacity:1;stroke-width:6.09596"
     d="M 125.75775,48.00002 C 112.74663,47.99002 97.791456,51.712212 83.280816,62.223824 69.102156,72.49496 62.877664,75.28382 56,78.697876 80.480048,73.249108 89.897624,67.102388 107.58906,68.41896 c 1.01374,-13.330744 13.07887,-18.758636 25.75287,-18.779868 5.90049,-0.01 11.94626,1.133112 17.05745,3.22258 -6.50995,-2.8223 -15.03504,-4.854124 -24.64163,-4.861652 z"
     class="ColorScheme-Text" />
  <path
     id="path18"
     style="opacity:0.4;fill:currentColor;fill-opacity:1;stroke-width:6.09596"
     d="m 133.34193,49.639092 c -18.42266,0.0308 -35.543858,11.511628 -19.33548,42.032444 4.44185,-1.348984 8.82428,-2.6382 13.14034,-3.889312 -5.6861,-11.619572 -11.37561,-31.745528 26.83632,-33.19814 -5.72025,-3.159748 -13.28777,-4.957324 -20.64118,-4.944992 z"
     class="ColorScheme-Text" />
  <path
     style="opacity:0.45;fill:currentColor;fill-opacity:1;stroke-width:6.09596"
     d="M 82.018696,153.63107 C 62.645232,128.68536 68.660296,105.82038 106.59638,93.940528 144.03302,82.217032 177.74061,74.477616 202.98856,65.863112 134.8537,91.823968 47.09762,109.17089 82.018696,153.63107 Z"
     id="path20"
     class="ColorScheme-Text" />
</svg>
