<?xml version="1.0" encoding="UTF-8" standalone="no"?>
<!-- Created with Inkscape (http://www.inkscape.org/) -->

<svg
   width="256"
   height="256"
   viewBox="0 0 256 256"
   version="1.1"
   id="svg5"
   inkscape:version="1.2.2 (1:1.2.2+202305151914+b0a8486541)"
   sodipodi:docname="preferences-desktop-tablet.svg"
   xmlns:inkscape="http://www.inkscape.org/namespaces/inkscape"
   xmlns:sodipodi="http://sodipodi.sourceforge.net/DTD/sodipodi-0.dtd"
   xmlns="http://www.w3.org/2000/svg"
   xmlns:svg="http://www.w3.org/2000/svg">
  <sodipodi:namedview
     id="namedview7"
     pagecolor="#ffffff"
     bordercolor="#000000"
     borderopacity="0.25"
     inkscape:showpageshadow="2"
     inkscape:pageopacity="0.0"
     inkscape:pagecheckerboard="0"
     inkscape:deskcolor="#d1d1d1"
     inkscape:document-units="px"
     showgrid="false"
     inkscape:zoom="3.1484375"
     inkscape:cx="127.84119"
     inkscape:cy="128"
     inkscape:window-width="1920"
     inkscape:window-height="1008"
     inkscape:window-x="0"
     inkscape:window-y="0"
     inkscape:window-maximized="1"
     inkscape:current-layer="svg5"
     showguides="true" />
  <defs
     id="defs2">
    <style
       id="current-color-scheme"
       type="text/css">
         .ColorScheme-Text { color:#232629; }
         .ColorScheme-Highlight { color:#3daee9; }
     </style>
  </defs>
  <path
     d="M 104,17 C 31.190476,17 16,32.518536 16,105 v 48 c 0,72.48146 15.190476,88 88,88 h 48 c 72.80952,0 88,-15.51854 88,-88 V 105 C 240,32.518536 224.80952,17 152,17"
     style="opacity:0.2;fill:#000000;stroke-width:8;stroke-linecap:round;stroke-linejoin:round"
     id="path563" />
  <path
     id="path530"
     style="fill:currentColor;fill-opacity:1;stroke-width:8;stroke-linecap:round;stroke-linejoin:round"
     d="M 104,16 C 31.190548,16 16,31.518608 16,104 v 48 c 0,72.4814 15.190548,88 88,88 h 48 c 72.80946,0 88,-15.5186 88,-88 V 104 C 240,31.518608 224.80946,16 152,16 Z"
     class="ColorScheme-Highlight" />
  <g
     id="g374"
     style="opacity:0.6;fill:currentColor"
     class="ColorScheme-Text"
     transform="scale(4)">
    <path
       id="rect346"
       style="opacity:0.4;stroke-linecap:round;stroke-linejoin:round;paint-order:stroke fill markers"
       d="m 16,16 c -2.215998,0 -4,1.784002 -4,4 v 24 c 0,2.215998 1.784002,4 4,4 h 32 c 2.215998,0 4,-1.784002 4,-4 V 20.244141 L 34.222656,38.021484 29.271484,38.728516 29.978516,33.777344 47.755859,16 Z" />
    <path
       id="path1089"
       style="opacity:1;stroke-width:0.866026"
       d="m 50.484375,13.271484 -20.505859,20.50586 -0.707032,4.951172 4.951172,-0.707032 20.50586,-20.505859 z M 16,16 c -2.215998,0 -4,1.784002 -4,4 v 24 c 0,2.215998 1.784002,4 4,4 h 4 V 16 Z"
       sodipodi:nodetypes="ccccccssssccs" />
  </g>
</svg>
