<?xml version="1.0" encoding="UTF-8" standalone="no"?>
<!-- Created with Inkscape (http://www.inkscape.org/) -->

<svg
   width="256"
   height="256"
   viewBox="0 0 256 256"
   version="1.1"
   id="svg5"
   inkscape:version="1.2.2 (1:1.2.2+202305151914+b0a8486541)"
   sodipodi:docname="preferences-desktop-online-accounts.svg"
   xmlns:inkscape="http://www.inkscape.org/namespaces/inkscape"
   xmlns:sodipodi="http://sodipodi.sourceforge.net/DTD/sodipodi-0.dtd"
   xmlns="http://www.w3.org/2000/svg"
   xmlns:svg="http://www.w3.org/2000/svg">
  <sodipodi:namedview
     id="namedview7"
     pagecolor="#ffffff"
     bordercolor="#000000"
     borderopacity="0.25"
     inkscape:showpageshadow="2"
     inkscape:pageopacity="0.0"
     inkscape:pagecheckerboard="0"
     inkscape:deskcolor="#d1d1d1"
     inkscape:document-units="px"
     showgrid="false"
     inkscape:zoom="3.1484375"
     inkscape:cx="127.84119"
     inkscape:cy="128"
     inkscape:window-width="1920"
     inkscape:window-height="1008"
     inkscape:window-x="0"
     inkscape:window-y="0"
     inkscape:window-maximized="1"
     inkscape:current-layer="svg5" />
  <defs
     id="defs2">
    <style
       id="current-color-scheme"
       type="text/css">
         .ColorScheme-Text { color:#232629; }
         .ColorScheme-Highlight { color:#3daee9; }
     </style>
  </defs>
  <path
     d="M 104,17 C 31.190476,17 16,32.518536 16,105 v 48 c 0,72.48146 15.190476,88 88,88 h 48 c 72.80952,0 88,-15.51854 88,-88 V 105 C 240,32.518536 224.80952,17 152,17"
     style="opacity:0.2;fill:#000000;stroke-width:8;stroke-linecap:round;stroke-linejoin:round"
     id="path563" />
  <path
     id="path530"
     style="fill:currentColor;fill-opacity:1;stroke-width:8;stroke-linecap:round;stroke-linejoin:round"
     d="M 104,16 C 31.190548,16 16,31.518608 16,104 v 48 c 0,72.4814 15.190548,88 88,88 h 48 c 72.80946,0 88,-15.5186 88,-88 V 104 C 240,31.518608 224.80946,16 152,16 Z"
     class="ColorScheme-Highlight" />
  <path
     id="path1308"
     style="opacity:0.6;fill:currentColor;stroke-width:4;stroke-linecap:round;stroke-linejoin:round"
     d="m 126.49219,64 c -9.65135,0 -18.34575,1.626036 -26.08594,4.875 -7.644642,3.153412 -14.18601,7.549576 -19.632814,13.1875 -5.35124,5.637924 -9.51426,12.375184 -12.47656,20.21094 C 65.43014,110.01362 64,118.46707 64,127.64062 v 2.72657 c 0,10.03358 1.48302,19.11195 4.445312,27.23437 3.057852,8.12244 7.40114,15.04778 13.039064,20.78125 5.63792,5.73347 12.5182,10.12963 20.640624,13.18751 8.12243,3.05784 17.34381,4.58592 27.66406,4.58592 8.60022,0 16.63242,-0.91096 24.08594,-2.72656 7.54908,-1.72004 14.33142,-4.20414 20.35156,-7.45312 l -4.01562,-10.03125 c -5.9246,3.05787 -12.42091,5.35389 -19.49219,6.88281 -7.0713,1.62448 -14.19253,2.4375 -21.35937,2.4375 -8.31354,0 -15.81095,-1.24204 -22.5,-3.72656 -6.59351,-2.38895 -12.186672,-5.92703 -16.773444,-10.60937 -4.586784,-4.58679 -8.124872,-10.27008 -10.609372,-17.05469 -2.388952,-6.88018 -3.578128,-14.76936 -3.578128,-23.65625 v -2.4375 c 0,-8.31354 1.242064,-15.76588 3.726564,-22.35937 C 82.109508,98.828376 85.549644,93.288096 89.945312,88.796876 94.43654,84.210096 99.788736,80.724888 106,78.335936 112.21126,75.946988 119.03867,74.75 126.49219,74.75 c 8.69577,0 16.38907,1.196988 23.07812,3.585936 6.68906,2.293392 12.32728,5.680656 16.91407,10.171876 4.58678,4.395668 8.02694,9.747824 10.32031,16.054688 2.38895,6.30683 3.58593,13.47314 3.58593,21.5 v 1.57812 c 0,4.7779 -0.33893,8.84297 -1.00781,12.1875 -0.6689,3.24896 -1.61713,5.92116 -2.85937,8.02344 -1.24225,2.00668 -2.77816,3.4897 -4.59375,4.44532 -1.81561,0.86001 -3.91574,1.28906 -6.30469,1.28906 -3.05785,0 -5.39895,-0.91097 -7.02344,-2.72656 -1.62448,-1.91116 -2.4375,-4.86939 -2.4375,-8.88282 V 96.820312 h -13.46875 v 7.460938 c -1.33781,-2.29339 -3.58877,-4.25832 -6.74219,-5.882814 -3.15341,-1.62448 -7.40656,-2.4375 -12.75781,-2.4375 -8.02686,0 -14.38016,2.58206 -19.0625,7.742184 -4.58677,5.06458 -6.874998,11.98993 -6.874998,20.78126 v 11.1875 c 0,8.69576 2.386076,15.62116 7.164068,20.78124 4.7779,5.16014 11.75612,7.74219 20.92968,7.74219 1.72005,0 3.62429,-0.19596 5.72656,-0.57812 2.10228,-0.38221 4.15736,-1.05221 6.16407,-2.00781 2.10227,-0.95559 4.01433,-2.19763 5.73437,-3.72657 1.72002,-1.52892 3.01484,-3.44098 3.875,-5.73437 h 0.14062 c 1.43337,4.3001 3.91748,7.45421 7.45313,9.46094 3.53564,1.91114 7.21675,2.86718 11.03906,2.86718 5.25569,1e-5 9.55391,-1.1441 12.89844,-3.4375 3.44008,-2.29339 6.16515,-5.20654 8.17187,-8.74218 2.00672,-3.63121 3.39178,-7.59833 4.15626,-11.89844 C 191.57096,136.00277 192,131.70455 192,127.5 v -1.86719 c 0,-9.07799 -1.43014,-17.38842 -4.29688,-24.9375 -2.86674,-7.549066 -7.07482,-14.045382 -12.61718,-19.492186 -5.54236,-5.4468 -12.37758,-9.654896 -20.5,-12.617188 C 146.46351,65.528072 137.09912,64 126.49219,64 Z m -0.14062,44.86719 c 2.86674,0 5.30579,0.42904 7.3125,1.28906 2.00671,0.76445 3.63273,1.8635 4.875,3.29687 1.24222,1.33781 2.10028,2.91096 2.57812,4.72657 0.5734,1.72005 0.85938,3.53417 0.85938,5.44531 v 12.61719 c 0,2.86674 -0.42904,5.25292 -1.28907,7.16406 -0.86002,1.91116 -2.05702,3.43924 -3.58593,4.58594 -1.43339,1.14668 -3.10448,1.95966 -5.01563,2.4375 -1.8156,0.47784 -3.72766,0.71875 -5.73437,0.71875 -5.16013,0 -8.93137,-1.57315 -11.32032,-4.72656 -2.38895,-3.24897 -3.58594,-7.60008 -3.58594,-13.04688 v -6.59375 c 0,-6.78461 1.28714,-11.46682 3.86719,-14.04687 2.67562,-2.58008 6.35672,-3.86719 11.03906,-3.86719 z"
     class="ColorScheme-Text" />
</svg>
