<?xml version="1.0" encoding="UTF-8" standalone="no"?>
<!-- Created with Inkscape (http://www.inkscape.org/) -->

<svg
   width="256"
   height="256"
   viewBox="0 0 256 256"
   version="1.1"
   id="svg5"
   inkscape:version="1.2.2 (1:1.2.2+202305151914+b0a8486541)"
   sodipodi:docname="preferences-desktop-keyboard.svg"
   xmlns:inkscape="http://www.inkscape.org/namespaces/inkscape"
   xmlns:sodipodi="http://sodipodi.sourceforge.net/DTD/sodipodi-0.dtd"
   xmlns="http://www.w3.org/2000/svg"
   xmlns:svg="http://www.w3.org/2000/svg">
  <sodipodi:namedview
     id="namedview7"
     pagecolor="#ffffff"
     bordercolor="#000000"
     borderopacity="0.25"
     inkscape:showpageshadow="2"
     inkscape:pageopacity="0.0"
     inkscape:pagecheckerboard="0"
     inkscape:deskcolor="#d1d1d1"
     inkscape:document-units="px"
     showgrid="false"
     inkscape:zoom="3.1484375"
     inkscape:cx="127.84119"
     inkscape:cy="128"
     inkscape:window-width="1920"
     inkscape:window-height="1008"
     inkscape:window-x="0"
     inkscape:window-y="0"
     inkscape:window-maximized="1"
     inkscape:current-layer="svg5"
     showguides="false" />
  <defs
     id="defs2">
    <style
       id="current-color-scheme"
       type="text/css">
         .ColorScheme-Text { color:#232629; }
         .ColorScheme-Highlight { color:#3daee9; }
     </style>
  </defs>
  <path
     d="M 104,17 C 31.190476,17 16,32.518536 16,105 v 48 c 0,72.48146 15.190476,88 88,88 h 48 c 72.80952,0 88,-15.51854 88,-88 V 105 C 240,32.518536 224.80952,17 152,17"
     style="opacity:0.2;fill:#000000;stroke-width:8;stroke-linecap:round;stroke-linejoin:round"
     id="path563" />
  <path
     id="path530"
     style="fill:currentColor;fill-opacity:1;stroke-width:8;stroke-linecap:round;stroke-linejoin:round"
     class="ColorScheme-Highlight"
     d="M 104,16 C 31.190548,16 16,31.518608 16,104 v 48 c 0,72.4814 15.190548,88 88,88 h 48 c 72.80946,0 88,-15.5186 88,-88 V 104 C 240,31.518608 224.80946,16 152,16 Z" />
  <path
     id="path1728"
     style="opacity:0.6;fill:currentColor;fill-opacity:1;stroke-width:8;stroke-linecap:round;stroke-linejoin:round"
     class="ColorScheme-Text"
     d="m 48,64 c -4.431992,0 -8,3.568012 -8,8 v 16 c 0,4.431988 3.568008,8 8,8 h 16 c 4.431988,0 8,-3.568012 8,-8 V 72 c 0,-4.431988 -3.568012,-8 -8,-8 z m 48,0 c -4.431988,0 -8,3.568012 -8,8 v 16 c 0,4.431988 3.568012,8 8,8 h 16 c 4.432,0 8,-3.568012 8,-8 V 72 c 0,-4.431988 -3.568,-8 -8,-8 z m 48,0 c -4.432,0 -8,3.568012 -8,8 v 16 c 0,4.431988 3.568,8 8,8 h 16 c 4.43199,0 8,-3.568012 8,-8 V 72 c 0,-4.431988 -3.56801,-8 -8,-8 z m 48,0 c -4.432,0 -8,3.568012 -8,8 v 16 c 0,4.431988 3.568,8 8,8 h 16 c 4.43198,0 8,-3.568012 8,-8 V 72 c 0,-4.431988 -3.56802,-8 -8,-8 z M 48,112 c -4.431992,0 -8,3.568 -8,8 v 16 c 0,4.43199 3.568008,8 8,8 h 16 c 4.431988,0 8,-3.56801 8,-8 v -16 c 0,-4.432 -3.568012,-8 -8,-8 z m 48,0 c -4.431988,0 -8,3.568 -8,8 v 16 c 0,4.43199 3.568012,8 8,8 h 16 c 4.432,0 8,-3.56801 8,-8 v -16 c 0,-4.432 -3.568,-8 -8,-8 z m 48,0 c -4.432,0 -8,3.568 -8,8 v 16 c 0,4.43199 3.568,8 8,8 h 16 c 4.43199,0 8,-3.56801 8,-8 v -16 c 0,-4.432 -3.56801,-8 -8,-8 z m 48,0 c -4.432,0 -8,3.568 -8,8 v 16 c 0,4.43199 3.568,8 8,8 h 16 c 4.43198,0 8,-3.56801 8,-8 v -16 c 0,-4.432 -3.56802,-8 -8,-8 z M 80,160 c -4.431996,0 -8,3.568 -8,8 v 16 c 0,4.43198 3.568004,8 8,8 h 96 c 4.43199,0 8,-3.56802 8,-8 v -16 c 0,-4.432 -3.56801,-8 -8,-8 z" />
</svg>
