<?xml version="1.0" encoding="UTF-8" standalone="no"?>
<!-- Created with Inkscape (http://www.inkscape.org/) -->

<svg
   width="256"
   height="256"
   viewBox="0 0 256 256"
   version="1.1"
   id="svg5"
   inkscape:version="1.2.2 (1:1.2.2+202305151914+b0a8486541)"
   sodipodi:docname="preferences-desktop-emoticons.svg"
   xmlns:inkscape="http://www.inkscape.org/namespaces/inkscape"
   xmlns:sodipodi="http://sodipodi.sourceforge.net/DTD/sodipodi-0.dtd"
   xmlns="http://www.w3.org/2000/svg"
   xmlns:svg="http://www.w3.org/2000/svg">
  <sodipodi:namedview
     id="namedview7"
     pagecolor="#ffffff"
     bordercolor="#000000"
     borderopacity="0.25"
     inkscape:showpageshadow="2"
     inkscape:pageopacity="0.0"
     inkscape:pagecheckerboard="0"
     inkscape:deskcolor="#d1d1d1"
     inkscape:document-units="px"
     showgrid="false"
     inkscape:zoom="3.1484375"
     inkscape:cx="127.84119"
     inkscape:cy="128"
     inkscape:window-width="1920"
     inkscape:window-height="1008"
     inkscape:window-x="0"
     inkscape:window-y="0"
     inkscape:window-maximized="1"
     inkscape:current-layer="svg5" />
  <defs
     id="defs2">
    <style
       id="current-color-scheme"
       type="text/css">
         .ColorScheme-Text { color:#232629; }
         .ColorScheme-Highlight { color:#3daee9; }
     </style>
  </defs>
  <path
     d="M 106,17 C 33.190476,17 18,32.518536 18,105 v 48 c 0,72.48146 15.190476,88 88,88 h 48 c 72.80952,0 88,-15.51854 88,-88 V 105 C 242,32.518536 226.80952,17 154,17"
     style="opacity:0.2;fill:#000000;stroke-width:8;stroke-linecap:round;stroke-linejoin:round"
     id="path563" />
  <path
     id="path530"
     style="fill:currentColor;fill-opacity:1;stroke-width:8;stroke-linecap:round;stroke-linejoin:round"
     d="M 106,16 C 33.190548,16 18,31.518608 18,104 v 48 c 0,72.4814 15.190548,88 88,88 h 48 c 72.80946,0 88,-15.5186 88,-88 V 104 C 242,31.518608 226.80946,16 154,16 Z"
     class="ColorScheme-Highlight" />
  <path
     d="m 82,76 c -8.83674,-4.48e-4 -16.00044,7.163256 -16,16 -4.4e-4,8.83674 7.16326,16.00044 16,16 8.836736,4.4e-4 16.00044,-7.16326 16,-16 4.4e-4,-8.836744 -7.163264,-16.000448 -16,-16 z m 96,0 c -8.83674,-4.48e-4 -16.00044,7.163256 -16,16 -4.4e-4,8.83674 7.16326,16.00044 16,16 8.83674,4.4e-4 16.00044,-7.16326 16,-16 4.4e-4,-8.836744 -7.16326,-16.000448 -16,-16 z M 87.390624,158.45313 C 96.181644,176.72198 112.42054,187.98262 130,188 c 17.5683,-0.0304 33.79271,-11.2896 42.57813,-29.54687 h -5.98438 C 157.27771,170.95375 143.9749,178.11637 130,178.15625 c -13.98035,-0.0344 -27.2897,-7.19764 -36.609376,-19.70312 z"
     style="opacity:0.6;fill:currentColor;fill-opacity:1;stroke-width:5.6"
     id="path362"
     class="ColorScheme-Text" />
</svg>
