<?xml version="1.0" encoding="UTF-8" standalone="no"?>
<!-- Created with Inkscape (http://www.inkscape.org/) -->

<svg
   width="256"
   height="256"
   viewBox="0 0 256 256"
   version="1.1"
   id="svg5"
   inkscape:version="1.2.1 (9c6d41e410, 2022-07-14)"
   sodipodi:docname="folder-black-template.svg"
   xmlns:inkscape="http://www.inkscape.org/namespaces/inkscape"
   xmlns:sodipodi="http://sodipodi.sourceforge.net/DTD/sodipodi-0.dtd"
   xmlns:xlink="http://www.w3.org/1999/xlink"
   xmlns="http://www.w3.org/2000/svg"
   xmlns:svg="http://www.w3.org/2000/svg">
  <sodipodi:namedview
     id="namedview7"
     pagecolor="#ffffff"
     bordercolor="#000000"
     borderopacity="0.25"
     inkscape:showpageshadow="2"
     inkscape:pageopacity="0.0"
     inkscape:pagecheckerboard="0"
     inkscape:deskcolor="#d1d1d1"
     inkscape:document-units="px"
     showgrid="false"
     inkscape:zoom="2.0670103"
     inkscape:cx="26.608479"
     inkscape:cy="149.49127"
     inkscape:window-width="1920"
     inkscape:window-height="1004"
     inkscape:window-x="0"
     inkscape:window-y="0"
     inkscape:window-maximized="1"
     inkscape:current-layer="svg5" />
  <defs
     id="defs2">
    <linearGradient
       inkscape:collect="always"
       id="linearGradient3155">
      <stop
         style="stop-color:#424242;stop-opacity:1;"
         offset="0"
         id="stop3151" />
      <stop
         style="stop-color:#2f2f2f;stop-opacity:1;"
         offset="1"
         id="stop3153" />
    </linearGradient>
    <linearGradient
       inkscape:collect="always"
       id="linearGradient3147">
      <stop
         style="stop-color:#414141;stop-opacity:1;"
         offset="0"
         id="stop3143" />
      <stop
         style="stop-color:#6a6a6a;stop-opacity:1;"
         offset="1"
         id="stop3145" />
    </linearGradient>
    <linearGradient
       inkscape:collect="always"
       xlink:href="#linearGradient3147"
       id="linearGradient3149"
       x1="56"
       y1="55"
       x2="32"
       y2="13"
       gradientUnits="userSpaceOnUse"
       gradientTransform="matrix(4,0,0,4,3.0584644e-7,3.9999996)" />
    <linearGradient
       inkscape:collect="always"
       xlink:href="#linearGradient3155"
       id="linearGradient3157"
       x1="16"
       y1="7"
       x2="16"
       y2="24"
       gradientUnits="userSpaceOnUse"
       gradientTransform="matrix(4,0,0,4,3.0584644e-7,3.9999996)" />
  </defs>
  <path
     d="m 32,33 c -8.863992,0 -16,7.136008 -16,16 v 160 c 0,8.864 7.136008,16 16,16 h 192 c 8.864,0 16,-7.136 16,-16 V 73 c 0,-8.863992 -7.136,-16 -16,-16 H 128 L 112,41 c -5.4342,-5.280768 -7.13601,-8 -16,-8 z"
     style="opacity:0.3;fill:#000000;stroke-width:8"
     id="path1016"
     sodipodi:nodetypes="ssssssssccss" />
  <path
     id="rect184"
     style="fill:url(#linearGradient3157);fill-opacity:1;stroke-width:8"
     d="m 32,32 c -8.863992,0 -16,7.136006 -16,16 v 160 c 0,8.864 7.136008,16 16,16 h 192 c 8.864,0 16,-7.136 16,-16 V 72 c 0,-8.863992 -7.136,-16 -16,-16 H 128 L 112,40 c -5.50953,-5.034684 -7.13601,-8 -16,-8 z"
     sodipodi:nodetypes="sccsssssccss" />
  <path
     id="rect1043"
     style="fill:url(#linearGradient3149);fill-opacity:1;stroke-width:8"
     d="m 128,56 -16,16 c -5.33445,4.911808 -7.13601,8 -16,8 H 32 c -8.836548,0 -16,7.163448 -16,16 v 112 c 0,8.86398 7.136026,16 16,16 h 192 c 8.86398,0 16,-7.13602 16,-16 V 72 c 0,-8.863976 -7.13602,-16 -16,-16 z"
     sodipodi:nodetypes="ccsssssssssc" />
  <path
     id="path3081"
     style="opacity:0.2;fill:#ffffff;stroke-width:8"
     d="m 128,56 -16,16 c -5.33442,4.911795 -7.13604,8 -16,8 H 32 c -8.836521,0 -16,7.163473 -16,16 v 1 c 0,-8.836531 7.163479,-16 16,-16 h 64 c 8.86396,0 10.66558,-3.088205 16,-8 l 16,-16 h 96 c 8.86395,0 16,7.136054 16,16 v -1 c 0,-8.863951 -7.13605,-16 -16,-16 z" />
  <path
     id="path1011"
     style="color:#000000;opacity:0.6;fill:#ffffff;fill-opacity:1;stroke:none;stroke-width:57.139;stroke-linejoin:round;-inkscape-stroke:none"
     d="m 167.98541,116.00801 c -0.8073,-0.002 -1.60992,0.23244 -2.29686,0.71094 l -79.991958,56.01544 c -3.164302,2.24312 -1.573836,7.22696 2.30468,7.2656 h 79.999758 c 2.1983,-0.008 3.99222,-1.8017 4,-3.99998 v -55.99982 c -0.002,-1.49042 -0.8572,-2.85952 -2.1797,-3.54686 -0.5775,-0.30068 -1.20808,-0.44344 -1.83592,-0.44532 z m -11.98434,25.99212 v 21.99992 h -29.99991 z"
     sodipodi:nodetypes="scccccccscccc" />
</svg>
