<?xml version="1.0" encoding="UTF-8" standalone="no"?>
<!-- Created with Inkscape (http://www.inkscape.org/) -->

<svg
   width="256"
   height="256"
   viewBox="0 0 256 256"
   version="1.1"
   id="svg5"
   inkscape:version="1.2.1 (9c6d41e410, 2022-07-14)"
   sodipodi:docname="folder-purple-drag-accept.svg"
   xmlns:inkscape="http://www.inkscape.org/namespaces/inkscape"
   xmlns:sodipodi="http://sodipodi.sourceforge.net/DTD/sodipodi-0.dtd"
   xmlns:xlink="http://www.w3.org/1999/xlink"
   xmlns="http://www.w3.org/2000/svg"
   xmlns:svg="http://www.w3.org/2000/svg">
  <sodipodi:namedview
     id="namedview7"
     pagecolor="#ffffff"
     bordercolor="#000000"
     borderopacity="0.25"
     inkscape:showpageshadow="2"
     inkscape:pageopacity="0.0"
     inkscape:pagecheckerboard="0"
     inkscape:deskcolor="#d1d1d1"
     inkscape:document-units="px"
     showgrid="false"
     inkscape:zoom="2.923194"
     inkscape:cx="133.24466"
     inkscape:cy="107.07466"
     inkscape:window-width="1920"
     inkscape:window-height="1007"
     inkscape:window-x="0"
     inkscape:window-y="0"
     inkscape:window-maximized="1"
     inkscape:current-layer="svg5" />
  <defs
     id="defs2">
    <linearGradient
       inkscape:collect="always"
       id="linearGradient3155">
      <stop
         style="stop-color:#8353ab;stop-opacity:1;"
         offset="0"
         id="stop3151" />
      <stop
         style="stop-color:#603187;stop-opacity:1;"
         offset="1"
         id="stop3153" />
    </linearGradient>
    <linearGradient
       inkscape:collect="always"
       xlink:href="#linearGradient3155"
       id="linearGradient3157"
       x1="16"
       y1="7"
       x2="16"
       y2="30.5"
       gradientUnits="userSpaceOnUse"
       gradientTransform="matrix(4,0,0,4,0,4)" />
    <linearGradient
       inkscape:collect="always"
       xlink:href="#linearGradient3147"
       id="linearGradient3149"
       x1="56"
       y1="55"
       x2="32"
       y2="25.000002"
       gradientUnits="userSpaceOnUse"
       gradientTransform="matrix(3.9999992,0,0,3.9999992,3.3e-5,4.000016)" />
    <linearGradient
       inkscape:collect="always"
       id="linearGradient3147">
      <stop
         style="stop-color:#923ed7;stop-opacity:1;"
         offset="0"
         id="stop3143" />
      <stop
         style="stop-color:#b07ed8;stop-opacity:1;"
         offset="1"
         id="stop3145" />
    </linearGradient>
  </defs>
  <path
     d="m 32,33 c -8.863992,0 -16,7.136008 -16,16 v 160 c 0,8.864 7.136008,16 16,16 h 192 c 8.864,0 16,-7.136 16,-16 V 73 c 0,-8.863992 -7.136,-16 -16,-16 H 128 L 112,41 c -5.4342,-5.280768 -7.13601,-8 -16,-8 z"
     style="opacity:0.3;fill:#000000;stroke-width:8"
     id="path1016"
     sodipodi:nodetypes="ssssssssccss" />
  <path
     id="rect184"
     style="fill:url(#linearGradient3157);fill-opacity:1;stroke-width:8"
     d="m 32,32 c -8.863992,0 -16,7.136006 -16,16 v 160 c 0,8.864 7.136008,16 16,16 h 192 c 8.864,0 16,-7.136 16,-16 V 72 c 0,-8.863992 -7.136,-16 -16,-16 H 128 L 112,40 c -5.50953,-5.034684 -7.13601,-8 -16,-8 z"
     sodipodi:nodetypes="sccsssssccss" />
  <path
     id="rect1043"
     style="fill:url(#linearGradient3149);fill-opacity:1;stroke-width:8"
     d="m 32.000036,104 c -8.836544,0 -16,7.16345 -16,15.99999 V 208 c 0,8.86392 7.136024,16 16,16 H 223.99998 c 8.86398,0 16,-7.13608 16,-16 v -88 c 0,-8.86398 -7.13602,-16 -16,-16 0,0 -191.99998,0 -191.999944,0 z"
     sodipodi:nodetypes="csssssscc" />
  <path
     id="path3081"
     style="opacity:0.2;fill:#ffffff;stroke-width:8"
     d="m 32,104 c -8.836521,0 -16,7.16347 -16,16 v 1 c 0,-8.83653 7.163479,-16 16,-16 h 192 c 8.86395,0 16,7.13605 16,16 v -1 c 0,-8.86395 -7.13605,-16 -16,-16 0,0 -191.999964,0 -192,0 z"
     sodipodi:nodetypes="csccccscc" />
</svg>
