<?xml version="1.0" encoding="UTF-8" standalone="no"?>
<!-- Created with Inkscape (http://www.inkscape.org/) -->

<svg
   width="96"
   height="96"
   viewBox="0 0 96 96"
   version="1.1"
   id="svg5"
   inkscape:version="1.2.1 (1:1.2.1+202210291243+9c6d41e410)"
   sodipodi:docname="input-gaming.svg"
   xmlns:inkscape="http://www.inkscape.org/namespaces/inkscape"
   xmlns:sodipodi="http://sodipodi.sourceforge.net/DTD/sodipodi-0.dtd"
   xmlns:xlink="http://www.w3.org/1999/xlink"
   xmlns="http://www.w3.org/2000/svg"
   xmlns:svg="http://www.w3.org/2000/svg">
  <sodipodi:namedview
     id="namedview7"
     pagecolor="#ffffff"
     bordercolor="#000000"
     borderopacity="0.25"
     inkscape:showpageshadow="2"
     inkscape:pageopacity="0.0"
     inkscape:pagecheckerboard="0"
     inkscape:deskcolor="#d1d1d1"
     inkscape:document-units="px"
     showgrid="false"
     inkscape:zoom="8.59375"
     inkscape:cx="48"
     inkscape:cy="48"
     inkscape:window-width="1920"
     inkscape:window-height="1018"
     inkscape:window-x="0"
     inkscape:window-y="28"
     inkscape:window-maximized="1"
     inkscape:current-layer="svg5"
     showguides="false" />
  <defs
     id="defs2">
    <linearGradient
       inkscape:collect="always"
       id="linearGradient1401">
      <stop
         style="stop-color:#9f9f9f;stop-opacity:1;"
         offset="0"
         id="stop1397" />
      <stop
         style="stop-color:#d0d0d0;stop-opacity:1;"
         offset="1"
         id="stop1399" />
    </linearGradient>
    <linearGradient
       inkscape:collect="always"
       id="linearGradient1339">
      <stop
         style="stop-color:#6ac326;stop-opacity:1;"
         offset="0"
         id="stop1335" />
      <stop
         style="stop-color:#b0d839;stop-opacity:1;"
         offset="1"
         id="stop1337" />
    </linearGradient>
    <linearGradient
       inkscape:collect="always"
       id="linearGradient1331">
      <stop
         style="stop-color:#e4940d;stop-opacity:1;"
         offset="0"
         id="stop1327" />
      <stop
         style="stop-color:#e4ad0d;stop-opacity:1;"
         offset="1"
         id="stop1329" />
    </linearGradient>
    <linearGradient
       inkscape:collect="always"
       id="linearGradient1199">
      <stop
         style="stop-color:#2d7be6;stop-opacity:1;"
         offset="0"
         id="stop1195" />
      <stop
         style="stop-color:#5897ed;stop-opacity:1;"
         offset="1"
         id="stop1197" />
    </linearGradient>
    <linearGradient
       inkscape:collect="always"
       id="linearGradient1139">
      <stop
         style="stop-color:#d43b3b;stop-opacity:1;"
         offset="0"
         id="stop1135" />
      <stop
         style="stop-color:#cb6060;stop-opacity:1;"
         offset="1"
         id="stop1137" />
    </linearGradient>
    <linearGradient
       inkscape:collect="always"
       id="linearGradient1014">
      <stop
         style="stop-color:#5a5a5a;stop-opacity:1;"
         offset="0"
         id="stop1010" />
      <stop
         style="stop-color:#686868;stop-opacity:1;"
         offset="1"
         id="stop1012" />
    </linearGradient>
    <linearGradient
       inkscape:collect="always"
       xlink:href="#linearGradient1014"
       id="linearGradient1016"
       x1="30"
       y1="25.000002"
       x2="30"
       y2="7.0000005"
       gradientUnits="userSpaceOnUse"
       gradientTransform="matrix(3,0,0,3.1111108,-4e-7,-1.777776)" />
    <linearGradient
       inkscape:collect="always"
       xlink:href="#linearGradient1139"
       id="linearGradient1141"
       x1="24"
       y1="14"
       x2="24"
       y2="12"
       gradientUnits="userSpaceOnUse"
       gradientTransform="matrix(3,0,0,3,0.999998,-2e-6)" />
    <linearGradient
       inkscape:collect="always"
       xlink:href="#linearGradient1199"
       id="linearGradient1201"
       x1="20"
       y1="14"
       x2="20"
       y2="12"
       gradientUnits="userSpaceOnUse"
       gradientTransform="matrix(3,0,0,3,0.999998,-2e-6)" />
    <linearGradient
       inkscape:collect="always"
       xlink:href="#linearGradient1331"
       id="linearGradient1333"
       x1="22"
       y1="12"
       x2="22"
       y2="10"
       gradientUnits="userSpaceOnUse"
       gradientTransform="matrix(3,0,0,3,0.999998,-2e-6)" />
    <linearGradient
       inkscape:collect="always"
       xlink:href="#linearGradient1339"
       id="linearGradient1341"
       x1="22"
       y1="16"
       x2="22"
       y2="14"
       gradientUnits="userSpaceOnUse"
       gradientTransform="matrix(3,0,0,3,0.999998,-2e-6)" />
    <linearGradient
       inkscape:collect="always"
       xlink:href="#linearGradient1401"
       id="linearGradient1403"
       x1="10"
       y1="16"
       x2="10"
       y2="10"
       gradientUnits="userSpaceOnUse"
       gradientTransform="matrix(3,0,0,3,-1.000002,0)" />
    <linearGradient
       inkscape:collect="always"
       xlink:href="#linearGradient1401"
       id="linearGradient1465"
       x1="16"
       y1="11"
       x2="16"
       y2="10"
       gradientUnits="userSpaceOnUse"
       gradientTransform="matrix(4,0,0,4,-16.000003,-10)" />
  </defs>
  <path
     id="path375"
     style="opacity:0.2;fill:#000000;fill-opacity:1;stroke-width:7.19178"
     d="M 27,21 C 22.089174,21 18.25923,23.862924 15.382326,31.55855 9.30702,47.798206 6,57.259568 6,64.877598 c 0,5.859144 1.9596286,9.556064 6.12158,11.72881 0.48776,0.25533 1.029512,0.394528 1.573978,0.393586 0.86672,0.0016 1.710612,-0.331574 2.358396,-0.939358 L 27,64.90908 c 1.94963,-1.825106 3.576556,-2.909082 8.336424,-2.909082 h 25.327152 c 4.759868,0 6.382878,1.082944 8.336424,2.909082 l 10.946048,11.151556 c 1.08024,1.010486 2.638568,1.221186 3.93237,0.545772 C 88.039386,74.434654 90,70.725134 90,64.861852 90,57.244856 86.690046,47.795098 80.617672,31.55855 77.740776,23.862924 73.909838,21 69,21 c -2.296622,0 -5.857064,0.62818 -7.792968,1.684538 -8.309202,4.518262 -17.915004,4.614482 -26.398682,0 C 32.865584,21.628192 29.295636,21 27,21 Z"
     sodipodi:nodetypes="scsccccsscccscsccs" />
  <path
     d="M 27,20 C 22.089174,20 18.259232,22.862924 15.382326,30.55855 9.3070202,46.798206 6.0000004,56.259566 6.0000004,63.8776 c 0,5.859142 1.9596284,9.556062 6.1215816,11.728808 0.487758,0.255328 1.02951,0.394528 1.573976,0.393584 0.86672,0.0019 1.710614,-0.331572 2.358396,-0.939356 L 27,63.90908 c 1.94963,-1.825104 3.576554,-2.909078 8.336424,-2.909078 h 25.327152 c 4.759868,0 6.382878,1.082942 8.336424,2.909082 l 10.946048,11.151552 c 1.08024,1.010486 2.638568,1.221186 3.93237,0.545772 C 88.039388,73.434654 90,69.725134 90,63.861854 90,56.244856 86.69005,46.795102 80.617674,30.55855 77.740778,22.862924 73.90984,20 69,20 c -2.296622,0 -5.857064,0.62818 -7.792968,1.684538 -8.309202,4.518264 -17.915004,4.614484 -26.398684,0 C 32.865584,20.628192 29.295636,20 27,20 Z"
     style="fill:url(#linearGradient1016);fill-opacity:1;stroke-width:7.19178"
     id="path975"
     sodipodi:nodetypes="scsccccsscccscsccs" />
  <path
     id="rect1070"
     style="opacity:1;fill:url(#linearGradient1403);fill-opacity:1;stroke-width:6;stroke-linecap:round;stroke-linejoin:round"
     d="m 25.999998,30 v 6 h -6 v 6 h 6 v 6 h 6 v -6 h 6 v -6 h -6 v -6 z" />
  <circle
     style="opacity:1;fill:url(#linearGradient1333);fill-opacity:1;stroke-width:6;stroke-linecap:round;stroke-linejoin:round"
     id="path1127"
     cx="67"
     cy="33"
     r="3" />
  <circle
     style="opacity:1;fill:url(#linearGradient1201);fill-opacity:1;stroke-width:6;stroke-linecap:round;stroke-linejoin:round"
     id="path1129"
     cx="61"
     cy="39"
     r="3" />
  <circle
     style="opacity:1;fill:url(#linearGradient1141);fill-opacity:1;stroke-width:6;stroke-linecap:round;stroke-linejoin:round"
     id="path1131"
     cx="73"
     cy="39"
     r="3" />
  <circle
     style="opacity:1;fill:url(#linearGradient1341);fill-opacity:1;stroke-width:6;stroke-linecap:round;stroke-linejoin:round"
     id="path1133"
     cx="67"
     cy="45"
     r="3" />
  <rect
     style="opacity:1;fill:url(#linearGradient1465);fill-opacity:1;stroke-width:8;stroke-linecap:round;stroke-linejoin:round"
     id="rect1457"
     width="8"
     height="4"
     x="44"
     y="30"
     ry="2" />
</svg>
