<?xml version="1.0" encoding="UTF-8" standalone="no"?>
<!-- Created with Inkscape (http://www.inkscape.org/) -->

<svg
   width="96"
   height="96"
   viewBox="0 0 96 96"
   version="1.1"
   id="svg5"
   inkscape:version="1.2.2 (1:1.2.2+202305151914+b0a8486541)"
   sodipodi:docname="media-flash.svg"
   xmlns:inkscape="http://www.inkscape.org/namespaces/inkscape"
   xmlns:sodipodi="http://sodipodi.sourceforge.net/DTD/sodipodi-0.dtd"
   xmlns:xlink="http://www.w3.org/1999/xlink"
   xmlns="http://www.w3.org/2000/svg"
   xmlns:svg="http://www.w3.org/2000/svg">
  <sodipodi:namedview
     id="namedview7"
     pagecolor="#ffffff"
     bordercolor="#000000"
     borderopacity="0.25"
     inkscape:showpageshadow="2"
     inkscape:pageopacity="0.0"
     inkscape:pagecheckerboard="0"
     inkscape:deskcolor="#d1d1d1"
     inkscape:document-units="px"
     showgrid="false"
     inkscape:zoom="8.4375"
     inkscape:cx="47.940741"
     inkscape:cy="48"
     inkscape:window-width="1920"
     inkscape:window-height="1012"
     inkscape:window-x="0"
     inkscape:window-y="0"
     inkscape:window-maximized="1"
     inkscape:current-layer="svg5" />
  <defs
     id="defs2">
    <linearGradient
       inkscape:collect="always"
       id="linearGradient1349">
      <stop
         style="stop-color:#000000;stop-opacity:0.69999999;"
         offset="0"
         id="stop1345" />
      <stop
         style="stop-color:#000000;stop-opacity:0.40000001;"
         offset="1"
         id="stop1347" />
    </linearGradient>
    <linearGradient
       inkscape:collect="always"
       id="linearGradient8064">
      <stop
         style="stop-color:#c5c5c5;stop-opacity:1;"
         offset="0"
         id="stop8060" />
      <stop
         style="stop-color:#e2e2e2;stop-opacity:1;"
         offset="1"
         id="stop8062" />
    </linearGradient>
    <linearGradient
       inkscape:collect="always"
       xlink:href="#linearGradient8064"
       id="linearGradient1026"
       x1="1.5"
       y1="0"
       x2="12.166667"
       y2="14"
       gradientUnits="userSpaceOnUse"
       gradientTransform="matrix(6,0,0,6,7,6)" />
    <linearGradient
       inkscape:collect="always"
       id="linearGradient3094">
      <stop
         style="stop-color:#cca042;stop-opacity:1;"
         offset="0"
         id="stop3090" />
      <stop
         style="stop-color:#dbbb77;stop-opacity:1;"
         offset="1"
         id="stop3092" />
    </linearGradient>
    <linearGradient
       inkscape:collect="always"
       xlink:href="#linearGradient3094"
       id="linearGradient1289"
       x1="11"
       y1="2"
       x2="11"
       y2="5"
       gradientUnits="userSpaceOnUse"
       gradientTransform="matrix(5.3333332,0,0,5.3333332,11.333334,3.3333332)" />
    <linearGradient
       inkscape:collect="always"
       xlink:href="#linearGradient1349"
       id="linearGradient1351"
       x1="12"
       y1="14"
       x2="12"
       y2="9"
       gradientUnits="userSpaceOnUse"
       gradientTransform="matrix(6.4999998,0,0,6.3999998,-3.9999998,-5.6)" />
  </defs>
  <path
     d="m 38.001092,7 c -1.59119,3.06e-4 -3.117116,0.632595 -4.242184,1.7578126 L 17.757814,24.756906 C 16.632594,25.881976 16.000306,27.407902 16,28.999094 V 85 c 0,3.323994 2.676002,6 6,6 h 52 c 3.323994,0 6,-2.676006 6,-6 V 13 C 80,9.6760032 77.323994,7 74,7 Z"
     style="opacity:0.2;fill:#000000;fill-opacity:1;stroke-width:12;stroke-linecap:round;stroke-linejoin:round"
     id="path1478"
     sodipodi:nodetypes="ccccssssssc" />
  <path
     id="rect290"
     style="fill:url(#linearGradient1026);fill-opacity:1;stroke-width:12;stroke-linecap:round;stroke-linejoin:round"
     d="m 37.000094,6 c -1.591192,3.064e-4 -3.117118,0.6325962 -4.242186,1.7578126 L 17.757812,22.757906 C 16.632596,23.882976 16.000306,25.408902 16,27.000094 V 84 c 0,3.323994 2.676004,6 6,6 h 52 c 3.323994,0 6,-2.676006 6,-6 V 12 C 80,8.6760032 77.323994,6 74,6 Z"
     sodipodi:nodetypes="cccccsssscc" />
  <path
     id="rect1028"
     style="fill:url(#linearGradient1289);fill-opacity:1;stroke-width:9.2376;stroke-linecap:round;stroke-linejoin:round"
     d="m 32,14 v 16 h 6 V 14 Z m 11.999666,0 v 16 h 6.000668 V 14 Z M 56,14 v 16 h 6 V 14 Z m 12,0 v 16 h 6 V 14 Z"
     sodipodi:nodetypes="cccccccccccccccccccc" />
  <rect
     style="opacity:0.3;fill:url(#linearGradient1351);fill-opacity:1;stroke-width:11.5377;stroke-linecap:round;stroke-linejoin:round"
     id="rect1343"
     width="52"
     height="32"
     x="22"
     y="52"
     ry="4" />
</svg>
