<?xml version="1.0" encoding="UTF-8" standalone="no"?>
<svg
   width="22"
   height="22"
   enable-background="new"
   version="1.1"
   id="svg1"
   sodipodi:docname="non-starred.svg"
   inkscape:version="1.4.2 (ebf0e940d0, 2025-05-08)"
   xmlns:inkscape="http://www.inkscape.org/namespaces/inkscape"
   xmlns:sodipodi="http://sodipodi.sourceforge.net/DTD/sodipodi-0.dtd"
   xmlns="http://www.w3.org/2000/svg"
   xmlns:svg="http://www.w3.org/2000/svg">
  <sodipodi:namedview
     id="namedview1"
     pagecolor="#ffffff"
     bordercolor="#000000"
     borderopacity="0.25"
     inkscape:showpageshadow="2"
     inkscape:pageopacity="0.0"
     inkscape:pagecheckerboard="0"
     inkscape:deskcolor="#d1d1d1"
     inkscape:zoom="36.136364"
     inkscape:cx="11"
     inkscape:cy="11"
     inkscape:window-width="1920"
     inkscape:window-height="1010"
     inkscape:window-x="0"
     inkscape:window-y="0"
     inkscape:window-maximized="1"
     inkscape:current-layer="svg1" />
  <defs
     id="defs1">
    <style
       id="current-color-scheme"
       type="text/css">
        .ColorScheme-Text { color:#363636; }
        .ColorScheme-NeutralText { color:#f67400; }
        .ColorScheme-PositiveText { color:#37c837; }
        .ColorScheme-NegativeText { color:#f44336; }
        .ColorScheme-Highlight { color:#3daee9; }
     </style>
  </defs>
  <path
     id="path1"
     style="fill:currentColor"
     class="ColorScheme-Text"
     d="m 10.958899,3.6225755 a 0.5,0.5 0 0 0 -0.427734,0.328125 L 8.6659308,9.0053876 H 3.4999152 A 0.5,0.5 0 0 0 3.1854621,9.8940596 L 7.2206183,13.171404 5.8827277,18.196795 A 0.5,0.5 0 0 0 6.636634,18.74367 l 4.363281,-2.824219 4.363281,2.824219 a 0.5,0.5 0 0 0 0.75586,-0.546875 L 14.781165,13.171404 18.816321,9.8940596 A 0.5,0.5 0 0 0 18.499915,9.0053876 H 13.335853 L 11.468665,3.9507005 a 0.5,0.5 0 0 0 -0.509766,-0.328125 z m 0.04102,1.9433593 1.517578,4.1132818 a 0.5,0.5 0 0 0 0.46875,0.3261714 h 4.105469 l -3.191406,2.59375 a 0.5,0.5 0 0 0 -0.167969,0.517579 l 1.08789,4.085937 -3.548828,-2.298828 a 0.5,0.5 0 0 0 -0.542968,0 L 7.1815558,17.200701 8.2694464,13.116717 A 0.5,0.5 0 0 0 8.1014777,12.599138 l -3.1914063,-2.59375 h 4.1035158 a 0.5,0.5 0 0 0 0.46875,-0.3261714 z" />
</svg>
