<?xml version="1.0" encoding="UTF-8" standalone="no"?>
<svg
   width="22"
   height="22"
   enable-background="new"
   version="1.1"
   id="svg1"
   sodipodi:docname="starred.svg"
   inkscape:version="1.4.2 (ebf0e940d0, 2025-05-08)"
   xmlns:inkscape="http://www.inkscape.org/namespaces/inkscape"
   xmlns:sodipodi="http://sodipodi.sourceforge.net/DTD/sodipodi-0.dtd"
   xmlns="http://www.w3.org/2000/svg"
   xmlns:svg="http://www.w3.org/2000/svg">
  <sodipodi:namedview
     id="namedview1"
     pagecolor="#ffffff"
     bordercolor="#000000"
     borderopacity="0.25"
     inkscape:showpageshadow="2"
     inkscape:pageopacity="0.0"
     inkscape:pagecheckerboard="0"
     inkscape:deskcolor="#d1d1d1"
     inkscape:zoom="36.136364"
     inkscape:cx="11"
     inkscape:cy="11"
     inkscape:window-width="1920"
     inkscape:window-height="1010"
     inkscape:window-x="0"
     inkscape:window-y="0"
     inkscape:window-maximized="1"
     inkscape:current-layer="svg1" />
  <defs
     id="defs1">
    <style
       id="current-color-scheme"
       type="text/css">
        .ColorScheme-Text { color:#363636; }
        .ColorScheme-NeutralText { color:#f67400; }
        .ColorScheme-PositiveText { color:#37c837; }
        .ColorScheme-NegativeText { color:#f44336; }
        .ColorScheme-Highlight { color:#3daee9; }
     </style>
  </defs>
  <path
     id="path1"
     style="fill:currentColor"
     class="ColorScheme-Text"
     d="m 10.999905,3.6210024 c -0.01388,-5.46e-5 -0.02699,8.37e-4 -0.04102,0.00195 -0.194381,0.016564 -0.361378,0.1446711 -0.427734,0.328125 L 8.665921,9.005768 H 3.4999054 c -0.4711897,8e-5 -0.6807296,0.592258 -0.3144531,0.888672 l 4.0351562,3.277344 -1.3378906,5.025391 c -0.1147838,0.440478 0.370828,0.792735 0.7539063,0.546875 l 4.3632808,-2.824219 4.363281,2.824219 c 0.383489,0.249167 0.872572,-0.104691 0.75586,-0.546875 L 14.781155,13.171784 18.816311,9.89444 C 19.183354,9.597412 18.972073,9.004 18.499905,9.005768 H 13.335843 L 11.468655,3.9510805 C 11.39677,3.7526462 11.208023,3.62182 10.999905,3.6210024 Z" />
</svg>
