<?xml version="1.0" encoding="UTF-8" standalone="no"?>
<!-- Created with Inkscape (http://www.inkscape.org/) -->

<svg
   width="96"
   height="96"
   viewBox="0 0 96 96"
   version="1.1"
   id="svg5"
   inkscape:version="1.2.1 (9c6d41e410, 2022-07-14)"
   sodipodi:docname="1password.svg"
   xmlns:inkscape="http://www.inkscape.org/namespaces/inkscape"
   xmlns:sodipodi="http://sodipodi.sourceforge.net/DTD/sodipodi-0.dtd"
   xmlns:xlink="http://www.w3.org/1999/xlink"
   xmlns="http://www.w3.org/2000/svg"
   xmlns:svg="http://www.w3.org/2000/svg">
  <sodipodi:namedview
     id="namedview7"
     pagecolor="#ffffff"
     bordercolor="#000000"
     borderopacity="0.25"
     inkscape:showpageshadow="2"
     inkscape:pageopacity="0.0"
     inkscape:pagecheckerboard="0"
     inkscape:deskcolor="#d1d1d1"
     inkscape:document-units="px"
     showgrid="false"
     inkscape:zoom="8.4166667"
     inkscape:cx="48"
     inkscape:cy="48"
     inkscape:window-width="1920"
     inkscape:window-height="1011"
     inkscape:window-x="0"
     inkscape:window-y="32"
     inkscape:window-maximized="1"
     inkscape:current-layer="svg5"
     showguides="false" />
  <defs
     id="defs2">
    <linearGradient
       inkscape:collect="always"
       id="linearGradient1768">
      <stop
         style="stop-color:#333333;stop-opacity:1;"
         offset="0"
         id="stop1764" />
      <stop
         style="stop-color:#6a6a6a;stop-opacity:1;"
         offset="1"
         id="stop1766" />
    </linearGradient>
    <linearGradient
       inkscape:collect="always"
       xlink:href="#linearGradient1768"
       id="linearGradient3500"
       x1="2"
       y1="2"
       x2="30"
       y2="30"
       gradientUnits="userSpaceOnUse"
       gradientTransform="scale(3)" />
    <linearGradient
       inkscape:collect="always"
       xlink:href="#linearGradient931"
       id="linearGradient1065"
       x1="8"
       y1="17"
       x2="8"
       y2="-1.0000002"
       gradientUnits="userSpaceOnUse"
       gradientTransform="matrix(3.3333332,0,0,3.3333332,21.333334,21.333334)" />
    <linearGradient
       inkscape:collect="always"
       id="linearGradient931">
      <stop
         style="stop-color:#d9d9d9;stop-opacity:1;"
         offset="0"
         id="stop927" />
      <stop
         style="stop-color:#efefef;stop-opacity:1;"
         offset="1"
         id="stop929" />
    </linearGradient>
    <linearGradient
       inkscape:collect="always"
       xlink:href="#linearGradient931"
       id="linearGradient4419"
       gradientUnits="userSpaceOnUse"
       x1="8"
       y1="14"
       x2="8"
       y2="2"
       gradientTransform="matrix(5,0,0,5,7.9999992,8.0000008)" />
    <linearGradient
       inkscape:collect="always"
       xlink:href="#linearGradient1071"
       id="linearGradient1073"
       x1="8"
       y1="3"
       x2="8"
       y2="13"
       gradientUnits="userSpaceOnUse"
       gradientTransform="matrix(5.1999998,0,0,5.1999998,6.399998,6.3999996)" />
    <linearGradient
       inkscape:collect="always"
       id="linearGradient1071">
      <stop
         style="stop-color:#3675d8;stop-opacity:1;"
         offset="0"
         id="stop1067" />
      <stop
         style="stop-color:#49abdd;stop-opacity:1;"
         offset="1"
         id="stop1069" />
    </linearGradient>
  </defs>
  <path
     d="M 39,7 C 11.696429,7 6,12.819451 6,40 v 18 c 0,27.180548 5.696429,33 33,33 H 57 C 84.30357,91 90,85.180548 90,58 V 40 C 90,12.819451 84.30357,7 57,7"
     style="opacity:0.2;fill:#000000;stroke-width:3;stroke-linecap:round;stroke-linejoin:round"
     id="path563" />
  <path
     id="path530"
     style="fill:url(#linearGradient3500);fill-opacity:1;stroke-width:3;stroke-linecap:round;stroke-linejoin:round"
     d="M 39,6 C 11.696456,6 6,11.819478 6,39 v 18 c 0,27.180522 5.696456,33 33,33 H 57 C 84.303546,90 90,84.180522 90,57 V 39 C 90,11.819478 84.303546,6 57,6 Z" />
  <circle
     style="fill:url(#linearGradient4419);fill-opacity:1;stroke-width:9.99998;stroke-linecap:round;stroke-linejoin:round"
     id="path234"
     cx="48"
     cy="48"
     r="30" />
  <circle
     style="fill:url(#linearGradient1073);fill-opacity:1;stroke-width:5.2;stroke-linecap:square;stroke-linejoin:round"
     id="path319"
     cx="48"
     cy="48"
     r="26" />
  <circle
     style="fill:url(#linearGradient1065);fill-opacity:1;stroke-width:6.66666;stroke-linecap:round;stroke-linejoin:round"
     id="path1122"
     cx="48"
     cy="48"
     r="20" />
  <circle
     style="opacity:0.2;fill:#000000;stroke-width:3;stroke-linecap:square;stroke-linejoin:round"
     id="path925"
     cx="48"
     cy="48"
     r="10" />
  <path
     id="rect402"
     style="fill:#333333;stroke-width:4;stroke-linecap:round;stroke-linejoin:round"
     d="m 46,34 c -1.107998,0 -2,0.892002 -2,2 v 4 l 2,2 -2,2 v 16 c 0,1.107998 0.892002,2 2,2 h 4 c 1.107998,0 2,-0.892002 2,-2 v -4 l -2,-2 2,-2 V 36 c 0,-1.107998 -0.892002,-2 -2,-2 z"
     sodipodi:nodetypes="sscccsssscccsss" />
</svg>
