<?xml version="1.0" encoding="UTF-8" standalone="no"?>
<!-- Created with Inkscape (http://www.inkscape.org/) -->

<svg
   width="96"
   height="96"
   viewBox="0 0 96 96"
   version="1.1"
   id="svg5"
   inkscape:version="1.2.1 (9c6d41e410, 2022-07-14)"
   sodipodi:docname="accessories-calculator.svg"
   xmlns:inkscape="http://www.inkscape.org/namespaces/inkscape"
   xmlns:sodipodi="http://sodipodi.sourceforge.net/DTD/sodipodi-0.dtd"
   xmlns:xlink="http://www.w3.org/1999/xlink"
   xmlns="http://www.w3.org/2000/svg"
   xmlns:svg="http://www.w3.org/2000/svg">
  <sodipodi:namedview
     id="namedview7"
     pagecolor="#ffffff"
     bordercolor="#000000"
     borderopacity="0.25"
     inkscape:showpageshadow="2"
     inkscape:pageopacity="0.0"
     inkscape:pagecheckerboard="0"
     inkscape:deskcolor="#d1d1d1"
     inkscape:document-units="px"
     showgrid="false"
     inkscape:zoom="8.5208333"
     inkscape:cx="47.94132"
     inkscape:cy="48"
     inkscape:window-width="1920"
     inkscape:window-height="1004"
     inkscape:window-x="0"
     inkscape:window-y="0"
     inkscape:window-maximized="1"
     inkscape:current-layer="svg5"
     showguides="true" />
  <defs
     id="defs2">
    <linearGradient
       inkscape:collect="always"
       id="linearGradient1606">
      <stop
         style="stop-color:#eaebed;stop-opacity:1;"
         offset="0"
         id="stop1602" />
      <stop
         style="stop-color:#f9fafa;stop-opacity:1;"
         offset="1"
         id="stop1604" />
    </linearGradient>
    <linearGradient
       inkscape:collect="always"
       xlink:href="#linearGradient1606"
       id="linearGradient3500"
       x1="2"
       y1="2"
       x2="30"
       y2="30"
       gradientUnits="userSpaceOnUse"
       gradientTransform="scale(3)" />
    <linearGradient
       inkscape:collect="always"
       id="linearGradient3147">
      <stop
         style="stop-color:#41bbff;stop-opacity:1;"
         offset="0"
         id="stop3143" />
      <stop
         style="stop-color:#0091f9;stop-opacity:1;"
         offset="1"
         id="stop3145" />
    </linearGradient>
    <linearGradient
       inkscape:collect="always"
       xlink:href="#linearGradient3147"
       id="linearGradient1525"
       x1="34"
       y1="34"
       x2="50.697769"
       y2="56.656933"
       gradientUnits="userSpaceOnUse"
       gradientTransform="scale(1.5)" />
  </defs>
  <path
     d="M 39,7 C 11.696428,7 6,12.819451 6,40 v 18 c 0,27.180548 5.696428,33 33,33 H 57 C 84.30357,91 90,85.180548 90,58 V 40 C 90,12.819451 84.30357,7 57,7"
     style="opacity:0.2;fill:#000000;stroke-width:3;stroke-linecap:round;stroke-linejoin:round"
     id="path563" />
  <path
     id="path530"
     style="fill:url(#linearGradient3500);fill-opacity:1;stroke-width:3;stroke-linecap:round;stroke-linejoin:round"
     d="M 39,6 C 11.696455,6 6,11.819478 6,39 v 18 c 0,27.180525 5.696455,33 33,33 H 57 C 84.303548,90 90,84.180525 90,57 V 39 C 90,11.819478 84.303548,6 57,6 Z" />
  <path
     id="rect686"
     style="fill:url(#linearGradient1525);fill-opacity:1;stroke-width:2.35714;stroke-linecap:round;stroke-linejoin:round"
     d="m 55.5,51 h 27 c 2.493,0 4.5,2.007 4.5,4.5 v 6 C 87,80.370397 81.554618,87 61.5,87 h -6 C 53.007,87 51,84.993 51,82.5 v -27 C 51,53.007 53.007,51 55.5,51 Z"
     sodipodi:nodetypes="sssssssss" />
  <path
     id="path364"
     style="fill:#666666;stroke-width:19.5716;stroke-linejoin:round"
     d="m 26,18 v 8 h -8 v 3 h 8 v 8 h 3 v -8 h 8 v -3 h -8 v -8 z m 33,8 v 3 H 78 V 26 Z M 20.841797,59.220703 18.720703,61.341797 25.378906,68 18.720703,74.658203 20.841797,76.779297 27.5,70.121094 34.158203,76.779297 36.279297,74.658203 29.621094,68 36.279297,61.341797 34.158203,59.220703 27.5,65.878906 Z"
     sodipodi:nodetypes="ccccccccccccccccccccccccccccccc" />
  <path
     d="m 59,62 v 2.999996 H 78 V 62 Z m 0,9.000014 V 74 h 19 v -2.999986 z"
     style="fill:#ffffff;stroke-width:26.7399;stroke-linejoin:round"
     id="path697"
     sodipodi:nodetypes="cccccccccc" />
</svg>
