<?xml version="1.0" encoding="UTF-8" standalone="no"?>
<!-- Created with Inkscape (http://www.inkscape.org/) -->

<svg
   width="96"
   height="96"
   viewBox="0 0 96 96"
   version="1.1"
   id="svg5"
   inkscape:version="1.4.4 (dcaf3e7d9e, 2026-05-05)"
   sodipodi:docname="anydesk.svg"
   xmlns:inkscape="http://www.inkscape.org/namespaces/inkscape"
   xmlns:sodipodi="http://sodipodi.sourceforge.net/DTD/sodipodi-0.dtd"
   xmlns:xlink="http://www.w3.org/1999/xlink"
   xmlns="http://www.w3.org/2000/svg"
   xmlns:svg="http://www.w3.org/2000/svg">
  <sodipodi:namedview
     id="namedview7"
     pagecolor="#ffffff"
     bordercolor="#000000"
     borderopacity="0.25"
     inkscape:showpageshadow="2"
     inkscape:pageopacity="0.0"
     inkscape:pagecheckerboard="0"
     inkscape:deskcolor="#d1d1d1"
     inkscape:document-units="px"
     showgrid="false"
     inkscape:zoom="8.3541667"
     inkscape:cx="48"
     inkscape:cy="48"
     inkscape:window-width="1920"
     inkscape:window-height="1010"
     inkscape:window-x="0"
     inkscape:window-y="0"
     inkscape:window-maximized="1"
     inkscape:current-layer="svg5" />
  <defs
     id="defs2">
    <linearGradient
       inkscape:collect="always"
       xlink:href="#linearGradient3"
       id="linearGradient4780"
       x1="2"
       y1="2"
       x2="30"
       y2="30"
       gradientUnits="userSpaceOnUse"
       gradientTransform="scale(3)" />
    <linearGradient
       inkscape:collect="always"
       id="linearGradient3">
      <stop
         style="stop-color:#ef443b;stop-opacity:1;"
         offset="0"
         id="stop1" />
      <stop
         style="stop-color:#ef6d67;stop-opacity:1;"
         offset="1"
         id="stop2" />
    </linearGradient>
  </defs>
  <path
     d="M 39,7 C 11.696429,7 6,12.819451 6,40 v 18 c 0,27.180548 5.696429,33 33,33 H 57 C 84.30357,91 90,85.180548 90,58 V 40 C 90,12.819451 84.30357,7 57,7"
     style="opacity:0.2;fill:#000000;stroke-width:3;stroke-linecap:round;stroke-linejoin:round"
     id="path563" />
  <path
     id="path530"
     style="fill:url(#linearGradient4780);fill-opacity:1;stroke-width:3;stroke-linecap:round;stroke-linejoin:round"
     d="M 39,6 C 11.696456,6 6,11.819478 6,39 v 18 c 0,27.180525 5.696456,33 33,33 H 57 C 84.303548,90 90,84.180525 90,57 V 39 C 90,11.819478 84.303548,6 57,6 Z"
     sodipodi:nodetypes="sssssssss" />
  <path
     d="M 39.304687,28.335939 19.59375,48 39.304687,67.664062 59.015625,48 Z m 17.43164,0.0117 -4.382809,4.371096 15.369138,15.251951 -15.369139,15.339847 4.38281,4.289059 19.669923,-19.628906 z"
     style="fill:#ffffff;stroke-width:0.795465"
     id="path1" />
</svg>
