<?xml version="1.0" encoding="UTF-8" standalone="no"?>
<!-- Created with Inkscape (http://www.inkscape.org/) -->

<svg
   width="96"
   height="96"
   viewBox="0 0 96 96"
   version="1.1"
   id="svg5"
   inkscape:version="1.2.1 (9c6d41e410, 2022-07-14)"
   sodipodi:docname="applications-utilities.svg"
   xmlns:inkscape="http://www.inkscape.org/namespaces/inkscape"
   xmlns:sodipodi="http://sodipodi.sourceforge.net/DTD/sodipodi-0.dtd"
   xmlns:xlink="http://www.w3.org/1999/xlink"
   xmlns="http://www.w3.org/2000/svg"
   xmlns:svg="http://www.w3.org/2000/svg">
  <sodipodi:namedview
     id="namedview7"
     pagecolor="#ffffff"
     bordercolor="#000000"
     borderopacity="0.25"
     inkscape:showpageshadow="2"
     inkscape:pageopacity="0.0"
     inkscape:pagecheckerboard="0"
     inkscape:deskcolor="#d1d1d1"
     inkscape:document-units="px"
     showgrid="false"
     inkscape:zoom="8.6041667"
     inkscape:cx="47.941889"
     inkscape:cy="48"
     inkscape:window-width="1920"
     inkscape:window-height="1006"
     inkscape:window-x="0"
     inkscape:window-y="0"
     inkscape:window-maximized="1"
     inkscape:current-layer="svg5"
     showguides="false" />
  <defs
     id="defs2">
    <linearGradient
       inkscape:collect="always"
       id="linearGradient1217">
      <stop
         style="stop-color:#96a3ad;stop-opacity:1;"
         offset="0"
         id="stop1213" />
      <stop
         style="stop-color:#c4c8cd;stop-opacity:1;"
         offset="1"
         id="stop1215" />
    </linearGradient>
    <linearGradient
       inkscape:collect="always"
       xlink:href="#linearGradient1217"
       id="linearGradient3500"
       x1="2"
       y1="2"
       x2="30"
       y2="30"
       gradientUnits="userSpaceOnUse"
       gradientTransform="scale(3)" />
  </defs>
  <path
     d="M 39,7 C 11.696428,7 6,12.819451 6,40 v 18 c 0,27.180548 5.696428,33 33,33 H 57 C 84.30357,91 90,85.180548 90,58 V 40 C 90,12.819451 84.30357,7 57,7"
     style="opacity:0.2;fill:#000000;stroke-width:3;stroke-linecap:round;stroke-linejoin:round"
     id="path563" />
  <path
     id="path530"
     style="fill:url(#linearGradient3500);fill-opacity:1;stroke-width:3;stroke-linecap:round;stroke-linejoin:round"
     d="M 39,6 C 11.696456,6 6,11.819478 6,39 v 18 c 0,27.180522 5.696456,33 33,33 H 57 C 84.303546,90 90,84.180522 90,57 V 39 C 90,11.819478 84.303546,6 57,6 Z" />
  <path
     id="path455"
     style="fill:#ffffff;stroke-width:8;stroke-linecap:round;stroke-linejoin:round"
     d="m 30,20 c -5.539996,0 -10,4.460004 -10,10 v 36 c 0,5.539996 4.460004,10 10,10 5.539996,0 10,-4.460004 10,-10 V 30 C 40,24.460004 35.539996,20 30,20 Z m 9.8125,0 C 42.398136,22.53738 44,26.07434 44,30 v 6 h 8 c -0.296,-4.371992 4.996008,-8 8,-8 2.719992,0 4,0.044 4,4 v 4 h 4.875 C 73.786992,33.600004 76,28.121992 76,25.25 76,22.306004 66.457992,20 61.25,20 Z M 44,40 v 17.25 c 11.063976,10.643936 24.5,9.625 24.5,9.625 0,0 1.410984,-6.081064 -7.625,-16.125 L 52,40 Z m 11.898436,10.125 6.734376,6.953124 c -7.195984,0.66 -8.602368,-3.429132 -6.734376,-6.953124 z" />
</svg>
