<?xml version="1.0" encoding="UTF-8" standalone="no"?>
<!-- Created with Inkscape (http://www.inkscape.org/) -->

<svg
   width="96"
   height="96"
   viewBox="0 0 96 96"
   version="1.1"
   id="svg5"
   inkscape:version="1.2.1 (9c6d41e410, 2022-07-14)"
   sodipodi:docname="chromium-browser.svg"
   xmlns:inkscape="http://www.inkscape.org/namespaces/inkscape"
   xmlns:sodipodi="http://sodipodi.sourceforge.net/DTD/sodipodi-0.dtd"
   xmlns="http://www.w3.org/2000/svg"
   xmlns:svg="http://www.w3.org/2000/svg">
  <sodipodi:namedview
     id="namedview7"
     pagecolor="#ffffff"
     bordercolor="#000000"
     borderopacity="0.25"
     inkscape:showpageshadow="2"
     inkscape:pageopacity="0.0"
     inkscape:pagecheckerboard="0"
     inkscape:deskcolor="#d1d1d1"
     inkscape:document-units="px"
     showgrid="false"
     inkscape:zoom="8.5208333"
     inkscape:cx="47.94132"
     inkscape:cy="48"
     inkscape:window-width="1920"
     inkscape:window-height="1004"
     inkscape:window-x="0"
     inkscape:window-y="0"
     inkscape:window-maximized="1"
     inkscape:current-layer="svg5" />
  <defs
     id="defs2" />
  <path
     d="M 39,7 C 11.696429,7 6,12.819451 6,40 v 18 c 0,27.180548 5.696429,33 33,33 H 57 C 84.30357,91 90,85.180548 90,58 V 40 C 90,12.819451 84.30357,7 57,7"
     style="opacity:0.2;fill:#000000;stroke-width:3;stroke-linecap:round;stroke-linejoin:round"
     id="path563" />
  <path
     id="path533"
     style="fill:#fafafa;fill-opacity:1;stroke-width:3;stroke-linecap:round;stroke-linejoin:round"
     d="M 38.999999,6 C 11.696456,6 6,11.819478 6,38.999999 V 57.000001 C 6,84.180522 11.696456,90 38.999999,90 H 57.000001 C 84.303545,90 90,84.180522 90,57.000001 V 38.999999 C 90,11.819478 84.303545,6 57.000001,6 Z" />
  <g
     id="g7384"
     transform="matrix(6.4000005,0,0,6.4000005,-5.9151538,-32.872734)">
    <path
       d="m 8.4242321,7.6363676 c -1.8506347,0 -3.4651958,1.0061482 -4.3297602,2.5006074 l 0.1630996,2.916032 2.0015586,0.833365 2.165102,-1.249971 V 10.136384 H 12.753695 C 11.888983,8.6422944 10.274644,7.6363676 8.4242321,7.6363676 Z"
       style="fill:#1967d2;fill-opacity:1;stroke-width:0.0195312"
       id="path1309" />
    <path
       d="m 3.4242718,12.636401 c 0,2.761409 2.2384774,4.999959 4.9999596,4.999959 L 10.617165,16.464066 10.589333,13.886372 8.4242314,12.636401 6.2591301,13.886372 4.0944714,10.136975 c -0.4254686,0.73547 -0.6702289,1.588504 -0.6702289,2.499352"
       style="fill:#669df6;fill-opacity:1;stroke-width:0.0195312"
       id="path1449"
       sodipodi:nodetypes="cccccccc" />
    <path
       d="m 8.424284,12.636401 2.165101,1.249971 -2.165101,3.749988 c 2.761408,0 4.999958,-2.23855 4.999958,-4.999959 0,-0.910996 -0.24484,-1.76434 -0.670547,-2.500017 H 8.4242321 Z"
       style="fill:#aecbfa;fill-opacity:1;stroke-width:0.0195312"
       id="path1829" />
    <path
       d="m 10.924301,12.636401 c 0,1.380704 -1.1193128,2.500017 -2.500017,2.500017 -1.3807047,0 -2.5000172,-1.119313 -2.5000172,-2.500017 0,-1.380705 1.1193125,-2.500017 2.5000172,-2.500017 1.3807042,0 2.500017,1.119312 2.500017,2.500017"
       style="fill:#ffffff;stroke-width:0.0195312"
       id="path2229" />
    <path
       d="m 10.299284,12.636401 c 0,1.03552 -0.8394815,1.874999 -1.8749998,1.874999 -1.035519,0 -1.8750001,-0.839479 -1.8750001,-1.874999 0,-1.035518 0.8394811,-1.874999 1.8750001,-1.874999 1.0355183,0 1.8749998,0.839481 1.8749998,1.874999"
       style="fill:#1a73e8;fill-opacity:1;stroke-width:0.0180287"
       id="path2029" />
  </g>
</svg>
