<?xml version="1.0" encoding="UTF-8" standalone="no"?>
<!-- Created with Inkscape (http://www.inkscape.org/) -->

<svg
   width="96"
   height="96"
   viewBox="0 0 96 96"
   version="1.1"
   id="svg5"
   inkscape:version="1.2.1 (9c6d41e410, 2022-07-14)"
   sodipodi:docname="foursquare.svg"
   xmlns:inkscape="http://www.inkscape.org/namespaces/inkscape"
   xmlns:sodipodi="http://sodipodi.sourceforge.net/DTD/sodipodi-0.dtd"
   xmlns="http://www.w3.org/2000/svg"
   xmlns:svg="http://www.w3.org/2000/svg">
  <sodipodi:namedview
     id="namedview7"
     pagecolor="#ffffff"
     bordercolor="#000000"
     borderopacity="0.25"
     inkscape:showpageshadow="2"
     inkscape:pageopacity="0.0"
     inkscape:pagecheckerboard="0"
     inkscape:deskcolor="#d1d1d1"
     inkscape:document-units="px"
     showgrid="false"
     inkscape:zoom="8.3333333"
     inkscape:cx="47.94"
     inkscape:cy="48"
     inkscape:window-width="1920"
     inkscape:window-height="1006"
     inkscape:window-x="0"
     inkscape:window-y="0"
     inkscape:window-maximized="1"
     inkscape:current-layer="svg5"
     showguides="false" />
  <defs
     id="defs2" />
  <path
     d="M 39,7 C 11.696429,7 6,12.819451 6,40 v 18 c 0,27.180548 5.696429,33 33,33 H 57 C 84.30357,91 90,85.180548 90,58 V 40 C 90,12.819451 84.30357,7 57,7"
     style="opacity:0.2;fill:#000000;stroke-width:3;stroke-linecap:round;stroke-linejoin:round"
     id="path563" />
  <path
     id="path530"
     style="fill:#fa4778;fill-opacity:1;stroke-width:3.00002;stroke-linecap:round;stroke-linejoin:round"
     d="M 39,6 C 11.696456,6 6,11.819478 6,39 v 18 c 0,27.18052 5.696456,33 33,33 H 57 C 84.303546,90 90,84.18052 90,57 V 39 C 90,11.819478 84.303546,6 57,6 Z" />
  <path
     d="m 30.9991,20 c -1.656786,1.66e-4 -2.999834,1.343214 -3,3 v 50 c 0.0016,2.757556 3.409588,4.052692 5.242188,1.992188 L 48.346758,58 H 58.9991 c 1.44326,3.34e-4 2.68225,-1.02696 2.94922,-2.445312 l 3,-16 2.999998,-16 C 68.295598,21.707606 66.878548,19.999636 64.9991,20 Z m 3,6 h 27.38672 l -1.875,10 H 46.9991 c -3.943826,0.05578 -3.943826,5.944224 0,6 h 11.38672 l -1.875,10 H 46.9991 c -0.85703,2.8e-4 -1.673036,0.367054 -2.242186,1.007812 L 33.9991,65.109374 Z"
     style="color:#000000;fill:#ffffff;stroke-width:2;stroke-linecap:round;stroke-linejoin:round;-inkscape-stroke:none"
     id="path915" />
</svg>
