<?xml version="1.0" encoding="UTF-8" standalone="no"?>
<!-- Created with Inkscape (http://www.inkscape.org/) -->

<svg
   width="96"
   height="96"
   viewBox="0 0 96 96"
   version="1.1"
   id="svg5"
   inkscape:version="1.2.1 (9c6d41e410, 2022-07-14)"
   sodipodi:docname="github.svg"
   xmlns:inkscape="http://www.inkscape.org/namespaces/inkscape"
   xmlns:sodipodi="http://sodipodi.sourceforge.net/DTD/sodipodi-0.dtd"
   xmlns:xlink="http://www.w3.org/1999/xlink"
   xmlns="http://www.w3.org/2000/svg"
   xmlns:svg="http://www.w3.org/2000/svg">
  <sodipodi:namedview
     id="namedview7"
     pagecolor="#ffffff"
     bordercolor="#000000"
     borderopacity="0.25"
     inkscape:showpageshadow="2"
     inkscape:pageopacity="0.0"
     inkscape:pagecheckerboard="0"
     inkscape:deskcolor="#d1d1d1"
     inkscape:document-units="px"
     showgrid="false"
     inkscape:zoom="8.25"
     inkscape:cx="44.181818"
     inkscape:cy="48"
     inkscape:window-width="1920"
     inkscape:window-height="1004"
     inkscape:window-x="0"
     inkscape:window-y="0"
     inkscape:window-maximized="1"
     inkscape:current-layer="svg5"
     showguides="false" />
  <defs
     id="defs2">
    <linearGradient
       inkscape:collect="always"
       xlink:href="#linearGradient1768"
       id="linearGradient3500"
       x1="2"
       y1="2"
       x2="30"
       y2="30"
       gradientUnits="userSpaceOnUse"
       gradientTransform="scale(3)" />
    <linearGradient
       inkscape:collect="always"
       id="linearGradient1768">
      <stop
         style="stop-color:#333333;stop-opacity:1;"
         offset="0"
         id="stop1764" />
      <stop
         style="stop-color:#6a6a6a;stop-opacity:1;"
         offset="1"
         id="stop1766" />
    </linearGradient>
  </defs>
  <path
     id="path563"
     style="opacity:0.2;fill:#000000;stroke-width:3;stroke-linecap:round;stroke-linejoin:round"
     d="M 39,7 C 11.696456,7 6,12.819478 6,40 v 18 c 0,27.180522 5.696456,33 33,33 H 57 C 84.303544,91 90,85.180522 90,58 V 40 C 90,12.819478 84.303544,7 57,7 Z" />
  <path
     id="path530"
     style="fill:url(#linearGradient3500);fill-opacity:1.0;stroke-width:3;stroke-linecap:round;stroke-linejoin:round"
     d="M 39,6 C 11.696456,6 6,11.819478 6,39 v 18 c 0,27.180522 5.696456,33 33,33 H 57 C 84.303546,90 90,84.180522 90,57 V 39 C 90,11.819478 84.303546,6 57,6 Z" />
  <path
     d="m 68.730102,27.004948 c -1.278204,-0.0597 -4.879752,0.367202 -10.50879,4.2832 C 55.072254,30.338592 51.477542,29.99094 47.730102,30 c -3.428172,0.0084 -6.983126,0.28533 -10.438476,1.288148 -5.630842,-3.915784 -8.508624,-4.34057 -9.788086,-4.280274 -0.426586,0.0201 -0.632814,0.08496 -0.632814,0.08496 -2.140646,5.553144 -0.7863,9.661372 -0.380858,10.681642 C 23.97516,40.593228 22.499634,43.596128 22.499634,48 c 0,15.460958 11.018496,19.996476 19.747646,21.014646 -1.122206,1.008124 -1.828374,2.616996 -2.185544,5.222722 -2.239588,1.032872 -8.247306,3.560722 -11.753906,-2.604492 0,0 -2.228592,-3.875466 -6.174528,-4.160158 0,0 -3.836066,-0.04954 -0.266602,2.45215 0,0 2.730856,1.24163 4.519254,5.903322 0,0 2.6793,7.09563 13.614258,4.6582 V 90 H 55.999566 V 78 c 0,-3.762496 -0.08974,-7.768788 -1.499132,-9.014648 8.755548,-0.998194 18.9992,-5.484794 18.9992,-20.985352 0,-4.403872 -1.224722,-7.409734 -3.744142,-10.228452 0.403038,-1.02051 1.755804,-5.125568 -0.389646,-10.67871 0,0 -0.206728,-0.06798 -0.632812,-0.08786 z"
     style="fill:#ffffff;stroke-width:1.5"
     id="path403"
     sodipodi:nodetypes="ccccsccscccccccccscscccc" />
</svg>
