<?xml version="1.0" encoding="UTF-8" standalone="no"?>
<!-- Created with Inkscape (http://www.inkscape.org/) -->

<svg
   width="96"
   height="96"
   viewBox="0 0 96 96"
   version="1.1"
   id="svg5"
   inkscape:version="1.2.1 (9c6d41e410, 2022-07-14)"
   sodipodi:docname="gnome-todo.svg"
   xmlns:inkscape="http://www.inkscape.org/namespaces/inkscape"
   xmlns:sodipodi="http://sodipodi.sourceforge.net/DTD/sodipodi-0.dtd"
   xmlns:xlink="http://www.w3.org/1999/xlink"
   xmlns="http://www.w3.org/2000/svg"
   xmlns:svg="http://www.w3.org/2000/svg">
  <sodipodi:namedview
     id="namedview7"
     pagecolor="#ffffff"
     bordercolor="#000000"
     borderopacity="0.25"
     inkscape:showpageshadow="2"
     inkscape:pageopacity="0.0"
     inkscape:pagecheckerboard="0"
     inkscape:deskcolor="#d1d1d1"
     inkscape:document-units="px"
     showgrid="false"
     inkscape:zoom="8.2291667"
     inkscape:cx="48"
     inkscape:cy="48"
     inkscape:window-width="1920"
     inkscape:window-height="1011"
     inkscape:window-x="0"
     inkscape:window-y="0"
     inkscape:window-maximized="1"
     inkscape:current-layer="svg5" />
  <defs
     id="defs2">
    <linearGradient
       inkscape:collect="always"
       xlink:href="#linearGradient975"
       id="linearGradient4780"
       x1="30"
       y1="30"
       x2="2"
       y2="2"
       gradientUnits="userSpaceOnUse"
       gradientTransform="scale(3)" />
    <linearGradient
       inkscape:collect="always"
       id="linearGradient975">
      <stop
         style="stop-color:#6da7ff;stop-opacity:1;"
         offset="0"
         id="stop971" />
      <stop
         style="stop-color:#057ffa;stop-opacity:1;"
         offset="1"
         id="stop973" />
    </linearGradient>
  </defs>
  <path
     d="M 39,7 C 11.696428,7 6,12.819451 6,40 v 18 c 0,27.180548 5.696428,33 33,33 H 57 C 84.30357,91 90,85.180548 90,58 V 40 C 90,12.819451 84.30357,7 57,7"
     style="opacity:0.2;fill:#000000;stroke-width:3;stroke-linecap:round;stroke-linejoin:round"
     id="path563" />
  <path
     id="path530"
     style="fill:url(#linearGradient4780);fill-opacity:1;stroke-width:3;stroke-linecap:round;stroke-linejoin:round"
     d="M 39,6 C 11.696456,6 6,11.819478 6,39 v 18 c 0,27.180522 5.696456,33 33,33 H 57 C 84.303546,90 90,84.180522 90,57 V 39 C 90,11.819478 84.303546,6 57,6 Z" />
  <path
     id="rect291"
     style="opacity:0.5;fill:#ffffff;stroke-width:2;stroke-linecap:round"
     d="m 19,30 c -0.553998,0 -1,0.446002 -1,1 0,0.554 0.446002,1 1,1 h 58 c 0.554,0 1,-0.446 1,-1 0,-0.553998 -0.446,-1 -1,-1 z m 0,12 c -0.553998,0 -1,0.446 -1,1 0,0.554 0.446002,1 1,1 h 58 c 0.554,0 1,-0.446 1,-1 0,-0.554 -0.446,-1 -1,-1 z m 0,12 c -0.553998,0 -1,0.446 -1,1 0,0.554 0.446002,1 1,1 h 58 c 0.554,0 1,-0.446 1,-1 0,-0.554 -0.446,-1 -1,-1 z m 0,12 c -0.553998,0 -1,0.446 -1,1 0,0.554 0.446002,1 1,1 h 30 c 0.554,0 1,-0.446 1,-1 0,-0.554 -0.446,-1 -1,-1 z"
     sodipodi:nodetypes="ssssssssssssssssssssssssssss" />
  <path
     id="rect898"
     style="fill:#ffffff;stroke-width:4"
     d="m 22.443604,45.273248 c -0.783472,0.783472 -0.783472,2.044952 0,2.828428 L 40.58574,66.243812 c 0.09792,0.09792 0.2038,0.18628 0.315,0.25956 0.11088,0.07356 0.22768,0.13332 0.34804,0.18228 0.12036,0.04896 0.2442,0.08048 0.37016,0.10496 0.12592,0.0244 0.25336,0.0388 0.3812,0.0388 0.1278,1.2e-5 0.25524,-0.0144 0.38116,-0.0388 0.12596,-0.0244 0.24976,-0.056 0.37012,-0.10496 0.12036,-0.04896 0.23704,-0.10884 0.34804,-0.18228 0.111,-0.07344 0.21696,-0.16172 0.31492,-0.25964 l 33.455868,-33.4577 c 0.783476,-0.783472 0.783476,-2.044952 0,-2.828428 -0.783472,-0.783472 -2.044948,-0.783472 -2.828428,0 L 42.000112,62.001048 25.272188,45.273124 c -0.783476,-0.783476 -2.044956,-0.783472 -2.828428,-4e-6 z"
     sodipodi:nodetypes="ccccscssssccsccscc" />
</svg>
