<?xml version="1.0" encoding="UTF-8" standalone="no"?>
<!-- Created with Inkscape (http://www.inkscape.org/) -->

<svg
   width="96"
   height="96"
   viewBox="0 0 96 96"
   version="1.1"
   id="svg5"
   inkscape:version="1.2.1 (9c6d41e410, 2022-07-14)"
   sodipodi:docname="gnome-klotski.svg"
   xmlns:inkscape="http://www.inkscape.org/namespaces/inkscape"
   xmlns:sodipodi="http://sodipodi.sourceforge.net/DTD/sodipodi-0.dtd"
   xmlns:xlink="http://www.w3.org/1999/xlink"
   xmlns="http://www.w3.org/2000/svg"
   xmlns:svg="http://www.w3.org/2000/svg">
  <sodipodi:namedview
     id="namedview7"
     pagecolor="#ffffff"
     bordercolor="#000000"
     borderopacity="0.25"
     inkscape:showpageshadow="2"
     inkscape:pageopacity="0.0"
     inkscape:pagecheckerboard="0"
     inkscape:deskcolor="#d1d1d1"
     inkscape:document-units="px"
     showgrid="false"
     inkscape:zoom="8.625"
     inkscape:cx="48"
     inkscape:cy="48"
     inkscape:window-width="1920"
     inkscape:window-height="1008"
     inkscape:window-x="0"
     inkscape:window-y="0"
     inkscape:window-maximized="1"
     inkscape:current-layer="svg5"
     showguides="false" />
  <defs
     id="defs2">
    <linearGradient
       inkscape:collect="always"
       xlink:href="#linearGradient1606"
       id="linearGradient3500"
       x1="2"
       y1="2"
       x2="30"
       y2="30"
       gradientUnits="userSpaceOnUse"
       gradientTransform="scale(3)" />
    <linearGradient
       inkscape:collect="always"
       xlink:href="#linearGradient1511"
       id="linearGradient1525"
       x1="58"
       y1="58"
       x2="14.578623"
       y2="8.6725349"
       gradientUnits="userSpaceOnUse"
       gradientTransform="matrix(-1.5,0,0,1.5,96.999996,-1.000001)" />
    <linearGradient
       inkscape:collect="always"
       id="linearGradient3147">
      <stop
         style="stop-color:#41bbff;stop-opacity:1;"
         offset="0"
         id="stop3143" />
      <stop
         style="stop-color:#0091f9;stop-opacity:1;"
         offset="1"
         id="stop3145" />
    </linearGradient>
    <linearGradient
       inkscape:collect="always"
       xlink:href="#linearGradient3147"
       id="linearGradient1200"
       x1="13.333333"
       y1="13.333333"
       x2="13.333333"
       y2="2.6666663"
       gradientUnits="userSpaceOnUse"
       gradientTransform="matrix(5.9999998,0,0,5.9999998,-3e-7,2.15e-6)" />
    <linearGradient
       inkscape:collect="always"
       id="linearGradient1511">
      <stop
         style="stop-color:#ffde75;stop-opacity:1;"
         offset="0"
         id="stop1507" />
      <stop
         style="stop-color:#ffb251;stop-opacity:1;"
         offset="1"
         id="stop1509" />
    </linearGradient>
    <linearGradient
       inkscape:collect="always"
       id="linearGradient1606">
      <stop
         style="stop-color:#eaebed;stop-opacity:1;"
         offset="0"
         id="stop1602" />
      <stop
         style="stop-color:#f9fafa;stop-opacity:1;"
         offset="1"
         id="stop1604" />
    </linearGradient>
  </defs>
  <path
     d="m 39,7.0000001 c -27.303571,0 -33,5.8194509 -33,32.9999989 V 58 c 0,27.180547 5.696429,33.000001 33,33.000001 H 57 C 84.30357,91.000001 90,85.180547 90,58 V 39.999999 C 90,12.819451 84.30357,7.0000001 57,7.0000001"
     style="opacity:0.2;fill:#000000;stroke-width:3.00001;stroke-linecap:round;stroke-linejoin:round"
     id="path563" />
  <path
     id="path530"
     style="fill:url(#linearGradient3500);fill-opacity:1;stroke-width:3.00001;stroke-linecap:round;stroke-linejoin:round"
     d="M 39,6 C 11.696456,6 6,11.819478 6,39 v 18 c 0,27.180522 5.696456,33 33,33 H 57 C 84.303545,90 90,84.180522 90,57 V 39 C 90,11.819478 84.303545,6 57,6 Z" />
  <path
     id="rect686"
     style="fill:url(#linearGradient1525);fill-opacity:1;stroke-width:2.35715;stroke-linecap:round;stroke-linejoin:round"
     d="M 60.5,10 C 79.370379,10 86,15.445406 86,35.5 V 44 c 0,2.492998 -1.507002,4 -4.000001,4 H 48 V 14.000001 C 48,11.507002 49.507002,10 52,10 Z M 48,48 v 33.999999 c 0,2.493 -1.507002,4.000002 -4,4.000002 H 35.5 C 15.445406,86.000001 10,79.370379 10,60.5 V 52 c 0,-2.492998 1.507002,-4 4.000001,-4 z" />
  <path
     id="rect635"
     style="fill:url(#linearGradient1200);fill-opacity:1;stroke-width:6;stroke-linecap:round;stroke-linejoin:round;paint-order:stroke fill markers"
     d="m 22,16 c -3.323994,0 -6,2.676006 -6,6 v 14 c 0,3.324001 2.676006,6.000001 6,6.000001 h 14 c 3.323993,0 6.000001,-2.676001 6.000001,-6.000001 V 22 c 0,-3.323994 -2.676008,-6 -6.000001,-6 z m 38,37.999999 c -3.323994,0 -6.000001,2.676007 -6.000001,6.000001 v 14 c 0,3.323994 2.676007,6 6.000001,6 h 14 c 3.323994,0 6,-2.676006 6,-6 V 60 c 0,-3.323994 -2.676006,-6.000001 -6,-6.000001 z"
     sodipodi:nodetypes="ssssssssssssssssss" />
</svg>
