<?xml version="1.0" encoding="UTF-8" standalone="no"?>
<!-- Created with Inkscape (http://www.inkscape.org/) -->

<svg
   width="96"
   height="96"
   viewBox="0 0 96 96"
   version="1.1"
   id="svg5"
   inkscape:version="1.4.4 (dcaf3e7d9e, 2026-05-05)"
   sodipodi:docname="google-drive.svg"
   xmlns:inkscape="http://www.inkscape.org/namespaces/inkscape"
   xmlns:sodipodi="http://sodipodi.sourceforge.net/DTD/sodipodi-0.dtd"
   xmlns:xlink="http://www.w3.org/1999/xlink"
   xmlns="http://www.w3.org/2000/svg"
   xmlns:svg="http://www.w3.org/2000/svg">
  <sodipodi:namedview
     id="namedview7"
     pagecolor="#ffffff"
     bordercolor="#000000"
     borderopacity="0.25"
     inkscape:showpageshadow="2"
     inkscape:pageopacity="0.0"
     inkscape:pagecheckerboard="0"
     inkscape:deskcolor="#d1d1d1"
     inkscape:document-units="px"
     showgrid="false"
     inkscape:zoom="8.3541667"
     inkscape:cx="48"
     inkscape:cy="48"
     inkscape:window-width="1920"
     inkscape:window-height="1010"
     inkscape:window-x="0"
     inkscape:window-y="0"
     inkscape:window-maximized="1"
     inkscape:current-layer="svg5" />
  <defs
     id="defs2">
    <linearGradient
       inkscape:collect="always"
       xlink:href="#linearGradient13"
       id="linearGradient14"
       x1="27.921406"
       y1="4.5649314"
       x2="4.3621516"
       y2="14.928198"
       gradientUnits="userSpaceOnUse"
       gradientTransform="matrix(1.4998438,0,0,1.4862866,17.984437,20)" />
    <linearGradient
       id="linearGradient13"
       inkscape:collect="always">
      <stop
         style="stop-color:#0ebc5f;stop-opacity:1;"
         offset="0.55433369"
         id="stop13" />
      <stop
         style="stop-color:#78c9ff;stop-opacity:1;"
         offset="0.85000002"
         id="stop14" />
    </linearGradient>
    <linearGradient
       inkscape:collect="always"
       xlink:href="#linearGradient15"
       id="linearGradient16"
       x1="29.841557"
       y1="40.302322"
       x2="6.8733001"
       y2="27"
       gradientUnits="userSpaceOnUse"
       gradientTransform="matrix(1.4998438,0,0,1.4862866,39.075352,13.528729)" />
    <linearGradient
       id="linearGradient15"
       inkscape:collect="always">
      <stop
         style="stop-color:#ffe921;stop-opacity:1;"
         offset="0.08805338"
         id="stop15" />
      <stop
         style="stop-color:#fec700;stop-opacity:1;"
         offset="1"
         id="stop16" />
    </linearGradient>
    <linearGradient
       inkscape:collect="always"
       xlink:href="#linearGradient17"
       id="linearGradient18"
       x1="-5.2821426"
       y1="53.52346"
       x2="-29.530891"
       y2="38.855247"
       gradientUnits="userSpaceOnUse"
       gradientTransform="matrix(1.4998438,0,0,1.4862866,63.455505,-2.0702312)" />
    <linearGradient
       id="linearGradient17"
       inkscape:collect="always">
      <stop
         style="stop-color:#a9a8ff;stop-opacity:1;"
         offset="0.15268342"
         id="stop17" />
      <stop
         style="stop-color:#6d97ff;stop-opacity:1;"
         offset="0.32774994"
         id="stop19" />
      <stop
         style="stop-color:#3186ff;stop-opacity:1;"
         offset="0.48973903"
         id="stop18" />
    </linearGradient>
  </defs>
  <path
     d="M 39,7 C 11.696428,7 6,12.819451 6,40 v 18 c 0,27.180548 5.696428,33 33,33 H 57 C 84.30357,91 90,85.180548 90,58 V 40 C 90,12.819451 84.30357,7 57,7"
     style="opacity:0.2;fill:#000000;stroke-width:3;stroke-linecap:round;stroke-linejoin:round"
     id="path563" />
  <path
     d="M 39,6 C 11.696428,6 6,11.819451 6,39 v 18 c 0,27.180548 5.696428,33 33,33 H 57 C 84.30357,90 90,84.180548 90,57 V 39 C 90,11.819451 84.30357,6 57,6"
     style="fill:#fafafa;fill-opacity:1;stroke-width:3;stroke-linecap:round;stroke-linejoin:round"
     id="path530"
     sodipodi:nodetypes="cssssssc" />
  <path
     id="path1"
     style="fill:url(#linearGradient14);fill-opacity:1;stroke-width:1.49305"
     d="m 36.100448,26.784797 c 0,0 3.945464,-6.784797 11.883431,-6.784797 7.937966,0 11.878305,6.784797 11.878305,6.784797 l 4.709396,8.034531 -6.86193,11.75619 -33.182668,4.4e-5 z" />
  <path
     id="path2"
     style="fill:url(#linearGradient16);stroke-width:1.49305"
     d="m 64.57158,34.816792 -16.586164,28.416524 6.866471,11.759663 h 9.655245 c 0,0 7.455608,0.341773 11.424593,-6.470573 C 79.900672,61.710073 76.9365,55.996378 76.9365,55.996378 Z" />
  <path
     id="path3"
     style="fill:url(#linearGradient18);stroke-width:1.49305"
     d="m 31.389542,74.993855 c 0,0 -7.008184,0.458232 -11.399011,-6.539162 C 15.599704,61.457303 19.842796,54.63799 19.842796,54.63799 l 4.684186,-8.062428 H 38.252828 L 54.84081,74.993676 Z" />
</svg>
