<?xml version="1.0" encoding="UTF-8" standalone="no"?>
<!-- Created with Inkscape (http://www.inkscape.org/) -->

<svg
   width="96"
   height="96"
   viewBox="0 0 96 96"
   version="1.1"
   id="svg5"
   inkscape:version="1.2.2 (b0a8486541, 2022-12-01)"
   sodipodi:docname="htop.svg"
   xmlns:inkscape="http://www.inkscape.org/namespaces/inkscape"
   xmlns:sodipodi="http://sodipodi.sourceforge.net/DTD/sodipodi-0.dtd"
   xmlns:xlink="http://www.w3.org/1999/xlink"
   xmlns="http://www.w3.org/2000/svg"
   xmlns:svg="http://www.w3.org/2000/svg">
  <sodipodi:namedview
     id="namedview7"
     pagecolor="#ffffff"
     bordercolor="#000000"
     borderopacity="0.25"
     inkscape:showpageshadow="2"
     inkscape:pageopacity="0.0"
     inkscape:pagecheckerboard="0"
     inkscape:deskcolor="#d1d1d1"
     inkscape:document-units="px"
     showgrid="false"
     inkscape:zoom="8.2083333"
     inkscape:cx="48"
     inkscape:cy="48"
     inkscape:window-width="1920"
     inkscape:window-height="1011"
     inkscape:window-x="0"
     inkscape:window-y="0"
     inkscape:window-maximized="1"
     inkscape:current-layer="svg5"
     showguides="false" />
  <defs
     id="defs2">
    <linearGradient
       inkscape:collect="always"
       xlink:href="#4852"
       id="linearGradient3500"
       x1="2"
       y1="2"
       x2="30"
       y2="30"
       gradientUnits="userSpaceOnUse"
       gradientTransform="scale(3)" />
    <linearGradient
       inkscape:collect="always"
       id="4852">
      <stop
         style="stop-color:#272727;stop-opacity:1;"
         offset="0"
         id="stop14555" />
      <stop
         style="stop-color:#5d5d5d;stop-opacity:1;"
         offset="1"
         id="stop14557" />
    </linearGradient>
  </defs>
  <path
     d="M 39,7 C 11.696429,7 6,12.819451 6,40 v 18 c 0,27.180549 5.696429,33 33,33 H 57 C 84.30357,91 90,85.180549 90,58 V 40 C 90,12.819451 84.30357,7 57,7"
     style="opacity:0.2;fill:#000000;stroke-width:3;stroke-linecap:round;stroke-linejoin:round"
     id="path563" />
  <path
     id="path530"
     style="fill:url(#linearGradient3500);fill-opacity:1;stroke-width:3;stroke-linecap:round;stroke-linejoin:round"
     d="M 39,6 C 11.696456,6 6,11.819478 6,39 v 18 c 0,27.180522 5.696456,33 33,33 H 57 C 84.303546,90 90,84.180522 90,57 V 39 C 90,11.819478 84.303546,6 57,6 Z" />
  <path
     id="path1240"
     style="fill:#8bc34a;stroke-width:6"
     d="m 27,18 v 18 h 4.000001 V 18 Z m 6.999998,0 V 36 H 38 V 18 Z M 27,39 v 18 h 4.000001 V 39 Z m 6.999998,0 V 57 H 38 V 39 Z M 27,60 v 18 h 4.000001 V 60 Z m 6.999998,0 V 78 H 38 V 60 Z"
     sodipodi:nodetypes="cccccccccccccccccccccccccccccc" />
  <path
     d="M 42.000003,39 V 57 H 46 V 39 Z M 51,39 v 18 h 4 V 39 Z"
     style="fill:#ff9800;stroke-width:3"
     id="path1212"
     sodipodi:nodetypes="cccccccccc" />
  <path
     id="path1128"
     style="fill:#ff5722;stroke-width:3"
     d="m 58,18 v 18 h 3.999998 V 18 Z m 6.999998,0 V 36 H 69 V 18 Z M 58,39 v 18 h 3.999998 V 39 Z m 6.999998,0 V 57 H 69 V 39 Z M 58,60 v 18 h 3.999998 V 60 Z m 6.999998,0 V 78 H 69 V 60 Z"
     sodipodi:nodetypes="cccccccccccccccccccccccccccccc" />
  <path
     id="path1156"
     style="fill:#f9f9f9;stroke-width:3"
     d="m 18,18 v 18 h 6 V 33 H 21 V 21 h 3 v -3 z m 54,0 v 3 h 3 v 12 h -3 v 3 h 6 V 18 Z M 18,39 v 18 h 6 V 54 H 21 V 42 h 3 v -3 z m 54,0 v 3 h 3 v 12 h -3 v 3 h 6 V 39 Z M 18,60 v 18 h 6 V 75 H 21 V 63 h 3 v -3 z m 54,0 v 3 h 3 v 12 h -3 v 3 h 6 V 60 Z"
     sodipodi:nodetypes="cccccccccccccccccccccccccccccccccccccccccccccccccccccc" />
</svg>
