<?xml version="1.0" encoding="UTF-8" standalone="no"?>
<!-- Created with Inkscape (http://www.inkscape.org/) -->

<svg
   width="96"
   height="96"
   viewBox="0 0 96 96"
   version="1.1"
   id="svg5"
   inkscape:version="1.2.1 (9c6d41e410, 2022-07-14)"
   sodipodi:docname="internet-chat.svg"
   xmlns:inkscape="http://www.inkscape.org/namespaces/inkscape"
   xmlns:sodipodi="http://sodipodi.sourceforge.net/DTD/sodipodi-0.dtd"
   xmlns:xlink="http://www.w3.org/1999/xlink"
   xmlns="http://www.w3.org/2000/svg"
   xmlns:svg="http://www.w3.org/2000/svg">
  <sodipodi:namedview
     id="namedview7"
     pagecolor="#ffffff"
     bordercolor="#000000"
     borderopacity="0.25"
     inkscape:showpageshadow="2"
     inkscape:pageopacity="0.0"
     inkscape:pagecheckerboard="0"
     inkscape:deskcolor="#d1d1d1"
     inkscape:document-units="px"
     showgrid="false"
     inkscape:zoom="8.2708333"
     inkscape:cx="36.634761"
     inkscape:cy="48"
     inkscape:window-width="1920"
     inkscape:window-height="1006"
     inkscape:window-x="0"
     inkscape:window-y="0"
     inkscape:window-maximized="1"
     inkscape:current-layer="svg5" />
  <defs
     id="defs2">
    <linearGradient
       inkscape:collect="always"
       id="linearGradient868">
      <stop
         style="stop-color:#ffe32b;stop-opacity:1;"
         offset="0"
         id="stop864" />
      <stop
         style="stop-color:#ff9e1d;stop-opacity:1;"
         offset="1"
         id="stop866" />
    </linearGradient>
    <linearGradient
       inkscape:collect="always"
       xlink:href="#linearGradient868"
       id="linearGradient4780"
       x1="30"
       y1="30"
       x2="2"
       y2="2"
       gradientUnits="userSpaceOnUse"
       gradientTransform="scale(3)" />
  </defs>
  <path
     d="M 39,7 C 11.696429,7 6,12.819451 6,40 v 18 c 0,27.180549 5.696429,33 33,33 H 57 C 84.30357,91 90,85.180549 90,58 V 40 C 90,12.819451 84.30357,7 57,7"
     style="opacity:0.2;fill:#000000;stroke-width:3;stroke-linecap:round;stroke-linejoin:round"
     id="path563" />
  <path
     id="path530"
     style="fill:url(#linearGradient4780);fill-opacity:1;stroke-width:3;stroke-linecap:round;stroke-linejoin:round"
     d="M 39 6 C 11.696456 6 6 11.819478 6 39 L 6 57 C 6 84.180522 11.696456 90 39 90 L 57 90 C 84.303546 90 90 84.180522 90 57 L 90 39 C 90 11.819478 84.303546 6 57 6 L 39 6 z " />
  <path
     id="rect1798"
     style="fill:#ffffff;stroke-width:12;stroke-linecap:round;stroke-linejoin:round"
     d="m 27,24 c -3.323994,0 -6,2.676006 -6,6 v 44.25 c 0.0219,2.116128 2.161572,3.17403 3.621,1.374 L 36,63 h 33 c 3.323988,0 6,-2.676012 6,-6 V 30 c 0,-3.323994 -2.676012,-6 -6,-6 z m 6,12 h 30 v 3 H 33 Z m 0,9 h 30 v 3 H 33 Z"
     sodipodi:nodetypes="sccccssssscccccccccc" />
</svg>
