<?xml version="1.0" encoding="UTF-8" standalone="no"?>
<!-- Created with Inkscape (http://www.inkscape.org/) -->

<svg
   width="96"
   height="96"
   viewBox="0 0 96 96"
   version="1.1"
   id="svg5"
   inkscape:version="1.2.1 (9c6d41e410, 2022-07-14)"
   sodipodi:docname="kleopatra.svg"
   xmlns:inkscape="http://www.inkscape.org/namespaces/inkscape"
   xmlns:sodipodi="http://sodipodi.sourceforge.net/DTD/sodipodi-0.dtd"
   xmlns:xlink="http://www.w3.org/1999/xlink"
   xmlns="http://www.w3.org/2000/svg"
   xmlns:svg="http://www.w3.org/2000/svg">
  <sodipodi:namedview
     id="namedview7"
     pagecolor="#ffffff"
     bordercolor="#000000"
     borderopacity="0.25"
     inkscape:showpageshadow="2"
     inkscape:pageopacity="0.0"
     inkscape:pagecheckerboard="0"
     inkscape:deskcolor="#d1d1d1"
     inkscape:document-units="px"
     showgrid="false"
     inkscape:zoom="8.9166667"
     inkscape:cx="47.943925"
     inkscape:cy="48"
     inkscape:window-width="1920"
     inkscape:window-height="1014"
     inkscape:window-x="0"
     inkscape:window-y="32"
     inkscape:window-maximized="1"
     inkscape:current-layer="svg5" />
  <defs
     id="defs2">
    <linearGradient
       inkscape:collect="always"
       xlink:href="#linearGradient1142"
       id="linearGradient4780"
       x1="2"
       y1="2"
       x2="30"
       y2="30"
       gradientUnits="userSpaceOnUse"
       gradientTransform="scale(3)" />
    <linearGradient
       inkscape:collect="always"
       id="linearGradient1142">
      <stop
         style="stop-color:#da9925;stop-opacity:1;"
         offset="0"
         id="stop1138" />
      <stop
         style="stop-color:#e9b68c;stop-opacity:1;"
         offset="1"
         id="stop1140" />
    </linearGradient>
  </defs>
  <path
     d="M 39,7 C 11.696428,7 6,12.81945 6,40 v 18 c 0,27.180548 5.696428,33 33,33 H 57 C 84.30357,91 90,85.180548 90,58 V 40 C 90,12.81945 84.30357,7 57,7"
     style="opacity:0.2;fill:#000000;stroke-width:3;stroke-linecap:round;stroke-linejoin:round"
     id="path563" />
  <path
     id="path530"
     style="fill:url(#linearGradient4780);fill-opacity:1;stroke-width:3;stroke-linecap:round;stroke-linejoin:round"
     d="M 39,6 C 11.696456,6 6,11.819478 6,39 v 18 c 0,27.180526 5.696456,33 33,33 H 57 C 84.303548,90 90,84.180526 90,57 V 39 C 90,11.819478 84.303548,6 57,6 Z" />
  <path
     d="m 42.429576,26 c -5.288406,0 -10.857556,1.427704 -16.582032,4.246094 -4.659568,2.29409 -6.652574,4.185056 -5.55078,5.273438 0.388662,0.38394 0.12174,0.4654 6.648436,-2.046876 4.460376,-1.716898 9.9446,-3.16643 12.910156,-3.414062 4.579074,-0.382364 10.032864,0.806838 19.6875,4.289062 3.467006,1.250474 7.454104,2.563536 8.859376,2.917968 3.005448,0.758022 3.322382,0.640032 5.828124,0.648438 l 1.769532,0.004 v -1.48828 c 0,-1.695938 -0.205466,-1.85547 -2.371094,-1.85547 -4.828004,0 -6.030376,-0.7695 -13.296874,-3.949218 -7.783068,-3.405772 -12.499476,-4.625 -17.902344,-4.625 z m -3.15625,12.023438 c -0.80569,0.02918 -1.527124,0.10506 -2.10547,0.222656 -2.667444,0.54229 -6.238548,2.511946 -8.429686,4.511718 -3.396354,3.099732 -7.235286,8.894212 -6.859376,10.35547 0.16928,0.65802 0.347192,0.700836 3.339844,0.824218 1.737268,0.07164 5.141606,0.4622 7.808594,0.863282 l 5.046874,0.726562 v 2.039062 c -0.836512,3.739516 -0.23868,5.759182 -0.08984,7.121094 0.557468,4.929054 0.564872,5.463656 1.855468,5.285156 1.993692,-3.198782 2.223836,-9.331712 2.23828,-12.867188 l 2.031252,1.945314 c 5.573376,4.851844 7.216188,4.782298 11.996092,7.05078 3.953496,1.59043 7.3411,2.293308 11.160156,2.019532 2.347646,0 5.314298,-2.566306 5.3125,-5.535156 -9.66e-4,-2.289236 -0.65362,-3.530166 -2.242186,-4.265626 -2.920398,-1.352058 -6.160156,0.253206 -6.160156,3.253906 0,2.945108 2.87688,4.580538 4.785156,2.71875 0.796018,-0.776634 0.991058,-2.083378 0.42578,-2.871092 -0.250882,-0.34961 -0.27776,-0.291232 -0.1211,0.25 0.540646,1.867772 -0.93362,3.159998 -2.628906,2.304686 -1.77172,-0.89387 -1.435596,-3.765268 0.496094,-4.23828 0.954166,-0.233654 2.624388,0.582174 3.25,1.828124 0.337142,0.671406 0.351528,1.078572 0.0625,2.019532 -0.947958,3.086922 -5.209742,3.10182 -11.621094,0.05078 -1.554076,-0.739558 -3.636916,-1.85493 -4.628906,-2.480468 -1.70973,-1.078134 -3.793268,-1.98083 -6.777344,-4.539062 -1.580804,-1.355226 -1.814298,-1.171932 2.308594,-1.828126 1.185332,-0.18864 4.651244,-1.169042 7.69922,-2.179686 5.414884,-1.795446 5.620594,-2.636932 8.929686,-2.660158 1.862664,-0.0132 -1.230952,-0.12716 1.859376,0.004 l 5.78516,0.234282 v -2.976562 -2.972656 l -6.707032,-0.16406 C 57.93893,43.834534 62.49852,44.318682 52.843638,40.679692 51.000044,39.984832 49.035054,39.145308 47.745982,38.81641 45.45997,38.23314 41.69039,37.935912 39.273326,38.023442 Z m 10.953124,4.73828 c 0.11208,0 1.708456,0.88195 4.28125,1.957032 2.572796,1.07508 5.008604,2.033522 5.414064,2.132812 0.405472,0.0993 0.73828,0.28676 0.73828,0.414062 0,0.1273 -1.559848,0.987292 -3.464844,1.910158 -3.884918,1.882024 -6.191526,2.669734 -9.945312,2.851562 l -0.921876,0.03906 1,-0.765624 c 0.550436,-0.423238 1.382094,-1.403092 1.847658,-2.175782 0.738634,-1.225884 0.847656,-1.72044 0.847656,-3.882812 0,-1.362966 0.09104,-2.480472 0.203124,-2.480468 z m -16.765624,0.652344 c 0.461418,-0.0853 0.460518,0.613104 0.464844,2.007814 0.0086,2.744686 0.683048,4.238706 2.625,5.8125 l 1.26953,1.031248 -5.964844,-0.542968 c -3.171328,-0.295148 -5.636662,-0.599692 -5.722656,-0.683594 -0.30823,-0.300712 1.393694,-2.598494 3.88672,-4.933594 1.856242,-1.738654 2.97999,-2.606108 3.441406,-2.691406 z"
     style="fill:#482f00;stroke-width:2"
     id="path2297"
     sodipodi:nodetypes="cssssssccsssccscsscccccccccccsssssssscssscsccccccssssssssscccsssscccccss" />
</svg>
