<?xml version="1.0" encoding="UTF-8" standalone="no"?>
<!-- Created with Inkscape (http://www.inkscape.org/) -->

<svg
   width="96"
   height="96"
   viewBox="0 0 96 96"
   version="1.1"
   id="svg5"
   inkscape:version="1.2.1 (9c6d41e410, 2022-07-14)"
   sodipodi:docname="knights.svg"
   xmlns:inkscape="http://www.inkscape.org/namespaces/inkscape"
   xmlns:sodipodi="http://sodipodi.sourceforge.net/DTD/sodipodi-0.dtd"
   xmlns:xlink="http://www.w3.org/1999/xlink"
   xmlns="http://www.w3.org/2000/svg"
   xmlns:svg="http://www.w3.org/2000/svg">
  <sodipodi:namedview
     id="namedview7"
     pagecolor="#ffffff"
     bordercolor="#000000"
     borderopacity="0.25"
     inkscape:showpageshadow="2"
     inkscape:pageopacity="0.0"
     inkscape:pagecheckerboard="0"
     inkscape:deskcolor="#d1d1d1"
     inkscape:document-units="px"
     showgrid="false"
     inkscape:zoom="8.6041667"
     inkscape:cx="47.941889"
     inkscape:cy="48"
     inkscape:window-width="1920"
     inkscape:window-height="1006"
     inkscape:window-x="0"
     inkscape:window-y="0"
     inkscape:window-maximized="1"
     inkscape:current-layer="svg5"
     showguides="true" />
  <defs
     id="defs2">
    <linearGradient
       inkscape:collect="always"
       xlink:href="#4852"
       id="linearGradient3500"
       x1="2"
       y1="2"
       x2="30"
       y2="30"
       gradientUnits="userSpaceOnUse"
       gradientTransform="scale(3)" />
    <linearGradient
       inkscape:collect="always"
       id="4852">
      <stop
         style="stop-color:#272727;stop-opacity:1;"
         offset="0"
         id="stop14555" />
      <stop
         style="stop-color:#5d5d5d;stop-opacity:1;"
         offset="1"
         id="stop14557" />
    </linearGradient>
    <linearGradient
       inkscape:collect="always"
       id="linearGradient10775">
      <stop
         style="stop-color:#e1e1e1;stop-opacity:1;"
         offset="0"
         id="stop10771" />
      <stop
         style="stop-color:#eeeeee;stop-opacity:1;"
         offset="1"
         id="stop10773" />
    </linearGradient>
    <linearGradient
       inkscape:collect="always"
       xlink:href="#linearGradient10775"
       id="linearGradient11806"
       x1="2"
       y1="2"
       x2="30"
       y2="30"
       gradientUnits="userSpaceOnUse"
       gradientTransform="scale(3)" />
  </defs>
  <path
     d="M 39,7.0000002 C 11.696428,7.0000002 6,12.819451 6,40 v 18 c 0,27.18055 5.696428,33 33,33 H 57 C 84.30357,91 90,85.180548 90,58 V 40 C 90,12.819451 84.30357,7.0000002 57,7.0000002"
     style="opacity:0.2;fill:#000000;stroke-width:3;stroke-linecap:round;stroke-linejoin:round"
     id="path563" />
  <path
     id="path530"
     style="fill:url(#linearGradient3500);fill-opacity:1;stroke-width:3;stroke-linecap:round;stroke-linejoin:round"
     d="M 48,5.9999998 6,48 v 9 c 0,27.180522 5.696456,33 33,33 h 9 L 90,48 V 39 C 90,11.819478 84.303546,5.9999998 57,5.9999998 Z"
     sodipodi:nodetypes="ccssccssc" />
  <path
     d="m 26.002374,54.00004 -0.0048,2.755476 L 18,63.216122 l 1.368004,2.82995 3.944444,-1.093326 c 0.532596,0.69433 1.34256,1.09912 2.19946,1.099212 1.472548,-0.0018 2.383548,-1.26 2.488092,-2.778938 v -0.0012 2.774244 c 0,1.953976 -2.858932,1.84042 -4.343792,2.304798 -2.192026,0.68554 -3.69792,4.921814 -3.698208,7.285566 L 24,79.999572 h 8 L 36,76 V 64.77049 c 0,-4.730184 -2.707666,-8.3409 -7.280542,-8.3409 -0.04896,0.002 -0.09792,0.0044 -0.14688,0.0074 0.0072,-0.234436 -0.0144,-0.06848 -0.0645,-0.29725 C 28.23102,54.889498 27.242566,54.002384 26.002436,54 Z"
     style="fill:#f2f2f2;fill-opacity:1;stroke-width:2"
     id="path522"
     sodipodi:nodetypes="ccccccccssccccsccccc" />
  <path
     id="rect8005"
     style="opacity:1;fill:url(#linearGradient11806);fill-opacity:1;stroke-width:6;stroke-linecap:round;stroke-linejoin:round"
     d="M 39,5.9999998 C 11.696535,5.9999998 6,11.819559 6,39 v 9 H 48 V 5.9999998 Z M 48,48 v 42 h 9 c 27.303464,0 33,-5.81956 33,-33 v -9 z" />
</svg>
