<?xml version="1.0" encoding="UTF-8" standalone="no"?>
<!-- Created with Inkscape (http://www.inkscape.org/) -->

<svg
   width="96"
   height="96"
   viewBox="0 0 96 96"
   version="1.1"
   id="svg5"
   inkscape:version="1.4.4 (dcaf3e7d9e, 2026-05-05)"
   sodipodi:docname="mpv.svg"
   xmlns:inkscape="http://www.inkscape.org/namespaces/inkscape"
   xmlns:sodipodi="http://sodipodi.sourceforge.net/DTD/sodipodi-0.dtd"
   xmlns:xlink="http://www.w3.org/1999/xlink"
   xmlns="http://www.w3.org/2000/svg"
   xmlns:svg="http://www.w3.org/2000/svg">
  <sodipodi:namedview
     id="namedview7"
     pagecolor="#ffffff"
     bordercolor="#000000"
     borderopacity="0.25"
     inkscape:showpageshadow="2"
     inkscape:pageopacity="0.0"
     inkscape:pagecheckerboard="0"
     inkscape:deskcolor="#d1d1d1"
     inkscape:document-units="px"
     showgrid="false"
     inkscape:zoom="8.375"
     inkscape:cx="48"
     inkscape:cy="48"
     inkscape:window-width="1920"
     inkscape:window-height="1012"
     inkscape:window-x="0"
     inkscape:window-y="0"
     inkscape:window-maximized="1"
     inkscape:current-layer="svg5" />
  <defs
     id="defs2">
    <linearGradient
       inkscape:collect="always"
       id="linearGradient6304">
      <stop
         style="stop-color:#8d348e;stop-opacity:1;"
         offset="0"
         id="stop6300" />
      <stop
         style="stop-color:#c275c3;stop-opacity:1;"
         offset="1"
         id="stop6302" />
    </linearGradient>
    <linearGradient
       inkscape:collect="always"
       xlink:href="#linearGradient6304"
       id="linearGradient2"
       x1="2"
       y1="2"
       x2="30"
       y2="30"
       gradientUnits="userSpaceOnUse"
       gradientTransform="scale(3)" />
  </defs>
  <path
     id="path563"
     style="opacity:0.2;fill:#000000;stroke-width:3;stroke-linecap:round;stroke-linejoin:round"
     d="M 39,7 C 11.696456,7 6,12.819478 6,40 v 18 c 0,27.180522 5.696456,33 33,33 H 57 C 84.303543,91 90,85.180522 90,58 V 40 C 90,12.819478 84.303543,7 57,7 Z" />
  <path
     id="path530"
     style="fill:url(#linearGradient2);stroke-width:3;stroke-linecap:round;stroke-linejoin:round"
     d="M 39,6 C 11.696456,6 6,11.819478 6,39 v 18 c 0,27.180522 5.696456,33 33,33 H 57 C 84.303546,90 90,84.180522 90,57 V 39 C 90,11.819478 84.303546,6 57,6 Z" />
  <path
     id="path4648"
     style="fill:#ffffff;stroke-width:6;stroke-linejoin:round"
     d="M 48,18 C 31.431504,18 18,31.43151 18,48 18,64.568493 31.431504,78 48,78 64.568493,78 78,64.568493 78,48 78,31.43151 64.568493,18 48,18 Z m -9.20508,15.002928 c 0.490806,-0.018 1.003923,0.09159 1.485354,0.363282 L 61.49121,45.363282 c 2.013156,1.136139 2.013156,4.13436 0,5.270505 L 40.280274,62.630859 C 38.354532,63.717573 36.003291,62.270514 36,59.997069 V 36 c 0.0029,-1.705098 1.322496,-2.943063 2.79492,-2.997072 z" />
</svg>
