<?xml version="1.0" encoding="UTF-8" standalone="no"?>
<!-- Created with Inkscape (http://www.inkscape.org/) -->

<svg
   width="96"
   height="96"
   viewBox="0 0 96 96"
   version="1.1"
   id="svg5"
   inkscape:version="1.2.1 (9c6d41e410, 2022-07-14)"
   sodipodi:docname="nvidia.svg"
   xmlns:inkscape="http://www.inkscape.org/namespaces/inkscape"
   xmlns:sodipodi="http://sodipodi.sourceforge.net/DTD/sodipodi-0.dtd"
   xmlns:xlink="http://www.w3.org/1999/xlink"
   xmlns="http://www.w3.org/2000/svg"
   xmlns:svg="http://www.w3.org/2000/svg">
  <sodipodi:namedview
     id="namedview7"
     pagecolor="#ffffff"
     bordercolor="#000000"
     borderopacity="0.25"
     inkscape:showpageshadow="2"
     inkscape:pageopacity="0.0"
     inkscape:pagecheckerboard="0"
     inkscape:deskcolor="#d1d1d1"
     inkscape:document-units="px"
     showgrid="false"
     inkscape:zoom="8.25"
     inkscape:cx="47.939394"
     inkscape:cy="48"
     inkscape:window-width="1920"
     inkscape:window-height="1004"
     inkscape:window-x="0"
     inkscape:window-y="0"
     inkscape:window-maximized="1"
     inkscape:current-layer="svg5"
     showguides="false" />
  <defs
     id="defs2">
    <linearGradient
       inkscape:collect="always"
       id="linearGradient1768">
      <stop
         style="stop-color:#333333;stop-opacity:1;"
         offset="0"
         id="stop1764" />
      <stop
         style="stop-color:#6a6a6a;stop-opacity:1;"
         offset="1"
         id="stop1766" />
    </linearGradient>
    <linearGradient
       inkscape:collect="always"
       xlink:href="#linearGradient1768"
       id="linearGradient3500"
       x1="2"
       y1="2"
       x2="30"
       y2="30"
       gradientUnits="userSpaceOnUse"
       gradientTransform="scale(3)" />
    <linearGradient
       inkscape:collect="always"
       xlink:href="#linearGradient1270"
       id="linearGradient1272"
       x1="1"
       y1="3"
       x2="43"
       y2="45"
       gradientUnits="userSpaceOnUse"
       gradientTransform="matrix(2,0,0,2,4,0)" />
    <linearGradient
       inkscape:collect="always"
       id="linearGradient1270">
      <stop
         style="stop-color:#80d935;stop-opacity:1;"
         offset="0"
         id="stop1266" />
      <stop
         style="stop-color:#afd65f;stop-opacity:1;"
         offset="1"
         id="stop1268" />
    </linearGradient>
  </defs>
  <path
     d="M 39,7 C 11.696429,7 6,12.819451 6,40 v 18 c 0,27.180548 5.696429,33 33,33 H 57 C 84.30357,91 90,85.180548 90,58 V 40 C 90,12.819451 84.30357,7 57,7"
     style="opacity:0.2;fill:#000000;stroke-width:3;stroke-linecap:round;stroke-linejoin:round"
     id="path563" />
  <path
     id="path530"
     style="fill:url(#linearGradient3500);fill-opacity:1;stroke-width:3;stroke-linecap:round;stroke-linejoin:round"
     d="M 39,6 C 11.696456,6 6,11.819478 6,39 v 18 c 0,27.180522 5.696456,33 33,33 H 57 C 70.355658,90 90,63.700794 90,57 V 39 C 90,27.639472 67.776498,6 57,6 Z"
     sodipodi:nodetypes="sssssssss" />
  <path
     id="path353"
     style="fill:url(#linearGradient1272);fill-opacity:1;stroke-width:2"
     d="m 44.007812,6 v 26.539062 c 0.37567,-0.0288 0.622272,-0.05354 1,-0.0664 14.549052,-0.490352 24.027344,11.933594 24.027344,11.933594 0,0 -10.88734,13.238282 -22.230468,13.238282 -1.039586,0 -1.88277,-0.09582 -2.796876,-0.257814 v 3.53125 c 0.781682,0.0992 1.462888,0.15626 2.308594,0.15626 10.555532,0 18.19051,-5.389308 25.582032,-11.76953 1.225492,0.981474 6.24208,3.36882 7.273438,4.414062 -7.027938,5.883954 -23.405592,10.628906 -32.691408,10.628906 -0.895076,0 -1.62772,-0.05512 -2.472656,-0.13672 V 90 H 57 C 84.303518,90 90,84.180492 90,57 V 39 C 90,11.819505 84.303518,6 57,6 Z m 0,58.210938 v -3.29297 c -12.917548,-1.625076 -17.46875,-15.86328 -17.46875,-15.86328 0,0 5.91503,-8.53472 17.46875,-9.41797 V 32.539062 C 31.210602,33.56682 20,44.40625 20,44.40625 c 0,0 6.405316,18.14335 24.007812,19.804688 z m 0,-28.57422 v 3.82422 c 0.684486,-0.07328 1.252014,-0.12526 1.98047,-0.125 6.701634,0 10.679686,5.214844 10.679686,5.214844 l -5.449218,4.59375 c -2.44867,-4.081972 -3.137964,-5.88285 -7.210938,-6.375 v 11.601562 c 0.923106,0.310368 1.820864,0.492188 2.964844,0.492188 7.948982,0 15.363282,-10.29297 15.363282,-10.29297 0,0 -6.865932,-9.3208 -17.328126,-8.992188 -0.382612,0.012 -0.628186,0.03262 -1,0.0586 z m 0,18.734376 C 38.503898,52.5218 36.585938,46.09375 36.585938,46.09375 c 0,0 3.320162,-3.814568 7.40625,-3.324218 h 0.0156 v -3.308594 c -7.78519,0.842106 -12.601562,6.035156 -12.601562,6.035156 0,0 2.838768,10.150098 12.601562,11.890624 z" />
</svg>
