<?xml version="1.0" encoding="UTF-8" standalone="no"?>
<!-- Created with Inkscape (http://www.inkscape.org/) -->

<svg
   width="96"
   height="96"
   viewBox="0 0 96 96"
   version="1.1"
   id="svg5"
   inkscape:version="1.2.1 (9c6d41e410, 2022-07-14)"
   sodipodi:docname="org.gnome.Connections.svg"
   xmlns:inkscape="http://www.inkscape.org/namespaces/inkscape"
   xmlns:sodipodi="http://sodipodi.sourceforge.net/DTD/sodipodi-0.dtd"
   xmlns:xlink="http://www.w3.org/1999/xlink"
   xmlns="http://www.w3.org/2000/svg"
   xmlns:svg="http://www.w3.org/2000/svg">
  <sodipodi:namedview
     id="namedview7"
     pagecolor="#ffffff"
     bordercolor="#000000"
     borderopacity="0.25"
     inkscape:showpageshadow="2"
     inkscape:pageopacity="0.0"
     inkscape:pagecheckerboard="0"
     inkscape:deskcolor="#d1d1d1"
     inkscape:document-units="px"
     showgrid="false"
     inkscape:zoom="8.2291667"
     inkscape:cx="48"
     inkscape:cy="48"
     inkscape:window-width="1920"
     inkscape:window-height="1011"
     inkscape:window-x="0"
     inkscape:window-y="0"
     inkscape:window-maximized="1"
     inkscape:current-layer="svg5" />
  <defs
     id="defs2">
    <linearGradient
       inkscape:collect="always"
       xlink:href="#linearGradient3147"
       id="linearGradient4780"
       x1="30"
       y1="30"
       x2="2"
       y2="2"
       gradientUnits="userSpaceOnUse"
       gradientTransform="scale(3)" />
    <linearGradient
       inkscape:collect="always"
       id="linearGradient3147">
      <stop
         style="stop-color:#41bbff;stop-opacity:1;"
         offset="0"
         id="stop3143" />
      <stop
         style="stop-color:#0091f9;stop-opacity:1;"
         offset="1"
         id="stop3145" />
    </linearGradient>
  </defs>
  <path
     d="M 39,7 C 11.696428,7 6,12.819451 6,40 v 18 c 0,27.180548 5.696428,33 33,33 H 57 C 84.30357,91 90,85.180548 90,58 V 40 C 90,12.819451 84.30357,7 57,7"
     style="opacity:0.2;fill:#000000;stroke-width:3;stroke-linecap:round;stroke-linejoin:round"
     id="path563" />
  <path
     id="path530"
     style="fill:url(#linearGradient4780);fill-opacity:1;stroke-width:3;stroke-linecap:round;stroke-linejoin:round"
     d="M 39,6 C 11.696456,6 6,11.819478 6,39 v 18 c 0,27.180522 5.696456,33 33,33 H 57 C 84.303546,90 90,84.180522 90,57 V 39 C 90,11.819478 84.303546,6 57,6 Z" />
  <path
     id="path457"
     style="fill:#98d6fe;fill-opacity:1;stroke-width:2"
     d="m 29.039062,14 c -2.88143,0 -5.21875,3.011438 -5.21875,5.957032 L 20,19.996094 V 20 A 2,2 0 0 0 19.996,20 2,2 0 0 0 18,22 v 2 H 14 A 8,8 0 0 0 6.2695312,30.289062 C 6.0858176,32.921398 6,35.801328 6,39 V 57 C 6,74.65522 8.4107356,83.290478 17.578126,87.179688 A 12,12 0 0 0 22,78 V 61.429688 C 22.000092,58.484092 18.877526,56.09375 15.996094,56.09375 13.114662,56.09375 10,54.108358 10,51.160156 c 0,-2.945592 3.114662,-5.33203 5.996094,-5.332032 2.881432,0 6.003906,-2.38774 6.003906,-5.335936 0,-2.945596 1.548254,-5.332032 4.429688,-5.332032 C 29.311116,35.160156 32,32.772418 32,29.824218 v -7.921874 c 0,-1.51577 0.849276,-2.746094 2.332032,-2.746094 1.487848,-0.09114 2.624326,-1.39699 2.535156,-2.917968 C 36.274848,14.632658 34.810874,14.064094 33.234376,14 c 0.76513,0 -3.234136,0.17652 -4.195314,0 z M 64.640624,26.828124 C 62.077656,26.828124 60,28.954178 60,31.574218 v 2.023438 C 60,36.2177 57.918438,38.34375 55.355468,38.34375 52.27277,38.578146 49.770708,41.322616 50,44.476562 v 8.285156 C 50,55.45208 52.325274,58 54.957032,58 57.76764,58 58,60.29437 58,62.507812 v 5.8125 C 58,71.271118 60.113472,74 63,74 c 2.88398,-0.0026 5.002546,-2.731486 5,-5.679688 v -9.003906 c 0,-2.161664 0.841806,-4.23553 2.339844,-5.761718 1.495492,-1.526186 3.526044,-2.377606 5.640624,-2.375 l 2.777344,0.0156 c 1.23053,0.0026 2.413848,-0.494704 3.285156,-1.382812 0.868762,-0.888098 1.359376,-2.09363 1.359376,-3.351562 v -14.88672 c 0,-2.62004 -2.079014,-4.746092 -4.644532,-4.746094 z" />
  <path
     d="m 72.000782,42 v 28.226562 c 0,1.487208 -0.758354,2.905824 -2.003906,4.023438 -1.245552,1.117614 -2.945156,1.75 -4,1.75 h -22.125 c -1.583804,0 -3.90717,-0.242204 -5.578126,-0.757812 -0.835478,-0.257804 -1.495356,-0.592792 -1.804686,-0.828126 -0.309332,-0.235334 -0.220836,-0.219116 -0.207032,-0.13282 -0.397348,-2.484222 -0.437922,-4.37118 -0.5,-6.015626 -0.06208,-1.644444 0.0138,-3.217824 -1.050782,-4.976562 -1.064608,-1.758736 -3.111886,-2.61106 -5.17578,-2.929688 C 27.491576,60.040748 24.93378,60 21.2,60 v 6 c 3.666214,0 6.110148,0.08414 7.4375,0.289062 1.327354,0.204918 1.060548,0.273932 0.960938,0.10938 -0.09962,-0.16456 0.12832,0.526288 0.1875,2.09375 0.05918,1.567462 0.11156,3.841874 0.57422,6.734374 0.276276,1.727286 1.354404,3.092362 2.496092,3.960938 1.14169,0.868576 2.39246,1.391572 3.66797,1.785156 C 39.075238,81.759826 41.765318,82 43.871876,82 h 22.125 c 2.948952,0 5.752418,-1.261428 8.007812,-3.285156 2.255394,-2.023728 3.996094,-4.993748 3.996094,-8.488282 V 42 Z"
     style="color:#000000;opacity:0.3;fill:#000000;stroke-width:2;-inkscape-stroke:none"
     id="path793"
     sodipodi:nodetypes="csssssscscsccsssssssssscc" />
  <path
     d="m 18,55.998 c -3.314086,0 -6,2.689822 -6,6.003906 0,3.314088 2.685914,6 6,6 3.314088,0 6,-2.685912 6,-6 C 24,58.687822 21.314088,55.998 18,55.998 Z m 57,0.004 c -1.658206,0 -3,1.341798 -3,3 0,1.658202 1.341794,3 3,3 1.658202,0 3,-1.341798 3,-3 0,-1.658202 -1.341798,-3 -3,-3 z m -46,4 c -1.658206,0 -3,1.341798 -3,3 0,1.658202 1.341794,3 3,3 1.658202,0 3,-1.341798 3,-3 0,-1.658202 -1.341798,-3 -3,-3 z m 46,8 c -1.658206,0 -3,1.341798 -3,3 0,1.658202 1.341794,3 3,3 1.658202,0 3,-1.341798 3,-3 0,-1.658202 -1.341798,-3 -3,-3 z m -42,2 c -1.658206,0 -3,1.341798 -3,3 0,1.658202 1.341794,3 3,3 1.658202,0 3,-1.341798 3,-3 0,-1.658202 -1.341798,-3 -3,-3 z m 10,6 c -1.658206,0 -3,1.341798 -3,3 0,1.658202 1.341794,3 3,3 1.658202,0 3,-1.341798 3,-3 0,-1.658202 -1.341798,-3 -3,-3 z m 12,0 c -1.658206,0 -3,1.341798 -3,3 0,1.658202 1.341794,3 3,3 1.658202,0 3,-1.341798 3,-3 0,-1.658202 -1.341798,-3 -3,-3 z m 12,0 c -1.658206,0 -3,1.341798 -3,3 0,1.658202 1.341794,3 3,3 1.658202,0 3,-1.341798 3,-3 0,-1.658202 -1.341798,-3 -3,-3 z"
     style="fill:#ffffff;stroke-width:2"
     id="path823" />
  <rect
     style="fill:#3a325a;fill-opacity:1;stroke-width:2"
     id="rect675"
     width="52"
     height="44"
     x="38"
     y="6"
     ry="6" />
  <path
     d="m 53,16 7.997558,23.509572 5.218018,-4.37779 3.391846,3.98579 c 0.883544,1.039198 2.462648,1.181266 3.523438,0.315704 1.058104,-0.86819 1.203124,-2.409888 0.319576,-3.449086 L 70.012938,31.94315 75,27.754786 Z"
     style="fill:#ffffff;stroke-width:2"
     id="path3196" />
</svg>
