<?xml version="1.0" encoding="UTF-8" standalone="no"?>
<!-- Created with Inkscape (http://www.inkscape.org/) -->

<svg
   width="96"
   height="96"
   viewBox="0 0 96 96"
   version="1.1"
   id="svg5"
   inkscape:version="1.3 (0e150ed6c4, 2023-07-21)"
   sodipodi:docname="org.kde.merkuro.calendar.svg"
   xmlns:inkscape="http://www.inkscape.org/namespaces/inkscape"
   xmlns:sodipodi="http://sodipodi.sourceforge.net/DTD/sodipodi-0.dtd"
   xmlns:xlink="http://www.w3.org/1999/xlink"
   xmlns="http://www.w3.org/2000/svg"
   xmlns:svg="http://www.w3.org/2000/svg">
  <sodipodi:namedview
     id="namedview7"
     pagecolor="#ffffff"
     bordercolor="#000000"
     borderopacity="0.25"
     inkscape:showpageshadow="2"
     inkscape:pageopacity="0.0"
     inkscape:pagecheckerboard="0"
     inkscape:deskcolor="#d1d1d1"
     inkscape:document-units="px"
     showgrid="false"
     inkscape:zoom="8.1666667"
     inkscape:cx="48"
     inkscape:cy="48"
     inkscape:window-width="1920"
     inkscape:window-height="1004"
     inkscape:window-x="0"
     inkscape:window-y="0"
     inkscape:window-maximized="1"
     inkscape:current-layer="svg5"
     showguides="false" />
  <defs
     id="defs2">
    <linearGradient
       inkscape:collect="always"
       xlink:href="#linearGradient1428"
       id="linearGradient4780"
       x1="30"
       y1="30"
       x2="2"
       y2="2"
       gradientUnits="userSpaceOnUse"
       gradientTransform="scale(3)" />
    <linearGradient
       inkscape:collect="always"
       id="linearGradient1428">
      <stop
         style="stop-color:#ffbb75;stop-opacity:1;"
         offset="0"
         id="stop1424" />
      <stop
         style="stop-color:#f68200;stop-opacity:1;"
         offset="1"
         id="stop1426" />
    </linearGradient>
  </defs>
  <path
     d="M 39,7 C 11.696428,7 6,12.819451 6,40 v 18 c 0,27.180548 5.696428,33 33,33 H 57 C 84.30357,91 90,85.180548 90,58 V 40 C 90,12.819451 84.30357,7 57,7"
     style="opacity:0.2;fill:#000000;stroke-width:3;stroke-linecap:round;stroke-linejoin:round"
     id="path563" />
  <path
     id="path530"
     style="fill:url(#linearGradient4780);fill-opacity:1;stroke-width:3;stroke-linecap:round;stroke-linejoin:round"
     d="M 39,6 C 11.696456,6 6,11.819478 6,39 v 18 c 0,27.180522 5.696456,33 33,33 H 57 C 84.303546,90 90,84.180522 90,57 V 39 C 90,11.819478 84.303546,6 57,6 Z" />
  <rect
     style="opacity:0.6;fill:#ffffff;stroke-width:1.5"
     width="12"
     height="12"
     x="51"
     y="35"
     ry="3"
     id="rect3" />
  <rect
     style="opacity:0.6;fill:#ffffff;stroke-width:1.5"
     width="12"
     height="12"
     x="69"
     y="53"
     ry="3"
     id="rect4" />
  <path
     style="color:#000000;fill:#ffffff;stroke-width:1.5;stroke-linecap:round;stroke-linejoin:round;-inkscape-stroke:none"
     d="m 64.016601,53.398437 a 1.5,1.5 0 0 0 -2.118164,0.08496 l -6.336913,6.864257 -1.907228,-2.302734 a 1.5,1.5 0 0 0 -2.109375,-0.199218 1.5,1.5 0 0 0 -0.199218,2.109375 l 3,3.626952 a 1.50015,1.50015 0 0 0 2.255859,0.06153 l 7.5,-8.126953 a 1.5,1.5 0 0 0 -0.08496,-2.118164 z"
     id="path6" />
  <rect
     style="fill:#ffffff;stroke-width:1.5"
     width="12"
     height="12"
     x="69"
     y="35"
     ry="3"
     id="rect7" />
  <rect
     style="fill:#ffffff;stroke-width:1.5"
     width="12"
     height="12"
     x="33"
     y="35"
     ry="3"
     id="rect8" />
  <rect
     style="fill:#ffffff;stroke-width:1.5"
     width="12"
     height="12"
     x="33"
     y="53"
     ry="3"
     id="rect9" />
  <rect
     style="fill:#ffffff;stroke-width:1.5"
     width="12"
     height="12"
     x="15"
     y="53"
     ry="3"
     id="rect10" />
</svg>
