<?xml version="1.0" encoding="UTF-8" standalone="no"?>
<!-- Created with Inkscape (http://www.inkscape.org/) -->

<svg
   width="96"
   height="96"
   viewBox="0 0 96 96"
   version="1.1"
   id="svg5"
   inkscape:version="1.2.1 (9c6d41e410, 2022-07-14)"
   sodipodi:docname="org.gnome.font-viewer.svg"
   xmlns:inkscape="http://www.inkscape.org/namespaces/inkscape"
   xmlns:sodipodi="http://sodipodi.sourceforge.net/DTD/sodipodi-0.dtd"
   xmlns:xlink="http://www.w3.org/1999/xlink"
   xmlns="http://www.w3.org/2000/svg"
   xmlns:svg="http://www.w3.org/2000/svg">
  <sodipodi:namedview
     id="namedview7"
     pagecolor="#ffffff"
     bordercolor="#000000"
     borderopacity="0.25"
     inkscape:showpageshadow="2"
     inkscape:pageopacity="0.0"
     inkscape:pagecheckerboard="0"
     inkscape:deskcolor="#d1d1d1"
     inkscape:document-units="px"
     showgrid="false"
     inkscape:zoom="8.625"
     inkscape:cx="47.942029"
     inkscape:cy="48"
     inkscape:window-width="1920"
     inkscape:window-height="1008"
     inkscape:window-x="0"
     inkscape:window-y="0"
     inkscape:window-maximized="1"
     inkscape:current-layer="svg5" />
  <defs
     id="defs2">
    <linearGradient
       inkscape:collect="always"
       xlink:href="#linearGradient1173"
       id="linearGradient4780"
       x1="30"
       y1="30"
       x2="2"
       y2="2"
       gradientUnits="userSpaceOnUse"
       gradientTransform="scale(3)" />
    <linearGradient
       inkscape:collect="always"
       id="linearGradient1173">
      <stop
         style="stop-color:#b369e3;stop-opacity:1;"
         offset="0"
         id="stop1169" />
      <stop
         style="stop-color:#a52ed9;stop-opacity:1;"
         offset="1"
         id="stop1171" />
    </linearGradient>
  </defs>
  <path
     d="M 39,7 C 11.696428,7 6,12.819452 6,40 v 18 c 0,27.18055 5.696428,33 33,33 H 57 C 84.30357,91 90,85.180548 90,58 V 40 C 90,12.819452 84.30357,7 57,7"
     style="opacity:0.2;fill:#000000;stroke-width:3;stroke-linecap:round;stroke-linejoin:round"
     id="path563" />
  <path
     id="path530"
     style="fill:url(#linearGradient4780);fill-opacity:1;stroke-width:3;stroke-linecap:round;stroke-linejoin:round"
     d="M 39,6 C 11.696456,6 6,11.819478 6,39 v 18 c 0,27.180522 5.696456,33 33,33 H 57 C 84.303546,90 90,84.180522 90,57 V 39 C 90,11.819478 84.303546,6 57,6 Z" />
  <path
     d="m 31.285968,24.00001 c -3.561576,0 -6.367112,1.876206 -6.367112,4.2891 0,0.880676 0.723612,1.648552 1.632866,1.648552 0.909256,0 1.703174,-0.766644 1.703174,-1.609174 0,-0.15176 -0.03634,-0.344558 -0.07504,-0.613232 -0.07504,-0.344558 -0.11454,-0.649738 -0.11454,-0.918002 0,-1.034086 1.211022,-1.879076 2.726578,-1.879076 1.856428,0 3.183576,1.111612 3.183576,3.179786 v 3.046882 c -5.218378,1.55667 -6.78469,1.970548 -8.413922,3.4259 -0.833418,0.765824 -1.363092,2.068174 -1.363092,3.331966 0,2.412732 1.669204,4.097788 3.980418,4.097788 1.66723,0 3.524446,-0.8052 5.835856,-2.796668 0.1896,2.029616 1.220108,2.796668 2.773582,2.796668 1.288044,0 2.083938,-0.45859 3.409902,-1.913942 V 39.09062 c -0.64422,0.536118 -1.099638,0.726444 -1.66802,0.726444 -0.871336,0 -1.136766,-0.533656 -1.136766,-2.218712 v -7.468764 c 0,-1.991468 -0.1896,-3.10431 -0.757976,-4.023544 -0.833416,-1.378646 -3.116032,-2.1055 -5.351486,-2.1055 z m 29.726142,0 c -2.80518,0 -5.641802,0.723572 -7.566286,2.043152 l 1.82404,3.421798 c 1.272244,-0.97379 3.199374,-1.570204 5.058528,-1.570204 2.740006,0 4.269466,2.005002 4.269466,4.109396 l -5.062438,-0.02348 c -5.349354,-0.0242 -7.53504,1.99639 -7.53504,4.980516 0,2.920958 2.233636,5.03905 6.343648,5.03905 2.57688,0 5.307882,-0.734236 6.25383,-2.273266 V 41.80909 H 70.00014 V 31.664092 c -3.16e-4,-5.119856 -3.638598,-7.664096 -8.988188,-7.664096 z m -27.034796,8.062512 v 4.843758 c 0,1.14894 -0.1896,1.571846 -0.984302,2.031256 -0.947172,0.536118 -2.274716,0.840068 -3.070214,0.840068 -1.325964,0 -2.386892,-1.30235 -2.386892,-2.949258 v -0.15176 c 0.03792,-2.29788 2.008102,-3.043194 6.441328,-4.613314 z m 26.11294,3.03909 4.507762,0.02342 v 0.97666 c 3.16e-4,1.639528 -3.073374,2.683458 -4.769478,2.683458 -1.79402,0 -2.871142,-0.817918 -2.871142,-2.042742 0,-1.13089 0.751656,-1.655524 3.132622,-1.640756 z M 27.809432,54.00009 c -2.060238,-0.02862 -2.060238,3.020632 0,2.992328 h 7.52726 c 0.0084,7.8e-4 0.217242,0.02532 0.445148,0.14768 0.23304,0.12716 0.371286,0.13946 0.409994,0.703064 l 0.18564,4.472662 c -0.351536,-0.13126 -0.585762,-0.1887 -0.585762,-0.1887 l -0.17774,-0.04512 H 28.57112 c -3.300886,0 -4.49212,3.269618 -4.49212,3.269618 L 24,65.581328 v 1.140736 c 0,2.269986 1.089368,3.837728 2.238378,4.542966 1.148614,0.705526 2.331988,0.69527 2.331988,0.69527 h 5.781152 l 2.585964,-1.648548 0.0156,0.237908 c 0.06714,2.046844 3.215174,1.865132 3.03901,-0.17638 l -0.76153,-12.726608 v -0.0078 C 39.123922,56.093278 38.119076,54.983716 37.24616,54.51405 36.37364,54.043974 35.523632,54.002134 35.523632,54.002134 l -0.0474,-0.0038 z m 34.00738,0 c -0.578258,0.012 -1.27975,0.233806 -2.105664,0.667786 -0.943618,0.495098 -1.90027,1.240002 -2.871142,2.230608 -0.970476,0.962716 -1.874992,2.132166 -2.710778,3.507938 -0.80893,1.375364 -1.403776,2.900036 -1.781382,4.57812 -0.296238,1.23795 -0.401304,2.311006 -0.319936,3.218754 0.079,0.880266 0.268588,1.609992 0.566408,2.187536 0.296238,0.550066 0.658438,0.947948 1.089762,1.195292 0.431322,0.274828 0.837366,0.41388 1.214972,0.41388 0.808928,-0.05332 1.616672,-0.233806 2.4256,-0.535296 0.701098,-0.274826 1.444458,-0.703474 2.226528,-1.28143 0.78207,-0.60503 1.493436,-1.458222 2.140422,-2.55876 -0.02698,0.742852 0.0134,1.36429 0.12244,1.859388 0.1343,0.495098 0.27254,0.89257 0.406044,1.19529 0.16194,0.356866 0.363386,0.63169 0.605512,0.82407 0.24094,0.16408 0.528094,0.278928 0.851586,0.332254 0.323888,0.08204 0.661204,0.11074 1.011556,0.08204 0.379186,-0.02752 0.73941,-0.09844 1.089762,-0.205104 0.351536,-0.11074 0.66002,-0.250216 0.929794,-0.41388 0.404464,-0.274826 0.902934,-0.742032 1.496202,-1.402436 0.620126,-0.687886 1.243016,-1.428688 1.863142,-2.226506 0.646984,-0.825302 1.26632,-1.635834 1.859192,-2.433652 0.593266,-0.8253 1.079492,-1.516058 1.457098,-2.06653 0.323886,-0.440134 0.512294,-0.82202 0.566408,-1.152222 0.079,-0.328152 0.0632,-0.581238 -0.04344,-0.746134 -0.10664,-0.16408 -0.26859,-0.2174 -0.484252,-0.16408 -0.217242,0.02752 -0.432902,0.16818 -0.648564,0.41388 -0.16194,0.221502 -0.430928,0.563602 -0.808534,1.031216 -0.351536,0.467616 -0.752446,1.004142 -1.211022,1.609582 -0.458578,0.605438 -0.956654,1.238362 -1.496202,1.898356 -0.512294,0.63292 -1.014716,1.223182 -1.500152,1.773246 -0.485436,0.52258 -0.943618,0.962714 -1.37494,1.3204 -0.431324,0.32815 -0.78128,0.495918 -1.05066,0.495918 -0.323886,0 -0.580626,-0.06972 -0.76943,-0.205102 -0.16194,-0.16408 -0.280438,-0.36917 -0.363384,-0.617336 -0.079,-0.246114 -0.1343,-0.509864 -0.16194,-0.7851 0,-0.303542 0.0122,-0.576728 0.03906,-0.82407 0.079,-0.412652 0.1501,-0.760082 0.201442,-1.03532 0.0553,-0.274826 0.0948,-0.506582 0.12244,-0.69937 0.0553,-0.221504 0.0948,-0.42865 0.12244,-0.621028 0.0553,-0.2215 0.1106,-0.451618 0.1659,-0.699372 0.268588,-1.265434 0.48267,-2.295828 0.644614,-3.093646 0.16194,-0.797818 0.28044,-1.43074 0.363386,-1.898354 0.079,-0.467616 0.12244,-0.784282 0.12244,-0.949178 0,-0.19278 -0.0122,-0.315846 -0.03906,-0.36917 -0.0553,-0.02752 -0.16194,-0.04102 -0.323888,-0.04102 -0.1343,0 -0.335736,0.0154 -0.605512,0.04102 -0.24094,0.02756 -0.552188,0.08204 -0.929794,0.16408 0.566408,-0.880266 0.779306,-1.58292 0.644616,-2.105502 -0.10664,-0.550062 -0.347586,-0.963124 -0.726376,-1.23836 -0.458182,-0.303538 -1.049474,-0.52258 -1.777432,-0.659994 -0.079,-0.0068 -0.158,-0.0096 -0.24094,-0.0078 z m -0.710972,2.589932 c 0.1027,0.0056 0.1896,0.03972 0.264638,0.10254 0.079,0.11074 0.1343,0.26252 0.16194,0.45326 0.02698,0.16408 0.015,0.401984 -0.03902,0.703066 -0.02698,0.274824 -0.1501,0.63005 -0.367336,1.070182 0.217242,-0.05332 0.432904,-0.09434 0.648564,-0.12306 0.217242,-0.02756 0.391036,-0.06972 0.527306,-0.12306 0.16194,-0.05332 0.312038,-0.09844 0.445146,-0.12306 0.10664,-0.02748 0.1185,0.19278 0.03906,0.659994 -0.0553,0.440132 -0.1501,1.003732 -0.284388,1.691618 -0.1343,0.687888 -0.296238,1.405718 -0.484252,2.148572 -0.1896,0.742852 -0.347586,1.387258 -0.48425,1.937732 -0.02698,0.13948 -0.14614,0.356864 -0.363386,0.659994 -0.1896,0.30354 -0.445938,0.634564 -0.76943,0.992248 -0.296238,0.356864 -0.646194,0.701012 -1.050658,1.031216 -0.379186,0.32815 -0.767456,0.604208 -1.17192,0.824068 -0.379184,0.19278 -0.75521,0.303542 -1.132816,0.332254 -0.379184,0 -0.714922,-0.15588 -1.011554,-0.45695 -0.16194,-0.16408 -0.26859,-0.508636 -0.323888,-1.031216 -0.0553,-0.550064 -0.04344,-1.182984 0.03906,-1.898354 0.10664,-0.71537 0.284388,-1.471758 0.527304,-2.269578 0.24094,-0.825298 0.564434,-1.593174 0.968898,-2.308542 0.970476,-1.73305 1.822852,-2.918086 2.55081,-3.550596 0.566408,-0.495098 1.00405,-0.734238 1.312534,-0.718654 z m -32.53472,8.48829 h 6.585854 c 0.08294,0.02334 0.39933,0.10254 0.78918,0.360964 0.425398,0.27893 0.667128,0.51725 0.679768,1.01563 l 0.10664,0.417982 -3.277188,2.097706 h -4.882758 c 0,0 -0.339688,-0.0122 -0.714922,-0.24201 C 27.482458,68.498878 27.04916,68.196568 27.04916,66.72481 v -0.57016 c 0.079,-0.229706 0.40723,-1.074286 1.523456,-1.074286 z"
     style="fill:#ffffff;stroke-width:1.99999"
     id="path603" />
</svg>
