<?xml version="1.0" encoding="UTF-8" standalone="no"?>
<!-- Created with Inkscape (http://www.inkscape.org/) -->

<svg
   width="96"
   height="96"
   viewBox="0 0 96 96"
   version="1.1"
   id="svg5"
   inkscape:version="1.2.2 (1:1.2.2+202305151914+b0a8486541)"
   sodipodi:docname="owncloud.svg"
   xmlns:inkscape="http://www.inkscape.org/namespaces/inkscape"
   xmlns:sodipodi="http://sodipodi.sourceforge.net/DTD/sodipodi-0.dtd"
   xmlns="http://www.w3.org/2000/svg"
   xmlns:svg="http://www.w3.org/2000/svg">
  <sodipodi:namedview
     id="namedview7"
     pagecolor="#ffffff"
     bordercolor="#000000"
     borderopacity="0.25"
     inkscape:showpageshadow="2"
     inkscape:pageopacity="0.0"
     inkscape:pagecheckerboard="0"
     inkscape:deskcolor="#d1d1d1"
     inkscape:document-units="px"
     showgrid="false"
     inkscape:zoom="8.4375"
     inkscape:cx="47.940741"
     inkscape:cy="48"
     inkscape:window-width="1920"
     inkscape:window-height="1012"
     inkscape:window-x="0"
     inkscape:window-y="0"
     inkscape:window-maximized="1"
     inkscape:current-layer="svg5"
     showguides="false" />
  <defs
     id="defs2" />
  <path
     d="M 39,7 C 11.696429,7 6,12.819451 6,40 v 18 c 0,27.180548 5.696429,33 33,33 H 57 C 84.30357,91 90,85.180548 90,58 V 40 C 90,12.819451 84.30357,7 57,7"
     style="opacity:0.2;fill:#000000;stroke-width:3;stroke-linecap:round;stroke-linejoin:round"
     id="path563" />
  <path
     id="path530"
     style="fill:#394e6f;fill-opacity:1;stroke-width:3.00002;stroke-linecap:round;stroke-linejoin:round"
     d="M 39,6 C 11.696456,6 6,11.819478 6,39 v 18 c 0,27.18052 5.696456,33 33,33 H 57 C 84.303546,90 90,84.18052 90,57 V 39 C 90,11.819478 84.303546,6 57,6 Z" />
  <path
     style="color:#000000;fill:#ffffff;stroke-width:2;stroke-linecap:round;stroke-linejoin:round;-inkscape-stroke:none"
     d="m 67,46 a 9,9 0 0 1 -9,9 9,9 0 0 1 -9,-9 9,9 0 0 1 9,-9 9,9 0 0 1 9,9 z"
     id="path308" />
  <path
     style="color:#000000;fill:#394e6f;stroke-width:2;stroke-linecap:round;stroke-linejoin:round;-inkscape-stroke:none"
     d="m 58,36 c -5.510998,0 -10,4.489002 -10,10 0,5.510998 4.489002,10 10,10 5.510998,0 10,-4.489002 10,-10 0,-5.510998 -4.489002,-10 -10,-10 z m 0,2 c 4.430118,0 8,3.569882 8,8 0,4.430118 -3.569882,8 -8,8 -4.430118,0 -8,-3.569882 -8,-8 0,-4.430118 3.569882,-8 8,-8 z"
     id="path310" />
  <path
     style="color:#000000;fill:#ffffff;stroke-width:2;stroke-linecap:round;stroke-linejoin:round;-inkscape-stroke:none"
     d="m 81,62 a 5,5 0 0 1 -5,5 5,5 0 0 1 -5,-5 5,5 0 0 1 5,-5 5,5 0 0 1 5,5 z"
     id="path314" />
  <path
     style="color:#000000;fill:#394e6f;stroke-width:2;stroke-linecap:round;stroke-linejoin:round;-inkscape-stroke:none"
     d="m 76,56 c -3.30186,0 -6,2.69814 -6,6 0,3.30186 2.69814,6 6,6 3.30186,0 6,-2.69814 6,-6 0,-3.30186 -2.69814,-6 -6,-6 z m 0,2 c 2.220982,0 4,1.779018 4,4 0,2.220982 -1.779018,4 -4,4 -2.220982,0 -4,-1.779018 -4,-4 0,-2.220982 1.779018,-4 4,-4 z"
     id="path316" />
  <path
     style="color:#000000;fill:#ffffff;stroke-width:2;stroke-linecap:round;stroke-linejoin:round;-inkscape-stroke:none"
     d="M 75,57 A 10,10 0 0 1 65,67 10,10 0 0 1 55,57 10,10 0 0 1 65,47 10,10 0 0 1 75,57 Z"
     id="path320" />
  <path
     style="color:#000000;fill:#394e6f;stroke-width:2;stroke-linecap:round;stroke-linejoin:round;-inkscape-stroke:none"
     d="m 65,46 c -6.063282,0 -11,4.936718 -11,11 0,6.063282 4.936718,11 11,11 6.063282,0 11,-4.936718 11,-11 0,-6.063282 -4.936718,-11 -11,-11 z m 0,2 c 4.982402,0 9,4.017598 9,9 0,4.982402 -4.017598,9 -9,9 -4.982402,0 -9,-4.017598 -9,-9 0,-4.982402 4.017598,-9 9,-9 z"
     id="path322" />
  <path
     style="color:#000000;fill:#ffffff;stroke-width:2;stroke-linecap:round;stroke-linejoin:round;-inkscape-stroke:none"
     d="m 37,58 a 9,9 0 0 1 -9,9 9,9 0 0 1 -9,-9 9,9 0 0 1 9,-9 9,9 0 0 1 9,9 z"
     id="path326" />
  <path
     style="color:#000000;fill:#394e6f;stroke-width:2;stroke-linecap:round;stroke-linejoin:round;-inkscape-stroke:none"
     d="m 28,48 c -5.510998,0 -10,4.489002 -10,10 0,5.510998 4.489002,10 10,10 5.510998,0 10,-4.489002 10,-10 0,-5.510998 -4.489002,-10 -10,-10 z m 0,2 c 4.430118,0 8,3.569882 8,8 0,4.430118 -3.569882,8 -8,8 -4.430118,0 -8,-3.569882 -8,-8 0,-4.430118 3.569882,-8 8,-8 z"
     id="path328" />
  <path
     style="color:#000000;fill:#ffffff;stroke-width:2;stroke-linecap:round;stroke-linejoin:round;-inkscape-stroke:none"
     d="m 43,39 a 6,6 0 0 1 -6,6 6,6 0 0 1 -6,-6 6,6 0 0 1 6,-6 6,6 0 0 1 6,6 z"
     id="path332" />
  <path
     style="color:#000000;fill:#394e6f;stroke-width:2;stroke-linecap:round;stroke-linejoin:round;-inkscape-stroke:none"
     d="m 37,32 c -3.854144,0 -7,3.145856 -7,7 0,3.854144 3.145856,7 7,7 3.854144,0 7,-3.145856 7,-7 0,-3.854144 -3.145856,-7 -7,-7 z m 0,2 c 2.773266,0 5,2.226734 5,5 0,2.773266 -2.226734,5 -5,5 -2.773266,0 -5,-2.226734 -5,-5 0,-2.773266 2.226734,-5 5,-5 z"
     id="path334" />
  <path
     style="color:#000000;fill:#ffffff;stroke-width:2;stroke-linecap:round;stroke-linejoin:round;-inkscape-stroke:none"
     d="M 49,50 A 11,11 0 0 1 38,61 11,11 0 0 1 27,50 11,11 0 0 1 38,39 11,11 0 0 1 49,50 Z"
     id="path338" />
  <path
     style="color:#000000;fill:#394e6f;stroke-width:2;stroke-linecap:round;stroke-linejoin:round;-inkscape-stroke:none"
     d="m 38,38 c -6.615566,0 -12,5.384434 -12,12 0,6.615566 5.384434,12 12,12 6.615566,0 12,-5.384434 12,-12 0,-6.615566 -5.384434,-12 -12,-12 z m 0,2 c 5.534686,0 10,4.465314 10,10 0,5.534686 -4.465314,10 -10,10 -5.534686,0 -10,-4.465314 -10,-10 0,-5.534686 4.465314,-10 10,-10 z"
     id="path340" />
  <path
     style="color:#000000;fill:#ffffff;stroke-width:2;stroke-linecap:round;stroke-linejoin:round;-inkscape-stroke:none"
     d="m 42,62 a 5,5 0 0 1 -5,5 5,5 0 0 1 -5,-5 5,5 0 0 1 5,-5 5,5 0 0 1 5,5 z"
     id="path344" />
  <path
     style="color:#000000;fill:#394e6f;stroke-width:2;stroke-linecap:round;stroke-linejoin:round;-inkscape-stroke:none"
     d="m 37,56 c -3.30186,0 -6,2.69814 -6,6 0,3.30186 2.69814,6 6,6 3.30186,0 6,-2.69814 6,-6 0,-3.30186 -2.69814,-6 -6,-6 z m 0,2 c 2.220982,0 4,1.779018 4,4 0,2.220982 -1.779018,4 -4,4 -2.220982,0 -4,-1.779018 -4,-4 0,-2.220982 1.779018,-4 4,-4 z"
     id="path346" />
  <path
     style="color:#000000;fill:#ffffff;stroke-width:2;stroke-linecap:round;stroke-linejoin:round;-inkscape-stroke:none"
     d="M 57,41 A 10,10 0 0 1 47,51 10,10 0 0 1 37,41 10,10 0 0 1 47,31 10,10 0 0 1 57,41 Z"
     id="path350" />
  <path
     style="color:#000000;fill:#394e6f;stroke-width:2;stroke-linecap:round;stroke-linejoin:round;-inkscape-stroke:none"
     d="m 47,30 c -6.063282,0 -11,4.936718 -11,11 0,6.063282 4.936718,11 11,11 6.063282,0 11,-4.936718 11,-11 0,-6.063282 -4.936718,-11 -11,-11 z m 0,2 c 4.982402,0 9,4.017598 9,9 0,4.982402 -4.017598,9 -9,9 -4.982402,0 -9,-4.017598 -9,-9 0,-4.982402 4.017598,-9 9,-9 z"
     id="path352" />
  <path
     style="color:#000000;fill:#ffffff;stroke-width:2;stroke-linecap:round;stroke-linejoin:round;-inkscape-stroke:none"
     d="m 62.991998,54.004002 a 12.996,12.996 0 0 1 -12.996,12.996 12.996,12.996 0 0 1 -12.996,-12.996 12.996,12.996 0 0 1 12.996,-12.996 12.996,12.996 0 0 1 12.996,12.996 z"
     id="path356" />
  <path
     style="color:#000000;fill:#394e6f;stroke-width:2;stroke-linecap:round;stroke-linejoin:round;-inkscape-stroke:none"
     d="M 49.996094,40.007812 C 42.278168,40.007812 36,46.285982 36,54.003906 36,61.721832 42.278168,68 49.996094,68 c 7.717924,0 13.996094,-6.278168 13.996094,-13.996094 0,-7.717924 -6.27817,-13.996094 -13.996094,-13.996094 z m 0,2 c 6.637046,0 11.996094,5.359048 11.996094,11.996094 C 61.992188,60.640952 56.63314,66 49.996094,66 43.359048,66 38,60.640952 38,54.003906 38,47.36686 43.359048,42.007812 49.996094,42.007812 Z"
     id="path358" />
</svg>
