<?xml version="1.0" encoding="UTF-8" standalone="no"?>
<!-- Created with Inkscape (http://www.inkscape.org/) -->

<svg
   width="96"
   height="96"
   viewBox="0 0 96 96"
   version="1.1"
   id="svg5"
   inkscape:version="1.2.1 (9c6d41e410, 2022-07-14)"
   sodipodi:docname="pattern-documentation.svg"
   xmlns:inkscape="http://www.inkscape.org/namespaces/inkscape"
   xmlns:sodipodi="http://sodipodi.sourceforge.net/DTD/sodipodi-0.dtd"
   xmlns:xlink="http://www.w3.org/1999/xlink"
   xmlns="http://www.w3.org/2000/svg"
   xmlns:svg="http://www.w3.org/2000/svg">
  <sodipodi:namedview
     id="namedview7"
     pagecolor="#ffffff"
     bordercolor="#000000"
     borderopacity="0.25"
     inkscape:showpageshadow="2"
     inkscape:pageopacity="0.0"
     inkscape:pagecheckerboard="0"
     inkscape:deskcolor="#d1d1d1"
     inkscape:document-units="px"
     showgrid="false"
     inkscape:zoom="8.3333333"
     inkscape:cx="47.94"
     inkscape:cy="48"
     inkscape:window-width="1920"
     inkscape:window-height="1011"
     inkscape:window-x="0"
     inkscape:window-y="32"
     inkscape:window-maximized="1"
     inkscape:current-layer="svg5" />
  <defs
     id="defs2">
    <linearGradient
       inkscape:collect="always"
       id="linearGradient920">
      <stop
         style="stop-color:#82bf39;stop-opacity:1;"
         offset="0"
         id="stop916" />
      <stop
         style="stop-color:#a6ce5f;stop-opacity:1;"
         offset="1"
         id="stop918" />
    </linearGradient>
    <linearGradient
       inkscape:collect="always"
       xlink:href="#linearGradient920"
       id="linearGradient4780"
       x1="2"
       y1="2"
       x2="30"
       y2="30"
       gradientUnits="userSpaceOnUse"
       gradientTransform="scale(3)" />
  </defs>
  <path
     d="M 39,7 C 11.696429,7 6,12.819451 6,40 v 18 c 0,27.180549 5.696429,33 33,33 H 57 C 84.30357,91 90,85.180549 90,58 V 40 C 90,12.819451 84.30357,7 57,7"
     style="opacity:0.2;fill:#000000;stroke-width:3;stroke-linecap:round;stroke-linejoin:round"
     id="path563" />
  <path
     id="path530"
     style="fill:url(#linearGradient4780);fill-opacity:1;stroke-width:3;stroke-linecap:round;stroke-linejoin:round"
     d="M 39,6 C 11.696456,6 6,11.819478 6,39 v 18 c 0,27.180522 5.696456,33 33,33 H 57 C 84.303546,90 90,84.180522 90,57 V 39 C 90,11.819478 84.303546,6 57,6 Z" />
  <path
     id="rect1477"
     style="opacity:0.5;fill:#000000;stroke-width:6;stroke-linecap:round;stroke-linejoin:round"
     d="M 24,7.0019532 C 9.4751619,9.5757339 6,17.774282 6,39 v 18 c 0,21.22572 3.4751619,29.424267 18,31.998048 z" />
  <path
     id="path1182"
     style="opacity:1;fill:#ffffff;stroke-width:2.66667"
     d="m 57,24 a 24,24 0 0 0 -19.371093,9.925782 c 4.872777,1.133733 8.833797,2.417841 9.087891,2.501952 0.0057,-0.318144 0.05274,-3.1875 0.05274,-3.1875 l 0.04101,-0.08788 0.11133,-0.03516 c 0.6474,0.0936 14.44749,2.13684 20.261718,5.525391 0.719832,0.423432 1.077702,0.862623 1.523439,1.318359 1.606818,1.661424 3.740715,8.578134 3.966795,10.007814 l -0.09375,0.14649 c -0.08292,0.03066 -0.286059,0.176763 -0.550779,0.357423 -1.356432,0.948597 -4.529631,3.167841 -8.595705,2.806641 -3.656871,-0.32604 -8.424018,-2.426727 -14.179686,-6.216798 0.25338,0.5976 1.446534,3.436944 1.646484,3.914064 l 0.08204,0.09962 c 0.83349,0.430557 8.829681,4.506627 12.796875,4.423827 3.201594,-0.06363 6.624435,-1.62303 7.992186,-2.443359 l 0.433593,-0.08203 c 0.12159,0.09543 0.101895,0.279603 0.06445,0.451173 -0.08406,0.391941 -0.273648,1.113258 -0.404298,1.447266 l -0.105465,0.275388 c -0.15564,0.413544 -0.306807,0.816099 -0.597657,1.054689 -0.80664,0.733872 -2.097834,1.313394 -4.113282,2.197266 -3.117114,1.362114 -8.167179,2.218707 -12.861327,2.191407 -1.678554,-0.0408 -3.306378,-0.22938 -4.734375,-0.39258 -2.558082,-0.290502 -8.122725,0.395766 -11.419923,2.408205 A 24,24 0 0 0 57,72 24,24 0 0 0 81,48 24,24 0 0 0 57,24 Z M 36.867186,34.945314 a 24,24 0 0 0 -0.11133,0.181638 c 0.03826,-0.06001 0.07256,-0.12198 0.11133,-0.181638 z m -1.658202,3.005859 a 24,24 0 0 0 -0.07617,0.16992 c 0.02565,-0.0566 0.05008,-0.113565 0.07617,-0.16992 z m 26.847657,1.007811 c -1.469661,0.0222 -2.851641,0.574971 -3.931641,1.587891 -1.156512,1.071285 -1.81929,2.536485 -1.875,4.113282 -0.10563,3.250314 2.449662,5.995506 5.701173,6.117186 1.583757,0.05115 3.083127,-0.513342 4.236327,-1.59375 1.149768,-1.074741 1.811181,-2.532783 1.869141,-4.10742 0.1113,-3.254874 -2.443899,-6.000069 -5.701173,-6.117189 -0.09864,-0.0033 -0.200877,-0.0014 -0.298827,0 z m -0.152343,1.746093 c 0.13554,-0.0081 0.260946,-0.0051 0.398436,0 2.271066,0.07956 4.060455,1.98402 3.984375,4.259766 -0.03411,1.09524 -0.503433,2.117883 -1.306641,2.871093 -0.80541,0.747552 -1.849893,1.135644 -2.953125,1.101564 -2.269938,-0.08412 -4.053396,-1.999266 -3.978516,-4.271484 0.03522,-1.099704 0.507972,-2.115378 1.306641,-2.865234 0.7008,-0.657093 1.600158,-1.038015 2.54883,-1.095705 z m 1.078125,2.056641 c -1.012224,0 -1.828125,0.549756 -1.828125,1.224609 0,0.670296 0.815853,1.224609 1.828125,1.224609 1.008906,0 1.822263,-0.553161 1.822263,-1.224609 3e-6,-0.674829 -0.813405,-1.224609 -1.822263,-1.224609 z" />
</svg>
