<?xml version="1.0" encoding="UTF-8" standalone="no"?>
<!-- Created with Inkscape (http://www.inkscape.org/) -->

<svg
   width="96"
   height="96"
   viewBox="0 0 96 96"
   version="1.1"
   id="svg5"
   inkscape:version="1.4.4 (dcaf3e7d9e, 2026-05-05)"
   sodipodi:docname="preferences-desktop-screensaver.svg"
   xmlns:inkscape="http://www.inkscape.org/namespaces/inkscape"
   xmlns:sodipodi="http://sodipodi.sourceforge.net/DTD/sodipodi-0.dtd"
   xmlns:xlink="http://www.w3.org/1999/xlink"
   xmlns="http://www.w3.org/2000/svg"
   xmlns:svg="http://www.w3.org/2000/svg">
  <sodipodi:namedview
     id="namedview7"
     pagecolor="#ffffff"
     bordercolor="#000000"
     borderopacity="0.25"
     inkscape:showpageshadow="2"
     inkscape:pageopacity="0.0"
     inkscape:pagecheckerboard="0"
     inkscape:deskcolor="#d1d1d1"
     inkscape:document-units="px"
     showgrid="false"
     inkscape:zoom="8.375"
     inkscape:cx="48"
     inkscape:cy="48"
     inkscape:window-width="1920"
     inkscape:window-height="1012"
     inkscape:window-x="0"
     inkscape:window-y="0"
     inkscape:window-maximized="1"
     inkscape:current-layer="svg5"
     showguides="false" />
  <defs
     id="defs2">
    <linearGradient
       inkscape:collect="always"
       xlink:href="#linearGradient3"
       id="linearGradient3500"
       x1="2"
       y1="2"
       x2="30"
       y2="30"
       gradientUnits="userSpaceOnUse"
       gradientTransform="scale(3)" />
    <linearGradient
       inkscape:collect="always"
       id="linearGradient3">
      <stop
         style="stop-color:#5b25b4;stop-opacity:1;"
         offset="0"
         id="stop1" />
      <stop
         style="stop-color:#bb3fee;stop-opacity:1;"
         offset="1"
         id="stop2" />
    </linearGradient>
  </defs>
  <path
     d="M 39,7 C 11.696429,7 6,12.819451 6,40 v 18 c 0,27.180548 5.696429,33 33,33 H 57 C 84.30357,91 90,85.180548 90,58 V 40 C 90,12.819451 84.30357,7 57,7"
     style="opacity:0.2;fill:#000000;stroke-width:3;stroke-linecap:round;stroke-linejoin:round"
     id="path563" />
  <path
     id="path530"
     style="fill:url(#linearGradient3500);fill-opacity:1;stroke-width:3.00002;stroke-linecap:round;stroke-linejoin:round"
     d="M 39,6 C 11.696456,6 6,11.819478 6,39 v 18 c 0,27.18052 5.696456,33 33,33 H 57 C 84.303546,90 90,84.18052 90,57 V 39 C 90,11.819478 84.303546,6 57,6 Z" />
  <path
     d="m 24.851562,21.148438 -2.484374,7.51953 -7.515626,2.48047 7.515626,2.484374 2.484374,7.515626 2.48047,-7.515626 7.51953,-2.484374 -7.51953,-2.48047 z m 18.5,1.11328 -1.492186,4.507814 -4.507814,1.492186 L 41.859376,29.75 43.351562,34.261718 44.839844,29.75 49.351562,28.261718 44.839844,26.769532 Z M 58.5,28.5 57.753906,30.753906 55.5,31.5 57.753906,32.246094 58.5,34.5 59.246094,32.246094 61.5,31.5 59.246094,30.753906 Z m 4.710938,9.101562 c 2.354696,2.853314 3.785156,6.499892 3.785156,10.488282 0,9.116168 -7.391262,16.503906 -16.507812,16.503906 -3.988468,0 -7.63487,-1.426474 -10.488282,-3.78125 1.995942,8.507796 9.626016,14.789062 18.742188,14.789062 C 69.377974,75.601562 78,66.979534 78,56.34375 78,47.227274 71.718618,39.597394 63.210938,37.601562 Z"
     style="fill:#ffffff;stroke-width:3.01586"
     id="path1" />
</svg>
