<?xml version="1.0" encoding="UTF-8" standalone="no"?>
<!-- Created with Inkscape (http://www.inkscape.org/) -->

<svg
   width="96"
   height="96"
   viewBox="0 0 96 96"
   version="1.1"
   id="svg5"
   inkscape:version="1.2.1 (9c6d41e410, 2022-07-14)"
   sodipodi:docname="qt.svg"
   xmlns:inkscape="http://www.inkscape.org/namespaces/inkscape"
   xmlns:sodipodi="http://sodipodi.sourceforge.net/DTD/sodipodi-0.dtd"
   xmlns:xlink="http://www.w3.org/1999/xlink"
   xmlns="http://www.w3.org/2000/svg"
   xmlns:svg="http://www.w3.org/2000/svg">
  <sodipodi:namedview
     id="namedview7"
     pagecolor="#ffffff"
     bordercolor="#000000"
     borderopacity="0.25"
     inkscape:showpageshadow="2"
     inkscape:pageopacity="0.0"
     inkscape:pagecheckerboard="0"
     inkscape:deskcolor="#d1d1d1"
     inkscape:document-units="px"
     showgrid="false"
     inkscape:zoom="8.3541667"
     inkscape:cx="47.94015"
     inkscape:cy="48"
     inkscape:window-width="1920"
     inkscape:window-height="1008"
     inkscape:window-x="0"
     inkscape:window-y="0"
     inkscape:window-maximized="1"
     inkscape:current-layer="svg5" />
  <defs
     id="defs2">
    <linearGradient
       inkscape:collect="always"
       xlink:href="#linearGradient3017"
       id="linearGradient4780"
       x1="2"
       y1="2"
       x2="30"
       y2="30"
       gradientUnits="userSpaceOnUse"
       gradientTransform="scale(3)" />
    <linearGradient
       inkscape:collect="always"
       id="linearGradient3017">
      <stop
         style="stop-color:#26bc25;stop-opacity:1;"
         offset="0"
         id="stop3013" />
      <stop
         style="stop-color:#65df47;stop-opacity:1;"
         offset="1"
         id="stop3015" />
    </linearGradient>
  </defs>
  <path
     d="M 39,7 C 11.696428,7 6,12.819451 6,40 v 18 c 0,27.18055 5.696428,33 33,33 H 57 C 84.30357,91 90,85.180548 90,58 V 40 C 90,12.819451 84.30357,7 57,7"
     style="opacity:0.2;fill:#000000;stroke-width:3;stroke-linecap:round;stroke-linejoin:round"
     id="path563" />
  <path
     id="path530"
     style="fill:url(#linearGradient4780);fill-opacity:1;stroke-width:3;stroke-linecap:round;stroke-linejoin:round"
     d="M 39,6 C 11.696456,6 6,11.819478 6,39 v 18 c 0,27.180522 5.696456,33 33,33 H 57 C 84.303546,90 90,84.180522 90,57 V 39 C 90,11.819478 84.303546,6 57,6 Z" />
  <path
     style="fill:#ffffff;stroke-width:2"
     d="M 36.070312,28 C 24.953072,28 22,34 22,46 c 0,12 2.901112,18 14.070312,18 h 3.171876 l 4.621094,8 5.355468,-2 -4.363282,-8 C 49.011448,60 50,54 50,46 50,34 47.187552,28 36.070312,28 Z m 23.984578,0 v 8 H 54 v 6 h 6.05489 v 12 c 0,8 1.81718,10 7.6875,10 H 72 l -0.128704,-6 h -2.949218 c -2.701402,0 -2.921876,0 -2.921876,-4 V 42 h 6 v -6 h -6 V 28 Z M 36.023438,34 C 42.48212,34 44.000018,38 44,46 44,54 42.53106,58 36.023438,58 29.515818,58 28,54 28,46 28,38 29.564758,34 36.023438,34 Z"
     id="path8"
     sodipodi:nodetypes="sssccccsscccccssccssccccccscsss" />
</svg>
