<?xml version="1.0" encoding="UTF-8" standalone="no"?>
<!-- Created with Inkscape (http://www.inkscape.org/) -->

<svg
   width="96"
   height="96"
   viewBox="0 0 95.999999 96"
   version="1.1"
   id="svg5"
   inkscape:version="1.2.1 (9c6d41e410, 2022-07-14)"
   sodipodi:docname="reddit.svg"
   xmlns:inkscape="http://www.inkscape.org/namespaces/inkscape"
   xmlns:sodipodi="http://sodipodi.sourceforge.net/DTD/sodipodi-0.dtd"
   xmlns="http://www.w3.org/2000/svg"
   xmlns:svg="http://www.w3.org/2000/svg">
  <sodipodi:namedview
     id="namedview7"
     pagecolor="#ffffff"
     bordercolor="#000000"
     borderopacity="0.25"
     inkscape:showpageshadow="2"
     inkscape:pageopacity="0.0"
     inkscape:pagecheckerboard="0"
     inkscape:deskcolor="#d1d1d1"
     inkscape:document-units="px"
     showgrid="false"
     inkscape:zoom="8.6041667"
     inkscape:cx="47.941889"
     inkscape:cy="48"
     inkscape:window-width="1920"
     inkscape:window-height="1006"
     inkscape:window-x="0"
     inkscape:window-y="0"
     inkscape:window-maximized="1"
     inkscape:current-layer="svg5"
     showguides="false" />
  <defs
     id="defs2" />
  <path
     d="M 39,7 C 11.696429,7 6,12.819451 6,40 v 18 c 0,27.180548 5.696429,33 33,33 H 57 C 84.30357,91 90,85.180548 90,58 V 40 C 90,12.819451 84.30357,7 57,7"
     style="opacity:0.2;fill:#000000;stroke-width:3;stroke-linecap:round;stroke-linejoin:round"
     id="path563" />
  <path
     id="path530"
     style="fill:#ff5836;fill-opacity:1;stroke-width:3.00002;stroke-linecap:round;stroke-linejoin:round"
     d="M 39,6 C 11.696456,6 6,11.819478 6,39 v 18 c 0,27.18052 5.696456,33 33,33 H 57 C 84.303546,90 90,84.18052 90,57 V 39 C 90,11.819478 84.303546,6 57,6 Z" />
  <path
     d="m 49.890624,24 c -0.968552,0.06044 -1.75892,0.795112 -1.874996,1.757524 L 46.23438,40.0677 c -5.40526,0.26672 -10.515916,1.745168 -14.5,4.194624 -0.766568,-2.525872 -3.094352,-4.253984 -5.734376,-4.257116 -3.31371,0 -6,2.685848 -6.000002,5.999016 -0.0022,2.866204 2.023732,5.3336 4.835938,5.889672 -0.544868,1.3396 -0.825872,2.720764 -0.835936,4.108704 0,8.835122 10.745164,15.997402 24,15.997402 C 61.254836,72.000002 72,64.837718 72,56.0026 71.997,54.609884 71.72128,53.223388 71.179692,51.878276 73.979924,51.316836 75.996248,48.859736 76,46.004224 c 0,-3.313164 -2.686292,-5.999016 -5.999996,-5.999016 -2.642912,-3.04e-4 -4.97478,1.728484 -5.742188,4.257116 -3.85834,-2.370648 -8.775984,-3.83308 -14,-4.16338 l 1.468748,-11.834016 8.562504,1.226364 c 0.60666,1.517912 2.0761,2.513856 3.710936,2.515216 2.209176,0 4.000056,-1.7905 4,-3.999348 -2.8e-5,-2.2087 -1.790884,-3.999352 -4,-3.999352 -1.226264,0.0022 -2.383816,0.566776 -3.140624,1.531004 l -10.578128,-1.49976 c -0.13152,-0.0304 -0.26496,-0.0312 -0.39844,-0.0312 z M 38,48.003904 c 2.20914,0 4,1.790572 4,3.999348 0,2.20878 -1.79086,3.999348 -4,3.999348 -2.20914,0 -4,-1.790568 -4,-3.999348 0,-2.208776 1.79086,-3.999348 4,-3.999348 z m 20,0 c 2.20914,0 4,1.790572 4,3.999348 0,2.20878 -1.79086,3.999348 -4,3.999348 -2.20914,0 -4,-1.790568 -4,-3.999348 0,-2.208776 1.79086,-3.999348 4,-3.999348 z M 57.96094,59.93946 c 1.550772,-0.05448 2.574232,1.595836 1.835936,2.960452 0,0 -0.853952,1.53779 -2.695308,2.765186 -1.841356,1.227384 -4.768228,2.327744 -9.101564,2.327744 -4.333336,0 -7.275832,-1.099604 -9.117188,-2.327744 -1.841356,-1.227396 -2.664064,-2.765186 -2.664064,-2.765186 -0.665004,-1.269056 0.1812,-2.805088 1.609376,-2.921392 0.06752,-0.006 0.13532,-0.0088 0.20312,-0.008 0.752392,0.0168 1.431644,0.454516 1.757812,1.132632 0,0 0.15384,0.469572 1.312504,1.241984 1.158648,0.772404 3.223956,1.663788 6.890624,1.663788 3.66666,0 5.7398,-0.890932 6.898436,-1.663788 1.158648,-0.772412 1.3125,-1.241984 1.3125,-1.241984 0.31956,-0.68368 0.995668,-1.130336 1.749996,-1.156064 z"
     style="fill:#ffffff;stroke-width:4"
     id="path354"
     sodipodi:nodetypes="ccccccccscccccccccccccccssssssssssccsscccccsscccc" />
</svg>
