<?xml version="1.0" encoding="UTF-8" standalone="no"?>
<!-- Created with Inkscape (http://www.inkscape.org/) -->

<svg
   width="96"
   height="96"
   viewBox="0 0 96 96"
   version="1.1"
   id="svg5"
   inkscape:version="1.2.1 (9c6d41e410, 2022-07-14)"
   sodipodi:docname="seahorse.svg"
   xmlns:inkscape="http://www.inkscape.org/namespaces/inkscape"
   xmlns:sodipodi="http://sodipodi.sourceforge.net/DTD/sodipodi-0.dtd"
   xmlns:xlink="http://www.w3.org/1999/xlink"
   xmlns="http://www.w3.org/2000/svg"
   xmlns:svg="http://www.w3.org/2000/svg">
  <sodipodi:namedview
     id="namedview7"
     pagecolor="#ffffff"
     bordercolor="#000000"
     borderopacity="0.25"
     inkscape:showpageshadow="2"
     inkscape:pageopacity="0.0"
     inkscape:pagecheckerboard="0"
     inkscape:deskcolor="#d1d1d1"
     inkscape:document-units="px"
     showgrid="false"
     inkscape:zoom="8.625"
     inkscape:cx="48"
     inkscape:cy="48"
     inkscape:window-width="1920"
     inkscape:window-height="1008"
     inkscape:window-x="0"
     inkscape:window-y="0"
     inkscape:window-maximized="1"
     inkscape:current-layer="svg5"
     showguides="false" />
  <defs
     id="defs2">
    <linearGradient
       inkscape:collect="always"
       xlink:href="#linearGradient6154"
       id="linearGradient3500"
       x1="2"
       y1="2"
       x2="30"
       y2="30"
       gradientUnits="userSpaceOnUse"
       gradientTransform="scale(3)" />
    <linearGradient
       inkscape:collect="always"
       id="linearGradient6154">
      <stop
         style="stop-color:#4cb35a;stop-opacity:1;"
         offset="0"
         id="stop6150" />
      <stop
         style="stop-color:#73d091;stop-opacity:1;"
         offset="1"
         id="stop6152" />
    </linearGradient>
  </defs>
  <path
     d="M 39,7 C 11.696429,7 6,12.819451 6,40 v 18 c 0,27.180548 5.696429,33 33,33 H 57 C 84.30357,91 90,85.180548 90,58 V 40 C 90,12.819451 84.30357,7 57,7"
     style="opacity:0.2;fill:#000000;stroke-width:3;stroke-linecap:round;stroke-linejoin:round"
     id="path563" />
  <path
     id="path530"
     style="fill:url(#linearGradient3500);fill-opacity:1;stroke-width:3.00002;stroke-linecap:round;stroke-linejoin:round"
     d="M 39,6 C 11.696456,6 6,11.819478 6,39 v 18 c 0,27.18052 5.696456,33 33,33 H 57 C 84.303546,90 90,84.18052 90,57 V 39 C 90,11.819478 84.303546,6 57,6 Z" />
  <rect
     style="opacity:0.5;fill:#ffffff;stroke-width:4;stroke-linecap:round;stroke-linejoin:round;paint-order:stroke fill markers"
     id="rect1059"
     width="60"
     height="42"
     x="18"
     y="28"
     ry="6" />
  <rect
     style="opacity:0.5;fill:#000000;stroke-width:3.5777;stroke-linecap:round;stroke-linejoin:round;paint-order:stroke fill markers"
     id="rect5731"
     width="60"
     height="8"
     x="18"
     y="36" />
  <path
     id="path1057"
     style="fill:#ffffff;stroke-width:4.6667;stroke-linecap:round;stroke-linejoin:round;paint-order:stroke fill markers"
     d="m 38,18 c -7.73198,0 -14,6.26802 -14,14 0.0126,3.646936 1.447636,7.145052 4,9.75 V 74 l 2,1.999466 h 6 l 4,-4 L 38.718748,70.851022 40,69.7104 37.382808,67.429156 40,65.14009 38.718748,63.999466 40,62.851022 38.05469,61.14009 40,59.429156 V 57.7104 L 38.718748,56.569778 40,55.429156 V 52 h 6 v -5.999978 h -6 v -0.1406 c 6.88912,-0.99433 12.001474,-6.89885 12,-13.859362 0,-7.73198 -6.26802,-14 -14,-13.999998 z m 0,4 c 2.20914,0 4,1.79086 4,4 0,2.20914 -1.79086,4 -4,4 -2.20914,0 -4,-1.79086 -4,-4 0,-2.20914 1.79086,-4 4,-4 z"
     sodipodi:nodetypes="ccccccccccccccccccccccccccsssss" />
</svg>
