<?xml version="1.0" encoding="UTF-8" standalone="no"?>
<!-- Created with Inkscape (http://www.inkscape.org/) -->

<svg
   width="96"
   height="96"
   viewBox="0 0 96 96"
   version="1.1"
   id="svg5"
   inkscape:version="1.2.1 (9c6d41e410, 2022-07-14)"
   sodipodi:docname="system-file-manager.svg"
   xmlns:inkscape="http://www.inkscape.org/namespaces/inkscape"
   xmlns:sodipodi="http://sodipodi.sourceforge.net/DTD/sodipodi-0.dtd"
   xmlns:xlink="http://www.w3.org/1999/xlink"
   xmlns="http://www.w3.org/2000/svg"
   xmlns:svg="http://www.w3.org/2000/svg">
  <sodipodi:namedview
     id="namedview7"
     pagecolor="#ffffff"
     bordercolor="#000000"
     borderopacity="0.25"
     inkscape:showpageshadow="2"
     inkscape:pageopacity="0.0"
     inkscape:pagecheckerboard="0"
     inkscape:deskcolor="#d1d1d1"
     inkscape:document-units="px"
     showgrid="false"
     inkscape:zoom="8.25"
     inkscape:cx="47.939394"
     inkscape:cy="48"
     inkscape:window-width="1920"
     inkscape:window-height="1004"
     inkscape:window-x="0"
     inkscape:window-y="0"
     inkscape:window-maximized="1"
     inkscape:current-layer="svg5"
     showguides="false" />
  <defs
     id="defs2">
    <linearGradient
       inkscape:collect="always"
       id="linearGradient2698">
      <stop
         style="stop-color:#e3951a;stop-opacity:1;"
         offset="0"
         id="stop2694" />
      <stop
         style="stop-color:#f1bf74;stop-opacity:1;"
         offset="1"
         id="stop2696" />
    </linearGradient>
    <linearGradient
       inkscape:collect="always"
       xlink:href="#linearGradient2698"
       id="linearGradient3500"
       x1="2"
       y1="2"
       x2="30"
       y2="30"
       gradientUnits="userSpaceOnUse"
       gradientTransform="scale(3)" />
  </defs>
  <path
     d="M 39,7 C 11.696428,7 6,12.819451 6,40 v 18 c 0,27.18055 5.696429,33 33,33 H 57 C 84.30357,91 90,85.180548 90,58 V 40 C 90,12.819451 84.30357,7 57,7"
     style="opacity:0.2;fill:#000000;stroke-width:3;stroke-linecap:round;stroke-linejoin:round"
     id="path563" />
  <path
     id="path530"
     style="fill:url(#linearGradient3500);fill-opacity:1;stroke-width:3;stroke-linecap:round;stroke-linejoin:round"
     d="M 39,6 C 11.696456,6 6,11.819478 6,39 v 18 c 0,27.180522 5.696456,33 33,33 H 57 C 84.303546,90 90,84.180522 90,57 V 39 C 90,11.819478 84.303546,6 57,6 Z" />
  <rect
     style="opacity:0.6;fill:#ffffff;stroke-width:6;stroke-linecap:round;stroke-linejoin:round"
     id="rect954"
     width="30"
     height="36"
     x="18"
     y="22"
     ry="6" />
  <path
     id="rect346"
     style="opacity:1;fill:#ffffff;stroke-width:6;stroke-linecap:round;stroke-linejoin:round"
     d="m 24,32 c -3.323996,0 -6,2.676004 -6,6 v 2 2 24 c 0,4.431996 3.568004,8 8,8 h 44 c 4.431996,0 8,-3.568004 8,-8 V 40 c 0,-4.431996 -3.568004,-8 -8,-8 H 36 26 Z" />
</svg>
