<?xml version="1.0" encoding="UTF-8" standalone="no"?>
<!-- Created with Inkscape (http://www.inkscape.org/) -->

<svg
   width="96"
   height="96"
   viewBox="0 0 96 96"
   version="1.1"
   id="svg5"
   inkscape:version="1.3.2 (091e20ef0f, 2023-11-25, custom)"
   sodipodi:docname="vmware-player.svg"
   xmlns:inkscape="http://www.inkscape.org/namespaces/inkscape"
   xmlns:sodipodi="http://sodipodi.sourceforge.net/DTD/sodipodi-0.dtd"
   xmlns:xlink="http://www.w3.org/1999/xlink"
   xmlns="http://www.w3.org/2000/svg"
   xmlns:svg="http://www.w3.org/2000/svg">
  <sodipodi:namedview
     id="namedview7"
     pagecolor="#ffffff"
     bordercolor="#000000"
     borderopacity="0.25"
     inkscape:showpageshadow="2"
     inkscape:pageopacity="0.0"
     inkscape:pagecheckerboard="0"
     inkscape:deskcolor="#d1d1d1"
     inkscape:document-units="px"
     showgrid="false"
     inkscape:zoom="8.3958333"
     inkscape:cx="48"
     inkscape:cy="48"
     inkscape:window-width="1920"
     inkscape:window-height="1019"
     inkscape:window-x="0"
     inkscape:window-y="0"
     inkscape:window-maximized="1"
     inkscape:current-layer="svg5"
     showguides="false" />
  <defs
     id="defs2">
    <linearGradient
       inkscape:collect="always"
       xlink:href="#linearGradient1606"
       id="linearGradient3500"
       x1="2"
       y1="2"
       x2="30"
       y2="30"
       gradientUnits="userSpaceOnUse"
       gradientTransform="scale(3)" />
    <linearGradient
       inkscape:collect="always"
       id="linearGradient1606">
      <stop
         style="stop-color:#eaebed;stop-opacity:1;"
         offset="0"
         id="stop1602" />
      <stop
         style="stop-color:#f9fafa;stop-opacity:1;"
         offset="1"
         id="stop1604" />
    </linearGradient>
  </defs>
  <path
     d="M 39,7 C 11.696429,7 6,12.819451 6,40 v 18 c 0,27.180548 5.696429,33 33,33 H 57 C 84.30357,91 90,85.180548 90,58 V 40 C 90,12.819451 84.30357,7 57,7"
     style="opacity:0.2;fill:#000000;stroke-width:3;stroke-linecap:round;stroke-linejoin:round"
     id="path563" />
  <path
     id="path530"
     style="fill:url(#linearGradient3500);fill-opacity:1;stroke-width:3.00002;stroke-linecap:round;stroke-linejoin:round"
     d="M 39,6 C 11.696456,6 6,11.819478 6,39 v 18 c 0,27.18052 5.696456,33 33,33 H 57 C 84.303546,90 90,84.18052 90,57 V 39 C 90,11.819478 84.303546,6 57,6 Z" />
  <path
     id="path4"
     style="fill:#edb200;fill-opacity:1;stroke-width:4"
     d="m 22,18 c -2.215994,0 -4,1.784006 -4,4 v 20 c 0,2.215994 1.784006,4 4,4 2.215994,0 4,-1.784006 4,-4 V 31.625 l 6,6 V 46 h 8 v -4 c 0,-1.107998 0.892002,-2 2,-2 h 4 v -8 h -8.375 l -6,-6 H 42 c 2.215994,0 4,-1.784006 4,-4 0,-2.215994 -1.784006,-4 -4,-4 z m 32,0 c -2.215994,0 -4,1.784006 -4,4 0,2.215994 1.784006,4 4,4 h 10.375 l -6,6 H 50 v 8 h 4 c 1.107998,0 2,0.892002 2,2 v 4 h 8 v -8.375 l 6,-6 V 42 c 0,2.215994 1.784006,4 4,4 2.215994,0 4,-1.784006 4,-4 V 22 c 0,-2.215994 -1.784006,-4 -4,-4 z M 32,50 v 10 c 0,2.215994 1.784006,4 4,4 h 10 v -8 h -4 c -1.107998,0 -2,-0.892002 -2,-2 v -4 z m 24,0 v 4 c 0,1.107998 -0.892002,2 -2,2 h -4 v 8 h 8.375 l 6,6 H 54 c -2.215994,0 -4,1.784006 -4,4 0,2.215994 1.784006,4 4,4 h 20 c 2.215994,0 4,-1.784006 4,-4 V 54 c 0,-2.215994 -1.784006,-4 -4,-4 -2.215994,0 -4,1.784006 -4,4 v 10.375 l -6,-6 V 50 Z" />
</svg>
