<?xml version="1.0" encoding="UTF-8" standalone="no"?>
<!-- Created with Inkscape (http://www.inkscape.org/) -->

<svg
   width="96"
   height="96"
   viewBox="0 0 96 96"
   version="1.1"
   id="svg5"
   inkscape:version="1.2.2 (1:1.2.2+202305151914+b0a8486541)"
   sodipodi:docname="waydroid.svg"
   xmlns:inkscape="http://www.inkscape.org/namespaces/inkscape"
   xmlns:sodipodi="http://sodipodi.sourceforge.net/DTD/sodipodi-0.dtd"
   xmlns:xlink="http://www.w3.org/1999/xlink"
   xmlns="http://www.w3.org/2000/svg"
   xmlns:svg="http://www.w3.org/2000/svg">
  <sodipodi:namedview
     id="namedview7"
     pagecolor="#ffffff"
     bordercolor="#000000"
     borderopacity="0.25"
     inkscape:showpageshadow="2"
     inkscape:pageopacity="0.0"
     inkscape:pagecheckerboard="0"
     inkscape:deskcolor="#d1d1d1"
     inkscape:document-units="px"
     showgrid="false"
     inkscape:zoom="8.6458333"
     inkscape:cx="48"
     inkscape:cy="48"
     inkscape:window-width="1920"
     inkscape:window-height="1008"
     inkscape:window-x="0"
     inkscape:window-y="0"
     inkscape:window-maximized="1"
     inkscape:current-layer="svg5" />
  <defs
     id="defs2">
    <linearGradient
       inkscape:collect="always"
       id="linearGradient1624">
      <stop
         style="stop-color:#21b963;stop-opacity:1;"
         offset="0"
         id="stop1620" />
      <stop
         style="stop-color:#7ad4b3;stop-opacity:1;"
         offset="1"
         id="stop1622" />
    </linearGradient>
    <linearGradient
       inkscape:collect="always"
       xlink:href="#linearGradient1624"
       id="linearGradient4780"
       x1="2"
       y1="2"
       x2="30"
       y2="30"
       gradientUnits="userSpaceOnUse"
       gradientTransform="scale(3)" />
  </defs>
  <path
     d="M 39,7 C 11.696428,7 6,12.819451 6,40 v 18 c 0,27.180548 5.696428,33 33,33 H 57 C 84.30357,91 90,85.180548 90,58 V 40 C 90,12.819451 84.30357,7 57,7"
     style="opacity:0.2;fill:#000000;stroke-width:3;stroke-linecap:round;stroke-linejoin:round"
     id="path563" />
  <path
     id="path530"
     style="fill:url(#linearGradient4780);fill-opacity:1;stroke-width:3;stroke-linecap:round;stroke-linejoin:round"
     d="M 39,6 C 11.696456,6 6,11.819478 6,39 v 18 c 0,27.180522 5.696456,33 33,33 H 57 C 84.303546,90 90,84.180522 90,57 V 39 C 90,11.819478 84.303546,6 57,6 Z" />
  <path
     id="path437"
     style="opacity:0.5;fill:#ffffff;stroke-width:1.07693"
     d="m 26.921876,18 c -0.483382,0.013 -0.968178,0.14656 -1.41797,0.40625 -1.43933,0.830998 -1.928656,2.658326 -1.097656,4.097656 l 4.214844,7.296876 c -4.292868,4.11958 -7.280426,9.588588 -8.265626,15.730468 -0.23344,1.455288 0.91797,3.154686 0.91797,4.675782 0,15.463942 11.860272,24.785156 27.324218,24.785156 15.463938,0 25.242188,-9.438402 25.242188,-24.902344 0,-1.452834 2.049276,-2.970098 1.835938,-4.363282 -0.952586,-6.220908 -3.955068,-11.766428 -8.29297,-15.929686 l 4.210938,-7.29297 c 0.831,-1.43933 0.341674,-3.266658 -1.097656,-4.097656 -1.439332,-0.830998 -3.26666,-0.341676 -4.097656,1.097656 l -3.808594,6.597656 C 58.34043,23.501666 53.346474,22 48,22 42.654848,22 37.662796,23.502852 33.414062,26.101562 l -3.8125,-6.597656 C 29.030252,18.514366 27.985312,17.971276 26.921876,18 Z m 44.816406,27.121094 -7.242188,22.496094 c -1.001912,3.49872 -3.000454,3.35036 -4.4375,1.402344 L 48.121094,56.453124 35.777344,69.394532 C 34.26387,70.644278 32.850182,71.05576 31.753906,68.824218 L 24.019532,45.269532 c 3.229252,0.608748 6.504356,1.104626 9.648436,1.503906 L 36.289062,57.578124 44.121094,47.75 c 1.430654,0.0766 2.768996,0.1289 3.878906,0.1289 1.099052,0 2.445216,-0.0584 3.898438,-0.14844 l 7.816406,10.023438 2.726562,-11.121094 c 3.006044,-0.413206 6.151462,-0.911228 9.296876,-1.511718 z" />
  <path
     id="path439"
     style="fill:#ffffff;stroke-width:1.07693"
     d="m 75.460938,44.347656 c -3.755064,0.812736 -7.624704,1.496924 -11.316406,2.042968 2.482632,-0.362182 5.035414,-0.78112 7.59375,-1.26953 l -7.242188,22.496094 c -1.001912,3.49872 -3.000454,3.35036 -4.4375,1.402344 L 48.121094,56.453124 35.777344,69.394532 C 34.26387,70.644278 32.850182,71.05576 31.753906,68.824218 L 24.019532,45.269532 c 2.549034,0.48052 5.12231,0.890036 7.640624,1.23828 C 27.984462,45.994062 24.173368,45.34365 20.539062,44.554688 20.246788,46.138706 20.016088,48.389326 20,50 20,65.46396 32.536042,78 48,78 63.463958,78 76,65.46396 76,50 75.9978,48.321208 75.763228,45.999008 75.460938,44.347656 Z m -12.546876,2.21875 c -4.103862,0.578514 -7.89656,0.970018 -11.015624,1.164062 l 7.816406,10.023438 2.726562,-11.121094 c 0.15568,-0.0214 0.316272,-0.04456 0.472656,-0.0664 z m -29.953124,0.11328 c 0.234558,0.0307 0.473808,0.06414 0.70703,0.09374 l 2.621094,10.804686 7.828126,-9.824218 C 40.922402,47.581994 37.07222,47.2222 32.960938,46.679676 Z M 49.988282,47.83203 C 49.284008,47.85879 48.595748,47.87891 48,47.87891 c 0.594874,0 1.270386,-0.0166 1.988282,-0.04688 z" />
</svg>
