<?xml version="1.0" encoding="UTF-8" standalone="no"?>
<!-- Created with Inkscape (http://www.inkscape.org/) -->

<svg
   width="96"
   height="96"
   viewBox="0 0 96 96"
   version="1.1"
   id="svg5"
   inkscape:version="1.2.1 (9c6d41e410, 2022-07-14)"
   sodipodi:docname="web-microsoft.svg"
   xmlns:inkscape="http://www.inkscape.org/namespaces/inkscape"
   xmlns:sodipodi="http://sodipodi.sourceforge.net/DTD/sodipodi-0.dtd"
   xmlns="http://www.w3.org/2000/svg"
   xmlns:svg="http://www.w3.org/2000/svg">
  <sodipodi:namedview
     id="namedview7"
     pagecolor="#ffffff"
     bordercolor="#000000"
     borderopacity="0.25"
     inkscape:showpageshadow="2"
     inkscape:pageopacity="0.0"
     inkscape:pagecheckerboard="0"
     inkscape:deskcolor="#d1d1d1"
     inkscape:document-units="px"
     showgrid="false"
     inkscape:zoom="8.25"
     inkscape:cx="47.939394"
     inkscape:cy="48"
     inkscape:window-width="1920"
     inkscape:window-height="1004"
     inkscape:window-x="0"
     inkscape:window-y="0"
     inkscape:window-maximized="1"
     inkscape:current-layer="svg5" />
  <defs
     id="defs2" />
  <path
     d="m 39,6.999999 c -27.303571,0 -33,5.819451 -33,33 v 18 c 0,27.180548 5.696429,33 33,33 h 18 c 27.30357,0 33,-5.819452 33,-33 v -18 c 0,-27.180549 -5.69643,-33 -33,-33"
     style="opacity:0.2;fill:#000000;stroke-width:3;stroke-linecap:round;stroke-linejoin:round"
     id="path563" />
  <path
     id="path530"
     style="fill:#fafafa;fill-opacity:1;stroke-width:3;stroke-linecap:round;stroke-linejoin:round"
     d="m 39,6.000001 c -27.303544,0 -33,5.819478 -33,33 v 17.999998 c 0,27.180522 5.696456,33 33,33 H 56.999998 C 84.303544,89.999999 90,84.180521 90,56.999999 V 39.000001 c 0,-27.180522 -5.696456,-33 -33.000002,-33 z" />
  <rect
     style="fill:#f25022;fill-opacity:1;stroke-width:7.94834;stroke-linejoin:round"
     id="rect942"
     width="26"
     height="26"
     x="20"
     y="19.999996" />
  <rect
     style="fill:#00a4ef;fill-opacity:1;stroke-width:9.17646;stroke-linejoin:round"
     id="rect1090"
     width="26"
     height="26"
     x="20"
     y="50.000004" />
  <rect
     style="fill:#7fba00;fill-opacity:1;stroke-width:9.17646;stroke-linejoin:round"
     id="rect1274"
     width="26"
     height="26"
     x="50"
     y="19.999996" />
  <rect
     style="fill:#ffb900;fill-opacity:1;stroke-width:9.17646;stroke-linejoin:round"
     id="rect1408"
     width="26"
     height="26"
     x="50"
     y="50.000004" />
  <g
     id="g7872"
     transform="matrix(1.5,0,0,1.5,2.1240237,2.1407895)" />
</svg>
