<?xml version="1.0" encoding="UTF-8" standalone="no"?>
<!-- Created with Inkscape (http://www.inkscape.org/) -->

<svg
   width="96"
   height="96"
   viewBox="0 0 96 96"
   version="1.1"
   id="svg5"
   inkscape:version="1.2.1 (9c6d41e410, 2022-07-14)"
   sodipodi:docname="wine.svg"
   xmlns:inkscape="http://www.inkscape.org/namespaces/inkscape"
   xmlns:sodipodi="http://sodipodi.sourceforge.net/DTD/sodipodi-0.dtd"
   xmlns:xlink="http://www.w3.org/1999/xlink"
   xmlns="http://www.w3.org/2000/svg"
   xmlns:svg="http://www.w3.org/2000/svg">
  <sodipodi:namedview
     id="namedview7"
     pagecolor="#ffffff"
     bordercolor="#000000"
     borderopacity="0.25"
     inkscape:showpageshadow="2"
     inkscape:pageopacity="0.0"
     inkscape:pagecheckerboard="0"
     inkscape:deskcolor="#d1d1d1"
     inkscape:document-units="px"
     showgrid="false"
     inkscape:zoom="8.4166667"
     inkscape:cx="48"
     inkscape:cy="48"
     inkscape:window-width="1920"
     inkscape:window-height="1011"
     inkscape:window-x="0"
     inkscape:window-y="32"
     inkscape:window-maximized="1"
     inkscape:current-layer="svg5" />
  <defs
     id="defs2">
    <linearGradient
       inkscape:collect="always"
       xlink:href="#linearGradient1694"
       id="linearGradient4780"
       x1="2"
       y1="2"
       x2="30"
       y2="30"
       gradientUnits="userSpaceOnUse"
       gradientTransform="scale(3)" />
    <linearGradient
       inkscape:collect="always"
       id="linearGradient1694">
      <stop
         style="stop-color:#940e0e;stop-opacity:1;"
         offset="0"
         id="stop1690" />
      <stop
         style="stop-color:#d17979;stop-opacity:1;"
         offset="1"
         id="stop1692" />
    </linearGradient>
  </defs>
  <path
     d="M 39,7 C 11.696429,7 6,12.819452 6,40 v 18 c 0,27.180548 5.696429,33 33,33 H 57 C 84.30357,91 90,85.180548 90,58 V 40 C 90,12.819452 84.30357,7 57,7"
     style="opacity:0.2;fill:#000000;stroke-width:3.00001;stroke-linecap:round;stroke-linejoin:round"
     id="path563" />
  <path
     id="path530"
     style="fill:url(#linearGradient4780);fill-opacity:1;stroke-width:3;stroke-linecap:round;stroke-linejoin:round"
     d="M 39,6 C 11.696455,6 6,11.819478 6,39 v 18 c 0,27.180525 5.696455,33 33,33 H 57 C 84.303548,90 90,84.180525 90,57 V 39 C 90,11.819478 84.303548,6 57,6 Z"
     sodipodi:nodetypes="sssssssss" />
  <path
     id="rect394"
     style="fill:#ffffff;stroke-width:6"
     d="M 48 18 C 40.870713 18.0065 36.455496 19.32309 33 21 L 33 45 C 33 52.631056 38.643082 58.892494 46 59.865234 L 46 72.095703 A 9 3 0 0 0 39 75 A 9 3 0 0 0 48 78 A 9 3 0 0 0 57 75 A 9 3 0 0 0 50 72.091797 L 50 59.865234 C 57.356918 58.892494 63 52.631056 63 45 L 63 21 C 59.544505 19.323089 55.129287 18.006489 48 18 z M 54.75 33 C 56.841669 32.96436 58.864745 34.719247 60 36 L 60 45 C 60 51.64797 54.64797 57 48 57 C 41.352029 57 36 51.64797 36 45 L 36 36 C 36.529286 36.941783 39.436308 39 42.75 39 C 46.063692 39 48.514973 36.940592 49.5 36 C 50.302671 35.232349 53.172302 32.983044 54.75 33 z " />
</svg>
