<?xml version="1.0" encoding="UTF-8" standalone="no"?>
<!-- Created with Inkscape (http://www.inkscape.org/) -->

<svg
   width="96"
   height="96"
   viewBox="0 0 96 96"
   version="1.1"
   id="svg5"
   inkscape:version="1.4.4 (dcaf3e7d9e, 2026-05-05)"
   sodipodi:docname="xbox.svg"
   xmlns:inkscape="http://www.inkscape.org/namespaces/inkscape"
   xmlns:sodipodi="http://sodipodi.sourceforge.net/DTD/sodipodi-0.dtd"
   xmlns="http://www.w3.org/2000/svg"
   xmlns:svg="http://www.w3.org/2000/svg">
  <sodipodi:namedview
     id="namedview7"
     pagecolor="#ffffff"
     bordercolor="#000000"
     borderopacity="0.25"
     inkscape:showpageshadow="2"
     inkscape:pageopacity="0.0"
     inkscape:pagecheckerboard="0"
     inkscape:deskcolor="#d1d1d1"
     inkscape:document-units="px"
     showgrid="false"
     inkscape:zoom="8.3541667"
     inkscape:cx="48"
     inkscape:cy="48"
     inkscape:window-width="1920"
     inkscape:window-height="1010"
     inkscape:window-x="0"
     inkscape:window-y="0"
     inkscape:window-maximized="1"
     inkscape:current-layer="svg5" />
  <defs
     id="defs2" />
  <path
     d="M 39,7 C 11.696429,7 6,12.819451 6,40 v 18 c 0,27.180549 5.696429,33 33,33 H 57 C 84.30357,91 90,85.180549 90,58 V 40 C 90,12.819451 84.30357,7 57,7"
     style="opacity:0.2;fill:#000000;stroke-width:3;stroke-linecap:round;stroke-linejoin:round"
     id="path563" />
  <path
     id="path530"
     style="fill:#107c10;fill-opacity:1;stroke-width:3;stroke-linecap:round;stroke-linejoin:round"
     d="M 39,6 C 11.696456,6 6,11.819478 6,39 v 18 c 0,27.180522 5.696456,33 33,33 H 57 C 84.303546,90 90,84.180522 90,57 V 39 C 90,11.819478 84.303546,6 57,6 Z" />
  <path
     d="m 45.008355,77.876769 c -4.62207,-0.442572 -9.301323,-2.101359 -13.320879,-4.722657 -3.368229,-2.195448 -4.128343,-3.099417 -4.128343,-4.901082 0,-3.619356 3.981901,-9.959679 10.79506,-17.185842 3.86823,-4.105146 9.257394,-8.91423 9.839682,-8.784591 1.133901,0.25302 10.192545,9.084285 13.584483,13.242396 5.362662,6.572415 7.827117,11.955798 6.574668,14.355462 -0.951894,1.823961 -6.859884,5.389656 -11.199528,6.759198 -3.577434,1.129086 -8.275518,1.607208 -12.145143,1.237116 z M 23.009584,64.4901 c -2.799185,-4.291932 -4.213421,-8.516955 -4.895433,-14.627973 -0.225943,-2.017725 -0.146444,-3.171204 0.511162,-7.313985 0.817997,-5.157567 3.758743,-11.130585 7.294335,-14.803607 1.504894,-1.561211 1.638784,-1.603029 3.474225,-0.982727 2.224567,0.752726 4.602547,2.394784 8.291554,5.72908 l 2.154831,1.94733 -1.178532,1.442724 c -5.458899,6.697866 -11.220448,16.197546 -13.389223,22.072989 -1.178531,3.192114 -1.652732,6.398169 -1.143662,7.732863 0.341704,0.901875 0.0279,0.565938 -1.122744,-1.194603 z m 49.130777,0.729726 C 72.417231,63.870495 72.067131,61.39347 71.247747,58.894137 69.472974,53.482182 63.539181,43.414476 58.090743,36.568851 l -1.715496,-2.155029 1.856364,-1.702692 c 2.422611,-2.223327 4.10463,-3.554538 5.920542,-4.685718 1.431672,-0.892118 3.478413,-1.681785 4.358472,-1.681785 0.541845,0 2.451903,1.98636 3.993057,4.14696 2.387745,3.34545 4.143687,7.408776 5.033511,11.632404 0.575316,2.732118 0.623436,8.57271 0.09276,11.297856 -0.439332,2.235876 -1.35984,5.13387 -2.252454,7.100016 -0.676434,1.472697 -2.343117,4.333752 -3.075336,5.264901 -0.376575,0.478818 -0.376575,0.478119 -0.16737,-0.554787 z M 45.503481,25.321872 c -2.514666,-1.275452 -6.393357,-2.644995 -8.535633,-3.014387 -0.750351,-0.128937 -2.031393,-0.202116 -2.845209,-0.160308 -1.768494,0.08921 -1.68969,-0.0028 1.145757,-1.341664 2.357058,-1.11306 4.323603,-1.767512 6.994473,-2.327876 3.002115,-0.630757 8.647206,-0.637725 11.6019,-0.01542 3.190401,0.672574 6.94845,2.069996 9.065619,3.373327 l 0.630411,0.386121 -1.443528,-0.07249 c -2.870313,-0.144867 -7.053051,1.014184 -11.544018,3.197089 -1.354263,0.659332 -2.5314,1.184846 -2.617869,1.170907 -0.08577,-0.01671 -1.189695,-0.55409 -2.454696,-1.195301 z"
     style="fill:#ffffff;stroke-width:3"
     id="path1" />
</svg>
