<?xml version="1.0" encoding="UTF-8" standalone="no"?>
<!-- Created with Inkscape (http://www.inkscape.org/) -->

<svg
   width="96"
   height="96"
   viewBox="0 0 96 96"
   version="1.1"
   id="svg5"
   inkscape:version="1.2.1 (9c6d41e410, 2022-07-14)"
   sodipodi:docname="xournal.svg"
   xmlns:inkscape="http://www.inkscape.org/namespaces/inkscape"
   xmlns:sodipodi="http://sodipodi.sourceforge.net/DTD/sodipodi-0.dtd"
   xmlns:xlink="http://www.w3.org/1999/xlink"
   xmlns="http://www.w3.org/2000/svg"
   xmlns:svg="http://www.w3.org/2000/svg">
  <sodipodi:namedview
     id="namedview7"
     pagecolor="#ffffff"
     bordercolor="#000000"
     borderopacity="0.25"
     inkscape:showpageshadow="2"
     inkscape:pageopacity="0.0"
     inkscape:pagecheckerboard="0"
     inkscape:deskcolor="#d1d1d1"
     inkscape:document-units="px"
     showgrid="false"
     inkscape:zoom="8.5208333"
     inkscape:cx="47.94132"
     inkscape:cy="48"
     inkscape:window-width="1920"
     inkscape:window-height="1004"
     inkscape:window-x="0"
     inkscape:window-y="0"
     inkscape:window-maximized="1"
     inkscape:current-layer="svg5"
     showguides="true" />
  <defs
     id="defs2">
    <linearGradient
       inkscape:collect="always"
       id="linearGradient1606">
      <stop
         style="stop-color:#eaebed;stop-opacity:1;"
         offset="0"
         id="stop1602" />
      <stop
         style="stop-color:#f9fafa;stop-opacity:1;"
         offset="1"
         id="stop1604" />
    </linearGradient>
    <linearGradient
       inkscape:collect="always"
       xlink:href="#linearGradient1606"
       id="linearGradient3500"
       x1="2"
       y1="2"
       x2="30"
       y2="30"
       gradientUnits="userSpaceOnUse"
       gradientTransform="scale(3)" />
    <linearGradient
       inkscape:collect="always"
       xlink:href="#linearGradient2178"
       id="linearGradient2180"
       x1="24.192377"
       y1="24.260647"
       x2="46.700294"
       y2="46.768562"
       gradientUnits="userSpaceOnUse"
       gradientTransform="matrix(1.6666667,0,0,1.6666667,-5.4839612,-2.1026272)" />
    <linearGradient
       inkscape:collect="always"
       id="linearGradient2178">
      <stop
         style="stop-color:#3eb5e5;stop-opacity:1;"
         offset="0"
         id="stop2174" />
      <stop
         style="stop-color:#2b82e3;stop-opacity:1;"
         offset="1"
         id="stop2176" />
    </linearGradient>
  </defs>
  <path
     d="M 39,7 C 11.696428,7 6,12.819451 6,40 v 18 c 0,27.180548 5.696428,33 33,33 H 57 C 84.30357,91 90,85.180548 90,58 V 40 C 90,12.819451 84.30357,7 57,7"
     style="opacity:0.2;fill:#000000;stroke-width:3;stroke-linecap:round;stroke-linejoin:round"
     id="path563" />
  <path
     id="path530"
     style="fill:url(#linearGradient3500);fill-opacity:1;stroke-width:3;stroke-linecap:round;stroke-linejoin:round"
     d="M 39,6 C 11.696456,6 6,11.819478 6,39 v 18 c 0,27.180522 5.696456,33 33,33 H 57 C 84.303546,90 90,84.180522 90,57 V 39 C 90,11.819478 84.303546,6 57,6 Z" />
  <path
     d="m 64.655006,22.005152 c -1.943694,0.1038 -4.639224,1.794908 -7.509278,6.104882 h 0.02736 l -8.138184,9.25645 -11.956056,-13.63173 c -2.96316,-2.349566 -11.8826,-0.543136 -7.461424,4.3035 L 43.443108,43.871296 25.816644,69.32995 c -4.762162,10.914154 0.948204,9.539382 4.453614,6.50823 1.521226,1.047446 3.046112,0.485684 4.566404,0.0068 0.175,-1.004562 0.348032,-1.993186 0.519532,-2.99775 -1.120308,0.69224 -1.924594,0.827608 -3.137696,0.690476 0.02606,-0.0485 0.06522,-0.09892 0.08886,-0.14698 l 15.168946,-24.90149 15.753416,18.04119 c 1.94075,0.491782 10.830064,-0.329244 6.080566,-6.043354 L 53.368874,42.309164 c 3.970624,-4.09445 8.597898,-8.975206 13.203612,-13.826568 2.15917,-3.39379 0.923306,-6.629158 -1.91748,-6.477464 z"
     style="fill:#333333;stroke-width:1.75005"
     id="path426"
     sodipodi:nodetypes="scccccccccccccccccss" />
  <path
     id="rect1994"
     style="fill:url(#linearGradient2180);fill-opacity:1;stroke-width:1.66667;stroke-linejoin:round"
     d="m 69.01349,39.31113 2.35702,2.35702 c 1.3058,1.305788 1.305796,3.408254 0,4.714046 l -28.284268,28.284272 -8.24958,1.178512 1.178512,-8.24958 28.28427,-28.28427 c 1.305794,-1.305794 3.40826,-1.305798 4.714046,0 z"
     sodipodi:nodetypes="ssscccss" />
</svg>
