<?xml version="1.0" encoding="UTF-8" standalone="no"?>
<!-- Created with Inkscape (http://www.inkscape.org/) -->

<svg
   width="96"
   height="96"
   viewBox="0 0 96 96"
   version="1.1"
   id="svg5"
   inkscape:version="1.2.1 (9c6d41e410, 2022-07-14)"
   sodipodi:docname="yast.svg"
   xmlns:inkscape="http://www.inkscape.org/namespaces/inkscape"
   xmlns:sodipodi="http://sodipodi.sourceforge.net/DTD/sodipodi-0.dtd"
   xmlns:xlink="http://www.w3.org/1999/xlink"
   xmlns="http://www.w3.org/2000/svg"
   xmlns:svg="http://www.w3.org/2000/svg">
  <sodipodi:namedview
     id="namedview7"
     pagecolor="#ffffff"
     bordercolor="#000000"
     borderopacity="0.25"
     inkscape:showpageshadow="2"
     inkscape:pageopacity="0.0"
     inkscape:pagecheckerboard="0"
     inkscape:deskcolor="#d1d1d1"
     inkscape:document-units="px"
     showgrid="false"
     inkscape:zoom="8.625"
     inkscape:cx="48"
     inkscape:cy="48"
     inkscape:window-width="1920"
     inkscape:window-height="1008"
     inkscape:window-x="0"
     inkscape:window-y="0"
     inkscape:window-maximized="1"
     inkscape:current-layer="svg5" />
  <defs
     id="defs2">
    <linearGradient
       inkscape:collect="always"
       xlink:href="#linearGradient4246"
       id="linearGradient4780"
       x1="2"
       y1="2"
       x2="30"
       y2="30"
       gradientUnits="userSpaceOnUse"
       gradientTransform="scale(3)" />
    <linearGradient
       inkscape:collect="always"
       id="linearGradient4246">
      <stop
         style="stop-color:#23aea1;stop-opacity:1;"
         offset="0"
         id="stop4242" />
      <stop
         style="stop-color:#49c77c;stop-opacity:1;"
         offset="1"
         id="stop4244" />
    </linearGradient>
  </defs>
  <path
     d="M 39,7 C 11.696429,7 6,12.819451 6,40 v 18 c 0,27.180549 5.696429,33 33,33 H 57 C 84.30357,91 90,85.180549 90,58 V 40 C 90,12.819451 84.30357,7 57,7"
     style="opacity:0.2;fill:#000000;stroke-width:3;stroke-linecap:round;stroke-linejoin:round"
     id="path563" />
  <path
     id="path530"
     style="fill:url(#linearGradient4780);fill-opacity:1;stroke-width:3;stroke-linecap:round;stroke-linejoin:round"
     d="M 39,6 C 11.696456,6 6,11.819478 6,39 v 18 c 0,27.180522 5.696456,33 33,33 H 57 C 84.303546,90 90,84.180522 90,57 V 39 C 90,11.819478 84.303546,6 57,6 Z" />
  <path
     d="m 27.781781,20.000009 2.556969,6.003015 6.251959,7.141032 c -2.027085,0.320064 -3.830122,0.864177 -5.530027,1.514979 -0.960201,0.462318 -1.877724,0.960195 -2.38983,1.973739 l -1.557654,2.759682 c -0.501441,1.013544 -1.564767,1.181091 -2.60676,2.002593 l -4.267545,3.332244 c 0.849948,0.41253 1.610997,0.953082 2.311587,1.593219 -0.753936,-0.416088 -1.48653,-0.853512 -2.364933,-1.084671 -0.611682,-0.09603 -1.216251,-0.08889 -1.77459,0.355629 -0.501438,0.416088 -0.444534,1.12023 -0.3414,1.778142 0.19203,1.017104 1.041993,1.920399 2.009304,2.60321 0.899742,0.401856 1.728357,0.19557 2.524965,-0.273842 0.689916,-0.640133 0.970863,-1.76392 0.885513,-3.300237 0.497874,-0.09246 0.38763,2.869923 0.476544,2.532078 0.04626,-0.18138 7.315287,-4.458351 9.239241,-4.910004 1.963067,-0.50499 5.025035,-0.0252 7.240604,-0.715215 1.376283,-0.440982 2.382711,-0.844074 3.236223,-2.156346 l -0.686368,1.458078 c -0.51317,0.829557 -1.317017,1.438149 -2.254686,1.707018 l -4.728485,13.129823 -0.0249,12.695949 -2.255869,3.200666 1.461631,-0.0498 1.557657,-2.059092 -1.145127,2.464512 c 0,0 7.493103,-0.501419 7.493103,-0.44808 0,0.0534 -2.31159,-15.185352 -2.31159,-15.185352 0,0 2.503629,-2.798799 2.556975,-2.837919 0.05334,-0.04266 11.558804,3.072634 11.558804,3.072634 l -1.401183,-1.653669 -1.152237,-0.636578 1.397625,0.462317 c 0,0 3.246891,3.933254 3.261114,3.990158 0.0141,0.0534 0.579681,-0.7077 0.579681,-0.7077 l -3.39981,13.798396 4.516485,1.539879 -0.1422,-2.108886 1.081113,2.617434 1.660782,0.11022 -1.123791,-2.72765 1.955961,2.375606 1.073997,-0.21336 -1.934619,-2.784576 2.258247,-13.442766 -2.603205,-2.05556 -2.016408,-2.702776 1.909716,1.94529 -2.069754,-2.948163 -0.16362,-3.894141 0.725487,3.353584 0.782373,-2.756127 -0.40542,3.218444 1.504311,3.300237 3.008622,2.240466 -0.057,0.5157 3.56946,-0.867741 1.529205,-3.456708 0.13158,-2.140887 0.2205,2.169336 c 0,0 -1.315824,3.186435 -1.315824,3.296679 0,0.10668 1.717683,-1.625223 1.717683,-1.625223 l -1.884834,2.219124 3.01218,5.434011 1.020657,5.924775 0.750375,-0.537 -0.16008,0.21336 -2.418276,3.157986 1.586103,-0.34494 0.615234,-0.974427 -0.27024,1.187805 0.565443,0.0282 -0.13158,1.298049 1.180689,-1.056219 0.881961,0.27378 0.27384,-1.575435 v 1.600329 l 0.828615,-0.16362 0.40182,1.351392 0.59034,-1.703463 1.155785,-0.0534 C 76.8977,64.424897 75.439619,57.131819 75.048431,48.767421 c -0.04286,-1.593219 -1.379841,-2.010126 -2.820144,-3.852285 -1.682151,-1.937904 -5.117523,-6.080982 -9.993192,-7.243887 -2.660103,-0.316512 -5.369994,0.11382 -8.321715,1.077552 -2.610318,0.764607 -5.305989,-1.774628 -8.236368,-0.369896 0.689919,1.1309 1.603887,2.240463 3.161541,3.556287 0.487212,0.476546 1.365615,0.608126 2.229792,0.54056 -0.597456,0.213391 -1.212693,0.391188 -1.856382,0.05334 -1.049106,-0.711244 -1.913283,-1.600318 -2.738343,-2.539177 -0.501981,-0.622923 -0.925953,-1.304859 -1.262484,-2.03064 -0.497882,-1.130901 0.08892,-2.567643 1.049106,-4.111071 0.871293,-1.070445 1.831488,-2.115993 3.783894,-2.866371 1.756806,-0.70059 3.520725,-1.401177 5.188623,-2.325813 1.884831,-1.223364 4.89345,-5.121057 6.493785,-7.845174 -4.360014,1.600332 -8.716464,2.880594 -13.051581,5.434011 -1.621668,1.113117 -3.211329,2.837916 -4.832999,4.623177 -0.689922,0.782382 -1.436742,1.514979 -2.418279,2.034195 -1.347831,0.721926 -2.276022,0.03558 -2.898372,-0.515658 C 37.560826,31.342619 36.706371,30.202145 35.975469,28.983188 35.015272,27.667361 34.008845,26.347976 32.536541,25.032152 30.843746,23.460269 29.318099,21.646559 27.781781,20 Z m 27.582579,4.313778 -3.840792,4.662294 2.606763,-0.903297 -5.24553,2.571198 z m -18.218873,9.733566 c 0.337851,-0.0072 0.675696,0 1.002876,0.03558 -2.123106,0.16359 -3.093972,0.529878 -4.936129,1.475853 0.675696,-0.515667 1.056217,-0.89974 2.272468,-1.31583 0.533442,-0.11733 1.098894,-0.18492 1.660785,-0.19557 z m 0.590343,2.930379 c 1.049103,0.0177 1.760364,0.480099 1.760364,0.480099 -2.325813,-0.625908 -3.602523,-0.10668 -4.598283,1.415403 -0.11733,-0.09603 0.66147,-1.418958 1.692795,-1.731912 0.41253,-0.12447 0.796608,-0.1707 1.145124,-0.16362 z m -0.17781,0.782388 c 0.220651,-0.0093 0.441612,0.0087 0.657912,0.05334 0.433866,0.15291 0.633018,0.476538 0.846396,0.782382 -0.45165,-0.398304 -0.917522,-0.711258 -1.482972,-0.565452 0.640134,0.07113 0.878403,0.472986 0.970869,0.999318 0.07824,0.707703 -0.529893,1.123788 -0.935307,1.184244 -0.405417,0.06048 -0.924633,-0.04266 -1.223364,-0.480096 -0.08538,-0.177808 -0.312954,-0.832171 0.0498,-1.298049 -0.396144,0.16116 -0.759969,0.392481 -1.074,0.682809 0.27384,-0.398304 0.608124,-0.711258 1.113117,-1.045548 0.328617,-0.190379 0.69819,-0.29892 1.077558,-0.316512 z m -17.16265,8.592396 c 0.54411,0.643689 1.074,1.262484 1.333611,2.11599 0.03558,0.789498 -0.312957,0.771717 -0.654357,0.768165 -0.28449,-0.0033 -0.825063,-0.327183 -0.650802,-0.590349 0.16821,-0.34173 0.23955,-0.723021 0.20628,-1.102452 z m -1.99152,0.19557 c 0.42675,0.448092 0.846396,0.74682 0.924633,1.372725 0.03204,0.14937 0.06048,0.519225 -0.23472,0.462321 -0.860625,-0.81438 -0.341406,-0.725472 -0.686367,-1.835037 z"
     style="fill:#ffffff;stroke-width:6"
     id="path2154"
     sodipodi:nodetypes="cccccccccccccccccccccccccccscccccccccccccccccccccccccccccccccsccccccccccccccccccccccccccccccccccccccccccccccccccccccccccccccccccccccccccccccccc" />
</svg>
