<?xml version="1.0" encoding="UTF-8" standalone="no"?>
<!-- Created with Inkscape (http://www.inkscape.org/) -->

<svg
   width="96"
   height="96"
   viewBox="0 0 96 96"
   version="1.1"
   id="svg5"
   inkscape:version="1.2.1 (9c6d41e410, 2022-07-14)"
   sodipodi:docname="youtube-music.svg"
   xmlns:inkscape="http://www.inkscape.org/namespaces/inkscape"
   xmlns:sodipodi="http://sodipodi.sourceforge.net/DTD/sodipodi-0.dtd"
   xmlns="http://www.w3.org/2000/svg"
   xmlns:svg="http://www.w3.org/2000/svg">
  <sodipodi:namedview
     id="namedview7"
     pagecolor="#ffffff"
     bordercolor="#000000"
     borderopacity="0.25"
     inkscape:showpageshadow="2"
     inkscape:pageopacity="0.0"
     inkscape:pagecheckerboard="0"
     inkscape:deskcolor="#d1d1d1"
     inkscape:document-units="px"
     showgrid="false"
     inkscape:zoom="8.3333333"
     inkscape:cx="47.94"
     inkscape:cy="48"
     inkscape:window-width="1920"
     inkscape:window-height="1006"
     inkscape:window-x="0"
     inkscape:window-y="0"
     inkscape:window-maximized="1"
     inkscape:current-layer="svg5" />
  <defs
     id="defs2" />
  <path
     d="m 39,7.000001 c -27.303571,0 -33,5.819451 -33,33 v 18 c 0,27.180548 5.696429,33 33,33 h 18 c 27.30357,0 33,-5.819452 33,-33 v -18 c 0,-27.180549 -5.69643,-33 -33,-33"
     style="opacity:0.2;fill:#000000;stroke-width:3;stroke-linecap:round;stroke-linejoin:round"
     id="path563" />
  <path
     id="path530"
     style="fill:#fafafa;fill-opacity:1;stroke-width:3;stroke-linecap:round;stroke-linejoin:round"
     d="m 39,6.000001 c -27.303544,0 -33,5.819478 -33,33 v 17.999998 c 0,27.180522 5.696456,33 33,33 H 56.999998 C 84.303544,89.999999 90,84.180521 90,56.999999 V 39.000001 c 0,-27.180522 -5.696456,-33 -33.000002,-33 z" />
  <circle
     style="fill:#ff0000;fill-opacity:1;stroke-width:3.75;stroke-linecap:round"
     id="path233"
     cx="48"
     cy="48.000004"
     r="30" />
  <path
     id="path12122"
     style="fill:#ffffff;fill-opacity:1;stroke-width:0.437594"
     d="m 48,28.000001 a 20,20 0 0 0 -20,20 20,20 0 0 0 20,20 20,20 0 0 0 20,-20 20,20 0 0 0 -20,-20 z m 0,4 a 16,16 0 0 1 16,16 16,16 0 0 1 -16,16 16,16 0 0 1 -16,-16 16,16 0 0 1 16,-16 z m -6,8 v 16 l 14,-8 z" />
</svg>
