<?xml version="1.0" encoding="UTF-8" standalone="no"?>
<!-- Created with Inkscape (http://www.inkscape.org/) -->

<svg
   width="96"
   height="96"
   viewBox="0 0 96 96"
   version="1.1"
   id="svg5"
   inkscape:version="1.2.2 (1:1.2.2+202305151914+b0a8486541)"
   sodipodi:docname="zanshin.svg"
   xmlns:inkscape="http://www.inkscape.org/namespaces/inkscape"
   xmlns:sodipodi="http://sodipodi.sourceforge.net/DTD/sodipodi-0.dtd"
   xmlns:xlink="http://www.w3.org/1999/xlink"
   xmlns="http://www.w3.org/2000/svg"
   xmlns:svg="http://www.w3.org/2000/svg">
  <sodipodi:namedview
     id="namedview7"
     pagecolor="#ffffff"
     bordercolor="#000000"
     borderopacity="0.25"
     inkscape:showpageshadow="2"
     inkscape:pageopacity="0.0"
     inkscape:pagecheckerboard="0"
     inkscape:deskcolor="#d1d1d1"
     inkscape:document-units="px"
     showgrid="false"
     inkscape:zoom="8.4375"
     inkscape:cx="47.940741"
     inkscape:cy="48"
     inkscape:window-width="1920"
     inkscape:window-height="1012"
     inkscape:window-x="0"
     inkscape:window-y="0"
     inkscape:window-maximized="1"
     inkscape:current-layer="svg5" />
  <defs
     id="defs2">
    <linearGradient
       inkscape:collect="always"
       xlink:href="#linearGradient1231"
       id="linearGradient4780"
       x1="30"
       y1="30"
       x2="2"
       y2="2"
       gradientUnits="userSpaceOnUse"
       gradientTransform="scale(3)" />
    <linearGradient
       inkscape:collect="always"
       id="linearGradient1231">
      <stop
         style="stop-color:#60acdb;stop-opacity:1;"
         offset="0"
         id="stop1227" />
      <stop
         style="stop-color:#158cba;stop-opacity:1;"
         offset="1"
         id="stop1229" />
    </linearGradient>
  </defs>
  <path
     d="M 39,7 C 11.696428,7 6,12.819451 6,40 v 18 c 0,27.180548 5.696428,33 33,33 H 57 C 84.30357,91 90,85.180548 90,58 V 40 C 90,12.819451 84.30357,7 57,7"
     style="opacity:0.2;fill:#000000;stroke-width:3;stroke-linecap:round;stroke-linejoin:round"
     id="path563" />
  <path
     id="path530"
     style="fill:url(#linearGradient4780);fill-opacity:1;stroke-width:3;stroke-linecap:round;stroke-linejoin:round"
     d="M 39,6 C 11.696456,6 6,11.819478 6,39 v 18 c 0,27.180522 5.696456,33 33,33 H 57 C 84.303546,90 90,84.180522 90,57 V 39 C 90,11.819478 84.303546,6 57,6 Z" />
  <path
     id="rect2730"
     style="opacity:0.4;fill:#ffffff;stroke-width:4.1404;stroke-linecap:round;stroke-linejoin:round"
     d="m 29,56 h 38 c 2.216,0 2.883422,2.085866 4,4 l 7,12 c 1.116578,1.914134 -1.784,4 -4,4 H 22 c -2.216,0 -5.116578,-2.085866 -4,-4 l 7,-12 c 1.116578,-1.914134 1.784,-4 4,-4 z"
     sodipodi:nodetypes="sssssssss" />
  <path
     id="path398"
     style="opacity:0.8;fill:#ffffff;stroke-width:12;stroke-linecap:round;stroke-linejoin:round"
     d="m 48,50 c 0,0 -0.658666,6.425256 -6,10 -2.122118,1.420248 -11.985,2.489514 -12,6 -0.0142,3.31367 8.058894,6 18,6 9.941106,0 18.0142,-2.68633 18,-6 C 65.985,62.489514 56.122118,61.420248 54,60 48.658666,56.425256 48,50 48,50 Z" />
  <circle
     style="opacity:0.8;fill:#ffffff;stroke-width:12;stroke-linecap:round;stroke-linejoin:round"
     id="path452"
     cx="48"
     cy="24"
     r="6" />
  <circle
     style="opacity:0.8;fill:#ffffff;stroke-width:8;stroke-linecap:round;stroke-linejoin:round"
     id="path626"
     cx="48"
     cy="40"
     r="4" />
</svg>
