<?xml version="1.0" encoding="UTF-8" standalone="no"?>
<svg
   width="16"
   height="16"
   version="1.1"
   id="svg2"
   sodipodi:docname="brightness-off-symbolic.svg"
   inkscape:version="1.4.2 (ebf0e940d0, 2025-05-08)"
   xmlns:inkscape="http://www.inkscape.org/namespaces/inkscape"
   xmlns:sodipodi="http://sodipodi.sourceforge.net/DTD/sodipodi-0.dtd"
   xmlns="http://www.w3.org/2000/svg"
   xmlns:svg="http://www.w3.org/2000/svg">
  <defs
     id="defs2">
     <style
        id="current-color-scheme"
        type="text/css">
        .ColorScheme-Text { color:#363636; }
        .ColorScheme-NeutralText { color:#f67400; }
        .ColorScheme-PositiveText { color:#37c837; }
        .ColorScheme-NegativeText { color:#f44336; }
        .ColorScheme-Highlight { color:#3daee9; }
     </style>
  </defs>
  <sodipodi:namedview
     id="namedview2"
     pagecolor="#ffffff"
     bordercolor="#000000"
     borderopacity="0.25"
     inkscape:showpageshadow="2"
     inkscape:pageopacity="0.0"
     inkscape:pagecheckerboard="0"
     inkscape:deskcolor="#d1d1d1"
     inkscape:zoom="49.6875"
     inkscape:cx="8"
     inkscape:cy="8"
     inkscape:window-width="1920"
     inkscape:window-height="1010"
     inkscape:window-x="0"
     inkscape:window-y="0"
     inkscape:window-maximized="1"
     inkscape:current-layer="svg2" />
  <path
     id="path1"
     style="fill:currentColor"
     class="ColorScheme-Text"
     d="M 8 1 C 7.72386 1 7.5 1.22386 7.5 1.5 L 7.5 2.5 C 7.5 2.77614 7.72386 3 8 3 C 8.27614 3 8.5 2.77614 8.5 2.5 L 8.5 1.5 C 8.5 1.22386 8.27614 1 8 1 z M 3.4042969 2.9042969 C 3.2763369 2.9042969 3.1484113 2.9531553 3.0507812 3.0507812 C 2.8555213 3.2460412 2.8555213 3.5625525 3.0507812 3.7578125 L 3.7578125 4.4648438 C 3.9530725 4.6601038 4.2695738 4.6601037 4.4648438 4.4648438 C 4.6601038 4.2695738 4.6601037 3.9530725 4.4648438 3.7578125 L 3.7578125 3.0507812 C 3.6601838 2.9531525 3.5322652 2.9042981 3.4042969 2.9042969 z M 12.595703 2.9042969 C 12.467743 2.9042969 12.339837 2.9531553 12.242188 3.0507812 L 11.535156 3.7578125 C 11.339956 3.9530725 11.339956 4.2695738 11.535156 4.4648438 C 11.730456 4.6601038 12.046988 4.6601037 12.242188 4.4648438 L 12.949219 3.7578125 C 13.144519 3.5625525 13.144519 3.2460412 12.949219 3.0507812 C 12.851619 2.9531512 12.723673 2.9042969 12.595703 2.9042969 z M 8 4 C 7.44553 4 6.9176 4.1124763 6.4375 4.3164062 L 7.2246094 5.1035156 C 7.4720894 5.0374406 7.73169 5 8 5 C 9.6568 5 11 6.3432 11 8 C 11 8.26831 10.962563 8.5279106 10.896484 8.7753906 L 11.683594 9.5625 C 11.887524 9.08244 12 8.5545 12 8 C 12 5.7909 10.2091 4 8 4 z M 5.5507812 4.84375 C 4.6087913 5.57556 4 6.7148 4 8 C 4 10.2091 5.7909 12 8 12 C 9.2852 12 10.42445 11.391229 11.15625 10.449219 L 10.443359 9.7363281 C 9.8995494 10.500138 9.0091 11 8 11 C 6.3432 11 5 9.6568 5 8 C 5 6.991 5.4998319 6.1004406 6.2636719 5.5566406 L 5.5507812 4.84375 z M 1.5 7.5 C 1.22386 7.5 1 7.72386 1 8 C 1 8.27614 1.22386 8.5 1.5 8.5 L 2.5 8.5 C 2.77614 8.5 3 8.27614 3 8 C 3 7.72386 2.77614 7.5 2.5 7.5 L 1.5 7.5 z M 13.5 7.5 C 13.2239 7.5 13 7.72386 13 8 C 13 8.27614 13.2239 8.5 13.5 8.5 L 14.5 8.5 C 14.7761 8.5 15 8.27614 15 8 C 15 7.72386 14.7761 7.5 14.5 7.5 L 13.5 7.5 z M 4.1113281 11.388672 C 3.9833681 11.388672 3.8554425 11.43756 3.7578125 11.535156 L 3.0507812 12.242188 C 2.8555212 12.437487 2.8555212 12.754019 3.0507812 12.949219 C 3.2460413 13.144519 3.5625525 13.144519 3.7578125 12.949219 L 4.4648438 12.242188 C 4.6601038 12.046988 4.6601038 11.730456 4.4648438 11.535156 C 4.36721 11.437558 4.2392965 11.388673 4.1113281 11.388672 z M 11.888672 11.388672 C 11.760712 11.388672 11.632806 11.43756 11.535156 11.535156 C 11.339956 11.730456 11.339956 12.046987 11.535156 12.242188 L 12.242188 12.949219 C 12.437487 13.144519 12.754019 13.144519 12.949219 12.949219 C 13.144519 12.754019 13.144519 12.437487 12.949219 12.242188 L 12.242188 11.535156 C 12.144588 11.437556 12.016642 11.388672 11.888672 11.388672 z M 8 13 C 7.72386 13 7.5 13.2239 7.5 13.5 L 7.5 14.5 C 7.5 14.7761 7.72386 15 8 15 C 8.27614 15 8.5 14.7761 8.5 14.5 L 8.5 13.5 C 8.5 13.2239 8.27614 13 8 13 z " />
  <path
     id="path2"
     style="fill:currentColor"
     class="ColorScheme-Text"
     d="M 1.2832031 0.78125 C 1.1553931 0.78125 1.0276225 0.8317525 0.9296875 0.9296875 C 0.7338175 1.1255575 0.7338175 1.4408488 0.9296875 1.6367188 L 14.363281 15.070312 C 14.559151 15.266182 14.874443 15.266182 15.070312 15.070312 C 15.266182 14.874443 15.266182 14.559151 15.070312 14.363281 L 1.6367188 0.9296875 C 1.5387837 0.8317525 1.4110131 0.78125 1.2832031 0.78125 z " />
</svg>
