<?xml version="1.0" encoding="UTF-8" standalone="no"?>
<svg
   width="16"
   height="16"
   version="1.1"
   id="svg2"
   sodipodi:docname="call-outgoing-symbolic.svg"
   inkscape:version="1.4.2 (ebf0e940d0, 2025-05-08)"
   xmlns:inkscape="http://www.inkscape.org/namespaces/inkscape"
   xmlns:sodipodi="http://sodipodi.sourceforge.net/DTD/sodipodi-0.dtd"
   xmlns="http://www.w3.org/2000/svg"
   xmlns:svg="http://www.w3.org/2000/svg">
  <defs
     id="defs2">
    <style
       id="current-color-scheme"
       type="text/css">
        .ColorScheme-Text { color:#363636; }
        .ColorScheme-NeutralText { color:#f67400; }
        .ColorScheme-PositiveText { color:#37c837; }
        .ColorScheme-NegativeText { color:#f44336; }
        .ColorScheme-Highlight { color:#3daee9; }
     </style>
  </defs>
  <sodipodi:namedview
     id="namedview2"
     pagecolor="#ffffff"
     bordercolor="#000000"
     borderopacity="0.25"
     inkscape:showpageshadow="2"
     inkscape:pageopacity="0.0"
     inkscape:pagecheckerboard="0"
     inkscape:deskcolor="#d1d1d1"
     inkscape:zoom="49.6875"
     inkscape:cx="8"
     inkscape:cy="8"
     inkscape:window-width="1920"
     inkscape:window-height="1010"
     inkscape:window-x="0"
     inkscape:window-y="0"
     inkscape:window-maximized="1"
     inkscape:current-layer="svg2" />
  <path
     id="path1"
     style="fill:currentColor"
     class="ColorScheme-Text"
     d="M 7.5,9 V 2.9140625 L 4.8183594,5.5957031 A 0.5,0.5 0 0 1 4.1113281,4.8886719 L 8,1 11.888672,4.8886719 A 0.5,0.5 0 1 1 11.181641,5.5957031 L 8.5,2.9140625 V 9 Z" />
  <path
     id="path2"
     style="fill:currentColor"
     class="ColorScheme-Text"
     d="M 5.640625 9.9765625 C 4.09375 10 1 10.375 1 13 L 1 14 C 1 15 2 15 2 15 L 4 15 C 4 15 5 15 5 14 L 5 13.5 C 5 12 7 12 7 12 L 9 12 C 9 12 11 12 11 13.5 L 11 14 C 11 15 12 15 12 15 L 14 15 C 14 15 15 15 15 14 L 15 13 C 15 9.5 9.5 10 9.5 10 L 6.5 10 C 6.5 10 6.15625 9.96875 5.640625 9.9765625 z " />
</svg>
