<?xml version="1.0" encoding="UTF-8" standalone="no"?>
<svg
   width="16"
   height="16"
   version="1.1"
   id="svg1"
   sodipodi:docname="checkbox-mixed-symbolic.svg"
   inkscape:version="1.4.2 (ebf0e940d0, 2025-05-08)"
   xmlns:inkscape="http://www.inkscape.org/namespaces/inkscape"
   xmlns:sodipodi="http://sodipodi.sourceforge.net/DTD/sodipodi-0.dtd"
   xmlns="http://www.w3.org/2000/svg"
   xmlns:svg="http://www.w3.org/2000/svg">
  <defs
     id="defs1">
    <style
       id="current-color-scheme"
       type="text/css">
        .ColorScheme-Text { color:#363636; }
        .ColorScheme-NeutralText { color:#f67400; }
        .ColorScheme-PositiveText { color:#37c837; }
        .ColorScheme-NegativeText { color:#f44336; }
        .ColorScheme-Highlight { color:#3daee9; }
     </style>
  </defs>
  <sodipodi:namedview
     id="namedview1"
     pagecolor="#ffffff"
     bordercolor="#000000"
     borderopacity="0.25"
     inkscape:showpageshadow="2"
     inkscape:pageopacity="0.0"
     inkscape:pagecheckerboard="0"
     inkscape:deskcolor="#d1d1d1"
     inkscape:zoom="49.6875"
     inkscape:cx="8"
     inkscape:cy="8"
     inkscape:window-width="1920"
     inkscape:window-height="1010"
     inkscape:window-x="0"
     inkscape:window-y="0"
     inkscape:window-maximized="1"
     inkscape:current-layer="svg1" />
  <path
     id="path1"
     style="fill:currentColor"
     class="ColorScheme-Text"
     d="M 3.4360469,1 C 2.0630469,1 0.938,2.1105156 0.938,3.4785156 V 12.521484 C 0.938,13.889484 2.0630469,15 3.4360469,15 h 9.1289061 c 1.373,0 2.498047,-1.110516 2.498047,-2.478516 V 3.4785156 C 15.063,2.1105156 13.937953,1 12.564953,1 Z m 0,0.9960938 h 9.1289061 c 0.844,0 1.501953,0.6534218 1.501953,1.4824218 v 9.0429684 c 0,0.829 -0.657953,1.482422 -1.501953,1.482422 H 3.4360469 A 1.477,1.477 0 0 1 1.9340938,12.521484 V 3.4785156 c 0,-0.829 0.6579531,-1.4824218 1.5019531,-1.4824218 z M 4.0005,7 v 2 h 8 V 7 Z" />
</svg>
