<?xml version="1.0" encoding="UTF-8" standalone="no"?>
<svg
   width="16"
   height="16"
   version="1.1"
   id="svg1"
   sodipodi:docname="night-light-disabled-symbolic.svg"
   inkscape:version="1.4.2 (ebf0e940d0, 2025-05-08)"
   xmlns:inkscape="http://www.inkscape.org/namespaces/inkscape"
   xmlns:sodipodi="http://sodipodi.sourceforge.net/DTD/sodipodi-0.dtd"
   xmlns="http://www.w3.org/2000/svg"
   xmlns:svg="http://www.w3.org/2000/svg">
  <defs
     id="defs1">
     <style
        id="current-color-scheme"
        type="text/css">
        .ColorScheme-Text { color:#363636; }
        .ColorScheme-NeutralText { color:#f67400; }
        .ColorScheme-PositiveText { color:#37c837; }
        .ColorScheme-NegativeText { color:#f44336; }
        .ColorScheme-Highlight { color:#3daee9; }
     </style>
  </defs>
  <sodipodi:namedview
     id="namedview1"
     pagecolor="#ffffff"
     bordercolor="#000000"
     borderopacity="0.25"
     inkscape:showpageshadow="2"
     inkscape:pageopacity="0.0"
     inkscape:pagecheckerboard="0"
     inkscape:deskcolor="#d1d1d1"
     inkscape:zoom="49.6875"
     inkscape:cx="8"
     inkscape:cy="8"
     inkscape:window-width="1920"
     inkscape:window-height="1010"
     inkscape:window-x="0"
     inkscape:window-y="0"
     inkscape:window-maximized="1"
     inkscape:current-layer="svg1" />
  <path
     id="path1"
     style="fill:currentColor;opacity:0.35"
     class="ColorScheme-Text"
     d="M 7.5 0 L 7.5 2 L 8.5 2 L 8.5 0 L 7.5 0 z M 2.6972656 1.9902344 L 1.9902344 2.6972656 L 3.4042969 4.1113281 L 4.1113281 3.4042969 L 2.6972656 1.9902344 z M 13.302734 1.9902344 L 11.888672 3.4042969 L 12.595703 4.1113281 L 14.011719 2.6972656 L 13.302734 1.9902344 z M 8 3 A 5 5 0 0 0 8 13 A 5 5 0 0 0 8 3 z M 6.9511719 4 A 3.589 3.589 0 0 0 6.2597656 7.1953125 A 3.596 3.596 0 0 0 10.662109 9.7382812 C 11.152109 9.6052813 11.608 9.367875 12 9.046875 A 4.084 4.084 0 0 1 9.1386719 11.861328 A 4.081 4.081 0 0 1 6.9511719 4 z M 0 7.5 L 0 8.5 L 2 8.5 L 2 7.5 L 0 7.5 z M 14 7.5 L 14 8.5 L 16 8.5 L 16 7.5 L 14 7.5 z M 3.4042969 11.888672 L 1.9902344 13.302734 L 2.6972656 14.009766 L 4.1113281 12.595703 L 3.4042969 11.888672 z M 12.595703 11.888672 L 11.888672 12.595703 L 13.302734 14.009766 L 14.009766 13.302734 L 12.595703 11.888672 z M 7.5 13.998047 L 7.5 15.998047 L 8.5 15.998047 L 8.5 13.998047 L 7.5 13.998047 z " />
  <rect
     transform="rotate(45)"
     x="1.3137"
     y="-.5"
     width="20"
     height="1"
     rx=".5"
     ry=".5"
     stroke-linecap="round"
     stroke-linejoin="round"
     stroke-width=".48307"
     style="fill:currentColor"
     class="ColorScheme-Text"
     id="rect1" />
</svg>
