<?xml version="1.0" encoding="UTF-8" standalone="no"?>
<svg
   height="22"
   width="22"
   version="1.1"
   id="svg1"
   sodipodi:docname="applications-multimedia-symbolic.svg"
   inkscape:version="1.4.2 (ebf0e940d0, 2025-05-08)"
   xmlns:inkscape="http://www.inkscape.org/namespaces/inkscape"
   xmlns:sodipodi="http://sodipodi.sourceforge.net/DTD/sodipodi-0.dtd"
   xmlns="http://www.w3.org/2000/svg"
   xmlns:svg="http://www.w3.org/2000/svg">
  <defs
     id="defs1">
    <style
       id="current-color-scheme"
       type="text/css">
        .ColorScheme-Text { color:#363636; }
        .ColorScheme-NeutralText { color:#f67400; }
        .ColorScheme-PositiveText { color:#37c837; }
        .ColorScheme-NegativeText { color:#f44336; }
        .ColorScheme-Highlight { color:#3daee9; }
     </style>
  </defs>
  <sodipodi:namedview
     id="namedview1"
     pagecolor="#ffffff"
     bordercolor="#000000"
     borderopacity="0.25"
     inkscape:showpageshadow="2"
     inkscape:pageopacity="0.0"
     inkscape:pagecheckerboard="0"
     inkscape:deskcolor="#d1d1d1"
     inkscape:zoom="36.136364"
     inkscape:cx="11"
     inkscape:cy="11"
     inkscape:window-width="1920"
     inkscape:window-height="1010"
     inkscape:window-x="0"
     inkscape:window-y="0"
     inkscape:window-maximized="1"
     inkscape:current-layer="svg1" />
  <path
     id="path1"
     style="fill:currentColor"
     class="ColorScheme-Text"
     d="M 9,3 C 8.446,3 8,3.446 8,4 v 8 c 0,0.554 0.446,1 1,1 h 8 c 0.554,0 1,-0.446 1,-1 V 4 C 18,3.446 17.554,3 17,3 Z m 4.261719,1.5 c 0.01666,-0.00148 0.03417,-0.00106 0.05273,0 0.129,-0.001 0.258172,0.041344 0.326172,0.1523438 0.052,0.308 0.157172,0.6118593 0.326172,0.8808593 0.168,0.35 0.490328,0.6091563 0.736328,0.9101563 0.696,0.85 0.654766,2.1174219 0.0098,2.9824216 -0.06,0.066 -0.115657,0.206735 -0.222657,0.177735 -0.04,-0.02 -0.09531,-0.06909 -0.07031,-0.121094 0.185,-0.425 0.317547,-0.8923751 0.310547,-1.3593751 0.012,-0.646 -0.486969,-1.1952813 -1.042969,-1.4882813 V 9.970703 c 0,0.749 -0.386687,1.326375 -1.054687,1.484375 -0.59,0.18 -1.306907,-0.213406 -1.378907,-0.816406 -0.05,-0.645 0.502094,-1.206094 1.121094,-1.371094 0.206,-0.06 0.442,-0.07706 0.625,-0.03906 V 5.0195312 C 12.970938,4.8179687 13.011838,4.5221558 13.261719,4.5 Z M 4.5,8 C 4.223,8 4,8.223 4,8.5 v 10 C 4,18.777 4.223,19 4.5,19 h 9 C 13.777,19 14,18.777 14,18.5 V 14 h -3 v 4 H 7 V 14 H 9 A 1.99,1.99 0 0 1 7.2753906,13 H 7 V 8 Z M 5,9 h 1 v 1 H 5 Z m 0,2 h 1 v 1 H 5 Z m 0,2 h 1 v 1 H 5 Z m 0,2 h 1 v 1 H 5 Z m 7,0 h 1 v 1 h -1 z m -7,2 h 1 v 1 H 5 Z m 7,0 h 1 v 1 h -1 z" />
</svg>
