<?xml version="1.0" encoding="UTF-8" standalone="no"?>
<svg
   width="22"
   height="22"
   version="1.1"
   id="svg1"
   sodipodi:docname="applications-graphics-symbolic.svg"
   inkscape:version="1.4.2 (ebf0e940d0, 2025-05-08)"
   xmlns:inkscape="http://www.inkscape.org/namespaces/inkscape"
   xmlns:sodipodi="http://sodipodi.sourceforge.net/DTD/sodipodi-0.dtd"
   xmlns="http://www.w3.org/2000/svg"
   xmlns:svg="http://www.w3.org/2000/svg">
  <defs
     id="defs1">
    <style
       id="current-color-scheme"
       type="text/css">
        .ColorScheme-Text { color:#363636; }
        .ColorScheme-NeutralText { color:#f67400; }
        .ColorScheme-PositiveText { color:#37c837; }
        .ColorScheme-NegativeText { color:#f44336; }
        .ColorScheme-Highlight { color:#3daee9; }
     </style>
  </defs>
  <sodipodi:namedview
     id="namedview1"
     pagecolor="#ffffff"
     bordercolor="#000000"
     borderopacity="0.25"
     inkscape:showpageshadow="2"
     inkscape:pageopacity="0.0"
     inkscape:pagecheckerboard="0"
     inkscape:deskcolor="#d1d1d1"
     inkscape:zoom="36.136364"
     inkscape:cx="11"
     inkscape:cy="11"
     inkscape:window-width="1920"
     inkscape:window-height="1010"
     inkscape:window-x="0"
     inkscape:window-y="0"
     inkscape:window-maximized="1"
     inkscape:current-layer="svg1" />
  <path
     id="path1"
     style="fill:currentColor"
     class="ColorScheme-Text"
     d="M 11,3 C 10.2604,3 9.549454,3.096356 8.8671875,3.2890625 8.1901342,3.4765625 7.5546842,3.74479 6.9609375,4.09375 c -0.5937467,0.3437467 -1.1354133,0.7604133 -1.625,1.25 -0.4843733,0.4843867 -0.90104,1.0234408 -1.25,1.6171875 C 3.7421842,7.5547375 3.4739567,8.1927333 3.28125,8.875 3.09375,9.557267 3,10.2656 3,11 c 0,0.27604 0.052083,0.536457 0.15625,0.78125 0.10938,0.23958 0.2526075,0.450519 0.4296875,0.632813 C 3.7682242,12.591149 3.9791633,12.734377 4.21875,12.84375 4.4635433,12.947917 4.72396,13 5,13 5.25,13 5.4713558,12.976562 5.6640625,12.929688 5.8567758,12.877608 6.0312533,12.815108 6.1875,12.742188 6.3437467,12.669268 6.48958,12.58854 6.625,12.5 6.76042,12.41146 6.8958367,12.330733 7.03125,12.257813 7.1718767,12.184894 7.31771,12.125 7.46875,12.078125 7.6249967,12.026042 7.80208,12 8,12 8.2708333,12 8.5286442,12.05469 8.7734375,12.164063 9.018231,12.268229 9.22917,12.411457 9.40625,12.59375 9.588543,12.77083 9.731771,12.98177 9.835938,13.226562 9.945311,13.471357 10,13.729167 10,14 10,14.197913 9.97396,14.374997 9.92187,14.53125 9.875,14.68229 9.815103,14.828123 9.742183,14.96875 9.669263,15.10417 9.588538,15.239587 9.499995,15.375 9.411455,15.510413 9.330724,15.656247 9.257808,15.8125 9.184888,15.968753 9.122391,16.143231 9.070308,16.335938 9.023438,16.523438 9,16.744793 9,17 c 0,0.27604 0.05208,0.536457 0.15625,0.78125 0.10938,0.23958 0.252608,0.450519 0.429688,0.632812 0.182286,0.177088 0.393225,0.320315 0.632812,0.429688 C 10.463543,18.947917 10.72396,19 11,19 c 0.7344,0 1.442733,-0.09375 2.125,-0.28125 0.68232,-0.192713 1.320316,-0.460941 1.914062,-0.804688 0.593762,-0.348959 1.132815,-0.765625 1.617188,-1.25 0.489587,-0.489585 0.906253,-1.031252 1.25,-1.625 C 18.25521,14.445264 18.523437,13.807267 18.710938,13.125 18.903643,12.442733 19,11.7344 19,11 19,10.2656 18.903644,9.557267 18.710938,8.875 18.523438,8.19268 18.25521,7.5546842 17.90625,6.9609375 17.562503,6.3671775 17.145837,5.8281233 16.65625,5.34375 16.171863,4.8541633 15.632809,4.4374967 15.039062,4.09375 14.445263,3.74479 13.807267,3.4765625 13.125,3.2890625 12.442733,3.0963558 11.7344,3 11,3 Z m 0,1 c 0.640653,0 1.257816,0.083333 1.851563,0.25 0.598973,0.1666667 1.156247,0.4036442 1.671875,0.7109375 0.520813,0.3021 0.994755,0.66665 1.421874,1.09375 0.427121,0.4271 0.79167,0.9010417 1.09375,1.421875 0.307295,0.51564 0.544271,1.072915 0.710938,1.6718755 C 17.916667,9.742198 18,10.35936 18,11 c 0,0.64064 -0.08333,1.260415 -0.25,1.859375 -0.166667,0.593767 -0.403644,1.151042 -0.710938,1.671875 -0.302099,0.515627 -0.666648,0.986956 -1.09375,1.414062 -0.427099,0.427107 -0.901042,0.79427 -1.421874,1.101563 -0.51564,0.30208 -1.072915,0.536458 -1.671875,0.703125 C 12.257789,17.916667 11.640627,18 11,18 10.85938,18 10.729168,17.97396 10.609375,17.92187 10.489582,17.86978 10.382809,17.799473 10.289063,17.710933 10.200523,17.617183 10.130208,17.510413 10.078125,17.39062 10.026042,17.270838 10,17.140627 10,17 c 0,-0.19792 0.02344,-0.372397 0.07031,-0.523438 0.05208,-0.156252 0.11458,-0.302085 0.1875,-0.4375 0.07292,-0.140625 0.153648,-0.276043 0.242188,-0.40625 0.08854,-0.135418 0.169268,-0.278647 0.242188,-0.429687 0.07292,-0.156253 0.132812,-0.330731 0.179687,-0.523437 C 10.973958,14.481766 11,14.255207 11,14 11.000013,13.58332 10.921892,13.192712 10.765625,12.828125 10.609358,12.463538 10.395813,12.145827 10.125,11.875 9.854187,11.604173 9.536475,11.390628 9.171875,11.234375 8.807275,11.078122 8.4166667,11 8,11 7.73958,11 7.5130192,11.026042 7.3203125,11.078125 7.1276058,11.124998 6.9531283,11.184893 6.796875,11.257813 6.6458283,11.330733 6.5026008,11.41146 6.3671875,11.5 c -0.1302067,0.08854 -0.2656233,0.169268 -0.40625,0.242188 -0.1354133,0.07292 -0.2812467,0.135416 -0.4375,0.1875 C 5.3723975,11.976562 5.19792,12 5,12 4.85938,12.000003 4.7291683,11.973962 4.609375,11.921875 4.4895817,11.869788 4.3828092,11.799478 4.2890625,11.710938 4.2005192,11.617184 4.1302083,11.510412 4.078125,11.390625 4.0260417,11.270838 4,11.140627 4,11 4,10.359347 4.0833333,9.742184 4.25,9.148438 4.4166667,8.5494642 4.651045,7.9921892 4.953125,7.4765625 5.2604183,6.9557492 5.6275808,6.4818075 6.0546875,6.0546875 6.4817942,5.6275675 6.9531233,5.2630175 7.46875,4.9609375 7.9896033,4.6536442 8.5468783,4.4166667 9.140625,4.25 9.739572,4.0833333 10.359347,4 11,4 Z M 10,6 A 1,1 0 0 0 9,7 1,1 0 0 0 10,8 1,1 0 0 0 11,7 1,1 0 0 0 10,6 Z m 4,1 A 1,1 0 0 0 13,8 1,1 0 0 0 14,9 1,1 0 0 0 15,8 1,1 0 0 0 14,7 Z M 7,8 A 1,1 0 0 0 6,9 1,1 0 0 0 7,10 1,1 0 0 0 8,9 1,1 0 0 0 7,8 Z m 8,3 a 1,1 0 0 0 -1,1 1,1 0 0 0 1,1 1,1 0 0 0 1,-1 1,1 0 0 0 -1,-1 z m -2,3 a 1,1 0 0 0 -1,1 1,1 0 0 0 1,1 1,1 0 0 0 1,-1 1,1 0 0 0 -1,-1 z" />
</svg>
