<?xml version="1.0" encoding="UTF-8" standalone="no"?>
<svg
   height="22"
   width="22"
   version="1.1"
   id="svg1"
   sodipodi:docname="bug-symbolic.svg"
   inkscape:version="1.4.2 (ebf0e940d0, 2025-05-08)"
   xmlns:inkscape="http://www.inkscape.org/namespaces/inkscape"
   xmlns:sodipodi="http://sodipodi.sourceforge.net/DTD/sodipodi-0.dtd"
   xmlns="http://www.w3.org/2000/svg"
   xmlns:svg="http://www.w3.org/2000/svg">
  <defs
     id="defs1">
    <style
       id="current-color-scheme"
       type="text/css">
        .ColorScheme-Text { color:#363636; }
        .ColorScheme-NeutralText { color:#f67400; }
        .ColorScheme-PositiveText { color:#37c837; }
        .ColorScheme-NegativeText { color:#f44336; }
        .ColorScheme-Highlight { color:#3daee9; }
     </style>
  </defs>
  <sodipodi:namedview
     id="namedview1"
     pagecolor="#ffffff"
     bordercolor="#000000"
     borderopacity="0.25"
     inkscape:showpageshadow="2"
     inkscape:pageopacity="0.0"
     inkscape:pagecheckerboard="0"
     inkscape:deskcolor="#d1d1d1"
     inkscape:zoom="36.136364"
     inkscape:cx="11"
     inkscape:cy="11"
     inkscape:window-width="1920"
     inkscape:window-height="1010"
     inkscape:window-x="0"
     inkscape:window-y="0"
     inkscape:window-maximized="1"
     inkscape:current-layer="svg1" />
  <path
     id="path1"
     style="fill:currentColor"
     class="ColorScheme-Text"
     d="m 6.9960844,3.998 v 0.00195 a 0.5,0.5 0 0 0 -0.5,0.5 0.5,0.5 0 0 0 0.5,0.5 v 0.00977 a 1.886,2.167 0 0 1 1.484375,1.109375 4,5 0 0 0 -1.265625,2.2695313 6.03,5 0 0 0 0.013672,0.00977 5.364,5.364 0 0 0 -2.7460937,2.7070317 c -1.2,2.639 -0.1360469,5.704609 2.3769531,6.849609 A 0.499,0.499 0 0 0 7.521475,17.706984 l 0.8925781,-1.960937 a 4,5.25 0 0 0 2.5820319,1.253906 4,5.25 0 0 0 2.589844,-1.253906 l 0.892578,1.960937 c 0.114,0.252 0.410109,0.363047 0.662109,0.248047 2.513,-1.144 3.577953,-4.209609 2.376953,-6.849609 a 5.365,5.365 0 0 0 -2.746094,-2.7089845 6.03,5 0 0 0 0.0078,-0.00391 4,5 0 0 0 -1.267565,-2.2675744 1.886,2.167 0 0 1 1.484375,-1.1152344 v -0.00977 a 0.5,0.5 0 0 0 0.5,-0.5 0.5,0.5 0 0 0 -0.5,-0.5 0.5,0.5 0 0 0 -0.169922,0.029297 A 2.886,3.167 0 0 0 12.720694,5.4921406 4,5 0 0 0 10.996085,4.9999531 4,5 0 0 0 9.2773346,5.4960469 2.886,3.167 0 0 0 7.1679594,4.02925 0.5,0.5 0 0 0 6.9960844,3.998 Z m 1.5527343,5.0625001 h 0.00195 a 6.03,5 0 0 0 1.6328133,0.386719 L 7.7460813,14.798781 6.8417844,16.787062 c -1.684,-1.056 -2.3442656,-3.296578 -1.4472657,-5.267578 A 4.295,4.295 0 0 1 7.5390531,9.3671411 c 0.084,-0.039 0.1718125,-0.06661 0.2578125,-0.09961 a 4.15,4.15 0 0 1 0.6816406,-0.19336 z m 4.9023443,0 0.04687,0.0078 c 0.273,0.05 0.541781,0.129375 0.800781,0.234375 0.047,0.019 0.09462,0.03369 0.140625,0.05469 a 4.296,4.296 0 0 1 2.166016,2.1621089 c 0.897,1.971 0.236734,4.212531 -1.447266,5.269531 l -0.90625,-1.996093 -2.435547,-5.3457029 a 6.03,5 0 0 0 1.634766,-0.386719 z" />
</svg>
