<?xml version="1.0" encoding="UTF-8" standalone="no"?>
<!-- Created with Inkscape (http://www.inkscape.org/) -->

<svg
   width="128"
   height="128"
   viewBox="0 0 128 128.00001"
   version="1.1"
   id="svg5"
   inkscape:version="1.2.2 (1:1.2.2+202305151914+b0a8486541)"
   sodipodi:docname="application-vnd.ms-word.template.macroenabled.12.svg"
   xmlns:inkscape="http://www.inkscape.org/namespaces/inkscape"
   xmlns:sodipodi="http://sodipodi.sourceforge.net/DTD/sodipodi-0.dtd"
   xmlns:xlink="http://www.w3.org/1999/xlink"
   xmlns="http://www.w3.org/2000/svg"
   xmlns:svg="http://www.w3.org/2000/svg">
  <sodipodi:namedview
     id="namedview7"
     pagecolor="#ffffff"
     bordercolor="#000000"
     borderopacity="0.25"
     inkscape:showpageshadow="2"
     inkscape:pageopacity="0.0"
     inkscape:pagecheckerboard="0"
     inkscape:deskcolor="#d1d1d1"
     inkscape:document-units="px"
     showgrid="false"
     inkscape:zoom="6.171875"
     inkscape:cx="63.918987"
     inkscape:cy="64"
     inkscape:window-width="1920"
     inkscape:window-height="1012"
     inkscape:window-x="0"
     inkscape:window-y="0"
     inkscape:window-maximized="1"
     inkscape:current-layer="svg5"
     showguides="false" />
  <defs
     id="defs2">
    <linearGradient
       inkscape:collect="always"
       id="linearGradient879">
      <stop
         style="stop-color:#115abe;stop-opacity:1;"
         offset="0"
         id="stop875" />
      <stop
         style="stop-color:#277dd4;stop-opacity:1;"
         offset="1"
         id="stop877" />
    </linearGradient>
    <linearGradient
       inkscape:collect="always"
       xlink:href="#linearGradient879"
       id="linearGradient2461"
       x1="28"
       y1="8"
       x2="100"
       y2="120"
       gradientUnits="userSpaceOnUse" />
    <linearGradient
       inkscape:collect="always"
       xlink:href="#linearGradient879"
       id="linearGradient2463"
       x1="28"
       y1="8"
       x2="100"
       y2="120"
       gradientUnits="userSpaceOnUse" />
    <linearGradient
       inkscape:collect="always"
       xlink:href="#linearGradient879"
       id="linearGradient2465"
       x1="28"
       y1="8"
       x2="100"
       y2="120"
       gradientUnits="userSpaceOnUse" />
    <linearGradient
       inkscape:collect="always"
       xlink:href="#linearGradient1214"
       id="linearGradient1432"
       x1="45.999996"
       y1="63.999825"
       x2="110.001"
       y2="121.99911"
       gradientUnits="userSpaceOnUse" />
    <linearGradient
       inkscape:collect="always"
       id="linearGradient1214">
      <stop
         style="stop-color:#d3d3db;stop-opacity:1;"
         offset="0"
         id="stop1210" />
      <stop
         style="stop-color:#eaeaee;stop-opacity:1;"
         offset="1"
         id="stop1212" />
    </linearGradient>
  </defs>
  <path
     id="rect234"
     style="opacity:0.2;stroke-width:2;stroke-linecap:round;stroke-linejoin:round"
     d="m 28,9 h 48 l 32,32 v 72 c 0,4.432 -3.568,8 -8,8 H 28 c -4.432,0 -8,-3.568 -8,-8 V 17 c 0,-4.432 3.568,-8 8,-8 z"
     sodipodi:nodetypes="sccssssss" />
  <path
     id="rect448"
     style="fill:url(#linearGradient2461);fill-opacity:1;stroke-width:2;stroke-linecap:round;stroke-linejoin:round"
     d="m 28,8 h 48 l 12,20 20,12 v 72 c 0,4.432 -3.568,8 -8,8 H 28 c -4.432,0 -8,-3.568 -8,-8 V 16 c 0,-4.432 3.568,-8 8,-8 z"
     sodipodi:nodetypes="scccssssss" />
  <rect
     style="opacity:0.25;fill:#ffffff;fill-opacity:1;stroke-width:7.0912;stroke-linejoin:bevel"
     id="rect25302"
     width="43.999996"
     height="56"
     x="46"
     y="52"
     ry="3.9999983" />
  <path
     id="rect29937"
     style="opacity:0.5;fill:#ffffff;fill-opacity:1;stroke-width:13.2665;stroke-linejoin:bevel"
     d="M 46.00001,80 V 94 H 89.999988 V 80 Z"
     sodipodi:nodetypes="ccccc" />
  <path
     id="path29903"
     style="opacity:0.7;fill:#ffffff;fill-opacity:1;stroke-width:7.0912;stroke-linejoin:bevel"
     d="m 46.000008,94 v 10 c 0,0 1.401714,3.99998 3.142856,3.99998 H 86.85715 C 88.598288,107.99998 90,106.21598 90,104 V 94 Z"
     sodipodi:nodetypes="csccscc" />
  <path
     id="rect28337"
     style="opacity:0.3;fill:#ffffff;fill-opacity:1;stroke-width:13.2665;stroke-linejoin:bevel"
     d="M 46.000006,66 V 80 H 89.999988 V 66 Z"
     sodipodi:nodetypes="ccccc" />
  <rect
     style="fill:url(#linearGradient2463);fill-opacity:1;stroke-width:4"
     id="rect3242"
     width="36"
     height="36"
     x="28"
     y="62"
     ry="6" />
  <rect
     style="fill:#ffffff;fill-opacity:1;stroke-width:1.99999"
     id="rect2687"
     width="32"
     height="32"
     x="30"
     y="63.999825"
     ry="3.9999988" />
  <path
     id="rect3454"
     style="fill:url(#linearGradient2465);fill-opacity:1;stroke-width:1.99999"
     d="m 31.999998,68.000002 6.000004,23.999994 h 3.999996 L 46,75.999994 50,91.999996 h 4 l 6,-23.999994 h -4 l -4,16.000006 -4,-16.00001 h -4.000002 l -3.999996,16.00001 -4,-16.00001 z" />
  <path
     d="M 108,41 H 84 c -4.432,0 -8,-3.568 -8,-8 V 8 l 32,32 z"
     style="opacity:0.2;fill:#000000;stroke-width:2;stroke-linecap:round;stroke-linejoin:round"
     id="path611"
     sodipodi:nodetypes="cssccc" />
  <path
     id="rect600"
     style="fill:#59aded;fill-opacity:1;stroke-width:2;stroke-linecap:round;stroke-linejoin:round"
     d="M 108,40 H 84 c -4.432,0 -8,-3.568 -8,-8 V 8 l 16,16 z"
     sodipodi:nodetypes="cssccc" />
  <path
     d="m 105.80562,71.006527 c -0.70967,0.0336 -1.40999,0.248609 -2.02346,0.656258 L 39.789532,115.67088 c -3.291229,2.1959 -1.737754,7.32675 2.218783,7.32823 h 63.992625 c 2.20907,-2.2e-4 3.99983,-1.79098 4.00005,-4.00006 V 74.998774 c -0.002,-1.475005 -0.81588,-2.829131 -2.11721,-3.523489 -0.64944,-0.347529 -1.36848,-0.502558 -2.07816,-0.468758 z m -5.80488,14.992087 V 112.99824 H 61.001287 Z"
     style="color:#000000;opacity:0.2;fill:#000000;stroke-width:8.00012;stroke-linecap:round;stroke-linejoin:round"
     id="path5222"
     sodipodi:nodetypes="ccccccccccccc" />
  <path
     id="path5201"
     style="color:#000000;fill:url(#linearGradient1432);fill-opacity:1;stroke-width:8.00012;stroke-linecap:round;stroke-linejoin:round"
     d="m 105.80563,70.006532 c -0.70967,0.0336 -1.40999,0.2486 -2.02347,0.656268 l -63.992618,44.00808 c -3.291229,2.19591 -1.737764,7.32674 2.218783,7.32823 h 63.992615 c 2.20908,-2.2e-4 3.99984,-1.79099 4.00006,-4.00006 V 73.99878 c -0.002,-1.475006 -0.81588,-2.829141 -2.11722,-3.523489 -0.64944,-0.347519 -1.36848,-0.502548 -2.07815,-0.468759 z m -5.80488,14.992073 V 111.99942 H 61.001297 Z"
     sodipodi:nodetypes="ccccccccccccc" />
</svg>
