<?xml version="1.0" encoding="UTF-8" standalone="no"?>
<!-- Created with Inkscape (http://www.inkscape.org/) -->

<svg
   width="128"
   height="128"
   viewBox="0 0 128 128.00001"
   version="1.1"
   id="svg5"
   inkscape:version="1.2.2 (1:1.2.2+202305151914+b0a8486541)"
   sodipodi:docname="application-x-trash.svg"
   xmlns:inkscape="http://www.inkscape.org/namespaces/inkscape"
   xmlns:sodipodi="http://sodipodi.sourceforge.net/DTD/sodipodi-0.dtd"
   xmlns:xlink="http://www.w3.org/1999/xlink"
   xmlns="http://www.w3.org/2000/svg"
   xmlns:svg="http://www.w3.org/2000/svg">
  <sodipodi:namedview
     id="namedview7"
     pagecolor="#ffffff"
     bordercolor="#000000"
     borderopacity="0.25"
     inkscape:showpageshadow="2"
     inkscape:pageopacity="0.0"
     inkscape:pagecheckerboard="0"
     inkscape:deskcolor="#d1d1d1"
     inkscape:document-units="px"
     showgrid="false"
     inkscape:zoom="6.171875"
     inkscape:cx="63.918987"
     inkscape:cy="64"
     inkscape:window-width="1920"
     inkscape:window-height="1012"
     inkscape:window-x="0"
     inkscape:window-y="0"
     inkscape:window-maximized="1"
     inkscape:current-layer="svg5" />
  <defs
     id="defs2">
    <linearGradient
       inkscape:collect="always"
       id="linearGradient899">
      <stop
         style="stop-color:#dddddd;stop-opacity:1;"
         offset="0"
         id="stop895" />
      <stop
         style="stop-color:#eeeeee;stop-opacity:1;"
         offset="1"
         id="stop897" />
    </linearGradient>
    <linearGradient
       inkscape:collect="always"
       xlink:href="#linearGradient899"
       id="linearGradient18790"
       x1="28"
       y1="8"
       x2="100"
       y2="120"
       gradientUnits="userSpaceOnUse" />
  </defs>
  <path
     id="rect234"
     style="opacity:0.2;stroke-width:2;stroke-linecap:round;stroke-linejoin:round"
     d="m 28,9 h 48 l 32,32 v 72 c 0,4.432 -3.568,8 -8,8 H 28 c -4.432,0 -8,-3.568 -8,-8 V 17 c 0,-4.432 3.568,-8 8,-8 z"
     sodipodi:nodetypes="sccssssss" />
  <path
     id="rect448"
     style="fill:url(#linearGradient18790);fill-opacity:1;stroke-width:2;stroke-linecap:round;stroke-linejoin:round"
     d="m 28,8 h 48 l 12,20 20,12 v 72 c 0,4.432 -3.568,8 -8,8 H 28 c -4.432,0 -8,-3.568 -8,-8 V 16 c 0,-4.432 3.568,-8 8,-8 z"
     sodipodi:nodetypes="scccssssss" />
  <path
     id="rect289"
     style="fill:#747474;fill-opacity:1;stroke-width:5.65684"
     d="m 58,60 v 4 H 46 c -1.108,0 -2,0.892 -2,2 v 2 h 40 v -2 c 0,-1.108 -0.892,-2 -2,-2 H 70 V 60 Z M 48,72 v 32 c 0,2.216 1.784004,4 4,4 h 24 c 2.215996,0 4,-1.784 4,-4 V 72 Z"
     sodipodi:nodetypes="ccssccssccccsssscc" />
  <path
     d="M 108,41 H 84 c -4.432,0 -8,-3.568 -8,-8 V 8 l 32,32 z"
     style="opacity:0.2;fill:#000000;stroke-width:2;stroke-linecap:round;stroke-linejoin:round"
     id="path611"
     sodipodi:nodetypes="cssccc" />
  <path
     id="rect600"
     style="fill:#f8f8f8;fill-opacity:1;stroke-width:2;stroke-linecap:round;stroke-linejoin:round"
     d="M 108,40 H 84 c -4.432,0 -8,-3.568 -8,-8 V 8 l 16,16 z"
     sodipodi:nodetypes="cssccc" />
</svg>
