<?xml version="1.0" encoding="UTF-8" standalone="no"?>
<!-- Created with Inkscape (http://www.inkscape.org/) -->

<svg
   width="128"
   height="128"
   viewBox="0 0 128 128.00001"
   version="1.1"
   id="svg5"
   inkscape:version="1.2.1 (9c6d41e410, 2022-07-14)"
   sodipodi:docname="application-vnd.oasis.opendocument.database.svg"
   xmlns:inkscape="http://www.inkscape.org/namespaces/inkscape"
   xmlns:sodipodi="http://sodipodi.sourceforge.net/DTD/sodipodi-0.dtd"
   xmlns="http://www.w3.org/2000/svg"
   xmlns:svg="http://www.w3.org/2000/svg">
  <sodipodi:namedview
     id="namedview7"
     pagecolor="#ffffff"
     bordercolor="#000000"
     borderopacity="0.25"
     inkscape:showpageshadow="2"
     inkscape:pageopacity="0.0"
     inkscape:pagecheckerboard="0"
     inkscape:deskcolor="#d1d1d1"
     inkscape:document-units="px"
     showgrid="false"
     inkscape:zoom="6.25"
     inkscape:cx="63.84"
     inkscape:cy="64"
     inkscape:window-width="1920"
     inkscape:window-height="1011"
     inkscape:window-x="0"
     inkscape:window-y="0"
     inkscape:window-maximized="1"
     inkscape:current-layer="svg5" />
  <defs
     id="defs2" />
  <path
     id="rect234"
     style="opacity:0.2;stroke-width:2;stroke-linecap:round;stroke-linejoin:round"
     d="M 28,8.9999994 H 76 L 108,41 v 72 c 0,4.432 -3.568,8 -8,8 H 28 c -4.432,0 -8,-3.568 -8,-8 V 17 c 0,-4.432 3.568,-8.0000006 8,-8.0000006 z"
     sodipodi:nodetypes="sccssssss" />
  <path
     id="rect448"
     style="fill:#cd5794;fill-opacity:1;stroke-width:2;stroke-linecap:round;stroke-linejoin:round"
     d="M 28,8.0000006 H 76 L 88,28 108,40 v 72 c 0,4.432 -3.568,8 -8,8 H 28 c -4.432,0 -8,-3.568 -8,-8 V 16 c 0,-4.432 3.568,-7.9999994 8,-7.9999994 z"
     sodipodi:nodetypes="scccssssss" />
  <path
     d="M 108,41 H 84 c -4.432,0 -8,-3.568 -8,-8 V 8 l 32,32 z"
     style="opacity:0.2;fill:#000000;stroke-width:2;stroke-linecap:round;stroke-linejoin:round"
     id="path611"
     sodipodi:nodetypes="cssccc" />
  <path
     id="rect600"
     style="fill:#f5a8de;fill-opacity:1;stroke-width:2;stroke-linecap:round;stroke-linejoin:round"
     d="M 108,40 H 84 c -4.432,0 -8,-3.568 -8,-8 V 8.0000006 L 92,24 Z"
     sodipodi:nodetypes="cssccc" />
  <path
     id="path935"
     style="fill:#ffffff;stroke-width:16.0997;stroke-linecap:round;stroke-linejoin:round"
     d="M 64,52 A 24,12 0 0 0 40,64 24,12 0 0 0 64,76 24,12 0 0 0 88,64 24,12 0 0 0 64,52 Z M 85.234376,74.406252 A 28,16 0 0 1 64,79.999996 28,16 0 0 1 42.804688,74.4375 24,12 0 0 0 40,79.999996 a 24,12 0 0 0 24,12 24,12 0 0 0 24,-12 24,12 0 0 0 -2.765624,-5.593744 z m -0.0236,15.984368 A 28,16 0 0 1 64,95.999996 28,16 0 0 1 42.8125,90.406248 24,12 0 0 0 40,95.999996 24,12 0 0 0 64,108 24,12 0 0 0 88,95.999996 24,12 0 0 0 85.210936,90.39062 Z" />
</svg>
