<?xml version="1.0" encoding="UTF-8" standalone="no"?>
<!-- Created with Inkscape (http://www.inkscape.org/) -->

<svg
   width="128"
   height="128"
   viewBox="0 0 128 128.00001"
   version="1.1"
   id="svg5"
   inkscape:version="1.2.2 (1:1.2.2+202305151914+b0a8486541)"
   sodipodi:docname="application-vnd.ms-powerpoint.svg"
   xmlns:inkscape="http://www.inkscape.org/namespaces/inkscape"
   xmlns:sodipodi="http://sodipodi.sourceforge.net/DTD/sodipodi-0.dtd"
   xmlns:xlink="http://www.w3.org/1999/xlink"
   xmlns="http://www.w3.org/2000/svg"
   xmlns:svg="http://www.w3.org/2000/svg">
  <sodipodi:namedview
     id="namedview7"
     pagecolor="#ffffff"
     bordercolor="#000000"
     borderopacity="0.25"
     inkscape:showpageshadow="2"
     inkscape:pageopacity="0.0"
     inkscape:pagecheckerboard="0"
     inkscape:deskcolor="#d1d1d1"
     inkscape:document-units="px"
     showgrid="false"
     inkscape:zoom="6.171875"
     inkscape:cx="63.918987"
     inkscape:cy="64"
     inkscape:window-width="1920"
     inkscape:window-height="1012"
     inkscape:window-x="0"
     inkscape:window-y="0"
     inkscape:window-maximized="1"
     inkscape:current-layer="svg5"
     showguides="false" />
  <defs
     id="defs2">
    <linearGradient
       inkscape:collect="always"
       id="linearGradient1865">
      <stop
         style="stop-color:#d04423;stop-opacity:1;"
         offset="0"
         id="stop1861" />
      <stop
         style="stop-color:#e16c4c;stop-opacity:1;"
         offset="1"
         id="stop1863" />
    </linearGradient>
    <linearGradient
       inkscape:collect="always"
       xlink:href="#linearGradient1865"
       id="linearGradient2586"
       x1="28"
       y1="8"
       x2="100"
       y2="120"
       gradientUnits="userSpaceOnUse" />
    <linearGradient
       inkscape:collect="always"
       xlink:href="#linearGradient1865"
       id="linearGradient2594"
       x1="28"
       y1="8"
       x2="100"
       y2="120"
       gradientUnits="userSpaceOnUse" />
    <linearGradient
       inkscape:collect="always"
       xlink:href="#linearGradient1865"
       id="linearGradient2602"
       x1="28"
       y1="8"
       x2="100"
       y2="120"
       gradientUnits="userSpaceOnUse" />
  </defs>
  <path
     id="rect234"
     style="opacity:0.2;stroke-width:2;stroke-linecap:round;stroke-linejoin:round"
     d="m 28,9 h 48 l 32,32 v 72 c 0,4.432 -3.568,8 -8,8 H 28 c -4.432,0 -8,-3.568 -8,-8 V 17 c 0,-4.432 3.568,-8 8,-8 z"
     sodipodi:nodetypes="sccssssss" />
  <path
     id="rect448"
     style="fill:url(#linearGradient2586);fill-opacity:1;stroke-width:2;stroke-linecap:round;stroke-linejoin:round"
     d="m 28,8 h 48 l 12,20 20,12 v 72 c 0,4.432 -3.568,8 -8,8 H 28 c -4.432,0 -8,-3.568 -8,-8 V 16 c 0,-4.432 3.568,-8 8,-8 z"
     sodipodi:nodetypes="scccssssss" />
  <circle
     style="opacity:0.3;fill:#ffffff;fill-opacity:1;stroke-width:18.6667;stroke-linejoin:bevel"
     id="path31463"
     cx="68"
     cy="80"
     r="27.999992" />
  <path
     id="path31465"
     style="opacity:0.7;fill:#ffffff;fill-opacity:1;stroke-width:14;stroke-linejoin:bevel"
     d="M 40,79.999992 A 27.999994,27.999994 0 0 0 67.999992,107.99999 27.999994,27.999994 0 0 0 95.999993,79.999992 H 67.999992 Z" />
  <path
     id="path31759"
     style="opacity:0.5;fill:#ffffff;fill-opacity:1;stroke-width:14;stroke-linejoin:bevel"
     d="M 67.999992,52 A 27.999992,27.999994 0 0 0 39.999998,79.999992 h 27.999994 z" />
  <rect
     style="fill:url(#linearGradient2602);fill-opacity:1;stroke-width:4"
     id="rect3242"
     width="36"
     height="36"
     x="28"
     y="62"
     ry="6" />
  <rect
     style="fill:#ffffff;fill-opacity:1;stroke-width:1.99999"
     id="rect2687"
     width="32"
     height="32"
     x="30"
     y="63.999825"
     ry="3.9999988" />
  <path
     id="rect4291"
     style="fill:url(#linearGradient2594);fill-opacity:1;stroke-width:2"
     d="M 37.999998,68.000004 V 92 h 4 v -7.999998 h 4 a 7.9999998,7.9999998 0 0 0 8,-7.999998 7.9999998,7.9999998 0 0 0 -8,-8 h -4 z m 4,4 h 4 a 3.9999998,3.9999998 0 0 1 4,4 3.9999998,3.9999998 0 0 1 -4,3.999996 h -4 z" />
  <path
     d="M 108,41 H 84 c -4.432,0 -8,-3.568 -8,-8 V 8 l 32,32 z"
     style="opacity:0.2;fill:#000000;stroke-width:2;stroke-linecap:round;stroke-linejoin:round"
     id="path611"
     sodipodi:nodetypes="cssccc" />
  <path
     id="rect600"
     style="fill:#f2beb2;fill-opacity:1;stroke-width:2;stroke-linecap:round;stroke-linejoin:round"
     d="M 108,40 H 84 c -4.432,0 -8,-3.568 -8,-8 V 8 l 16,16 z"
     sodipodi:nodetypes="cssccc" />
</svg>
