<?xml version="1.0" encoding="UTF-8" standalone="no"?>
<!-- Created with Inkscape (http://www.inkscape.org/) -->

<svg
   width="128"
   height="128"
   viewBox="0 0 128 128.00001"
   version="1.1"
   id="svg5"
   inkscape:version="1.2.2 (1:1.2.2+202305151914+b0a8486541)"
   sodipodi:docname="application-vnd.ms-publisher.svg"
   xmlns:inkscape="http://www.inkscape.org/namespaces/inkscape"
   xmlns:sodipodi="http://sodipodi.sourceforge.net/DTD/sodipodi-0.dtd"
   xmlns:xlink="http://www.w3.org/1999/xlink"
   xmlns="http://www.w3.org/2000/svg"
   xmlns:svg="http://www.w3.org/2000/svg">
  <sodipodi:namedview
     id="namedview7"
     pagecolor="#ffffff"
     bordercolor="#000000"
     borderopacity="0.25"
     inkscape:showpageshadow="2"
     inkscape:pageopacity="0.0"
     inkscape:pagecheckerboard="0"
     inkscape:deskcolor="#d1d1d1"
     inkscape:document-units="px"
     showgrid="false"
     inkscape:zoom="6.328125"
     inkscape:cx="63.920988"
     inkscape:cy="64"
     inkscape:window-width="1920"
     inkscape:window-height="1012"
     inkscape:window-x="0"
     inkscape:window-y="0"
     inkscape:window-maximized="1"
     inkscape:current-layer="svg5" />
  <defs
     id="defs2">
    <linearGradient
       inkscape:collect="always"
       xlink:href="#linearGradient6578"
       id="linearGradient2801"
       x1="14.000001"
       y1="4"
       x2="50"
       y2="60.000004"
       gradientUnits="userSpaceOnUse"
       gradientTransform="matrix(2,0,0,2,-2e-6,-2.1e-6)" />
    <linearGradient
       inkscape:collect="always"
       xlink:href="#linearGradient6578"
       id="linearGradient2817"
       x1="14.000001"
       y1="4"
       x2="50"
       y2="60.000004"
       gradientUnits="userSpaceOnUse"
       gradientTransform="matrix(2,0,0,2,-2e-6,-2.1e-6)" />
    <linearGradient
       inkscape:collect="always"
       id="linearGradient6578">
      <stop
         style="stop-color:#00757a;stop-opacity:1;"
         offset="0"
         id="stop6574" />
      <stop
         style="stop-color:#00abb2;stop-opacity:1;"
         offset="1"
         id="stop6576" />
    </linearGradient>
    <linearGradient
       inkscape:collect="always"
       xlink:href="#linearGradient6578"
       id="linearGradient4185"
       x1="14.000001"
       y1="4"
       x2="50"
       y2="60.000004"
       gradientUnits="userSpaceOnUse"
       gradientTransform="matrix(2,0,0,2,-2e-6,-2.1e-6)" />
  </defs>
  <path
     id="rect234"
     style="opacity:0.2;stroke-width:2;stroke-linecap:round;stroke-linejoin:round"
     d="M 28,8.9999979 H 75.999998 L 108,41 v 72 c 0,4.432 -3.568,8 -8,8 H 28 c -4.432,0 -8,-3.568 -8,-8 V 16.999998 c 0,-4.432 3.568,-8.0000001 8,-8.0000001 z"
     sodipodi:nodetypes="sccssssss" />
  <path
     id="rect448"
     style="fill:url(#linearGradient2801);fill-opacity:1;stroke-width:2;stroke-linecap:round;stroke-linejoin:round"
     d="M 28,7.9999981 H 75.999998 L 88,28 108,40 v 72 c 0,4.432 -3.568,8 -8,8 H 28 c -4.432,0 -8,-3.568 -8,-8 V 15.999998 c 0,-4.432 3.568,-7.9999999 8,-7.9999999 z"
     sodipodi:nodetypes="scccssssss" />
  <rect
     style="opacity:0.25;fill:#ffffff;fill-opacity:1;stroke-width:7.0912;stroke-linejoin:bevel"
     id="rect25302"
     width="40"
     height="56"
     x="46"
     y="51.999996"
     ry="3.9999983" />
  <path
     id="rect29937"
     style="opacity:0.5;fill:#ffffff;fill-opacity:1;stroke-width:13.2665;stroke-linejoin:bevel"
     d="m 46.00001,79.999998 v 14 h 39.999978 v -14 z"
     sodipodi:nodetypes="ccccc" />
  <path
     id="path29903"
     style="opacity:0.7;fill:#ffffff;fill-opacity:1;stroke-width:7.0912;stroke-linejoin:bevel"
     d="M 46.000008,93.999998 V 104 c 0,0 1.401714,3.99998 3.142856,3.99998 H 82.85715 C 84.598288,107.99998 86,106.21598 86,104 V 93.999998 Z"
     sodipodi:nodetypes="csccscc" />
  <path
     d="M 108,41 H 83.999998 c -4.432,0 -8,-3.568 -8,-8.000002 V 7.9999981 L 108,40 Z"
     style="opacity:0.2;fill:#000000;stroke-width:2;stroke-linecap:round;stroke-linejoin:round"
     id="path611"
     sodipodi:nodetypes="cssccc" />
  <path
     id="rect600"
     style="fill:#70c6ca;fill-opacity:1;stroke-width:2;stroke-linecap:round;stroke-linejoin:round"
     d="M 108,40 H 83.999998 c -4.432,0 -8,-3.568 -8,-8.000002 V 7.9999981 Z"
     sodipodi:nodetypes="csscc" />
  <rect
     style="fill:url(#linearGradient2817);fill-opacity:1;stroke-width:4"
     id="rect3242"
     width="36"
     height="36"
     x="27.999996"
     y="61.999992"
     ry="6" />
  <rect
     style="fill:#ffffff;fill-opacity:1;stroke-width:1.99999"
     id="rect2687"
     width="32"
     height="32"
     x="29.999996"
     y="63.999825"
     ry="3.9999988" />
  <path
     id="rect4291"
     style="fill:url(#linearGradient4185);fill-opacity:1;stroke-width:2"
     d="m 37.999998,67.999998 v 23.999996 h 4 v -7.999998 h 4 a 7.9999998,7.9999998 0 0 0 8,-7.999998 7.9999998,7.9999998 0 0 0 -8,-8 h -4 z m 4,4 h 4 a 3.9999998,3.9999998 0 0 1 4,4 3.9999998,3.9999998 0 0 1 -4,3.999996 h -4 z" />
  <path
     id="rect422"
     style="opacity:0.6;fill:#ffffff;fill-opacity:1;stroke-width:4"
     d="m 85.999994,57.999998 h 3.999998 c 2.216002,0 4.000002,1.784 4.000002,4.000002 v 36.000012 c 0,2.215998 -1.784,3.999998 -4.000002,3.999998 h -3.999998 z"
     sodipodi:nodetypes="csssscc" />
</svg>
