<?xml version="1.0" encoding="UTF-8" standalone="no"?>
<!-- Created with Inkscape (http://www.inkscape.org/) -->

<svg
   width="128"
   height="128"
   viewBox="0 0 128 128.00001"
   version="1.1"
   id="svg5"
   inkscape:version="1.2.2 (1:1.2.2+202305151914+b0a8486541)"
   sodipodi:docname="x-office-spreadsheet-template.svg"
   xmlns:inkscape="http://www.inkscape.org/namespaces/inkscape"
   xmlns:sodipodi="http://sodipodi.sourceforge.net/DTD/sodipodi-0.dtd"
   xmlns:xlink="http://www.w3.org/1999/xlink"
   xmlns="http://www.w3.org/2000/svg"
   xmlns:svg="http://www.w3.org/2000/svg">
  <sodipodi:namedview
     id="namedview7"
     pagecolor="#ffffff"
     bordercolor="#000000"
     borderopacity="0.25"
     inkscape:showpageshadow="2"
     inkscape:pageopacity="0.0"
     inkscape:pagecheckerboard="0"
     inkscape:deskcolor="#d1d1d1"
     inkscape:document-units="px"
     showgrid="false"
     inkscape:zoom="6.171875"
     inkscape:cx="64.081013"
     inkscape:cy="64"
     inkscape:window-width="1920"
     inkscape:window-height="1012"
     inkscape:window-x="0"
     inkscape:window-y="0"
     inkscape:window-maximized="1"
     inkscape:current-layer="svg5" />
  <defs
     id="defs2">
    <linearGradient
       inkscape:collect="always"
       id="linearGradient871">
      <stop
         style="stop-color:#4ba41c;stop-opacity:1;"
         offset="0"
         id="stop867" />
      <stop
         style="stop-color:#8ed64e;stop-opacity:1;"
         offset="1"
         id="stop869" />
    </linearGradient>
    <linearGradient
       inkscape:collect="always"
       xlink:href="#linearGradient871"
       id="linearGradient3065"
       x1="14"
       y1="4"
       x2="50"
       y2="60"
       gradientUnits="userSpaceOnUse"
       gradientTransform="scale(2)" />
    <linearGradient
       inkscape:collect="always"
       xlink:href="#linearGradient1214"
       id="linearGradient1432"
       x1="45.999996"
       y1="63.999825"
       x2="110.001"
       y2="121.99911"
       gradientUnits="userSpaceOnUse" />
    <linearGradient
       inkscape:collect="always"
       id="linearGradient1214">
      <stop
         style="stop-color:#d3d3db;stop-opacity:1;"
         offset="0"
         id="stop1210" />
      <stop
         style="stop-color:#eaeaee;stop-opacity:1;"
         offset="1"
         id="stop1212" />
    </linearGradient>
  </defs>
  <path
     id="rect234"
     style="opacity:0.2;stroke-width:2;stroke-linecap:round;stroke-linejoin:round"
     d="m 28,9 h 48 l 32,32 v 72 c 0,4.432 -3.568,8 -8,8 H 28 c -4.432,0 -8,-3.568 -8,-8 V 17 c 0,-4.432 3.568,-8 8,-8 z"
     sodipodi:nodetypes="sccssssss" />
  <path
     id="rect448"
     style="fill:url(#linearGradient3065);fill-opacity:1;stroke-width:2;stroke-linecap:round;stroke-linejoin:round"
     d="m 28,8 h 48 l 12,20 20,12 v 72 c 0,4.432 -3.568,8 -8,8 H 28 c -4.432,0 -8,-3.568 -8,-8 V 16 c 0,-4.432 3.568,-8 8,-8 z"
     sodipodi:nodetypes="scccssssss" />
  <path
     id="rect1373"
     style="fill:#ffffff;stroke-width:4.32048;stroke-linecap:round;stroke-linejoin:round"
     d="m 42,60 c -2.209138,0 -4,1.790862 -4,4 v 28 c 0,2.209138 1.790862,4 4,4 h 44 c 2.209138,0 4,-1.790862 4,-4 V 64 c 0,-2.209138 -1.790862,-4 -4,-4 z m 0,4 H 62 V 76 H 42 Z m 24,0 H 86 V 76 H 66 Z M 42,80 H 62 V 92 H 42 Z m 24,0 H 86 V 92 H 66 Z"
     sodipodi:nodetypes="ssssssssscccccccccccccccccccc" />
  <path
     d="M 108,41 H 84 c -4.432,0 -8,-3.568 -8,-8 V 8 l 32,32 z"
     style="opacity:0.2;fill:#000000;stroke-width:2;stroke-linecap:round;stroke-linejoin:round"
     id="path611"
     sodipodi:nodetypes="cssccc" />
  <path
     id="rect600"
     style="fill:#8fde85;fill-opacity:1;stroke-width:2;stroke-linecap:round;stroke-linejoin:round"
     d="M 108,40 H 84 c -4.432,0 -8,-3.568 -8,-8 V 8 l 16,16 z"
     sodipodi:nodetypes="cssccc" />
  <path
     d="m 105.80562,71.006527 c -0.70967,0.0336 -1.40999,0.248609 -2.02346,0.656258 L 39.789532,115.67088 c -3.291229,2.1959 -1.737754,7.32675 2.218783,7.32823 h 63.992625 c 2.20907,-2.2e-4 3.99983,-1.79098 4.00005,-4.00006 V 74.998774 c -0.002,-1.475005 -0.81588,-2.829131 -2.11721,-3.523489 -0.64944,-0.347529 -1.36848,-0.502558 -2.07816,-0.468758 z m -5.80488,14.992087 V 112.99824 H 61.001287 Z"
     style="color:#000000;opacity:0.2;fill:#000000;stroke-width:8.00012;stroke-linecap:round;stroke-linejoin:round"
     id="path5222"
     sodipodi:nodetypes="ccccccccccccc" />
  <path
     id="path5201"
     style="color:#000000;fill:url(#linearGradient1432);fill-opacity:1;stroke-width:8.00012;stroke-linecap:round;stroke-linejoin:round"
     d="m 105.80563,70.006532 c -0.70967,0.0336 -1.40999,0.2486 -2.02347,0.656268 l -63.992618,44.00808 c -3.291229,2.19591 -1.737764,7.32674 2.218783,7.32823 h 63.992615 c 2.20908,-2.2e-4 3.99984,-1.79099 4.00006,-4.00006 V 73.99878 c -0.002,-1.475006 -0.81588,-2.829141 -2.11722,-3.523489 -0.64944,-0.347519 -1.36848,-0.502548 -2.07815,-0.468759 z m -5.80488,14.992073 V 111.99942 H 61.001297 Z"
     sodipodi:nodetypes="ccccccccccccc" />
</svg>
