<?xml version="1.0" encoding="UTF-8" standalone="no"?>
<!-- Created with Inkscape (http://www.inkscape.org/) -->

<svg
   width="16"
   height="16"
   viewBox="0 0 16 16.000001"
   version="1.1"
   id="svg1"
   inkscape:version="1.4.3 (0d15f75042, 2025-12-25)"
   sodipodi:docname="com.github.wwmm.easyeffects-symbolic.svg"
   xmlns:inkscape="http://www.inkscape.org/namespaces/inkscape"
   xmlns:sodipodi="http://sodipodi.sourceforge.net/DTD/sodipodi-0.dtd"
   xmlns="http://www.w3.org/2000/svg"
   xmlns:svg="http://www.w3.org/2000/svg">
  <sodipodi:namedview
     id="namedview1"
     pagecolor="#ffffff"
     bordercolor="#000000"
     borderopacity="0.25"
     inkscape:showpageshadow="2"
     inkscape:pageopacity="0.0"
     inkscape:pagecheckerboard="0"
     inkscape:deskcolor="#d1d1d1"
     inkscape:document-units="px"
     inkscape:zoom="50.625"
     inkscape:cx="8"
     inkscape:cy="8"
     inkscape:window-width="1920"
     inkscape:window-height="1012"
     inkscape:window-x="0"
     inkscape:window-y="0"
     inkscape:window-maximized="1"
     inkscape:current-layer="svg1" />
  <defs
     id="defs1">
     <style id="current-color-scheme" type="text/css">
        .ColorScheme-Text { color:#f2f2f2; }
     </style>
  </defs>
  <path
     id="path1"
     style="fill:currentColor"
     class="ColorScheme-Text"
     d="M 2.5,2 C 2.223,2 2,2.223 2,2.5 V 5.0859375 C 1.417404,5.2918557 1,5.8468904 1,6.5 1,7.153109 1.417404,7.708143 2,7.914062 V 13.5 C 2,13.777 2.223,14 2.5,14 2.777,14 3,13.777 3,13.5 V 7.914062 C 3.582596,7.708144 4,7.153109 4,6.5 4,5.8468904 3.582596,5.2918557 3,5.0859375 V 2.5 C 3,2.223 2.777,2 2.5,2 Z m 5,0 C 7.223,2 7,2.223 7,2.5 V 8.085938 C 6.417404,8.291856 6,8.846891 6,9.5 c 0,0.653109 0.417404,1.208145 1,1.414062 V 13.5 C 7,13.777 7.223,14 7.5,14 7.777,14 8,13.777 8,13.5 V 10.914062 C 8.582596,10.708145 9,10.153109 9,9.5 9,8.846891 8.582596,8.291855 8,8.085938 V 2.5 C 8,2.223 7.777,2 7.5,2 Z m 5,0 C 12.223,2 12,2.223 12,2.5 V 6.085938 C 11.417404,6.291856 11,6.846891 11,7.5 c 0,0.653109 0.417404,1.208145 1,1.414062 V 13.5 c 0,0.277 0.223,0.5 0.5,0.5 0.277,0 0.5,-0.223 0.5,-0.5 V 8.914062 C 13.582596,8.708145 14,8.153109 14,7.5 14,6.846891 13.582596,6.291855 13,6.085938 V 2.5 C 13,2.223 12.777,2 12.5,2 Z" />
</svg>
