<?xml version="1.0" encoding="UTF-8" standalone="no"?>
<svg
   width="16"
   height="16"
   version="1.1"
   id="svg1"
   sodipodi:docname="google-chrome-symbolic.svg"
   inkscape:version="1.4.2 (ebf0e940d0, 2025-05-08)"
   xmlns:inkscape="http://www.inkscape.org/namespaces/inkscape"
   xmlns:sodipodi="http://sodipodi.sourceforge.net/DTD/sodipodi-0.dtd"
   xmlns="http://www.w3.org/2000/svg"
   xmlns:svg="http://www.w3.org/2000/svg">
  <defs
     id="defs1">
     <style
        id="current-color-scheme"
        type="text/css">
        .ColorScheme-Text { color:#f2f2f2; }
     </style>
  </defs>
  <sodipodi:namedview
     id="namedview1"
     pagecolor="#ffffff"
     bordercolor="#000000"
     borderopacity="0.25"
     inkscape:showpageshadow="2"
     inkscape:pageopacity="0.0"
     inkscape:pagecheckerboard="0"
     inkscape:deskcolor="#d1d1d1"
     inkscape:zoom="49.6875"
     inkscape:cx="8"
     inkscape:cy="8"
     inkscape:window-width="1920"
     inkscape:window-height="1010"
     inkscape:window-x="0"
     inkscape:window-y="0"
     inkscape:window-maximized="1"
     inkscape:current-layer="svg1" />
  <path
     id="path1"
     style="fill:currentColor"
     class="ColorScheme-Text"
     d="M 8 0 A 8 8 0 0 0 0 8 A 8 8 0 0 0 8 16 A 8 8 0 0 0 16 8 A 8 8 0 0 0 8 0 z M 8 1 A 7 7 0 0 1 13.742188 4 L 8 4 C 6.0956 4.0007039 4.4557781 5.3440375 4.0800781 7.2109375 L 2.2460938 4.0332031 A 7 7 0 0 1 8 1 z M 8 5 C 9.6569 5 11 6.3431 11 8 C 11 9.6569 9.6569 11 8 11 C 6.3431 11 5 9.6569 5 8 C 5 6.3431 6.3431 5 8 5 z M 10.638672 5 L 14.322266 5 A 7 7 0 0 1 15 8 A 7 7 0 0 1 8.6054688 14.953125 L 11.464844 10 L 11.460938 10 C 11.813118 9.39223 11.99904 8.7024 12 8 C 11.998209 6.8509 11.502272 5.758 10.638672 5 z M 1.671875 5.0410156 L 4.5351562 10 L 4.5410156 10 C 5.2546356 11.236 6.5728 11.9982 8 12 C 8.43507 11.999728 8.8671669 11.928482 9.2792969 11.789062 L 7.4472656 14.957031 A 7 7 0 0 1 1 8 A 7 7 0 0 1 1.671875 5.0410156 z " />
</svg>
