<?xml version="1.0" encoding="UTF-8" standalone="no"?>
<svg
   height="16"
   width="16"
   version="1.1"
   id="svg12"
   sodipodi:docname="jockey-symbolic.svg"
   inkscape:version="1.4.2 (ebf0e940d0, 2025-05-08)"
   xmlns:inkscape="http://www.inkscape.org/namespaces/inkscape"
   xmlns:sodipodi="http://sodipodi.sourceforge.net/DTD/sodipodi-0.dtd"
   xmlns="http://www.w3.org/2000/svg"
   xmlns:svg="http://www.w3.org/2000/svg">
  <defs
     id="defs12">
     <style
        id="current-color-scheme"
        type="text/css">
        .ColorScheme-Text { color:#f2f2f2; }
        .ColorScheme-NeutralText { color:#f67400; }
        .ColorScheme-PositiveText { color:#37c837; }
        .ColorScheme-NegativeText { color:#f44336; }
        .ColorScheme-Highlight { color:#3daee9; }
     </style>
  </defs>
  <sodipodi:namedview
     id="namedview12"
     pagecolor="#ffffff"
     bordercolor="#000000"
     borderopacity="0.25"
     inkscape:showpageshadow="2"
     inkscape:pageopacity="0.0"
     inkscape:pagecheckerboard="0"
     inkscape:deskcolor="#d1d1d1"
     inkscape:zoom="49.75"
     inkscape:cx="7.9899497"
     inkscape:cy="8"
     inkscape:window-width="1920"
     inkscape:window-height="1011"
     inkscape:window-x="0"
     inkscape:window-y="0"
     inkscape:window-maximized="1"
     inkscape:current-layer="svg12" />
  <path
     id="path1"
     style="fill:currentColor;fill-opacity:1"
     class="ColorScheme-Text"
     d="M 4.5 0 C 4.223 0 4 0.223 4 0.5 L 4 2 C 2.892 2 2 2.892 2 4 L 0.5 4 C 0.223 4 0 4.223 0 4.5 L 0 5.5 C 0 5.777 0.223 6 0.5 6 L 2 6 L 2 7 L 0.5 7 C 0.223 7 0 7.223 0 7.5 L 0 8.5 C 0 8.777 0.223 9 0.5 9 L 2 9 L 2 10 L 0.5 10 C 0.223 10 0 10.223 0 10.5 L 0 11.5 C 0 11.777 0.223 12 0.5 12 L 2 12 C 2 13.108 2.892 14 4 14 L 4 15.5 C 4 15.777 4.223 16 4.5 16 L 5.5 16 C 5.777 16 6 15.777 6 15.5 L 6 14 L 7 14 L 7 15.5 C 7 15.777 7.223 16 7.5 16 L 8.5 16 C 8.777 16 9 15.777 9 15.5 L 9 14 L 10 14 L 10 15.5 C 10 15.777 10.223 16 10.5 16 L 11.5 16 C 11.777 16 12 15.777 12 15.5 L 12 14 C 13.108 14 14 13.108 14 12 L 15.5 12 C 15.777 12 16 11.777 16 11.5 L 16 10.5 C 16 10.223 15.777 10 15.5 10 L 14 10 L 14 9 L 15.5 9 C 15.777 9 16 8.777 16 8.5 L 16 7.5 C 16 7.223 15.777 7 15.5 7 L 14 7 L 14 6 L 15.5 6 C 15.777 6 16 5.777 16 5.5 L 16 4.5 C 16 4.223 15.777 4 15.5 4 L 14 4 C 14 2.892 13.108 2 12 2 L 12 0.5 C 12 0.223 11.777 0 11.5 0 L 10.5 0 C 10.223 0 10 0.223 10 0.5 L 10 2 L 9 2 L 9 0.5 C 9 0.223 8.777 0 8.5 0 L 7.5 0 C 7.223 0 7 0.223 7 0.5 L 7 2 L 6 2 L 6 0.5 C 6 0.223 5.777 0 5.5 0 L 4.5 0 z M 4.5 3 L 11.5 3 C 12.331 3 13 3.669 13 4.5 L 13 5.5 L 13 11.5 C 13 12.331 12.331 13 11.5 13 L 4.5 13 C 3.669 13 3 12.331 3 11.5 L 3 8.5 L 3 7.5 L 3 5.5 L 3 4.5 C 3 3.669 3.669 3 4.5 3 z M 4.5 4 C 4.223 4 4 4.223 4 4.5 L 4 11.5 C 4 11.777 4.223 12 4.5 12 L 11.5 12 C 11.777 12 12 11.777 12 11.5 L 12 4.5 C 12 4.223 11.777 4 11.5 4 L 4.5 4 z M 5 5 L 11 5 L 11 11 L 5 11 L 5 5 z " />
</svg>
