<?xml version="1.0" encoding="UTF-8" standalone="no"?>
<svg
   width="16"
   height="16"
   fill="none"
   version="1.1"
   viewBox="0 0 16 16"
   id="svg1"
   sodipodi:docname="kate-symbolic.svg"
   inkscape:version="1.4.2 (ebf0e940d0, 2025-05-08)"
   xmlns:inkscape="http://www.inkscape.org/namespaces/inkscape"
   xmlns:sodipodi="http://sodipodi.sourceforge.net/DTD/sodipodi-0.dtd"
   xmlns="http://www.w3.org/2000/svg"
   xmlns:svg="http://www.w3.org/2000/svg">
  <defs
     id="defs1">
    <style
       id="current-color-scheme"
       type="text/css">
        .ColorScheme-Text { color:#f2f2f2; }
     </style>
  </defs>
  <sodipodi:namedview
     id="namedview1"
     pagecolor="#ffffff"
     bordercolor="#000000"
     borderopacity="0.25"
     inkscape:showpageshadow="2"
     inkscape:pageopacity="0.0"
     inkscape:pagecheckerboard="0"
     inkscape:deskcolor="#d1d1d1"
     inkscape:zoom="49.6875"
     inkscape:cx="8"
     inkscape:cy="8"
     inkscape:window-width="1920"
     inkscape:window-height="1010"
     inkscape:window-x="0"
     inkscape:window-y="0"
     inkscape:window-maximized="1"
     inkscape:current-layer="svg1" />
  <path
     id="path1"
     style="fill:currentColor"
     class="ColorScheme-Text"
     d="M 7 1.5 C 5.6841 1.5 4.5114669 1.9570756 3.5917969 2.5097656 C 2.6740969 3.0612656 1.979655 3.72465 1.609375 4.1875 L 0.79296875 5.2070312 L 2.0820312 4.9921875 C 2.5450312 4.9150175 3.261725 4.8719088 3.890625 4.9804688 C 4.365445 5.0624387 4.6888569 5.21036 4.8730469 5.40625 C 4.2960869 6.00065 3.6687112 6.919325 3.3945312 7.859375 C 3.2313413 8.418875 3.179015 9.0379281 3.390625 9.6113281 C 3.609125 10.203328 4.0812431 10.671644 4.8144531 10.964844 C 6.4392531 11.614744 7.7658544 12.460206 8.6777344 13.253906 C 9.1342744 13.651306 9.4765919 14.027809 9.7011719 14.349609 C 9.7652519 14.441509 9.8166919 14.523656 9.8574219 14.597656 L 10.021484 15.144531 L 11 15 C 11 14.7434 10.916709 14.47775 10.787109 14.21875 L 9.796875 10.919922 C 10.324375 11.145722 10.909984 11.368097 11.458984 11.529297 C 11.927984 11.666897 12.403894 11.770291 12.808594 11.775391 C 13.171194 11.779891 13.706566 11.703956 13.947266 11.222656 L 14.140625 10.837891 L 9.6523438 7.6972656 C 9.7799737 7.6337456 9.9060237 7.5624081 10.027344 7.4863281 C 10.503344 7.1876981 10.968231 6.7842825 11.394531 6.3515625 C 12.246931 5.4861625 12.992828 4.455235 13.423828 3.765625 L 14.101562 2.6816406 L 7.9355469 4.3632812 C 7.9429369 3.8612312 8.140155 3.5672025 8.359375 3.3828125 C 8.687245 3.1069925 9.15879 3 9.5 3 L 9.7226562 2.0527344 C 9.2575563 1.8202044 8.7012269 1.6840187 8.2167969 1.6054688 C 7.7275069 1.5261187 7.27644 1.5 7 1.5 z M 7 2.5 C 7.1772 2.5 7.4646387 2.5135375 7.7929688 2.5546875 C 7.7670587 2.5746375 7.7401338 2.5959175 7.7148438 2.6171875 C 7.1113938 3.1247875 6.7788156 3.9429562 7.0097656 5.0976562 L 7.1152344 5.6230469 L 11.802734 4.3457031 C 11.471234 4.7800831 11.088241 5.2356975 10.681641 5.6484375 C 10.287051 6.0490475 9.8816006 6.3956319 9.4941406 6.6386719 C 9.1007906 6.8854019 8.76701 7 8.5 7 L 7 7 L 7 8 L 8.3417969 8 L 12.177734 10.685547 C 12.041434 10.654747 11.894534 10.615713 11.740234 10.570312 C 10.870634 10.315123 9.8744262 9.8786144 9.2226562 9.5527344 L 8.1875 9.0351562 L 9.1914062 12.378906 C 8.1995063 11.545506 6.8285469 10.692256 5.1855469 10.035156 C 4.6687569 9.8284062 4.432555 9.5466419 4.328125 9.2636719 C 4.216825 8.9620619 4.2269888 8.581125 4.3554688 8.140625 C 4.6155687 7.248725 5.3038019 6.3266462 5.8261719 5.8789062 L 6.0800781 5.6601562 L 5.9746094 5.3417969 C 5.6816094 4.4628969 4.7991669 4.1216406 4.0605469 3.9941406 C 3.8133369 3.9514606 3.5588469 3.9289019 3.3105469 3.9199219 C 3.5455669 3.7326319 3.8128419 3.5422644 4.1074219 3.3652344 C 4.9210219 2.8762644 5.9158 2.5 7 2.5 z " />
</svg>
