<?xml version="1.0" encoding="UTF-8" standalone="no"?>
<svg
   width="16px"
   height="16px"
   version="1.1"
   viewBox="0 0 16 16"
   id="svg3"
   sodipodi:docname="org.gnome.Settings-removable-media-symbolic.svg"
   inkscape:version="1.4.2 (ebf0e940d0, 2025-05-08)"
   xmlns:inkscape="http://www.inkscape.org/namespaces/inkscape"
   xmlns:sodipodi="http://sodipodi.sourceforge.net/DTD/sodipodi-0.dtd"
   xmlns="http://www.w3.org/2000/svg"
   xmlns:svg="http://www.w3.org/2000/svg">
  <defs
     id="defs3">
     <style
        id="current-color-scheme"
        type="text/css">
        .ColorScheme-Text { color:#f2f2f2; }
     </style>
  </defs>
  <sodipodi:namedview
     id="namedview3"
     pagecolor="#ffffff"
     bordercolor="#000000"
     borderopacity="0.25"
     inkscape:showpageshadow="2"
     inkscape:pageopacity="0.0"
     inkscape:pagecheckerboard="0"
     inkscape:deskcolor="#d1d1d1"
     inkscape:zoom="49.75"
     inkscape:cx="7.9899497"
     inkscape:cy="8"
     inkscape:window-width="1920"
     inkscape:window-height="1011"
     inkscape:window-x="0"
     inkscape:window-y="0"
     inkscape:window-maximized="1"
     inkscape:current-layer="svg3" />
  <path
     id="path1"
     style="fill:currentColor"
     class="ColorScheme-Text"
     d="M 4 0 L 4 4 C 2.892 4 2 4.892 2 6 L 2 10 C 2 13.324 4.676 16 8 16 C 11.324 16 14 13.324 14 10 L 14 6 C 14 4.892 13.108 4 12 4 L 12 0 L 4 0 z M 5 1 L 11 1 L 11 4 L 5 4 L 5 1 z M 6 2 L 6 3 L 7 3 L 7 2 L 6 2 z M 9 2 L 9 3 L 10 3 L 10 2 L 9 2 z M 4 5 L 5 5 L 11 5 L 12 5 C 12.554 5 13 5.446 13 6 L 13 10 C 13 12.77 10.77 15 8 15 C 5.23 15 3 12.77 3 10 L 3 6 C 3 5.446 3.446 5 4 5 z " />
</svg>
