<?xml version="1.0" encoding="UTF-8" standalone="no"?>
<svg
   width="16"
   height="16"
   version="1.1"
   id="svg2"
   sodipodi:docname="org.gnome.Dictionary-symbolic.svg"
   inkscape:version="1.4.2 (ebf0e940d0, 2025-05-08)"
   xmlns:inkscape="http://www.inkscape.org/namespaces/inkscape"
   xmlns:sodipodi="http://sodipodi.sourceforge.net/DTD/sodipodi-0.dtd"
   xmlns="http://www.w3.org/2000/svg"
   xmlns:svg="http://www.w3.org/2000/svg"
   xmlns:rdf="http://www.w3.org/1999/02/22-rdf-syntax-ns#"
   xmlns:cc="http://creativecommons.org/ns#"
   xmlns:dc="http://purl.org/dc/elements/1.1/">
  <defs
     id="defs2">
    <style
       id="current-color-scheme"
       type="text/css">
        .ColorScheme-Text { color:#f2f2f2; }
     </style>
  </defs>
  <sodipodi:namedview
     id="namedview2"
     pagecolor="#ffffff"
     bordercolor="#000000"
     borderopacity="0.25"
     inkscape:showpageshadow="2"
     inkscape:pageopacity="0.0"
     inkscape:pagecheckerboard="0"
     inkscape:deskcolor="#d1d1d1"
     inkscape:zoom="49.125"
     inkscape:cx="7.9898219"
     inkscape:cy="8"
     inkscape:window-width="1920"
     inkscape:window-height="1011"
     inkscape:window-x="0"
     inkscape:window-y="0"
     inkscape:window-maximized="1"
     inkscape:current-layer="svg2" />
  <title
     id="title1">Gnome Symbolic Icon Theme</title>
  <path
     id="path1"
     style="fill:currentColor"
     class="ColorScheme-Text"
     d="m 2,1 v 14 h 11 c 0.51254,0 1,-0.53386 1,-1 H 3 v -2 h 10 c 0.57495,0 1,-0.621781 1,-1.019531 V 2 C 14,1.5118599 13.552871,1 13,1 Z m 1,1 h 10 v 9 H 3 Z M 7.476563,3.0175781 5.0332031,10 H 6.640625 L 7.175781,8.363281 H 9.628906 L 10.166016,10 h 1.605468 L 9.308594,3.0175781 Z m 0.916015,1.0507813 0.126953,0.5078125 c 0.05194,0.2012747 0.104309,0.398968 0.15625,0.59375 0.05843,0.194782 0.100982,0.340109 0.126953,0.4375 L 9.289063,7.117188 H 7.525391 L 8.023438,5.6074219 C 8.055898,5.4840599 8.093218,5.3321872 8.138672,5.1503906 L 8.275391,4.5859375 c 0.05194,-0.194782 0.09122,-0.3682453 0.117187,-0.5175781 z" />
  <metadata
     id="metadata2">
    <rdf:RDF>
      <cc:Work
         rdf:about="">
        <dc:title>Gnome Symbolic Icon Theme</dc:title>
      </cc:Work>
    </rdf:RDF>
  </metadata>
</svg>
