<?xml version="1.0" encoding="UTF-8" standalone="no"?>
<svg
   width="16px"
   height="16px"
   version="1.1"
   viewBox="0 0 16 16"
   id="svg1"
   sodipodi:docname="org.gnome.Settings-location-symbolic.svg"
   inkscape:version="1.4.2 (ebf0e940d0, 2025-05-08)"
   xmlns:inkscape="http://www.inkscape.org/namespaces/inkscape"
   xmlns:sodipodi="http://sodipodi.sourceforge.net/DTD/sodipodi-0.dtd"
   xmlns="http://www.w3.org/2000/svg"
   xmlns:svg="http://www.w3.org/2000/svg">
  <defs
     id="defs1">
     <style
        id="current-color-scheme"
        type="text/css">
        .ColorScheme-Text { color:#f2f2f2; }
     </style>
  </defs>
  <sodipodi:namedview
     id="namedview1"
     pagecolor="#ffffff"
     bordercolor="#000000"
     borderopacity="0.25"
     inkscape:showpageshadow="2"
     inkscape:pageopacity="0.0"
     inkscape:pagecheckerboard="0"
     inkscape:deskcolor="#d1d1d1"
     inkscape:zoom="49.75"
     inkscape:cx="7.9899497"
     inkscape:cy="8"
     inkscape:window-width="1920"
     inkscape:window-height="1011"
     inkscape:window-x="0"
     inkscape:window-y="0"
     inkscape:window-maximized="1"
     inkscape:current-layer="svg1" />
  <path
     id="path1"
     style="fill:currentColor"
     class="ColorScheme-Text"
     d="M 8 1 C 5.2119 1 3 3.4141563 3 6.2851562 C 3 6.4890162 3.0170279 6.6575581 3.0292969 6.7988281 C 3.0430399 6.9570781 3.0592425 7.1233619 3.0859375 7.2949219 C 3.5933575 10.632822 5.6524312 12.949541 7.2695312 14.681641 L 8 15.464844 L 8.7304688 14.681641 C 10.347169 12.950041 12.406763 10.636022 12.914062 7.2949219 L 12.914062 7.2910156 C 12.937314 7.1412356 12.958263 6.9756281 12.970703 6.7988281 L 12.970703 6.7910156 C 12.982907 6.6510356 13 6.4859263 13 6.2851562 C 13 3.4141563 10.7881 1 8 1 z M 8 2 C 10.2094 2 12 3.9185563 12 6.2851562 C 12 6.4324363 11.987109 6.5689606 11.974609 6.7128906 C 11.965229 6.8568206 11.947651 7.000045 11.925781 7.140625 C 11.469531 10.153225 9.6 12.2862 8 14 C 6.4 12.2862 4.5305188 10.149825 4.0742188 7.140625 C 4.0523438 7.000035 4.0378906 6.8568206 4.0253906 6.7128906 C 4.0128906 6.5689606 4 6.4324363 4 6.2851562 C 4 3.9186563 5.7906 2 8 2 z M 8 5 A 1 1 0 0 0 7 6 A 1 1 0 0 0 8 7 A 1 1 0 0 0 9 6 A 1 1 0 0 0 8 5 z " />
</svg>
