<?xml version="1.0" encoding="UTF-8" standalone="no"?>
<svg
   width="16px"
   height="16px"
   version="1.1"
   viewBox="0 0 16 16"
   id="svg3"
   sodipodi:docname="org.gnome.Settings-display-symbolic.svg"
   inkscape:version="1.4.2 (ebf0e940d0, 2025-05-08)"
   xmlns:inkscape="http://www.inkscape.org/namespaces/inkscape"
   xmlns:sodipodi="http://sodipodi.sourceforge.net/DTD/sodipodi-0.dtd"
   xmlns="http://www.w3.org/2000/svg"
   xmlns:svg="http://www.w3.org/2000/svg">
  <defs
     id="defs3">
    <style
       id="current-color-scheme"
       type="text/css">
        .ColorScheme-Text { color:#f2f2f2; }
     </style>
  </defs>
  <sodipodi:namedview
     id="namedview3"
     pagecolor="#ffffff"
     bordercolor="#000000"
     borderopacity="0.25"
     inkscape:showpageshadow="2"
     inkscape:pageopacity="0.0"
     inkscape:pagecheckerboard="0"
     inkscape:deskcolor="#d1d1d1"
     inkscape:zoom="49.6875"
     inkscape:cx="8"
     inkscape:cy="8"
     inkscape:window-width="1920"
     inkscape:window-height="1010"
     inkscape:window-x="0"
     inkscape:window-y="0"
     inkscape:window-maximized="1"
     inkscape:current-layer="svg3" />
  <path
     id="path1"
     style="fill:currentColor"
     class="ColorScheme-Text"
     d="M 2 2 C 0.892 2 0 2.892 0 4 L 0 11 C 0 12.108 0.892 13 2 13 L 14 13 C 15.108 13 16 12.108 16 11 L 16 4 C 16 2.892 15.108 2 14 2 L 2 2 z M 2 3 L 14 3 C 14.554 3 15 3.446 15 4 L 15 11 C 15 11.554 14.554 12 14 12 L 2 12 C 1.446 12 1 11.554 1 11 L 1 4 C 1 3.446 1.446 3 2 3 z M 4.5 14 C 4.223 14 4 14.223 4 14.5 C 4 14.777 4.223 15 4.5 15 L 11.5 15 C 11.777 15 12 14.777 12 14.5 C 12 14.223 11.777 14 11.5 14 L 4.5 14 z " />
</svg>
