<?xml version="1.0" encoding="UTF-8" standalone="no"?>
<svg
   width="16px"
   height="16px"
   version="1.1"
   viewBox="0 0 16 16"
   id="svg2"
   sodipodi:docname="org.gnome.Settings-accessibility-pointing-symbolic.svg"
   inkscape:version="1.4.2 (ebf0e940d0, 2025-05-08)"
   xmlns:inkscape="http://www.inkscape.org/namespaces/inkscape"
   xmlns:sodipodi="http://sodipodi.sourceforge.net/DTD/sodipodi-0.dtd"
   xmlns="http://www.w3.org/2000/svg"
   xmlns:svg="http://www.w3.org/2000/svg">
  <defs
     id="defs2">
     <style
        id="current-color-scheme"
        type="text/css">
        .ColorScheme-Text { color:#f2f2f2; }
     </style>
  </defs>
  <sodipodi:namedview
     id="namedview2"
     pagecolor="#ffffff"
     bordercolor="#000000"
     borderopacity="0.25"
     inkscape:showpageshadow="2"
     inkscape:pageopacity="0.0"
     inkscape:pagecheckerboard="0"
     inkscape:deskcolor="#d1d1d1"
     inkscape:zoom="49.6875"
     inkscape:cx="8"
     inkscape:cy="8"
     inkscape:window-width="1920"
     inkscape:window-height="1010"
     inkscape:window-x="0"
     inkscape:window-y="0"
     inkscape:window-maximized="1"
     inkscape:current-layer="svg2" />
  <path
     id="path1"
     style="fill:currentColor"
     class="ColorScheme-Text"
     d="M 3 1 C 1.338 1 0 2.338 0 4 L 0 11 C 0 12.662 1.338 14 3 14 L 6 14 L 6 13 L 3 13 C 1.892 13 1 12.108 1 11 L 1 4 C 1 2.892 1.892 2 3 2 L 12 2 C 13.108 2 14 2.892 14 4 L 14 7 L 15 7 L 15 4 C 15 2.338 13.662 1 12 1 L 3 1 z M 7.0332031 6.0019531 A 1.0001 1.0001 0 0 0 6.0644531 7.3515625 L 9.0644531 15.351562 A 1.0001 1.0001 0 0 0 10.917969 15.396484 L 12.287109 12.232422 L 15.388672 10.921875 A 1.0001 1.0001 0 0 0 15.351562 9.0644531 L 7.3515625 6.0644531 A 1.0001 1.0001 0 0 0 7.0332031 6.0019531 z M 7 7 L 15 10 L 11.529297 11.466797 L 10 15 L 7 7 z " />
</svg>
