<?xml version="1.0" encoding="UTF-8" standalone="no"?>
<svg
   width="16px"
   height="16px"
   version="1.1"
   viewBox="0 0 16 16"
   id="svg2"
   sodipodi:docname="org.gnome.Settings-wellbeing-symbolic.svg"
   inkscape:version="1.4.2 (ebf0e940d0, 2025-05-08)"
   xmlns:inkscape="http://www.inkscape.org/namespaces/inkscape"
   xmlns:sodipodi="http://sodipodi.sourceforge.net/DTD/sodipodi-0.dtd"
   xmlns="http://www.w3.org/2000/svg"
   xmlns:svg="http://www.w3.org/2000/svg">
  <defs
     id="defs2">
    <style
       id="current-color-scheme"
       type="text/css">
        .ColorScheme-Text { color:#f2f2f2; }
     </style>
  </defs>
  <sodipodi:namedview
     id="namedview2"
     pagecolor="#ffffff"
     bordercolor="#000000"
     borderopacity="0.25"
     inkscape:showpageshadow="2"
     inkscape:pageopacity="0.0"
     inkscape:pagecheckerboard="0"
     inkscape:deskcolor="#d1d1d1"
     inkscape:zoom="49.75"
     inkscape:cx="7.9899497"
     inkscape:cy="8"
     inkscape:window-width="1920"
     inkscape:window-height="1011"
     inkscape:window-x="0"
     inkscape:window-y="0"
     inkscape:window-maximized="1"
     inkscape:current-layer="svg2" />
  <path
     id="path1"
     style="fill:currentColor"
     class="ColorScheme-Text"
     d="M 8 0 A 3 3 0 0 0 5 3 A 3 3 0 0 0 8 6 A 3 3 0 0 0 11 3 A 3 3 0 0 0 8 0 z M 8 1 A 2 2 0 0 1 10 3 A 2 2 0 0 1 8 5 A 2 2 0 0 1 6 3 A 2 2 0 0 1 8 1 z M 5 6 C 2.8027 6 1 7.8027 1 10 C 1 11.0988 1.449325 12.105625 2.171875 12.828125 C 2.472875 13.129125 2.7691544 13.295816 3.1777344 13.541016 C 3.5862744 13.786216 4.0746469 14.057457 4.5917969 14.335938 C 5.6259969 14.892888 6.7743969 15.480313 7.5292969 15.882812 A 1.0001 1.0001 0 0 0 8.4707031 15.882812 C 9.2256231 15.480363 10.374003 14.892918 11.408203 14.335938 C 11.925323 14.057457 12.413666 13.786216 12.822266 13.541016 C 13.230806 13.295816 13.527085 13.129125 13.828125 12.828125 C 14.550655 12.105595 15 11.0988 15 10 C 15 7.8027 13.1973 6 11 6 C 10.24281 6 9.0625 6.3841819 8 7.2949219 C 6.9375 6.3841619 5.7572 6 5 6 z M 5 7 C 5.82843 7 7.0156469 7.1519106 7.9980469 8.5253906 L 8 10 L 8.0019531 8.5253906 C 8.9843831 7.1518906 10.1716 7 11 7 C 12.6568 7 14 8.3431 14 10 C 14 10.82842 13.663984 11.578194 13.121094 12.121094 C 12.578204 12.663984 9.541 14.1785 8 15 C 6.4591 14.17853 3.4218063 12.663994 2.8789062 12.121094 C 2.3360163 11.578204 2 10.8284 2 10 C 2 8.3431 3.3431 7 5 7 z " />
</svg>
