<?xml version="1.0" encoding="UTF-8" standalone="no"?>
<svg
   width="24"
   height="24"
   version="1.1"
   id="svg1"
   sodipodi:docname="applications-graphics-symbolic.svg"
   inkscape:version="1.4.2 (ebf0e940d0, 2025-05-08)"
   xmlns:inkscape="http://www.inkscape.org/namespaces/inkscape"
   xmlns:sodipodi="http://sodipodi.sourceforge.net/DTD/sodipodi-0.dtd"
   xmlns="http://www.w3.org/2000/svg"
   xmlns:svg="http://www.w3.org/2000/svg">
  <defs
     id="defs1">
    <style
       id="current-color-scheme"
       type="text/css">
        .ColorScheme-Text { color:#363636; }
        .ColorScheme-NeutralText { color:#f67400; }
        .ColorScheme-PositiveText { color:#37c837; }
        .ColorScheme-NegativeText { color:#f44336; }
        .ColorScheme-Highlight { color:#3daee9; }
     </style>
  </defs>
  <sodipodi:namedview
     id="namedview1"
     pagecolor="#ffffff"
     bordercolor="#000000"
     borderopacity="0.25"
     inkscape:showpageshadow="2"
     inkscape:pageopacity="0.0"
     inkscape:pagecheckerboard="0"
     inkscape:deskcolor="#d1d1d1"
     inkscape:zoom="33.125"
     inkscape:cx="12"
     inkscape:cy="12"
     inkscape:window-width="1920"
     inkscape:window-height="1010"
     inkscape:window-x="0"
     inkscape:window-y="0"
     inkscape:window-maximized="1"
     inkscape:current-layer="svg1" />
  <path
     id="path1"
     style="fill:currentColor"
     class="ColorScheme-Text"
     d="M 12,4 C 11.2604,4 10.549454,4.096356 9.8671875,4.2890625 9.1901342,4.4765625 8.5546842,4.74479 7.9609375,5.09375 c -0.5937467,0.3437467 -1.1354133,0.7604133 -1.625,1.25 -0.4843733,0.4843867 -0.90104,1.0234408 -1.25,1.6171875 C 4.7421842,8.5547375 4.4739567,9.1927333 4.28125,9.875 4.09375,10.557267 4,11.2656 4,12 c 0,0.27604 0.052083,0.536457 0.15625,0.78125 0.10938,0.23958 0.2526075,0.450519 0.4296875,0.632813 C 4.7682242,13.591149 4.9791633,13.734377 5.21875,13.84375 5.4635433,13.947917 5.72396,14 6,14 6.25,14 6.4713558,13.976562 6.6640625,13.929688 6.8567758,13.877608 7.0312533,13.815108 7.1875,13.742188 7.3437467,13.669268 7.48958,13.58854 7.625,13.5 7.76042,13.41146 7.8958367,13.330733 8.03125,13.257813 8.1718767,13.184894 8.31771,13.125 8.46875,13.078125 8.6249967,13.026042 8.80208,13 9,13 c 0.2708333,0 0.5286442,0.05469 0.7734375,0.164063 0.2447935,0.104166 0.4557325,0.247394 0.6328125,0.429687 0.182293,0.17708 0.325521,0.38802 0.429688,0.632812 C 10.945311,14.471357 11,14.729167 11,15 c 0,0.197913 -0.02604,0.374997 -0.07813,0.53125 -0.04687,0.15104 -0.106767,0.296873 -0.179687,0.4375 -0.07292,0.13542 -0.153645,0.270837 -0.242188,0.40625 -0.08854,0.135413 -0.169271,0.281247 -0.242187,0.4375 -0.07292,0.156253 -0.135417,0.330731 -0.1875,0.523438 C 10.023438,17.523438 10,17.744793 10,18 c 0,0.27604 0.05208,0.536457 0.15625,0.78125 0.10938,0.23958 0.252608,0.450519 0.429688,0.632812 0.182286,0.177088 0.393225,0.320315 0.632812,0.429688 C 11.463543,19.947917 11.72396,20 12,20 c 0.7344,0 1.442733,-0.09375 2.125,-0.28125 0.68232,-0.192713 1.320316,-0.460941 1.914062,-0.804688 0.593762,-0.348959 1.132815,-0.765625 1.617188,-1.25 0.489587,-0.489585 0.906253,-1.031252 1.25,-1.625 C 19.25521,15.445264 19.523437,14.807267 19.710938,14.125 19.903643,13.442733 20,12.7344 20,12 20,11.2656 19.903644,10.557267 19.710938,9.875 19.523438,9.19268 19.25521,8.5546842 18.90625,7.9609375 18.562503,7.3671775 18.145837,6.8281233 17.65625,6.34375 17.171863,5.8541633 16.632809,5.4374967 16.039062,5.09375 15.445263,4.74479 14.807267,4.4765625 14.125,4.2890625 13.442733,4.0963558 12.7344,4 12,4 Z m 0,1 c 0.640653,0 1.257816,0.083333 1.851563,0.25 0.598973,0.1666667 1.156247,0.4036442 1.671875,0.7109375 0.520813,0.3021 0.994755,0.66665 1.421874,1.09375 0.427121,0.4271 0.79167,0.9010417 1.09375,1.421875 0.307295,0.51564 0.544271,1.072915 0.710938,1.6718755 C 18.916667,10.742198 19,11.35936 19,12 c 0,0.64064 -0.08333,1.260415 -0.25,1.859375 -0.166667,0.593767 -0.403644,1.151042 -0.710938,1.671875 -0.302099,0.515627 -0.666648,0.986956 -1.09375,1.414062 -0.427099,0.427107 -0.901042,0.79427 -1.421874,1.101563 -0.51564,0.30208 -1.072915,0.536458 -1.671875,0.703125 C 13.257789,18.916667 12.640627,19 12,19 11.85938,19 11.729168,18.97396 11.609375,18.92187 11.489582,18.86978 11.382809,18.799473 11.289063,18.710933 11.200523,18.617183 11.130208,18.510413 11.078125,18.39062 11.026042,18.270838 11,18.140627 11,18 c 0,-0.19792 0.02344,-0.372397 0.07031,-0.523438 0.05208,-0.156252 0.11458,-0.302085 0.1875,-0.4375 0.07292,-0.140625 0.153648,-0.276043 0.242188,-0.40625 0.08854,-0.135418 0.169268,-0.278647 0.242188,-0.429687 0.07292,-0.156253 0.132812,-0.330731 0.179687,-0.523437 C 11.973958,15.481766 12,15.255207 12,15 12.000013,14.58332 11.921892,14.192712 11.765625,13.828125 11.609358,13.463538 11.395813,13.145827 11.125,12.875 10.854187,12.604173 10.536475,12.390628 10.171875,12.234375 9.807275,12.078122 9.4166667,12 9,12 8.73958,12 8.5130192,12.026042 8.3203125,12.078125 8.1276058,12.124998 7.9531283,12.184893 7.796875,12.257813 7.6458283,12.330733 7.5026008,12.41146 7.3671875,12.5 c -0.1302067,0.08854 -0.2656233,0.169268 -0.40625,0.242188 -0.1354133,0.07292 -0.2812467,0.135416 -0.4375,0.1875 C 6.3723975,12.976562 6.19792,13 6,13 5.85938,13.000003 5.7291683,12.973962 5.609375,12.921875 5.4895817,12.869788 5.3828092,12.799478 5.2890625,12.710938 5.2005192,12.617184 5.1302083,12.510412 5.078125,12.390625 5.0260417,12.270838 5,12.140627 5,12 5,11.359347 5.0833333,10.742184 5.25,10.148438 5.4166667,9.5494642 5.651045,8.9921892 5.953125,8.4765625 6.2604183,7.9557492 6.6275808,7.4818075 7.0546875,7.0546875 7.4817942,6.6275675 7.9531233,6.2630175 8.46875,5.9609375 8.9896033,5.6536442 9.5468783,5.4166667 10.140625,5.25 10.739572,5.0833333 11.359347,5 12,5 Z m -1,2 a 1,1 0 0 0 -1,1 1,1 0 0 0 1,1 1,1 0 0 0 1,-1 1,1 0 0 0 -1,-1 z m 4,1 a 1,1 0 0 0 -1,1 1,1 0 0 0 1,1 1,1 0 0 0 1,-1 1,1 0 0 0 -1,-1 z M 8,9 A 1,1 0 0 0 7,10 1,1 0 0 0 8,11 1,1 0 0 0 9,10 1,1 0 0 0 8,9 Z m 8,3 a 1,1 0 0 0 -1,1 1,1 0 0 0 1,1 1,1 0 0 0 1,-1 1,1 0 0 0 -1,-1 z m -2,3 a 1,1 0 0 0 -1,1 1,1 0 0 0 1,1 1,1 0 0 0 1,-1 1,1 0 0 0 -1,-1 z" />
</svg>
