<?xml version="1.0" encoding="UTF-8" standalone="no"?>
<svg
   width="24"
   height="24"
   version="1.1"
   id="svg2"
   sodipodi:docname="applications-other-symbolic.svg"
   inkscape:version="1.4.2 (ebf0e940d0, 2025-05-08)"
   xmlns:inkscape="http://www.inkscape.org/namespaces/inkscape"
   xmlns:sodipodi="http://sodipodi.sourceforge.net/DTD/sodipodi-0.dtd"
   xmlns="http://www.w3.org/2000/svg"
   xmlns:svg="http://www.w3.org/2000/svg">
  <defs
     id="defs2">
    <style
       id="current-color-scheme"
       type="text/css">
        .ColorScheme-Text { color:#363636; }
        .ColorScheme-NeutralText { color:#f67400; }
        .ColorScheme-PositiveText { color:#37c837; }
        .ColorScheme-NegativeText { color:#f44336; }
        .ColorScheme-Highlight { color:#3daee9; }
     </style>
  </defs>
  <sodipodi:namedview
     id="namedview2"
     pagecolor="#ffffff"
     bordercolor="#000000"
     borderopacity="0.25"
     inkscape:showpageshadow="2"
     inkscape:pageopacity="0.0"
     inkscape:pagecheckerboard="0"
     inkscape:deskcolor="#d1d1d1"
     inkscape:zoom="33.125"
     inkscape:cx="12"
     inkscape:cy="12"
     inkscape:window-width="1920"
     inkscape:window-height="1010"
     inkscape:window-x="0"
     inkscape:window-y="0"
     inkscape:window-maximized="1"
     inkscape:current-layer="svg2" />
  <path
     id="path1"
     style="fill:currentColor"
     class="ColorScheme-Text"
     d="M 6,6 C 5.446,6 5,6.446 5,7 v 11 c 0,0.554 0.446,1 1,1 h 11 c 0.554,0 1,-0.446 1,-1 V 12 H 12 V 6 Z m 0,1 h 5 v 5 H 6 Z m 0,6 h 5 v 5 H 6 Z m 6,0 h 5 v 5 h -5 z" />
  <path
     id="path2"
     style="fill:currentColor"
     class="ColorScheme-Text"
     d="M 15.111328,5 C 14.892126,5 14.673759,5.084068 14.505859,5.2519531 L 11.474609,8.28125 c -0.33577,0.33577 -0.33577,0.8770906 0,1.2128906 l 3.03125,3.0312504 c 0.33578,0.33577 0.877091,0.33577 1.212891,0 l 3.029297,-3.0312504 c 0.33578,-0.33577 0.33577,-0.8770906 0,-1.2128906 L 15.71875,5.2519531 C 15.55086,5.0840681 15.330531,5 15.111328,5 Z m 0,1.0605469 2.828125,2.828125 -2.828125,2.8281251 -2.828125,-2.8281251 z" />
</svg>
