<?xml version="1.0" encoding="UTF-8" standalone="no"?>
<svg
   width="24"
   height="24"
   version="1.1"
   id="svg1"
   sodipodi:docname="applications-internet-symbolic.svg"
   inkscape:version="1.4.2 (ebf0e940d0, 2025-05-08)"
   xmlns:inkscape="http://www.inkscape.org/namespaces/inkscape"
   xmlns:sodipodi="http://sodipodi.sourceforge.net/DTD/sodipodi-0.dtd"
   xmlns="http://www.w3.org/2000/svg"
   xmlns:svg="http://www.w3.org/2000/svg">
  <defs
     id="defs1">
    <style
       id="current-color-scheme"
       type="text/css">
        .ColorScheme-Text { color:#363636; }
        .ColorScheme-NeutralText { color:#f67400; }
        .ColorScheme-PositiveText { color:#37c837; }
        .ColorScheme-NegativeText { color:#f44336; }
        .ColorScheme-Highlight { color:#3daee9; }
     </style>
  </defs>
  <sodipodi:namedview
     id="namedview1"
     pagecolor="#ffffff"
     bordercolor="#000000"
     borderopacity="0.25"
     inkscape:showpageshadow="2"
     inkscape:pageopacity="0.0"
     inkscape:pagecheckerboard="0"
     inkscape:deskcolor="#d1d1d1"
     inkscape:zoom="33.125"
     inkscape:cx="12"
     inkscape:cy="12"
     inkscape:window-width="1920"
     inkscape:window-height="1010"
     inkscape:window-x="0"
     inkscape:window-y="0"
     inkscape:window-maximized="1"
     inkscape:current-layer="svg1" />
  <path
     id="path1"
     style="fill:currentColor"
     class="ColorScheme-Text"
     d="M 13.5,5 A 4.5,4.5 0 0 0 9.7109375,7.0742188 3.5,3.5 0 0 0 9,7 3.5,3.5 0 0 0 5.5,10.5 3.5,3.5 0 0 0 5.50391,10.658203 C 4.5896963,11.528033 4,12.8036 4,14.25 4,16.8815 5.9108562,19 8.2851562,19 H 15.714844 C 18.089144,19 20,16.8815 20,14.25 20,12.5284 19.173709,11.039931 17.943359,10.207031 A 4.5,4.5 0 0 0 18,9.5 4.5,4.5 0 0 0 13.5,5 Z m 0,1 a 3.5,3.5 0 0 1 0.148438,0.00391 3.5,3.5 0 0 1 0.0098,0 3.5,3.5 0 0 1 0.304688,0.027344 3.5,3.5 0 0 1 0.101562,0.015625 3.5,3.5 0 0 1 0.05274,0.00781 3.5,3.5 0 0 1 0.0078,0.00195 3.5,3.5 0 0 1 0.146484,0.029297 3.5,3.5 0 0 1 0.0078,0.00195 3.5,3.5 0 0 1 0.296875,0.082031 3.5,3.5 0 0 1 0.0078,0.00195 3.5,3.5 0 0 1 0.140625,0.048828 3.5,3.5 0 0 1 0.0078,0.00391 3.5,3.5 0 0 1 0.136719,0.054687 3.5,3.5 0 0 1 0.0078,0.00391 3.5,3.5 0 0 1 0.136719,0.060547 3.5,3.5 0 0 1 0.0078,0.00391 3.5,3.5 0 0 1 0.132813,0.068359 3.5,3.5 0 0 1 0.0059,0.00391 3.5,3.5 0 0 1 0.13086,0.072266 3.5,3.5 0 0 1 0.02734,0.017578 3.5,3.5 0 0 1 0.105469,0.066406 3.5,3.5 0 0 1 0.0078,0.00391 3.5,3.5 0 0 1 0.121093,0.085937 3.5,3.5 0 0 1 0.125,0.09375 3.5,3.5 0 0 1 0.0078,0.00586 3.5,3.5 0 0 1 0.230469,0.2011719 3.5,3.5 0 0 1 0.0059,0.00586 3.5,3.5 0 0 1 0.105469,0.1054688 3.5,3.5 0 0 1 0.0059,0.00586 3.5,3.5 0 0 1 0.201172,0.2304687 3.5,3.5 0 0 1 0.0059,0.00781 3.5,3.5 0 0 1 0.09375,0.125 3.5,3.5 0 0 1 0.08594,0.1210938 3.5,3.5 0 0 1 0.07031,0.1132812 3.5,3.5 0 0 1 0.01367,0.021484 3.5,3.5 0 0 1 0.0039,0.00586 3.5,3.5 0 0 1 0.07227,0.1308594 3.5,3.5 0 0 1 0.0039,0.00586 3.5,3.5 0 0 1 0.06836,0.1328125 3.5,3.5 0 0 1 0.0039,0.00781 3.5,3.5 0 0 1 0.06055,0.1367188 3.5,3.5 0 0 1 0.0039,0.00781 3.5,3.5 0 0 1 0.05469,0.1367187 3.5,3.5 0 0 1 0.0039,0.00781 3.5,3.5 0 0 1 0.04883,0.140625 3.5,3.5 0 0 1 0.002,0.00781 3.5,3.5 0 0 1 0.04297,0.1445313 3.5,3.5 0 0 1 0.002,0.00781 3.5,3.5 0 0 1 0.03711,0.1445312 3.5,3.5 0 0 1 0.002,0.00781 3.5,3.5 0 0 1 0.0293,0.1464844 3.5,3.5 0 0 1 0.002,0.00781 3.5,3.5 0 0 1 0.0078,0.052734 3.5,3.5 0 0 1 0.01563,0.1015625 3.5,3.5 0 0 1 0.01758,0.1484375 3.5,3.5 0 0 1 0,0.00781 3.5,3.5 0 0 1 0.0098,0.1484375 A 3.5,3.5 0 0 1 17,9.5 a 3.5,3.5 0 0 1 -0.002,0.085937 3.5,3.5 0 0 1 -0.002,0.072266 3.5,3.5 0 0 1 -0.002,0.019531 3.5,3.5 0 0 1 -0.25,1.132812 c 1.0534,0.45618 1.846012,1.382925 2.132812,2.515626 0.02045,0.07927 0.03946,0.158924 0.05469,0.240234 0.01064,0.05793 0.02134,0.114968 0.0293,0.173828 C 18.983942,13.906914 19,14.07645 19,14.25 19,16.3275 17.3275,18 15.25,18 H 8.75 C 6.6725,18 5,16.3275 5,14.25 c 0,-0.2032 0.021761,-0.39968 0.052734,-0.59375 0.00576,-0.03488 0.012792,-0.06898 0.019531,-0.103516 0.18447,-0.97714 0.7408975,-1.81944 1.5234375,-2.36914 A 2.5,2.5 0 0 1 6.5,10.5 2.5,2.5 0 0 1 6.6113281,9.7675781 2.5,2.5 0 0 1 6.7539062,9.4042969 a 2.5,2.5 0 0 1 0.00391,-0.00586 2.5,2.5 0 0 1 0.203125,-0.34375 A 2.5,2.5 0 0 1 7.2167969,8.75 2.5,2.5 0 0 1 7.3066406,8.6621094 2.5,2.5 0 0 1 7.3125,8.65625 2.5,2.5 0 0 1 7.3320312,8.640625 2.5,2.5 0 0 1 7.5175781,8.4882812 a 2.5,2.5 0 0 1 0.1015625,-0.072266 2.5,2.5 0 0 1 0.00781,-0.00391 2.5,2.5 0 0 1 0.1054688,-0.066406 2.5,2.5 0 0 1 0.00781,-0.00391 2.5,2.5 0 0 1 0.1074218,-0.060547 2.5,2.5 0 0 1 0.00977,-0.00391 A 2.5,2.5 0 0 1 7.9765625,8.2207031 2.5,2.5 0 0 1 8.0898438,8.171875 2.5,2.5 0 0 1 8.09375,8.1699219 2.5,2.5 0 0 1 8.125,8.1601562 2.5,2.5 0 0 1 8.2246094,8.125 2.5,2.5 0 0 1 8.34375,8.0878906 a 2.5,2.5 0 0 1 0.00781,-0.00195 2.5,2.5 0 0 1 0.1210937,-0.029297 2.5,2.5 0 0 1 0.00781,-0.00195 2.5,2.5 0 0 1 0.029297,-0.00586 2.5,2.5 0 0 1 0.1015625,-0.017578 2.5,2.5 0 0 1 0.1328125,-0.017578 2.5,2.5 0 0 1 0.1230469,-0.00977 2.5,2.5 0 0 1 0.00781,0 A 2.5,2.5 0 0 1 9,8 a 2.5,2.5 0 0 1 0.1308594,0.00391 2.5,2.5 0 0 1 0.00195,0 2.5,2.5 0 0 1 0.064453,0.00391 2.5,2.5 0 0 1 0.00781,0 2.5,2.5 0 0 1 0.046875,0.00391 4.5,4.5 0 0 0 0,0.00195 2.5,2.5 0 0 1 0.9570316,0.2988281 3.5,3.5 0 0 1 0.470703,-0.8828125 3.5,3.5 0 0 0 -0.0019,0 3.5,3.5 0 0 1 0.173828,-0.2167969 3.5,3.5 0 0 1 0.02344,-0.027344 3.5,3.5 0 0 1 0.0918,-0.099609 3.5,3.5 0 0 1 0.01563,-0.017578 3.5,3.5 0 0 1 0.0957,-0.09375 3.5,3.5 0 0 1 0.01563,-0.015625 3.5,3.5 0 0 1 0.07813,-0.070312 3.5,3.5 0 0 1 0.0293,-0.027344 3.5,3.5 0 0 1 0.113281,-0.09375 3.5,3.5 0 0 1 0.125,-0.095703 3.5,3.5 0 0 1 0.01758,-0.013672 3.5,3.5 0 0 1 0.246094,-0.1601562 3.5,3.5 0 0 1 0.27539,-0.1503907 3.5,3.5 0 0 1 0.01953,-0.00977 3.5,3.5 0 0 1 0.125,-0.054687 3.5,3.5 0 0 1 0.144531,-0.058594 3.5,3.5 0 0 1 0.01953,-0.00781 3.5,3.5 0 0 1 0.04883,-0.017578 3.5,3.5 0 0 1 0.101562,-0.033203 3.5,3.5 0 0 1 0.130859,-0.039063 3.5,3.5 0 0 1 0.01953,-0.00586 3.5,3.5 0 0 1 0.06641,-0.015625 3.5,3.5 0 0 1 0.06641,-0.017578 3.5,3.5 0 0 1 0.220703,-0.042969 3.5,3.5 0 0 1 0.109375,-0.015625 A 3.5,3.5 0 0 1 13.3418,6.0039118 3.5,3.5 0 0 1 13.5,6 Z" />
</svg>
