<?xml version="1.0" encoding="UTF-8" standalone="no"?>
<svg
   width="24"
   height="24"
   version="1.1"
   id="svg2"
   sodipodi:docname="applications-utilities-symbolic.svg"
   inkscape:version="1.4.2 (ebf0e940d0, 2025-05-08)"
   xmlns:inkscape="http://www.inkscape.org/namespaces/inkscape"
   xmlns:sodipodi="http://sodipodi.sourceforge.net/DTD/sodipodi-0.dtd"
   xmlns="http://www.w3.org/2000/svg"
   xmlns:svg="http://www.w3.org/2000/svg">
  <defs
     id="defs2">
    <style
       id="current-color-scheme"
       type="text/css">
        .ColorScheme-Text { color:#363636; }
        .ColorScheme-NeutralText { color:#f67400; }
        .ColorScheme-PositiveText { color:#37c837; }
        .ColorScheme-NegativeText { color:#f44336; }
        .ColorScheme-Highlight { color:#3daee9; }
     </style>
  </defs>
  <sodipodi:namedview
     id="namedview2"
     pagecolor="#ffffff"
     bordercolor="#000000"
     borderopacity="0.25"
     inkscape:showpageshadow="2"
     inkscape:pageopacity="0.0"
     inkscape:pagecheckerboard="0"
     inkscape:deskcolor="#d1d1d1"
     inkscape:zoom="33.125"
     inkscape:cx="12"
     inkscape:cy="12"
     inkscape:window-width="1920"
     inkscape:window-height="1010"
     inkscape:window-x="0"
     inkscape:window-y="0"
     inkscape:window-maximized="1"
     inkscape:current-layer="svg2" />
  <path
     id="path1"
     style="fill:currentColor"
     class="ColorScheme-Text"
     d="m 9.4082031,4 c 0.8779999,0.713 1.4687499,1.792 1.4687499,3 v 1 h 2.125 c -0.074,-1.093 1.249,-2 2,-2 0.68,0 1,0.011 1,1 v 1 h 1.21875 c 1.228,-0.6 1.78125,-1.9695 1.78125,-2.6875 0,-0.736 -2.3855,-1.3125 -3.6875,-1.3125 z M 6.9335938,4.00195 C 5.3081937,4.0019531 4,5.3340812 4,6.9882812 V 17.015625 c 0,1.6542 1.3081937,2.986328 2.9335938,2.986328 H 7.0664062 C 8.6918062,20.001953 10,18.669825 10,17.015625 V 6.9882812 C 10,5.3340812 8.6918062,4.0019531 7.0664062,4.0019531 Z m 0.066406,1 c 1.108,0 2,0.892 2,2 v 10 c 0,1.108 -0.892,2 -2,2 -1.108,0 -2,-0.892 -2,-2 V 7.0019531 c 0,-1.108 0.892,-2 2,-2 z M 11.001953,9 v 4.3125 c 2.766,2.661 6.125,2.40625 6.125,2.40625 0,0 0.35275,-1.52025 -1.90625,-4.03125 L 12.845703,9 h -1.78125 c -0.02,0.002 -0.0405,-0.002 -0.0625,0 z m 2.97461,2.53125 1.683593,1.738281 c -1.799,0.165 -2.150594,-0.857281 -1.683593,-1.738281 z" />
</svg>
