<?xml version="1.0" encoding="UTF-8" standalone="no"?>
<svg
   width="24"
   height="24"
   version="1.1"
   id="svg1"
   sodipodi:docname="emoji-body-symbolic.svg"
   inkscape:version="1.4.2 (ebf0e940d0, 2025-05-08)"
   xmlns:inkscape="http://www.inkscape.org/namespaces/inkscape"
   xmlns:sodipodi="http://sodipodi.sourceforge.net/DTD/sodipodi-0.dtd"
   xmlns="http://www.w3.org/2000/svg"
   xmlns:svg="http://www.w3.org/2000/svg">
  <defs
     id="defs1">
    <style
       id="current-color-scheme"
       type="text/css">
        .ColorScheme-Text { color:#363636; }
        .ColorScheme-NeutralText { color:#f67400; }
        .ColorScheme-PositiveText { color:#37c837; }
        .ColorScheme-NegativeText { color:#f44336; }
        .ColorScheme-Highlight { color:#3daee9; }
     </style>
  </defs>
  <sodipodi:namedview
     id="namedview1"
     pagecolor="#ffffff"
     bordercolor="#000000"
     borderopacity="0.25"
     inkscape:showpageshadow="2"
     inkscape:pageopacity="0.0"
     inkscape:pagecheckerboard="0"
     inkscape:deskcolor="#d1d1d1"
     inkscape:zoom="32.75"
     inkscape:cx="11.984733"
     inkscape:cy="12"
     inkscape:window-width="1920"
     inkscape:window-height="1011"
     inkscape:window-x="0"
     inkscape:window-y="0"
     inkscape:window-maximized="1"
     inkscape:current-layer="svg1" />
  <path
     id="path1"
     style="fill:currentColor"
     class="ColorScheme-Text"
     d="m 12.966797,5 a 1,1 0 0 0 -0.992188,1.1210938 c 0.015,0.127 0.02339,0.2538593 0.02539,0.3808593 a 3.49,3.49 0 0 1 -2.3769531,3.3125 c -0.148,0.061 -0.4122032,0.1874999 -0.5332031,0.1874999 L 7,10 c -0.554,0 -1,0.446 -1,1 v 6 c 0,0.554 0.446,1 1,1 h 2 l 6.015625,0.972656 a 1.903,1.903 0 0 0 2.162109,-1.382812 l 1.660157,-6.195313 A 1.903,1.903 0 0 0 17,9 h -1.453125 c 0.046,-0.314 0.07422,-0.645 0.07422,-1 0,-0.637 -0.07156,-1.2128906 -0.226563,-1.7128906 A 2.297,2.297 0 0 0 15.046875,5.5644531 C 14.868875,5.3244531 14.518,5 14,5 Z m 0.273437,1.1035156 H 14 c 0.041,0 0.0952,0.028234 0.158203,0.1152344 0.064,0.086 0.127641,0.2234844 0.181641,0.3964844 0.108,0.347 0.177734,0.8397656 0.177734,1.3847656 0,0.529 -0.06792,1.0026563 -0.169922,1.3476562 -0.02,0.052 -0.01739,0.1122032 -0.02539,0.1582032 0,0.276 0.224,0.4941406 0.5,0.4941406 H 17 a 0.902,0.902 0 0 1 0.871094,1.136719 l -1.660156,6.195312 a 0.902,0.902 0 0 1 -1.025391,0.654297 L 10,17.091797 V 10.832031 A 4.599,4.599 0 0 0 13.103516,6.5 V 6.49805 c -0.002,-0.126 -0.01339,-0.2509532 -0.02539,-0.3769531 z M 7,11 h 2 v 6 H 7 Z" />
</svg>
