<?xml version="1.0" encoding="UTF-8" standalone="no"?>
<svg
   width="16"
   height="16"
   version="1.1"
   id="svg2"
   sodipodi:docname="capslock-on.svg"
   inkscape:version="1.4.2 (ebf0e940d0, 2025-05-08)"
   xmlns:inkscape="http://www.inkscape.org/namespaces/inkscape"
   xmlns:sodipodi="http://sodipodi.sourceforge.net/DTD/sodipodi-0.dtd"
   xmlns="http://www.w3.org/2000/svg"
   xmlns:svg="http://www.w3.org/2000/svg">
  <defs
     id="defs2">
    <style
       id="current-color-scheme"
       type="text/css">
        .ColorScheme-Text { color:#363636; }
        .ColorScheme-NeutralText { color:#f67400; }
        .ColorScheme-PositiveText { color:#37c837; }
        .ColorScheme-NegativeText { color:#f44336; }
        .ColorScheme-Highlight { color:#3daee9; }
     </style>
  </defs>
  <sodipodi:namedview
     id="namedview2"
     pagecolor="#ffffff"
     bordercolor="#000000"
     borderopacity="0.25"
     inkscape:showpageshadow="2"
     inkscape:pageopacity="0.0"
     inkscape:pagecheckerboard="0"
     inkscape:deskcolor="#d1d1d1"
     inkscape:zoom="49.6875"
     inkscape:cx="8"
     inkscape:cy="8"
     inkscape:window-width="1920"
     inkscape:window-height="1010"
     inkscape:window-x="0"
     inkscape:window-y="0"
     inkscape:window-maximized="1"
     inkscape:current-layer="svg2" />
  <path
     id="path1"
     style="fill:currentColor"
     class="ColorScheme-Text"
     d="M 3 1 C 1.892 1 1 1.892 1 3 L 1 10 C 1 11.108 1.892 12 3 12 L 13 12 C 14.108 12 15 11.108 15 10 L 15 3 C 15 1.892 14.108 1 13 1 L 3 1 z M 3 2 L 13 2 C 13.554 2 14 2.446 14 3 L 14 10 C 14 10.554 13.554 11 13 11 L 3 11 C 2.446 11 2 10.554 2 10 L 2 3 C 2 2.446 2.446 2 3 2 z M 1 11 L 1 13 C 1 14.108 1.892 15 3 15 L 13 15 C 14.108 15 15 14.108 15 13 L 15 11 C 15 12.108 14.108 13 13 13 L 3 13 C 1.892 13 1 12.108 1 11 z " />
  <path
     id="path2"
     style="fill:currentColor"
     class="ColorScheme-Text"
     d="m 7.4667969,3 -2.6738281,7 h 1 L 6.4296875,8.203125 h 3.15625 L 10.222656,10 h 0.984375 L 8.5390625,3 Z M 8,3.9335938 9.2890625,7.4179688 H 6.7148438 Z" />
</svg>
