<?xml version="1.0" encoding="UTF-8" standalone="no"?>
<!-- Created with Inkscape (http://www.inkscape.org/) -->

<svg
   width="16"
   height="16"
   viewBox="0 0 16 16"
   version="1.1"
   id="svg361"
   inkscape:version="1.2.1 (9c6d41e410, 2022-07-14)"
   sodipodi:docname="fcitx-hangul-panel.svg"
   xmlns:inkscape="http://www.inkscape.org/namespaces/inkscape"
   xmlns:sodipodi="http://sodipodi.sourceforge.net/DTD/sodipodi-0.dtd"
   xmlns="http://www.w3.org/2000/svg"
   xmlns:svg="http://www.w3.org/2000/svg">
  <sodipodi:namedview
     id="namedview363"
     pagecolor="#ffffff"
     bordercolor="#000000"
     borderopacity="0.25"
     inkscape:showpageshadow="2"
     inkscape:pageopacity="0.0"
     inkscape:pagecheckerboard="0"
     inkscape:deskcolor="#d1d1d1"
     inkscape:document-units="px"
     showgrid="false"
     inkscape:zoom="50.125"
     inkscape:cx="7.9900249"
     inkscape:cy="8"
     inkscape:window-width="1920"
     inkscape:window-height="1008"
     inkscape:window-x="0"
     inkscape:window-y="0"
     inkscape:window-maximized="1"
     inkscape:current-layer="svg361" />
  <defs
     id="defs358">
    <style
       id="current-color-scheme"
       type="text/css">
         .ColorScheme-Text { color:#363636; }
     </style>
  </defs>
  <path
     id="rect584"
     style="fill:currentColor;stroke-linecap:round;stroke-linejoin:round;paint-order:stroke fill markers"
     d="M 2,0 C 0.89200222,0 0,0.89200222 0,2 v 12 c 0,1.107998 0.89200222,2 2,2 h 12 c 1.107998,0 2,-0.892002 2,-2 V 2 C 16,0.89200222 15.107998,0 14,0 Z m 0,1 h 12 c 0.553998,0 1,0.4460012 1,1 v 12 c 0,0.553998 -0.446002,1 -1,1 H 2 C 1.4460012,15 1,14.553998 1,14 V 2 C 1,1.4460012 1.4460012,1 2,1 Z M 5,2 V 3 H 7 V 2 Z m 6,1 v 8 h 1 V 7 h 2 V 6 H 12 V 3 Z M 3,4 V 5 H 9 V 4 Z M 6,6 C 4.4031016,6 3,7.0577014 3,8.5 3,9.9422986 4.4031016,11 6,11 7.5968984,11 9,9.9422986 9,8.5 9,7.0577014 7.5968984,6 6,6 Z M 6,7 C 7.1644988,7 8,7.7332008 8,8.5 8,9.2667992 7.1644988,10 6,10 4.8355012,10 4,9.2667992 4,8.5 4,7.7332008 4.8355012,7 6,7 Z m -1,5 v 2 h 8 V 13 H 6 v -1 z"
     class="ColorScheme-Text"
     sodipodi:nodetypes="sssssssssssssssssscccccccccccccccccccssssssssssccccccc" />
</svg>
