<?xml version="1.0" encoding="UTF-8" standalone="no"?>
<svg
   width="16"
   height="16"
   version="1.1"
   viewBox="0 0 16 16"
   id="svg2"
   sodipodi:docname="indicator-sensors-gpu.svg"
   inkscape:version="1.4.2 (ebf0e940d0, 2025-05-08)"
   xmlns:inkscape="http://www.inkscape.org/namespaces/inkscape"
   xmlns:sodipodi="http://sodipodi.sourceforge.net/DTD/sodipodi-0.dtd"
   xmlns="http://www.w3.org/2000/svg"
   xmlns:svg="http://www.w3.org/2000/svg">
  <defs
     id="defs2">
    <style
       id="current-color-scheme"
       type="text/css">
        .ColorScheme-Text { color:#363636; }
        .ColorScheme-NeutralText { color:#f67400; }
        .ColorScheme-PositiveText { color:#37c837; }
        .ColorScheme-NegativeText { color:#f44336; }
        .ColorScheme-Highlight { color:#3daee9; }
     </style>
  </defs>
  <sodipodi:namedview
     id="namedview2"
     pagecolor="#ffffff"
     bordercolor="#000000"
     borderopacity="0.25"
     inkscape:showpageshadow="2"
     inkscape:pageopacity="0.0"
     inkscape:pagecheckerboard="0"
     inkscape:deskcolor="#d1d1d1"
     inkscape:zoom="49.6875"
     inkscape:cx="8"
     inkscape:cy="8"
     inkscape:window-width="1920"
     inkscape:window-height="1010"
     inkscape:window-x="0"
     inkscape:window-y="0"
     inkscape:window-maximized="1"
     inkscape:current-layer="svg2" />
  <path
     id="path1"
     style="fill:currentColor"
     class="ColorScheme-Text"
     d="m 0,0 v 1 h 1 c 0.554,0 1,0.446 1,1 v 11 1 2 h 1 v -2 h 2 v 1 c 0,0.554 0.446,1 1,1 h 5 c 0.554,0 1,-0.446 1,-1 v -1 h 2 c 1.108,0 2,-0.892 2,-2 V 3 C 16,1.892 15.108,1 14,1 H 2.7324219 C 2.3874419,0.40192 1.74275,0 1,0 Z m 3,2 h 11 c 0.554,0 1,0.446 1,1 v 9 c 0,0.554 -0.446,1 -1,1 h -2 -1 v 1 1 H 10 V 13 H 9 v 2 H 8 V 13 H 7 v 2 H 6 V 14 13 H 3 Z m 5.5,0.9726562 c -2.4805,0 -4.5,2.0195001 -4.5,4.4999998 0,2.4805 2.0195,4.5 4.5,4.5 2.4805,0 4.5,-2.0195 4.5,-4.5 C 13,4.9921562 10.9805,2.9726563 8.5,2.9726562 Z M 8,4.0097656 v 0.5253906 c 0,0.27734 0.22266,0.5 0.5,0.5 0.27734,0 0.5,-0.22266 0.5,-0.5 V 4.0097656 c 0.59551,0.084407 1.141409,0.3151331 1.599609,0.6582032 l -0.376953,0.375 c -0.19531,0.19531 -0.19531,0.5117212 0,0.7070312 0.19531,0.19531 0.511721,0.19531 0.707032,0 l 0.376953,-0.3730469 c 0.34148,0.45757 0.57198,1.0026029 0.65625,1.5957029 H 11.4375 c -0.27734,0 -0.5,0.22266 -0.5,0.5 0,0.27734 0.22266,0.5 0.5,0.5 h 0.525391 c -0.08408,0.59456 -0.316424,1.14181 -0.658203,1.59961 l -0.375,-0.373047 c -0.09375,-0.09375 -0.218753,-0.148438 -0.351563,-0.148438 -0.13281,0 -0.261719,0.05468 -0.355469,0.148438 -0.19531,0.19531 -0.19531,0.511721 0,0.707031 l 0.375,0.373047 C 10.139856,10.621077 9.5946,10.851467 9,10.935547 v -0.525391 c 0,-0.27734 -0.22266,-0.5 -0.5,-0.5 -0.27734,0 -0.5,0.22266 -0.5,0.5 v 0.525391 C 7.40688,10.851277 6.861897,10.620777 6.404297,10.279297 L 6.777344,9.90625 c 0.19531,-0.19531 0.19531,-0.511721 0,-0.707031 -0.09375,-0.09375 -0.222659,-0.148438 -0.355469,-0.148438 -0.13281,0 -0.257812,0.05468 -0.351562,0.148438 l -0.3750005,0.373047 -0.00195,-0.002 c -0.34217,-0.4578 -0.57198,-1.003057 -0.65625,-1.597657 H 5.5625 c 0.27734,0 0.5,-0.22266 0.5,-0.5 0,-0.27734 -0.22266,-0.5 -0.5,-0.5 H 5.0371094 c 0.084456,-0.59312 0.31437,-1.1381028 0.65625,-1.5957028 L 6.070313,5.75 c 0.195309,0.19531 0.511721,0.19531 0.707031,0 0.19531,-0.19531 0.19531,-0.5117212 0,-0.7070312 l -0.376953,-0.375 C 6.858661,4.3246887 7.4054,4.0944256 8,4.0097656 Z m 0.5,1.9628906 c -0.82031,0 -1.5,0.6796898 -1.5,1.4999998 0,0.82422 0.67969,1.5 1.5,1.5 0.82422,0 1.5,-0.67578 1.5,-1.5 C 10,6.652346 9.32422,5.9726563 8.5,5.9726562 Z m 0,0.9999998 c 0.28125,0 0.5,0.21875 0.5,0.5 0,0.28125 -0.21875,0.5 -0.5,0.5 -0.28125,0 -0.5,-0.21875 -0.5,-0.5 0,-0.28125 0.21875,-0.5 0.5,-0.5 z" />
</svg>
