<?xml version="1.0" encoding="UTF-8" standalone="no"?>
<!-- Created with Inkscape (http://www.inkscape.org/) -->

<svg
   width="16"
   height="16"
   viewBox="0 0 16 16"
   version="1.1"
   id="svg5"
   inkscape:version="1.2.1 (9c6d41e410, 2022-07-14)"
   sodipodi:docname="network-cellular-acquiring.svg"
   xmlns:inkscape="http://www.inkscape.org/namespaces/inkscape"
   xmlns:sodipodi="http://sodipodi.sourceforge.net/DTD/sodipodi-0.dtd"
   xmlns="http://www.w3.org/2000/svg"
   xmlns:svg="http://www.w3.org/2000/svg">
  <sodipodi:namedview
     id="namedview7"
     pagecolor="#ffffff"
     bordercolor="#666666"
     borderopacity="1.0"
     inkscape:showpageshadow="2"
     inkscape:pageopacity="0.0"
     inkscape:pagecheckerboard="0"
     inkscape:deskcolor="#d1d1d1"
     inkscape:document-units="px"
     showgrid="false"
     showguides="true"
     inkscape:zoom="25.65625"
     inkscape:cx="1.8708892"
     inkscape:cy="10.017052"
     inkscape:window-width="1920"
     inkscape:window-height="1008"
     inkscape:window-x="0"
     inkscape:window-y="0"
     inkscape:window-maximized="1"
     inkscape:current-layer="svg5" />
  <defs
     id="defs2">
    <style
       id="current-color-scheme"
       type="text/css">
         .ColorScheme-Text { color:#363636; }
     </style>
  </defs>
  <path
     id="rect788"
     style="fill:currentColor;stroke-linecap:round;stroke-linejoin:round;opacity:0.2"
     class="ColorScheme-Text"
     d="M 14 1 C 13.446002 1 13 1.4460012 13 2 L 13 6 C 14.107999 6 15 6.8920011 15 8 L 15 2 C 15 1.4460012 14.553998 1 14 1 z M 15 8 C 15 9.1079989 14.107999 10 13 10 L 13 14 C 13 14.553997 13.446002 15 14 15 C 14.553998 15 15 14.553997 15 14 L 15 8 z M 10 4 C 9.4460008 4 9 4.4460012 9 5 L 9 6 L 11 6 L 11 5 C 11 4.4460012 10.553998 4 10 4 z M 5 10 L 5 14 C 5 14.553997 5.4460012 15 6 15 C 6.5539988 15 7 14.553997 7 14 L 7 10 L 5 10 z M 9 10 L 9 14 C 9 14.553997 9.4460008 15 10 15 C 10.553998 15 11 14.553997 11 14 L 11 10 L 9 10 z M 2 11 C 1.4460012 11 1 11.446002 1 12 L 1 14 C 1 14.553997 1.4460012 15 2 15 C 2.5539988 15 3 14.553997 3 14 L 3 12 C 3 11.446002 2.5539988 11 2 11 z " />
  <path
     id="path843"
     style="color:#363636;fill:currentColor;stroke-width:2;stroke-linecap:round;stroke-linejoin:round;paint-order:stroke fill markers"
     d="m 2.9999997,7 a 1,1 0 0 0 -1,1 1,1 0 0 0 1,1 1,1 0 0 0 1,-1 1,1 0 0 0 -1,-1 z m 5,0 a 1,1 0 0 0 -1,1 1,1 0 0 0 1,1 1,1 0 0 0 1,-1 1,1 0 0 0 -1,-1 z M 13,7 a 1,1 0 0 0 -1,1 1,1 0 0 0 1,1 1,1 0 0 0 1,-1 1,1 0 0 0 -1,-1 z"
     class="ColorScheme-Text" />
</svg>
