<?xml version="1.0" encoding="UTF-8" standalone="no"?>
<svg
   width="16"
   height="16"
   version="1.1"
   id="svg16331"
   sodipodi:docname="network-wired-no-route.svg"
   inkscape:version="1.2.1 (9c6d41e410, 2022-07-14)"
   xmlns:inkscape="http://www.inkscape.org/namespaces/inkscape"
   xmlns:sodipodi="http://sodipodi.sourceforge.net/DTD/sodipodi-0.dtd"
   xmlns="http://www.w3.org/2000/svg"
   xmlns:svg="http://www.w3.org/2000/svg">
  <defs
     id="defs16335">
    <style
       id="current-color-scheme"
       type="text/css">
         .ColorScheme-Text { color:#363636; }
     </style>
  </defs>
  <sodipodi:namedview
     id="namedview16333"
     pagecolor="#ffffff"
     bordercolor="#000000"
     borderopacity="0.25"
     inkscape:showpageshadow="2"
     inkscape:pageopacity="0.0"
     inkscape:pagecheckerboard="0"
     inkscape:deskcolor="#d1d1d1"
     showgrid="false"
     inkscape:zoom="49.6875"
     inkscape:cx="1.9924528"
     inkscape:cy="7.9899371"
     inkscape:window-width="1920"
     inkscape:window-height="1008"
     inkscape:window-x="0"
     inkscape:window-y="0"
     inkscape:window-maximized="1"
     inkscape:current-layer="svg16331" />
  <path
     d="M 3.501953,4 C 3.3739433,3.999444 3.2460371,4.0531824 3.1562499,4.1621094 L 0.14453108,7.0898438 C 0.05049678,7.1996977 -8.4205e-4,7.3395894 -1.7e-7,7.484375 c 0,0.1424156 0.0466572,0.2866828 0.140625,0.3964844 L 3.1308593,10.832031 c 0.1893598,0.21992 0.4971033,0.219873 0.6894531,0.002 0.1913208,-0.228745 0.1921216,-0.561305 0.00195,-0.791015 L 0.99999983,7.5 3.8437499,4.9570312 C 4.0346779,4.7281405 4.0354779,4.3958691 3.845703,4.1660156 3.7568597,4.0563128 3.6299627,4.000556 3.501953,4 Z m 9.023438,0.00391 c -0.12801,-5.56e-4 -0.255916,0.053183 -0.345703,0.1621094 -0.191324,0.2287431 -0.192119,0.5613031 -0.002,0.7910156 L 15,7.5 12.15625,10.042969 c -0.190931,0.228889 -0.191725,0.56116 -0.002,0.791015 0.18936,0.21992 0.499056,0.220826 0.691406,0.0039 L 15.855469,7.9101562 C 15.949499,7.8003023 16.000842,7.6604106 16,7.515625 16.002092,7.3710989 15.95203,7.2317513 15.859375,7.1210938 L 12.869141,4.1679688 C 12.780297,4.0582659 12.6534,4.0044623 12.525391,4.0039062 Z"
     style="fill:currentColor;fill-opacity:1;stroke-width:2;stroke-linecap:round;stroke-linejoin:round;opacity:0.2"
     class="ColorScheme-Text"
     id="path344"
     sodipodi:nodetypes="sccccccccccsccccccccccccc" />
  <path
     d="m 7.99495,4 c 0.65763,0 1.1922,0.19569 1.6041,0.58594 0.41192,0.38302 0.61719,0.87414 0.61719,1.474 0,0.26016 -0.06843,0.52428 -0.20573,0.79167 C 9.8732,7.119 9.75172,7.30891 9.64332,7.42453 9.54215,7.53293 9.39632,7.67557 9.20842,7.84901 L 9.15634,7.903698 C 8.71551,8.301168 8.49487,8.696328 8.49487,9.0937984 v 0.4349 h -1.0208 v -0.51042 c 0,-0.3252004 0.068422,-0.6020804 0.20573,-0.8333404 0.13731,-0.23848 0.37968,-0.51796 0.72656,-0.83594 0.19512,-0.18067 0.33196,-0.31432 0.41146,-0.40104 0.08672,-0.093949 0.17051,-0.21861 0.25,-0.3776 0.086721,-0.16621 0.13021,-0.33698 0.13021,-0.51042 0,-0.33243 -0.10872,-0.59974 -0.32552,-0.80209 -0.20957,-0.20235 -0.50182,-0.3047 -0.87761,-0.3047 -0.6215,0 -1.0474,0.3479 -1.2786,1.0417 L 5.784,5.604218 c 0.15176,-0.41192 0.41268,-0.78158 0.78126,-1.1068 0.37579,-0.33243 0.85155,-0.4974 1.4297,-0.4974 z m -0.0104,6.526 c 0.20957,0 0.38352,0.07161 0.52083,0.21615 0.14453,0.14454 0.21615,0.31848 0.21615,0.52083 0,0.20235 -0.071614,0.3763 -0.21615,0.52083 -0.13731,0.14453 -0.31127,0.21615 -0.52084,0.21615 -0.20957,0 -0.38672,-0.07161 -0.53126,-0.21615 -0.13731,-0.14454 -0.20573,-0.31848 -0.20573,-0.52083 0,-0.20235 0.068422,-0.3763 0.20573,-0.52083 C 7.59781,10.59762 7.77496,10.526 7.98454,10.526 Z"
     style="fill:currentColor;fill-opacity:1;enable-background:new"
     class="ColorScheme-Text"
     id="path5875" />
</svg>
