<?xml version="1.0" encoding="UTF-8" standalone="no"?>
<svg
   height="16"
   width="16"
   version="1.1"
   id="svg2"
   sodipodi:docname="weather-showers-scattered.svg"
   inkscape:version="1.4.2 (ebf0e940d0, 2025-05-08)"
   xmlns:inkscape="http://www.inkscape.org/namespaces/inkscape"
   xmlns:sodipodi="http://sodipodi.sourceforge.net/DTD/sodipodi-0.dtd"
   xmlns="http://www.w3.org/2000/svg"
   xmlns:svg="http://www.w3.org/2000/svg">
  <defs
     id="defs2">
    <style
       id="current-color-scheme"
       type="text/css">
        .ColorScheme-Text { color:#363636; }
        .ColorScheme-NeutralText { color:#f67400; }
        .ColorScheme-PositiveText { color:#37c837; }
        .ColorScheme-NegativeText { color:#f44336; }
        .ColorScheme-Highlight { color:#3daee9; }
     </style>
  </defs>
  <sodipodi:namedview
     id="namedview2"
     pagecolor="#ffffff"
     bordercolor="#000000"
     borderopacity="0.25"
     inkscape:showpageshadow="2"
     inkscape:pageopacity="0.0"
     inkscape:pagecheckerboard="0"
     inkscape:deskcolor="#d1d1d1"
     inkscape:zoom="49.6875"
     inkscape:cx="8"
     inkscape:cy="8"
     inkscape:window-width="1920"
     inkscape:window-height="1010"
     inkscape:window-x="0"
     inkscape:window-y="0"
     inkscape:window-maximized="1"
     inkscape:current-layer="svg2" />
  <path
     id="path1"
     style="fill:currentColor"
     class="ColorScheme-Text"
     d="M 8.560547,0.084 C 6.672547,0.085 5.0677812,1.249125 4.3007812,2.912125 L 4.2460938,3.0254062 4.125,3.0351718 C 2.38,3.1621718 1,4.6718281 1,6.507829 c 0,1.919 1.5004219,3.492187 3.3574219,3.492187 H 12.482422 C 13.874422,10.000016 15,8.817782 15,7.384782 15,6.297782 14.346875,5.3852031 13.421875,4.9922031 l -0.121094,-0.050781 -0.0098,-0.1289062 C 13.172016,2.1945156 11.1155,0.086 8.5625,0.084 Z m -0.0019,1 h 0.0019 c 2.004,10e-4 3.634469,1.6524375 3.730469,3.7734375 v 0.015625 l 0.06055,0.7480469 0.675782,0.2910156 v 0.00195 c 0.57,0.242 0.974609,0.785704 0.974609,1.470704 -4e-6,0.910003 -0.693535,1.615237 -1.519535,1.615237 H 4.359375 C 3.068375,9.000016 2,7.904829 2,6.507829 2,5.1738281 2.9872656,4.1202656 4.1972656,4.0312656 L 4.9023438,3.9824375 5.2070312,3.334 V 3.33205 C 5.8250312,1.9890501 7.079594,1.0850032 8.558594,1.0840032 Z" />
  <path
     d="m 4.0019531,10.24611 c -0.541,1.1 -0.9164062,2.325156 -0.9414062,2.410156 v 0.002 c -0.00164,0.0075 -0.00812,0.01594 -0.00977,0.02344 v 0.002 0.002 C 2.8364034,13.332728 3.3182517,13.999979 4,14.000016 4.6817483,13.999979 5.1635966,13.332728 4.9492188,12.685563 4.6913804,11.851093 4.3748352,11.035907 4.0019531,10.24611 Z m 7.9999999,0 c -0.541,1.1 -0.916406,2.325156 -0.941406,2.410156 v 0.002 c -0.0016,0.0075 -0.0081,0.01594 -0.0098,0.02344 v 0.002 0.002 C 10.836403,13.332728 11.318252,13.999979 12,14.000016 l -0.002,-0.002 c 0.681434,8.55e-4 1.164121,-0.665194 0.951172,-1.3125 0,0 -0.367266,-1.238453 -0.947266,-2.439453 z m -3.996094,0.125 c -0.813538,1.648556 -1.374122,3.484372 -1.412109,3.611328 -0.004,0.015 -0.01563,0.02992 -0.01563,0.04492 -0.321364,0.970908 0.40112,1.97188 1.423828,1.972658 h 0.0019 C 9.025735,15.997916 9.746831,14.997487 9.425723,14.02736 9.038867,12.776777 8.564385,11.555002 8.005801,10.37111 Z"
     style="fill:currentColor"
     id="path2"
     class="ColorScheme-Highlight question" />
</svg>
