<?xml version="1.0" encoding="UTF-8" standalone="no"?>
<!-- Created with Inkscape (http://www.inkscape.org/) -->

<svg
   width="16"
   height="16"
   viewBox="0 0 16 16"
   version="1.1"
   id="svg5"
   sodipodi:docname="emblem-unreadable.svg"
   inkscape:version="1.2.1 (9c6d41e410, 2022-07-14)"
   xmlns:inkscape="http://www.inkscape.org/namespaces/inkscape"
   xmlns:sodipodi="http://sodipodi.sourceforge.net/DTD/sodipodi-0.dtd"
   xmlns="http://www.w3.org/2000/svg"
   xmlns:svg="http://www.w3.org/2000/svg">
  <sodipodi:namedview
     id="namedview7"
     pagecolor="#ffffff"
     bordercolor="#666666"
     borderopacity="1.0"
     inkscape:showpageshadow="2"
     inkscape:pageopacity="0.0"
     inkscape:pagecheckerboard="0"
     inkscape:deskcolor="#d1d1d1"
     inkscape:document-units="px"
     showgrid="false"
     inkscape:zoom="51.3125"
     inkscape:cx="8.0194884"
     inkscape:cy="8"
     inkscape:window-width="1920"
     inkscape:window-height="1007"
     inkscape:window-x="0"
     inkscape:window-y="0"
     inkscape:window-maximized="1"
     inkscape:current-layer="svg5" />
  <defs
     id="defs2" />
  <rect
     style="fill:#808a92;fill-opacity:1;stroke:none"
     id="rect184"
     width="16"
     height="16"
     x="0"
     y="0"
     ry="3" />
  <path
     id="rect915"
     style="fill:#ffffff;fill-opacity:1;stroke-linejoin:round"
     d="M 3.4644466,4.1715534 7.2928933,7.9999998 3.4644466,11.828447 4.1715534,12.535554 8.0000001,8.7071066 11.828447,12.535554 12.535554,11.828447 8.707107,7.9999998 12.535554,4.1715534 11.828447,3.4644466 8.0000001,7.292893 4.1715534,3.4644466 Z"
     sodipodi:nodetypes="ccccccccccccc" />
  <path
     id="rect948"
     style="opacity:0.4;fill:#000000;fill-opacity:1;stroke-linecap:round;stroke-linejoin:round"
     d="M 3 0 C 1.3380017 0 0 1.3380017 0 3 L 0 13 C 0 14.661998 1.3380017 16 3 16 L 13 16 C 14.661998 16 16 14.661998 16 13 L 16 3 C 16 1.3380017 14.661998 0 13 0 L 3 0 z M 3 1 L 13 1 C 14.107999 1 15 1.8920011 15 3 L 15 13 C 15 14.107999 14.107999 15 13 15 L 3 15 C 1.8920011 15 1 14.107999 1 13 L 1 3 C 1 1.8920011 1.8920011 1 3 1 z " />
</svg>
