<?xml version="1.0" encoding="UTF-8" standalone="no"?>
<!-- Created with Inkscape (http://www.inkscape.org/) -->

<svg
   width="16"
   height="16"
   viewBox="0 0 16 16"
   version="1.1"
   id="svg5"
   inkscape:version="1.2.1 (9c6d41e410, 2022-07-14)"
   sodipodi:docname="go-down-skip.svg"
   xmlns:inkscape="http://www.inkscape.org/namespaces/inkscape"
   xmlns:sodipodi="http://sodipodi.sourceforge.net/DTD/sodipodi-0.dtd"
   xmlns="http://www.w3.org/2000/svg"
   xmlns:svg="http://www.w3.org/2000/svg">
  <sodipodi:namedview
     id="namedview7"
     pagecolor="#ffffff"
     bordercolor="#666666"
     borderopacity="1.0"
     inkscape:showpageshadow="2"
     inkscape:pageopacity="0.0"
     inkscape:pagecheckerboard="0"
     inkscape:deskcolor="#d1d1d1"
     inkscape:document-units="px"
     showgrid="false"
     inkscape:zoom="50"
     inkscape:cx="8"
     inkscape:cy="8"
     inkscape:window-width="1920"
     inkscape:window-height="1012"
     inkscape:window-x="0"
     inkscape:window-y="0"
     inkscape:window-maximized="1"
     inkscape:current-layer="svg5" />
  <defs
     id="defs2">
    <style
       id="current-color-scheme"
       type="text/css">
      .ColorScheme-Text { color:#f2f2f2; }
    </style>
  </defs>
  <path
     id="path510"
     style="fill:currentColor;stroke-width:2;stroke-linecap:round;stroke-linejoin:round"
     class="ColorScheme-Text"
     d="m 3.551,8.3434172 c -6e-7,0.12781 0.048547,0.2555853 0.1464844,0.3535156 L 8.0002188,12.999668 12.304907,8.6969328 c 0.195865,-0.1958674 0.195865,-0.5111623 0,-0.7070312 -0.195869,-0.1958674 -0.511166,-0.1958704 -0.707032,0 L 8.0002188,11.583652 4.4045157,7.9899016 c -0.1958765,-0.1958594 -0.5111635,-0.1958684 -0.7070313,0 C 3.5995504,8.0878356 3.5510009,8.2156072 3.551,8.3434172 Z m 0,-4.0000006 c -6e-7,0.12781 0.048547,0.255585 0.1464844,0.353516 L 8.0002188,8.999667 12.304907,4.6969326 c 0.195865,-0.195868 0.195865,-0.511163 0,-0.707032 -0.195869,-0.195866 -0.511166,-0.195869 -0.707032,0 L 8.0002188,7.5836516 4.4045157,3.9899006 c -0.1958765,-0.195859 -0.5111635,-0.195868 -0.7070313,0 -0.097934,0.09793 -0.1464835,0.225707 -0.1464844,0.353516 z" />
</svg>
