<?xml version="1.0" encoding="UTF-8" standalone="no"?>
<!-- Created with Inkscape (http://www.inkscape.org/) -->

<svg
   width="16"
   height="16"
   viewBox="0 0 16 16"
   version="1.1"
   id="svg5"
   inkscape:version="1.2 (dc2aedaf03, 2022-05-15)"
   sodipodi:docname="go-last.svg"
   xmlns:inkscape="http://www.inkscape.org/namespaces/inkscape"
   xmlns:sodipodi="http://sodipodi.sourceforge.net/DTD/sodipodi-0.dtd"
   xmlns="http://www.w3.org/2000/svg"
   xmlns:svg="http://www.w3.org/2000/svg">
  <sodipodi:namedview
     id="namedview7"
     pagecolor="#ffffff"
     bordercolor="#666666"
     borderopacity="1.0"
     inkscape:showpageshadow="2"
     inkscape:pageopacity="0.0"
     inkscape:pagecheckerboard="0"
     inkscape:deskcolor="#d1d1d1"
     inkscape:document-units="px"
     showgrid="false"
     inkscape:zoom="18.384776"
     inkscape:cx="7.1526571"
     inkscape:cy="6.7991037"
     inkscape:window-width="1920"
     inkscape:window-height="991"
     inkscape:window-x="0"
     inkscape:window-y="0"
     inkscape:window-maximized="1"
     inkscape:current-layer="svg5" />
  <defs
     id="defs2">
    <style
       id="current-color-scheme"
       type="text/css">
      .ColorScheme-Text { color:#f2f2f2; }
    </style>
  </defs>
  <path
     d="m 6.343751,4.0507812 c 0.1278102,-8e-7 0.2555851,0.048547 0.3535156,0.1464844 L 11.000001,8.5 6.6972666,12.804688 c -0.1958678,0.195867 -0.5111619,0.195867 -0.7070316,0 -0.195867,-0.195869 -0.19587,-0.511166 0,-0.707032 L 9.0859385,9 H 1.500001 C 1.223001,9 1,8.7769997 1,8.5 1,8.2230003 1.223001,8 1.500001,8 H 9.0859385 L 5.990235,4.9042969 C 5.794376,4.70842 5.794367,4.3931338 5.990235,4.1972656 6.0881693,4.0993316 6.2159408,4.0507821 6.343751,4.0507812 Z"
     style="fill:currentColor;stroke-width:2;stroke-linecap:round;stroke-linejoin:round"
     class="ColorScheme-Text"
     id="path510" />
  <circle
     style="fill:currentColor;stroke-width:1.99999;stroke-linecap:round;stroke-linejoin:round"
     id="path679"
     class="ColorScheme-Text"
     cx="-13.500001"
     cy="-8.5"
     r="1.5"
     transform="scale(-1)" />
</svg>
