<?xml version="1.0" encoding="UTF-8" standalone="no"?>
<!-- Created with Inkscape (http://www.inkscape.org/) -->

<svg
   width="16"
   height="16"
   viewBox="0 0 16 16"
   version="1.1"
   id="svg5"
   inkscape:version="1.2.1 (9c6d41e410, 2022-07-14)"
   sodipodi:docname="media-repeat-none.svg"
   xmlns:inkscape="http://www.inkscape.org/namespaces/inkscape"
   xmlns:sodipodi="http://sodipodi.sourceforge.net/DTD/sodipodi-0.dtd"
   xmlns="http://www.w3.org/2000/svg"
   xmlns:svg="http://www.w3.org/2000/svg">
  <sodipodi:namedview
     id="namedview7"
     pagecolor="#ffffff"
     bordercolor="#666666"
     borderopacity="1.0"
     inkscape:showpageshadow="2"
     inkscape:pageopacity="0.0"
     inkscape:pagecheckerboard="0"
     inkscape:deskcolor="#d1d1d1"
     inkscape:document-units="px"
     showgrid="false"
     inkscape:zoom="26"
     inkscape:cx="5.9615385"
     inkscape:cy="10.134615"
     inkscape:window-width="1920"
     inkscape:window-height="1007"
     inkscape:window-x="0"
     inkscape:window-y="0"
     inkscape:window-maximized="1"
     inkscape:current-layer="svg5" />
  <defs
     id="defs2">
    <style
       id="current-color-scheme"
       type="text/css">
      .ColorScheme-Text { color:#f2f2f2; }
    </style>
  </defs>
  <path
     id="path510"
     style="fill:currentColor;stroke-width:2;stroke-linecap:round;stroke-linejoin:round"
     class="ColorScheme-Text"
     d="M 1.2832031 0.57617188 L 0.57617188 1.2832031 L 2.2792969 2.9863281 C 2.1028361 3.2824588 2 3.6282643 2 4 L 2 7 L 3 7 L 3 4 C 3 3.9102631 3.0147594 3.825734 3.0371094 3.7441406 L 12.255859 12.962891 C 12.174269 12.985231 12.089735 13 12 13 L 3 13 L 5.5351562 10.464844 L 4.828125 9.7578125 L 1.2929688 13.292969 L 2 14 L 12 14 C 12.371711 14 12.717543 13.897164 13.013672 13.720703 L 14.716797 15.423828 L 15.423828 14.716797 L 1.2832031 0.57617188 z M 4.1210938 2 L 5.1210938 3 L 13 3 L 10.464844 5.5351562 L 11.171875 6.2421875 L 14.707031 2.7070312 L 14 2 L 4.1210938 2 z M 13 9 L 13 10.878906 L 14 11.878906 L 14 9 L 13 9 z " />
</svg>
