<?xml version="1.0" encoding="UTF-8" standalone="no"?>
<svg
   width="16"
   height="16"
   enable-background="new"
   version="1.1"
   id="svg1"
   sodipodi:docname="semi-starred.svg"
   inkscape:version="1.4.2 (ebf0e940d0, 2025-05-08)"
   xmlns:inkscape="http://www.inkscape.org/namespaces/inkscape"
   xmlns:sodipodi="http://sodipodi.sourceforge.net/DTD/sodipodi-0.dtd"
   xmlns="http://www.w3.org/2000/svg"
   xmlns:svg="http://www.w3.org/2000/svg">
  <sodipodi:namedview
     id="namedview1"
     pagecolor="#ffffff"
     bordercolor="#000000"
     borderopacity="0.25"
     inkscape:showpageshadow="2"
     inkscape:pageopacity="0.0"
     inkscape:pagecheckerboard="0"
     inkscape:deskcolor="#d1d1d1"
     inkscape:zoom="49.6875"
     inkscape:cx="8"
     inkscape:cy="8"
     inkscape:window-width="1920"
     inkscape:window-height="1010"
     inkscape:window-x="0"
     inkscape:window-y="0"
     inkscape:window-maximized="1"
     inkscape:current-layer="svg1" />
  <defs
     id="defs1">
    <style
       id="current-color-scheme"
       type="text/css">
        .ColorScheme-Text { color:#f2f2f2; }
        .ColorScheme-NeutralText { color:#f67400; }
        .ColorScheme-PositiveText { color:#37c837; }
        .ColorScheme-NegativeText { color:#f44336; }
        .ColorScheme-Highlight { color:#3daee9; }
     </style>
  </defs>
  <path
     id="path1"
     style="fill:currentColor"
     class="ColorScheme-Text"
     d="M 8 0.62109375 C 7.9861255 0.62103923 7.9730103 0.62193078 7.9589844 0.62304688 C 7.764603 0.63961108 7.5976063 0.76771798 7.53125 0.95117188 L 5.6660156 6.0058594 L 0.5 6.0058594 C 0.02881031 6.0059393 -0.18072962 6.5981173 0.18554688 6.8945312 L 4.2207031 10.171875 L 2.8828125 15.197266 C 2.7680287 15.637744 3.2536406 15.990001 3.6367188 15.744141 L 8 12.919922 L 12.363281 15.744141 C 12.74677 15.993308 13.235853 15.63945 13.119141 15.197266 L 11.78125 10.171875 L 15.816406 6.8945312 C 16.183449 6.5975038 15.972168 6.0040912 15.5 6.0058594 L 10.335938 6.0058594 L 8.46875 0.95117188 C 8.3968654 0.75273765 8.2081181 0.62191148 8 0.62109375 z M 8 2.5664062 L 9.5175781 6.6796875 C 9.5902651 6.8757225 9.7772512 7.005834 9.9863281 7.0058594 L 14.091797 7.0058594 L 10.900391 9.5996094 C 10.747203 9.7238956 10.681409 9.9266324 10.732422 10.117188 L 11.820312 14.203125 L 8.2714844 11.904297 C 8.1888719 11.850881 8.0944359 11.824219 8 11.824219 L 8 2.5664062 z " />
</svg>
