<?xml version="1.0" encoding="UTF-8" standalone="no"?>
<svg
   width="22"
   height="22"
   version="1.1"
   viewBox="0 0 22 22"
   id="svg1"
   sodipodi:docname="aspect-ratio-original-symbolic.svg"
   inkscape:version="1.4.2 (ebf0e940d0, 2025-05-08)"
   xmlns:inkscape="http://www.inkscape.org/namespaces/inkscape"
   xmlns:sodipodi="http://sodipodi.sourceforge.net/DTD/sodipodi-0.dtd"
   xmlns="http://www.w3.org/2000/svg"
   xmlns:svg="http://www.w3.org/2000/svg">
  <defs
     id="defs1">
    <style
       id="current-color-scheme"
       type="text/css">
          .ColorScheme-Text { color:#f2f2f2; }
      </style>
  </defs>
  <sodipodi:namedview
     id="namedview1"
     pagecolor="#ffffff"
     bordercolor="#000000"
     borderopacity="0.25"
     inkscape:showpageshadow="2"
     inkscape:pageopacity="0.0"
     inkscape:pagecheckerboard="0"
     inkscape:deskcolor="#d1d1d1"
     inkscape:zoom="35.727273"
     inkscape:cx="10.986005"
     inkscape:cy="11"
     inkscape:window-width="1920"
     inkscape:window-height="1011"
     inkscape:window-x="0"
     inkscape:window-y="0"
     inkscape:window-maximized="1"
     inkscape:current-layer="svg1" />
  <path
     id="path1"
     style="fill:currentColor"
     class="ColorScheme-Text"
     d="M 6,3 C 4.338,3 3,4.338 3,6 v 3 3 4 c 0,1.662 1.338,3 3,3 h 4 3 3 c 1.662,0 3,-1.338 3,-3 V 12 C 19,10.338 17.662,9 16,9 16,7.338 14.662,6 13,6 13,4.338 11.662,3 10,3 Z m 0,1 h 4 c 1.108,0 2,0.892 2,2 H 6 C 5.22893,6 4.5303,6.290905 4,6.765625 V 6 C 4,4.892 4.892,4 6,4 Z m 0,3 h 6 V 9 H 6 C 5.22893,9 4.5303,9.290905 4,9.765625 V 9 C 4,7.892 4.892,7 6,7 Z m 7,0 c 1.108,0 2,0.892 2,2 h -2 z m -7,3 h 6 v 6 c 0,1.108 -0.892,2 -2,2 H 6 C 5.79225,18 5.5923969,17.968419 5.4042969,17.910156 5.3415949,17.890735 5.2805631,17.868984 5.2207031,17.84375 4.5023931,17.54094 4,16.831 4,16 v -4 c 0,-1.108 0.892,-2 2,-2 z m 7,0 h 2 v 6 c 0,1.108 -0.892,2 -2,2 H 12.234375 C 12.709095,17.46966 13,16.7711 13,16 Z m 3,0 c 1.108,0 2,0.892 2,2 v 4 c 0,1.108 -0.892,2 -2,2 H 15.234375 C 15.709095,17.46966 16,16.7711 16,16 Z" />
</svg>
