<?xml version="1.0" encoding="UTF-8" standalone="no"?>
<!-- Created with Inkscape (http://www.inkscape.org/) -->

<svg
   width="22"
   height="22"
   viewBox="0 0 22 22"
   version="1.1"
   id="svg5"
   inkscape:version="1.4.2 (ebf0e940d0, 2025-05-08)"
   sodipodi:docname="tab-new-symbolic.svg"
   xmlns:inkscape="http://www.inkscape.org/namespaces/inkscape"
   xmlns:sodipodi="http://sodipodi.sourceforge.net/DTD/sodipodi-0.dtd"
   xmlns="http://www.w3.org/2000/svg"
   xmlns:svg="http://www.w3.org/2000/svg">
  <sodipodi:namedview
     id="namedview7"
     pagecolor="#ffffff"
     bordercolor="#000000"
     borderopacity="0.25"
     inkscape:showpageshadow="2"
     inkscape:pageopacity="0.0"
     inkscape:pagecheckerboard="0"
     inkscape:deskcolor="#d1d1d1"
     inkscape:document-units="px"
     showgrid="false"
     inkscape:zoom="35.727273"
     inkscape:cx="10.986005"
     inkscape:cy="11"
     inkscape:window-width="1920"
     inkscape:window-height="1011"
     inkscape:window-x="0"
     inkscape:window-y="0"
     inkscape:window-maximized="1"
     inkscape:current-layer="svg5" />
  <defs
     id="defs2">
    <style
       id="current-color-scheme"
       type="text/css">
        .ColorScheme-Text { color:#f2f2f2; }
     </style>
  </defs>
  <path
     id="rect497"
     style="fill:currentColor"
     class="ColorScheme-Text"
     d="M 6,3 C 4.3380034,3 3,4.3380034 3,6 v 9 c 0,1.661996 1.3380034,3 3,3 h 9 c 1.661996,0 3,-1.338004 3,-3 V 6 C 18,4.3380034 16.661996,3 15,3 Z m 0,1 h 9 c 1.107997,0 2,0.8920033 2,2 v 9 c 0,1.107997 -0.892003,2 -2,2 H 6 C 4.8920033,17 4,16.107997 4,15 V 6 C 4,4.8920033 4.8920033,4 6,4 Z m 4,2 v 4 H 6 v 1 h 4 v 4 h 1 v -4 h 4 V 10 H 11 V 6 Z" />
</svg>
