<?xml version="1.0" encoding="UTF-8" standalone="no"?>
<svg
   width="22"
   height="22"
   version="1.1"
   viewBox="0 0 22 22"
   id="svg1"
   sodipodi:docname="xapp-prefs-plugins-symbolic.svg"
   inkscape:version="1.4.2 (ebf0e940d0, 2025-05-08)"
   xmlns:inkscape="http://www.inkscape.org/namespaces/inkscape"
   xmlns:sodipodi="http://sodipodi.sourceforge.net/DTD/sodipodi-0.dtd"
   xmlns="http://www.w3.org/2000/svg"
   xmlns:svg="http://www.w3.org/2000/svg">
  <defs
     id="defs1">
    <style
       id="current-color-scheme"
       type="text/css">
        .ColorScheme-Text { color:#f2f2f2; }
        .ColorScheme-NeutralText { color:#f67400; }
        .ColorScheme-PositiveText { color:#37c837; }
        .ColorScheme-NegativeText { color:#f44336; }
        .ColorScheme-Highlight { color:#3daee9; }
     </style>
  </defs>
  <sodipodi:namedview
     id="namedview1"
     pagecolor="#ffffff"
     bordercolor="#000000"
     borderopacity="0.25"
     inkscape:showpageshadow="2"
     inkscape:pageopacity="0.0"
     inkscape:pagecheckerboard="0"
     inkscape:deskcolor="#d1d1d1"
     inkscape:zoom="33.166667"
     inkscape:cx="11.984925"
     inkscape:cy="12"
     inkscape:window-width="1920"
     inkscape:window-height="1011"
     inkscape:window-x="0"
     inkscape:window-y="0"
     inkscape:window-maximized="1"
     inkscape:current-layer="svg1" />
  <path
     id="path1"
     style="fill:currentColor"
     class="ColorScheme-Text"
     d="M 10,3 C 8.892,3 8,3.892 8,5 V 6 H 5.8457031 C 4.8229031,6 4,6.8229331 4,7.8457031 V 10 11 h 2 c 0.554,0 1,0.446 1,1 0,0.554 -0.446,1 -1,1 H 4 v 1 2.154297 C 4,17.177097 4.8229331,18 5.8457031,18 H 8 9 v -2 c 0,-0.554 0.446,-1 1,-1 0.554,0 1,0.446 1,1 v 2 h 1 2.154297 C 15.177097,18 16,17.177067 16,16.154297 V 14 h 1 c 1.108,0 2,-0.892 2,-2 0,-1.108 -0.892,-2 -2,-2 H 16 V 7.8457031 C 16,6.8229031 15.177067,6 14.154297,6 H 12 V 5 C 12,3.892 11.108,3 10,3 Z m 0,1 c 0.554,0 1,0.446 1,1 v 2 h 1 2 c 0.554,0 1,0.446 1,1 v 2 1 h 2 c 0.554,0 1,0.446 1,1 0,0.554 -0.446,1 -1,1 h -2 v 1 2 c 0,0.554 -0.446,1 -1,1 h -2 v -1 c 0,-1.108 -0.892,-2 -2,-2 -1.108,0 -2,0.892 -2,2 v 1 H 6 C 5.446,17 5,16.554 5,16 V 14 H 6 C 7.108,14 8,13.108 8,12 8,10.892 7.108,10 6,10 H 5 V 8 C 5,7.446 5.446,7 6,7 H 8 9 V 5 C 9,4.446 9.446,4 10,4 Z" />
</svg>
