<?xml version="1.0" encoding="UTF-8" standalone="no"?>
<svg
   width="24"
   height="24"
   version="1.1"
   id="svg1"
   sodipodi:docname="user-trash-full-symbolic.svg"
   inkscape:version="1.4.2 (ebf0e940d0, 2025-05-08)"
   xmlns:inkscape="http://www.inkscape.org/namespaces/inkscape"
   xmlns:sodipodi="http://sodipodi.sourceforge.net/DTD/sodipodi-0.dtd"
   xmlns="http://www.w3.org/2000/svg"
   xmlns:svg="http://www.w3.org/2000/svg">
  <sodipodi:namedview
     id="namedview1"
     pagecolor="#ffffff"
     bordercolor="#000000"
     borderopacity="0.25"
     inkscape:showpageshadow="2"
     inkscape:pageopacity="0.0"
     inkscape:pagecheckerboard="0"
     inkscape:deskcolor="#d1d1d1"
     inkscape:zoom="33.125"
     inkscape:cx="12"
     inkscape:cy="12"
     inkscape:window-width="1920"
     inkscape:window-height="1010"
     inkscape:window-x="0"
     inkscape:window-y="0"
     inkscape:window-maximized="1"
     inkscape:current-layer="svg1" />
  <defs
     id="defs1">
    <style
       id="current-color-scheme"
       type="text/css">.ColorScheme-Text { color:#f2f2f2; }</style>
  </defs>
  <path
     id="path1"
     style="fill:currentColor;fill-opacity:1"
     class="ColorScheme-Text"
     d="M 12,4 C 10.7309,4.0025929 9.6008344,4.80348 9.1777344,6 H 5 C 4.72386,6 4.5,6.22386 4.5,6.5 L 4.50781,6.589844 C 4.5501425,6.8230837 4.75454,7 5,7 h 0.5527344 l 1.296875,11.228516 C 6.9660494,19.237716 7.8201175,20 8.8359375,20 h 6.3281245 c 1.015901,0 1.869929,-0.762244 1.986329,-1.771484 L 18.445312,7 H 19 C 19.2761,7 19.5,6.77614 19.5,6.5 19.5,6.22386 19.2761,6 19,6 H 14.828125 C 14.404385,4.8015 13.2712,4.0001 12,4 Z m 0,1 c 0.713971,5.625e-4 1.373473,0.3816872 1.730469,1 H 13.5 10.275391 C 10.63132,5.3835015 11.288102,5.0026518 12,5 Z M 10.5,9 C 10.777,9 11,9.223 11,9.5 v 7 C 11,16.777 10.777,17 10.5,17 10.223,17 10,16.777 10,16.5 v -7 C 10,9.223 10.223,9 10.5,9 Z m 3,0 C 13.777,9 14,9.223 14,9.5 v 7 C 14,16.777 13.777,17 13.5,17 13.223,17 13,16.777 13,16.5 v -7 C 13,9.223 13.223,9 13.5,9 Z" />
</svg>
