<?xml version="1.0" encoding="UTF-8" standalone="no"?>
<!-- Created with Inkscape (http://www.inkscape.org/) -->

<svg
   width="32"
   height="32"
   viewBox="0 0 32 32"
   version="1.1"
   id="svg5"
   inkscape:version="1.2.1 (9c6d41e410, 2022-07-14)"
   sodipodi:docname="nm-no-connection.svg"
   xmlns:inkscape="http://www.inkscape.org/namespaces/inkscape"
   xmlns:sodipodi="http://sodipodi.sourceforge.net/DTD/sodipodi-0.dtd"
   xmlns:xlink="http://www.w3.org/1999/xlink"
   xmlns="http://www.w3.org/2000/svg"
   xmlns:svg="http://www.w3.org/2000/svg">
  <sodipodi:namedview
     id="namedview7"
     pagecolor="#ffffff"
     bordercolor="#000000"
     borderopacity="0.25"
     inkscape:showpageshadow="2"
     inkscape:pageopacity="0.0"
     inkscape:pagecheckerboard="0"
     inkscape:deskcolor="#d1d1d1"
     inkscape:document-units="px"
     showgrid="false"
     inkscape:zoom="25.25"
     inkscape:cx="15.980198"
     inkscape:cy="16"
     inkscape:window-width="1920"
     inkscape:window-height="1011"
     inkscape:window-x="0"
     inkscape:window-y="32"
     inkscape:window-maximized="1"
     inkscape:current-layer="svg5"
     showguides="true" />
  <defs
     id="defs2">
    <linearGradient
       inkscape:collect="always"
       id="linearGradient1168">
      <stop
         style="stop-color:#f0b63e;stop-opacity:1;"
         offset="0"
         id="stop1164" />
      <stop
         style="stop-color:#e2981b;stop-opacity:1;"
         offset="1"
         id="stop1166" />
    </linearGradient>
    <linearGradient
       inkscape:collect="always"
       id="linearGradient1094">
      <stop
         style="stop-color:#b3b6bc;stop-opacity:1;"
         offset="0"
         id="stop1090" />
      <stop
         style="stop-color:#d8dadc;stop-opacity:1;"
         offset="1"
         id="stop1092" />
    </linearGradient>
    <linearGradient
       inkscape:collect="always"
       id="linearGradient936">
      <stop
         style="stop-color:#363636;stop-opacity:1;"
         offset="0"
         id="stop932" />
      <stop
         style="stop-color:#5a5a5a;stop-opacity:1;"
         offset="1"
         id="stop934" />
    </linearGradient>
    <linearGradient
       inkscape:collect="always"
       xlink:href="#linearGradient1094"
       id="linearGradient3500"
       x1="2"
       y1="2"
       x2="30"
       y2="30"
       gradientUnits="userSpaceOnUse" />
    <linearGradient
       inkscape:collect="always"
       xlink:href="#linearGradient936"
       id="linearGradient938"
       x1="7"
       y1="8"
       x2="7"
       y2="24"
       gradientUnits="userSpaceOnUse"
       gradientTransform="translate(0,1)" />
    <linearGradient
       inkscape:collect="always"
       xlink:href="#linearGradient1168"
       id="linearGradient1170"
       x1="21"
       y1="14"
       x2="21"
       y2="10"
       gradientUnits="userSpaceOnUse" />
    <linearGradient
       inkscape:collect="always"
       xlink:href="#linearGradient5312"
       id="linearGradient5951"
       x1="2.75"
       y1="2.7499974"
       x2="19.25"
       y2="19.249998"
       gradientUnits="userSpaceOnUse"
       gradientTransform="matrix(0.72727273,0,0,0.72727273,17,17)" />
    <linearGradient
       inkscape:collect="always"
       id="linearGradient5312">
      <stop
         style="stop-color:#da2d2d;stop-opacity:1;"
         offset="0"
         id="stop5308" />
      <stop
         style="stop-color:#ea8900;stop-opacity:1;"
         offset="1"
         id="stop5310" />
    </linearGradient>
  </defs>
  <path
     d="M 13,3 C 3.8988095,3 2,4.939817 2,14 v 6 c 0,9.060183 1.8988095,11 11,11 h 6 c 9.10119,0 11,-1.939817 11,-11 V 14 C 30,4.939817 28.10119,3 19,3"
     style="opacity:0.2;fill:#000000;stroke-width:1;stroke-linecap:round;stroke-linejoin:round"
     id="path563" />
  <path
     id="path530"
     style="fill:url(#linearGradient3500);fill-opacity:1.0;stroke-width:1;stroke-linecap:round;stroke-linejoin:round"
     d="M 13,2 C 3.8988186,2 2,3.9398261 2,13 v 6 c 0,9.060174 1.8988186,11 11,11 h 6 c 9.101182,0 11,-1.939826 11,-11 V 13 C 30,3.9398261 28.101182,2 19,2 Z" />
  <path
     id="rect372"
     style="fill:url(#linearGradient938);fill-opacity:1;stroke-linecap:round;stroke-linejoin:round;paint-order:stroke fill markers"
     d="M 9,9 C 7.8920011,9 7,9.8920011 7,11 v 10 c 0,1.107999 0.8920011,2 2,2 h 3 v 1 c 0,0.553998 0.446002,1 1,1 h 6 c 0.553998,0 1,-0.446002 1,-1 v -1 h 3 c 1.107999,0 2,-0.892001 2,-2 V 11 C 25,9.8920011 24.107999,9 23,9 Z" />
  <path
     id="rect1096"
     style="fill:url(#linearGradient1170);fill-opacity:1;stroke-width:1;stroke-linecap:round;stroke-linejoin:round;paint-order:stroke fill markers"
     d="m 11,10 v 4 h 1 v -4 z m 3,0 v 4 h 1 v -4 z m 3,0 v 4 h 1 v -4 z m 3,0 v 4 h 1 v -4 z" />
  <circle
     style="opacity:0.2;fill:#000000;stroke-width:2;stroke-linecap:square;stroke-linejoin:round"
     id="path2373"
     cx="25"
     cy="26"
     r="6" />
  <circle
     style="fill:url(#linearGradient5951);fill-opacity:1;stroke:none;stroke-width:1.23077;stroke-linecap:round;stroke-linejoin:round;stroke-dasharray:none;stroke-opacity:1"
     id="path2873"
     cy="24.999998"
     cx="25"
     r="6" />
  <path
     id="rect915"
     style="fill:#ffffff;fill-opacity:1;stroke-linejoin:round"
     d="M 21.464466,22.171573 24.292893,25 21.464466,27.828427 22.171573,28.535534 25,25.707107 27.828427,28.535534 28.535534,27.828427 25.707107,25 28.535534,22.171573 27.828427,21.464466 25,24.292893 22.171573,21.464466 Z"
     sodipodi:nodetypes="ccccccccccccc" />
</svg>
