<?xml version="1.0" encoding="UTF-8" standalone="no"?>
<!-- Created with Inkscape (http://www.inkscape.org/) -->

<svg
   width="32"
   height="32"
   viewBox="0 0 32 32"
   version="1.1"
   id="svg5"
   inkscape:version="1.4.4 (dcaf3e7d9e, 2026-05-05)"
   sodipodi:docname="system-restart.svg"
   xmlns:inkscape="http://www.inkscape.org/namespaces/inkscape"
   xmlns:sodipodi="http://sodipodi.sourceforge.net/DTD/sodipodi-0.dtd"
   xmlns:xlink="http://www.w3.org/1999/xlink"
   xmlns="http://www.w3.org/2000/svg"
   xmlns:svg="http://www.w3.org/2000/svg">
  <sodipodi:namedview
     id="namedview7"
     pagecolor="#ffffff"
     bordercolor="#666666"
     borderopacity="1.0"
     inkscape:showpageshadow="2"
     inkscape:pageopacity="0.0"
     inkscape:pagecheckerboard="0"
     inkscape:deskcolor="#d1d1d1"
     inkscape:document-units="px"
     showgrid="false"
     inkscape:zoom="24.875"
     inkscape:cx="15.959799"
     inkscape:cy="15.959799"
     inkscape:window-width="1920"
     inkscape:window-height="1012"
     inkscape:window-x="0"
     inkscape:window-y="0"
     inkscape:window-maximized="1"
     inkscape:current-layer="svg5" />
  <defs
     id="defs2">
    <linearGradient
       inkscape:collect="always"
       xlink:href="#linearGradient1500"
       id="linearGradient2881"
       x1="29.000002"
       y1="29.000002"
       x2="16.000002"
       y2="3.0000002"
       gradientUnits="userSpaceOnUse"
       gradientTransform="matrix(1.076923,0,0,1.076923,-1.2307692,-1.2307692)" />
    <linearGradient
       inkscape:collect="always"
       id="linearGradient1500">
      <stop
         style="stop-color:#afe481;stop-opacity:1;"
         offset="0"
         id="stop1496" />
      <stop
         style="stop-color:#74c72b;stop-opacity:1;"
         offset="1"
         id="stop1498" />
    </linearGradient>
  </defs>
  <circle
     style="opacity:0.2;fill:#000000;fill-opacity:1;stroke:none;stroke-width:2.15385;stroke-linecap:round;stroke-linejoin:round;stroke-dasharray:none;stroke-opacity:1"
     id="path2871"
     cx="16"
     cy="17.000126"
     r="14" />
  <circle
     style="opacity:1;fill:url(#linearGradient2881);fill-opacity:1;stroke:none;stroke-width:2.15385;stroke-linecap:round;stroke-linejoin:round;stroke-dasharray:none;stroke-opacity:1"
     id="path2873"
     cx="16"
     cy="16"
     r="14" />
  <path
     id="path291"
     style="fill:#ffffff;stroke-width:0.94737;stroke-linecap:round;stroke-linejoin:round"
     d="M 16,7 C 12.513839,7 9.4939278,8.9820088 8,11.880859 V 9 H 7 v 4 1 H 8 8.2519531 12 V 13 H 8.5820312 C 9.7688003,10.068304 12.642647,8 16,8 c 3.727911,0 6.860197,2.549211 7.748047,6 h 1.025391 C 23.863828,9.9922387 20.283017,7 16,7 Z M 7.2265625,18 C 8.1361712,22.007762 11.716984,25 16,25 c 3.486162,0 6.506072,-1.982009 8,-4.880859 V 23 h 1 V 19 18 H 24.773438 24 23.748047 20 v 1 h 3.417969 C 22.2312,21.931696 19.357354,24 16,24 12.27209,24 9.139803,21.450789 8.2519531,18 Z" />
</svg>
