<?xml version="1.0" encoding="UTF-8" standalone="no"?>
<!-- Created with Inkscape (http://www.inkscape.org/) -->

<svg
   width="64"
   height="64"
   viewBox="0 0 64 64.000003"
   version="1.1"
   id="svg5"
   inkscape:version="1.2.2 (1:1.2.2+202305151914+b0a8486541)"
   sodipodi:docname="application-pdf.svg"
   xmlns:inkscape="http://www.inkscape.org/namespaces/inkscape"
   xmlns:sodipodi="http://sodipodi.sourceforge.net/DTD/sodipodi-0.dtd"
   xmlns:xlink="http://www.w3.org/1999/xlink"
   xmlns="http://www.w3.org/2000/svg"
   xmlns:svg="http://www.w3.org/2000/svg">
  <sodipodi:namedview
     id="namedview7"
     pagecolor="#ffffff"
     bordercolor="#000000"
     borderopacity="0.25"
     inkscape:showpageshadow="2"
     inkscape:pageopacity="0.0"
     inkscape:pagecheckerboard="0"
     inkscape:deskcolor="#d1d1d1"
     inkscape:document-units="px"
     showgrid="false"
     inkscape:zoom="12.34375"
     inkscape:cx="31.959494"
     inkscape:cy="32"
     inkscape:window-width="1920"
     inkscape:window-height="1012"
     inkscape:window-x="0"
     inkscape:window-y="0"
     inkscape:window-maximized="1"
     inkscape:current-layer="svg5"
     showguides="false" />
  <defs
     id="defs2">
    <linearGradient
       inkscape:collect="always"
       id="linearGradient899">
      <stop
         style="stop-color:#db3333;stop-opacity:1;"
         offset="0"
         id="stop895" />
      <stop
         style="stop-color:#db5f5f;stop-opacity:1;"
         offset="1"
         id="stop897" />
    </linearGradient>
    <linearGradient
       inkscape:collect="always"
       xlink:href="#linearGradient899"
       id="linearGradient2131"
       x1="14"
       y1="4"
       x2="50"
       y2="60"
       gradientUnits="userSpaceOnUse" />
  </defs>
  <path
     id="rect234"
     style="opacity:0.2;stroke-linecap:round;stroke-linejoin:round"
     d="m 14,5 h 24 l 16,16 v 36 c 0,2.216 -1.784,4 -4,4 H 14 c -2.216,0 -4,-1.784 -4,-4 V 9 c 0,-2.216 1.784,-4 4,-4 z"
     sodipodi:nodetypes="sccssssss" />
  <path
     id="rect448"
     style="fill:url(#linearGradient2131);fill-opacity:1;stroke-linecap:round;stroke-linejoin:round"
     d="m 14,4 h 24 l 6,10 10,6 v 36 c 0,2.216 -1.784,4 -4,4 H 14 c -2.216,0 -4,-1.784 -4,-4 V 8 c 0,-2.216 1.784,-4 4,-4 z"
     sodipodi:nodetypes="scccssssss" />
  <path
     d="M 54,21 H 42 c -2.216,0 -4,-1.784 -4,-4 V 4 l 16,16 z"
     style="opacity:0.2;fill:#000000;stroke-linecap:round;stroke-linejoin:round"
     id="path611"
     sodipodi:nodetypes="cssccc" />
  <path
     id="rect600"
     style="fill:#e09999;fill-opacity:1;stroke-linecap:round;stroke-linejoin:round"
     d="M 54,20 H 42 c -2.216,0 -4,-1.784 -4,-4 V 4 l 8,8 z"
     sodipodi:nodetypes="cssccc" />
  <path
     d="m 30.049159,23 c -0.738017,0 -1.428178,0.361233 -1.595138,0.957458 -0.620033,2.285764 0.07392,5.820651 1.231298,10.224979 l -0.349137,0.852705 c -0.886193,2.160164 -1.993923,4.311528 -2.968005,6.220651 -4.021607,7.868815 -7.150253,12.114422 -9.236337,12.411863 l -0.008,-0.0864 c -0.04528,-0.981538 1.766084,-3.512167 4.221128,-5.52417 0.25608,-0.207105 1.348867,-1.264339 1.348867,-1.264339 0,0 -1.475059,0.778674 -1.806404,0.97949 -3.076485,1.836323 -4.607368,3.676166 -4.856969,4.897449 -0.07408,0.362753 -0.02656,0.809122 0.294001,0.992386 l 0.786561,0.395104 c 2.141445,1.071922 4.774569,-1.746563 8.275215,-7.881934 3.562247,-1.168579 8.006895,-2.268804 12.053622,-2.864965 3.622407,2.069763 7.777614,3.055205 9.374097,2.629764 0.303793,-0.08032 0.623362,-0.318784 0.786562,-0.538433 0.128,-0.202096 0.306928,-1.010753 0.306928,-1.010753 0,0 -0.300368,0.408752 -0.547681,0.529248 -1.010434,0.476977 -4.200487,-0.318784 -7.473934,-1.920323 2.830406,-0.301248 5.18833,-0.312864 6.448492,0.08992 1.600484,0.510881 1.601764,1.034546 1.580451,1.141218 0.0216,-0.08784 0.09328,-0.438689 0.08448,-0.588049 -0.03632,-0.384097 -0.154721,-0.72709 -0.444721,-1.010754 -0.592433,-0.583666 -2.055204,-0.877794 -4.048487,-0.904146 -1.502403,-0.01632 -3.304007,0.1152 -5.25953,0.395105 -0.896194,-0.514625 -1.841924,-1.080355 -2.591205,-1.780804 -1.900323,-1.774883 -3.493126,-4.239048 -4.482248,-7.001612 0.06752,-0.264849 0.13216,-0.523633 0.191104,-0.784722 0.274929,-1.236338 0.472273,-5.323849 0.472273,-5.323849 0,0 -0.782946,3.070725 -0.905954,3.533926 -0.07904,0.293712 -0.177376,0.607201 -0.290352,0.933554 -0.600002,-2.108644 -0.904146,-4.152328 -0.904146,-5.702411 0,-0.438065 0.0376,-1.290498 0.16168,-1.964483 0.06048,-0.480721 0.234561,-0.730353 0.415361,-0.850866 0.357713,0.08672 0.758129,0.63533 1.176146,1.552868 0.358961,0.79328 0.336273,1.712002 0.336273,2.280643 0,0 0.384977,-1.407987 0.295873,-2.240163 -0.05424,-0.499569 -0.529538,-1.784804 -1.539972,-1.769764 h -0.08272 l -0.450225,-0.0048 z m 0.343649,12.766583 c 1.045618,2.102404 2.487685,4.099047 4.379368,5.70065 0.421713,0.356465 0.870402,0.695602 1.332307,1.014402 -3.435366,0.638898 -7.043373,1.537635 -10.396019,2.942245 0.606257,-1.076945 1.261778,-2.250243 1.933284,-3.515526 1.300386,-2.458884 2.088323,-4.355528 2.751044,-6.141611 z"
     style="fill:#ffffff;stroke-width:1.6"
     id="path308" />
</svg>
