<?xml version="1.0" encoding="UTF-8" standalone="no"?>
<!-- Created with Inkscape (http://www.inkscape.org/) -->

<svg
   width="64"
   height="64"
   viewBox="0 0 64 64.000003"
   version="1.1"
   id="svg5"
   inkscape:version="1.2.2 (1:1.2.2+202305151914+b0a8486541)"
   sodipodi:docname="application-x-sqlite2.svg"
   xmlns:inkscape="http://www.inkscape.org/namespaces/inkscape"
   xmlns:sodipodi="http://sodipodi.sourceforge.net/DTD/sodipodi-0.dtd"
   xmlns:xlink="http://www.w3.org/1999/xlink"
   xmlns="http://www.w3.org/2000/svg"
   xmlns:svg="http://www.w3.org/2000/svg">
  <sodipodi:namedview
     id="namedview7"
     pagecolor="#ffffff"
     bordercolor="#000000"
     borderopacity="0.25"
     inkscape:showpageshadow="2"
     inkscape:pageopacity="0.0"
     inkscape:pagecheckerboard="0"
     inkscape:deskcolor="#d1d1d1"
     inkscape:document-units="px"
     showgrid="false"
     inkscape:zoom="12.34375"
     inkscape:cx="31.959494"
     inkscape:cy="32"
     inkscape:window-width="1920"
     inkscape:window-height="1012"
     inkscape:window-x="0"
     inkscape:window-y="0"
     inkscape:window-maximized="1"
     inkscape:current-layer="svg5" />
  <defs
     id="defs2">
    <linearGradient
       inkscape:collect="always"
       id="linearGradient899">
      <stop
         style="stop-color:#dddddd;stop-opacity:1;"
         offset="0"
         id="stop895" />
      <stop
         style="stop-color:#eeeeee;stop-opacity:1;"
         offset="1"
         id="stop897" />
    </linearGradient>
    <linearGradient
       inkscape:collect="always"
       id="linearGradient876">
      <stop
         style="stop-color:#49bf8d;stop-opacity:1;"
         offset="0"
         id="stop872" />
      <stop
         style="stop-color:#5ec6a7;stop-opacity:1;"
         offset="1"
         id="stop874" />
    </linearGradient>
    <linearGradient
       inkscape:collect="always"
       xlink:href="#linearGradient876"
       id="linearGradient900"
       x1="32"
       y1="26"
       x2="44"
       y2="53.999996"
       gradientUnits="userSpaceOnUse" />
    <linearGradient
       inkscape:collect="always"
       xlink:href="#linearGradient899"
       id="linearGradient955"
       x1="14"
       y1="4"
       x2="50"
       y2="60"
       gradientUnits="userSpaceOnUse" />
  </defs>
  <path
     id="rect234"
     style="opacity:0.2;stroke-linecap:round;stroke-linejoin:round"
     d="m 14,5 h 24 l 16,16 v 36 c 0,2.216 -1.784,4 -4,4 H 14 c -2.216,0 -4,-1.784 -4,-4 V 9 c 0,-2.216 1.784,-4 4,-4 z"
     sodipodi:nodetypes="sccssssss" />
  <path
     id="rect448"
     style="fill:url(#linearGradient955);fill-opacity:1;stroke-linecap:round;stroke-linejoin:round"
     d="m 14,4 h 24 l 6,10 10,6 v 36 c 0,2.216 -1.784,4 -4,4 H 14 c -2.216,0 -4,-1.784 -4,-4 V 8 c 0,-2.216 1.784,-4 4,-4 z"
     sodipodi:nodetypes="scccssssss" />
  <path
     d="M 54,21 H 42 c -2.216,0 -4,-1.784 -4,-4 V 4 l 16,16 z"
     style="opacity:0.2;fill:#000000;stroke-linecap:round;stroke-linejoin:round"
     id="path611"
     sodipodi:nodetypes="cssccc" />
  <path
     id="rect600"
     style="fill:#f8f8f8;fill-opacity:1;stroke-linecap:round;stroke-linejoin:round"
     d="M 54,20 H 42 c -2.216,0 -4,-1.784 -4,-4 V 4 l 8,8 z"
     sodipodi:nodetypes="cssccc" />
  <path
     id="path935"
     style="fill:url(#linearGradient900);stroke-width:8.04986;stroke-linecap:round;stroke-linejoin:round;fill-opacity:1"
     d="M 32,26 A 12,6 0 0 0 20,32 12,6 0 0 0 32,38 12,6 0 0 0 44,32 12,6 0 0 0 32,26 Z M 42.617188,37.203126 A 14,8 0 0 1 32,39.999998 14,8 0 0 1 21.402344,37.21875 12,6 0 0 0 20,39.999998 a 12,6 0 0 0 12,6 12,6 0 0 0 12,-6 12,6 0 0 0 -1.382812,-2.796872 z m -0.0118,7.992184 A 14,8 0 0 1 32,47.999998 14,8 0 0 1 21.40625,45.203124 12,6 0 0 0 20,47.999998 a 12,6 0 0 0 12,6 12,6 0 0 0 12,-6 12,6 0 0 0 -1.394532,-2.804688 z" />
</svg>
