<?xml version="1.0" encoding="UTF-8" standalone="no"?>
<!-- Created with Inkscape (http://www.inkscape.org/) -->

<svg
   width="64"
   height="64"
   viewBox="0 0 64 64.000005"
   version="1.1"
   id="svg5"
   inkscape:version="1.2.2 (1:1.2.2+202305151914+b0a8486541)"
   sodipodi:docname="application-vnd.ms-access.svg"
   xmlns:inkscape="http://www.inkscape.org/namespaces/inkscape"
   xmlns:sodipodi="http://sodipodi.sourceforge.net/DTD/sodipodi-0.dtd"
   xmlns:xlink="http://www.w3.org/1999/xlink"
   xmlns="http://www.w3.org/2000/svg"
   xmlns:svg="http://www.w3.org/2000/svg">
  <sodipodi:namedview
     id="namedview7"
     pagecolor="#ffffff"
     bordercolor="#000000"
     borderopacity="0.25"
     inkscape:showpageshadow="2"
     inkscape:pageopacity="0.0"
     inkscape:pagecheckerboard="0"
     inkscape:deskcolor="#d1d1d1"
     inkscape:document-units="px"
     showgrid="false"
     inkscape:zoom="12.34375"
     inkscape:cx="32"
     inkscape:cy="32"
     inkscape:window-width="1920"
     inkscape:window-height="1012"
     inkscape:window-x="0"
     inkscape:window-y="0"
     inkscape:window-maximized="1"
     inkscape:current-layer="svg5"
     showguides="false" />
  <defs
     id="defs2">
    <linearGradient
       inkscape:collect="always"
       id="linearGradient879">
      <stop
         style="stop-color:#a4262c;stop-opacity:1;"
         offset="0"
         id="stop875" />
      <stop
         style="stop-color:#c92e5a;stop-opacity:1;"
         offset="1"
         id="stop877" />
    </linearGradient>
    <linearGradient
       inkscape:collect="always"
       xlink:href="#linearGradient879"
       id="linearGradient881"
       x1="56"
       y1="17"
       x2="200"
       y2="240"
       gradientUnits="userSpaceOnUse"
       gradientTransform="scale(0.25)" />
    <linearGradient
       inkscape:collect="always"
       xlink:href="#linearGradient879"
       id="linearGradient936"
       x1="56"
       y1="17"
       x2="200"
       y2="240"
       gradientUnits="userSpaceOnUse"
       gradientTransform="scale(0.25)" />
    <linearGradient
       inkscape:collect="always"
       xlink:href="#linearGradient879"
       id="linearGradient938"
       x1="56"
       y1="17"
       x2="200"
       y2="240"
       gradientUnits="userSpaceOnUse"
       gradientTransform="scale(0.25)" />
  </defs>
  <path
     id="rect234"
     style="opacity:0.2;stroke-width:1;stroke-linecap:round;stroke-linejoin:round"
     d="m 14,5 h 24 l 16,16 v 36 c 0,2.216 -1.784,4 -4,4 H 14 c -2.216,0 -4,-1.784 -4,-4 V 9 c 0,-2.216 1.784,-4 4,-4 z"
     sodipodi:nodetypes="sccssssss" />
  <path
     id="rect448"
     style="fill:url(#linearGradient881);fill-opacity:1;stroke-width:1;stroke-linecap:round;stroke-linejoin:round"
     d="m 14,4 h 24 l 6,10 10,6 v 36 c 0,2.216 -1.784,4 -4,4 H 14 c -2.216,0 -4,-1.784 -4,-4 V 8 c 0,-2.216 1.784,-4 4,-4 z"
     sodipodi:nodetypes="scccssssss" />
  <ellipse
     style="opacity:0.25;fill:#ffffff;fill-opacity:1;stroke-width:5.05975;stroke-linejoin:round"
     id="path2670"
     cx="35.000008"
     cy="28.00013"
     rx="11.999995"
     ry="4.0001326" />
  <path
     id="rect3773"
     style="opacity:0.5;fill:#ffffff;fill-opacity:1;stroke-width:5.05975;stroke-linejoin:round"
     d="M 23.000008,28.000132 V 36.0004 c 0,2.20921 5.37258,4.00013 11.999987,4.00013 6.62742,0 12,-1.79092 12,-4.00013 v -0.005 -0.005 -0.005 -0.005 -0.005 -0.005 -0.005 -0.005 -0.005 -0.005 -0.005 -0.005 -0.005 -0.005 -0.005 -0.005 -0.005 -7.911728 c 0,2.20922 -5.37258,4.00014 -12,4.00014 -6.627408,0 -11.999988,-1.79092 -11.999988,-4.00014 z"
     sodipodi:nodetypes="csssssssssssssssssssccsc" />
  <path
     d="m 22.999997,36.0004 v 7.9992 c 0,2.20921 5.37258,4.00013 11.999998,4.00013 6.62742,0 12,-1.79092 12,-4.00013 v -0.005 -0.005 -0.005 -0.005 -0.005 -0.005 -0.005 -0.005 -0.005 -0.005 -0.005 -0.005 -0.005 -0.005 -0.005 -0.005 -0.005 -7.91066 c 0,2.20921 -5.37258,4.00013 -12,4.00013 -6.627418,0 -11.999998,-1.79092 -11.999998,-4.00013 z"
     style="opacity:0.7;fill:#ffffff;fill-opacity:1;stroke-width:5.05975;stroke-linejoin:round"
     id="path5291"
     sodipodi:nodetypes="csssccccccccccccccccccsc" />
  <path
     d="m 22.999997,44.00066 v 7.99921 c 0,2.20921 5.37258,4.00013 11.999998,4.00013 6.62742,0 12,-1.79092 12,-4.00013 v -0.005 -0.005 -0.005 -0.005 -0.005 -0.005 -0.005 -0.005 -0.005 -0.005 -0.005 -0.005 -0.005 -0.005 -0.005 -0.005 -0.005 -7.910655 c 0,2.20921 -5.37258,4.00013 -12,4.00013 -6.627418,0 -11.999998,-1.79092 -11.999998,-4.00013 z"
     style="opacity:0.9;fill:#ffffff;fill-opacity:1;stroke-width:5.05975;stroke-linejoin:round"
     id="path5319" />
  <rect
     style="fill:url(#linearGradient936);fill-opacity:1;stroke-width:2"
     id="rect3242"
     width="17.999998"
     height="17.999998"
     x="14"
     y="32.000328"
     ry="2.9999995" />
  <rect
     style="fill:#ffffff;fill-opacity:1;stroke-width:0.999995"
     id="rect2687"
     width="15.999998"
     height="15.999998"
     x="15"
     y="33.000328"
     ry="1.9999998" />
  <path
     id="rect9329"
     style="fill:url(#linearGradient938);fill-opacity:1;stroke-width:2;stroke-linecap:round;stroke-linejoin:round"
     d="m 21.999997,35.00033 -3.999999,12 h 2 l 1.33204,-4 h 3.33593 l 1.332029,4 h 2 l -4,-12 z m 1,3 1,3 h -2 z" />
  <path
     d="M 54,21 H 42 c -2.216,0 -4,-1.784 -4,-4 V 4 l 16,16 z"
     style="opacity:0.2;fill:#000000;stroke-width:1;stroke-linecap:round;stroke-linejoin:round"
     id="path611"
     sodipodi:nodetypes="cssccc" />
  <path
     id="rect600"
     style="fill:#e79c9f;fill-opacity:1;stroke-width:1;stroke-linecap:round;stroke-linejoin:round"
     d="M 54,20 H 42 c -2.216,0 -4,-1.784 -4,-4 V 4 l 8,8 z"
     sodipodi:nodetypes="cssccc" />
</svg>
