<?xml version="1.0" encoding="UTF-8" standalone="no"?>
<!-- Created with Inkscape (http://www.inkscape.org/) -->

<svg
   width="64"
   height="64"
   viewBox="0 0 64 64.000003"
   version="1.1"
   id="svg5"
   inkscape:version="1.2.2 (1:1.2.2+202305151914+b0a8486541)"
   sodipodi:docname="text-richtext.svg"
   xmlns:inkscape="http://www.inkscape.org/namespaces/inkscape"
   xmlns:sodipodi="http://sodipodi.sourceforge.net/DTD/sodipodi-0.dtd"
   xmlns:xlink="http://www.w3.org/1999/xlink"
   xmlns="http://www.w3.org/2000/svg"
   xmlns:svg="http://www.w3.org/2000/svg">
  <sodipodi:namedview
     id="namedview7"
     pagecolor="#ffffff"
     bordercolor="#000000"
     borderopacity="0.25"
     inkscape:showpageshadow="2"
     inkscape:pageopacity="0.0"
     inkscape:pagecheckerboard="0"
     inkscape:deskcolor="#d1d1d1"
     inkscape:document-units="px"
     showgrid="false"
     inkscape:zoom="12.34375"
     inkscape:cx="31.959494"
     inkscape:cy="32"
     inkscape:window-width="1920"
     inkscape:window-height="1012"
     inkscape:window-x="0"
     inkscape:window-y="0"
     inkscape:window-maximized="1"
     inkscape:current-layer="svg5" />
  <defs
     id="defs2">
    <linearGradient
       inkscape:collect="always"
       id="linearGradient899">
      <stop
         style="stop-color:#dddddd;stop-opacity:1;"
         offset="0"
         id="stop895" />
      <stop
         style="stop-color:#eeeeee;stop-opacity:1;"
         offset="1"
         id="stop897" />
    </linearGradient>
    <linearGradient
       inkscape:collect="always"
       xlink:href="#linearGradient899"
       id="linearGradient1306"
       x1="14"
       y1="4"
       x2="50"
       y2="60"
       gradientUnits="userSpaceOnUse" />
  </defs>
  <path
     id="rect234"
     style="opacity:0.2;stroke-linecap:round;stroke-linejoin:round"
     d="m 14,5 h 24 l 16,16 v 36 c 0,2.216 -1.784,4 -4,4 H 14 c -2.216,0 -4,-1.784 -4,-4 V 9 c 0,-2.216 1.784,-4 4,-4 z"
     sodipodi:nodetypes="sccssssss" />
  <path
     id="rect448"
     style="fill:url(#linearGradient1306);fill-opacity:1;stroke-linecap:round;stroke-linejoin:round"
     d="m 14,4 h 24 l 6,10 10,6 v 36 c 0,2.216 -1.784,4 -4,4 H 14 c -2.216,0 -4,-1.784 -4,-4 V 8 c 0,-2.216 1.784,-4 4,-4 z"
     sodipodi:nodetypes="scccssssss" />
  <path
     d="M 54,21 H 42 c -2.216,0 -4,-1.784 -4,-4 V 4 l 16,16 z"
     style="opacity:0.2;fill:#000000;stroke-linecap:round;stroke-linejoin:round"
     id="path611"
     sodipodi:nodetypes="cssccc" />
  <path
     id="rect600"
     style="fill:#f8f8f8;fill-opacity:1;stroke-linecap:round;stroke-linejoin:round"
     d="M 54,20 H 42 c -2.216,0 -4,-1.784 -4,-4 V 4 l 8,8 z"
     sodipodi:nodetypes="cssccc" />
  <path
     id="rect759"
     style="fill:#999999;stroke-width:2;stroke-linecap:round;stroke-linejoin:round"
     d="M 22 26 L 16 39 L 17 39 L 18.845703 35 L 26.154297 35 L 28 39 L 29 39 L 23 26 L 22 26 z M 31 26 L 31 27 L 48 27 L 48 26 L 31 26 z M 22.5 27.083984 L 25.691406 34 L 19.308594 34 L 22.5 27.083984 z M 31 29 L 31 30 L 48 30 L 48 29 L 31 29 z M 31 32 L 31 33 L 48 33 L 48 32 L 31 32 z M 31 35 L 31 36 L 48 36 L 48 35 L 31 35 z M 31 38 L 31 39 L 48 39 L 48 38 L 31 38 z M 16 41 L 16 42 L 48 42 L 48 41 L 16 41 z M 16 44 L 16 45 L 48 45 L 48 44 L 16 44 z M 16 47 L 16 48 L 48 48 L 48 47 L 16 47 z M 16 50 L 16 51 L 32 51 L 32 50 L 16 50 z M 16 53 L 16 54 L 32 54 L 32 53 L 16 53 z " />
</svg>
