<?xml version="1.0" encoding="UTF-8" standalone="no"?>
<!-- Created with Inkscape (http://www.inkscape.org/) -->

<svg
   width="64"
   height="64"
   viewBox="0 0 64 64.000003"
   version="1.1"
   id="svg5"
   inkscape:version="1.2.1 (9c6d41e410, 2022-07-14)"
   sodipodi:docname="x-office-spreadsheet-template.svg"
   xmlns:inkscape="http://www.inkscape.org/namespaces/inkscape"
   xmlns:sodipodi="http://sodipodi.sourceforge.net/DTD/sodipodi-0.dtd"
   xmlns="http://www.w3.org/2000/svg"
   xmlns:svg="http://www.w3.org/2000/svg">
  <sodipodi:namedview
     id="namedview7"
     pagecolor="#ffffff"
     bordercolor="#000000"
     borderopacity="0.25"
     inkscape:showpageshadow="2"
     inkscape:pageopacity="0.0"
     inkscape:pagecheckerboard="0"
     inkscape:deskcolor="#d1d1d1"
     inkscape:document-units="px"
     showgrid="false"
     inkscape:zoom="14.350877"
     inkscape:cx="23.343521"
     inkscape:cy="32.471883"
     inkscape:window-width="1920"
     inkscape:window-height="1004"
     inkscape:window-x="0"
     inkscape:window-y="0"
     inkscape:window-maximized="1"
     inkscape:current-layer="svg5" />
  <defs
     id="defs2" />
  <path
     id="rect234"
     style="opacity:0.2;stroke-linecap:round;stroke-linejoin:round"
     d="m 14,5 h 24 l 16,16 v 36 c 0,2.216 -1.784,4 -4,4 H 14 c -2.216,0 -4,-1.784 -4,-4 V 9 c 0,-2.216 1.784,-4 4,-4 z"
     sodipodi:nodetypes="sccssssss" />
  <path
     id="rect448"
     style="fill:#5f9c56;fill-opacity:1;stroke-linecap:round;stroke-linejoin:round"
     d="m 14,4 h 24 l 6,10 10,6 v 36 c 0,2.216 -1.784,4 -4,4 H 14 c -2.216,0 -4,-1.784 -4,-4 V 8 c 0,-2.216 1.784,-4 4,-4 z"
     sodipodi:nodetypes="scccssssss" />
  <path
     d="M 54,21 H 42 c -2.216,0 -4,-1.784 -4,-4 V 4 l 16,16 z"
     style="opacity:0.2;fill:#000000;stroke-linecap:round;stroke-linejoin:round"
     id="path611"
     sodipodi:nodetypes="cssccc" />
  <path
     id="rect600"
     style="fill:#a0c89b;fill-opacity:1;stroke-linecap:round;stroke-linejoin:round"
     d="M 54,20 H 42 c -2.216,0 -4,-1.784 -4,-4 V 4 l 8,8 z"
     sodipodi:nodetypes="cssccc" />
  <path
     id="rect5022"
     style="fill:#ffffff;fill-opacity:1;stroke-width:1.16217;stroke-linecap:round;stroke-linejoin:round"
     d="M 19 30 L 19 48 L 45 48 L 45 30 L 19 30 z M 21 32 L 31 32 L 31 38 L 21 38 L 21 32 z M 33 32 L 43 32 L 43 38 L 33 38 L 33 32 z M 21 40 L 31 40 L 31 46 L 21 46 L 21 40 z M 33 40 L 43 40 L 43 46 L 33 46 L 33 40 z " />
  <path
     d="m 52.902286,36.002448 c -0.354842,0.0168 -0.705005,0.124303 -1.011748,0.328135 l -31.996757,22.00435 c -1.64564,1.097967 -0.868893,3.663422 1.109403,3.664164 h 31.996761 c 1.104551,-1.1e-4 1.999946,-0.895503 2.000056,-2.000056 V 37.998597 c -0.0011,-0.737512 -0.407944,-1.414585 -1.058623,-1.761767 -0.324725,-0.173765 -0.684249,-0.251283 -1.039092,-0.234382 z m -2.902481,7.496144 v 13.5 H 30.499807 Z"
     style="color:#000000;opacity:0.2;fill:#000000;stroke-width:4.00011;stroke-linecap:round;stroke-linejoin:round"
     id="path5222"
     sodipodi:nodetypes="ccccccccccccc" />
  <path
     id="path5201"
     style="color:#000000;fill:#ebebec;fill-opacity:1;stroke-width:4.00011;stroke-linecap:round;stroke-linejoin:round"
     d="m 52.902674,35.003266 c -0.354841,0.0168 -0.705005,0.124304 -1.011747,0.328137 L 19.894167,57.33575 c -1.645637,1.097967 -0.86889,3.663422 1.109408,3.664164 h 31.996758 c 1.104551,-1.1e-4 1.999946,-0.895503 2.000056,-2.000056 V 36.999416 c -0.0011,-0.737513 -0.407944,-1.414586 -1.058624,-1.761765 -0.324724,-0.173765 -0.684248,-0.251281 -1.039091,-0.234385 z m -2.902479,7.496142 V 56 h -19.5 z"
     sodipodi:nodetypes="ccccccccccccc" />
</svg>
