<?xml version="1.0" encoding="UTF-8" standalone="no"?>
<!-- Created with Inkscape (http://www.inkscape.org/) -->

<svg
   width="48"
   height="48"
   viewBox="0 0 48 48"
   version="1.1"
   id="svg5"
   inkscape:version="1.2 (dc2aedaf03, 2022-05-15)"
   sodipodi:docname="user-pink-home.svg"
   xmlns:inkscape="http://www.inkscape.org/namespaces/inkscape"
   xmlns:sodipodi="http://sodipodi.sourceforge.net/DTD/sodipodi-0.dtd"
   xmlns:xlink="http://www.w3.org/1999/xlink"
   xmlns="http://www.w3.org/2000/svg"
   xmlns:svg="http://www.w3.org/2000/svg">
  <sodipodi:namedview
     id="namedview7"
     pagecolor="#ffffff"
     bordercolor="#000000"
     borderopacity="0.25"
     inkscape:showpageshadow="2"
     inkscape:pageopacity="0.0"
     inkscape:pagecheckerboard="0"
     inkscape:deskcolor="#d1d1d1"
     inkscape:document-units="px"
     showgrid="false"
     inkscape:zoom="16.166667"
     inkscape:cx="23.969072"
     inkscape:cy="24"
     inkscape:window-width="1920"
     inkscape:window-height="991"
     inkscape:window-x="0"
     inkscape:window-y="0"
     inkscape:window-maximized="1"
     inkscape:current-layer="svg5" />
  <defs
     id="defs2">
    <linearGradient
       inkscape:collect="always"
       id="linearGradient3155">
      <stop
         style="stop-color:#d35f8d;stop-opacity:1"
         offset="0"
         id="stop3151" />
      <stop
         style="stop-color:#a33667;stop-opacity:1;"
         offset="1"
         id="stop3153" />
    </linearGradient>
    <linearGradient
       inkscape:collect="always"
       id="linearGradient3147">
      <stop
         style="stop-color:#ff5599;stop-opacity:1"
         offset="0"
         id="stop3143" />
      <stop
         style="stop-color:#ff80b2;stop-opacity:1"
         offset="1"
         id="stop3145" />
    </linearGradient>
    <linearGradient
       inkscape:collect="always"
       xlink:href="#linearGradient3147"
       id="linearGradient3149"
       x1="56"
       y1="56.333332"
       x2="32"
       y2="15"
       gradientUnits="userSpaceOnUse"
       gradientTransform="matrix(0.75,0,0,0.75,0,-0.25)" />
    <linearGradient
       inkscape:collect="always"
       xlink:href="#linearGradient3155"
       id="linearGradient3157"
       x1="16"
       y1="7"
       x2="16"
       y2="29.666666"
       gradientUnits="userSpaceOnUse"
       gradientTransform="matrix(0.75,0,0,0.75,0,0.75)" />
  </defs>
  <path
     d="M 6,7 C 4.3380015,7 3,8.3380015 3,10 v 30 c 0,1.661998 1.3380015,3 3,3 h 36 c 1.661998,0 3,-1.338002 3,-3 V 15 c 0,-1.661998 -1.338002,-3 -3,-3 H 24 L 21,8.5 C 20.18215,7.581613 19.661998,7 18,7 Z"
     style="opacity:0.3;fill:#000000;stroke-width:1.5"
     id="path1016"
     sodipodi:nodetypes="ssssssssccss" />
  <path
     id="rect184"
     style="fill:url(#linearGradient3157);fill-opacity:1;stroke-width:1.5"
     d="M 6,6 C 4.3380016,6 3,7.3380012 3,9 v 30 c 0,1.661998 1.3380016,3 3,3 h 36 c 1.661998,0 3,-1.338002 3,-3 V 14 c 0,-1.661998 -1.338002,-3 -3,-3 H 24 L 21,7.5 C 20.163517,6.4236064 19.661998,6 18,6 Z"
     sodipodi:nodetypes="sccsssssccss" />
  <path
     id="rect1043"
     style="fill:url(#linearGradient3149);fill-opacity:1;stroke-width:1.5"
     d="m 24,11 -3,3.5 C 19.999791,15.420964 19.661997,16 18,16 H 6 c -1.6568526,0 -3,1.343147 -3,3 v 20 c 0,1.661996 1.338005,3 3,3 h 36 c 1.661996,0 3,-1.338004 3,-3 V 14 c 0,-1.661995 -1.338004,-3 -3,-3 z"
     sodipodi:nodetypes="ccsssssssssc" />
  <path
     id="path3081"
     style="opacity:0.2;fill:#ffffff;stroke-width:1.5"
     d="m 24,11 -3,3.5 C 19.999793,15.420963 19.661995,16 18,16 H 6 c -1.6568493,0 -3,1.34315 -3,3 v 1 c 0,-1.65685 1.3431507,-3 3,-3 h 12 c 1.661995,0 1.999793,-0.579037 3,-1.5 L 24,12 h 18 c 1.661992,0 3,1.338008 3,3 v -1 c 0,-1.661992 -1.338008,-3 -3,-3 z" />
  <path
     id="rect6252"
     style="opacity:0.6;fill:#ffffff;stroke-linejoin:round"
     d="M 24 20.462891 C 23.488764 20.462891 22.977672 20.659048 22.585938 21.050781 L 14.806641 28.830078 L 15.515625 29.537109 L 17 28.052734 L 17 35 C 17 36.107996 17.892004 37 19 37 L 29 37 C 30.107996 37 31 36.107996 31 35 L 31 28.052734 L 32.484375 29.537109 L 33.193359 28.830078 L 30 25.636719 L 30 22 L 29 22 L 29 24.636719 L 25.414062 21.050781 C 25.022329 20.659048 24.511236 20.462891 24 20.462891 z M 24 21.464844 C 24.255619 21.464844 24.511163 21.561945 24.707031 21.757812 L 30 27.052734 L 30 35 C 30 35.553996 29.553996 36 29 36 L 26 36 L 26 31 C 26 30.446002 25.553998 30 25 30 L 23 30 C 22.446002 30 22 30.446002 22 31 L 22 36 L 19 36 C 18.446004 36 18 35.553996 18 35 L 18 27.052734 L 23.292969 21.757812 C 23.488837 21.561947 23.744381 21.464844 24 21.464844 z " />
</svg>
