<?xml version="1.0" encoding="UTF-8" standalone="no"?>
<svg
   width="16"
   height="16"
   version="1.1"
   id="svg1"
   sodipodi:docname="github-desktop-symbolic.svg"
   inkscape:version="1.4.2 (ebf0e940d0, 2025-05-08)"
   xmlns:inkscape="http://www.inkscape.org/namespaces/inkscape"
   xmlns:sodipodi="http://sodipodi.sourceforge.net/DTD/sodipodi-0.dtd"
   xmlns="http://www.w3.org/2000/svg"
   xmlns:svg="http://www.w3.org/2000/svg">
  <defs
     id="defs1">
     <style
        id="current-color-scheme"
        type="text/css">
        .ColorScheme-Text { color:#363636; }
        .ColorScheme-NeutralText { color:#f67400; }
        .ColorScheme-PositiveText { color:#37c837; }
        .ColorScheme-NegativeText { color:#f44336; }
        .ColorScheme-Highlight { color:#3daee9; }
     </style>
  </defs>
  <sodipodi:namedview
     id="namedview1"
     pagecolor="#ffffff"
     bordercolor="#000000"
     borderopacity="0.25"
     inkscape:showpageshadow="2"
     inkscape:pageopacity="0.0"
     inkscape:pagecheckerboard="0"
     inkscape:deskcolor="#d1d1d1"
     inkscape:zoom="49.125"
     inkscape:cx="7.9898219"
     inkscape:cy="8"
     inkscape:window-width="1920"
     inkscape:window-height="1011"
     inkscape:window-x="0"
     inkscape:window-y="0"
     inkscape:window-maximized="1"
     inkscape:current-layer="svg1" />
  <path
     id="path1"
     style="fill:currentColor"
     class="ColorScheme-Text"
     d="M 4 0 C 1.784 0 0 1.784 0 4 L 0 12 C 0 14.216 1.784 16 4 16 L 12 16 C 14.216 16 16 14.216 16 12 L 16 4 C 16 1.784 14.216 0 12 0 L 4 0 z M 4 1 L 12 1 C 13.662 1 15 2.338 15 4 L 15 12 C 15 13.662 13.662 15 12 15 L 10.951172 15 C 10.95205 14.54844 10.953125 14.05313 10.953125 13.71875 C 10.953125 13.24448 10.845023 12.853344 10.689453 12.527344 C 11.387943 12.380214 12.087381 12.158154 12.675781 11.652344 C 13.486091 10.955764 14.009766 9.8113594 14.009766 8.1308594 C 14.009766 7.2476394 13.740915 6.4782438 13.265625 5.8398438 C 13.390015 5.4313537 13.553203 4.6503 13.132812 3.5625 C 13.078764 3.4226 12.964776 3.3143381 12.822266 3.2675781 C 12.822266 3.2675781 12.692517 3.2306874 12.560547 3.2246094 C 12.170387 3.2062344 11.390069 3.3745237 10.292969 4.0898438 C 9.6453488 3.9246038 8.9618 3.8340775 8.25 3.8359375 C 7.58843 3.8375583 6.8831406 3.915996 6.1816406 4.09375 C 5.1841006 3.45644 4.4661094 3.2093225 4.0996094 3.2265625 C 3.9696594 3.2325277 3.84375 3.265625 3.84375 3.265625 C 3.69861 3.311291 3.5821537 3.42055 3.5273438 3.5625 C 3.1095338 4.6458 3.2699212 5.4227844 3.3945312 5.8339844 C 2.9151112 6.4630744 2.6015625 7.2286594 2.6015625 8.1308594 C 2.6015625 9.8164594 3.1809 10.966303 4.03125 11.658203 C 4.70994 12.210493 5.5114563 12.437182 6.2851562 12.576172 C 6.2396943 12.702742 6.1595394 12.810039 6.1308594 12.949219 C 5.9158494 13.039829 5.6500225 13.149617 5.3828125 13.148438 C 5.0645725 13.147037 4.8000881 13.082807 4.5175781 12.585938 C 4.5087681 12.568508 3.998405 11.564175 2.890625 11.484375 C 2.880865 11.484089 2.8710921 11.484089 2.8613281 11.484375 C 2.8613281 11.484375 2.782085 11.481487 2.6875 11.492188 C 2.592916 11.502887 2.4730213 11.510518 2.3007812 11.611328 C 2.2146633 11.661738 2.1031094 11.75029 2.0371094 11.90625 C 1.9711054 12.06221 1.9873375 12.254769 2.0390625 12.380859 C 2.1425225 12.633029 2.2977219 12.741238 2.5136719 12.892578 C 2.5359559 12.908138 2.5594714 12.921854 2.5839844 12.933594 L 2.5859375 12.933594 C 2.5943859 12.93724 2.6351501 12.959886 2.75 13.078125 C 2.88125 13.213245 3.0654794 13.452568 3.2246094 13.867188 C 3.2260694 13.870988 3.4217856 14.375889 3.9472656 14.755859 C 4.0835756 14.854432 4.2518794 14.93534 4.4433594 15 L 4 15 C 2.338 15 1 13.662 1 12 L 1 4 C 1 2.338 2.338 1 4 1 z M 12.267578 4.3300781 C 12.431118 5.0662581 12.32649 5.6237812 12.28125 5.7382812 C 12.2122 5.9137213 12.247687 6.1130862 12.373047 6.2539062 C 12.799587 6.7311863 13.009766 7.3246594 13.009766 8.1308594 C 13.009766 9.6136594 12.597788 10.400731 12.023438 10.894531 C 11.449087 11.388261 10.640216 11.600446 9.7910156 11.697266 C 9.3584856 11.744526 9.188495 12.283422 9.515625 12.570312 C 9.695135 12.728962 9.953125 13.08847 9.953125 13.71875 C 9.953125 14.05249 9.9524262 14.53893 9.9511719 15 L 6.9648438 15 C 6.9646203 14.87648 6.9652266 14.714869 6.9648438 14.636719 C 6.9638038 14.317119 6.6673387 14.080521 6.3554688 14.150391 C 5.3485688 14.374811 4.8348031 14.163402 4.5332031 13.945312 C 4.5273511 13.94108 4.5217558 13.93619 4.5195312 13.933594 L 4.5195312 13.931641 C 4.5188934 13.930548 4.5160768 13.926803 4.515625 13.925781 L 4.515625 13.923828 L 4.5136719 13.921875 L 4.5117188 13.919922 L 4.5097656 13.917969 C 4.508142 13.916344 4.5064971 13.914206 4.5039062 13.912109 C 4.7941363 14.065409 5.0984831 14.147208 5.3769531 14.148438 C 5.9651131 14.151037 6.4491062 13.930089 6.6914062 13.818359 C 6.8469762 13.747069 6.9552856 13.601181 6.9785156 13.431641 C 7.0439326 12.952351 7.2100987 12.618616 7.2617188 12.572266 C 7.5795388 12.284646 7.4118581 11.756628 6.9863281 11.705078 C 6.1384781 11.606235 5.2794094 11.385162 4.6621094 10.882812 C 4.0448094 10.380463 3.6015625 9.6005594 3.6015625 8.1308594 C 3.6015625 7.3437094 3.8520425 6.7456594 4.2890625 6.2558594 C 4.4151825 6.1146294 4.4507224 5.9142712 4.3808594 5.7382812 C 4.3357034 5.6242212 4.2328091 5.0696606 4.3925781 4.3378906 C 4.5858281 4.3538926 4.8981075 4.3573626 5.8359375 5.0097656 C 5.9597475 5.0951226 6.1153956 5.120226 6.2597656 5.078125 C 6.9004956 4.891985 7.5784531 4.8375875 8.2519531 4.8359375 C 8.9848131 4.8340175 9.6734469 4.904712 10.248047 5.078125 C 10.394207 5.122109 10.552444 5.0969346 10.677734 5.0097656 C 11.613474 4.3586356 12.051378 4.3461781 12.267578 4.3300781 z " />
</svg>
