<?xml version="1.0" encoding="UTF-8" standalone="no"?>
<svg
   width="16px"
   height="16px"
   version="1.1"
   viewBox="0 0 16 16"
   id="svg3"
   sodipodi:docname="org.gnome.Settings-diagnostics-symbolic.svg"
   inkscape:version="1.4.2 (ebf0e940d0, 2025-05-08)"
   xmlns:inkscape="http://www.inkscape.org/namespaces/inkscape"
   xmlns:sodipodi="http://sodipodi.sourceforge.net/DTD/sodipodi-0.dtd"
   xmlns="http://www.w3.org/2000/svg"
   xmlns:svg="http://www.w3.org/2000/svg">
  <defs
     id="defs3">
     <style
        id="current-color-scheme"
        type="text/css">
        .ColorScheme-Text { color:#363636; }
     </style>
  </defs>
  <sodipodi:namedview
     id="namedview3"
     pagecolor="#ffffff"
     bordercolor="#000000"
     borderopacity="0.25"
     inkscape:showpageshadow="2"
     inkscape:pageopacity="0.0"
     inkscape:pagecheckerboard="0"
     inkscape:deskcolor="#d1d1d1"
     inkscape:zoom="49.6875"
     inkscape:cx="8"
     inkscape:cy="8"
     inkscape:window-width="1920"
     inkscape:window-height="1010"
     inkscape:window-x="0"
     inkscape:window-y="0"
     inkscape:window-maximized="1"
     inkscape:current-layer="svg3" />
  <path
     id="path1"
     style="fill:currentColor"
     class="ColorScheme-Text"
     d="M 2 2 C 0.892 2 0 2.892 0 4 L 0 11 C 0 12.108 0.892 13 2 13 L 12.878906 13 L 11.880859 12 L 2 12 C 1.446 12 1 11.554 1 11 L 1 4 C 1 3.446 1.446 3 2 3 L 9.421875 3 L 14 3 C 14.554 3 15 3.446 15 4 L 15 10.878906 L 15.859375 11.738281 C 15.949816 11.509781 16 11.26143 16 11 L 16 4 C 16 2.892 15.108 2 14 2 L 2 2 z M 9.6777344 4.0058594 A 3.5 3.5 0 0 0 9.25 4.0097656 A 3.5 3.5 0 0 0 7.0253906 5.0253906 A 3.5 3.5 0 0 0 7.0253906 9.9746094 A 3.5 3.5 0 0 0 11.595703 10.302734 L 11.597656 10.302734 L 14.802734 13.509766 C 14.998604 13.705636 15.313896 13.705636 15.509766 13.509766 C 15.705636 13.313896 15.705636 12.998604 15.509766 12.802734 L 12.302734 9.5957031 A 3.5 3.5 0 0 0 11.974609 5.0253906 A 3.5 3.5 0 0 0 9.6777344 4.0058594 z M 9.5917969 5.0019531 A 2.5 2.5 0 0 1 11.267578 5.7324219 A 2.5 2.5 0 0 1 11.267578 9.2675781 A 2.5 2.5 0 0 1 7.7324219 9.2675781 A 2.5 2.5 0 0 1 7.7324219 5.7324219 A 2.5 2.5 0 0 1 9.28125 5.0097656 A 2.5 2.5 0 0 1 9.5917969 5.0019531 z M 4.5 14 C 4.223 14 4 14.223 4 14.5 C 4 14.777 4.223 15 4.5 15 L 11.5 15 C 11.777 15 12 14.777 12 14.5 C 12 14.223 11.777 14 11.5 14 L 4.5 14 z " />
</svg>
