<?xml version="1.0" encoding="UTF-8" standalone="no"?>
<svg
   width="16"
   height="16"
   version="1.1"
   viewBox="0 0 16 16"
   id="svg4"
   sodipodi:docname="spotify-client-symbolic.svg"
   inkscape:version="1.4.2 (ebf0e940d0, 2025-05-08)"
   xmlns:inkscape="http://www.inkscape.org/namespaces/inkscape"
   xmlns:sodipodi="http://sodipodi.sourceforge.net/DTD/sodipodi-0.dtd"
   xmlns="http://www.w3.org/2000/svg"
   xmlns:svg="http://www.w3.org/2000/svg">
  <defs
     id="defs4">
     <style
        id="current-color-scheme"
        type="text/css">
        .ColorScheme-Text { color:#363636; }
     </style>
  </defs>
  <sodipodi:namedview
     id="namedview4"
     pagecolor="#ffffff"
     bordercolor="#000000"
     borderopacity="0.25"
     inkscape:showpageshadow="2"
     inkscape:pageopacity="0.0"
     inkscape:pagecheckerboard="0"
     inkscape:deskcolor="#d1d1d1"
     inkscape:zoom="49.75"
     inkscape:cx="7.9899497"
     inkscape:cy="8"
     inkscape:window-width="1920"
     inkscape:window-height="1011"
     inkscape:window-x="0"
     inkscape:window-y="0"
     inkscape:window-maximized="1"
     inkscape:current-layer="svg4" />
  <path
     id="path1"
     style="fill:currentColor"
     class="ColorScheme-Text"
     d="M 8 0 A 8 8 0 0 0 0 8 A 8 8 0 0 0 8 16 A 8 8 0 0 0 16 8 A 8 8 0 0 0 8 0 z M 8 1 A 7 7 0 0 1 15 8 A 7 7 0 0 1 8 15 A 7 7 0 0 1 1 8 A 7 7 0 0 1 8 1 z M 6.9394531 4.8105469 C 5.9022531 4.8105469 4.8695875 4.9369169 3.8671875 5.1855469 C 3.5353075 5.2676679 3.3338956 5.6673069 3.4160156 5.9980469 C 3.4981366 6.3287969 3.8341356 6.5313387 4.1660156 6.4492188 C 5.0705156 6.2253387 6.0043063 6.1113281 6.9414062 6.1113281 C 8.7391063 6.1113281 10.460847 6.5168331 12.060547 7.3144531 C 12.148297 7.3583451 12.241744 7.3789062 12.333984 7.3789062 C 12.562364 7.3789062 12.780355 7.1897762 12.890625 6.9726562 C 13.042515 6.6677462 12.917338 6.2944681 12.611328 6.1425781 C 10.838328 5.2583281 8.9317531 4.8105469 6.9394531 4.8105469 z M 6.9414062 7.5136719 C 6.0099063 7.5136719 5.0819 7.6386825 4.1875 7.8828125 C 3.89951 7.9615705 3.7298737 8.4522444 3.8085938 8.7402344 C 3.8873518 9.0282244 4.1854894 9.1967606 4.4746094 9.1191406 C 5.2756094 8.9008806 6.1067063 8.7890625 6.9414062 8.7890625 C 8.4601063 8.7890625 9.9070469 9.1415206 11.248047 9.8378906 C 11.326807 9.8795176 11.411704 9.9003906 11.496094 9.9003906 C 11.692974 9.9003906 11.881776 9.5966294 11.978516 9.4121094 C 12.113556 9.1477694 12.008521 8.8216769 11.744141 8.6855469 C 10.270441 7.9205469 8.6109062 7.5136719 6.9414062 7.5136719 z M 6.9394531 10.042969 C 6.1035931 10.042969 5.2794281 10.165719 4.4863281 10.412109 C 4.2410681 10.485239 4.1043275 11.005553 4.1796875 11.251953 C 4.2550475 11.496083 4.5144956 11.634271 4.7597656 11.556641 C 5.4628856 11.338381 6.1969531 11.228516 6.9394531 11.228516 C 8.1791531 11.228516 9.4071813 11.542095 10.488281 12.140625 L 10.712891 12.197266 C 10.877131 12.197266 11.035068 12.109198 11.117188 11.955078 C 11.239797 11.731188 11.161697 11.189026 10.935547 11.066406 C 9.7182469 10.398076 8.3355531 10.042969 6.9394531 10.042969 z " />
</svg>
