<?xml version="1.0" encoding="UTF-8" standalone="no"?>
<svg
   width="16"
   height="16"
   version="1.1"
   viewBox="0 0 16 16"
   id="svg2"
   sodipodi:docname="thunderbird-symbolic.svg"
   inkscape:version="1.4.2 (ebf0e940d0, 2025-05-08)"
   xmlns:inkscape="http://www.inkscape.org/namespaces/inkscape"
   xmlns:sodipodi="http://sodipodi.sourceforge.net/DTD/sodipodi-0.dtd"
   xmlns="http://www.w3.org/2000/svg"
   xmlns:svg="http://www.w3.org/2000/svg">
  <defs
     id="defs2">
    <style
       id="current-color-scheme"
       type="text/css">
        .ColorScheme-Text { color:#363636; }
     </style>
  </defs>
  <sodipodi:namedview
     id="namedview2"
     pagecolor="#ffffff"
     bordercolor="#000000"
     borderopacity="0.25"
     inkscape:showpageshadow="2"
     inkscape:pageopacity="0.0"
     inkscape:pagecheckerboard="0"
     inkscape:deskcolor="#d1d1d1"
     inkscape:zoom="49.75"
     inkscape:cx="7.9899497"
     inkscape:cy="8"
     inkscape:window-width="1920"
     inkscape:window-height="1011"
     inkscape:window-x="0"
     inkscape:window-y="0"
     inkscape:window-maximized="1"
     inkscape:current-layer="svg2" />
  <path
     id="path1"
     style="fill:currentColor;stroke-width:0.125"
     class="ColorScheme-Text"
     d="M 11,0 C 9.9697,0 9.1375938,0.076379 8.4492188,0.4140625 7.8197437,0.7228375 7.3756344,1.2872719 7.1230469,2.0371094 6.0334844,2.6242219 5.3574219,3.3892187 5.3574219,4.2929687 V 5.1816406 L 6.1171875,4.7207031 c 0,0 0.8557375,-0.5058594 1.8828125,-0.5058594 2.043875,0 3.785156,1.7412813 3.785156,3.7851563 0,2.02725 -1.778906,3.785156 -3.785156,3.785156 -2.042375,0 -3.7851563,-1.753281 -3.7851563,-3.785156 0,-1.506 0.9335938,-2.4941406 0.9335938,-2.4941406 L 5.2851562,5.3613281 V 5.1601562 c 0,-0.8202375 -0.032473,-1.5482187 -0.2128906,-2.1679687 C 4.8918531,2.3725 4.4936312,1.8146531 3.8554688,1.6269531 L 3.7871094,1.6074219 H 3.7148438 C 3.5088938,1.6074218 3.2768531,1.729425 3.1738281,1.8710937 3.0792268,2.0011673 3.059294,2.1519851 3.0566406,2.1757812 V 2.166015 C 2.9250531,3.26569 2.461025,3.4361712 2.03125,4.0449212 v 0.00195 C 1.80655,4.3625375 1.6303875,4.7188937 1.484375,5.0898437 1.4020888,4.98859 1.2810312,4.875 1.0351562,4.875 0.80871875,4.875 0.66849688,4.9925706 0.59179687,5.0722656 0.51509312,5.1519519 0.47671188,5.2209406 0.44335938,5.2832031 0.37884438,5.4036306 0.35778813,5.4577187 0.33007813,5.5664062 0.10426562,6.3113937 0,7.27675 0,8 c 0,4.53575 3.46425,8 8,8 4.570375,0 8,-3.396875 8,-8 0,-1.258375 -0.25369,-2.7011406 -0.791015,-3.9472656 l -0.0039,-0.011719 -0.0059,-0.00977 C 15.137435,3.9041079 15.05507,3.7804798 14.978481,3.6542923 c 0.01575,0.00269 0.03137,0.00304 0.04687,0.00586 l 1.388673,0.2519531 -0.919923,-1.0703125 c -0.326475,-0.379625 -0.72838,-0.6020718 -1.167967,-0.7480468 0.04088,-0.00778 0.07981,-0.021708 0.123046,-0.023437 L 15.722648,2.01953 14.753898,1.191405 C 13.761956,0.34288125 12.518,0 11,0 Z m 0,1 c 0.9724,0 1.721875,0.1491 2.359375,0.46875 -0.2404,0.18775 -0.43949,0.4249469 -0.564452,0.7011719 l -0.300782,0.4355468 c 0,0 0.404724,0.16995 0.601562,0.3046875 0.196838,0.1347375 0.519529,0.5332032 0.519532,0.5332032 0.23366,0.2823375 0.526948,0.7043375 0.679688,1.015625 C 14.761632,5.5465969 15,6.8835 15,8 15,12.11825 12.086875,15 8,15 3.96425,15 1,12.03575 1,8 1,7.6759625 1.0320112,7.2657656 1.0859375,6.8613281 1.1155525,6.9347781 1.526675,9.5095 2.125,10 2.125,10 1.8090844,8.5311875 1.9667969,7.2421875 2.1245094,5.9531875 2.4075781,5.24025 2.8457031,4.625 h 0.00195 V 4.62305 C 3.0459819,4.3415462 3.6474006,3.862865 3.9296881,2.86914 3.9967969,2.9712413 4.0573537,3.0860713 4.1113287,3.2714838 4.2287762,3.6748963 4.2722475,4.2846963 4.2792975,4.9902338 3.9770469,5.3621844 3.2148438,6.444375 3.2148438,8 c 0,2.59675 2.1775312,4.785156 4.7851562,4.785156 2.5795,0 4.785156,-2.183906 4.785156,-4.785156 0,-2.606125 -2.179031,-4.7851563 -4.785156,-4.7851563 -0.3924875,0 -0.7449594,0.058779 -1.0683594,0.1367188 C 7.1405156,3.1767375 7.3915125,2.9998031 7.75,2.8222656 L 7.9511719,2.7226562 8.0117188,2.5058594 C 8.1951688,1.8332219 8.4487,1.529275 8.890625,1.3125 8.9439775,1.28633 9.0114994,1.2668106 9.0722656,1.2441406 9.1905169,1.1896819 9.3895312,1.1270769 9.6835938,1.0878906 10.047794,1.0299756 10.48185,1 11,1 Z M 10.119141,1.8125 A 0.5,0.5 0 0 0 9.6347656,2.1816406 0.5,0.5 0 0 0 9.9882813,2.7949219 0.5,0.5 0 0 0 10.601563,2.4414062 0.5,0.5 0 0 0 10.248047,1.828125 0.5,0.5 0 0 0 10.119141,1.8125 Z" />
  <path
     id="path2"
     d="M 8,5 C 7.11,5 6.1390625,5.4292969 5.5390625,6.2792969 L 8,8 10.460938,6.2792969 C 9.8809375,5.4292969 8.89,5 8,5 Z M 5.1699219,7 C 5.0599219,7.32 5,7.65 5,8 5,9.66 6.34,11 8,11 9.66,11 11,9.66 11,8 11,7.65 10.94008,7.32 10.830078,7 L 8,9 Z"
     style="opacity:0.45;fill:currentColor;stroke-width:0.125"
     class="ColorScheme-Text" />
</svg>
