<?xml version="1.0" encoding="UTF-8" standalone="no"?>
<!-- Created with Inkscape (http://www.inkscape.org/) -->

<svg
   width="32"
   height="32"
   viewBox="0 0 32 32.000002"
   version="1.1"
   id="svg5"
   inkscape:version="1.2.2 (1:1.2.2+202305151914+b0a8486541)"
   sodipodi:docname="application-pdf.svg"
   xmlns:inkscape="http://www.inkscape.org/namespaces/inkscape"
   xmlns:sodipodi="http://sodipodi.sourceforge.net/DTD/sodipodi-0.dtd"
   xmlns:xlink="http://www.w3.org/1999/xlink"
   xmlns="http://www.w3.org/2000/svg"
   xmlns:svg="http://www.w3.org/2000/svg">
  <sodipodi:namedview
     id="namedview7"
     pagecolor="#ffffff"
     bordercolor="#000000"
     borderopacity="0.25"
     inkscape:showpageshadow="2"
     inkscape:pageopacity="0.0"
     inkscape:pagecheckerboard="0"
     inkscape:deskcolor="#d1d1d1"
     inkscape:document-units="px"
     showgrid="false"
     inkscape:zoom="24.6875"
     inkscape:cx="15.979747"
     inkscape:cy="16"
     inkscape:window-width="1920"
     inkscape:window-height="1012"
     inkscape:window-x="0"
     inkscape:window-y="0"
     inkscape:window-maximized="1"
     inkscape:current-layer="svg5"
     showguides="false" />
  <defs
     id="defs2">
    <linearGradient
       inkscape:collect="always"
       id="linearGradient899">
      <stop
         style="stop-color:#db3333;stop-opacity:1;"
         offset="0"
         id="stop895" />
      <stop
         style="stop-color:#db5f5f;stop-opacity:1;"
         offset="1"
         id="stop897" />
    </linearGradient>
    <linearGradient
       inkscape:collect="always"
       xlink:href="#linearGradient899"
       id="linearGradient901"
       x1="7"
       y1="2"
       x2="25"
       y2="30"
       gradientUnits="userSpaceOnUse" />
  </defs>
  <path
     id="rect234"
     style="opacity:0.2;stroke-width:0.5;stroke-linecap:round;stroke-linejoin:round"
     d="m 7,3 h 12 l 8,8 v 18 c 0,1.108 -0.892,2 -2,2 H 7 C 5.892,31 5,30.108 5,29 V 5 C 5,3.892 5.892,3 7,3 Z"
     sodipodi:nodetypes="sccssssss" />
  <path
     id="rect448"
     style="fill:url(#linearGradient901);fill-opacity:1;stroke-width:0.5;stroke-linecap:round;stroke-linejoin:round"
     d="m 7,2 h 12 l 3,5 5,3 v 18 c 0,1.108 -0.892,2 -2,2 H 7 C 5.892,30 5,29.108 5,28 V 4 C 5,2.892 5.892,2 7,2 Z"
     sodipodi:nodetypes="scccssssss" />
  <path
     d="M 27,11 H 21 C 19.892,11 19,10.108 19,9 V 2 l 8,8 z"
     style="opacity:0.2;fill:#000000;stroke-width:0.5;stroke-linecap:round;stroke-linejoin:round"
     id="path611"
     sodipodi:nodetypes="cssccc" />
  <path
     id="rect600"
     style="fill:#e09999;fill-opacity:1;stroke-width:0.5;stroke-linecap:round;stroke-linejoin:round"
     d="M 27,10 H 21 C 19.892,10 19,9.108 19,8 V 2 l 4,4 z"
     sodipodi:nodetypes="cssccc" />
  <path
     d="m 15.02458,12 c -0.369009,0 -0.71409,0.180616 -0.79757,0.478729 -0.310016,1.142882 0.03696,2.910325 0.615649,5.112489 l -0.174568,0.426353 c -0.443097,1.080082 -0.996962,2.155764 -1.484002,3.110325 -2.010804,3.934408 -3.575127,6.057211 -4.618169,6.205932 l -0.004,-0.0432 c -0.02264,-0.490769 0.883042,-1.756084 2.110564,-2.762085 0.12804,-0.103553 0.674434,-0.63217 0.674434,-0.63217 0,0 -0.73753,0.389337 -0.903202,0.489745 -1.538243,0.918162 -2.303684,1.838083 -2.428485,2.448725 -0.03704,0.181376 -0.01328,0.404561 0.147001,0.496193 l 0.39328,0.197552 c 1.070723,0.535961 2.387285,-0.873281 4.137608,-3.940967 1.781123,-0.584289 4.003447,-1.134402 6.026811,-1.432482 1.811203,1.034881 3.888807,1.527602 4.687048,1.314882 0.151897,-0.04016 0.311681,-0.159392 0.393281,-0.269217 0.064,-0.101048 0.153464,-0.505376 0.153464,-0.505376 0,0 -0.150184,0.204376 -0.27384,0.264624 -0.505218,0.238488 -2.100244,-0.159392 -3.736967,-0.960162 1.415202,-0.150624 2.594165,-0.156432 3.224246,0.04496 0.800242,0.255441 0.800882,0.517273 0.790225,0.570609 0.0108,-0.04392 0.04664,-0.219344 0.04224,-0.294024 -0.01816,-0.192049 -0.07736,-0.363545 -0.222361,-0.505377 -0.296216,-0.291833 -1.027602,-0.438897 -2.024243,-0.452073 -0.751202,-0.0082 -1.652004,0.0576 -2.629765,0.197552 -0.448097,-0.257312 -0.920962,-0.540177 -1.295603,-0.890402 -0.950161,-0.887441 -1.746562,-2.119524 -2.241124,-3.500806 0.03376,-0.132424 0.06608,-0.261816 0.09555,-0.392361 0.137464,-0.618169 0.236136,-2.661924 0.236136,-2.661924 0,0 -0.391473,1.535362 -0.452977,1.766963 -0.03952,0.146856 -0.08869,0.3036 -0.145176,0.466777 -0.300001,-1.054322 -0.452073,-2.076164 -0.452073,-2.851206 0,-0.219032 0.0188,-0.645249 0.08084,-0.982241 0.03024,-0.240361 0.117281,-0.365177 0.20768,-0.425433 0.178857,0.04336 0.379065,0.317665 0.588073,0.776434 0.179481,0.39664 0.168137,0.856001 0.168137,1.140321 0,0 0.192489,-0.703993 0.147936,-1.120081 -0.02712,-0.249785 -0.264769,-0.892402 -0.769986,-0.884882 h -0.04136 l -0.225113,-0.0024 z m 0.171824,6.383291 c 0.522809,1.051202 1.243842,2.049524 2.189684,2.850325 0.210856,0.178233 0.435201,0.347801 0.666153,0.507201 -1.717683,0.319449 -3.521686,0.768818 -5.198009,1.471123 0.303128,-0.538473 0.630889,-1.125122 0.966642,-1.757763 0.650193,-1.229442 1.044161,-2.177764 1.375522,-3.070806 z"
     style="fill:#ffffff;stroke-width:0.8"
     id="path308" />
</svg>
