<?xml version="1.0" encoding="UTF-8" standalone="no"?>
<!-- Created with Inkscape (http://www.inkscape.org/) -->

<svg
   width="32"
   height="32"
   viewBox="0 0 32 32.000002"
   version="1.1"
   id="svg5"
   inkscape:version="1.2.2 (1:1.2.2+202305151914+b0a8486541)"
   sodipodi:docname="application-epub+zip.svg"
   xmlns:inkscape="http://www.inkscape.org/namespaces/inkscape"
   xmlns:sodipodi="http://sodipodi.sourceforge.net/DTD/sodipodi-0.dtd"
   xmlns:xlink="http://www.w3.org/1999/xlink"
   xmlns="http://www.w3.org/2000/svg"
   xmlns:svg="http://www.w3.org/2000/svg">
  <sodipodi:namedview
     id="namedview7"
     pagecolor="#ffffff"
     bordercolor="#000000"
     borderopacity="0.25"
     inkscape:showpageshadow="2"
     inkscape:pageopacity="0.0"
     inkscape:pagecheckerboard="0"
     inkscape:deskcolor="#d1d1d1"
     inkscape:document-units="px"
     showgrid="false"
     inkscape:zoom="24.6875"
     inkscape:cx="15.979747"
     inkscape:cy="16"
     inkscape:window-width="1920"
     inkscape:window-height="1012"
     inkscape:window-x="0"
     inkscape:window-y="0"
     inkscape:window-maximized="1"
     inkscape:current-layer="svg5" />
  <defs
     id="defs2">
    <linearGradient
       inkscape:collect="always"
       id="linearGradient975">
      <stop
         style="stop-color:#aad400;stop-opacity:1;"
         offset="0"
         id="stop971" />
      <stop
         style="stop-color:#cde75f;stop-opacity:1;"
         offset="1"
         id="stop973" />
    </linearGradient>
    <linearGradient
       inkscape:collect="always"
       xlink:href="#linearGradient975"
       id="linearGradient2169"
       x1="7"
       y1="2"
       x2="25"
       y2="30"
       gradientUnits="userSpaceOnUse" />
  </defs>
  <path
     id="rect234"
     style="opacity:0.2;stroke-width:0.5;stroke-linecap:round;stroke-linejoin:round"
     d="m 7,3 h 12 l 8,8 v 18 c 0,1.108 -0.892,2 -2,2 H 7 C 5.892,31 5,30.108 5,29 V 5 C 5,3.892 5.892,3 7,3 Z"
     sodipodi:nodetypes="sccssssss" />
  <path
     id="rect448"
     style="fill:url(#linearGradient2169);fill-opacity:1;stroke-width:0.5;stroke-linecap:round;stroke-linejoin:round"
     d="m 7,2 h 12 l 3,5 5,3 v 18 c 0,1.108 -0.892,2 -2,2 H 7 C 5.892,30 5,29.108 5,28 V 4 C 5,2.892 5.892,2 7,2 Z"
     sodipodi:nodetypes="scccssssss" />
  <path
     d="M 27,11 H 21 C 19.892,11 19,10.108 19,9 V 2 l 8,8 z"
     style="opacity:0.2;fill:#000000;stroke-width:0.5;stroke-linecap:round;stroke-linejoin:round"
     id="path611"
     sodipodi:nodetypes="cssccc" />
  <path
     id="rect600"
     style="fill:#dbea9d;fill-opacity:1;stroke-width:0.5;stroke-linecap:round;stroke-linejoin:round"
     d="M 27,10 H 21 C 19.892,10 19,9.108 19,8 V 2 l 4,4 z"
     sodipodi:nodetypes="cssccc" />
  <path
     d="m 15.999973,24.399409 -4.399351,-4.399692 4.399351,-4.399034 1.466603,1.466307 -2.933174,2.932727 1.466473,1.466518 4.399397,-4.399014 -3.832442,-3.832308 c -0.312903,-0.313218 -0.820492,-0.313218 -1.133709,0 l -6.1984211,6.198443 c -0.3129332,0.312902 -0.3129332,0.820516 0,1.133685 l 6.1984211,6.198262 c 0.313217,0.313093 0.820806,0.313093 1.133709,0 l 6.19847,-6.198262 c 0.312933,-0.313169 0.312933,-0.820783 0,-1.133685 l -0.899786,-0.899558 z"
     style="fill:#ffffff;stroke-width:2.00001"
     id="path300" />
</svg>
