<?xml version="1.0" encoding="UTF-8" standalone="no"?>
<!-- Created with Inkscape (http://www.inkscape.org/) -->

<svg
   width="32"
   height="32"
   viewBox="0 0 32 32.000002"
   version="1.1"
   id="svg5"
   inkscape:version="1.2.2 (1:1.2.2+202305151914+b0a8486541)"
   sodipodi:docname="x-office-document.svg"
   xmlns:inkscape="http://www.inkscape.org/namespaces/inkscape"
   xmlns:sodipodi="http://sodipodi.sourceforge.net/DTD/sodipodi-0.dtd"
   xmlns:xlink="http://www.w3.org/1999/xlink"
   xmlns="http://www.w3.org/2000/svg"
   xmlns:svg="http://www.w3.org/2000/svg">
  <sodipodi:namedview
     id="namedview7"
     pagecolor="#ffffff"
     bordercolor="#000000"
     borderopacity="0.25"
     inkscape:showpageshadow="2"
     inkscape:pageopacity="0.0"
     inkscape:pagecheckerboard="0"
     inkscape:deskcolor="#d1d1d1"
     inkscape:document-units="px"
     showgrid="false"
     inkscape:zoom="25.3125"
     inkscape:cx="15.980247"
     inkscape:cy="16"
     inkscape:window-width="1920"
     inkscape:window-height="1012"
     inkscape:window-x="0"
     inkscape:window-y="0"
     inkscape:window-maximized="1"
     inkscape:current-layer="svg5" />
  <defs
     id="defs2">
    <linearGradient
       inkscape:collect="always"
       xlink:href="#linearGradient1060"
       id="linearGradient2837"
       x1="7"
       y1="2"
       x2="25"
       y2="30"
       gradientUnits="userSpaceOnUse" />
    <linearGradient
       inkscape:collect="always"
       id="linearGradient1060">
      <stop
         style="stop-color:#2275d4;stop-opacity:1;"
         offset="0"
         id="stop1056" />
      <stop
         style="stop-color:#54a0fa;stop-opacity:1;"
         offset="1"
         id="stop1058" />
    </linearGradient>
  </defs>
  <path
     id="rect234"
     style="opacity:0.2;stroke-width:0.5;stroke-linecap:round;stroke-linejoin:round"
     d="m 7,3 h 12 l 8,8 v 18 c 0,1.108 -0.892,2 -2,2 H 7 C 5.892,31 5,30.108 5,29 V 5 C 5,3.892 5.892,3 7,3 Z"
     sodipodi:nodetypes="sccssssss" />
  <path
     id="rect448"
     style="fill:url(#linearGradient2837);fill-opacity:1.0;stroke-width:0.5;stroke-linecap:round;stroke-linejoin:round"
     d="m 7,2 h 12 l 3,5 5,3 v 18 c 0,1.108 -0.892,2 -2,2 H 7 C 5.892,30 5,29.108 5,28 V 4 C 5,2.892 5.892,2 7,2 Z"
     sodipodi:nodetypes="scccssssss" />
  <path
     id="rect4373"
     style="fill:#ffffff"
     d="M 8.5,14 C 8.2230006,14 8,14.223 8,14.5 8,14.777 8.2230006,15 8.5,15 h 6 C 14.777,15 15,14.777 15,14.5 15,14.223 14.777,14 14.5,14 Z m 0,2 C 8.2230006,16 8,16.223 8,16.5 8,16.777 8.2230006,17 8.5,17 h 6 C 14.777,17 15,16.777 15,16.5 15,16.223 14.777,16 14.5,16 Z m 0,2 C 8.2230006,18 8,18.223 8,18.5 8,18.777 8.2230006,19 8.5,19 h 6 C 14.777,19 15,18.777 15,18.5 15,18.223 14.777,18 14.5,18 Z m 0,3 C 8.2230006,21 8,21.223 8,21.5 8,21.777 8.2230006,22 8.5,22 h 15 C 23.777,22 24,21.777 24,21.5 24,21.223 23.777,21 23.5,21 Z m 0,2 C 8.2230006,23 8,23.223 8,23.5 8,23.777 8.2230006,24 8.5,24 h 15 C 23.777,24 24,23.777 24,23.5 24,23.223 23.777,23 23.5,23 Z m 0,2 C 8.2230006,25 8,25.223 8,25.5 8,25.777 8.2230006,26 8.5,26 h 6 C 14.777,26 15,25.777 15,25.5 15,25.223 14.777,25 14.5,25 Z" />
  <path
     id="rect4649"
     style="fill:#7ad2f9;fill-opacity:1"
     d="m 18,14 c -0.553999,0 -1,0.446001 -1,1 v 3 c 0,0.553999 0.446001,1 1,1 h 5 c 0.553999,0 1,-0.446001 1,-1 v -3 c 0,-0.553999 -0.446001,-1 -1,-1 z m 1,1 3,3 h -4 z m 3.5,0 C 22.776142,15 23,15.223858 23,15.5 23,15.776142 22.776142,16 22.5,16 22.223858,16 22,15.776142 22,15.5 22,15.223858 22.223858,15 22.5,15 Z" />
  <path
     d="M 27,11 H 21 C 19.892,11 19,10.108 19,9 V 2 l 8,8 z"
     style="opacity:0.2;fill:#000000;stroke-width:0.5;stroke-linecap:round;stroke-linejoin:round"
     id="path611"
     sodipodi:nodetypes="cssccc" />
  <path
     id="rect600"
     style="fill:#94c4f5;fill-opacity:1;stroke-width:0.5;stroke-linecap:round;stroke-linejoin:round"
     d="M 27,10 H 21 C 19.892,10 19,9.108 19,8 V 2 l 4,4 z"
     sodipodi:nodetypes="cssccc" />
</svg>
