<?xml version="1.0" encoding="UTF-8" standalone="no"?>
<!-- Created with Inkscape (http://www.inkscape.org/) -->

<svg
   width="32"
   height="32"
   viewBox="0 0 32 32.000002"
   version="1.1"
   id="svg5"
   inkscape:version="1.2.1 (9c6d41e410, 2022-07-14)"
   sodipodi:docname="x-office-drawing-template.svg"
   xmlns:inkscape="http://www.inkscape.org/namespaces/inkscape"
   xmlns:sodipodi="http://sodipodi.sourceforge.net/DTD/sodipodi-0.dtd"
   xmlns="http://www.w3.org/2000/svg"
   xmlns:svg="http://www.w3.org/2000/svg">
  <sodipodi:namedview
     id="namedview7"
     pagecolor="#ffffff"
     bordercolor="#000000"
     borderopacity="0.25"
     inkscape:showpageshadow="2"
     inkscape:pageopacity="0.0"
     inkscape:pagecheckerboard="0"
     inkscape:deskcolor="#d1d1d1"
     inkscape:document-units="px"
     showgrid="false"
     inkscape:zoom="25.5625"
     inkscape:cx="6.2591687"
     inkscape:cy="16"
     inkscape:window-width="1920"
     inkscape:window-height="1004"
     inkscape:window-x="0"
     inkscape:window-y="0"
     inkscape:window-maximized="1"
     inkscape:current-layer="svg5" />
  <defs
     id="defs2" />
  <path
     id="rect234"
     style="opacity:0.2;stroke-width:0.5;stroke-linecap:round;stroke-linejoin:round"
     d="m 7,3 h 12 l 8,8 v 18 c 0,1.108 -0.892,2 -2,2 H 7 C 5.892,31 5,30.108 5,29 V 5 C 5,3.892 5.892,3 7,3 Z"
     sodipodi:nodetypes="sccssssss" />
  <path
     id="rect448"
     style="fill:#ffb940;fill-opacity:1;stroke-width:0.5;stroke-linecap:round;stroke-linejoin:round"
     d="m 7,2 h 12 l 3,5 5,3 v 18 c 0,1.108 -0.892,2 -2,2 H 7 C 5.892,30 5,29.108 5,28 V 4 C 5,2.892 5.892,2 7,2 Z"
     sodipodi:nodetypes="scccssssss" />
  <path
     d="M 27,11 H 21 C 19.892,11 19,10.108 19,9 V 2 l 8,8 z"
     style="opacity:0.2;fill:#000000;stroke-width:0.5;stroke-linecap:round;stroke-linejoin:round"
     id="path611"
     sodipodi:nodetypes="cssccc" />
  <path
     id="rect600"
     style="fill:#fede92;fill-opacity:1;stroke-width:0.5;stroke-linecap:round;stroke-linejoin:round"
     d="M 27,10 H 21 C 19.892,10 19,9.108 19,8 V 2 l 4,4 z"
     sodipodi:nodetypes="cssccc" />
  <path
     d="m 19.865232,14.766383 c -0.177305,-0.0045 -0.361495,0.03014 -0.542968,0.130859 -0.572357,0.318365 -0.786018,0.949218 -0.791992,1.514649 -0.006,0.565431 0.131364,1.145209 0.254882,1.700195 0.123519,0.554986 0.232065,1.085507 0.22461,1.455078 -0.0075,0.369571 -0.0554,0.496684 -0.279297,0.609375 -0.187306,0.09427 -0.29743,0.101445 -0.398438,0.08399 -0.101008,-0.01746 -0.214462,-0.07304 -0.355468,-0.19336 -0.282013,-0.240646 -0.617533,-0.730405 -1.001954,-1.264648 -0.38442,-0.534243 -0.830563,-1.11772 -1.458984,-1.53125 -0.62842,-0.41353 -1.457224,-0.622643 -2.423828,-0.402344 l -0.0098,0.0029 -0.0098,0.002 c -0.633429,0.171616 -1.110026,0.646215 -1.439453,1.223633 -0.329427,0.577418 -0.532035,1.275353 -0.630859,2.017578 -0.0083,0.06257 0.0088,0.129221 0.002,0.192382 -0.196884,-0.01198 -0.387569,-0.04157 -0.585938,-0.0459 h -0.002 L 9.5136,20.24978 l -0.5,-0.0068 -0.01367,1 0.5,0.0068 0.896485,0.01172 c 0.226109,0.0049 0.397881,0.08228 0.618163,0.100586 0.02354,1.115826 0.197673,2.231756 0.738281,3.106446 l 0.0098,0.01563 0.01074,0.01563 c 0.834566,1.149643 2.259822,1.485275 3.323242,1.071289 0.531711,-0.206993 0.990329,-0.646934 1.13086,-1.253906 0.140532,-0.606973 -0.03012,-1.309878 -0.515625,-2.063477 -0.706234,-1.09624 -2.118421,-1.644639 -3.716797,-1.868164 0.005,-0.04528 -0.0079,-0.09389 -0.002,-0.138672 0.08558,-0.64277 0.266363,-1.229373 0.508789,-1.654297 0.241079,-0.42256 0.523605,-0.664917 0.827149,-0.749023 0.722638,-0.160859 1.198341,-0.02578 1.636719,0.262695 0.441844,0.290754 0.82981,0.769608 1.197265,1.280273 0.367455,0.510666 0.702308,1.047383 1.164063,1.441407 0.230877,0.197012 0.507935,0.361441 0.834961,0.417968 0.327025,0.05653 0.681914,-0.0078 1.017578,-0.176757 0.584006,-0.293939 0.818762,-0.921449 0.830078,-1.482422 0.01131,-0.560973 -0.12437,-1.136686 -0.248047,-1.692383 -0.123677,-0.555697 -0.235477,-1.09104 -0.231445,-1.472656 0.0041,-0.381616 0.05933,-0.529121 0.277343,-0.650391 v -10e-4 c -0.0248,0.0138 0.06713,-0.01517 0.254883,0.0459 0.187752,0.06107 0.433638,0.187485 0.664063,0.331054 0.46085,0.287139 0.856445,0.625977 0.856445,0.625977 l 0.37793,0.327148 0.65332,-0.756836 -0.37793,-0.327148 c 0,0 -0.438435,-0.380052 -0.980468,-0.717774 -0.271017,-0.16886 -0.568427,-0.331009 -0.883789,-0.433593 -0.157682,-0.05129 -0.32923,-0.0941 -0.506836,-0.09863 z m -7.851562,6.756836 c 1.309758,0.245501 2.452901,0.643576 2.857422,1.271484 0.390785,0.606571 0.44284,1.03339 0.381835,1.296875 -0.061,0.263486 -0.228156,0.43442 -0.519531,0.547852 -0.579281,0.225513 -1.575646,0.04127 -2.137695,-0.71875 -0.373394,-0.614293 -0.531445,-1.494692 -0.582031,-2.397461 z"
     style="color:#000000;fill:#ffffff;stroke:none;stroke-width:0.5;stroke-linecap:square;-inkscape-stroke:none"
     id="path1026" />
  <path
     d="m 25.902263,18.003169 c -0.354846,0.0168 -0.705014,0.124304 -1.01176,0.328138 L 8.8937898,28.335678 c -1.645657,1.097979 -0.868902,3.663462 1.1094172,3.664204 H 25.999922 C 27.104485,31.999772 27.99989,31.104369 28,29.999805 V 19.99934 C 27.9989,19.261819 27.592052,18.584739 26.941365,18.237554 26.616636,18.063787 26.257108,17.98627 25.902263,18.003169 Z M 25,21.999804 v 7.000001 H 13.5 Z"
     style="opacity:0.2;fill:#000000;fill-opacity:1;stroke-width:4.00015;stroke-linecap:round;stroke-linejoin:round"
     id="path1075"
     sodipodi:nodetypes="ccccccccccccc" />
  <path
     id="path5201"
     style="fill:#ebebec;fill-opacity:1;stroke-width:4.00015;stroke-linecap:round;stroke-linejoin:round"
     d="m 25.902263,17.003267 c -0.354846,0.0168 -0.705014,0.124304 -1.01176,0.328138 L 8.8937898,27.335775 c -1.645657,1.097979 -0.868902,3.663462 1.1094172,3.664204 H 25.999922 C 27.104485,30.999869 27.99989,30.104466 28,28.999902 V 18.999438 C 27.9989,18.261917 27.592052,17.584837 26.941365,17.237652 26.616636,17.063885 26.257108,16.986368 25.902263,17.003267 Z M 25,20.999902 v 7 H 13.5 Z"
     sodipodi:nodetypes="ccccccccccccc" />
</svg>
