<?xml version="1.0" encoding="UTF-8" standalone="no"?>
<!-- Created with Inkscape (http://www.inkscape.org/) -->

<svg
   width="24"
   height="24"
   viewBox="0 0 24 24.000002"
   version="1.1"
   id="svg356"
   inkscape:version="1.2.1 (9c6d41e410, 2022-07-14)"
   sodipodi:docname="indicator-messages-new.svg"
   xmlns:inkscape="http://www.inkscape.org/namespaces/inkscape"
   xmlns:sodipodi="http://sodipodi.sourceforge.net/DTD/sodipodi-0.dtd"
   xmlns="http://www.w3.org/2000/svg"
   xmlns:svg="http://www.w3.org/2000/svg">
  <sodipodi:namedview
     id="namedview358"
     pagecolor="#ffffff"
     bordercolor="#000000"
     borderopacity="0.25"
     inkscape:showpageshadow="2"
     inkscape:pageopacity="0.0"
     inkscape:pagecheckerboard="0"
     inkscape:deskcolor="#d1d1d1"
     inkscape:document-units="px"
     showgrid="false"
     inkscape:zoom="33.666667"
     inkscape:cx="12"
     inkscape:cy="12"
     inkscape:window-width="1920"
     inkscape:window-height="1011"
     inkscape:window-x="0"
     inkscape:window-y="32"
     inkscape:window-maximized="1"
     inkscape:current-layer="svg356" />
  <defs
     id="defs353">
    <style
       id="current-color-scheme"
       type="text/css">
         .ColorScheme-Text { color:#f2f2f2; } .ColorScheme-Highlight { color:#3daee9; }
    </style>
  </defs>
  <path
     id="path346"
     style="fill:currentColor"
     class="ColorScheme-Text"
     d="M 6,6 C 4.8920011,6 4,6.8920011 4,8 v 8 c 0,1.107999 0.8920011,2 2,2 h 8.341797 A 3.5,3.5 0 0 1 14.035156,17 H 6 C 5.5111205,17 5.1255193,16.645942 5.0371094,16.183594 l 4.4609375,-3.550781 1.1699221,0.93164 c 0.730869,0.58201 1.933163,0.58201 2.664062,0 l 1.169922,-0.93164 1.136719,0.904296 a 3.5,3.5 0 0 1 1.044922,-0.43164 L 15.294922,12 19,9.0488281 v 4.2890629 a 3.5,3.5 0 0 1 1,0.714843 V 8 C 20,6.8920011 19.107999,6 18,6 Z m 0,1 h 12 c 0.48888,0 0.874481,0.3540567 0.962891,0.8164062 l -6.423828,5.1152348 c -0.30559,0.243349 -0.772566,0.243349 -1.078126,0 L 5.0371094,7.8164062 C 5.1255153,7.3540567 5.5111205,7 6,7 Z M 5,9.0488281 8.7050781,12 5,14.951172 Z" />
  <circle
     style="opacity:1;fill:currentColor;fill-opacity:1"
     id="path340"
     cx="17.5"
     cy="16.5"
     r="2.5"
     class="ColorScheme-Highlight" />
</svg>
