<?xml version="1.0" encoding="UTF-8" standalone="no"?>
<svg
   width="24"
   height="24"
   version="1.1"
   id="svg16331"
   sodipodi:docname="network-wired.svg"
   inkscape:version="1.2.1 (9c6d41e410, 2022-07-14)"
   xmlns:inkscape="http://www.inkscape.org/namespaces/inkscape"
   xmlns:sodipodi="http://sodipodi.sourceforge.net/DTD/sodipodi-0.dtd"
   xmlns="http://www.w3.org/2000/svg"
   xmlns:svg="http://www.w3.org/2000/svg">
  <defs
     id="defs16335">
    <style
       id="current-color-scheme"
       type="text/css">
         .ColorScheme-Text { color:#f2f2f2; }
     </style>
  </defs>
  <sodipodi:namedview
     id="namedview16333"
     pagecolor="#ffffff"
     bordercolor="#000000"
     borderopacity="0.25"
     inkscape:showpageshadow="2"
     inkscape:pageopacity="0.0"
     inkscape:pagecheckerboard="0"
     inkscape:deskcolor="#d1d1d1"
     showgrid="false"
     inkscape:zoom="33.416667"
     inkscape:cx="11.985037"
     inkscape:cy="12"
     inkscape:window-width="1920"
     inkscape:window-height="1008"
     inkscape:window-x="0"
     inkscape:window-y="0"
     inkscape:window-maximized="1"
     inkscape:current-layer="svg16331" />
  <path
     d="M 7.5019634,9.0000043 C 7.3739537,8.9994483 7.2460475,9.0531867 7.1562603,9.1621137 L 4.1445414,12.089848 c -0.094034,0.109854 -0.1453731,0.249746 -0.1445312,0.394531 0,0.142416 0.046657,0.286683 0.140625,0.396485 l 2.9902345,2.951171 c 0.1893598,0.21992 0.4971033,0.219873 0.6894531,0.002 0.1913208,-0.228745 0.1921216,-0.561305 0.00195,-0.791015 L 5.0000102,12.500004 7.8437603,9.9570355 C 8.0346883,9.7281448 8.0354883,9.3958734 7.8457134,9.1660199 7.7568701,9.0563171 7.6299731,9.0005603 7.5019634,9.0000043 Z m 9.0234376,0.00391 c -0.12801,-5.56e-4 -0.255916,0.053183 -0.345703,0.1621094 -0.191324,0.2287431 -0.192119,0.5613031 -0.002,0.7910156 l 2.822312,2.5429647 -2.84375,2.542969 c -0.190931,0.228889 -0.191725,0.56116 -0.002,0.791015 0.18936,0.21992 0.499056,0.220826 0.691406,0.0039 l 3.009813,-2.927728 c 0.09403,-0.109853 0.145373,-0.249745 0.144531,-0.394531 0.0021,-0.144526 -0.04797,-0.283873 -0.140625,-0.394531 L 16.869151,9.1679731 C 16.780307,9.0582702 16.65341,9.0044666 16.525401,9.0039105 Z M 8.0000103,12.000004 v 1 H 16.00001 v -1 z"
     style="opacity:1;fill:currentColor;fill-opacity:1;stroke-width:2;stroke-linecap:round;stroke-linejoin:round"
     class="ColorScheme-Text"
     id="path344" />
</svg>
