<?xml version="1.0" encoding="UTF-8" standalone="no"?>
<!-- Created with Inkscape (http://www.inkscape.org/) -->

<svg
   width="24"
   height="24"
   viewBox="0 0 24 24"
   version="1.1"
   id="svg5"
   inkscape:version="1.2.1 (9c6d41e410, 2022-07-14)"
   sodipodi:docname="network-wireless-secure-signal-none.svg"
   xmlns:inkscape="http://www.inkscape.org/namespaces/inkscape"
   xmlns:sodipodi="http://sodipodi.sourceforge.net/DTD/sodipodi-0.dtd"
   xmlns="http://www.w3.org/2000/svg"
   xmlns:svg="http://www.w3.org/2000/svg">
  <sodipodi:namedview
     id="namedview7"
     pagecolor="#ffffff"
     bordercolor="#666666"
     borderopacity="1.0"
     inkscape:showpageshadow="2"
     inkscape:pageopacity="0.0"
     inkscape:pagecheckerboard="0"
     inkscape:deskcolor="#d1d1d1"
     inkscape:document-units="px"
     showgrid="false"
     showguides="false"
     inkscape:zoom="33.416667"
     inkscape:cx="12"
     inkscape:cy="12"
     inkscape:window-width="1920"
     inkscape:window-height="1008"
     inkscape:window-x="0"
     inkscape:window-y="0"
     inkscape:window-maximized="1"
     inkscape:current-layer="svg5" />
  <defs
     id="defs2">
    <style
       id="current-color-scheme"
       type="text/css">
         .ColorScheme-Text { color:#f2f2f2; }
     </style>
  </defs>
  <path
     id="path356"
     style="opacity:0.2;fill:currentColor;fill-opacity:1;fill-rule:evenodd;paint-order:stroke fill markers"
     d="m 12.000328,7 c -2.8404861,-3e-7 -5.4324385,1.0071116 -7.4863282,2.6582031 -0.034685,0.020162 -0.066817,0.044425 -0.095703,0.072266 C 4.3202028,9.8243431 4.2645048,9.95407 4.264,10.089844 c 0,0.276141 0.2238589,0.5 0.5,0.5 0.1160499,3.3e-4 0.228602,-0.03972 0.3183592,-0.113281 C 6.9733503,8.9377697 9.3721411,8 12.000328,8 c 2.628185,-3e-7 5.026879,0.93773 6.917969,2.476563 0.08976,0.07356 0.202308,0.113611 0.318359,0.113281 0.276142,0 0.5,-0.223859 0.5,-0.5 -5.05e-4,-0.1357743 -0.05621,-0.2655014 -0.154297,-0.3593752 -0.02889,-0.027841 -0.06102,-0.052104 -0.0957,-0.072266 C 17.432763,8.0071119 14.840713,7 12.000328,7 Z m 0,3 c -2.0730896,0 -3.9680892,0.71725 -5.4882812,1.896484 -0.036843,0.02037 -0.070969,0.0453 -0.1015626,0.07422 -0.099301,0.09401 -0.1557673,0.224587 -0.15625,0.361329 0,0.276141 0.2238591,0.5 0.5,0.5 0.1169606,2.35e-4 0.2303064,-0.04054 0.3203126,-0.115235 C 8.4333397,11.648002 10.137237,11 12.000328,11 c 1.498426,0 2.894088,0.420501 4.089844,1.140625 C 16.376985,12.050012 16.682785,12 17.000328,12 c 0.232976,0 0.458332,0.02834 0.675781,0.07813 -0.02336,-0.03928 -0.05213,-0.07542 -0.08594,-0.107422 -0.03059,-0.02892 -0.06472,-0.05385 -0.101563,-0.07422 C 15.968422,10.717291 14.073418,10 12.000328,10 Z m 0,3 c -1.352495,0 -2.5832415,0.468923 -3.5859376,1.224609 -0.1103395,0.09497 -0.1679491,0.239176 -0.1679687,0.384766 0,0.27614 0.2238608,0.5 0.5,0.5 0.1243592,-3.26e-4 0.2441278,-0.04698 0.3359374,-0.130859 C 9.9045059,14.375456 10.902232,14 12.000328,14 c 0.73645,0 1.42731,0.169741 2.050781,0.462891 0.06092,-0.338646 0.177972,-0.656886 0.341797,-0.945313 C 13.661876,13.188597 12.855619,13 12.000328,13 Z m 0,3 c -0.552284,0 -1,0.447716 -1,1 0,0.552284 0.447716,1 1,1 0.552284,0 1,-0.447716 1,-1 0,-0.552284 -0.447716,-1 -1,-1 z"
     class="ColorScheme-Text" />
  <path
     id="rect8392"
     style="fill:currentColor;fill-opacity:1;stroke-width:1.6527;stroke-linecap:round;stroke-linejoin:round;paint-order:stroke fill markers"
     d="m 17,13 c -1.107998,0 -2,0.892002 -2,2 v 1 h -1 v 4 h 6 v -4 h -1 v -1 c 0,-1.107998 -0.892002,-2 -2,-2 z m 0,1 c 0.553998,0 1,0.446002 1,1 v 1 h -2 v -1 c 0,-0.553998 0.446002,-1 1,-1 z"
     class="ColorScheme-Text" />
</svg>
