<?xml version="1.0" encoding="UTF-8" standalone="no"?>
<!-- Created with Inkscape (http://www.inkscape.org/) -->

<svg
   width="24"
   height="24"
   viewBox="0 0 24 24"
   version="1.1"
   id="svg5"
   inkscape:version="1.2.1 (9c6d41e410, 2022-07-14)"
   sodipodi:docname="network-wireless-offline.svg"
   xmlns:inkscape="http://www.inkscape.org/namespaces/inkscape"
   xmlns:sodipodi="http://sodipodi.sourceforge.net/DTD/sodipodi-0.dtd"
   xmlns="http://www.w3.org/2000/svg"
   xmlns:svg="http://www.w3.org/2000/svg">
  <sodipodi:namedview
     id="namedview7"
     pagecolor="#ffffff"
     bordercolor="#666666"
     borderopacity="1.0"
     inkscape:showpageshadow="2"
     inkscape:pageopacity="0.0"
     inkscape:pagecheckerboard="0"
     inkscape:deskcolor="#d1d1d1"
     inkscape:document-units="px"
     showgrid="false"
     showguides="false"
     inkscape:zoom="33.416667"
     inkscape:cx="12"
     inkscape:cy="12"
     inkscape:window-width="1920"
     inkscape:window-height="1008"
     inkscape:window-x="0"
     inkscape:window-y="0"
     inkscape:window-maximized="1"
     inkscape:current-layer="svg5" />
  <defs
     id="defs2">
    <style
       id="current-color-scheme"
       type="text/css">
         .ColorScheme-Text { color:#f2f2f2; }
     </style>
  </defs>
  <path
     id="path2346"
     style="opacity:0.2;fill:currentColor;fill-opacity:1;stroke-width:2;stroke-linecap:square;paint-order:stroke fill markers"
     class="ColorScheme-Text"
     d="m 12.000328,7 c -2.8404916,-3e-7 -5.4324344,1.0071082 -7.4863281,2.6582031 -0.034685,0.020162 -0.066817,0.044425 -0.095703,0.072266 -0.098095,0.093874 -0.153792,0.2236007 -0.1542969,0.3593749 0,0.276142 0.2238584,0.5 0.5,0.5 0.1160502,3.3e-4 0.2286017,-0.03972 0.3183593,-0.113281 C 6.9733538,8.937767 9.3721358,8 12.000328,8 c 2.628191,-3e-7 5.026875,0.937727 6.917969,2.476563 0.08976,0.07356 0.202308,0.113611 0.318359,0.113281 0.276142,0 0.5,-0.223859 0.5,-0.5 -5.05e-4,-0.1357745 -0.05621,-0.2655012 -0.154297,-0.3593752 -0.02889,-0.027841 -0.06102,-0.052104 -0.0957,-0.072266 C 17.432762,8.0071082 14.840719,7 12.000328,7 Z m 0,3 c -2.0730937,0 -3.968086,0.717248 -5.4882812,1.896484 -0.036843,0.02037 -0.070969,0.0453 -0.1015626,0.07422 -0.099301,0.09401 -0.1557673,0.224587 -0.15625,0.361329 0,0.276141 0.2238585,0.5 0.5,0.5 0.1169608,2.35e-4 0.2303064,-0.04054 0.3203126,-0.115235 C 8.4333426,11.648 10.137234,11 12.000328,11 c 1.863094,0 3.566987,0.64796 4.925781,1.716797 0.09001,0.07469 0.203352,0.11547 0.320313,0.115234 0.276139,0 0.5,-0.223858 0.5,-0.5 -4.83e-4,-0.136741 -0.05695,-0.267318 -0.15625,-0.361328 -0.03059,-0.02892 -0.06472,-0.05385 -0.101563,-0.07422 C 15.968415,10.717288 14.073422,10 12.000328,10 Z m 0,3 c -1.352496,0 -2.5832404,0.468922 -3.5859375,1.224609 -0.1103397,0.09497 -0.167949,0.239176 -0.1679687,0.384766 0,0.27614 0.2238606,0.5 0.5,0.5 0.1243594,-3.26e-4 0.2441277,-0.04698 0.3359374,-0.130859 C 9.9045068,14.375456 10.902231,14 12.000328,14 c 0.715704,0 1.388443,0.161401 1.998047,0.439453 0.05562,-0.08719 0.121906,-0.168781 0.197265,-0.244141 0.207749,-0.207747 0.468068,-0.337339 0.742188,-0.394531 C 14.07026,13.300098 13.074933,13 12.000328,13 Z m 0,3 a 1,1 0 0 0 -1,1 1,1 0 0 0 1,1 1,1 0 0 0 1,-1 1,1 0 0 0 -1,-1 z" />
  <path
     id="rect840"
     style="opacity:1;fill:currentColor;stroke-width:2;stroke-linecap:round;stroke-linejoin:round;paint-order:stroke fill markers"
     d="m 19.853426,14.903351 c -0.195869,-0.195869 -0.511238,-0.195869 -0.707107,0 l -1.767767,1.767767 -1.767766,-1.767767 c -0.195868,-0.195868 -0.511238,-0.195868 -0.707107,0 -0.195868,0.195869 -0.195868,0.511239 0,0.707107 l 1.767767,1.767766 -1.767767,1.767767 c -0.195869,0.195869 -0.195869,0.511238 0,0.707107 0.195868,0.195869 0.511238,0.195869 0.707106,0 l 1.767767,-1.767767 1.767768,1.767768 c 0.195868,0.195868 0.511238,0.195868 0.707107,0 0.195868,-0.195869 0.195868,-0.511239 0,-0.707107 l -1.767768,-1.767768 1.767767,-1.767767 c 0.195869,-0.195868 0.195869,-0.511238 0,-0.707106 z"
     sodipodi:nodetypes="sscssscssscssscss"
     class="ColorScheme-Text" />
</svg>
