<?xml version="1.0" encoding="UTF-8" standalone="no"?>
<svg
   width="24"
   height="24"
   version="1.0"
   id="svg1"
   sodipodi:docname="notification-disabled.svg"
   inkscape:version="1.3.2 (091e20ef0f, 2023-11-25, custom)"
   xmlns:inkscape="http://www.inkscape.org/namespaces/inkscape"
   xmlns:sodipodi="http://sodipodi.sourceforge.net/DTD/sodipodi-0.dtd"
   xmlns="http://www.w3.org/2000/svg"
   xmlns:svg="http://www.w3.org/2000/svg">
  <defs
     id="defs2">
    <style
       id="current-color-scheme"
       type="text/css">
         .ColorScheme-Text { color:#f2f2f2; }
      </style>
  </defs>
  <sodipodi:namedview
     id="namedview1"
     pagecolor="#ffffff"
     bordercolor="#000000"
     borderopacity="0.25"
     inkscape:showpageshadow="2"
     inkscape:pageopacity="0.0"
     inkscape:pagecheckerboard="0"
     inkscape:deskcolor="#d1d1d1"
     inkscape:zoom="33.5"
     inkscape:cx="12"
     inkscape:cy="12"
     inkscape:window-width="1920"
     inkscape:window-height="1008"
     inkscape:window-x="0"
     inkscape:window-y="0"
     inkscape:window-maximized="1"
     inkscape:current-layer="svg1" />
  <path
     d="m 12,3.9999752 a 1,1 0 0 0 -0.99414,1.0996 4.988,4.988 0 0 0 -1.9375,0.84766 l 0.7207,0.7207 a 4,4 0 0 1 2.2109,-0.66797 4,4 0 0 1 4,4 v 2.8788998 l 1,1 V 9.9999652 a 4.987,4.987 0 0 0 -4.0059,-4.9004 1,1 0 0 0 -0.99414,-1.0996 z m -4.7344,4.3867 a 4.988,4.988 0 0 0 -0.26562,1.6133 v 4.4999998 l -2,2 v 0.5 h 10.879 l -1,-1 h -7.8789 l 1,-1.0781 V 9.9999752 a 4,4 0 0 1 0.080078,-0.79883 l -0.81445,-0.81445 z m 3.0039,9.6132998 a 2,2 0 0 0 1.7305,1 2,2 0 0 0 1.7285,-1 z"
     id="path1"
     style="fill:currentColor;fill-opacity:1"
     class="ColorScheme-Text" />
  <rect
     transform="rotate(45)"
     x="6.2634301"
     y="-1.2071244"
     width="20"
     height="1"
     rx="0.5"
     ry="0.5"
     id="rect1"
     style="fill:currentColor;fill-opacity:1"
     class="ColorScheme-Text" />
</svg>
