<?xml version="1.0" encoding="UTF-8" standalone="no"?>
<svg
   width="24"
   height="24"
   version="1.1"
   id="svg2"
   sodipodi:docname="printer-printing.svg"
   inkscape:version="1.4.2 (ebf0e940d0, 2025-05-08)"
   xmlns:inkscape="http://www.inkscape.org/namespaces/inkscape"
   xmlns:sodipodi="http://sodipodi.sourceforge.net/DTD/sodipodi-0.dtd"
   xmlns="http://www.w3.org/2000/svg"
   xmlns:svg="http://www.w3.org/2000/svg">
  <defs
     id="defs2">
    <style
       id="current-color-scheme"
       type="text/css">
        .ColorScheme-Text { color:#f2f2f2; }
        .ColorScheme-NeutralText { color:#f67400; }
        .ColorScheme-PositiveText { color:#37c837; }
        .ColorScheme-NegativeText { color:#f44336; }
        .ColorScheme-Highlight { color:#3daee9; }
     </style>
  </defs>
  <sodipodi:namedview
     id="namedview2"
     pagecolor="#ffffff"
     bordercolor="#000000"
     borderopacity="0.25"
     inkscape:showpageshadow="2"
     inkscape:pageopacity="0.0"
     inkscape:pagecheckerboard="0"
     inkscape:deskcolor="#d1d1d1"
     inkscape:zoom="33.125"
     inkscape:cx="12"
     inkscape:cy="12"
     inkscape:window-width="1920"
     inkscape:window-height="1010"
     inkscape:window-x="0"
     inkscape:window-y="0"
     inkscape:window-maximized="1"
     inkscape:current-layer="svg2" />
  <path
     id="path1"
     style="fill:currentColor"
     class="ColorScheme-Text"
     d="M 8.5,5 C 7.67157,5.0000001 7,5.67157 7,6.5 V 7 H 6.5 C 5.1193,7 4,8.1193 4,9.5 v 5 C 4,15.3284 4.67157,16 5.5,16 H 7 v 1.5 C 7,18.3284 7.67157,19 8.5,19 h 7 C 16.3284,19 17,18.3284 17,17.5 V 16 h 1.5 c 0.8284,0 1.5,-0.6716 1.5,-1.5 v -5 C 20,8.1193 18.8807,7 17.5,7 H 17 V 6.5 C 17,5.67157 16.3284,5 15.5,5 H 14 v 1 h 1.5 C 15.7761,6 16,6.22386 16,6.5 V 7 h -2 v 1 h 3.5 C 18.3284,8 19,8.67157 19,9.5 v 5 C 19,14.77614 18.7761,15 18.5,15 H 17 V 13.5 C 17,12.67157 16.3284,12 15.5,12 h -7 C 7.67157,12 7,12.67157 7,13.5 V 15 H 5.5 C 5.22386,15 5,14.77614 5,14.5 v -5 C 5,8.67157 5.67157,8 6.5,8 H 10 V 7 H 8 V 6.5 C 8,6.22386 8.22386,6 8.5,6 H 10 V 5 Z m 0,8 h 7 c 0.2761,0 0.5,0.22386 0.5,0.5 v 4 c 0,0.2761 -0.2239,0.5 -0.5,0.5 h -7 C 8.22386,18 8,17.7761 8,17.5 v -4 C 8,13.22386 8.22386,13 8.5,13 Z" />
  <path
     id="path2"
     style="fill:currentColor"
     class="ColorScheme-Highlight question"
     d="m 11,4 v 5 h -1 l 2,2 2,-2 H 13 V 4 Z" />
</svg>
