<?xml version="1.0" encoding="UTF-8" standalone="no"?>
<svg
   version="1.1"
   viewBox="0 0 24 24"
   id="svg1"
   sodipodi:docname="smartphonetrusted.svg"
   width="24"
   height="24"
   inkscape:version="1.4.2 (ebf0e940d0, 2025-05-08)"
   xmlns:inkscape="http://www.inkscape.org/namespaces/inkscape"
   xmlns:sodipodi="http://sodipodi.sourceforge.net/DTD/sodipodi-0.dtd"
   xmlns="http://www.w3.org/2000/svg"
   xmlns:svg="http://www.w3.org/2000/svg">
  <defs
     id="defs1" />
  <sodipodi:namedview
     id="namedview1"
     pagecolor="#ffffff"
     bordercolor="#000000"
     borderopacity="0.25"
     inkscape:showpageshadow="2"
     inkscape:pageopacity="0.0"
     inkscape:pagecheckerboard="0"
     inkscape:deskcolor="#d1d1d1"
     inkscape:zoom="33.125"
     inkscape:cx="12"
     inkscape:cy="12"
     inkscape:window-width="1920"
     inkscape:window-height="1010"
     inkscape:window-x="0"
     inkscape:window-y="0"
     inkscape:window-maximized="1"
     inkscape:current-layer="svg1" />
  <style
     id="current-color-scheme"
     type="text/css">.ColorScheme-Highlight {
  color:#3daee9;
}
.ColorScheme-Text {
  color:#f2f2f2;
}</style>
  <path
     id="smartphone"
     class="ColorScheme-Text"
     d="M 9,4 C 7.892,4 7,4.892 7,6 v 12 c 0,1.108 0.892,2 2,2 h 6 c 1.108,0 2,-0.892 2,-2 V 6 C 17,4.892 16.108,4 15,4 Z m 0,1 h 6 c 0.554,0 1,0.446 1,1 v 12 c 0,0.554 -0.446,1 -1,1 H 9 C 8.446,19 8,18.554 8,18 V 6 C 8,5.446 8.446,5 9,5 Z M 9.5,6 A 0.5,0.5 0 0 0 9,6.5 0.5,0.5 0 0 0 9.5,7 0.5,0.5 0 0 0 10,6.5 0.5,0.5 0 0 0 9.5,6 Z m 1,11 c -0.277,0 -0.5,0.223 -0.5,0.5 0,0.277 0.223,0.5 0.5,0.5 h 3 C 13.777,18 14,17.777 14,17.5 14,17.223 13.777,17 13.5,17 Z"
     fill="currentColor" />
  <path
     class="ColorScheme-Highlight"
     d="m 12,8.9961 -0.3418,0.31836 c -0.28297,0.26453 -0.34587,0.37525 -0.56836,0.48633 -0.22249,0.11108 -0.67875,0.24295 -1.6582,0.37695 L 9,10.238287 v 0.43555 c 0,0 0.01651,3.1354 2.8145,4.2539 l 0.18555,0.07422 0.18555,-0.07422 c 2.798,-1.1179 2.8145,-4.2539 2.8145,-4.2539 v -0.43555 L 14.56846,10.17774 C 13.59378,10.04313 13.13896,9.91272 12.91416,9.80079 12.68934,9.68885 12.6221,9.57497 12.33994,9.31251 Z m 0.002,1.3242 c 0.13645,0.12922 0.23454,0.25937 0.4668,0.375 0.29874,0.14874 0.86702,0.24653 1.457,0.35156 -0.03231,0.49912 -0.24398,2.0079 -1.9258,2.8223 -1.6806,-0.81412 -1.8932,-2.3195 -1.9258,-2.8203 0.5928,-0.10459 1.1619,-0.20227 1.4609,-0.35156 0.2328,-0.11623 0.33093,-0.24702 0.4668,-0.37695 z"
     fill="currentColor"
     id="path1" />
</svg>
