<?xml version="1.0" encoding="UTF-8" standalone="no"?>
<svg
   height="24"
   width="24"
   version="1.1"
   id="svg2"
   sodipodi:docname="weather-overcast.svg"
   inkscape:version="1.4.2 (ebf0e940d0, 2025-05-08)"
   xmlns:inkscape="http://www.inkscape.org/namespaces/inkscape"
   xmlns:sodipodi="http://sodipodi.sourceforge.net/DTD/sodipodi-0.dtd"
   xmlns="http://www.w3.org/2000/svg"
   xmlns:svg="http://www.w3.org/2000/svg">
  <defs
     id="defs2">
    <style
       id="current-color-scheme"
       type="text/css">
        .ColorScheme-Text { color:#f2f2f2; }
        .ColorScheme-NeutralText { color:#f67400; }
        .ColorScheme-PositiveText { color:#37c837; }
        .ColorScheme-NegativeText { color:#f44336; }
        .ColorScheme-Highlight { color:#3daee9; }
     </style>
  </defs>
  <sodipodi:namedview
     id="namedview2"
     pagecolor="#ffffff"
     bordercolor="#000000"
     borderopacity="0.25"
     inkscape:showpageshadow="2"
     inkscape:pageopacity="0.0"
     inkscape:pagecheckerboard="0"
     inkscape:deskcolor="#d1d1d1"
     inkscape:zoom="33.125"
     inkscape:cx="12"
     inkscape:cy="12"
     inkscape:window-width="1920"
     inkscape:window-height="1010"
     inkscape:window-x="0"
     inkscape:window-y="0"
     inkscape:window-maximized="1"
     inkscape:current-layer="svg2" />
  <path
     id="path1"
     style="fill:currentColor"
     class="ColorScheme-Text"
     d="M 13.498047,5 A 3.5,3.5 0 0 0 10.333984,7.0175781 3.5,3.5 0 0 0 6.53125,10.058594 2,2 0 0 0 7.0019531,14 H 7.2695312 A 3.5,3.25 0 0 1 7.9804688,13 H 6.9980469 c -0.564,0 -1,-0.436 -1,-1 a 0.99,0.99 0 0 1 0.765625,-0.970703 l 0.6699219,-0.162109 0.087891,-0.683594 A 2.488,2.488 0 0 1 10.232422,8.0117188 L 10.9375,8.0839844 11.238281,7.4414062 A 2.496,2.496 0 0 1 13.498047,6 2.485,2.485 0 0 1 15.996094,8.4980469 V 8.5 a 2.3,2.3 0 0 1 -0.0332,0.3789062 l -0.160157,0.96875 0.964844,0.1796878 A 1.489,1.489 0 0 1 17.996094,11.5 c 0,0.84 -0.66,1.5 -1.5,1.5 h -0.01953 c -0.529143,-1.223639 -1.700937,-2.080523 -3.076173,-2.082031 h -0.002 c -1.348953,0.002 -2.493969,0.831531 -3.040969,2.019531 l -0.03906,0.08008 -0.08594,0.0078 C 8.9854219,13.115391 8,14.193859 8,15.505859 8,16.875859 9.0723906,18 10.400391,18 h 5.798828 C 17.194219,18 18,17.156812 18,16.132812 a 1.85,1.85 0 0 0 -1.130859,-1.708984 l -0.08594,-0.03711 -0.0098,-0.0918 c -0.0047,-0.103935 -0.01235,-0.20711 -0.02539,-0.308594 a 2.5,2.5 0 0 0 0.203125,-4.9433592 c 0.03,-0.18 0.04488,-0.3609688 0.04687,-0.5429688 A 3.5,3.5 0 0 0 13.5,5 Z m -0.103516,6.917969 h 0.0039 c 1.272,0.002 2.316906,1.049875 2.378906,2.421875 v 0.03125 l 0.07617,0.705078 0.626953,0.267578 C 16.785469,15.47375 17,15.756812 17,16.132812 17,16.632812 16.630172,17 16.201172,17 H 10.398438 C 9.6384375,17 9,16.354859 9,15.505859 c 0,-0.81 0.5907344,-1.431375 1.302734,-1.484375 l 0.671875,-0.04687 0.289063,-0.615234 v -0.0039 c 0.399,-0.866 1.193859,-1.4355 2.130859,-1.4375 z" />
</svg>
