<?xml version="1.0" encoding="UTF-8" standalone="no"?>
<!-- Created with Inkscape (http://www.inkscape.org/) -->

<svg
   width="96"
   height="96"
   viewBox="0 0 96 96.000006"
   version="1.1"
   id="svg5"
   inkscape:version="1.2.2 (1:1.2.2+202305151914+b0a8486541)"
   sodipodi:docname="application-vnd.ms-access.svg"
   xmlns:inkscape="http://www.inkscape.org/namespaces/inkscape"
   xmlns:sodipodi="http://sodipodi.sourceforge.net/DTD/sodipodi-0.dtd"
   xmlns:xlink="http://www.w3.org/1999/xlink"
   xmlns="http://www.w3.org/2000/svg"
   xmlns:svg="http://www.w3.org/2000/svg">
  <sodipodi:namedview
     id="namedview7"
     pagecolor="#ffffff"
     bordercolor="#000000"
     borderopacity="0.25"
     inkscape:showpageshadow="2"
     inkscape:pageopacity="0.0"
     inkscape:pagecheckerboard="0"
     inkscape:deskcolor="#d1d1d1"
     inkscape:document-units="px"
     showgrid="false"
     inkscape:zoom="8.2291667"
     inkscape:cx="47.939241"
     inkscape:cy="48"
     inkscape:window-width="1920"
     inkscape:window-height="1012"
     inkscape:window-x="0"
     inkscape:window-y="0"
     inkscape:window-maximized="1"
     inkscape:current-layer="svg5" />
  <defs
     id="defs2">
    <linearGradient
       inkscape:collect="always"
       id="linearGradient879">
      <stop
         style="stop-color:#a4262c;stop-opacity:1;"
         offset="0"
         id="stop875" />
      <stop
         style="stop-color:#c92e5a;stop-opacity:1;"
         offset="1"
         id="stop877" />
    </linearGradient>
    <linearGradient
       inkscape:collect="always"
       xlink:href="#linearGradient879"
       id="linearGradient2157"
       x1="20"
       y1="6"
       x2="76"
       y2="90"
       gradientUnits="userSpaceOnUse" />
    <linearGradient
       inkscape:collect="always"
       xlink:href="#linearGradient879"
       id="linearGradient2159"
       x1="20"
       y1="6"
       x2="76"
       y2="90"
       gradientUnits="userSpaceOnUse" />
    <linearGradient
       inkscape:collect="always"
       xlink:href="#linearGradient879"
       id="linearGradient2161"
       x1="20"
       y1="6"
       x2="76"
       y2="90"
       gradientUnits="userSpaceOnUse" />
  </defs>
  <path
     id="rect234"
     style="opacity:0.2;stroke-width:1.5;stroke-linecap:round;stroke-linejoin:round"
     d="m 20,7 h 38 l 24,24 v 54 c 0,3.324 -2.676,6 -6,6 H 20 c -3.324,0 -6,-2.676 -6,-6 V 13 c 0,-3.324 2.676,-6 6,-6 z"
     sodipodi:nodetypes="sccssssss" />
  <path
     id="rect448"
     style="fill:url(#linearGradient2157);fill-opacity:1;stroke-width:1.5;stroke-linecap:round;stroke-linejoin:round"
     d="m 20,6 h 38 l 9,15 15,9 v 54 c 0,3.324 -2.676,6 -6,6 H 20 c -3.324,0 -6,-2.676 -6,-6 V 12 c 0,-3.324 2.676,-6 6,-6 z"
     sodipodi:nodetypes="scccssssss" />
  <ellipse
     style="opacity:0.25;fill:#ffffff;fill-opacity:1;stroke-width:7.58969;stroke-linejoin:round"
     id="path2670"
     cx="51.999737"
     cy="40.000286"
     rx="18.000256"
     ry="6.0002861" />
  <path
     id="rect3773"
     style="opacity:0.5;fill:#ffffff;fill-opacity:1;stroke-width:7.58969;stroke-linejoin:round"
     d="m 33.999489,40.000275 v 12.000574 c 0,3.313868 8.058987,6.000289 18.000259,6.000289 C 61.941007,58.001138 70,55.314717 70,52.000849 v -0.0078 -0.0078 -0.0078 -0.0078 -0.0078 -0.0078 -0.0078 -0.0078 -0.0078 -0.0078 -0.0078 -0.0078 -0.0078 -0.0078 -0.0078 -0.0078 -0.0078 -11.867752 c 0,3.313866 -8.058993,6.000287 -18.000252,6.000287 -9.941272,0 -18.000259,-2.686421 -18.000259,-6.000287 z"
     sodipodi:nodetypes="csssssssssssssssssssccsc" />
  <path
     d="m 33.999485,52.000849 v 11.998983 c 0,3.31387 8.058985,6.000285 18.000253,6.000285 C 61.941007,70.000117 70,67.313702 70,63.999832 v -0.008 -0.008 -0.008 -0.008 -0.008 -0.008 -0.008 -0.008 -0.008 -0.008 -0.008 -0.008 -0.008 -0.008 -0.008 -0.008 -0.008 -11.866163 c 0,3.313868 -8.058993,6.000289 -18.000262,6.000289 -9.941268,0 -18.000253,-2.686421 -18.000253,-6.000289 z"
     style="opacity:0.7;fill:#ffffff;fill-opacity:1;stroke-width:7.58969;stroke-linejoin:round"
     id="path5291"
     sodipodi:nodetypes="csssccccccccccccccccccsc" />
  <path
     d="m 33.999485,64.001426 v 11.998972 c 0,3.313878 8.058985,6.000299 18.000253,6.000299 C 61.941007,82.000697 70,79.314276 70,76.000398 v -0.0076 -0.0076 -0.0084 -0.0076 -0.0076 -0.0084 -0.0076 -0.0084 -0.0076 -0.0076 -0.0084 -0.0076 -0.0076 -0.0084 -0.0076 -0.0084 -0.0076 -11.86616 c 0,3.313868 -8.058993,6.000283 -18.000262,6.000283 -9.941268,0 -18.000253,-2.686415 -18.000253,-6.000283 z"
     style="opacity:0.9;fill:#ffffff;fill-opacity:1;stroke-width:7.58969;stroke-linejoin:round"
     id="path5319" />
  <rect
     style="fill:url(#linearGradient2159);fill-opacity:1;stroke-width:2.00003"
     id="rect3242"
     width="32.000462"
     height="32.000462"
     x="18"
     y="44.000168"
     ry="6.0000868" />
  <rect
     style="fill:#ffffff;fill-opacity:1;stroke-width:2.00003"
     id="rect2687"
     width="28.000404"
     height="28.000404"
     x="20.000029"
     y="46.000198"
     ry="4.0000577" />
  <path
     id="rect11190"
     style="fill:url(#linearGradient2161);fill-opacity:1;stroke-width:4.00006;stroke-linejoin:round"
     d="m 32.000202,50.000258 -8.000115,20.000289 h 4.000058 l 1.601585,-4.000058 h 8.797001 l 1.601587,4.000058 h 4.000058 L 36.00026,50.000258 Z m 2.000029,5.000072 2.800821,7.000101 h -5.601643 z" />
  <path
     d="M 82,31 H 64 c -3.324,0 -6,-2.676 -6,-6 V 6 l 24,24 z"
     style="opacity:0.2;fill:#000000;stroke-width:1.5;stroke-linecap:round;stroke-linejoin:round"
     id="path611"
     sodipodi:nodetypes="cssccc" />
  <path
     id="rect600"
     style="fill:#e79c9f;fill-opacity:1;stroke-width:1.5;stroke-linecap:round;stroke-linejoin:round"
     d="M 82,30 H 64 c -3.324,0 -6,-2.676 -6,-6 V 6 l 12,12 z"
     sodipodi:nodetypes="cssccc" />
</svg>
