<?xml version="1.0" encoding="UTF-8" standalone="no"?>
<!-- Created with Inkscape (http://www.inkscape.org/) -->

<svg
   width="96"
   height="96"
   viewBox="0 0 96 96.000006"
   version="1.1"
   id="svg5"
   inkscape:version="1.2.2 (1:1.2.2+202305151914+b0a8486541)"
   sodipodi:docname="image-svg+xml.svg"
   xmlns:inkscape="http://www.inkscape.org/namespaces/inkscape"
   xmlns:sodipodi="http://sodipodi.sourceforge.net/DTD/sodipodi-0.dtd"
   xmlns:xlink="http://www.w3.org/1999/xlink"
   xmlns="http://www.w3.org/2000/svg"
   xmlns:svg="http://www.w3.org/2000/svg">
  <sodipodi:namedview
     id="namedview7"
     pagecolor="#ffffff"
     bordercolor="#000000"
     borderopacity="0.25"
     inkscape:showpageshadow="2"
     inkscape:pageopacity="0.0"
     inkscape:pagecheckerboard="0"
     inkscape:deskcolor="#d1d1d1"
     inkscape:document-units="px"
     showgrid="false"
     inkscape:zoom="8.2291667"
     inkscape:cx="47.939241"
     inkscape:cy="48"
     inkscape:window-width="1920"
     inkscape:window-height="1012"
     inkscape:window-x="0"
     inkscape:window-y="0"
     inkscape:window-maximized="1"
     inkscape:current-layer="svg5" />
  <defs
     id="defs2">
    <linearGradient
       inkscape:collect="always"
       id="linearGradient899">
      <stop
         style="stop-color:#dddddd;stop-opacity:1;"
         offset="0"
         id="stop895" />
      <stop
         style="stop-color:#eeeeee;stop-opacity:1;"
         offset="1"
         id="stop897" />
    </linearGradient>
    <linearGradient
       inkscape:collect="always"
       xlink:href="#linearGradient899"
       id="linearGradient24034"
       x1="20"
       y1="6"
       x2="76"
       y2="90"
       gradientUnits="userSpaceOnUse" />
  </defs>
  <path
     id="rect234"
     style="opacity:0.2;stroke-width:1.5;stroke-linecap:round;stroke-linejoin:round"
     d="m 20,7 h 38 l 24,24 v 54 c 0,3.324 -2.676,6 -6,6 H 20 c -3.324,0 -6,-2.676 -6,-6 V 13 c 0,-3.324 2.676,-6 6,-6 z"
     sodipodi:nodetypes="sccssssss" />
  <path
     id="rect448"
     style="fill:url(#linearGradient24034);fill-opacity:1;stroke-width:1.5;stroke-linecap:round;stroke-linejoin:round"
     d="m 20,6 h 38 l 9,15 15,9 v 54 c 0,3.324 -2.676,6 -6,6 H 20 c -3.324,0 -6,-2.676 -6,-6 V 12 c 0,-3.324 2.676,-6 6,-6 z"
     sodipodi:nodetypes="scccssssss" />
  <path
     d="M 82,31 H 64 c -3.324,0 -6,-2.676 -6,-6 V 6 l 24,24 z"
     style="opacity:0.2;fill:#000000;stroke-width:1.5;stroke-linecap:round;stroke-linejoin:round"
     id="path611"
     sodipodi:nodetypes="cssccc" />
  <path
     id="rect600"
     style="fill:#f8f8f8;fill-opacity:1;stroke-width:1.5;stroke-linecap:round;stroke-linejoin:round"
     d="M 82,30 H 64 c -3.324,0 -6,-2.676 -6,-6 V 6 l 12,12 z"
     sodipodi:nodetypes="cssccc" />
  <path
     d="M 35.999985,79.999967 C 55.99996,91.999952 67.999945,67.999982 47.99997,59.999992 27.999995,52.000002 39.99998,28.000032 59.999955,40.000017"
     style="color:#000000;opacity:0.25;fill:#8f76e4;fill-opacity:1;fill-rule:evenodd;stroke-width:2;-inkscape-stroke:none"
     id="path757" />
  <path
     d="m 46.676592,35.999982 c -3.896515,0.741519 -6.912352,3.008576 -8.55467,6.019532 -1.642338,3.010936 -1.908217,6.723772 -0.414059,10.187487 1.494138,3.463696 4.729774,6.645792 9.921847,8.72263 4.807894,1.923157 7.572271,4.741054 8.828129,7.65235 1.255839,2.911276 1.021719,5.948433 -0.335939,8.437489 -2.715337,4.978094 -9.933328,7.924351 -19.605456,2.121078 l -1.031238,1.718758 c 10.327827,6.196692 19.109836,3.142976 22.394492,-2.878917 1.642338,-3.010936 1.908217,-6.723771 0.414059,-10.187487 -1.494138,-3.463696 -4.729774,-6.645792 -9.921847,-8.722629 -4.807894,-1.923158 -7.572271,-4.741054 -8.828129,-7.652351 -1.255839,-2.911276 -1.021719,-5.948432 0.335939,-8.437489 2.715337,-4.978094 9.933328,-7.92435 19.605456,-2.121077 l 1.031238,-1.718758 C 55.352501,36.042242 50.573107,35.258463 46.676592,35.999982 Z"
     style="color:#000000;fill:#8c59d9;fill-opacity:1;fill-rule:evenodd;stroke-width:2;-inkscape-stroke:none"
     id="path438" />
  <path
     id="path539"
     style="color:#000000;fill:#f34f17;fill-opacity:1;stroke-width:2;stroke-linejoin:round;stroke-dashoffset:1;-inkscape-stroke:none"
     d="M 27.999995,48.000007 C 25.802698,48.000007 24,49.802704 24,52.000002 c 0,2.197297 1.802698,3.999995 3.999995,3.999995 1.314058,0 2.484197,-0.648439 3.214836,-1.636718 L 64.03901,67.492162 c -0.0216,0.1672 -0.039,0.33512 -0.039,0.50782 0,2.197297 1.802698,3.999995 3.999995,3.999995 2.197297,0 3.999995,-1.802698 3.999995,-3.999995 0,-2.197298 -1.802698,-3.999995 -3.999995,-3.999995 -1.314538,0 -2.484257,0.647839 -3.214836,1.636718 L 31.96489,52.507821 c 0.0216,-0.1668 0.0352,-0.3355 0.0352,-0.507819 0,-2.197298 -1.802698,-3.999995 -3.999995,-3.999995 z m 0,1.999997 c 0.558199,0 1.057519,0.22158 1.417958,0.582039 0.0888,0.0888 0.1716,0.1884 0.2422,0.29296 0.0714,0.1062 0.1334,0.21992 0.1836,0.33984 4.6e-4,0.0011 -4.4e-4,0.002 0,0.004 0.0638,0.153599 0.1046,0.321119 0.129,0.492179 0.014,0.0952 0.0274,0.1898 0.0274,0.28906 0,0.645799 -0.300279,1.206298 -0.765619,1.570318 -0.138399,0.1084 -0.284159,0.204419 -0.449219,0.273439 -0.23984,0.1002 -0.506059,0.1562 -0.785159,0.1562 -0.2778,0 -0.542319,-0.0568 -0.781259,-0.1562 -0.0011,-4.6e-4 -0.002,4.4e-4 -0.004,0 -0.0634,-0.0266 -0.1198,-0.065 -0.1796,-0.0976 -0.0534,-0.0294 -0.11,-0.052 -0.1602,-0.086 -0.425139,-0.28558 -0.730579,-0.729879 -0.835939,-1.253899 -0.0264,-0.131 -0.039,-0.266699 -0.039,-0.406259 0,-0.1396 0.012,-0.27524 0.039,-0.40624 0.026,-0.1298 0.0678,-0.256099 0.1172,-0.374999 4.6e-4,-0.0011 -4.4e-4,-0.002 0,-0.004 0.0496,-0.1188 0.113,-0.23046 0.1836,-0.33594 5.6e-4,-8.4e-4 -5.6e-4,-0.004 0,-0.004 0.35698,-0.531419 0.962399,-0.874999 1.660158,-0.874999 z m 39.99995,15.99998 c 0.697759,0 1.303158,0.34358 1.660158,0.874999 10e-4,0.0015 0.002,0.002 0.004,0.004 0.0702,0.105 0.1302,0.21768 0.1796,0.33594 4.6e-4,0.0011 -4.4e-4,0.002 0,0.004 0.0994,0.238919 0.1562,0.503439 0.1562,0.781239 0,0.279099 -0.056,0.545319 -0.1562,0.785159 -0.1002,0.239819 -0.24556,0.452579 -0.42578,0.632799 -0.1802,0.1802 -0.392979,0.32552 -0.632799,0.425799 -0.23984,0.1002 -0.506059,0.1562 -0.785159,0.1562 -0.2778,0 -0.542319,-0.0568 -0.781259,-0.1562 -0.0011,-4.6e-4 -0.002,4.4e-4 -0.004,0 -0.0634,-0.0266 -0.1198,-0.065 -0.1796,-0.0976 -0.0534,-0.0294 -0.11,-0.052 -0.1602,-0.086 -0.425139,-0.28558 -0.730579,-0.729879 -0.835939,-1.253899 -0.008,-0.0378 -0.006,-0.0786 -0.012,-0.1172 -0.014,-0.0952 -0.0274,-0.189799 -0.0274,-0.289059 0,-0.646899 0.302799,-1.206359 0.769519,-1.570318 0.0364,-0.0284 0.0672,-0.064 0.105399,-0.0898 0.31886,-0.21418 0.70634,-0.33984 1.124999,-0.33984 z" />
  <path
     id="path667"
     style="color:#000000;fill:#ffffff;stroke-width:2;stroke-dashoffset:1"
     d="m 57.000799,37.00002 v 5.999993 h 5.999992 V 37.00002 Z M 45.000814,56.999995 v 5.999993 h 5.999992 V 56.999995 Z M 33.000829,76.99997 v 5.999993 h 5.999992 V 76.99997 Z" />
  <path
     id="path669"
     style="color:#000000;fill:#8f76e4;stroke-width:2;stroke-dashoffset:1;-inkscape-stroke:none"
     d="m 55.99996,36.000822 v 0.999998 6.999992 h 7.99999 v -7.99999 z m 1.999998,1.999997 h 3.999995 v 3.999995 H 57.999958 Z M 43.999975,56.000797 v 0.999998 6.999992 h 7.99999 v -7.99999 z m 1.999998,1.999997 h 3.999995 v 3.999995 H 45.999973 Z M 31.99999,76.000772 v 0.999998 6.999992 h 7.99999 v -7.99999 z m 1.999998,1.999997 h 3.999995 v 3.999995 h -3.999995 z" />
</svg>
