<?xml version="1.0" encoding="UTF-8" standalone="no"?>
<!-- Created with Inkscape (http://www.inkscape.org/) -->

<svg
   width="96"
   height="96"
   viewBox="0 0 96 96.000006"
   version="1.1"
   id="svg5"
   inkscape:version="1.2.2 (1:1.2.2+202305151914+b0a8486541)"
   sodipodi:docname="text-x-rust.svg"
   xmlns:inkscape="http://www.inkscape.org/namespaces/inkscape"
   xmlns:sodipodi="http://sodipodi.sourceforge.net/DTD/sodipodi-0.dtd"
   xmlns:xlink="http://www.w3.org/1999/xlink"
   xmlns="http://www.w3.org/2000/svg"
   xmlns:svg="http://www.w3.org/2000/svg">
  <sodipodi:namedview
     id="namedview7"
     pagecolor="#ffffff"
     bordercolor="#000000"
     borderopacity="0.25"
     inkscape:showpageshadow="2"
     inkscape:pageopacity="0.0"
     inkscape:pagecheckerboard="0"
     inkscape:deskcolor="#d1d1d1"
     inkscape:document-units="px"
     showgrid="false"
     inkscape:zoom="8.2291667"
     inkscape:cx="48"
     inkscape:cy="48"
     inkscape:window-width="1920"
     inkscape:window-height="1012"
     inkscape:window-x="0"
     inkscape:window-y="0"
     inkscape:window-maximized="1"
     inkscape:current-layer="svg5" />
  <defs
     id="defs2">
    <linearGradient
       inkscape:collect="always"
       id="linearGradient899">
      <stop
         style="stop-color:#dddddd;stop-opacity:1;"
         offset="0"
         id="stop895" />
      <stop
         style="stop-color:#eeeeee;stop-opacity:1;"
         offset="1"
         id="stop897" />
    </linearGradient>
    <linearGradient
       inkscape:collect="always"
       xlink:href="#linearGradient899"
       id="linearGradient2960"
       x1="10"
       y1="3"
       x2="38"
       y2="45"
       gradientUnits="userSpaceOnUse"
       gradientTransform="scale(2)" />
    <linearGradient
       inkscape:collect="always"
       id="linearGradient1535">
      <stop
         style="stop-color:#414141;stop-opacity:1;"
         offset="0"
         id="stop1531" />
      <stop
         style="stop-color:#5f4030;stop-opacity:1;"
         offset="1"
         id="stop1533" />
    </linearGradient>
    <linearGradient
       inkscape:collect="always"
       xlink:href="#linearGradient1535"
       id="linearGradient2524"
       x1="14.000001"
       y1="20"
       x2="33.999985"
       y2="39.999668"
       gradientUnits="userSpaceOnUse"
       gradientTransform="scale(2)" />
  </defs>
  <path
     id="rect234"
     style="opacity:0.2;stroke-width:1.5;stroke-linecap:round;stroke-linejoin:round"
     d="m 20,7 h 38 l 24,24 v 54 c 0,3.324 -2.676,6 -6,6 H 20 c -3.324,0 -6,-2.676 -6,-6 V 13 c 0,-3.324 2.676,-6 6,-6 z"
     sodipodi:nodetypes="sccssssss" />
  <path
     id="rect448"
     style="fill:url(#linearGradient2960);fill-opacity:1;stroke-width:1.5;stroke-linecap:round;stroke-linejoin:round"
     d="m 20,6 h 38 l 9,15 15,9 v 54 c 0,3.324 -2.676,6 -6,6 H 20 c -3.324,0 -6,-2.676 -6,-6 V 12 c 0,-3.324 2.676,-6 6,-6 z"
     sodipodi:nodetypes="scccssssss" />
  <path
     d="M 82,31 H 64 c -3.324,0 -6,-2.676 -6,-6 V 6 l 24,24 z"
     style="opacity:0.2;fill:#000000;stroke-width:1.5;stroke-linecap:round;stroke-linejoin:round"
     id="path611"
     sodipodi:nodetypes="cssccc" />
  <path
     id="rect600"
     style="fill:#f8f8f8;fill-opacity:1;stroke-width:1.5;stroke-linecap:round;stroke-linejoin:round"
     d="M 82,30 H 64 c -3.324,0 -6,-2.676 -6,-6 V 6 l 12,12 z"
     sodipodi:nodetypes="cssccc" />
  <path
     d="m 48.000028,40 c -0.1925,7.58e-4 -0.385224,0.08578 -0.489584,0.25521 l -1.041658,1.682322 -0.489578,0.04686 -1.346348,-1.445332 c -0.273138,-0.292248 -0.826094,-0.1837 -0.96614,0.1927 l -0.6901,1.846382 -0.47656,0.14324 -1.598952,-1.151062 c -0.325142,-0.234842 -0.8472,-0.0172 -0.911452,0.377614 l -0.31771,1.945342 -0.434896,0.23438 -1.796864,-0.81772 c -0.364906,-0.16682 -0.833024,0.14674 -0.817704,0.546882 l 0.06772,1.976594 -0.377606,0.312506 -1.924468,-0.455736 c -0.390908,-0.09106 -0.78973,0.307004 -0.697912,0.697928 l 0.453098,1.924504 -0.309892,0.377612 -1.976552,-0.06772 c -0.39862,-0.0116 -0.71287,0.452 -0.546874,0.81772 l 0.817706,1.796902 -0.234374,0.437502 -1.945304,0.315108 c -0.395534,0.06418 -0.610968,0.58628 -0.37759,0.911482 l 1.151032,1.59898 -0.14324,0.476568 -1.846342,0.690112 c -0.374886,0.14 -0.485702,0.692212 -0.1927,0.96616 l 1.445304,1.346374 -0.04686,0.489586 -1.682282,1.041682 c -0.34046,0.210398 -0.34046,0.772142 0,0.981786 l 1.682282,1.041684 0.04686,0.489592 -1.445304,1.346376 c -0.29299,0.273132 -0.18218,0.825404 0.1927,0.966158 l 1.846342,0.69012 0.14324,0.476568 -1.151038,1.598978 c -0.23408,0.325894 -0.0176,0.845374 0.377606,0.90887 l 1.945302,0.31773 0.234376,0.437518 -0.817704,1.794298 c -0.16676,0.3649 0.1483,0.836404 0.546868,0.820326 l 1.976554,-0.0703 0.30989,0.38022 -0.45312,1.924514 c -0.09182,0.390198 0.307004,0.787086 0.697914,0.695282 l 1.924466,-0.453166 0.377606,0.309846 -0.06772,1.976594 c -0.0152,0.400102 0.452804,0.713726 0.817704,0.546898 l 1.796866,-0.817724 0.434894,0.234406 0.31771,1.945344 c 0.06426,0.396322 0.586308,0.610922 0.91145,0.377574 l 1.598948,-1.153668 0.476562,0.14582 0.690104,1.846374 c 0.14,0.374852 0.690452,0.486424 0.963536,0.19268 l 1.348952,-1.445338 0.489576,0.04914 1.039058,1.679714 c 0.209642,0.338872 0.773974,0.339628 0.98437,0 l 1.041662,-1.679714 0.489584,-0.04914 1.346348,1.445338 c 0.273138,0.29382 0.826094,0.1821 0.96614,-0.19268 l 0.690096,-1.846374 0.47656,-0.14582 1.598952,1.153662 c 0.325146,0.233348 0.844602,0.0182 0.908854,-0.377576 l 0.317728,-1.945342 0.43752,-0.234406 1.794262,0.817722 c 0.364898,0.16682 0.834868,-0.14596 0.820304,-0.546898 l -0.0703,-1.976602 0.38022,-0.30992 1.92447,0.453164 c 0.390954,0.09176 0.787126,-0.305082 0.695304,-0.695356 l -0.453134,-1.924506 0.309868,-0.38022 1.976552,0.0703 c 0.398558,0.0158 0.714436,-0.455432 0.546874,-0.820326 l -0.817704,-1.794298 0.234384,-0.437518 1.945298,-0.31773 c 0.39629,-0.0635 0.612488,-0.58291 0.377598,-0.908866 l -1.151026,-1.598878 0.14322,-0.476568 1.846344,-0.690112 c 0.375632,-0.14074 0.4865,-0.693022 0.1927,-0.966162 l -1.445306,-1.346334 0.04936,-0.489584 1.679678,-1.041684 c 0.34046,-0.209642 0.340506,-0.771386 0,-0.981786 l -1.679654,-1.04169 -0.04938,-0.489592 1.445304,-1.346376 c 0.29379,-0.27394 0.18292,-0.826156 -0.1927,-0.966154 l -1.846352,-0.690114 -0.14322,-0.476572 1.151036,-1.598982 c 0.234882,-0.325198 0.02064,-0.846412 -0.374974,-0.911472 l -1.947912,-0.31511 -0.23438,-0.437506 0.817704,-1.796902 c 0.16756,-0.36572 -0.14442,-0.83304 -0.546874,-0.81772 l -1.973946,0.06772 -0.31249,-0.377612 0.453134,-1.924508 c 0.09182,-0.390924 -0.304372,-0.789748 -0.695304,-0.697928 l -1.92447,0.455736 -0.38022,-0.312506 0.0703,-1.976594 c 0.0152,-0.400138 -0.452734,-0.71294 -0.817702,-0.546882 l -1.796864,0.817704 -0.437516,-0.23438 -0.31773,-1.945342 c -0.06426,-0.394704 -0.583756,-0.611746 -0.908848,-0.377568 l -1.59895,1.151066 -0.47656,-0.14324 -0.6901,-1.846384 c -0.14,-0.376402 -0.693004,-0.484954 -0.96614,-0.1927 l -1.346348,1.445334 -0.489582,-0.04686 -1.041662,-1.682318 c -0.10474,-0.16942 -0.297078,-0.254446 -0.489578,-0.255202 z m -0.06252,3.523492 c 0.594602,0 1.1904,0.39725 1.190098,1.190122 -6.72e-4,1.584634 -2.376986,1.584634 -2.377592,0 -3.32e-4,-0.792872 0.592886,-1.190122 1.187494,-1.190122 z m 2.760422,1.958364 c 4.226328,0.791662 7.89111,3.402516 10.020778,7.13813 l -1.403638,3.166716 c -0.24214,0.548198 0.0056,1.189408 0.552082,1.432312 l 2.700506,1.197936 c 0.08396,0.844528 0.09212,1.695364 0.02872,2.541706 h -1.499976 c -0.15032,0 -0.21095,0.10008 -0.21095,0.2474 v 0.687512 c 0,1.62349 -0.916612,1.977886 -1.718738,2.067738 -0.764018,0.08608 -1.609156,-0.31899 -1.713622,-0.786468 -0.450626,-2.534692 -1.20223,-3.077846 -2.38801,-4.013086 1.471572,-0.934532 3.00259,-2.313586 3.00259,-4.158918 0,-1.992636 -1.36583,-3.246558 -2.296862,-3.862038 C 54.464486,50.27974 53.0178,50 52.627596,50 H 37.096442 c 2.147104,-2.399328 5.023742,-3.917598 8.187456,-4.515542 l 1.830718,1.921908 c 0.41389,0.433398 1.100808,0.45061 1.533846,0.03644 z m -16.94262,8.804822 c 0.594604,0 1.187798,0.397198 1.187494,1.190124 -6.66e-4,1.584584 -2.376986,1.584584 -2.377592,0 -3.3e-4,-0.792874 0.595496,-1.190124 1.190098,-1.190124 z m 28.364436,0.0573 c 0.594602,0 1.190398,0.394598 1.190096,1.18752 -6.64e-4,1.584584 -2.376988,1.584584 -2.377592,0 -3.34e-4,-0.792924 0.592886,-1.18752 1.187496,-1.18752 z M 36.250092,54.000002 h 1.74999 l -0.0052,10.016926 -4.072906,-0.017 C 33.405392,62.185408 33.244438,60.17533 33.44803,58.29976 l 2.559882,-1.138038 c 0.547034,-0.242902 0.794982,-0.884162 0.552084,-1.432314 z m 7.74991,0 h 5.000002 c 1.216806,0 2.36459,0.843574 2.36459,2 0,0.960082 -1.389156,1.999998 -2.36459,1.999998 h -5.000002 z m 0,8 h 4.468774 c 0.345402,0 1.84545,-0.548962 2.325508,1.37015 0.15032,0.590226 0.482616,2.510324 0.708328,3.125048 0.224912,0.68931 1.138736,1.504802 2.114574,1.504802 h 7.382818 c -0.570112,0.855652 -1.506388,1.865472 -2.55993,2.13067 L 55.924466,69.58899 c -0.585632,-0.12548 -1.16097,0.246524 -1.286452,0.833352 l -0.59635,2.7865 c -3.883296,1.759054 -8.342008,1.736398 -12.20827,-0.05988 l -0.59635,-2.783894 c -0.12548,-0.586006 -0.701172,-0.959188 -1.286452,-0.833352 l -2.45832,0.528652 c -0.456774,-0.470452 -1.002764,-1.051834 -1.49227,-2.060366 H 48.000028 V 64 h -4.000026 z m -4.869718,9.042144 c 0.594602,0 1.1904,0.394658 1.190098,1.187512 -6.66e-4,1.58459 -2.379542,1.58459 -2.380196,0 -3.32e-4,-0.792916 0.595496,-1.187512 1.190098,-1.187512 z m 17.614492,0.05442 c 0.594602,0 1.190398,0.397228 1.190096,1.19012 -6.66e-4,1.584636 -2.376988,1.584636 -2.377592,0 -3.34e-4,-0.792922 0.592894,-1.19012 1.187496,-1.19012 z"
     style="fill:url(#linearGradient2524);fill-opacity:1;stroke-width:1.33334"
     id="path1776" />
</svg>
