<?xml version="1.0" encoding="UTF-8" standalone="no"?>
<!-- Created with Inkscape (http://www.inkscape.org/) -->

<svg
   width="96"
   height="96"
   viewBox="0 0 96 96.000006"
   version="1.1"
   id="svg5"
   inkscape:version="1.2.1 (9c6d41e410, 2022-07-14)"
   sodipodi:docname="x-office-drawing-template.svg"
   xmlns:inkscape="http://www.inkscape.org/namespaces/inkscape"
   xmlns:sodipodi="http://sodipodi.sourceforge.net/DTD/sodipodi-0.dtd"
   xmlns="http://www.w3.org/2000/svg"
   xmlns:svg="http://www.w3.org/2000/svg">
  <sodipodi:namedview
     id="namedview7"
     pagecolor="#ffffff"
     bordercolor="#000000"
     borderopacity="0.25"
     inkscape:showpageshadow="2"
     inkscape:pageopacity="0.0"
     inkscape:pagecheckerboard="0"
     inkscape:deskcolor="#d1d1d1"
     inkscape:document-units="px"
     showgrid="false"
     inkscape:zoom="8.5208333"
     inkscape:cx="33.330073"
     inkscape:cy="48"
     inkscape:window-width="1920"
     inkscape:window-height="1004"
     inkscape:window-x="0"
     inkscape:window-y="0"
     inkscape:window-maximized="1"
     inkscape:current-layer="svg5" />
  <defs
     id="defs2" />
  <path
     id="rect234"
     style="opacity:0.2;stroke-width:1.5;stroke-linecap:round;stroke-linejoin:round"
     d="m 20,7 h 38 l 24,24 v 54 c 0,3.324 -2.676,6 -6,6 H 20 c -3.324,0 -6,-2.676 -6,-6 V 13 c 0,-3.324 2.676,-6 6,-6 z"
     sodipodi:nodetypes="sccssssss" />
  <path
     id="rect448"
     style="fill:#ffb940;fill-opacity:1;stroke-width:1.5;stroke-linecap:round;stroke-linejoin:round"
     d="m 20,6 h 38 l 9,15 15,9 v 54 c 0,3.324 -2.676,6 -6,6 H 20 c -3.324,0 -6,-2.676 -6,-6 V 12 c 0,-3.324 2.676,-6 6,-6 z"
     sodipodi:nodetypes="scccssssss" />
  <path
     d="M 82,31 H 64 c -3.324,0 -6,-2.676 -6,-6 V 6 l 24,24 z"
     style="opacity:0.2;fill:#000000;stroke-width:1.5;stroke-linecap:round;stroke-linejoin:round"
     id="path611"
     sodipodi:nodetypes="cssccc" />
  <path
     id="rect600"
     style="fill:#fede92;fill-opacity:1;stroke-width:1.5;stroke-linecap:round;stroke-linejoin:round"
     d="M 82,30 H 64 c -3.324,0 -6,-2.676 -6,-6 V 6 l 12,12 z"
     sodipodi:nodetypes="cssccc" />
  <path
     d="m 63.883098,44.695184 c -1.04894,-0.35824 -2.395248,-0.57338 -3.679686,0.14844 -2.053392,1.153912 -2.787904,3.466856 -2.789058,5.460936 -0.0012,1.99408 0.494614,4.016076 0.929688,5.9375 0.435068,1.92142 0.808882,3.750728 0.79687,4.984376 -0.012,1.233648 -0.12192,1.516704 -0.73437,1.828124 -0.552824,0.28112 -0.815818,0.27908 -1.109378,0.21876 -0.29356,-0.06032 -0.69021,-0.25464 -1.195312,-0.695312 -1.010204,-0.881356 -2.262704,-2.662824 -3.679688,-4.60156 -1.416986,-1.93874 -3.039994,-4.057376 -5.281252,-5.58594 -2.241256,-1.528564 -5.216588,-2.3503 -8.570312,-1.578124 l -0.0392,0.008 -0.0392,0.0156 c -2.258888,0.61828 -3.906736,2.343556 -5.031252,4.390628 -1.124514,2.047068 -1.806968,4.501432 -2.140624,7.10156 -0.03336,0.26 0.03444,0.53416 0.0078,0.796876 -0.571584,-0.0332 -1.056202,-0.23728 -1.632814,-0.25 l -3.609374,-0.07812 -2,-0.04688 -0.08594,4 2,0.04688 3.609376,0.07812 c 0.638056,0.014 1.123112,0.22336 1.75,0.26564 0.13202,3.740428 0.736748,7.44672 2.523436,10.367188 l 0.03908,0.06252 0.03908,0.05468 c 2.88068,4.009388 7.805104,5.207604 11.531252,3.742188 1.863072,-0.732708 3.490534,-2.306088 3.984376,-4.46094 0.493844,-2.154848 -0.10972,-4.6143 -1.765628,-7.210936 C 46.089996,67.1537 43.3396,65.547456 40.187532,64.500076 38.760592,64.025928 37.024044,64.026888 35.43753,63.7657 c 0.0276,-0.33476 -0.19048,-0.602008 -0.14844,-0.929688 0.284448,-2.216636 0.887426,-4.245264 1.67969,-5.6875 0.78244,-1.424356 1.669376,-2.176564 2.546872,-2.429684 2.307,-0.516964 3.845704,-0.06112 5.367188,0.97656 1.534736,1.046708 2.957868,2.7872 4.312498,4.640624 1.354636,1.853428 2.60212,3.799656 4.273442,5.257812 0.83566,0.72908 1.827332,1.35582 3.023436,1.601564 1.1961,0.24576 2.526536,0.032 3.726558,-0.578124 2.095558,-1.06552 2.902592,-3.370804 2.921876,-5.351564 0.0192,-1.98076 -0.46276,-3.989948 -0.898434,-5.91406 -0.43568,-1.924116 -0.828868,-3.762828 -0.828126,-5.039064 7.4e-4,-1.276236 0.15416,-1.641724 0.75,-1.976564 -0.149,0.08372 -0.0508,-0.0236 0.429684,0.14064 0.480484,0.16408 1.166526,0.546384 1.8125,0.992188 1.291956,0.891604 2.390628,1.968748 2.390628,1.968748 l 1.422124,1.406036 2.8125,-2.843752 -1.421868,-1.406248 c 0,0 -1.278644,-1.27464 -2.929688,-2.414064 -0.825524,-0.569712 -1.747938,-1.126124 -2.79688,-1.484376 z M 36.09404,67.86706 c 0.906812,0.19192 2.0364,0.164 2.835936,0.429688 2.62808,0.873264 4.50916,2.140236 5.406248,3.546872 1.281352,2.00928 1.423868,3.379132 1.242188,4.171876 -0.18168,0.792748 -0.65108,1.280516 -1.546872,1.632812 -1.771048,0.696516 -4.936784,0.12728 -6.742188,-2.296872 -1.070272,-1.7726 -0.926956,-4.77008 -1.195312,-7.484376 z"
     style="color:#000000;fill:#ffffff;stroke:none;stroke-width:4;stroke-linecap:square;-inkscape-stroke:none"
     id="path1330" />
  <path
     d="m 79.803852,53.008524 c -0.709674,0.0336 -1.40999,0.248602 -2.023468,0.65626 L 29.787535,85.67304 c -3.291232,2.195903 -1.73776,7.326742 2.218777,7.328226 h 47.992856 c 2.209069,-2.2e-4 3.999834,-1.790981 4.000054,-4.000056 V 57.000766 c -0.0022,-1.475003 -0.815875,-2.829131 -2.117217,-3.523485 -0.649441,-0.347525 -1.368479,-0.502559 -2.078153,-0.468757 z M 75.999111,65.000881 V 85.001155 H 43.998672 Z"
     style="color:#000000;opacity:0.2;fill:#000000;stroke-width:8.00011;stroke-linecap:round;stroke-linejoin:round"
     id="path5222"
     sodipodi:nodetypes="ccccccccccccc" />
  <path
     id="path5201"
     style="color:#000000;fill:#ebebec;fill-opacity:1;stroke-width:8.00011;stroke-linecap:round;stroke-linejoin:round"
     d="m 79.804628,52.008533 c -0.709672,0.0336 -1.40999,0.248605 -2.023468,0.656265 l -47.992851,32.00825 c -3.291228,2.195903 -1.737756,7.326742 2.218783,7.328226 H 79.999944 C 82.209015,92.001054 83.99978,90.210293 84,88.001217 V 56.000778 C 83.9978,54.525772 83.184123,53.171645 81.882781,52.477297 81.23334,52.129772 80.514302,51.974742 79.804628,52.008533 Z M 75.999889,64.000887 V 84.001163 H 43.999448 Z"
     sodipodi:nodetypes="ccccccccccccc" />
</svg>
