<?xml version="1.0" encoding="UTF-8" standalone="no"?>
<!-- Created with Inkscape (http://www.inkscape.org/) -->

<svg
   width="96"
   height="96"
   viewBox="0 0 96 96.000006"
   version="1.1"
   id="svg5"
   inkscape:version="1.2.2 (1:1.2.2+202305151914+b0a8486541)"
   sodipodi:docname="x-office-drawing-template.svg"
   xmlns:inkscape="http://www.inkscape.org/namespaces/inkscape"
   xmlns:sodipodi="http://sodipodi.sourceforge.net/DTD/sodipodi-0.dtd"
   xmlns:xlink="http://www.w3.org/1999/xlink"
   xmlns="http://www.w3.org/2000/svg"
   xmlns:svg="http://www.w3.org/2000/svg">
  <sodipodi:namedview
     id="namedview7"
     pagecolor="#ffffff"
     bordercolor="#000000"
     borderopacity="0.25"
     inkscape:showpageshadow="2"
     inkscape:pageopacity="0.0"
     inkscape:pagecheckerboard="0"
     inkscape:deskcolor="#d1d1d1"
     inkscape:document-units="px"
     showgrid="false"
     inkscape:zoom="8.2291667"
     inkscape:cx="47.939241"
     inkscape:cy="48"
     inkscape:window-width="1920"
     inkscape:window-height="1012"
     inkscape:window-x="0"
     inkscape:window-y="0"
     inkscape:window-maximized="1"
     inkscape:current-layer="svg5" />
  <defs
     id="defs2">
    <linearGradient
       inkscape:collect="always"
       xlink:href="#linearGradient16449"
       id="linearGradient1318"
       x1="20"
       y1="6"
       x2="76"
       y2="90"
       gradientUnits="userSpaceOnUse" />
    <linearGradient
       inkscape:collect="always"
       id="linearGradient16449">
      <stop
         style="stop-color:#ee9b00;stop-opacity:1;"
         offset="0"
         id="stop16445" />
      <stop
         style="stop-color:#eece00;stop-opacity:1;"
         offset="1"
         id="stop16447" />
    </linearGradient>
    <linearGradient
       inkscape:collect="always"
       xlink:href="#linearGradient1214"
       id="linearGradient1216"
       x1="17.000376"
       y1="23.000013"
       x2="42.000389"
       y2="46.000916"
       gradientUnits="userSpaceOnUse"
       gradientTransform="matrix(1.9999722,0,0,1.9999722,6.1181126e-4,-2.7725516e-4)" />
    <linearGradient
       inkscape:collect="always"
       id="linearGradient1214">
      <stop
         style="stop-color:#d3d3db;stop-opacity:1;"
         offset="0"
         id="stop1210" />
      <stop
         style="stop-color:#eaeaee;stop-opacity:1;"
         offset="1"
         id="stop1212" />
    </linearGradient>
  </defs>
  <path
     id="rect234"
     style="opacity:0.2;stroke-width:1.5;stroke-linecap:round;stroke-linejoin:round"
     d="m 20,7 h 38 l 24,24 v 54 c 0,3.324 -2.676,6 -6,6 H 20 c -3.324,0 -6,-2.676 -6,-6 V 13 c 0,-3.324 2.676,-6 6,-6 z"
     sodipodi:nodetypes="sccssssss" />
  <path
     id="rect448"
     style="fill:url(#linearGradient1318);fill-opacity:1.0;stroke-width:1.5;stroke-linecap:round;stroke-linejoin:round"
     d="m 20,6 h 38 l 9,15 15,9 v 54 c 0,3.324 -2.676,6 -6,6 H 20 c -3.324,0 -6,-2.676 -6,-6 V 12 c 0,-3.324 2.676,-6 6,-6 z"
     sodipodi:nodetypes="scccssssss" />
  <path
     id="rect292"
     style="fill:#ffffff;stroke-width:3;stroke-linecap:round;stroke-linejoin:round"
     d="m 54.000001,44.000001 c -1.661997,0 -3,1.338003 -3,3 V 62 c 0,1.661997 1.338003,3 3,3 h 15 c 1.661997,0 3,-1.338003 3,-3 V 47 c 0,-1.661997 -1.338003,-3 -3,-3 z m 0,3 h 15 V 62 h -15 z"
     sodipodi:nodetypes="sssssssssccccc" />
  <circle
     style="fill:#ffffff;stroke-width:2.4;stroke-linecap:round;stroke-linejoin:round"
     id="path452"
     cx="36"
     cy="52"
     r="12" />
  <path
     id="path2642"
     style="color:#000000;fill:#fde9b6;fill-opacity:1;stroke:none;stroke-width:3;stroke-linecap:round;stroke-linejoin:round;-inkscape-stroke:none"
     d="m 45.000002,52.000002 c -0.494067,-2e-5 -0.956463,0.243232 -1.236327,0.650391 L 30.263673,73.650392 c -0.683799,0.995339 0.02874,2.349492 1.236329,2.349609 h 27 c 1.207591,-1.18e-4 1.920124,-1.35427 1.236327,-2.349609 l -13.5,-21 c -0.279864,-0.407158 -0.74226,-0.65041 -1.236327,-0.65039 z"
     sodipodi:nodetypes="cccccccc" />
  <path
     d="M 82,31 H 64 c -3.324,0 -6,-2.676 -6,-6 V 6 l 24,24 z"
     style="opacity:0.2;fill:#000000;stroke-width:1.5;stroke-linecap:round;stroke-linejoin:round"
     id="path611"
     sodipodi:nodetypes="cssccc" />
  <path
     id="rect600"
     style="fill:#fede92;fill-opacity:1;stroke-width:1.5;stroke-linecap:round;stroke-linejoin:round"
     d="M 82,30 H 64 c -3.324,0 -6,-2.676001 -6,-6 V 6 l 12,12 z"
     sodipodi:nodetypes="cssccc" />
  <path
     d="m 79.804852,53.007535 c -0.709674,0.0336 -1.40999,0.248602 -2.023466,0.65626 L 29.788535,85.672051 c -3.291232,2.195903 -1.73776,7.326742 2.218777,7.328226 h 47.992856 c 2.209069,-2.2e-4 3.999836,-1.790981 4.000054,-4.000056 V 56.999777 c -0.0022,-1.475003 -0.815875,-2.829131 -2.117217,-3.523485 -0.649441,-0.347525 -1.368477,-0.502559 -2.078153,-0.468757 z M 76.000113,64.999892 V 85.000166 H 43.999672 Z"
     style="color:#000000;opacity:0.2;fill:#000000;stroke-width:8.00011;stroke-linecap:round;stroke-linejoin:round"
     id="path5222"
     sodipodi:nodetypes="ccccccccccccc" />
  <path
     id="path5201"
     style="color:#000000;fill:url(#linearGradient1216);fill-opacity:1;stroke-width:8.00011;stroke-linecap:round;stroke-linejoin:round"
     d="m 79.804851,52.007533 c -0.709672,0.0336 -1.40999,0.248605 -2.023466,0.656265 l -47.992853,32.00825 c -3.291228,2.195903 -1.737756,7.326742 2.218783,7.328226 h 47.992852 c 2.209071,-2.2e-4 3.999838,-1.790981 4.000056,-4.000057 V 55.999778 c -0.0022,-1.475006 -0.815877,-2.829133 -2.117219,-3.523481 -0.649441,-0.347525 -1.368477,-0.502555 -2.078153,-0.468764 z M 76.000112,63.999887 V 84.000163 H 43.999671 Z"
     sodipodi:nodetypes="ccccccccccccc" />
</svg>
