<?xml version="1.0" encoding="UTF-8" standalone="no"?>
<svg
   width="24"
   height="24"
   version="1.1"
   id="svg1"
   sodipodi:docname="touch-disabled-symbolic.svg"
   inkscape:version="1.4.2 (ebf0e940d0, 2025-05-08)"
   xmlns:inkscape="http://www.inkscape.org/namespaces/inkscape"
   xmlns:sodipodi="http://sodipodi.sourceforge.net/DTD/sodipodi-0.dtd"
   xmlns="http://www.w3.org/2000/svg"
   xmlns:svg="http://www.w3.org/2000/svg">
  <defs
     id="defs1">
    <style
       id="current-color-scheme"
       type="text/css">
        .ColorScheme-Text { color:#f2f2f2; }
     </style>
  </defs>
  <sodipodi:namedview
     id="namedview1"
     pagecolor="#ffffff"
     bordercolor="#000000"
     borderopacity="0.25"
     inkscape:showpageshadow="2"
     inkscape:pageopacity="0.0"
     inkscape:pagecheckerboard="0"
     inkscape:deskcolor="#d1d1d1"
     inkscape:zoom="33.125"
     inkscape:cx="12"
     inkscape:cy="12"
     inkscape:window-width="1920"
     inkscape:window-height="1010"
     inkscape:window-x="0"
     inkscape:window-y="0"
     inkscape:window-maximized="1"
     inkscape:current-layer="svg1" />
  <path
     id="path1"
     style="opacity:0.35;fill:currentColor"
     class="ColorScheme-Text"
     d="M 11.679688,4.0019531 A 8.481,8.481 0 0 0 5.9960938,6.0195312 0.50017163,0.50017163 0 1 0 6.6445312,6.78125 7.493,7.493 0 0 1 16.59375,6.9921875 0.5,0.5 0 1 0 17.273438,6.2597656 8.48,8.48 0 0 0 11.681641,4.0019531 Z M 11.5,5.9980469 A 6.5,6.5 0 0 0 5,12.46875 a 0.5,0.5 0 0 0 0,0.02344 0.5,0.5 0 0 0 0,0.0059 0.5,0.5 0 0 0 0,0.0039 0.5,0.5 0 0 0 0,0.0019 v 0.0098 a 0.5,0.5 0 0 0 0,0.02344 c 0,1.284 0.2372188,2.55786 0.6992188,3.75586 a 0.50018689,0.50018689 0 1 0 0.9335937,-0.359375 9.45,9.45 0 0 1 -0.6347656,-3.425782 0.5,0.5 0 0 0 0,-0.0098 5.5,5.5 0 0 1 5.5000001,-5.4999999 5.5,5.5 0 0 1 5.5,5.4999999 1.5,1.5 0 0 1 -1.5,1.5 1.5,1.5 0 0 1 -1.5,-1.5 2.5,2.5 0 0 0 -2.5,-2.4999999 A 2.5,2.5 0 0 0 9,12.46875 a 2.5,2.5 0 0 0 0,0.0293 0.5,0.5 0 0 0 0,0.0059 c -0.01,3.556 2.865828,6.463141 6.423828,6.494141 a 0.500025,0.500025 0 1 0 0.0098,-1 5.471,5.471 0 0 1 -5.431641,-5.490235 0.5,0.5 0 0 0 0,-0.0098 1.5,1.5 0 0 1 1.5,-1.5 1.5,1.5 0 0 1 1.5,1.5 2.5,2.5 0 0 0 2.5,2.5 2.5,2.5 0 0 0 2.5,-2.5 6.5,6.5 0 0 0 -6.5,-6.4999997 z m 0,2 A 4.5,4.5 0 0 0 7,12.466797 a 0.5,0.5 0 0 0 0,0.01367 4.5,4.5 0 0 0 0,0.01758 0.5,0.5 0 0 0 0,0.0059 8.463,8.463 0 0 0 3.529297,6.900391 0.5,0.5 0 0 0 0.328125,0.09766 0.5,0.5 0 0 0 0.05078,-0.0078 0.5,0.5 0 0 0 0.203125,-0.902344 A 7.465,7.465 0 0 1 8,12.507813 a 0.5,0.5 0 0 0 0,-0.01172 3.5,3.5 0 0 1 3.5,-3.5000005 3.5,3.5 0 0 1 3.5,3.5000005 0.5,0.5 0 0 0 0.5,0.5 0.5,0.5 0 0 0 0.5,-0.5 0.5,0.5 0 0 0 0,-0.04492 4.5,4.5 0 0 0 -4.498047,-4.4531255 z m -0.0098,3.9804691 a 0.5,0.5 0 0 0 -0.496059,0.505859 v 0.0078 a 0.5,0.5 0 0 0 0,0.0059 0.5,0.5 0 0 0 0,0.05273 4.506,4.506 0 0 0 4.457031,4.447266 0.50003434,0.50003434 0 1 0 0.01172,-1 3.492,3.492 0 0 1 -3.470703,-3.5 0.5,0.5 0 0 0 0,-0.0098 0.5,0.5 0 0 0 -0.503907,-0.507813 z"
     inkscape:label="path1" />
  <rect
     transform="rotate(45)"
     x="7.1703544"
     y="-0.69975007"
     width="20"
     height="1"
     rx="0.5"
     ry="0.5"
     stroke-linecap="round"
     stroke-linejoin="round"
     stroke-width="0.48307"
     style="fill:currentColor"
     class="ColorScheme-Text"
     id="rect1" />
</svg>
