<?xml version="1.0" encoding="UTF-8" standalone="no"?>
<svg
   width="24"
   height="24"
   version="1.1"
   id="svg1"
   sodipodi:docname="user-not-tracked-symbolic.svg"
   inkscape:version="1.4.2 (ebf0e940d0, 2025-05-08)"
   xmlns:inkscape="http://www.inkscape.org/namespaces/inkscape"
   xmlns:sodipodi="http://sodipodi.sourceforge.net/DTD/sodipodi-0.dtd"
   xmlns="http://www.w3.org/2000/svg"
   xmlns:svg="http://www.w3.org/2000/svg">
  <defs
     id="defs1">
    <style
       id="current-color-scheme"
       type="text/css">
        .ColorScheme-Text { color:#f2f2f2; }
        .ColorScheme-NeutralText { color:#f67400; }
        .ColorScheme-PositiveText { color:#37c837; }
        .ColorScheme-NegativeText { color:#f44336; }
        .ColorScheme-Highlight { color:#3daee9; }
     </style>
  </defs>
  <sodipodi:namedview
     id="namedview1"
     pagecolor="#ffffff"
     bordercolor="#000000"
     borderopacity="0.25"
     inkscape:showpageshadow="2"
     inkscape:pageopacity="0.0"
     inkscape:pagecheckerboard="0"
     inkscape:deskcolor="#d1d1d1"
     inkscape:zoom="33.125"
     inkscape:cx="12"
     inkscape:cy="12"
     inkscape:window-width="1920"
     inkscape:window-height="1010"
     inkscape:window-x="0"
     inkscape:window-y="0"
     inkscape:window-maximized="1"
     inkscape:current-layer="svg1" />
  <path
     id="path1"
     style="fill:currentColor"
     class="ColorScheme-Text"
     d="m 9,7.1191406 -0.5625,2.25 h 7.125 l -0.5625,-2.25 -3,0.375 z m -0.75,3.0000004 -2.25,1.5 h 12 l -2.25,-1.5 z m 0.75,2.25 a 2.2500002,2.2500002 0 0 0 0,4.5 2.244,2.244 0 0 0 2.226563,-2.039063 A 1.51,1.51 0 0 1 12,14.619141 c 0.281,0 0.549438,0.07694 0.773438,0.210937 A 2.244,2.244 0 0 0 15,16.869141 a 2.2500002,2.2500002 0 0 0 0,-4.5 c -1.043,0 -1.90225,0.725453 -2.15625,1.689453 -0.264,-0.109 -0.54075,-0.189453 -0.84375,-0.189453 -0.303,0 -0.57975,0.08045 -0.84375,0.189453 C 10.90225,13.094594 10.043,12.369141 9,12.369141 Z m 0,0.939453 a 1.312,1.312 0 0 1 0,2.623047 1.312,1.312 0 0 1 0,-2.623047 z m 6,0 a 1.312,1.312 0 0 1 0,2.623047 1.312,1.312 0 0 1 0,-2.623047 z" />
</svg>
