<?xml version="1.0" encoding="UTF-8" standalone="no"?>
<svg
   width="22"
   height="22"
   version="1.1"
   viewBox="0 0 22 22"
   id="svg2"
   sodipodi:docname="indicator-sensors-gpu.svg"
   inkscape:version="1.4.2 (ebf0e940d0, 2025-05-08)"
   xmlns:inkscape="http://www.inkscape.org/namespaces/inkscape"
   xmlns:sodipodi="http://sodipodi.sourceforge.net/DTD/sodipodi-0.dtd"
   xmlns="http://www.w3.org/2000/svg"
   xmlns:svg="http://www.w3.org/2000/svg">
  <defs
     id="defs2">
    <style
       id="current-color-scheme"
       type="text/css">
        .ColorScheme-Text { color:#363636; }
        .ColorScheme-NeutralText { color:#f67400; }
        .ColorScheme-PositiveText { color:#37c837; }
        .ColorScheme-NegativeText { color:#f44336; }
        .ColorScheme-Highlight { color:#3daee9; }
     </style>
  </defs>
  <sodipodi:namedview
     id="namedview2"
     pagecolor="#ffffff"
     bordercolor="#000000"
     borderopacity="0.25"
     inkscape:showpageshadow="2"
     inkscape:pageopacity="0.0"
     inkscape:pagecheckerboard="0"
     inkscape:deskcolor="#d1d1d1"
     inkscape:zoom="36.136364"
     inkscape:cx="11"
     inkscape:cy="11"
     inkscape:window-width="1920"
     inkscape:window-height="1010"
     inkscape:window-x="0"
     inkscape:window-y="0"
     inkscape:window-maximized="1"
     inkscape:current-layer="svg2" />
  <path
     id="path1"
     style="fill:currentColor"
     class="ColorScheme-Text"
     d="m 3,3 v 1 h 1 c 0.554,0 1,0.446 1,1 v 11 1 2 h 1 v -2 h 2 v 1 c 0,0.554 0.446,1 1,1 h 5 c 0.554,0 1,-0.446 1,-1 v -1 h 2 c 1.108,0 2,-0.892 2,-2 V 6 C 19,4.892 18.108,4 17,4 H 5.7324219 C 5.3874419,3.40192 4.74275,3 4,3 Z m 3,2 h 11 c 0.554,0 1,0.446 1,1 v 9 c 0,0.554 -0.446,1 -1,1 h -2 -1 v 1 1 h -1 v -2 h -1 v 2 h -1 v -2 h -1 v 2 H 9 V 17 16 H 6 Z m 5.5,0.9726562 c -2.4805,0 -4.5,2.0195001 -4.5,4.4999998 0,2.4805 2.0195,4.5 4.5,4.5 2.4805,0 4.5,-2.0195 4.5,-4.5 C 16,7.9921562 13.9805,5.9726563 11.5,5.9726562 Z M 11,7.0097656 v 0.5253906 c 0,0.27734 0.22266,0.5 0.5,0.5 0.27734,0 0.5,-0.22266 0.5,-0.5 V 7.0097656 c 0.59551,0.084407 1.141409,0.3151331 1.599609,0.6582032 l -0.376953,0.375 c -0.19531,0.19531 -0.19531,0.5117212 0,0.7070312 0.19531,0.19531 0.511721,0.19531 0.707032,0 l 0.376953,-0.3730469 c 0.34148,0.45757 0.57198,1.0026029 0.65625,1.5957029 H 14.4375 c -0.27734,0 -0.5,0.22266 -0.5,0.5 0,0.27734 0.22266,0.5 0.5,0.5 h 0.525391 c -0.08408,0.59456 -0.316424,1.14181 -0.658203,1.59961 l -0.375,-0.373047 c -0.09375,-0.09375 -0.218753,-0.148438 -0.351563,-0.148438 -0.13281,0 -0.261719,0.05468 -0.355469,0.148438 -0.19531,0.19531 -0.19531,0.511721 0,0.707031 l 0.375,0.373047 C 13.139856,13.621077 12.5946,13.851467 12,13.935547 v -0.525391 c 0,-0.27734 -0.22266,-0.5 -0.5,-0.5 -0.27734,0 -0.5,0.22266 -0.5,0.5 v 0.525391 c -0.59312,-0.08427 -1.138103,-0.31477 -1.595703,-0.65625 L 9.777344,12.90625 c 0.19531,-0.19531 0.19531,-0.511721 0,-0.707031 -0.09375,-0.09375 -0.222659,-0.148438 -0.355469,-0.148438 -0.13281,0 -0.257812,0.05468 -0.351562,0.148438 l -0.3750005,0.373047 -0.00195,-0.002 c -0.34217,-0.4578 -0.57198,-1.003057 -0.65625,-1.597657 H 8.5625 c 0.27734,0 0.5,-0.22266 0.5,-0.5 0,-0.27734 -0.22266,-0.5 -0.5,-0.5 H 8.0371094 c 0.084456,-0.59312 0.31437,-1.1381028 0.65625,-1.5957028 L 9.070313,8.75 c 0.195309,0.19531 0.511721,0.19531 0.707031,0 0.19531,-0.19531 0.19531,-0.5117212 0,-0.7070312 l -0.376953,-0.375 C 9.858661,7.3246887 10.4054,7.0944256 11,7.0097656 Z m 0.5,1.9628906 c -0.82031,0 -1.5,0.6796898 -1.5,1.4999998 0,0.82422 0.67969,1.5 1.5,1.5 0.82422,0 1.5,-0.67578 1.5,-1.5 0,-0.82031 -0.67578,-1.4999997 -1.5,-1.4999998 z m 0,0.9999998 c 0.28125,0 0.5,0.21875 0.5,0.5 0,0.28125 -0.21875,0.5 -0.5,0.5 -0.28125,0 -0.5,-0.21875 -0.5,-0.5 0,-0.28125 0.21875,-0.5 0.5,-0.5 z" />
</svg>
