<?xml version="1.0" encoding="UTF-8" standalone="no"?>
<svg
   height="22"
   width="22"
   version="1.1"
   id="svg2"
   sodipodi:docname="input-touchpad-off.svg"
   inkscape:version="1.4.2 (ebf0e940d0, 2025-05-08)"
   xmlns:inkscape="http://www.inkscape.org/namespaces/inkscape"
   xmlns:sodipodi="http://sodipodi.sourceforge.net/DTD/sodipodi-0.dtd"
   xmlns="http://www.w3.org/2000/svg"
   xmlns:svg="http://www.w3.org/2000/svg">
  <defs
     id="defs2">
    <style
       id="current-color-scheme"
       type="text/css">
        .ColorScheme-Text { color:#363636; }
        .ColorScheme-NeutralText { color:#f67400; }
        .ColorScheme-PositiveText { color:#37c837; }
        .ColorScheme-NegativeText { color:#f44336; }
        .ColorScheme-Highlight { color:#3daee9; }
     </style>
  </defs>
  <sodipodi:namedview
     id="namedview2"
     pagecolor="#ffffff"
     bordercolor="#000000"
     borderopacity="0.25"
     inkscape:showpageshadow="2"
     inkscape:pageopacity="0.0"
     inkscape:pagecheckerboard="0"
     inkscape:deskcolor="#d1d1d1"
     inkscape:zoom="36.136364"
     inkscape:cx="11"
     inkscape:cy="11"
     inkscape:window-width="1920"
     inkscape:window-height="1010"
     inkscape:window-x="0"
     inkscape:window-y="0"
     inkscape:window-maximized="1"
     inkscape:current-layer="svg2"
     showguides="true" />
  <path
     id="path1"
     style="line-height:normal;font-variant-ligatures:normal;font-variant-position:normal;font-variant-caps:normal;font-variant-numeric:normal;font-variant-alternates:normal;font-feature-settings:normal;text-indent:0;text-align:start;text-decoration-line:none;text-decoration-style:solid;text-decoration-color:#000000;text-transform:none;text-orientation:mixed;shape-padding:0;opacity:0.3;isolation:auto;mix-blend-mode:normal;fill:currentColor"
     class="ColorScheme-Text"
     d="M 4.5,4 C 3.678,4 3,4.677 3,5.5 v 11 C 3,17.322 3.678,18 4.5,18 H 13 V 17 H 11.009766 V 14.990234 H 13 v -1 H 4 V 5.5 C 4,5.214 4.215,5 4.5,5 h 12 C 16.786,5 17,5.214 17,5.5 v 7.490234 h 1 V 5.5 C 18,4.677 17.323,4 16.5,4 Z M 4,14.990234 h 6.009766 V 17 H 4.5 A 0.488,0.488 0 0 1 4,16.5 Z" />
  <path
     id="path2"
     style="fill:currentColor;marker:none"
     class="ColorScheme-Text"
     d="m 14,14 v 1.470703 L 15.0625,16.53125 14,17.59375 V 19 h 1.4375 L 16.5,17.9375 17.5625,19 H 19 V 17.59375 L 17.90625,16.53125 19,15.46875 V 14 H 17.59375 L 16.5,15.09375 15.375,14 Z" />
</svg>
