<?xml version="1.0" encoding="UTF-8" standalone="no"?>
<!-- Created with Inkscape (http://www.inkscape.org/) -->

<svg
   width="22"
   height="22"
   viewBox="0 0 22 22"
   version="1.1"
   id="svg1"
   inkscape:version="1.3.2 (091e20ef0f, 2023-11-25, custom)"
   sodipodi:docname="media-flash-sd-mmc-symbolic.svg"
   xmlns:inkscape="http://www.inkscape.org/namespaces/inkscape"
   xmlns:sodipodi="http://sodipodi.sourceforge.net/DTD/sodipodi-0.dtd"
   xmlns="http://www.w3.org/2000/svg"
   xmlns:svg="http://www.w3.org/2000/svg">
  <sodipodi:namedview
     id="namedview1"
     pagecolor="#ffffff"
     bordercolor="#000000"
     borderopacity="0.25"
     inkscape:showpageshadow="2"
     inkscape:pageopacity="0.0"
     inkscape:pagecheckerboard="0"
     inkscape:deskcolor="#d1d1d1"
     inkscape:document-units="px"
     inkscape:zoom="36.545455"
     inkscape:cx="11"
     inkscape:cy="11"
     inkscape:window-width="1920"
     inkscape:window-height="1008"
     inkscape:window-x="0"
     inkscape:window-y="0"
     inkscape:window-maximized="1"
     inkscape:current-layer="svg1"
     showguides="false" />
  <defs
     id="defs2">
    <style
       id="current-color-scheme"
       type="text/css">
        .ColorScheme-Text { color:#363636; }
     </style>
  </defs>
  <path
     id="rect1"
     style="fill:currentColor;fill-opacity:1"
     class="ColorScheme-Text"
     d="M 8,3 C 6.8920077,3 6,3.8920077 6,5 v 4 l -2,2 v 6 c 0,1.107993 0.8920077,2 2,2 h 9 c 1.107993,0 2,-0.892007 2,-2 V 5 C 17,3.8920077 16.107993,3 15,3 Z m 0,1 h 7 c 0.553993,0 1,0.4460042 1,1 v 12 c 0,0.553993 -0.446007,1 -1,1 H 6 C 5.4460042,18 5,17.553993 5,17 v -5.5 l 2,-2 V 5 C 7,4.4460042 7.4460042,4 8,4 Z m 2,1 v 4 h 1 V 5 Z m 2,0 v 4 h 1 V 5 Z M 8,6 V 9 H 9 V 6 Z m 6,0 v 3 h 1 V 6 Z" />
</svg>
