<?xml version="1.0" encoding="UTF-8" standalone="no"?>
<!-- Created with Inkscape (http://www.inkscape.org/) -->

<svg
   width="22"
   height="22"
   viewBox="0 0 22 22"
   version="1.1"
   id="svg5"
   inkscape:version="1.2.1 (9c6d41e410, 2022-07-14)"
   sodipodi:docname="network-cellular-acquiring.svg"
   xmlns:inkscape="http://www.inkscape.org/namespaces/inkscape"
   xmlns:sodipodi="http://sodipodi.sourceforge.net/DTD/sodipodi-0.dtd"
   xmlns="http://www.w3.org/2000/svg"
   xmlns:svg="http://www.w3.org/2000/svg">
  <sodipodi:namedview
     id="namedview7"
     pagecolor="#ffffff"
     bordercolor="#666666"
     borderopacity="1.0"
     inkscape:showpageshadow="2"
     inkscape:pageopacity="0.0"
     inkscape:pagecheckerboard="0"
     inkscape:deskcolor="#d1d1d1"
     inkscape:document-units="px"
     showgrid="false"
     showguides="true"
     inkscape:zoom="36.454545"
     inkscape:cx="11"
     inkscape:cy="11"
     inkscape:window-width="1920"
     inkscape:window-height="1008"
     inkscape:window-x="0"
     inkscape:window-y="0"
     inkscape:window-maximized="1"
     inkscape:current-layer="svg5" />
  <defs
     id="defs2">
    <style
       id="current-color-scheme"
       type="text/css">
         .ColorScheme-Text { color:#363636; }
     </style>
  </defs>
  <path
     id="rect788"
     style="opacity:0.2;fill:currentColor;stroke-linecap:round;stroke-linejoin:round"
     class="ColorScheme-Text"
     d="m 17,4 c -0.553998,0 -1,0.4460012 -1,1 v 4 c 1.107999,0 2,0.892001 2,2 V 5 C 18,4.4460012 17.553998,4 17,4 Z m 1,7 c 0,1.107999 -0.892001,2 -2,2 v 4 c 0,0.553997 0.446002,1 1,1 0.553998,0 1,-0.446003 1,-1 z M 13,7 c -0.553999,0 -1,0.4460012 -1,1 v 1 h 2 V 8 C 14,7.4460012 13.553998,7 13,7 Z m -5,6 v 4 c 0,0.553997 0.4460012,1 1,1 0.553999,0 1,-0.446003 1,-1 v -4 z m 4,0 v 4 c 0,0.553997 0.446001,1 1,1 0.553998,0 1,-0.446003 1,-1 v -4 z m -7,1 c -0.5539988,0 -1,0.446002 -1,1 v 2 c 0,0.553997 0.4460012,1 1,1 0.5539988,0 1,-0.446003 1,-1 V 15 C 6,14.446002 5.5539988,14 5,14 Z" />
  <path
     id="path843"
     style="color:#363636;fill:currentColor;stroke-width:2;stroke-linecap:round;stroke-linejoin:round;paint-order:stroke fill markers"
     d="m 5.9999997,10 a 1,1 0 0 0 -1,1 1,1 0 0 0 1,1 1,1 0 0 0 1,-1 1,1 0 0 0 -1,-1 z M 11,10 a 1,1 0 0 0 -1,1 1,1 0 0 0 1,1 1,1 0 0 0 1,-1 1,1 0 0 0 -1,-1 z m 5,0 a 1,1 0 0 0 -1,1 1,1 0 0 0 1,1 1,1 0 0 0 1,-1 1,1 0 0 0 -1,-1 z"
     class="ColorScheme-Text" />
</svg>
