<?xml version="1.0" encoding="UTF-8" standalone="no"?>
<!-- Created with Inkscape (http://www.inkscape.org/) -->

<svg
   width="22"
   height="22"
   viewBox="0 0 22 22"
   version="1.1"
   id="svg5"
   inkscape:version="1.2.1 (9c6d41e410, 2022-07-14)"
   sodipodi:docname="network-wireless-secure-signal-low.svg"
   xmlns:inkscape="http://www.inkscape.org/namespaces/inkscape"
   xmlns:sodipodi="http://sodipodi.sourceforge.net/DTD/sodipodi-0.dtd"
   xmlns="http://www.w3.org/2000/svg"
   xmlns:svg="http://www.w3.org/2000/svg">
  <sodipodi:namedview
     id="namedview7"
     pagecolor="#ffffff"
     bordercolor="#666666"
     borderopacity="1.0"
     inkscape:showpageshadow="2"
     inkscape:pageopacity="0.0"
     inkscape:pagecheckerboard="0"
     inkscape:deskcolor="#d1d1d1"
     inkscape:document-units="px"
     showgrid="false"
     showguides="false"
     inkscape:zoom="36.454545"
     inkscape:cx="11"
     inkscape:cy="11"
     inkscape:window-width="1920"
     inkscape:window-height="1008"
     inkscape:window-x="0"
     inkscape:window-y="0"
     inkscape:window-maximized="1"
     inkscape:current-layer="svg5" />
  <defs
     id="defs2">
    <style
       id="current-color-scheme"
       type="text/css">
         .ColorScheme-Text { color:#363636; }
     </style>
  </defs>
  <path
     id="path356"
     style="opacity:1;fill:currentColor;fill-opacity:1;fill-rule:evenodd;paint-order:stroke fill markers"
     d="m 11.000656,15 c -0.552284,0 -1,0.447716 -1,1 0,0.552284 0.447716,1 1,1 0.552284,0 1,-0.447716 1,-1 0,-0.552284 -0.447716,-1 -1,-1 z"
     class="ColorScheme-Text"
     sodipodi:nodetypes="sssss" />
  <path
     id="path898"
     style="color:#363636;opacity:0.2;fill:currentColor;fill-opacity:1;fill-rule:evenodd;paint-order:stroke fill markers"
     d="m 11.000328,6 c -2.8404804,-3e-7 -5.4324426,1.007115 -7.4863281,2.6582031 -0.034685,0.020162 -0.066817,0.044425 -0.095703,0.072266 C 3.3202029,8.8243431 3.2645048,8.9540702 3.264,9.089844 c 0,0.27614 0.2238595,0.5 0.5,0.5 C 3.8800495,9.590173 3.9926023,9.550124 4.0823592,9.476563 5.9733467,7.9377727 8.3721463,7 11.000328,7 c 2.628179,-3e-7 5.026883,0.937733 6.917969,2.476563 0.08976,0.07356 0.202308,0.11361 0.318359,0.113281 0.276142,0 0.5,-0.22386 0.5,-0.5 -5.05e-4,-0.1357741 -0.05621,-0.2655016 -0.154297,-0.3593752 -0.02889,-0.027841 -0.06102,-0.052104 -0.0957,-0.072266 C 16.432764,7.0071156 13.840707,6 11.000328,6 Z m 0,3 c -2.0730853,0 -3.9680924,0.717253 -5.4882812,1.896484 -0.036843,0.02037 -0.070969,0.0453 -0.1015626,0.07422 -0.099301,0.09401 -0.1557673,0.224588 -0.15625,0.361328 0,0.276141 0.2238597,0.5 0.5,0.5 0.1169604,2.36e-4 0.2303064,-0.04054 0.3203126,-0.115234 C 7.4333369,10.648004 9.137241,10 11.000328,10 c 1.498423,0 2.89409,0.420502 4.089844,1.140625 C 15.376983,11.050012 15.682785,11 16.000328,11 c 0.232976,0 0.458332,0.02834 0.675781,0.07813 -0.02336,-0.03928 -0.05213,-0.07542 -0.08594,-0.107422 -0.03059,-0.02892 -0.06472,-0.05385 -0.101563,-0.07422 C 14.968429,9.717293 13.073414,9 11.000328,9 Z m 0,3 c -1.352493,0 -2.5832424,0.468924 -3.5859375,1.224609 -0.1103394,0.09497 -0.1679492,0.239176 -0.1679687,0.384766 0,0.27614 0.223861,0.5 0.5,0.5 0.124359,-3.26e-4 0.2441279,-0.04698 0.3359374,-0.130859 C 8.9045052,13.375456 9.902234,13 11.000328,13 c 0.736449,0 1.427312,0.169741 2.050781,0.462891 0.06092,-0.338646 0.177972,-0.656886 0.341797,-0.945313 C 12.661878,12.188598 11.855618,12 11.000328,12 Z" />
  <path
     id="rect8392"
     style="fill:currentColor;fill-opacity:1;stroke-width:1.6527;stroke-linecap:round;stroke-linejoin:round;paint-order:stroke fill markers"
     d="m 16.000328,12 c -1.107998,0 -2,0.892002 -2,2 v 1 h -1 v 4 h 6 v -4 h -1 v -1 c 0,-1.107998 -0.892002,-2 -2,-2 z m 0,1 c 0.553998,0 1,0.446002 1,1 v 1 h -2 v -1 c 0,-0.553998 0.446002,-1 1,-1 z"
     class="ColorScheme-Text" />
</svg>
