<?xml version="1.0" encoding="UTF-8" standalone="no"?>
<!-- Created with Inkscape (http://www.inkscape.org/) -->

<svg
   width="22"
   height="22"
   viewBox="0 0 22 22"
   version="1.1"
   id="svg5"
   inkscape:version="1.2.1 (9c6d41e410, 2022-07-14)"
   sodipodi:docname="network-wireless-signal-none.svg"
   xmlns:inkscape="http://www.inkscape.org/namespaces/inkscape"
   xmlns:sodipodi="http://sodipodi.sourceforge.net/DTD/sodipodi-0.dtd"
   xmlns="http://www.w3.org/2000/svg"
   xmlns:svg="http://www.w3.org/2000/svg">
  <sodipodi:namedview
     id="namedview7"
     pagecolor="#ffffff"
     bordercolor="#666666"
     borderopacity="1.0"
     inkscape:showpageshadow="2"
     inkscape:pageopacity="0.0"
     inkscape:pagecheckerboard="0"
     inkscape:deskcolor="#d1d1d1"
     inkscape:document-units="px"
     showgrid="false"
     showguides="false"
     inkscape:zoom="25.65625"
     inkscape:cx="3.819732"
     inkscape:cy="10.017052"
     inkscape:window-width="1920"
     inkscape:window-height="1008"
     inkscape:window-x="0"
     inkscape:window-y="0"
     inkscape:window-maximized="1"
     inkscape:current-layer="svg5" />
  <defs
     id="defs2">
    <style
       id="current-color-scheme"
       type="text/css">
         .ColorScheme-Text { color:#363636; }
     </style>
  </defs>
  <path
     id="path2346"
     style="opacity:0.2;fill:currentColor;fill-opacity:1;stroke-width:2;stroke-linecap:square;paint-order:stroke fill markers"
     class="ColorScheme-Text"
     d="M 11.000328,6 C 8.1598421,5.9999997 5.5678895,7.0071116 3.514,8.6582031 3.479315,8.6783651 3.447183,8.7026281 3.418297,8.7304691 3.320202,8.8243431 3.264505,8.95407 3.2640001,9.0898441 c 0,0.2761409 0.223859,0.4999999 0.5,0.5 C 3.8800499,9.5901735 3.992602,9.5501245 4.0823593,9.4765625 5.9733503,7.9377697 8.3721411,7 11.000328,7 c 2.628185,-3e-7 5.026879,0.93773 6.917969,2.4765625 0.08976,0.073562 0.202308,0.113611 0.318359,0.1132813 0.276142,0 0.5,-0.2238591 0.5,-0.5 -5.05e-4,-0.1357741 -0.05621,-0.2655012 -0.154297,-0.359375 -0.02889,-0.027841 -0.06102,-0.052104 -0.0957,-0.072266 C 16.432763,7.0071119 13.840713,6 11.000328,6 Z m 0,3 c -2.0730894,0 -3.9680891,0.7172504 -5.4882811,1.896484 -0.036843,0.02037 -0.070969,0.0453 -0.1015626,0.07422 -0.099301,0.09401 -0.1557673,0.224587 -0.15625,0.361329 0,0.276141 0.2238591,0.5 0.5,0.5 0.1169606,2.35e-4 0.2303064,-0.04054 0.3203126,-0.115235 C 7.4333399,10.648002 9.1372376,10 11.000328,10 c 1.863091,-2e-7 3.566991,0.647962 4.925781,1.716797 0.09001,0.07469 0.203352,0.11547 0.320313,0.115234 0.276137,0 0.5,-0.223858 0.5,-0.5 -4.83e-4,-0.136741 -0.05695,-0.267318 -0.15625,-0.361328 -0.03059,-0.02892 -0.06472,-0.05385 -0.101563,-0.07422 C 14.968419,9.7172907 13.073418,9 11.000328,9 Z m 0,3 c -1.3524943,0 -2.5832413,0.468923 -3.5859374,1.224609 -0.1103396,0.09497 -0.1679491,0.239176 -0.1679687,0.384766 0,0.27614 0.2238608,0.5 0.5,0.5 0.1243592,-3.26e-4 0.2441278,-0.04698 0.3359374,-0.130859 C 8.9045061,13.375456 9.9022325,13 11.000328,13 c 1.098096,0 2.095773,0.375456 2.917969,0.978516 0.09181,0.08388 0.211577,0.130529 0.335937,0.130859 0.27614,0 0.5,-0.22386 0.5,-0.5 -1.6e-5,-0.14559 -0.05762,-0.289796 -0.167968,-0.384766 C 13.58357,12.468913 12.352822,12 11.000328,12 Z m 0,3 c -0.552284,0 -1,0.447716 -1,1 0,0.552284 0.447716,1 1,1 0.552284,0 1,-0.447716 1,-1 0,-0.552284 -0.447716,-1 -1,-1 z" />
</svg>
