<?xml version="1.0" encoding="UTF-8" standalone="no"?>
<!-- Created with Inkscape (http://www.inkscape.org/) -->

<svg
   width="22"
   height="22"
   viewBox="0 0 22 22"
   version="1.1"
   id="svg5"
   sodipodi:docname="preferences-desktop-display-randr.svg"
   inkscape:version="1.4 (e7c3feb100, 2024-10-09)"
   xmlns:inkscape="http://www.inkscape.org/namespaces/inkscape"
   xmlns:sodipodi="http://sodipodi.sourceforge.net/DTD/sodipodi-0.dtd"
   xmlns="http://www.w3.org/2000/svg"
   xmlns:svg="http://www.w3.org/2000/svg">
  <sodipodi:namedview
     id="namedview7"
     pagecolor="#ffffff"
     bordercolor="#666666"
     borderopacity="1.0"
     inkscape:showpageshadow="2"
     inkscape:pageopacity="0.0"
     inkscape:pagecheckerboard="0"
     inkscape:deskcolor="#d1d1d1"
     inkscape:document-units="px"
     showgrid="false"
     inkscape:zoom="36.727273"
     inkscape:cx="10.986386"
     inkscape:cy="11"
     inkscape:window-width="1920"
     inkscape:window-height="1011"
     inkscape:window-x="0"
     inkscape:window-y="0"
     inkscape:window-maximized="1"
     inkscape:current-layer="svg5" />
  <defs
     id="defs2">
    <style
       id="current-color-scheme"
       type="text/css">
         .ColorScheme-Text { color:#363636; }
     </style>
  </defs>
  <path
     id="path1017"
     style="fill:currentColor;fill-opacity:1"
     class="ColorScheme-Text"
     d="M 6,5 C 4.8920044,5 4,5.8920044 4,7 v 7 c 0,1.107996 0.8920044,2 2,2 H 7.5 C 7.2230006,16 7,16.223 7,16.5 7,16.777 7.2230006,17 7.5,17 h 7 C 14.777,17 15,16.777 15,16.5 15,16.223 14.777,16 14.5,16 H 16 c 1.107996,0 2,-0.892004 2,-2 V 7 C 18,5.8920044 17.107996,5 16,5 Z m 0,1 h 10 c 0.553996,0 1,0.4460024 1,1 v 7 c 0,0.553996 -0.446004,1 -1,1 H 6 C 5.4460024,15 5,14.553996 5,14 V 7 C 5,6.4460024 5.4460024,6 6,6 Z" />
</svg>
