<?xml version="1.0" encoding="UTF-8" standalone="no"?>
<svg
   width="22"
   height="22"
   version="1.1"
   id="svg2"
   sodipodi:docname="weather-severe-alert.svg"
   inkscape:version="1.4.2 (ebf0e940d0, 2025-05-08)"
   xmlns:inkscape="http://www.inkscape.org/namespaces/inkscape"
   xmlns:sodipodi="http://sodipodi.sourceforge.net/DTD/sodipodi-0.dtd"
   xmlns="http://www.w3.org/2000/svg"
   xmlns:svg="http://www.w3.org/2000/svg">
  <defs
     id="defs2">
    <style
       id="current-color-scheme"
       type="text/css">
        .ColorScheme-Text { color:#363636; }
        .ColorScheme-NeutralText { color:#f67400; }
        .ColorScheme-PositiveText { color:#37c837; }
        .ColorScheme-NegativeText { color:#f44336; }
        .ColorScheme-Highlight { color:#3daee9; }
     </style>
  </defs>
  <sodipodi:namedview
     id="namedview2"
     pagecolor="#ffffff"
     bordercolor="#000000"
     borderopacity="0.25"
     inkscape:showpageshadow="2"
     inkscape:pageopacity="0.0"
     inkscape:pagecheckerboard="0"
     inkscape:deskcolor="#d1d1d1"
     inkscape:zoom="36.136364"
     inkscape:cx="11"
     inkscape:cy="11"
     inkscape:window-width="1920"
     inkscape:window-height="1010"
     inkscape:window-x="0"
     inkscape:window-y="0"
     inkscape:window-maximized="1"
     inkscape:current-layer="svg2" />
  <path
     id="path1"
     style="fill:currentColor"
     class="ColorScheme-Text"
     d="M 11.640625,3.668 C 9.482625,3.67 7.6474844,4.9994218 6.7714844,6.9004218 l -0.060547,0.1289063 -0.1386719,0.00977 C 4.5782656,7.1830937 3,8.9098437 3,11.007844 c 0,2.193 1.7158906,3.992187 3.8378906,3.992187 H 9 v -1 H 6.8378906 C 5.2808906,14.000031 4,12.678843 4,11.007844 4,9.4108442 5.1845313,8.1421874 6.6445312,8.0351874 L 7.3671875,7.9844062 7.6777344,7.3222968 v -0.00391 c 0.729,-1.58 2.2129376,-2.6493907 3.9609376,-2.6503906 2.368,0.002 4.291297,1.9522656 4.404297,4.447266 v 0.0098 l 0.05078,0.775391 0.703125,0.2968748 a 1.944,1.944 0 0 1 1.195313,1.814453 c 0.01,1.113969 -0.846093,1.98825 -1.871093,1.98825 h -3.123047 v 1 h 3.123047 c 1.591,0 2.876953,-1.350281 2.876953,-2.988281 A 2.958,2.958 0 0 0 17.193359,9.2773752 l -0.136718,-0.05859 -0.0098,-0.148437 C 16.910841,6.0773477 14.560544,3.6700039 11.642544,3.668004 Z" />
  <path
     id="rect1"
     style="fill:currentColor;stroke-width:2"
     class="ColorScheme-NeutralText warning"
     d="m 11,10.000031 c -0.554,0 -1,0.446 -1,1 v 4 c 0,0.554 0.446,1 1,1 0.554,0 1,-0.446 1,-1 v -4 c 0,-0.554 -0.446,-1 -1,-1 z m 0,7 a 1,1 0 0 0 -1,1 1,1 0 0 0 1,1 1,1 0 0 0 1,-1 1,1 0 0 0 -1,-1 z" />
</svg>
