<?xml version="1.0" encoding="UTF-8" standalone="no"?>
<!-- Created with Inkscape (http://www.inkscape.org/) -->

<svg
   width="22"
   height="22"
   viewBox="0 0 22 22"
   version="1.1"
   id="svg5"
   inkscape:version="1.4.2 (ebf0e940d0, 2025-05-08)"
   sodipodi:docname="user-home-symbolic.svg"
   xmlns:inkscape="http://www.inkscape.org/namespaces/inkscape"
   xmlns:sodipodi="http://sodipodi.sourceforge.net/DTD/sodipodi-0.dtd"
   xmlns="http://www.w3.org/2000/svg"
   xmlns:svg="http://www.w3.org/2000/svg">
  <sodipodi:namedview
     id="namedview7"
     pagecolor="#ffffff"
     bordercolor="#666666"
     borderopacity="1.0"
     inkscape:showpageshadow="2"
     inkscape:pageopacity="0.0"
     inkscape:pagecheckerboard="0"
     inkscape:deskcolor="#d1d1d1"
     inkscape:document-units="px"
     showgrid="false"
     inkscape:zoom="36.136364"
     inkscape:cx="11"
     inkscape:cy="11"
     inkscape:window-width="1920"
     inkscape:window-height="1010"
     inkscape:window-x="0"
     inkscape:window-y="0"
     inkscape:window-maximized="1"
     inkscape:current-layer="svg5" />
  <defs
     id="defs2">
    <style
       id="current-color-scheme"
       type="text/css">
        .ColorScheme-Text { color:#363636; }
     </style>
  </defs>
  <path
     id="path181"
     style="fill:currentColor"
     class="ColorScheme-Text"
     d="m 10.999516,4 c -0.1326,2.6e-5 -0.25976,0.05272 -0.353516,0.1464844 l -7.5,7.4999996 0.7070312,0.707032 1.1464844,-1.146485 V 17 c 0,0.553995 0.4460046,1 1,1 h 9.9980474 c 0.553995,0 1,-0.446005 1,-1 v -5.792969 l 1.146484,1.146485 0.707031,-0.707032 -2.853515,-2.8535152 V 5 h -1 V 7.7929688 L 11.353032,4.1464844 C 11.259272,4.0527145 11.132116,4.000026 10.999516,4 Z m 0,1.2070312 4.998047,4.9999998 V 17 h -3 V 11 H 8.9995156 v 6 h -3 v -6.792969 z" />
</svg>
