<?xml version="1.0" encoding="UTF-8" standalone="no"?>
<!-- Created with Inkscape (http://www.inkscape.org/) -->

<svg
   width="48"
   height="48"
   viewBox="0 0 48 48"
   version="1.1"
   id="svg5"
   inkscape:version="1.2.2 (b0a8486541, 2022-12-01)"
   sodipodi:docname="folder-black-network.svg"
   xmlns:inkscape="http://www.inkscape.org/namespaces/inkscape"
   xmlns:sodipodi="http://sodipodi.sourceforge.net/DTD/sodipodi-0.dtd"
   xmlns="http://www.w3.org/2000/svg"
   xmlns:svg="http://www.w3.org/2000/svg">
  <sodipodi:namedview
     id="namedview7"
     pagecolor="#ffffff"
     bordercolor="#000000"
     borderopacity="0.25"
     inkscape:showpageshadow="2"
     inkscape:pageopacity="0.0"
     inkscape:pagecheckerboard="0"
     inkscape:deskcolor="#d1d1d1"
     inkscape:document-units="px"
     showgrid="false"
     inkscape:zoom="16.875"
     inkscape:cx="24.02963"
     inkscape:cy="24.088889"
     inkscape:window-width="1920"
     inkscape:window-height="1000"
     inkscape:window-x="0"
     inkscape:window-y="0"
     inkscape:window-maximized="1"
     inkscape:current-layer="svg5" />
  <defs
     id="defs2">
    <style
       id="current-color-scheme"
       type="text/css">
         .ColorScheme-Highlight { color:#3daee9; }
     </style>
  </defs>
  <path
     d="M 6,7 C 4.3380015,7 3,8.338002 3,10 v 30 c 0,1.661998 1.3380015,3 3,3 h 36 c 1.661998,0 3,-1.338002 3,-3 V 15 c 0,-1.661998 -1.338002,-3 -3,-3 H 24 L 21,8.5 C 20.18215,7.581613 19.661998,7 18,7 Z"
     style="opacity:0.3;fill:#000000;stroke-width:1.5"
     id="path1016"
     sodipodi:nodetypes="ssssssssccss" />
  <path
     id="rect184"
     style="fill:#333333;fill-opacity:1;stroke-width:2"

     d="M 6,6 C 4.3380016,6 3,7.338001 3,9 v 30 c 0,1.661998 1.3380016,3 3,3 h 36 c 1.661998,0 3,-1.338002 3,-3 V 14 c 0,-1.661998 -1.338002,-3 -3,-3 H 24 L 21,7.5 C 20.163517,6.423606 19.661998,6 18,6 Z"
     sodipodi:nodetypes="sccsssssccss" />
  <path
     id="path1511"
     style="opacity:0.4;fill:#000000;fill-opacity:1;stroke-width:1"
     d="M 6,6 C 4.3380036,6 3,7.338003 3,9 v 10 c 0,-1.65685 1.3431508,-3 3,-3 h 12 c 1.661994,0 1.999793,-0.579038 3,-1.5 L 24,11 21,7.5 C 20.163518,6.423607 19.661996,6 18,6 Z" />
  <path
     id="path3081"
     style="opacity:0.2;fill:#ffffff;stroke-width:1.5"
     d="m 24,11 -3,3.5 C 19.999793,15.420963 19.661995,16 18,16 H 6 c -1.6568493,0 -3,1.34315 -3,3 v 1 c 0,-1.65685 1.3431507,-3 3,-3 h 12 c 1.661995,0 1.999793,-0.579037 3,-1.5 L 24,12 h 18 c 1.661992,0 3,1.338008 3,3 v -1 c 0,-1.661992 -1.338008,-3 -3,-3 z"
     sodipodi:nodetypes="ccssscssccscssc" />
  <path
     id="path242"
     style="opacity:0.6;fill:#ffffff;stroke-width:2.57143;stroke-linecap:round;stroke-linejoin:round"
     d="m 28,21 a 3,3 0 0 0 -3,3 3,3 0 0 0 0.0918,0.712891 l -3.890625,2.248047 A 3,3 0 0 0 19,26 a 3,3 0 0 0 -3,3 3,3 0 0 0 3,3 3,3 0 0 0 2.232422,-1 l 3.871094,2.236328 A 3,3 0 0 0 25,34 a 3,3 0 0 0 3,3 3,3 0 0 0 3,-3 3,3 0 0 0 -3,-3 3,3 0 0 0 -2.480469,1.322266 L 21.763672,30.152344 A 3,3 0 0 0 22,29 3,3 0 0 0 21.75,27.800781 l 3.740234,-2.160156 A 3,3 0 0 0 28,27 3,3 0 0 0 31,24 3,3 0 0 0 28,21 Z m 0,1 a 2,2 0 0 1 2,2 2,2 0 0 1 -2,2 2,2 0 0 1 -2,-2 2,2 0 0 1 2,-2 z m -9,5 a 2,2 0 0 1 2,2 2,2 0 0 1 -2,2 2,2 0 0 1 -2,-2 2,2 0 0 1 2,-2 z m 9,5 a 2,2 0 0 1 2,2 2,2 0 0 1 -2,2 2,2 0 0 1 -2,-2 2,2 0 0 1 2,-2 z" />
</svg>
