<?xml version="1.0" encoding="UTF-8" standalone="no"?>
<svg
   width="22"
   height="22"
   version="1.1"
   id="svg2"
   sodipodi:docname="discord-symbolic.svg"
   inkscape:version="1.4.2 (ebf0e940d0, 2025-05-08)"
   xmlns:inkscape="http://www.inkscape.org/namespaces/inkscape"
   xmlns:sodipodi="http://sodipodi.sourceforge.net/DTD/sodipodi-0.dtd"
   xmlns="http://www.w3.org/2000/svg"
   xmlns:svg="http://www.w3.org/2000/svg">
  <defs
     id="defs2">
    <style
       id="current-color-scheme"
       type="text/css">
        .ColorScheme-Text { color:#363636; }
     </style>
  </defs>
  <sodipodi:namedview
     id="namedview2"
     pagecolor="#ffffff"
     bordercolor="#000000"
     borderopacity="0.25"
     inkscape:showpageshadow="2"
     inkscape:pageopacity="0.0"
     inkscape:pagecheckerboard="0"
     inkscape:deskcolor="#d1d1d1"
     inkscape:zoom="35.727273"
     inkscape:cx="10.986005"
     inkscape:cy="11"
     inkscape:window-width="1920"
     inkscape:window-height="1011"
     inkscape:window-x="0"
     inkscape:window-y="0"
     inkscape:window-maximized="1"
     inkscape:current-layer="svg2" />
  <path
     id="path1"
     style="fill:currentColor"
     class="ColorScheme-Text"
     d="m 9.431454,5.4140002 -0.34961,0.060547 c -0.9723193,0.1682 -1.9191994,0.4675287 -2.8124994,0.8867187 l -0.1269531,0.058594 -0.076172,0.1171875 c -1.7572,2.6549003 -2.2486656,5.2975686 -2.0097656,7.8554686 l 0.021484,0.220703 0.1777344,0.132813 c 1.1719,0.87518 2.3207531,1.413119 3.4394531,1.761718 l 0.34375,0.107422 0.2089844,-0.291015 c 0.28293,-0.38891 0.5332969,-0.800109 0.7480469,-1.230469 l 0.083984,-0.167969 c 1.2857003,0.31949 2.5610443,0.320103 3.8398443,0.002 l 0.08203,0.166016 c 0.21453,0.43052 0.465017,0.843522 0.748047,1.232422 l 0.210938,0.289062 0.341796,-0.105468 c 1.1197,-0.34861 2.269307,-0.887272 3.441407,-1.763672 l 0.177734,-0.132813 0.02148,-0.220703 c 0.280775,-2.969547 -0.49012,-5.5813222 -2.01562,-7.8594222 l -0.07813,-0.1152343 -0.125,-0.060547 C 14.831557,5.9395595 13.887224,5.642637 12.915824,5.474547 L 12.564261,5.414 12.392386,5.7265 c -0.07675,0.1389302 -0.146348,0.3022677 -0.220698,0.4609377 -0.78607,-0.088995 -1.56725,-0.089172 -2.34375,0 C 9.754678,6.0329177 9.686229,5.8761402 9.603329,5.7265002 Z m -0.5273437,1.15625 c 0.049503,0.10256 0.1058497,0.2017906 0.1503907,0.3066406 l 0.152343,0.3574219 0.382813,-0.058594 c 0.93129,-0.1428799 1.870365,-0.14329 2.822265,0 l 0.386719,0.058594 0.150391,-0.3613281 c 0.03847,-0.092362 0.09343,-0.1954644 0.144531,-0.3027344 0.70731,0.14913 1.4029,0.3517875 2.0625,0.6484375 1.3192,2.0178 1.961284,4.2535913 1.771484,6.8378913 -0.88405,0.62851 -1.737937,1.032372 -2.585937,1.326171 -0.06414,-0.09906 -0.124114,-0.200814 -0.183594,-0.302734 0.2213,-0.10515 0.450146,-0.195595 0.660156,-0.322266 l 0.636719,-0.382812 -0.595703,-0.445312 c -0.08424,-0.06294 -0.168843,-0.130169 -0.251953,-0.199219 L 14.363094,13.527282 14.074032,13.664 c -1.9855,0.939701 -4.136991,0.939567 -6.1503905,-0.002 L 7.634579,13.527282 7.3904384,13.73236 c -0.080617,0.06776 -0.1642069,0.133362 -0.2480469,0.195312 L 6.540829,14.372985 7.181454,14.75775 c 0.20943,0.126161 0.4375831,0.215503 0.6582032,0.320313 -0.059259,0.10146 -0.1197438,0.202141 -0.1835938,0.300781 -0.84731,-0.29404 -1.7036906,-0.695909 -2.5878906,-1.324218 -0.16717,-2.249001 0.2627306,-4.4934383 1.7753906,-6.8359383 0.65918,-0.29691 1.3535469,-0.4994375 2.0605469,-0.6484375 z M 8.6736415,10.105407 c -0.70365,0 -1.2578125,0.64542 -1.2578125,1.43164 0,0.78622 0.5662725,1.431641 1.2578125,1.431641 0.7036495,0 1.2609055,-0.645421 1.2597655,-1.431641 0.0126,-0.78735 -0.556076,-1.43164 -1.2597655,-1.43164 z m 4.6523435,0 c -0.70365,0 -1.259766,0.64542 -1.259766,1.43164 0,0.78622 0.568226,1.431641 1.259766,1.431641 0.70365,0 1.257812,-0.645421 1.257812,-1.431641 0.0126,-0.78735 -0.554112,-1.43164 -1.257812,-1.43164 z" />
</svg>
