<?xml version="1.0" encoding="UTF-8" standalone="no"?>
<svg
   width="22"
   height="22"
   version="1.1"
   id="svg3"
   sodipodi:docname="libreoffice-impress-symbolic.svg"
   inkscape:version="1.4.2 (ebf0e940d0, 2025-05-08)"
   xmlns:inkscape="http://www.inkscape.org/namespaces/inkscape"
   xmlns:sodipodi="http://sodipodi.sourceforge.net/DTD/sodipodi-0.dtd"
   xmlns="http://www.w3.org/2000/svg"
   xmlns:svg="http://www.w3.org/2000/svg"
   xmlns:rdf="http://www.w3.org/1999/02/22-rdf-syntax-ns#"
   xmlns:cc="http://creativecommons.org/ns#"
   xmlns:dc="http://purl.org/dc/elements/1.1/">
  <defs
     id="defs3">
    <style
       id="current-color-scheme"
       type="text/css">
        .ColorScheme-Text { color:#363636; }
     </style>
  </defs>
  <sodipodi:namedview
     id="namedview3"
     pagecolor="#ffffff"
     bordercolor="#000000"
     borderopacity="0.25"
     inkscape:showpageshadow="2"
     inkscape:pageopacity="0.0"
     inkscape:pagecheckerboard="0"
     inkscape:deskcolor="#d1d1d1"
     inkscape:zoom="36.136364"
     inkscape:cx="11"
     inkscape:cy="11"
     inkscape:window-width="1920"
     inkscape:window-height="1010"
     inkscape:window-x="0"
     inkscape:window-y="0"
     inkscape:window-maximized="1"
     inkscape:current-layer="svg3" />
  <metadata
     id="metadata1">
    <rdf:RDF>
      <cc:Work
         rdf:about="">
        <dc:format>image/svg+xml</dc:format>
        <dc:type
           rdf:resource="http://purl.org/dc/dcmitype/StillImage" />
      </cc:Work>
    </rdf:RDF>
  </metadata>
  <path
     id="path1"
     style="fill:currentColor"
     class="ColorScheme-Text"
     d="M 6,3 C 4.9093,3 4,3.9093 4,5 v 12 c 0,1.0907 0.9093,2 2,2 h 10 c 1.0907,0 2,-0.9093 2,-2 V 9 A 1.0001,1.0001 0 0 0 17.707031,8.2929688 l -5,-5 A 1.0001,1.0001 0 0 0 12,3 Z M 13.826172,3 18,7.1738281 V 4 C 18,3.446 17.554,3 17,3 Z M 6,4 h 6 l 5,5 v 8 c 0,0.554 -0.446,1 -1,1 H 6 C 5.446,18 5,17.554 5,17 V 5 C 5,4.446 5.446,4 6,4 Z m 1.5,7 C 7.22,11 7,11.22 7,11.5 v 4 C 7,15.78 7.22,16 7.5,16 h 7 c 0.28,0 0.5,-0.22 0.5,-0.5 v -4 C 15,11.22 14.78,11 14.5,11 Z m 1,1 C 8.78,12 9,12.22 9,12.5 9,12.78 8.78,13 8.5,13 8.22,13 8,12.78 8,12.5 8,12.22 8.22,12 8.5,12 Z m 2,0 h 3 c 0.28,0 0.5,0.22 0.5,0.5 0,0.28 -0.22,0.5 -0.5,0.5 h -3 C 10.22,13 10,12.78 10,12.5 10,12.22 10.22,12 10.5,12 Z m -2,2 C 8.78,14 9,14.22 9,14.5 9,14.78 8.78,15 8.5,15 8.22,15 8,14.78 8,14.5 8,14.22 8.22,14 8.5,14 Z m 2,0 h 3 c 0.28,0 0.5,0.22 0.5,0.5 0,0.28 -0.22,0.5 -0.5,0.5 h -3 C 10.22,15 10,14.78 10,14.5 10,14.22 10.22,14 10.5,14 Z" />
</svg>
