<?xml version="1.0" encoding="UTF-8" standalone="no"?>
<svg
   width="22"
   height="22"
   version="1.1"
   viewBox="0 0 22 22"
   id="svg1"
   sodipodi:docname="org.gnome.Settings-wacom-symbolic.svg"
   inkscape:version="1.4.2 (ebf0e940d0, 2025-05-08)"
   xmlns:inkscape="http://www.inkscape.org/namespaces/inkscape"
   xmlns:sodipodi="http://sodipodi.sourceforge.net/DTD/sodipodi-0.dtd"
   xmlns="http://www.w3.org/2000/svg"
   xmlns:svg="http://www.w3.org/2000/svg">
  <defs
     id="defs1">
    <style
       id="current-color-scheme"
       type="text/css">
        .ColorScheme-Text { color:#363636; }
     </style>
  </defs>
  <sodipodi:namedview
     id="namedview1"
     pagecolor="#ffffff"
     bordercolor="#000000"
     borderopacity="0.25"
     inkscape:showpageshadow="2"
     inkscape:pageopacity="0.0"
     inkscape:pagecheckerboard="0"
     inkscape:deskcolor="#d1d1d1"
     inkscape:zoom="36.181818"
     inkscape:cx="10.986181"
     inkscape:cy="11"
     inkscape:window-width="1920"
     inkscape:window-height="1011"
     inkscape:window-x="0"
     inkscape:window-y="0"
     inkscape:window-maximized="1"
     inkscape:current-layer="svg1" />
  <path
     id="path1"
     style="fill:currentColor"
     class="ColorScheme-Text"
     d="M 11,3 V 4.5 C 11,4.63281 10.945311,4.7617188 10.855469,4.8554688 10.761719,4.9492188 10.636722,5 10.507813,5 H 7.4960938 c -0.53516,0 -1.0311751,0.28906 -1.296875,0.75 -0.2656201,0.46484 -0.2656201,1.0352 0,1.5 C 6.4648388,7.71094 6.9609137,8 7.4960938,8 h 3.0078122 c 0.17969,0 0.339838,0.09375 0.429688,0.25 C 10.976562,8.324219 11,8.41406 11,8.5 V 9 H 6 C 4.338,9 3,10.338 3,12 v 4 c 0,1.662 1.338,3 3,3 h 10 c 1.662,0 3,-1.338 3,-3 v -4 c 0,-0.87646 -0.375223,-1.659531 -0.970703,-2.207031 l -0.707031,0.705078 C 17.737846,10.864017 18,11.40013 18,12 v 4 c 0,1.108 -0.892,2 -2,2 H 6 C 4.892,18 4,17.108 4,16 v -4 c 0,-1.108 0.892,-2 2,-2 h 6.1875 L 13.183594,9 H 12 V 8.5 C 12,8.24219 11.933595,7.98438 11.800781,7.75 11.535161,7.28906 11.039086,7 10.503906,7 H 7.4960938 C 7.3164038,7 7.1562562,6.90625 7.0664062,6.75 c -0.089844,-0.15234 -0.089844,-0.34766 0,-0.5 C 7.1562503,6.09375 7.3164038,6 7.4960938,6 H 10.507813 C 10.906253,6 11.28514,5.8398438 11.5625,5.5585938 11.84375,5.2773438 12,4.89844 12,4.5 V 3 Z m 7,3 c -0.26562,0 -0.519535,0.1054688 -0.703125,0.2929688 h -0.0039 L 11,12.609375 V 14 h 1.390625 l 6.316406,-6.2929688 -0.0039,-0.00391 C 18.894525,7.519535 19,7.26562 19,7 19,6.44922 18.55078,6 18,6 Z" />
</svg>
