<?xml version="1.0" encoding="UTF-8" standalone="no"?>
<svg
   width="22"
   height="22"
   version="1.1"
   id="svg1"
   sodipodi:docname="org.gnome.Lollypop-suggestions-symbolic.svg"
   inkscape:version="1.4.2 (ebf0e940d0, 2025-05-08)"
   xmlns:inkscape="http://www.inkscape.org/namespaces/inkscape"
   xmlns:sodipodi="http://sodipodi.sourceforge.net/DTD/sodipodi-0.dtd"
   xmlns="http://www.w3.org/2000/svg"
   xmlns:svg="http://www.w3.org/2000/svg">
  <defs
     id="defs1">
    <style
       id="current-color-scheme"
       type="text/css">
        .ColorScheme-Text { color:#363636; }
        .ColorScheme-NeutralText { color:#f67400; }
        .ColorScheme-PositiveText { color:#37c837; }
        .ColorScheme-NegativeText { color:#f44336; }
        .ColorScheme-Highlight { color:#3daee9; }
     </style>
  </defs>
  <sodipodi:namedview
     id="namedview1"
     pagecolor="#ffffff"
     bordercolor="#000000"
     borderopacity="0.25"
     inkscape:showpageshadow="2"
     inkscape:pageopacity="0.0"
     inkscape:pagecheckerboard="0"
     inkscape:deskcolor="#d1d1d1"
     inkscape:zoom="36.181818"
     inkscape:cx="10.986181"
     inkscape:cy="11"
     inkscape:window-width="1920"
     inkscape:window-height="1011"
     inkscape:window-x="0"
     inkscape:window-y="0"
     inkscape:window-maximized="1"
     inkscape:current-layer="svg1"
     showguides="false" />
  <path
     id="path1"
     style="fill:currentColor"
     class="ColorScheme-Text"
     d="m 11,3 a 6,6 0 0 0 -6,6 6.001,6.001 0 0 0 2,4.462891 v 1.285156 c 0,0.416 0.027437,0.770234 0.1484375,1.115234 0.122,0.345 0.3889375,0.67361 0.7109375,0.84961 0.646,0.351 1.265625,0.28125 2.140625,0.28125 h 2 c 0.875,0 1.495625,0.06975 2.140625,-0.28125 0.323,-0.176 0.588938,-0.50461 0.710937,-0.84961 C 14.972563,15.518281 15,15.163047 15,14.748047 V 13.464844 A 6,6 0 0 0 17,9 6,6 0 0 0 11,3 Z m 0,1 a 5,5 0 0 1 5,5 4.998,4.998 0 0 1 -1.007812,3 H 15 l -1,1 v 1.746094 c 0,0.243 -0.04006,0.4775 -0.164062,0.6875 a 1.07,1.07 0 0 1 -0.53711,0.435547 c -0.404,0.151 -0.798828,0.125 -1.298828,0.125 h -2 c -0.5,0 -0.897781,0.026 -1.3007812,-0.125 A 1.065,1.065 0 0 1 8.1640625,15.433594 C 8.0390625,15.223594 8.032,14.987094 8,14.746094 V 13 L 7,12 H 7.00781 A 5,5 0 0 1 6,9 5,5 0 0 1 11,4 Z M 8,18 v 1 h 6 v -1 z" />
</svg>
