<?xml version="1.0" encoding="UTF-8" standalone="no"?>
<svg
   width="22"
   height="22"
   version="1.1"
   viewBox="0 0 22 22"
   id="svg2"
   sodipodi:docname="preferences-desktop-keyboard-shortcuts-symbolic.svg"
   inkscape:version="1.4.2 (ebf0e940d0, 2025-05-08)"
   xmlns:inkscape="http://www.inkscape.org/namespaces/inkscape"
   xmlns:sodipodi="http://sodipodi.sourceforge.net/DTD/sodipodi-0.dtd"
   xmlns="http://www.w3.org/2000/svg"
   xmlns:svg="http://www.w3.org/2000/svg">
  <defs
     id="defs2">
    <style
       id="current-color-scheme"
       type="text/css">
        .ColorScheme-Text { color:#363636; }
     </style>
  </defs>
  <sodipodi:namedview
     id="namedview2"
     pagecolor="#ffffff"
     bordercolor="#000000"
     borderopacity="0.25"
     inkscape:showpageshadow="2"
     inkscape:pageopacity="0.0"
     inkscape:pagecheckerboard="0"
     inkscape:deskcolor="#d1d1d1"
     inkscape:zoom="35.727273"
     inkscape:cx="10.986005"
     inkscape:cy="11"
     inkscape:window-width="1920"
     inkscape:window-height="1011"
     inkscape:window-x="0"
     inkscape:window-y="0"
     inkscape:window-maximized="1"
     inkscape:current-layer="svg2" />
  <path
     id="path1"
     style="fill:currentColor"
     class="ColorScheme-Text"
     d="M 4,6 C 3.446,6 3,6.446 3,7 v 7 c 0,0.554 0.446,1 1,1 h 9.337891 A 3.5,3.5 0 0 1 13.037109,14 H 4 V 7 h 13 v 3.035156 a 3.5,3.5 0 0 1 1,0.302735 V 7 C 18,6.446 17.554,6 17,6 Z M 5,8 V 9 H 6 V 8 Z M 7,8 V 9 H 8 V 8 Z m 2,0 v 1 h 1 V 8 Z m 2,0 v 1 h 1 V 8 Z m 2,0 v 1 h 1 V 8 Z m 2,0 v 1 h 1 V 8 Z M 5,10 v 1 h 2 v -1 z m 3,0 v 1 h 1 v -1 z m 2,0 v 1 h 1 v -1 z m 2,0 v 1 h 1 v -1 z m 2,0 v 1 h 0.05078 A 3.5,3.5 0 0 1 16,10.037109 V 10 Z m -9,2 v 1 h 2 v -1 z m 3,0 v 1 h 5 v -1 z" />
  <path
     id="path2"
     style="fill:currentColor"
     class="ColorScheme-Text"
     d="M 16.5,11 A 2.5,2.5 0 0 0 14,13.5 2.5,2.5 0 0 0 16.5,16 2.5,2.5 0 0 0 19,13.5 2.5,2.5 0 0 0 16.5,11 Z m 0,1 A 1.5,1.5 0 0 1 18,13.5 1.5,1.5 0 0 1 16.5,15 1.5,1.5 0 0 1 15,13.5 1.5,1.5 0 0 1 16.5,12 Z m 0,1 A 0.5,0.5 0 0 0 16,13.5 0.5,0.5 0 0 0 16.5,14 0.5,0.5 0 0 0 17,13.5 0.5,0.5 0 0 0 16.5,13 Z" />
</svg>
