<?xml version="1.0" encoding="UTF-8" standalone="no"?>
<svg
   width="22"
   height="22"
   version="1.1"
   id="svg1"
   sodipodi:docname="sudoku-app-symbolic.svg"
   inkscape:version="1.4.2 (ebf0e940d0, 2025-05-08)"
   xmlns:inkscape="http://www.inkscape.org/namespaces/inkscape"
   xmlns:sodipodi="http://sodipodi.sourceforge.net/DTD/sodipodi-0.dtd"
   xmlns="http://www.w3.org/2000/svg"
   xmlns:svg="http://www.w3.org/2000/svg">
  <defs
     id="defs1">
    <style
       id="current-color-scheme"
       type="text/css">
        .ColorScheme-Text { color:#363636; }
        .ColorScheme-NeutralText { color:#f67400; }
        .ColorScheme-PositiveText { color:#37c837; }
        .ColorScheme-NegativeText { color:#f44336; }
        .ColorScheme-Highlight { color:#3daee9; }
     </style>
  </defs>
  <sodipodi:namedview
     id="namedview1"
     pagecolor="#ffffff"
     bordercolor="#000000"
     borderopacity="0.25"
     inkscape:showpageshadow="2"
     inkscape:pageopacity="0.0"
     inkscape:pagecheckerboard="0"
     inkscape:deskcolor="#d1d1d1"
     showguides="false"
     inkscape:zoom="36.727273"
     inkscape:cx="10.986386"
     inkscape:cy="11"
     inkscape:window-width="1920"
     inkscape:window-height="1011"
     inkscape:window-x="0"
     inkscape:window-y="0"
     inkscape:window-maximized="1"
     inkscape:current-layer="svg1" />
  <path
     id="path1"
     style="fill:currentColor"
     class="ColorScheme-Text"
     d="M 8.5,4 C 8.223,4 8,4.223 8,4.5 V 8 H 4.5 a 0.5,0.5 0 0 0 0,1 H 8 v 4 H 4.5 a 0.5,0.5 0 0 0 0,1 H 8 v 3.5 a 0.5,0.5 0 0 0 1,0 V 14 h 4 v 3.5 a 0.5,0.5 0 0 0 1,0 V 14 h 3.5 a 0.5,0.5 0 0 0 0,-1 H 14 V 9 h 3.5 a 0.5,0.5 0 0 0 0,-1 H 14 V 4.5 a 0.5,0.5 0 0 0 -1,0 V 8 H 9 V 4.5 C 9,4.223 8.777,4 8.5,4 Z M 9,9 h 4 v 4 H 9 Z" />
</svg>
