<?xml version="1.0" encoding="UTF-8" standalone="no"?>
<svg
   width="22"
   height="22"
   version="1.1"
   id="svg1"
   sodipodi:docname="system-software-install-symbolic.svg"
   inkscape:version="1.4.2 (ebf0e940d0, 2025-05-08)"
   xmlns:inkscape="http://www.inkscape.org/namespaces/inkscape"
   xmlns:sodipodi="http://sodipodi.sourceforge.net/DTD/sodipodi-0.dtd"
   xmlns="http://www.w3.org/2000/svg"
   xmlns:svg="http://www.w3.org/2000/svg">
  <sodipodi:namedview
     id="namedview1"
     pagecolor="#ffffff"
     bordercolor="#000000"
     borderopacity="0.25"
     inkscape:showpageshadow="2"
     inkscape:pageopacity="0.0"
     inkscape:pagecheckerboard="0"
     inkscape:deskcolor="#d1d1d1"
     inkscape:zoom="35.727273"
     inkscape:cx="10.986005"
     inkscape:cy="11"
     inkscape:window-width="1920"
     inkscape:window-height="1011"
     inkscape:window-x="0"
     inkscape:window-y="0"
     inkscape:window-maximized="1"
     inkscape:current-layer="svg1" />
  <defs
     id="defs1">
    <style
       id="current-color-scheme"
       type="text/css">
        .ColorScheme-Text { color:#363636; }
     </style>
  </defs>
  <path
     id="path1"
     style="fill:currentColor"
     class="ColorScheme-Text"
     d="M 5,4 C 4.446,4 4,4.446 4,5 v 4 c 0,0.554 0.446,1 1,1 h 4 c 0.554,0 1,-0.446 1,-1 V 5 C 10,4.446 9.554,4 9,4 Z m 8,0 c -0.554,0 -1,0.446 -1,1 v 4 c 0,0.554 0.446,1 1,1 h 4 c 0.554,0 1,-0.446 1,-1 V 5 C 18,4.446 17.554,4 17,4 Z M 5,5 H 9 V 9 H 5 Z m 8,0 h 4 v 4 h -4 z m -8,7 c -0.554,0 -1,0.446 -1,1 v 4 c 0,0.554 0.446,1 1,1 h 4 c 0.554,0 1,-0.446 1,-1 V 13 C 10,12.446 9.554,12 9,12 Z m 10,0 c -0.277,0 -0.5,0.223 -0.5,0.5 v 3.835938 l -1.310547,-1.310547 c -0.19587,-0.19587 -0.511161,-0.19587 -0.707031,0 -0.19587,0.19587 -0.19587,0.511161 0,0.707031 l 2.121094,2.121094 c 0.10331,0.10331 0.24027,0.152164 0.375,0.146484 0.0072,3.08e-4 0.01417,0 0.02148,0 0.20146,0 0.373805,-0.118173 0.453125,-0.289062 l 1.978516,-1.978516 c 0.19587,-0.19587 0.19587,-0.511161 0,-0.707031 -0.19587,-0.19587 -0.511162,-0.19587 -0.707032,0 L 15.5,16.25 V 12.5 C 15.5,12.223 15.277,12 15,12 Z M 5,13 h 4 v 4 H 5 Z" />
</svg>
