<?xml version="1.0" encoding="UTF-8" standalone="no"?>
<!-- Created with Inkscape (http://www.inkscape.org/) -->

<svg
   width="16"
   height="16"
   viewBox="0 0 16 16"
   version="1.1"
   id="svg5"
   inkscape:version="1.2.1 (9c6d41e410, 2022-07-14)"
   sodipodi:docname="folder-yellow-network-open.svg"
   xmlns:inkscape="http://www.inkscape.org/namespaces/inkscape"
   xmlns:sodipodi="http://sodipodi.sourceforge.net/DTD/sodipodi-0.dtd"
   xmlns:xlink="http://www.w3.org/1999/xlink"
   xmlns="http://www.w3.org/2000/svg"
   xmlns:svg="http://www.w3.org/2000/svg">
  <sodipodi:namedview
     id="namedview7"
     pagecolor="#ffffff"
     bordercolor="#000000"
     borderopacity="0.25"
     inkscape:showpageshadow="2"
     inkscape:pageopacity="0.0"
     inkscape:pagecheckerboard="0"
     inkscape:deskcolor="#d1d1d1"
     inkscape:document-units="px"
     showgrid="false"
     inkscape:zoom="51.3125"
     inkscape:cx="7.9902558"
     inkscape:cy="8"
     inkscape:window-width="1920"
     inkscape:window-height="1007"
     inkscape:window-x="0"
     inkscape:window-y="0"
     inkscape:window-maximized="1"
     inkscape:current-layer="svg5" />
  <defs
     id="defs2">
    <linearGradient
       inkscape:collect="always"
       id="linearGradient3155">
      <stop
         style="stop-color:#e7b64b;stop-opacity:1;"
         offset="0"
         id="stop3151" />
      <stop
         style="stop-color:#be8d1b;stop-opacity:1;"
         offset="1"
         id="stop3153" />
    </linearGradient>
    <linearGradient
       inkscape:collect="always"
       id="linearGradient3147">
      <stop
         style="stop-color:#ffb327;stop-opacity:1;"
         offset="0"
         id="stop3143" />
      <stop
         style="stop-color:#f0c462;stop-opacity:1;"
         offset="1"
         id="stop3145" />
    </linearGradient>
    <linearGradient
       inkscape:collect="always"
       xlink:href="#linearGradient3147"
       id="linearGradient3149"
       x1="64"
       y1="65"
       x2="36"
       y2="21"
       gradientUnits="userSpaceOnUse"
       gradientTransform="matrix(0.25,0,0,0.25,-1,-1.25)" />
    <linearGradient
       inkscape:collect="always"
       xlink:href="#linearGradient3155"
       id="linearGradient3157"
       x1="8"
       y1="7"
       x2="8"
       y2="35"
       gradientUnits="userSpaceOnUse"
       gradientTransform="matrix(0.25,0,0,0.25,-1,-1.75)" />
  </defs>
  <path
     id="rect184"
     style="fill:url(#linearGradient3157);fill-opacity:1;stroke-width:0.5"
     d="M 1,0 C 0.4460006,0 0,0.4460004 0,1 v 12 c 0,0.554 0.4460006,1 1,1 h 14 c 0.554,0 1,-0.446 1,-1 V 3 C 16,2.4460005 15.554,2 15,2 H 8 L 7,0.5 C 6.6556545,0.1853323 6.5539995,0 6,0 Z"
     sodipodi:nodetypes="sccsssssccss" />
  <path
     id="rect1043"
     style="fill:url(#linearGradient3149);fill-opacity:1;stroke-width:0.5"
     d="M 8,4 7,5.5 C 6.666597,5.806988 6.553999,6 6,6 H 1 C 0.4477158,6 0,6.4477155 0,7 v 7 c 0,0.553998 0.4460017,1 1,1 h 14 c 0.553999,0 1,-0.446002 1,-1 V 5 C 16,4.4460015 15.553999,4 15,4 Z"
     sodipodi:nodetypes="ccsssssssssc" />
  <path
     id="path3081"
     style="opacity:0.2;fill:#ffffff;stroke-width:0.5"
     d="M 8,4 7,5.5 C 6.6665975,5.806988 6.553999,6 6,6 H 1 C 0.4477164,6 0,6.447716 0,7 V 8 C 0,7.447716 0.4477164,7 1,7 H 6 C 6.5539985,7 6.666597,6.8069875 7,6.5 L 8,5 h 7 c 0.553998,0 1,0.446002 1,1 V 5 C 16,4.446002 15.553998,4 15,4 Z"
     sodipodi:nodetypes="ccssscssccscssc" />
  <path
     id="path1719"
     style="opacity:0.3;fill:#000000;stroke-width:1"
     d="M 9.5000002,7 C 8.6716012,7 8,7.6716007 8,8.5 8,8.6156359 8.022125,8.7200051 8.046875,8.828125 l -1.609375,1 C 6.1807953,9.6224902 5.8545496,9.5 5.5,9.5 4.6716008,9.5 4,10.171601 4,11 c 0,0.828398 0.6716008,1.5 1.5,1.5 0.3545196,0 0.6807503,-0.12248 0.9375,-0.328125 l 1.609375,1 C 8.022125,13.279994 8,13.384363 8,13.5 8,14.328398 8.6716012,15 9.5000002,15 10.328399,15 11,14.328398 11,13.5 11,12.671601 10.328399,12 9.5000002,12 9.1454802,12 8.8192492,12.122481 8.5625,12.328125 l -1.609375,-1 C 6.977875,11.220005 7,11.115634 7,11 7,10.884361 6.977875,10.779995 6.953125,10.671875 l 1.609375,-1 C 8.8192042,9.8775098 9.1454502,10 9.5000002,10 10.328399,10 11,9.3283992 11,8.5 11,7.6716007 10.328399,7 9.5000002,7 Z m 0,1 A 0.5,0.5 0 0 1 10,8.5 0.5,0.5 0 0 1 9.5000002,9 a 0.5,0.5 0 0 1 -0.5,-0.5 0.5,0.5 0 0 1 0.5,-0.5 z M 5.5,10.5 A 0.5,0.5 0 0 1 6,11 0.5,0.5 0 0 1 5.5,11.5 0.5,0.5 0 0 1 5,11 0.5,0.5 0 0 1 5.5,10.5 Z M 9.5000002,13 A 0.5,0.5 0 0 1 10,13.5 0.5,0.5 0 0 1 9.5000002,14 a 0.5,0.5 0 0 1 -0.5,-0.5 0.5,0.5 0 0 1 0.5,-0.5 z" />
</svg>
