<?xml version="1.0" encoding="UTF-8" standalone="no"?>
<!-- Created with Inkscape (http://www.inkscape.org/) -->

<svg
   width="22"
   height="22"
   viewBox="0 0 22 22.000001"
   version="1.1"
   id="svg5"
   inkscape:version="1.2.2 (1:1.2.2+202305151914+b0a8486541)"
   sodipodi:docname="application-pkix-cert.svg"
   xmlns:inkscape="http://www.inkscape.org/namespaces/inkscape"
   xmlns:sodipodi="http://sodipodi.sourceforge.net/DTD/sodipodi-0.dtd"
   xmlns:xlink="http://www.w3.org/1999/xlink"
   xmlns="http://www.w3.org/2000/svg"
   xmlns:svg="http://www.w3.org/2000/svg">
  <sodipodi:namedview
     id="namedview7"
     pagecolor="#ffffff"
     bordercolor="#000000"
     borderopacity="0.25"
     inkscape:showpageshadow="2"
     inkscape:pageopacity="0.0"
     inkscape:pagecheckerboard="0"
     inkscape:deskcolor="#d1d1d1"
     inkscape:document-units="px"
     showgrid="false"
     inkscape:zoom="36.818182"
     inkscape:cx="10.98642"
     inkscape:cy="11"
     inkscape:window-width="1920"
     inkscape:window-height="1012"
     inkscape:window-x="0"
     inkscape:window-y="0"
     inkscape:window-maximized="1"
     inkscape:current-layer="svg5"
     showguides="true" />
  <defs
     id="defs2">
    <linearGradient
       inkscape:collect="always"
       id="linearGradient899">
      <stop
         style="stop-color:#dddddd;stop-opacity:1;"
         offset="0"
         id="stop895" />
      <stop
         style="stop-color:#eeeeee;stop-opacity:1;"
         offset="1"
         id="stop897" />
    </linearGradient>
    <linearGradient
       inkscape:collect="always"
       xlink:href="#linearGradient899"
       id="linearGradient1633"
       x1="4"
       y1="1"
       x2="18"
       y2="21"
       gradientUnits="userSpaceOnUse" />
    <linearGradient
       inkscape:collect="always"
       xlink:href="#linearGradient1985"
       id="linearGradient1987"
       x1="7.5"
       y1="9"
       x2="9"
       y2="13.5"
       gradientUnits="userSpaceOnUse"
       gradientTransform="matrix(1.3333336,0,0,1.3333336,0.99999922,0.99999682)" />
    <linearGradient
       inkscape:collect="always"
       id="linearGradient1985">
      <stop
         style="stop-color:#3d78be;stop-opacity:1;"
         offset="0"
         id="stop1981" />
      <stop
         style="stop-color:#3d95c0;stop-opacity:1;"
         offset="1"
         id="stop1983" />
    </linearGradient>
    <linearGradient
       inkscape:collect="always"
       xlink:href="#linearGradient3094"
       id="linearGradient1967"
       x1="-1.8048233"
       y1="1.7205738"
       x2="2.3535829"
       y2="7.5277057"
       gradientUnits="userSpaceOnUse" />
    <linearGradient
       inkscape:collect="always"
       id="linearGradient3094">
      <stop
         style="stop-color:#cca042;stop-opacity:1;"
         offset="0"
         id="stop3090" />
      <stop
         style="stop-color:#d4af60;stop-opacity:1;"
         offset="1"
         id="stop3092" />
    </linearGradient>
    <linearGradient
       inkscape:collect="always"
       xlink:href="#linearGradient1993"
       id="linearGradient1995"
       x1="8"
       y1="7"
       x2="10"
       y2="11"
       gradientUnits="userSpaceOnUse"
       gradientTransform="translate(2.9999998,3.4999989)" />
    <linearGradient
       inkscape:collect="always"
       id="linearGradient1993">
      <stop
         style="stop-color:#ffffff;stop-opacity:1;"
         offset="0"
         id="stop1989" />
      <stop
         style="stop-color:#ffffff;stop-opacity:0.43441626;"
         offset="1"
         id="stop1991" />
    </linearGradient>
  </defs>
  <path
     id="rect234"
     style="opacity:0.2;stroke-width:0.25;stroke-linecap:round;stroke-linejoin:round"
     d="m 4,2 h 9 l 6,6 v 13 c 0,0.554 -0.446,1 -1,1 H 4 C 3.446,22 3,21.554 3,21 V 3 C 3,2.446 3.446,2 4,2 Z"
     sodipodi:nodetypes="sccssssss" />
  <path
     id="rect448"
     style="fill:url(#linearGradient1633);fill-opacity:1;stroke-width:0.25;stroke-linecap:round;stroke-linejoin:round"
     d="m 4,1 h 9 l 1,4 5,2 v 13 c 0,0.554 -0.446,1 -1,1 H 4 C 3.446,21 3,20.554 3,20 V 2 C 3,1.446 3.446,1 4,1 Z"
     sodipodi:nodetypes="scccssssss" />
  <path
     id="rect1969"
     style="fill:url(#linearGradient1987);fill-opacity:1;stroke-width:2;stroke-linecap:round;stroke-linejoin:round"
     d="m 9.0000008,13 h 4.0000002 v 6 l -2,-2 -2.0000001,2 z"
     sodipodi:nodetypes="cccccc" />
  <path
     sodipodi:type="star"
     style="fill:url(#linearGradient1967);fill-opacity:1;stroke-width:2;stroke-linecap:round;stroke-linejoin:round"
     id="path1571"
     inkscape:flatsided="false"
     sodipodi:sides="5"
     sodipodi:cx="-0.71952039"
     sodipodi:cy="4.5674243"
     sodipodi:r1="2.8104711"
     sodipodi:r2="2.8104711"
     sodipodi:arg1="0.90312076"
     sodipodi:arg2="1.5314393"
     inkscape:rounded="1"
     inkscape:randomized="0"
     d="M 1.0206175,6.7743832 C -0.34335811,7.8498476 1.1266844,7.3073747 -0.60893716,7.375719 -2.3445587,7.4440632 -0.83641182,7.8692627 -2.2807308,6.9043816 -3.7250499,5.9395005 -2.7548595,7.1699607 -3.3561952,5.540406 -3.957531,3.9108513 -3.8958768,5.4765781 -3.4245394,3.8047844 -2.9532021,2.1329907 -3.8236339,3.4359298 -2.4596583,2.3604654 -1.0956827,1.285001 -2.5657252,1.8274738 -0.83010365,1.7591296 0.90551793,1.6907854 -0.60262899,1.2655859 0.84169008,2.230467 2.2860091,3.1953481 1.3158187,1.9648879 1.9171544,3.5944426 2.5184902,5.2239973 2.456836,3.6582704 1.9854986,5.3300642 1.5141613,7.0018579 2.3845931,5.6989188 1.0206175,6.7743832 Z"
     transform="matrix(1.1389139,0,0,1.1389139,11.819472,7.1696023)" />
  <circle
     style="opacity:0.6;fill:url(#linearGradient1995);fill-opacity:1;stroke-width:2;stroke-linecap:round;stroke-linejoin:round"
     id="path1573"
     cx="11"
     cy="12.5"
     r="2" />
  <path
     d="M 19,8 H 14 C 13.446,8 13,7.554 13,7 V 1 l 6,6 z"
     style="opacity:0.2;fill:#000000;stroke-width:0.25;stroke-linecap:round;stroke-linejoin:round"
     id="path611"
     sodipodi:nodetypes="cssccc" />
  <path
     id="rect600"
     style="fill:#f8f8f8;fill-opacity:1;stroke-width:0.25;stroke-linecap:round;stroke-linejoin:round"
     d="M 19,7 H 14 C 13.446,7 13,6.554 13,6 V 1 Z"
     sodipodi:nodetypes="csscc" />
</svg>
