<?xml version="1.0" encoding="UTF-8" standalone="no"?>
<!-- Created with Inkscape (http://www.inkscape.org/) -->

<svg
   width="22"
   height="22"
   viewBox="0 0 22 22.000001"
   version="1.1"
   id="svg5"
   inkscape:version="1.2.2 (1:1.2.2+202305151914+b0a8486541)"
   sodipodi:docname="application-pgp-keys.svg"
   xmlns:inkscape="http://www.inkscape.org/namespaces/inkscape"
   xmlns:sodipodi="http://sodipodi.sourceforge.net/DTD/sodipodi-0.dtd"
   xmlns:xlink="http://www.w3.org/1999/xlink"
   xmlns="http://www.w3.org/2000/svg"
   xmlns:svg="http://www.w3.org/2000/svg">
  <sodipodi:namedview
     id="namedview7"
     pagecolor="#ffffff"
     bordercolor="#000000"
     borderopacity="0.25"
     inkscape:showpageshadow="2"
     inkscape:pageopacity="0.0"
     inkscape:pagecheckerboard="0"
     inkscape:deskcolor="#d1d1d1"
     inkscape:document-units="px"
     showgrid="false"
     inkscape:zoom="36.818182"
     inkscape:cx="10.98642"
     inkscape:cy="11"
     inkscape:window-width="1920"
     inkscape:window-height="1012"
     inkscape:window-x="0"
     inkscape:window-y="0"
     inkscape:window-maximized="1"
     inkscape:current-layer="svg5"
     showguides="true" />
  <defs
     id="defs2">
    <linearGradient
       inkscape:collect="always"
       id="linearGradient899">
      <stop
         style="stop-color:#dddddd;stop-opacity:1;"
         offset="0"
         id="stop895" />
      <stop
         style="stop-color:#eeeeee;stop-opacity:1;"
         offset="1"
         id="stop897" />
    </linearGradient>
    <linearGradient
       inkscape:collect="always"
       xlink:href="#linearGradient899"
       id="linearGradient1633"
       x1="4"
       y1="1"
       x2="18"
       y2="21"
       gradientUnits="userSpaceOnUse" />
    <linearGradient
       inkscape:collect="always"
       id="linearGradient1118">
      <stop
         style="stop-color:#797979;stop-opacity:1;"
         offset="0"
         id="stop1114" />
      <stop
         style="stop-color:#959595;stop-opacity:1;"
         offset="1"
         id="stop1116" />
    </linearGradient>
    <linearGradient
       inkscape:collect="always"
       xlink:href="#linearGradient1118"
       id="linearGradient1270"
       x1="8.5"
       y1="11"
       x2="16"
       y2="16"
       gradientUnits="userSpaceOnUse" />
  </defs>
  <path
     id="rect234"
     style="opacity:0.2;stroke-width:0.25;stroke-linecap:round;stroke-linejoin:round"
     d="m 4,2 h 9 l 6,6 v 13 c 0,0.554 -0.446,1 -1,1 H 4 C 3.446,22 3,21.554 3,21 V 3 C 3,2.446 3.446,2 4,2 Z"
     sodipodi:nodetypes="sccssssss" />
  <path
     id="rect448"
     style="fill:url(#linearGradient1633);fill-opacity:1;stroke-width:0.25;stroke-linecap:round;stroke-linejoin:round"
     d="m 4,1 h 9 l 1,4 5,2 v 13 c 0,0.554 -0.446,1 -1,1 H 4 C 3.446,21 3,20.554 3,20 V 2 C 3,1.446 3.446,1 4,1 Z"
     sodipodi:nodetypes="scccssssss" />
  <path
     d="M 19,8 H 14 C 13.446,8 13,7.554 13,7 V 1 l 6,6 z"
     style="opacity:0.2;fill:#000000;stroke-width:0.25;stroke-linecap:round;stroke-linejoin:round"
     id="path611"
     sodipodi:nodetypes="cssccc" />
  <path
     id="rect600"
     style="fill:#f8f8f8;fill-opacity:1;stroke-width:0.25;stroke-linecap:round;stroke-linejoin:round"
     d="M 19,7 H 14 C 13.446,7 13,6.554 13,6 V 1 Z"
     sodipodi:nodetypes="csscc" />
  <path
     id="rect374"
     style="fill:url(#linearGradient1270);stroke-width:2;stroke-linecap:round;stroke-linejoin:round;fill-opacity:1"
     d="M 8.5,11 A 2.5,2.5 0 0 0 6,13.5 2.5,2.5 0 0 0 8.5,16 2.5,2.5 0 0 0 10.943359,14 H 13 v 1.5 c 0,0.277 0.223,0.5 0.5,0.5 0.277,0 0.5,-0.223 0.5,-0.5 V 14 h 1.5 C 15.777,14 16,13.777 16,13.5 16,13.223 15.777,13 15.5,13 H 10.949219 A 2.5,2.5 0 0 0 8.5,11 Z m 0,1 A 1.5,1.5 0 0 1 10,13.5 1.5,1.5 0 0 1 8.5,15 1.5,1.5 0 0 1 7,13.5 1.5,1.5 0 0 1 8.5,12 Z" />
</svg>
