<?xml version="1.0" encoding="UTF-8" standalone="no"?>
<!-- Created with Inkscape (http://www.inkscape.org/) -->

<svg
   width="22"
   height="22"
   viewBox="0 0 22 22.000001"
   version="1.1"
   id="svg5"
   inkscape:version="1.2.2 (1:1.2.2+202305151914+b0a8486541)"
   sodipodi:docname="application-x-cd-image.svg"
   xmlns:inkscape="http://www.inkscape.org/namespaces/inkscape"
   xmlns:sodipodi="http://sodipodi.sourceforge.net/DTD/sodipodi-0.dtd"
   xmlns:xlink="http://www.w3.org/1999/xlink"
   xmlns="http://www.w3.org/2000/svg"
   xmlns:svg="http://www.w3.org/2000/svg">
  <sodipodi:namedview
     id="namedview7"
     pagecolor="#ffffff"
     bordercolor="#000000"
     borderopacity="0.25"
     inkscape:showpageshadow="2"
     inkscape:pageopacity="0.0"
     inkscape:pagecheckerboard="0"
     inkscape:deskcolor="#d1d1d1"
     inkscape:document-units="px"
     showgrid="false"
     inkscape:zoom="35.909091"
     inkscape:cx="10.986076"
     inkscape:cy="11"
     inkscape:window-width="1920"
     inkscape:window-height="1012"
     inkscape:window-x="0"
     inkscape:window-y="0"
     inkscape:window-maximized="1"
     inkscape:current-layer="svg5"
     showguides="true" />
  <defs
     id="defs2">
    <linearGradient
       inkscape:collect="always"
       id="linearGradient22024">
      <stop
         style="stop-color:#cccccc;stop-opacity:1;"
         offset="0"
         id="stop22020" />
      <stop
         style="stop-color:#f5f5f5;stop-opacity:1;"
         offset="0.5"
         id="stop2585" />
      <stop
         style="stop-color:#cccccc;stop-opacity:1;"
         offset="1"
         id="stop22022" />
    </linearGradient>
    <linearGradient
       inkscape:collect="always"
       id="linearGradient1334">
      <stop
         style="stop-color:#4b4b4b;stop-opacity:1;"
         offset="0"
         id="stop1330" />
      <stop
         style="stop-color:#737373;stop-opacity:1;"
         offset="1"
         id="stop1332" />
    </linearGradient>
    <linearGradient
       inkscape:collect="always"
       xlink:href="#linearGradient22024"
       id="linearGradient1837"
       x1="7.6028247"
       y1="8"
       x2="17"
       y2="17.240421"
       gradientUnits="userSpaceOnUse" />
    <linearGradient
       inkscape:collect="always"
       xlink:href="#linearGradient1334"
       id="linearGradient1845"
       x1="4"
       y1="1"
       x2="18"
       y2="21"
       gradientUnits="userSpaceOnUse" />
  </defs>
  <path
     id="rect234"
     style="opacity:0.2;stroke-width:0.25;stroke-linecap:round;stroke-linejoin:round"
     d="m 4,2 h 9 l 6,6 v 13 c 0,0.554 -0.446,1 -1,1 H 4 C 3.446,22 3,21.554 3,21 V 3 C 3,2.446 3.446,2 4,2 Z"
     sodipodi:nodetypes="sccssssss" />
  <path
     id="rect448"
     style="fill:url(#linearGradient1845);fill-opacity:1;stroke-width:0.25;stroke-linecap:round;stroke-linejoin:round"
     d="m 4,1 h 9 l 1,4 5,2 v 13 c 0,0.554 -0.446,1 -1,1 H 4 C 3.446,21 3,20.554 3,20 V 2 C 3,1.446 3.446,1 4,1 Z"
     sodipodi:nodetypes="scccssssss" />
  <path
     id="path4048"
     style="fill:url(#linearGradient1837);fill-opacity:1;stroke:none;stroke-width:0.399997;stroke-linejoin:round"
     d="M 11 8 C 7.6863142 8 5 10.686316 5 14 C 5 17.313685 7.6863142 20 11 20 C 14.313684 20 17 17.313685 17 14 C 17 10.686316 14.313684 8 11 8 z M 11 13 A 1 1 0 0 1 12 14 A 1 1 0 0 1 11 15 A 1 1 0 0 1 10 14 A 1 1 0 0 1 11 13 z " />
  <path
     id="path498"
     style="fill:#000000;fill-opacity:1;stroke-width:0.5;stroke-linecap:round;stroke-linejoin:round;paint-order:stroke fill markers;opacity:0.2"
     d="M 11 11 C 9.343148 11 8 12.343149 8 14 C 8 15.656851 9.343148 17 11 17 C 12.65685 17 14 15.656851 14 14 C 14 12.343149 12.65685 11 11 11 z M 11 13 C 11.552283 13 12 13.447717 12 14 C 12 14.552283 11.552283 15 11 15 C 10.447717 15 10 14.552283 10 14 C 10 13.447717 10.447717 13 11 13 z " />
  <path
     d="M 19,8 H 14 C 13.446,8 13,7.554 13,7 V 1 l 6,6 z"
     style="opacity:0.2;fill:#000000;stroke-width:0.25;stroke-linecap:round;stroke-linejoin:round"
     id="path611"
     sodipodi:nodetypes="cssccc" />
  <path
     id="rect600"
     style="fill:#b3b3b3;fill-opacity:1;stroke-width:0.25;stroke-linecap:round;stroke-linejoin:round"
     d="M 19,7 H 14 C 13.446,7 13,6.554 13,6 V 1 Z"
     sodipodi:nodetypes="csscc" />
</svg>
