<?xml version="1.0" encoding="UTF-8" standalone="no"?>
<!-- Created with Inkscape (http://www.inkscape.org/) -->

<svg
   width="22"
   height="22"
   viewBox="0 0 22 22.000001"
   version="1.1"
   id="svg5"
   inkscape:version="1.2.2 (1:1.2.2+202305151914+b0a8486541)"
   sodipodi:docname="application-vnd.ms-excel.template.macroenabled.12.svg"
   xmlns:inkscape="http://www.inkscape.org/namespaces/inkscape"
   xmlns:sodipodi="http://sodipodi.sourceforge.net/DTD/sodipodi-0.dtd"
   xmlns:xlink="http://www.w3.org/1999/xlink"
   xmlns="http://www.w3.org/2000/svg"
   xmlns:svg="http://www.w3.org/2000/svg">
  <sodipodi:namedview
     id="namedview7"
     pagecolor="#ffffff"
     bordercolor="#000000"
     borderopacity="0.25"
     inkscape:showpageshadow="2"
     inkscape:pageopacity="0.0"
     inkscape:pagecheckerboard="0"
     inkscape:deskcolor="#d1d1d1"
     inkscape:document-units="px"
     showgrid="false"
     inkscape:zoom="35.909091"
     inkscape:cx="10.986076"
     inkscape:cy="11"
     inkscape:window-width="1920"
     inkscape:window-height="1012"
     inkscape:window-x="0"
     inkscape:window-y="0"
     inkscape:window-maximized="1"
     inkscape:current-layer="svg5"
     showguides="true" />
  <defs
     id="defs2">
    <linearGradient
       inkscape:collect="always"
       id="linearGradient1214">
      <stop
         style="stop-color:#d3d3db;stop-opacity:1;"
         offset="0"
         id="stop1210" />
      <stop
         style="stop-color:#eaeaee;stop-opacity:1;"
         offset="1"
         id="stop1212" />
    </linearGradient>
    <linearGradient
       inkscape:collect="always"
       xlink:href="#linearGradient1214"
       id="linearGradient4560"
       x1="7"
       y1="8.0000963"
       x2="20.000002"
       y2="21.000179"
       gradientUnits="userSpaceOnUse" />
    <linearGradient
       inkscape:collect="always"
       id="linearGradient1004">
      <stop
         style="stop-color:#107c41;stop-opacity:1;"
         offset="0"
         id="stop1000" />
      <stop
         style="stop-color:#21a366;stop-opacity:1;"
         offset="1"
         id="stop1002" />
    </linearGradient>
    <linearGradient
       inkscape:collect="always"
       xlink:href="#linearGradient1004"
       id="linearGradient6155"
       x1="4"
       y1="1"
       x2="18"
       y2="21"
       gradientUnits="userSpaceOnUse" />
  </defs>
  <path
     id="rect234"
     style="opacity:0.2;stroke-width:0.25;stroke-linecap:round;stroke-linejoin:round"
     d="m 4,2 h 9 l 6,6 v 13 c 0,0.554 -0.446,1 -1,1 H 4 C 3.446,22 3,21.554 3,21 V 3 C 3,2.446 3.446,2 4,2 Z"
     sodipodi:nodetypes="sccssssss" />
  <path
     id="rect448"
     style="fill:url(#linearGradient6155);fill-opacity:1;stroke-width:0.25;stroke-linecap:round;stroke-linejoin:round"
     d="m 4,1 h 9 l 1,4 5,2 v 13 c 0,0.554 -0.446,1 -1,1 H 4 C 3.446,21 3,20.554 3,20 V 2 C 3,1.446 3.446,1 4,1 Z"
     sodipodi:nodetypes="scccssssss" />
  <rect
     style="opacity:0.25;fill:#ffffff;fill-opacity:1;stroke-width:2;stroke-linejoin:bevel"
     id="rect25302"
     width="10"
     height="12"
     x="5.9999986"
     y="8.0000963"
     ry="0.99999994" />
  <path
     id="rect29937"
     style="opacity:0.5;fill:#ffffff;fill-opacity:1;stroke-width:2;stroke-linejoin:bevel"
     d="m 5.9999998,10.999999 v 3.000096 H 11 V 10.999999 Z M 11,14.000095 v 2.999904 h 5 v -2.999904 z"
     sodipodi:nodetypes="cccccccccc" />
  <path
     id="path29903"
     style="opacity:0.7;fill:#ffffff;fill-opacity:1;stroke-width:2;stroke-linejoin:bevel"
     d="m 5.9999998,14.000095 v 4.999904 c 0,0.553999 0.446001,1 1,1 H 15 c 0.554,0 1,-0.446001 1,-1 v -2 h -5 v -2.999904 z"
     sodipodi:nodetypes="csccscccc" />
  <path
     id="rect28337"
     style="opacity:0.3;fill:#ffffff;fill-opacity:1;stroke-width:2;stroke-linejoin:bevel"
     d="m 6.9746088,8.0000963 c -0.54194,0.013639 -0.974609,0.4546571 -0.974609,1.0000002 V 10.999999 H 11 V 8.0000963 H 6.9999998 c -0.0087,0 -0.01678,-2.166e-4 -0.0254,0 z M 11,10.999999 v 3.000096 h 5 v -3.000096 z"
     sodipodi:nodetypes="cscccsccccccc" />
  <path
     d="M 19,8 H 14 C 13.446,8 13,7.554 13,7 V 1 l 6,6 z"
     style="opacity:0.2;fill:#000000;stroke-width:0.25;stroke-linecap:round;stroke-linejoin:round"
     id="path611"
     sodipodi:nodetypes="cssccc" />
  <path
     id="rect600"
     style="fill:#77d49d;fill-opacity:1;stroke-width:0.25;stroke-linecap:round;stroke-linejoin:round"
     d="M 19,7 H 14 C 13.446,7 13,6.554 13,6 V 1 Z"
     sodipodi:nodetypes="csscc" />
  <path
     d="m 18.950785,12.001314 c -0.177416,0.0084 -0.352493,0.06215 -0.50586,0.164063 L 6.4468775,20.167331 c -0.8227967,0.548968 -0.4344337,1.83166 0.554687,1.832031 H 18.999613 c 0.55226,-5.5e-5 0.999945,-0.447739 1,-1 v -8.000001 c -5.51e-4,-0.368746 -0.203966,-0.707273 -0.529297,-0.880859 -0.162358,-0.08688 -0.342115,-0.125638 -0.519531,-0.117188 z m -0.951172,2.998048 v 5 h -8 z"
     style="color:#000000;opacity:0.2;fill:#000000;stroke-width:2;stroke-linecap:round;stroke-linejoin:round"
     id="path5222" />
  <path
     id="path5201"
     style="color:#000000;fill:url(#linearGradient4560);fill-opacity:1;stroke-width:2;stroke-linecap:round;stroke-linejoin:round"
     d="m 18.951173,11.002133 c -0.177416,0.0084 -0.352493,0.06215 -0.50586,0.164064 L 6.4472655,19.168149 c -0.822796,0.548968 -0.434433,1.83166 0.554688,1.832031 H 19.000001 c 0.55226,-5.5e-5 0.999945,-0.447739 1,-1 v -8 c -5.51e-4,-0.368746 -0.203966,-0.707273 -0.529297,-0.880858 -0.162358,-0.08688 -0.342115,-0.125637 -0.519531,-0.117189 z m -0.951172,2.998047 v 5 h -8 z"
     sodipodi:nodetypes="ccccccccccccc" />
</svg>
