<?xml version="1.0" encoding="UTF-8" standalone="no"?>
<!-- Created with Inkscape (http://www.inkscape.org/) -->

<svg
   width="22"
   height="22"
   viewBox="0 0 22 22.000001"
   version="1.1"
   id="svg5"
   inkscape:version="1.2.2 (1:1.2.2+202305151914+b0a8486541)"
   sodipodi:docname="audio-x-generic.svg"
   xmlns:inkscape="http://www.inkscape.org/namespaces/inkscape"
   xmlns:sodipodi="http://sodipodi.sourceforge.net/DTD/sodipodi-0.dtd"
   xmlns:xlink="http://www.w3.org/1999/xlink"
   xmlns="http://www.w3.org/2000/svg"
   xmlns:svg="http://www.w3.org/2000/svg">
  <sodipodi:namedview
     id="namedview7"
     pagecolor="#ffffff"
     bordercolor="#000000"
     borderopacity="0.25"
     inkscape:showpageshadow="2"
     inkscape:pageopacity="0.0"
     inkscape:pagecheckerboard="0"
     inkscape:deskcolor="#d1d1d1"
     inkscape:document-units="px"
     showgrid="false"
     inkscape:zoom="35.909091"
     inkscape:cx="10.986076"
     inkscape:cy="11"
     inkscape:window-width="1920"
     inkscape:window-height="1012"
     inkscape:window-x="0"
     inkscape:window-y="0"
     inkscape:window-maximized="1"
     inkscape:current-layer="svg5"
     showguides="true" />
  <defs
     id="defs2">
    <linearGradient
       inkscape:collect="always"
       id="linearGradient872">
      <stop
         style="stop-color:#f26c12;stop-opacity:1;"
         offset="0"
         id="stop868" />
      <stop
         style="stop-color:#f6a26a;stop-opacity:1;"
         offset="1"
         id="stop870" />
    </linearGradient>
    <linearGradient
       inkscape:collect="always"
       xlink:href="#linearGradient872"
       id="linearGradient874"
       x1="4"
       y1="1"
       x2="18"
       y2="21"
       gradientUnits="userSpaceOnUse" />
  </defs>
  <path
     id="rect234"
     style="opacity:0.2;stroke-width:0.25;stroke-linecap:round;stroke-linejoin:round"
     d="m 4,2 h 9 l 6,6 v 13 c 0,0.554 -0.446,1 -1,1 H 4 C 3.446,22 3,21.554 3,21 V 3 C 3,2.446 3.446,2 4,2 Z"
     sodipodi:nodetypes="sccssssss" />
  <path
     id="rect448"
     style="fill:url(#linearGradient874);fill-opacity:1;stroke-width:0.25;stroke-linecap:round;stroke-linejoin:round"
     d="m 4,1 h 9 l 1,4 5,2 v 13 c 0,0.554 -0.446,1 -1,1 H 4 C 3.446,21 3,20.554 3,20 V 2 C 3,1.446 3.446,1 4,1 Z"
     sodipodi:nodetypes="scccssssss" />
  <path
     d="M 19,8 H 14 C 13.446,8 13,7.554 13,7 V 1 l 6,6 z"
     style="opacity:0.2;fill:#000000;stroke-width:0.25;stroke-linecap:round;stroke-linejoin:round"
     id="path611"
     sodipodi:nodetypes="cssccc" />
  <path
     id="rect600"
     style="fill:#ffccaa;fill-opacity:1;stroke-width:0.25;stroke-linecap:round;stroke-linejoin:round"
     d="M 19,7 H 14 C 13.446,7 13,6.554 13,6 V 1 Z"
     sodipodi:nodetypes="csscc" />
  <path
     d="m 14.723447,9.006028 c -0.05462,-0.010575 -0.116504,-0.00719 -0.179687,0.0098 l -5.085939,1.36523 C 9.205087,10.448898 9.00079,10.727105 9.00079,11.004105 v 1.603516 4.4375 C 8.550167,16.88538 8.0155397,16.87557 7.5105548,17.017751 6.4397532,17.320099 5.7909515,18.210234 6.061336,19.006032 6.3323965,19.801749 7.4202152,20.201374 8.4910236,19.898611 9.372828,19.648807 9.992432,18.988269 9.998837,18.291189 h 0.002 v -5.453125 l 4.000001,-1.072266 v 4.279297 c -0.450622,-0.159711 -0.985249,-0.169521 -1.490234,-0.02734 -1.070802,0.302348 -1.719603,1.192483 -1.449219,1.988281 0.271061,0.795717 1.358879,1.195342 2.429687,0.892579 0.881803,-0.249804 1.501408,-0.910341 1.507813,-1.607422 h 0.002 v -6.29493 -1.603516 c 0,-0.20775 -0.113497,-0.354994 -0.277344,-0.386719 z"
     style="color:#000000;clip-rule:nonzero;display:inline;overflow:visible;visibility:visible;isolation:auto;mix-blend-mode:normal;color-interpolation:sRGB;color-interpolation-filters:linearRGB;solid-color:#000000;solid-opacity:1;fill:#ffffff;fill-opacity:1;fill-rule:nonzero;stroke:none;stroke-width:1.0007;stroke-linecap:butt;stroke-linejoin:miter;stroke-miterlimit:4;stroke-dasharray:none;stroke-dashoffset:0;stroke-opacity:1;marker:none;color-rendering:auto;image-rendering:auto;shape-rendering:auto;text-rendering:auto;enable-background:accumulate"
     id="path2525" />
</svg>
