<?xml version="1.0" encoding="UTF-8" standalone="no"?>
<!-- Created with Inkscape (http://www.inkscape.org/) -->

<svg
   width="22"
   height="22"
   viewBox="0 0 22 22.000001"
   version="1.1"
   id="svg5"
   inkscape:version="1.2.2 (1:1.2.2+202305151914+b0a8486541)"
   sodipodi:docname="text-x-qml.svg"
   xmlns:inkscape="http://www.inkscape.org/namespaces/inkscape"
   xmlns:sodipodi="http://sodipodi.sourceforge.net/DTD/sodipodi-0.dtd"
   xmlns:xlink="http://www.w3.org/1999/xlink"
   xmlns="http://www.w3.org/2000/svg"
   xmlns:svg="http://www.w3.org/2000/svg">
  <sodipodi:namedview
     id="namedview7"
     pagecolor="#ffffff"
     bordercolor="#000000"
     borderopacity="0.25"
     inkscape:showpageshadow="2"
     inkscape:pageopacity="0.0"
     inkscape:pagecheckerboard="0"
     inkscape:deskcolor="#d1d1d1"
     inkscape:document-units="px"
     showgrid="false"
     inkscape:zoom="35.909091"
     inkscape:cx="10.986076"
     inkscape:cy="11"
     inkscape:window-width="1920"
     inkscape:window-height="1012"
     inkscape:window-x="0"
     inkscape:window-y="0"
     inkscape:window-maximized="1"
     inkscape:current-layer="svg5"
     showguides="true" />
  <defs
     id="defs2">
    <linearGradient
       inkscape:collect="always"
       id="linearGradient7584">
      <stop
         style="stop-color:#7dc640;stop-opacity:1;"
         offset="0"
         id="stop7580" />
      <stop
         style="stop-color:#99c640;stop-opacity:1;"
         offset="1"
         id="stop7582" />
    </linearGradient>
    <linearGradient
       inkscape:collect="always"
       xlink:href="#linearGradient7584"
       id="linearGradient8163"
       x1="4"
       y1="1"
       x2="18"
       y2="21"
       gradientUnits="userSpaceOnUse" />
  </defs>
  <path
     id="rect234"
     style="opacity:0.2;stroke-width:0.25;stroke-linecap:round;stroke-linejoin:round"
     d="m 4,2 h 9 l 6,6 v 13 c 0,0.554 -0.446,1 -1,1 H 4 C 3.446,22 3,21.554 3,21 V 3 C 3,2.446 3.446,2 4,2 Z"
     sodipodi:nodetypes="sccssssss" />
  <path
     id="rect448"
     style="fill:url(#linearGradient8163);fill-opacity:1;stroke-width:0.25;stroke-linecap:round;stroke-linejoin:round"
     d="m 4,1 h 9 l 1,4 5,2 v 13 c 0,0.554 -0.446,1 -1,1 H 4 C 3.446,21 3,20.554 3,20 V 2 C 3,1.446 3.446,1 4,1 Z"
     sodipodi:nodetypes="scccssssss" />
  <path
     id="rect287"
     style="fill:#ffffff;stroke-linecap:round;stroke-linejoin:round;paint-order:stroke fill markers"
     d="m 7,10 c -0.5539988,0 -1,0.446001 -1,1 v 6 c 0,0.553998 0.4460012,1 1,1 h 8 c 0.553998,0 1,-0.446002 1,-1 v -6 c 0,-0.553999 -0.446002,-1 -1,-1 z m 0,2 h 2 v 5 H 7 Z m 3,0 h 5 v 5 h -5 z"
     sodipodi:nodetypes="ssssssssscccccccccc" />
  <path
     d="M 19,8 H 14 C 13.446,8 13,7.554 13,7 V 1 l 6,6 z"
     style="opacity:0.2;fill:#000000;stroke-width:0.25;stroke-linecap:round;stroke-linejoin:round"
     id="path611"
     sodipodi:nodetypes="cssccc" />
  <path
     id="rect600"
     style="fill:#b7e096;fill-opacity:1;stroke-width:0.25;stroke-linecap:round;stroke-linejoin:round"
     d="M 19,7 H 14 C 13.446,7 13,6.554 13,6 V 1 Z"
     sodipodi:nodetypes="csscc" />
</svg>
