<?xml version="1.0" encoding="UTF-8" standalone="no"?>
<!-- Created with Inkscape (http://www.inkscape.org/) -->

<svg
   width="24"
   height="24"
   viewBox="0 0 24 24"
   version="1.1"
   id="svg1"
   inkscape:version="1.4.2 (ebf0e940d0, 2025-05-08)"
   sodipodi:docname="audio-card-symbolic.svg"
   xmlns:inkscape="http://www.inkscape.org/namespaces/inkscape"
   xmlns:sodipodi="http://sodipodi.sourceforge.net/DTD/sodipodi-0.dtd"
   xmlns="http://www.w3.org/2000/svg"
   xmlns:svg="http://www.w3.org/2000/svg">
  <sodipodi:namedview
     id="namedview1"
     pagecolor="#ffffff"
     bordercolor="#000000"
     borderopacity="0.25"
     inkscape:showpageshadow="2"
     inkscape:pageopacity="0.0"
     inkscape:pagecheckerboard="0"
     inkscape:deskcolor="#d1d1d1"
     inkscape:document-units="px"
     inkscape:zoom="33.125"
     inkscape:cx="12"
     inkscape:cy="12"
     inkscape:window-width="1920"
     inkscape:window-height="1010"
     inkscape:window-x="0"
     inkscape:window-y="0"
     inkscape:window-maximized="1"
     inkscape:current-layer="svg1" />
  <defs
     id="defs1">
    <style
       id="current-color-scheme"
       type="text/css">
          .ColorScheme-Text { color:#f2f2f2; }
      </style>
  </defs>
  <path
     d="M 13.713,7.98 C 13.654,7.9694 13.5927,7.973 13.535,7.99 L 9.445,9.114 C 9.193,9.183 8.99,9.462 8.99,9.739 V 14 c -0.2895,-0.0437 -0.5847,-0.0301 -0.869,0.04 -0.803,0.196 -1.288,0.774 -1.084,1.29 0.203,0.517 1.019,0.777 1.822,0.58 0.685,-0.168 1.155,-0.62 1.13,-1.086 V 10.81 l 3,-0.823 V 13 c -0.2898,-0.0438 -0.5854,-0.0302 -0.87,0.04 -0.803,0.196 -1.288,0.774 -1.084,1.29 0.203,0.517 1.019,0.777 1.822,0.58 0.666,-0.164 1.132,-0.597 1.13,-1.053 V 8.365 c 0,-0.207 -0.115,-0.354 -0.278,-0.384 z M 17.99,4 c -0.5523,0 -1,0.44772 -1,1 V 6 H 5.5 C 4.678,6 4,6.678 4,7.5 v 8.994 c 0,0.823 0.678,1.5 1.5,1.5 H 16.99 V 20 h 1 v -4 h 2 L 20,8.997 17.995,9 V 5.5 c 0,0 0,-0.5 0.5,-0.5 h 1.5 V 4 Z M 5.5,7 h 11.49 v 9.994 H 5.5 C 5.221,17.001 4.9931,16.77297 5,16.494 V 7.5 C 5,7.214 5.214,7 5.5,7 Z M 18,9.994 h 1 v 1 h -1 z m 0,2 h 1 v 1 h -1 z m 0,2 h 1 v 1 h -1 z"
     style="fill:currentColor"
     class="ColorScheme-Text"
     id="path1" />
</svg>
