<?xml version="1.0" encoding="UTF-8" standalone="no"?>
<svg
   width="24"
   height="24"
   version="1.1"
   id="svg1"
   sodipodi:docname="input-mouse-symbolic.svg"
   inkscape:version="1.4.2 (ebf0e940d0, 2025-05-08)"
   xmlns:inkscape="http://www.inkscape.org/namespaces/inkscape"
   xmlns:sodipodi="http://sodipodi.sourceforge.net/DTD/sodipodi-0.dtd"
   xmlns="http://www.w3.org/2000/svg"
   xmlns:svg="http://www.w3.org/2000/svg">
  <defs
     id="defs1">
    <style
       id="current-color-scheme"
       type="text/css">
        .ColorScheme-Text { color:#f2f2f2; }
     </style>
  </defs>
  <sodipodi:namedview
     id="namedview1"
     pagecolor="#ffffff"
     bordercolor="#000000"
     borderopacity="0.25"
     inkscape:showpageshadow="2"
     inkscape:pageopacity="0.0"
     inkscape:pagecheckerboard="0"
     inkscape:deskcolor="#d1d1d1"
     inkscape:zoom="33.125"
     inkscape:cx="12"
     inkscape:cy="12"
     inkscape:window-width="1920"
     inkscape:window-height="1010"
     inkscape:window-x="0"
     inkscape:window-y="0"
     inkscape:window-maximized="1"
     inkscape:current-layer="svg1" />
  <path
     id="path1"
     style="fill:currentColor"
     class="ColorScheme-Text"
     d="M 9.75,4 C 9.2291333,4 8.7395833,4.098955 8.28125,4.296875 7.8281233,4.489595 7.43229,4.7552167 7.09375,5.09375 6.75521,5.4322833 6.4869825,5.8307292 6.2890625,6.2890625 6.0963558,6.7421625 6,7.2291667 6,7.75 v 6.75 c 0,0.505193 0.065106,0.992197 0.1953125,1.460938 0.1302067,0.468739 0.3151008,0.908852 0.5546875,1.320312 0.2395733,0.406267 0.5260283,0.776042 0.859375,1.109375 0.3333467,0.333333 0.7031217,0.619788 1.109375,0.859375 0.4114533,0.239587 0.8515658,0.424481 1.320313,0.554688 C 10.507809,19.934894 10.994813,20 11.5,20 c 0.505187,0 0.992191,-0.06511 1.460938,-0.195312 0.468746,-0.130207 0.906246,-0.315101 1.3125,-0.554688 0.411466,-0.239573 0.783854,-0.526028 1.117187,-0.859375 0.333333,-0.333347 0.619788,-0.703122 0.859375,-1.109375 0.239587,-0.411453 0.424481,-0.851566 0.554688,-1.320312 C 16.934894,15.492211 17,15.005207 17,14.5 V 7.75 C 17,7.2291933 16.901045,6.7421892 16.703125,6.2890625 16.510412,5.8307358 16.24479,5.43229 15.90625,5.09375 15.567717,4.7552033 15.169271,4.4895817 14.710938,4.296875 14.257838,4.098955 13.770833,4 13.25,4 Z m 0,1 H 11 v 5 h 1 V 5 h 1.25 c 0.3802,0 0.736979,0.072917 1.070312,0.21875 0.333334,0.1406267 0.625,0.3359375 0.875,0.5859375 0.25,0.25 0.445311,0.5416667 0.585938,0.875 C 15.927083,7.0130142 16,7.3697933 16,7.75 v 6.75 c 0,0.619793 -0.119788,1.203127 -0.359375,1.75 -0.234367,0.546887 -0.554678,1.023441 -0.960937,1.429688 C 14.273427,18.085934 13.796873,18.408851 13.25,18.648438 12.703127,18.882811 12.119793,19 11.5,19 10.880207,19 10.296873,18.882811 9.75,18.648438 9.2031133,18.408864 8.7265592,18.085947 8.3203125,17.679688 7.9140658,17.273427 7.5911492,16.796873 7.3515625,16.25 7.1171892,15.703127 7,15.119793 7,14.5 V 7.75 C 7,7.3698 7.070311,7.0130208 7.2109375,6.6796875 c 0.1458333,-0.3333333 0.34375,-0.625 0.59375,-0.875 0.25,-0.25 0.5416667,-0.4453108 0.875,-0.5859375 C 9.0130142,5.0729167 9.3697933,5 9.75,5 Z" />
</svg>
