<?xml version="1.0" encoding="UTF-8" standalone="no"?>
<!-- Created with Inkscape (http://www.inkscape.org/) -->

<svg
   width="64"
   height="64"
   viewBox="0 0 64 64"
   version="1.1"
   id="svg5"
   inkscape:version="1.4.4 (dcaf3e7d9e, 2026-05-05)"
   sodipodi:docname="system-restart.svg"
   xmlns:inkscape="http://www.inkscape.org/namespaces/inkscape"
   xmlns:sodipodi="http://sodipodi.sourceforge.net/DTD/sodipodi-0.dtd"
   xmlns:xlink="http://www.w3.org/1999/xlink"
   xmlns="http://www.w3.org/2000/svg"
   xmlns:svg="http://www.w3.org/2000/svg">
  <sodipodi:namedview
     id="namedview7"
     pagecolor="#ffffff"
     bordercolor="#666666"
     borderopacity="1.0"
     inkscape:showpageshadow="2"
     inkscape:pageopacity="0.0"
     inkscape:pagecheckerboard="0"
     inkscape:deskcolor="#d1d1d1"
     inkscape:document-units="px"
     showgrid="false"
     inkscape:zoom="12.4375"
     inkscape:cx="32"
     inkscape:cy="31.919598"
     inkscape:window-width="1920"
     inkscape:window-height="1012"
     inkscape:window-x="0"
     inkscape:window-y="0"
     inkscape:window-maximized="1"
     inkscape:current-layer="svg5" />
  <defs
     id="defs2">
    <linearGradient
       inkscape:collect="always"
       xlink:href="#linearGradient1500"
       id="linearGradient2881"
       x1="29.000002"
       y1="29.000002"
       x2="16.000002"
       y2="3.0000002"
       gradientUnits="userSpaceOnUse"
       gradientTransform="matrix(2.153846,0,0,2.153846,-2.4615384,-2.4615384)" />
    <linearGradient
       inkscape:collect="always"
       id="linearGradient1500">
      <stop
         style="stop-color:#afe481;stop-opacity:1;"
         offset="0"
         id="stop1496" />
      <stop
         style="stop-color:#74c72b;stop-opacity:1;"
         offset="1"
         id="stop1498" />
    </linearGradient>
  </defs>
  <circle
     style="opacity:0.2;fill:#000000;fill-opacity:1;stroke:none;stroke-width:4.3077;stroke-linecap:round;stroke-linejoin:round;stroke-dasharray:none;stroke-opacity:1"
     id="path2871"
     cx="32"
     cy="33"
     r="28" />
  <circle
     style="opacity:1;fill:url(#linearGradient2881);fill-opacity:1;stroke:none;stroke-width:4.3077;stroke-linecap:round;stroke-linejoin:round;stroke-dasharray:none;stroke-opacity:1"
     id="path2873"
     cx="32"
     cy="32"
     r="28" />
  <path
     id="path291"
     style="fill:#ffffff;stroke-width:1.89474;stroke-linecap:round;stroke-linejoin:round"
     d="m 32,14 c -6.972322,0 -13.012144,3.964018 -16,9.761718 V 18 h -2 v 8 2 H 16 16.503906 24 V 26 H 17.164062 C 19.5376,20.136608 25.285294,16 32,16 c 7.455822,0 13.720394,5.098422 15.496094,12 h 2.050782 C 47.727656,19.984478 40.566034,14 32,14 Z M 14.453125,36 C 16.272342,44.015524 23.433968,50 32,50 38.972324,50 45.012144,46.035982 48,40.238282 V 46 h 2 V 38 36 H 49.546876 48 47.496094 40 v 2 h 6.835938 C 44.4624,43.863392 38.714708,48 32,48 24.54418,48 18.279606,42.901578 16.503906,36 Z" />
</svg>
