<?xml version="1.0" encoding="UTF-8" standalone="no"?>
<!-- Created with Inkscape (http://www.inkscape.org/) -->

<svg
   width="64"
   height="64"
   viewBox="0 0 64 64"
   version="1.1"
   id="svg5"
   inkscape:version="1.4.4 (dcaf3e7d9e, 2026-05-05)"
   sodipodi:docname="system-suspend-hibernate.svg"
   xmlns:inkscape="http://www.inkscape.org/namespaces/inkscape"
   xmlns:sodipodi="http://sodipodi.sourceforge.net/DTD/sodipodi-0.dtd"
   xmlns:xlink="http://www.w3.org/1999/xlink"
   xmlns="http://www.w3.org/2000/svg"
   xmlns:svg="http://www.w3.org/2000/svg">
  <sodipodi:namedview
     id="namedview7"
     pagecolor="#ffffff"
     bordercolor="#666666"
     borderopacity="1.0"
     inkscape:showpageshadow="2"
     inkscape:pageopacity="0.0"
     inkscape:pagecheckerboard="0"
     inkscape:deskcolor="#d1d1d1"
     inkscape:document-units="px"
     showgrid="false"
     inkscape:zoom="12.4375"
     inkscape:cx="32"
     inkscape:cy="31.919598"
     inkscape:window-width="1920"
     inkscape:window-height="1012"
     inkscape:window-x="0"
     inkscape:window-y="0"
     inkscape:window-maximized="1"
     inkscape:current-layer="svg5" />
  <defs
     id="defs2">
    <linearGradient
       inkscape:collect="always"
       xlink:href="#linearGradient2659"
       id="linearGradient2881"
       x1="16.000002"
       y1="3.0000002"
       x2="29.000002"
       y2="29.000002"
       gradientUnits="userSpaceOnUse"
       gradientTransform="matrix(2.153846,0,0,2.153846,-2.4615384,-2.4615384)" />
    <linearGradient
       inkscape:collect="always"
       id="linearGradient2659">
      <stop
         style="stop-color:#7a2ac0;stop-opacity:1;"
         offset="0"
         id="stop2655" />
      <stop
         style="stop-color:#b16cd5;stop-opacity:1;"
         offset="1"
         id="stop2657" />
    </linearGradient>
  </defs>
  <circle
     style="opacity:0.2;fill:#000000;fill-opacity:1;stroke:none;stroke-width:4.3077;stroke-linecap:round;stroke-linejoin:round;stroke-dasharray:none;stroke-opacity:1"
     id="path2871"
     cx="32"
     cy="33"
     r="28" />
  <circle
     style="opacity:1;fill:url(#linearGradient2881);fill-opacity:1;stroke:none;stroke-width:4.3077;stroke-linecap:round;stroke-linejoin:round;stroke-dasharray:none;stroke-opacity:1"
     id="path2873"
     cx="32"
     cy="32"
     r="28" />
  <path
     id="path291"
     style="fill:#ffffff;stroke-width:1.89474;stroke-linecap:round;stroke-linejoin:round"
     d="m 32,14 c -9.941115,0 -18,8.058885 -18,18 0,9.941115 8.058885,18 18,18 9.941115,0 18,-8.058885 18,-18 0,-9.941115 -8.058885,-18 -18,-18 z m 0,2 c 8.836547,0 16,7.163453 16,16 0,8.836547 -7.163453,16 -16,16 -8.836547,0 -16,-7.163453 -16,-16 0,-8.836547 7.163453,-16 16,-16 z m 0,10 a 6,6 0 0 0 -6,6 6,6 0 0 0 6,6 6,6 0 0 0 6,-6 6,6 0 0 0 -6,-6 z" />
</svg>
