<?xml version="1.0" encoding="UTF-8" standalone="no"?>
<!-- Created with Inkscape (http://www.inkscape.org/) -->

<svg
   width="16"
   height="16"
   viewBox="0 0 16 16"
   version="1.1"
   id="svg5"
   inkscape:version="1.2.1 (1:1.2.1+202210291243+9c6d41e410)"
   sodipodi:docname="io.posidon.Paper-symbolic.svg"
   xmlns:inkscape="http://www.inkscape.org/namespaces/inkscape"
   xmlns:sodipodi="http://sodipodi.sourceforge.net/DTD/sodipodi-0.dtd"
   xmlns="http://www.w3.org/2000/svg"
   xmlns:svg="http://www.w3.org/2000/svg">
  <sodipodi:namedview
     id="namedview7"
     pagecolor="#ffffff"
     bordercolor="#000000"
     borderopacity="0.25"
     inkscape:showpageshadow="2"
     inkscape:pageopacity="0.0"
     inkscape:pagecheckerboard="0"
     inkscape:deskcolor="#d1d1d1"
     inkscape:document-units="px"
     showgrid="false"
     inkscape:zoom="51.5625"
     inkscape:cx="8.0387879"
     inkscape:cy="8.0387879"
     inkscape:window-width="1920"
     inkscape:window-height="1018"
     inkscape:window-x="0"
     inkscape:window-y="28"
     inkscape:window-maximized="1"
     inkscape:current-layer="svg5"
     showguides="true" />
  <defs
     id="defs2" />
  <path
     id="rect755"
     style="fill:#363636;fill-opacity:1;stroke-width:2;stroke-linecap:round;stroke-linejoin:round"
     d="M 4,1 C 3.4460024,1 3,1.4460024 3,2 v 12 c 0,0.553996 0.4460024,1 1,1 h 8 c 0.553996,0 1,-0.446004 1,-1 V 9.0507812 L 12,10.050781 V 14 H 5 V 2 h 7 v 2.3925781 l 1,-1 V 2 C 13,1.4460024 12.553996,1 12,1 Z m 11,2.2226562 c -0.255922,1e-6 -0.511771,0.097709 -0.707031,0.2929688 L 6.9296875,10.878906 6.2226562,13 8.34375,12.292969 15.707031,4.9296875 c 0.390521,-0.3905206 0.390525,-1.0235379 0,-1.4140625 C 15.511769,3.3203632 15.255922,3.2226562 15,3.2226562 Z"
     sodipodi:nodetypes="sssccsccccccccsssscccccss" />
</svg>
