<?xml version="1.0" encoding="UTF-8" standalone="no"?>
<!-- Created with Inkscape (http://www.inkscape.org/) -->

<svg
   width="64"
   height="64"
   viewBox="0 0 64 64"
   version="1.1"
   id="svg5"
   inkscape:version="1.2.2 (1:1.2.2+202305151914+b0a8486541)"
   sodipodi:docname="accessories-camera.svg"
   xmlns:inkscape="http://www.inkscape.org/namespaces/inkscape"
   xmlns:sodipodi="http://sodipodi.sourceforge.net/DTD/sodipodi-0.dtd"
   xmlns="http://www.w3.org/2000/svg"
   xmlns:svg="http://www.w3.org/2000/svg">
  <sodipodi:namedview
     id="namedview7"
     pagecolor="#ffffff"
     bordercolor="#000000"
     borderopacity="0.25"
     inkscape:showpageshadow="2"
     inkscape:pageopacity="0.0"
     inkscape:pagecheckerboard="0"
     inkscape:deskcolor="#d1d1d1"
     inkscape:document-units="px"
     showgrid="false"
     inkscape:zoom="12.59375"
     inkscape:cx="31.960298"
     inkscape:cy="32"
     inkscape:window-width="1920"
     inkscape:window-height="1008"
     inkscape:window-x="0"
     inkscape:window-y="0"
     inkscape:window-maximized="1"
     inkscape:current-layer="svg5" />
  <defs
     id="defs2">
    <style
       id="current-color-scheme"
       type="text/css">
         .ColorScheme-Text { color:#232629; }
         .ColorScheme-Highlight { color:#3daee9; }
     </style>
  </defs>
  <path
     d="M 26,5 C 7.797619,5 4,8.879634 4,27 V 39 C 4,57.120366 7.797619,61 26,61 H 38 C 56.20238,61 60,57.120366 60,39 V 27 C 60,8.879634 56.20238,5 38,5"
     style="opacity:0.2;fill:#000000;stroke-width:2;stroke-linecap:round;stroke-linejoin:round"
     id="path563" />
  <path
     id="path530"
     style="fill:currentColor;fill-opacity:1;stroke-width:2;stroke-linecap:round;stroke-linejoin:round"
     d="M 26,4 C 7.7976372,4 4,7.8796522 4,26 V 38 C 4,56.120348 7.7976372,60 26,60 H 38 C 56.202364,60 60,56.120348 60,38 V 26 C 60,7.8796522 56.202364,4 38,4 Z"
     class="ColorScheme-Highlight" />
  <g
     id="g1167"
     transform="matrix(2,0,0,2,-2.3027298,7.0669978)"
     class="ColorScheme-Text"
     style="opacity:0.6;fill:currentColor">
    <path
       id="path669"
       style="opacity:0.6;stroke-width:3.71429;stroke-linecap:round;stroke-linejoin:round"
       d="m 17.151365,7.4665012 c -3.589843,0 -6.5,2.9101568 -6.5,6.4999998 0,3.589843 2.910157,6.5 6.5,6.5 3.589843,0 6.5,-2.910157 6.5,-6.5 0,-3.589843 -2.910157,-6.4999998 -6.5,-6.4999998 z m 0,3.4999998 c 1.656851,0 3,1.343151 3,3 0,1.656851 -1.343149,3 -3,3 -1.65685,0 -3,-1.343149 -3,-3 0,-1.656849 1.34315,-3 3,-3 z" />
    <path
       id="rect234"
       style="stroke-width:2;stroke-linecap:round;stroke-linejoin:round"
       d="M 15.151365 3.9665011 C 14.043369 3.9665011 13.821225 4.4617092 13.151365 5.4665011 L 12.151365 6.9665011 L 9.6513649 6.9665011 C 8.2663708 6.9665011 7.1513649 8.081507 7.1513649 9.4665011 L 7.1513649 18.466501 C 7.1513649 19.851495 8.2663713 20.966501 9.6513649 20.966501 L 24.651365 20.966501 C 26.03636 20.966501 27.151365 19.851495 27.151365 18.466501 L 27.151365 9.4665011 C 27.151365 8.081507 26.036359 6.9665011 24.651365 6.9665011 L 22.151365 6.9665011 L 21.151365 5.4665011 C 20.536761 4.5445926 20.259361 3.9665011 19.151365 3.9665011 L 15.151365 3.9665011 z M 24.651365 8.4665011 C 25.203649 8.4665011 25.651365 8.914217 25.651365 9.4665011 C 25.651365 10.018785 25.203649 10.466501 24.651365 10.466501 C 24.09908 10.466501 23.651365 10.018785 23.651365 9.4665011 C 23.651365 8.914217 24.09908 8.4665011 24.651365 8.4665011 z M 17.151365 8.9665011 C 19.912786 8.9665011 22.151365 11.20508 22.151365 13.966501 C 22.151365 16.727922 19.912786 18.966501 17.151365 18.966501 C 14.389944 18.966501 12.151365 16.727922 12.151365 13.966501 C 12.151365 11.20508 14.389944 8.9665011 17.151365 8.9665011 z " />
  </g>
</svg>
