<?xml version="1.0" encoding="UTF-8" standalone="no"?>
<!-- Created with Inkscape (http://www.inkscape.org/) -->

<svg
   width="64"
   height="64"
   viewBox="0 0 64 64"
   version="1.1"
   id="svg5"
   inkscape:version="1.2.2 (1:1.2.2+202305151914+b0a8486541)"
   sodipodi:docname="google-chrome.svg"
   xmlns:inkscape="http://www.inkscape.org/namespaces/inkscape"
   xmlns:sodipodi="http://sodipodi.sourceforge.net/DTD/sodipodi-0.dtd"
   xmlns="http://www.w3.org/2000/svg"
   xmlns:svg="http://www.w3.org/2000/svg">
  <sodipodi:namedview
     id="namedview7"
     pagecolor="#ffffff"
     bordercolor="#000000"
     borderopacity="0.25"
     inkscape:showpageshadow="2"
     inkscape:pageopacity="0.0"
     inkscape:pagecheckerboard="0"
     inkscape:deskcolor="#d1d1d1"
     inkscape:document-units="px"
     showgrid="false"
     inkscape:zoom="12.59375"
     inkscape:cx="31.960298"
     inkscape:cy="32"
     inkscape:window-width="1920"
     inkscape:window-height="1008"
     inkscape:window-x="0"
     inkscape:window-y="0"
     inkscape:window-maximized="1"
     inkscape:current-layer="svg5" />
  <defs
     id="defs2">
    <style
       id="current-color-scheme"
       type="text/css">
         .ColorScheme-Text { color:#232629; }
         .ColorScheme-Highlight { color:#3daee9; }
     </style>
  </defs>
  <path
     d="M 26,5 C 7.797619,5 4,8.879634 4,27 V 39 C 4,57.120364 7.797619,61 26,61 H 38 C 56.20238,61 60,57.120364 60,39 V 27 C 60,8.879634 56.20238,5 38,5"
     style="opacity:0.2;fill:#000000;stroke-width:2;stroke-linecap:round;stroke-linejoin:round"
     id="path563" />
  <path
     id="path530"
     style="fill:currentColor;fill-opacity:1;stroke-width:2;stroke-linecap:round;stroke-linejoin:round"
     d="M 26,4 C 7.797637,4 4,7.879652 4,26 V 38 C 4,56.12035 7.797637,60 26,60 H 38 C 56.202364,60 60,56.12035 60,38 V 26 C 60,7.879652 56.202364,4 38,4 Z"
     class="ColorScheme-Highlight" />
  <path
     id="path246"
     style="opacity:0.6;fill:currentColor;stroke-width:2;stroke-linecap:round;stroke-linejoin:round"
     d="M 31.999966,11.999959 A 20,20 0 0 0 15.93356,20.175742 l 6.148438,10.65234 a 10.000069,10.000067 0 0 1 9.917968,-8.828124 H 49.316372 A 20,20 0 0 0 31.999966,11.999959 Z M 14.706997,22.046834 a 20,20 0 0 0 -2.707031,9.953124 20,20 0 0 0 17.785156,19.84375 l 6.15625,-10.667968 a 10.000069,10.000067 0 0 1 -3.941406,0.824218 10.000069,10.000067 0 0 1 -8.640624,-5.011718 l -0.0196,0.0118 z m 17.292969,1.953124 a 8,7.9999962 0 0 0 -8,8 8,7.9999962 0 0 0 8,8 8,7.9999962 0 0 0 8,-8 8,7.9999962 0 0 0 -8,-8 z m 5.996094,0 a 10.000069,10.000067 0 0 1 4.003906,8 10.000069,10.000067 0 0 1 -1.359376,4.988282 l 0.0196,0.0118 -8.660156,15 a 20,20 0 0 0 20,-20 20,20 0 0 0 -1.675782,-8 z"
     class="ColorScheme-Text" />
</svg>
