<?xml version="1.0" encoding="UTF-8" standalone="no"?>
<!-- Created with Inkscape (http://www.inkscape.org/) -->

<svg
   width="64"
   height="64"
   viewBox="0 0 64 64"
   version="1.1"
   id="svg5"
   inkscape:version="1.2.2 (1:1.2.2+202305151914+b0a8486541)"
   sodipodi:docname="kate.svg"
   xmlns:inkscape="http://www.inkscape.org/namespaces/inkscape"
   xmlns:sodipodi="http://sodipodi.sourceforge.net/DTD/sodipodi-0.dtd"
   xmlns="http://www.w3.org/2000/svg"
   xmlns:svg="http://www.w3.org/2000/svg">
  <sodipodi:namedview
     id="namedview7"
     pagecolor="#ffffff"
     bordercolor="#000000"
     borderopacity="0.25"
     inkscape:showpageshadow="2"
     inkscape:pageopacity="0.0"
     inkscape:pagecheckerboard="0"
     inkscape:deskcolor="#d1d1d1"
     inkscape:document-units="px"
     showgrid="false"
     inkscape:zoom="12.96875"
     inkscape:cx="31.961446"
     inkscape:cy="32"
     inkscape:window-width="1920"
     inkscape:window-height="1008"
     inkscape:window-x="0"
     inkscape:window-y="0"
     inkscape:window-maximized="1"
     inkscape:current-layer="svg5" />
  <defs
     id="defs2">
    <style
       id="current-color-scheme"
       type="text/css">
         .ColorScheme-Text { color:#232629; }
         .ColorScheme-Highlight { color:#3daee9; }
     </style>
  </defs>
  <path
     d="M 26,5 C 7.797619,5 4,8.879634 4,27 V 39 C 4,57.120364 7.797619,61 26,61 H 38 C 56.20238,61 60,57.120364 60,39 V 27 C 60,8.879634 56.20238,5 38,5"
     style="opacity:0.2;fill:#000000;stroke-width:2;stroke-linecap:round;stroke-linejoin:round"
     id="path563" />
  <path
     id="path530"
     style="fill:currentColor;fill-opacity:1;stroke-width:2;stroke-linecap:round;stroke-linejoin:round"
     d="M 26,4 C 7.797637,4 4,7.879652 4,26 V 38 C 4,56.12035 7.797637,60 26,60 H 38 C 56.202364,60 60,56.12035 60,38 V 26 C 60,7.879652 56.202364,4 38,4 Z"
     class="ColorScheme-Highlight" />
  <path
     id="path10"
     style="opacity:0.35;fill:currentColor;fill-opacity:1;stroke-width:1.52399"
     d="m 29.619792,13.180692 c -0.07774,0.03767 -0.1538,0.07746 -0.229182,0.118068 0.07542,-0.04073 0.15144,-0.08029 0.229182,-0.118068 z m -0.555618,0.305591 c -0.08744,0.05493 -0.17356,0.107248 -0.256988,0.166686 0.08282,-0.05905 0.17022,-0.112084 0.256988,-0.166686 z m -0.590344,0.430602 c -0.092,0.07813 -0.1785,0.158372 -0.263924,0.243081 0.08528,-0.08464 0.17208,-0.16501 0.263924,-0.243081 z m -0.263924,0.243081 c -0.15856,0.15729 -0.31079,0.32649 -0.444494,0.507001 0.13398,-0.18104 0.28558,-0.349273 0.444494,-0.507001 z m -0.673682,0.854263 c -0.06208,0.103582 -0.11962,0.209101 -0.17364,0.319481 0.0547,-0.111926 0.11062,-0.214527 0.17364,-0.319481 z m -0.17364,0.319481 c -0.04172,0.08524 -0.0814,0.174576 -0.11806,0.263919 0.03666,-0.0894 0.07638,-0.178622 0.11806,-0.263919 z m -0.291696,0.763974 c -0.03094,0.110662 -0.05964,0.224096 -0.08334,0.340304 0.02382,-0.116636 0.0522,-0.229252 0.08334,-0.340304 z m -0.08334,0.340304 c -0.02382,0.11667 -0.0394,0.238818 -0.05558,0.361153 0.016,-0.121294 0.032,-0.245431 0.05558,-0.361153 z m -0.06252,0.437549 c -0.0088,0.07603 -0.0217,0.151022 -0.02774,0.229181 -4.42287,-0.329138 -6.777276,1.207541 -12.897281,2.56973 1.507389,0.115 10.407759,-1.144007 12.237471,3.944882 0.14032,-0.04636 0.272706,-0.0938 0.416714,-0.1389 0.62364,-0.1953 1.234394,-0.377152 1.847426,-0.562566 C 27.17072,20.411742 26.742,18.422063 26.925064,16.875534 Z"
     class="ColorScheme-Text" />
  <path
     id="path12"
     style="opacity:0.6;fill:currentColor;fill-opacity:1;stroke-width:1.52399"
     class="ColorScheme-Text"
     d="m 50.747138,16.465775 c -16.697852,6.362243 -38.104864,10.656753 -30.718692,21.294031 0.0011,0.0016 -0.0011,0.0054 0,0.0072 0.0012,0.003 0.005,0.0046 0.0072,0.0072 0.0118,0.0164 0.02276,0.032 0.03484,0.0486 3.007958,3.81232 7.742176,4.402224 12.86254,7.827284 4.658778,3.116336 6.203228,4.702222 9.209354,9.02183 -0.625116,-5.968342 -3.914266,-13.661368 -5.264472,-17.050502 l -0.0072,-0.02098 c -2.255202,-1.656412 -4.29289,-3.811098 -6.118748,-6.591008 2.225658,3.859222 2.715562,8.732966 -1.944662,9.702464 -4.811154,1.000894 -10.062935,-3.157004 -8.744026,-7.605012 1.432184,-4.830024 8.224566,-3.898798 14.70997,-4.736636 6.4854,-0.837854 12.409852,-7.196304 15.973996,-11.904099 z m -18.245082,5.271419 c -1.901904,0.546582 -3.849042,1.117304 -5.84787,1.743248 -0.0028,9.04e-4 -0.004,0.006 -0.0072,0.0068 2.001238,-0.62669 3.95037,-1.202682 5.854804,-1.750182 z m -6.716024,2.034946 c -0.234408,0.08204 -0.463966,0.1644 -0.687576,0.25002 0.224702,-0.08592 0.452016,-0.16774 0.687576,-0.25002 z m -1.048728,0.395878 c -0.17972,0.0723 -0.362362,0.14064 -0.53478,0.215312 0.17162,-0.07418 0.355958,-0.14348 0.53478,-0.215312 z m -1.270976,0.555616 c -0.12802,0.06184 -0.251512,0.12424 -0.375038,0.18754 0.12332,-0.06304 0.24721,-0.12592 0.375038,-0.18754 z m -2.507222,1.514058 c -0.11162,0.08512 -0.220932,0.17008 -0.326436,0.25699 0.10668,-0.08766 0.2135,-0.17112 0.326436,-0.25699 z m -0.652852,0.541726 c -0.0782,0.07012 -0.16172,0.13718 -0.23615,0.208378 0.07432,-0.0709 0.15806,-0.1385 0.23615,-0.208378 z m -2.271082,6.847986 c 0.138326,0.647446 0.357416,1.319972 0.687575,2.014112 0.380067,0.79906 0.81229,1.486628 1.284865,2.097456 -0.998557,-1.410842 -1.657372,-2.789232 -1.97244,-4.111568 z" />
  <path
     style="opacity:0.45;fill:currentColor;fill-opacity:1;stroke-width:1.52399"
     d="m 30.023776,29.847324 c 2.13544,-0.12244 1.738212,-0.09072 5.359448,-0.273274 C 40.780876,34.17496 42.569978,35.766888 52,42.479588 42.521564,41.801538 35.349918,38.725912 30.023776,29.847332 Z"
     id="path14"
     class="ColorScheme-Text" />
  <path
     id="path16"
     style="opacity:0.25;fill:currentColor;fill-opacity:1;stroke-width:1.52399"
     d="m 31.439438,12.000005 c -3.25278,-0.0025 -6.991574,0.928048 -10.619234,3.555951 C 17.275539,18.12374 15.719416,18.820955 14,19.674469 c 6.120012,-1.362192 8.474406,-2.898872 12.897266,-2.569729 0.253434,-3.332686 3.269716,-4.689659 6.438216,-4.694967 1.475122,-0.0025 2.986566,0.283278 4.264364,0.805645 -1.627488,-0.705575 -3.75876,-1.213531 -6.160408,-1.215413 z"
     class="ColorScheme-Text" />
  <path
     id="path18"
     style="opacity:0.4;fill:currentColor;fill-opacity:1;stroke-width:1.52399"
     d="m 33.335482,12.409773 c -4.605664,0.0077 -8.885964,2.877907 -4.83387,10.508111 1.110462,-0.337246 2.20607,-0.65955 3.285086,-0.972328 -1.421526,-2.904893 -2.843902,-7.936382 6.70908,-8.299535 -1.430064,-0.789937 -3.321944,-1.239331 -5.160296,-1.236248 z"
     class="ColorScheme-Text" />
  <path
     style="opacity:0.45;fill:currentColor;fill-opacity:1;stroke-width:1.52399"
     d="m 20.504674,38.407768 c -4.843366,-6.236428 -3.3396,-11.952672 6.14442,-14.922636 9.359162,-2.930874 17.786058,-4.865728 24.098044,-7.019354 -17.033712,6.490214 -38.972733,10.826944 -30.242464,21.94199 z"
     id="path20"
     class="ColorScheme-Text" />
</svg>
