<?xml version="1.0" encoding="UTF-8" standalone="no"?>
<!-- Created with Inkscape (http://www.inkscape.org/) -->

<svg
   width="64"
   height="64"
   viewBox="0 0 64 64"
   version="1.1"
   id="svg5"
   inkscape:version="1.2.1 (9c6d41e410, 2022-07-14)"
   sodipodi:docname="preferences-desktop-effects.svg"
   xmlns:inkscape="http://www.inkscape.org/namespaces/inkscape"
   xmlns:sodipodi="http://sodipodi.sourceforge.net/DTD/sodipodi-0.dtd"
   xmlns:xlink="http://www.w3.org/1999/xlink"
   xmlns="http://www.w3.org/2000/svg"
   xmlns:svg="http://www.w3.org/2000/svg">
  <sodipodi:namedview
     id="namedview7"
     pagecolor="#ffffff"
     bordercolor="#000000"
     borderopacity="0.25"
     inkscape:showpageshadow="2"
     inkscape:pageopacity="0.0"
     inkscape:pagecheckerboard="0"
     inkscape:deskcolor="#d1d1d1"
     inkscape:document-units="px"
     showgrid="false"
     inkscape:zoom="12.53125"
     inkscape:cx="32"
     inkscape:cy="32"
     inkscape:window-width="1920"
     inkscape:window-height="1008"
     inkscape:window-x="0"
     inkscape:window-y="0"
     inkscape:window-maximized="1"
     inkscape:current-layer="svg5" />
  <defs
     id="defs2">
    <linearGradient
       inkscape:collect="always"
       xlink:href="#linearGradient3147"
       id="linearGradient4780"
       x1="30"
       y1="30"
       x2="2"
       y2="2"
       gradientUnits="userSpaceOnUse"
       gradientTransform="scale(2)" />
    <linearGradient
       inkscape:collect="always"
       id="linearGradient3147">
      <stop
         style="stop-color:#41bbff;stop-opacity:1;"
         offset="0"
         id="stop3143" />
      <stop
         style="stop-color:#0091f9;stop-opacity:1;"
         offset="1"
         id="stop3145" />
    </linearGradient>
  </defs>
  <path
     d="M 26,5 C 7.797619,5 4,8.879634 4,27 V 39 C 4,57.120366 7.797619,61 26,61 H 38 C 56.20238,61 60,57.120366 60,39 V 27 C 60,8.879634 56.20238,5 38,5"
     style="opacity:0.2;fill:#000000;stroke-width:2;stroke-linecap:round;stroke-linejoin:round"
     id="path563" />
  <path
     id="path530"
     style="fill:url(#linearGradient4780);fill-opacity:1;stroke-width:2;stroke-linecap:round;stroke-linejoin:round"
     d="M 26,4 C 7.7976372,4 4,7.8796522 4,26 V 38 C 4,56.120348 7.7976372,60 26,60 H 38 C 56.202364,60 60,56.120348 60,38 V 26 C 60,7.8796522 56.202364,4 38,4 Z" />
  <path
     id="rect1693"
     style="opacity:0.7;fill:#ffffff;fill-opacity:1;stroke-width:1.99999"
     d="m 20,15 c 1e-6,2.20914 -1.790861,4.000002 -4,4.000001 2.209139,-1e-6 4,1.790861 4,4 0,-2.209139 1.790861,-4 4,-4 -2.209139,0 -4,-1.790862 -4,-4.000001 z"
     sodipodi:nodetypes="ccccc" />
  <path
     d="m 28.000001,23 c 0,1.656855 -1.343146,3.000002 -3.000001,3.000001 1.656855,0 3.000001,1.343146 3.000001,2.999999 0,-1.656853 1.343146,-2.999999 2.999999,-2.999999 -1.656853,0 -2.999999,-1.343146 -2.999999,-3.000001 z"
     style="opacity:0.7;fill:#ffffff;fill-opacity:1;stroke-width:0.396873"
     id="path4839" />
  <g
     id="g2705"
     transform="matrix(2.6725296,2.6725296,-2.6725296,2.6725296,22.657764,-29.668143)"
     style="fill:#ffffff">
    <path
       id="rect864"
       style="fill:#ffffff;stroke-width:0.529167;stroke-linejoin:round"
       d="m 14.2875,6.3499998 v 8.9958332 c 0,0.146579 -0.118004,0.264583 -0.264583,0.264583 h -0.79375 c -0.146579,0 -0.264584,-0.118004 -0.264584,-0.264583 V 6.3499998 Z"
       sodipodi:nodetypes="csssscc" />
    <path
       id="rect2084"
       style="fill:#ffffff;fill-opacity:1;stroke-width:0.529167;stroke-linejoin:round;opacity:0.6"
       d="m 13.229167,3.96875 h 0.79375 c 0.146579,0 0.264583,0.1180042 0.264583,0.2645833 v 2.1166665 h -1.322917 l 0,-2.1166665 c 0,-0.1465791 0.118005,-0.2645833 0.264584,-0.2645833 z"
       sodipodi:nodetypes="sssccss" />
  </g>
  <path
     d="m 32,10 c 2e-6,2.761424 -2.238575,5.000002 -5,5 2.761425,0 5,2.238577 5,5 0,-2.761423 2.238576,-5 5,-5 -2.761424,0 -5,-2.238576 -5,-5 z"
     style="opacity:0.7;fill:#ffffff;fill-opacity:1;stroke-width:0.661455"
     id="path5282" />
</svg>
