<?xml version="1.0" encoding="UTF-8" standalone="no"?>
<!-- Created with Inkscape (http://www.inkscape.org/) -->

<svg
   width="64"
   height="64"
   viewBox="0 0 64 64"
   version="1.1"
   id="svg5"
   inkscape:version="1.2.2 (1:1.2.2+202305151914+b0a8486541)"
   sodipodi:docname="preferences-system.svg"
   xmlns:inkscape="http://www.inkscape.org/namespaces/inkscape"
   xmlns:sodipodi="http://sodipodi.sourceforge.net/DTD/sodipodi-0.dtd"
   xmlns="http://www.w3.org/2000/svg"
   xmlns:svg="http://www.w3.org/2000/svg">
  <sodipodi:namedview
     id="namedview7"
     pagecolor="#ffffff"
     bordercolor="#000000"
     borderopacity="0.25"
     inkscape:showpageshadow="2"
     inkscape:pageopacity="0.0"
     inkscape:pagecheckerboard="0"
     inkscape:deskcolor="#d1d1d1"
     inkscape:document-units="px"
     showgrid="false"
     inkscape:zoom="12.59375"
     inkscape:cx="29.975186"
     inkscape:cy="32"
     inkscape:window-width="1920"
     inkscape:window-height="1008"
     inkscape:window-x="0"
     inkscape:window-y="0"
     inkscape:window-maximized="1"
     inkscape:current-layer="svg5"
     showguides="false" />
  <defs
     id="defs2">
    <style
       id="current-color-scheme"
       type="text/css">
         .ColorScheme-Text { color:#232629; }
         .ColorScheme-Highlight { color:#3daee9; }
     </style>
  </defs>
  <path
     d="M 26,5 C 7.797619,5 4,8.879634 4,27 V 39 C 4,57.120366 7.797619,61 26,61 H 38 C 56.20238,61 60,57.120366 60,39 V 27 C 60,8.879634 56.20238,5 38,5"
     style="opacity:0.2;fill:#000000;stroke-width:2;stroke-linecap:round;stroke-linejoin:round"
     id="path563" />
  <path
     id="path530"
     style="fill:currentColor;fill-opacity:1;stroke-width:2;stroke-linecap:round;stroke-linejoin:round"
     d="M 26 4 C 7.7976372 4 4 7.8796521 4 26 L 4 38 C 4 56.120348 7.7976372 60 26 60 L 38 60 C 56.202364 60 60 56.120348 60 38 L 60 26 C 60 7.8796521 56.202364 4 38 4 L 26 4 z "
     class="ColorScheme-Highlight" />
  <path
     id="path3699"
     style="opacity:0.3;fill:currentColor;stroke-width:2;stroke-linecap:round;stroke-linejoin:round;fill-opacity:1"
     d="M 29 11 C 28.786952 12.009626 28.146992 13.969697 27.535156 15.619141 A 17 17 0 0 1 32 15 A 17 17 0 0 1 36.458984 15.599609 C 35.84945 13.954389 35.212165 12.00544 35 11 L 29 11 z M 19.271484 15.029297 L 15.029297 19.271484 C 15.595315 20.14027 16.534357 21.991011 17.269531 23.595703 A 17 17 0 0 1 23.595703 17.269531 C 21.991011 16.534357 20.14027 15.595315 19.271484 15.029297 z M 44.728516 15.029297 C 43.867595 15.590191 42.039965 16.519717 40.445312 17.251953 A 17 17 0 0 1 46.748047 23.554688 C 47.480283 21.960035 48.409809 20.132405 48.970703 19.271484 L 44.728516 15.029297 z M 15.619141 27.535156 C 13.969698 28.146992 12.009627 28.786952 11 29 L 11 35 C 12.009627 35.213048 13.969698 35.853008 15.619141 36.464844 A 17 17 0 0 1 15 32 A 17 17 0 0 1 15.619141 27.535156 z M 48.400391 27.541016 A 17 17 0 0 1 49 32 A 17 17 0 0 1 48.380859 36.464844 C 50.030302 35.853008 51.990374 35.213048 53 35 L 53 29 C 51.994562 28.787835 50.045611 28.15055 48.400391 27.541016 z M 17.269531 40.404297 C 16.534356 42.008989 15.595315 43.85973 15.029297 44.728516 L 19.271484 48.970703 C 20.14027 48.404685 21.991011 47.465644 23.595703 46.730469 A 17 17 0 0 1 17.269531 40.404297 z M 46.730469 40.404297 A 17 17 0 0 1 40.404297 46.730469 C 42.008989 47.465644 43.85973 48.404685 44.728516 48.970703 L 48.970703 44.728516 C 48.404686 43.859732 47.465644 42.008989 46.730469 40.404297 z M 27.535156 48.380859 C 28.146992 50.030302 28.786952 51.990374 29 53 L 35 53 C 35.213048 51.990374 35.853008 50.030302 36.464844 48.380859 A 17 17 0 0 1 32 49 A 17 17 0 0 1 27.535156 48.380859 z "
     class="ColorScheme-Text" />
  <path
     id="path285"
     style="fill:currentColor;stroke-width:3.4;stroke-linecap:round;stroke-linejoin:round;opacity:0.6;fill-opacity:1"
     d="m 32,15 c -9.388822,0 -17,7.611178 -17,17 0,9.388822 7.611178,17 17,17 9.388822,0 17,-7.611178 17,-17 0,-9.388822 -7.611178,-17 -17,-17 z m 0,9 c 4.41827,0 8,3.581732 8,8 0,4.41827 -3.58173,8 -8,8 -4.418268,0 -8,-3.58173 -8,-8 0,-4.418268 3.581732,-8 8,-8 z"
     class="ColorScheme-Text" />
</svg>
