<?xml version="1.0" encoding="UTF-8" standalone="no"?>
<!-- Created with Inkscape (http://www.inkscape.org/) -->

<svg
   width="64"
   height="64"
   viewBox="0 0 64 64"
   version="1.1"
   id="svg5"
   inkscape:version="1.2.2 (1:1.2.2+202305151914+b0a8486541)"
   sodipodi:docname="utilities-log-viewer.svg"
   xmlns:inkscape="http://www.inkscape.org/namespaces/inkscape"
   xmlns:sodipodi="http://sodipodi.sourceforge.net/DTD/sodipodi-0.dtd"
   xmlns="http://www.w3.org/2000/svg"
   xmlns:svg="http://www.w3.org/2000/svg">
  <sodipodi:namedview
     id="namedview7"
     pagecolor="#ffffff"
     bordercolor="#000000"
     borderopacity="0.25"
     inkscape:showpageshadow="2"
     inkscape:pageopacity="0.0"
     inkscape:pagecheckerboard="0"
     inkscape:deskcolor="#d1d1d1"
     inkscape:document-units="px"
     showgrid="false"
     inkscape:zoom="12.59375"
     inkscape:cx="31.960298"
     inkscape:cy="32"
     inkscape:window-width="1920"
     inkscape:window-height="1008"
     inkscape:window-x="0"
     inkscape:window-y="0"
     inkscape:window-maximized="1"
     inkscape:current-layer="svg5" />
  <defs
     id="defs2">
    <style
       id="current-color-scheme"
       type="text/css">
         .ColorScheme-Text { color:#232629; }
         .ColorScheme-Highlight { color:#3daee9; }
     </style>
  </defs>
  <path
     d="M 26,5 C 7.797619,5 4,8.879634 4,27 V 39 C 4,57.120366 7.797619,61 26,61 H 38 C 56.20238,61 60,57.120366 60,39 V 27 C 60,8.879634 56.20238,5 38,5"
     style="opacity:0.2;fill:#000000;stroke-width:2;stroke-linecap:round;stroke-linejoin:round"
     id="path563" />
  <path
     id="path530"
     style="fill:currentColor;fill-opacity:1;stroke-width:2;stroke-linecap:round;stroke-linejoin:round"
     d="M 26,4 C 7.7976372,4 4,7.8796522 4,26 V 38 C 4,56.120348 7.7976372,60 26,60 H 38 C 56.202364,60 60,56.120348 60,38 V 26 C 60,7.8796522 56.202364,4 38,4 Z"
     class="ColorScheme-Highlight" />
  <g
     id="g850"
     style="opacity:0.6;fill:currentColor"
     class="ColorScheme-Text">
    <path
       id="rect291"
       style="opacity:0.5;stroke-width:2;stroke-linecap:round"
       d="M 13 18 C 12.446002 18 12 18.446002 12 19 C 12 19.553998 12.446002 20 13 20 L 51 20 C 51.553999 20 52 19.553998 52 19 C 52 18.446002 51.553999 18 51 18 L 13 18 z M 13 26 C 12.446002 26 12 26.446001 12 27 C 12 27.553999 12.446002 28 13 28 L 24.816406 28 A 11 11 0 0 1 26.482422 26 L 13 26 z M 29.939453 26 A 9 9 0 0 0 27.320312 28 L 40.707031 28 A 9 9 0 0 0 38.117188 26 L 29.939453 26 z M 41.542969 26 A 11 11 0 0 1 43.214844 28 L 51 28 C 51.553999 28 52 27.553999 52 27 C 52 26.446001 51.553999 26 51 26 L 41.542969 26 z M 13 34 C 12.446004 34 12 34.446001 12 35 C 12 35.553999 12.446004 36 13 36 L 23.201172 36 A 11 11 0 0 1 23 34 L 13 34 z M 25 34 A 9 9 0 0 0 25.253906 36 L 42.746094 36 A 9 9 0 0 0 43 34 L 25 34 z M 45 34 A 11 11 0 0 1 44.816406 36 L 51 36 C 51.553999 36 52 35.553999 52 35 C 52 34.446001 51.553999 34 51 34 L 45 34 z M 13 42 C 12.446004 42 12 42.446001 12 43 C 12 43.553999 12.446004 44 13 44 L 29.488281 44 A 11 11 0 0 1 26.482422 42 L 13 42 z M 29.939453 42 A 9 9 0 0 0 31.960938 42.736328 C 31.845073 42.312179 31.461883 42 31 42 L 29.939453 42 z " />
    <path
       id="path557"
       style="opacity:1;stroke-width:2.2;stroke-linecap:round"
       d="m 34,23 a 11,11 0 0 0 -11,11 11,11 0 0 0 11,11 11,11 0 0 0 7.039062,-2.546875 l 7.810547,7.810547 c 0.391737,0.391737 1.022326,0.391737 1.414063,0 0.391737,-0.391737 0.391737,-1.022326 0,-1.414063 L 42.453125,41.039062 A 11,11 0 0 0 45,34 11,11 0 0 0 34,23 Z m 0,2 a 9,9 0 0 1 9,9 9,9 0 0 1 -2.636719,6.363281 A 9,9 0 0 1 34,43 9,9 0 0 1 25,34 9,9 0 0 1 34,25 Z" />
  </g>
</svg>
