<?xml version="1.0" encoding="UTF-8" standalone="no"?>
<!-- Created with Inkscape (http://www.inkscape.org/) -->

<svg
   width="32"
   height="32"
   viewBox="0 0 32 32"
   version="1.1"
   id="svg5"
   inkscape:version="1.2.2 (1:1.2.2+202305151914+b0a8486541)"
   sodipodi:docname="applications-all.svg"
   xmlns:inkscape="http://www.inkscape.org/namespaces/inkscape"
   xmlns:sodipodi="http://sodipodi.sourceforge.net/DTD/sodipodi-0.dtd"
   xmlns="http://www.w3.org/2000/svg"
   xmlns:svg="http://www.w3.org/2000/svg">
  <sodipodi:namedview
     id="namedview7"
     pagecolor="#ffffff"
     bordercolor="#000000"
     borderopacity="0.25"
     inkscape:showpageshadow="2"
     inkscape:pageopacity="0.0"
     inkscape:pagecheckerboard="0"
     inkscape:deskcolor="#d1d1d1"
     inkscape:document-units="px"
     showgrid="false"
     inkscape:zoom="25.1875"
     inkscape:cx="14.39206"
     inkscape:cy="16"
     inkscape:window-width="1920"
     inkscape:window-height="1008"
     inkscape:window-x="0"
     inkscape:window-y="0"
     inkscape:window-maximized="1"
     inkscape:current-layer="svg5" />
  <defs
     id="defs2">
    <style
       id="current-color-scheme"
       type="text/css">
         .ColorScheme-Text { color:#232629; }
         .ColorScheme-Highlight { color:#3daee9; }
     </style>
  </defs>
  <path
     d="M 13,3 C 3.8988095,3 2,4.939817 2,14 v 6 c 0,9.060183 1.8988095,11 11,11 h 6 c 9.10119,0 11,-1.939817 11,-11 V 14 C 30,4.939817 28.10119,3 19,3"
     style="opacity:0.2;fill:#000000;stroke-width:1;stroke-linecap:round;stroke-linejoin:round"
     id="path563" />
  <path
     id="path530"
     style="fill:currentColor;fill-opacity:1;stroke-width:1;stroke-linecap:round;stroke-linejoin:round"
     d="M 13,2 C 3.8988186,2 2,3.9398261 2,13 v 6 c 0,9.060174 1.8988186,11 11,11 h 6 c 9.101182,0 11,-1.939826 11,-11 V 13 C 30,3.9398261 28.101182,2 19,2 Z"
     class="ColorScheme-Highlight" />
  <path
     id="path433"
     style="fill:currentColor;fill-opacity:1;stroke-width:18;stroke-linecap:round;stroke-linejoin:round;opacity:0.6"
     d="m 9,6.9999999 c -1.1045688,0 -1.9999999,0.8954312 -1.9999999,1.9999999 C 7.0000001,10.104569 7.8954312,11 9,11 10.104566,11 11,10.104569 11,8.9999998 11,7.8954311 10.104566,6.9999999 9,6.9999999 Z m 7,0 c -1.10457,0 -2,0.8954312 -2,1.9999999 C 14,10.104569 14.89543,11 16,11 17.104568,11 18,10.104569 18,8.9999998 18,7.8954311 17.104568,6.9999999 16,6.9999999 Z m 7,0 c -1.104568,0 -2,0.8954312 -2,1.9999999 C 21,10.104569 21.895432,11 23,11 24.104568,11 25,10.104569 25,8.9999998 25,7.8954311 24.104568,6.9999999 23,6.9999999 Z M 9,14 c -1.1045687,0 -1.9999999,0.895432 -1.9999999,2 0,1.104568 0.8954312,2 1.9999999,2 1.104566,0 2,-0.895432 2,-2 0,-1.104568 -0.895434,-2 -2,-2 z m 7,0 c -1.10457,0 -2,0.895432 -2,2 0,1.104568 0.89543,2 2,2 1.104568,0 2,-0.895432 2,-2 0,-1.104568 -0.895432,-2 -2,-2 z m 7,0 c -1.104568,0 -2,0.895432 -2,2 0,1.104568 0.895432,2 2,2 1.104568,0 2,-0.895432 2,-2 0,-1.104568 -0.895432,-2 -2,-2 z M 9,21 c -1.1045687,0 -1.9999999,0.895432 -1.9999999,2 0,1.104568 0.8954312,2 1.9999999,2 1.104566,0 2,-0.895432 2,-2 0,-1.104568 -0.895434,-2 -2,-2 z m 7,0 c -1.10457,0 -2,0.895432 -2,2 0,1.104568 0.89543,2 2,2 1.10457,0 2,-0.895432 2,-2 0,-1.104568 -0.89543,-2 -2,-2 z m 7,0 c -1.104568,0 -2,0.895432 -2,2 0,1.104568 0.895432,2 2,2 1.104568,0 2,-0.895432 2,-2 0,-1.104568 -0.895432,-2 -2,-2 z"
     sodipodi:nodetypes="sssssssssssssssssssssssssssssssssssssssssssss"
     class="ColorScheme-Text" />
</svg>
