<?xml version="1.0" encoding="UTF-8" standalone="no"?>
<!-- Created with Inkscape (http://www.inkscape.org/) -->

<svg
   width="32"
   height="32"
   viewBox="0 0 32 32"
   version="1.1"
   id="svg5"
   inkscape:version="1.2.2 (1:1.2.2+202305151914+b0a8486541)"
   sodipodi:docname="brave-browser.svg"
   xmlns:inkscape="http://www.inkscape.org/namespaces/inkscape"
   xmlns:sodipodi="http://sodipodi.sourceforge.net/DTD/sodipodi-0.dtd"
   xmlns="http://www.w3.org/2000/svg"
   xmlns:svg="http://www.w3.org/2000/svg">
  <sodipodi:namedview
     id="namedview7"
     pagecolor="#ffffff"
     bordercolor="#000000"
     borderopacity="0.25"
     inkscape:showpageshadow="2"
     inkscape:pageopacity="0.0"
     inkscape:pagecheckerboard="0"
     inkscape:deskcolor="#d1d1d1"
     inkscape:document-units="px"
     showgrid="false"
     inkscape:zoom="25.1875"
     inkscape:cx="14.39206"
     inkscape:cy="16"
     inkscape:window-width="1920"
     inkscape:window-height="1008"
     inkscape:window-x="0"
     inkscape:window-y="0"
     inkscape:window-maximized="1"
     inkscape:current-layer="svg5" />
  <defs
     id="defs2">
    <style
       id="current-color-scheme"
       type="text/css">
         .ColorScheme-Text { color:#232629; }
         .ColorScheme-Highlight { color:#3daee9; }
     </style>
  </defs>
  <path
     d="M 13,3 C 3.8988095,3 2,4.939817 2,14 v 6 c 0,9.060182 1.8988095,11 11,11 h 6 c 9.10119,0 11,-1.939818 11,-11 V 14 C 30,4.939817 28.10119,3 19,3"
     style="opacity:0.2;fill:#000000;stroke-width:1;stroke-linecap:round;stroke-linejoin:round"
     id="path563" />
  <path
     id="path530"
     style="fill:currentColor;fill-opacity:1;stroke-width:1;stroke-linecap:round;stroke-linejoin:round"
     d="M 13,2 C 3.8988185,2 2,3.939826 2,13 v 6 c 0,9.060175 1.8988185,11 11,11 h 6 c 9.101182,0 11,-1.939825 11,-11 V 13 C 30,3.939826 28.101182,2 19,2 Z"
     class="ColorScheme-Highlight" />
  <path
     id="path494"
     style="display:inline;opacity:0.6;fill:currentColor;fill-opacity:1;stroke-width:0.482495;enable-background:new"
     d="m 12.666016,5 -1.904297,2.1992188 -0.751953,-0.3125 C 9.1949604,6.5478914 8.2118796,6.6798956 7.5664062,7.2167969 L 6,8.9609375 7.0585938,10.279297 6,12.039062 9.0527344,21.927734 c 0.4179696,1.003173 1.2594216,1.843575 2.3652346,2.367188 L 16,27 20.582031,24.294922 c 1.105815,-0.523613 1.947267,-1.364015 2.365235,-2.367188 L 26,12.039062 24.941406,10.279297 26,8.9609375 24.433594,7.2167969 C 23.78812,6.6799942 22.80504,6.5478914 21.990234,6.8867188 l -0.751953,0.3125 L 19.333984,5 Z m 3.332031,2.6269531 c 0.550239,0 1.101682,0.1227799 1.59375,0.3691407 0.677225,0.3343716 1.481419,0.4537567 2.253906,0.3261718 l 1.443359,-0.2421875 1.96875,2.7324219 c 0.402092,0.470795 0.397548,1.098563 -0.02148,1.560547 l 0.002,0.002 -2.476562,2.744141 0.300781,0.375 c 0.217042,0.268413 0.324219,0.580683 0.324219,0.888671 0,0.343183 -0.127637,0.681286 -0.386719,0.962891 -0.275132,0.307989 -0.683269,0.555988 -1.080078,0.701172 -0.26985,0.101218 -0.534442,0.152344 -0.746094,0.152344 -0.476167,0 -1.383706,-0.712445 -2.644531,-1.464844 V 16.25 l 2.388672,-1.193359 c 0.1953,-0.09728 0.293326,-0.287848 0.24414,-0.472657 l -0.771484,-2.888672 c 0.09208,-0.178694 0.234992,-0.327029 0.447266,-0.423828 l 2.982421,-0.992187 -1.58789,-0.4394532 h -1.058594 l -0.0059,0.00781 c -0.05284,7.17e-4 -0.106817,0.00136 -0.160157,0.017578 l -1.58789,0.4394532 c -0.257132,0.07128 -0.408323,0.293692 -0.34961,0.513671 L 18.046875,14.46875 16,15.488281 13.953125,14.466797 14.929688,10.818359 c 0.05876,-0.220027 -0.09248,-0.441946 -0.34961,-0.513671 l -1.58789,-0.4394536 c -0.05358,-0.01485 -0.106837,-0.017578 -0.160157,-0.017578 l -0.0078,-0.00781 H 11.76759 L 10.1797,10.2793 l 2.982421,0.992187 c 0.212096,0.09678 0.355218,0.245209 0.447266,0.423828 l -0.771484,2.888672 c -0.04914,0.18488 0.04883,0.375416 0.24414,0.472657 l 2.388672,1.191406 v 0.496094 c -1.294677,0.767372 -2.178787,1.455078 -2.646484,1.455078 -0.211602,0 -0.47627,-0.05308 -0.746094,-0.154297 C 11.681289,17.89961 11.275108,17.653718 11,17.345703 10.507906,16.804495 10.480493,16.061733 10.93555,15.494141 l 0.302734,-0.375 L 8.7617188,12.375 C 8.3437492,11.913016 8.3392008,11.28332 8.7402348,10.8125 l 1.9667962,-2.7324219 1.445313,0.2421875 c 0.200984,0.0354 0.406937,0.046875 0.613281,0.046875 0.571425,0 1.143273,-0.1265451 1.640625,-0.3730468 0.492044,-0.2465108 1.041531,-0.3691407 1.591797,-0.3691407 z m 0.002,10.1328129 c 0.529105,0 3.173828,1.320312 3.173828,1.320312 l -3.173828,2.640625 -3.173828,-2.640625 c 0,0 2.644723,-1.320312 3.173828,-1.320312 z"
     class="ColorScheme-Text" />
</svg>
