<?xml version="1.0" encoding="UTF-8" standalone="no"?>
<!-- Created with Inkscape (http://www.inkscape.org/) -->

<svg
   width="32"
   height="32"
   viewBox="0 0 32 32"
   version="1.1"
   id="svg5"
   inkscape:version="1.2.2 (1:1.2.2+202305151914+b0a8486541)"
   sodipodi:docname="google-chrome.svg"
   xmlns:inkscape="http://www.inkscape.org/namespaces/inkscape"
   xmlns:sodipodi="http://sodipodi.sourceforge.net/DTD/sodipodi-0.dtd"
   xmlns="http://www.w3.org/2000/svg"
   xmlns:svg="http://www.w3.org/2000/svg">
  <sodipodi:namedview
     id="namedview7"
     pagecolor="#ffffff"
     bordercolor="#000000"
     borderopacity="0.25"
     inkscape:showpageshadow="2"
     inkscape:pageopacity="0.0"
     inkscape:pagecheckerboard="0"
     inkscape:deskcolor="#d1d1d1"
     inkscape:document-units="px"
     showgrid="false"
     inkscape:zoom="25.1875"
     inkscape:cx="14.39206"
     inkscape:cy="16"
     inkscape:window-width="1920"
     inkscape:window-height="1008"
     inkscape:window-x="0"
     inkscape:window-y="0"
     inkscape:window-maximized="1"
     inkscape:current-layer="svg5" />
  <defs
     id="defs2">
    <style
       id="current-color-scheme"
       type="text/css">
         .ColorScheme-Text { color:#232629; }
         .ColorScheme-Highlight { color:#3daee9; }
     </style>
  </defs>
  <path
     d="M 13,3 C 3.8988095,3 2,4.939817 2,14 v 6 c 0,9.060182 1.8988095,11 11,11 h 6 c 9.10119,0 11,-1.939818 11,-11 V 14 C 30,4.939817 28.10119,3 19,3"
     style="opacity:0.2;fill:#000000;stroke-width:1;stroke-linecap:round;stroke-linejoin:round"
     id="path563" />
  <path
     id="path530"
     style="fill:currentColor;fill-opacity:1;stroke-width:1;stroke-linecap:round;stroke-linejoin:round"
     d="M 13,2 C 3.8988185,2 2,3.939826 2,13 v 6 c 0,9.060175 1.8988185,11 11,11 h 6 c 9.101182,0 11,-1.939825 11,-11 V 13 C 30,3.939826 28.101182,2 19,2 Z"
     class="ColorScheme-Highlight" />
  <path
     id="path246"
     style="opacity:0.6;fill:currentColor;stroke-linecap:round;stroke-linejoin:round"
     d="M 15.999983,5.9999796 A 10,10 0 0 0 7.9667798,10.087871 l 3.0742192,5.32617 a 5.0000343,5.0000334 0 0 1 4.958984,-4.414062 h 8.658203 A 10,10 0 0 0 15.999983,5.9999796 Z M 7.3534986,11.023417 a 10,10 0 0 0 -1.3535156,4.976562 10,10 0 0 0 8.892578,9.921875 l 3.078125,-5.333984 a 5.0000343,5.0000334 0 0 1 -1.970703,0.412109 5.0000343,5.0000334 0 0 1 -4.320312,-2.505859 l -0.0098,0.0059 z m 8.6464844,0.976562 a 4,3.9999981 0 0 0 -4,4 4,3.9999981 0 0 0 4,4 4,3.9999981 0 0 0 4,-4 4,3.9999981 0 0 0 -4,-4 z m 2.998047,0 a 5.0000343,5.0000334 0 0 1 2.001953,4 5.0000343,5.0000334 0 0 1 -0.679688,2.494141 l 0.0098,0.0059 -4.330078,7.5 a 10,10 0 0 0 10,-10 10,10 0 0 0 -0.837891,-4 z"
     class="ColorScheme-Text" />
</svg>
