<?xml version="1.0" encoding="UTF-8" standalone="no"?>
<!-- Created with Inkscape (http://www.inkscape.org/) -->

<svg
   width="32"
   height="32"
   viewBox="0 0 32 32"
   version="1.1"
   id="svg5"
   inkscape:version="1.2.2 (1:1.2.2+202305151914+b0a8486541)"
   sodipodi:docname="internet-web-browser.svg"
   xmlns:inkscape="http://www.inkscape.org/namespaces/inkscape"
   xmlns:sodipodi="http://sodipodi.sourceforge.net/DTD/sodipodi-0.dtd"
   xmlns="http://www.w3.org/2000/svg"
   xmlns:svg="http://www.w3.org/2000/svg">
  <sodipodi:namedview
     id="namedview7"
     pagecolor="#ffffff"
     bordercolor="#000000"
     borderopacity="0.25"
     inkscape:showpageshadow="2"
     inkscape:pageopacity="0.0"
     inkscape:pagecheckerboard="0"
     inkscape:deskcolor="#d1d1d1"
     inkscape:document-units="px"
     showgrid="false"
     inkscape:zoom="25.1875"
     inkscape:cx="14.39206"
     inkscape:cy="16"
     inkscape:window-width="1920"
     inkscape:window-height="1008"
     inkscape:window-x="0"
     inkscape:window-y="0"
     inkscape:window-maximized="1"
     inkscape:current-layer="svg5" />
  <defs
     id="defs2">
    <style
       id="current-color-scheme"
       type="text/css">
         .ColorScheme-Text { color:#232629; }
         .ColorScheme-Highlight { color:#3daee9; }
     </style>
  </defs>
  <path
     d="M 13,3 C 3.8988095,3 2,4.939817 2,14 v 6 c 0,9.060183 1.8988095,11 11,11 h 6 c 9.10119,0 11,-1.939817 11,-11 V 14 C 30,4.939817 28.10119,3 19,3"
     style="opacity:0.2;fill:#000000;stroke-width:1;stroke-linecap:round;stroke-linejoin:round"
     id="path563" />
  <path
     id="path530"
     style="fill:currentColor;fill-opacity:1;stroke-width:1;stroke-linecap:round;stroke-linejoin:round"
     d="M 13,2 C 3.8988186,2 2,3.9398261 2,13 v 6 c 0,9.060174 1.8988186,11 11,11 h 6 c 9.101182,0 11,-1.939826 11,-11 V 13 C 30,3.9398261 28.101182,2 19,2 Z"
     class="ColorScheme-Highlight" />
  <path
     id="path285"
     style="opacity:0.6;fill:currentColor;fill-opacity:1;stroke-width:3.6;stroke-linecap:round;stroke-linejoin:round"
     d="M 23.46661,6.2772724 A 4.5,13 45 0 0 19.43536,7.6835224 9,9 0 0 0 15.999813,6.9999286 9,9 0 0 0 6.9998131,15.999929 9,9 0 0 0 7.6912193,19.423757 4.5,13 45 0 0 6.8064537,25.193288 4.5,13 45 0 0 19.181454,19.18157 4.5,13 45 0 0 25.193172,6.8065692 4.5,13 45 0 0 23.46661,6.2772724 Z m 1.25,7.4824226 c -1.199368,2.047315 -2.87895,4.179405 -4.828125,6.128906 -1.950485,1.94445 -4.081047,3.617784 -6.125,4.810547 0.729871,0.193681 1.48122,0.294736 2.236328,0.300781 4.970558,0 9,-4.029442 9,-9 2.2e-5,-0.755672 -0.09513,-1.508341 -0.283203,-2.240234 z"
     class="ColorScheme-Text" />
</svg>
