<?xml version="1.0" encoding="UTF-8" standalone="no"?>
<!-- Created with Inkscape (http://www.inkscape.org/) -->

<svg
   width="32"
   height="32"
   viewBox="0 0 32 32"
   version="1.1"
   id="svg5"
   inkscape:version="1.2.2 (1:1.2.2+202305151914+b0a8486541)"
   sodipodi:docname="office-address-book.svg"
   xmlns:inkscape="http://www.inkscape.org/namespaces/inkscape"
   xmlns:sodipodi="http://sodipodi.sourceforge.net/DTD/sodipodi-0.dtd"
   xmlns="http://www.w3.org/2000/svg"
   xmlns:svg="http://www.w3.org/2000/svg">
  <sodipodi:namedview
     id="namedview7"
     pagecolor="#ffffff"
     bordercolor="#000000"
     borderopacity="0.25"
     inkscape:showpageshadow="2"
     inkscape:pageopacity="0.0"
     inkscape:pagecheckerboard="0"
     inkscape:deskcolor="#d1d1d1"
     inkscape:document-units="px"
     showgrid="false"
     inkscape:zoom="25.1875"
     inkscape:cx="14.39206"
     inkscape:cy="16"
     inkscape:window-width="1920"
     inkscape:window-height="1008"
     inkscape:window-x="0"
     inkscape:window-y="0"
     inkscape:window-maximized="1"
     inkscape:current-layer="svg5" />
  <defs
     id="defs2">
    <style
       id="current-color-scheme"
       type="text/css">
         .ColorScheme-Text { color:#232629; }
         .ColorScheme-Highlight { color:#3daee9; }
     </style>
  </defs>
  <path
     d="M 13,3 C 3.8988095,3 2,4.939817 2,14 v 6 c 0,9.060183 1.8988095,11 11,11 h 6 c 9.10119,0 11,-1.939817 11,-11 V 14 C 30,4.939817 28.10119,3 19,3"
     style="opacity:0.2;fill:#000000;stroke-width:1;stroke-linecap:round;stroke-linejoin:round"
     id="path563" />
  <path
     id="path530"
     style="fill:currentColor;fill-opacity:1;stroke-width:1;stroke-linecap:round;stroke-linejoin:round"
     class="ColorScheme-Highlight"
     d="M 13,2 C 3.8988186,2 2,3.9398261 2,13 v 6 c 0,9.060174 1.8988186,11 11,11 h 6 c 9.101182,0 11,-1.939826 11,-11 V 13 C 30,3.9398261 28.101182,2 19,2 Z" />
  <path
     id="rect396"
     style="opacity:0.3;fill:currentColor;stroke-width:1.82574"
     class="ColorScheme-Text"
     d="M 13.273438 16.724609 C 8.9626003 19.50616 7 21.172529 7 23 L 7 24 C 7 25.107991 7.8920091 26 9 26 L 23 26 C 24.107991 26 25 25.107991 25 24 L 25 23 C 25 21.172529 23.0374 19.50616 18.726562 16.724609 C 17.942002 17.507692 17.006627 18 16 18 C 14.993373 18 14.057998 17.507692 13.273438 16.724609 z " />
  <path
     id="path234"
     style="fill:currentColor;stroke-width:1.36931;opacity:0.6"
     class="ColorScheme-Text"
     d="m 21,11 c 0,3.313709 -2.238577,7 -5,7 -2.761423,0 -5,-3.686291 -5,-7 0,-3.313709 2.238577,-5 5,-5 2.761423,0 5,1.686291 5,5 z"
     sodipodi:nodetypes="sssss" />
</svg>
