<?xml version="1.0" encoding="UTF-8" standalone="no"?>
<!-- Created with Inkscape (http://www.inkscape.org/) -->

<svg
   width="32"
   height="32"
   viewBox="0 0 32 32"
   version="1.1"
   id="svg5"
   inkscape:version="1.2.2 (1:1.2.2+202305151914+b0a8486541)"
   sodipodi:docname="preferences-desktop-peripherals.svg"
   xmlns:inkscape="http://www.inkscape.org/namespaces/inkscape"
   xmlns:sodipodi="http://sodipodi.sourceforge.net/DTD/sodipodi-0.dtd"
   xmlns="http://www.w3.org/2000/svg"
   xmlns:svg="http://www.w3.org/2000/svg">
  <sodipodi:namedview
     id="namedview7"
     pagecolor="#ffffff"
     bordercolor="#000000"
     borderopacity="0.25"
     inkscape:showpageshadow="2"
     inkscape:pageopacity="0.0"
     inkscape:pagecheckerboard="0"
     inkscape:deskcolor="#d1d1d1"
     inkscape:document-units="px"
     showgrid="false"
     inkscape:zoom="25.1875"
     inkscape:cx="15.980149"
     inkscape:cy="16"
     inkscape:window-width="1920"
     inkscape:window-height="1008"
     inkscape:window-x="0"
     inkscape:window-y="0"
     inkscape:window-maximized="1"
     inkscape:current-layer="svg5" />
  <defs
     id="defs2">
    <style
       id="current-color-scheme"
       type="text/css">
         .ColorScheme-Text { color:#232629; }
         .ColorScheme-Highlight { color:#3daee9; }
     </style>
  </defs>
  <path
     d="M 13,3 C 3.8988095,3 2,4.939817 2,14 v 6 c 0,9.060182 1.8988095,11 11,11 h 6 c 9.10119,0 11,-1.939818 11,-11 V 14 C 30,4.939817 28.10119,3 19,3"
     style="opacity:0.2;fill:#000000;stroke-width:1;stroke-linecap:round;stroke-linejoin:round"
     id="path563" />
  <path
     id="path530"
     style="fill:currentColor;fill-opacity:1;stroke-width:1;stroke-linecap:round;stroke-linejoin:round"
     d="M 13,2 C 3.8988185,2 2,3.939826 2,13 v 6 c 0,9.060175 1.8988185,11 11,11 h 6 c 9.101182,0 11,-1.939825 11,-11 V 13 C 30,3.939826 28.101182,2 19,2 Z"
     class="ColorScheme-Highlight" />
  <path
     id="rect925"
     style="fill:currentColor;fill-opacity:1;stroke-width:2;stroke-linecap:round;stroke-linejoin:round;opacity:0.6"
     d="M 15,5.9999997 C 11.676007,5.9999997 9.0000001,8.6760073 9.0000001,12 v 8 c 0,3.323993 2.6760069,6 5.9999999,6 h 2 c 3.323993,0 6,-2.676007 6,-6 V 12 C 23,8.6760075 20.323993,5.9999997 17,5.9999997 Z m 1,2 c 0.553999,0 1,0.4460006 1,1 V 13 c 0,0.553998 -0.446001,1 -1,1 -0.553999,0 -1,-0.446002 -1,-1 V 8.9999997 c 0,-0.5539994 0.446001,-1 1,-1 z"
     class="ColorScheme-Text" />
</svg>
