<?xml version="1.0" encoding="UTF-8" standalone="no"?>
<!-- Created with Inkscape (http://www.inkscape.org/) -->

<svg
   width="32"
   height="32"
   viewBox="0 0 32 32"
   version="1.1"
   id="svg5"
   inkscape:version="1.2.2 (1:1.2.2+202305151914+b0a8486541)"
   sodipodi:docname="preferences-desktop-thunderbolt.svg"
   xmlns:inkscape="http://www.inkscape.org/namespaces/inkscape"
   xmlns:sodipodi="http://sodipodi.sourceforge.net/DTD/sodipodi-0.dtd"
   xmlns="http://www.w3.org/2000/svg"
   xmlns:svg="http://www.w3.org/2000/svg">
  <sodipodi:namedview
     id="namedview7"
     pagecolor="#ffffff"
     bordercolor="#000000"
     borderopacity="0.25"
     inkscape:showpageshadow="2"
     inkscape:pageopacity="0.0"
     inkscape:pagecheckerboard="0"
     inkscape:deskcolor="#d1d1d1"
     inkscape:document-units="px"
     showgrid="false"
     inkscape:zoom="25.1875"
     inkscape:cx="15.980149"
     inkscape:cy="16"
     inkscape:window-width="1920"
     inkscape:window-height="1008"
     inkscape:window-x="0"
     inkscape:window-y="0"
     inkscape:window-maximized="1"
     inkscape:current-layer="svg5" />
  <defs
     id="defs2">
    <style
       id="current-color-scheme"
       type="text/css">
         .ColorScheme-Text { color:#232629; }
         .ColorScheme-Highlight { color:#3daee9; }
     </style>
  </defs>
  <path
     d="M 13,3 C 3.8988095,3 2,4.939817 2,14 v 6 c 0,9.060182 1.8988095,11 11,11 h 6 c 9.10119,0 11,-1.939818 11,-11 V 14 C 30,4.939817 28.10119,3 19,3"
     style="opacity:0.2;fill:#000000;stroke-width:1;stroke-linecap:round;stroke-linejoin:round"
     id="path563" />
  <path
     id="path530"
     style="fill:currentColor;fill-opacity:1;stroke-width:1;stroke-linecap:round;stroke-linejoin:round"
     d="M 13,2 C 3.8988185,2 2,3.939826 2,13 v 6 c 0,9.060175 1.8988185,11 11,11 h 6 c 9.101182,0 11,-1.939825 11,-11 V 13 C 30,3.939826 28.101182,2 19,2 Z"
     class="ColorScheme-Highlight" />
  <path
     id="path290"
     style="opacity:0.6;fill:currentColor;stroke-linecap:round;stroke-linejoin:round"
     d="M 14.892578,6.078 A 10,10 0 0 0 6.0000001,15.999875 10,10 0 0 0 16,25.999874 10,10 0 0 0 26,15.999875 10,10 0 0 0 19.408203,6.5994844 l -2.951172,6.4003906 h 4.076172 l -4.611328,6.957031 2.162109,0.224609 L 13,23.999874 l -0.0625,-6.412109 1.308594,1.558593 1.634765,-4.146484 h -4.548828 z"
     class="ColorScheme-Text" />
</svg>
