<?xml version="1.0" encoding="UTF-8" standalone="no"?>
<svg
   height="24"
   width="24"
   version="1.1"
   id="svg2"
   sodipodi:docname="input-touchpad-off.svg"
   inkscape:version="1.4.2 (ebf0e940d0, 2025-05-08)"
   xmlns:inkscape="http://www.inkscape.org/namespaces/inkscape"
   xmlns:sodipodi="http://sodipodi.sourceforge.net/DTD/sodipodi-0.dtd"
   xmlns="http://www.w3.org/2000/svg"
   xmlns:svg="http://www.w3.org/2000/svg">
  <defs
     id="defs2">
    <style
       id="current-color-scheme"
       type="text/css">
        .ColorScheme-Text { color:#363636; }
        .ColorScheme-NeutralText { color:#f67400; }
        .ColorScheme-PositiveText { color:#37c837; }
        .ColorScheme-NegativeText { color:#f44336; }
        .ColorScheme-Highlight { color:#3daee9; }
     </style>
  </defs>
  <sodipodi:namedview
     id="namedview2"
     pagecolor="#ffffff"
     bordercolor="#000000"
     borderopacity="0.25"
     inkscape:showpageshadow="2"
     inkscape:pageopacity="0.0"
     inkscape:pagecheckerboard="0"
     inkscape:deskcolor="#d1d1d1"
     inkscape:zoom="33.125"
     inkscape:cx="12"
     inkscape:cy="12"
     inkscape:window-width="1920"
     inkscape:window-height="1010"
     inkscape:window-x="0"
     inkscape:window-y="0"
     inkscape:window-maximized="1"
     inkscape:current-layer="svg2"
     showguides="true" />
  <path
     id="path1"
     style="line-height:normal;font-variant-ligatures:normal;font-variant-position:normal;font-variant-caps:normal;font-variant-numeric:normal;font-variant-alternates:normal;font-feature-settings:normal;text-indent:0;text-align:start;text-decoration-line:none;text-decoration-style:solid;text-decoration-color:#000000;text-transform:none;text-orientation:mixed;shape-padding:0;opacity:0.3;isolation:auto;mix-blend-mode:normal;fill:currentColor"
     class="ColorScheme-Text"
     d="M 5.5,5 C 4.678,5 4,5.677 4,6.5 v 11 C 4,18.322 4.678,19 5.5,19 H 14 V 18 H 12.009766 V 15.990234 H 14 v -1 H 5 V 6.5 C 5,6.214 5.215,6 5.5,6 h 12 C 17.786,6 18,6.214 18,6.5 v 7.490234 h 1 V 6.5 C 19,5.677 18.323,5 17.5,5 Z M 5,15.990234 h 6.009766 V 18 H 5.5 A 0.488,0.488 0 0 1 5,17.5 Z" />
  <path
     id="path2"
     style="fill:currentColor;marker:none"
     class="ColorScheme-Text"
     d="m 15,15 v 1.470703 L 16.0625,17.53125 15,18.59375 V 20 h 1.4375 L 17.5,18.9375 18.5625,20 H 20 V 18.59375 L 18.90625,17.53125 20,16.46875 V 15 H 18.59375 L 17.5,16.09375 16.375,15 Z" />
</svg>
