<?xml version="1.0" encoding="UTF-8" standalone="no"?>
<!-- Created with Inkscape (http://www.inkscape.org/) -->

<svg
   width="24"
   height="24"
   viewBox="0 0 24 24"
   version="1.1"
   id="svg5"
   inkscape:version="1.2.1 (9c6d41e410, 2022-07-14)"
   sodipodi:docname="mintupdate-checking.svg"
   xmlns:inkscape="http://www.inkscape.org/namespaces/inkscape"
   xmlns:sodipodi="http://sodipodi.sourceforge.net/DTD/sodipodi-0.dtd"
   xmlns="http://www.w3.org/2000/svg"
   xmlns:svg="http://www.w3.org/2000/svg">
  <sodipodi:namedview
     id="namedview7"
     pagecolor="#ffffff"
     bordercolor="#000000"
     borderopacity="0.25"
     inkscape:showpageshadow="2"
     inkscape:pageopacity="0.0"
     inkscape:pagecheckerboard="0"
     inkscape:deskcolor="#d1d1d1"
     inkscape:document-units="px"
     showgrid="false"
     inkscape:zoom="33.666667"
     inkscape:cx="12"
     inkscape:cy="12"
     inkscape:window-width="1920"
     inkscape:window-height="1011"
     inkscape:window-x="0"
     inkscape:window-y="32"
     inkscape:window-maximized="1"
     inkscape:current-layer="svg5" />
  <defs
     id="defs2">
    <style
       id="current-color-scheme"
       type="text/css">
   .ColorScheme-Text { color:#363636; } .ColorScheme-Highlight { color:#3daee9; } .ColorScheme-NeutralText { color:#ff9800; } .ColorScheme-PositiveText { color:#4caf50; } .ColorScheme-NegativeText { color:#f44336; }
   </style>
  </defs>
  <path
     id="rect3333"
     style="fill:currentColor;fill-opacity:1;stroke:none;stroke-width:1;stroke-linecap:square;stroke-linejoin:round;stroke-dasharray:none;stroke-opacity:1"
     class="ColorScheme-Text"
     d="m 12.007813,5 c -0.0882,-0.00111 -0.175124,0.021123 -0.251954,0.064453 0,0 -1.436874,0.8115822 -5.3945309,1.9550781 C 6.1473118,7.0813284 5.9999795,7.2772403 6,7.5 c -1.699e-4,7.9948 5.746094,11.431641 5.746094,11.431641 0.156676,0.09234 0.351136,0.09234 0.507812,0 0,0 5.746264,-3.436841 5.746094,-11.431641 C 17.999915,7.274317 17.848671,7.0766601 17.630859,7.0175781 13.695534,5.9455903 12.257813,5.0722656 12.257813,5.0722656 12.182318,5.0265352 12.096063,5.0016022 12.007813,5 Z m -0.03711,1.0351562 c 0.248458,0.1393601 1.711635,0.8745436 4.970703,1.8046876 C 16.776963,14.50467 12.679372,17.449945 12,17.884766 11.320172,17.449653 7.2156183,14.502314 7.0566406,7.828125 10.265867,6.8495148 11.833217,6.1094147 11.970703,6.0351562 Z M 12,8 c -1.270899,6e-4 -2.4025623,0.8019012 -2.8261719,2 H 10.269531 C 10.626431,9.3818306 11.286201,9.0007321 12,9 c 0.481329,0.00115 0.945674,0.1760178 1.308594,0.4921875 L 12.400391,10.017578 14.699219,11 14.820312,10 h 0.0039 l -0.0039,-0.00781 0.177735,-1.4746094 -0.789063,0.4570313 C 13.641685,8.35455 12.840389,8.00125 12,8 Z M 9.2988281,11.017578 9.1796875,12 h -0.00391 l 0.00391,0.0098 L 9,13.5 9.8027344,13.037109 C 10.369134,13.649969 11.165541,13.9989 12,14 c 1.270499,-10e-4 2.402682,-0.802201 2.826172,-2 H 13.730469 C 13.373569,12.618169 12.713799,12.999268 12,13 11.523431,12.99924 11.062912,12.827888 10.701172,12.517578 L 11.597656,12 Z" />
</svg>
