<?xml version="1.0" encoding="UTF-8" standalone="no"?>
<!-- Created with Inkscape (http://www.inkscape.org/) -->

<svg
   width="24"
   height="24"
   viewBox="0 0 24 24"
   version="1.1"
   id="svg5"
   inkscape:version="1.2.1 (9c6d41e410, 2022-07-14)"
   sodipodi:docname="network-cellular-5g.svg"
   xmlns:inkscape="http://www.inkscape.org/namespaces/inkscape"
   xmlns:sodipodi="http://sodipodi.sourceforge.net/DTD/sodipodi-0.dtd"
   xmlns="http://www.w3.org/2000/svg"
   xmlns:svg="http://www.w3.org/2000/svg">
  <sodipodi:namedview
     id="namedview7"
     pagecolor="#ffffff"
     bordercolor="#000000"
     borderopacity="0.25"
     inkscape:showpageshadow="2"
     inkscape:pageopacity="0.0"
     inkscape:pagecheckerboard="0"
     inkscape:deskcolor="#d1d1d1"
     inkscape:document-units="px"
     showgrid="false"
     showguides="true"
     inkscape:zoom="33.416667"
     inkscape:cx="12"
     inkscape:cy="12"
     inkscape:window-width="1920"
     inkscape:window-height="1008"
     inkscape:window-x="0"
     inkscape:window-y="0"
     inkscape:window-maximized="1"
     inkscape:current-layer="svg5" />
  <defs
     id="defs2">
    <style
       id="current-color-scheme"
       type="text/css">
         .ColorScheme-Text { color:#363636; }
     </style>
  </defs>
  <path
     id="rect1055"
     style="fill:currentColor;stroke-width:2.26822;stroke-linecap:round;stroke-linejoin:round;paint-order:stroke fill markers"
     class="ColorScheme-Text"
     d="M 6.5,8 6,13 H 7 C 7.2456842,12.2735 7.9384418,12.002064 8.5,12 9.6872104,12 10,12.86561 10,13.625 10,14.38439 9.3284255,15 8.5,15 7.8312195,14.997695 7.2448912,14.589814 7.0625,14 H 6.0332031 C 6.2270394,15.151621 7.2723683,15.99914 8.5,16 9.8807091,16 11,14.936674 11,13.625 11,12.313326 10.056269,11.00867 8.5,11 8.0242783,11.000665 7.5574984,11.173863 7.1542969,11.451172 L 7.4003906,9 H 10.75 V 8 Z M 15,8 c -1.999439,0 -3,1.3773376 -3,4 v 0.400391 C 12,14.628279 12.992255,16 15,16 c 2.070025,0 3,-1.290474 3,-3 v -1 h -1 -2 v 1 h 2 c -0.09089,1.041184 -0.339114,1.993898 -2,2 -1.242628,0.0046 -2.036829,-0.899275 -2,-3 0.03819,-2.1782274 0.591083,-2.9882844 2,-3 1.478602,0.00521 1.797988,0.7872702 2,2 h 1 C 17.754897,8.8511241 16.487734,8 15,8 Z" />
</svg>
