<?xml version="1.0" encoding="UTF-8" standalone="no"?>
<!-- Created with Inkscape (http://www.inkscape.org/) -->

<svg
   width="24"
   height="24"
   viewBox="0 0 24 24"
   version="1.1"
   id="svg5"
   inkscape:version="1.2.1 (9c6d41e410, 2022-07-14)"
   sodipodi:docname="network-wireless-signal-none.svg"
   xmlns:inkscape="http://www.inkscape.org/namespaces/inkscape"
   xmlns:sodipodi="http://sodipodi.sourceforge.net/DTD/sodipodi-0.dtd"
   xmlns="http://www.w3.org/2000/svg"
   xmlns:svg="http://www.w3.org/2000/svg">
  <sodipodi:namedview
     id="namedview7"
     pagecolor="#ffffff"
     bordercolor="#666666"
     borderopacity="1.0"
     inkscape:showpageshadow="2"
     inkscape:pageopacity="0.0"
     inkscape:pagecheckerboard="0"
     inkscape:deskcolor="#d1d1d1"
     inkscape:document-units="px"
     showgrid="false"
     showguides="false"
     inkscape:zoom="33.416667"
     inkscape:cx="12"
     inkscape:cy="12"
     inkscape:window-width="1920"
     inkscape:window-height="1008"
     inkscape:window-x="0"
     inkscape:window-y="0"
     inkscape:window-maximized="1"
     inkscape:current-layer="svg5" />
  <defs
     id="defs2">
    <style
       id="current-color-scheme"
       type="text/css">
         .ColorScheme-Text { color:#363636; }
     </style>
  </defs>
  <path
     id="path2346"
     style="opacity:0.2;fill:currentColor;fill-opacity:1;stroke-width:2;stroke-linecap:square;paint-order:stroke fill markers"
     class="ColorScheme-Text"
     d="m 12,7 c -2.840486,-3e-7 -5.4324386,1.0071116 -7.4863281,2.6582031 -0.034685,0.020162 -0.066817,0.044425 -0.095703,0.072266 -0.098095,0.093874 -0.1537921,0.2236009 -0.1542969,0.3593749 0,0.276141 0.223859,0.5 0.5,0.5 0.1160499,3.3e-4 0.228602,-0.03972 0.3183593,-0.113281 C 6.9730222,8.9377697 9.371813,8 12,8 c 2.628185,-3e-7 5.026879,0.93773 6.917969,2.476563 0.08976,0.07356 0.202308,0.113611 0.318359,0.113281 0.276142,0 0.5,-0.223859 0.5,-0.5 -5.05e-4,-0.1357743 -0.05621,-0.2655014 -0.154297,-0.3593752 -0.02889,-0.027841 -0.06102,-0.052104 -0.0957,-0.072266 C 17.432435,8.0071119 14.840385,7 12,7 Z m 0,3 c -2.0730895,0 -3.9680892,0.71725 -5.4882812,1.896484 -0.036843,0.02037 -0.070969,0.0453 -0.1015626,0.07422 -0.099301,0.09401 -0.1557673,0.224587 -0.15625,0.361329 0,0.276141 0.2238591,0.5 0.5,0.5 0.1169606,2.35e-4 0.2303064,-0.04054 0.3203126,-0.115235 C 8.4330118,11.648002 10.13691,11 12,11 c 1.86309,0 3.566991,0.647962 4.925781,1.716797 0.09001,0.07469 0.203352,0.11547 0.320313,0.115234 0.276137,0 0.5,-0.223858 0.5,-0.5 -4.83e-4,-0.136741 -0.05695,-0.267318 -0.15625,-0.361328 -0.03059,-0.02892 -0.06472,-0.05385 -0.101563,-0.07422 C 15.968091,10.717291 14.07309,10 12,10 Z m 0,3 c -1.352494,0 -2.5832414,0.468923 -3.5859375,1.224609 -0.1103396,0.09497 -0.1679491,0.239176 -0.1679687,0.384766 0,0.27614 0.2238608,0.5 0.5,0.5 0.1243592,-3.26e-4 0.2441278,-0.04698 0.3359374,-0.130859 C 9.904178,14.375456 10.901904,14 12,14 c 1.098096,0 2.095773,0.375456 2.917969,0.978516 0.09181,0.08388 0.211577,0.130529 0.335937,0.130859 0.27614,0 0.5,-0.22386 0.5,-0.5 -1.6e-5,-0.14559 -0.05762,-0.289796 -0.167968,-0.384766 C 14.583242,13.468913 13.352494,13 12,13 Z m 0,3 c -0.552284,0 -1,0.447716 -1,1 0,0.552284 0.447716,1 1,1 0.552284,0 1,-0.447716 1,-1 0,-0.552284 -0.447716,-1 -1,-1 z" />
</svg>
