<?xml version="1.0" encoding="UTF-8" standalone="no"?>
<!-- Created with Inkscape (http://www.inkscape.org/) -->

<svg
   width="24"
   height="24"
   viewBox="0 0 24 24"
   version="1.1"
   id="svg5"
   inkscape:version="1.2.1 (9c6d41e410, 2022-07-14)"
   sodipodi:docname="network-cellular-signal-low.svg"
   xmlns:inkscape="http://www.inkscape.org/namespaces/inkscape"
   xmlns:sodipodi="http://sodipodi.sourceforge.net/DTD/sodipodi-0.dtd"
   xmlns="http://www.w3.org/2000/svg"
   xmlns:svg="http://www.w3.org/2000/svg">
  <sodipodi:namedview
     id="namedview7"
     pagecolor="#ffffff"
     bordercolor="#666666"
     borderopacity="1.0"
     inkscape:showpageshadow="2"
     inkscape:pageopacity="0.0"
     inkscape:pagecheckerboard="0"
     inkscape:deskcolor="#d1d1d1"
     inkscape:document-units="px"
     showgrid="false"
     showguides="true"
     inkscape:zoom="33.416667"
     inkscape:cx="12"
     inkscape:cy="12"
     inkscape:window-width="1920"
     inkscape:window-height="1008"
     inkscape:window-x="0"
     inkscape:window-y="0"
     inkscape:window-maximized="1"
     inkscape:current-layer="svg5" />
  <defs
     id="defs2">
    <style
       id="current-color-scheme"
       type="text/css">
         .ColorScheme-Text { color:#363636; }
     </style>
  </defs>
  <path
     id="rect788"
     style="opacity:0.2;fill:currentColor;stroke-linecap:round;stroke-linejoin:round"
     class="ColorScheme-Text"
     d="m 18,5 c -0.553998,0 -1,0.4460012 -1,1 v 12 c 0,0.553998 0.446002,1 1,1 0.553998,0 1,-0.446002 1,-1 V 6 C 19,5.4460012 18.553998,5 18,5 Z m -4,3 c -0.553998,0 -1,0.4460012 -1,1 v 9 c 0,0.553998 0.446002,1 1,1 0.553998,0 1,-0.446002 1,-1 V 9 C 15,8.4460012 14.553998,8 14,8 Z m -4,3 c -0.5539984,0 -1,0.446002 -1,1 v 6 c 0,0.553998 0.4460016,1 1,1 0.553999,0 1,-0.446002 1,-1 v -6 c 0,-0.553998 -0.446001,-1 -1,-1 z" />
  <path
     id="rect898"
     style="fill:currentColor;stroke-linecap:round;stroke-linejoin:round"
     d="m 6,15 c -0.553999,0 -1,0.446001 -1,1 v 2 c 0,0.553999 0.446001,1 1,1 0.553999,0 1,-0.446001 1,-1 V 16 C 7,15.446001 6.553999,15 6,15 Z"
     class="ColorScheme-Text"
     sodipodi:nodetypes="sssssss" />
</svg>
