<?xml version="1.0" encoding="UTF-8" standalone="no"?>
<svg
   width="24"
   height="24"
   version="1.1"
   id="svg2"
   sodipodi:docname="user-idle.svg"
   inkscape:version="1.4.2 (ebf0e940d0, 2025-05-08)"
   xmlns:inkscape="http://www.inkscape.org/namespaces/inkscape"
   xmlns:sodipodi="http://sodipodi.sourceforge.net/DTD/sodipodi-0.dtd"
   xmlns="http://www.w3.org/2000/svg"
   xmlns:svg="http://www.w3.org/2000/svg">
  <defs
     id="defs2">
    <style
       id="current-color-scheme"
       type="text/css">
        .ColorScheme-Text { color:#363636; }
        .ColorScheme-NeutralText { color:#f67400; }
        .ColorScheme-PositiveText { color:#37c837; }
        .ColorScheme-NegativeText { color:#f44336; }
        .ColorScheme-Highlight { color:#3daee9; }
     </style>
  </defs>
  <sodipodi:namedview
     id="namedview2"
     pagecolor="#ffffff"
     bordercolor="#000000"
     borderopacity="0.25"
     inkscape:showpageshadow="2"
     inkscape:pageopacity="0.0"
     inkscape:pagecheckerboard="0"
     inkscape:deskcolor="#d1d1d1"
     inkscape:zoom="33.125"
     inkscape:cx="12"
     inkscape:cy="12"
     inkscape:window-width="1920"
     inkscape:window-height="1010"
     inkscape:window-x="0"
     inkscape:window-y="0"
     inkscape:window-maximized="1"
     inkscape:current-layer="svg2" />
  <path
     id="path1"
     style="fill:currentColor;opacity:0.5"
     class="ColorScheme-Text"
     d="M 6,5 C 4.892,5 4,5.892 4,7 v 8 c 0,1.108 0.892,2 2,2 H 7.5214844 L 10,20 12,17 h 6 c 1.108,0 2,-0.892 2,-2 V 7 C 20,5.892 19.108,5 18,5 Z m 0,1 h 12 c 0.554,0 1,0.446 1,1 v 8 c 0,0.554 -0.446,1 -1,1 H 11.566406 L 10,18.400391 8.0332031,16 H 6 C 5.446,16 5,15.554 5,15 V 7 C 5,6.446 5.446,6 6,6 Z" />
  <path
     id="path2"
     style="fill:currentColor;opacity:0.5"
     class="ColorScheme-Text"
     d="M 7.25,8 C 7.1115,8 7,8.1115 7,8.25 v 0.5 C 7,8.8885 7.1115,9 7.25,9 h 9.5 C 16.8885,9 17,8.8885 17,8.75 V 8.25 C 17,8.1115 16.8885,8 16.75,8 Z m 0,2 C 7.1115,10 7,10.1115 7,10.25 v 0.5 C 7,10.8885 7.1115,11 7.25,11 h 6.5 C 13.8885,11 14,10.8885 14,10.75 v -0.5 C 14,10.1115 13.8885,10 13.75,10 Z" />
</svg>
