<?xml version="1.0" encoding="UTF-8" standalone="no"?>
<svg
   width="24"
   height="24"
   version="1.1"
   id="svg2"
   sodipodi:docname="weather-severe-alert.svg"
   inkscape:version="1.4.2 (ebf0e940d0, 2025-05-08)"
   xmlns:inkscape="http://www.inkscape.org/namespaces/inkscape"
   xmlns:sodipodi="http://sodipodi.sourceforge.net/DTD/sodipodi-0.dtd"
   xmlns="http://www.w3.org/2000/svg"
   xmlns:svg="http://www.w3.org/2000/svg">
  <defs
     id="defs2">
    <style
       id="current-color-scheme"
       type="text/css">
        .ColorScheme-Text { color:#363636; }
        .ColorScheme-NeutralText { color:#f67400; }
        .ColorScheme-PositiveText { color:#37c837; }
        .ColorScheme-NegativeText { color:#f44336; }
        .ColorScheme-Highlight { color:#3daee9; }
     </style>
  </defs>
  <sodipodi:namedview
     id="namedview2"
     pagecolor="#ffffff"
     bordercolor="#000000"
     borderopacity="0.25"
     inkscape:showpageshadow="2"
     inkscape:pageopacity="0.0"
     inkscape:pagecheckerboard="0"
     inkscape:deskcolor="#d1d1d1"
     inkscape:zoom="33.125"
     inkscape:cx="12"
     inkscape:cy="12"
     inkscape:window-width="1920"
     inkscape:window-height="1010"
     inkscape:window-x="0"
     inkscape:window-y="0"
     inkscape:window-maximized="1"
     inkscape:current-layer="svg2" />
  <path
     id="path1"
     style="fill:currentColor"
     class="ColorScheme-Text"
     d="m 12.640625,4.668 c -2.158,0.002 -3.9931406,1.3314218 -4.8691406,3.2324218 l -0.060547,0.1289063 -0.1386719,0.00977 C 5.5782656,8.1830937 4,9.9098437 4,12.007844 c 0,2.193 1.7158906,3.992187 3.8378906,3.992187 H 10 v -1 H 7.8378906 C 6.2808906,15.000031 5,13.678843 5,12.007844 5,10.410844 6.1845313,9.1421874 7.6445312,9.0351874 L 8.3671875,8.9844062 8.6777344,8.3222968 v -0.00391 c 0.729,-1.58 2.2129376,-2.6493907 3.9609376,-2.6503906 2.368,0.002 4.291297,1.9522656 4.404297,4.4472658 v 0.0098 l 0.05078,0.775391 0.703125,0.296875 a 1.944,1.944 0 0 1 1.195313,1.814453 c 0.01,1.113969 -0.846093,1.98825 -1.871093,1.98825 h -3.123047 v 1 h 3.123047 c 1.591,0 2.876953,-1.350281 2.876953,-2.988281 a 2.958,2.958 0 0 0 -1.804688,-2.734375 l -0.136718,-0.05859 -0.0098,-0.148437 c -0.136,-2.9930003 -2.486297,-5.4003441 -5.404297,-5.402344 z" />
  <path
     id="rect1"
     style="fill:currentColor;stroke-width:2"
     class="ColorScheme-NeutralText warning"
     d="m 12,11.000031 c -0.554,0 -1,0.446 -1,1 v 4 c 0,0.554 0.446,1 1,1 0.554,0 1,-0.446 1,-1 v -4 c 0,-0.554 -0.446,-1 -1,-1 z m 0,7 a 1,1 0 0 0 -1,1 1,1 0 0 0 1,1 1,1 0 0 0 1,-1 1,1 0 0 0 -1,-1 z" />
</svg>
