<?xml version="1.0" encoding="UTF-8" standalone="no"?>
<!-- Created with Inkscape (http://www.inkscape.org/) -->

<svg
   width="96"
   height="96"
   viewBox="0 0 96 96.000004"
   version="1.1"
   id="svg5"
   inkscape:version="1.2.1 (9c6d41e410, 2022-07-14)"
   sodipodi:docname="user-trash-full.svg"
   xmlns:inkscape="http://www.inkscape.org/namespaces/inkscape"
   xmlns:sodipodi="http://sodipodi.sourceforge.net/DTD/sodipodi-0.dtd"
   xmlns:xlink="http://www.w3.org/1999/xlink"
   xmlns="http://www.w3.org/2000/svg"
   xmlns:svg="http://www.w3.org/2000/svg">
  <sodipodi:namedview
     id="namedview7"
     pagecolor="#ffffff"
     bordercolor="#000000"
     borderopacity="0.25"
     inkscape:showpageshadow="2"
     inkscape:pageopacity="0.0"
     inkscape:pagecheckerboard="0"
     inkscape:deskcolor="#d1d1d1"
     inkscape:document-units="px"
     showgrid="false"
     inkscape:zoom="8.25"
     inkscape:cx="47.939394"
     inkscape:cy="48"
     inkscape:window-width="1920"
     inkscape:window-height="1004"
     inkscape:window-x="0"
     inkscape:window-y="0"
     inkscape:window-maximized="1"
     inkscape:current-layer="svg5"
     showguides="false" />
  <defs
     id="defs2">
    <linearGradient
       inkscape:collect="always"
       id="linearGradient2271">
      <stop
         style="stop-color:#989898;stop-opacity:1;"
         offset="0"
         id="stop2267" />
      <stop
         style="stop-color:#797979;stop-opacity:1;"
         offset="1"
         id="stop2269" />
    </linearGradient>
    <linearGradient
       inkscape:collect="always"
       id="linearGradient2263">
      <stop
         style="stop-color:#cdcdcd;stop-opacity:1;"
         offset="0"
         id="stop2259" />
      <stop
         style="stop-color:#e2e2e2;stop-opacity:1;"
         offset="1"
         id="stop2261" />
    </linearGradient>
    <linearGradient
       inkscape:collect="always"
       xlink:href="#linearGradient2263"
       id="linearGradient2265"
       x1="45.333332"
       y1="52"
       x2="10.666667"
       y2="9.333333"
       gradientUnits="userSpaceOnUse"
       gradientTransform="matrix(1.5,0,0,1.5,0,4)" />
    <linearGradient
       inkscape:collect="always"
       xlink:href="#linearGradient2271"
       id="linearGradient2273"
       x1="32"
       y1="4"
       x2="32"
       y2="26"
       gradientUnits="userSpaceOnUse"
       gradientTransform="matrix(1.3333333,0,0,1.25,5.333334,3)" />
    <radialGradient
       inkscape:collect="always"
       xlink:href="#linearGradient1356"
       id="radialGradient1358"
       cx="32"
       cy="56"
       fx="32"
       fy="56"
       r="22"
       gradientTransform="matrix(1.1818183,-5.3449188e-7,-6.2265594e-8,0.49999996,10.181818,52.000018)"
       gradientUnits="userSpaceOnUse" />
    <linearGradient
       inkscape:collect="always"
       id="linearGradient1356">
      <stop
         style="stop-color:#333333;stop-opacity:1;"
         offset="0"
         id="stop1352" />
      <stop
         style="stop-color:#333333;stop-opacity:0;"
         offset="1"
         id="stop1354" />
    </linearGradient>
    <linearGradient
       inkscape:collect="always"
       xlink:href="#linearGradient1639"
       id="linearGradient1641"
       x1="6.0446973"
       y1="3"
       x2="6.3565812"
       y2="7.8917189"
       gradientUnits="userSpaceOnUse"
       gradientTransform="matrix(5,0,0,5,9,2.0000032)" />
    <linearGradient
       inkscape:collect="always"
       id="linearGradient1639">
      <stop
         style="stop-color:#f9f9f9;stop-opacity:1;"
         offset="0"
         id="stop1635" />
      <stop
         style="stop-color:#e2e2e2;stop-opacity:1;"
         offset="1"
         id="stop1637" />
    </linearGradient>
  </defs>
  <ellipse
     style="opacity:0.6;fill:url(#radialGradient1358);fill-opacity:1;stroke-width:2;stroke-linecap:round;stroke-linejoin:round"
     id="path773"
     cx="48"
     cy="80"
     rx="30"
     ry="12" />
  <ellipse
     style="fill:url(#linearGradient2273);fill-opacity:1;stroke-width:2.69678;stroke-linecap:round;stroke-linejoin:round"
     id="path234"
     cx="48"
     cy="18"
     rx="32"
     ry="10" />
  <path
     id="path737"
     style="fill:url(#linearGradient1641);fill-opacity:1;stroke-width:10;stroke-linecap:round;stroke-linejoin:round"
     d="m 44,12.000002 a 10,10 0 0 0 -8.68164,5.08789 10,10 0 0 0 -1.31836,-0.0879 10,10 0 0 0 -10,10 10,10 0 0 0 10,10 10,10 0 0 0 1.31836,-0.0879 A 10,10 0 0 0 44,41.999982 10,10 0 0 0 52.68164,36.912092 10,10 0 0 0 54,36.999992 10,10 0 0 0 62.68164,31.9121 10,10 0 0 0 64,32 10,10 0 0 0 74,22 10,10 0 0 0 64,12 10,10 0 0 0 55.31836,17.087892 10,10 0 0 0 54,16.999992 10,10 0 0 0 52.701172,17.087892 10,10 0 0 0 44,12.000002 Z" />
  <path
     id="rect767"
     style="fill:url(#linearGradient2265);fill-opacity:1;stroke-width:3;stroke-linecap:round;stroke-linejoin:round"
     d="m 16,18 10,62 c 0,3.313704 8.74518,8 22,8 13.254822,0 22,-4.686296 22,-8 L 80,18 A 32,10 0 0 1 48,28 32,10 0 0 1 16,18 Z" />
</svg>
