<?xml version="1.0" encoding="UTF-8" standalone="no"?>
<!-- Created with Inkscape (http://www.inkscape.org/) -->

<svg
   width="96"
   height="96"
   viewBox="0 0 96 96"
   version="1.1"
   id="svg5"
   inkscape:version="1.4 (e7c3feb100, 2024-10-09)"
   sodipodi:docname="org.gnome.Extensions.svg"
   xmlns:inkscape="http://www.inkscape.org/namespaces/inkscape"
   xmlns:sodipodi="http://sodipodi.sourceforge.net/DTD/sodipodi-0.dtd"
   xmlns:xlink="http://www.w3.org/1999/xlink"
   xmlns="http://www.w3.org/2000/svg"
   xmlns:svg="http://www.w3.org/2000/svg">
  <sodipodi:namedview
     id="namedview7"
     pagecolor="#ffffff"
     bordercolor="#000000"
     borderopacity="0.25"
     inkscape:showpageshadow="2"
     inkscape:pageopacity="0.0"
     inkscape:pagecheckerboard="0"
     inkscape:deskcolor="#d1d1d1"
     inkscape:document-units="px"
     showgrid="false"
     inkscape:zoom="8.1875"
     inkscape:cx="48"
     inkscape:cy="48"
     inkscape:window-width="1920"
     inkscape:window-height="1011"
     inkscape:window-x="0"
     inkscape:window-y="0"
     inkscape:window-maximized="1"
     inkscape:current-layer="svg5" />
  <defs
     id="defs2">
    <linearGradient
       inkscape:collect="always"
       id="linearGradient1089">
      <stop
         style="stop-color:#52a433;stop-opacity:1;"
         offset="0"
         id="stop1085" />
      <stop
         style="stop-color:#a1d374;stop-opacity:1;"
         offset="1"
         id="stop1087" />
    </linearGradient>
    <linearGradient
       inkscape:collect="always"
       xlink:href="#linearGradient1089"
       id="linearGradient2"
       x1="3"
       y1="3"
       x2="45"
       y2="45"
       gradientUnits="userSpaceOnUse"
       gradientTransform="scale(2)" />
    <linearGradient
       inkscape:collect="always"
       xlink:href="#4852"
       id="linearGradient3500"
       x1="2"
       y1="2"
       x2="30"
       y2="30"
       gradientUnits="userSpaceOnUse"
       gradientTransform="scale(3)" />
    <linearGradient
       inkscape:collect="always"
       id="4852">
      <stop
         style="stop-color:#272727;stop-opacity:1;"
         offset="0"
         id="stop14555" />
      <stop
         style="stop-color:#5d5d5d;stop-opacity:1;"
         offset="1"
         id="stop14557" />
    </linearGradient>
  </defs>
  <path
     d="M 39,7 C 11.696429,7 6,12.819451 6,40 v 18 c 0,27.180548 5.696429,33 33,33 H 57 C 84.30357,91 90,85.180548 90,58 V 40 C 90,12.819451 84.30357,7 57,7"
     style="opacity:0.2;fill:#000000;stroke-width:3;stroke-linecap:round;stroke-linejoin:round"
     id="path563" />
  <path
     id="path530"
     style="fill:url(#linearGradient3500);fill-opacity:1;stroke-width:3;stroke-linecap:round;stroke-linejoin:round"
     d="M 39,6 C 11.696456,6 6,11.819478 6,39 v 18 c 0,27.180522 5.696456,33 33,33 H 57 C 84.303546,90 90,84.180522 90,57 V 39 C 90,11.819478 84.303546,6 57,6 Z" />
  <path
     d="m 46,16 c -4.431996,0 -8,3.568004 -8,8 v 4 H 29.382812 C 25.291616,28 22,31.291736 22,35.382812 V 44 h 4 c 4.431992,0 8,3.568008 8,8 0,4.431992 -3.568008,8 -8,8 h -4 v 8.617188 C 22,72.708384 25.291736,76 29.382812,76 H 38 v -4 c 0,-4.431992 3.568008,-8 8,-8 4.431992,0 8,3.568008 8,8 v 4 h 8.617188 C 66.708384,76 70,72.708264 70,68.617188 V 60 h 4 c 4.431992,0 8,-3.568004 8,-8 0,-4.431996 -3.568008,-8 -8,-8 H 70 V 35.382812 C 70,31.291616 66.708268,28 62.617188,28 H 54 v -4 c 0,-4.431996 -3.568004,-8 -8,-8 z"
     style="fill:url(#linearGradient2);stroke-width:4"
     id="path3401"
     sodipodi:nodetypes="sscsscssscsscssscsscssscsscss" />
</svg>
