<?xml version="1.0" encoding="UTF-8" standalone="no"?>
<svg
   width="22"
   height="22"
   version="1.1"
   viewBox="0 0 22 22"
   id="svg2"
   sodipodi:docname="user-trash-symbolic.svg"
   inkscape:version="1.4.2 (ebf0e940d0, 2025-05-08)"
   xmlns:inkscape="http://www.inkscape.org/namespaces/inkscape"
   xmlns:sodipodi="http://sodipodi.sourceforge.net/DTD/sodipodi-0.dtd"
   xmlns="http://www.w3.org/2000/svg"
   xmlns:svg="http://www.w3.org/2000/svg">
  <sodipodi:namedview
     id="namedview2"
     pagecolor="#ffffff"
     bordercolor="#000000"
     borderopacity="0.25"
     inkscape:showpageshadow="2"
     inkscape:pageopacity="0.0"
     inkscape:pagecheckerboard="0"
     inkscape:deskcolor="#d1d1d1"
     inkscape:zoom="36.136364"
     inkscape:cx="11"
     inkscape:cy="11"
     inkscape:window-width="1920"
     inkscape:window-height="1010"
     inkscape:window-x="0"
     inkscape:window-y="0"
     inkscape:window-maximized="1"
     inkscape:current-layer="svg2" />
  <defs
     id="defs1">
    <style
       id="current-color-scheme"
       type="text/css">.ColorScheme-Text { color:#f2f2f2; }</style>
  </defs>
  <path
     id="path1"
     style="fill:currentColor;fill-opacity:1"
     class="ColorScheme-Text"
     d="M 11,3 C 9.7309,3.0025929 8.6007344,3.80348 8.1777344,5 H 4 C 3.72386,5 3.5,5.22386 3.5,5.5 L 3.50781,5.589844 C 3.5501425,5.8230837 3.75454,6 4,6 h 0.5527344 l 1.296875,11.228516 C 5.9660494,18.237716 6.8200875,19 7.8359375,19 h 6.3281245 c 1.015901,0 1.869929,-0.762264 1.986329,-1.771484 L 17.445312,6 H 18 C 18.2761,6 18.5,5.77614 18.5,5.5 18.5,5.22386 18.2761,5 18,5 H 13.828125 C 13.404385,3.8015 12.2712,3.0001 11,3 Z m 0,1 c 0.71398,5.537e-4 1.373469,0.38168 1.730469,1 H 9.275391 C 9.631321,4.3835 10.2881,4.00265 11,4 Z M 5.5605469,6 H 16.4375 L 15.15625,17.115234 C 15.09805,17.619834 14.672063,18 14.164062,18 H 7.8359375 C 7.3279975,18 6.90197,17.619834 6.84375,17.115234 Z M 9.5,8 C 9.223,8 9,8.223 9,8.5 v 7 C 9,15.777 9.223,16 9.5,16 9.777,16 10,15.777 10,15.5 v -7 C 10,8.223 9.777,8 9.5,8 Z m 3,0 C 12.223,8 12,8.223 12,8.5 v 7 c 0,0.277 0.223,0.5 0.5,0.5 0.277,0 0.5,-0.223 0.5,-0.5 v -7 C 13,8.223 12.777,8 12.5,8 Z" />
</svg>
