<?xml version="1.0" encoding="UTF-8" standalone="no"?>
<!-- Created with Inkscape (http://www.inkscape.org/) -->

<svg
   width="16"
   height="16"
   viewBox="0 0 16 16"
   version="1.1"
   id="svg1"
   inkscape:version="1.3.2 (091e20ef0f, 2023-11-25, custom)"
   sodipodi:docname="media-playback-paused.svg"
   xmlns:inkscape="http://www.inkscape.org/namespaces/inkscape"
   xmlns:sodipodi="http://sodipodi.sourceforge.net/DTD/sodipodi-0.dtd"
   xmlns="http://www.w3.org/2000/svg"
   xmlns:svg="http://www.w3.org/2000/svg">
  <sodipodi:namedview
     id="namedview1"
     pagecolor="#ffffff"
     bordercolor="#000000"
     borderopacity="0.25"
     inkscape:showpageshadow="2"
     inkscape:pageopacity="0.0"
     inkscape:pagecheckerboard="0"
     inkscape:deskcolor="#d1d1d1"
     inkscape:document-units="px"
     showguides="false"
     inkscape:zoom="50.25"
     inkscape:cx="8"
     inkscape:cy="8"
     inkscape:window-width="1920"
     inkscape:window-height="1008"
     inkscape:window-x="0"
     inkscape:window-y="0"
     inkscape:window-maximized="1"
     inkscape:current-layer="svg1" />
  <defs
     id="defs1">
    <style
       type="text/css"
       id="current-color-scheme">
        .ColorScheme-Text {color:#363636;}
     </style>
  </defs>
  <path
     id="path1"
     style="fill:currentColor;fill-opacity:1;stroke-width:0.912871"
     class="ColorScheme-Text"
     d="M 8 1 C 4.1340107 1 1 4.1340107 1 8 C 1 11.865989 4.1340107 15 8 15 C 11.865989 15 15 11.865989 15 8 C 15 4.1340107 11.865989 1 8 1 z M 8 2 C 11.313705 2 14 4.6862948 14 8 C 14 11.313705 11.313705 14 8 14 C 4.6862948 14 2 11.313705 2 8 C 2 4.6862948 4.6862948 2 8 2 z M 5.5 5 C 5.2230006 5 5 5.2230006 5 5.5 L 5 10.5 C 5 10.777 5.2230006 11 5.5 11 L 6.5 11 C 6.7769994 11 7 10.777 7 10.5 L 7 5.5 C 7 5.2230006 6.7769994 5 6.5 5 L 5.5 5 z M 9.5 5 C 9.2230003 5 9 5.2230006 9 5.5 L 9 10.5 C 9 10.777 9.2230003 11 9.5 11 L 10.5 11 C 10.777 11 11 10.777 11 10.5 L 11 5.5 C 11 5.2230006 10.777 5 10.5 5 L 9.5 5 z " />
</svg>
