<?xml version="1.0" encoding="UTF-8" standalone="no"?>
<svg
   width="16"
   height="16"
   version="1.0"
   id="svg1"
   sodipodi:docname="notifications-disabled.svg"
   inkscape:version="1.3.2 (091e20ef0f, 2023-11-25, custom)"
   xmlns:inkscape="http://www.inkscape.org/namespaces/inkscape"
   xmlns:sodipodi="http://sodipodi.sourceforge.net/DTD/sodipodi-0.dtd"
   xmlns="http://www.w3.org/2000/svg"
   xmlns:svg="http://www.w3.org/2000/svg">
  <defs
     id="defs2">
    <style
       id="current-color-scheme"
       type="text/css">
         .ColorScheme-Text { color:#363636; }
      </style>
  </defs>
  <sodipodi:namedview
     id="namedview1"
     pagecolor="#ffffff"
     bordercolor="#000000"
     borderopacity="0.25"
     inkscape:showpageshadow="2"
     inkscape:pageopacity="0.0"
     inkscape:pagecheckerboard="0"
     inkscape:deskcolor="#d1d1d1"
     inkscape:zoom="50.25"
     inkscape:cx="8"
     inkscape:cy="8"
     inkscape:window-width="1920"
     inkscape:window-height="1008"
     inkscape:window-x="0"
     inkscape:window-y="0"
     inkscape:window-maximized="1"
     inkscape:current-layer="svg1" />
  <path
     d="M 8,1 A 1,1 0 0 0 7.00586,2.0996 4.988,4.988 0 0 0 5.06836,2.94726 l 0.7207,0.7207 a 4,4 0 0 1 2.2109,-0.66797 4,4 0 0 1 4,4 v 2.8789 l 1,1 V 6.99999 A 4.987,4.987 0 0 0 8.99406,2.09959 1,1 0 0 0 7.99992,0.99999 Z M 3.2656,5.3867 A 4.988,4.988 0 0 0 2.99998,7 v 4.5 l -2,2 V 14 h 10.879 l -1,-1 h -7.8789 l 1,-1.0781 V 7 A 4,4 0 0 1 4.080158,6.20117 L 3.265708,5.38672 Z M 6.2695,15 A 2,2 0 0 0 8,16 2,2 0 0 0 9.7285,15 Z"
     id="path1"
     style="fill:currentColor;fill-opacity:1"
     class="ColorScheme-Text" />
  <rect
     transform="rotate(45)"
     x="1.3137"
     y="-.5"
     width="20"
     height="1"
     rx=".5"
     ry=".5"
     id="rect1"
     style="fill:currentColor;fill-opacity:1"
     class="ColorScheme-Text" />
</svg>
