<?xml version="1.0" encoding="UTF-8" standalone="no"?>
<!-- Created with Inkscape (http://www.inkscape.org/) -->

<svg
   width="48"
   height="48"
   viewBox="0 0 48 48"
   version="1.1"
   id="svg5"
   inkscape:version="1.2.2 (1:1.2.2+202305151914+b0a8486541)"
   sodipodi:docname="applets-screenshooter.svg"
   xmlns:inkscape="http://www.inkscape.org/namespaces/inkscape"
   xmlns:sodipodi="http://sodipodi.sourceforge.net/DTD/sodipodi-0.dtd"
   xmlns="http://www.w3.org/2000/svg"
   xmlns:svg="http://www.w3.org/2000/svg">
  <sodipodi:namedview
     id="namedview7"
     pagecolor="#ffffff"
     bordercolor="#000000"
     borderopacity="0.25"
     inkscape:showpageshadow="2"
     inkscape:pageopacity="0.0"
     inkscape:pagecheckerboard="0"
     inkscape:deskcolor="#d1d1d1"
     inkscape:document-units="px"
     showgrid="false"
     inkscape:zoom="17.291667"
     inkscape:cx="23.971084"
     inkscape:cy="24"
     inkscape:window-width="1920"
     inkscape:window-height="1008"
     inkscape:window-x="0"
     inkscape:window-y="0"
     inkscape:window-maximized="1"
     inkscape:current-layer="svg5" />
  <defs
     id="defs2">
    <style
       id="current-color-scheme"
       type="text/css">
         .ColorScheme-Text { color:#232629; }
         .ColorScheme-Highlight { color:#3daee9; }
     </style>
  </defs>
  <path
     d="M 19.5,4 C 5.8482142,4 3,6.9097255 3,20.5 v 9 C 3,43.090273 5.8482142,46 19.5,46 h 9 C 42.151785,46 45,43.090273 45,29.5 v -9 C 45,6.9097255 42.151785,4 28.5,4"
     style="opacity:0.2;fill:#000000;stroke-width:1.5;stroke-linecap:round;stroke-linejoin:round"
     id="path563" />
  <path
     id="path530"
     style="fill:currentColor;fill-opacity:1;stroke-width:1.5;stroke-linecap:round;stroke-linejoin:round"
     d="M 19.5,3 C 5.8482277,3 3,5.909739 3,19.5 v 9 C 3,42.090263 5.8482277,45 19.5,45 h 9 C 42.151773,45 45,42.090263 45,28.5 v -9 C 45,5.909739 42.151773,3 28.5,3 Z"
     class="ColorScheme-Highlight" />
  <path
     d="m 14,11 c -0.553998,0 -1,0.446002 -1,1 v 4 H 9 c -0.553997,0 -1,0.446004 -1,1 0,0.553996 0.446003,1 1,1 h 4 v 12 c 0,1.107996 0.892004,2 2,2 h 18 v 4 c 0,0.553998 0.446002,1 1,1 0.553998,0 1,-0.446002 1,-1 v -4 h 4 c 0.553996,0 1,-0.446004 1,-1 0,-0.553998 -0.446004,-1 -1,-1 H 35 V 18 c 0,-1.107996 -0.892004,-2 -2,-2 H 15 v -4 c 0,-0.553998 -0.446002,-1 -1,-1 z m 1,7 H 33 V 30 H 15 Z"
     style="opacity:0.6;fill:currentColor;stroke-width:1.0328;stroke-linecap:round;stroke-linejoin:round"
     id="path765"
     class="ColorScheme-Text" />
</svg>
