<?xml version="1.0" encoding="UTF-8" standalone="no"?>
<!-- Created with Inkscape (http://www.inkscape.org/) -->

<svg
   width="48"
   height="48"
   viewBox="0 0 48 48"
   version="1.1"
   id="svg5"
   inkscape:version="1.2.2 (1:1.2.2+202305151914+b0a8486541)"
   sodipodi:docname="brave-browser.svg"
   xmlns:inkscape="http://www.inkscape.org/namespaces/inkscape"
   xmlns:sodipodi="http://sodipodi.sourceforge.net/DTD/sodipodi-0.dtd"
   xmlns="http://www.w3.org/2000/svg"
   xmlns:svg="http://www.w3.org/2000/svg">
  <sodipodi:namedview
     id="namedview7"
     pagecolor="#ffffff"
     bordercolor="#000000"
     borderopacity="0.25"
     inkscape:showpageshadow="2"
     inkscape:pageopacity="0.0"
     inkscape:pagecheckerboard="0"
     inkscape:deskcolor="#d1d1d1"
     inkscape:document-units="px"
     showgrid="false"
     inkscape:zoom="17.291667"
     inkscape:cx="23.971084"
     inkscape:cy="24"
     inkscape:window-width="1920"
     inkscape:window-height="1008"
     inkscape:window-x="0"
     inkscape:window-y="0"
     inkscape:window-maximized="1"
     inkscape:current-layer="svg5"
     showguides="false" />
  <defs
     id="defs2">
    <style
       id="current-color-scheme"
       type="text/css">
         .ColorScheme-Text { color:#232629; }
         .ColorScheme-Highlight { color:#3daee9; }
     </style>
  </defs>
  <path
     d="M 19.5,4 C 5.8482145,4 3,6.9097255 3,20.5 v 9 C 3,43.090274 5.8482145,46 19.5,46 h 9 C 42.151785,46 45,43.090274 45,29.5 v -9 C 45,6.9097255 42.151785,4 28.5,4"
     style="opacity:0.2;fill:#000000;stroke-width:1.5;stroke-linecap:round;stroke-linejoin:round"
     id="path563" />
  <path
     id="path530"
     style="fill:currentColor;fill-opacity:1;stroke-width:1.5;stroke-linecap:round;stroke-linejoin:round"
     d="M 19.5,3 C 5.848228,3 3,5.909739 3,19.5 v 9 C 3,42.090261 5.848228,45 19.5,45 h 9 C 42.151773,45 45,42.090261 45,28.5 v -9 C 45,5.909739 42.151773,3 28.5,3 Z"
     class="ColorScheme-Highlight" />
  <path
     id="path494"
     style="display:inline;fill:currentColor;fill-opacity:1;stroke-width:0.71269;enable-background:new;opacity:0.6"
     d="M 19,8.0000003 16.142578,11.19922 15.015625,10.746095 c -1.222208,-0.492841 -2.697806,-0.300479 -3.666016,0.480467 l -2.3496088,2.533205 1.5878908,1.919921 -1.5878908,2.560547 4.5800778,14.380859 c 0.626954,1.459162 1.888156,2.681738 3.546875,3.443359 L 24,40 30.873047,36.064453 c 1.658723,-0.761622 2.919924,-1.984197 3.546875,-3.443359 L 39,18.240235 37.412109,15.679688 39,13.759767 36.650391,11.226562 C 35.682179,10.44576 34.206584,10.253254 32.984375,10.746095 L 31.857422,11.19922 29,8.0000003 Z m 4.998047,3.8203117 c 0.82536,0 1.650571,0.178767 2.388672,0.537111 1.015839,0.486358 2.222127,0.660186 3.380859,0.474608 l 2.166016,-0.353514 2.953125,3.974608 c 0.603135,0.684793 0.595352,1.601463 -0.0332,2.273438 h 0.0039 l -3.714844,3.99414 0.453125,0.542969 c 0.325561,0.390418 0.484375,0.844983 0.484375,1.292969 0,0.499173 -0.191454,0.992737 -0.580078,1.402343 -0.412697,0.447986 -1.023926,0.806401 -1.619141,1.017578 -0.404774,0.147226 -0.801662,0.222657 -1.11914,0.222657 -0.714251,0 -2.077512,-1.036462 -3.96875,-2.130859 v -0.705078 l 3.583984,-1.734375 c 0.29295,-0.141499 0.440967,-0.418687 0.367188,-0.6875 l -1.158203,-4.201172 c 0.138119,-0.259919 0.351511,-0.47639 0.669921,-0.617188 l 4.47461,-1.443359 -2.38086,-0.640626 h -1.58789 l -0.01172,0.01172 c -0.07926,0.0011 -0.160224,0.0018 -0.240234,0.02539 l -2.38086,0.640625 c -0.385696,0.10368 -0.61151,0.426124 -0.523437,0.746095 l 1.46289,5.308593 -3.068359,1.484376 -3.070312,-1.484375 1.464843,-5.310547 c 0.08814,-0.32004 -0.139696,-0.641767 -0.52539,-0.746094 l -2.380856,-0.638673 c -0.08037,-0.0216 -0.160254,-0.02539 -0.240234,-0.02539 l -0.0098,-0.01172 h -1.58789 l -2.38086,0.640626 4.47461,1.441406 c 0.318143,0.140771 0.531848,0.357377 0.669921,0.617188 l -1.158203,4.203125 c -0.07371,0.268916 0.07422,0.546057 0.367188,0.6875 l 3.582031,1.732421 v 0.720704 c -1.942014,1.116175 -3.265251,2.117187 -3.966797,2.117187 -0.317403,0 -0.714405,-0.07739 -1.11914,-0.224609 C 17.523887,26.763246 16.912662,26.405053 16.5,25.957032 15.76186,25.169817 15.721717,24.08926 16.4043,23.263672 l 0.453125,-0.544922 -3.714844,-3.992187 c -0.626954,-0.671976 -0.634753,-1.588609 -0.0332,-2.273438 l 2.951172,-3.972655 2.167969,0.351561 c 0.301475,0.05149 0.610406,0.07031 0.919922,0.07031 0.857138,0 1.714909,-0.186374 2.460937,-0.544922 0.738065,-0.358562 1.563274,-0.537108 2.388672,-0.53711 z m 0.002,14.740235 c 0.793659,0 4.761719,1.919922 4.761719,1.919922 L 24,32.320312 19.238281,28.480469 c 0,0 3.96806,-1.919922 4.761719,-1.919922 z"
     class="ColorScheme-Text" />
</svg>
