<?xml version="1.0" encoding="UTF-8" standalone="no"?>
<!-- Created with Inkscape (http://www.inkscape.org/) -->

<svg
   width="48"
   height="48"
   viewBox="0 0 48 48"
   version="1.1"
   id="svg5"
   inkscape:version="1.2.2 (1:1.2.2+202305151914+b0a8486541)"
   sodipodi:docname="kate.svg"
   xmlns:inkscape="http://www.inkscape.org/namespaces/inkscape"
   xmlns:sodipodi="http://sodipodi.sourceforge.net/DTD/sodipodi-0.dtd"
   xmlns="http://www.w3.org/2000/svg"
   xmlns:svg="http://www.w3.org/2000/svg">
  <sodipodi:namedview
     id="namedview7"
     pagecolor="#ffffff"
     bordercolor="#000000"
     borderopacity="0.25"
     inkscape:showpageshadow="2"
     inkscape:pageopacity="0.0"
     inkscape:pagecheckerboard="0"
     inkscape:deskcolor="#d1d1d1"
     inkscape:document-units="px"
     showgrid="false"
     inkscape:zoom="17.291667"
     inkscape:cx="23.971084"
     inkscape:cy="24"
     inkscape:window-width="1920"
     inkscape:window-height="1008"
     inkscape:window-x="0"
     inkscape:window-y="0"
     inkscape:window-maximized="1"
     inkscape:current-layer="svg5" />
  <defs
     id="defs2">
    <style
       id="current-color-scheme"
       type="text/css">
         .ColorScheme-Text { color:#232629; }
         .ColorScheme-Highlight { color:#3daee9; }
     </style>
  </defs>
  <path
     d="M 19.5,4 C 5.8482142,4 3,6.9097255 3,20.5 v 9 C 3,43.090273 5.8482143,46 19.5,46 h 9 C 42.151785,46 45,43.090273 45,29.5 v -9 C 45,6.9097255 42.151785,4 28.5,4"
     style="opacity:0.2;fill:#000000;stroke-width:1.5;stroke-linecap:round;stroke-linejoin:round"
     id="path563" />
  <path
     id="path530"
     style="fill:currentColor;fill-opacity:1;stroke-width:1.5;stroke-linecap:round;stroke-linejoin:round"
     d="M 19.5,3 C 5.8482277,3 3,5.909739 3,19.5 v 9 C 3,42.090263 5.8482277,45 19.5,45 h 9 C 42.151773,45 45,42.090263 45,28.5 v -9 C 45,5.909739 42.151773,3 28.5,3 Z"
     class="ColorScheme-Highlight" />
  <path
     id="path10"
     style="opacity:0.35;fill:currentColor;fill-opacity:1;stroke-width:1.12294"
     d="m 21.50932,9.8699836 c -0.05728,0.027755 -0.113326,0.057073 -0.168871,0.086997 0.05557,-0.030009 0.111588,-0.059164 0.168871,-0.086997 z m -0.409402,0.2251724 c -0.06443,0.04047 -0.127887,0.07903 -0.18936,0.122821 0.06102,-0.04351 0.125425,-0.08259 0.18936,-0.122821 z m -0.434991,0.317286 c -0.06779,0.05757 -0.131526,0.116696 -0.19447,0.179112 0.06284,-0.06237 0.126796,-0.121586 0.19447,-0.179112 z m -0.19447,0.179112 c -0.116834,0.11589 -0.229003,0.240571 -0.327522,0.37358 0.09872,-0.133398 0.210428,-0.257359 0.327522,-0.37358 z m -0.496397,0.629458 c -0.04574,0.07632 -0.08814,0.154073 -0.127945,0.235406 0.04031,-0.08247 0.08151,-0.158072 0.127945,-0.235406 z m -0.127945,0.235406 c -0.03074,0.06281 -0.05998,0.128638 -0.08699,0.194467 0.02701,-0.06587 0.05628,-0.131614 0.08699,-0.194467 z m -0.214934,0.562928 c -0.0228,0.08154 -0.04395,0.165123 -0.06141,0.25075 0.01755,-0.08595 0.03846,-0.168922 0.06141,-0.25075 z m -0.06141,0.25075 c -0.01755,0.08596 -0.02903,0.175972 -0.04095,0.266114 0.01179,-0.08938 0.02358,-0.180845 0.04095,-0.266114 z m -0.04607,0.322406 c -0.0065,0.05601 -0.01599,0.111278 -0.02044,0.168869 C 16.244304,12.518848 14.509479,13.651139 10,14.654856 c 1.110709,0.08474 7.668876,-0.842951 9.017085,2.906756 0.103394,-0.03416 0.200941,-0.06912 0.307052,-0.102348 0.459525,-0.143905 0.909554,-0.277901 1.361262,-0.414522 -0.980662,-1.846616 -1.296561,-3.312695 -1.161672,-4.452243 z"
     class="ColorScheme-Text" />
  <path
     id="path12"
     style="opacity:0.6;fill:currentColor;fill-opacity:1;stroke-width:1.12294"
     class="ColorScheme-Text"
     d="m 37.076839,12.29057 c -12.303681,4.68797 -28.0772687,7.852345 -22.634826,15.69034 8.31e-4,0.0012 -8.31e-4,0.004 0,0.0053 8.65e-4,0.0022 0.0037,0.0034 0.0053,0.0053 0.0087,0.01208 0.01677,0.02358 0.02567,0.03581 2.21639,2.809078 5.704761,3.243744 9.477661,5.767472 3.432784,2.296248 4.570799,3.464795 6.78584,6.647664 -0.460605,-4.397714 -2.884189,-10.06626 -3.879078,-12.563516 l -0.0053,-0.01546 c -1.661728,-1.220514 -3.163182,-2.808178 -4.508552,-4.856533 1.639959,2.843638 2.000941,6.434817 -1.432908,7.149184 -3.545061,0.737501 -7.414794,-2.326213 -6.442967,-5.603693 1.055294,-3.558965 6.060207,-2.872798 10.838925,-3.490152 4.778716,-0.617367 9.144102,-5.30254 11.770313,-8.771443 z m -13.443745,3.884205 c -1.401403,0.402744 -2.836136,0.823276 -4.308957,1.284498 -0.0021,6.66e-4 -0.0029,0.0044 -0.0053,0.005 1.474596,-0.461772 2.910799,-0.886187 4.314066,-1.289608 z m -4.948649,1.499433 c -0.172722,0.06045 -0.34187,0.121137 -0.506635,0.184226 0.16557,-0.06331 0.333064,-0.123598 0.506635,-0.184226 z m -0.772747,0.2917 c -0.132426,0.05327 -0.267004,0.103629 -0.394049,0.158651 0.126457,-0.05466 0.262285,-0.105722 0.394049,-0.158651 z m -0.936509,0.409401 c -0.09433,0.04557 -0.185325,0.09155 -0.276344,0.138188 0.09087,-0.04645 0.182155,-0.09278 0.276344,-0.138188 z m -1.847427,1.115622 c -0.08225,0.06272 -0.162792,0.125322 -0.240531,0.189361 0.07861,-0.06459 0.157315,-0.126088 0.240531,-0.189361 z m -0.481049,0.399166 c -0.05762,0.05167 -0.119162,0.10108 -0.174005,0.153542 0.05476,-0.05224 0.116465,-0.102052 0.174005,-0.153542 z m -1.673428,5.045885 c 0.10192,0.477065 0.263359,0.972611 0.506635,1.484082 0.280048,0.588781 0.598528,1.095411 0.946741,1.545494 -0.735779,-1.039567 -1.221221,-2.055223 -1.453376,-3.029576 z" />
  <path
     style="opacity:0.45;fill:currentColor;fill-opacity:1;stroke-width:1.12294"
     d="M 21.806993,22.15066 C 23.380475,22.06044 23.087781,22.08381 25.75606,21.9493 29.733277,25.339444 31.051563,26.512444 38,31.458644 31.015889,30.959028 25.731519,28.692777 21.806993,22.150666 Z"
     id="path14"
     class="ColorScheme-Text" />
  <path
     id="path16"
     style="opacity:0.25;fill:currentColor;fill-opacity:1;stroke-width:1.12294"
     d="m 22.850112,9.0000038 c -2.396785,-0.00187 -5.151686,0.6838244 -7.824699,2.6201742 -2.611857,1.892051 -3.758475,2.40579 -5.025413,3.034695 4.509483,-1.003722 6.244299,-2.136011 9.503249,-1.893486 0.18674,-2.455663 2.409264,-3.4555376 4.743948,-3.4594489 1.086932,-0.00183 2.200628,0.2087309 3.142163,0.5936332 -1.199201,-0.5198974 -2.769612,-0.894181 -4.539248,-0.8955675 z"
     class="ColorScheme-Text" />
  <path
     id="path18"
     style="opacity:0.4;fill:currentColor;fill-opacity:1;stroke-width:1.12294"
     d="m 24.247197,9.3019381 c -3.393647,0.00569 -6.547552,2.1205629 -3.561799,7.7428189 0.818235,-0.248497 1.625526,-0.485985 2.42059,-0.716453 -1.04744,-2.140446 -2.095507,-5.84786 4.943533,-6.115446 C 26.995789,9.630799 25.601772,9.2996662 24.247197,9.3019381 Z"
     class="ColorScheme-Text" />
  <path
     style="opacity:0.45;fill:currentColor;fill-opacity:1;stroke-width:1.12294"
     d="M 14.792918,28.458355 C 11.224122,23.863093 12.33216,19.651123 19.320385,17.462729 26.21661,15.303137 32.425901,13.877456 37.076839,12.290573 24.525682,17.072836 8.3600879,20.268321 14.792918,28.458355 Z"
     id="path20"
     class="ColorScheme-Text" />
</svg>
