<?xml version="1.0" encoding="UTF-8" standalone="no"?>
<!-- Created with Inkscape (http://www.inkscape.org/) -->

<svg
   width="48"
   height="48"
   viewBox="0 0 48 48"
   version="1.1"
   id="svg5"
   inkscape:version="1.2.2 (1:1.2.2+202305151914+b0a8486541)"
   sodipodi:docname="konversation.svg"
   xmlns:inkscape="http://www.inkscape.org/namespaces/inkscape"
   xmlns:sodipodi="http://sodipodi.sourceforge.net/DTD/sodipodi-0.dtd"
   xmlns="http://www.w3.org/2000/svg"
   xmlns:svg="http://www.w3.org/2000/svg">
  <sodipodi:namedview
     id="namedview7"
     pagecolor="#ffffff"
     bordercolor="#000000"
     borderopacity="0.25"
     inkscape:showpageshadow="2"
     inkscape:pageopacity="0.0"
     inkscape:pagecheckerboard="0"
     inkscape:deskcolor="#d1d1d1"
     inkscape:document-units="px"
     showgrid="false"
     inkscape:zoom="17.291667"
     inkscape:cx="23.971084"
     inkscape:cy="24"
     inkscape:window-width="1920"
     inkscape:window-height="1008"
     inkscape:window-x="0"
     inkscape:window-y="0"
     inkscape:window-maximized="1"
     inkscape:current-layer="svg5"
     showguides="false" />
  <defs
     id="defs2">
    <style
       id="current-color-scheme"
       type="text/css">
         .ColorScheme-Text { color:#232629; }
         .ColorScheme-Highlight { color:#3daee9; }
     </style>
  </defs>
  <path
     d="M 19.5,4 C 5.8482145,4 3,6.9097255 3,20.5 v 9 C 3,43.090274 5.8482145,46 19.5,46 h 9 C 42.151785,46 45,43.090274 45,29.5 v -9 C 45,6.9097255 42.151785,4 28.5,4"
     style="opacity:0.2;fill:#000000;stroke-width:1.5;stroke-linecap:round;stroke-linejoin:round"
     id="path563" />
  <path
     id="path530"
     style="fill:currentColor;fill-opacity:1;stroke-width:1.5;stroke-linecap:round;stroke-linejoin:round"
     d="M 19.5,3 C 5.848228,3 3,5.909739 3,19.5 v 9 C 3,42.090261 5.848228,45 19.5,45 h 9 C 42.151773,45 45,42.090261 45,28.5 v -9 C 45,5.909739 42.151773,3 28.5,3 Z"
     class="ColorScheme-Highlight" />
  <path
     d="m 35,13 -22,5.999999 v 7.999999 l 22,6.000001 z M 9,18.999999 v 7.999999 h 3 V 19 Z m 27,0.999999 v 6.000001 h 3 v -6 z m -24,9 V 35 h 3 v -6.000003 z"
     style="fill:currentColor;fill-opacity:1;stroke-width:5.65686;stroke-linecap:round;stroke-linejoin:round;opacity:0.6"
     id="path348"
     class="ColorScheme-Text" />
</svg>
