<?xml version="1.0" encoding="UTF-8" standalone="no"?>
<!-- Created with Inkscape (http://www.inkscape.org/) -->

<svg
   width="48"
   height="48"
   viewBox="0 0 48 48"
   version="1.1"
   id="svg5"
   inkscape:version="1.2.2 (1:1.2.2+202305151914+b0a8486541)"
   sodipodi:docname="preferences-desktop-online-accounts.svg"
   xmlns:inkscape="http://www.inkscape.org/namespaces/inkscape"
   xmlns:sodipodi="http://sodipodi.sourceforge.net/DTD/sodipodi-0.dtd"
   xmlns="http://www.w3.org/2000/svg"
   xmlns:svg="http://www.w3.org/2000/svg">
  <sodipodi:namedview
     id="namedview7"
     pagecolor="#ffffff"
     bordercolor="#000000"
     borderopacity="0.25"
     inkscape:showpageshadow="2"
     inkscape:pageopacity="0.0"
     inkscape:pagecheckerboard="0"
     inkscape:deskcolor="#d1d1d1"
     inkscape:document-units="px"
     showgrid="false"
     inkscape:zoom="16.791667"
     inkscape:cx="24"
     inkscape:cy="24"
     inkscape:window-width="1920"
     inkscape:window-height="1008"
     inkscape:window-x="0"
     inkscape:window-y="0"
     inkscape:window-maximized="1"
     inkscape:current-layer="svg5" />
  <defs
     id="defs2">
    <style
       id="current-color-scheme"
       type="text/css">
         .ColorScheme-Text { color:#232629; }
         .ColorScheme-Highlight { color:#3daee9; }
     </style>
  </defs>
  <path
     d="M 19.5,4 C 5.8482142,4 3,6.9097255 3,20.5 v 9 C 3,43.090275 5.8482142,46 19.5,46 h 9 C 42.151785,46 45,43.090274 45,29.5 v -9 C 45,6.9097255 42.151785,4 28.5,4"
     style="opacity:0.2;fill:#000000;stroke-width:1.5;stroke-linecap:round;stroke-linejoin:round"
     id="path563" />
  <path
     id="path530"
     style="fill:currentColor;fill-opacity:1;stroke-width:1.5;stroke-linecap:round;stroke-linejoin:round"
     d="M 19.5,3 C 5.8482279,3 3,5.9097391 3,19.5 v 9 C 3,42.090261 5.8482279,45 19.5,45 h 9 C 42.151773,45 45,42.090261 45,28.5 v -9 C 45,5.9097391 42.151773,3 28.5,3 Z"
     class="ColorScheme-Highlight" />
  <path
     id="path1308"
     style="opacity:0.6;fill:currentColor;stroke-width:0.75;stroke-linecap:round;stroke-linejoin:round"
     d="m 23.717284,12 c -1.809628,0 -3.439825,0.304883 -4.891113,0.914063 -1.43337,0.591265 -2.659876,1.415545 -3.681151,2.472657 -1.003357,1.05711 -1.783925,2.320346 -2.339355,3.78955 C 12.268151,20.627554 12,22.212574 12,23.932617 v 0.51123 c 0,1.881297 0.278067,3.583491 0.833496,5.106445 0.573348,1.522957 1.387715,2.821459 2.444825,3.896484 1.057109,1.075028 2.347162,1.899307 3.870116,2.472657 1.522956,0.573347 3.251964,0.859863 5.187012,0.859863 1.612539,0 3.118579,-0.170806 4.516113,-0.511229 1.415453,-0.32251 2.687141,-0.788279 3.815918,-1.397462 l -0.75293,-1.880859 c -1.11086,0.57335 -2.328919,1.003854 -3.654784,1.290527 -1.32587,0.304589 -2.661099,0.457031 -4.004883,0.457031 -1.558788,0 -2.964552,-0.232885 -4.21875,-0.69873 -1.236282,-0.447928 -2.285,-1.11132 -3.14502,-1.989257 -0.860022,-0.860024 -1.523413,-1.925641 -1.989256,-3.197755 -0.44793,-1.290034 -0.6709,-2.769253 -0.6709,-4.435546 v -0.457032 c 0,-1.558788 0.232887,-2.956101 0.698731,-4.192382 0.465845,-1.236282 1.110871,-2.275084 1.935058,-3.117187 0.842105,-0.860022 1.845642,-1.513499 3.010254,-1.961427 1.164612,-0.447927 2.444749,-0.672363 3.842285,-0.672363 1.630458,0 3.072951,0.224436 4.327148,0.672363 1.254198,0.430011 2.311365,1.065123 3.171387,1.907227 0.860021,0.824187 1.505052,1.827716 1.935059,3.010254 0.447927,1.18253 0.672363,2.526213 0.672363,4.031249 v 0.295899 c 0,0.895855 -0.06356,1.658055 -0.188966,2.285155 -0.125414,0.609182 -0.303211,1.110218 -0.536132,1.504395 -0.232921,0.376254 -0.520904,0.654318 -0.861327,0.833496 -0.340427,0.161253 -0.734202,0.2417 -1.182129,0.2417 -0.573348,0 -1.012304,-0.170807 -1.316895,-0.51123 -0.30459,-0.358343 -0.457031,-0.91301 -0.457031,-1.665528 v -8.466797 h -2.525391 v 1.398926 c -0.25084,-0.43001 -0.672895,-0.798435 -1.264161,-1.103027 -0.591264,-0.30459 -1.38873,-0.457032 -2.392089,-0.457032 -1.505037,0 -2.69628,0.484137 -3.574218,1.451661 -0.86002,0.949607 -1.289062,2.24811 -1.289062,3.896484 v 2.097656 c 0,1.630458 0.447388,2.928967 1.343262,3.896484 0.895855,0.967525 2.204272,1.451661 3.924315,1.451661 0.322509,0 0.679554,-0.03675 1.07373,-0.108405 0.394177,-0.07167 0.779503,-0.197289 1.155762,-0.376464 0.394177,-0.179172 0.752689,-0.412056 1.075195,-0.698732 0.322505,-0.286672 0.565281,-0.645184 0.726563,-1.075195 h 0.02637 c 0.268756,0.806271 0.734529,1.397665 1.397461,1.773927 0.662933,0.358339 1.35314,0.537597 2.069825,0.537597 0.985441,2e-6 1.791358,-0.21452 2.418456,-0.644531 0.645016,-0.430011 1.155967,-0.976227 1.532227,-1.63916 0.376257,-0.680851 0.635957,-1.424686 0.779297,-2.230958 C 35.919555,25.500519 36,24.694602 36,23.90625 V 23.556151 C 36,21.854028 35.731851,20.295823 35.194335,18.880371 34.656822,17.46492 33.867806,16.246862 32.828613,15.225587 31.78942,14.204311 30.507818,13.415292 28.984863,12.859863 27.461908,12.286513 25.706085,12 23.717284,12 Z m -0.02637,8.412599 c 0.537515,0 0.994836,0.08044 1.371095,0.241697 0.376257,0.143341 0.681138,0.349407 0.914062,0.618164 0.232916,0.250839 0.393804,0.545805 0.483398,0.886231 0.107505,0.322509 0.161133,0.662657 0.161133,1.020996 v 2.365723 c 0,0.537514 -0.08045,0.984922 -0.2417,1.343261 -0.161254,0.358343 -0.38569,0.644858 -0.672363,0.859864 -0.268759,0.215002 -0.582088,0.367436 -0.940429,0.457031 -0.340427,0.08959 -0.698937,0.13476 -1.075196,0.13476 -0.967524,0 -1.67463,-0.294964 -2.122558,-0.88623 -0.447929,-0.60918 -0.672363,-1.425013 -0.672363,-2.446288 v -1.236329 c 0,-1.272114 0.241338,-2.150028 0.725097,-2.633788 0.501679,-0.483764 1.191886,-0.725097 2.069824,-0.725097 z"
     class="ColorScheme-Text" />
</svg>
