<?xml version="1.0" encoding="UTF-8" standalone="no"?>
<!-- Created with Inkscape (http://www.inkscape.org/) -->

<svg
   width="48"
   height="48"
   viewBox="0 0 48 48"
   version="1.1"
   id="svg5"
   inkscape:version="1.2.2 (1:1.2.2+202305151914+b0a8486541)"
   sodipodi:docname="yast-sound.svg"
   xmlns:inkscape="http://www.inkscape.org/namespaces/inkscape"
   xmlns:sodipodi="http://sodipodi.sourceforge.net/DTD/sodipodi-0.dtd"
   xmlns="http://www.w3.org/2000/svg"
   xmlns:svg="http://www.w3.org/2000/svg">
  <sodipodi:namedview
     id="namedview7"
     pagecolor="#ffffff"
     bordercolor="#000000"
     borderopacity="0.25"
     inkscape:showpageshadow="2"
     inkscape:pageopacity="0.0"
     inkscape:pagecheckerboard="0"
     inkscape:deskcolor="#d1d1d1"
     inkscape:document-units="px"
     showgrid="false"
     inkscape:zoom="16.791667"
     inkscape:cx="23.970223"
     inkscape:cy="24"
     inkscape:window-width="1920"
     inkscape:window-height="1008"
     inkscape:window-x="0"
     inkscape:window-y="0"
     inkscape:window-maximized="1"
     inkscape:current-layer="svg5"
     showguides="false" />
  <defs
     id="defs2">
    <style
       id="current-color-scheme"
       type="text/css">
         .ColorScheme-Text { color:#232629; }
         .ColorScheme-Highlight { color:#3daee9; }
     </style>
  </defs>
  <path
     d="M 19.5,4 C 5.8482145,4 3,6.9097255 3,20.5 v 9 C 3,43.090274 5.8482145,46 19.5,46 h 9 C 42.151785,46 45,43.090274 45,29.5 v -9 C 45,6.9097255 42.151785,4 28.5,4"
     style="opacity:0.2;fill:#000000;stroke-width:1.5;stroke-linecap:round;stroke-linejoin:round"
     id="path563" />
  <path
     id="path530"
     style="fill:currentColor;fill-opacity:1;stroke-width:1.5;stroke-linecap:round;stroke-linejoin:round"
     d="M 19.5,3 C 5.848228,3 3,5.909739 3,19.5 v 9 C 3,42.090261 5.848228,45 19.5,45 h 9 C 42.151773,45 45,42.090261 45,28.5 v -9 C 45,5.909739 42.151773,3 28.5,3 Z"
     class="ColorScheme-Highlight" />
  <path
     d="m 23,13.00011 -7,6 h -4 c -1.107996,0 -2,0.892004 -2,2 v 6 c 0,1.107996 0.892004,2 2,2 h 4 l 7,5.999817 z"
     style="opacity:0.6;fill:currentColor;stroke-width:2"
     id="path348"
     class="ColorScheme-Text"
     sodipodi:nodetypes="ccssssccc" />
  <path
     d="m 31.167968,13.00271 c -0.336308,0.02818 -0.650906,0.226794 -0.8125,0.550782 -0.24549,0.494066 -0.04448,1.093608 0.44922,1.339842 3.642216,1.82111 5.194692,5.438702 5.195312,9.10547 -6.2e-4,3.666768 -1.553096,7.28436 -5.195312,9.105468 -0.493696,0.246234 -0.69471,0.845776 -0.44922,1.339844 0.246234,0.493696 0.845776,0.69471 1.339844,0.44922 4.35776,-2.17888 6.303956,-6.561324 6.304688,-10.894532 -7.32e-4,-4.333208 -1.946928,-8.715652 -6.304688,-10.894532 -0.12352,-0.06138 -0.25328,-0.0936 -0.382812,-0.10156 -0.04858,-0.003 -0.09648,-0.004 -0.14454,0 z m -3.01953,5.007848 c -0.42858,-0.06412 -0.849684,0.15512 -1.04297,0.54297 -0.24549,0.494066 -0.04448,1.093608 0.44922,1.339844 C 29.19691,20.714482 30,22.332178 30,23.99884 c 0,1.666662 -0.80309,3.284358 -2.445312,4.105468 -0.493696,0.246234 -0.69471,0.845776 -0.44922,1.339844 0.246234,0.493696 0.845776,0.69471 1.339844,0.44922 C 30.803078,28.714486 32,26.332166 32,23.99884 c 0,-2.333326 -1.196922,-4.71565 -3.554688,-5.894532 -0.09346,-0.04656 -0.19362,-0.07818 -0.296874,-0.09374 z"
     style="fill:currentColor;stroke-width:2;opacity:0.4"
     id="path524"
     class="ColorScheme-Text" />
</svg>
