<?xml version="1.0" encoding="UTF-8" standalone="no"?>
<!-- Created with Inkscape (http://www.inkscape.org/) -->

<svg
   width="22"
   height="22"
   viewBox="0 0 22 22"
   version="1.1"
   id="svg5"
   inkscape:version="1.2.1 (9c6d41e410, 2022-07-14)"
   sodipodi:docname="system-restart.svg"
   xmlns:inkscape="http://www.inkscape.org/namespaces/inkscape"
   xmlns:sodipodi="http://sodipodi.sourceforge.net/DTD/sodipodi-0.dtd"
   xmlns:xlink="http://www.w3.org/1999/xlink"
   xmlns="http://www.w3.org/2000/svg"
   xmlns:svg="http://www.w3.org/2000/svg">
  <sodipodi:namedview
     id="namedview7"
     pagecolor="#ffffff"
     bordercolor="#000000"
     borderopacity="0.25"
     inkscape:showpageshadow="2"
     inkscape:pageopacity="0.0"
     inkscape:pagecheckerboard="0"
     inkscape:deskcolor="#d1d1d1"
     inkscape:document-units="px"
     showgrid="false"
     inkscape:zoom="37.636364"
     inkscape:cx="10.7343"
     inkscape:cy="11"
     inkscape:window-width="1920"
     inkscape:window-height="1008"
     inkscape:window-x="0"
     inkscape:window-y="0"
     inkscape:window-maximized="1"
     inkscape:current-layer="svg5"
     showguides="true" />
  <defs
     id="defs2">
    <linearGradient
       inkscape:collect="always"
       xlink:href="#linearGradient1500"
       id="linearGradient3500"
       x1="28.666666"
       y1="28.666666"
       x2="2"
       y2="2"
       gradientUnits="userSpaceOnUse"
       gradientTransform="matrix(0.75,0,0,0.75,-0.5,-0.5)" />
    <linearGradient
       inkscape:collect="always"
       id="linearGradient1500">
      <stop
         style="stop-color:#afe481;stop-opacity:1;"
         offset="0"
         id="stop1496" />
      <stop
         style="stop-color:#74c72b;stop-opacity:1;"
         offset="1"
         id="stop1498" />
    </linearGradient>
  </defs>
  <path
     id="path530"
     style="fill:url(#linearGradient3500);fill-opacity:1;stroke-width:0.750005;stroke-linecap:round;stroke-linejoin:round"
     d="M 9,1 C 2.174114,1 1,2.2048695 1,9 v 4 c 0,6.79513 1.174114,8 8,8 h 4 c 6.825886,0 8,-1.20487 8,-8 V 9 C 21,2.2048695 19.825886,1 13,1 Z"
     sodipodi:nodetypes="sssssssss" />
  <path
     id="path344"
     style="fill:#ffffff;stroke-linecap:round;stroke-linejoin:round;paint-order:stroke fill markers"
     d="M 11 4 A 7 7 0 0 0 5 7.4160156 L 5 6 L 4 6 L 4 9 L 4 10 L 4.0703125 10 L 5.0878906 10 L 8 10 L 8 9 L 5.3535156 9 A 6 6 0 0 1 11 5 A 6 6 0 0 1 16.916016 10 L 17.927734 10 A 7 7 0 0 0 11 4 z M 4.0703125 12 A 7 7 0 0 0 11 18 A 7 7 0 0 0 17 14.583984 L 17 16 L 18 16 L 18 12 L 17.929688 12 L 17 12 L 14 12 L 14 13 L 16.646484 13 A 6 6 0 0 1 11 17 A 6 6 0 0 1 5.0878906 12 L 4.0703125 12 z " />
</svg>
