<?xml version="1.0" encoding="UTF-8" standalone="no"?>
<!-- Created with Inkscape (http://www.inkscape.org/) -->

<svg
   width="22"
   height="22"
   viewBox="0 0 22 22"
   version="1.1"
   id="svg5"
   inkscape:version="1.4.4 (dcaf3e7d9e, 2026-05-05)"
   sodipodi:docname="system-suspend.svg"
   xmlns:inkscape="http://www.inkscape.org/namespaces/inkscape"
   xmlns:sodipodi="http://sodipodi.sourceforge.net/DTD/sodipodi-0.dtd"
   xmlns:xlink="http://www.w3.org/1999/xlink"
   xmlns="http://www.w3.org/2000/svg"
   xmlns:svg="http://www.w3.org/2000/svg">
  <sodipodi:namedview
     id="namedview7"
     pagecolor="#ffffff"
     bordercolor="#000000"
     borderopacity="0.25"
     inkscape:showpageshadow="2"
     inkscape:pageopacity="0.0"
     inkscape:pagecheckerboard="0"
     inkscape:deskcolor="#d1d1d1"
     inkscape:document-units="px"
     showgrid="false"
     inkscape:zoom="36.545455"
     inkscape:cx="11"
     inkscape:cy="11"
     inkscape:window-width="1920"
     inkscape:window-height="1012"
     inkscape:window-x="0"
     inkscape:window-y="0"
     inkscape:window-maximized="1"
     inkscape:current-layer="svg5" />
  <defs
     id="defs2">
    <linearGradient
       inkscape:collect="always"
       xlink:href="#linearGradient1056"
       id="linearGradient2881"
       x1="16"
       y1="2.999999"
       x2="29"
       y2="29"
       gradientUnits="userSpaceOnUse"
       gradientTransform="matrix(0.76923075,0,0,0.76923075,-1.307692,-1.3076915)" />
    <linearGradient
       inkscape:collect="always"
       id="linearGradient1056">
      <stop
         style="stop-color:#31cedf;stop-opacity:1;"
         offset="0"
         id="stop1052" />
      <stop
         style="stop-color:#90e0e4;stop-opacity:1;"
         offset="1"
         id="stop1054" />
    </linearGradient>
  </defs>
  <circle
     style="fill:url(#linearGradient2881);stroke:none;stroke-width:1.53846;stroke-linecap:round;stroke-linejoin:round;stroke-dasharray:none;stroke-opacity:1"
     id="path2873"
     cx="11"
     cy="11"
     r="10" />
  <path
     id="path1853"
     style="fill:#ffffff;stroke-linecap:round;stroke-linejoin:round;paint-order:stroke fill markers"
     d="m 11,4 c -3.8659895,1e-7 -7.0000002,3.1340107 -7.0000002,7 0,3.865989 3.1340107,7 7.0000002,7 3.865989,0 7,-3.134011 7,-7 0,-3.8659893 -3.134011,-7 -7,-7 z m 0,1 c 3.313705,0 6,2.6862948 6,6 0,3.313705 -2.686295,6 -6,6 C 7.6862947,17 4.9999998,14.313705 4.9999998,11 4.9999998,7.6862949 7.6862947,5.0000001 11,5 Z m -4.0000002,5 v 2 H 15 v -2 z" />
</svg>
