<?xml version="1.0" encoding="UTF-8" standalone="no"?>
<!-- Created with Inkscape (http://www.inkscape.org/) -->

<svg
   width="16"
   height="16"
   viewBox="0 0 16 16"
   version="1.1"
   id="svg5"
   inkscape:version="1.2.1 (1:1.2.1+202210291243+9c6d41e410)"
   sodipodi:docname="input-gaming.svg"
   xmlns:inkscape="http://www.inkscape.org/namespaces/inkscape"
   xmlns:sodipodi="http://sodipodi.sourceforge.net/DTD/sodipodi-0.dtd"
   xmlns:xlink="http://www.w3.org/1999/xlink"
   xmlns="http://www.w3.org/2000/svg"
   xmlns:svg="http://www.w3.org/2000/svg">
  <sodipodi:namedview
     id="namedview7"
     pagecolor="#ffffff"
     bordercolor="#000000"
     borderopacity="0.25"
     inkscape:showpageshadow="2"
     inkscape:pageopacity="0.0"
     inkscape:pagecheckerboard="0"
     inkscape:deskcolor="#d1d1d1"
     inkscape:document-units="px"
     showgrid="false"
     inkscape:zoom="51.5625"
     inkscape:cx="8"
     inkscape:cy="8"
     inkscape:window-width="1920"
     inkscape:window-height="1018"
     inkscape:window-x="0"
     inkscape:window-y="28"
     inkscape:window-maximized="1"
     inkscape:current-layer="svg5"
     showguides="false" />
  <defs
     id="defs2">
    <linearGradient
       inkscape:collect="always"
       id="linearGradient1401">
      <stop
         style="stop-color:#9f9f9f;stop-opacity:1;"
         offset="0"
         id="stop1397" />
      <stop
         style="stop-color:#d0d0d0;stop-opacity:1;"
         offset="1"
         id="stop1399" />
    </linearGradient>
    <linearGradient
       inkscape:collect="always"
       id="linearGradient1339">
      <stop
         style="stop-color:#6ac326;stop-opacity:1;"
         offset="0"
         id="stop1335" />
      <stop
         style="stop-color:#b0d839;stop-opacity:1;"
         offset="1"
         id="stop1337" />
    </linearGradient>
    <linearGradient
       inkscape:collect="always"
       id="linearGradient1331">
      <stop
         style="stop-color:#e4940d;stop-opacity:1;"
         offset="0"
         id="stop1327" />
      <stop
         style="stop-color:#e4ad0d;stop-opacity:1;"
         offset="1"
         id="stop1329" />
    </linearGradient>
    <linearGradient
       inkscape:collect="always"
       id="linearGradient1199">
      <stop
         style="stop-color:#2d7be6;stop-opacity:1;"
         offset="0"
         id="stop1195" />
      <stop
         style="stop-color:#5897ed;stop-opacity:1;"
         offset="1"
         id="stop1197" />
    </linearGradient>
    <linearGradient
       inkscape:collect="always"
       id="linearGradient1139">
      <stop
         style="stop-color:#d43b3b;stop-opacity:1;"
         offset="0"
         id="stop1135" />
      <stop
         style="stop-color:#cb6060;stop-opacity:1;"
         offset="1"
         id="stop1137" />
    </linearGradient>
    <linearGradient
       inkscape:collect="always"
       id="linearGradient1014">
      <stop
         style="stop-color:#5a5a5a;stop-opacity:1;"
         offset="0"
         id="stop1010" />
      <stop
         style="stop-color:#686868;stop-opacity:1;"
         offset="1"
         id="stop1012" />
    </linearGradient>
    <linearGradient
       inkscape:collect="always"
       xlink:href="#linearGradient1014"
       id="linearGradient1016"
       x1="30"
       y1="25.000002"
       x2="30"
       y2="7.0000005"
       gradientUnits="userSpaceOnUse"
       gradientTransform="matrix(0.57142858,0,0,0.61111115,-1.142857,-1.2777777)" />
    <linearGradient
       inkscape:collect="always"
       xlink:href="#linearGradient1139"
       id="linearGradient1141"
       x1="24"
       y1="14"
       x2="24"
       y2="12"
       gradientUnits="userSpaceOnUse"
       gradientTransform="matrix(0.5,0,0,0.5,0.5,0)" />
    <linearGradient
       inkscape:collect="always"
       xlink:href="#linearGradient1199"
       id="linearGradient1201"
       x1="20"
       y1="14"
       x2="20"
       y2="12"
       gradientUnits="userSpaceOnUse"
       gradientTransform="matrix(0.5,0,0,0.5,0.5,0)" />
    <linearGradient
       inkscape:collect="always"
       xlink:href="#linearGradient1331"
       id="linearGradient1333"
       x1="22"
       y1="12"
       x2="22"
       y2="10"
       gradientUnits="userSpaceOnUse"
       gradientTransform="matrix(0.5,0,0,0.5,0.5,0)" />
    <linearGradient
       inkscape:collect="always"
       xlink:href="#linearGradient1339"
       id="linearGradient1341"
       x1="22"
       y1="16"
       x2="22"
       y2="14"
       gradientUnits="userSpaceOnUse"
       gradientTransform="matrix(0.5,0,0,0.5,0.5,0)" />
    <linearGradient
       inkscape:collect="always"
       xlink:href="#linearGradient1401"
       id="linearGradient1403"
       x1="10"
       y1="16"
       x2="10"
       y2="10"
       gradientUnits="userSpaceOnUse"
       gradientTransform="matrix(0.5,0,0,0.5,-0.5,0)" />
  </defs>
  <path
     d="M 4,4 C 3.0646046,4 2.3350915,4.5623603 1.7871097,6.0740015 0.6299086,9.2639345 0,11.122417 0,12.618816 c 0,1.150903 0.3732626,1.877083 1.1660154,2.303873 0.092906,0.05016 0.1960972,0.0775 0.2998052,0.07731 0.1650897,3.61e-4 0.3258308,-0.06513 0.4492183,-0.184517 L 4,12.625 C 4.3713582,12.266497 4.6812485,12 5.5878902,12 H 10.41211 c 0.906642,0 1.215786,0.266294 1.58789,0.625 l 2.084961,2.190483 c 0.205761,0.198489 0.502586,0.239877 0.749024,0.107206 C 15.626551,14.496094 16,13.767439 16,12.615723 16,11.119526 15.369533,9.2633235 14.212891,6.0740015 13.664911,4.5623603 12.935208,4 12,4 c -0.437452,0 -1.115631,0.1233925 -1.484375,0.3308916 -1.5827053,0.8875161 -3.4123817,0.9064165 -5.0283205,0 C 5.1172542,4.123395 4.4372639,4 4,4 Z"
     style="fill:#000000;fill-opacity:1;stroke-width:1.3911;opacity:0.2"
     id="path344" />
  <path
     d="M 4.0000003,3.0000005 C 3.0646049,3.0000005 2.3350918,3.5623608 1.78711,5.074002 0.6299089,8.263935 3e-7,10.122417 3e-7,11.618816 c 0,1.150903 0.3732626,1.877083 1.1660154,2.303873 0.092906,0.05016 0.1960972,0.0775 0.2998052,0.07731 0.1650897,3.61e-4 0.3258308,-0.06513 0.4492183,-0.184517 L 4.0000003,11.625 C 4.3713585,11.266497 4.6812488,11 5.5878905,11 H 10.41211 c 0.906642,0 1.215786,0.266294 1.58789,0.625 l 2.084961,2.190483 c 0.205761,0.198489 0.502586,0.239877 0.749024,0.107206 C 15.626551,13.496094 16,12.767439 16,11.615723 16,10.119526 15.369533,8.263324 14.212891,5.074002 13.664911,3.5623608 12.935208,3.0000005 12,3.0000005 c -0.437452,0 -1.115631,0.1233925 -1.484375,0.3308916 -1.582705,0.8875161 -3.4123814,0.9064165 -5.0283202,0 C 5.1172545,3.1233955 4.4372642,3.0000005 4.0000003,3.0000005 Z"
     style="fill:url(#linearGradient1016);fill-opacity:1;stroke-width:1.3911"
     id="path975"
     sodipodi:nodetypes="scsccccsscccscsccs" />
  <path
     id="rect1070"
     style="opacity:1;fill:url(#linearGradient1403);fill-opacity:1;stroke-width:1;stroke-linecap:round;stroke-linejoin:round"
     d="M 4,5 V 6 H 3 V 7 H 4 V 8 H 5 V 7 H 6 V 6 H 5 V 5 Z" />
  <circle
     style="opacity:1;fill:url(#linearGradient1333);fill-opacity:1;stroke-width:1;stroke-linecap:round;stroke-linejoin:round"
     id="path1127"
     cx="11.5"
     cy="5.5"
     r="0.5" />
  <circle
     style="opacity:1;fill:url(#linearGradient1201);fill-opacity:1;stroke-width:1;stroke-linecap:round;stroke-linejoin:round"
     id="path1129"
     cx="10.5"
     cy="6.5"
     r="0.5" />
  <circle
     style="opacity:1;fill:url(#linearGradient1141);fill-opacity:1;stroke-width:1;stroke-linecap:round;stroke-linejoin:round"
     id="path1131"
     cx="12.5"
     cy="6.5"
     r="0.5" />
  <circle
     style="opacity:1;fill:url(#linearGradient1341);fill-opacity:1;stroke-width:1;stroke-linecap:round;stroke-linejoin:round"
     id="path1133"
     cx="11.5"
     cy="7.5"
     r="0.5" />
</svg>
