<?xml version="1.0" encoding="UTF-8" standalone="no"?>
<!-- Created with Inkscape (http://www.inkscape.org/) -->

<svg
   width="22"
   height="22"
   viewBox="0 0 22 22"
   version="1.1"
   id="svg5"
   inkscape:version="1.2.1 (9c6d41e410, 2022-07-14)"
   sodipodi:docname="cpu.svg"
   xmlns:inkscape="http://www.inkscape.org/namespaces/inkscape"
   xmlns:sodipodi="http://sodipodi.sourceforge.net/DTD/sodipodi-0.dtd"
   xmlns:xlink="http://www.w3.org/1999/xlink"
   xmlns="http://www.w3.org/2000/svg"
   xmlns:svg="http://www.w3.org/2000/svg">
  <sodipodi:namedview
     id="namedview7"
     pagecolor="#ffffff"
     bordercolor="#666666"
     borderopacity="1.0"
     inkscape:pageshadow="2"
     inkscape:pageopacity="0.0"
     inkscape:pagecheckerboard="0"
     inkscape:document-units="px"
     showgrid="false"
     units="px"
     height="64px"
     inkscape:zoom="37.181818"
     inkscape:cx="10.986553"
     inkscape:cy="11"
     inkscape:window-width="1920"
     inkscape:window-height="1004"
     inkscape:window-x="0"
     inkscape:window-y="0"
     inkscape:window-maximized="1"
     inkscape:current-layer="svg5"
     inkscape:showpageshadow="2"
     inkscape:deskcolor="#d1d1d1" />
  <defs
     id="defs2">
    <linearGradient
       inkscape:collect="always"
       id="linearGradient1087">
      <stop
         style="stop-color:#2f8b57;stop-opacity:1;"
         offset="0"
         id="stop1083" />
      <stop
         style="stop-color:#37a274;stop-opacity:1;"
         offset="1"
         id="stop1085" />
    </linearGradient>
    <linearGradient
       inkscape:collect="always"
       id="linearGradient13931">
      <stop
         style="stop-color:#d8d8d8;stop-opacity:1"
         offset="0"
         id="stop13927" />
      <stop
         style="stop-color:#f2f2f2;stop-opacity:1"
         offset="1"
         id="stop13929" />
    </linearGradient>
    <linearGradient
       inkscape:collect="always"
       id="linearGradient12797">
      <stop
         style="stop-color:#b3b3b3;stop-opacity:1"
         offset="0"
         id="stop12793" />
      <stop
         style="stop-color:#ffffff;stop-opacity:1"
         offset="1"
         id="stop12795" />
    </linearGradient>
    <linearGradient
       id="linearGradient964"
       x1="30"
       x2="30"
       y1="10"
       y2="70"
       gradientTransform="matrix(0.48261881,0,0,0.48261881,18.761026,10.691682)"
       gradientUnits="userSpaceOnUse">
      <stop
         offset="0"
         id="stop49" />
      <stop
         stop-opacity=".35"
         offset="1"
         id="stop51" />
    </linearGradient>
    <linearGradient
       inkscape:collect="always"
       xlink:href="#linearGradient13931"
       id="linearGradient13933"
       x1="7.937501"
       y1="7.937501"
       x2="4.2333336"
       y2="4.2333336"
       gradientUnits="userSpaceOnUse"
       gradientTransform="matrix(3.7795272,0,0,3.7795272,-12,-12)" />
    <linearGradient
       inkscape:collect="always"
       xlink:href="#linearGradient12797"
       id="linearGradient2468"
       x1="14"
       y1="21"
       x2="21"
       y2="14"
       gradientUnits="userSpaceOnUse"
       gradientTransform="matrix(2,0,0,2,-24,-24)" />
    <linearGradient
       inkscape:collect="always"
       xlink:href="#linearGradient1087"
       id="linearGradient957"
       x1="1"
       y1="11"
       x2="21"
       y2="11"
       gradientUnits="userSpaceOnUse"
       gradientTransform="matrix(2,0,0,2,1,1)" />
  </defs>
  <path
     id="rect395"
     style="opacity:1;fill:url(#linearGradient957);fill-opacity:1;stroke-width:4;stroke-linecap:round;stroke-linejoin:round"
     d="M 1,1 V 5 C 1.5522847,5 2,5.4477153 2,6 2,6.5522847 1.5522847,7 1,7 V 21 H 21 V 7 C 20.447715,7 20,6.5522847 20,6 20,5.4477153 20.447715,5 21,5 V 1 Z"
     sodipodi:nodetypes="ccsccccsccc" />
  <path
     id="rect1253"
     style="opacity:0.2;fill:#000000;stroke-width:2.57143;stroke-linecap:round;stroke-linejoin:round"
     d="M 2,2 C 2,2 2,20.000001 2,20 H 20 V 2 Z"
     sodipodi:nodetypes="ccccc" />
  <path
     id="rect13708"
     style="fill:url(#linearGradient13933);fill-opacity:1;stroke-width:9;stroke-linecap:round;stroke-linejoin:round"
     d="m 6,4 h 10 c 1.107998,0 2,0.892 2,2 v 10 c 0,1.107998 -0.892002,2 -2,2 H 6 C 4.892,18 4,17.107998 4,16 V 6 C 4,4.892 4.892,4 6,4 Z"
     sodipodi:nodetypes="sssssssss" />
  <path
     id="rect15233"
     style="opacity:0.3;fill:#000000;fill-opacity:1;stroke-width:8.21582;stroke-linecap:round;stroke-linejoin:round"
     d="m 6,6 v 1 h 4 V 6 Z m 0,2 v 1 h 6 V 8 Z m 0,2 v 1 h 3 v -1 z"
     sodipodi:nodetypes="ccccccccccccccc" />
  <path
     id="rect2457"
     style="fill:url(#linearGradient2468);fill-opacity:1;stroke-width:4;stroke-linecap:round;stroke-linejoin:round"
     d="M 6,4 C 4.8920031,4 4,4.8920031 4,6 v 10 c 0,1.107997 0.8920031,2 2,2 h 10 c 1.107997,0 2,-0.892003 2,-2 V 6 C 18,4.8920031 17.107997,4 16,4 Z m 0,1 h 10 c 0.553998,0 1,0.4460005 1,1 v 10 c 0,0.553998 -0.446002,1 -1,1 H 6 C 5.4460006,17 5,16.553998 5,16 V 6 C 5,5.4460005 5.4460006,5 6,5 Z"
     sodipodi:nodetypes="ssssssssssssssssss" />
  <path
     id="path7820"
     style="fill:#c5b149;fill-opacity:1;stroke-width:6.75;stroke-linecap:round;stroke-linejoin:round"
     d="M 5 2 L 5 3 L 6 3 L 6 2 L 5 2 z M 6 3 L 6 4 L 7 4 L 7 3 L 6 3 z M 7 3 L 8 3 L 8 2 L 7 2 L 7 3 z M 8 3 L 8 4 L 9 4 L 9 3 L 8 3 z M 9 3 L 10 3 L 10 2 L 9 2 L 9 3 z M 10 3 L 10 4 L 11 4 L 11 3 L 10 3 z M 2 18 L 2 20 L 4 20 L 2 18 z " />
</svg>
