<?xml version="1.0" encoding="UTF-8" standalone="no"?>
<!-- Created with Inkscape (http://www.inkscape.org/) -->

<svg
   width="256"
   height="256"
   viewBox="0 0 256 256"
   version="1.1"
   id="svg5"
   inkscape:version="1.2.1 (9c6d41e410, 2022-07-14)"
   sodipodi:docname="template-256.svg"
   xmlns:inkscape="http://www.inkscape.org/namespaces/inkscape"
   xmlns:sodipodi="http://sodipodi.sourceforge.net/DTD/sodipodi-0.dtd"
   xmlns="http://www.w3.org/2000/svg"
   xmlns:svg="http://www.w3.org/2000/svg">
  <sodipodi:namedview
     id="namedview7"
     pagecolor="#ffffff"
     bordercolor="#000000"
     borderopacity="0.25"
     inkscape:showpageshadow="2"
     inkscape:pageopacity="0.0"
     inkscape:pagecheckerboard="0"
     inkscape:deskcolor="#d1d1d1"
     inkscape:document-units="px"
     showgrid="false"
     inkscape:zoom="3.1015625"
     inkscape:cx="67.062972"
     inkscape:cy="128"
     inkscape:window-width="1920"
     inkscape:window-height="1006"
     inkscape:window-x="0"
     inkscape:window-y="0"
     inkscape:window-maximized="1"
     inkscape:current-layer="svg5" />
  <defs
     id="defs2" />
  <path
     id="path563"
     style="opacity:0.2;fill:#000000;stroke-width:8;stroke-linecap:round;stroke-linejoin:round"
     d="M 104 17 C 31.190549 17 16 32.518608 16 105 L 16 153 C 16 225.48139 31.190549 241 104 241 L 152 241 C 224.80945 241 240 225.48139 240 153 L 240 105 C 240 32.518608 224.80945 17 152 17 L 104 17 z " />
  <path
     id="path530"
     style="fill:#7e7e7e;stroke-width:8;stroke-linecap:round;stroke-linejoin:round"
     d="M 104 16 C 31.190549 16 16 31.518608 16 104 L 16 152 C 16 224.48139 31.190549 240 104 240 L 152 240 C 224.80945 240 240 224.48139 240 152 L 240 104 C 240 31.518608 224.80945 16 152 16 L 104 16 z " />
</svg>
