<?xml version="1.0" encoding="UTF-8" standalone="no"?>
<!-- Created with Inkscape (http://www.inkscape.org/) -->

<svg
   width="96"
   height="96"
   viewBox="0 0 96 96"
   version="1.1"
   id="svg5"
   inkscape:version="1.4 (e7c3feb100, 2024-10-09)"
   sodipodi:docname="accessories-camera.svg"
   xmlns:inkscape="http://www.inkscape.org/namespaces/inkscape"
   xmlns:sodipodi="http://sodipodi.sourceforge.net/DTD/sodipodi-0.dtd"
   xmlns:xlink="http://www.w3.org/1999/xlink"
   xmlns="http://www.w3.org/2000/svg"
   xmlns:svg="http://www.w3.org/2000/svg">
  <sodipodi:namedview
     id="namedview7"
     pagecolor="#ffffff"
     bordercolor="#000000"
     borderopacity="0.25"
     inkscape:showpageshadow="2"
     inkscape:pageopacity="0.0"
     inkscape:pagecheckerboard="0"
     inkscape:deskcolor="#d1d1d1"
     inkscape:document-units="px"
     showgrid="false"
     inkscape:zoom="8.1875"
     inkscape:cx="48"
     inkscape:cy="48"
     inkscape:window-width="1920"
     inkscape:window-height="1011"
     inkscape:window-x="0"
     inkscape:window-y="0"
     inkscape:window-maximized="1"
     inkscape:current-layer="svg5"
     showguides="false" />
  <defs
     id="defs2">
    <linearGradient
       inkscape:collect="always"
       id="linearGradient2596">
      <stop
         style="stop-color:#644fce;stop-opacity:1;"
         offset="0"
         id="stop2592" />
      <stop
         style="stop-color:#526ad8;stop-opacity:1;"
         offset="1"
         id="stop2594" />
    </linearGradient>
    <linearGradient
       inkscape:collect="always"
       xlink:href="#linearGradient2596"
       id="linearGradient2"
       x1="3"
       y1="3"
       x2="45"
       y2="45"
       gradientUnits="userSpaceOnUse"
       gradientTransform="scale(2)" />
    <linearGradient
       inkscape:collect="always"
       xlink:href="#4852"
       id="linearGradient3500"
       x1="2"
       y1="2"
       x2="30"
       y2="30"
       gradientUnits="userSpaceOnUse"
       gradientTransform="scale(3)" />
    <linearGradient
       inkscape:collect="always"
       id="4852">
      <stop
         style="stop-color:#272727;stop-opacity:1;"
         offset="0"
         id="stop14555" />
      <stop
         style="stop-color:#5d5d5d;stop-opacity:1;"
         offset="1"
         id="stop14557" />
    </linearGradient>
  </defs>
  <path
     d="M 39,7 C 11.696429,7 6,12.819451 6,40 v 18 c 0,27.180548 5.696429,33 33,33 H 57 C 84.30357,91 90,85.180548 90,58 V 40 C 90,12.819451 84.30357,7 57,7"
     style="opacity:0.2;fill:#000000;stroke-width:3;stroke-linecap:round;stroke-linejoin:round"
     id="path563" />
  <path
     id="path530"
     style="fill:url(#linearGradient3500);fill-opacity:1;stroke-width:3;stroke-linecap:round;stroke-linejoin:round"
     d="M 39,6 C 11.696456,6 6,11.819478 6,39 v 18 c 0,27.180522 5.696456,33 33,33 H 57 C 84.303546,90 90,84.180522 90,57 V 39 C 90,11.819478 84.303546,6 57,6 Z" />
  <rect
     style="fill:#ffffff;stroke-width:2"
     id="rect1"
     width="8"
     height="8"
     x="65"
     y="35" />
  <path
     id="rect596"
     style="fill:url(#linearGradient2);stroke-width:4;stroke-linecap:round;stroke-linejoin:round"
     d="m 42,20 c -2.215994,0 -2.952622,1.167084 -4,3 l -4,7 h -8 c -4.431988,0 -8,3.568012 -8,8 v 28 c 0,4.431988 3.568012,8 8,8 h 44 c 4.431988,0 8,-3.568012 8,-8 V 38 c 0,-4.431988 -3.568012,-8 -8,-8 h -8 l -4,-7 c -1.099438,-1.924022 -1.784006,-3 -4,-3 z m 27,16 c 1.656854,0 3,1.343146 3,3 0,1.656854 -1.343146,3 -3,3 -1.656854,0 -3,-1.343146 -3,-3 0,-1.656854 1.343146,-3 3,-3 z m -21,6 c 5.522846,0 10,4.477152 10,10 0,5.522846 -4.477154,10 -10,10 -5.522848,0 -10,-4.477154 -10,-10 0,-5.522848 4.477152,-10 10,-10 z" />
  <path
     id="path669"
     style="opacity:0.6;fill:#ffffff;stroke-width:10.8571;stroke-linecap:round;stroke-linejoin:round"
     d="M 48,36 A 16,16 0 0 0 32,52 16,16 0 0 0 48,68 16,16 0 0 0 64,52 16,16 0 0 0 48,36 Z m 0,6 c 5.522826,0 10,4.47718 10,10 0,5.522826 -4.477174,10 -10,10 -5.522822,0 -10,-4.477174 -10,-10 0,-5.52282 4.477178,-10 10,-10 z" />
</svg>
