<?xml version="1.0" encoding="UTF-8" standalone="no"?>
<!-- Created with Inkscape (http://www.inkscape.org/) -->

<svg
   width="96"
   height="96"
   viewBox="0 0 96 96"
   version="1.1"
   id="svg5"
   inkscape:version="1.4 (e7c3feb100, 2024-10-09)"
   sodipodi:docname="google-drive.svg"
   xmlns:inkscape="http://www.inkscape.org/namespaces/inkscape"
   xmlns:sodipodi="http://sodipodi.sourceforge.net/DTD/sodipodi-0.dtd"
   xmlns:xlink="http://www.w3.org/1999/xlink"
   xmlns="http://www.w3.org/2000/svg"
   xmlns:svg="http://www.w3.org/2000/svg">
  <sodipodi:namedview
     id="namedview7"
     pagecolor="#ffffff"
     bordercolor="#000000"
     borderopacity="0.25"
     inkscape:showpageshadow="2"
     inkscape:pageopacity="0.0"
     inkscape:pagecheckerboard="0"
     inkscape:deskcolor="#d1d1d1"
     inkscape:document-units="px"
     showgrid="false"
     inkscape:zoom="4.6705882"
     inkscape:cx="48.816121"
     inkscape:cy="39.823678"
     inkscape:window-width="1920"
     inkscape:window-height="1011"
     inkscape:window-x="0"
     inkscape:window-y="0"
     inkscape:window-maximized="1"
     inkscape:current-layer="svg5" />
  <defs
     id="defs2">
    <linearGradient
       inkscape:collect="always"
       xlink:href="#4852"
       id="linearGradient3500"
       x1="2"
       y1="2"
       x2="30"
       y2="30"
       gradientUnits="userSpaceOnUse"
       gradientTransform="scale(3)" />
    <linearGradient
       inkscape:collect="always"
       id="4852">
      <stop
         style="stop-color:#272727;stop-opacity:1;"
         offset="0"
         id="stop14555" />
      <stop
         style="stop-color:#5d5d5d;stop-opacity:1;"
         offset="1"
         id="stop14557" />
    </linearGradient>
  </defs>
  <path
     d="M 39,7 C 11.696429,7 6,12.819451 6,40 v 18 c 0,27.180549 5.696429,33 33,33 H 57 C 84.30357,91 90,85.180549 90,58 V 40 C 90,12.819451 84.30357,7 57,7"
     style="opacity:0.2;fill:#000000;stroke-width:3;stroke-linecap:round;stroke-linejoin:round"
     id="path563" />
  <path
     id="path530"
     style="fill:url(#linearGradient3500);fill-opacity:1;stroke-width:3;stroke-linecap:round;stroke-linejoin:round"
     d="M 39,6 C 11.696456,6 6,11.819478 6,39 v 18 c 0,27.180522 5.696456,33 33,33 H 57 C 84.30355,90 90,84.180522 90,57 V 39 C 90,11.819478 84.30355,6 57,6 Z" />
  <path
     inkscape:connector-curvature="0"
     d="m 59.099658,58.42611 h -22.19931 l -8.822022,5.642895 -0.628149,10.714482 c 0.927834,0.5499 1.993119,0.824748 3.092778,0.824748 h 34.914087 c 1.099659,0 2.164941,-0.3093 3.092787,-0.824748 l -1.69164,-11.30316 z"
     id="path10-4"
     style="fill:#2684fc;stroke-width:0.687282"
     sodipodi:nodetypes="ccccssccc" />
  <path
     inkscape:connector-curvature="0"
     d="m 22.536087,67.945 2.646048,4.570446 c 0.549828,0.96219 1.340196,1.718202 2.268042,2.268042 L 36.900348,58.426111 H 18.000003 c 0,1.065305 0.27492,2.13057 0.824751,3.092771 z"
     id="path2-0"
     style="fill:#0066da;stroke-width:0.687282" />
  <path
     inkscape:connector-curvature="0"
     d="M 48,39.182127 38.549826,22.824745 c -0.927834,0.549789 -1.718202,1.305846 -2.268036,2.268035 L 18.824745,55.333326 a 6.226803,6.226803 0 0 0 -0.82473,3.092784 h 18.900342 z"
     id="path4-3"
     style="fill:#00ac47;stroke-width:0.687282" />
  <path
     inkscape:connector-curvature="0"
     d="m 68.549829,74.783487 c 0.92784,-0.54978 1.718202,-1.30584 2.268042,-2.268042 l 1.09965,-1.89003 5.257734,-9.106527 c 0.54984,-0.96219 0.824748,-2.027478 0.824748,-3.092772 H 59.098278 l 4.021992,7.903773 z"
     id="path6-0"
     style="fill:#ea4335;stroke-width:0.687282" />
  <path
     inkscape:connector-curvature="0"
     d="M 48,39.182127 57.450168,22.824745 C 56.522331,22.274917 55.457043,22 54.357387,22 H 41.64261 c -1.099659,0 -2.164944,0.309294 -3.092784,0.824748 z"
     id="path8-4"
     style="fill:#00832d;stroke-width:0.687282" />
  <path
     inkscape:connector-curvature="0"
     d="M 68.446731,40.213056 59.718204,25.09278 C 59.168412,24.130582 58.378005,23.37457 57.450168,22.824745 L 48,39.182127 59.099658,58.42611 h 18.865977 c 0,-1.0653 -0.27492,-2.130585 -0.824724,-3.092784 z"
     id="path12"
     style="fill:#ffba00;stroke-width:0.687282" />
</svg>
