<?xml version="1.0" encoding="UTF-8" standalone="no"?>
<!-- Created with Inkscape (http://www.inkscape.org/) -->

<svg
   width="96"
   height="96"
   viewBox="0 0 96 96"
   version="1.1"
   id="svg5"
   inkscape:version="1.4 (e7c3feb100, 2024-10-09)"
   sodipodi:docname="youtube-dl.svg"
   xmlns:inkscape="http://www.inkscape.org/namespaces/inkscape"
   xmlns:sodipodi="http://sodipodi.sourceforge.net/DTD/sodipodi-0.dtd"
   xmlns:xlink="http://www.w3.org/1999/xlink"
   xmlns="http://www.w3.org/2000/svg"
   xmlns:svg="http://www.w3.org/2000/svg">
  <sodipodi:namedview
     id="namedview7"
     pagecolor="#ffffff"
     bordercolor="#000000"
     borderopacity="0.25"
     inkscape:showpageshadow="2"
     inkscape:pageopacity="0.0"
     inkscape:pagecheckerboard="0"
     inkscape:deskcolor="#d1d1d1"
     inkscape:document-units="px"
     showgrid="false"
     inkscape:zoom="8.9166667"
     inkscape:cx="47.88785"
     inkscape:cy="48"
     inkscape:window-width="1920"
     inkscape:window-height="1011"
     inkscape:window-x="0"
     inkscape:window-y="0"
     inkscape:window-maximized="1"
     inkscape:current-layer="svg5" />
  <defs
     id="defs2">
    <linearGradient
       inkscape:collect="always"
       xlink:href="#4852"
       id="linearGradient3500"
       x1="2"
       y1="2"
       x2="30"
       y2="30"
       gradientUnits="userSpaceOnUse"
       gradientTransform="scale(3)" />
    <linearGradient
       inkscape:collect="always"
       id="4852">
      <stop
         style="stop-color:#272727;stop-opacity:1;"
         offset="0"
         id="stop14555" />
      <stop
         style="stop-color:#5d5d5d;stop-opacity:1;"
         offset="1"
         id="stop14557" />
    </linearGradient>
  </defs>
  <path
     d="m 39,7.000001 c -27.303571,0 -33,5.819451 -33,33 v 18 c 0,27.180548 5.696429,33 33,33 h 18 c 27.30357,0 33,-5.819452 33,-33 v -18 c 0,-27.180549 -5.69643,-33 -33,-33"
     style="opacity:0.2;fill:#000000;stroke-width:3;stroke-linecap:round;stroke-linejoin:round"
     id="path563" />
  <path
     id="path530"
     style="fill:url(#linearGradient3500);fill-opacity:1;stroke-width:3;stroke-linecap:round;stroke-linejoin:round"
     d="M 39,6 C 11.696456,6 6,11.819478 6,39 v 18 c 0,27.180522 5.696456,33 33,33 H 57 C 84.303546,90 90,84.180522 90,57 V 39 C 90,11.819478 84.303546,6 57,6 Z" />
  <path
     id="path1633"
     style="fill:#ff0000;fill-opacity:1;stroke-width:0.478674"
     d="M 48 28 C 48 28 31.049302 28.003131 26.423828 29.179688 C 23.94068 29.838511 21.896492 31.810765 21.214844 34.257812 C 19.997614 38.728386 20 48 20 48 C 20 48 19.997604 57.322574 21.214844 61.746094 C 21.896496 64.19314 23.891992 66.116577 26.423828 66.775391 C 31.097988 67.998927 48 68 48 68 C 48 68 64.94679 67.996868 69.572266 66.820312 C 72.104108 66.161486 74.097647 64.236113 74.779297 61.789062 C 75.996529 57.318484 76 48.046875 76 48.046875 C 76 48.046875 76.044725 38.728386 74.779297 34.257812 C 74.097645 31.810765 72.104108 29.883429 69.572266 29.224609 C 64.94679 28.001085 48 28 48 28 z M 44 36 L 52 36 L 52 48 L 60 48 L 48 60 L 36 48 L 44 48 L 44 36 z " />
</svg>
