<?xml version="1.0" encoding="UTF-8" standalone="no"?>
<!-- Created with Inkscape (http://www.inkscape.org/) -->

<svg
   width="22"
   height="22"
   viewBox="0 0 22 22"
   version="1.1"
   id="svg5"
   inkscape:version="1.2.2 (1:1.2.2+202305151914+b0a8486541)"
   sodipodi:docname="applications-graphics.svg"
   xmlns:inkscape="http://www.inkscape.org/namespaces/inkscape"
   xmlns:sodipodi="http://sodipodi.sourceforge.net/DTD/sodipodi-0.dtd"
   xmlns="http://www.w3.org/2000/svg"
   xmlns:svg="http://www.w3.org/2000/svg">
  <sodipodi:namedview
     id="namedview7"
     pagecolor="#ffffff"
     bordercolor="#000000"
     borderopacity="0.25"
     inkscape:showpageshadow="2"
     inkscape:pageopacity="0.0"
     inkscape:pagecheckerboard="0"
     inkscape:deskcolor="#d1d1d1"
     inkscape:document-units="px"
     showgrid="false"
     inkscape:zoom="36.636364"
     inkscape:cx="9.8672456"
     inkscape:cy="11"
     inkscape:window-width="1920"
     inkscape:window-height="1008"
     inkscape:window-x="0"
     inkscape:window-y="0"
     inkscape:window-maximized="1"
     inkscape:current-layer="svg5"
     showguides="true" />
  <defs
     id="defs2">
    <style
       id="current-color-scheme"
       type="text/css">
         .ColorScheme-Text { color:#232629; }
         .ColorScheme-Highlight { color:#3daee9; }
     </style>
  </defs>
  <path
     id="path530"
     style="fill:currentColor;fill-opacity:1;stroke-width:0.750005;stroke-linecap:round;stroke-linejoin:round"
     class="ColorScheme-Highlight"
     d="M 9,1 C 2.174114,1 1,2.2048695 1,9 v 4 c 0,6.79513 1.174114,8 8,8 h 4 c 6.825886,0 8,-1.20487 8,-8 V 9 C 21,2.2048695 19.825886,1 13,1 Z"
     sodipodi:nodetypes="sssssssss" />
  <path
     d="M 17.574011,4.0063467 C 16.519953,3.8734783 13.770328,5.7582106 11.060438,8.4691691 9.8519873,9.678351 8.8032053,10.873282 7.9999393,12.000365 c 0.941442,0.299945 1.700182,1.058185 1.999969,1.999968 1.1266517,-0.803497 2.3242957,-1.847711 3.5331477,-3.056592 3.074477,-3.0757533 5.012984,-6.1227481 4.330013,-6.8065375 -0.07019,-0.0707 -0.16597,-0.1150677 -0.289058,-0.1308568 z M 7.4999473,13.330423 v 0.0019 c -3.499758,0.93826 -0.875133,3.154459 -3.499947,4.667936 3.499758,0 5.24992,-1.751798 5.24992,-2.919879 0,-0.58227 0.05935,-1.653073 -1.749973,-1.749974 z"
     style="fill:currentColor;fill-opacity:1;stroke-width:0.99998;opacity:0.6"
     id="path4198"
     class="ColorScheme-Text" />
</svg>
