<?xml version="1.0" encoding="UTF-8" standalone="no"?>
<!-- Created with Inkscape (http://www.inkscape.org/) -->

<svg
   width="22"
   height="22"
   viewBox="0 0 22 22"
   version="1.1"
   id="svg5"
   inkscape:version="1.2.2 (1:1.2.2+202305151914+b0a8486541)"
   sodipodi:docname="applications-education.svg"
   xmlns:inkscape="http://www.inkscape.org/namespaces/inkscape"
   xmlns:sodipodi="http://sodipodi.sourceforge.net/DTD/sodipodi-0.dtd"
   xmlns="http://www.w3.org/2000/svg"
   xmlns:svg="http://www.w3.org/2000/svg">
  <sodipodi:namedview
     id="namedview7"
     pagecolor="#ffffff"
     bordercolor="#000000"
     borderopacity="0.25"
     inkscape:showpageshadow="2"
     inkscape:pageopacity="0.0"
     inkscape:pagecheckerboard="0"
     inkscape:deskcolor="#d1d1d1"
     inkscape:document-units="px"
     showgrid="false"
     inkscape:zoom="36.636364"
     inkscape:cx="10.986352"
     inkscape:cy="11"
     inkscape:window-width="1920"
     inkscape:window-height="1008"
     inkscape:window-x="0"
     inkscape:window-y="0"
     inkscape:window-maximized="1"
     inkscape:current-layer="svg5"
     showguides="true" />
  <defs
     id="defs2">
    <style
       id="current-color-scheme"
       type="text/css">
         .ColorScheme-Text { color:#232629; }
         .ColorScheme-Highlight { color:#3daee9; }
     </style>
  </defs>
  <path
     id="path530"
     style="fill:currentColor;fill-opacity:1;stroke-width:0.750005;stroke-linecap:round;stroke-linejoin:round"
     class="ColorScheme-Highlight"
     d="M 9,1 C 2.174114,1 1,2.2048695 1,9 v 4 c 0,6.79513 1.174114,8 8,8 h 4 c 6.825886,0 8,-1.20487 8,-8 V 9 C 21,2.2048695 19.825886,1 13,1 Z"
     sodipodi:nodetypes="sssssssss" />
  <g
     id="g2329"
     style="opacity:0.6;fill:currentColor"
     class="ColorScheme-Text">
    <path
       id="rect466"
       style="stroke-width:2;stroke-linecap:round;stroke-linejoin:round"
       d="m 10.999897,5.0000008 a 0.57170215,0.50015003 0 0 0 -0.269531,0.058594 L 3.2987257,8.5605477 a 0.57170215,0.50015003 0 0 0 0,0.8789062 l 7.4316403,3.5019531 a 0.57170215,0.50015003 0 0 0 0.539062,0 l 7.431641,-3.5019531 a 0.57170215,0.50015003 0 0 0 0,-0.8789062 L 11.269428,5.0585946 A 0.57170215,0.50015003 0 0 0 10.999897,5.0000008 Z M 5.9998975,11.69922 v 2.800781 c 0,1.107998 2.8920023,2.5 3.9999998,2.5 h 1.9999997 c 1.107998,0 4,-1.392002 4,-2.5 V 11.69922 l -4.285156,2.121093 -0.002,0.002 c -0.443661,0.236722 -0.982122,0.236722 -1.425782,0 l -0.002,-0.002 z" />
    <path
       id="rect1073"
       style="opacity:0.5;stroke:none;stroke-width:2.11696;stroke-linecap:round;stroke-linejoin:round;stroke-dasharray:none;stroke-opacity:1"
       d="M 4 9.7695312 L 4 15 L 5 15 L 5 10.240234 L 4 9.7695312 z " />
  </g>
</svg>
