<?xml version="1.0" encoding="UTF-8" standalone="no"?>
<!-- Created with Inkscape (http://www.inkscape.org/) -->

<svg
   width="22"
   height="22"
   viewBox="0 0 22 22"
   version="1.1"
   id="svg5"
   inkscape:version="1.2.2 (1:1.2.2+202305151914+b0a8486541)"
   sodipodi:docname="multimedia-photo-viewer.svg"
   xmlns:inkscape="http://www.inkscape.org/namespaces/inkscape"
   xmlns:sodipodi="http://sodipodi.sourceforge.net/DTD/sodipodi-0.dtd"
   xmlns="http://www.w3.org/2000/svg"
   xmlns:svg="http://www.w3.org/2000/svg">
  <sodipodi:namedview
     id="namedview7"
     pagecolor="#ffffff"
     bordercolor="#000000"
     borderopacity="0.25"
     inkscape:showpageshadow="2"
     inkscape:pageopacity="0.0"
     inkscape:pagecheckerboard="0"
     inkscape:deskcolor="#d1d1d1"
     inkscape:document-units="px"
     showgrid="false"
     inkscape:zoom="36.636364"
     inkscape:cx="7.6836228"
     inkscape:cy="11"
     inkscape:window-width="1920"
     inkscape:window-height="1008"
     inkscape:window-x="0"
     inkscape:window-y="0"
     inkscape:window-maximized="1"
     inkscape:current-layer="svg5"
     showguides="true" />
  <defs
     id="defs2">
    <style
       id="current-color-scheme"
       type="text/css">
         .ColorScheme-Text { color:#232629; }
         .ColorScheme-Highlight { color:#3daee9; }
     </style>
  </defs>
  <path
     id="path530"
     style="fill:currentColor;fill-opacity:1;stroke-width:0.750005;stroke-linecap:round;stroke-linejoin:round"
     class="ColorScheme-Highlight"
     d="M 9,1 C 2.174114,1 1,2.2048695 1,9 v 4 c 0,6.79513 1.174114,8 8,8 h 4 c 6.825886,0 8,-1.20487 8,-8 V 9 C 21,2.2048695 19.825886,1 13,1 Z"
     sodipodi:nodetypes="sssssssss" />
  <g
     id="g1241"
     style="opacity:0.6;fill:currentColor"
     class="ColorScheme-Text">
    <path
       id="path1600"
       style="opacity:0.6;stroke-width:0.111611;stroke-linecap:round;stroke-linejoin:round"
       d="M 7.5820312 12.470703 C 7.322502 12.470038 7.0624136 12.557322 6.9023438 12.732422 L 3 17 L 7 17 L 9.5800781 14.244141 L 8.2519531 12.732422 C 8.1004973 12.559983 7.8415605 12.471368 7.5820312 12.470703 z " />
    <path
       id="rect234"
       style="stroke-width:0.111611;stroke-linecap:round;stroke-linejoin:round"
       d="M 12.401557,11.233089 6.99996,17 H 18.9998 l -5.248599,-5.766911 c -0.30896,-0.339471 -1.025285,-0.346296 -1.349644,0 z"
       sodipodi:nodetypes="sccss" />
    <circle
       style="fill-opacity:1;stroke-width:2;stroke-linecap:round;stroke-linejoin:round"
       id="path3505"
       cx="7"
       cy="7"
       r="2" />
  </g>
</svg>
