<?xml version="1.0" encoding="UTF-8" standalone="no"?>
<!-- Created with Inkscape (http://www.inkscape.org/) -->

<svg
   width="22"
   height="22"
   viewBox="0 0 22 22"
   version="1.1"
   id="svg5"
   inkscape:version="1.2.2 (1:1.2.2+202305151914+b0a8486541)"
   sodipodi:docname="preferences-desktop-color.svg"
   xmlns:inkscape="http://www.inkscape.org/namespaces/inkscape"
   xmlns:sodipodi="http://sodipodi.sourceforge.net/DTD/sodipodi-0.dtd"
   xmlns="http://www.w3.org/2000/svg"
   xmlns:svg="http://www.w3.org/2000/svg">
  <sodipodi:namedview
     id="namedview7"
     pagecolor="#ffffff"
     bordercolor="#000000"
     borderopacity="0.25"
     inkscape:showpageshadow="2"
     inkscape:pageopacity="0.0"
     inkscape:pagecheckerboard="0"
     inkscape:deskcolor="#d1d1d1"
     inkscape:document-units="px"
     showgrid="false"
     inkscape:zoom="36.727273"
     inkscape:cx="9.8972772"
     inkscape:cy="11"
     inkscape:window-width="1920"
     inkscape:window-height="1008"
     inkscape:window-x="0"
     inkscape:window-y="0"
     inkscape:window-maximized="1"
     inkscape:current-layer="svg5"
     showguides="true" />
  <defs
     id="defs2">
    <style
       id="current-color-scheme"
       type="text/css">
         .ColorScheme-Text { color:#232629; }
         .ColorScheme-Highlight { color:#3daee9; }
     </style>
  </defs>
  <path
     id="path530"
     style="fill:currentColor;fill-opacity:1;stroke-width:0.750005;stroke-linecap:round;stroke-linejoin:round"
     d="M 8.9999995,1 C 2.174114,1 1,2.2048695 1,9.0000003 V 13 c 0,6.79513 1.174114,8 7.9999995,8 H 13 c 6.825886,0 8,-1.20487 8,-8 V 9.0000003 C 21,2.2048695 19.825886,1 13,1 Z"
     sodipodi:nodetypes="sssssssss"
     class="ColorScheme-Highlight" />
  <path
     d="M 6.5,6 C 5.6715891,5.9999448 5,6.6715338 5,7.5 5,8.3284662 5.6715891,9.000055 6.5,9 7.3284109,9.000055 8,8.3284662 8,7.5 8,6.6715338 7.3284109,5.9999448 6.5,6 Z m 9,0 C 14.671589,5.9999448 14,6.6715338 14,7.5 14,8.3284662 14.671589,9.000055 15.5,9 16.328411,9.000055 17,8.3284662 17,7.5 17,6.6715338 16.328411,5.9999448 15.5,6 Z M 7,14 c 0.8255796,1.854986 2.3508403,2.99836 4.002,3 1.64973,-0.0035 3.173136,-1.146617 3.998,-3 h -0.56055 c -0.875132,1.269264 -2.124801,1.996344 -3.4375,2 -1.3126994,-0.0037 -2.5623681,-0.730736 -3.4375,-2 z"
     style="fill:currentColor;fill-opacity:1;opacity:0.6"
     class="ColorScheme-Text"
     id="path302"
     sodipodi:nodetypes="cscsccscscccccccc" />
</svg>
