<?xml version="1.0" encoding="UTF-8" standalone="no"?>
<!-- Created with Inkscape (http://www.inkscape.org/) -->

<svg
   width="128"
   height="128"
   viewBox="0 0 128 128"
   version="1.1"
   id="svg5"
   inkscape:version="1.2.1 (9c6d41e410, 2022-07-14)"
   sodipodi:docname="audio-speakers.svg"
   xmlns:inkscape="http://www.inkscape.org/namespaces/inkscape"
   xmlns:sodipodi="http://sodipodi.sourceforge.net/DTD/sodipodi-0.dtd"
   xmlns:xlink="http://www.w3.org/1999/xlink"
   xmlns="http://www.w3.org/2000/svg"
   xmlns:svg="http://www.w3.org/2000/svg">
  <sodipodi:namedview
     id="namedview7"
     pagecolor="#ffffff"
     bordercolor="#000000"
     borderopacity="0.25"
     inkscape:showpageshadow="2"
     inkscape:pageopacity="0.0"
     inkscape:pagecheckerboard="0"
     inkscape:deskcolor="#d1d1d1"
     inkscape:document-units="px"
     showgrid="false"
     inkscape:zoom="6.46875"
     inkscape:cx="64"
     inkscape:cy="64"
     inkscape:window-width="1920"
     inkscape:window-height="1008"
     inkscape:window-x="0"
     inkscape:window-y="0"
     inkscape:window-maximized="1"
     inkscape:current-layer="svg5"
     showguides="false" />
  <defs
     id="defs2">
    <linearGradient
       inkscape:collect="always"
       id="linearGradient3642">
      <stop
         style="stop-color:#4a4a4a;stop-opacity:1;"
         offset="0"
         id="stop3638" />
      <stop
         style="stop-color:#6e6e6e;stop-opacity:1;"
         offset="1"
         id="stop3640" />
    </linearGradient>
    <linearGradient
       inkscape:collect="always"
       xlink:href="#linearGradient15347"
       id="linearGradient2629"
       x1="8.2020826"
       y1="11.112499"
       x2="8.2020826"
       y2="4.7624998"
       gradientUnits="userSpaceOnUse"
       gradientTransform="matrix(11.682176,0,0,11.682176,-34.909081,-34.909077)" />
    <linearGradient
       inkscape:collect="always"
       id="linearGradient15347">
      <stop
         style="stop-color:#ffd017;stop-opacity:1;"
         offset="0"
         id="stop15343" />
      <stop
         style="stop-color:#f99b00;stop-opacity:1;"
         offset="1"
         id="stop15345" />
    </linearGradient>
    <radialGradient
       inkscape:collect="always"
       xlink:href="#linearGradient1990"
       id="radialGradient1992"
       cx="-5.0270829"
       cy="12.700001"
       fx="-5.0270829"
       fy="12.700001"
       r="1.0583333"
       gradientUnits="userSpaceOnUse"
       gradientTransform="matrix(-1.6400239e-5,13.228353,-13.228346,-3.6180826e-5,231.99996,123.50047)" />
    <linearGradient
       inkscape:collect="always"
       id="linearGradient1990">
      <stop
         style="stop-color:#515151;stop-opacity:1"
         offset="0"
         id="stop1986" />
      <stop
         style="stop-color:#303030;stop-opacity:1"
         offset="1"
         id="stop1988" />
    </linearGradient>
    <linearGradient
       inkscape:collect="always"
       xlink:href="#linearGradient3642"
       id="linearGradient3653"
       x1="4"
       y1="4"
       x2="60"
       y2="60"
       gradientUnits="userSpaceOnUse"
       gradientTransform="scale(2)" />
  </defs>
  <path
     id="path303"
     style="opacity:0.2;fill:#000000;stroke-width:2;stroke-linecap:round;stroke-linejoin:round;paint-order:stroke fill markers"
     d="M 64,8.9999999 A 56,56 0 0 0 35.355467,16.999999 H 26.000001 C 20.460006,16.999999 16,21.460006 16,27.000001 v 9.355468 A 56,56 0 0 0 8,65 56,56 0 0 0 16,93.644533 V 103 c 0,5.53999 4.460006,10 10.000001,10 h 9.355466 A 56,56 0 0 0 64,121 56,56 0 0 0 92.644533,113 H 102 c 5.53999,0 10,-4.46001 10,-10 V 93.644533 A 56,56 0 0 0 120,65 56,56 0 0 0 112,36.160156 v -9.160155 c 0,-5.539995 -4.46001,-10.000002 -10,-10.000002 H 92.839844 A 56,56 0 0 0 64,8.9999999 Z" />
  <path
     id="path305"
     style="opacity:1;fill:url(#linearGradient3653);fill-opacity:1;stroke-width:2;stroke-linecap:round;stroke-linejoin:round;paint-order:stroke fill markers"
     d="M 64,8 A 56,56 0 0 0 35.355467,16 H 26.000001 C 20.460006,16 16,20.460006 16,26.000001 v 9.355466 A 56,56 0 0 0 8,64 56,56 0 0 0 16,92.644533 V 102 c 0,5.53999 4.460006,10 10.000001,10 h 9.355466 A 56,56 0 0 0 64,120 56,56 0 0 0 92.644533,112 H 102 c 5.53999,0 10,-4.46001 10,-10 V 92.644533 A 56,56 0 0 0 120,64 56,56 0 0 0 112,35.160156 V 26.000001 C 112,20.460006 107.53999,16 102,16 H 92.839844 A 56,56 0 0 0 64,8 Z" />
  <circle
     style="fill:#333333;stroke-width:2.74999"
     id="path1406"
     cx="64"
     cy="64"
     r="44" />
  <circle
     style="fill:#4d4d4d;stroke-width:2.9231"
     id="path1678"
     cx="64"
     cy="64"
     r="38" />
  <circle
     style="fill:url(#linearGradient2629);fill-opacity:1;stroke-width:24.7013;stroke-linecap:round;stroke-linejoin:round"
     id="path2453"
     cx="64"
     cy="64"
     r="34" />
  <circle
     style="fill:#1a1a1a;fill-opacity:1;stroke-width:36.0001;stroke-linecap:round;stroke-linejoin:round"
     id="path3067"
     cx="64"
     cy="64"
     r="16" />
  <circle
     style="fill:url(#radialGradient1992);fill-opacity:1;stroke-width:72.3736;stroke-linecap:round;stroke-linejoin:round"
     id="path3261"
     cx="64"
     cy="64"
     r="14" />
  <path
     id="path1718"
     style="opacity:1;fill:#868686;fill-opacity:1;stroke-width:2;stroke-linecap:round;stroke-linejoin:round;paint-order:stroke fill markers"
     d="M 26.000001,22 A 4.0000001,4.0000001 0 0 0 22,26.000001 4.0000001,4.0000001 0 0 0 26.000001,30 4.0000001,4.0000001 0 0 0 30,26.000001 4.0000001,4.0000001 0 0 0 26.000001,22 Z M 102,22 c -2.209136,0 -4,1.790864 -4,4.000001 C 98,28.209136 99.790864,30 102,30 c 2.20914,0 4,-1.790864 4,-3.999999 C 106,23.790864 104.20914,22 102,22 Z M 26.000001,98 A 4.0000001,4.0000001 0 0 0 22,102 4.0000001,4.0000001 0 0 0 26.000001,106 4.0000001,4.0000001 0 0 0 30,102 4.0000001,4.0000001 0 0 0 26.000001,98 Z M 102,98 c -2.209136,0 -4,1.790864 -4,4 0,2.20914 1.790864,4 4,4 2.20914,0 4,-1.79086 4,-4 0,-2.209136 -1.79086,-4 -4,-4 z" />
</svg>
