<?xml version="1.0" encoding="UTF-8" standalone="no"?>
<!-- Created with Inkscape (http://www.inkscape.org/) -->

<svg
   width="128"
   height="128"
   viewBox="0 0 128 128"
   version="1.1"
   id="svg5"
   inkscape:version="1.2.1 (9c6d41e410, 2022-07-14)"
   sodipodi:docname="video-display.svg"
   xmlns:inkscape="http://www.inkscape.org/namespaces/inkscape"
   xmlns:sodipodi="http://sodipodi.sourceforge.net/DTD/sodipodi-0.dtd"
   xmlns:xlink="http://www.w3.org/1999/xlink"
   xmlns="http://www.w3.org/2000/svg"
   xmlns:svg="http://www.w3.org/2000/svg">
  <sodipodi:namedview
     id="namedview7"
     pagecolor="#ffffff"
     bordercolor="#000000"
     borderopacity="0.25"
     inkscape:showpageshadow="2"
     inkscape:pageopacity="0.0"
     inkscape:pagecheckerboard="0"
     inkscape:deskcolor="#d1d1d1"
     inkscape:document-units="px"
     showgrid="false"
     inkscape:zoom="6.25"
     inkscape:cx="63.92"
     inkscape:cy="64"
     inkscape:window-width="1920"
     inkscape:window-height="1006"
     inkscape:window-x="0"
     inkscape:window-y="0"
     inkscape:window-maximized="1"
     inkscape:current-layer="svg5" />
  <defs
     id="defs2">
    <linearGradient
       inkscape:collect="always"
       id="linearGradient6851">
      <stop
         style="stop-color:#bebebe;stop-opacity:1;"
         offset="0"
         id="stop6847" />
      <stop
         style="stop-color:#dfdfdf;stop-opacity:1;"
         offset="1"
         id="stop6849" />
    </linearGradient>
    <linearGradient
       inkscape:collect="always"
       id="linearGradient5124">
      <stop
         style="stop-color:#5c5c5c;stop-opacity:1;"
         offset="0"
         id="stop5120" />
      <stop
         style="stop-color:#494949;stop-opacity:1;"
         offset="1"
         id="stop5122" />
    </linearGradient>
    <linearGradient
       inkscape:collect="always"
       xlink:href="#linearGradient5124"
       id="linearGradient5126"
       x1="19"
       y1="56"
       x2="45"
       y2="56"
       gradientUnits="userSpaceOnUse"
       gradientTransform="scale(2)" />
    <linearGradient
       inkscape:collect="always"
       xlink:href="#linearGradient5124"
       id="linearGradient5134"
       x1="4"
       y1="10"
       x2="60"
       y2="50"
       gradientUnits="userSpaceOnUse"
       gradientTransform="scale(2)" />
    <linearGradient
       inkscape:collect="always"
       xlink:href="#linearGradient6851"
       id="linearGradient6853"
       x1="6"
       y1="12"
       x2="58"
       y2="48"
       gradientUnits="userSpaceOnUse"
       gradientTransform="scale(2)" />
  </defs>
  <path
     id="rect3605"
     style="opacity:0.2;fill:#000000;fill-opacity:1;stroke-width:4;stroke-linecap:round;stroke-linejoin:round"
     d="m 16,21 c -4.431996,0 -8,3.568004 -8,8 v 64 c 0,4.431996 3.568004,8 8,8 h 96 c 4.432,0 8,-3.568004 8,-8 V 29 c 0,-4.431996 -3.568,-8 -8,-8 z m 26,88 c -2.215998,0 -4,1.784 -4,4 0,2.216 1.784002,4 4,4 h 44 c 2.215998,0 4,-1.784 4,-4 0,-2.216 -1.784002,-4 -4,-4 z" />
  <rect
     style="fill:url(#linearGradient5134);fill-opacity:1;stroke-width:4;stroke-linecap:round;stroke-linejoin:round"
     id="rect237"
     width="112"
     height="80"
     x="8"
     y="20"
     ry="8" />
  <rect
     style="fill:url(#linearGradient5126);fill-opacity:1;stroke-width:4;stroke-linecap:round;stroke-linejoin:round"
     id="rect1005"
     width="52"
     height="8"
     x="38"
     y="108"
     ry="4" />
  <rect
     style="fill:url(#linearGradient6853);fill-opacity:1;stroke-width:4;stroke-linecap:round;stroke-linejoin:round"
     id="rect3031"
     width="104"
     height="72"
     x="12"
     y="24"
     ry="4" />
  <path
     id="rect5914"
     style="opacity:0.2;fill:#ffffff;fill-opacity:1;stroke-width:4;stroke-linecap:round;stroke-linejoin:round"
     d="m 44,24 56,72 h 12 c 2.216,0 4,-1.784002 4,-4 V 28 c 0,-2.215998 -1.784,-4 -4,-4 z" />
</svg>
