<?xml version="1.0" encoding="UTF-8" standalone="no"?>
<svg
   width="22"
   height="22"
   version="1.1"
   id="svg2"
   sodipodi:docname="airplane-mode-disabled-symbolic.svg"
   inkscape:version="1.4.2 (ebf0e940d0, 2025-05-08)"
   xmlns:inkscape="http://www.inkscape.org/namespaces/inkscape"
   xmlns:sodipodi="http://sodipodi.sourceforge.net/DTD/sodipodi-0.dtd"
   xmlns="http://www.w3.org/2000/svg"
   xmlns:svg="http://www.w3.org/2000/svg">
  <defs
     id="defs2">
    <style
       id="current-color-scheme"
       type="text/css">
        .ColorScheme-Text { color:#363636; }
        .ColorScheme-NegativeText { color:#da4453; }
     </style>
  </defs>
  <sodipodi:namedview
     id="namedview2"
     pagecolor="#ffffff"
     bordercolor="#000000"
     borderopacity="0.25"
     inkscape:showpageshadow="2"
     inkscape:pageopacity="0.0"
     inkscape:pagecheckerboard="0"
     inkscape:deskcolor="#d1d1d1"
     inkscape:zoom="36.136364"
     inkscape:cx="11"
     inkscape:cy="11"
     inkscape:window-width="1920"
     inkscape:window-height="1010"
     inkscape:window-x="0"
     inkscape:window-y="0"
     inkscape:window-maximized="1"
     inkscape:current-layer="svg2" />
  <path
     id="path1"
     style="fill:currentColor"
     class="ColorScheme-Text"
     d="m 10.335938,3.000012 -0.117188,0.00195 a 1.0001,1.0001 0 0 0 -0.113281,0.00781 C 9.4805088,3.087936 9.0195563,3.681677 9.0976562,4.306647 a 1.0001,1.0001 0 0 0 0,0.00977 L 9.515625,7.3945476 10.681641,8.5605633 10.089844,4.181657 c -0.01111,-0.08886 0.0518,-0.1685775 0.140625,-0.1796875 l 0.115234,-0.00196 c 0.19865,0 0.379365,0.1168381 0.458985,0.2988281 l 2.783203,5.8632814 3.429687,-0.113282 c 0.525,-0.0175 0.964922,0.395083 0.982422,0.919922 v 0.03125 c 0,0.5251 -0.426072,0.951172 -0.951172,0.951172 l -3.078125,-0.101563 1.035156,1.035157 2.009766,0.06641 a 1.0001,1.0001 0 0 0 0.0332,0 C 18.114428,12.951184 19,12.065612 19,11.000012 a 1.0001,1.0001 0 0 0 0,-0.002 1.0001,1.0001 0 0 0 0,-0.0019 1.0001,1.0001 0 0 0 0,-0.002 1.0001,1.0001 0 0 0 0,-0.0019 1.0001,1.0001 0 0 0 0,-0.002 1.0001,1.0001 0 0 0 0,-0.0019 1.0001,1.0001 0 0 0 0,-0.002 1.0001,1.0001 0 0 0 0,-0.0019 v -0.03125 a 1.0001,1.0001 0 0 0 -0.002,-0.01758 C 18.96258,9.870484 18.049328,9.0153184 16.984328,9.0508183 l -2.773437,0.091797 -2.490235,-5.2441406 h -0.002 C 11.48057,3.3557995 10.938383,3.000012 10.345703,3.000012 a 1.0001,1.0001 0 0 0 -0.0098,0 z m -6.0527349,0.78125 c -0.12781,0 -0.2555806,0.050502 -0.3535156,0.1484375 -0.19587,0.19587 -0.19587,0.5111613 0,0.7070313 L 8.6132812,9.3203245 7.140625,9.3632932 6.1816406,7.6855589 C 5.9400306,7.2627589 5.48694,7.000012 5,7.000012 a 1.0001,1.0001 0 0 0 -1,1 v 1.5 0.066406 c -0.58022,0.2209203 -1,0.786194 -1,1.433594 0,0.64764 0.41935,1.212994 1,1.433594 v 0.06641 0.5 1 a 1.0001,1.0001 0 0 0 1.1054688,0.994141 l 0.076172,-0.0078 a 1.0001,1.0001 0 0 0 0.1054688,-0.01758 c 0.37375,-0.08066 0.7011712,-0.315807 0.8945312,-0.654297 l 0.9589842,-1.679698 2.6308594,0.07813 -0.6738282,4.992187 a 1.0001,1.0001 0 0 0 -0.00977,0.132813 c 1.32e-5,0.63006 0.5319438,1.162109 1.1621138,1.162109 h 0.0957 c 0.59272,0 1.134947,-0.355817 1.373047,-0.898438 h 0.002 l 1.826172,-3.847656 3.816406,3.816406 c 0.19587,0.19587 0.511162,0.19587 0.707031,0 0.19587,-0.195869 0.19587,-0.511161 0,-0.707031 l -4.068359,-4.068359 -0.75,-0.75 L 10.902344,10.195325 9.7363281,9.0293089 4.6367188,3.9296995 C 4.5387837,3.8317645 4.4110131,3.781262 4.2832031,3.781262 Z M 5,8.000012 c 0.12976,0 0.2500731,0.068982 0.3144531,0.1816406 l 1.2558594,2.1992184 3.0136719,-0.08984 3.2128906,3.212891 -1.992187,4.197266 c -0.07963,0.182 -0.260335,0.298828 -0.458985,0.298828 H 10.25 c -0.08952,0 -0.162109,-0.07261 -0.162109,-0.162109 L 10.910156,11.746106 6.5703125,11.619153 5.3144531,13.818371 C 5.2629831,13.908471 5.1753319,13.9708 5.0761719,13.9922 L 5,14.000012 v -1 -1 -0.433594 l -0.484375,-0.0332 C 4.227855,11.523615 4,11.287912 4,11.000012 4,10.712072 4.227865,10.476399 4.515625,10.466809 L 5,10.431653 v -0.431641 -1 z" />
</svg>
