<?xml version="1.0" encoding="UTF-8" standalone="no"?>
<!-- Created with Inkscape (http://www.inkscape.org/) -->

<svg
   width="22"
   height="22"
   viewBox="0 0 22 22"
   version="1.1"
   id="svg5"
   inkscape:version="1.4.2 (ebf0e940d0, 2025-05-08)"
   sodipodi:docname="audio-volume-muted-blocking-symbolic.svg"
   xmlns:inkscape="http://www.inkscape.org/namespaces/inkscape"
   xmlns:sodipodi="http://sodipodi.sourceforge.net/DTD/sodipodi-0.dtd"
   xmlns="http://www.w3.org/2000/svg"
   xmlns:svg="http://www.w3.org/2000/svg">
  <sodipodi:namedview
     id="namedview7"
     pagecolor="#ffffff"
     bordercolor="#666666"
     borderopacity="1.0"
     inkscape:showpageshadow="2"
     inkscape:pageopacity="0.0"
     inkscape:pagecheckerboard="0"
     inkscape:deskcolor="#d1d1d1"
     inkscape:document-units="px"
     showgrid="false"
     showguides="false"
     inkscape:zoom="36.136364"
     inkscape:cx="11"
     inkscape:cy="11"
     inkscape:window-width="1920"
     inkscape:window-height="1010"
     inkscape:window-x="0"
     inkscape:window-y="0"
     inkscape:window-maximized="1"
     inkscape:current-layer="svg5" />
  <defs
     id="defs2">
    <style
       id="current-color-scheme"
       type="text/css">
        .ColorScheme-Text { color:#363636; }
        .ColorScheme-NegativeText { color:#da4453; }
     </style>
  </defs>
  <path
     id="path1306"
     style="fill:currentColor"
     class="ColorScheme-NegativeText"
     d="m 10.5,5 c -0.132599,2.55e-5 -0.25976,0.052717 -0.353516,0.1464844 L 7,8 H 5 C 3.892003,8 3,8.8920033 3,10 v 2 c 0,1.107997 0.892003,2 2,2 h 2 l 3.146484,2.853516 C 10.461481,17.16829 10.999826,16.945316 11,16.5 V 5.5 C 10.999593,5.2981544 10.877872,5.1163436 10.691406,5.0390625 10.630793,5.0135845 10.565749,5.0003104 10.5,5 Z M 10,6.75 v 8.5 L 7.457031,13 H 7 5 C 4.446001,13 4,12.553999 4,12 V 10 C 4,9.446001 4.446001,9 5,9 h 2 0.457031 z"
     sodipodi:nodetypes="cccssssccccccccccssssccc" />
  <path
     d="M 17.974106,12.767447 16.20666,11 17.974106,9.232554 17.267,8.5254465 15.499553,10.292893 13.732107,8.5254465 13.025,9.232554 14.792446,11 13.025,12.767447 l 0.707107,0.707106 1.767446,-1.767446 1.767447,1.767446 z"
     style="fill:currentColor"
     class="ColorScheme-NegativeText"
     id="path1344"
     sodipodi:nodetypes="ccccccccccccc" />
</svg>
