<?xml version="1.0" encoding="UTF-8" standalone="no"?>
<svg
   width="22"
   height="22"
   version="1.1"
   id="svg2"
   sodipodi:docname="auth-sim-missing-symbolic.svg"
   inkscape:version="1.4.2 (ebf0e940d0, 2025-05-08)"
   xmlns:inkscape="http://www.inkscape.org/namespaces/inkscape"
   xmlns:sodipodi="http://sodipodi.sourceforge.net/DTD/sodipodi-0.dtd"
   xmlns="http://www.w3.org/2000/svg"
   xmlns:svg="http://www.w3.org/2000/svg">
  <defs
     id="defs2">
    <style
       id="current-color-scheme"
       type="text/css">
        .ColorScheme-Text { color:#363636; }
        .ColorScheme-NeutralText { color:#f67400; }
        .ColorScheme-PositiveText { color:#37c837; }
        .ColorScheme-NegativeText { color:#f44336; }
     </style>
  </defs>
  <sodipodi:namedview
     id="namedview2"
     pagecolor="#ffffff"
     bordercolor="#000000"
     borderopacity="0.25"
     inkscape:showpageshadow="2"
     inkscape:pageopacity="0.0"
     inkscape:pagecheckerboard="0"
     inkscape:deskcolor="#d1d1d1"
     inkscape:zoom="36.136364"
     inkscape:cx="11"
     inkscape:cy="11"
     inkscape:window-width="1920"
     inkscape:window-height="1010"
     inkscape:window-x="0"
     inkscape:window-y="0"
     inkscape:window-maximized="1"
     inkscape:current-layer="svg2" />
  <path
     id="path1"
     style="fill:currentColor"
     class="ColorScheme-Text"
     d="M 11.150391,6.0058594 A 2.992,2.992 0 0 0 9.8515625,6.2285156 3.005,3.005 0 0 0 8,9 h 2 C 10,8.593 10.240188,8.2321719 10.617188,8.0761719 A 0.994,0.994 0 0 1 11.707031,8.2929688 0.994,0.994 0 0 1 11.923828,9.3828125 0.994,0.994 0 0 1 11,10 1,1 0 0 0 10,11 v 2 h 2 v -1.179687 a 2.998,2.998 0 0 0 1.771484,-1.671875 3.006,3.006 0 0 0 -0.65039,-3.2695318 3.001,3.001 0 0 0 -1.96875,-0.8730468 z M 11,14 a 1,1 0 0 0 -1,1 1,1 0 0 0 1,1 1,1 0 0 0 1,-1 1,1 0 0 0 -1,-1 z" />
  <path
     id="path2"
     class="ColorScheme-Text"
     d="M 9,4 5,8 v 8 c 0,1.108 0.892,2 2,2 h 8 c 1.108,0 2,-0.892 2,-2 V 6 C 17,4.892 16.108,4 15,4 Z M 9.4140625,5 H 15 c 0.554,0 1,0.446 1,1 v 10 c 0,0.554 -0.446,1 -1,1 H 7 C 6.446,17 6,16.554 6,16 V 8.4140625 Z M 7,10 v 3 h 2 v -3 z m 7.865234,0 C 14.596074,11.034 13.92439,11.917425 13,12.453125 V 13 h 2 V 10 Z M 7,14 v 2 h 2 v -2 z m 6,0 v 2 h 2 v -2 z"
     style="opacity:0.35;fill:currentColor" />
</svg>
