<?xml version="1.0" encoding="UTF-8" standalone="no"?>
<svg
   width="22"
   height="22"
   version="1.1"
   id="svg4"
   sodipodi:docname="camera-hardware-disabled-symbolic.svg"
   inkscape:version="1.4.2 (ebf0e940d0, 2025-05-08)"
   xmlns:inkscape="http://www.inkscape.org/namespaces/inkscape"
   xmlns:sodipodi="http://sodipodi.sourceforge.net/DTD/sodipodi-0.dtd"
   xmlns="http://www.w3.org/2000/svg"
   xmlns:svg="http://www.w3.org/2000/svg">
  <defs
     id="defs4">
    <style
       id="current-color-scheme"
       type="text/css">
        .ColorScheme-Text { color:#363636; }
        .ColorScheme-NeutralText { color:#f67400; }
        .ColorScheme-PositiveText { color:#37c837; }
        .ColorScheme-NegativeText { color:#f44336; }
        .ColorScheme-Highlight { color:#3daee9; }
     </style>
  </defs>
  <sodipodi:namedview
     id="namedview4"
     pagecolor="#ffffff"
     bordercolor="#000000"
     borderopacity="0.25"
     inkscape:showpageshadow="2"
     inkscape:pageopacity="0.0"
     inkscape:pagecheckerboard="0"
     inkscape:deskcolor="#d1d1d1"
     inkscape:zoom="36.727273"
     inkscape:cx="10.986386"
     inkscape:cy="11"
     inkscape:window-width="1920"
     inkscape:window-height="1011"
     inkscape:window-x="0"
     inkscape:window-y="0"
     inkscape:window-maximized="1"
     inkscape:current-layer="svg4" />
  <path
     id="path1"
     style="opacity:0.35;fill:currentColor;stroke-linecap:round;stroke-linejoin:round"
     class="ColorScheme-Text"
     d="m 10,5 v 1 h 6 V 5 Z M 5,7 C 3.892,7 3,7.892 3,9 v 7 c 0,1.108 0.892,2 2,2 h 12 c 1.108,0 2,-0.892 2,-2 V 9 C 19,7.892 18.108,7 17,7 Z m 0,1 h 12 c 0.554,0 1,0.446 1,1 v 7 c 0,0.554 -0.446,1 -1,1 H 5 C 4.446,17 4,16.554 4,16 V 9 C 4,8.446 4.446,8 5,8 Z m 0,1 v 1 H 7 V 9 Z m 8.5,0 A 3.5,3.5 0 0 0 10,12.5 3.5,3.5 0 0 0 13.5,16 3.5,3.5 0 0 0 17,12.5 3.5,3.5 0 0 0 13.5,9 Z m 0,1 A 2.5,2.5 0 0 1 16,12.5 2.5,2.5 0 0 1 13.5,15 2.5,2.5 0 0 1 11,12.5 2.5,2.5 0 0 1 13.5,10 Z" />
  <rect
     y="11"
     width="16"
     height="2"
     ry="1"
     stroke-linecap="round"
     stroke-linejoin="round"
     stroke-width="0.61104"
     style="fill:currentColor"
     class="ColorScheme-Text"
     id="rect4"
     x="3" />
</svg>
