<?xml version="1.0" encoding="UTF-8" standalone="no"?>
<svg
   width="22"
   height="22"
   version="1.1"
   id="svg1"
   sodipodi:docname="checkbox-mixed-symbolic.svg"
   inkscape:version="1.4.2 (ebf0e940d0, 2025-05-08)"
   xmlns:inkscape="http://www.inkscape.org/namespaces/inkscape"
   xmlns:sodipodi="http://sodipodi.sourceforge.net/DTD/sodipodi-0.dtd"
   xmlns="http://www.w3.org/2000/svg"
   xmlns:svg="http://www.w3.org/2000/svg">
  <defs
     id="defs1">
    <style
       id="current-color-scheme"
       type="text/css">
        .ColorScheme-Text { color:#363636; }
        .ColorScheme-NeutralText { color:#f67400; }
        .ColorScheme-PositiveText { color:#37c837; }
        .ColorScheme-NegativeText { color:#f44336; }
        .ColorScheme-Highlight { color:#3daee9; }
     </style>
  </defs>
  <sodipodi:namedview
     id="namedview1"
     pagecolor="#ffffff"
     bordercolor="#000000"
     borderopacity="0.25"
     inkscape:showpageshadow="2"
     inkscape:pageopacity="0.0"
     inkscape:pagecheckerboard="0"
     inkscape:deskcolor="#d1d1d1"
     inkscape:zoom="36.136364"
     inkscape:cx="11"
     inkscape:cy="11"
     inkscape:window-width="1920"
     inkscape:window-height="1010"
     inkscape:window-x="0"
     inkscape:window-y="0"
     inkscape:window-maximized="1"
     inkscape:current-layer="svg1" />
  <path
     id="path1"
     style="fill:currentColor"
     class="ColorScheme-Text"
     d="M 6.4355469 4 C 5.0625469 4 3.9375 5.1105156 3.9375 6.4785156 L 3.9375 15.521484 C 3.9375 16.889484 5.0625469 18 6.4355469 18 L 15.564453 18 C 16.937453 18 18.0625 16.889484 18.0625 15.521484 L 18.0625 6.4785156 C 18.0625 5.1105156 16.937453 4 15.564453 4 L 6.4355469 4 z M 6.4355469 4.9960938 L 15.564453 4.9960938 C 16.408453 4.9960938 17.066406 5.6495156 17.066406 6.4785156 L 17.066406 15.521484 C 17.066406 16.350484 16.408453 17.003906 15.564453 17.003906 L 6.4355469 17.003906 A 1.477 1.477 0 0 1 4.9335938 15.521484 L 4.9335938 6.4785156 C 4.9335938 5.6495156 5.5915469 4.9960938 6.4355469 4.9960938 z M 7 10 L 7 12 L 15 12 L 15 10 L 7 10 z " />
</svg>
