<?xml version="1.0" encoding="UTF-8" standalone="no"?>
<svg
   height="22"
   viewBox="0 0 22 22"
   width="22"
   version="1.1"
   id="svg1"
   sodipodi:docname="image-missing-symbolic.svg"
   inkscape:version="1.4.2 (ebf0e940d0, 2025-05-08)"
   xmlns:inkscape="http://www.inkscape.org/namespaces/inkscape"
   xmlns:sodipodi="http://sodipodi.sourceforge.net/DTD/sodipodi-0.dtd"
   xmlns="http://www.w3.org/2000/svg"
   xmlns:svg="http://www.w3.org/2000/svg">
  <defs
     id="defs1">
    <style
       id="current-color-scheme"
       type="text/css">
        .ColorScheme-Text { color:#363636; }
        .ColorScheme-NeutralText { color:#f67400; }
        .ColorScheme-PositiveText { color:#37c837; }
        .ColorScheme-NegativeText { color:#f44336; }
     </style>
  </defs>
  <sodipodi:namedview
     id="namedview1"
     pagecolor="#ffffff"
     bordercolor="#000000"
     borderopacity="0.25"
     inkscape:showpageshadow="2"
     inkscape:pageopacity="0.0"
     inkscape:pagecheckerboard="0"
     inkscape:deskcolor="#d1d1d1"
     inkscape:zoom="36.136364"
     inkscape:cx="11"
     inkscape:cy="11"
     inkscape:window-width="1920"
     inkscape:window-height="1010"
     inkscape:window-x="0"
     inkscape:window-y="0"
     inkscape:window-maximized="1"
     inkscape:current-layer="svg1" />
  <path
     id="path1"
     d="M 7,4 C 5.355469,4 4,5.355469 4,7 V 8 H 5 V 7 C 5,5.890625 5.890625,5 7,5 H 8 V 4 Z m 2,0 v 1 h 4 V 4 Z m 5,0 v 1 h 1 c 1.109375,0 2,0.890625 2,2 v 1 h 1 V 7 C 18,5.355469 16.644531,4 15,4 Z M 9,8 C 8.449219,8 8,8.449219 8,9 8,9.550781 8.449219,10 9,10 9.550781,10 10,9.550781 10,9 10,8.449219 9.550781,8 9,8 Z M 4,9 v 4 H 5 V 9 Z m 13,0 v 4 h 1 V 9 Z m -4.5,2 -2,2 L 9,12 7,14 v 0.5 C 7,15 7.5,15 7.5,15 h 7 c 0,0 0.472656,-0.03516 0.5,-0.5 v -1 z M 4,14 v 1 c 0,1.644531 1.355469,3 3,3 H 8 V 17 H 7 C 5.890625,17 5,16.109375 5,15 v -1 z m 13,0 v 1 c 0,1.109375 -0.890625,2 -2,2 h -1 v 1 h 1 c 1.644531,0 3,-1.355469 3,-3 v -1 z m -8,3 v 1 h 4 v -1 z"
     style="opacity:0.35;fill:currentColor"
     class="ColorScheme-Text" />
</svg>
