<?xml version="1.0" encoding="UTF-8" standalone="no"?>
<svg
   width="22"
   height="22"
   version="1.1"
   id="svg2"
   sodipodi:docname="network-wireless-error-symbolic.svg"
   inkscape:version="1.4.2 (ebf0e940d0, 2025-05-08)"
   xmlns:inkscape="http://www.inkscape.org/namespaces/inkscape"
   xmlns:sodipodi="http://sodipodi.sourceforge.net/DTD/sodipodi-0.dtd"
   xmlns="http://www.w3.org/2000/svg"
   xmlns:svg="http://www.w3.org/2000/svg">
  <defs
     id="defs2">
     <style
        id="current-color-scheme"
        type="text/css">
        .ColorScheme-Text { color:#363636; }
        .ColorScheme-NeutralText { color:#f67400; }
        .ColorScheme-PositiveText { color:#37c837; }
        .ColorScheme-NegativeText { color:#f44336; }
     </style>
  </defs>
  <sodipodi:namedview
     id="namedview2"
     pagecolor="#ffffff"
     bordercolor="#000000"
     borderopacity="0.25"
     inkscape:showpageshadow="2"
     inkscape:pageopacity="0.0"
     inkscape:pagecheckerboard="0"
     inkscape:deskcolor="#d1d1d1"
     inkscape:zoom="36.136364"
     inkscape:cx="11"
     inkscape:cy="11"
     inkscape:window-width="1920"
     inkscape:window-height="1010"
     inkscape:window-x="0"
     inkscape:window-y="0"
     inkscape:window-maximized="1"
     inkscape:current-layer="svg2" />
  <path
     id="path1"
     style="opacity:0.3;fill:currentColor"
     class="ColorScheme-Text"
     d="M 11.000328,6 C 8.1598281,5.9999997 5.5679,7.0071031 3.514,8.6582031 A 0.5,0.5 0 0 0 3.4182969,8.7304688 0.5,0.5 0 0 0 3.264,9.0898438 a 0.5,0.5 0 0 0 0.5,0.5 0.5,0.5 0 0 0 0.3183593,-0.1132813 C 5.9733594,7.9377625 8.3721281,7 11.000328,7 c 2.6282,-3e-7 5.026869,0.9376825 6.917969,2.4765625 a 0.5,0.5 0 0 0 0.318359,0.1132813 0.5,0.5 0 0 0 0.5,-0.5 0.5,0.5 0 0 0 -0.154297,-0.359375 0.5,0.5 0 0 0 -0.0957,-0.072266 C 16.432753,7.0071031 13.840728,6 11.000328,6 Z m 0,3 C 8.9272281,9 7.0322468,9.7172244 5.5120469,10.896484 a 0.5,0.5 0 0 0 -0.1015626,0.07422 0.5,0.5 0 0 0 -0.15625,0.361329 0.5,0.5 0 0 0 0.5,0.5 0.5,0.5 0 0 0 0.3203126,-0.115235 C 7.4333468,10.647997 9.1372281,10 11.000328,10 c 0.90287,-10e-8 1.767319,0.155104 2.574219,0.433594 a 4.5,4.5 0 0 1 1.535156,-0.416016 C 13.878903,9.3742381 12.486728,9 11.000328,9 Z m 0,3 c -1.3524999,0 -2.5832374,0.468929 -3.5859374,1.224609 -0.11034,0.09497 -0.1679487,0.239176 -0.1679687,0.384766 0,0.27614 0.22386,0.5 0.5,0.5 0.12436,-3.26e-4 0.2441275,-0.04698 0.3359374,-0.130859 C 8.9045093,13.375456 9.9022281,13 11.000328,13 c 0.0855,0 0.16575,0.017 0.25,0.02148 a 4.5,4.5 0 0 1 0.46875,-0.95898 C 11.482308,12.032707 11.245758,12 11.000328,12 Z m 0,3 a 1,1 0 0 0 -1,1 1,1 0 0 0 1,1 1,1 0 0 0 0.623047,-0.21875 A 4.5,4.5 0 0 1 11.027672,15 a 1,1 0 0 0 -0.02734,0 z" />
  <path
     id="path2"
     style="fill:currentColor"
     class="ColorScheme-NegativeText error"
     d="m 15.500328,11 c -1.933,0 -3.5,1.567 -3.5,3.5 0,1.933 1.567,3.5 3.5,3.5 1.933,0 3.5,-1.567 3.5,-3.5 0,-1.933 -1.567,-3.5 -3.5,-3.5 z m 0,1 c 0.277,0 0.5,0.223 0.5,0.5 v 2 c 0,0.277 -0.223,0.5 -0.5,0.5 -0.277,0 -0.5,-0.223 -0.5,-0.5 v -2 c 0,-0.277 0.223,-0.5 0.5,-0.5 z m -0.01172,4 a 0.5,0.5 0 0 1 0.01172,0 0.5,0.5 0 0 1 0.5,0.5 0.5,0.5 0 0 1 -0.5,0.5 0.5,0.5 0 0 1 -0.5,-0.5 0.5,0.5 0 0 1 0.488281,-0.5 z" />
</svg>
