<?xml version="1.0" encoding="UTF-8" standalone="no"?>
<svg
   width="22"
   height="22"
   version="1.1"
   id="svg1"
   sodipodi:docname="action-unavailable.svg"
   inkscape:version="1.4.2 (ebf0e940d0, 2025-05-08)"
   xmlns:inkscape="http://www.inkscape.org/namespaces/inkscape"
   xmlns:sodipodi="http://sodipodi.sourceforge.net/DTD/sodipodi-0.dtd"
   xmlns="http://www.w3.org/2000/svg"
   xmlns:svg="http://www.w3.org/2000/svg">
  <sodipodi:namedview
     id="namedview1"
     pagecolor="#ffffff"
     bordercolor="#000000"
     borderopacity="0.25"
     inkscape:showpageshadow="2"
     inkscape:pageopacity="0.0"
     inkscape:pagecheckerboard="0"
     inkscape:deskcolor="#d1d1d1"
     inkscape:zoom="36.136364"
     inkscape:cx="11"
     inkscape:cy="11"
     inkscape:window-width="1920"
     inkscape:window-height="1010"
     inkscape:window-x="0"
     inkscape:window-y="0"
     inkscape:window-maximized="1"
     inkscape:current-layer="svg1" />
  <defs
     id="defs3">
    <style
       id="current-color-scheme"
       type="text/css">
      .ColorScheme-Text { color:#f2f2f2; }
    </style>
  </defs>
  <path
     style="fill:currentColor"
     class="ColorScheme-Text"
     d="m 11,3 c -4.412,0 -8,3.588 -8,8 0,4.412 3.588,8 8,8 4.412,0 8,-3.588 8,-8 0,-4.412 -3.588,-8 -8,-8 z m 0,1 c 3.872,0 7,3.128 7,7 a 6.968,6.968 0 0 1 -1.71,4.582 L 6.417,5.711 A 6.968,6.968 0 0 1 11,4 Z m -5.289,2.418 9.871,9.871 A 6.968,6.968 0 0 1 11,18 C 7.128,18 4,14.872 4,11 4,9.244 4.647,7.645 5.711,6.418 Z"
     id="path1" />
</svg>
