<?xml version="1.0" encoding="UTF-8" standalone="no"?>
<!-- Created with Inkscape (http://www.inkscape.org/) -->

<svg
   width="22"
   height="22"
   viewBox="0 0 22 22"
   version="1.1"
   id="svg361"
   inkscape:version="1.2.1 (9c6d41e410, 2022-07-14)"
   sodipodi:docname="fcitx-pinyin.svg"
   xmlns:inkscape="http://www.inkscape.org/namespaces/inkscape"
   xmlns:sodipodi="http://sodipodi.sourceforge.net/DTD/sodipodi-0.dtd"
   xmlns="http://www.w3.org/2000/svg"
   xmlns:svg="http://www.w3.org/2000/svg">
  <sodipodi:namedview
     id="namedview363"
     pagecolor="#ffffff"
     bordercolor="#000000"
     borderopacity="0.25"
     inkscape:showpageshadow="2"
     inkscape:pageopacity="0.0"
     inkscape:pagecheckerboard="0"
     inkscape:deskcolor="#d1d1d1"
     inkscape:document-units="px"
     showgrid="false"
     inkscape:zoom="36.454545"
     inkscape:cx="10.986284"
     inkscape:cy="11"
     inkscape:window-width="1920"
     inkscape:window-height="1008"
     inkscape:window-x="0"
     inkscape:window-y="0"
     inkscape:window-maximized="1"
     inkscape:current-layer="svg361" />
  <defs
     id="defs358">
    <style
       id="current-color-scheme"
       type="text/css">
         .ColorScheme-Text { color:#f2f2f2; }
     </style>
  </defs>
  <path
     id="rect584"
     style="fill:currentColor;stroke-linecap:round;stroke-linejoin:round;paint-order:stroke fill markers"
     class="ColorScheme-Text"
     d="M 5,3 C 3.8920033,3 3,3.8920033 3,5 v 12 c 0,1.107997 0.8920033,2 2,2 h 12 c 1.107997,0 2,-0.892003 2,-2 V 5 C 19,3.8920033 18.107997,3 17,3 Z m 0,1 h 12 c 0.553997,0 1,0.4460018 1,1 v 12 c 0,0.553997 -0.446003,1 -1,1 H 5 C 4.4460018,18 4,17.553997 4,17 V 5 C 4,4.4460018 4.4460018,4 5,4 Z M 10.900391,4.6992188 10.099609,5.3007812 11.375,7 H 10 v 1 h 1 v 3 H 9.1171875 L 9.2226562,10.949219 8.7773438,10.050781 8,10.439453 V 8 H 9 V 7 H 8 V 5 H 7 V 7 H 5 v 1 h 2 v 2.939453 L 4.7773438,12.050781 5.2226562,12.949219 7,12.060547 V 16 H 5 v 1 h 3 v -5.439453 l 1,-0.5 V 12 h 1.960938 c -0.089,0.899999 -0.39197,1.610548 -0.792969,2.310547 -0.4972998,0.859999 -1.5097659,1.826172 -1.5097659,1.826172 l 0.6835938,0.728515 c 0,0 1.0704071,-0.984688 1.6914061,-2.054687 0.449,-0.779999 0.829782,-1.690548 0.925781,-2.810547 H 14 v 5 h 1 v -5 h 2 V 11 H 15 V 8 h 2 V 7 h -2.375 l 1.275391,-1.6992188 -0.800782,-0.6015624 -1.5,2 L 13.998047,7 H 12.001953 L 12.400391,6.6992188 Z M 12,8 h 2 v 3 h -2 z" />
</svg>
