<?xml version="1.0" encoding="UTF-8" standalone="no"?>
<!-- Created with Inkscape (http://www.inkscape.org/) -->

<svg
   width="22"
   height="22"
   viewBox="0 0 22 22"
   version="1.1"
   id="svg5"
   inkscape:version="1.2.1 (9c6d41e410, 2022-07-14)"
   sodipodi:docname="go-up-skip.svg"
   xmlns:inkscape="http://www.inkscape.org/namespaces/inkscape"
   xmlns:sodipodi="http://sodipodi.sourceforge.net/DTD/sodipodi-0.dtd"
   xmlns="http://www.w3.org/2000/svg"
   xmlns:svg="http://www.w3.org/2000/svg">
  <sodipodi:namedview
     id="namedview7"
     pagecolor="#ffffff"
     bordercolor="#666666"
     borderopacity="1.0"
     inkscape:showpageshadow="2"
     inkscape:pageopacity="0.0"
     inkscape:pagecheckerboard="0"
     inkscape:deskcolor="#d1d1d1"
     inkscape:document-units="px"
     showgrid="false"
     inkscape:zoom="33.333333"
     inkscape:cx="12"
     inkscape:cy="12"
     inkscape:window-width="1920"
     inkscape:window-height="1012"
     inkscape:window-x="0"
     inkscape:window-y="0"
     inkscape:window-maximized="1"
     inkscape:current-layer="svg5" />
  <defs
     id="defs2">
    <style
       id="current-color-scheme"
       type="text/css">
      .ColorScheme-Text { color:#f2f2f2; }
    </style>
  </defs>
  <path
     id="path510"
     style="fill:currentColor;stroke-width:2;stroke-linecap:round;stroke-linejoin:round"
     class="ColorScheme-Text"
     d="m 16.448756,6.5004159 c 0,-0.12781 -0.04858,-0.255586 -0.146485,-0.353516 -0.1959,-0.195866 -0.511132,-0.195857 -0.707031,0 L 10.997584,10.752369 6.4018805,6.1468999 c -0.195901,-0.195868 -0.511132,-0.195865 -0.707032,0 -0.195798,0.19587 -0.195798,0.511164 0,0.707032 l 5.3046885,5.3027341 5.302734,-5.3027341 c 0.0985,-0.09793 0.146485,-0.225706 0.146485,-0.353516 z m 0,5.0000001 c 0,-0.12781 -0.04858,-0.255586 -0.146485,-0.353516 -0.195899,-0.195866 -0.511131,-0.195857 -0.707031,0 L 10.997584,15.752369 6.4018805,11.1469 c -0.1959,-0.195868 -0.511132,-0.195865 -0.707032,0 -0.195798,0.19587 -0.195798,0.511164 0,0.707032 l 5.3046885,5.302734 5.302734,-5.302734 c 0.0985,-0.09793 0.146485,-0.225706 0.146485,-0.353516 z" />
</svg>
