<?xml version="1.0" encoding="UTF-8" standalone="no"?>
<!-- Created with Inkscape (http://www.inkscape.org/) -->

<svg
   width="22"
   height="22"
   viewBox="0 0 22 22"
   version="1.1"
   id="svg5"
   inkscape:version="1.2 (dc2aedaf03, 2022-05-15)"
   sodipodi:docname="go-first.svg"
   xmlns:inkscape="http://www.inkscape.org/namespaces/inkscape"
   xmlns:sodipodi="http://sodipodi.sourceforge.net/DTD/sodipodi-0.dtd"
   xmlns="http://www.w3.org/2000/svg"
   xmlns:svg="http://www.w3.org/2000/svg">
  <sodipodi:namedview
     id="namedview7"
     pagecolor="#ffffff"
     bordercolor="#666666"
     borderopacity="1.0"
     inkscape:showpageshadow="2"
     inkscape:pageopacity="0.0"
     inkscape:pagecheckerboard="0"
     inkscape:deskcolor="#d1d1d1"
     inkscape:document-units="px"
     showgrid="false"
     inkscape:zoom="26"
     inkscape:cx="10.980769"
     inkscape:cy="9.0384615"
     inkscape:window-width="1920"
     inkscape:window-height="1007"
     inkscape:window-x="0"
     inkscape:window-y="0"
     inkscape:window-maximized="1"
     inkscape:current-layer="svg5" />
  <defs
     id="defs2">
    <style id="current-color-scheme" type="text/css">
      .ColorScheme-Text { color:#dfdfdf; }
    </style>
  </defs>
  <path
     d="m 12.656,6.0512421 c -0.12781,-7e-7 -0.255585,0.048547 -0.353516,0.1464845 L 7,11.500219 l 5.302484,5.304297 c 0.195868,0.195867 0.511162,0.195867 0.707032,0 0.195867,-0.195869 0.19587,-0.511166 0,-0.707032 L 8.9140625,12.000219 H 18.5 c 0.277,0 0.500001,-0.223 0.500001,-0.5 0,-0.277 -0.223001,-0.5 -0.500001,-0.5 H 8.9140625 L 13.009516,6.9047578 c 0.195859,-0.1958769 0.195868,-0.5111631 0,-0.7070312 C 12.911582,6.0997925 12.78381,6.051243 12.656,6.0512421 Z"
     style="fill:currentColor;stroke-width:2;stroke-linecap:round;stroke-linejoin:round"
     class="ColorScheme-Text"
     id="path510"
     sodipodi:nodetypes="scccsccsssccss" />
  <circle
     style="fill:currentColor;stroke-width:1.99999;stroke-linecap:round;stroke-linejoin:round"
     class="ColorScheme-Text"
     id="path679"
     cx="4.5"
     cy="-11.500218"
     r="1.5"
     transform="scale(1,-1)" />
</svg>
