<?xml version="1.0" encoding="UTF-8" standalone="no"?>
<!-- Created with Inkscape (http://www.inkscape.org/) -->

<svg
   width="64"
   height="64"
   viewBox="0 0 64 64"
   version="1.1"
   id="svg5"
   inkscape:version="1.2.2 (b0a8486541, 2022-12-01)"
   sodipodi:docname="accessories-dictionary.svg"
   xmlns:inkscape="http://www.inkscape.org/namespaces/inkscape"
   xmlns:sodipodi="http://sodipodi.sourceforge.net/DTD/sodipodi-0.dtd"
   xmlns:xlink="http://www.w3.org/1999/xlink"
   xmlns="http://www.w3.org/2000/svg"
   xmlns:svg="http://www.w3.org/2000/svg">
  <sodipodi:namedview
     id="namedview7"
     pagecolor="#ffffff"
     bordercolor="#000000"
     borderopacity="0.25"
     inkscape:showpageshadow="2"
     inkscape:pageopacity="0.0"
     inkscape:pagecheckerboard="0"
     inkscape:deskcolor="#d1d1d1"
     inkscape:document-units="px"
     showgrid="false"
     inkscape:zoom="12.3125"
     inkscape:cx="32"
     inkscape:cy="32"
     inkscape:window-width="1920"
     inkscape:window-height="1011"
     inkscape:window-x="0"
     inkscape:window-y="0"
     inkscape:window-maximized="1"
     inkscape:current-layer="svg5" />
  <defs
     id="defs2">
    <linearGradient
       inkscape:collect="always"
       id="linearGradient1242">
      <stop
         style="stop-color:#b35c35;stop-opacity:1;"
         offset="0"
         id="stop1238" />
      <stop
         style="stop-color:#d3a482;stop-opacity:1;"
         offset="1"
         id="stop1240" />
    </linearGradient>
    <linearGradient
       inkscape:collect="always"
       xlink:href="#linearGradient1242"
       id="linearGradient4780"
       x1="2"
       y1="2"
       x2="30"
       y2="30"
       gradientUnits="userSpaceOnUse"
       gradientTransform="scale(2)" />
  </defs>
  <path
     d="M 26,5 C 7.797619,5 4,8.879634 4,27 V 39 C 4,57.120366 7.797619,61 26,61 H 38 C 56.20238,61 60,57.120366 60,39 V 27 C 60,8.879634 56.20238,5 38,5"
     style="opacity:0.2;fill:#000000;stroke-width:2;stroke-linecap:round;stroke-linejoin:round"
     id="path563" />
  <path
     id="path530"
     style="fill:url(#linearGradient4780);fill-opacity:1.0;stroke-width:2;stroke-linecap:round;stroke-linejoin:round"
     d="M 26,4 C 7.7976372,4 4,7.8796522 4,26 V 38 C 4,56.120348 7.7976372,60 26,60 H 38 C 56.202364,60 60,56.120348 60,38 V 26 C 60,7.8796522 56.202364,4 38,4 Z" />
  <path
     d="M 30.433594,22 24.109376,40.816406 22,41.214844 V 42 h 6 V 41.214844 L 26.214844,40.816406 27.683594,36 h 7.113282 L 36.640624,40.816406 34,41.214844 V 42 h 8 V 41.214844 L 39.644532,40.816406 33.0625,22 Z m 0.648438,3.527344 3.285156,8.5 H 28.503906 Z M 47.828124,28 C 46.611812,28 45.101978,28.167 43.5,28.5 v 3 h 0.933594 L 44.9375,29.753906 c 0.820764,-0.447156 1.82753,-0.667968 2.816406,-0.667968 0.731768,0 1.267174,0.2186 1.613282,0.65625 0.355992,0.43764 0.589844,1.116196 0.589844,2.039062 v 2.191406 l -2.546876,0.05468 c -1.50309,0.02854 -2.349522,0.229004 -3.140624,0.542968 -0.791098,0.304472 -1.372396,0.749982 -1.738282,1.339844 C 42.175256,36.490532 42,37.23068 42,38.125 42,40.788948 43.19103,42 45.574218,42 c 1.750308,0 3.341434,-0.540406 4.46875,-1.625 L 50.273438,42 H 54 V 41.351562 L 53,40.992188 V 31.652344 C 52.991472,30.415538 52.600784,29.497822 51.878906,28.898438 51.166918,28.29905 49.350998,28 47.828124,28 Z M 50,35.019532 v 4.625 c -0.494438,0.22834 -0.888374,0.421996 -1.382812,0.574218 -0.48455,0.14266 -0.765064,0.210938 -1.4375,0.210938 -1.41409,0 -2.121094,-0.696624 -2.121094,-2.371094 0,-1.046556 0.234448,-1.795028 0.699218,-2.242188 0.47466,-0.447132 1.073344,-0.690682 2.398438,-0.738282 z"
     style="fill:#ffffff"
     id="path619" />
  <path
     id="rect1477"
     style="opacity:0.5;fill:#000000;stroke-width:4;stroke-linecap:round;stroke-linejoin:round"
     d="M 16,4.6679688 C 6.3167746,6.3838226 4,11.849521 4,26 v 12 c 0,14.15048 2.3167746,19.616178 12,21.332032 z" />
</svg>
