<?xml version="1.0" encoding="UTF-8" standalone="no"?>
<!-- Created with Inkscape (http://www.inkscape.org/) -->

<svg
   width="64"
   height="64"
   viewBox="0 0 64 64"
   version="1.1"
   id="svg5"
   inkscape:version="1.4.4 (dcaf3e7d9e, 2026-05-05)"
   sodipodi:docname="accessories-clock.svg"
   xmlns:inkscape="http://www.inkscape.org/namespaces/inkscape"
   xmlns:sodipodi="http://sodipodi.sourceforge.net/DTD/sodipodi-0.dtd"
   xmlns:xlink="http://www.w3.org/1999/xlink"
   xmlns="http://www.w3.org/2000/svg"
   xmlns:svg="http://www.w3.org/2000/svg">
  <sodipodi:namedview
     id="namedview7"
     pagecolor="#ffffff"
     bordercolor="#000000"
     borderopacity="0.25"
     inkscape:showpageshadow="2"
     inkscape:pageopacity="0.0"
     inkscape:pagecheckerboard="0"
     inkscape:deskcolor="#d1d1d1"
     inkscape:document-units="px"
     showgrid="false"
     inkscape:zoom="12.5625"
     inkscape:cx="32"
     inkscape:cy="32"
     inkscape:window-width="1920"
     inkscape:window-height="1012"
     inkscape:window-x="0"
     inkscape:window-y="0"
     inkscape:window-maximized="1"
     inkscape:current-layer="svg5" />
  <defs
     id="defs2">
    <linearGradient
       inkscape:collect="always"
       xlink:href="#linearGradient2"
       id="linearGradient4780"
       x1="2"
       y1="2"
       x2="30"
       y2="30"
       gradientUnits="userSpaceOnUse"
       gradientTransform="scale(2)" />
    <linearGradient
       inkscape:collect="always"
       id="linearGradient2">
      <stop
         style="stop-color:#aeaeae;stop-opacity:1;"
         offset="0"
         id="stop1" />
      <stop
         style="stop-color:#dedede;stop-opacity:1;"
         offset="1"
         id="stop2" />
    </linearGradient>
  </defs>
  <path
     d="M 26,5 C 7.797619,5 4,8.879634 4,27 V 39 C 4,57.120366 7.797619,61 26,61 H 38 C 56.20238,61 60,57.120366 60,39 V 27 C 60,8.879634 56.20238,5 38,5"
     style="opacity:0.2;fill:#000000;stroke-width:2;stroke-linecap:round;stroke-linejoin:round"
     id="path563" />
  <path
     id="path530"
     style="fill:url(#linearGradient4780);fill-opacity:1;stroke-width:2;stroke-linecap:round;stroke-linejoin:round"
     d="M 26,4 C 7.7976372,4 4,7.8796522 4,26 V 38 C 4,56.120348 7.7976372,60 26,60 H 38 C 56.202364,60 60,56.120348 60,38 V 26 C 60,7.8796522 56.202364,4 38,4 Z" />
  <circle
     style="opacity:0.6;fill:#ffffff;stroke-width:4;stroke-linecap:round;stroke-linejoin:round"
     id="path291"
     cx="32"
     cy="32"
     r="20" />
  <rect
     style="opacity:1;fill:#3f3f3f;stroke-width:4;stroke-linecap:round;stroke-linejoin:round;fill-opacity:1"
     id="rect451"
     width="4"
     height="18"
     x="30"
     y="16"
     ry="2" />
  <rect
     style="opacity:1;fill:#1bc166;fill-opacity:1;stroke-width:4;stroke-linecap:round;stroke-linejoin:round"
     id="rect1007"
     width="4"
     height="15"
     x="-2"
     y="-58.257408"
     ry="2"
     transform="rotate(135)" />
  <circle
     style="opacity:1;fill:#3f3f3f;fill-opacity:1;stroke-width:3;stroke-linecap:round;stroke-linejoin:round"
     id="path2027"
     cx="32"
     cy="32"
     r="4" />
  <circle
     style="fill:#ffffff;fill-opacity:1;stroke-width:2.25;stroke-linecap:round;stroke-linejoin:round"
     id="path2027-5"
     cx="32"
     cy="32"
     r="2" />
</svg>
