<?xml version="1.0" encoding="UTF-8" standalone="no"?>
<!-- Created with Inkscape (http://www.inkscape.org/) -->

<svg
   width="64"
   height="64"
   viewBox="0 0 64 64"
   version="1.1"
   id="svg5"
   inkscape:version="1.2.2 (1:1.2.2+202305151914+b0a8486541)"
   sodipodi:docname="androidstudio-preview.svg"
   xmlns:inkscape="http://www.inkscape.org/namespaces/inkscape"
   xmlns:sodipodi="http://sodipodi.sourceforge.net/DTD/sodipodi-0.dtd"
   xmlns="http://www.w3.org/2000/svg"
   xmlns:svg="http://www.w3.org/2000/svg">
  <sodipodi:namedview
     id="namedview7"
     pagecolor="#ffffff"
     bordercolor="#000000"
     borderopacity="0.25"
     inkscape:showpageshadow="2"
     inkscape:pageopacity="0.0"
     inkscape:pagecheckerboard="0"
     inkscape:deskcolor="#d1d1d1"
     inkscape:document-units="px"
     showgrid="false"
     inkscape:zoom="12.96875"
     inkscape:cx="32"
     inkscape:cy="32"
     inkscape:window-width="1920"
     inkscape:window-height="1008"
     inkscape:window-x="0"
     inkscape:window-y="0"
     inkscape:window-maximized="1"
     inkscape:current-layer="svg5" />
  <defs
     id="defs2" />
  <path
     d="M 26,5 C 7.797619,5 4,8.879634 4,27 V 39 C 4,57.120366 7.797619,61 26,61 H 38 C 56.20238,61 60,57.120366 60,39 V 27 C 60,8.879634 56.20238,5 38,5"
     style="opacity:0.2;fill:#000000;stroke-width:2;stroke-linecap:round;stroke-linejoin:round"
     id="path563" />
  <path
     id="path533"
     style="fill:#fafafa;fill-opacity:1;stroke-width:2;stroke-linecap:round;stroke-linejoin:round"
     d="M 26,4 C 7.797638,4 4,7.8796522 4,26 V 38 C 4,56.120348 7.797638,60 26,60 H 38 C 56.202364,60 60,56.120348 60,38 V 26 C 60,7.8796522 56.202364,4 38,4 Z" />
  <path
     d="m 27.90689,18.000136 h -8.7093 c -1.76686,0.0054 -3.19618,1.349092 -3.19616,3.004836 -0.0526,1.639948 1.35226,2.99588 3.10308,2.99514 h 8.89546 z"
     style="fill:#ff8802;stroke-width:2;fill-opacity:1"
     id="path507" />
  <path
     d="m 25.5117,12.000086 c -0.40072,-0.01 -0.64974,0.431948 -0.4336,0.769528 l 1.6914,2.718738 C 23.8095,17.304868 22.00392,20.527086 22,24.000038 22,29.522864 26.47714,34 31.99996,34 c 5.52282,0 9.99996,-4.477134 9.99996,-9.999962 -0.004,-3.472646 -1.8113,-6.694056 -4.77146,-8.509732 l 1.69334,-2.720692 c 0.21614,-0.33758 -0.0328,-0.779524 -0.43358,-0.769528 -0.1702,0.005 -0.3263,0.0962 -0.41406,0.242186 L 36.3515,15.00984 c -1.35582,-0.660412 -2.84344,-1.005612 -4.35154,-1.009762 -1.50846,0.0026 -2.99678,0.346506 -4.3535,1.005854 l -1.7207,-2.76366 c -0.0878,-0.14598 -0.2438,-0.237248 -0.41406,-0.242186 z"
     style="fill:#3ddc84;stroke-width:2"
     id="path423" />
  <path
     d="m 47.999887,46.000026 h -28.78838 c -1.77294,-0.0114 -3.20578,-1.44743 -3.21146,-3.218594 v -22.06946 c -0.01,1.867692 1.56432,3.402638 3.43042,3.28814 h 23.87738 c 0,0 4.69204,-0.454942 4.69204,3.07614 z"
     style="fill:#ffc802;stroke-width:2;fill-opacity:1"
     id="path606" />
  <circle
     style="fill:#e7521d;fill-opacity:1;stroke-width:7.20242;stroke-linecap:square"
     id="path818"
     cx="31.752157"
     cy="33.250294"
     r="1.75" />
  <path
     d="m 30.983871,28.000302 c -0.55122,0.0086 -0.9915,0.458458 -0.98438,1.005856 v 1.169916 c -1.19718,0.423266 -1.9982,1.55441 -1.99998,2.824208 0.0013,0.88908 0.3969,1.731784 1.08006,2.300772 l -6.91012,14.443304 c -0.26286,0.508328 -0.21746,1.112738 0.1192,1.580072 0.3415,0.462964 0.91536,0.717436 1.5078,0.66992 0.59264,-0.05414 1.10792,-0.41048 1.3457,-0.929684 l 4.62304,-9.343714 c 0.22298,-0.434122 0.6854,-0.718682 1.19334,-0.7207 0.014,-4.2e-5 0.027,0.0054 0.041,0.0058 0.014,-4e-4 0.0268,-0.0058 0.041,-0.0058 0.50794,0.002 0.97038,0.286578 1.19336,0.7207 l 4.62302,9.343714 c 0.2378,0.519204 0.75306,0.875544 1.3457,0.929684 0.59246,0.04752 1.1663,-0.206956 1.50782,-0.66992 0.3366,-0.467334 0.382,-1.071744 0.1192,-1.580072 l -6.9082,-14.439396 c 0.6835,-0.570238 1.07846,-1.414552 1.07812,-2.30468 -9.4e-4,-1.270516 -0.80212,-2.402654 -1.99998,-2.82616 v -1.167964 c 0.008,-0.559548 -0.45218,-1.01459 -1.01562,-1.005856 z m 0.016,2.999988 c 1.10456,0 1.99998,0.895426 1.99998,1.999992 0,1.104566 -0.89542,1.999992 -1.99998,1.999992 -1.10456,0 -2,-0.895428 -2,-1.999992 0,-1.104564 0.89544,-1.999992 2,-1.999992 z"
     style="fill:#ff8802;stroke-width:2;fill-opacity:1"
     id="path746" />
  <path
     d="M 45.35214,30.00009 H 44.1512 C 44.0676,30.00009 44,30.05641 44,30.14803 v 20.686108 c -1.6e-4,0.08772 0.062,0.1604 0.1418,0.16588 h 1.23876 c 1.44816,-0.0058 2.61938,-1.294384 2.61936,-2.882062 V 27.0001 c 4e-5,1.59985 -1.18848,3.011498 -2.64772,2.99999 z"
     style="fill:#ff8802;stroke-width:2;fill-opacity:1"
     id="path634" />
  <path
     id="path1411"
     style="fill:#ffffff;fill-opacity:1;stroke-width:8;stroke-linecap:square"
     d="m 27,19.999834 c -0.55228,0 -1,0.447716 -1,1 0,0.552284 0.44772,1 1,1 0.55228,0 1,-0.447716 1,-1 0,-0.552284 -0.44772,-1 -1,-1 z m 10,0 c -0.55228,0 -1,0.447716 -1,1 0,0.552284 0.44772,1 1,1 0.55228,0 1,-0.447716 1,-1 0,-0.552284 -0.44772,-1 -1,-1 z" />
</svg>
