<?xml version="1.0" encoding="UTF-8" standalone="no"?>
<!-- Created with Inkscape (http://www.inkscape.org/) -->

<svg
   width="64"
   height="64"
   viewBox="0 0 64 64"
   version="1.1"
   id="svg5"
   inkscape:version="1.2.2 (1:1.2.2+202305151914+b0a8486541)"
   sodipodi:docname="audacity.svg"
   xmlns:inkscape="http://www.inkscape.org/namespaces/inkscape"
   xmlns:sodipodi="http://sodipodi.sourceforge.net/DTD/sodipodi-0.dtd"
   xmlns:xlink="http://www.w3.org/1999/xlink"
   xmlns="http://www.w3.org/2000/svg"
   xmlns:svg="http://www.w3.org/2000/svg">
  <sodipodi:namedview
     id="namedview7"
     pagecolor="#ffffff"
     bordercolor="#000000"
     borderopacity="0.25"
     inkscape:showpageshadow="2"
     inkscape:pageopacity="0.0"
     inkscape:pagecheckerboard="0"
     inkscape:deskcolor="#d1d1d1"
     inkscape:document-units="px"
     showgrid="false"
     inkscape:zoom="12.65625"
     inkscape:cx="31.960494"
     inkscape:cy="32"
     inkscape:window-width="1920"
     inkscape:window-height="1012"
     inkscape:window-x="0"
     inkscape:window-y="0"
     inkscape:window-maximized="1"
     inkscape:current-layer="svg5" />
  <defs
     id="defs2">
    <linearGradient
       inkscape:collect="always"
       xlink:href="#linearGradient1161"
       id="linearGradient4780"
       x1="2"
       y1="2"
       x2="30"
       y2="30"
       gradientUnits="userSpaceOnUse"
       gradientTransform="scale(2)" />
    <linearGradient
       inkscape:collect="always"
       id="linearGradient1161">
      <stop
         style="stop-color:#1d49bf;stop-opacity:1;"
         offset="0"
         id="stop1157" />
      <stop
         style="stop-color:#689ddc;stop-opacity:1;"
         offset="1"
         id="stop1159" />
    </linearGradient>
    <linearGradient
       inkscape:collect="always"
       id="linearGradient3010">
      <stop
         style="stop-color:#f2c204;stop-opacity:1;"
         offset="0"
         id="stop3006" />
      <stop
         style="stop-color:#f26c04;stop-opacity:1;"
         offset="1"
         id="stop3008" />
    </linearGradient>
    <linearGradient
       inkscape:collect="always"
       xlink:href="#linearGradient3010"
       id="linearGradient6722"
       x1="15"
       y1="40.998466"
       x2="49"
       y2="40.998466"
       gradientUnits="userSpaceOnUse" />
  </defs>
  <path
     d="M 26,5 C 7.797619,5 4,8.879634 4,27 V 39 C 4,57.120366 7.797619,61 26,61 H 38 C 56.20238,61 60,57.120366 60,39 V 27 C 60,8.879634 56.20238,5 38,5"
     style="opacity:0.2;fill:#000000;stroke-width:2;stroke-linecap:round;stroke-linejoin:round"
     id="path563" />
  <path
     id="path530"
     style="fill:url(#linearGradient4780);fill-opacity:1;stroke-width:2;stroke-linecap:round;stroke-linejoin:round"
     d="M 26,4 C 7.7976372,4 4,7.8796522 4,26 V 38 C 4,56.120348 7.7976372,60 26,60 H 38 C 56.202364,60 60,56.120348 60,38 V 26 C 60,7.8796522 56.202364,4 38,4 Z" />
  <path
     id="rect344"
     style="fill:#ffffff;stroke-width:6.4;stroke-linecap:round;stroke-linejoin:round"
     d="m 32,12 c -8.863968,0 -16,7.136036 -16,16 v 16 h 2 V 28 c 0,-7.75597 6.24403,-14 14,-14 7.75597,0 14,6.24403 14,14 v 16 h 2 V 28 C 48,19.136036 40.863968,12 32,12 Z"
     sodipodi:nodetypes="ssccsssccss" />
  <path
     style="color:#000000;fill:url(#linearGradient6722);stroke-linecap:square;stroke-linejoin:round;-inkscape-stroke:none;stroke:none;fill-opacity:1.0"
     d="m 31.982422,30 a 1.0001,1.0001 0 0 0 -0.970703,0.851562 l -2.0625,13.75586 -1.962891,-11.771485 a 1.0001,1.0001 0 0 0 -1.960937,-0.06055 l -2.201172,9.535156 -0.875,-2.626953 A 1.0001,1.0001 0 0 0 21,39 h -5 -1 v 2 h 1 4.279297 l 1.771484,5.316406 a 1.0001,1.0001 0 0 0 1.923828,-0.0918 l 1.867188,-8.091797 2.171875,13.03125 a 1.0001,1.0001 0 0 0 1.974609,-0.01563 l 2.121094,-14.140625 1.908203,10.175782 a 1.0001,1.0001 0 0 0 1.960938,0.02539 l 1.859375,-8.68164 1.173828,7.625 a 1.0001,1.0001 0 0 0 1.882812,0.294922 L 43.617187,41 H 48 49 v -2 h -1 -5 a 1.0001,1.0001 0 0 0 -0.894531,0.552734 l -1.595703,3.189453 -1.521485,-9.894531 a 1.0001,1.0001 0 0 0 -1.966797,-0.05664 l -1.957031,9.130859 -2.082031,-11.105469 a 1.0001,1.0001 0 0 0 -1,-0.816406 z"
     id="path6712" />
  <rect
     style="fill:#ffffff;fill-opacity:1;stroke-width:8;stroke-linecap:round;stroke-linejoin:round"
     id="rect2893"
     width="8"
     height="16"
     x="43.999996"
     y="32"
     ry="6" />
  <path
     id="rect502"
     style="fill:#c4c4c4;fill-opacity:1;stroke-width:8;stroke-linecap:round;stroke-linejoin:round"
     d="m 46,32 c -1.107998,0 -2,0.892002 -2,2 v 12 c 0,1.107998 0.892002,2 2,2 h 2 V 46 34 32 Z" />
  <rect
     style="fill:#ffffff;fill-opacity:1;stroke-width:8;stroke-linecap:round;stroke-linejoin:round"
     id="rect2891"
     width="8"
     height="16"
     x="11.999995"
     y="32"
     ry="6" />
  <path
     id="rect401"
     style="fill:#c4c4c4;fill-opacity:1;stroke-width:8;stroke-linecap:round;stroke-linejoin:round"
     d="m 16,32 v 2 12 2 h 2 c 1.107998,0 2,-0.892002 2,-2 V 34 c 0,-1.107998 -0.892002,-2 -2,-2 z" />
</svg>
