<?xml version="1.0" encoding="UTF-8" standalone="no"?>
<!-- Created with Inkscape (http://www.inkscape.org/) -->

<svg
   width="64"
   height="64"
   viewBox="0 0 64 64"
   version="1.1"
   id="svg5"
   inkscape:version="1.4.4 (dcaf3e7d9e, 2026-05-05)"
   sodipodi:docname="cities-skylines-2.svg"
   xmlns:inkscape="http://www.inkscape.org/namespaces/inkscape"
   xmlns:sodipodi="http://sodipodi.sourceforge.net/DTD/sodipodi-0.dtd"
   xmlns:xlink="http://www.w3.org/1999/xlink"
   xmlns="http://www.w3.org/2000/svg"
   xmlns:svg="http://www.w3.org/2000/svg">
  <sodipodi:namedview
     id="namedview7"
     pagecolor="#ffffff"
     bordercolor="#000000"
     borderopacity="0.25"
     inkscape:showpageshadow="2"
     inkscape:pageopacity="0.0"
     inkscape:pagecheckerboard="0"
     inkscape:deskcolor="#d1d1d1"
     inkscape:document-units="px"
     showgrid="false"
     inkscape:zoom="12.96875"
     inkscape:cx="32"
     inkscape:cy="32"
     inkscape:window-width="1920"
     inkscape:window-height="1012"
     inkscape:window-x="0"
     inkscape:window-y="0"
     inkscape:window-maximized="1"
     inkscape:current-layer="svg5" />
  <defs
     id="defs2">
    <linearGradient
       inkscape:collect="always"
       id="linearGradient3">
      <stop
         style="stop-color:#18d7ff;stop-opacity:1;"
         offset="0"
         id="stop1" />
      <stop
         style="stop-color:#0071de;stop-opacity:1;"
         offset="1"
         id="stop2" />
    </linearGradient>
    <linearGradient
       inkscape:collect="always"
       xlink:href="#linearGradient3"
       id="linearGradient5"
       x1="32"
       y1="60"
       x2="32"
       y2="4"
       gradientUnits="userSpaceOnUse" />
  </defs>
  <path
     d="M 26,5 C 7.797619,5 4,8.879634 4,27 V 39 C 4,57.120366 7.797619,61 26,61 H 38 C 56.20238,61 60,57.120366 60,39 V 27 C 60,8.879634 56.20238,5 38,5"
     style="opacity:0.2;fill:#000000;stroke-width:2;stroke-linecap:round;stroke-linejoin:round"
     id="path563" />
  <path
     id="path533"
     style="fill:url(#linearGradient5);fill-opacity:1;stroke-width:2;stroke-linecap:round;stroke-linejoin:round"
     d="M 26,4 C 7.797638,4 4,7.8796522 4,26 V 38 C 4,56.120348 7.797638,60 26,60 H 38 C 56.202364,60 60,56.120348 60,38 V 26 C 60,7.8796522 56.202364,4 38,4 Z" />
  <path
     id="path2"
     style="fill:#ffffff;stroke-width:2"
     d="m 33.003906,12 v 0.004 c -0.0024,2.88377 8e-4,5.768574 0,8.652344 5.531496,3.149748 11.06185,6.295164 16.59375,9.445312 0.1332,0.072 0.261064,0.15874 0.402344,0.21875 V 23.527438 C 50.0032,23.323454 49.9976,23.120046 49.94922,22.918062 49.83218,22.223716 49.460062,21.572446 48.91797,21.117282 48.62735,20.865302 48.278188,20.70149 47.94922,20.507906 44.14813,18.343294 40.347964,16.179952 36.546876,14.015726 35.36542,13.344878 34.186976,12.668746 33.003906,12 Z M 31,12.003906 c -0.19358,0.1079 -0.381438,0.220234 -0.574218,0.328126 -4.921592,2.828574 -9.84404,5.6558 -14.765626,8.484374 -0.16952,0.096 -0.337342,0.19642 -0.488282,0.316406 -0.668028,0.520758 -1.102566,1.326438 -1.15625,2.16797 v 6.546874 c 0.002,0.215984 0.0026,0.43636 0.04296,0.652344 0.07264,0.49396 0.318044,0.960498 0.691408,1.296876 0.21392,0.207982 0.485196,0.338998 0.73828,0.492186 1.757048,1.022318 3.512484,2.044086 5.269532,3.066406 0.26236,0.14798 0.522658,0.312338 0.789064,0.453126 0.002,-0.363972 -8e-4,-0.723568 0,-1.085938 -0.0016,-1.961444 0.001,-3.925274 0.004,-5.886718 0.0016,-0.923526 -0.0052,-1.846006 0,-2.769532 0.25832,-0.15598 0.52791,-0.303936 0.789062,-0.453124 2.887082,-1.649734 5.77268,-3.30067 8.660156,-4.94922 z m 11.46875,16.179688 c 0.005,0.0028 0.0106,0.005 0.0156,0.0078 1.8e-5,-0.0028 -2.4e-5,-0.005 0,-0.0078 z m 0.0156,0.0078 c -0.0019,0.261138 3.96e-4,0.526394 0,0.789062 0.002,1.967042 -10e-4,3.9353 -0.004,5.902344 -4.04e-4,1.016718 4.04e-4,2.033664 0,3.050782 -3.158488,1.805056 -6.31807,3.608606 -9.476562,5.414062 0.0012,2.88297 -0.0044,5.76547 0,8.648438 0.32696,-0.184 0.656216,-0.374504 0.984376,-0.5625 4.713716,-2.70978 9.430412,-5.41912 14.14453,-8.128906 0.24624,-0.144 0.498362,-0.277828 0.71875,-0.457032 0.560252,-0.443164 0.954624,-1.087612 1.089844,-1.785156 0.08072,-0.37996 0.05064,-0.767976 0.05468,-1.152344 -4.04e-4,-1.920646 -4.04e-4,-3.841472 0,-5.761718 -0.002,-0.219984 0.0013,-0.447588 -0.03906,-0.66797 -0.09286,-0.63435 -0.48877,-1.216902 -1.04297,-1.546874 -2.144,-1.247802 -4.284094,-2.497156 -6.429686,-3.742188 z M 14.007812,33.675782 14,33.679688 c 0.0026,0.0011 0.0052,0.0028 0.0078,0.004 z m 0,0.0078 c -8e-4,2.2209 0,4.439654 0,6.660156 0.002,0.128 0,0.258664 0,0.390626 0.04036,0.556356 0.218968,1.100628 0.539064,1.558592 0.25428,0.36796 0.596748,0.681866 0.98828,0.90625 5.153684,2.93339 10.30375,5.86743 15.457032,8.800794 0.0032,-2.884168 0.0022,-5.768174 0.004,-8.652344 -1.323322,-0.756332 -2.648402,-1.507378 -3.97275,-2.261718 -4.218452,-2.402206 -8.437798,-4.805224 -12.65625,-7.207032 -0.1187,-0.06274 -0.233236,-0.1395 -0.359376,-0.19532 z"
     sodipodi:nodetypes="csccccccccccccccccccccccccccccccccccccccccccccccccccccccccccc" />
</svg>
