<?xml version="1.0" encoding="UTF-8" standalone="no"?>
<!-- Created with Inkscape (http://www.inkscape.org/) -->

<svg
   width="64"
   height="64"
   viewBox="0 0 64 64"
   version="1.1"
   id="svg5"
   inkscape:version="1.2.1 (9c6d41e410, 2022-07-14)"
   sodipodi:docname="discord.svg"
   xmlns:inkscape="http://www.inkscape.org/namespaces/inkscape"
   xmlns:sodipodi="http://sodipodi.sourceforge.net/DTD/sodipodi-0.dtd"
   xmlns="http://www.w3.org/2000/svg"
   xmlns:svg="http://www.w3.org/2000/svg">
  <sodipodi:namedview
     id="namedview7"
     pagecolor="#ffffff"
     bordercolor="#000000"
     borderopacity="0.25"
     inkscape:showpageshadow="2"
     inkscape:pageopacity="0.0"
     inkscape:pagecheckerboard="0"
     inkscape:deskcolor="#d1d1d1"
     inkscape:document-units="px"
     showgrid="false"
     inkscape:zoom="12.5"
     inkscape:cx="31.96"
     inkscape:cy="32"
     inkscape:window-width="1920"
     inkscape:window-height="1006"
     inkscape:window-x="0"
     inkscape:window-y="0"
     inkscape:window-maximized="1"
     inkscape:current-layer="svg5" />
  <defs
     id="defs2" />
  <path
     d="M 26,5 C 7.797619,5 4,8.879634 4,27 V 39 C 4,57.120365 7.797619,61 26,61 H 38 C 56.20238,61 60,57.120365 60,39 V 27 C 60,8.879634 56.20238,5 38,5"
     style="opacity:0.2;fill:#000000;stroke-width:2;stroke-linecap:round;stroke-linejoin:round"
     id="path563" />
  <path
     id="path530"
     style="fill:#5865f2;fill-opacity:1;stroke-width:2;stroke-linecap:round;stroke-linejoin:round"
     d="M 26,4 C 7.797637,4 4,7.879652 4,26 V 38 C 4,56.12035 7.797637,60 26,60 H 38 C 56.202365,60 60,56.12035 60,38 V 26 C 60,7.879652 56.202365,4 38,4 Z" />
  <path
     d="m 26.532955,18.000352 0.342765,0.41172 c -6.16962,1.748036 -8.979956,4.455814 -8.979956,4.455814 0,0 0.753528,-0.411562 2.021744,-0.959978 3.667474,-1.610974 6.581302,-2.021874 7.780947,-2.158964 0.205655,-0.03436 0.376763,-0.069 0.582417,-0.069 2.090808,-0.27421 4.456226,-0.342492 6.924073,-0.06818 3.25619,0.377038 6.752173,1.336756 10.316835,3.256182 0,0 -2.707915,-2.570544 -8.534763,-4.31859 l 0.47998,-0.548942 c 0,0 4.695775,-0.1027 9.597168,3.56479 0,0 4.935835,8.877651 4.935835,19.811561 0,-0.03418 -2.879155,4.90141 -10.454045,5.141345 0,0 -1.234483,-1.473853 -2.262738,-2.742035 4.49009,-1.2682 6.204408,-4.04481 6.204408,-4.04481 -1.4053,0.925457 -2.742045,1.57682 -3.94167,2.022427 -1.71379,0.719765 -3.35903,1.16562 -4.969975,1.4741 -3.290455,0.616965 -6.306835,0.445055 -8.877525,-0.03482 -1.9537,-0.377027 -3.633611,-0.890765 -5.038909,-1.473455 -0.788354,-0.308482 -1.64482,-0.685645 -2.501728,-1.1655 -0.10268,-0.06854 -0.20579,-0.1027 -0.3086,-0.17138 -0.06846,-0.03418 -0.10288,-0.06836 -0.1372,-0.06836 -0.616954,-0.342745 -0.959318,-0.5831 -0.959318,-0.5831 0,0 1.645226,2.7082 5.998226,4.010655 -1.02828,1.302473 -2.29688,2.810338 -2.29688,2.810338 C 14.879154,46.312215 12,41.376643 12,41.376643 12,30.442733 16.935818,21.56508 16.935818,21.56508 c 4.93569,-3.667492 9.597164,-3.564792 9.597164,-3.564792 z m -0.925173,12.647833 c -1.95371,0 -3.496528,1.679492 -3.496528,3.77032 0,2.0908 1.577082,3.77032 3.496528,3.77032 1.953718,0 3.495835,-1.67952 3.495835,-3.77032 0.03418,-2.090827 -1.542117,-3.77032 -3.495835,-3.77032 z m 12.510598,0 c -1.953707,0 -3.496535,1.679492 -3.496535,3.77032 0,2.0908 1.57709,3.77032 3.496535,3.77032 1.953693,0 3.495838,-1.67952 3.495838,-3.77032 0,-2.090827 -1.57642,-3.77032 -3.495838,-3.77032 z"
     style="display:inline;fill:#ffffff;stroke-width:0.90909;enable-background:new"
     id="path492"
     sodipodi:nodetypes="cccccccccccccccccccccccccccccssscssssss" />
</svg>
