<?xml version="1.0" encoding="UTF-8" standalone="no"?>
<!-- Created with Inkscape (http://www.inkscape.org/) -->

<svg
   width="64"
   height="64"
   viewBox="0 0 64 64"
   version="1.1"
   id="svg5"
   inkscape:version="1.2.1 (9c6d41e410, 2022-07-14)"
   sodipodi:docname="fbmessenger.svg"
   xmlns:inkscape="http://www.inkscape.org/namespaces/inkscape"
   xmlns:sodipodi="http://sodipodi.sourceforge.net/DTD/sodipodi-0.dtd"
   xmlns:xlink="http://www.w3.org/1999/xlink"
   xmlns="http://www.w3.org/2000/svg"
   xmlns:svg="http://www.w3.org/2000/svg">
  <sodipodi:namedview
     id="namedview7"
     pagecolor="#ffffff"
     bordercolor="#000000"
     borderopacity="0.25"
     inkscape:showpageshadow="2"
     inkscape:pageopacity="0.0"
     inkscape:pagecheckerboard="0"
     inkscape:deskcolor="#d1d1d1"
     inkscape:document-units="px"
     showgrid="false"
     inkscape:zoom="13.929825"
     inkscape:cx="18.52141"
     inkscape:cy="32.52015"
     inkscape:window-width="1920"
     inkscape:window-height="1006"
     inkscape:window-x="0"
     inkscape:window-y="0"
     inkscape:window-maximized="1"
     inkscape:current-layer="svg5" />
  <defs
     id="defs2">
    <radialGradient
       inkscape:collect="always"
       xlink:href="#linearGradient982"
       id="radialGradient1977"
       cx="29.445274"
       cy="36.813942"
       fx="29.445274"
       fy="36.813942"
       r="20"
       gradientTransform="matrix(1.5333565e-7,2.1499999,-2.1000886,2.4989815e-7,97.676168,-11.275273)"
       gradientUnits="userSpaceOnUse" />
    <linearGradient
       inkscape:collect="always"
       id="linearGradient982">
      <stop
         style="stop-color:#0099ff;stop-opacity:1;"
         offset="0"
         id="stop978" />
      <stop
         style="stop-color:#a033ff;stop-opacity:1;"
         offset="0.60000002"
         id="stop986" />
      <stop
         style="stop-color:#ff5280;stop-opacity:1;"
         offset="0.93000001"
         id="stop988" />
      <stop
         style="stop-color:#ff7061;stop-opacity:1;"
         offset="1"
         id="stop980" />
    </linearGradient>
  </defs>
  <path
     d="M 26,5 C 7.797619,5 4,8.879634 4,27 V 39 C 4,57.120366 7.797619,61 26,61 H 38 C 56.20238,61 60,57.120366 60,39 V 27 C 60,8.879634 56.20238,5 38,5"
     style="opacity:0.2;fill:#000000;stroke-width:2;stroke-linecap:round;stroke-linejoin:round"
     id="path563" />
  <path
     id="path530"
     style="fill:#fafafa;fill-opacity:1;stroke-width:2;stroke-linecap:round;stroke-linejoin:round"
     d="M 26,4 C 7.797637,4 4,7.8796521 4,26 V 38 C 4,56.120348 7.797637,60 26,60 H 38 C 56.202364,60 60,56.120348 60,38 V 26 C 60,7.8796521 56.202364,4 38,4 Z" />
  <path
     d="m 32,12 c -11.265,0 -20,8.254999 -20,19.399999 0,5.83 2.39,10.870001 6.28,14.350001 0.325,0.29 0.525,0.699999 0.535,1.139999 l 0.11,3.56 c 0.035,1.135001 1.205,1.875 2.245,1.415 l 3.97,-1.75 c 0.335,-0.15 0.715,-0.174999 1.07,-0.08 1.825,0.5 3.765,0.77 5.79,0.77 11.265,0 20,-8.255 20,-19.4 C 52,20.259999 43.265,12 32,12 Z"
     style="fill:url(#radialGradient1977);fill-opacity:1;stroke-width:0.05"
     id="path1218" />
  <path
     d="m 20.152819,36.452898 5.794712,-9.192632 c 0.922222,-1.464707 2.89489,-1.824718 4.280689,-0.789068 l 4.611112,3.457101 c 0.424124,0.315627 1.00606,0.315627 1.425252,-0.0049 l 6.223768,-4.72454 c 0.82852,-0.631254 1.913488,0.364944 1.361141,1.247712 l -5.799644,9.187701 c -0.922222,1.464707 -2.89489,1.824719 -4.280689,0.789068 l -4.611112,-3.4571 c -0.424124,-0.315627 -1.00606,-0.315627 -1.425252,0.0049 l -6.223768,4.72454 c -0.82852,0.631254 -1.913488,-0.360012 -1.356209,-1.242782 z"
     style="fill:#ffffff;stroke-width:0.0493167"
     id="path11549" />
</svg>
