<?xml version="1.0" encoding="UTF-8" standalone="no"?>
<!-- Created with Inkscape (http://www.inkscape.org/) -->

<svg
   width="64"
   height="64"
   viewBox="0 0 64 64"
   version="1.1"
   id="svg5"
   inkscape:version="1.2.1 (9c6d41e410, 2022-07-14)"
   sodipodi:docname="garrysmod.svg"
   xmlns:inkscape="http://www.inkscape.org/namespaces/inkscape"
   xmlns:sodipodi="http://sodipodi.sourceforge.net/DTD/sodipodi-0.dtd"
   xmlns="http://www.w3.org/2000/svg"
   xmlns:svg="http://www.w3.org/2000/svg">
  <sodipodi:namedview
     id="namedview7"
     pagecolor="#ffffff"
     bordercolor="#000000"
     borderopacity="0.25"
     inkscape:showpageshadow="2"
     inkscape:pageopacity="0.0"
     inkscape:pagecheckerboard="0"
     inkscape:deskcolor="#d1d1d1"
     inkscape:document-units="px"
     showgrid="false"
     inkscape:zoom="12.625"
     inkscape:cx="31.960396"
     inkscape:cy="32"
     inkscape:window-width="1920"
     inkscape:window-height="1011"
     inkscape:window-x="0"
     inkscape:window-y="32"
     inkscape:window-maximized="1"
     inkscape:current-layer="svg5" />
  <defs
     id="defs2" />
  <path
     id="path563"
     style="opacity:0.2;fill:#000000;stroke-width:2;stroke-linecap:round;stroke-linejoin:round"
     d="M 26,5 C 7.797637,5 4,8.879652 4,27 V 39 C 4,57.120345 7.797637,61 26,61 H 38 C 56.20236,61 60,57.120345 60,39 V 27 C 60,8.879652 56.20236,5 38,5 Z" />
  <path
     id="path530"
     style="fill:#1295f0;stroke-width:2;stroke-linecap:round;stroke-linejoin:round;fill-opacity:1"
     d="M 26,4 C 7.797637,4 4,7.879652 4,26 V 38 C 4,56.120345 7.797637,60 26,60 H 38 C 56.20236,60 60,56.120345 60,38 V 26 C 60,7.879652 56.20236,4 38,4 Z" />
  <path
     d="M 31.000183,13.9997 C 26.553323,13.9997 19.995633,16.786543 20,23 c 4.62e-4,0.656979 0,8 0,8 -0.02047,3.915641 4.708078,9.000133 11.234187,9.000133 3.222054,0 5.817939,-1.397329 6.766113,-4.000066 v 6 c 0,2.595606 -3.113063,4.629772 -5.648094,4.656144 C 28.739279,46.60124 25.989721,44.38758 26.0001,42.000167 H 20 c -0.01594,5.00692 5.148195,10.040484 12.144802,10.000133 4.1308,-0.02382 7.395124,-1.598067 9.543159,-4.613277 C 43.297988,45.056984 44,43.948932 44,39.106852 V 14.59451 h -6.0001 v 2.199237 c 0,-2e-4 -2.106035,-2.793247 -7.000117,-2.793247 z m 0.886735,6.0001 c 3.632061,0 6.114102,2.284038 6.114102,7.094118 0,4.76208 -2.40804,6.906115 -6.040101,6.906115 -3.63006,0 -5.960099,-2.096035 -5.960099,-6.906115 0,-4.858081 2.332039,-7.094118 5.886098,-7.094118 z"
     style="fill:#ffffff;stroke-width:2.00003"
     id="path353"
     sodipodi:nodetypes="cssscscccscscccccsssss" />
</svg>
