<?xml version="1.0" encoding="UTF-8" standalone="no"?>
<!-- Created with Inkscape (http://www.inkscape.org/) -->

<svg
   width="64"
   height="64"
   viewBox="0 0 64 64"
   version="1.1"
   id="svg5"
   inkscape:version="1.2.1 (9c6d41e410, 2022-07-14)"
   sodipodi:docname="git.svg"
   xmlns:inkscape="http://www.inkscape.org/namespaces/inkscape"
   xmlns:sodipodi="http://sodipodi.sourceforge.net/DTD/sodipodi-0.dtd"
   xmlns:xlink="http://www.w3.org/1999/xlink"
   xmlns="http://www.w3.org/2000/svg"
   xmlns:svg="http://www.w3.org/2000/svg">
  <sodipodi:namedview
     id="namedview7"
     pagecolor="#ffffff"
     bordercolor="#000000"
     borderopacity="0.25"
     inkscape:showpageshadow="2"
     inkscape:pageopacity="0.0"
     inkscape:pagecheckerboard="0"
     inkscape:deskcolor="#d1d1d1"
     inkscape:document-units="px"
     showgrid="false"
     inkscape:zoom="12.34375"
     inkscape:cx="31.959494"
     inkscape:cy="32"
     inkscape:window-width="1920"
     inkscape:window-height="1011"
     inkscape:window-x="0"
     inkscape:window-y="0"
     inkscape:window-maximized="1"
     inkscape:current-layer="svg5" />
  <defs
     id="defs2">
    <linearGradient
       inkscape:collect="always"
       xlink:href="#linearGradient1482"
       id="linearGradient4780"
       x1="30"
       y1="30"
       x2="2"
       y2="2"
       gradientUnits="userSpaceOnUse"
       gradientTransform="scale(2)" />
    <linearGradient
       inkscape:collect="always"
       id="linearGradient1482">
      <stop
         style="stop-color:#ec6b52;stop-opacity:1;"
         offset="0"
         id="stop1478" />
      <stop
         style="stop-color:#b32420;stop-opacity:1;"
         offset="1"
         id="stop1480" />
    </linearGradient>
  </defs>
  <path
     d="M 26,5 C 7.797619,5 4,8.879634 4,27 V 39 C 4,57.120366 7.797619,61 26,61 H 38 C 56.20238,61 60,57.120366 60,39 V 27 C 60,8.879634 56.20238,5 38,5"
     style="opacity:0.2;fill:#000000;stroke-width:2;stroke-linecap:round;stroke-linejoin:round"
     id="path563" />
  <path
     id="path530"
     style="fill:url(#linearGradient4780);fill-opacity:1;stroke-width:2;stroke-linecap:round;stroke-linejoin:round"
     d="M 26,4 C 7.7976372,4 4,7.8796522 4,26 V 38 C 4,56.120348 7.7976372,60 26,60 H 38 C 56.202364,60 60,56.120348 60,38 V 26 C 60,7.8796522 56.202364,4 38,4 Z" />
  <path
     id="rect7265"
     style="fill:#ffffff;stroke-width:2"
     d="m 12.201009,29.171574 c -1.566943,1.566945 -1.566945,4.089908 10e-7,5.656853 l 16.970563,16.970564 c 1.566946,1.566946 4.089908,1.566946 5.656853,0 L 51.79899,34.828427 c 1.566944,-1.566946 1.566946,-4.089908 0,-5.656854 L 34.828427,12.20101 c -1.56695,-1.566947 -4.089909,-1.566948 -5.656854,0 l -3.535534,3.535534 3.626683,3.626684 a 4,4 0 0 1 4.858598,0.615957 4,4 0 0 1 0.609051,4.851691 l 3.72474,3.72474 a 4,4 0 0 1 4.858595,0.615958 4,4 0 0 1 10e-7,5.656853 4,4 0 0 1 -5.656853,-10e-7 4,4 0 0 1 -0.609051,-4.85169 L 33.316158,26.24509 a 4,4 0 0 1 -1.023372,0.410177 l -10e-7,9.253155 a 4,4 0 0 1 1.828535,1.041325 4,4 0 0 1 0,5.656855 4,4 0 0 1 -5.656855,0 4,4 0 0 1 0,-5.656855 4,4 0 0 1 1.828535,-1.041325 l -1e-6,-9.253155 a 4,4 0 0 1 -1.828533,-1.019228 4,4 0 0 1 -0.609051,-4.851692 l -3.63359,-3.633589 z" />
</svg>
