<?xml version="1.0" encoding="UTF-8" standalone="no"?>
<!-- Created with Inkscape (http://www.inkscape.org/) -->

<svg
   width="64"
   height="64"
   viewBox="0 0 64 64"
   version="1.1"
   id="svg5"
   inkscape:version="1.4.4 (dcaf3e7d9e, 2026-05-05)"
   sodipodi:docname="gmail.svg"
   xmlns:inkscape="http://www.inkscape.org/namespaces/inkscape"
   xmlns:sodipodi="http://sodipodi.sourceforge.net/DTD/sodipodi-0.dtd"
   xmlns:xlink="http://www.w3.org/1999/xlink"
   xmlns="http://www.w3.org/2000/svg"
   xmlns:svg="http://www.w3.org/2000/svg">
  <sodipodi:namedview
     id="namedview7"
     pagecolor="#ffffff"
     bordercolor="#000000"
     borderopacity="0.25"
     inkscape:showpageshadow="2"
     inkscape:pageopacity="0.0"
     inkscape:pagecheckerboard="0"
     inkscape:deskcolor="#d1d1d1"
     inkscape:document-units="px"
     showgrid="false"
     inkscape:zoom="12.96875"
     inkscape:cx="32"
     inkscape:cy="32"
     inkscape:window-width="1920"
     inkscape:window-height="1010"
     inkscape:window-x="0"
     inkscape:window-y="0"
     inkscape:window-maximized="1"
     inkscape:current-layer="svg5" />
  <defs
     id="defs2">
    <linearGradient
       inkscape:collect="always"
       xlink:href="#linearGradient8"
       id="linearGradient16"
       x1="46.650391"
       y1="21.097656"
       x2="46.650391"
       y2="47"
       gradientUnits="userSpaceOnUse" />
    <linearGradient
       id="linearGradient8"
       inkscape:collect="always">
      <stop
         style="stop-color:#60d673;stop-opacity:1;"
         offset="0"
         id="stop9" />
      <stop
         style="stop-color:#42c868;stop-opacity:1;"
         offset="0.17347147"
         id="stop11" />
      <stop
         style="stop-color:#0ebc5f;stop-opacity:1;"
         offset="0.38839447"
         id="stop12" />
      <stop
         style="stop-color:#00a9bb;stop-opacity:1;"
         offset="0.6165421"
         id="stop13" />
      <stop
         style="stop-color:#3c90ff;stop-opacity:1;"
         offset="0.9375"
         id="stop14" />
      <stop
         style="stop-color:#3186ff;stop-opacity:1;"
         offset="1"
         id="stop10" />
    </linearGradient>
    <linearGradient
       inkscape:collect="always"
       xlink:href="#linearGradient1"
       id="linearGradient18"
       x1="12"
       y1="27.999023"
       x2="52"
       y2="27.999023"
       gradientUnits="userSpaceOnUse" />
    <linearGradient
       id="linearGradient1"
       inkscape:collect="always">
      <stop
         style="stop-color:#ff63a0;stop-opacity:1;"
         offset="0.08305594"
         id="stop1" />
      <stop
         style="stop-color:#fc413d;stop-opacity:1;"
         offset="0.30268341"
         id="stop3" />
      <stop
         style="stop-color:#fc413d;stop-opacity:1;"
         offset="0.50376475"
         id="stop4" />
      <stop
         style="stop-color:#fc413d;stop-opacity:1;"
         offset="0.64855641"
         id="stop5" />
      <stop
         style="stop-color:#fc5c30;stop-opacity:1;"
         offset="0.72273552"
         id="stop6" />
      <stop
         style="stop-color:#feb10c;stop-opacity:1;"
         offset="0.85556501"
         id="stop7" />
      <stop
         style="stop-color:#ffd911;stop-opacity:1;"
         offset="0.90811819"
         id="stop8" />
      <stop
         style="stop-color:#ffdb0f;stop-opacity:1;"
         offset="0.96324164"
         id="stop2" />
    </linearGradient>
  </defs>
  <path
     d="M 26,5 C 7.797619,5 4,8.879634 4,27 V 39 C 4,57.120366 7.797619,61 26,61 H 38 C 56.20238,61 60,57.120366 60,39 V 27 C 60,8.879634 56.20238,5 38,5"
     style="opacity:0.2;fill:#000000;stroke-width:2;stroke-linecap:round;stroke-linejoin:round"
     id="path563" />
  <path
     id="path533"
     style="fill:#fafafa;fill-opacity:1;stroke-width:2;stroke-linecap:round;stroke-linejoin:round"
     d="M 26,4 C 7.797638,4 4,7.8796522 4,26 V 38 C 4,56.120348 7.797638,60 26,60 H 38 C 56.202364,60 60,56.120348 60,38 V 26 C 60,7.8796522 56.202364,4 38,4 Z" />
  <path
     id="path523"
     style="fill:#fc413d;fill-opacity:1;stroke-width:1"
     d="M 12,22.734376 V 44.273438 C 12,45.779884 13.20747,47 14.699218,47 H 20 V 28.792968 Z" />
  <path
     id="path391"
     style="fill:url(#linearGradient16);stroke-width:1"
     d="m 52,22.734376 -8,6.058592 V 47 h 5.300782 C 50.792528,47 52,45.779882 52,44.273438 Z" />
  <path
     id="path457"
     style="fill:url(#linearGradient18);stroke-width:1"
     d="M 16.066406,17 C 13.967816,16.999954 12,18.67574 12,21.097656 v 2.908203 L 32,38.998047 52,24.003906 v -2.90625 C 52,18.67574 50.032182,16.999954 47.933594,17 c -0.821188,1.8e-5 -1.662919,0.255469 -2.414063,0.824219 L 44,18.976562 32,27.908203 20,18.978516 v -0.002 L 18.480469,17.824219 C 17.729323,17.255467 16.887594,17.000018 16.066406,17 Z" />
</svg>
