<?xml version="1.0" encoding="UTF-8" standalone="no"?>
<!-- Created with Inkscape (http://www.inkscape.org/) -->

<svg
   width="64"
   height="64"
   viewBox="0 0 64 64"
   version="1.1"
   id="svg5"
   inkscape:version="1.2.1 (9c6d41e410, 2022-07-14)"
   sodipodi:docname="gnome-todo.svg"
   xmlns:inkscape="http://www.inkscape.org/namespaces/inkscape"
   xmlns:sodipodi="http://sodipodi.sourceforge.net/DTD/sodipodi-0.dtd"
   xmlns:xlink="http://www.w3.org/1999/xlink"
   xmlns="http://www.w3.org/2000/svg"
   xmlns:svg="http://www.w3.org/2000/svg">
  <sodipodi:namedview
     id="namedview7"
     pagecolor="#ffffff"
     bordercolor="#000000"
     borderopacity="0.25"
     inkscape:showpageshadow="2"
     inkscape:pageopacity="0.0"
     inkscape:pagecheckerboard="0"
     inkscape:deskcolor="#d1d1d1"
     inkscape:document-units="px"
     showgrid="false"
     inkscape:zoom="12.34375"
     inkscape:cx="32"
     inkscape:cy="32"
     inkscape:window-width="1920"
     inkscape:window-height="1011"
     inkscape:window-x="0"
     inkscape:window-y="0"
     inkscape:window-maximized="1"
     inkscape:current-layer="svg5" />
  <defs
     id="defs2">
    <linearGradient
       inkscape:collect="always"
       xlink:href="#linearGradient3147"
       id="linearGradient4780"
       x1="30"
       y1="30"
       x2="2"
       y2="2"
       gradientUnits="userSpaceOnUse"
       gradientTransform="scale(2)" />
    <linearGradient
       inkscape:collect="always"
       id="linearGradient3147">
      <stop
         style="stop-color:#41bbff;stop-opacity:1;"
         offset="0"
         id="stop3143" />
      <stop
         style="stop-color:#0091f9;stop-opacity:1;"
         offset="1"
         id="stop3145" />
    </linearGradient>
  </defs>
  <path
     d="M 26,5 C 7.797619,5 4,8.879634 4,27 V 39 C 4,57.120366 7.797619,61 26,61 H 38 C 56.20238,61 60,57.120366 60,39 V 27 C 60,8.879634 56.20238,5 38,5"
     style="opacity:0.2;fill:#000000;stroke-width:2;stroke-linecap:round;stroke-linejoin:round"
     id="path563" />
  <path
     id="path530"
     style="fill:url(#linearGradient4780);fill-opacity:1;stroke-width:2;stroke-linecap:round;stroke-linejoin:round"
     d="M 26,4 C 7.7976372,4 4,7.8796522 4,26 V 38 C 4,56.120348 7.7976372,60 26,60 H 38 C 56.202364,60 60,56.120348 60,38 V 26 C 60,7.8796522 56.202364,4 38,4 Z" />
  <path
     id="rect291"
     style="opacity:0.5;fill:#ffffff;stroke-width:2;stroke-linecap:round"
     d="m 13,19 c -0.553999,0 -1,0.446 -1,1 0,0.553998 0.446001,1 1,1 h 38 c 0.554,0 1,-0.446002 1,-1 0,-0.554 -0.446,-1 -1,-1 z m 0,8 c -0.553999,0 -1,0.446 -1,1 0,0.553998 0.446001,0.999998 1,0.999998 h 38 c 0.554,0 1,-0.446 1,-0.999998 0,-0.554 -0.446,-1 -1,-1 z m 0,7.999998 c -0.553997,0 -1,0.446 -1,1 0,0.554002 0.446003,1 1,1 h 38 c 0.554,0 1,-0.445998 1,-1 0,-0.554 -0.446,-1 -1,-1 z m 0,8 c -0.553997,0 -1,0.446 -1,1 0,0.554002 0.446003,1 1,1 h 18 c 0.554,0 1,-0.445998 1,-1 0,-0.554 -0.446,-1 -1,-1 z"
     sodipodi:nodetypes="ssssssssssssssssssssssssssss" />
  <path
     id="rect898"
     style="fill:#ffffff;stroke-width:4"
     d="m 16.787606,31.172634 c -0.783472,0.783472 -0.783476,2.044952 0,2.828428 L 26.92974,44.143196 c 0.09794,0.09792 0.203812,0.18628 0.314988,0.25956 0.1109,0.07356 0.227684,0.13332 0.348028,0.18228 0.12034,0.04896 0.244188,0.08048 0.370148,0.10496 0.12594,0.0244 0.253364,0.0388 0.3812,0.0388 0.1278,1.2e-5 0.255248,-0.0144 0.381168,-0.0388 0.12594,-0.0244 0.249768,-0.056 0.370112,-0.10496 0.12034,-0.04896 0.237024,-0.10884 0.34804,-0.18228 0.11102,-0.07344 0.216968,-0.16172 0.3149,-0.25964 l 21.455848,-21.45588 c 0.783472,-0.783476 0.783472,-2.044954 0,-2.828428 -0.783476,-0.783472 -2.044952,-0.783472 -2.828428,0 L 28.34411,39.900432 19.61619,31.17251 c -0.783476,-0.783476 -2.044958,-0.783474 -2.828428,-2e-6 z"
     sodipodi:nodetypes="ccccsccsssccsccscc" />
</svg>
