<?xml version="1.0" encoding="UTF-8" standalone="no"?>
<!-- Created with Inkscape (http://www.inkscape.org/) -->

<svg
   width="64"
   height="64"
   viewBox="0 0 64 64"
   version="1.1"
   id="svg5"
   inkscape:version="1.4.4 (dcaf3e7d9e, 2026-05-05)"
   sodipodi:docname="google-slides.svg"
   xmlns:inkscape="http://www.inkscape.org/namespaces/inkscape"
   xmlns:sodipodi="http://sodipodi.sourceforge.net/DTD/sodipodi-0.dtd"
   xmlns:xlink="http://www.w3.org/1999/xlink"
   xmlns="http://www.w3.org/2000/svg"
   xmlns:svg="http://www.w3.org/2000/svg">
  <sodipodi:namedview
     id="namedview7"
     pagecolor="#ffffff"
     bordercolor="#000000"
     borderopacity="0.25"
     inkscape:showpageshadow="2"
     inkscape:pageopacity="0.0"
     inkscape:pagecheckerboard="0"
     inkscape:deskcolor="#d1d1d1"
     inkscape:document-units="px"
     showgrid="false"
     inkscape:zoom="12.53125"
     inkscape:cx="32"
     inkscape:cy="32"
     inkscape:window-width="1920"
     inkscape:window-height="1010"
     inkscape:window-x="0"
     inkscape:window-y="0"
     inkscape:window-maximized="1"
     inkscape:current-layer="svg5" />
  <defs
     id="defs2">
    <linearGradient
       id="linearGradient7"
       inkscape:collect="always">
      <stop
         style="stop-color:#fff549;stop-opacity:1;"
         offset="0"
         id="stop7" />
      <stop
         style="stop-color:#ffbe00;stop-opacity:0;"
         offset="1"
         id="stop8" />
    </linearGradient>
    <linearGradient
       id="linearGradient4"
       inkscape:collect="always">
      <stop
         style="stop-color:#ffbe00;stop-opacity:1;"
         offset="0"
         id="stop5" />
      <stop
         style="stop-color:#fec700;stop-opacity:1;"
         offset="1"
         id="stop6" />
    </linearGradient>
    <linearGradient
       id="linearGradient2"
       inkscape:collect="always">
      <stop
         style="stop-color:#ffdb0f;stop-opacity:1;"
         offset="0.20075995"
         id="stop2" />
      <stop
         style="stop-color:#ffbe00;stop-opacity:1;"
         offset="0.66614175"
         id="stop4" />
      <stop
         style="stop-color:#ffa8e3;stop-opacity:1;"
         offset="0.90882242"
         id="stop3" />
    </linearGradient>
    <linearGradient
       inkscape:collect="always"
       xlink:href="#linearGradient2"
       id="linearGradient3"
       x1="11.844881"
       y1="10.397112"
       x2="18.162739"
       y2="27.397112"
       gradientUnits="userSpaceOnUse"
       gradientTransform="matrix(2,0,0,2,1.5984253,-0.95274225)" />
    <linearGradient
       inkscape:collect="always"
       xlink:href="#linearGradient4"
       id="linearGradient6"
       x1="16"
       y1="9"
       x2="16"
       y2="24"
       gradientUnits="userSpaceOnUse"
       gradientTransform="scale(2)" />
    <linearGradient
       inkscape:collect="always"
       xlink:href="#linearGradient7"
       id="linearGradient8"
       x1="22.231325"
       y1="25.664824"
       x2="14.356627"
       y2="9"
       gradientUnits="userSpaceOnUse"
       gradientTransform="scale(2)" />
  </defs>
  <path
     d="M 26,5 C 7.797619,5 4,8.879634 4,27 V 39 C 4,57.120366 7.797619,61 26,61 H 38 C 56.20238,61 60,57.120366 60,39 V 27 C 60,8.879634 56.20238,5 38,5"
     style="opacity:0.2;fill:#000000;stroke-width:2;stroke-linecap:round;stroke-linejoin:round"
     id="path563" />
  <path
     id="path533"
     style="fill:#fafafa;fill-opacity:1;stroke-width:2;stroke-linecap:round;stroke-linejoin:round"
     d="M 26,4 C 7.797638,4 4,7.8796522 4,26 V 38 C 4,56.120348 7.797638,60 26,60 H 38 C 56.202364,60 60,56.120348 60,38 V 26 C 60,7.8796522 56.202364,4 38,4 Z" />
  <rect
     style="fill:url(#linearGradient3);stroke-width:2"
     id="rect2"
     width="34"
     height="34"
     x="10.116961"
     y="19.841482"
     ry="6"
     transform="rotate(-7.5)" />
  <rect
     style="fill:url(#linearGradient6);stroke-width:2"
     id="rect1"
     width="40"
     height="30"
     x="12"
     y="18"
     ry="6" />
  <rect
     style="fill:url(#linearGradient8);stroke-width:2"
     id="rect6"
     width="40"
     height="30"
     x="12"
     y="18"
     ry="6" />
  <path
     id="rect1220"
     style="fill:#ffffff;stroke-width:1.22474;stroke-linecap:square;stroke-linejoin:bevel"
     d="M 19 24 A 1 1 0 0 0 18 25 L 18 41 A 1 1 0 0 0 19 42 L 45 42 A 1 1 0 0 0 46 41 L 46 25 A 1 1 0 0 0 45 24 L 19 24 z M 20 26 L 44 26 L 44 40 L 20 40 L 20 26 z " />
</svg>
