<?xml version="1.0" encoding="UTF-8" standalone="no"?>
<!-- Created with Inkscape (http://www.inkscape.org/) -->

<svg
   width="64"
   height="64"
   viewBox="0 0 64 64"
   version="1.1"
   id="svg5"
   inkscape:version="1.2.1 (9c6d41e410, 2022-07-14)"
   sodipodi:docname="KakaoTalk.svg"
   xmlns:inkscape="http://www.inkscape.org/namespaces/inkscape"
   xmlns:sodipodi="http://sodipodi.sourceforge.net/DTD/sodipodi-0.dtd"
   xmlns="http://www.w3.org/2000/svg"
   xmlns:svg="http://www.w3.org/2000/svg">
  <sodipodi:namedview
     id="namedview7"
     pagecolor="#ffffff"
     bordercolor="#000000"
     borderopacity="0.25"
     inkscape:showpageshadow="2"
     inkscape:pageopacity="0.0"
     inkscape:pagecheckerboard="0"
     inkscape:deskcolor="#d1d1d1"
     inkscape:document-units="px"
     showgrid="false"
     inkscape:zoom="12.375"
     inkscape:cx="31.959596"
     inkscape:cy="32"
     inkscape:window-width="1920"
     inkscape:window-height="1004"
     inkscape:window-x="0"
     inkscape:window-y="0"
     inkscape:window-maximized="1"
     inkscape:current-layer="svg5"
     showguides="false" />
  <defs
     id="defs2" />
  <path
     d="M 26,5 C 7.797619,5 4,8.879634 4,27 V 39 C 4,57.120366 7.797619,61 26,61 H 38 C 56.20238,61 60,57.120366 60,39 V 27 C 60,8.879634 56.20238,5 38,5"
     style="opacity:0.2;fill:#000000;stroke-width:2;stroke-linecap:round;stroke-linejoin:round"
     id="path563" />
  <path
     id="path530"
     style="fill:#ffdb0b;fill-opacity:1;stroke-width:2;stroke-linecap:round;stroke-linejoin:round"
     d="M 26,4 C 7.7976372,4 4,7.8796522 4,26 V 38 C 4,56.120348 7.7976372,60 26,60 H 38 C 56.202364,60 60,56.120348 60,38 V 26 C 60,7.8796522 56.202364,4 38,4 Z" />
  <path
     id="path12794"
     style="fill:#353535;stroke-width:1"
     d="M 32,12 A 22,18 0 0 0 10,30 22,18 0 0 0 17.800782,43.730468 L 15,54 24.833984,46.976562 A 22,18 0 0 0 32,48 22,18 0 0 0 54,30 22,18 0 0 0 32,12 Z M 15,24 h 6 c 0.554,0 1,0.446002 1,1 0,0.554 -0.446,1 -1,1 h -2 v 9 c 0,0.554 -0.446,1 -1,1 -0.553998,0 -1,-0.446 -1,-1 v -9 h -2 c -0.553999,0 -1,-0.446 -1,-1 0,-0.553998 0.446001,-1 1,-1 z m 11.464844,0 c 0.0128,-4.96e-4 0.02614,-4e-6 0.03906,0 0.0188,10e-5 0.03794,8.54e-4 0.05664,0.002 0.0013,7.4e-5 0.0026,-7.8e-5 0.004,0 0.0072,5e-4 0.0142,0.0014 0.02148,0.002 0.0222,0.0018 0.04414,0.0044 0.06642,0.0078 0.0132,0.002 0.02606,0.0052 0.03906,0.0078 0.019,0.0036 0.038,0.007 0.05664,0.0118 0.0058,0.0014 0.0118,0.0022 0.0176,0.0038 0.02074,0.0056 0.04046,0.0128 0.06054,0.0196 0.031,0.0104 0.06054,0.02206 0.08984,0.03516 0.02968,0.0132 0.05808,0.02712 0.08594,0.04298 0.257646,0.14662 0.433388,0.399852 0.486328,0.685548 l 3.484376,10.01367 c 0.14338,0.535122 -0.1719,1.081226 -0.707032,1.22461 -0.535122,0.14338 -1.081224,-0.1719 -1.224608,-0.707032 L 28.359376,33 h -3.710938 l -0.68164,2.349608 c -0.14338,0.535126 -0.689488,0.850418 -1.22461,0.707032 -0.535124,-0.14338 -0.850418,-0.689488 -0.707032,-1.22461 l 3.48047,-10.005858 c 0.05114,-0.289308 0.22972,-0.545422 0.490234,-0.69336 0.02706,-0.0154 0.05516,-0.03002 0.08398,-0.04298 0.02742,-0.0124 0.05506,-0.0232 0.08398,-0.0332 0.007,-0.0026 0.0146,-0.0036 0.02148,-0.006 0.0158,-0.005 0.03078,-0.0114 0.04688,-0.0156 0.006,-0.0016 0.0116,-0.0024 0.0176,-0.004 0.02736,-0.007 0.05402,-0.013 0.08202,-0.0176 0.004,-7e-4 0.0076,-0.0014 0.0118,-0.002 0.02198,-0.0032 0.0441,-0.006 0.06642,-0.0078 0.007,-6e-4 0.0144,-0.0015 0.02148,-0.002 0.0013,-8e-5 0.0026,7.6e-5 0.0038,0 0.0064,-4e-4 0.013,-0.0017 0.0196,-0.002 z M 34,24 c 0.553998,0 1,0.446002 1,1 v 9 h 5 c 0.553998,0 1,0.446002 1,1 0,0.554 -0.446002,1 -1,1 h -6 c -0.554,0 -1,-0.446 -1,-1 V 25 c 0,-0.553998 0.446,-1 1,-1 z m 10,0 c 0.553998,0 1,0.446002 1,1 v 3.212892 l 3.234374,-3.85547 c 0.356104,-0.424388 0.983816,-0.47915 1.408204,-0.12304 0.424388,0.356104 0.487814,0.993192 0.12304,1.410156 l -3.765624,4.304688 3.765624,4.306638 c 0.356104,0.42439 0.301342,1.054052 -0.12304,1.410158 -0.424388,0.356104 -1.0521,0.30134 -1.408204,-0.12304 L 45,31.6875 V 35 c 0,0.554 -0.446002,1 -1,1 -0.553998,0 -1,-0.446 -1,-1 V 25 c 0,-0.553998 0.446002,-1 1,-1 z M 26.503906,27.59961 25.228516,31 h 2.550782 z" />
</svg>
