<?xml version="1.0" encoding="UTF-8" standalone="no"?>
<!-- Created with Inkscape (http://www.inkscape.org/) -->

<svg
   width="64"
   height="64"
   viewBox="0 0 64 64"
   version="1.1"
   id="svg5"
   inkscape:version="1.2.1 (9c6d41e410, 2022-07-14)"
   sodipodi:docname="karbon.svg"
   xmlns:inkscape="http://www.inkscape.org/namespaces/inkscape"
   xmlns:sodipodi="http://sodipodi.sourceforge.net/DTD/sodipodi-0.dtd"
   xmlns:xlink="http://www.w3.org/1999/xlink"
   xmlns="http://www.w3.org/2000/svg"
   xmlns:svg="http://www.w3.org/2000/svg">
  <sodipodi:namedview
     id="namedview7"
     pagecolor="#ffffff"
     bordercolor="#000000"
     borderopacity="0.25"
     inkscape:showpageshadow="2"
     inkscape:pageopacity="0.0"
     inkscape:pagecheckerboard="0"
     inkscape:deskcolor="#d1d1d1"
     inkscape:document-units="px"
     showgrid="false"
     inkscape:zoom="12.53125"
     inkscape:cx="31.241895"
     inkscape:cy="32"
     inkscape:window-width="1920"
     inkscape:window-height="1008"
     inkscape:window-x="0"
     inkscape:window-y="0"
     inkscape:window-maximized="1"
     inkscape:current-layer="svg5"
     showguides="true" />
  <defs
     id="defs2">
    <linearGradient
       inkscape:collect="always"
       id="linearGradient6680">
      <stop
         style="stop-color:#000000;stop-opacity:1;"
         offset="0"
         id="stop6676" />
      <stop
         style="stop-color:#000000;stop-opacity:0;"
         offset="1"
         id="stop6678" />
    </linearGradient>
    <linearGradient
       inkscape:collect="always"
       id="linearGradient5222">
      <stop
         style="stop-color:#663079;stop-opacity:1;"
         offset="0"
         id="stop5218" />
      <stop
         style="stop-color:#10a585;stop-opacity:1;"
         offset="1"
         id="stop5220" />
    </linearGradient>
    <linearGradient
       inkscape:collect="always"
       id="linearGradient7627">
      <stop
         style="stop-color:#c6cdd1;stop-opacity:1;"
         offset="0"
         id="stop7623" />
      <stop
         style="stop-color:#e0e5e7;stop-opacity:1;"
         offset="1"
         id="stop7625" />
    </linearGradient>
    <linearGradient
       inkscape:collect="always"
       xlink:href="#linearGradient5222"
       id="linearGradient2299"
       x1="2"
       y1="30"
       x2="2"
       y2="7.4277344"
       gradientUnits="userSpaceOnUse"
       gradientTransform="scale(2)" />
    <linearGradient
       inkscape:collect="always"
       xlink:href="#linearGradient7627"
       id="linearGradient2307"
       x1="30"
       y1="30"
       x2="30"
       y2="2"
       gradientUnits="userSpaceOnUse"
       gradientTransform="scale(2)" />
    <linearGradient
       inkscape:collect="always"
       xlink:href="#linearGradient1884"
       id="linearGradient2034"
       x1="4"
       y1="6"
       x2="4"
       y2="4"
       gradientUnits="userSpaceOnUse"
       gradientTransform="matrix(1.75,0,0,1.75,-1,-1)" />
    <linearGradient
       inkscape:collect="always"
       id="linearGradient1884">
      <stop
         style="stop-color:#1d1e1e;stop-opacity:1;"
         offset="0"
         id="stop1880" />
      <stop
         style="stop-color:#44484c;stop-opacity:1;"
         offset="1"
         id="stop1882" />
    </linearGradient>
    <linearGradient
       inkscape:collect="always"
       xlink:href="#linearGradient1884"
       id="linearGradient2026"
       x1="12"
       y1="9"
       x2="12"
       y2="7"
       gradientUnits="userSpaceOnUse"
       gradientTransform="matrix(2,0,0,2,-5.0000997,-3.9999994)" />
    <linearGradient
       inkscape:collect="always"
       xlink:href="#linearGradient1884"
       id="linearGradient2018"
       x1="12"
       y1="15"
       x2="12"
       y2="12"
       gradientUnits="userSpaceOnUse"
       gradientTransform="matrix(1.6666667,0,0,1.6666667,-2.0001002,-1.9999994)" />
    <linearGradient
       inkscape:collect="always"
       xlink:href="#linearGradient1884"
       id="linearGradient1886"
       x1="20.5"
       y1="19"
       x2="20.5"
       y2="15"
       gradientUnits="userSpaceOnUse"
       gradientTransform="matrix(1.5,0,0,1.5,-1.7500001,-1.4999995)" />
    <linearGradient
       inkscape:collect="always"
       xlink:href="#linearGradient6680"
       id="linearGradient6682"
       x1="16.999901"
       y1="12"
       x2="29.453125"
       y2="24.978516"
       gradientUnits="userSpaceOnUse"
       gradientTransform="scale(2)" />
    <linearGradient
       inkscape:collect="always"
       xlink:href="#linearGradient6680"
       id="linearGradient7607"
       x1="-1.5466361"
       y1="-20.613821"
       x2="-1.5466361"
       y2="-28.613821"
       gradientUnits="userSpaceOnUse"
       gradientTransform="translate(-0.43543331,0.03532488)" />
    <linearGradient
       inkscape:collect="always"
       xlink:href="#linearGradient6680"
       id="linearGradient8425"
       x1="1.0521072"
       y1="-25.146484"
       x2="1.0521072"
       y2="-33.146484"
       gradientUnits="userSpaceOnUse" />
    <linearGradient
       inkscape:collect="always"
       xlink:href="#linearGradient6680"
       id="linearGradient8433"
       x1="-3.6215606"
       y1="8.4850407"
       x2="-3.6215606"
       y2="17.485041"
       gradientUnits="userSpaceOnUse"
       gradientTransform="translate(-0.60523338,0.13459229)" />
  </defs>
  <path
     id="path563"
     style="opacity:0.2;fill:#000000;stroke-width:2;stroke-linecap:round;stroke-linejoin:round"
     d="M 26,5 C 7.7976372,5 4,8.8796522 4,27 V 39 C 4,57.120348 7.7976372,61 26,61 H 38 C 56.202362,61 60,57.120348 60,39 V 27 C 60,8.8796522 56.202362,5 38,5 Z" />
  <path
     id="path530"
     style="fill:url(#linearGradient2307);fill-opacity:1;stroke-width:2;stroke-linecap:round;stroke-linejoin:round"
     d="M 26,4 C 12.381875,4 6.8289754,6.1735102 4.8945312,14.855469 6.827273,29.421412 13.792127,31.387142 18.863282,36.84375 c 4.390402,6.004012 1.79276,13.113282 9.954902,16.343556 C 33.9998,54.702382 58,52.4559 59.25,48.425782 59.790088,45.62694 60,42.199858 60,38 V 26 C 60,7.8796704 56.202346,4 38,4 Z M 4.8945312,14.855469 C 4.8131628,15.220658 4.736855,15.595825 4.6679688,15.984375 4.7369432,15.595728 4.8131332,15.22079 4.8945312,14.855469 Z M 4.6679688,15.984375 C 4.5459564,16.67258 4.4451016,17.40367 4.359375,18.167968 4.445326,17.404112 4.5458832,16.672284 4.6679688,15.984375 Z"
     sodipodi:nodetypes="sccccsssscccccc" />
  <path
     id="rect6454"
     style="opacity:0.2;fill:url(#linearGradient6682);fill-opacity:1;stroke-width:2;stroke-linecap:round;stroke-linejoin:round;paint-order:stroke fill markers"
     d="M 37.199218,21.601562 18.863282,43.554688 28.351562,60 H 38 c 15.90558,0 20.811864,-2.963026 21.796876,-15.800782 z" />
  <path
     id="path2212"
     style="fill:url(#linearGradient2299);fill-opacity:1;stroke-width:2;stroke-linecap:round;stroke-linejoin:round"
     d="M 4.8945312,14.855469 C 4.2433462,17.778044 4,21.436436 4,26 V 38 C 4,56.12033 7.7976562,60 26,60 H 38 C 51.983478,60 57.459874,57.70257 59.25,48.425782 47.060204,47.245702 30.843956,44.859742 29.136718,40.589844 26.273722,33.43305 36.29548,32.000542 34.863282,24.84375 33.215042,17.45004 18.338632,15.336732 4.8945312,14.855469 Z" />
  <path
     id="path475"
     style="fill:#1d1e1e;stroke-width:2;fill-opacity:1"
     d="m 4.8984376,14.839844 c -0.0161,0.07204 -0.03127,0.145814 -0.046876,0.21875 12.1127304,0.784443 27.0592784,2.034666 28.6093764,9.785156 1.430798,7.156792 -7.249716,8.5268 -4.38672,15.683594 2.283814,5.707722 17.681874,8.610418 29.832032,9.429688 0.19612,-0.746862 0.362016,-1.54833 0.5,-2.402344 C 49.203576,47.20558 32.70191,45.992486 30.539062,40.585938 27.676066,33.429144 36.29408,32.000542 34.863282,24.84375 33.182696,16.440826 19.75847,14.987074 4.8984376,14.839844 Z" />
  <g
     id="g8444"
     transform="scale(2)">
    <rect
       style="opacity:0.2;fill:url(#linearGradient8433);fill-opacity:1;stroke-linecap:round;stroke-linejoin:round;paint-order:stroke fill markers"
       id="rect6771"
       width="3.5"
       height="9"
       x="-4.2267942"
       y="8.6196327"
       transform="rotate(-45)" />
    <rect
       style="opacity:0.2;fill:url(#linearGradient8425);fill-opacity:1;stroke-linecap:round;stroke-linejoin:round;paint-order:stroke fill markers"
       id="rect6775"
       width="5"
       height="8"
       x="1.0521072"
       y="-33.146484"
       transform="rotate(135)" />
    <rect
       style="opacity:0.2;fill:url(#linearGradient7607);fill-opacity:1;stroke-linecap:round;stroke-linejoin:round;paint-order:stroke fill markers"
       id="rect6773"
       width="3.5"
       height="8"
       x="-4.9820695"
       y="-28.578497"
       transform="rotate(135)" />
  </g>
  <g
     id="g8439"
     transform="scale(2)">
    <circle
       style="fill:url(#linearGradient2034);fill-opacity:1;stroke-width:1.75;stroke-linecap:round;stroke-linejoin:round;paint-order:stroke fill markers"
       id="path350"
       cx="4.25"
       cy="7.75"
       r="1.75" />
    <circle
       style="fill:url(#linearGradient2026);fill-opacity:1;stroke-width:2;stroke-linecap:round;stroke-linejoin:round;paint-order:stroke fill markers"
       id="path906"
       cx="16.999901"
       cy="12"
       r="2" />
    <circle
       style="fill:url(#linearGradient2018);fill-opacity:1;stroke-width:1.66667;stroke-linecap:round;stroke-linejoin:round;paint-order:stroke fill markers"
       id="path908"
       cx="15.4999"
       cy="20.5"
       r="2.5" />
    <circle
       style="fill:url(#linearGradient1886);fill-opacity:1;stroke-width:1.5;stroke-linecap:round;stroke-linejoin:round;paint-order:stroke fill markers"
       id="path910"
       cx="26"
       cy="24"
       r="3" />
  </g>
  <g
     id="g2390"
     transform="scale(2)">
    <circle
       style="fill:#ffffff;stroke-width:3;stroke-linecap:round;stroke-linejoin:round;paint-order:stroke fill markers"
       id="path682"
       cx="4.25"
       cy="7.75"
       r="0.75" />
    <circle
       style="fill:#ffffff;stroke-width:1.5;stroke-linecap:round;stroke-linejoin:round;paint-order:stroke fill markers"
       id="path684"
       cx="17"
       cy="12"
       r="1" />
    <circle
       style="fill:#ffffff;stroke-width:0.999997;stroke-linecap:round;stroke-linejoin:round;paint-order:stroke fill markers"
       id="path686"
       cx="15.4999"
       cy="20.5"
       r="1.5" />
    <circle
       style="fill:#ffffff;stroke-width:1;stroke-linecap:round;stroke-linejoin:round;paint-order:stroke fill markers"
       id="path688"
       cx="26"
       cy="24"
       r="2" />
  </g>
</svg>
