<?xml version="1.0" encoding="UTF-8" standalone="no"?>
<!-- Created with Inkscape (http://www.inkscape.org/) -->

<svg
   width="64"
   height="64"
   viewBox="0 0 64 64"
   version="1.1"
   id="svg5"
   inkscape:version="1.2.1 (9c6d41e410, 2022-07-14)"
   sodipodi:docname="kopete.svg"
   xmlns:inkscape="http://www.inkscape.org/namespaces/inkscape"
   xmlns:sodipodi="http://sodipodi.sourceforge.net/DTD/sodipodi-0.dtd"
   xmlns:xlink="http://www.w3.org/1999/xlink"
   xmlns="http://www.w3.org/2000/svg"
   xmlns:svg="http://www.w3.org/2000/svg">
  <sodipodi:namedview
     id="namedview7"
     pagecolor="#ffffff"
     bordercolor="#000000"
     borderopacity="0.25"
     inkscape:showpageshadow="2"
     inkscape:pageopacity="0.0"
     inkscape:pagecheckerboard="0"
     inkscape:deskcolor="#d1d1d1"
     inkscape:document-units="px"
     showgrid="false"
     inkscape:zoom="12.375"
     inkscape:cx="31.959596"
     inkscape:cy="32"
     inkscape:window-width="1920"
     inkscape:window-height="1004"
     inkscape:window-x="0"
     inkscape:window-y="0"
     inkscape:window-maximized="1"
     inkscape:current-layer="svg5" />
  <defs
     id="defs2">
    <linearGradient
       inkscape:collect="always"
       xlink:href="#linearGradient1677"
       id="linearGradient4780"
       x1="2"
       y1="2"
       x2="30"
       y2="30.5"
       gradientUnits="userSpaceOnUse"
       gradientTransform="scale(2)" />
    <linearGradient
       inkscape:collect="always"
       id="linearGradient1677">
      <stop
         style="stop-color:#397dd1;stop-opacity:1;"
         offset="0"
         id="stop1673" />
      <stop
         style="stop-color:#92d0f7;stop-opacity:1;"
         offset="1"
         id="stop1675" />
    </linearGradient>
  </defs>
  <path
     d="M 26,5 C 7.797619,5 4,8.879634 4,27 V 39 C 4,57.120366 7.797619,61 26,61 H 38 C 56.20238,61 60,57.120366 60,39 V 27 C 60,8.879634 56.20238,5 38,5"
     style="opacity:0.2;fill:#000000;stroke-width:2;stroke-linecap:round;stroke-linejoin:round"
     id="path563" />
  <path
     id="path530"
     style="fill:url(#linearGradient4780);fill-opacity:1;stroke-width:2;stroke-linecap:round;stroke-linejoin:round"
     d="M 26 4 C 7.7976372 4 4 7.8796521 4 26 L 4 38 C 4 56.120348 7.7976372 60 26 60 L 38 60 C 56.202364 60 60 56.120348 60 38 L 60 26 C 60 7.8796521 56.202364 4 38 4 L 26 4 z " />
  <path
     id="rect560"
     style="fill:#ffffff;fill-opacity:1;stroke-width:8;stroke-linecap:round;stroke-linejoin:round"
     d="m 39,15.000001 c 1.975016,1.074192 8,8.02802 8,17.999998 0,9.97198 -5.856124,16.308748 -8,18 h 4 c 2.233604,-1.6437 8,-8.02802 8,-18 0,-9.971978 -6.345264,-16.891198 -8,-17.999998 z m -24,4 v 4 h 4 v -4 z m 8,11.999998 v 4 h 12 v -4 z m -8,8 v 4 h 2 c 0,1.104568 -0.895432,2 -2,2 v 2 c 2.20914,0 4,-1.79086 4,-4 v -4 z"
     sodipodi:nodetypes="csccscccccccccccccccccscc" />
</svg>
