<?xml version="1.0" encoding="UTF-8" standalone="no"?>
<!-- Created with Inkscape (http://www.inkscape.org/) -->

<svg
   width="64"
   height="64"
   viewBox="0 0 64 64"
   version="1.1"
   id="svg5"
   inkscape:version="1.2.1 (9c6d41e410, 2022-07-14)"
   sodipodi:docname="linuxmint.svg"
   xmlns:inkscape="http://www.inkscape.org/namespaces/inkscape"
   xmlns:sodipodi="http://sodipodi.sourceforge.net/DTD/sodipodi-0.dtd"
   xmlns:xlink="http://www.w3.org/1999/xlink"
   xmlns="http://www.w3.org/2000/svg"
   xmlns:svg="http://www.w3.org/2000/svg">
  <sodipodi:namedview
     id="namedview7"
     pagecolor="#ffffff"
     bordercolor="#000000"
     borderopacity="0.25"
     inkscape:showpageshadow="2"
     inkscape:pageopacity="0.0"
     inkscape:pagecheckerboard="0"
     inkscape:deskcolor="#d1d1d1"
     inkscape:document-units="px"
     showgrid="false"
     inkscape:zoom="1"
     inkscape:cx="32"
     inkscape:cy="32"
     inkscape:window-width="1920"
     inkscape:window-height="1011"
     inkscape:window-x="0"
     inkscape:window-y="32"
     inkscape:window-maximized="1"
     inkscape:current-layer="svg5" />
  <defs
     id="defs2">
    <linearGradient
       inkscape:collect="always"
       xlink:href="#linearGradient7437"
       id="linearGradient4780"
       x1="2"
       y1="2"
       x2="30"
       y2="30"
       gradientUnits="userSpaceOnUse"
       gradientTransform="scale(2)" />
    <linearGradient
       inkscape:collect="always"
       id="linearGradient7437">
      <stop
         style="stop-color:#38b13a;stop-opacity:1;"
         offset="0"
         id="stop7433" />
      <stop
         style="stop-color:#87cf3e;stop-opacity:1;"
         offset="1"
         id="stop7435" />
    </linearGradient>
  </defs>
  <path
     d="M 26,5 C 7.797619,5 4,8.879634 4,27 V 39 C 4,57.120366 7.797619,61 26,61 H 38 C 56.20238,61 60,57.120366 60,39 V 27 C 60,8.879634 56.20238,5 38,5"
     style="opacity:0.2;fill:#000000;stroke-width:2;stroke-linecap:round;stroke-linejoin:round"
     id="path563" />
  <path
     id="path530"
     style="fill:url(#linearGradient4780);fill-opacity:1;stroke-width:2;stroke-linecap:round;stroke-linejoin:round"
     d="M 26,4 C 7.7976372,4 4,7.8796522 4,26 V 38 C 4,56.120348 7.7976372,60 26,60 H 38 C 56.202364,60 60,56.120348 60,38 V 26 C 60,7.8796522 56.202364,4 38,4 Z" />
  <path
     id="rect291"
     style="fill:#ffffff;stroke-width:4.17786;stroke-linecap:round;stroke-linejoin:round"
     d="m 15,15 v 24 c 0,5.539982 4.460018,10 10,10 h 14 c 5.539982,0 10,-4.460018 10,-10 V 28 c 0,-3.877988 -3.122012,-7 -7,-7 -1.962828,0 -3.731306,0.80093 -5,2.09375 C 35.731306,21.80093 33.962828,21 32,21 c -3.877988,0 -7,3.122012 -7,7 v 11 h 4 V 28 c 0,-1.661994 1.338006,-3 3,-3 1.661994,0 3,1.338006 3,3 v 11 h 4 V 28 c 0,-1.661994 1.338006,-3 3,-3 1.661994,0 3,1.338006 3,3 v 11 c 0,3.323988 -2.676012,6 -6,6 H 25 c -3.323988,0 -6,-2.676012 -6,-6 V 15 Z" />
</svg>
