<?xml version="1.0" encoding="UTF-8" standalone="no"?>
<!-- Created with Inkscape (http://www.inkscape.org/) -->

<svg
   width="64"
   height="64"
   viewBox="0 0 64 64"
   version="1.1"
   id="svg5"
   inkscape:version="1.2.2 (b0a8486541, 2022-12-01)"
   sodipodi:docname="lunarclient.svg"
   xmlns:inkscape="http://www.inkscape.org/namespaces/inkscape"
   xmlns:sodipodi="http://sodipodi.sourceforge.net/DTD/sodipodi-0.dtd"
   xmlns:xlink="http://www.w3.org/1999/xlink"
   xmlns="http://www.w3.org/2000/svg"
   xmlns:svg="http://www.w3.org/2000/svg">
  <sodipodi:namedview
     id="namedview7"
     pagecolor="#ffffff"
     bordercolor="#000000"
     borderopacity="0.25"
     inkscape:showpageshadow="2"
     inkscape:pageopacity="0.0"
     inkscape:pagecheckerboard="0"
     inkscape:deskcolor="#d1d1d1"
     inkscape:document-units="px"
     showgrid="false"
     inkscape:zoom="12.625"
     inkscape:cx="32"
     inkscape:cy="32.079208"
     inkscape:window-width="1920"
     inkscape:window-height="1002"
     inkscape:window-x="0"
     inkscape:window-y="0"
     inkscape:window-maximized="1"
     inkscape:current-layer="svg5" />
  <defs
     id="defs2">
    <linearGradient
       inkscape:collect="always"
       xlink:href="#linearGradient1768"
       id="linearGradient4780"
       x1="2"
       y1="2"
       x2="30"
       y2="30"
       gradientUnits="userSpaceOnUse"
       gradientTransform="scale(2)" />
    <linearGradient
       inkscape:collect="always"
       id="linearGradient1768">
      <stop
         style="stop-color:#333333;stop-opacity:1;"
         offset="0"
         id="stop1764" />
      <stop
         style="stop-color:#6a6a6a;stop-opacity:1;"
         offset="1"
         id="stop1766" />
    </linearGradient>
  </defs>
  <path
     d="M 26,5 C 7.797619,5 4,8.879634 4,27 V 39 C 4,57.120366 7.797619,61 26,61 H 38 C 56.20238,61 60,57.120366 60,39 V 27 C 60,8.879634 56.20238,5 38,5"
     style="opacity:0.2;fill:#000000;stroke-width:2;stroke-linecap:round;stroke-linejoin:round"
     id="path563" />
  <path
     id="path530"
     style="fill:url(#linearGradient4780);fill-opacity:1.0;stroke-width:2;stroke-linecap:round;stroke-linejoin:round"
     d="M 26,4 C 7.7976372,4 4,7.8796522 4,26 V 38 C 4,56.120348 7.7976372,60 26,60 H 38 C 56.202364,60 60,56.120348 60,38 V 26 C 60,7.8796522 56.202364,4 38,4 Z" />
  <path
     d="m 32.142578,11.9999 c -0.232758,0.0095 -0.460117,0.07298 -0.664062,0.185547 0,0 -4.438347,2.431998 -8.888672,5.046875 -2.225163,1.307438 -4.451321,2.658304 -6.15625,3.794922 -0.852465,0.568309 -1.570349,1.07799 -2.126953,1.537109 -0.278302,0.22956 -0.51613,0.440108 -0.736329,0.691406 C 13.350116,23.507058 13,23.721832 13,24.599509 V 40.9999 h 3 V 25.074119 c 0.0685,-0.06473 0.101177,-0.101554 0.214844,-0.195313 0.41136,-0.339313 1.07591,-0.817534 1.882812,-1.355468 1.613805,-1.075869 3.811903,-2.412533 6.011719,-3.705079 4.035037,-2.370866 7.437398,-4.236512 8.080078,-4.589843 0.635128,0.357265 3.948081,2.214321 7.886719,4.582031 2.149774,1.292335 4.298744,2.628002 5.875,3.703125 0.788128,0.537561 1.437082,1.015263 1.83789,1.353516 0.111997,0.09452 0.14422,0.132663 0.210938,0.197265 V 40.9999 h 3 V 24.599509 c 0,-0.859828 -0.338883,-1.078101 -0.554688,-1.330078 -0.215803,-0.251977 -0.448058,-0.465222 -0.720703,-0.695312 -0.545288,-0.460181 -1.248276,-0.970381 -2.082031,-1.539063 -1.66751,-1.137364 -3.844284,-2.487273 -6.019531,-3.794922 -4.350495,-2.615297 -8.689453,-5.048828 -8.689453,-5.048828 -0.210433,-0.118176 -0.446273,-0.183836 -0.6875,-0.191406 -0.03449,-0.0012 -0.06902,-0.0012 -0.103516,0 z M 32.5,17.4999 32.146484,18.146384 31.5,18.4999 32.146484,18.853416 32.5,19.4999 32.853516,18.853416 33.5,18.4999 32.853516,18.146384 Z m -4.591797,2.408203 C 23.131739,21.824691 20.000631,26.452867 20,31.599509 c 1e-6,5.047155 2.974288,9.389107 7.259766,11.400391 H 11 v 0.666016 h 4 v 0.667968 H 11 V 44.9999 h 6 v 0.666016 h -4 v 0.667968 h 8 V 46.9999 h -4 v 0.666016 h 9 v 0.667968 H 24 V 48.9999 h 14 v -0.666016 h -2 v -0.667968 h 9 V 46.9999 h -4 v -0.666016 h 8 V 45.665916 H 45 V 44.9999 h 6 v -0.666016 h -4 v -0.667968 h 4 V 42.9999 H 37.958984 c 2.825207,-1.329091 5.122332,-3.687387 6.333985,-6.707031 -1.49182,0.599173 -3.085711,0.905758 -4.69336,0.90625 C 32.640845,37.19912 27.000001,31.558273 27,24.599509 c 4.91e-4,-1.607649 0.30903,-3.199586 0.908203,-4.691406 z M 41.5,23.4999 41.146484,24.146384 40.5,24.4999 41.146484,24.853416 41.5,25.4999 41.853516,24.853416 42.5,24.4999 41.853516,24.146384 Z m -11,0.5 -0.53125,0.96875 L 29,25.4999 29.96875,26.03115 30.5,26.9999 31.03125,26.03115 32,25.4999 31.03125,24.96865 Z m -12,0.5 -0.353516,0.646484 L 17.5,25.4999 18.146484,25.853416 18.5,26.4999 18.853516,25.853416 19.5,25.4999 18.853516,25.146384 Z m 17,2 -0.353516,0.646484 L 34.5,27.4999 35.146484,27.853416 35.5,28.4999 35.853516,27.853416 36.5,27.4999 35.853516,27.146384 Z m 8,2 -0.707031,1.292969 L 41.5,30.4999 42.792969,31.206931 43.5,32.4999 44.207031,31.206931 45.5,30.4999 44.207031,29.792869 Z m -6,2.5 -0.53125,0.96875 L 36,32.4999 36.96875,33.03115 37.5,33.9999 38.03125,33.03115 39,32.4999 38.03125,31.96865 Z m -18,5.5 -0.707031,1.292969 L 17.5,38.4999 18.792969,39.206931 19.5,40.4999 20.207031,39.206931 21.5,38.4999 20.207031,37.792869 Z"
     style="opacity:1;fill:#ffffff"
     id="path3007" />
</svg>
