<?xml version="1.0" encoding="UTF-8" standalone="no"?>
<!-- Created with Inkscape (http://www.inkscape.org/) -->

<svg
   width="64"
   height="64"
   viewBox="0 0 64 64"
   version="1.1"
   id="svg5"
   inkscape:version="1.2.1 (9c6d41e410, 2022-07-14)"
   sodipodi:docname="nextcloud.svg"
   xmlns:inkscape="http://www.inkscape.org/namespaces/inkscape"
   xmlns:sodipodi="http://sodipodi.sourceforge.net/DTD/sodipodi-0.dtd"
   xmlns="http://www.w3.org/2000/svg"
   xmlns:svg="http://www.w3.org/2000/svg">
  <sodipodi:namedview
     id="namedview7"
     pagecolor="#ffffff"
     bordercolor="#000000"
     borderopacity="0.25"
     inkscape:showpageshadow="2"
     inkscape:pageopacity="0.0"
     inkscape:pagecheckerboard="0"
     inkscape:deskcolor="#d1d1d1"
     inkscape:document-units="px"
     showgrid="false"
     inkscape:zoom="12.625"
     inkscape:cx="32"
     inkscape:cy="32"
     inkscape:window-width="1920"
     inkscape:window-height="1011"
     inkscape:window-x="0"
     inkscape:window-y="32"
     inkscape:window-maximized="1"
     inkscape:current-layer="svg5"
     showguides="false" />
  <defs
     id="defs2" />
  <path
     id="path563"
     style="opacity:0.2;fill:#000000;stroke-width:2;stroke-linecap:round;stroke-linejoin:round"
     d="M 26,5 C 7.7976372,5 4,8.8796522 4,27 V 39 C 4,57.120348 7.7976372,61 26,61 H 38 C 56.202362,61 60,57.120348 60,39 V 27 C 60,8.8796522 56.202362,5 38,5 Z" />
  <path
     id="path530"
     style="fill:#0082c9;fill-opacity:1;stroke-width:2;stroke-linecap:round;stroke-linejoin:round"
     d="M 26,4 C 7.7976372,4 4,7.8796522 4,26 V 38 C 4,56.120348 7.7976372,60 26,60 H 38 C 56.202364,60 60,56.120348 60,38 V 26 C 60,7.8796522 56.202364,4 38,4 Z" />
  <path
     id="path895"
     style="fill:#ffffff;stroke-width:4;stroke-linecap:round;stroke-linejoin:round"
     d="M 32 22 A 10 10 0 0 0 23.542969 26.675781 A 7 7 0 0 0 19 25 A 7 7 0 0 0 12 32 A 7 7 0 0 0 19 39 A 7 7 0 0 0 23.542969 37.322266 A 10 10 0 0 0 32 42 A 10 10 0 0 0 40.457031 37.322266 A 7 7 0 0 0 45 39 A 7 7 0 0 0 52 32 A 7 7 0 0 0 45 25 A 7 7 0 0 0 40.460938 26.675781 A 10 10 0 0 0 32 22 z M 32 26 A 6 6 0 0 1 38 32 A 6 6 0 0 1 32 38 A 6 6 0 0 1 26 32 A 6 6 0 0 1 32 26 z M 19 29 A 3 3 0 0 1 22 32 A 3 3 0 0 1 19 35 A 3 3 0 0 1 16 32 A 3 3 0 0 1 19 29 z M 45 29 A 3 3 0 0 1 48 32 A 3 3 0 0 1 45 35 A 3 3 0 0 1 42 32 A 3 3 0 0 1 45 29 z " />
</svg>
