<?xml version="1.0" encoding="UTF-8" standalone="no"?>
<!-- Created with Inkscape (http://www.inkscape.org/) -->

<svg
   width="64"
   height="64"
   viewBox="0 0 64 64"
   version="1.1"
   id="svg5"
   inkscape:version="1.2.1 (9c6d41e410, 2022-07-14, custom)"
   sodipodi:docname="org.gnome.Firmware.svg"
   xmlns:inkscape="http://www.inkscape.org/namespaces/inkscape"
   xmlns:sodipodi="http://sodipodi.sourceforge.net/DTD/sodipodi-0.dtd"
   xmlns:xlink="http://www.w3.org/1999/xlink"
   xmlns="http://www.w3.org/2000/svg"
   xmlns:svg="http://www.w3.org/2000/svg">
  <sodipodi:namedview
     id="namedview7"
     pagecolor="#ffffff"
     bordercolor="#000000"
     borderopacity="0.25"
     inkscape:showpageshadow="2"
     inkscape:pageopacity="0.0"
     inkscape:pagecheckerboard="0"
     inkscape:deskcolor="#d1d1d1"
     inkscape:document-units="px"
     showgrid="false"
     inkscape:zoom="11.234375"
     inkscape:cx="32"
     inkscape:cy="32"
     inkscape:window-width="1920"
     inkscape:window-height="936"
     inkscape:window-x="0"
     inkscape:window-y="0"
     inkscape:window-maximized="1"
     inkscape:current-layer="svg5" />
  <defs
     id="defs2">
    <linearGradient
       inkscape:collect="always"
       id="linearGradient1940">
      <stop
         style="stop-color:#28b013;stop-opacity:1;"
         offset="0"
         id="stop1936" />
      <stop
         style="stop-color:#4ac265;stop-opacity:1;"
         offset="1"
         id="stop1938" />
    </linearGradient>
    <linearGradient
       inkscape:collect="always"
       xlink:href="#linearGradient1940"
       id="linearGradient4780"
       x1="2"
       y1="2"
       x2="30"
       y2="30"
       gradientUnits="userSpaceOnUse"
       gradientTransform="scale(2)" />
    <linearGradient
       inkscape:collect="always"
       xlink:href="#linearGradient981"
       id="linearGradient2657"
       x1="11"
       y1="13"
       x2="3"
       y2="3"
       gradientUnits="userSpaceOnUse"
       gradientTransform="matrix(4.9999998,0,0,2.8,-3.0000002,9.5999982)" />
    <linearGradient
       inkscape:collect="always"
       id="linearGradient981">
      <stop
         style="stop-color:#858585;stop-opacity:1;"
         offset="0"
         id="stop977" />
      <stop
         style="stop-color:#595959;stop-opacity:1;"
         offset="1"
         id="stop979" />
    </linearGradient>
  </defs>
  <path
     d="M 26,5 C 7.797619,5 4,8.879634 4,27 V 39 C 4,57.120366 7.797619,61 26,61 H 38 C 56.20238,61 60,57.120366 60,39 V 27 C 60,8.879634 56.20238,5 38,5"
     style="opacity:0.2;fill:#000000;stroke-width:2;stroke-linecap:round;stroke-linejoin:round"
     id="path563" />
  <path
     id="path530"
     style="fill:url(#linearGradient4780);fill-opacity:1;stroke-width:2;stroke-linecap:round;stroke-linejoin:round"
     d="M 26,4 C 7.7976372,4 4,7.8796522 4,26 V 38 C 4,56.120348 7.7976372,60 26,60 H 38 C 56.202364,60 60,56.120348 60,38 V 26 C 60,7.8796522 56.202364,4 38,4 Z" />
  <path
     id="rect419"
     style="fill:#f2f2f2;stroke-width:2.16024"
     d="m 22,12 c -1.107998,0 -2,0.892002 -2,2 v 36.000002 c 0,1.107996 0.892002,2 2,2 1.107996,0 2,-0.892004 2,-2 V 14 c 0,-1.107998 -0.892004,-2 -2,-2 z m 9.999998,0 c -1.107996,0 -2,0.892002 -2,2 v 36.000002 c 0,1.107996 0.892004,2 2,2 1.107996,0 2,-0.892004 2,-2 V 14 c 0,-1.107998 -0.892004,-2 -2,-2 z M 42,12 c -1.107996,0 -2,0.892002 -2,2 v 36.000002 c 0,1.107996 0.892004,2 2,2 1.107996,0 2,-0.892004 2,-2 V 14 c 0,-1.107998 -0.892004,-2 -2,-2 z"
     sodipodi:nodetypes="sssssssssssssssssssss" />
  <rect
     style="opacity:0.2;fill:#000000;stroke-width:2.17422"
     id="rect636"
     width="40"
     height="28"
     x="12"
     y="19"
     ry="4" />
  <rect
     style="fill:url(#linearGradient2657);fill-opacity:1;stroke-width:3.74164"
     id="rect2649"
     width="40"
     height="28"
     x="12"
     y="18"
     ry="4" />
  <path
     id="rect1101"
     style="opacity:0.2;fill:#ffffff;stroke-width:2"
     d="m 18,24 v 1 h 20 v -1 z m 0,3 v 1 h 12 v -1 z"
     sodipodi:nodetypes="cccccccccc" />
</svg>
