<?xml version="1.0" encoding="UTF-8" standalone="no"?>
<!-- Created with Inkscape (http://www.inkscape.org/) -->

<svg
   width="64"
   height="64"
   viewBox="0 0 64 64"
   version="1.1"
   id="svg5"
   inkscape:version="1.2.1 (9c6d41e410, 2022-07-14)"
   sodipodi:docname="org.gnome.Connections.svg"
   xmlns:inkscape="http://www.inkscape.org/namespaces/inkscape"
   xmlns:sodipodi="http://sodipodi.sourceforge.net/DTD/sodipodi-0.dtd"
   xmlns:xlink="http://www.w3.org/1999/xlink"
   xmlns="http://www.w3.org/2000/svg"
   xmlns:svg="http://www.w3.org/2000/svg">
  <sodipodi:namedview
     id="namedview7"
     pagecolor="#ffffff"
     bordercolor="#000000"
     borderopacity="0.25"
     inkscape:showpageshadow="2"
     inkscape:pageopacity="0.0"
     inkscape:pagecheckerboard="0"
     inkscape:deskcolor="#d1d1d1"
     inkscape:document-units="px"
     showgrid="false"
     inkscape:zoom="12.34375"
     inkscape:cx="32"
     inkscape:cy="32"
     inkscape:window-width="1920"
     inkscape:window-height="1011"
     inkscape:window-x="0"
     inkscape:window-y="0"
     inkscape:window-maximized="1"
     inkscape:current-layer="svg5" />
  <defs
     id="defs2">
    <linearGradient
       inkscape:collect="always"
       xlink:href="#linearGradient3147"
       id="linearGradient4780"
       x1="30"
       y1="30"
       x2="2"
       y2="2"
       gradientUnits="userSpaceOnUse"
       gradientTransform="scale(2)" />
    <linearGradient
       inkscape:collect="always"
       id="linearGradient3147">
      <stop
         style="stop-color:#41bbff;stop-opacity:1;"
         offset="0"
         id="stop3143" />
      <stop
         style="stop-color:#0091f9;stop-opacity:1;"
         offset="1"
         id="stop3145" />
    </linearGradient>
  </defs>
  <path
     d="M 26,5 C 7.797619,5 4,8.879634 4,27 V 39 C 4,57.120366 7.797619,61 26,61 H 38 C 56.20238,61 60,57.120366 60,39 V 27 C 60,8.879634 56.20238,5 38,5"
     style="opacity:0.2;fill:#000000;stroke-width:2;stroke-linecap:round;stroke-linejoin:round"
     id="path563" />
  <path
     id="path530"
     style="fill:url(#linearGradient4780);fill-opacity:1;stroke-width:2;stroke-linecap:round;stroke-linejoin:round"
     d="M 26,4.0000002 C 7.7976372,4.0000002 4,7.8796524 4,26 V 38 C 4,56.120348 7.7976372,60 26,60 H 38 C 56.202364,60 60,56.120348 60,38 V 26 C 60,7.8796524 56.202364,4.0000002 38,4.0000002 Z" />
  <path
     id="path338"
     style="fill:#98d6fe;fill-opacity:1;stroke-width:2"
     d="m 18,10 c -1.857116,0 -4.070313,2.101531 -4.070312,4 H 10.921875 10.589844 7.078125 C 6.4811292,14 6,14.446001 6,15 c 0,0.554 0.4811292,1 1.078125,1 H 9.0898438 10 v 2 H 6 C 4.3741754,18.004 4.2611782,19.118204 4.1445312,20.667968 4.0472822,22.276114 4,24.08619 4,26 v 2 10 c 0,11.694408 1.5907236,17.44966 7.605469,20.066406 1.456436,-1.128858 2.313387,-2.864366 2.324219,-4.70703 v -11.63672 c 5.7e-5,-1.89847 -2.799136,-3.4375 -4.6562504,-3.4375 -1.8571148,0 -3.3125002,-2.252196 -3.3125,-4.152344 0,-1.898468 1.4553852,-3.874998 3.3125,-3.875 1.8571144,0 4.6562494,-1.099854 4.6562504,-3 0,-1.898468 0.07649,-3.355468 1.933593,-3.355468 1.857115,0 4.187501,-1.541256 4.187501,-3.441406 v -4.816406 c 0,-0.976932 0.548252,-1.769532 1.503906,-1.769532 0.958932,-0.05875 2.443594,0.124992 2.371094,-2.25 0.0725,-1.624993 -1.925342,-1.583691 -2.941406,-1.625 z m 25.648438,7.179688 c -1.794076,0 -3.25,1.490192 -3.25,3.324218 v 1.414062 c 0,1.834026 -0.854366,3.32422 -2.648438,3.32422 -2.157888,0.16408 -3.910504,2.085208 -3.75,4.292968 v 5.796876 c 0,1.883248 1.028868,4.46875 2.871094,4.46875 1.967424,0 3.128906,1.606838 3.128906,3.15625 v 3.26953 C 40,48.292122 40.877874,50 42.898438,50 44.917218,49.99818 46.001782,48.290298 46,46.226562 v -6.304686 c 0,-1.513166 0.588098,-3.763706 1.636718,-4.832032 1.046848,-1.068334 2.469012,-3.06823 3.94922,-3.066406 l 1.945312,0.0156 c 0.86137,0.0018 1.690864,-0.347074 2.300782,-0.96875 0.608126,-0.621658 0.949218,-1.4671 0.949218,-2.347656 v -8.21875 c 0,-1.834026 -1.454144,-3.324218 -3.25,-3.324218 z" />
  <path
     d="m 47.99972,33.4 v 14.160156 c 0,1.055254 -0.584908,2.192514 -1.519532,3.070312 -0.934622,0.8778 -2.184212,1.371094 -2.882812,1.371094 H 28.710658 c -1.039954,0 -2.408342,-0.227494 -3.35547,-0.621094 -0.947128,-0.3936 -1.225666,-0.7922 -1.253906,-0.96875 -0.28142,-1.759446 -0.338506,-3.139412 -0.421874,-4.359374 -0.08336,-1.219962 -0.12454,-2.38231 -0.867188,-3.570314 -0.74265,-1.188002 -2.12149,-1.860282 -3.613282,-2.140624 -1.491792,-0.280342 -3.33233,-0.339844 -5.960938,-0.339844 v 4 c 2.551388,0 4.2654,0.08964 5.222658,0.269532 0.957256,0.1799 0.927854,0.279108 0.960936,0.33203 0.03308,0.05292 0.19284,0.600534 0.269532,1.722656 0.07668,1.122124 0.13646,2.71449 0.457032,4.71875 0.339222,2.120824 2.06362,3.359 3.671874,4.027344 1.608254,0.668346 3.347326,0.929688 4.890626,0.929688 h 14.886718 c 2.104058,0 4.05472,-0.985892 5.621094,-2.457032 1.566374,-1.47114 2.78125,-3.55241 2.78125,-5.984374 V 33.4 Z"
     style="color:#000000;opacity:0.3;fill:#000000;stroke-width:2;-inkscape-stroke:none"
     id="path1202" />
  <path
     d="m 10,38 c -2.2093908,0 -4,1.79115 -4,4 0,2.208854 1.7906092,4 4,4 2.209392,0 4.000001,-1.791146 4.000001,-4 0,-2.20885 -1.790609,-4 -4.000001,-4 z m 40,0 c -1.10547,0 -2,0.894534 -2,2 0,1.105466 0.89453,2 2,2 1.105464,0 2,-0.894534 2,-2 0,-1.105466 -0.894536,-2 -2,-2 z m -31.999998,2 c -1.105472,0 -2,0.894534 -2,2 0,1.105466 0.894528,2 2,2 1.105466,0 2,-0.894534 2,-2 0,-1.105466 -0.894534,-2 -2,-2 z M 50,46 c -1.10547,0 -2,0.894534 -2,2 0,1.105466 0.89453,2 2,2 1.105464,0 2,-0.894534 2,-2 0,-1.105466 -0.894536,-2 -2,-2 z m -27.999998,2 c -1.105472,0 -2,0.894534 -2,2 0,1.105466 0.894528,2 2,2 1.105466,0 2,-0.894534 2,-2 0,-1.105466 -0.894534,-2 -2,-2 z M 28,52 c -1.10547,0 -2,0.894534 -2,2 0,1.105466 0.89453,2 2,2 1.105466,0 2,-0.894534 2,-2 0,-1.105466 -0.894534,-2 -2,-2 z m 8,0 c -1.10547,0 -2,0.894534 -2,2 0,1.105466 0.89453,2 2,2 1.105464,0 2,-0.894534 2,-2 0,-1.105466 -0.894536,-2 -2,-2 z m 8,0 c -1.10547,0 -2,0.894534 -2,2 0,1.105466 0.89453,2 2,2 1.105464,0 2,-0.894534 2,-2 0,-1.105466 -0.894536,-2 -2,-2 z"
     style="fill:#ffffff;stroke-width:2"
     id="path1231" />
  <rect
     style="fill:#3a325a;fill-opacity:1;stroke-width:4"
     id="rect675"
     width="36"
     height="30"
     x="24"
     y="4"
     ry="4" />
  <path
     d="m 34.6,10 5.089354,15.67305 3.32056,-2.918526 2.158448,2.657192 c 0.562256,0.692798 1.567138,0.78751 2.242188,0.21047 0.673338,-0.578792 0.765622,-1.606592 0.203364,-2.299392 L 45.426416,20.628768 48.6,17.836524 Z"
     style="fill:#ffffff;stroke-width:2"
     id="path1170" />
</svg>
