<?xml version="1.0" encoding="UTF-8" standalone="no"?>
<!-- Created with Inkscape (http://www.inkscape.org/) -->

<svg
   width="64"
   height="64"
   viewBox="0 0 64 64"
   version="1.1"
   id="svg5"
   inkscape:version="1.2.1 (9c6d41e410, 2022-07-14)"
   sodipodi:docname="org.gnome.font-viewer.svg"
   xmlns:inkscape="http://www.inkscape.org/namespaces/inkscape"
   xmlns:sodipodi="http://sodipodi.sourceforge.net/DTD/sodipodi-0.dtd"
   xmlns:xlink="http://www.w3.org/1999/xlink"
   xmlns="http://www.w3.org/2000/svg"
   xmlns:svg="http://www.w3.org/2000/svg">
  <sodipodi:namedview
     id="namedview7"
     pagecolor="#ffffff"
     bordercolor="#000000"
     borderopacity="0.25"
     inkscape:showpageshadow="2"
     inkscape:pageopacity="0.0"
     inkscape:pagecheckerboard="0"
     inkscape:deskcolor="#d1d1d1"
     inkscape:document-units="px"
     showgrid="false"
     inkscape:zoom="12.9375"
     inkscape:cx="31.961353"
     inkscape:cy="32"
     inkscape:window-width="1920"
     inkscape:window-height="1008"
     inkscape:window-x="0"
     inkscape:window-y="0"
     inkscape:window-maximized="1"
     inkscape:current-layer="svg5" />
  <defs
     id="defs2">
    <linearGradient
       inkscape:collect="always"
       id="linearGradient1173">
      <stop
         style="stop-color:#b369e3;stop-opacity:1;"
         offset="0"
         id="stop1169" />
      <stop
         style="stop-color:#a52ed9;stop-opacity:1;"
         offset="1"
         id="stop1171" />
    </linearGradient>
    <linearGradient
       inkscape:collect="always"
       xlink:href="#linearGradient1173"
       id="linearGradient4780"
       x1="30"
       y1="30"
       x2="2"
       y2="2"
       gradientUnits="userSpaceOnUse"
       gradientTransform="scale(2)" />
  </defs>
  <path
     d="M 26,5 C 7.797619,5 4,8.879634 4,27 V 39 C 4,57.120366 7.797619,61 26,61 H 38 C 56.20238,61 60,57.120366 60,39 V 27 C 60,8.879634 56.20238,5 38,5"
     style="opacity:0.2;fill:#000000;stroke-width:2;stroke-linecap:round;stroke-linejoin:round"
     id="path563" />
  <path
     id="path530"
     style="fill:url(#linearGradient4780);fill-opacity:1;stroke-width:2;stroke-linecap:round;stroke-linejoin:round"
     d="M 26,4 C 7.7976372,4 4,7.8796522 4,26 V 38 C 4,56.120348 7.7976372,60 26,60 H 38 C 56.202364,60 60,56.120348 60,38 V 26 C 60,7.8796522 56.202364,4 38,4 Z" />
  <path
     d="m 27.971882,25.736132 c -0.493254,0.417036 -0.84145,0.565978 -1.276688,0.565978 -0.667378,0 -0.870474,-0.417036 -0.870474,-1.727652 v -5.808474 c 0,-1.548928 -0.14508,-2.412746 -0.580316,-3.127638 -0.638334,-1.07233 -2.387208,-1.638286 -4.099134,-1.638286 -2.72748,0 -4.87465,1.45957 -4.87465,3.336156 0,0.68506 0.551346,1.280834 1.247688,1.280834 0.69635,0 1.305704,-0.595768 1.305704,-1.251052 0,-0.11916 -0.02898,-0.268096 -0.05794,-0.476614 -0.05794,-0.268096 -0.08706,-0.506402 -0.08706,-0.714922 0,-0.804248 0.928506,-1.459564 2.089138,-1.459564 1.421768,0 2.439082,0.86382 2.439082,2.472324 v 2.368474 c -3.99622,1.210872 -5.195584,1.533634 -6.443258,2.66554 -0.638332,0.595694 -1.044576,1.608498 -1.044576,2.59147 0,1.876586 1.276696,3.187216 3.046654,3.187216 1.276688,0 2.700222,-0.625556 4.47018,-2.174456 0.14508,1.57871 0.934664,2.174456 2.124312,2.174456 0.986532,0 1.595864,-0.35746 2.61141,-1.48936 z M 23.207146,24.03826 c 0,0.893614 -0.14508,1.22128 -0.754404,1.57871 -0.725396,0.417038 -1.74271,0.655344 -2.352042,0.655344 -1.015554,0 -1.827988,-1.012752 -1.827988,-2.2936 v -0.11916 c 0.02896,-1.787228 1.53959,-2.36767 4.934434,-3.588936 z m 18.19192,9.968062 c -0.474906,-0.04308 -1.073742,0.12836 -1.796456,0.513534 -0.72272,0.385168 -1.455744,0.962856 -2.199102,1.733142 -0.743358,0.748884 -1.435094,1.658254 -2.07521,2.728088 -0.619466,1.06984 -1.07375,2.257364 -1.36283,3.562564 -0.227164,0.962848 -0.30977,1.797324 -0.247816,2.50342 0.06166,0.684686 0.206438,1.251706 0.433604,1.701034 0.227164,0.427958 0.505882,0.738174 0.83628,0.930764 0.33042,0.214016 0.640116,0.320988 0.929198,0.320988 0.619464,-0.04308 1.238936,-0.18184 1.8584,-0.41726 0.53686,-0.213942 1.104718,-0.545626 1.703532,-0.994948 0.598812,-0.470744 1.14602,-1.134024 1.641592,-1.9899 -0.0208,0.577716 0.0104,1.059144 0.09292,1.444282 0.10326,0.38517 0.206514,0.695386 0.30977,0.930758 0.1239,0.278124 0.278792,0.49214 0.46458,0.641898 0.18586,0.12844 0.402626,0.214016 0.650442,0.256804 0.247816,0.06388 0.505882,0.08558 0.774334,0.06388 0.289044,-0.02154 0.567836,-0.07496 0.836274,-0.16052 0.268466,-0.08558 0.505882,-0.19254 0.712394,-0.320912 0.30977,-0.213942 0.691746,-0.577718 1.146014,-1.091236 0.474906,-0.534928 0.949848,-1.112622 1.424784,-1.733142 0.495556,-0.641898 0.970492,-1.273108 1.424768,-1.893612 0.454254,-0.641898 0.825948,-1.17682 1.115036,-1.604754 0.247816,-0.342306 0.3923,-0.641898 0.433604,-0.898666 0.06166,-0.25673 0.05126,-0.449352 -0.0312,-0.577716 -0.0826,-0.12836 -0.206514,-0.17116 -0.371724,-0.12836 -0.16522,0.02154 -0.330346,0.12836 -0.495556,0.320986 -0.1239,0.17116 -0.330346,0.438654 -0.619466,0.802376 -0.268466,0.363776 -0.578162,0.780984 -0.929204,1.251714 -0.350998,0.470746 -0.733046,0.962856 -1.146012,1.476382 -0.392302,0.49214 -0.774336,0.952152 -1.146014,1.380078 -0.371648,0.406564 -0.72272,0.748892 -1.053098,1.027046 -0.330346,0.256804 -0.598812,0.38517 -0.805304,0.38517 -0.247814,0 -0.443928,-0.05348 -0.588486,-0.16046 -0.1239,-0.12836 -0.21684,-0.288822 -0.278794,-0.481444 -0.06166,-0.19254 -0.10326,-0.395866 -0.1239,-0.609808 0,-0.235334 0.0104,-0.44935 0.0312,-0.641898 0.06166,-0.320912 0.11358,-0.588414 0.15488,-0.802376 0.0416,-0.213942 0.07206,-0.395866 0.09292,-0.545626 0.0416,-0.17116 0.07206,-0.331684 0.09294,-0.481442 0.0416,-0.17116 0.0826,-0.353078 0.1239,-0.545626 0.206514,-0.98425 0.37165,-1.786634 0.495558,-2.407138 0.1239,-0.620506 0.216764,-1.112638 0.278718,-1.476382 0.06166,-0.363776 0.09292,-0.609808 0.09292,-0.738172 0,-0.14976 -0.0104,-0.246034 -0.0312,-0.288822 -0.0416,-0.02154 -0.1239,-0.03194 -0.247814,-0.03194 -0.10326,0 -0.258142,0.0104 -0.46458,0.03194 -0.18586,0.02154 -0.423278,0.06388 -0.712396,0.12836 0.433604,-0.684688 0.598814,-1.230314 0.495556,-1.636854 -0.0826,-0.427958 -0.268466,-0.748892 -0.55751,-0.962862 C 42.410514,34.284318 41.956208,34.11309 41.39869,34.00612 Z m -0.729408,2.00755 c 0.07874,0.0044 0.14612,0.03046 0.202874,0.07866 0.06166,0.08558 0.10326,0.203244 0.1239,0.353076 0.0208,0.12836 0.0104,0.310216 -0.0312,0.545626 -0.0208,0.213942 -0.11358,0.49214 -0.278794,0.834484 0.16522,-0.04308 0.330348,-0.07488 0.495558,-0.09628 0.1652,-0.02154 0.29937,-0.05348 0.402626,-0.09628 0.1239,-0.04308 0.237416,-0.07488 0.340672,-0.09628 0.0826,-0.02154 0.09294,0.14976 0.0312,0.513534 -0.0416,0.34238 -0.11358,0.780982 -0.216838,1.315904 -0.10326,0.534928 -0.227166,1.091242 -0.37165,1.668944 -0.14456,0.577716 -0.268466,1.080538 -0.371648,1.508472 -0.0208,0.10698 -0.11358,0.278124 -0.278794,0.513534 -0.14456,0.235336 -0.340672,0.49214 -0.588488,0.77028 -0.227164,0.278198 -0.495556,0.545624 -0.805304,0.802384 -0.289042,0.25673 -0.588486,0.470746 -0.898226,0.641898 -0.289044,0.14976 -0.578162,0.235336 -0.86725,0.25673 -0.28912,0 -0.547186,-0.11766 -0.774336,-0.353078 -0.1239,-0.12844 -0.206438,-0.395866 -0.247814,-0.802376 -0.0416,-0.427958 -0.0312,-0.920076 0.0312,-1.476382 0.0826,-0.556322 0.21684,-1.144728 0.402626,-1.765234 0.18586,-0.641898 0.433604,-1.241008 0.743366,-1.797324 0.743358,-1.348002 1.393798,-2.268062 1.951316,-2.760186 0.433604,-0.385168 0.768912,-0.57207 1.00508,-0.560036 z m -0.07132,-22.013834 c -2.148194,0 -4.321364,0.561892 -5.795124,1.58795 l 1.39882,2.662874 c 0.974176,-0.757332 2.447936,-1.221502 3.87174,-1.221502 2.098238,0 3.271982,1.5601 3.271982,3.19691 l -3.878254,-0.0178 c -4.096504,-0.0186 -5.769884,1.552606 -5.769884,3.873464 0,2.27199 1.709646,3.91801 4.857,3.91801 1.973336,0 4.066752,-0.571104 4.791138,-1.768174 l 2.38e-4,1.618788 4.135756,-7.58e-4 -4.68e-4,-7.888914 C 47.481058,15.978774 44.694922,14 40.598366,14 Z m -0.90576,11.498834 c -1.373846,0 -2.198152,-0.635214 -2.198152,-1.587958 0,-0.87947 0.5743,-1.286874 2.39772,-1.275434 l 3.45361,0.0178 2.38e-4,0.758214 c 2.3e-4,1.275284 -2.354538,2.087326 -3.653444,2.087326 z M 17.31637,34.00006 c -1.577632,-0.02228 -1.577632,2.350482 0,2.328218 h 5.763548 c 0.0064,5.8e-4 0.16662,0.0194 0.341786,0.11484 0.17866,0.09776 0.283398,0.10964 0.313334,0.546814 v -0.0112 l 0.14352,3.489296 c -0.26869,-0.10274 -0.448906,-0.14664 -0.448906,-0.14664 l -0.13788,-0.03418 H 17.89963 c -2.52766,0 -3.43945,2.541944 -3.43945,2.541944 L 14.4,43.008772 v 0.886342 c 0,1.765566 0.834876,2.98461 1.7146,3.533258 0.879716,0.54867 1.78523,0.541094 1.78523,0.541094 h 4.428328 l 1.978908,-1.282342 0.0112,0.18646 c 0.052,1.592126 2.463402,1.450872 2.328656,-0.13638 l -0.58333,-9.900556 v -0.0058 c -0.08216,-1.202136 -0.85264,-2.063866 -1.520924,-2.429402 -0.66827,-0.365558 -1.316988,-0.39906 -1.316988,-0.39906 l -0.03862,-0.0022 z m 0.583288,8.615244 h 5.042394 c 0.0624,0.0178 0.306352,0.08224 0.604978,0.2808 0.325816,0.216614 0.512048,0.401288 0.52178,0.788952 l 0.0809,0.327004 -2.512088,1.629068 h -3.73793 c 0,0 -0.261112,-0.0074 -0.548002,-0.18646 -0.28689,-0.17888 -0.618648,-0.415032 -0.618648,-1.559722 v -0.444152 c 0.06018,-0.17754 0.311924,-0.835568 1.166612,-0.835568 z"
     style="fill:#ffffff;stroke-width:1.98452"
     id="path513" />
</svg>
