<?xml version="1.0" encoding="UTF-8" standalone="no"?>
<!-- Created with Inkscape (http://www.inkscape.org/) -->

<svg
   width="64"
   height="64"
   viewBox="0 0 64 64"
   version="1.1"
   id="svg5"
   inkscape:version="1.2.1 (9c6d41e410, 2022-07-14)"
   sodipodi:docname="qt.svg"
   xmlns:inkscape="http://www.inkscape.org/namespaces/inkscape"
   xmlns:sodipodi="http://sodipodi.sourceforge.net/DTD/sodipodi-0.dtd"
   xmlns:xlink="http://www.w3.org/1999/xlink"
   xmlns="http://www.w3.org/2000/svg"
   xmlns:svg="http://www.w3.org/2000/svg">
  <sodipodi:namedview
     id="namedview7"
     pagecolor="#ffffff"
     bordercolor="#000000"
     borderopacity="0.25"
     inkscape:showpageshadow="2"
     inkscape:pageopacity="0.0"
     inkscape:pagecheckerboard="0"
     inkscape:deskcolor="#d1d1d1"
     inkscape:document-units="px"
     showgrid="false"
     inkscape:zoom="12.53125"
     inkscape:cx="31.9601"
     inkscape:cy="32"
     inkscape:window-width="1920"
     inkscape:window-height="1008"
     inkscape:window-x="0"
     inkscape:window-y="0"
     inkscape:window-maximized="1"
     inkscape:current-layer="svg5" />
  <defs
     id="defs2">
    <linearGradient
       inkscape:collect="always"
       id="linearGradient3017">
      <stop
         style="stop-color:#26bc25;stop-opacity:1;"
         offset="0"
         id="stop3013" />
      <stop
         style="stop-color:#65df47;stop-opacity:1;"
         offset="1"
         id="stop3015" />
    </linearGradient>
    <linearGradient
       inkscape:collect="always"
       xlink:href="#linearGradient3017"
       id="linearGradient4780"
       x1="2"
       y1="2"
       x2="30"
       y2="30"
       gradientUnits="userSpaceOnUse"
       gradientTransform="scale(2)" />
  </defs>
  <path
     d="M 26,5 C 7.797619,5 4,8.879634 4,27 V 39 C 4,57.120366 7.797619,61 26,61 H 38 C 56.20238,61 60,57.120366 60,39 V 27 C 60,8.879634 56.20238,5 38,5"
     style="opacity:0.2;fill:#000000;stroke-width:2;stroke-linecap:round;stroke-linejoin:round"
     id="path563" />
  <path
     id="path530"
     style="fill:url(#linearGradient4780);fill-opacity:1;stroke-width:2;stroke-linecap:round;stroke-linejoin:round"
     d="M 26,4 C 7.7976372,4 4,7.8796522 4,26 V 38 C 4,56.120348 7.7976372,60 26,60 H 38 C 56.202364,60 60,56.120348 60,38 V 26 C 60,7.8796522 56.202364,4 38,4 Z" />
  <path
     style="fill:#ffffff;stroke-width:2"
     d="m 40,18 v 6 h -4 v 4 h 4 v 8.234376 C 40,41.881434 41.998402,44 45.585938,44 H 50 V 40 H 46.03125 C 44.101676,40 44,38.65947 44,35.835938 V 28 h 6 V 24 H 44 V 18 Z M 24.050782,18.04296 C 16.109896,18.042962 14,22.529404 14,30.999992 14,39.47058 16.072782,44.05468 24.050782,44.05468 h 2.265624 l 3.300782,5.64453 3.824218,-1.410156 -3.117188,-5.648438 C 33.292774,41.228852 34,36.64705 34,30.999992 34,22.529404 31.991668,18.042962 24.050782,18.04296 Z m -0.03516,3.957032 c 4.844012,0 5.984388,3.51398 5.984376,9.308594 0,5.794612 -1.10366,8.691406 -5.984376,8.691406 -4.880712,0 -6.015624,-2.896794 -6.015624,-8.691406 0,-5.794614 1.171618,-9.308594 6.015624,-9.308594 z"
     id="path4867" />
</svg>
