<?xml version="1.0" encoding="UTF-8" standalone="no"?>
<!-- Created with Inkscape (http://www.inkscape.org/) -->

<svg
   width="64"
   height="64"
   viewBox="0 0 64 64"
   version="1.1"
   id="svg5"
   inkscape:version="1.2.1 (9c6d41e410, 2022-07-14)"
   sodipodi:docname="redshift.svg"
   xmlns:inkscape="http://www.inkscape.org/namespaces/inkscape"
   xmlns:sodipodi="http://sodipodi.sourceforge.net/DTD/sodipodi-0.dtd"
   xmlns:xlink="http://www.w3.org/1999/xlink"
   xmlns="http://www.w3.org/2000/svg"
   xmlns:svg="http://www.w3.org/2000/svg">
  <sodipodi:namedview
     id="namedview7"
     pagecolor="#ffffff"
     bordercolor="#000000"
     borderopacity="0.25"
     inkscape:showpageshadow="2"
     inkscape:pageopacity="0.0"
     inkscape:pagecheckerboard="0"
     inkscape:deskcolor="#d1d1d1"
     inkscape:document-units="px"
     showgrid="false"
     inkscape:zoom="12.625"
     inkscape:cx="32"
     inkscape:cy="32"
     inkscape:window-width="1920"
     inkscape:window-height="1011"
     inkscape:window-x="0"
     inkscape:window-y="32"
     inkscape:window-maximized="1"
     inkscape:current-layer="svg5" />
  <defs
     id="defs2">
    <linearGradient
       inkscape:collect="always"
       id="linearGradient1083">
      <stop
         style="stop-color:#a64242;stop-opacity:1;"
         offset="0"
         id="stop1079" />
      <stop
         style="stop-color:#d77777;stop-opacity:1;"
         offset="1"
         id="stop1081" />
    </linearGradient>
    <linearGradient
       inkscape:collect="always"
       xlink:href="#linearGradient1083"
       id="linearGradient1093"
       x1="2"
       y1="2"
       x2="30"
       y2="30"
       gradientUnits="userSpaceOnUse"
       gradientTransform="scale(2)" />
  </defs>
  <path
     id="path563"
     style="opacity:0.2;fill:#000000;stroke-width:2;stroke-linecap:round;stroke-linejoin:round"
     d="M 26,5 C 7.7976372,5 4,8.8796521 4,27 V 39 C 4,57.120348 7.7976372,61 26,61 H 38 C 56.202363,61 60,57.120348 60,39 V 27 C 60,8.8796521 56.202363,5 38,5 Z" />
  <path
     id="path530"
     style="fill:url(#linearGradient1093);fill-opacity:1;stroke-width:2;stroke-linecap:round;stroke-linejoin:round"
     d="M 26,4 C 7.7976372,4 4,7.8796521 4,26 V 38 C 4,56.120348 7.7976372,60 26,60 H 38 C 56.202364,60 60,56.120348 60,38 V 26 C 60,7.8796521 56.202364,4 38,4 Z" />
  <path
     id="path788"
     style="opacity:0.5;fill:#ffffff;stroke-width:3;stroke-linecap:square;stroke-linejoin:round"
     d="m 32,11 c -8.284256,0 -15,6.715746 -15,15 0,9.627439 9,12.561346 9,19.000001 H 38 C 38,38.30009 47,35.627439 47,26 47,17.715746 40.284254,11 32,11 Z"
     sodipodi:nodetypes="ssccss" />
  <path
     id="rect1006"
     style="fill:#ffffff;stroke-width:2.44949;stroke-linecap:square;stroke-linejoin:round"
     d="M 26,45.000001 V 47 c 0,1.661997 1.338003,3 2.999999,3 0,1.656855 1.343147,3.000001 3.000002,3 1.656854,0 3,-1.343145 3,-3 C 36.661997,50.000001 38,48.661998 38,47 v -1.999999 z"
     sodipodi:nodetypes="cscscscc" />
</svg>
