<?xml version="1.0" encoding="UTF-8" standalone="no"?>
<!-- Created with Inkscape (http://www.inkscape.org/) -->

<svg
   width="64"
   height="64"
   viewBox="0 0 64 64"
   version="1.1"
   id="svg5"
   inkscape:version="1.2.1 (9c6d41e410, 2022-07-14)"
   sodipodi:docname="skanlite.svg"
   xmlns:inkscape="http://www.inkscape.org/namespaces/inkscape"
   xmlns:sodipodi="http://sodipodi.sourceforge.net/DTD/sodipodi-0.dtd"
   xmlns:xlink="http://www.w3.org/1999/xlink"
   xmlns="http://www.w3.org/2000/svg"
   xmlns:svg="http://www.w3.org/2000/svg">
  <sodipodi:namedview
     id="namedview7"
     pagecolor="#ffffff"
     bordercolor="#000000"
     borderopacity="0.25"
     inkscape:showpageshadow="2"
     inkscape:pageopacity="0.0"
     inkscape:pagecheckerboard="0"
     inkscape:deskcolor="#d1d1d1"
     inkscape:document-units="px"
     showgrid="false"
     inkscape:zoom="12.375"
     inkscape:cx="32"
     inkscape:cy="32"
     inkscape:window-width="1920"
     inkscape:window-height="1004"
     inkscape:window-x="0"
     inkscape:window-y="0"
     inkscape:window-maximized="1"
     inkscape:current-layer="svg5" />
  <defs
     id="defs2">
    <linearGradient
       inkscape:collect="always"
       xlink:href="#linearGradient14932"
       id="linearGradient7699"
       x1="32"
       y1="60"
       x2="32"
       y2="4"
       gradientUnits="userSpaceOnUse" />
    <linearGradient
       inkscape:collect="always"
       xlink:href="#linearGradient1198"
       id="linearGradient1200"
       x1="59.5"
       y1="21"
       x2="59.5"
       y2="41"
       gradientUnits="userSpaceOnUse"
       gradientTransform="matrix(1.0181818,0,0,1,-0.58181806,7.9999998)" />
    <linearGradient
       inkscape:collect="always"
       id="linearGradient1198">
      <stop
         style="stop-color:#46d0ff;stop-opacity:0;"
         offset="0"
         id="stop1194" />
      <stop
         style="stop-color:#46d0ff;stop-opacity:0.2;"
         offset="0.24890241"
         id="stop11380" />
      <stop
         style="stop-color:#46d0ff;stop-opacity:0.80000001;"
         offset="0.5"
         id="stop11378" />
      <stop
         style="stop-color:#46d0ff;stop-opacity:0.2;"
         offset="0.80387253"
         id="stop11382" />
      <stop
         style="stop-color:#46d0ff;stop-opacity:0;"
         offset="1"
         id="stop1196" />
    </linearGradient>
    <linearGradient
       inkscape:collect="always"
       id="linearGradient14932">
      <stop
         style="stop-color:#333333;stop-opacity:1"
         offset="0"
         id="stop14928" />
      <stop
         style="stop-color:#4a636b;stop-opacity:1"
         offset="1"
         id="stop14930" />
    </linearGradient>
  </defs>
  <path
     id="path563"
     style="opacity:0.2;fill:#000000;stroke-width:2;stroke-linecap:round;stroke-linejoin:round"
     d="M 26,5 C 7.797637,5 4,8.879652 4,27 V 39 C 4,57.120345 7.797637,61 26,61 H 38 C 56.20236,61 60,57.120345 60,39 V 27 C 60,8.879652 56.20236,5 38,5 Z" />
  <path
     id="path530"
     style="fill:url(#linearGradient7699);stroke-width:2;stroke-linecap:round;stroke-linejoin:round;fill-opacity:1.0"
     d="M 26,4 C 7.797637,4 4,7.879652 4,26 V 38 C 4,56.120345 7.797637,60 26,60 H 38 C 56.20236,60 60,56.120345 60,38 V 26 C 60,7.879652 56.20236,4 38,4 Z" />
  <path
     id="rect985"
     style="fill:url(#linearGradient1200);fill-opacity:1;stroke-width:1.42702;stroke-linecap:round;stroke-linejoin:round"
     d="M 4 29 L 4 38 C 4 42.488905 4.2339573 46.101449 4.8613281 49 L 59.138672 49 C 59.766043 46.101449 60 42.488905 60 38 L 60 29 L 4 29 z " />
  <path
     id="rect429"
     style="fill:#dbf6ff;fill-opacity:1;stroke-width:1.00905;stroke-linecap:round;stroke-linejoin:round"
     d="M 4 38 C 4 38.700727 4.0173253 39.341266 4.0292969 40 L 59.970703 40 C 59.982675 39.341266 60 38.700727 60 38 L 4 38 z " />
</svg>
