<?xml version="1.0" encoding="UTF-8" standalone="no"?>
<!-- Created with Inkscape (http://www.inkscape.org/) -->

<svg
   width="64"
   height="64"
   viewBox="0 0 64 64"
   version="1.1"
   id="svg5"
   inkscape:version="1.2.1 (9c6d41e410, 2022-07-14)"
   sodipodi:docname="stardew-valley.svg"
   xmlns:inkscape="http://www.inkscape.org/namespaces/inkscape"
   xmlns:sodipodi="http://sodipodi.sourceforge.net/DTD/sodipodi-0.dtd"
   xmlns:xlink="http://www.w3.org/1999/xlink"
   xmlns="http://www.w3.org/2000/svg"
   xmlns:svg="http://www.w3.org/2000/svg">
  <sodipodi:namedview
     id="namedview7"
     pagecolor="#ffffff"
     bordercolor="#000000"
     borderopacity="0.25"
     inkscape:showpageshadow="2"
     inkscape:pageopacity="0.0"
     inkscape:pagecheckerboard="0"
     inkscape:deskcolor="#d1d1d1"
     inkscape:document-units="px"
     showgrid="false"
     inkscape:zoom="12.625"
     inkscape:cx="30.336634"
     inkscape:cy="32.079208"
     inkscape:window-width="1920"
     inkscape:window-height="1011"
     inkscape:window-x="0"
     inkscape:window-y="32"
     inkscape:window-maximized="1"
     inkscape:current-layer="svg5" />
  <defs
     id="defs2">
    <linearGradient
       inkscape:collect="always"
       id="linearGradient7115">
      <stop
         style="stop-color:#160c4c;stop-opacity:1;"
         offset="0"
         id="stop7111" />
      <stop
         style="stop-color:#02519e;stop-opacity:1;"
         offset="0.40000001"
         id="stop8765" />
      <stop
         style="stop-color:#0578e3;stop-opacity:1;"
         offset="0.75"
         id="stop8767" />
      <stop
         style="stop-color:#55d0ee;stop-opacity:1;"
         offset="1"
         id="stop7113" />
    </linearGradient>
    <linearGradient
       inkscape:collect="always"
       xlink:href="#linearGradient7115"
       id="linearGradient7117"
       x1="32"
       y1="4"
       x2="32"
       y2="60"
       gradientUnits="userSpaceOnUse" />
    <radialGradient
       inkscape:collect="always"
       xlink:href="#linearGradient113843"
       id="radialGradient113845"
       cx="-11.406412"
       cy="1.633051"
       fx="-11.406412"
       fy="1.633051"
       r="0.46302083"
       gradientUnits="userSpaceOnUse"
       gradientTransform="matrix(4.3180634,-3.1369302e-7,-1.6211347e-6,4.3194581,60.411075,2.9027971)" />
    <linearGradient
       inkscape:collect="always"
       id="linearGradient113843">
      <stop
         style="stop-color:#f9fafb;stop-opacity:1;"
         offset="0"
         id="stop113839" />
      <stop
         style="stop-color:#f9fafb;stop-opacity:0;"
         offset="1"
         id="stop113841" />
    </linearGradient>
    <radialGradient
       inkscape:collect="always"
       xlink:href="#linearGradient113843"
       id="radialGradient113845-2"
       cx="-11.406412"
       cy="1.633051"
       fx="-11.406412"
       fy="1.633051"
       r="0.46302083"
       gradientUnits="userSpaceOnUse"
       gradientTransform="matrix(4.3180634,-3.1369302e-7,-1.6211347e-6,4.3194581,105.63108,20.602798)" />
  </defs>
  <path
     id="path563"
     style="opacity:0.2;fill:#000000;stroke-width:2;stroke-linecap:round;stroke-linejoin:round"
     d="M 26,5 C 7.797637,5 4,8.879652 4,27 V 39 C 4,57.120345 7.797637,61 26,61 H 38 C 56.20236,61 60,57.120345 60,39 V 27 C 60,8.879652 56.20236,5 38,5 Z" />
  <path
     id="path530"
     style="fill:url(#linearGradient7117);stroke-width:2;stroke-linecap:round;stroke-linejoin:round;fill-opacity:1"
     d="M 26,4 C 7.797637,4 4,7.879652 4,26 V 38 C 4,56.120345 7.797637,60 26,60 H 38 C 56.20236,60 60,56.120345 60,38 V 26 C 60,7.879652 56.20236,4 38,4 Z" />
  <path
     id="rect103835"
     style="fill:#f9fafb;fill-opacity:1;stroke-width:3.40168;stroke-linecap:round;stroke-linejoin:round"
     d="m 48.301136,10.199219 v 0.5 h 0.499998 v -0.5 z m -32,7.800782 v 0.5 h 0.499997 v -0.5 z"
     sodipodi:nodetypes="cccccccccc" />
  <path
     id="rect110957"
     style="opacity:0.3;fill:#f9fafb;fill-opacity:1;stroke-width:9;stroke-linecap:round;stroke-linejoin:round"
     d="m 55.699573,16.09961 v 0.5 h 0.500001 v -0.5 z m -5.000002,5.900391 v 0.5 h 0.500002 v -0.5 z M 13.301136,52.000004 v 0.499997 h 0.499997 v -0.499997 z m 18.298828,1.999997 v 0.500002 h 0.499998 v -0.500002 z"
     sodipodi:nodetypes="cccccccccccccccccccc" />
  <g
     id="g113500"
     transform="matrix(3.7795276,0,0,3.7795276,55.138827,4.1997075)">
    <rect
       style="opacity:0.3;fill:#f9fafb;fill-opacity:1;stroke-width:2.38125;stroke-linecap:round;stroke-linejoin:round"
       id="rect113653"
       width="0.39687499"
       height="0.39687499"
       x="-11.842221"
       y="1.3229166" />
    <path
       id="rect111635"
       style="opacity:0.2;fill:#f9fafb;fill-opacity:1;stroke-width:2.38125;stroke-linecap:round;stroke-linejoin:round"
       d="m -11.710051,1.0583333 v 0.396875 h -0.396875 v 0.1322916 h 0.396875 v 0.396875 h 0.132291 v -0.396875 h 0.396875 V 1.4552083 h -0.396875 v -0.396875 z" />
    <path
       id="rect112153"
       style="opacity:0.2;fill:#f9fafb;fill-opacity:1;stroke-width:14.2303;stroke-linecap:round;stroke-linejoin:round"
       d="m -44.257812,4.5 v 1 h -1 V 6 h 1 v 1 h 0.5 V 6 h 1 V 5.5 h -1 v -1 z"
       transform="scale(0.26458334)" />
    <rect
       style="opacity:1;fill:#f9fafb;fill-opacity:1;stroke-width:2.38125;stroke-linecap:round;stroke-linejoin:round"
       id="rect111777"
       width="0.13229167"
       height="0.13229167"
       x="-11.710051"
       y="1.4552083" />
    <path
       id="rect112031"
       style="opacity:0.3;fill:#f9fafb;stroke-width:2.38125;stroke-linecap:round;stroke-linejoin:round"
       d="m -11.710051,1.3229166 h 0.132293 l -2e-6,0.1322917 h 0.132414 V 1.5875 l -0.132414,-10e-8 v 0.1322918 h -0.132293 l 2e-6,-0.1322918 -0.13217,10e-8 V 1.4552083 h 0.13217 z"
       sodipodi:nodetypes="ccccccccccccc" />
  </g>
  <g
     id="g113383"
     transform="matrix(3.7795276,0,0,3.7795276,60.000354,4.0000003)">
    <path
       id="rect112153-7"
       style="opacity:0.2;fill:#f9fafb;fill-opacity:1;stroke-width:3.7651;stroke-linecap:round;stroke-linejoin:round"
       d="m -14.022745,10.212917 v 0.264584 h -0.264584 v 0.132291 h 0.264584 v 0.264584 h 0.132291 v -0.264584 h 0.264584 v -0.132291 h -0.264584 v -0.264584 z" />
    <rect
       style="fill:#f9fafb;fill-opacity:1;stroke-width:2.38125;stroke-linecap:round;stroke-linejoin:round"
       id="rect111777-9"
       width="0.13229167"
       height="0.13229167"
       x="-14.022917"
       y="10.4775" />
    <path
       id="rect112031-2"
       style="opacity:0.3;fill:#f9fafb;stroke-width:2.38125;stroke-linecap:round;stroke-linejoin:round"
       d="m -14.022917,10.345209 h 0.132293 l -2e-6,0.132292 h 0.132414 v 0.132291 h -0.132414 v 0.132292 h -0.132293 l 2e-6,-0.132292 h -0.13217 v -0.132291 h 0.13217 z"
       sodipodi:nodetypes="ccccccccccccc" />
  </g>
  <g
     id="g113378"
     transform="matrix(3.7795276,0,0,3.7795276,59.999723,4.0200201)">
    <rect
       style="opacity:0.3;fill:#f9fafb;fill-opacity:1;stroke-width:2.38125;stroke-linecap:round;stroke-linejoin:round"
       id="rect113273"
       width="0.397046"
       height="0.39687502"
       x="-3.2278254"
       y="13.488453" />
    <path
       id="rect111635-0"
       style="opacity:0.2;fill:#f9fafb;fill-opacity:1;stroke-width:2.38125;stroke-linecap:round;stroke-linejoin:round"
       d="m -3.0954579,13.22387 v 0.396875 h -0.396875 v 0.132291 h 0.396875 v 0.396875 h 0.132291 v -0.396875 h 0.396875 v -0.132291 h -0.396875 V 13.22387 Z" />
    <path
       id="rect112153-2"
       style="opacity:0.2;fill:#f9fafb;fill-opacity:1;stroke-width:3.7651;stroke-linecap:round;stroke-linejoin:round"
       d="m -3.0952869,13.356161 v 0.264584 h -0.264583 v 0.132291 h 0.264583 v 0.264584 h 0.132292 v -0.264584 h 0.264583 v -0.132291 h -0.264583 v -0.264584 z" />
    <rect
       style="fill:#f9fafb;fill-opacity:1;stroke-width:2.38125;stroke-linecap:round;stroke-linejoin:round"
       id="rect111777-3"
       width="0.13229167"
       height="0.13229167"
       x="-3.0954573"
       y="13.620745" />
    <path
       id="rect112031-7"
       style="opacity:0.3;fill:#f9fafb;stroke-width:2.38125;stroke-linecap:round;stroke-linejoin:round"
       d="m -3.0954579,13.488453 h 0.132293 l -2e-6,0.132292 h 0.132414 v 0.132291 h -0.132414 v 0.132292 h -0.132293 l 2e-6,-0.132292 h -0.13217 v -0.132291 h 0.13217 z"
       sodipodi:nodetypes="ccccccccccccc" />
  </g>
  <rect
     style="opacity:0.3;fill:url(#radialGradient113845);fill-opacity:1;stroke-width:11.5714;stroke-linecap:round;stroke-linejoin:round"
     id="rect113757"
     width="4.5000005"
     height="4.5000005"
     x="8.8803482"
     y="7.6999998" />
  <rect
     style="opacity:0.3;fill:url(#radialGradient113845-2);fill-opacity:1;stroke-width:11.5714;stroke-linecap:round;stroke-linejoin:round"
     id="rect113757-1"
     width="4.5000005"
     height="4.5000005"
     x="54.100353"
     y="25.400002" />
  <g
     id="g113494"
     transform="matrix(3.7795276,0,0,3.7795276,60.099525,3.9000004)">
    <path
       id="rect112153-9"
       style="opacity:0.2;fill:#f9fafb;fill-opacity:1;stroke-width:3.7651;stroke-linecap:round;stroke-linejoin:round"
       d="m -1.0581144,5.9531251 v 0.2645834 h -0.2645834 v 0.1322916 h 0.2645834 v 0.2645834 h 0.13229163 V 6.3500001 h 0.26458334 V 6.2177085 H -0.92582277 V 5.9531251 Z" />
    <rect
       style="fill:#f9fafb;fill-opacity:1;stroke-width:2.38125;stroke-linecap:round;stroke-linejoin:round"
       id="rect111777-2"
       width="0.13229167"
       height="0.13229167"
       x="-1.0582852"
       y="6.2177086" />
    <path
       id="rect112031-28"
       style="opacity:0.3;fill:#f9fafb;stroke-width:2.38125;stroke-linecap:round;stroke-linejoin:round"
       d="m -1.0582857,6.0854167 h 0.13229298 l -2e-6,0.1322917 h 0.132414 v 0.1322917 l -0.132414,-1e-7 V 6.4822918 H -1.0582877 l 2e-6,-0.1322918 -0.13217,1e-7 V 6.2177084 h 0.13217 z"
       sodipodi:nodetypes="ccccccccccccc" />
  </g>
  <g
     id="g5443"
     transform="matrix(1.2500001,0,0,1.2500001,-8.0000019,-8.0000026)">
    <path
       id="rect4039"
       style="fill:#ffe2ac;fill-opacity:1;stroke-width:3.99999;stroke-linecap:round;stroke-linejoin:round"
       d="m 24.999998,21.999999 v 6 L 27.999999,28 25.978124,30 24,32 20.4,33.999999 v 6.8 l 3.6,1.2 1.999999,2 h 10 l 3.999999,-2 2,-2 v -2 L 40.999994,35 l -2,2 -1.936887,-0.03203 -1.063108,-0.967968 -4,-2 -2.000001,-1 4,-1 1,-2 -10e-7,-3.000003 -2.999999,3e-6 L 29.999999,30 v -6 h -2 v -2 l -1.000001,-2.000001 z m 7.818288,11 1.181713,1 2,2 h 1.999999 l 4,-3.999999 v 5.999999 l -4e-6,1.999998 2.000004,-1.999998 V 32 30 l 2,-2 v -2 h -6 z"
       sodipodi:nodetypes="ccccccccccccccccccccccccccccccccccccccccccc" />
    <path
       id="rect1106"
       style="fill:#cd0000;fill-opacity:1;stroke-width:3.99999;stroke-linecap:round;stroke-linejoin:round"
       d="m 25.999998,20 2,-2.000001 h 6 v 2 l -4,2.000001 h -4 z"
       sodipodi:nodetypes="ccccccc" />
    <path
       id="rect2738"
       style="fill:#e2a052;fill-opacity:1;stroke-width:3.99999;stroke-linecap:round;stroke-linejoin:round"
       d="m 23.999998,21.999999 -3,3 0.01983,3.879903 h 4 l -0.01983,-4.879903 h 1 v -2 z m 4,0 v 2 h 3 v 3.999998 h 4 v -2.999998 l -3,-3 z m 10,4 v 1.999998 h 2 v -1.999998 z m 0,1.999998 h -2 v 2.000002 h 2 z m -2,2.000002 h -2 V 32 h 2 z m -2,2.000001 h -4 v 1.999997 l 2.000001,2e-6 L 31.999998,36 h 2 z m -8,-4.000003 v 2.000002 h 2 v -2.000002 z m 16,0 v 2.000002 h 4 V 27.999997 Z M 23.978514,29.999999 V 32 h -3.978516 l -3,3 v 4 l 2,2 3,-1.000003 V 38 h 2 v -2 h -2 v -2.000003 h 2 V 32 h 1.978516 V 29.999999 Z M 23.999994,38 v 1.999997 h 2 l 5e-6,-1.999999 h 1.999999 l -4e-6,1.999999 h 2 V 38 l -1.999996,-2e-6 L 27.999994,36 h -2 l 5e-6,1.999998 z m 0,1.999997 h -2 V 42 h 2 z m 0,2.000003 v 2 h 2 v -2 z m 16,-10 4e-6,1.999997 H 37.999994 V 36 l 2,2 h 2 v -2 l -1,-1 1,-1.000003 V 32 Z m 4,0 v 4 h 2 v -4 z m -4,7.999997 V 42 h 3.000004 v -2.000003 z m 0,2.000003 h -4 l 4e-6,2.999999 h 4 z m -12,0 v 2 h 2 v -2 z m 4,0 v 2 h 2 v -2 z"
       sodipodi:nodetypes="cccccccccccccccccccccccccccccccccccccccccccccccccccccccccccccccccccccccccccccccccccccccccccccccccccccccccccccccccccccccccccc" />
    <path
       id="rect2265"
       style="fill:#ffde00;fill-opacity:1;stroke-width:3.99999;stroke-linecap:round;stroke-linejoin:round"
       d="m 19.999998,27.999997 v 2.000002 h 6 v -2.000002 z m 2,18 V 48 h 4 v -2.000003 z m 10,0 V 48 h 4 v -2.000003 z" />
    <path
       d="M 25.999998,45.999997 V 48 h 2 v -2.000003 z m 4,0 V 48 h 2 v -2.000003 z"
       style="fill:#e9922c;fill-opacity:1;stroke-width:3.99999;stroke-linecap:round;stroke-linejoin:round"
       id="path4304" />
    <path
       id="rect632"
       style="fill:#703404;fill-opacity:1;stroke-width:3.99999;stroke-linecap:round;stroke-linejoin:round"
       d="m 27.999998,15.999999 v 2 h 6 v 2 h 2 v -4 z m 6,4 h -4 v 2 h 2 v 2 h 2 z m 0,4 v 6 h 2 v -2.000002 h 2 v -1.999998 h -2 v -2 z m 4,2 h 8 v -2 h -8 z m 8,0 v 4 h 2 v -4 z m 0,4 h -2 V 32 h 2 z m 0,2.000001 v 4 h 2 v -4 z m 0,4 h -2 v 3.999997 h 2 z m -2,3.999997 h -2 V 44 h 2 z m -2,4.000003 h -4 v 1.999997 h 4 z m -4,1.999997 h -2 V 48 h 2 z m -2,0 V 44 h -4 v 1.999997 z m -4,-21.999998 h -2 v 6 h 2 z m -4,-6 h -2 v 2 h 2 z m -2,2 h -2 v 2 h 2 z m -2,2 h -2 v 2 h 2 z m 0,2 v 3.999998 h 2 v -3.999998 z m -2,0 h -2 v 3.999998 h 2 z m -2,3.999998 h -2 v 2.000002 h 2 z m 0,2.000002 V 32 h 2 v -2.000001 z m 0,2.000001 h -2 v 1.999997 h 2 z m -2,1.999997 H 16 v 6 h 1.999998 z m 0,6 V 42 h 2 v -2.000003 z m 2,2.000003 v 2 h 2 v -2 z m 2,2 v 1.999997 h 4 V 44 Z m 0,1.999997 h -2 V 48 h 2 z m 12,-12 V 36 h 2 v -2.000003 z m 2,2.000003 v 2 h 4 v -2 z m 4,0 h 2 v -2.000003 h -2 z m -12,9.999997 V 48 h 2 v -2.000003 z" />
    <path
       id="rect3409"
       style="fill:#9f4b00;fill-opacity:1;stroke-width:3.99999;stroke-linecap:round;stroke-linejoin:round"
       d="M 21.999998,29.999999 V 32 h 2 v -2.000001 z m 20,8.000001 v 1.999997 h 2 V 38 Z m -22,1.999997 V 42 h 2 v -2.000003 z m 2,2.000003 v 2 h 2 v -2 z m 18,0 v 2 h 2 v -2 z m -14,2 v 1.999997 h 6 V 44 Z m 10,0 v 1.999997 h 2 V 44 Z" />
  </g>
</svg>
