<?xml version="1.0" encoding="UTF-8" standalone="no"?>
<!-- Created with Inkscape (http://www.inkscape.org/) -->

<svg
   width="64"
   height="64"
   viewBox="0 0 64 64"
   version="1.1"
   id="svg5"
   inkscape:version="1.3.2 (091e20ef0f, 2023-11-25, custom)"
   sodipodi:docname="vmware-player.svg"
   xmlns:inkscape="http://www.inkscape.org/namespaces/inkscape"
   xmlns:sodipodi="http://sodipodi.sourceforge.net/DTD/sodipodi-0.dtd"
   xmlns:xlink="http://www.w3.org/1999/xlink"
   xmlns="http://www.w3.org/2000/svg"
   xmlns:svg="http://www.w3.org/2000/svg">
  <sodipodi:namedview
     id="namedview7"
     pagecolor="#ffffff"
     bordercolor="#000000"
     borderopacity="0.25"
     inkscape:showpageshadow="2"
     inkscape:pageopacity="0.0"
     inkscape:pagecheckerboard="0"
     inkscape:deskcolor="#d1d1d1"
     inkscape:document-units="px"
     showgrid="false"
     inkscape:zoom="12.59375"
     inkscape:cx="31.960298"
     inkscape:cy="32"
     inkscape:window-width="1920"
     inkscape:window-height="1019"
     inkscape:window-x="0"
     inkscape:window-y="0"
     inkscape:window-maximized="1"
     inkscape:current-layer="svg5"
     showguides="true" />
  <defs
     id="defs2">
    <linearGradient
       inkscape:collect="always"
       id="linearGradient1606">
      <stop
         style="stop-color:#eaebed;stop-opacity:1;"
         offset="0"
         id="stop1602" />
      <stop
         style="stop-color:#f9fafa;stop-opacity:1;"
         offset="1"
         id="stop1604" />
    </linearGradient>
    <linearGradient
       inkscape:collect="always"
       xlink:href="#linearGradient1606"
       id="linearGradient3500"
       x1="2"
       y1="2"
       x2="30"
       y2="30"
       gradientUnits="userSpaceOnUse"
       gradientTransform="scale(2)" />
  </defs>
  <path
     d="M 26,5 C 7.797619,5 4,8.879634 4,27 V 39 C 4,57.120366 7.797619,61 26,61 H 38 C 56.20238,61 60,57.120366 60,39 V 27 C 60,8.879634 56.20238,5 38,5"
     style="opacity:0.2;fill:#000000;stroke-width:2;stroke-linecap:round;stroke-linejoin:round"
     id="path563" />
  <path
     id="path530"
     style="fill:url(#linearGradient3500);fill-opacity:1;stroke-width:2;stroke-linecap:round;stroke-linejoin:round"
     d="M 26,4 C 7.7976372,4 4,7.8796522 4,26 V 38 C 4,56.120348 7.7976372,60 26,60 H 38 C 56.202364,60 60,56.120348 60,38 V 26 C 60,7.8796522 56.202364,4 38,4 Z" />
  <path
     id="path3"
     d="M 14.855469,12 C 13.27261,12 12,13.27255 12,14.855469 v 12.859375 c 0,1.582858 1.27255,2.855468 2.855469,2.855468 1.582859,0 2.859375,-1.27255 2.859375,-2.855468 V 21.730468 L 22,26.019532 v 4.55078 h 5.714844 v -1.42578 c 0,-0.79144 0.638248,-1.429688 1.429688,-1.429688 h 1.42578 V 22 h -4.55078 l -4.289064,-4.285156 h 5.984376 c 1.582858,0 2.855468,-1.27255 2.855468,-2.855469 C 30.570312,13.276517 29.297762,12 27.714844,12 Z m 21.429687,0 c -1.582858,0 -2.855468,1.27255 -2.855468,2.855469 0,1.582859 1.27255,2.859375 2.855468,2.859375 h 5.980468 L 37.980468,22 h -4.55078 v 5.714844 h 1.42578 c 0.79144,0 1.429688,0.638248 1.429688,1.429688 v 1.42578 H 42 v -4.55078 l 4.285156,-4.289064 v 5.984376 c 0,1.582858 1.27255,2.855468 2.855468,2.855468 1.58286,0 2.859376,-1.27255 2.859376,-2.855468 V 14.855469 C 52,13.27261 50.723544,12 49.140624,12 Z M 22,33.429688 v 5.710936 C 22,40.724624 23.27147,42 24.855468,42 h 5.714844 v -5.714844 h -1.42578 c -0.79144,0 -1.429688,-0.638248 -1.429688,-1.429688 v -1.42578 z m 14.285156,0 v 1.42578 c 0,0.79144 -0.638248,1.429688 -1.429688,1.429688 h -1.42578 V 42 h 4.55078 l 4.285156,4.285156 h -5.980468 c -1.582858,0 -2.859374,1.27255 -2.859374,2.855468 0,1.58286 1.276456,2.859376 2.859374,2.859376 H 49.140624 C 50.722624,52.002 52,50.72853 52,49.144532 V 36.285156 c 0,-1.582858 -1.276456,-2.855468 -2.859376,-2.855468 -1.582858,0 -2.855468,1.27255 -2.855468,2.855468 v 5.984376 l -4.289062,-4.285156 v -4.554688 z"
     style="fill:#edb200;fill-opacity:1;stroke-width:2" />
</svg>
