<?xml version="1.0" encoding="UTF-8" standalone="no"?>
<!-- Created with Inkscape (http://www.inkscape.org/) -->

<svg
   width="64"
   height="64"
   viewBox="0 0 64 64"
   version="1.1"
   id="svg5"
   inkscape:version="1.2.1 (9c6d41e410, 2022-07-14)"
   sodipodi:docname="wayland.svg"
   xmlns:inkscape="http://www.inkscape.org/namespaces/inkscape"
   xmlns:sodipodi="http://sodipodi.sourceforge.net/DTD/sodipodi-0.dtd"
   xmlns:xlink="http://www.w3.org/1999/xlink"
   xmlns="http://www.w3.org/2000/svg"
   xmlns:svg="http://www.w3.org/2000/svg">
  <sodipodi:namedview
     id="namedview7"
     pagecolor="#ffffff"
     bordercolor="#000000"
     borderopacity="0.25"
     inkscape:showpageshadow="2"
     inkscape:pageopacity="0.0"
     inkscape:pagecheckerboard="0"
     inkscape:deskcolor="#d1d1d1"
     inkscape:document-units="px"
     showgrid="false"
     inkscape:zoom="12.78125"
     inkscape:cx="32"
     inkscape:cy="32"
     inkscape:window-width="1920"
     inkscape:window-height="999"
     inkscape:window-x="0"
     inkscape:window-y="0"
     inkscape:window-maximized="1"
     inkscape:current-layer="svg5" />
  <defs
     id="defs2">
    <linearGradient
       inkscape:collect="always"
       xlink:href="#linearGradient1511"
       id="linearGradient4780"
       x1="30"
       y1="30"
       x2="2"
       y2="2"
       gradientUnits="userSpaceOnUse"
       gradientTransform="scale(2)" />
    <linearGradient
       inkscape:collect="always"
       id="linearGradient1511">
      <stop
         style="stop-color:#ffde75;stop-opacity:1;"
         offset="0"
         id="stop1507" />
      <stop
         style="stop-color:#ffb251;stop-opacity:1;"
         offset="1"
         id="stop1509" />
    </linearGradient>
  </defs>
  <path
     d="M 26,5 C 7.797619,5 4,8.879634 4,27 V 39 C 4,57.120366 7.797619,61 26,61 H 38 C 56.20238,61 60,57.120366 60,39 V 27 C 60,8.879634 56.20238,5 38,5"
     style="opacity:0.2;fill:#000000;stroke-width:2;stroke-linecap:round;stroke-linejoin:round"
     id="path563" />
  <path
     id="path530"
     style="fill:url(#linearGradient4780);fill-opacity:1;stroke-width:2;stroke-linecap:round;stroke-linejoin:round"
     d="M 26,4 C 7.7976372,4 4,7.8796522 4,26 V 38 C 4,56.120348 7.7976372,60 26,60 H 38 C 56.202364,60 60,56.120348 60,38 V 26 C 60,7.8796522 56.202364,4 38,4 Z" />
  <path
     d="m 31.99746,12.000005 c -3.41319,0 -6.62531,0.85798 -9.43661,2.36551 h 3.97304 v 0.26962 c -0.53064,0.0253 -0.88744,0.16398 -1.07846,0.41714 -0.40329,-0.27848 -0.79817,-0.41711 -1.18022,-0.41714 h -1.3023 l -0.73254,0.1119 -0.12718,-0.1119 h -0.0407 c -0.52031,0.29814 -1.02637,0.61924 -1.51596,0.96146 1.12167,1.60755 1.79897,2.99656 2.02976,4.16126 h 1.08355 v 0.26962 h -0.8292 v 0.30014 c 0.31838,1.16472 0.55344,1.74999 0.70202,1.74997 h 0.25436 l 0.57484,-0.1526 0.12718,0.1526 0.12718,-0.1526 0.12718,0.1526 v 0.1119 c -0.42451,0.30386 -0.71115,0.72484 -0.85972,1.25652 h -0.0967 v 0.26453 h 0.22384 c 0.29714,4.22835 0.85183,7.43212 1.6584,9.60957 l 0.4731,0.37644 h 0.25435 c 0.31837,2e-5 0.99059,-1.47868 2.00941,-4.44105 0.65798,-1.3419 1.13232,-2.51767 1.42948,-3.53046 l -0.12718,-0.42223 c 0.65798,-0.98743 1.33949,-1.48032 2.03994,-1.48035 h 0.22383 c 0.44572,3e-5 0.76025,0.27729 0.95129,0.83429 0.5943,0.83556 1.07372,2.09341 1.43457,3.76446 l 1.78558,3.9476 c 0.23346,0.27853 0.34591,0.59684 0.34592,0.9513 0.65797,1.49385 1.25493,2.47964 1.78558,2.9607 h 0.38153 c 0.44572,10e-6 1.03759,-1.84832 1.7805,-5.54496 0.12732,2e-5 0.47992,-0.98578 1.05303,-2.9607 v -0.15262 l -2.00433,-0.26452 -0.47818,0.14752 h -0.60537 v -0.30014 l 1.21073,-0.117 h 2.35534 c 0.91266,-3.26617 1.7489,-5.79737 2.51303,-7.59507 0.0792,-1.1491 0.17198,-2.09758 0.26962,-2.88948 -1.38581,-1.14995 -2.92962,-2.11839 -4.59367,-2.86405 -0.13622,0.31454 -0.39884,0.47314 -0.79868,0.4731 v -0.26452 l 0.73764,-0.2391 c -2.47795,-1.10014 -5.22283,-1.70927 -8.10879,-1.70927 z m -3.80517,2.36551 h 3.21506 v 0.26962 l -0.73254,0.1119 -0.70202,-0.1119 -0.60537,0.26453 -0.21875,-0.26453 h -0.95638 z m 6.65395,2.16711 h 0.35101 v 0.11192 c -10e-6,0.17728 -0.11754,0.26456 -0.35101,0.26453 l -0.12718,0.15262 v 0.1526 l -0.35102,-0.1526 v -0.26453 z m -17.0978,1.43965 C 14.19399,21.582395 12,26.536035 12,32.002555 c 0,11.04549 8.95197,19.99745 19.99746,19.99745 11.04549,0 20.00254,-8.95196 20.00254,-19.99745 0,-4.46258 -1.46175,-8.58679 -3.93234,-11.91404 -0.53741,0.63755 -1.05842,1.84437 -1.56683,3.62203 -0.23351,1.84833 -0.62838,3.55804 -1.18022,5.12782 -0.4882,1.62045 -0.73256,3.11452 -0.73254,4.48175 l -0.92077,2.69617 c -2e-5,0.22788 0.34749,0.45381 1.04795,0.68167 -0.12738,0.53172 -0.32017,0.79869 -0.57484,0.79868 v 0.15262 h 0.22383 v 0.11192 c -3e-5,0.27852 -0.36192,0.41715 -1.08356,0.41714 l 0.13228,0.15262 v 0.53415 h -0.22384 c 0.14856,0.53171 0.46309,0.79359 0.9513,0.79358 v 0.26962 h -0.9513 v 0.15262 c 0.31836,0 0.47817,0.22593 0.47819,0.68167 l -1.33791,0.52906 0.12718,0.15262 v 0.117 c -2e-5,0.17726 -0.15984,0.26454 -0.47819,0.26454 v 0.1526 c 0.40325,1e-5 0.60535,0.0873 0.60537,0.26453 -0.57311,0.22788 -1.32988,1.35739 -2.26377,3.38293 -0.95516,1.79767 -1.78209,2.69617 -2.48251,2.69617 h -0.25436 c -0.53065,-0.4051 -0.96272,-1.75026 -1.3023,-4.02899 -1.35844,-3.46874 -2.03995,-5.50704 -2.03994,-6.11472 -10e-6,-1.56978 -0.43716,-3.23844 -1.30738,-5.01081 -0.2335,-0.78489 -0.38822,-1.77577 -0.4731,-2.96579 l -0.57485,-0.14754 c -1.44333,2.6079 -2.19501,4.64621 -2.25868,6.11471 -0.40329,0.86087 -0.72291,1.898 -0.95638,3.11332 0.87023,0.27852 1.30229,0.54549 1.30231,0.79868 v 0.14752 c -0.67922,-0.10126 -1.15357,-0.29124 -1.42948,-0.56976 -0.29717,0.68363 -0.69204,2.5833 -1.18022,5.69758 -0.38206,1.4432 -0.8564,2.16711 -1.42948,2.16711 -1.61312,-0.63299 -2.96177,-1.67012 -4.04426,-3.11332 -0.1698,10e-6 -0.44714,-0.72391 -0.8292,-2.16711 -0.23348,0 -0.39328,-0.71882 -0.47818,-2.16202 -0.80656,-2.05086 -1.35616,-4.39718 -1.65332,-7.0304 v -3.9476 h -0.12718 l -0.57484,0.15262 v -0.15262 c 0,-0.17722 0.19278,-0.26451 0.57484,-0.26453 l -0.12718,-2.27903 v -1.78558 l -0.92586,-5.69757 z m 15.31223,0.0407 v 0.15262 c -2e-5,0.202582 -0.50734,0.41822 -1.52614,0.646062 v -0.26962 l 0.70202,-0.376442 0.12718,0.11192 h 0.0967 l 0.60028,-0.264528 z m -3.43381,1.368438 v 0.11192 c -0.44574,0.40514 -1.16953,0.77479 -2.16711,1.10391 v -0.26962 c 0.1698,2e-5 0.25434,-0.1386 0.25436,-0.41714 z m 18.00839,0.15262 -0.0559,0.493448 h 0.22383 l 0.13736,-0.10684 c -0.0992,-0.13076 -0.20287,-0.25839 -0.30523,-0.386618 z m -11.95981,1.175128 0.12718,0.15262 v 0.11192 l -0.22383,0.30523 h -0.12718 l -0.25436,-0.30523 v -0.11192 z m 4.39019,0.15262 h 0.12716 v 0.11192 l -0.21875,0.30523 h -0.12716 v -0.15262 z m -2.00433,1.89749 0.47819,0.381538 c -0.0849,0.278532 -0.31998,0.41716 -0.70202,0.417142 l -0.25436,-0.417142 c -2e-5,-0.12658 0.1598,-0.25492 0.47819,-0.381538 z m 2.86405,1.749968 0.0967,0.14752 v 0.117 l -0.0967,0.15262 h -0.25436 v -0.15262 z m -4.51736,1.363352 v 0.117 l -0.60537,0.56976 h -0.35101 v -0.15262 c -2e-5,-0.22785 0.3196,-0.40752 0.95638,-0.534138 z m -19.7431,5.280418 h 0.12718 v 0.11702 c -0.31838,0.83555 -0.59064,1.33874 -0.82412,1.51596 h -0.25436 v -0.56976 z m 15.57166,6.34364 h 0.12718 v 0.26453 l -0.95638,0.56976 -0.12718,-0.15262 v -0.264544 z m -13.08406,1.78558 h 0.21874 l 0.38154,1.48035 h -0.25436 l -0.34592,-1.36843 z m 12.73305,1.74488 h 0.0967 l 0.38154,0.41714 -0.12718,0.117 h -0.12718 l -0.22383,-0.38153 v -0.15262 z"
     style="display:inline;fill:#ffffff;fill-opacity:1;stroke:none;stroke-width:1;enable-background:new"
     id="path3360"
     sodipodi:nodetypes="scccccccccccccccccccccccccccccccccccccccscccccccccccccccsscccccccccccscccccccsssccccccccccccccccccccccccccsccccccccccccccccccccsccccccccccccccccccccccccccccccccccccccccccccccccccccccccccccccccccccccccccccccccccccccc" />
</svg>
