<?xml version="1.0" encoding="UTF-8" standalone="no"?>
<!-- Created with Inkscape (http://www.inkscape.org/) -->

<svg
   width="64"
   height="64"
   viewBox="0 0 64 64"
   version="1.1"
   id="svg5"
   inkscape:version="1.2.1 (9c6d41e410, 2022-07-14)"
   sodipodi:docname="xfwm4.svg"
   xmlns:inkscape="http://www.inkscape.org/namespaces/inkscape"
   xmlns:sodipodi="http://sodipodi.sourceforge.net/DTD/sodipodi-0.dtd"
   xmlns:xlink="http://www.w3.org/1999/xlink"
   xmlns="http://www.w3.org/2000/svg"
   xmlns:svg="http://www.w3.org/2000/svg">
  <sodipodi:namedview
     id="namedview7"
     pagecolor="#ffffff"
     bordercolor="#000000"
     borderopacity="0.25"
     inkscape:showpageshadow="2"
     inkscape:pageopacity="0.0"
     inkscape:pagecheckerboard="0"
     inkscape:deskcolor="#d1d1d1"
     inkscape:document-units="px"
     showgrid="false"
     inkscape:zoom="12.625"
     inkscape:cx="32"
     inkscape:cy="32"
     inkscape:window-width="1920"
     inkscape:window-height="1011"
     inkscape:window-x="0"
     inkscape:window-y="32"
     inkscape:window-maximized="1"
     inkscape:current-layer="svg5" />
  <defs
     id="defs2">
    <linearGradient
       inkscape:collect="always"
       xlink:href="#linearGradient1484"
       id="linearGradient4780"
       x1="2"
       y1="2"
       x2="30"
       y2="30"
       gradientUnits="userSpaceOnUse"
       gradientTransform="scale(2)" />
    <linearGradient
       inkscape:collect="always"
       xlink:href="#linearGradient1484"
       id="linearGradient4027"
       x1="1.0606601"
       y1="-0.35355353"
       x2="20.85965"
       y2="-0.35355353"
       gradientUnits="userSpaceOnUse"
       gradientTransform="matrix(2.8284272,2.8284272,-2.8284272,2.8284272,-4e-7,2.0000004)" />
    <linearGradient
       inkscape:collect="always"
       id="linearGradient1484">
      <stop
         style="stop-color:#007dde;stop-opacity:1;"
         offset="0"
         id="stop1480" />
      <stop
         style="stop-color:#2fbce5;stop-opacity:1;"
         offset="1"
         id="stop1482" />
    </linearGradient>
  </defs>
  <path
     d="M 26,5 C 7.797619,5 4,8.879634 4,27 V 39 C 4,57.120366 7.797619,61 26,61 H 38 C 56.20238,61 60,57.120366 60,39 V 27 C 60,8.879634 56.20238,5 38,5"
     style="opacity:0.2;fill:#000000;stroke-width:2;stroke-linecap:round;stroke-linejoin:round"
     id="path563" />
  <path
     id="path530"
     style="fill:url(#linearGradient4780);fill-opacity:1;stroke-width:2;stroke-linecap:round;stroke-linejoin:round"
     d="M 26,4 C 7.7976372,4 4,7.8796522 4,26 V 38 C 4,56.120348 7.7976372,60 26,60 H 38 C 56.202364,60 60,56.120348 60,38 V 26 C 60,7.8796522 56.202364,4 38,4 Z" />
  <rect
     style="fill:#5cb9ea;fill-opacity:1;stroke-width:4"
     id="rect371"
     width="32"
     height="28"
     x="20"
     y="14"
     ry="3" />
  <rect
     style="fill:#b0dbf3;fill-opacity:1;stroke-width:4"
     id="rect346"
     width="32"
     height="28"
     x="16"
     y="18"
     ry="3" />
  <rect
     style="fill:#ffffff;stroke-width:4"
     id="rect344"
     width="32"
     height="28"
     x="12"
     y="22"
     ry="3" />
  <path
     id="rect3263"
     style="fill:url(#linearGradient4027);fill-opacity:1;stroke-width:4"
     d="m 22.343748,27.515626 -2.828124,2.828126 5.65625,5.65625 -5.656248,5.65625 2.828124,2.828124 L 28,38.828128 l 5.656248,5.656248 2.828124,-2.828124 -5.656248,-5.65625 5.656248,-5.65625 L 33.656248,27.515628 28,33.171878 Z" />
</svg>
