<?xml version="1.0" encoding="UTF-8" standalone="no"?>
<!-- Created with Inkscape (http://www.inkscape.org/) -->

<svg
   width="64"
   height="64"
   viewBox="0 0 64 64"
   version="1.1"
   id="svg5"
   inkscape:version="1.2.1 (9c6d41e410, 2022-07-14)"
   sodipodi:docname="xorg.svg"
   xmlns:inkscape="http://www.inkscape.org/namespaces/inkscape"
   xmlns:sodipodi="http://sodipodi.sourceforge.net/DTD/sodipodi-0.dtd"
   xmlns:xlink="http://www.w3.org/1999/xlink"
   xmlns="http://www.w3.org/2000/svg"
   xmlns:svg="http://www.w3.org/2000/svg">
  <sodipodi:namedview
     id="namedview7"
     pagecolor="#ffffff"
     bordercolor="#000000"
     borderopacity="0.25"
     inkscape:showpageshadow="2"
     inkscape:pageopacity="0.0"
     inkscape:pagecheckerboard="0"
     inkscape:deskcolor="#d1d1d1"
     inkscape:document-units="px"
     showgrid="false"
     inkscape:zoom="8.7725435"
     inkscape:cx="-9.119362"
     inkscape:cy="27.358086"
     inkscape:window-width="1920"
     inkscape:window-height="1004"
     inkscape:window-x="0"
     inkscape:window-y="0"
     inkscape:window-maximized="1"
     inkscape:current-layer="svg5"
     showguides="false" />
  <defs
     id="defs2">
    <linearGradient
       inkscape:collect="always"
       xlink:href="#linearGradient1144"
       id="linearGradient3500"
       x1="2"
       y1="2"
       x2="30"
       y2="30"
       gradientUnits="userSpaceOnUse"
       gradientTransform="scale(2)" />
    <linearGradient
       inkscape:collect="always"
       id="linearGradient1144">
      <stop
         style="stop-color:#adb2b9;stop-opacity:1;"
         offset="0"
         id="stop1140" />
      <stop
         style="stop-color:#e0e2e4;stop-opacity:1;"
         offset="1"
         id="stop1142" />
    </linearGradient>
    <linearGradient
       inkscape:collect="always"
       xlink:href="#linearGradient3678"
       id="linearGradient3680"
       x1="11.2"
       y1="21.507999"
       x2="52.799999"
       y2="48.809299"
       gradientUnits="userSpaceOnUse" />
    <linearGradient
       inkscape:collect="always"
       id="linearGradient3678">
      <stop
         style="stop-color:#ec6e28;stop-opacity:1;"
         offset="0"
         id="stop3674" />
      <stop
         style="stop-color:#f3bf21;stop-opacity:1;"
         offset="1"
         id="stop3676" />
    </linearGradient>
  </defs>
  <path
     d="M 26,5 C 7.797619,5 4,8.879634 4,27 V 39 C 4,57.120366 7.797619,61 26,61 H 38 C 56.20238,61 60,57.120366 60,39 V 27 C 60,8.879634 56.20238,5 38,5"
     style="opacity:0.2;fill:#000000;stroke-width:2;stroke-linecap:round;stroke-linejoin:round"
     id="path563" />
  <path
     id="path530"
     style="fill:url(#linearGradient3500);fill-opacity:1;stroke-width:2;stroke-linecap:round;stroke-linejoin:round"
     d="M 26 4 C 7.7976372 4 4 7.8796521 4 26 L 4 38 C 4 56.120348 7.7976372 60 26 60 L 38 60 C 56.202364 60 60 56.120348 60 38 L 60 26 C 60 7.8796521 56.202364 4 38 4 L 26 4 z " />
  <path
     d="M 15,15 29,33.845704 16.5,50.673829 h 2 L 34,29.808594 23,15 Z M 46,15 30.5,35.865235 41,50.000001 h 8 L 35.5,31.826172 48,15 Z"
     style="fill:#373a3d;fill-opacity:1;stroke-width:2"
     id="path2502" />
  <path
     d="m 31.9987,21.508 c -1.0153,0 -2.0995,0.078 -3.0758,0.1703 1.7394,2.2412 3.182401,4.1392 4.8438,6.2959 -0.9321,-1.982499 -2.8483,-3.8844 -2.186599,-4.862 0.656499,-0.9672 1.864199,-0.8047 1.956499,-0.8047 1.937,0 3.8025,0.2171 5.5458,0.6162 l 0.4082,-0.5551 C 37.1649,21.7771 34.6403,21.508 31.9987,21.508 Z m 10.4923,1.8096 -0.377,0.5304 c 5.3716,2.0787 9.0051,6.0476 9.0051,10.595 0,6.6989 -7.8767,12.1342 -17.5825,12.1342 -9.7058,0 -17.5864,-5.434 -17.5864,-12.1329 0,-3.6478 2.337401,-6.9225 6.033301,-9.1481 L 20.8473,23.5867 C 15.048,26.0151 11.2,30.2778 11.2,35.1307 c 0,7.5517 9.3184,13.6786 20.800001,13.6786 C 43.4803,48.8093 52.8,42.6837 52.8,35.1333 52.8,30.0971 48.6569,25.6927 42.491,23.3176 Z"
     style="fill:url(#linearGradient3680);fill-opacity:1;stroke-width:1"
     id="path3649" />
</svg>
