<?xml version="1.0" encoding="UTF-8" standalone="no"?>
<!-- Created with Inkscape (http://www.inkscape.org/) -->

<svg
   width="64"
   height="64"
   viewBox="0 0 64 64"
   version="1.1"
   id="svg5"
   inkscape:version="1.2.1 (9c6d41e410, 2022-07-14)"
   sodipodi:docname="yast.svg"
   xmlns:inkscape="http://www.inkscape.org/namespaces/inkscape"
   xmlns:sodipodi="http://sodipodi.sourceforge.net/DTD/sodipodi-0.dtd"
   xmlns:xlink="http://www.w3.org/1999/xlink"
   xmlns="http://www.w3.org/2000/svg"
   xmlns:svg="http://www.w3.org/2000/svg">
  <sodipodi:namedview
     id="namedview7"
     pagecolor="#ffffff"
     bordercolor="#000000"
     borderopacity="0.25"
     inkscape:showpageshadow="2"
     inkscape:pageopacity="0.0"
     inkscape:pagecheckerboard="0"
     inkscape:deskcolor="#d1d1d1"
     inkscape:document-units="px"
     showgrid="false"
     inkscape:zoom="12.9375"
     inkscape:cx="32"
     inkscape:cy="32"
     inkscape:window-width="1920"
     inkscape:window-height="1008"
     inkscape:window-x="0"
     inkscape:window-y="0"
     inkscape:window-maximized="1"
     inkscape:current-layer="svg5" />
  <defs
     id="defs2">
    <linearGradient
       inkscape:collect="always"
       xlink:href="#linearGradient4246"
       id="linearGradient4780"
       x1="2"
       y1="2"
       x2="30"
       y2="30"
       gradientUnits="userSpaceOnUse"
       gradientTransform="scale(2)" />
    <linearGradient
       inkscape:collect="always"
       id="linearGradient4246">
      <stop
         style="stop-color:#23aea1;stop-opacity:1;"
         offset="0"
         id="stop4242" />
      <stop
         style="stop-color:#49c77c;stop-opacity:1;"
         offset="1"
         id="stop4244" />
    </linearGradient>
  </defs>
  <path
     d="M 26,5 C 7.797619,5 4,8.879634 4,27 V 39 C 4,57.120366 7.797619,61 26,61 H 38 C 56.20238,61 60,57.120366 60,39 V 27 C 60,8.879634 56.20238,5 38,5"
     style="opacity:0.2;fill:#000000;stroke-width:2;stroke-linecap:round;stroke-linejoin:round"
     id="path563" />
  <path
     id="path530"
     style="fill:url(#linearGradient4780);fill-opacity:1.0;stroke-width:2;stroke-linecap:round;stroke-linejoin:round"
     d="M 26,4 C 7.7976372,4 4,7.8796522 4,26 V 38 C 4,56.120348 7.7976372,60 26,60 H 38 C 56.202364,60 60,56.120348 60,38 V 26 C 60,7.8796522 56.202364,4 38,4 Z" />
  <path
     d="m 18.521188,13.000006 1.704646,4.00201 4.167973,4.760688 c -1.35139,0.213376 -2.553415,0.576118 -3.686685,1.009986 -0.640134,0.308212 -1.251816,0.64013 -1.59322,1.315826 l -1.038436,1.839788 c -0.334294,0.675696 -1.043178,0.787394 -1.73784,1.335062 l -2.84503,2.221496 c 0.566632,0.27502 1.073998,0.635388 1.541058,1.062146 -0.502624,-0.277392 -0.99102,-0.569008 -1.576622,-0.723114 -0.407788,-0.06402 -0.810834,-0.05926 -1.18306,0.237086 -0.334292,0.277392 -0.296356,0.74682 -0.2276,1.185428 0.12802,0.678069 0.694662,1.280266 1.339536,1.735473 0.599828,0.267904 1.152238,0.13038 1.68331,-0.182561 0.459944,-0.426755 0.647242,-1.175947 0.590342,-2.200158 0.331916,-0.06164 0.25842,1.913282 0.317696,1.688052 0.03084,-0.12092 4.876858,-2.972234 6.159494,-3.273336 1.308711,-0.33666 3.350023,-0.0168 4.827069,-0.47681 0.917522,-0.293988 1.588474,-0.562716 2.157482,-1.437564 l -0.457578,0.972052 c -0.342114,0.553038 -0.878012,0.958766 -1.503124,1.138012 l -3.152324,8.753215 -0.0166,8.463966 -1.503913,2.133778 0.974421,-0.0332 1.038438,-1.372728 -0.763418,1.643008 c 0,0 4.995402,-0.33428 4.995402,-0.29872 0,0.0356 -1.54106,-10.123568 -1.54106,-10.123568 0,0 1.669086,-1.865866 1.70465,-1.891946 0.03556,-0.02844 7.705869,2.048422 7.705869,2.048422 l -0.934122,-1.102446 -0.768158,-0.424385 0.93175,0.308211 c 0,0 2.164594,2.62217 2.174076,2.660106 0.0094,0.0356 0.386454,-0.4718 0.386454,-0.4718 l -2.26654,9.19893 3.01099,1.026586 -0.0948,-1.405924 0.720742,1.744956 1.107188,0.07348 -0.749194,-1.818433 1.303974,1.583737 0.715998,-0.14224 -1.289746,-1.856384 1.505498,-8.961844 -1.73547,-1.370373 -1.344272,-1.801851 1.273144,1.29686 -1.379836,-1.965442 -0.10908,-2.596094 0.483658,2.235723 0.521582,-1.837418 -0.27028,2.145629 1.002874,2.200158 2.005748,1.493644 -0.038,0.3438 2.37964,-0.578494 1.01947,-2.304472 0.08772,-1.427258 0.147,1.446224 c 0,0 -0.877216,2.12429 -0.877216,2.197786 0,0.07112 1.145122,-1.083482 1.145122,-1.083482 l -1.256556,1.479416 2.00812,3.622674 0.680438,3.94985 0.50025,-0.358 -0.10672,0.14224 -1.612184,2.105324 1.057402,-0.22996 0.410156,-0.649618 -0.18016,0.79187 0.376962,0.0188 -0.08772,0.865366 0.787126,-0.704146 0.587974,0.18252 0.18256,-1.05029 v 1.066886 l 0.55241,-0.10908 0.26788,0.900928 0.39356,-1.135642 L 52,48.192824 c -0.734866,-5.576226 -1.70692,-10.438278 -1.967712,-16.014543 -0.02857,-1.062146 -0.919894,-1.340084 -1.880096,-2.56819 -1.121434,-1.291936 -3.411682,-4.053988 -6.662128,-4.829258 -1.773402,-0.211008 -3.579996,0.07588 -5.54781,0.718368 -1.740212,0.509738 -3.537326,-1.183086 -5.490912,-0.246598 0.459946,0.753934 1.069258,1.493642 2.107694,2.370858 0.324808,0.317698 0.91041,0.405418 1.486528,0.360374 -0.398304,0.14226 -0.808462,0.260792 -1.237588,0.03556 -0.699404,-0.474163 -1.275522,-1.066879 -1.825562,-1.692785 -0.334654,-0.415282 -0.617302,-0.869906 -0.841656,-1.35376 -0.331921,-0.753934 0.05928,-1.711762 0.699404,-2.740714 0.580862,-0.71363 1.220992,-1.410662 2.522596,-1.910914 1.171204,-0.46706 2.34715,-0.934118 3.459082,-1.550542 1.256554,-0.815576 3.2623,-3.414038 4.32919,-5.230116 -2.906676,1.066888 -5.810976,1.920396 -8.701054,3.622674 -1.081112,0.742078 -2.140886,1.891944 -3.221999,3.082118 -0.459948,0.521588 -0.957828,1.009986 -1.612186,1.35613 -0.898554,0.481284 -1.517348,0.02372 -1.932248,-0.343772 C 25.040551,20.561746 24.470915,19.80143 23.983647,18.988792 23.343515,18.111574 22.672564,17.231984 21.691028,16.354768 20.562498,15.306846 19.5454,14.097706 18.521188,13 Z m 18.388386,2.875852 -2.560528,3.108196 1.737842,-0.602198 -3.49702,1.714132 z m -12.145915,6.489044 c 0.225234,-0.0048 0.450464,0 0.668584,0.02372 -1.415404,0.10906 -2.062648,0.353252 -3.290753,0.983902 0.450464,-0.343778 0.704145,-0.599827 1.514979,-0.87722 0.355628,-0.07822 0.732596,-0.12328 1.10719,-0.13038 z m 0.393562,1.953586 c 0.699402,0.0118 1.173576,0.320066 1.173576,0.320066 -1.550542,-0.417272 -2.401682,-0.07112 -3.065522,0.943602 -0.07822,-0.06402 0.44098,-0.945972 1.12853,-1.154608 0.27502,-0.08298 0.531072,-0.1138 0.763416,-0.10908 z m -0.11854,0.521592 c 0.1471,-0.0062 0.294408,0.0058 0.438608,0.03556 0.289244,0.10194 0.422012,0.317692 0.564264,0.521588 -0.3011,-0.265536 -0.611682,-0.474172 -0.988648,-0.376968 0.426756,0.04742 0.585602,0.315324 0.647246,0.666212 0.05216,0.471802 -0.353262,0.749192 -0.623538,0.789496 -0.270278,0.04032 -0.616422,-0.02844 -0.815576,-0.320064 -0.05692,-0.118539 -0.208636,-0.554781 0.0332,-0.865366 -0.264096,0.10744 -0.506646,0.261654 -0.716,0.455206 0.18256,-0.265536 0.405416,-0.474172 0.742078,-0.697032 0.219078,-0.126919 0.46546,-0.19928 0.718372,-0.211008 z m -11.441767,5.728264 c 0.36274,0.429126 0.716,0.841656 0.889074,1.41066 0.02372,0.526332 -0.208638,0.514478 -0.436238,0.51211 -0.18966,-0.0022 -0.550042,-0.218122 -0.433868,-0.393566 0.11214,-0.22782 0.1597,-0.482014 0.13752,-0.734968 z m -1.32768,0.13038 c 0.2845,0.298728 0.564264,0.49788 0.616422,0.91515 0.02136,0.09958 0.04032,0.34615 -0.15648,0.308214 -0.57375,-0.54292 -0.227604,-0.483648 -0.457578,-1.223358 z"
     style="fill:#ffffff;stroke-width:4"
     id="path2154"
     sodipodi:nodetypes="cccccccccccccccccccccccccccscccccccccccccccccccccccccccccccccsccccccccccccccccccccccccccccccccccccccccccccccccccccccccccccccccccccccccccccccccc" />
</svg>
