<?xml version="1.0" encoding="UTF-8" standalone="no"?>
<!-- Created with Inkscape (http://www.inkscape.org/) -->

<svg
   width="24"
   height="24"
   viewBox="0 0 24 24.000001"
   version="1.1"
   id="svg5"
   inkscape:version="1.2.2 (1:1.2.2+202305151914+b0a8486541)"
   sodipodi:docname="application-x-javascript.svg"
   xmlns:inkscape="http://www.inkscape.org/namespaces/inkscape"
   xmlns:sodipodi="http://sodipodi.sourceforge.net/DTD/sodipodi-0.dtd"
   xmlns:xlink="http://www.w3.org/1999/xlink"
   xmlns="http://www.w3.org/2000/svg"
   xmlns:svg="http://www.w3.org/2000/svg">
  <sodipodi:namedview
     id="namedview7"
     pagecolor="#ffffff"
     bordercolor="#000000"
     borderopacity="0.25"
     inkscape:showpageshadow="2"
     inkscape:pageopacity="0.0"
     inkscape:pagecheckerboard="0"
     inkscape:deskcolor="#d1d1d1"
     inkscape:document-units="px"
     showgrid="false"
     inkscape:zoom="32.916667"
     inkscape:cx="12"
     inkscape:cy="12"
     inkscape:window-width="1920"
     inkscape:window-height="1012"
     inkscape:window-x="0"
     inkscape:window-y="0"
     inkscape:window-maximized="1"
     inkscape:current-layer="svg5"
     showguides="true" />
  <defs
     id="defs2">
    <linearGradient
       inkscape:collect="always"
       id="linearGradient926">
      <stop
         style="stop-color:#ee8e24;stop-opacity:1;"
         offset="0"
         id="stop922" />
      <stop
         style="stop-color:#fabb72;stop-opacity:1;"
         offset="1"
         id="stop924" />
    </linearGradient>
    <linearGradient
       inkscape:collect="always"
       xlink:href="#linearGradient926"
       id="linearGradient928"
       x1="11"
       y1="10"
       x2="17"
       y2="18"
       gradientUnits="userSpaceOnUse"
       gradientTransform="translate(1,1)" />
    <linearGradient
       inkscape:collect="always"
       id="linearGradient899">
      <stop
         style="stop-color:#dddddd;stop-opacity:1;"
         offset="0"
         id="stop895" />
      <stop
         style="stop-color:#eeeeee;stop-opacity:1;"
         offset="1"
         id="stop897" />
    </linearGradient>
    <linearGradient
       inkscape:collect="always"
       xlink:href="#linearGradient899"
       id="linearGradient1230"
       x1="4"
       y1="1"
       x2="18"
       y2="21"
       gradientUnits="userSpaceOnUse"
       gradientTransform="translate(1,1)" />
  </defs>
  <path
     id="rect234"
     style="opacity:0.2;stroke-width:0.25;stroke-linecap:round;stroke-linejoin:round"
     d="m 5,3 h 9 l 6,6 v 13 c 0,0.554 -0.446,1 -1,1 H 5 C 4.446,23 4,22.554 4,22 V 4 C 4,3.446 4.446,3 5,3 Z"
     sodipodi:nodetypes="sccssssss" />
  <path
     id="rect448"
     style="fill:url(#linearGradient1230);fill-opacity:1;stroke-width:0.25;stroke-linecap:round;stroke-linejoin:round"
     d="m 5,2 h 9 l 1,4 5,2 v 13 c 0,0.554 -0.446,1 -1,1 H 5 C 4.446,22 4,21.554 4,21 V 3 C 4,2.446 4.446,2 5,2 Z"
     sodipodi:nodetypes="scccssssss" />
  <path
     d="M 20,9 H 15 C 14.446,9 14,8.554 14,8 V 2 l 6,6 z"
     style="opacity:0.2;fill:#000000;stroke-width:0.25;stroke-linecap:round;stroke-linejoin:round"
     id="path611"
     sodipodi:nodetypes="cssccc" />
  <path
     id="rect600"
     style="fill:#f8f8f8;fill-opacity:1;stroke-width:0.25;stroke-linecap:round;stroke-linejoin:round"
     d="M 20,8 H 15 C 14.446,8 14,7.554 14,7 V 2 Z"
     sodipodi:nodetypes="csscc" />
  <path
     d="m 8.9985373,11 v 5.294409 c 0,0.812499 -0.1219669,0.712809 -0.6616706,0.712809 -0.5646153,0 -0.545088,-0.280112 -0.8041485,-0.732415 L 5.889,17.315789 C 6.2759238,18.126645 7.2241468,19 8.5393645,19 9.994076,19 10.990449,18.233553 10.990449,16.550987 V 11 Z m 5.5855107,0 c -1.448067,0 -2.376356,0.917764 -2.376356,2.123356 0,1.307565 0.778831,1.925986 1.949572,2.419407 l 0.405198,0.172698 c 0.738978,0.320724 1.104315,0.516447 1.104315,1.067434 0,0.458882 -0.352051,0.791118 -1.024606,0.791118 -0.800421,0 -1.179049,-0.537828 -1.52612,-1.100328 L 11.84069,17.315789 C 12.31729,18.248355 13.172517,19 14.678707,19 c 1.541063,0 2.688554,-0.792763 2.688554,-2.238486 0,-1.342106 -0.777173,-1.939146 -2.157152,-2.524672 L 14.804912,14.06579 c -0.695803,-0.299342 -0.998038,-0.49342 -0.998038,-0.975331 0,-0.389802 0.302235,-0.689141 0.777175,-0.689145 0.466639,0 0.765543,0.195726 1.042874,0.689145 l 1.263739,-0.802631 C 16.357604,11.355263 15.615296,11 14.584048,11 Z"
     style="fill:url(#linearGradient928);fill-opacity:1;stroke-width:1"
     id="path550" />
</svg>
