<?xml version="1.0" encoding="UTF-8" standalone="no"?>
<!-- Created with Inkscape (http://www.inkscape.org/) -->

<svg
   width="24"
   height="24"
   viewBox="0 0 24 24.000001"
   version="1.1"
   id="svg5"
   inkscape:version="1.2.2 (1:1.2.2+202305151914+b0a8486541)"
   sodipodi:docname="application-epub+zip.svg"
   xmlns:inkscape="http://www.inkscape.org/namespaces/inkscape"
   xmlns:sodipodi="http://sodipodi.sourceforge.net/DTD/sodipodi-0.dtd"
   xmlns:xlink="http://www.w3.org/1999/xlink"
   xmlns="http://www.w3.org/2000/svg"
   xmlns:svg="http://www.w3.org/2000/svg">
  <sodipodi:namedview
     id="namedview7"
     pagecolor="#ffffff"
     bordercolor="#000000"
     borderopacity="0.25"
     inkscape:showpageshadow="2"
     inkscape:pageopacity="0.0"
     inkscape:pagecheckerboard="0"
     inkscape:deskcolor="#d1d1d1"
     inkscape:document-units="px"
     showgrid="false"
     inkscape:zoom="32.916667"
     inkscape:cx="12"
     inkscape:cy="12"
     inkscape:window-width="1920"
     inkscape:window-height="1012"
     inkscape:window-x="0"
     inkscape:window-y="0"
     inkscape:window-maximized="1"
     inkscape:current-layer="svg5"
     showguides="true" />
  <defs
     id="defs2">
    <linearGradient
       inkscape:collect="always"
       id="linearGradient975">
      <stop
         style="stop-color:#aad400;stop-opacity:1;"
         offset="0"
         id="stop971" />
      <stop
         style="stop-color:#cde75f;stop-opacity:1;"
         offset="1"
         id="stop973" />
    </linearGradient>
    <linearGradient
       inkscape:collect="always"
       xlink:href="#linearGradient975"
       id="linearGradient1554"
       x1="4"
       y1="1"
       x2="18"
       y2="21"
       gradientUnits="userSpaceOnUse"
       gradientTransform="translate(1,1)" />
  </defs>
  <path
     id="rect234"
     style="opacity:0.2;stroke-width:0.25;stroke-linecap:round;stroke-linejoin:round"
     d="m 5,3 h 9 l 6,6 v 13 c 0,0.554 -0.446,1 -1,1 H 5 C 4.446,23 4,22.554 4,22 V 4 C 4,3.446 4.446,3 5,3 Z"
     sodipodi:nodetypes="sccssssss" />
  <path
     id="rect448"
     style="fill:url(#linearGradient1554);fill-opacity:1;stroke-width:0.25;stroke-linecap:round;stroke-linejoin:round"
     d="m 5,2 h 9 l 1,4 5,2 v 13 c 0,0.554 -0.446,1 -1,1 H 5 C 4.446,22 4,21.554 4,21 V 3 C 4,2.446 4.446,2 5,2 Z"
     sodipodi:nodetypes="scccssssss" />
  <path
     d="M 20,9 H 15 C 14.446,9 14,8.554 14,8 V 2 l 6,6 z"
     style="opacity:0.2;fill:#000000;stroke-width:0.25;stroke-linecap:round;stroke-linejoin:round"
     id="path611"
     sodipodi:nodetypes="cssccc" />
  <path
     id="rect600"
     style="fill:#dbea9d;fill-opacity:1;stroke-width:0.25;stroke-linecap:round;stroke-linejoin:round"
     d="M 20,8 H 15 C 14.446,8 14,7.554 14,7 V 2 Z"
     sodipodi:nodetypes="csscc" />
  <path
     d="m 11.999981,17.142437 -3.1423943,-3.142638 3.1423943,-3.142169 1.047574,1.047365 -2.095125,2.094804 1.047481,1.047514 3.142428,-3.142153 -2.73746,-2.7373648 c -0.223502,-0.223727 -0.586065,-0.223727 -0.809792,0 L 7.1676415,13.595255 c -0.223522,0.223502 -0.223522,0.586085 0,0.809777 l 4.4274445,4.42733 c 0.223727,0.223637 0.58629,0.223637 0.809792,0 l 4.42748,-4.42733 c 0.223523,-0.223691 0.223523,-0.586275 0,-0.809777 l -0.642705,-0.642541 z"
     style="fill:#ffffff;stroke-width:0.500004"
     id="path407" />
</svg>
