<?xml version="1.0" encoding="UTF-8" standalone="no"?>
<!-- Created with Inkscape (http://www.inkscape.org/) -->

<svg
   width="24"
   height="24"
   viewBox="0 0 24 24.000001"
   version="1.1"
   id="svg5"
   inkscape:version="1.2.2 (1:1.2.2+202305151914+b0a8486541)"
   sodipodi:docname="image-svg+xml.svg"
   xmlns:inkscape="http://www.inkscape.org/namespaces/inkscape"
   xmlns:sodipodi="http://sodipodi.sourceforge.net/DTD/sodipodi-0.dtd"
   xmlns:xlink="http://www.w3.org/1999/xlink"
   xmlns="http://www.w3.org/2000/svg"
   xmlns:svg="http://www.w3.org/2000/svg">
  <sodipodi:namedview
     id="namedview7"
     pagecolor="#ffffff"
     bordercolor="#000000"
     borderopacity="0.25"
     inkscape:showpageshadow="2"
     inkscape:pageopacity="0.0"
     inkscape:pagecheckerboard="0"
     inkscape:deskcolor="#d1d1d1"
     inkscape:document-units="px"
     showgrid="false"
     inkscape:zoom="32.916667"
     inkscape:cx="12"
     inkscape:cy="12"
     inkscape:window-width="1920"
     inkscape:window-height="1012"
     inkscape:window-x="0"
     inkscape:window-y="0"
     inkscape:window-maximized="1"
     inkscape:current-layer="svg5"
     showguides="true" />
  <defs
     id="defs2">
    <linearGradient
       inkscape:collect="always"
       id="linearGradient899">
      <stop
         style="stop-color:#dddddd;stop-opacity:1;"
         offset="0"
         id="stop895" />
      <stop
         style="stop-color:#eeeeee;stop-opacity:1;"
         offset="1"
         id="stop897" />
    </linearGradient>
    <linearGradient
       inkscape:collect="always"
       xlink:href="#linearGradient899"
       id="linearGradient4088"
       x1="4"
       y1="1"
       x2="18"
       y2="21"
       gradientUnits="userSpaceOnUse"
       gradientTransform="translate(1,1)" />
  </defs>
  <path
     id="rect234"
     style="opacity:0.2;stroke-width:0.25;stroke-linecap:round;stroke-linejoin:round"
     d="m 5,3 h 9 l 6,6 v 13 c 0,0.554 -0.446,1 -1,1 H 5 C 4.446,23 4,22.554 4,22 V 4 C 4,3.446 4.446,3 5,3 Z"
     sodipodi:nodetypes="sccssssss" />
  <path
     id="rect448"
     style="fill:url(#linearGradient4088);fill-opacity:1;stroke-width:0.25;stroke-linecap:round;stroke-linejoin:round"
     d="m 5,2 h 9 l 1,4 5,2 v 13 c 0,0.554 -0.446,1 -1,1 H 5 C 4.446,22 4,21.554 4,21 V 3 C 4,2.446 4.446,2 5,2 Z"
     sodipodi:nodetypes="scccssssss" />
  <path
     d="M 20,9 H 15 C 14.446,9 14,8.554 14,8 V 2 l 6,6 z"
     style="opacity:0.2;fill:#000000;stroke-width:0.25;stroke-linecap:round;stroke-linejoin:round"
     id="path611"
     sodipodi:nodetypes="cssccc" />
  <path
     id="rect600"
     style="fill:#f8f8f8;fill-opacity:1;stroke-width:0.25;stroke-linecap:round;stroke-linejoin:round"
     d="M 20,8 H 15 C 14.446,8 14,7.554 14,7 V 2 Z"
     sodipodi:nodetypes="csscc" />
  <path
     id="path2594"
     style="color:#000000;fill:#f34f17;-inkscape-stroke:none"
     d="m 7,11.750286 c -0.68443,0 -1.25,0.56558 -1.25,1.249999 0,0.68444 0.56557,1.25 1.25,1.25 0.33833,0 0.64676,-0.13889 0.87305,-0.36132 l 7.8789,3.15039 c 0.0209,0.66689 0.57659,1.21093 1.24805,1.21093 0.68443,0 1.25,-0.56556 1.25,-1.25 0,-0.68442 -0.56557,-1.25 -1.25,-1.25 -0.33833,0 -0.64676,0.13889 -0.87305,0.36133 l -7.8789,-3.15039 C 8.22715,12.294346 7.67146,11.750286 7,11.750286 Z"
     sodipodi:nodetypes="sssccsssccs" />
  <path
     d="m 9,20.000055 c 5,3 8,-3 3,-5 -5,-2 -2.0000001,-7.9999993 3,-4.999999"
     style="color:#000000;opacity:0.25;fill:#8f76e4;fill-opacity:1;fill-rule:evenodd;-inkscape-stroke:none"
     id="path3159" />
  <path
     style="color:#000000;fill:#8c59d9;fill-rule:evenodd;-inkscape-stroke:none"
     d="m 11.61914,8.7659157 c -1.04201,0.19888 -1.86243,0.80117 -2.30859,1.6191403 -0.44617,0.81797 -0.51661,1.83065 -0.11328,2.765619 0.40332,0.93498 1.27114,1.77604 2.61718,2.31446 1.15395,0.46158 1.78614,1.12052 2.07032,1.77929 0.28417,0.65878 0.22961,1.3336 -0.0742,1.89063 -0.60767,1.11405 -2.21667,1.83719 -4.55274,0.43555 l -0.51562,0.85742 c 2.66393,1.59836 5.05493,0.82149 5.94726,-0.81445 0.44617,-0.81798 0.51661,-1.83065 0.11328,-2.76563 -0.40332,-0.93498 -1.27114,-1.77408 -2.61718,-2.3125 -1.15395,-0.46158 -1.78614,-1.12248 -2.07032,-1.781249 -0.28417,-0.65877 -0.22961,-1.3336 0.0742,-1.89062 0.60767,-1.1140603 2.21667,-1.8371903 4.55274,-0.43555 l 0.51562,-0.8574203 c -1.33196,-0.79918 -2.59665,-1.00357 -3.63867,-0.80469 z"
     id="path3133" />
  <path
     id="rect5233"
     style="fill:#8f76e4;fill-opacity:1;stroke-linejoin:round"
     d="m 14.00001,8.9997309 v 2.0000001 h 2 V 8.9997309 Z m -3,5.0000001 v 2 h 2 v -2 z m -3,5 v 2 h 2 v -2 z" />
</svg>
