<?xml version="1.0" encoding="UTF-8" standalone="no"?>
<!-- Created with Inkscape (http://www.inkscape.org/) -->

<svg
   width="24"
   height="24"
   viewBox="0 0 24 24.000001"
   version="1.1"
   id="svg5"
   inkscape:version="1.2.2 (1:1.2.2+202305151914+b0a8486541)"
   sodipodi:docname="rpm.svg"
   xmlns:inkscape="http://www.inkscape.org/namespaces/inkscape"
   xmlns:sodipodi="http://sodipodi.sourceforge.net/DTD/sodipodi-0.dtd"
   xmlns:xlink="http://www.w3.org/1999/xlink"
   xmlns="http://www.w3.org/2000/svg"
   xmlns:svg="http://www.w3.org/2000/svg">
  <sodipodi:namedview
     id="namedview7"
     pagecolor="#ffffff"
     bordercolor="#000000"
     borderopacity="0.25"
     inkscape:showpageshadow="2"
     inkscape:pageopacity="0.0"
     inkscape:pagecheckerboard="0"
     inkscape:deskcolor="#d1d1d1"
     inkscape:document-units="px"
     showgrid="false"
     inkscape:zoom="32.916667"
     inkscape:cx="12"
     inkscape:cy="12"
     inkscape:window-width="1920"
     inkscape:window-height="1012"
     inkscape:window-x="0"
     inkscape:window-y="0"
     inkscape:window-maximized="1"
     inkscape:current-layer="svg5"
     showguides="false" />
  <defs
     id="defs2">
    <linearGradient
       inkscape:collect="always"
       id="linearGradient875">
      <stop
         style="stop-color:#ea4848;stop-opacity:1;"
         offset="0"
         id="stop871" />
      <stop
         style="stop-color:#ed6969;stop-opacity:1;"
         offset="1"
         id="stop873" />
    </linearGradient>
    <linearGradient
       inkscape:collect="always"
       xlink:href="#linearGradient875"
       id="linearGradient4947"
       x1="4"
       y1="1"
       x2="18"
       y2="21"
       gradientUnits="userSpaceOnUse"
       gradientTransform="translate(1,1)" />
  </defs>
  <path
     id="rect234"
     style="opacity:0.2;stroke-width:0.25;stroke-linecap:round;stroke-linejoin:round"
     d="m 5,3 h 9 l 6,6 v 13 c 0,0.554 -0.446,1 -1,1 H 5 C 4.446,23 4,22.554 4,22 V 4 C 4,3.446 4.446,3 5,3 Z"
     sodipodi:nodetypes="sccssssss" />
  <path
     id="rect448"
     style="fill:url(#linearGradient4947);fill-opacity:1;stroke-width:0.25;stroke-linecap:round;stroke-linejoin:round"
     d="m 5,2 h 9 l 1,4 5,2 v 13 c 0,0.554 -0.446,1 -1,1 H 5 C 4.446,22 4,21.554 4,21 V 3 C 4,2.446 4.446,2 5,2 Z"
     sodipodi:nodetypes="scccssssss" />
  <path
     id="path684"
     style="opacity:0.4;fill:#ffffff;stroke-width:1.125;stroke-linecap:round;stroke-linejoin:round;paint-order:stroke fill markers"
     d="M 14.5,15 C 12.014726,15 10,17.014726 10,19.5 a 0.5,0.5 0 0 0 0.5,0.5 0.5,0.5 0 0 0 0.5,-0.5 3.5,3.5 0 0 1 3.5,-3.5 3.5,3.5 0 0 1 2.099609,0.701172 l 0.601563,-0.802734 C 16.448939,15.333144 15.513413,15 14.5,15 Z" />
  <path
     id="path733"
     style="opacity:0.2;fill:#ffffff;stroke-width:1.125;stroke-linecap:round;stroke-linejoin:round;paint-order:stroke fill markers"
     d="m 17.201172,15.898438 -0.601563,0.802734 A 3.5,3.5 0 0 1 18,19.5 0.5,0.5 0 0 0 18.5,20 0.5,0.5 0 0 0 19,19.5 c 0,-0.0085 4.7e-5,-0.01686 0,-0.02539 a 0.5,0.5 0 0 0 0,-0.0059 c -0.01,-1.459021 -0.7141,-2.755155 -1.798828,-3.570312 z" />
  <path
     id="rect287"
     style="opacity:0.8;fill:#ffffff;fill-opacity:1;stroke-width:4;stroke-linecap:round;stroke-linejoin:round"
     d="M 7,2 V 3 H 8 V 2 Z M 8,3 V 4 H 9 V 3 Z M 8,4 H 7 V 5 H 8 Z M 8,5 V 6 H 9 V 5 Z M 8,6 H 7 V 7 H 8 Z M 8,7 V 8 H 9 V 7 Z M 8,8 H 7 v 1 h 1 z m 0,1 v 1 H 9 V 9 Z m 0,1 H 7 v 1 h 1 z m 0,1 v 1 h 1 v -1 z m -1,2 v 2.5 C 7,15.777 7.2230003,16 7.5,16 h 1 C 8.7769997,16 9,15.777 9,15.5 V 13 Z" />
  <path
     d="M 20,9 H 15 C 14.446,9 14,8.554 14,8 V 2 l 6,6 z"
     style="opacity:0.2;fill:#000000;stroke-width:0.25;stroke-linecap:round;stroke-linejoin:round"
     id="path611"
     sodipodi:nodetypes="cssccc" />
  <path
     id="rect600"
     style="fill:#f2bbbb;fill-opacity:1;stroke-width:0.25;stroke-linecap:round;stroke-linejoin:round"
     d="M 20,8 H 15 C 14.446,8 14,7.554 14,7 V 2 Z"
     sodipodi:nodetypes="csscc" />
  <rect
     style="opacity:0.7;fill:#ffffff;fill-opacity:1;stroke-linecap:round;stroke-linejoin:round;paint-order:stroke fill markers"
     id="rect7220"
     width="1"
     height="3"
     x="23.541632"
     y="1.0348907"
     ry="0.5"
     transform="rotate(45)" />
</svg>
