<?xml version="1.0" encoding="UTF-8" standalone="no"?>
<!-- Created with Inkscape (http://www.inkscape.org/) -->

<svg
   width="24"
   height="24"
   viewBox="0 0 24 24.000001"
   version="1.1"
   id="svg5"
   inkscape:version="1.2.1 (9c6d41e410, 2022-07-14)"
   sodipodi:docname="x-office-drawing-template.svg"
   xmlns:inkscape="http://www.inkscape.org/namespaces/inkscape"
   xmlns:sodipodi="http://sodipodi.sourceforge.net/DTD/sodipodi-0.dtd"
   xmlns="http://www.w3.org/2000/svg"
   xmlns:svg="http://www.w3.org/2000/svg">
  <sodipodi:namedview
     id="namedview7"
     pagecolor="#ffffff"
     bordercolor="#000000"
     borderopacity="0.25"
     inkscape:showpageshadow="2"
     inkscape:pageopacity="0.0"
     inkscape:pagecheckerboard="0"
     inkscape:deskcolor="#d1d1d1"
     inkscape:document-units="px"
     showgrid="false"
     inkscape:zoom="34.083333"
     inkscape:cx="11.98533"
     inkscape:cy="12"
     inkscape:window-width="1920"
     inkscape:window-height="1004"
     inkscape:window-x="0"
     inkscape:window-y="0"
     inkscape:window-maximized="1"
     inkscape:current-layer="svg5"
     showguides="true" />
  <defs
     id="defs2" />
  <path
     id="rect234"
     style="opacity:0.2;stroke-width:0.25;stroke-linecap:round;stroke-linejoin:round"
     d="m 5,3 h 9 l 6,6 v 13 c 0,0.554 -0.446,1 -1,1 H 5 C 4.446,23 4,22.554 4,22 V 4 C 4,3.446 4.446,3 5,3 Z"
     sodipodi:nodetypes="sccssssss" />
  <path
     id="rect448"
     style="fill:#ffb940;fill-opacity:1;stroke-width:0.25;stroke-linecap:round;stroke-linejoin:round"
     d="m 5,2 h 9 l 1,4 5,2 v 13 c 0,0.554 -0.446,1 -1,1 H 5 C 4.446,22 4,21.554 4,21 V 3 C 4,2.446 4.446,2 5,2 Z"
     sodipodi:nodetypes="scccssssss" />
  <path
     d="M 20,9 H 15 C 14.446,9 14,8.554 14,8 V 2 l 6,6 z"
     style="opacity:0.2;fill:#000000;stroke-width:0.25;stroke-linecap:round;stroke-linejoin:round"
     id="path611"
     sodipodi:nodetypes="cssccc" />
  <path
     id="rect600"
     style="fill:#fede92;fill-opacity:1;stroke-width:0.25;stroke-linecap:round;stroke-linejoin:round"
     d="M 20,8 H 15 C 14.446,8 14,7.554 14,7 V 2 Z"
     sodipodi:nodetypes="csscc" />
  <path
     d="m 15.970775,11.173796 c -0.262235,-0.08956 -0.598812,-0.143345 -0.919922,0.03711 -0.513348,0.288478 -0.696976,0.866714 -0.697265,1.365234 -2.9e-4,0.49852 0.123654,1.004019 0.232422,1.484375 0.108767,0.480355 0.202221,0.937682 0.199218,1.246094 -0.003,0.308412 -0.03048,0.379176 -0.183593,0.457031 -0.138206,0.07028 -0.203954,0.06977 -0.277344,0.05469 -0.07339,-0.01508 -0.172553,-0.06366 -0.298828,-0.173828 -0.252551,-0.220339 -0.565676,-0.665706 -0.919922,-1.15039 -0.354247,-0.484685 -0.759999,-1.014344 -1.320313,-1.396485 -0.560314,-0.382141 -1.304147,-0.587575 -2.1425782,-0.394531 l -0.0098,0.002 -0.0098,0.0039 c -0.564722,0.15457 -0.9766839,0.585889 -1.2578126,1.097657 -0.2811287,0.511767 -0.4517422,1.125358 -0.5351563,1.77539 -0.00834,0.065 0.00861,0.13354 0.00195,0.199219 -0.142896,-0.0083 -0.2640502,-0.05932 -0.4082032,-0.0625 l -0.9023437,-0.01953 -0.5,-0.01172 -0.021484,1 0.5,0.01172 0.9023438,0.01953 c 0.159514,0.0035 0.2807782,0.05584 0.4375,0.06641 0.033005,0.935107 0.1841872,1.86168 0.6308593,2.591797 l 0.00977,0.01563 0.00977,0.01367 c 0.7201697,1.002347 1.9512759,1.301901 2.8828129,0.935547 0.465768,-0.183177 0.872633,-0.576522 0.996094,-1.115235 0.123461,-0.538712 -0.02743,-1.153575 -0.441407,-1.802734 C 11.5225,16.788425 10.834901,16.386864 10.046884,16.125019 9.6901488,16.006482 9.2560118,16.006722 8.8593837,15.941425 c 0.0069,-0.08369 -0.047622,-0.150502 -0.037109,-0.232422 0.071112,-0.554159 0.2218561,-1.061316 0.4199221,-1.421875 0.19561,-0.356089 0.417344,-0.544141 0.636718,-0.607421 0.5767502,-0.129241 0.9614262,-0.01528 1.3417972,0.24414 0.383684,0.261677 0.739467,0.6968 1.078125,1.160156 0.338659,0.463357 0.650529,0.949914 1.06836,1.314453 0.208915,0.18227 0.456833,0.338955 0.755859,0.400391 0.299025,0.06144 0.631634,0.008 0.93164,-0.144531 0.523889,-0.26638 0.725648,-0.842701 0.730469,-1.337891 0.0048,-0.49519 -0.11569,-0.997487 -0.224609,-1.478515 -0.10892,-0.481029 -0.207217,-0.940707 -0.207031,-1.259766 1.85e-4,-0.319059 0.03854,-0.410431 0.1875,-0.494141 -0.03725,0.02093 -0.0127,-0.0059 0.107421,0.03516 0.120121,0.04102 0.291631,0.136596 0.453125,0.248047 0.322989,0.222901 0.597657,0.492187 0.597657,0.492187 l 0.355531,0.351509 0.703125,-0.710938 -0.355468,-0.351562 c 0,0 -0.31966,-0.31866 -0.732422,-0.603516 -0.206381,-0.142428 -0.436984,-0.281531 -0.699219,-0.371094 z m -6.9472652,5.792969 c 0.226703,0.04798 0.5091,0.041 0.708984,0.107422 0.6570202,0.218316 1.1272902,0.535059 1.3515622,0.886718 0.320338,0.50232 0.355967,0.844783 0.310547,1.042969 -0.04542,0.198187 -0.16277,0.320129 -0.386718,0.408203 -0.442762,0.174129 -1.2341962,0.03182 -1.6855472,-0.574218 -0.267568,-0.44315 -0.231739,-1.19252 -0.298828,-1.871094 z"
     style="color:#000000;fill:#ffffff;stroke:none;stroke-linecap:square;-inkscape-stroke:none"
     id="path1330" />
  <path
     d="m 19.950784,13.001134 c -0.177416,0.0084 -0.352493,0.06215 -0.50586,0.164063 L 7.4468777,21.167151 c -0.822797,0.548968 -0.434434,1.83166 0.554687,1.832031 H 19.999612 c 0.55226,-5.5e-5 0.999945,-0.447739 1,-1 v -8.000001 c -5.51e-4,-0.368746 -0.203966,-0.707273 -0.529297,-0.880859 -0.162358,-0.08688 -0.342115,-0.125638 -0.519531,-0.117188 z m -0.951172,2.998048 v 5 h -8 z"
     style="color:#000000;fill:#000000;stroke-width:2;stroke-linecap:round;stroke-linejoin:round;opacity:0.2"
     id="path5222" />
  <path
     id="path5201"
     style="color:#000000;fill:#ebebec;stroke-width:2;stroke-linecap:round;stroke-linejoin:round;fill-opacity:1"
     d="m 19.951172,12.001953 c -0.177416,0.0084 -0.352493,0.06215 -0.50586,0.164063 L 7.4472656,20.167969 C 6.6244694,20.716937 7.0128324,21.999629 8.0019531,22 H 20 c 0.55226,-5.5e-5 0.999945,-0.447739 1,-1 v -8 c -5.51e-4,-0.368746 -0.203966,-0.707273 -0.529297,-0.880859 -0.162358,-0.08688 -0.342115,-0.125637 -0.519531,-0.117188 z M 19,15 v 5 h -8 z"
     sodipodi:nodetypes="ccccccccccccc" />
</svg>
