<?xml version="1.0" encoding="UTF-8" standalone="no"?>
<!-- Created with Inkscape (http://www.inkscape.org/) -->

<svg
   width="128"
   height="128"
   viewBox="0 0 128 128"
   version="1.1"
   id="svg5"
   inkscape:version="1.2.1 (1:1.2.1+202210291243+9c6d41e410)"
   sodipodi:docname="folder-purple-recent-open.svg"
   xmlns:inkscape="http://www.inkscape.org/namespaces/inkscape"
   xmlns:sodipodi="http://sodipodi.sourceforge.net/DTD/sodipodi-0.dtd"
   xmlns="http://www.w3.org/2000/svg"
   xmlns:svg="http://www.w3.org/2000/svg">
  <sodipodi:namedview
     id="namedview7"
     pagecolor="#ffffff"
     bordercolor="#000000"
     borderopacity="0.25"
     inkscape:showpageshadow="2"
     inkscape:pageopacity="0.0"
     inkscape:pagecheckerboard="0"
     inkscape:deskcolor="#d1d1d1"
     inkscape:document-units="px"
     showgrid="false"
     inkscape:zoom="6.4453125"
     inkscape:cx="64.155152"
     inkscape:cy="64.155152"
     inkscape:window-width="1920"
     inkscape:window-height="1018"
     inkscape:window-x="0"
     inkscape:window-y="28"
     inkscape:window-maximized="1"
     inkscape:current-layer="svg5" />
  <defs
     id="defs2">
    <style
       id="current-color-scheme"
       type="text/css">
         .ColorScheme-Highlight { color:#3daee9; }
     </style>
  </defs>
  <path
     d="m 16,17 c -4.431996,0 -8,3.568004 -8,8 v 80 c 0,4.432 3.568004,8 8,8 h 96 c 4.432,0 8,-3.568 8,-8 V 37 c 0,-4.431996 -3.568,-8 -8,-8 H 64 l -8,-8 c -2.7171,-2.640384 -3.568004,-4 -8,-4 z"
     style="opacity:0.3;fill:#000000;stroke-width:4"
     id="path1016"
     sodipodi:nodetypes="ssssssssccss" />
  <path
     id="rect184"
     style="fill:#8e44ad;fill-opacity:1;stroke-width:4"
     class="ColorScheme-Highlight"
     d="m 16,16 c -4.431996,0 -8,3.568003 -8,8 v 80 c 0,4.432 3.568004,8 8,8 h 96 c 4.432,0 8,-3.568 8,-8 V 36 c 0,-4.431996 -3.568,-8 -8,-8 H 64 l -8,-8 c -2.754764,-2.517342 -3.568004,-4 -8,-4 z"
     sodipodi:nodetypes="sccsssssccss" />
  <path
     id="path1511"
     style="opacity:0.4;fill:#000000;fill-opacity:1;stroke-width:2"
     d="m 16,16 c -4.431988,0 -7.9999998,3.568012 -7.9999998,8 v 36 c 0,-4.418272 3.5817318,-8 7.9999998,-8 h 32 c 4.431988,0 5.33278,-1.5441 8,-4 l 8,-8 h 48 c 4.43198,0 8,3.568016 8,8 V 36 c 0,-4.431988 -3.56801,-8 -8,-8 H 64 l -8,-8 c -2.754756,-2.517336 -3.568012,-4 -8,-4 z" />
  <path
     id="path3081"
     style="opacity:0.2;fill:#ffffff;stroke-width:4"
     d="m 64,40 -8,8 c -2.66722,2.455902 -3.56801,4 -8,4 H 16 c -4.418269,0 -8,3.581728 -8,8 v 1 c 0,-4.418272 3.581731,-8 8,-8 h 32 c 4.431988,0 5.332778,-1.5441 8,-4 l 8,-8 h 48 c 4.43198,0 8,3.568016 8,8 v -1 c 0,-4.431984 -3.56802,-8 -8,-8 z"
     sodipodi:nodetypes="ccssscssccscssc" />
  <path
     id="path5851"
     style="opacity:0.6;fill:#ffffff;fill-opacity:1;stroke-width:2.25;stroke-linecap:round;stroke-linejoin:round"
     d="m 50,64 v 8 h 8 V 70 H 53.523438 C 56.41871,67.446438 60.13961,66.02578 64,66 c 8.836556,0 16,7.163444 16,16 0,8.836556 -7.163444,16 -16,16 -4.237664,-0.0152 -8.296246,-1.710774 -11.285156,-4.714844 l -1.441406,1.441406 c 5.14732,5.146872 12.887874,6.686968 19.61328,3.902344 C 77.613168,95.84347 81.99936,89.280368 82,82 81.99936,74.719632 77.613168,68.15653 70.886718,65.371094 68.703414,64.466396 66.363322,64.000502 64,64 59.5654,64.0146 55.292262,65.665706 52,68.636718 V 64 Z m 14,6.000782 v 12 L 71.898438,89.899218 73.3125,88.485156 66,81.172656 V 70.000782 Z"
     sodipodi:nodetypes="ccccccsccccccccccccccccc" />
</svg>
