<?xml version="1.0" encoding="UTF-8" standalone="no"?>
<!-- Created with Inkscape (http://www.inkscape.org/) -->

<svg
   width="128"
   height="128"
   viewBox="0 0 128 128"
   version="1.1"
   id="svg5"
   inkscape:version="1.2.1 (1:1.2.1+202210291243+9c6d41e410)"
   sodipodi:docname="folder-yellow-pictures.svg"
   xmlns:inkscape="http://www.inkscape.org/namespaces/inkscape"
   xmlns:sodipodi="http://sodipodi.sourceforge.net/DTD/sodipodi-0.dtd"
   xmlns="http://www.w3.org/2000/svg"
   xmlns:svg="http://www.w3.org/2000/svg">
  <sodipodi:namedview
     id="namedview7"
     pagecolor="#ffffff"
     bordercolor="#000000"
     borderopacity="0.25"
     inkscape:showpageshadow="2"
     inkscape:pageopacity="0.0"
     inkscape:pagecheckerboard="0"
     inkscape:deskcolor="#d1d1d1"
     inkscape:document-units="px"
     showgrid="false"
     inkscape:zoom="6.4453125"
     inkscape:cx="64.465455"
     inkscape:cy="64.465455"
     inkscape:window-width="1920"
     inkscape:window-height="1018"
     inkscape:window-x="0"
     inkscape:window-y="28"
     inkscape:window-maximized="1"
     inkscape:current-layer="svg5" />
  <defs
     id="defs2">
    <style
       id="current-color-scheme"
       type="text/css">
         .ColorScheme-Highlight { color:#3daee9; }
     </style>
  </defs>
  <path
     d="m 16,17 c -4.431996,0 -8,3.568004 -8,8 v 80 c 0,4.432 3.568004,8 8,8 h 96 c 4.432,0 8,-3.568 8,-8 V 37 c 0,-4.431996 -3.568,-8 -8,-8 H 64 l -8,-8 c -2.7171,-2.640384 -3.568004,-4 -8,-4 z"
     style="opacity:0.3;fill:#000000;stroke-width:4"
     id="path1016"
     sodipodi:nodetypes="ssssssssccss" />
  <path
     id="rect184"
     style="fill:#f2cb40;fill-opacity:1;stroke-width:4"

     d="m 16,16 c -4.431996,0 -8,3.568004 -8,8 v 80 c 0,4.432 3.568004,8 8,8 h 96 c 4.432,0 8,-3.568 8,-8 V 36 c 0,-4.431996 -3.568,-8 -8,-8 H 64 l -8,-8 c -2.754764,-2.517342 -3.568004,-4 -8,-4 z"
     sodipodi:nodetypes="sccsssssccss" />
  <path
     id="path1511"
     style="opacity:0.4;fill:#000000;fill-opacity:1;stroke-width:2"
     d="m 16,16 c -4.431991,0 -7.9999996,3.568008 -7.9999996,8 v 24 c 0,-4.418268 3.5817356,-8 7.9999996,-8 h 32 c 4.431984,0 5.332784,-1.5441 8,-4 l 8,-8 -8,-8 c -2.75476,-2.51734 -3.568008,-4 -8,-4 z" />
  <path
     id="path3081"
     style="opacity:0.2;fill:#ffffff;stroke-width:4"
     d="m 64,28 -8,8 c -2.66722,2.455902 -3.56801,4 -8,4 H 16 c -4.418269,0 -8,3.581728 -8,8 v 1 c 0,-4.418272 3.581731,-8 8,-8 h 32 c 4.431988,0 5.332778,-1.5441 8,-4 l 8,-8 h 48 c 4.43198,0 8,3.568016 8,8 v -1 c 0,-4.431984 -3.56802,-8 -8,-8 z"
     sodipodi:nodetypes="ccssscssccscssc" />
  <path
     id="path297"
     style="color:#363636;opacity:0.6;fill:#333333;stroke-width:2"
     d="m 46,58 c -2.215998,0 -4,1.784002 -4,4 v 25.999999 c 0,2.215998 1.784002,3.999999 4,3.999999 h 36 c 2.215998,0 4,-1.784001 4,-3.999999 V 62 c 0,-2.215998 -1.784002,-4 -4,-4 z m 0,2 h 36 c 1.107996,0 2,0.892002 2,2 v 19.999999 l -11.999999,-12 -14.000002,12 -5.999999,-6 -8,8 V 62 c 0,-1.107998 0.892002,-2 2,-2 z m 6,4 c -2.209144,0 -4,1.790856 -4,4 0,2.209143 1.790856,3.999999 4,3.999999 2.209145,0 3.999999,-1.790856 3.999999,-3.999999 0,-2.209144 -1.790854,-4 -3.999999,-4 z"
     sodipodi:nodetypes="sssssssssssscccccsssssss" />
</svg>
