<?xml version="1.0" encoding="UTF-8" standalone="no"?>
<svg
   height="24"
   width="24"
   version="1.1"
   id="svg1"
   sodipodi:docname="community-supported-symbolic.svg"
   inkscape:version="1.4.2 (ebf0e940d0, 2025-05-08)"
   xmlns:inkscape="http://www.inkscape.org/namespaces/inkscape"
   xmlns:sodipodi="http://sodipodi.sourceforge.net/DTD/sodipodi-0.dtd"
   xmlns="http://www.w3.org/2000/svg"
   xmlns:svg="http://www.w3.org/2000/svg">
  <defs
     id="defs1">
    <style
       id="current-color-scheme"
       type="text/css">
        .ColorScheme-Text { color:#f2f2f2; }
     </style>
  </defs>
  <sodipodi:namedview
     id="namedview1"
     pagecolor="#ffffff"
     bordercolor="#000000"
     borderopacity="0.25"
     inkscape:showpageshadow="2"
     inkscape:pageopacity="0.0"
     inkscape:pagecheckerboard="0"
     inkscape:deskcolor="#d1d1d1"
     inkscape:zoom="33.666667"
     inkscape:cx="11.985149"
     inkscape:cy="12"
     inkscape:window-width="1920"
     inkscape:window-height="1011"
     inkscape:window-x="0"
     inkscape:window-y="0"
     inkscape:window-maximized="1"
     inkscape:current-layer="svg1" />
  <path
     id="path1"
     style="fill:currentColor"
     class="ColorScheme-Text"
     d="M 8.78125,5 C 6.16325,5 4,7.129 4,9.75 a 4.77,4.77 0 0 0 1.5039062,3.478516 v 0.0019 l 6.3906248,6.146487 6.59961,-6.146484 A 4.761,4.761 0 0 0 20,9.75 C 20,7.129 17.83675,5 15.21875,5 13.92875,5 12.859,5.6219844 12,6.4589844 11.14,5.6219844 10.07025,5 8.78125,5 Z m 0,1 A 3.74,3.74 0 0 1 12,7.8125 3.741,3.741 0 0 1 15.21875,6 C 17.30075,6 19,7.675 19,9.75 c 0,1.08 -0.4555,2.065 -1.1875,2.75 L 11.90625,18 6.1875,12.5 A 3.766,3.766 0 0 1 5,9.75 C 5,7.675 6.70025,6 8.78125,6 Z" />
</svg>
