<?xml version="1.0" encoding="UTF-8" standalone="no"?>
<svg
   width="24"
   height="24"
   version="1.1"
   id="svg2"
   sodipodi:docname="zoom-in-symbolic.svg"
   inkscape:version="1.4.4 (dcaf3e7d9e, 2026-05-05)"
   xmlns:inkscape="http://www.inkscape.org/namespaces/inkscape"
   xmlns:sodipodi="http://sodipodi.sourceforge.net/DTD/sodipodi-0.dtd"
   xmlns="http://www.w3.org/2000/svg"
   xmlns:svg="http://www.w3.org/2000/svg">
  <defs
     id="defs2">
    <style
       id="current-color-scheme"
       type="text/css">
        .ColorScheme-Text { color:#f2f2f2; }
     </style>
  </defs>
  <sodipodi:namedview
     id="namedview2"
     pagecolor="#ffffff"
     bordercolor="#000000"
     borderopacity="0.25"
     inkscape:showpageshadow="2"
     inkscape:pageopacity="0.0"
     inkscape:pagecheckerboard="0"
     inkscape:deskcolor="#d1d1d1"
     inkscape:zoom="33.416667"
     inkscape:cx="12"
     inkscape:cy="12"
     inkscape:window-width="1920"
     inkscape:window-height="1010"
     inkscape:window-x="0"
     inkscape:window-y="0"
     inkscape:window-maximized="1"
     inkscape:current-layer="svg2" />
  <path
     id="path1"
     style="fill:currentColor"
     class="ColorScheme-Text"
     d="M 11.462891,5 A 7.5,7.5 0 0 0 4,12.5 7.5,7.5 0 0 0 11.5,20 7.5,7.5 0 0 0 19,12.5 7.5,7.5 0 0 0 11.5,5 7.5,7.5 0 0 0 11.462891,5 Z M 11.5,6 A 6.5,6.5 0 0 1 18,12.5 6.5,6.5 0 0 1 11.5,19 6.5,6.5 0 0 1 5,12.5 6.5,6.5 0 0 1 11.5,6 Z M 11,9 v 3 H 8 v 1 h 3 v 3 h 1 v -3 h 3 V 12 H 12 V 9 Z" />
</svg>
