<?xml version="1.0" encoding="UTF-8" standalone="no"?>
<svg
   width="24"
   height="24"
   version="1.1"
   id="svg3"
   sodipodi:docname="auth-sim-locked-symbolic.svg"
   inkscape:version="1.4.2 (ebf0e940d0, 2025-05-08)"
   xmlns:inkscape="http://www.inkscape.org/namespaces/inkscape"
   xmlns:sodipodi="http://sodipodi.sourceforge.net/DTD/sodipodi-0.dtd"
   xmlns="http://www.w3.org/2000/svg"
   xmlns:svg="http://www.w3.org/2000/svg">
  <defs
     id="defs3">
    <style
       id="current-color-scheme"
       type="text/css">
        .ColorScheme-Text { color:#363636; }
        .ColorScheme-NeutralText { color:#f67400; }
        .ColorScheme-PositiveText { color:#37c837; }
        .ColorScheme-NegativeText { color:#f44336; }
     </style>
  </defs>
  <sodipodi:namedview
     id="namedview3"
     pagecolor="#ffffff"
     bordercolor="#000000"
     borderopacity="0.25"
     inkscape:showpageshadow="2"
     inkscape:pageopacity="0.0"
     inkscape:pagecheckerboard="0"
     inkscape:deskcolor="#d1d1d1"
     inkscape:zoom="33.125"
     inkscape:cx="12"
     inkscape:cy="12"
     inkscape:window-width="1920"
     inkscape:window-height="1010"
     inkscape:window-x="0"
     inkscape:window-y="0"
     inkscape:window-maximized="1"
     inkscape:current-layer="svg3" />
  <path
     id="path1"
     style="fill:currentColor"
     class="ColorScheme-Text"
     d="M 10,5 6,9 V 10.414063 17 c 0,1.108 0.892,2 2,2 h 5 V 18 H 8 C 7.446,18 7,17.554 7,17 V 9.4140625 L 10.414063,6 H 16 c 0.554,0 1,0.446 1,1 v 5 h 1 V 7 C 18,5.892 17.108,5 16,5 Z m -2,6 v 3 h 2 v -3 z m 3,0 v 2 h 2 v -2 z m 3,0 v 3 h 0.169922 C 14.470252,13.14532 15.1453,12.470222 16,12.169922 V 11 Z m -3,3 v 3 h 2 v -3 z m -3,1 v 2 h 2 v -2 z" />
  <path
     id="path3"
     style="fill:currentColor"
     class="ColorScheme-Text"
     d="m 17,13 c -1.108,0 -2,0.892 -2,2 v 1 c -0.554,0 -1,0.446 -1,1 v 2 c 0,0.554 0.446,1 1,1 h 4 c 0.554,0 1,-0.446 1,-1 v -2 c 0,-0.554 -0.446,-1 -1,-1 v -1 c 0,-1.108 -0.892,-2 -2,-2 z m 0,1 c 0.554,0 1,0.446 1,1 v 1 h -2 v -1 c 0,-0.554 0.446,-1 1,-1 z m -2,3 h 4 v 2 h -4 z" />
</svg>
