<?xml version="1.0" encoding="UTF-8" standalone="no"?>
<svg
   width="24"
   height="24"
   version="1.1"
   id="svg2"
   sodipodi:docname="channel-insecure-symbolic.svg"
   inkscape:version="1.4.2 (ebf0e940d0, 2025-05-08)"
   xmlns:inkscape="http://www.inkscape.org/namespaces/inkscape"
   xmlns:sodipodi="http://sodipodi.sourceforge.net/DTD/sodipodi-0.dtd"
   xmlns="http://www.w3.org/2000/svg"
   xmlns:svg="http://www.w3.org/2000/svg">
  <defs
     id="defs2">
    <style
       id="current-color-scheme"
       type="text/css">
        .ColorScheme-Text { color:#363636; }
        .ColorScheme-NeutralText { color:#f67400; }
        .ColorScheme-PositiveText { color:#37c837; }
        .ColorScheme-NegativeText { color:#f44336; }
     </style>
  </defs>
  <sodipodi:namedview
     id="namedview2"
     pagecolor="#ffffff"
     bordercolor="#000000"
     borderopacity="0.25"
     inkscape:showpageshadow="2"
     inkscape:pageopacity="0.0"
     inkscape:pagecheckerboard="0"
     inkscape:deskcolor="#d1d1d1"
     inkscape:zoom="33.125"
     inkscape:cx="12"
     inkscape:cy="12"
     inkscape:window-width="1920"
     inkscape:window-height="1010"
     inkscape:window-x="0"
     inkscape:window-y="0"
     inkscape:window-maximized="1"
     inkscape:current-layer="svg2" />
  <path
     id="path1"
     style="fill:currentColor"
     class="ColorScheme-Text"
     d="M 12,4 C 9.784,4 8,5.784 8,8 v 0.8847656 l 1,1 V 8 c 0,-1.662 1.338,-3 3,-3 1.662,0 3,1.338 3,3 v 2 H 9.1152344 l 0.9999996,1 H 16 c 0.554,0 1,0.446 1,1 v 5 a 0.984,0.984 0 0 1 -0.246094,0.638672 l 0.714844,0.714844 C 17.79675,17.997516 18,17.524 18,17 v -5 c 0,-1.108 -0.892,-2 -2,-2 V 8 C 16,5.784 14.216,4 12,4 Z M 7.4394531,10.089844 A 1.988,1.988 0 0 0 6,12 v 5 c 0,1.108 0.892,2 2,2 h 8 c 0.109,0 0.214359,-0.01525 0.318359,-0.03125 L 15.349609,18 H 8 C 7.446,18 7,17.554 7,17 v -5 c 0,-0.554 0.446,-1 1,-1 h 0.3496094 z" />
  <path
     id="path2"
     style="fill:currentColor"
     class="ColorScheme-NegativeText error"
     d="M 5.4394531,4.5605469 4.5566406,5.4414062 18.556641,19.441406 19.439453,18.560547 Z" />
</svg>
