<?xml version="1.0" encoding="UTF-8" standalone="no"?>
<svg
   height="24"
   width="24"
   version="1.1"
   id="svg1"
   sodipodi:docname="keyboard-brightness-symbolic.svg"
   inkscape:version="1.4.2 (ebf0e940d0, 2025-05-08)"
   xmlns:inkscape="http://www.inkscape.org/namespaces/inkscape"
   xmlns:sodipodi="http://sodipodi.sourceforge.net/DTD/sodipodi-0.dtd"
   xmlns="http://www.w3.org/2000/svg"
   xmlns:svg="http://www.w3.org/2000/svg">
  <defs
     id="defs1">
    <style
       id="current-color-scheme"
       type="text/css">.ColorScheme-Text {
        color:#363636;
        }</style>
  </defs>
  <sodipodi:namedview
     id="namedview1"
     pagecolor="#ffffff"
     bordercolor="#000000"
     borderopacity="0.25"
     inkscape:showpageshadow="2"
     inkscape:pageopacity="0.0"
     inkscape:pagecheckerboard="0"
     inkscape:deskcolor="#d1d1d1"
     inkscape:zoom="33.125"
     inkscape:cx="12"
     inkscape:cy="12"
     inkscape:window-width="1920"
     inkscape:window-height="1010"
     inkscape:window-x="0"
     inkscape:window-y="0"
     inkscape:window-maximized="1"
     inkscape:current-layer="svg1" />
  <path
     id="path1"
     style="fill:currentColor"
     class="ColorScheme-Text"
     d="M 11.75,8 A 0.25,0.25 0 0 0 11.5,8.25 v 1.5 c 0,0.139 0.112,0.25 0.25,0.25 h 0.5 A 0.25,0.25 0 0 0 12.5,9.75 V 8.25 A 0.25,0.25 0 0 0 12.25,8 Z m 3.767578,1.0644531 a 0.253,0.253 0 0 0 -0.0332,0.00391 0.247,0.247 0 0 0 -0.162109,0.099609 l -0.882813,1.2128909 a 0.25,0.25 0 0 0 0.05469,0.349609 l 0.404297,0.294922 a 0.247,0.247 0 0 0 0.347656,-0.05469 l 0.88476,-1.2128945 A 0.25,0.25 0 0 0 16.076172,9.4082031 L 15.671875,9.1132812 A 0.253,0.253 0 0 0 15.517578,9.0644531 Z M 8.390625,9.125 A 0.245,0.245 0 0 0 8.2402344,9.1757812 L 7.8398438,9.4765625 a 0.249,0.249 0 0 0 -0.048828,0.3496094 l 0.9023438,1.1972661 c 0.083,0.111 0.2405625,0.131828 0.3515625,0.04883 l 0.3984373,-0.300782 a 0.249,0.249 0 0 0 0.048828,-0.349609 L 8.5898438,9.2246094 A 0.252,0.252 0 0 0 8.4238281,9.1269531 0.245,0.245 0 0 0 8.390625,9.125 Z m -2.4394531,3.324219 a 0.248,0.248 0 0 0 -0.2402344,0.185547 l -0.1308594,0.482422 a 0.25,0.25 0 0 0 0.1777344,0.30664 L 7.2070312,13.8125 A 0.25,0.25 0 0 0 7.5136719,13.634766 L 7.6425781,13.152344 A 0.25,0.25 0 0 0 7.4648438,12.845703 L 6.015625,12.457031 a 0.248,0.248 0 0 0 -0.064453,-0.0078 z m 12.0976561,0 a 0.248,0.248 0 0 0 -0.06445,0.0078 l -1.449219,0.388672 a 0.25,0.25 0 0 0 -0.177734,0.30664 l 0.128906,0.482422 a 0.25,0.25 0 0 0 0.306638,0.177737 l 1.449219,-0.388672 a 0.25,0.25 0 0 0 0.177734,-0.30664 l -0.13086,-0.482422 A 0.248,0.248 0 0 0 18.048828,12.449219 Z M 9.25,14 A 0.25,0.25 0 0 0 9,14.25 v 0.5 C 9,14.889 9.112,15 9.25,15 h 5.5 A 0.25,0.25 0 0 0 15,14.75 v -0.5 A 0.25,0.25 0 0 0 14.75,14 Z" />
</svg>
