<?xml version="1.0" encoding="UTF-8" standalone="no"?>
<svg
   width="24"
   height="24"
   version="1.1"
   id="svg1"
   sodipodi:docname="night-light-symbolic.svg"
   inkscape:version="1.4.2 (ebf0e940d0, 2025-05-08)"
   xmlns:inkscape="http://www.inkscape.org/namespaces/inkscape"
   xmlns:sodipodi="http://sodipodi.sourceforge.net/DTD/sodipodi-0.dtd"
   xmlns="http://www.w3.org/2000/svg"
   xmlns:svg="http://www.w3.org/2000/svg">
  <defs
     id="defs1">
    <style
       id="current-color-scheme"
       type="text/css">
        .ColorScheme-Text { color:#363636; }
        .ColorScheme-NeutralText { color:#f67400; }
        .ColorScheme-PositiveText { color:#37c837; }
        .ColorScheme-NegativeText { color:#f44336; }
        .ColorScheme-Highlight { color:#3daee9; }
     </style>
  </defs>
  <sodipodi:namedview
     id="namedview1"
     pagecolor="#ffffff"
     bordercolor="#000000"
     borderopacity="0.25"
     inkscape:showpageshadow="2"
     inkscape:pageopacity="0.0"
     inkscape:pagecheckerboard="0"
     inkscape:deskcolor="#d1d1d1"
     inkscape:zoom="33.125"
     inkscape:cx="12"
     inkscape:cy="12"
     inkscape:window-width="1920"
     inkscape:window-height="1010"
     inkscape:window-x="0"
     inkscape:window-y="0"
     inkscape:window-maximized="1"
     inkscape:current-layer="svg1" />
  <path
     id="path1"
     style="fill:currentColor"
     class="ColorScheme-Text"
     d="m 11.5,4 v 2 h 1 V 4 Z M 6.6972656,5.9902344 5.9902344,6.6972656 7.4042969,8.1113281 8.1113281,7.4042969 Z m 10.6054684,0 -1.414062,1.4140625 0.707031,0.7070312 1.416016,-1.4140625 z M 12,7 a 5,5 0 0 0 0,10 5,5 0 0 0 0,-10 z m -1.048828,1 a 3.589,3.589 0 0 0 -0.691406,3.195313 3.596,3.596 0 0 0 4.402343,2.542968 C 15.152109,13.605281 15.608,13.367875 16,13.046875 A 4.084,4.084 0 0 1 13.138672,15.861328 4.081,4.081 0 0 1 10.951172,8 Z M 4,11.5 v 1 h 2 v -1 z m 14,0 v 1 h 2 v -1 z m -10.5957031,4.388672 -1.4140625,1.414062 0.7070312,0.707032 1.4140625,-1.414063 z m 9.1914061,0 -0.707031,0.707031 1.414062,1.414063 0.707032,-0.707032 z M 11.5,17.998047 v 2 h 1 v -2 z" />
</svg>
