<?xml version="1.0" encoding="UTF-8" standalone="no"?>
<svg
   width="24"
   height="24"
   enable-background="new 0 0 64 64"
   version="1.1"
   viewBox="0 0 24 24"
   id="svg3"
   sodipodi:docname="task-due-symbolic.svg"
   inkscape:version="1.4.2 (ebf0e940d0, 2025-05-08)"
   xmlns:inkscape="http://www.inkscape.org/namespaces/inkscape"
   xmlns:sodipodi="http://sodipodi.sourceforge.net/DTD/sodipodi-0.dtd"
   xmlns="http://www.w3.org/2000/svg"
   xmlns:svg="http://www.w3.org/2000/svg">
  <defs
     id="defs3">
    <style
       id="current-color-scheme"
       type="text/css">
        .ColorScheme-Text { color:#363636; }
        .ColorScheme-NeutralText { color:#f67400; }
        .ColorScheme-PositiveText { color:#37c837; }
        .ColorScheme-NegativeText { color:#f44336; }
        .ColorScheme-Highlight { color:#3daee9; }
     </style>
  </defs>
  <sodipodi:namedview
     id="namedview3"
     pagecolor="#ffffff"
     bordercolor="#000000"
     borderopacity="0.25"
     inkscape:showpageshadow="2"
     inkscape:pageopacity="0.0"
     inkscape:pagecheckerboard="0"
     inkscape:deskcolor="#d1d1d1"
     inkscape:zoom="33.125"
     inkscape:cx="12"
     inkscape:cy="12"
     inkscape:window-width="1920"
     inkscape:window-height="1010"
     inkscape:window-x="0"
     inkscape:window-y="0"
     inkscape:window-maximized="1"
     inkscape:current-layer="svg3" />
  <path
     id="path1"
     style="fill:currentColor"
     class="ColorScheme-Text"
     d="M 12,4 C 10.8954,4 10,4.89543 10,6 H 8 V 6.00586 C 6.887,6.0384386 6,6.9392969 6,8.0605469 V 16.939453 C 6,18.081453 6.9185769,19 8.0605469,19 h 4.0546871 c 0.02117,-0.05089 0.04602,-0.101098 0.07422,-0.150391 L 12.671875,18 H 8 C 7.446,18 7,17.554 7,17 V 8 C 7,7.446 7.446,7 8,7 h 1 v 1 h 6 V 7 h 1 c 0.554,0 1,0.446 1,1 v 4.818359 c 0.308953,0.114751 0.57571,0.33481 0.746094,0.628907 l 0.0039,0.0039 0.25,0.441406 V 8.0605469 C 18,6.9185469 17.081423,6 15.939453,6 H 14 C 14,5.862 13.99475,5.72375 13.96875,5.59375 13.7726,4.66339 12.9509,3.9982 12,4 Z m -0.01172,1 c 0.0039,-2.29e-5 0.0078,-2.29e-5 0.01172,0 0.414,0 0.75425,0.266 0.90625,0.625 C 12.963141,5.74216 12.995066,5.86986 13,6 12.999939,6.88813 11.928375,7.3351975 11.296875,6.7109375 10.665305,6.0866775 11.100211,5.0104 11.988281,5 Z M 9,10 v 1 h 6 v -1 z m 0,2 v 1 h 6 v -1 z m 0,2 v 1 h 3 v -1 z" />
  <path
     id="path2"
     style="fill:currentColor"
     class="ColorScheme-NeutralText warning"
     d="m 16.478516,13.728516 a 0.443,0.443 0 0 0 -0.359375,0.220703 l -3.060547,5.396484 A 0.437,0.437 0 0 0 13.4375,20 h 6.125 a 0.437,0.437 0 0 0 0.378906,-0.654297 l -3.060547,-5.396484 a 0.442,0.442 0 0 0 -0.40039,-0.220703 z M 15.998047,15 h 1 v 0.167969 c 0,0.348 -0.01587,0.667031 -0.04687,0.957031 -0.03,0.29 -0.06923,0.581 -0.115234,0.875 h -0.666016 a 12.898,12.898 0 0 1 -0.125,-0.875 9.146,9.146 0 0 1 -0.04687,-0.957031 z m 0.5,3 a 0.5,0.5 0 0 1 0,1 0.5,0.5 0 0 1 0,-1 z" />
</svg>
