<?xml version="1.0" encoding="UTF-8" standalone="no"?>
<!-- Created with Inkscape (http://www.inkscape.org/) -->

<svg
   width="24"
   height="24"
   viewBox="0 0 24 24"
   version="1.1"
   id="svg5"
   inkscape:version="1.2.1 (1:1.2.1+202210291243+9c6d41e410)"
   sodipodi:docname="folder-pink-download-open.svg"
   xmlns:inkscape="http://www.inkscape.org/namespaces/inkscape"
   xmlns:sodipodi="http://sodipodi.sourceforge.net/DTD/sodipodi-0.dtd"
   xmlns="http://www.w3.org/2000/svg"
   xmlns:svg="http://www.w3.org/2000/svg">
  <sodipodi:namedview
     id="namedview7"
     pagecolor="#ffffff"
     bordercolor="#000000"
     borderopacity="0.25"
     inkscape:showpageshadow="2"
     inkscape:pageopacity="0.0"
     inkscape:pagecheckerboard="0"
     inkscape:deskcolor="#d1d1d1"
     inkscape:document-units="px"
     showgrid="false"
     inkscape:zoom="34.375"
     inkscape:cx="12"
     inkscape:cy="12"
     inkscape:window-width="1920"
     inkscape:window-height="1018"
     inkscape:window-x="0"
     inkscape:window-y="28"
     inkscape:window-maximized="1"
     inkscape:current-layer="svg5" />
  <defs
     id="defs2">
    <style
       id="current-color-scheme"
       type="text/css">
         .ColorScheme-Highlight { color:#3daee9; }
     </style>
  </defs>
  <path
     d="M 2,3 C 1.4460005,3 1,3.4460005 1,4 v 18 c 0,0.554 0.4460005,1 1,1 h 20 c 0.554,0 1,-0.446 1,-1 V 7 C 23,6.4460005 22.554,6 22,6 H 12 L 10,3.5 C 9.6603625,3.169952 9.5539995,3 9,3 Z"
     style="opacity:0.3;fill:#000000;stroke-width:0.5"
     id="path1016"
     sodipodi:nodetypes="ssssssssccss" />
  <path
     id="rect184"
     style="fill:#fa3ea5;fill-opacity:1;stroke-width:0.5"

     d="M 2,2 C 1.4460006,2 1,2.4460004 1,3 v 18 c 0,0.554 0.4460006,1 1,1 h 20 c 0.554,0 1,-0.446 1,-1 V 6 C 23,5.4460005 22.554,5 22,5 H 12 L 10,2.5 C 9.655655,2.1853323 9.554,2 9,2 Z"
     sodipodi:nodetypes="sccsssssccss" />
  <path
     d="M 2,2 C 1.4460012,2 1,2.446001 1,3 v 9 c 0,-0.552284 0.4477164,-1 1,-1 h 6.9999998 c 0.5539984,0 0.6665974,-0.193012 1.0000001,-0.5 L 12,8 h 10 c 0.553998,0 1,0.4460021 1,1 V 6 C 23,5.4460011 22.553999,5 22,5 H 12 L 10,2.5 C 9.6556548,2.1853326 9.5539989,2 9,2 Z"
     style="opacity:0.4;fill:#000000;fill-opacity:1;stroke-width:0.5"
     id="path1511"
     sodipodi:nodetypes="sscssccscssccss" />
  <path
     id="path3081"
     style="opacity:0.2;fill:#ffffff;stroke-width:0.5"
     d="m 12,8 -2,2.5 C 9.666598,10.806988 9.553999,11 9,11 H 2 c -0.5522836,0 -1,0.447716 -1,1 v 1 c 0,-0.552284 0.4477164,-1 1,-1 h 7 c 0.553999,0 0.666597,-0.193012 1,-0.5 L 12,9 h 10 c 0.553998,0 1,0.446002 1,1 V 9 C 23,8.446002 22.553998,8 22,8 Z"
     sodipodi:nodetypes="ccssscssccscssc" />
  <path
     id="rect6657"
     style="opacity:0.6;fill:#ffffff;stroke-width:3;stroke-linecap:round;stroke-linejoin:round"
     d="M 11.5,11 C 11.223,11 11,11.223 11,11.5 v 5.585937 L 8.9047573,14.990484 c -0.1958763,-0.19586 -0.511162,-0.195869 -0.7070308,0 -0.09793,0.09793 -0.1464833,0.225707 -0.1464843,0.353517 -9e-7,0.127808 0.04855,0.255584 0.1464843,0.353515 L 11.5,19 14.804516,15.697516 c 0.195866,-0.195869 0.195866,-0.511163 0,-0.707032 -0.195869,-0.195869 -0.511166,-0.195871 -0.707032,0 L 12,17.085937 V 11.5 C 12,11.223 11.776998,11 11.5,11 Z M 7.5566406,20 C 7.2483661,20 7,20.222999 7,20.5 7,20.776999 7.2483661,21 7.5566406,21 H 15.443359 C 15.751634,21 16,20.776999 16,20.5 16,20.222999 15.751634,20 15.443359,20 Z"
     sodipodi:nodetypes="ssccsscccsccsssssssss" />
</svg>
