<?xml version="1.0" encoding="UTF-8" standalone="no"?>
<!-- Created with Inkscape (http://www.inkscape.org/) -->

<svg
   width="24"
   height="24"
   viewBox="0 0 24 24"
   version="1.1"
   id="svg5"
   inkscape:version="1.2.1 (1:1.2.1+202210291243+9c6d41e410)"
   sodipodi:docname="folder-orange-network-open.svg"
   xmlns:inkscape="http://www.inkscape.org/namespaces/inkscape"
   xmlns:sodipodi="http://sodipodi.sourceforge.net/DTD/sodipodi-0.dtd"
   xmlns="http://www.w3.org/2000/svg"
   xmlns:svg="http://www.w3.org/2000/svg">
  <sodipodi:namedview
     id="namedview7"
     pagecolor="#ffffff"
     bordercolor="#000000"
     borderopacity="0.25"
     inkscape:showpageshadow="2"
     inkscape:pageopacity="0.0"
     inkscape:pagecheckerboard="0"
     inkscape:deskcolor="#d1d1d1"
     inkscape:document-units="px"
     showgrid="false"
     inkscape:zoom="34.375"
     inkscape:cx="12.029091"
     inkscape:cy="12.029091"
     inkscape:window-width="1920"
     inkscape:window-height="1018"
     inkscape:window-x="0"
     inkscape:window-y="28"
     inkscape:window-maximized="1"
     inkscape:current-layer="svg5" />
  <defs
     id="defs2">
    <style
       id="current-color-scheme"
       type="text/css">
         .ColorScheme-Highlight { color:#3daee9; }
     </style>
  </defs>
  <path
     d="M 2,3 C 1.4460005,3 1,3.4460005 1,4 v 18 c 0,0.554 0.4460005,1 1,1 h 20 c 0.554,0 1,-0.446 1,-1 V 7 C 23,6.4460005 22.554,6 22,6 H 12 L 10,3.5 C 9.6603625,3.169952 9.5539995,3 9,3 Z"
     style="opacity:0.3;fill:#000000;stroke-width:0.5"
     id="path1016"
     sodipodi:nodetypes="ssssssssccss" />
  <path
     id="rect184"
     style="fill:#f89406;fill-opacity:1;stroke-width:0.5"

     d="M 2,2 C 1.4460006,2 1,2.4460004 1,3 v 18 c 0,0.554 0.4460006,1 1,1 h 20 c 0.554,0 1,-0.446 1,-1 V 6 C 23,5.4460005 22.554,5 22,5 H 12 L 10,2.5 C 9.655655,2.1853323 9.554,2 9,2 Z"
     sodipodi:nodetypes="sccsssssccss" />
  <path
     d="M 2,2 C 1.4460012,2 1,2.446001 1,3 v 9 c 0,-0.552284 0.4477164,-1 1,-1 h 6.9999998 c 0.5539984,0 0.6665974,-0.193012 1.0000001,-0.5 L 12,8 h 10 c 0.553998,0 1,0.4460021 1,1 V 6 C 23,5.4460011 22.553999,5 22,5 H 12 L 10,2.5 C 9.6556548,2.1853326 9.5539989,2 9,2 Z"
     style="opacity:0.4;fill:#000000;fill-opacity:1;stroke-width:0.5"
     id="path1511"
     sodipodi:nodetypes="sscssccscssccss" />
  <path
     id="path3081"
     style="opacity:0.2;fill:#ffffff;stroke-width:0.5"
     d="m 12,8 -2,2.5 C 9.666598,10.806988 9.553999,11 9,11 H 2 c -0.5522836,0 -1,0.447716 -1,1 v 1 c 0,-0.552284 0.4477164,-1 1,-1 h 7 c 0.553999,0 0.666597,-0.193012 1,-0.5 L 12,9 h 10 c 0.553998,0 1,0.446002 1,1 V 9 C 23,8.446002 22.553998,8 22,8 Z"
     sodipodi:nodetypes="ccssscssccscssc" />
  <path
     id="path1014"
     style="opacity:0.6;fill:#ffffff;stroke-width:2.4;stroke-linecap:round;stroke-linejoin:round"
     d="m 14,11 c -1.104569,0 -2,0.895431 -2,2 8.81e-4,0.174204 0.02452,0.347546 0.07031,0.515625 l -1.630859,1.095703 C 10.062496,14.220627 9.5429034,13.999959 9.0000004,14 7.895431,14 7,14.895431 7,16 c 0,1.104569 0.895431,2 2.0000004,2 0.541834,-0.0015 1.0598616,-0.222836 1.4355466,-0.613281 l 1.634765,1.097656 c -0.04579,0.168079 -0.06943,0.341421 -0.07031,0.515625 0,1.104569 0.895431,2 2,2 1.104569,0 2,-0.895431 2,-2 0,-1.104569 -0.895431,-2 -2,-2 -0.541834,0.0015 -1.059862,0.222836 -1.435547,0.613281 L 10.92969,16.515625 C 10.97548,16.347546 10.99912,16.174204 11,16 10.999756,15.825882 10.97677,15.652542 10.93164,15.484375 l 1.632812,-1.097656 C 12.940138,14.777164 13.458166,14.998471 14,15 c 1.104569,0 2,-0.895431 2,-2 0,-1.104569 -0.895431,-2 -2,-2 z m 0,1 c 0.552285,0 1,0.447715 1,1 0,0.552285 -0.447715,1 -1,1 -0.552285,0 -1,-0.447715 -1,-1 0,-0.552285 0.447715,-1 1,-1 z m -4.9999996,3 c 0.552285,0 0.9999993,0.447715 0.9999993,1 0,0.552285 -0.4477143,1 -0.9999993,1 -0.552285,0 -1,-0.447715 -1,-1 0,-0.552285 0.447715,-1 1,-1 z M 14,18 c 0.552285,0 1,0.447715 1,1 0,0.552285 -0.447715,1 -1,1 -0.552285,0 -1,-0.447715 -1,-1 0,-0.552285 0.447715,-1 1,-1 z"
     sodipodi:nodetypes="sccccsccccsscccccccsssssssssssssssss" />
</svg>
