<?xml version="1.0" encoding="UTF-8" standalone="no"?>
<!-- Created with Inkscape (http://www.inkscape.org/) -->

<svg
   width="16"
   height="16"
   viewBox="0 0 16 16"
   version="1.1"
   id="svg5"
   inkscape:version="1.2.1 (9c6d41e410, 2022-07-14)"
   sodipodi:docname="folder-open-symbolic.svg"
   xmlns:inkscape="http://www.inkscape.org/namespaces/inkscape"
   xmlns:sodipodi="http://sodipodi.sourceforge.net/DTD/sodipodi-0.dtd"
   xmlns="http://www.w3.org/2000/svg"
   xmlns:svg="http://www.w3.org/2000/svg">
  <sodipodi:namedview
     id="namedview7"
     pagecolor="#ffffff"
     bordercolor="#666666"
     borderopacity="1.0"
     inkscape:showpageshadow="2"
     inkscape:pageopacity="0.0"
     inkscape:pagecheckerboard="0"
     inkscape:deskcolor="#d1d1d1"
     inkscape:document-units="px"
     showgrid="false"
     showguides="false"
     inkscape:zoom="48.5"
     inkscape:cx="8.0206186"
     inkscape:cy="8.0103093"
     inkscape:window-width="1920"
     inkscape:window-height="1007"
     inkscape:window-x="0"
     inkscape:window-y="0"
     inkscape:window-maximized="1"
     inkscape:current-layer="svg5" />
  <defs
     id="defs2">
    <inkscape:path-effect
       effect="bspline"
       id="path-effect1577"
       is_visible="true"
       lpeversion="1"
       weight="33.333333"
       steps="2"
       helper_size="0"
       apply_no_weight="true"
       apply_with_weight="true"
       only_selected="false" />
  </defs>
  <path
     d="M 2,1 C 0.892,1 0,1.892 0,3 V 9.9999996 13 c 0,1.108 0.892,2 2,2 h 12 c 1.108,0 2,-0.892 2,-2 V 9.9999996 8.0000001 5 C 16,3.892 15.108,3 14,3 H 8 L 6,1 Z m 0,1 h 3.5859 l 2,2 H 14 c 0.554,0 1,0.446 1,1 V 6.2754 C 14.705,6.1043 14.36693,6.00001 14,6.00001 H 7.5859 l -2,2.0000001 H 2 c -0.36693,0 -0.705,0.10429 -1,0.27539 V 3 C 1,2.4460001 1.446,2 2,2 Z m 6,5 h 6 c 0.554,0 1,0.446 1,1.0000001 v 1.5 V 9.9999996 13 c 0,0.554 -0.446,1 -1,1 H 2 C 1.446,14 1,13.554 1,13 V 9.9999996 C 1,9.4460001 1.446,9.0000001 2,9.0000001 h 4 z"
     style="paint-order:stroke fill markers;fill:#f2f2f2;fill-opacity:1"
     id="path5493" />
</svg>
