<?xml version="1.0" encoding="UTF-8" standalone="no"?>
<!-- Created with Inkscape (http://www.inkscape.org/) -->

<svg
   width="22"
   height="22"
   viewBox="0 0 22 22"
   version="1.1"
   id="svg5"
   sodipodi:docname="emblem-new.svg"
   inkscape:version="1.2.1 (9c6d41e410, 2022-07-14)"
   xmlns:inkscape="http://www.inkscape.org/namespaces/inkscape"
   xmlns:sodipodi="http://sodipodi.sourceforge.net/DTD/sodipodi-0.dtd"
   xmlns="http://www.w3.org/2000/svg"
   xmlns:svg="http://www.w3.org/2000/svg">
  <sodipodi:namedview
     id="namedview7"
     pagecolor="#ffffff"
     bordercolor="#666666"
     borderopacity="1.0"
     inkscape:showpageshadow="2"
     inkscape:pageopacity="0.0"
     inkscape:pagecheckerboard="0"
     inkscape:deskcolor="#d1d1d1"
     inkscape:document-units="px"
     showgrid="false"
     inkscape:zoom="34.208333"
     inkscape:cx="11.035323"
     inkscape:cy="11.020707"
     inkscape:window-width="1920"
     inkscape:window-height="1011"
     inkscape:window-x="0"
     inkscape:window-y="32"
     inkscape:window-maximized="1"
     inkscape:current-layer="svg5"
     showguides="false" />
  <defs
     id="defs2" />
  <rect
     style="fill:#808a92;fill-opacity:1;stroke:none"
     id="rect184"
     width="20"
     height="20"
     x="1.0000001"
     y="1"
     ry="3" />
  <path
     id="rect2335"
     style="opacity:1;fill:#ffffff;fill-opacity:1;stroke-linecap:round;stroke-linejoin:round"
     d="m 10,4 v 6 H 4 v 2 h 6 v 6 h 2 v -6 h 6 V 10 H 12 V 4 Z" />
  <path
     id="rect2016"
     style="opacity:0.4;fill:#000000;fill-opacity:1;stroke-linecap:round;stroke-linejoin:round"
     d="M 4,1 C 2.3380034,1 1,2.3380034 1,4 v 14 c 0,1.661996 1.3380034,3 3,3 h 14 c 1.661996,0 3,-1.338004 3,-3 V 4 C 21,2.3380034 19.661996,1 18,1 Z m 0,1 h 14 c 1.107998,0 2,0.8920022 2,2 v 14 c 0,1.107998 -0.892002,2 -2,2 H 4 C 2.8920023,20 2,19.107998 2,18 V 4 C 2,2.8920022 2.8920022,2 4,2 Z" />
</svg>
