<?xml version="1.0" encoding="UTF-8" standalone="no"?>
<!-- Created with Inkscape (http://www.inkscape.org/) -->

<svg
   width="24"
   height="24"
   viewBox="0 0 24 24"
   version="1.1"
   id="svg5"
   inkscape:version="1.2.1 (9c6d41e410, 2022-07-14)"
   sodipodi:docname="bluetooth.svg"
   xmlns:inkscape="http://www.inkscape.org/namespaces/inkscape"
   xmlns:sodipodi="http://sodipodi.sourceforge.net/DTD/sodipodi-0.dtd"
   xmlns:xlink="http://www.w3.org/1999/xlink"
   xmlns="http://www.w3.org/2000/svg"
   xmlns:svg="http://www.w3.org/2000/svg">
  <sodipodi:namedview
     id="namedview7"
     pagecolor="#ffffff"
     bordercolor="#000000"
     borderopacity="0.25"
     inkscape:showpageshadow="2"
     inkscape:pageopacity="0.0"
     inkscape:pagecheckerboard="0"
     inkscape:deskcolor="#d1d1d1"
     inkscape:document-units="px"
     showgrid="false"
     inkscape:zoom="32.916667"
     inkscape:cx="11.98481"
     inkscape:cy="12"
     inkscape:window-width="1920"
     inkscape:window-height="1011"
     inkscape:window-x="0"
     inkscape:window-y="0"
     inkscape:window-maximized="1"
     inkscape:current-layer="svg5"
     showguides="true" />
  <defs
     id="defs2">
    <inkscape:perspective
       sodipodi:type="inkscape:persp3d"
       inkscape:vp_x="0 : 13 : 1"
       inkscape:vp_y="0 : 1000 : 0"
       inkscape:vp_z="22 : 13 : 1"
       inkscape:persp3d-origin="11 : 9.3333333 : 1"
       id="perspective1743" />
    <linearGradient
       inkscape:collect="always"
       id="linearGradient1818">
      <stop
         style="stop-color:#017cd9;stop-opacity:1;"
         offset="0"
         id="stop1814" />
      <stop
         style="stop-color:#3fa3e8;stop-opacity:1;"
         offset="1"
         id="stop1816" />
    </linearGradient>
    <linearGradient
       inkscape:collect="always"
       xlink:href="#linearGradient1818"
       id="linearGradient929"
       x1="3"
       y1="0"
       x2="17"
       y2="20"
       gradientUnits="userSpaceOnUse"
       gradientTransform="translate(1.9999997,1.9999998)" />
  </defs>
  <rect
     style="opacity:0.2;fill:#000000"
     id="rect1683"
     width="14"
     height="20"
     x="5"
     y="2.9995437"
     ry="7" />
  <rect
     style="fill:url(#linearGradient929);fill-opacity:1"
     id="rect367"
     width="14"
     height="20"
     x="5"
     y="2"
     ry="7" />
  <path
     d="m 11.322327,5.0294718 c -0.19404,0.07377 -0.32231,0.25977 -0.32231,0.46736 V 10.825034 L 7.8089342,8.1035648 c -0.21714,-0.1706 -0.53146,-0.13289 -0.70207,0.08425 -0.17061,0.21714 -0.13289,0.5314597 0.08425,0.7020697 l 3.6813828,3.1066705 -3.6813828,3.10702 c -0.21714,0.1706 -0.25486,0.4849 -0.08425,0.702 0.17061,0.2172 0.48493,0.2549 0.70207,0.0843 l 3.1910828,-2.72172 v 5.328337 c 0,0.2076 0.12827,0.3936 0.32231,0.4674 0.194039,0.0738 0.41348,0.02 0.551399,-0.1352 l 3.999317,-3.499807 c 0.09159,-0.103 0.13658,-0.2393 0.12431,-0.3767 -0.01227,-0.1373 -0.0807,-0.2635 -0.18911,-0.3486 l -3.317117,-2.60703 3.317117,-2.6066505 c 0.10841,-0.08518 0.17684,-0.21135 0.18911,-0.34867 0.01227,-0.13733 -0.03272,-0.27362 -0.12431,-0.37667 L 11.873726,5.1646118 c -0.156221,-0.136716 -0.35736,-0.20895 -0.551399,-0.13518 z m 0.67769,7.8530022 2.572426,2.179131 -2.572426,2.119807 z m 0,-1.7718 V 6.8118718 l 2.572426,2.1199527 z"
     id="path346"
     sodipodi:nodetypes="csccsccccccssccccccscscccccccccc"
     style="fill:#ffffff" />
</svg>
