<?xml version="1.0" encoding="UTF-8" standalone="no"?>
<!-- Created with Inkscape (http://www.inkscape.org/) -->

<svg
   width="24"
   height="24"
   viewBox="0 0 24 24"
   version="1.1"
   id="svg5"
   inkscape:version="1.2.1 (9c6d41e410, 2022-07-14)"
   sodipodi:docname="network-wireless.svg"
   xmlns:inkscape="http://www.inkscape.org/namespaces/inkscape"
   xmlns:sodipodi="http://sodipodi.sourceforge.net/DTD/sodipodi-0.dtd"
   xmlns:xlink="http://www.w3.org/1999/xlink"
   xmlns="http://www.w3.org/2000/svg"
   xmlns:svg="http://www.w3.org/2000/svg">
  <sodipodi:namedview
     id="namedview7"
     pagecolor="#ffffff"
     bordercolor="#000000"
     borderopacity="0.25"
     inkscape:showpageshadow="2"
     inkscape:pageopacity="0.0"
     inkscape:pagecheckerboard="0"
     inkscape:deskcolor="#d1d1d1"
     inkscape:document-units="px"
     showgrid="false"
     inkscape:zoom="33.416667"
     inkscape:cx="11.985037"
     inkscape:cy="12"
     inkscape:window-width="1920"
     inkscape:window-height="1008"
     inkscape:window-x="0"
     inkscape:window-y="0"
     inkscape:window-maximized="1"
     inkscape:current-layer="svg5" />
  <defs
     id="defs2">
    <linearGradient
       inkscape:collect="always"
       id="linearGradient3147">
      <stop
         style="stop-color:#41bbff;stop-opacity:1;"
         offset="0"
         id="stop3143" />
      <stop
         style="stop-color:#0091f9;stop-opacity:1;"
         offset="1"
         id="stop3145" />
    </linearGradient>
    <linearGradient
       inkscape:collect="always"
       xlink:href="#linearGradient3147"
       id="linearGradient4383"
       x1="21"
       y1="21"
       x2="1"
       y2="1"
       gradientUnits="userSpaceOnUse"
       gradientTransform="translate(1,1)" />
    <linearGradient
       inkscape:collect="always"
       id="linearGradient1606">
      <stop
         style="stop-color:#eaebed;stop-opacity:1;"
         offset="0"
         id="stop1602" />
      <stop
         style="stop-color:#f9fafa;stop-opacity:1;"
         offset="1"
         id="stop1604" />
    </linearGradient>
    <linearGradient
       inkscape:collect="always"
       xlink:href="#linearGradient1606"
       id="linearGradient6885"
       x1="1"
       y1="1"
       x2="21"
       y2="21"
       gradientUnits="userSpaceOnUse"
       gradientTransform="translate(1,1)" />
  </defs>
  <path
     id="path530"
     style="fill:url(#linearGradient6885);fill-opacity:1;stroke-width:0.750005;stroke-linecap:round;stroke-linejoin:round"
     d="M 10,2 C 3.174114,2 2,3.2048695 2,10 v 4 c 0,6.79513 1.174114,8 8,8 h 4 c 6.825886,0 8,-1.20487 8,-8 V 10 C 22,3.2048695 20.825886,2 14,2 Z"
     sodipodi:nodetypes="sssssssss" />
  <path
     id="path234"
     style="fill:url(#linearGradient4383);fill-opacity:1;stroke:none"
     d="M 12,7 C 9.1723209,7 6.5429784,8.2480625 5.09375,10.339844 a 0.5,0.5 0 0 0 0.1269531,0.695312 0.5,0.5 0 0 0 0.6953125,-0.125 C 7.1462738,9.1344314 9.4687057,8 12,8 c 2.531294,0 4.853727,1.1344316 6.083984,2.910156 a 0.5,0.5 0 0 0 0.695313,0.125 0.5,0.5 0 0 0 0.126953,-0.695312 C 17.457021,8.2480627 14.827679,7 12,7 Z m 0,3 c -1.94637,0 -3.7560602,0.93107 -4.75,2.480469 a 0.5,0.5 0 0 0 0.1503906,0.689453 0.5,0.5 0 0 0 0.6894532,-0.15039 C 8.8822266,11.784329 10.373725,11 12,11 c 1.626275,0 3.117774,0.784329 3.910156,2.019532 a 0.5,0.5 0 0 0 0.689453,0.15039 A 0.5,0.5 0 0 0 16.75,12.480469 C 15.75606,10.93107 13.94637,10 12,10 Z m 0,3 c -1.053209,0 -2.0385782,0.50222 -2.5859375,1.355469 a 0.5,0.5 0 0 0 0.1503906,0.689453 0.5,0.5 0 0 0 0.6914059,-0.15039 C 10.601661,14.35548 11.266886,14 12,14 c 0.733114,0 1.398339,0.35548 1.744141,0.894532 a 0.5,0.5 0 0 0 0.691406,0.15039 0.5,0.5 0 0 0 0.150391,-0.689453 C 14.038578,13.502221 13.053209,13 12,13 Z m 0,3 a 1,1 0 0 0 -1,1 1,1 0 0 0 1,1 1,1 0 0 0 1,-1 1,1 0 0 0 -1,-1 z" />
</svg>
