<?xml version="1.0" encoding="UTF-8" standalone="no"?>
<!-- Created with Inkscape (http://www.inkscape.org/) -->

<svg
   width="256"
   height="256"
   viewBox="0 0 256 256"
   version="1.1"
   id="svg5"
   inkscape:version="1.4.4 (dcaf3e7d9e, 2026-05-05)"
   sodipodi:docname="androidstudio-preview.svg"
   xmlns:inkscape="http://www.inkscape.org/namespaces/inkscape"
   xmlns:sodipodi="http://sodipodi.sourceforge.net/DTD/sodipodi-0.dtd"
   xmlns="http://www.w3.org/2000/svg"
   xmlns:svg="http://www.w3.org/2000/svg">
  <sodipodi:namedview
     id="namedview7"
     pagecolor="#ffffff"
     bordercolor="#000000"
     borderopacity="0.25"
     inkscape:showpageshadow="2"
     inkscape:pageopacity="0.0"
     inkscape:pagecheckerboard="0"
     inkscape:deskcolor="#d1d1d1"
     inkscape:document-units="px"
     showgrid="false"
     inkscape:zoom="3.1328125"
     inkscape:cx="128"
     inkscape:cy="128"
     inkscape:window-width="1920"
     inkscape:window-height="1010"
     inkscape:window-x="0"
     inkscape:window-y="0"
     inkscape:window-maximized="1"
     inkscape:current-layer="svg5" />
  <defs
     id="defs2" />
  <path
     d="M 104,17 C 31.190476,17 16,32.518536 16,105 v 48 c 0,72.48146 15.190476,88 88,88 h 48 c 72.80952,0 88,-15.51854 88,-88 V 105 C 240,32.518536 224.80952,17 152,17"
     style="opacity:0.2;fill:#000000;stroke-width:8;stroke-linecap:round;stroke-linejoin:round"
     id="path563" />
  <path
     id="path533"
     style="fill:#132f40;fill-opacity:1;stroke-width:8;stroke-linecap:round;stroke-linejoin:round"
     d="M 104,16 C 31.190552,16 16,31.518608 16,104 v 48 c 0,72.4814 15.190552,88 88,88 h 48 c 72.80946,0 88,-15.5186 88,-88 V 104 C 240,31.518608 224.80946,16 152,16 Z" />
  <path
     id="path3"
     d="m 184.05612,104 c -0.62936,-0.0104 -1.25476,0.24948 -1.69531,0.76562 l -5.02344,5.88282 c -4.0776,-3.2488 -9.24017,-5.1875 -14.85937,-5.1875 -1.928,0 -3.80597,0.22464 -5.60157,0.65625 l 16.32031,44.53906 c 6.3348,-3.19 11.05396,-9.11336 12.60156,-16.22656 l 7.60156,1.46875 c 1.1844,0.2292 2.3333,-0.54216 2.5625,-1.72656 0.2292,-1.1844 -0.54956,-2.3333 -1.73436,-2.5625 l -7.89844,-1.53126 c 0.008,-0.2496 0.016,-0.4984 0.016,-0.75 0,-5.9876 -2.20956,-11.45843 -5.85157,-15.64843 l 5.18751,-6.07813 c 0.7832,-0.9176 0.6754,-2.29492 -0.2422,-3.07812 -0.40182,-0.34248 -0.89368,-0.51535 -1.38318,-0.52344 z m -16.05469,8 a 4,4 0 0 1 4,4 4,4 0 0 1 -4,4 4,4 0 0 1 -4,-4 4,4 0 0 1 4,-4 z m 8,20 a 4,4 0 0 1 4,4 4,4 0 0 1 -4,4 4,4 0 0 1 -4,-4 4,4 0 0 1 4,-4 z"
     style="fill:#3ddc84;fill-opacity:1;stroke-width:4" />
  <path
     id="path8"
     style="fill:#ffffff;fill-opacity:1;stroke-width:4"
     d="m 131.57174,48 c -1.97479,0 -3.8689,0.782972 -5.26562,2.179688 -1.39631,1.396716 -2.17969,3.29042 -2.17969,5.265624 v 17.843752 c -1.22601,0.14908 -2.43011,0.491868 -3.57031,1.023436 -2.84539,1.32676 -5.05107,3.729972 -6.125,6.679688 L 96.165496,131.17188 C 91.30008,127.1105 87.05592,122.22041 83.704556,116.71094 81.659868,113.47666 78.563032,112 75.415496,112 c -3.632888,0 -7.32972,1.84795 -9.52344,4.73438 -2.193716,2.88642 -2.885444,6.80823 -0.523436,10.96874 v 0.008 l 0.008,0.008 c 5.997928,9.85269 14.03222,17.9519 23.320312,23.97656 l -9.007812,24.74219 c -0.53144,1.46095 -0.39064,25.07813 -0.39064,25.07813 -0.21724,0.67872 -0.172,1.41486 0.125,2.0625 0.2966,0.64804 0.828568,1.1589 1.484372,1.4375 0.655812,0.2786 1.389916,0.29856 2.062504,0.0626 0.672172,-0.23604 1.232384,-0.70836 1.570312,-1.33594 0,0 16.866992,-17.7504 17.398432,-19.21094 l 8.43733,-23.17234 c 6.434,1.73724 13.11666,2.64062 19.875,2.64062 7.39968,0 14.88665,-1.08027 22.24219,-3.33594 l 8.77344,23.9375 c 0.5167,1.4585 17.32812,19.14062 17.32812,19.14062 0.33752,0.6276 0.89814,1.0999 1.57032,1.33594 0.67217,0.23604 1.40669,0.21612 2.0625,-0.0626 0.65581,-0.2782 1.18733,-0.78946 1.48437,-1.4375 0.29699,-0.64762 0.34183,-1.38378 0.125,-2.0625 0,0 -0.0451,-23.5213 -0.59375,-24.96874 L 148.20456,80.921876 c -1.09193,-2.881804 -3.27528,-5.211252 -6.07813,-6.492188 C 141.13053,73.97454 140.0809,73.661708 139.01706,73.5 V 55.445312 c 0,-1.975204 -0.78338,-3.868908 -2.17969,-5.265624 C 135.44065,48.782972 133.54654,48 131.57174,48 Z m -0.0781,55.34375 13.96094,38.10156 C 140.4168,143.05254 135.29674,144 130.23581,144 c -4.3795,0 -8.71439,-0.59873 -12.91407,-1.72656 z" />
  <path
     d="m 132.00165,100 c 4.24321,0 8.31274,-1.685824 11.31357,-4.686208 3.00039,-3.000828 4.68621,-7.070364 4.68621,-11.313572 0,-4.243652 -1.68582,-8.313188 -4.68621,-11.313564 C 140.31439,69.68582 136.24486,68 132.00165,68 c -4.24365,0 -8.31319,1.68582 -11.31356,4.686656 -3.00084,3.000376 -4.68666,7.069912 -4.68666,11.313564 0,4.243208 1.68582,8.312744 4.68666,11.313572 C 123.68846,98.314176 127.758,100 132.00165,100 Z"
     fill="#e4e4e4"
     id="path15"
     style="fill:#132f40;fill-opacity:1;stroke-width:4" />
  <path
     id="path17"
     style="fill:#ffffff;fill-opacity:1;stroke-width:4"
     d="m 132.00143,64 c -2.62678,0 -5.22947,0.518524 -7.65625,1.523436 -2.42634,1.00536 -4.62723,2.4788 -6.48437,4.33594 -1.85715,1.857144 -3.33103,4.058036 -4.33594,6.484376 -1.00536,2.426344 -1.52344,5.029908 -1.52344,7.656248 0,5.30446 2.10893,10.389736 5.85938,14.140624 C 121.6117,101.89107 126.69697,104 132.00143,104 c 5.30402,0 10.38973,-2.10893 14.14063,-5.859376 3.75089,-3.750888 5.85937,-8.836164 5.85937,-14.140624 0,-2.62634 -0.51807,-5.229904 -1.52343,-7.656248 -1.00492,-2.426336 -2.4788,-4.627232 -4.33594,-6.484376 -1.85714,-1.85714 -4.05804,-3.33058 -6.48438,-4.33594 C 137.23089,64.518524 134.62777,64 132.00143,64 Z m 0,8.328124 c 3.09509,0 6.06161,1.23348 8.25,3.421876 2.18839,2.188392 3.42188,5.155352 3.42188,8.25 0,3.095088 -1.23349,6.061608 -3.42188,8.25 -2.18839,2.18884 -5.15491,3.421876 -8.25,3.421876 -3.09464,0 -6.0616,-1.233036 -8.25,-3.421876 -2.18839,-2.188392 -3.41406,-5.154912 -3.41406,-8.25 0,-3.094648 1.22567,-6.061608 3.41406,-8.25 2.1884,-2.188396 5.15536,-3.421876 8.25,-3.421876 z" />
</svg>
