<?xml version="1.0" encoding="UTF-8" standalone="no"?>
<!-- Created with Inkscape (http://www.inkscape.org/) -->

<svg
   width="256"
   height="256"
   viewBox="0 0 256 256"
   version="1.1"
   id="svg5"
   inkscape:version="1.4.4 (dcaf3e7d9e, 2026-05-05)"
   sodipodi:docname="blockbench.svg"
   xmlns:inkscape="http://www.inkscape.org/namespaces/inkscape"
   xmlns:sodipodi="http://sodipodi.sourceforge.net/DTD/sodipodi-0.dtd"
   xmlns:xlink="http://www.w3.org/1999/xlink"
   xmlns="http://www.w3.org/2000/svg"
   xmlns:svg="http://www.w3.org/2000/svg">
  <sodipodi:namedview
     id="namedview7"
     pagecolor="#ffffff"
     bordercolor="#000000"
     borderopacity="0.25"
     inkscape:showpageshadow="2"
     inkscape:pageopacity="0.0"
     inkscape:pagecheckerboard="0"
     inkscape:deskcolor="#d1d1d1"
     inkscape:document-units="px"
     showgrid="false"
     inkscape:zoom="3.1328125"
     inkscape:cx="128"
     inkscape:cy="128"
     inkscape:window-width="1920"
     inkscape:window-height="1010"
     inkscape:window-x="0"
     inkscape:window-y="0"
     inkscape:window-maximized="1"
     inkscape:current-layer="svg5"
     showguides="true" />
  <defs
     id="defs2">
    <linearGradient
       inkscape:collect="always"
       xlink:href="#linearGradient3"
       id="linearGradient3500"
       x1="2"
       y1="2"
       x2="30"
       y2="30"
       gradientUnits="userSpaceOnUse"
       gradientTransform="scale(8)" />
    <linearGradient
       id="linearGradient3"
       inkscape:collect="always">
      <stop
         style="stop-color:#1a97e0;stop-opacity:1;"
         offset="0"
         id="stop3" />
      <stop
         style="stop-color:#52b0e8;stop-opacity:1;"
         offset="1"
         id="stop4" />
    </linearGradient>
  </defs>
  <path
     d="M 104,17 C 31.190476,17 16,32.518536 16,105 v 48 c 0,72.48146 15.190476,88 88,88 h 48 c 72.80952,0 88,-15.51854 88,-88 V 105 C 240,32.518536 224.80952,17 152,17"
     style="opacity:0.2;fill:#000000;stroke-width:8;stroke-linecap:round;stroke-linejoin:round"
     id="path563" />
  <path
     id="path530"
     style="fill:url(#linearGradient3500);fill-opacity:1;stroke-width:8;stroke-linecap:round;stroke-linejoin:round"
     d="M 104,16 C 31.190548,16 16,31.518608 16,104 v 48 c 0,72.4814 15.190548,88 88,88 h 48 c 72.80946,0 88,-15.5186 88,-88 V 104 C 240,31.518608 224.80946,16 152,16 Z" />
  <path
     d="m 205.44326,72.0004 c -1.83102,0.016 -7.39848,0.41992 -25.44477,1.662632 -6.77411,0.4664 -17.2325,1.185896 -23.24083,1.599016 -6.00835,0.41312 -15.79199,1.085768 -21.74143,1.494856 -5.94944,0.40912 -15.87766,1.0864 -22.06273,1.504896 -21.141516,1.430488 -19.842924,1.314496 -20.834412,1.862192 -1.237336,0.68352 -2.018608,2.036128 -2.390936,4.139392 -0.16616,0.938944 -0.39344,1.94796 -0.50496,2.242496 -0.11152,0.29448 -0.2724,1.101448 -0.35728,1.79316 -0.08488,0.69168 -0.28224,1.619848 -0.4384,2.062584 -0.15616,0.44272 -0.35456,1.36824 -0.44056,2.056304 -0.08592,0.68808 -0.2756,1.543192 -0.42136,1.900264 -0.1456,0.35704 -0.33296,1.214832 -0.41624,1.906536 -0.08344,0.69168 -0.27584,1.609656 -0.4276,2.039568 -0.15176,0.42992 -0.34792,1.307664 -0.43624,1.950884 -0.08848,0.64328 -0.28128,1.51077 -0.4284,1.92787 -0.14712,0.41704 -0.33992,1.28465 -0.4284,1.92787 -0.08848,0.64328 -0.28128,1.51077 -0.42848,1.92788 -0.14712,0.41704 -0.33992,1.28465 -0.4284,1.92786 -0.08848,0.64328 -0.28128,1.51077 -0.42848,1.92787 -0.1472,0.41704 -0.33992,1.28465 -0.42848,1.92788 -0.0884,0.64328 -0.28128,1.51077 -0.42848,1.92786 -0.1472,0.41704 -0.33992,1.28465 -0.42848,1.92787 -0.08848,0.64328 -0.28128,1.51078 -0.42848,1.92788 -0.1472,0.41704 -0.34008,1.28688 -0.42848,1.93247 -0.08832,0.6456 -0.25288,1.41453 -0.3656,1.70906 -0.11272,0.29448 -0.34176,1.30667 -0.50912,2.24919 -0.28352,1.5965 -0.27752,1.75028 0.08488,2.24918 0.76504,1.0531 1.688632,1.29166 8.350912,2.15714 3.499008,0.45456 8.964576,1.17052 12.145476,1.59067 3.18088,0.42016 8.69924,1.14642 12.26302,1.61409 3.56377,0.46768 9.44358,1.23983 13.06627,1.71575 3.62267,0.47592 9.14104,1.19576 12.26302,1.59986 6.78619,0.87839 17.73259,2.31214 22.11629,2.89684 7.18732,0.95862 9.7609,1.30031 15.36893,2.04124 3.23979,0.42808 8.25209,1.09478 11.13847,1.48147 6.5914,0.88305 6.75922,0.88936 7.1477,0.2724 0.30064,-0.47744 0.72144,-2.36582 1.63412,-7.33663 0.2596,-1.41377 0.69392,-3.72721 0.96558,-5.14098 0.2716,-1.41377 0.70288,-3.67902 0.95806,-5.03389 0.25512,-1.35486 0.6432,-3.28274 0.86222,-4.28416 0.21904,-1.00142 0.46088,-2.20634 0.5376,-2.6776 0.1426,-0.876 0.5084,-2.7877 1.47472,-7.71148 0.30064,-1.53159 0.74368,-3.82023 0.98482,-5.08618 0.24112,-1.26595 0.63632,-3.33842 0.87774,-4.605468 0.24152,-1.267056 0.66528,-3.46072 0.94172,-4.874488 0.2764,-1.413776 0.7052,-3.630824 0.95346,-4.926776 0.40984,-2.140048 0.70648,-3.65956 1.94414,-9.960672 0.92496,-4.7094 0.9687,-5.224384 0.50744,-6.014136 -0.23056,-0.39488 -0.7352,-0.902488 -1.1212,-1.127936 -0.2968,-0.17336 -0.0504,-0.30384 -1.14884,-0.29448 z M 76.002952,130.7281 c -0.878464,-0.01 -1.714256,0.0544 -2.569576,0.18656 -1.178104,0.18264 -10.3834,1.49966 -20.456216,2.92652 -10.072816,1.42687 -18.732296,2.74569 -19.242976,2.93072 -2.165896,0.7848 -2.345464,3.51364 -0.29872,4.53894 0.439368,0.22008 1.377416,0.56808 2.08428,0.7736 0.706856,0.20552 1.526184,0.44936 1.820712,0.54136 0.29452,0.0922 0.921064,0.27208 1.392308,0.4004 1.343768,0.36584 4.822804,1.34431 6.158288,1.73207 0.38292,0.11112 1.081712,0.30944 1.552956,0.44056 0.47124,0.13112 1.145976,0.3216 1.499408,0.42344 1.043824,0.30064 5.29236,1.49988 6.104736,1.72328 0.41232,0.11344 1.400336,0.39968 2.19556,0.63632 0.7952,0.23664 2.096496,0.624 2.89172,0.8606 0.7952,0.23664 1.831424,0.5368 2.302664,0.66736 0.4712,0.13048 1.097784,0.3112 1.392304,0.40168 0.29448,0.0905 0.921064,0.26776 1.392312,0.3936 2.0082,0.5364 3.492576,0.95763 8.35384,2.37092 2.827464,0.82202 6.008352,1.72729 7.068648,2.01197 3.177592,0.85317 17.83956,5.04992 20.027816,5.73258 1.119194,0.3492 2.420474,0.74384 2.891714,0.87732 0.47128,0.13352 1.28769,0.37912 1.81444,0.5464 0.52664,0.1672 1.53882,0.44888 2.24911,0.62584 0.71032,0.17696 1.58066,0.40656 1.93409,0.51 0.35344,0.10344 0.97997,0.28184 1.3923,0.39664 0.4124,0.1148 1.7618,0.51376 2.99883,0.88653 3.22212,0.97115 4.67168,1.38304 6.10472,1.73375 0.47128,0.11528 1.48335,0.39696 2.24912,0.62592 0.76576,0.22888 2.4526,0.71424 3.74852,1.07898 1.29592,0.3648 2.77151,0.80154 3.27956,0.97063 0.508,0.16912 1.71289,0.50672 2.67751,0.75056 0.96459,0.24376 3.68199,1.01081 6.0382,1.70447 6.22538,1.83268 6.5708,1.91844 7.33891,1.81992 0.38432,-0.0496 10.60104,-5.08369 22.70408,-11.18775 23.79814,-12.00242 22.97182,-11.52617 22.97182,-13.24617 0,-1.17353 0.94478,-0.94304 -11.03137,-2.69182 -3.18089,-0.46448 -7.0847,-1.03286 -8.67515,-1.2635 -1.59044,-0.23064 -3.85561,-0.56776 -5.03373,-0.74888 -1.17811,-0.18112 -4.79275,-0.71296 -8.03253,-1.1819 -3.23981,-0.46888 -8.54129,-1.24038 -11.78108,-1.7145 -3.23979,-0.47408 -7.86654,-1.14784 -10.28166,-1.49695 -5.57455,-0.8058 -17.43328,-2.5443 -24.09764,-3.53276 -2.82745,-0.41936 -7.11684,-1.04746 -9.53196,-1.39569 -14.765604,-2.12898 -19.3235,-2.81336 -20.563316,-3.08718 -1.98796,-0.43912 -3.570456,-0.65688 -5.03456,-0.67232 z m -12.44752,23.93731 c -0.38536,0.0818 -8.222064,16.90685 -8.222064,17.65249 0,0.84578 0.6096,1.80512 1.35256,2.12826 0.86636,0.37688 1.033792,0.378 2.016504,0.016 0.44416,-0.16384 1.81996,-0.60632 3.056976,-0.98318 1.237008,-0.37696 2.995136,-0.92025 3.90708,-1.20744 1.590824,-0.50104 2.667976,-0.83041 6.91008,-2.11446 3.509128,-1.06218 5.709184,-1.81813 6.285464,-2.16007 1.149072,-0.68176 2.376064,-2.92404 3.684512,-6.73207 0.37856,-1.10185 0.38144,-1.19556 0.0432,-1.45008 -0.19872,-0.1496 -0.75008,-0.36936 -1.224984,-0.48816 -1.69476,-0.42464 -6.518624,-1.71886 -11.965312,-3.21104 -3.043224,-0.83372 -5.673056,-1.48632 -5.844096,-1.45009 z m 99.993498,13.29385 c -0.22504,0.006 -0.50472,0.0993 -0.82335,0.28408 -0.38992,0.22624 -1.5549,0.88171 -2.58881,1.45636 -1.66015,0.92273 -4.93925,2.84313 -7.12763,4.17413 -0.4124,0.25072 -1.23167,0.70088 -1.82072,1.00033 -0.58904,0.29944 -1.60115,0.8733 -2.24912,1.27562 -3.1688,1.96758 -4.46501,2.37812 -5.82692,1.84462 -0.27064,-0.106 -1.67673,-0.50832 -3.12476,-0.89406 -2.26509,-0.60328 -2.67194,-0.65856 -2.91304,-0.39616 -0.2604,0.28336 -0.56392,1.0259 -1.6563,4.05322 -0.23384,0.64792 -0.62184,1.66011 -0.86224,2.24918 -0.2404,0.58912 -0.51872,1.36022 -0.61784,1.71366 -0.0992,0.35344 -0.48312,1.46198 -0.85346,2.4634 -0.3704,1.00142 -0.75408,2.06174 -0.85304,2.35628 -0.0989,0.29448 -0.48232,1.35486 -0.85179,2.35628 -0.62904,1.70504 -1.72824,5.62658 -1.71109,6.10452 0.0176,0.47488 1.04259,1.43668 1.83157,1.71784 1.09864,0.39144 1.17813,0.3888 2.61228,-0.0978 1.90122,-0.64528 13.95561,-6.82088 17.18294,-8.80302 1.59045,-0.9768 3.92526,-2.33158 5.18894,-3.01062 1.26368,-0.67904 2.50235,-1.37786 2.7524,-1.553 0.87447,-0.61248 1.49853,-1.84836 1.93703,-3.83734 0.24008,-1.0892 0.57696,-2.60715 0.74888,-3.37294 0.17184,-0.76576 0.3996,-1.82613 0.50624,-2.3563 0.10656,-0.53016 0.53704,-2.43957 0.95636,-4.24356 0.4192,-1.80399 0.76224,-3.51839 0.76224,-3.80931 0,-0.45416 -0.2236,-0.68552 -0.59872,-0.6752 z"
     style="fill:#ffffff;stroke-width:8"
     id="path1" />
</svg>
