<?xml version="1.0" encoding="UTF-8" standalone="no"?>
<!-- Created with Inkscape (http://www.inkscape.org/) -->

<svg
   width="256"
   height="256"
   viewBox="0 0 256 256"
   version="1.1"
   id="svg5"
   inkscape:version="1.2.1 (9c6d41e410, 2022-07-14)"
   sodipodi:docname="civ-vi.svg"
   xmlns:inkscape="http://www.inkscape.org/namespaces/inkscape"
   xmlns:sodipodi="http://sodipodi.sourceforge.net/DTD/sodipodi-0.dtd"
   xmlns:xlink="http://www.w3.org/1999/xlink"
   xmlns="http://www.w3.org/2000/svg"
   xmlns:svg="http://www.w3.org/2000/svg">
  <sodipodi:namedview
     id="namedview7"
     pagecolor="#ffffff"
     bordercolor="#000000"
     borderopacity="0.25"
     inkscape:showpageshadow="2"
     inkscape:pageopacity="0.0"
     inkscape:pagecheckerboard="0"
     inkscape:deskcolor="#d1d1d1"
     inkscape:document-units="px"
     showgrid="false"
     inkscape:zoom="3.15625"
     inkscape:cx="127.84158"
     inkscape:cy="128"
     inkscape:window-width="1920"
     inkscape:window-height="1011"
     inkscape:window-x="0"
     inkscape:window-y="32"
     inkscape:window-maximized="1"
     inkscape:current-layer="svg5" />
  <defs
     id="defs2">
    <linearGradient
       inkscape:collect="always"
       id="linearGradient871">
      <stop
         style="stop-color:#fee293;stop-opacity:1;"
         offset="0"
         id="stop867" />
      <stop
         style="stop-color:#fffad0;stop-opacity:1;"
         offset="0.5"
         id="stop4835" />
      <stop
         style="stop-color:#fffaea;stop-opacity:1;"
         offset="1"
         id="stop869" />
    </linearGradient>
    <linearGradient
       inkscape:collect="always"
       id="linearGradient879">
      <stop
         style="stop-color:#f7cea2;stop-opacity:1;"
         offset="0"
         id="stop875" />
      <stop
         style="stop-color:#f7cea2;stop-opacity:0;"
         offset="1"
         id="stop877" />
    </linearGradient>
    <linearGradient
       inkscape:collect="always"
       xlink:href="#linearGradient871"
       id="linearGradient10176"
       x1="52.214481"
       y1="4"
       x2="60"
       y2="60"
       gradientUnits="userSpaceOnUse"
       gradientTransform="scale(4)" />
    <radialGradient
       inkscape:collect="always"
       xlink:href="#linearGradient879"
       id="radialGradient954"
       cx="7.0528011"
       cy="55.479912"
       fx="7.0528011"
       fy="55.479912"
       r="28"
       gradientUnits="userSpaceOnUse"
       gradientTransform="matrix(6.0457144,1.8930188,-2.4147634,7.7120076,118.1701,-221.51166)" />
    <linearGradient
       inkscape:collect="always"
       xlink:href="#linearGradient1389"
       id="linearGradient970"
       x1="11.013281"
       y1="4.3410792"
       x2="11.013281"
       y2="11.467776"
       gradientUnits="userSpaceOnUse"
       gradientTransform="matrix(15.11811,0,0,15.11811,41.499984,14.371086)" />
    <linearGradient
       inkscape:collect="always"
       id="linearGradient1389">
      <stop
         style="stop-color:#ffffff;stop-opacity:0"
         offset="0"
         id="stop1385" />
      <stop
         style="stop-color:#ffffff;stop-opacity:0.57254902;"
         offset="0.5"
         id="stop1969" />
      <stop
         style="stop-color:#ffffff;stop-opacity:0.00353621"
         offset="1"
         id="stop1387" />
    </linearGradient>
  </defs>
  <path
     id="path563"
     style="opacity:0.2;fill:#000000;stroke-width:8;stroke-linecap:round;stroke-linejoin:round"
     d="M 104,17 C 31.190548,17 16,32.518608 16,105 v 48 c 0,72.48138 15.190548,88 88,88 h 48 c 72.80944,0 88,-15.51862 88,-88 V 105 C 240,32.518608 224.80944,17 152,17 Z"
     sodipodi:nodetypes="sssssssss" />
  <path
     id="path530"
     style="fill:url(#linearGradient10176);fill-opacity:1;stroke-width:8;stroke-linecap:round;stroke-linejoin:round"
     d="M 104,16 C 31.190548,16 16,31.518608 16,104 v 48 c 0,72.48138 15.190548,88 88,88 h 48 c 72.80944,0 88,-15.51862 88,-88 V 104 C 240,31.518608 224.80944,16 152,16 Z"
     sodipodi:nodetypes="sssssssss" />
  <path
     d="M 104,16 C 31.190548,16 16,31.518608 16,104 v 48 c 0,72.48138 15.190548,88 88,88 h 48 c 72.80944,0 88,-15.51862 88,-88 V 104 C 240,31.518608 224.80944,16 152,16 Z"
     style="fill:url(#radialGradient954);fill-opacity:1;stroke-width:8;stroke-linecap:round;stroke-linejoin:round"
     id="path328" />
  <path
     d="m 48,80 v 1.387236 c 4.320392,1.236664 5.8661,3.70926 9.878868,12.50386 l 41.833588,93.853064 h 2.312514 l 39.3661,-88.911592 C 146.02046,88.33236 147.4116,83.857112 153.89493,81.387236 V 80 c -5.40461,0.309 -11.42369,0.3084 -17.29178,0.3084 -3.39547,0 -7.25381,-0.15464 -10.64929,-0.3084 v 1.387236 c 2.77886,0.462164 4.01217,2.00814 4.01217,4.171072 0,3.391372 -0.92705,5.399464 -1.85053,7.562396 L 100.79127,157.49056 76.712784,99.604288 c -2.161572,-5.249416 -3.858624,-9.88044 -3.858624,-12.350316 0,-3.396844 1.697052,-5.092204 4.629044,-5.866736 V 80 C 64.36138,80.309 54.175704,80.309 48,80 Z m 128.97069,0.0026 v 1.38724 c 6.33019,1.386328 7.71723,6.790992 7.71723,21.30397 v 57.73146 c 0,15.12549 -1.54153,19.59941 -7.71723,21.14641 v 1.38724 c 4.78388,-0.15512 10.18689,-0.30448 15.90049,-0.30448 5.0908,0 10.49532,0.14968 15.12882,0.30448 v -1.38724 c -6.01984,-1.547 -7.87482,-5.71398 -7.87482,-21.14641 v -57.73138 c 0,-14.667474 1.5453,-19.917614 7.87482,-21.303962 v -1.387236 c -5.25078,0.15376 -10.65538,0.3084 -15.4372,0.3084 -4.78866,0 -10.1882,-0.15464 -15.59211,-0.3084 z"
     style="fill:#9b371e;stroke-width:0.683608"
     id="path1755" />
  <path
     d="m 48,80 v 1.390624 c 4.320392,1.23666 5.862228,3.705404 9.875,12.5 l 41.835932,93.851556 h 2.312498 L 141.39062,98.835936 C 146.02001,88.335728 147.4151,83.8605 153.89843,81.390624 V 80 c -5.40461,0.309 -11.42878,0.30468 -17.29687,0.30468 -3.39547,0 -7.25296,-0.15088 -10.64844,-0.30468 v 1.390624 c 2.77886,0.46216 4.01562,2.001132 4.01563,4.164064 0,3.391368 -0.92807,5.399568 -1.85157,7.5625 L 100.78906,157.49219 76.710924,99.601564 C 74.549352,94.352148 72.85156,89.727688 72.85156,87.257812 c 0,-3.396844 1.700816,-5.092656 4.632808,-5.867188 V 80 C 64.362544,80.309 54.175704,80.309 48,80 Z m 128.96874,0 v 1.390624 c 6.33018,1.386332 7.71874,6.791712 7.71874,21.304686 v 57.72657 c 0,15.1255 -1.54304,19.60144 -7.71874,21.14843 v 1.39057 c 4.78388,-0.15512 10.19268,-0.30464 15.90624,-0.30464 5.09084,0 10.49152,0.14968 15.125,0.30464 v -1.39057 c -6.01984,-1.54699 -7.875,-5.71599 -7.875,-21.14843 v -57.72657 c 0,-14.667466 1.5455,-19.918338 7.875,-21.304686 V 80 c -5.25078,0.15376 -10.65566,0.31252 -15.43748,0.31252 -4.78864,0 -10.18986,-0.15876 -15.59376,-0.31252 z"
     style="opacity:0.5;fill:url(#linearGradient970);fill-opacity:1;stroke-width:2.58372"
     id="path338" />
</svg>
