<?xml version="1.0" encoding="UTF-8" standalone="no"?>
<!-- Created with Inkscape (http://www.inkscape.org/) -->

<svg
   width="256"
   height="256"
   viewBox="0 0 256 256"
   version="1.1"
   id="svg5"
   inkscape:version="1.2.1 (9c6d41e410, 2022-07-14)"
   sodipodi:docname="conky-manager.svg"
   xmlns:inkscape="http://www.inkscape.org/namespaces/inkscape"
   xmlns:sodipodi="http://sodipodi.sourceforge.net/DTD/sodipodi-0.dtd"
   xmlns:xlink="http://www.w3.org/1999/xlink"
   xmlns="http://www.w3.org/2000/svg"
   xmlns:svg="http://www.w3.org/2000/svg">
  <sodipodi:namedview
     id="namedview7"
     pagecolor="#ffffff"
     bordercolor="#000000"
     borderopacity="0.25"
     inkscape:showpageshadow="2"
     inkscape:pageopacity="0.0"
     inkscape:pagecheckerboard="0"
     inkscape:deskcolor="#d1d1d1"
     inkscape:document-units="px"
     showgrid="false"
     inkscape:zoom="3.15625"
     inkscape:cx="128"
     inkscape:cy="128"
     inkscape:window-width="1920"
     inkscape:window-height="1011"
     inkscape:window-x="0"
     inkscape:window-y="32"
     inkscape:window-maximized="1"
     inkscape:current-layer="svg5" />
  <defs
     id="defs2">
    <linearGradient
       inkscape:collect="always"
       xlink:href="#linearGradient1133"
       id="linearGradient4780"
       x1="2"
       y1="2"
       x2="30"
       y2="30"
       gradientUnits="userSpaceOnUse"
       gradientTransform="scale(8)" />
    <linearGradient
       inkscape:collect="always"
       id="linearGradient1133">
      <stop
         style="stop-color:#ab4242;stop-opacity:1;"
         offset="0"
         id="stop1129" />
      <stop
         style="stop-color:#da8e8e;stop-opacity:1;"
         offset="1"
         id="stop1131" />
    </linearGradient>
  </defs>
  <path
     d="M 104,17.000001 C 31.190477,17.000001 16,32.518537 16,105 v 48 c 0,72.48146 15.190477,87.99999 88,87.99999 h 48 c 72.80952,0 88,-15.51853 88,-87.99999 V 105 C 240,32.518537 224.80952,17.000001 152,17.000001"
     style="opacity:0.2;fill:#000000;stroke-width:8;stroke-linecap:round;stroke-linejoin:round"
     id="path563" />
  <path
     id="path530"
     style="fill:url(#linearGradient4780);fill-opacity:1;stroke-width:8;stroke-linecap:round;stroke-linejoin:round"
     d="M 104,16 C 31.190549,16 16,31.518608 16,104 v 48 c 0,72.4814 15.190549,88 88,88 h 48 c 72.80946,0 88,-15.5186 88,-88 V 104 C 240,31.518608 224.80946,16 152,16 Z" />
  <path
     id="rect367"
     style="fill:#ffffff;stroke-width:63.9999;stroke-linecap:round;stroke-linejoin:round"
     d="M 80.000001,72 C 62.272032,72 47.999999,86.272041 47.999999,104 v 48 c 0,17.72797 14.272033,32 32.000002,32 H 112 V 168 H 80.000001 c -8.863984,0 -16.000002,-7.13603 -16.000002,-16 v -48 c 0,-8.863977 7.136018,-16 16.000002,-16 H 112 V 72 Z M 128,72 v 112 h 16 v -80 l 24,40 24,-40 v 80 h 16.00001 V 72 H 192 l -24,40 -24,-40 z"
     sodipodi:nodetypes="ssssccssssccsccccccccccccc" />
</svg>
