<?xml version="1.0" encoding="UTF-8" standalone="no"?>
<!-- Created with Inkscape (http://www.inkscape.org/) -->

<svg
   width="256"
   height="256"
   viewBox="0 0 256 256"
   version="1.1"
   id="svg5"
   inkscape:version="1.2.1 (9c6d41e410, 2022-07-14)"
   sodipodi:docname="glade.svg"
   xmlns:inkscape="http://www.inkscape.org/namespaces/inkscape"
   xmlns:sodipodi="http://sodipodi.sourceforge.net/DTD/sodipodi-0.dtd"
   xmlns:xlink="http://www.w3.org/1999/xlink"
   xmlns="http://www.w3.org/2000/svg"
   xmlns:svg="http://www.w3.org/2000/svg">
  <sodipodi:namedview
     id="namedview7"
     pagecolor="#ffffff"
     bordercolor="#000000"
     borderopacity="0.25"
     inkscape:showpageshadow="2"
     inkscape:pageopacity="0.0"
     inkscape:pagecheckerboard="0"
     inkscape:deskcolor="#d1d1d1"
     inkscape:document-units="px"
     showgrid="false"
     inkscape:zoom="3.234375"
     inkscape:cx="127.84541"
     inkscape:cy="128"
     inkscape:window-width="1920"
     inkscape:window-height="1008"
     inkscape:window-x="0"
     inkscape:window-y="0"
     inkscape:window-maximized="1"
     inkscape:current-layer="svg5" />
  <defs
     id="defs2">
    <linearGradient
       inkscape:collect="always"
       xlink:href="#linearGradient1141"
       id="linearGradient4780"
       x1="2"
       y1="2"
       x2="30"
       y2="30"
       gradientUnits="userSpaceOnUse"
       gradientTransform="scale(8)" />
    <linearGradient
       inkscape:collect="always"
       id="linearGradient1141">
      <stop
         style="stop-color:#5bb920;stop-opacity:1;"
         offset="0"
         id="stop1137" />
      <stop
         style="stop-color:#97cc7d;stop-opacity:1;"
         offset="1"
         id="stop1139" />
    </linearGradient>
  </defs>
  <path
     d="M 104,17 C 31.190476,17 16,32.518536 16,105.00001 V 153 c 0,72.48146 15.190476,88 88,88 h 48 c 72.80952,0 88,-15.51854 88,-88 V 105.00001 C 240,32.518536 224.80952,17 152,17"
     style="opacity:0.2;fill:#000000;stroke-width:8;stroke-linecap:round;stroke-linejoin:round"
     id="path563" />
  <path
     id="path530"
     style="fill:url(#linearGradient4780);fill-opacity:1;stroke-width:8;stroke-linecap:round;stroke-linejoin:round"
     d="M 104,16 C 31.190548,16 16,31.518608 16,104 v 48 c 0,72.4814 15.190548,88 88,88 h 48 c 72.80944,0 88,-15.5186 88,-88 V 104 C 240,31.518608 224.80944,16 152,16 Z" />
  <rect
     style="opacity:0.6;fill:#ffffff;stroke-width:16;stroke-linecap:round;stroke-linejoin:round;paint-order:stroke fill markers"
     id="rect527"
     width="127.99999"
     height="160"
     x="64.000008"
     y="48.003601"
     ry="12" />
  <path
     id="path5201"
     style="color:#000000;fill:#ffffff;fill-opacity:1;stroke-width:16;stroke-linecap:round;stroke-linejoin:round"
     d="m 60.391872,96.015352 c 1.419332,0.06768 2.819944,0.497232 4.04688,1.3125 L 196.42674,181.34465 c 4.34922,2.95597 2.42708,10.52039 -4.4375,10.65679 H 60.001252 c -4.418084,-4.4e-4 -7.999564,-3.5819 -8.000004,-8 v -80.00171 c 0.0044,-2.94995 1.631728,-5.658178 4.23438,-7.046858 1.29886,-0.695044 2.736916,-1.005108 4.156244,-0.93752 z M 72,124 v 48.0001 h 76 z"
     sodipodi:nodetypes="ccccccccccccc" />
</svg>
