<?xml version="1.0" encoding="UTF-8" standalone="no"?>
<!-- Created with Inkscape (http://www.inkscape.org/) -->

<svg
   width="256"
   height="256"
   viewBox="0 0 256 256"
   version="1.1"
   id="svg5"
   inkscape:version="1.2.1 (9c6d41e410, 2022-07-14)"
   sodipodi:docname="gmail.svg"
   xmlns:inkscape="http://www.inkscape.org/namespaces/inkscape"
   xmlns:sodipodi="http://sodipodi.sourceforge.net/DTD/sodipodi-0.dtd"
   xmlns="http://www.w3.org/2000/svg"
   xmlns:svg="http://www.w3.org/2000/svg">
  <sodipodi:namedview
     id="namedview7"
     pagecolor="#ffffff"
     bordercolor="#000000"
     borderopacity="0.25"
     inkscape:showpageshadow="2"
     inkscape:pageopacity="0.0"
     inkscape:pagecheckerboard="0"
     inkscape:deskcolor="#d1d1d1"
     inkscape:document-units="px"
     showgrid="false"
     inkscape:zoom="3.1015625"
     inkscape:cx="127.83879"
     inkscape:cy="128"
     inkscape:window-width="1920"
     inkscape:window-height="1006"
     inkscape:window-x="0"
     inkscape:window-y="0"
     inkscape:window-maximized="1"
     inkscape:current-layer="svg5" />
  <defs
     id="defs2" />
  <path
     d="M 104,17 C 31.190476,17 16,32.518536 16,105 v 48 c 0,72.48146 15.190476,88 88,88 h 48 c 72.80952,0 88,-15.51854 88,-88 V 105 C 240,32.518536 224.80952,17 152,17"
     style="opacity:0.2;fill:#000000;stroke-width:8;stroke-linecap:round;stroke-linejoin:round"
     id="path563" />
  <path
     d="M 104,16 C 31.190476,16 16,31.518536 16,104 v 48 c 0,72.48146 15.190476,88 88,88 h 48 c 72.80952,0 88,-15.51854 88,-88 V 104 C 240,31.518536 224.80952,16 152,16"
     style="fill:#fafafa;fill-opacity:1;stroke-width:8;stroke-linecap:round;stroke-linejoin:round"
     id="path530"
     sodipodi:nodetypes="cssssssc" />
  <path
     id="path523"
     style="fill:#4285f4;stroke-width:4"
     d="m 47.999994,90.937504 v 86.156246 c 0,6.02579 4.82988,10.90625 10.796872,10.90625 h 21.203128 v -72.82813 z" />
  <path
     id="path391"
     style="fill:#34a853;stroke-width:4"
     d="M 208,90.937504 176,115.17187 V 188 h 21.20312 C 203.1701,188 208,183.11953 208,177.09375 Z" />
  <path
     d="M 73.920004,115.64718 V 71.30132 L 128,111.63637 182.08,71.30132 v 44.34586 L 128,155.99379 Z"
     style="fill:#ea4335;stroke-width:4"
     id="path457"
     sodipodi:nodetypes="ccccccc" />
  <path
     id="path424"
     style="fill:#fbbc04;stroke-width:4"
     d="m 191.73438,68 c -3.28476,7.2e-5 -6.65168,1.021872 -9.65626,3.296872 L 176,75.906248 V 120.25 l 32,-24.234376 v -11.625 C 208,74.70296 200.12872,67.999816 191.73438,68 Z" />
  <path
     id="path490"
     style="fill:#c5221f;stroke-width:4"
     d="m 64.265618,68 c -8.39436,-1.84e-4 -16.265624,6.70296 -16.265624,16.390624 V 96.0222 l 32.000002,24.23437 V 75.906248 l -6.07813,-4.609376 C 70.917282,69.021864 67.55037,68.000072 64.265618,68 Z"
     sodipodi:nodetypes="ssccccs" />
</svg>
