<?xml version="1.0" encoding="UTF-8" standalone="no"?>
<!-- Created with Inkscape (http://www.inkscape.org/) -->

<svg
   width="256"
   height="256"
   viewBox="0 0 256 256"
   version="1.1"
   id="svg5"
   inkscape:version="1.4.4 (dcaf3e7d9e, 2026-05-05)"
   sodipodi:docname="google-sheets.svg"
   xmlns:inkscape="http://www.inkscape.org/namespaces/inkscape"
   xmlns:sodipodi="http://sodipodi.sourceforge.net/DTD/sodipodi-0.dtd"
   xmlns:xlink="http://www.w3.org/1999/xlink"
   xmlns="http://www.w3.org/2000/svg"
   xmlns:svg="http://www.w3.org/2000/svg">
  <sodipodi:namedview
     id="namedview7"
     pagecolor="#ffffff"
     bordercolor="#000000"
     borderopacity="0.25"
     inkscape:showpageshadow="2"
     inkscape:pageopacity="0.0"
     inkscape:pagecheckerboard="0"
     inkscape:deskcolor="#d1d1d1"
     inkscape:document-units="px"
     showgrid="false"
     inkscape:zoom="3.140625"
     inkscape:cx="128"
     inkscape:cy="128"
     inkscape:window-width="1920"
     inkscape:window-height="1012"
     inkscape:window-x="0"
     inkscape:window-y="0"
     inkscape:window-maximized="1"
     inkscape:current-layer="svg5"
     showguides="false" />
  <defs
     id="defs2">
    <filter
       id="b"
       width="168"
       height="126"
       x="-4"
       y="33"
       color-interpolation-filters="sRGB"
       filterUnits="userSpaceOnUse">
      <feFlood
         flood-opacity="0"
         result="BackgroundImageFix"
         id="feFlood4" />
      <feBlend
         in="SourceGraphic"
         in2="BackgroundImageFix"
         result="shape"
         mode="normal"
         id="feBlend4" />
      <feGaussianBlur
         result="effect1_foregroundBlur_37435_8174"
         stdDeviation="6"
         id="feGaussianBlur4" />
    </filter>
    <linearGradient
       inkscape:collect="always"
       xlink:href="#linearGradient4"
       id="linearGradient6"
       x1="144.00005"
       y1="96.000008"
       x2="24"
       y2="96"
       gradientUnits="userSpaceOnUse"
       gradientTransform="translate(0,4.5999669)" />
    <linearGradient
       id="linearGradient4"
       inkscape:collect="always">
      <stop
         style="stop-color:#0ebc5f;stop-opacity:1;"
         offset="0"
         id="stop5" />
      <stop
         style="stop-color:#78c9ff;stop-opacity:1;"
         offset="0.95074314"
         id="stop6" />
    </linearGradient>
    <mask
       maskUnits="userSpaceOnUse"
       id="mask1">
      <rect
         width="158.40001"
         height="132"
         x="25.6"
         y="32"
         fill="#ffffff"
         id="rect2"
         style="stroke-width:0.976149"
         ry="17.6" />
    </mask>
  </defs>
  <path
     d="M 104,17 C 31.190476,17 16,32.518536 16,105 v 48 c 0,72.48146 15.190476,88 88,88 h 48 c 72.80952,0 88,-15.51854 88,-88 V 105 C 240,32.518536 224.80952,17 152,17"
     style="opacity:0.2;fill:#000000;stroke-width:8;stroke-linecap:round;stroke-linejoin:round"
     id="path563" />
  <path
     id="path530"
     style="fill:#fafafa;fill-opacity:1;stroke-width:8;stroke-linecap:round;stroke-linejoin:round"
     d="M 104,16 C 31.190548,16 16,31.518608 16,104 v 48 c 0,72.4814 15.190548,88 88,88 h 48 c 72.80946,0 88,-15.5186 88,-88 V 104 C 240,31.518608 224.80946,16 152,16 Z" />
  <g
     id="g4"
     transform="matrix(8,0,0,8,0,-4.0000304)">
    <rect
       style="fill:#009954"
       id="rect1"
       width="13"
       height="11"
       x="6"
       y="11"
       ry="2" />
    <g
       mask="url(#mask1)"
       transform="matrix(0.11363636,0,0,0.11363636,5.0909091,5.3636403)"
       id="g3">
      <path
         id="path2"
         d="M 25.600001,31.999966 V 163.99997 H 184.00001 V 31.999966 Z"
         style="fill:#0ebc5f;fill-opacity:1;stroke-width:1.01041" />
      <g
         filter="url(#b)"
         id="g2">
        <rect
           style="fill:url(#linearGradient6);stroke-width:0.22"
           id="rect4"
           width="140.8"
           height="96.800003"
           x="8"
           y="49.599968"
           rx="25.6" />
      </g>
    </g>
    <path
       id="rect5"
       style="fill:#ffffff;stroke-width:0.5"
       d="m 21.75,14.000004 c -0.4155,0 -0.75,0.3345 -0.75,0.75 v 4.25 h -6.25 c -0.4155,0 -0.75,0.3345 -0.75,0.75 0,0.4155 0.3345,0.75 0.75,0.75 H 21 v 1.25 c 0,0.4155 0.3345,0.75 0.75,0.75 0.4155,0 0.75,-0.3345 0.75,-0.75 v -1.25 h 1.25 c 0.4155,0 0.75,-0.3345 0.75,-0.75 0,-0.4155 -0.3345,-0.75 -0.75,-0.75 H 22.5 v -4.25 c 0,-0.4155 -0.3345,-0.75 -0.75,-0.75 z" />
  </g>
</svg>
