<?xml version="1.0" encoding="UTF-8" standalone="no"?>
<!-- Created with Inkscape (http://www.inkscape.org/) -->

<svg
   width="256"
   height="256"
   viewBox="0 0 256 256"
   version="1.1"
   id="svg5"
   inkscape:version="1.4.4 (dcaf3e7d9e, 2026-05-05)"
   sodipodi:docname="google-gemini.svg"
   xmlns:inkscape="http://www.inkscape.org/namespaces/inkscape"
   xmlns:sodipodi="http://sodipodi.sourceforge.net/DTD/sodipodi-0.dtd"
   xmlns:xlink="http://www.w3.org/1999/xlink"
   xmlns="http://www.w3.org/2000/svg"
   xmlns:svg="http://www.w3.org/2000/svg">
  <sodipodi:namedview
     id="namedview7"
     pagecolor="#ffffff"
     bordercolor="#000000"
     borderopacity="0.25"
     inkscape:showpageshadow="2"
     inkscape:pageopacity="0.0"
     inkscape:pagecheckerboard="0"
     inkscape:deskcolor="#d1d1d1"
     inkscape:document-units="px"
     showgrid="false"
     inkscape:zoom="3.1328125"
     inkscape:cx="128"
     inkscape:cy="128"
     inkscape:window-width="1920"
     inkscape:window-height="1010"
     inkscape:window-x="0"
     inkscape:window-y="0"
     inkscape:window-maximized="1"
     inkscape:current-layer="svg5" />
  <defs
     id="defs2">
    <radialGradient
       inkscape:collect="always"
       xlink:href="#linearGradient1"
       id="radialGradient2"
       cx="6.0314078"
       cy="5.2960987"
       fx="6.0314078"
       fy="5.2960987"
       r="5"
       gradientUnits="userSpaceOnUse"
       gradientTransform="matrix(20.502068,-0.11014608,0.09817456,18.273694,-20.010762,-12.36323)" />
    <linearGradient
       id="linearGradient1"
       inkscape:collect="always">
      <stop
         style="stop-color:#fc413d;stop-opacity:1;"
         offset="0"
         id="stop1" />
      <stop
         style="stop-color:#fc413d;stop-opacity:0;"
         offset="1"
         id="stop2" />
    </linearGradient>
    <radialGradient
       inkscape:collect="always"
       xlink:href="#linearGradient2"
       id="radialGradient4"
       cx="4.4745617"
       cy="7.4917331"
       fx="4.4745617"
       fy="7.4917331"
       r="5"
       gradientUnits="userSpaceOnUse"
       gradientTransform="matrix(15.999999,0,0,13.709486,3.4383406,29.974228)" />
    <linearGradient
       id="linearGradient2"
       inkscape:collect="always">
      <stop
         style="stop-color:#fbbc04;stop-opacity:1;"
         offset="0"
         id="stop3" />
      <stop
         style="stop-color:#fbbc04;stop-opacity:0;"
         offset="1"
         id="stop4" />
    </linearGradient>
    <radialGradient
       inkscape:collect="always"
       xlink:href="#linearGradient8"
       id="radialGradient10"
       cx="6.3957481"
       cy="12.007661"
       fx="6.3957481"
       fy="12.007661"
       r="5"
       gradientUnits="userSpaceOnUse"
       gradientTransform="matrix(15.470158,-0.11700632,0.10346656,13.679973,1.7729926,28.483856)" />
    <linearGradient
       id="linearGradient8"
       inkscape:collect="always">
      <stop
         style="stop-color:#00b95c;stop-opacity:1;"
         offset="0"
         id="stop9" />
      <stop
         style="stop-color:#00b95c;stop-opacity:0;"
         offset="1"
         id="stop10" />
    </linearGradient>
  </defs>
  <path
     d="M 104,17 C 31.190476,17 16,32.518536 16,105 v 48 c 0,72.48146 15.190472,88 88,88 h 48 c 72.80952,0 88,-15.51854 88,-88 V 105 C 240,32.518536 224.80952,17 152,17"
     style="opacity:0.2;fill:#000000;stroke-width:8;stroke-linecap:round;stroke-linejoin:round"
     id="path563" />
  <path
     id="path533"
     style="fill:#fafafa;fill-opacity:1;stroke-width:8;stroke-linecap:round;stroke-linejoin:round"
     d="M 104,16 C 31.190552,16 16.000002,31.518608 16.000002,104 v 48 c 0,72.48138 15.19055,88 87.999998,88 h 48 c 72.80946,0 88,-15.51862 88,-88 V 104 C 240,31.518608 224.80946,16 152,16 Z" />
  <path
     d="m 128,48 c 0,44.182784 -35.817216,80 -80,80 44.182784,0 80,35.81721 80,80 0,-44.18279 35.81722,-80 80,-80 -44.18278,0 -80,-35.817216 -80,-80 z"
     style="fill:#3186ff;fill-opacity:1;stroke-width:8"
     id="path1" />
  <path
     d="m 128,48 c 0,44.182784 -35.817216,80 -80,80 44.182784,0 80,35.81721 80,80 0,-44.18279 35.81722,-80 80,-80 -44.18278,0 -80,-35.817216 -80,-80 z"
     style="fill:url(#radialGradient2);fill-opacity:1;stroke-width:8"
     id="path2" />
  <path
     d="m 128,48 c 0,44.182784 -35.817216,80 -80,80 44.182784,0 80,35.81721 80,80 0,-44.18279 35.81722,-80 80,-80 -44.18278,0 -80,-35.817216 -80,-80 z"
     style="fill:url(#radialGradient4);fill-opacity:1;stroke-width:8"
     id="path3" />
  <path
     d="m 128,48 c 0,44.182784 -35.817216,80 -80,80 44.182784,0 80,35.81721 80,80 0,-44.18279 35.81722,-80 80,-80 -44.18278,0 -80,-35.817216 -80,-80 z"
     style="fill:url(#radialGradient10);stroke-width:8"
     id="path4" />
</svg>
