<?xml version="1.0" encoding="UTF-8" standalone="no"?>
<!-- Created with Inkscape (http://www.inkscape.org/) -->

<svg
   width="256"
   height="256"
   viewBox="0 0 256 256"
   version="1.1"
   id="svg5"
   inkscape:version="1.2.1 (9c6d41e410, 2022-07-14)"
   sodipodi:docname="help-browser.svg"
   xmlns:inkscape="http://www.inkscape.org/namespaces/inkscape"
   xmlns:sodipodi="http://sodipodi.sourceforge.net/DTD/sodipodi-0.dtd"
   xmlns:xlink="http://www.w3.org/1999/xlink"
   xmlns="http://www.w3.org/2000/svg"
   xmlns:svg="http://www.w3.org/2000/svg">
  <sodipodi:namedview
     id="namedview7"
     pagecolor="#ffffff"
     bordercolor="#000000"
     borderopacity="0.25"
     inkscape:showpageshadow="2"
     inkscape:pageopacity="0.0"
     inkscape:pagecheckerboard="0"
     inkscape:deskcolor="#d1d1d1"
     inkscape:document-units="px"
     showgrid="false"
     inkscape:zoom="3.1953125"
     inkscape:cx="127.84352"
     inkscape:cy="128"
     inkscape:window-width="1920"
     inkscape:window-height="1004"
     inkscape:window-x="0"
     inkscape:window-y="0"
     inkscape:window-maximized="1"
     inkscape:current-layer="svg5" />
  <defs
     id="defs2">
    <linearGradient
       inkscape:collect="always"
       xlink:href="#linearGradient3147"
       id="linearGradient4780"
       x1="30"
       y1="30"
       x2="2"
       y2="2"
       gradientUnits="userSpaceOnUse"
       gradientTransform="matrix(7.9999996,0,0,7.9999996,-4.7999995e-6,-7.999999e-7)" />
    <linearGradient
       inkscape:collect="always"
       id="linearGradient3147">
      <stop
         style="stop-color:#41bbff;stop-opacity:1;"
         offset="0"
         id="stop3143" />
      <stop
         style="stop-color:#0091f9;stop-opacity:1;"
         offset="1"
         id="stop3145" />
    </linearGradient>
  </defs>
  <path
     d="M 103.99999,17.000001 C 31.19047,17.000001 15.999995,32.518536 15.999995,105 v 47.99999 c 0,72.48146 15.190475,88 87.999995,88 h 48 c 72.80953,0 88,-15.51854 88,-88 V 105 c 0,-72.481464 -15.19047,-87.999999 -88,-87.999999"
     style="opacity:0.2;fill:#000000;stroke-width:8;stroke-linecap:round;stroke-linejoin:round"
     id="path563" />
  <path
     id="path530"
     style="fill:url(#linearGradient4780);fill-opacity:1;stroke-width:8;stroke-linecap:round;stroke-linejoin:round"
     d="M 103.99999,15.999999 C 31.190542,15.999999 15.999995,31.518606 15.999995,104 v 47.99999 c 0,72.4814 15.190547,88 87.999995,88 h 48 c 72.80947,0 88,-15.5186 88,-88 V 104 c 0,-72.481394 -15.19053,-88.000001 -88,-88.000001 z" />
  <path
     d="m 118.82926,148.29267 c 0,-6.50406 1.23579,-11.90243 3.70732,-16.19512 2.47155,-4.29268 6.89431,-9.43089 13.26829,-15.41463 5.20326,-4.68293 8.91057,-8.65041 11.12195,-11.90244 2.34147,-3.38211 3.5122,-7.414629 3.5122,-12.097556 0,-6.243904 -2.01626,-11.252032 -6.04878,-15.024392 -4.03252,-3.90244 -9.62602,-5.853655 -16.78049,-5.853655 -6.50406,0 -11.70731,1.886167 -15.60976,5.658535 -3.77235,3.64228 -6.63414,8.19512 -8.58536,13.658536 L 87.999992,84.682924 c 2.861792,-7.544712 7.544719,-14.178863 14.048788,-19.902439 6.50406,-5.85366 14.95935,-8.780488 25.36585,-8.780488 7.80487,0 14.69918,1.626012 20.68292,4.878044 6.11382,3.121964 10.79675,7.479684 14.04878,13.073179 3.38211,5.593496 5.07317,11.8374 5.07317,18.731704 0,7.154471 -1.82113,13.268296 -5.46341,18.341466 -3.5122,4.94308 -8.06504,9.95122 -13.65854,15.02439 -4.29268,3.90244 -7.41463,7.60976 -9.36585,11.12195 -1.95122,3.51219 -2.92683,7.60975 -2.92683,12.29268 v 8.19512 h -16.97561 z m 8.39025,51.70732 c -3.38212,0 -6.30894,-1.17074 -8.7805,-3.5122 -2.34145,-2.47154 -3.51219,-5.46342 -3.51219,-8.9756 0,-3.38212 1.17072,-6.2439 3.51219,-8.58538 2.47155,-2.47153 5.39838,-3.70731 8.7805,-3.70731 3.51219,0 6.43902,1.23579 8.78048,3.70731 2.47154,2.34148 3.70732,5.20326 3.70732,8.58538 0,3.51218 -1.23578,6.50406 -3.70732,8.9756 -2.34146,2.34146 -5.26829,3.5122 -8.78048,3.5122 z"
     style="font-size:7.8202px;line-height:1.25;font-family:'Google Sans';-inkscape-font-specification:'Google Sans';fill:#ffffff;fill-opacity:1;stroke-width:4.87804"
     id="path14687"
     sodipodi:nodetypes="ssccscsccccsccsccssccsscssscsss" />
</svg>
