<?xml version="1.0" encoding="UTF-8" standalone="no"?>
<!-- Created with Inkscape (http://www.inkscape.org/) -->

<svg
   width="256"
   height="256"
   viewBox="0 0 256 256"
   version="1.1"
   id="svg5"
   inkscape:version="1.2.1 (9c6d41e410, 2022-07-14)"
   sodipodi:docname="KakaoTalk.svg"
   xmlns:inkscape="http://www.inkscape.org/namespaces/inkscape"
   xmlns:sodipodi="http://sodipodi.sourceforge.net/DTD/sodipodi-0.dtd"
   xmlns="http://www.w3.org/2000/svg"
   xmlns:svg="http://www.w3.org/2000/svg">
  <sodipodi:namedview
     id="namedview7"
     pagecolor="#ffffff"
     bordercolor="#000000"
     borderopacity="0.25"
     inkscape:showpageshadow="2"
     inkscape:pageopacity="0.0"
     inkscape:pagecheckerboard="0"
     inkscape:deskcolor="#d1d1d1"
     inkscape:document-units="px"
     showgrid="false"
     inkscape:zoom="3.09375"
     inkscape:cx="127.83838"
     inkscape:cy="128"
     inkscape:window-width="1920"
     inkscape:window-height="1004"
     inkscape:window-x="0"
     inkscape:window-y="0"
     inkscape:window-maximized="1"
     inkscape:current-layer="svg5"
     showguides="false" />
  <defs
     id="defs2" />
  <path
     d="M 104,17 C 31.190476,17 16,32.518536 16,105 v 48 c 0,72.48146 15.190476,88 88,88 h 48 c 72.80952,0 88,-15.51854 88,-88 V 105 C 240,32.518536 224.80952,17 152,17"
     style="opacity:0.2;fill:#000000;stroke-width:8;stroke-linecap:round;stroke-linejoin:round"
     id="path563" />
  <path
     id="path530"
     style="fill:#ffdb0b;fill-opacity:1;stroke-width:8;stroke-linecap:round;stroke-linejoin:round"
     d="M 104,16 C 31.190548,16 16,31.518608 16,104 v 48 c 0,72.4814 15.190548,88 88,88 h 48 c 72.80946,0 88,-15.5186 88,-88 V 104 C 240,31.518608 224.80946,16 152,16 Z" />
  <path
     id="path12794"
     style="fill:#353535;stroke-width:4"
     d="m 128,48 a 88,72 0 0 0 -88,72 88,72 0 0 0 31.203128,54.92187 L 60,216 99.335936,187.90624 A 88,72 0 0 0 128,192 88,72 0 0 0 216,120 88,72 0 0 0 128,48 Z M 60,96 h 24 c 2.216,0 4,1.784008 4,4 0,2.216 -1.784,4 -4,4 h -8 v 36 c 0,2.216 -1.784,4 -4,4 -2.215992,0 -4,-1.784 -4,-4 v -36 h -8 c -2.215996,0 -4,-1.784 -4,-4 0,-2.215992 1.784004,-4 4,-4 z m 45.85938,0 c 0.0512,-0.002 0.10456,-1.6e-5 0.15624,0 0.0752,4e-4 0.15176,0.0034 0.22656,0.008 0.005,2.96e-4 0.0104,-3.12e-4 0.016,0 0.0288,0.002 0.0568,0.0056 0.0859,0.008 0.0888,0.0072 0.17656,0.0176 0.26568,0.0312 0.0528,0.008 0.10424,0.0208 0.15624,0.0312 0.076,0.0144 0.152,0.028 0.22656,0.0472 0.0232,0.0056 0.0472,0.0088 0.0704,0.0152 0.083,0.0224 0.16184,0.0512 0.24216,0.0784 0.124,0.0416 0.24216,0.08824 0.35936,0.14064 0.11872,0.0528 0.23232,0.10848 0.34376,0.17192 1.03058,0.58648 1.73355,1.599408 1.94531,2.742192 l 13.9375,40.054678 c 0.57352,2.14049 -0.6876,4.32491 -2.82813,4.89844 -2.14048,0.57352 -4.32489,-0.6876 -4.89843,-2.82813 L 113.4375,132 H 98.593752 l -2.72656,9.39843 c -0.57352,2.14051 -2.757952,3.40167 -4.89844,2.82813 -2.140496,-0.57352 -3.401672,-2.75795 -2.828128,-4.89844 L 102.0625,99.304688 c 0.20456,-1.157232 0.91888,-2.181688 1.96094,-2.77344 0.10824,-0.0616 0.22064,-0.12008 0.33592,-0.17192 0.10968,-0.0496 0.22024,-0.0928 0.33592,-0.1328 0.028,-0.0104 0.0584,-0.0144 0.0859,-0.024 0.0632,-0.02 0.12312,-0.0456 0.18752,-0.0624 0.024,-0.0064 0.0464,-0.0096 0.0704,-0.016 0.10944,-0.028 0.21608,-0.052 0.32808,-0.0704 0.016,-0.0028 0.0304,-0.0056 0.0472,-0.008 0.0879,-0.0128 0.1764,-0.024 0.26568,-0.0312 0.028,-0.0024 0.0576,-0.006 0.0859,-0.008 0.005,-3.2e-4 0.0104,3.04e-4 0.0152,0 0.0256,-0.0016 0.052,-0.0068 0.0784,-0.008 z M 136,96 c 2.21599,0 4,1.784008 4,4 v 36 h 20 c 2.21599,0 4,1.78401 4,4 0,2.216 -1.78401,4 -4,4 h -24 c -2.216,0 -4,-1.784 -4,-4 v -40 c 0,-2.215992 1.784,-4 4,-4 z m 40,0 c 2.21599,0 4,1.784008 4,4 v 12.85157 l 12.9375,-15.421882 c 1.42442,-1.697552 3.93526,-1.9166 5.63282,-0.49216 1.69754,1.424416 1.95124,3.972772 0.49216,5.640622 l -15.0625,17.21875 15.0625,17.22656 c 1.4244,1.69756 1.20536,4.2162 -0.49216,5.64063 -1.69756,1.42441 -4.2084,1.20536 -5.63282,-0.49216 L 180,126.75 V 140 c 0,2.216 -1.78401,4 -4,4 -2.21599,0 -4,-1.784 -4,-4 v -40 c 0,-2.215992 1.78401,-4 4,-4 z M 106.01562,110.39844 100.91406,124 h 10.20313 z" />
</svg>
