<?xml version="1.0" encoding="UTF-8" standalone="no"?>
<!-- Created with Inkscape (http://www.inkscape.org/) -->

<svg
   width="256"
   height="256"
   viewBox="0 0 256 256"
   version="1.1"
   id="svg5"
   inkscape:version="1.2.1 (9c6d41e410, 2022-07-14)"
   sodipodi:docname="kdenlive.svg"
   xmlns:inkscape="http://www.inkscape.org/namespaces/inkscape"
   xmlns:sodipodi="http://sodipodi.sourceforge.net/DTD/sodipodi-0.dtd"
   xmlns:xlink="http://www.w3.org/1999/xlink"
   xmlns="http://www.w3.org/2000/svg"
   xmlns:svg="http://www.w3.org/2000/svg">
  <sodipodi:namedview
     id="namedview7"
     pagecolor="#ffffff"
     bordercolor="#000000"
     borderopacity="0.25"
     inkscape:showpageshadow="2"
     inkscape:pageopacity="0.0"
     inkscape:pagecheckerboard="0"
     inkscape:deskcolor="#d1d1d1"
     inkscape:document-units="px"
     showgrid="false"
     inkscape:zoom="3.09375"
     inkscape:cx="128"
     inkscape:cy="128"
     inkscape:window-width="1920"
     inkscape:window-height="1004"
     inkscape:window-x="0"
     inkscape:window-y="0"
     inkscape:window-maximized="1"
     inkscape:current-layer="svg5" />
  <defs
     id="defs2">
    <linearGradient
       inkscape:collect="always"
       xlink:href="#linearGradient6983"
       id="linearGradient7699"
       x1="32.000004"
       y1="4"
       x2="32"
       y2="60"
       gradientUnits="userSpaceOnUse"
       gradientTransform="scale(4)" />
    <linearGradient
       inkscape:collect="always"
       id="linearGradient6983">
      <stop
         style="stop-color:#424649;stop-opacity:1;"
         offset="0"
         id="stop6979" />
      <stop
         style="stop-color:#2a2c2f;stop-opacity:1;"
         offset="1"
         id="stop6981" />
    </linearGradient>
    <linearGradient
       inkscape:collect="always"
       id="linearGradient2401">
      <stop
         style="stop-color:#375a7d;stop-opacity:1;"
         offset="0"
         id="stop2397" />
      <stop
         style="stop-color:#54a3d8;stop-opacity:1"
         offset="1"
         id="stop2399" />
    </linearGradient>
    <linearGradient
       inkscape:collect="always"
       id="linearGradient1054">
      <stop
         style="stop-color:#abdaf9;stop-opacity:1;"
         offset="0"
         id="stop1050" />
      <stop
         style="stop-color:#7cbcec;stop-opacity:1"
         offset="1"
         id="stop1052" />
    </linearGradient>
    <linearGradient
       inkscape:collect="always"
       id="linearGradient1855">
      <stop
         style="stop-color:#c42c2c;stop-opacity:1;"
         offset="0"
         id="stop1851" />
      <stop
         style="stop-color:#f36856;stop-opacity:1"
         offset="1"
         id="stop1853" />
    </linearGradient>
    <linearGradient
       inkscape:collect="always"
       xlink:href="#linearGradient1054"
       id="linearGradient21394"
       x1="6.0000019"
       y1="34"
       x2="26.000002"
       y2="37"
       gradientUnits="userSpaceOnUse"
       gradientTransform="scale(4)" />
    <linearGradient
       inkscape:collect="always"
       xlink:href="#linearGradient2401"
       id="linearGradient21402"
       x1="42.51189"
       y1="45.399998"
       x2="40.242111"
       y2="21.585714"
       gradientUnits="userSpaceOnUse"
       gradientTransform="scale(4)" />
    <linearGradient
       inkscape:collect="always"
       xlink:href="#linearGradient1855"
       id="linearGradient21410"
       x1="32.000004"
       y1="14"
       x2="32.000004"
       y2="4"
       gradientUnits="userSpaceOnUse"
       gradientTransform="scale(4)" />
  </defs>
  <path
     id="path563"
     style="opacity:0.2;fill:#000000;stroke-width:8;stroke-linecap:round;stroke-linejoin:round"
     d="M 104,17 C 31.190548,17 16,32.518608 16,105 v 48 c 0,72.48138 15.190548,88 88,88 h 48 c 72.80944,0 88,-15.51862 88,-88 V 105 C 240,32.518608 224.80944,17 152,17 Z" />
  <path
     id="path530"
     style="fill:url(#linearGradient7699);fill-opacity:1;stroke-width:8;stroke-linecap:round;stroke-linejoin:round"
     d="M 104,16 C 31.190548,16 16,31.518608 16,104 v 48 c 0,72.48138 15.190548,88 88,88 h 48 c 72.80944,0 88,-15.51862 88,-88 V 104 C 240,31.518608 224.80944,16 152,16 Z" />
  <path
     d="M 88.000008,64 V 76 H 104.00001 V 64 Z m -16,24 v 12 H 104.00001 V 88 Z m -32,24 v 12 h 64.000002 v -12 z m -16,24 v 12 h 80.000002 v -12 z m 16,24 v 12 h 64.000002 v -12 z m 32,24 v 12 h 32.000002 v -12 z"
     style="fill:url(#linearGradient21394);fill-opacity:1;fill-rule:evenodd;stroke-width:4"
     id="path424-0"
     sodipodi:nodetypes="cccccccccccccccccccccccccccccc" />
  <path
     d="m 158.22119,85.607376 c -2.94611,0.15888 -6.11844,2.749296 -6.11101,5.619656 L 151.99982,175.974 c 0,3.82746 5.63326,7.15791 8.85582,4.88415 l 60.7143,-42.51836 c 3.24358,-2.24566 3.2362,-7.51349 0,-9.76911 L 160.96845,86.342856 c -0.80897,-0.563436 -1.7628,-0.787928 -2.74527,-0.735436 z"
     style="fill:url(#linearGradient21402);fill-opacity:1;stroke-width:4"
     id="path318"
     sodipodi:nodetypes="ccccccccc" />
  <rect
     style="fill:#e05e4c;fill-opacity:1;stroke-width:8.0796;stroke-linejoin:round"
     id="rect496-9"
     width="16"
     height="204"
     x="120"
     y="36.000008" />
  <path
     id="path396"
     style="fill:url(#linearGradient21410);fill-opacity:1;stroke-width:3.65148"
     d="M 96.000008,16 128.00001,56 160.00002,16 Z"
     sodipodi:nodetypes="cccc" />
</svg>
