<?xml version="1.0" encoding="UTF-8" standalone="no"?>
<!-- Created with Inkscape (http://www.inkscape.org/) -->

<svg
   width="256"
   height="256"
   viewBox="0 0 256 256"
   version="1.1"
   id="svg5"
   inkscape:version="1.2.1 (9c6d41e410, 2022-07-14)"
   sodipodi:docname="kleopatra.svg"
   xmlns:inkscape="http://www.inkscape.org/namespaces/inkscape"
   xmlns:sodipodi="http://sodipodi.sourceforge.net/DTD/sodipodi-0.dtd"
   xmlns:xlink="http://www.w3.org/1999/xlink"
   xmlns="http://www.w3.org/2000/svg"
   xmlns:svg="http://www.w3.org/2000/svg">
  <sodipodi:namedview
     id="namedview7"
     pagecolor="#ffffff"
     bordercolor="#000000"
     borderopacity="0.25"
     inkscape:showpageshadow="2"
     inkscape:pageopacity="0.0"
     inkscape:pagecheckerboard="0"
     inkscape:deskcolor="#d1d1d1"
     inkscape:document-units="px"
     showgrid="false"
     inkscape:zoom="3.34375"
     inkscape:cx="127.85047"
     inkscape:cy="128"
     inkscape:window-width="1920"
     inkscape:window-height="1014"
     inkscape:window-x="0"
     inkscape:window-y="32"
     inkscape:window-maximized="1"
     inkscape:current-layer="svg5" />
  <defs
     id="defs2">
    <linearGradient
       inkscape:collect="always"
       xlink:href="#linearGradient1142"
       id="linearGradient4780"
       x1="2"
       y1="2"
       x2="30"
       y2="30"
       gradientUnits="userSpaceOnUse"
       gradientTransform="scale(8)" />
    <linearGradient
       inkscape:collect="always"
       id="linearGradient1142">
      <stop
         style="stop-color:#da9925;stop-opacity:1;"
         offset="0"
         id="stop1138" />
      <stop
         style="stop-color:#e9b68c;stop-opacity:1;"
         offset="1"
         id="stop1140" />
    </linearGradient>
  </defs>
  <path
     d="M 104,17 C 31.190476,17 16,32.518536 16,105 v 48 c 0,72.48146 15.190476,88 88,88 h 48 c 72.80952,0 88,-15.51854 88,-88 V 105 C 240,32.518536 224.80952,17 152,17"
     style="opacity:0.2;fill:#000000;stroke-width:8;stroke-linecap:round;stroke-linejoin:round"
     id="path563" />
  <path
     id="path530"
     style="fill:url(#linearGradient4780);fill-opacity:1;stroke-width:8;stroke-linecap:round;stroke-linejoin:round"
     d="M 104,16 C 31.190548,16 16,31.518608 16,104 v 48 c 0,72.4814 15.190548,88 88,88 h 48 c 72.80946,0 88,-15.5186 88,-88 V 104 C 240,31.518608 224.80946,16 152,16 Z" />
  <path
     d="M 114.48282,64 C 99.750768,64 84.23432,67.830996 68.287504,75.398436 55.307232,81.55812 49.757272,86.640164 52.826564,89.5625 c 1.082708,1.030884 0.33408,1.245516 18.515628,-5.5 12.425384,-4.609904 27.70752,-8.499168 35.968748,-9.164064 12.75604,-1.026652 27.94858,2.16578 54.84375,11.515628 9.65813,3.357552 20.76499,6.884272 24.67969,7.835936 8.37236,2.035304 9.25406,1.719616 16.23438,1.742188 l 4.92968,0.008 V 92.008 c 0,-4.553636 -0.56872,-4.1875 -6.60156,-4.1875 -13.4495,0 -16.8044,-2.063944 -37.04688,-10.60156 C 142.66852,68.074072 129.53372,64 114.48282,64 Z m -9.04688,32.046876 c -2.28666,0.08392 -4.32731,0.29468 -5.968748,0.632812 -7.570584,1.559392 -17.710924,7.226092 -23.929688,12.976562 -9.63934,8.91347 -20.535636,25.57932 -19.468752,29.78125 0.48044,1.89218 0.990804,2.02021 9.484376,2.375 4.930616,0.206 14.586952,1.32323 22.156252,2.47656 l 13.92969,2.08594 v 5.86719 c -2.374146,10.7532 -0.68026,16.5603 -0.2578,20.47656 1.58218,14.17379 1.60273,15.71641 5.26563,15.20313 5.65838,-9.19829 5.50587,-26.84134 5.54687,-37.00782 l 5.77344,5.59375 c 15.81803,13.95177 21.67613,14.95341 35.24219,21.47657 11.22058,4.57337 20.84065,6.59976 31.67968,5.8125 6.66296,0 15.07542,-7.38478 15.07032,-15.92188 -0.002,-6.58284 -1.85862,-12.14295 -6.3672,-14.25781 -8.2885,-3.88791 -17.47656,0.72287 -17.47656,9.35156 0,8.46883 8.16218,13.174 13.57812,7.82031 2.25922,-2.23325 2.81528,-6.0005 1.21094,-8.26562 -0.71202,-1.00533 -0.78834,-0.83759 -0.34376,0.71875 1.53444,5.37089 -2.64946,9.09231 -7.46093,6.63281 -5.02839,-2.57038 -4.07616,-10.82732 1.40625,-12.1875 2.70806,-0.67188 7.45098,3.6672 9.22656,7.25 0.95686,1.93067 0.99216,3.1067 0.1718,5.8125 -2.69044,8.87662 -14.78022,8.92187 -32.97656,0.14844 -4.41069,-2.12664 -10.32521,-5.33404 -13.14062,-7.13281 -4.85246,-3.10024 -11.1714,-6.90147 -19.64063,-14.25781 -4.48655,-3.89704 -4.74042,-3.36307 6.96094,-5.25 3.36414,-0.54245 13.20097,-3.36728 21.85156,-6.27344 15.36821,-5.16291 15.95207,-6.37852 25.34375,-6.44531 5.2865,-0.038 -3.49735,-0.36932 5.27344,0.008 l 16.42186,0.67949 v -7.76562 -8.54688 l -19.03906,-0.46875 c -26.54771,-0.68923 -13.6058,-1.30149 -41.00773,-11.76562 -5.23239,-1.99812 -10.81019,-4.41361 -14.46875,-5.359378 -6.48804,-1.677224 -17.18691,-2.525136 -24.04688,-2.273436 z m 31.08594,13.617184 c 0.31812,0 4.84648,2.54135 12.14844,5.63282 7.30196,3.09145 14.22424,5.8473 15.375,6.13281 1.1508,0.28556 2.08594,0.82924 2.08594,1.19531 0,0.36608 -4.42148,2.83843 -9.82813,5.49219 -11.02596,5.41187 -17.56497,7.68026 -28.21875,8.20312 l -2.625,0.10936 2.83594,-2.21093 c 1.56221,-1.21705 3.92085,-4.02809 5.24218,-6.25 2.09636,-3.5251 2.40626,-4.94604 2.40626,-11.16407 0,-3.91928 0.26,-7.14063 0.57812,-7.14062 z m -45.976564,1.88282 c 1.309564,-0.24532 1.30022,1.76286 1.3125,5.77343 0.0248,7.89251 1.941588,12.19322 7.453124,16.71875 l 3.60156,2.95313 -18.531244,-1.55469 c -9.000688,-0.84871 -15.990312,-1.72748 -16.23438,-1.96875 -0.8748,-0.86471 5.557252,-7.47278 12.632816,-14.1875 5.26828,-4.99959 8.456056,-7.4891 9.765624,-7.73437 z"
     style="fill:#482f00;stroke-width:4"
     id="path304"
     sodipodi:nodetypes="ssscsssccsscsscsscccccccccccsssscssscssscsccccccsssssssscccssssccccccsc" />
</svg>
