<?xml version="1.0" encoding="UTF-8" standalone="no"?>
<!-- Created with Inkscape (http://www.inkscape.org/) -->

<svg
   width="256"
   height="256"
   viewBox="0 0 256 256"
   version="1.1"
   id="svg5"
   inkscape:version="1.2.1 (9c6d41e410, 2022-07-14)"
   sodipodi:docname="korganizer.svg"
   xmlns:inkscape="http://www.inkscape.org/namespaces/inkscape"
   xmlns:sodipodi="http://sodipodi.sourceforge.net/DTD/sodipodi-0.dtd"
   xmlns:xlink="http://www.w3.org/1999/xlink"
   xmlns="http://www.w3.org/2000/svg"
   xmlns:svg="http://www.w3.org/2000/svg">
  <sodipodi:namedview
     id="namedview7"
     pagecolor="#ffffff"
     bordercolor="#000000"
     borderopacity="0.25"
     inkscape:showpageshadow="2"
     inkscape:pageopacity="0.0"
     inkscape:pagecheckerboard="0"
     inkscape:deskcolor="#d1d1d1"
     inkscape:document-units="px"
     showgrid="false"
     inkscape:zoom="3.2265625"
     inkscape:cx="127.84504"
     inkscape:cy="128"
     inkscape:window-width="1920"
     inkscape:window-height="1006"
     inkscape:window-x="0"
     inkscape:window-y="0"
     inkscape:window-maximized="1"
     inkscape:current-layer="svg5"
     showguides="true" />
  <defs
     id="defs2">
    <linearGradient
       inkscape:collect="always"
       id="linearGradient1606">
      <stop
         style="stop-color:#eaebed;stop-opacity:1;"
         offset="0"
         id="stop1602" />
      <stop
         style="stop-color:#f9fafa;stop-opacity:1;"
         offset="1"
         id="stop1604" />
    </linearGradient>
    <linearGradient
       inkscape:collect="always"
       xlink:href="#linearGradient1606"
       id="linearGradient3500"
       x1="2"
       y1="2"
       x2="30"
       y2="30"
       gradientUnits="userSpaceOnUse"
       gradientTransform="scale(8)" />
  </defs>
  <path
     d="M 104,17 C 31.190476,17 16,32.518536 16,105 v 48 c 0,72.48146 15.190476,88 88,88 h 48 c 72.80952,0 88,-15.51854 88,-88 V 105 C 240,32.518536 224.80952,17 152,17"
     style="opacity:0.2;fill:#000000;stroke-width:8;stroke-linecap:round;stroke-linejoin:round"
     id="path563" />
  <path
     id="path530"
     style="fill:url(#linearGradient3500);fill-opacity:1;stroke-width:8;stroke-linecap:round;stroke-linejoin:round"
     d="M 104,16 C 31.190548,16 16,31.518608 16,104 v 48 c 0,72.4814 15.190548,88 88,88 h 48 c 72.80946,0 88,-15.5186 88,-88 V 104 C 240,31.518608 224.80946,16 152,16 Z"
     sodipodi:nodetypes="sssssssss" />
  <path
     id="rect349"
     style="fill:#dc4e4e;fill-opacity:1;stroke-width:16;stroke-linecap:round;stroke-linejoin:round"
     d="m 52,116 c -6.627404,0 -12,5.3726 -12,12 0,6.6274 5.372596,12 12,12 6.627404,0 12,-5.3726 12,-12 0,-6.6274 -5.372596,-12 -12,-12 z m 32,8 c -2.215996,0 -4,1.784 -4,4 0,2.216 1.784004,4 4,4 h 120 c 2.216,0 4,-1.784 4,-4 0,-2.216 -1.784,-4 -4,-4 z" />
  <path
     id="rect376"
     style="fill:#929292;fill-opacity:1;stroke-width:16;stroke-linecap:round;stroke-linejoin:round"
     d="m 52,60 c -2.209136,0 -4,1.790864 -4,4 0,2.209136 1.790864,4 4,4 2.209136,0 4,-1.790864 4,-4 0,-2.209136 -1.790864,-4 -4,-4 z m 24,0 c -2.215988,0 -4,1.784012 -4,4 0,2.215988 1.784012,4 4,4 h 128 c 2.21598,0 4,-1.784012 4,-4 0,-2.215988 -1.78402,-4 -4,-4 z M 52,92 c -2.209136,0 -4,1.790864 -4,4 0,2.209136 1.790864,4 4,4 2.209136,0 4,-1.790864 4,-4 0,-2.209136 -1.790864,-4 -4,-4 z m 24,0 c -2.215988,0 -4,1.784012 -4,4 0,2.215988 1.784012,4 4,4 h 128 c 2.21598,0 4,-1.784012 4,-4 0,-2.215988 -1.78402,-4 -4,-4 z m -24,64 c -2.209136,0 -4,1.79086 -4,4 0,2.20914 1.790864,4 4,4 2.209136,0 4,-1.79086 4,-4 0,-2.20914 -1.790864,-4 -4,-4 z m 24,0 c -2.215988,0 -4,1.78401 -4,4 0,2.21599 1.784012,4 4,4 h 128 c 2.21598,0 4,-1.78401 4,-4 0,-2.21599 -1.78402,-4 -4,-4 z m -24,32 c -2.209136,0 -4,1.79086 -4,4 0,2.20914 1.790864,4 4,4 2.209136,0 4,-1.79086 4,-4 0,-2.20914 -1.790864,-4 -4,-4 z m 24,0 c -2.215988,0 -4,1.78402 -4,4 0,2.21598 1.784012,4 4,4 h 128 c 2.21598,0 4,-1.78402 4,-4 0,-2.21598 -1.78402,-4 -4,-4 z" />
  <circle
     style="opacity:1;fill:#ffffff;fill-opacity:1;stroke-width:4;stroke-linecap:round;stroke-linejoin:round"
     id="path1792"
     cx="51.825691"
     cy="128"
     r="8" />
</svg>
