<?xml version="1.0" encoding="UTF-8" standalone="no"?>
<!-- Created with Inkscape (http://www.inkscape.org/) -->

<svg
   width="256"
   height="256"
   viewBox="0 0 256 256"
   version="1.1"
   id="svg5"
   inkscape:version="1.2.1 (9c6d41e410, 2022-07-14)"
   sodipodi:docname="kwalletmanager.svg"
   xmlns:inkscape="http://www.inkscape.org/namespaces/inkscape"
   xmlns:sodipodi="http://sodipodi.sourceforge.net/DTD/sodipodi-0.dtd"
   xmlns:xlink="http://www.w3.org/1999/xlink"
   xmlns="http://www.w3.org/2000/svg"
   xmlns:svg="http://www.w3.org/2000/svg">
  <sodipodi:namedview
     id="namedview7"
     pagecolor="#ffffff"
     bordercolor="#000000"
     borderopacity="0.25"
     inkscape:showpageshadow="2"
     inkscape:pageopacity="0.0"
     inkscape:pagecheckerboard="0"
     inkscape:deskcolor="#d1d1d1"
     inkscape:document-units="px"
     showgrid="false"
     inkscape:zoom="3.125"
     inkscape:cx="127.84"
     inkscape:cy="128"
     inkscape:window-width="1920"
     inkscape:window-height="1006"
     inkscape:window-x="0"
     inkscape:window-y="0"
     inkscape:window-maximized="1"
     inkscape:current-layer="svg5"
     showguides="false" />
  <defs
     id="defs2">
    <linearGradient
       inkscape:collect="always"
       xlink:href="#linearGradient2572"
       id="linearGradient3500"
       x1="2"
       y1="2"
       x2="30"
       y2="30"
       gradientUnits="userSpaceOnUse"
       gradientTransform="scale(8)" />
    <linearGradient
       inkscape:collect="always"
       id="linearGradient2572">
      <stop
         style="stop-color:#bd9565;stop-opacity:1;"
         offset="0"
         id="stop2568" />
      <stop
         style="stop-color:#dec18b;stop-opacity:1;"
         offset="1"
         id="stop2570" />
    </linearGradient>
    <linearGradient
       inkscape:collect="always"
       xlink:href="#linearGradient2572"
       id="linearGradient5220"
       x1="2"
       y1="2"
       x2="30"
       y2="30"
       gradientUnits="userSpaceOnUse"
       gradientTransform="matrix(8,0,0,8,0,16)" />
  </defs>
  <path
     d="M 104,17 C 31.190476,17 16,32.518536 16,105 v 48 c 0,72.48146 15.190476,88 88,88 h 48 c 72.80952,0 88,-15.51854 88,-88 V 105 C 240,32.518536 224.80952,17 152,17"
     style="opacity:0.2;fill:#000000;stroke-width:8;stroke-linecap:round;stroke-linejoin:round"
     id="path563" />
  <path
     id="path530"
     style="fill:url(#linearGradient3500);fill-opacity:1;stroke-width:8;stroke-linecap:round;stroke-linejoin:round"
     d="M 104,16 C 31.190548,16 16,31.518608 16,104 v 48 c 0,72.4814 15.190548,88 88,88 h 48 c 72.80946,0 88,-15.5186 88,-88 V 104 C 240,31.518608 224.80946,16 152,16 Z" />
  <rect
     style="opacity:1;fill:#9f825a;fill-opacity:1;stroke-width:32;stroke-linecap:round;stroke-linejoin:round"
     id="rect5398"
     width="112"
     height="80"
     x="56"
     y="56"
     ry="16" />
  <path
     id="rect419"
     style="opacity:1;fill:#eaddca;fill-opacity:1;stroke-width:64;stroke-linecap:round;stroke-linejoin:round"
     d="m 56,72 v 32 80 c 0,8.864 7.136008,16 16,16 h 112 c 8.864,0 16,-7.136 16,-16 v -80 c 0,-8.863992 -7.136,-16 -16,-16 H 88 72 A 16,16 0 0 1 56,72 Z" />
  <rect
     style="fill:#ffffff;stroke-width:64;stroke-linecap:round;stroke-linejoin:round"
     id="rect421"
     width="64"
     height="32"
     x="152"
     y="128"
     ry="8" />
  <circle
     style="opacity:1;fill:url(#linearGradient5220);fill-opacity:1;stroke-width:32;stroke-linecap:round;stroke-linejoin:round"
     id="path5204"
     cx="200.00002"
     cy="144"
     r="8" />
</svg>
