<?xml version="1.0" encoding="UTF-8" standalone="no"?>
<!-- Created with Inkscape (http://www.inkscape.org/) -->

<svg
   width="256"
   height="256"
   viewBox="0 0 256 256"
   version="1.1"
   id="svg5"
   inkscape:version="1.2.1 (9c6d41e410, 2022-07-14)"
   sodipodi:docname="libreoffice-draw.svg"
   xmlns:inkscape="http://www.inkscape.org/namespaces/inkscape"
   xmlns:sodipodi="http://sodipodi.sourceforge.net/DTD/sodipodi-0.dtd"
   xmlns:xlink="http://www.w3.org/1999/xlink"
   xmlns="http://www.w3.org/2000/svg"
   xmlns:svg="http://www.w3.org/2000/svg">
  <sodipodi:namedview
     id="namedview7"
     pagecolor="#ffffff"
     bordercolor="#000000"
     borderopacity="0.25"
     inkscape:showpageshadow="2"
     inkscape:pageopacity="0.0"
     inkscape:pagecheckerboard="0"
     inkscape:deskcolor="#d1d1d1"
     inkscape:document-units="px"
     showgrid="false"
     inkscape:zoom="3.1953125"
     inkscape:cx="127.84352"
     inkscape:cy="128"
     inkscape:window-width="1920"
     inkscape:window-height="1004"
     inkscape:window-x="0"
     inkscape:window-y="0"
     inkscape:window-maximized="1"
     inkscape:current-layer="svg5"
     showguides="false" />
  <defs
     id="defs2">
    <linearGradient
       inkscape:collect="always"
       xlink:href="#linearGradient16449"
       id="linearGradient3500"
       x1="2"
       y1="2"
       x2="30"
       y2="30"
       gradientUnits="userSpaceOnUse"
       gradientTransform="scale(8)" />
    <linearGradient
       inkscape:collect="always"
       id="linearGradient16449">
      <stop
         style="stop-color:#ee9b00;stop-opacity:1;"
         offset="0"
         id="stop16445" />
      <stop
         style="stop-color:#eece00;stop-opacity:1;"
         offset="1"
         id="stop16447" />
    </linearGradient>
  </defs>
  <path
     d="M 104,17 C 31.190476,17 16,32.518536 16,105 v 48 c 0,72.48146 15.190476,88 88,88 h 48 c 72.80952,0 88,-15.51854 88,-88 V 105 C 240,32.518536 224.80952,17 152,17"
     style="opacity:0.2;fill:#000000;stroke-width:8;stroke-linecap:round;stroke-linejoin:round"
     id="path563" />
  <path
     id="path530"
     style="fill:url(#linearGradient3500);fill-opacity:1;stroke-width:8;stroke-linecap:round;stroke-linejoin:round"
     d="M 104,16 C 31.190548,16 16,31.518608 16,104 v 48 c 0,72.4814 15.190548,88 88,88 h 48 c 72.80946,0 88,-15.5186 88,-88 V 104 C 240,31.518608 224.80946,16 152,16 Z"
     sodipodi:nodetypes="sssssssss" />
  <path
     id="path782"
     style="fill:#f2f2f2;fill-opacity:1;stroke-width:8;stroke-linecap:round;stroke-linejoin:round"
     d="M 104,32 C 44.203652,32 32,44.481244 32,104 v 48 c 0,59.51876 12.203652,72 72,72 h 48 c 59.79636,0 72,-12.48124 72,-72 V 96 L 160,32 Z"
     sodipodi:nodetypes="ssssssccs" />
  <path
     d="m 164.57864,88.925184 c -4.85156,2.703736 -6.67382,7.997392 -6.9375,12.968756 -0.26368,4.97136 0.64088,10.22665 1.45312,15.29688 0.81224,5.07021 1.52072,9.94956 1.29688,13.46874 -0.22384,3.51918 -0.90633,5.04833 -2.89063,6.04688 -1.61547,0.81294 -2.54122,0.85718 -3.45312,0.65624 -0.91189,-0.20096 -1.98585,-0.79384 -3.26563,-2 -2.55954,-2.4123 -5.48198,-7.09035 -8.8125,-12.09374 -3.33051,-5.0034 -7.15115,-10.39836 -12.51561,-14.26563 -5.36447,-3.86727 -12.50975,-5.92164 -20.84375,-4.03125 l -0.0784,0.016 -0.0784,0.0312 c -5.49306,1.48088 -9.495628,5.7986 -12.281252,11.04688 -2.785616,5.24828 -4.517496,11.6301 -5.359368,18.40625 -0.11056,0.88983 0.09664,1.81742 0.016,2.71875 -1.874144,-0.1284 -3.460384,-0.77152 -5.359376,-0.8125 h -0.016 l -9.281264,-0.20312 -4,-0.0784 -0.17184,8 4,0.0784 9.29688,0.20312 c 2.037896,0.044 3.616472,0.69104 5.609368,0.84375 0.12024,10.3125 1.585096,20.58753 6.343752,28.25 l 0.0784,0.12504 0.09376,0.10936 c 7.15516,9.80836 19.50796,12.21071 28.46875,8.23437 4.4804,-1.98817 8.22605,-5.85546 9.39063,-11.0625 1.16456,-5.20703 -0.25008,-11.28967 -4.42188,-17.73437 -3.97596,-6.14214 -10.79361,-10.09799 -18.75,-12.70313 -3.97363,-1.30107 -8.83022,-1.36678 -13.3125,-2.03125 0.076,-0.98252 -0.16648,-1.99057 -0.0472,-2.95312 0.74976,-6.03494 2.33615,-11.59324 4.48438,-15.64062 2.13421,-4.021 4.66108,-6.31213 7.25,-7.03126 6.24215,-1.38178 10.40454,-0.076 14.28124,2.71875 3.90614,2.81595 7.32687,7.38924 10.53124,12.20313 3.20438,4.8139 6.11074,9.80323 10,13.46875 1.94464,1.83276 4.24344,3.38568 7.03126,4 2.78781,0.61432 5.89054,0.14216 8.78125,-1.3125 4.9605,-2.49625 6.95207,-7.75762 7.26562,-12.6875 0.31352,-4.92988 -0.5772,-10.17233 -1.39062,-15.25 -0.81343,-5.07768 -1.55138,-9.98948 -1.35938,-13.60937 0.192,-3.619906 0.91395,-5.330786 2.84375,-6.406258 -0.0902,0.0504 0.41304,-0.1396 1.8125,0.43752 1.39946,0.57712 3.27366,1.783752 5,3.140624 3.45271,2.713734 6.34375,5.890624 6.34375,5.890624 l 2.68749,2.96875 5.93752,-5.35937 -2.68752,-2.96876 c 0,0 -3.22038,-3.587268 -7.34373,-6.828116 -2.06168,-1.620432 -4.33908,-3.188584 -6.875,-4.234376 -2.53592,-1.0458 -5.75711,-1.70836 -8.76562,-0.0312 z M 98.922392,146.44081 c 3.566598,0.59144 7.659378,0.6128 10.703128,1.60937 6.919,2.26547 12.02722,5.56925 14.53125,9.43751 3.38738,5.23289 3.90201,9.07469 3.32813,11.64062 -0.57392,2.56594 -2.22396,4.33747 -4.84375,5.5 -5.2049,2.30967 -13.74689,1.02292 -18.64062,-5.54687 -3.3428,-5.45886 -4.723098,-13.92565 -5.078138,-22.64063 z"
     style="color:#000000;fill:#797979;fill-opacity:1;stroke-width:8;stroke-linecap:square"
     id="path17715" />
</svg>
