<?xml version="1.0" encoding="UTF-8" standalone="no"?>
<!-- Created with Inkscape (http://www.inkscape.org/) -->

<svg
   width="256"
   height="256"
   viewBox="0 0 256 256"
   version="1.1"
   id="svg5"
   inkscape:version="1.2.2 (b0a8486541, 2022-12-01)"
   sodipodi:docname="libreoffice-base.svg"
   xmlns:inkscape="http://www.inkscape.org/namespaces/inkscape"
   xmlns:sodipodi="http://sodipodi.sourceforge.net/DTD/sodipodi-0.dtd"
   xmlns:xlink="http://www.w3.org/1999/xlink"
   xmlns="http://www.w3.org/2000/svg"
   xmlns:svg="http://www.w3.org/2000/svg">
  <sodipodi:namedview
     id="namedview7"
     pagecolor="#ffffff"
     bordercolor="#000000"
     borderopacity="0.25"
     inkscape:showpageshadow="2"
     inkscape:pageopacity="0.0"
     inkscape:pagecheckerboard="0"
     inkscape:deskcolor="#d1d1d1"
     inkscape:document-units="px"
     showgrid="false"
     inkscape:zoom="3.1289062"
     inkscape:cx="127.8402"
     inkscape:cy="128"
     inkscape:window-width="1920"
     inkscape:window-height="998"
     inkscape:window-x="0"
     inkscape:window-y="0"
     inkscape:window-maximized="1"
     inkscape:current-layer="svg5"
     showguides="false" />
  <defs
     id="defs2">
    <linearGradient
       inkscape:collect="always"
       xlink:href="#linearGradient1370"
       id="linearGradient3500"
       x1="2"
       y1="2"
       x2="30"
       y2="30"
       gradientUnits="userSpaceOnUse"
       gradientTransform="scale(8)" />
    <linearGradient
       inkscape:collect="always"
       id="linearGradient1370">
      <stop
         style="stop-color:#8a0ac2;stop-opacity:1;"
         offset="0"
         id="stop1366" />
      <stop
         style="stop-color:#d378e5;stop-opacity:1;"
         offset="1"
         id="stop1368" />
    </linearGradient>
  </defs>
  <path
     d="M 104,17 C 31.190476,17 16,32.518536 16,105 v 48 c 0,72.48146 15.190476,88 88,88 h 48 c 72.80952,0 88,-15.51854 88,-88 V 105 C 240,32.518536 224.80952,17 152,17"
     style="opacity:0.2;fill:#000000;stroke-width:8;stroke-linecap:round;stroke-linejoin:round"
     id="path563" />
  <path
     id="path530"
     style="fill:url(#linearGradient3500);fill-opacity:1;stroke-width:8;stroke-linecap:round;stroke-linejoin:round"
     d="M 104,16 C 31.190548,16 16,31.518608 16,104 v 48 c 0,72.4814 15.190548,88 88,88 h 48 c 72.80946,0 88,-15.5186 88,-88 V 104 C 240,31.518608 224.80946,16 152,16 Z"
     sodipodi:nodetypes="sssssssss" />
  <path
     id="path525"
     style="fill:#e88ff7;fill-opacity:1;stroke-width:7.74596;stroke-linecap:round;stroke-linejoin:round"
     d="m 94,80 c -16.568492,0 -30,3.231312 -30,8 v 12 c 0,4.76869 13.431508,8 30,8 16.56849,0 30,-3.23131 30,-8 V 88 c 0,-4.768688 -13.43151,-8 -30,-8 z m -30,28 v 16 c 0,4.76868 13.431524,8 30,8 16.56848,0 30,-3.23132 30,-8 v -16 c 0,4.76868 -13.43152,8 -30,8 -16.568476,0 -30,-3.23132 -30,-8 z m 0,24 v 16 c 0,4.76868 13.431524,8 30,8 16.56848,0 30,-3.23132 30,-8 v -16 c 0,4.76868 -13.43152,8 -30,8 -16.568476,0 -30,-3.23132 -30,-8 z m 0,24 v 16 c 0,4.76868 13.431524,8 30,8 16.56848,0 30,-3.23132 30,-8 v -16 c 0,4.76868 -13.43152,8 -30,8 -16.568476,0 -30,-3.23132 -30,-8 z" />
  <path
     id="rect523"
     style="fill:#ffffff;stroke-width:4"
     d="m 144,96 c -4.432,0 -8,3.568004 -8,8 v 64 c 0,4.432 3.568,8 8,8 h 40 c 4.432,0 8,-3.568 8,-8 v -64 c 0,-4.431996 -3.568,-8 -8,-8 z m 0,8 h 16 v 16 h -16 z m 24,0 h 16 v 16 h -16 z m -24,24 h 16 v 16 h -16 z m 24,0 h 16 v 16 h -16 z m -24,24 h 16 v 16 h -16 z m 24,0 h 16 v 16 h -16 z"
     sodipodi:nodetypes="ssssssssscccccccccccccccccccccccccccccc" />
</svg>
