<?xml version="1.0" encoding="UTF-8" standalone="no"?>
<!-- Created with Inkscape (http://www.inkscape.org/) -->

<svg
   width="256"
   height="256"
   viewBox="0 0 256 256"
   version="1.1"
   id="svg5"
   inkscape:version="1.2.1 (9c6d41e410, 2022-07-14)"
   sodipodi:docname="microsoft-edge-canary.svg"
   xmlns:inkscape="http://www.inkscape.org/namespaces/inkscape"
   xmlns:sodipodi="http://sodipodi.sourceforge.net/DTD/sodipodi-0.dtd"
   xmlns:xlink="http://www.w3.org/1999/xlink"
   xmlns="http://www.w3.org/2000/svg"
   xmlns:svg="http://www.w3.org/2000/svg">
  <sodipodi:namedview
     id="namedview7"
     pagecolor="#ffffff"
     bordercolor="#000000"
     borderopacity="0.25"
     inkscape:showpageshadow="2"
     inkscape:pageopacity="0.0"
     inkscape:pagecheckerboard="0"
     inkscape:deskcolor="#d1d1d1"
     inkscape:document-units="px"
     showgrid="false"
     inkscape:zoom="3.09375"
     inkscape:cx="128"
     inkscape:cy="124.12121"
     inkscape:window-width="1920"
     inkscape:window-height="1004"
     inkscape:window-x="0"
     inkscape:window-y="0"
     inkscape:window-maximized="1"
     inkscape:current-layer="svg5"
     showguides="false" />
  <defs
     id="defs2">
    <linearGradient
       inkscape:collect="always"
       xlink:href="#linearGradient2180"
       id="linearGradient1833"
       x1="6.5871072"
       y1="15.827564"
       x2="20.517012"
       y2="15.827564"
       gradientUnits="userSpaceOnUse" />
    <linearGradient
       inkscape:collect="always"
       id="linearGradient2180">
      <stop
         style="stop-color:#0c59a4;stop-opacity:1;"
         offset="0"
         id="stop2176" />
      <stop
         style="stop-color:#114a8b;stop-opacity:1;"
         offset="1"
         id="stop2178" />
    </linearGradient>
    <radialGradient
       inkscape:collect="always"
       xlink:href="#linearGradient27818"
       id="radialGradient1823"
       cx="13.964947"
       cy="15.070184"
       fx="13.964947"
       fy="15.070184"
       r="6.9649525"
       gradientTransform="matrix(0.00133244,0.84210075,-1.150171,0.00181993,31.545253,4.3477182)"
       gradientUnits="userSpaceOnUse" />
    <linearGradient
       inkscape:collect="always"
       id="linearGradient27818">
      <stop
         style="stop-color:#000000;stop-opacity:0;"
         offset="0.72000003"
         id="stop27812" />
      <stop
         style="stop-color:#000000;stop-opacity:0.5;"
         offset="0.94999999"
         id="stop27814" />
      <stop
         style="stop-color:#000000;stop-opacity:1"
         offset="1"
         id="stop27816" />
    </linearGradient>
    <linearGradient
       inkscape:collect="always"
       xlink:href="#linearGradient1748"
       id="linearGradient1841"
       x1="13.139339"
       y1="8.2946587"
       x2="5.5388999"
       y2="19.625275"
       gradientUnits="userSpaceOnUse" />
    <linearGradient
       inkscape:collect="always"
       id="linearGradient1748">
      <stop
         style="stop-color:#1b9ed2;stop-opacity:1;"
         offset="0"
         id="stop1744" />
      <stop
         style="stop-color:#1595df;stop-opacity:1;"
         offset="0.15000001"
         id="stop1752" />
      <stop
         style="stop-color:#0680df;stop-opacity:1;"
         offset="0.67000002"
         id="stop1754" />
      <stop
         style="stop-color:#0078d4;stop-opacity:1;"
         offset="1"
         id="stop1746" />
    </linearGradient>
    <radialGradient
       inkscape:collect="always"
       xlink:href="#linearGradient1360"
       id="radialGradient1815"
       cx="7.720675"
       cy="15.910741"
       fx="7.720675"
       fy="15.910741"
       r="6.5812793"
       gradientTransform="matrix(1.3946929,0.46534247,-0.50264665,1.5064984,3.8924491,-10.936195)"
       gradientUnits="userSpaceOnUse" />
    <linearGradient
       inkscape:collect="always"
       id="linearGradient1360">
      <stop
         style="stop-color:#000000;stop-opacity:0;"
         offset="0.75"
         id="stop1356" />
      <stop
         style="stop-color:#000000;stop-opacity:0.49803922;"
         offset="0.94999999"
         id="stop1364" />
      <stop
         style="stop-color:#000000;stop-opacity:1;"
         offset="1"
         id="stop1358" />
    </linearGradient>
    <radialGradient
       inkscape:collect="always"
       xlink:href="#linearGradient1290"
       id="radialGradient1805"
       cx="18.083834"
       cy="14.548402"
       fx="18.083834"
       fy="14.548402"
       r="9.9997654"
       gradientTransform="matrix(-2.7997325,-0.01668205,0.00863725,-1.4495504,54.590382,27.273247)"
       gradientUnits="userSpaceOnUse" />
    <linearGradient
       inkscape:collect="always"
       id="linearGradient1290">
      <stop
         style="stop-color:#35c1f1;stop-opacity:1;"
         offset="0"
         id="stop1286" />
      <stop
         style="stop-color:#34c1ed;stop-opacity:1;"
         offset="0.1"
         id="stop1294" />
      <stop
         style="stop-color:#2fc2df;stop-opacity:1;"
         offset="0.23"
         id="stop1296" />
      <stop
         style="stop-color:#2bc3d2;stop-opacity:1;"
         offset="0.30000001"
         id="stop1298" />
      <stop
         style="stop-color:#36c752;stop-opacity:1;"
         offset="1"
         id="stop1288" />
    </linearGradient>
    <radialGradient
       inkscape:collect="always"
       xlink:href="#linearGradient1280"
       id="radialGradient1624"
       cx="0.61833256"
       cy="6.561069"
       fx="0.61833256"
       fy="6.561069"
       r="9.9997663"
       gradientTransform="matrix(-0.70510525,0.15923948,-0.20485941,-0.90710844,21.867116,14.51222)"
       gradientUnits="userSpaceOnUse" />
    <linearGradient
       inkscape:collect="always"
       id="linearGradient1280">
      <stop
         style="stop-color:#66eb6e;stop-opacity:1;"
         offset="0"
         id="stop1276" />
      <stop
         style="stop-color:#66eb6e;stop-opacity:0;"
         offset="1"
         id="stop1278" />
    </linearGradient>
  </defs>
  <path
     d="M 104,17 C 31.190476,17 16,32.518536 16,105 v 48 c 0,72.48146 15.190476,88 88,88 h 48 c 72.80952,0 88,-15.51854 88,-88 V 105 C 240,32.518536 224.80952,17 152,17"
     style="opacity:0.2;fill:#000000;stroke-width:8;stroke-linecap:round;stroke-linejoin:round"
     id="path563" />
  <path
     id="path533"
     style="fill:#fafafa;fill-opacity:1;stroke-width:8;stroke-linecap:round;stroke-linejoin:round"
     d="M 104,16 C 31.190548,16 16,31.518608 16,104 v 48 c 0,72.4814 15.190548,88 88,88 h 48 c 72.80946,0 88,-15.5186 88,-88 V 104 C 240,31.518608 224.80946,16 152,16 Z" />
  <g
     id="g1849"
     transform="matrix(8.0001872,0,0,8.0001872,31.999628,32.000944)">
    <path
       d="m 20.050795,16.882888 c -0.958269,0.942903 -2.444763,1.166719 -3.627814,1.172531 -3.696557,0 -6.916594,-2.842616 -6.916594,-6.105452 0.0096,-0.891127 0.50068,-1.707299 1.283484,-2.133303 -3.343463,0.1406058 -4.202764,3.624506 -4.202764,5.665634 0,5.771088 5.319074,6.356165 6.46507,6.356165 0.617916,0 1.549867,-0.179663 2.109194,-0.356201 l 0.102335,-0.03437 c 2.152349,-0.744046 3.987241,-2.198662 5.202678,-4.124437 0.17359,-0.273484 -0.13243,-0.597894 -0.415589,-0.440565 z"
       style="fill:url(#linearGradient1833);fill-opacity:1"
       id="path396" />
    <path
       d="m 20.050795,16.882888 c -0.95827,0.942903 -2.444764,1.166718 -3.627814,1.17253 -3.696557,0 -6.9165945,-2.842615 -6.9165945,-6.105451 0.0096,-0.891127 0.5006805,-1.707299 1.2834845,-2.133303 -3.3434635,0.140605 -4.2027645,3.624506 -4.2027645,5.665633 0,5.771089 5.3190745,6.356165 6.4650705,6.356165 0.617916,0 1.549867,-0.179663 2.109194,-0.356201 l 0.102335,-0.03437 c 2.152349,-0.744046 3.987241,-2.198662 5.202678,-4.124438 0.17359,-0.273483 -0.13243,-0.597894 -0.415589,-0.440565 z"
       style="opacity:0.35;fill:url(#radialGradient1823);fill-opacity:1"
       id="path358" />
    <path
       d="M 9.9595242,20.857346 C 9.2627585,20.424906 8.6589187,19.858271 8.1831143,19.190385 5.8743683,16.027408 7.2768803,11.547082 10.78987,9.8166639 c 0.243729,-0.1148283 0.6601,-0.3226124 1.213959,-0.3124571 0.791026,0.00576 1.533718,0.381567 2.006858,1.0154862 0.31546,0.42118 0.48939,0.931457 0.496832,1.457614 0,-0.0164 1.910774,-6.2179025 -6.2494627,-6.2179025 -3.429393,0 -6.249463,3.2542438 -6.249463,6.1093235 -0.01353,1.510299 0.30964,3.004638 0.946012,4.374403 2.152757,4.592979 7.4037987,6.846334 12.2161387,5.242254 -1.647439,0.519401 -3.739664,0.291021 -5.2041889,-0.624915 z"
       style="fill:url(#linearGradient1841);fill-opacity:1"
       id="path434" />
    <path
       d="M 9.9595239,20.857346 C 9.2627582,20.424907 8.6589184,19.858271 8.183114,19.190386 5.8743676,16.027408 7.2768798,11.547081 10.78987,9.8166642 c 0.243729,-0.1148289 0.6601,-0.3226127 1.213959,-0.3124579 0.791026,0.0058 1.533718,0.3815679 2.006858,1.0154867 0.31546,0.421179 0.48939,0.931456 0.496832,1.457614 0,-0.0164 1.910774,-6.2179025 -6.2494627,-6.2179025 -3.429393,0 -6.2494633,3.2542437 -6.2494633,6.1093235 -0.01353,1.510299 0.30964,3.004638 0.946012,4.374403 2.1527571,4.592979 7.403799,6.846334 12.216139,5.242254 -1.647439,0.519402 -3.739664,0.291022 -5.2041892,-0.624915 z"
       style="opacity:0.45;fill:url(#radialGradient1815);fill-opacity:1"
       id="path472" />
    <path
       d="m 13.899759,13.327232 c -0.06327,0.08202 -0.25779,0.195285 -0.25779,0.442127 0,0.203878 0.132801,0.399945 0.368718,0.564767 1.123341,0.781143 3.241128,0.678032 3.246597,0.678032 0.83237,-0.002 1.648964,-0.227245 2.36464,-0.652255 1.469068,-0.85774 2.373654,-2.129763 2.377139,-3.830836 C 22.019373,8.7785245 21.374117,7.6146207 21.113202,7.0990658 19.457875,3.8612261 15.884745,1.9989799 11.999141,1.9989799 6.531218,1.9984394 2.076893,6.3899039 2,11.857011 2.0375,9.0027127 4.874753,6.4975594 8.249464,6.4975594 c 0.273413,0 1.832655,0.026559 3.280968,0.7866116 1.276452,0.6702208 1.945145,1.6794846 2.409949,2.4817188 0.675573,1.2746672 0.704647,2.5882402 -0.04062,3.5613422 z"
       style="fill:url(#radialGradient1805);fill-opacity:1"
       id="path510" />
    <path
       d="m 13.899759,13.327232 c -0.06327,0.08202 -0.25779,0.195285 -0.25779,0.442127 0,0.203878 0.132801,0.399945 0.368718,0.564767 1.123341,0.781143 3.241128,0.678032 3.246597,0.678032 0.83237,-0.002 1.648964,-0.227244 2.36464,-0.652255 1.469068,-0.85774 2.373654,-2.129763 2.377139,-3.830836 C 22.019373,8.7785247 21.374117,7.6146209 21.113202,7.099066 19.457875,3.8612261 15.884745,1.9989799 11.999141,1.9989799 6.5312175,1.9984394 2.0768925,6.3899041 1.9999998,11.857011 2.0374965,9.0027129 4.8747529,6.4975596 8.249463,6.4975596 c 0.273414,0 1.832656,0.026559 3.280969,0.7866116 1.276452,0.6702208 1.945145,1.6794846 2.409949,2.4817185 0.675573,1.2746673 0.704647,2.5882413 -0.04062,3.5613423 z"
       style="opacity:1;fill:url(#radialGradient1624);fill-opacity:1"
       id="path548" />
  </g>
  <rect
     style="fill:#f6c34c;fill-opacity:1;stroke-width:8.302;stroke-linecap:round;stroke-linejoin:round"
     id="rect378"
     width="120"
     height="48"
     x="88"
     y="160"
     ry="8" />
  <path
     d="m 129.82514,196.99156 c -2.04331,0.98916 -4.71124,1.48372 -8.00387,1.48372 -4.29475,0 -7.67197,-1.2625 -10.1317,-3.78716 C 109.22986,192.16324 108,188.79902 108,184.5954 c 0,-4.47698 1.3795,-8.10798 4.13858,-10.89306 2.77208,-2.7851 6.36402,-4.17762 10.7759,-4.17762 2.73302,0 5.03656,0.34496 6.91066,1.03476 v 6.0712 c -1.87408,-1.11908 -4.00848,-1.6789 -6.4031,-1.6789 -2.62891,0 -4.75025,0.82643 -6.36403,2.47925 -1.61384,1.65283 -2.42067,3.89129 -2.42067,6.71541 0,2.70702 0.76136,4.8674 2.28402,6.48116 1.52271,1.60092 3.57243,2.40116 6.14928,2.40116 2.45974,0 4.71121,-0.5988 6.75448,-1.79608 z m 29.49704,0.99556 h -6.87159 l -1.99121,-6.22738 h -9.956 l -1.97171,6.22746 h -6.83254 l 10.19027,-27.9939 h 7.47673 z m -10.30739,-11.06864 -3.0063,-9.4094 c -0.22112,-0.70264 -0.37736,-1.54221 -0.46856,-2.51827 h -0.15512 c -0.0664,0.81999 -0.22776,1.63315 -0.48792,2.44018 l -3.0454,9.48749 z m 38.98461,11.06872 h -6.36406 l -11.53723,-17.58893 c -0.6768,-1.02813 -1.14526,-1.80263 -1.40553,-2.32305 h -0.0784 c 0.10304,0.98916 0.15728,2.49876 0.15728,4.52898 v 15.383 h -5.95348 v -27.9939 h 6.79352 l 11.10776,17.04232 c 0.5076,0.76792 0.97601,1.5293 1.40554,2.28402 h 0.0784 c -0.10304,-0.65056 -0.15736,-1.93254 -0.15736,-3.84576 V 169.9933 H 188 Z"
     style="font-weight:bold;font-family:'Segoe UI';-inkscape-font-specification:'Segoe UI Bold';stroke-width:1.49926"
     id="path13172" />
</svg>
