<?xml version="1.0" encoding="UTF-8" standalone="no"?>
<!-- Created with Inkscape (http://www.inkscape.org/) -->

<svg
   width="256"
   height="256"
   viewBox="0 0 256 256"
   version="1.1"
   id="svg5"
   inkscape:version="1.2.1 (9c6d41e410, 2022-07-14)"
   sodipodi:docname="mintinstall.svg"
   xmlns:inkscape="http://www.inkscape.org/namespaces/inkscape"
   xmlns:sodipodi="http://sodipodi.sourceforge.net/DTD/sodipodi-0.dtd"
   xmlns:xlink="http://www.w3.org/1999/xlink"
   xmlns="http://www.w3.org/2000/svg"
   xmlns:svg="http://www.w3.org/2000/svg">
  <sodipodi:namedview
     id="namedview7"
     pagecolor="#ffffff"
     bordercolor="#000000"
     borderopacity="0.25"
     inkscape:showpageshadow="2"
     inkscape:pageopacity="0.0"
     inkscape:pagecheckerboard="0"
     inkscape:deskcolor="#d1d1d1"
     inkscape:document-units="px"
     showgrid="false"
     inkscape:zoom="3.15625"
     inkscape:cx="128"
     inkscape:cy="128"
     inkscape:window-width="1920"
     inkscape:window-height="1011"
     inkscape:window-x="0"
     inkscape:window-y="32"
     inkscape:window-maximized="1"
     inkscape:current-layer="svg5" />
  <defs
     id="defs2">
    <linearGradient
       inkscape:collect="always"
       xlink:href="#linearGradient2030"
       id="linearGradient4780"
       x1="2"
       y1="2"
       x2="30"
       y2="30"
       gradientUnits="userSpaceOnUse"
       gradientTransform="scale(8)" />
    <linearGradient
       inkscape:collect="always"
       id="linearGradient2030">
      <stop
         style="stop-color:#4c7523;stop-opacity:1;"
         offset="0"
         id="stop2026" />
      <stop
         style="stop-color:#87cf3e;stop-opacity:1;"
         offset="1"
         id="stop2028" />
    </linearGradient>
  </defs>
  <path
     d="M 104,17 C 31.190476,17 16,32.518536 16,105 v 48 c 0,72.48146 15.190476,88 88,88 h 48 c 72.80952,0 88,-15.51854 88,-88 V 105 C 240,32.518536 224.80952,17 152,17"
     style="opacity:0.2;fill:#000000;stroke-width:8;stroke-linecap:round;stroke-linejoin:round"
     id="path563" />
  <path
     id="path530"
     style="fill:url(#linearGradient4780);fill-opacity:1;stroke-width:8;stroke-linecap:round;stroke-linejoin:round"
     d="M 104,16 C 31.190548,16 16,31.518608 16,104 v 48 c 0,72.4814 15.190548,88 88,88 h 48 c 72.80946,0 88,-15.5186 88,-88 V 104 C 240,31.518608 224.80946,16 152,16 Z" />
  <path
     id="rect4212"
     style="fill:#ffffff;stroke-width:19.1237;stroke-linecap:round;stroke-linejoin:round"
     d="m 72,96 v 80 c 0,17.72796 14.272048,32 32,32 h 48 c 17.72795,0 32,-14.27204 32,-32 v -32 c 0,-13.25482 -10.74518,-24 -24,-24 -6.14558,0 -11.75426,2.31043 -16,6.10938 C 139.75426,122.31043 134.14558,120 128,120 c -13.25482,0 -24,10.74518 -24,24 v 32 h 16 v -32 c 0,-4.41826 3.58174,-8 8,-8 4.41826,0 8,3.58174 8,8 v 32 h 16 v -32 c 0,-4.41826 3.58174,-8 8,-8 4.41826,0 8,3.58174 8,8 v 32 c 0,8.86398 -7.13602,16 -16,16 h -48 c -8.863972,0 -16,-7.13602 -16,-16 V 96 Z" />
  <path
     style="color:#000000;fill:#ececec;stroke:none;stroke-width:8;stroke-linecap:round;stroke-linejoin:round;-inkscape-stroke:none"
     d="M 128,80 C 105.95601,80 88,62.043988 88,40 a 4,4 0 0 1 4,-4 4,4 0 0 1 4,4 c 0,17.720472 14.27953,32 32,32 17.72047,0 32,-14.279528 32,-32 a 4,4 0 0 1 4,-4 4,4 0 0 1 4,4 c 0,22.043988 -17.95601,40 -40,40 z"
     id="path6892" />
</svg>
