<?xml version="1.0" encoding="UTF-8" standalone="no"?>
<!-- Created with Inkscape (http://www.inkscape.org/) -->

<svg
   width="256"
   height="256"
   viewBox="0 0 256 256"
   version="1.1"
   id="svg5"
   inkscape:version="1.2.2 (1:1.2.2+202305151914+b0a8486541)"
   sodipodi:docname="owncloud.svg"
   xmlns:inkscape="http://www.inkscape.org/namespaces/inkscape"
   xmlns:sodipodi="http://sodipodi.sourceforge.net/DTD/sodipodi-0.dtd"
   xmlns="http://www.w3.org/2000/svg"
   xmlns:svg="http://www.w3.org/2000/svg">
  <sodipodi:namedview
     id="namedview7"
     pagecolor="#ffffff"
     bordercolor="#000000"
     borderopacity="0.25"
     inkscape:showpageshadow="2"
     inkscape:pageopacity="0.0"
     inkscape:pagecheckerboard="0"
     inkscape:deskcolor="#d1d1d1"
     inkscape:document-units="px"
     showgrid="false"
     inkscape:zoom="3.1640625"
     inkscape:cx="127.84198"
     inkscape:cy="128"
     inkscape:window-width="1920"
     inkscape:window-height="1012"
     inkscape:window-x="0"
     inkscape:window-y="0"
     inkscape:window-maximized="1"
     inkscape:current-layer="svg5" />
  <defs
     id="defs2" />
  <path
     d="M 104,17 C 31.190476,17 16,32.518536 16,105 v 48 c 0,72.48146 15.190476,88 88,88 h 48 c 72.80952,0 88,-15.51854 88,-88 V 105 C 240,32.518536 224.80952,17 152,17"
     style="opacity:0.2;fill:#000000;stroke-width:8;stroke-linecap:round;stroke-linejoin:round"
     id="path563" />
  <path
     id="path530"
     style="fill:#394e6f;fill-opacity:1;stroke-width:8;stroke-linecap:round;stroke-linejoin:round"
     d="M 104,16 C 31.190548,16 16,31.518608 16,104 v 48 c 0,72.4814 15.190548,88 88,88 h 48 c 72.80946,0 88,-15.5186 88,-88 V 104 C 240,31.518608 224.80946,16 152,16 Z" />
  <path
     style="color:#000000;fill:#ffffff;stroke-width:4;stroke-linecap:round;stroke-linejoin:round;-inkscape-stroke:none"
     d="m 174,116 a 26,26 0 0 1 -26,26 26,26 0 0 1 -26,-26 26,26 0 0 1 26,-26 26,26 0 0 1 26,26 z"
     id="path6161" />
  <path
     style="color:#000000;fill:#394e6f;stroke-width:8;stroke-linecap:round;stroke-linejoin:round;-inkscape-stroke:none"
     d="m 148,88 c -15.44027,0 -28,12.55973 -28,28 0,15.44027 12.55973,28 28,28 15.44027,0 28,-12.55973 28,-28 0,-15.44027 -12.55973,-28 -28,-28 z m 0,4 c 13.27851,0 24,10.72149 24,24 0,13.27851 -10.72149,24 -24,24 -13.27851,0 -24,-10.72149 -24,-24 0,-13.27851 10.72149,-24 24,-24 z"
     id="path6163" />
  <path
     style="color:#000000;fill:#ffffff;stroke-width:4;stroke-linecap:round;stroke-linejoin:round;-inkscape-stroke:none"
     d="m 222,168 a 14,14 0 0 1 -14,14 14,14 0 0 1 -14,-14 14,14 0 0 1 14,-14 14,14 0 0 1 14,14 z"
     id="path6167" />
  <path
     style="color:#000000;fill:#394e6f;stroke-width:8;stroke-linecap:round;stroke-linejoin:round;-inkscape-stroke:none"
     d="m 208,152 c -8.81286,0 -16,7.18714 -16,16 0,8.81286 7.18714,16 16,16 8.81286,0 16,-7.18714 16,-16 0,-8.81286 -7.18714,-16 -16,-16 z m 0,4 c 6.6511,0 12,5.3489 12,12 0,6.6511 -5.3489,12 -12,12 -6.6511,0 -12,-5.3489 -12,-12 0,-6.6511 5.3489,-12 12,-12 z"
     id="path6169" />
  <path
     style="color:#000000;fill:#ffffff;stroke-width:4;stroke-linecap:round;stroke-linejoin:round;-inkscape-stroke:none"
     d="m 206,152 a 30,30 0 0 1 -30,30 30,30 0 0 1 -30,-30 30,30 0 0 1 30,-30 30,30 0 0 1 30,30 z"
     id="path6173" />
  <path
     style="color:#000000;fill:#394e6f;stroke-width:8;stroke-linecap:round;stroke-linejoin:round;-inkscape-stroke:none"
     d="m 176,120 c -17.64941,0 -32,14.35059 -32,32 0,17.64941 14.35059,32 32,32 17.6494,0 32,-14.35059 32,-32 0,-17.64941 -14.3506,-32 -32,-32 z m 0,4 c 15.48764,0 28,12.51235 28,28 0,15.48765 -12.51236,28 -28,28 -15.48765,0 -28,-12.51235 -28,-28 0,-15.48765 12.51235,-28 28,-28 z"
     id="path6175" />
  <path
     style="color:#000000;fill:#ffffff;stroke-width:4;stroke-linecap:round;stroke-linejoin:round;-inkscape-stroke:none"
     d="M 86,156 A 26,26 0 0 1 60,182 26,26 0 0 1 34,156 26,26 0 0 1 60,130 26,26 0 0 1 86,156 Z"
     id="path6179" />
  <path
     style="color:#000000;fill:#394e6f;stroke-width:8;stroke-linecap:round;stroke-linejoin:round;-inkscape-stroke:none"
     d="m 60,128 c -15.440268,0 -28,12.55973 -28,28 0,15.44027 12.559732,28 28,28 15.440272,0 28.000008,-12.55973 28.000008,-28 0,-15.44027 -12.559736,-28 -28.000008,-28 z m 0,4 c 13.278512,0 24,10.72149 24,24 0,13.27851 -10.721488,24 -24,24 -13.278508,0 -24,-10.72149 -24,-24 0,-13.27851 10.721492,-24 24,-24 z"
     id="path6181" />
  <path
     style="color:#000000;fill:#ffffff;stroke-width:4;stroke-linecap:round;stroke-linejoin:round;-inkscape-stroke:none"
     d="M 98.000008,104 A 14,14 0 0 1 84,118 14,14 0 0 1 70,104 14,14 0 0 1 84,90 14,14 0 0 1 98.000008,104 Z"
     id="path6185" />
  <path
     style="color:#000000;fill:#394e6f;stroke-width:8;stroke-linecap:round;stroke-linejoin:round;-inkscape-stroke:none"
     d="m 84,88 c -8.812856,0 -16,7.187144 -16,16 0,8.81286 7.187144,16 16,16 8.812864,0 16.00001,-7.18714 16.00001,-16 0,-8.812856 -7.187146,-16 -16.00001,-16 z m 0,4 c 6.651104,0 12.000008,5.348904 12.000008,12 0,6.6511 -5.348904,12 -12.000008,12 -6.651096,0 -12,-5.3489 -12,-12 0,-6.651096 5.348904,-12 12,-12 z"
     id="path6187" />
  <path
     style="color:#000000;fill:#ffffff;stroke-width:4;stroke-linecap:round;stroke-linejoin:round;-inkscape-stroke:none"
     d="M 118.00001,136 A 30,30 0 0 1 88.000008,166 30,30 0 0 1 58,136 30,30 0 0 1 88.000008,106 30,30 0 0 1 118.00001,136 Z"
     id="path6191" />
  <path
     style="color:#000000;fill:#394e6f;stroke-width:8;stroke-linecap:round;stroke-linejoin:round;-inkscape-stroke:none"
     d="M 88.000008,104 C 70.350592,104 56,118.35059 56,136 c 0,17.64941 14.350592,32 32.000008,32 17.649412,0 32.000002,-14.35059 32.000002,-32 0,-17.64941 -14.35059,-32 -32.000002,-32 z m 0,4 c 15.487652,0 28.000002,12.51235 28.000002,28 0,15.48765 -12.51235,28 -28.000002,28 C 72.512352,164 60,151.48765 60,136 60,120.51235 72.512352,108 88.000008,108 Z"
     id="path6193" />
  <path
     style="color:#000000;fill:#ffffff;stroke-width:4;stroke-linecap:round;stroke-linejoin:round;-inkscape-stroke:none"
     d="M 102.00001,168 A 14,14 0 0 1 88.000008,182 14,14 0 0 1 74,168 14,14 0 0 1 88.000008,154 14,14 0 0 1 102.00001,168 Z"
     id="path6197" />
  <path
     style="color:#000000;fill:#394e6f;stroke-width:8;stroke-linecap:round;stroke-linejoin:round;-inkscape-stroke:none"
     d="M 88.000008,152 C 79.187144,152 72,159.18714 72,168 c 0,8.81286 7.187144,16 16.000008,16 8.812856,0 16.000002,-7.18714 16.000002,-16 0,-8.81286 -7.187146,-16 -16.000002,-16 z m 0,4 c 6.651096,0 12.000002,5.3489 12.000002,12 0,6.6511 -5.348906,12 -12.000002,12 C 81.348904,180 76,174.6511 76,168 c 0,-6.6511 5.348904,-12 12.000008,-12 z"
     id="path6199" />
  <path
     style="color:#000000;fill:#ffffff;stroke-width:4;stroke-linecap:round;stroke-linejoin:round;-inkscape-stroke:none"
     d="m 142,100 a 26,26 0 0 1 -26,26 26,26 0 0 1 -26,-26 26,26 0 0 1 26,-26 26,26 0 0 1 26,26 z"
     id="path6203" />
  <path
     style="color:#000000;fill:#394e6f;stroke-width:8;stroke-linecap:round;stroke-linejoin:round;-inkscape-stroke:none"
     d="m 116.00001,72 c -15.44027,0 -28.000002,12.559728 -28.000002,28 0,15.44027 12.559732,28 28.000002,28 C 131.44028,128 144,115.44027 144,100 144,84.559728 131.44027,72 116.00001,72 Z m 0,4 C 129.27851,76 140,86.721488 140,100 c 0,13.27851 -10.72149,24 -24,24 -13.27851,0 -24,-10.72149 -24,-24 0,-13.278512 10.72149,-24 24.00001,-24 z"
     id="path6205" />
  <path
     style="color:#000000;fill:#ffffff;stroke-width:4;stroke-linecap:round;stroke-linejoin:round;-inkscape-stroke:none"
     d="m 166,144 a 38,38 0 0 1 -38,38 38,38 0 0 1 -38,-38 38,38 0 0 1 38,-38 38,38 0 0 1 38,38 z"
     id="path6209" />
  <path
     style="color:#000000;fill:#394e6f;stroke-width:8;stroke-linecap:round;stroke-linejoin:round;-inkscape-stroke:none"
     d="m 128,104 c -22.06767,0 -39.999992,17.93232 -39.999992,40 0,22.06768 17.932322,40 39.999992,40 22.06769,0 40,-17.93232 40,-40 0,-22.06768 -17.93232,-40 -40,-40 z m 0,4 c 19.90592,0 36,16.09408 36,36 0,19.90592 -16.09408,36 -36,36 -19.90592,0 -36,-16.09408 -36,-36 0,-19.90592 16.09408,-36 36,-36 z"
     id="path6211" />
</svg>
