<?xml version="1.0" encoding="UTF-8" standalone="no"?>
<!-- Created with Inkscape (http://www.inkscape.org/) -->

<svg
   width="256"
   height="256"
   viewBox="0 0 256 256"
   version="1.1"
   id="svg5"
   inkscape:version="1.4.4 (dcaf3e7d9e, 2026-05-05)"
   sodipodi:docname="popsicle.svg"
   xmlns:inkscape="http://www.inkscape.org/namespaces/inkscape"
   xmlns:sodipodi="http://sodipodi.sourceforge.net/DTD/sodipodi-0.dtd"
   xmlns:xlink="http://www.w3.org/1999/xlink"
   xmlns="http://www.w3.org/2000/svg"
   xmlns:svg="http://www.w3.org/2000/svg">
  <sodipodi:namedview
     id="namedview7"
     pagecolor="#ffffff"
     bordercolor="#000000"
     borderopacity="0.25"
     inkscape:showpageshadow="2"
     inkscape:pageopacity="0.0"
     inkscape:pagecheckerboard="0"
     inkscape:deskcolor="#d1d1d1"
     inkscape:document-units="px"
     showgrid="false"
     inkscape:zoom="3.140625"
     inkscape:cx="128"
     inkscape:cy="128"
     inkscape:window-width="1920"
     inkscape:window-height="1012"
     inkscape:window-x="0"
     inkscape:window-y="0"
     inkscape:window-maximized="1"
     inkscape:current-layer="svg5" />
  <defs
     id="defs2">
    <linearGradient
       id="linearGradient3"
       inkscape:collect="always">
      <stop
         style="stop-color:#22dace;stop-opacity:1;"
         offset="0"
         id="stop3" />
      <stop
         style="stop-color:#99e6e1;stop-opacity:1;"
         offset="1"
         id="stop4" />
    </linearGradient>
    <linearGradient
       inkscape:collect="always"
       xlink:href="#linearGradient3"
       id="linearGradient2"
       x1="4"
       y1="4"
       x2="60"
       y2="60"
       gradientUnits="userSpaceOnUse"
       gradientTransform="scale(4)" />
  </defs>
  <path
     id="path563"
     style="opacity:0.2;fill:#000000;stroke-width:8;stroke-linecap:round;stroke-linejoin:round"
     d="M 104,17 C 31.190548,17 16,32.518608 16,105 v 48 c 0,72.48138 15.190548,88 88,88 h 48 c 72.80944,0 88,-15.51862 88,-88 V 105 C 240,32.518608 224.80944,17 152,17 Z" />
  <path
     id="path530"
     style="fill:url(#linearGradient2);stroke-width:8;stroke-linecap:round;stroke-linejoin:round"
     d="M 104,16 C 31.190548,16 16,31.518608 16,104 v 48 c 0,72.48138 15.190548,88 88,88 h 48 c 72.80944,0 88,-15.51862 88,-88 V 104 C 240,31.518608 224.80944,16 152,16 Z" />
  <rect
     style="fill:#ffffff;stroke-width:16"
     id="rect1"
     width="80"
     height="128"
     x="88"
     y="48"
     ry="16" />
  <rect
     style="opacity:0.6;fill:#ffffff;stroke-width:16"
     id="rect2"
     width="48"
     height="32"
     x="104"
     y="176" />
</svg>
