<?xml version="1.0" encoding="UTF-8" standalone="no"?>
<!-- Created with Inkscape (http://www.inkscape.org/) -->

<svg
   width="256"
   height="256"
   viewBox="0 0 256 256"
   version="1.1"
   id="svg5"
   inkscape:version="1.2.1 (9c6d41e410, 2022-07-14)"
   sodipodi:docname="preferences-system-time.svg"
   xmlns:inkscape="http://www.inkscape.org/namespaces/inkscape"
   xmlns:sodipodi="http://sodipodi.sourceforge.net/DTD/sodipodi-0.dtd"
   xmlns:xlink="http://www.w3.org/1999/xlink"
   xmlns="http://www.w3.org/2000/svg"
   xmlns:svg="http://www.w3.org/2000/svg">
  <sodipodi:namedview
     id="namedview7"
     pagecolor="#ffffff"
     bordercolor="#000000"
     borderopacity="0.25"
     inkscape:showpageshadow="2"
     inkscape:pageopacity="0.0"
     inkscape:pagecheckerboard="0"
     inkscape:deskcolor="#d1d1d1"
     inkscape:document-units="px"
     showgrid="false"
     inkscape:zoom="3.0390625"
     inkscape:cx="127.83548"
     inkscape:cy="128"
     inkscape:window-width="1920"
     inkscape:window-height="999"
     inkscape:window-x="0"
     inkscape:window-y="0"
     inkscape:window-maximized="1"
     inkscape:current-layer="svg5"
     showguides="true" />
  <defs
     id="defs2">
    <linearGradient
       inkscape:collect="always"
       id="linearGradient1606">
      <stop
         style="stop-color:#eaebed;stop-opacity:1;"
         offset="0"
         id="stop1602" />
      <stop
         style="stop-color:#f9fafa;stop-opacity:1;"
         offset="1"
         id="stop1604" />
    </linearGradient>
    <linearGradient
       inkscape:collect="always"
       xlink:href="#linearGradient1606"
       id="linearGradient3500"
       x1="2"
       y1="2"
       x2="30"
       y2="30"
       gradientUnits="userSpaceOnUse"
       gradientTransform="scale(8)" />
  </defs>
  <path
     d="M 104,17 C 31.190476,17 16,32.518536 16,105 v 48 c 0,72.48146 15.190476,88 88,88 h 48 c 72.80952,0 88,-15.51854 88,-88 V 105 C 240,32.518536 224.80952,17 152,17"
     style="opacity:0.2;fill:#000000;stroke-width:8;stroke-linecap:round;stroke-linejoin:round"
     id="path563" />
  <path
     id="path530"
     style="fill:url(#linearGradient3500);fill-opacity:1;stroke-width:8;stroke-linecap:round;stroke-linejoin:round"
     d="M 104,16 C 31.190548,16 16,31.518608 16,104 v 48 c 0,72.4814 15.190548,88 88,88 h 48 c 72.80946,0 88,-15.5186 88,-88 V 104 C 240,31.518608 224.80946,16 152,16 Z" />
  <circle
     style="opacity:1;fill:#6e6e6e;fill-opacity:1;stroke-width:16;stroke-linecap:round;stroke-linejoin:round"
     id="path291"
     cx="128"
     cy="128"
     r="80" />
  <path
     id="rect451"
     style="fill:#ffffff;stroke-width:16;stroke-linecap:round;stroke-linejoin:round"
     d="m 128,72 c -4.43199,0 -8,3.568008 -8,8 v 48 c 0,0.27168 0.0192,0.54192 0.0472,0.8125 0.0264,0.2548 0.0592,0.51376 0.10936,0.7656 0.028,0.14 0.0584,0.28464 0.0938,0.42184 0.0272,0.10512 0.0624,0.20832 0.0938,0.31248 0.008,0.0248 0.008,0.0536 0.016,0.0784 0.0656,0.21056 0.15064,0.41928 0.2344,0.62504 0.0985,0.24336 0.20712,0.47256 0.32808,0.70312 0.016,0.0312 0.0304,0.0632 0.0472,0.0938 0.21376,0.39448 0.45968,0.7744 0.7344,1.125 0.032,0.0408 0.0608,0.0843 0.0938,0.12496 0.17096,0.2096 0.35584,0.40272 0.54688,0.59376 0.003,0.003 -0.003,0.0128 0,0.016 l 33.95312,33.93751 c 3.1339,3.13389 8.17861,3.13389 11.3125,0 3.1339,-3.1339 3.1339,-8.17861 0,-11.31251 L 136,124.67187 V 80 c 0,-4.431992 -3.56801,-8 -8,-8 z"
     sodipodi:nodetypes="sssscccccscccsccsccss" />
</svg>
