<?xml version="1.0" encoding="UTF-8" standalone="no"?>
<!-- Created with Inkscape (http://www.inkscape.org/) -->

<svg
   width="256"
   height="256"
   viewBox="0 0 256 256"
   version="1.1"
   id="svg5"
   inkscape:version="1.2.1 (9c6d41e410, 2022-07-14)"
   sodipodi:docname="thingy.svg"
   xmlns:inkscape="http://www.inkscape.org/namespaces/inkscape"
   xmlns:sodipodi="http://sodipodi.sourceforge.net/DTD/sodipodi-0.dtd"
   xmlns:xlink="http://www.w3.org/1999/xlink"
   xmlns="http://www.w3.org/2000/svg"
   xmlns:svg="http://www.w3.org/2000/svg">
  <sodipodi:namedview
     id="namedview7"
     pagecolor="#ffffff"
     bordercolor="#000000"
     borderopacity="0.25"
     inkscape:showpageshadow="2"
     inkscape:pageopacity="0.0"
     inkscape:pagecheckerboard="0"
     inkscape:deskcolor="#d1d1d1"
     inkscape:document-units="px"
     showgrid="false"
     inkscape:zoom="3.15625"
     inkscape:cx="128"
     inkscape:cy="128"
     inkscape:window-width="1920"
     inkscape:window-height="1011"
     inkscape:window-x="0"
     inkscape:window-y="32"
     inkscape:window-maximized="1"
     inkscape:current-layer="svg5"
     showguides="false" />
  <defs
     id="defs2">
    <linearGradient
       inkscape:collect="always"
       id="linearGradient1778">
      <stop
         style="stop-color:#a42020;stop-opacity:1;"
         offset="0"
         id="stop1774" />
      <stop
         style="stop-color:#de6060;stop-opacity:1;"
         offset="1"
         id="stop1776" />
    </linearGradient>
    <linearGradient
       inkscape:collect="always"
       xlink:href="#linearGradient1778"
       id="linearGradient3500"
       x1="2"
       y1="2"
       x2="30"
       y2="30"
       gradientUnits="userSpaceOnUse"
       gradientTransform="scale(8)" />
  </defs>
  <path
     d="M 104,17 C 31.190476,17 16,32.518536 16,105 v 48 c 0,72.48146 15.190476,88 88,88 h 48 c 72.80952,0 88,-15.51854 88,-88 V 105 C 240,32.518536 224.80952,17 152,17"
     style="opacity:0.2;fill:#000000;stroke-width:8;stroke-linecap:round;stroke-linejoin:round"
     id="path563" />
  <path
     id="path530"
     style="fill:url(#linearGradient3500);fill-opacity:1;stroke-width:8.00008;stroke-linecap:round;stroke-linejoin:round"
     d="M 104,16 C 31.190548,16 16,31.518608 16,104 v 48 c 0,72.48138 15.190548,88 88,88 h 48 c 72.80946,0 88,-15.51862 88,-88 V 104 C 240,31.518608 224.80946,16 152,16 Z" />
  <path
     id="path4193"
     style="fill:#ffffff;stroke-width:16.0003;stroke-linecap:square;stroke-linejoin:round"
     d="m 72,72 c -8.864152,0 -16,7.135848 -16,16 v 32 c 0,0.24256 0.02,0.47872 0.0312,0.71872 -0.18128,4.31121 1.366,8.67856 4.671876,11.98438 l 54.593244,54.59606 c 6.26766,6.26822 16.35709,6.26792 22.625,0 l 33.375,-33.375 c 6.26775,-6.2681 6.26792,-16.35707 0,-22.62501 L 116.70313,76.703128 C 113.3973,73.397312 109.02996,71.849984 104.71875,72.031248 104.47891,72.020848 104.24256,72 104,72 Z m 51.31981,0 53.64013,53.64294 c 9.30318,9.30323 9.3032,24.63428 0,33.9375 l -28.64063,28.64062 c 6.29893,5.31814 15.6696,5.01794 21.60937,-0.92188 l 33.375,-33.38668 c 6.26776,-6.26809 6.26792,-16.35707 0,-22.625 L 148.71044,76.703128 c -3.30581,-3.305816 -7.67317,-4.853144 -11.98437,-4.67188 C 136.48623,72.020848 136.24988,72 136.00732,72 Z M 76,84 c 4.41828,0 8,3.58172 8,8 0,4.41828 -3.58172,8 -8,8 -4.41828,0 -8,-3.58172 -8,-8 0,-4.41828 3.58172,-8 8,-8 z"
     sodipodi:nodetypes="sssccccccccsscccccccccscsssss" />
</svg>
