<?xml version="1.0" encoding="UTF-8" standalone="no"?>
<!-- Created with Inkscape (http://www.inkscape.org/) -->

<svg
   width="256"
   height="256"
   viewBox="0 0 256 256"
   version="1.1"
   id="svg5"
   inkscape:version="1.2.2 (1:1.2.2+202305151914+b0a8486541)"
   sodipodi:docname="waydroid.svg"
   xmlns:inkscape="http://www.inkscape.org/namespaces/inkscape"
   xmlns:sodipodi="http://sodipodi.sourceforge.net/DTD/sodipodi-0.dtd"
   xmlns:xlink="http://www.w3.org/1999/xlink"
   xmlns="http://www.w3.org/2000/svg"
   xmlns:svg="http://www.w3.org/2000/svg">
  <sodipodi:namedview
     id="namedview7"
     pagecolor="#ffffff"
     bordercolor="#000000"
     borderopacity="0.25"
     inkscape:showpageshadow="2"
     inkscape:pageopacity="0.0"
     inkscape:pagecheckerboard="0"
     inkscape:deskcolor="#d1d1d1"
     inkscape:document-units="px"
     showgrid="false"
     inkscape:zoom="3.2421875"
     inkscape:cx="128"
     inkscape:cy="128"
     inkscape:window-width="1920"
     inkscape:window-height="1008"
     inkscape:window-x="0"
     inkscape:window-y="0"
     inkscape:window-maximized="1"
     inkscape:current-layer="svg5" />
  <defs
     id="defs2">
    <linearGradient
       inkscape:collect="always"
       xlink:href="#linearGradient1624"
       id="linearGradient4780"
       x1="2"
       y1="2"
       x2="30"
       y2="30"
       gradientUnits="userSpaceOnUse"
       gradientTransform="scale(8)" />
    <linearGradient
       inkscape:collect="always"
       id="linearGradient1624">
      <stop
         style="stop-color:#21b963;stop-opacity:1;"
         offset="0"
         id="stop1620" />
      <stop
         style="stop-color:#7ad4b3;stop-opacity:1;"
         offset="1"
         id="stop1622" />
    </linearGradient>
  </defs>
  <path
     d="M 104,17 C 31.190476,17 16,32.518536 16,105 v 48 c 0,72.48146 15.190476,88 88,88 h 48 c 72.80952,0 88,-15.51854 88,-88 V 105 C 240,32.518536 224.80952,17 152,17"
     style="opacity:0.2;fill:#000000;stroke-width:8;stroke-linecap:round;stroke-linejoin:round"
     id="path563" />
  <path
     id="path530"
     style="fill:url(#linearGradient4780);fill-opacity:1;stroke-width:8;stroke-linecap:round;stroke-linejoin:round"
     d="M 104,16 C 31.190548,16 16,31.518608 16,104 v 48 c 0,72.4814 15.190548,88 88,88 h 48 c 72.80946,0 88,-15.5186 88,-88 V 104 C 240,31.518608 224.80946,16 152,16 Z" />
  <path
     id="path420"
     style="opacity:0.5;fill:#ffffff;stroke-width:4"
     d="m 71.5625,44.007812 c -1.578692,0.08876 -3.095684,0.643364 -4.359376,1.593752 -3.532152,2.650188 -4.248992,7.661096 -1.60156,11.195312 l 14.906248,19.875 C 66.12002,88.204132 56.010892,104.85333 52.960936,123.86719 c -0.633616,3.95007 2.5,8.56663 2.5,12.69531 0,41.97356 32.1905,67.27344 74.164064,67.27344 41.97356,0 68.50782,-25.61238 68.50782,-67.58594 0,-3.94341 5.56342,-8.07007 4.98436,-11.85156 -2.94526,-19.23433 -13.10414,-36.086856 -27.62499,-47.726564 l 14.90625,-19.875 c 2.64744,-3.534216 1.93058,-8.545124 -1.60156,-11.195312 -1.69638,-1.27396 -3.82932,-1.821944 -5.92969,-1.52344 -2.10017,0.30216 -3.99429,1.426268 -5.26563,3.125 L 161.98438,68.023436 C 151.75565,62.899492 140.21918,60 128,60 115.7805,60 104.24455,62.899244 94.015624,68.023436 L 78.398436,47.203124 c -1.27134,-1.698732 -3.165452,-2.822836 -5.265624,-3.125 -0.51986,-0.07492 -1.045836,-0.09848 -1.570312,-0.07032 z m 120.86718,80.507808 -19.65624,59.88282 c -2.71947,9.49652 -8.14631,9.09216 -12.04688,3.80468 l -32.39844,-34.6875 -33.507808,35.71094 c -4.108004,3.39216 -7.946272,4.51016 -10.921876,-1.54688 L 62.914064,124.91406 c 8.765108,1.65231 17.645752,3.00218 26.179688,4.08594 l 7.117184,27.57031 21.257814,-24.92187 C 121.35196,131.85636 124.98739,132 128,132 c 2.98314,0 6.64148,-0.16188 10.58594,-0.40625 l 21.21094,25.45313 7.40624,-28.42969 c 8.15927,-1.12156 16.68902,-2.47167 25.22656,-4.10157 z" />
  <path
     id="path448"
     style="fill:#ffffff;stroke-width:4"
     d="m 202.75782,122.41406 c -3.41262,0.73862 -6.86764,1.44092 -10.32814,2.10156 l -19.65624,59.88282 c -2.71947,9.49652 -8.14631,9.09216 -12.04688,3.80468 l -32.39844,-34.6875 -33.507808,35.71094 c -4.108004,3.39216 -7.946272,4.51016 -10.921876,-1.54688 L 62.914064,124.91406 C 59.66458,124.3015 56.42978,123.65734 53.257812,122.96875 52.464496,127.26823 52.043664,131.62816 52,136 c 0,41.9736 34.0264,76 76,76 41.9736,0 76,-34.0264 76,-76 -0.006,-4.55672 -0.42168,-9.10369 -1.24218,-13.58594 z m -11.45314,2.30469 c -2.6012,0.48989 -5.19608,0.94653 -7.78906,1.39063 2.5884,-0.43941 5.18598,-0.90106 7.78906,-1.39063 z m -124.960928,0.8125 c 1.779012,0.31868 3.55622,0.62729 5.335936,0.92187 -1.780784,-0.29608 -3.558448,-0.60285 -5.335936,-0.92187 z m 9.304684,1.57031 c 2.217016,0.346 4.421424,0.6742 6.617188,0.98438 -2.1957,-0.3118 -4.398756,-0.63627 -6.617188,-0.98438 z m 91.554684,1.52344 c -10.6458,1.46332 -20.48524,2.46495 -28.61718,2.96875 l 21.21094,25.45313 z M 89.093752,129 96.210936,156.57031 117.46875,131.64844 C 109.30128,131.21111 99.541832,130.32684 89.093752,129 Z m 44.328128,2.86719 C 131.4974,131.94038 129.62346,132 128,132 c 1.62133,0 3.46412,-0.0499 5.42188,-0.1328 z M 128,132 c -1.56566,0 -3.37968,-0.0529 -5.19531,-0.10936 C 124.66747,131.95786 126.42431,132 128,132 Z" />
</svg>
