<?xml version="1.0" encoding="UTF-8" standalone="no"?>
<!-- Created with Inkscape (http://www.inkscape.org/) -->

<svg
   width="256"
   height="256"
   viewBox="0 0 256 256"
   version="1.1"
   id="svg5"
   inkscape:version="1.2.1 (9c6d41e410, 2022-07-14)"
   sodipodi:docname="wayland.svg"
   xmlns:inkscape="http://www.inkscape.org/namespaces/inkscape"
   xmlns:sodipodi="http://sodipodi.sourceforge.net/DTD/sodipodi-0.dtd"
   xmlns:xlink="http://www.w3.org/1999/xlink"
   xmlns="http://www.w3.org/2000/svg"
   xmlns:svg="http://www.w3.org/2000/svg">
  <sodipodi:namedview
     id="namedview7"
     pagecolor="#ffffff"
     bordercolor="#000000"
     borderopacity="0.25"
     inkscape:showpageshadow="2"
     inkscape:pageopacity="0.0"
     inkscape:pagecheckerboard="0"
     inkscape:deskcolor="#d1d1d1"
     inkscape:document-units="px"
     showgrid="false"
     inkscape:zoom="3.0390625"
     inkscape:cx="128"
     inkscape:cy="128"
     inkscape:window-width="1920"
     inkscape:window-height="999"
     inkscape:window-x="0"
     inkscape:window-y="0"
     inkscape:window-maximized="1"
     inkscape:current-layer="svg5"
     showguides="false" />
  <defs
     id="defs2">
    <linearGradient
       inkscape:collect="always"
       xlink:href="#linearGradient1511"
       id="linearGradient4780"
       x1="30"
       y1="30"
       x2="2"
       y2="2"
       gradientUnits="userSpaceOnUse"
       gradientTransform="scale(8)" />
    <linearGradient
       inkscape:collect="always"
       id="linearGradient1511">
      <stop
         style="stop-color:#ffde75;stop-opacity:1;"
         offset="0"
         id="stop1507" />
      <stop
         style="stop-color:#ffb251;stop-opacity:1;"
         offset="1"
         id="stop1509" />
    </linearGradient>
  </defs>
  <path
     d="M 104,17 C 31.190478,17 16,32.518536 16,105 v 48 c 0,72.48147 15.190478,88 88,88 h 48 c 72.80951,0 88,-15.51853 88,-88 V 105 C 240,32.518536 224.80951,17 152,17"
     style="opacity:0.2;fill:#000000;stroke-width:8.00001;stroke-linecap:round;stroke-linejoin:round"
     id="path563" />
  <path
     id="path530"
     style="fill:url(#linearGradient4780);fill-opacity:1;stroke-width:8;stroke-linecap:round;stroke-linejoin:round"
     d="M 104,16 C 31.190548,16 16,31.518608 16,104 v 48 c 0,72.4814 15.190548,88 88,88 h 48 c 72.80946,0 88,-15.5186 88,-88 V 104 C 240,31.518608 224.80946,16 152,16 Z" />
  <path
     d="m 127.98984,48.00002 c -13.65276,0 -26.50124,3.43192 -37.74644,9.46204 h 15.89216 v 1.07848 c -2.12256,0.1012 -3.54976,0.65592 -4.31384,1.66856 -1.61316,-1.11392 -3.19268,-1.66844 -4.72088,-1.66856 h -5.2092 l -2.93016,0.4476 -0.50872,-0.4476 h -0.1628 c -2.08124,1.19256 -4.10548,2.47696 -6.06384,3.84584 4.48668,6.4302 7.19588,11.98624 8.11904,16.64504 h 4.3342 v 1.07848 h -3.3168 v 1.20056 c 1.27352,4.65888 2.21376,6.99996 2.80808,6.99988 h 1.01744 l 2.29936,-0.6104 0.50872,0.6104 0.50872,-0.6104 0.50872,0.6104 v 0.4476 c -1.69804,1.21544 -2.8446,2.89936 -3.43888,5.02608 h -0.3868 v 1.05812 h 0.89536 c 1.18856,16.9134 3.40732,29.72848 6.6336,38.43828 l 1.8924,1.50576 h 1.0174 c 1.27348,8e-5 3.96236,-5.91472 8.03764,-17.7642 2.63192,-5.3676 4.52928,-10.07068 5.71792,-14.12184 l -0.50872,-1.68892 c 2.63192,-3.94972 5.35796,-5.92128 8.15976,-5.9214 h 0.89532 c 1.78288,1.2e-4 3.041,1.10916 3.80516,3.33716 2.3772,3.34224 4.29488,8.37364 5.73828,15.05784 l 7.14232,15.7904 c 0.93384,1.11412 1.38364,2.38736 1.38368,3.8052 2.63188,5.9754 5.01972,9.91856 7.14232,11.8428 h 1.52612 c 1.78288,4e-5 4.15036,-7.39328 7.122,-22.17984 0.50928,8e-5 1.91968,-3.94312 4.21212,-11.8428 v -0.61048 l -8.01732,-1.05808 -1.91272,0.59008 h -2.42148 v -1.20056 l 4.84292,-0.468 h 9.42136 c 3.65064,-13.06468 6.9956,-23.18948 10.05212,-30.38028 0.3168,-4.5964 0.68792,-8.39032 1.07848,-11.55792 -5.54324,-4.5998 -11.71848,-8.47356 -18.37468,-11.4562 -0.54488,1.25816 -1.59536,1.89256 -3.19472,1.8924 v -1.05808 l 2.95056,-0.9564 c -9.9118,-4.40056 -20.89132,-6.83708 -32.43516,-6.83708 z m -15.22068,9.46204 h 12.86024 v 1.07848 l -2.93016,0.4476 -2.80808,-0.4476 -2.42148,1.05812 -0.875,-1.05812 h -3.82552 z m 26.6158,8.66844 h 1.40404 v 0.44768 c -4e-5,0.70912 -0.47016,1.05824 -1.40404,1.05812 l -0.50872,0.61048 v 0.6104 l -1.40408,-0.6104 v -1.05812 z m -68.3912,5.7586 C 56.77596,86.32958 48,106.14414 48,128.01022 c 0,44.18196 35.80788,79.9898 79.98984,79.9898 44.18196,0 80.01016,-35.80784 80.01016,-79.9898 0,-17.85032 -5.847,-34.34716 -15.72936,-47.65616 -2.14964,2.5502 -4.23368,7.37748 -6.26732,14.48812 -0.93404,7.39332 -2.51352,14.23216 -4.72088,20.51128 -1.9528,6.4818 -2.93024,12.45808 -2.93016,17.927 l -3.68308,10.78468 c -8e-5,0.91152 1.38996,1.81524 4.1918,2.72668 -0.50952,2.12688 -1.28068,3.19476 -2.29936,3.19472 v 0.61048 h 0.89532 v 0.44768 c -1.2e-4,1.11408 -1.44768,1.6686 -4.33424,1.66856 l 0.52912,0.61048 v 2.1366 h -0.89536 c 0.59424,2.12684 1.85236,3.17436 3.8052,3.17432 v 1.07848 h -3.8052 v 0.61048 c 1.27344,0 1.91268,0.90372 1.91276,2.72668 l -5.35164,2.11624 0.50872,0.61048 v 0.468 c -8e-5,0.70904 -0.63936,1.05816 -1.91276,1.05816 v 0.6104 c 1.613,4e-5 2.4214,0.3492 2.42148,1.05812 -2.29244,0.91152 -5.31952,5.42956 -9.05508,13.53172 -3.82064,7.19068 -7.12836,10.78468 -9.93004,10.78468 h -1.01744 c -2.1226,-1.6204 -3.85088,-7.00104 -5.2092,-16.11596 -5.43376,-13.87496 -8.1598,-22.02816 -8.15976,-24.45888 -4e-5,-6.27912 -1.74864,-12.95376 -5.22952,-20.04324 -0.934,-3.13956 -1.55288,-7.10308 -1.8924,-11.86316 l -2.2994,-0.59016 c -5.77332,10.4316 -8.78004,18.58484 -9.03472,24.45884 -1.61316,3.44348 -2.89164,7.592 -3.82552,12.45328 3.48092,1.11408 5.20916,2.18196 5.20924,3.19472 v 0.59008 c -2.71688,-0.40504 -4.61428,-1.16496 -5.71792,-2.27904 -1.18868,2.73452 -2.76816,10.3332 -4.72088,22.79032 -1.52824,5.7728 -3.4256,8.66844 -5.71792,8.66844 -6.45248,-2.53196 -11.84708,-6.68048 -16.17704,-12.45328 -0.6792,4e-5 -1.78856,-2.89564 -3.3168,-8.66844 -0.93392,0 -1.57312,-2.87528 -1.91272,-8.64808 -3.22624,-8.20344 -5.42464,-17.58872 -6.61328,-28.1216 v -15.7904 h -0.50872 l -2.29936,0.61048 v -0.61048 c 0,-0.70888 0.77112,-1.05804 2.29936,-1.05812 L 74.6972,106.2373 V 99.09498 L 70.99376,76.3047 Z m 61.24892,0.1628 v 0.61048 c -8e-5,0.810328 -2.02936,1.67288 -6.10456,2.584248 v -1.07848 l 2.80808,-1.505768 0.50872,0.44768 h 0.3868 l 2.40112,-1.058112 z m -13.73524,5.473752 v 0.44768 c -1.78296,1.62056 -4.67812,3.09916 -8.66844,4.41564 v -1.07848 c 0.6792,8e-5 1.01736,-0.5544 1.01744,-1.66856 z m 72.03356,0.61048 -0.2236,1.973792 h 0.89532 l 0.54944,-0.42736 c -0.3968,-0.52304 -0.81148,-1.03356 -1.22092,-1.546472 z m -47.83924,4.700512 0.50872,0.61048 v 0.44768 l -0.89532,1.22092 h -0.50872 l -1.01744,-1.22092 v -0.44768 z m 17.56076,0.61048 h 0.50864 v 0.44768 l -0.875,1.22092 h -0.50864 v -0.61048 z m -8.01732,7.58996 1.91276,1.526152 c -0.3396,1.114128 -1.27992,1.66864 -2.80808,1.668568 l -1.01744,-1.668568 c -8e-5,-0.50632 0.6392,-1.01968 1.91276,-1.526152 z m 11.4562,6.999872 0.3868,0.59008 v 0.468 l -0.3868,0.61048 h -1.01744 v -0.61048 z m -18.06944,5.453404 v 0.468 l -2.42148,2.27904 h -1.40404 v -0.61048 c -8e-5,-0.9114 1.2784,-1.63008 3.82552,-2.13655 z m -78.9724,21.12168 h 0.50872 v 0.46808 c -1.27352,3.3422 -2.36256,5.35496 -3.29648,6.06384 h -1.01744 v -2.27904 z m 62.28664,25.37456 h 0.50872 v 1.05812 l -3.82552,2.27904 -0.50872,-0.61048 v -1.05818 z m -52.33624,7.14232 h 0.87496 l 1.52616,5.9214 h -1.01744 l -1.38368,-5.47372 z m 50.9322,6.97952 h 0.3868 l 1.52616,1.66856 -0.50872,0.468 h -0.50872 l -0.89532,-1.52612 v -0.61048 z"
     style="display:inline;fill:#ffffff;fill-opacity:1;stroke:none;stroke-width:4;enable-background:new"
     id="path3360"
     sodipodi:nodetypes="scccccccccccccccccccccccccccccccccccccccscccccccccccccccsscccccccccccscccccccsssccccccccccccccccccccccccccsccccccccccccccccccccsccccccccccccccccccccccccccccccccccccccccccccccccccccccccccccccccccccccccccccccccccccccc" />
</svg>
