<?xml version="1.0" encoding="UTF-8" standalone="no"?>
<!-- Created with Inkscape (http://www.inkscape.org/) -->

<svg
   width="256"
   height="256"
   viewBox="0 0 256 256"
   version="1.1"
   id="svg5"
   inkscape:version="1.2.1 (9c6d41e410, 2022-07-14)"
   sodipodi:docname="youtube.svg"
   xmlns:inkscape="http://www.inkscape.org/namespaces/inkscape"
   xmlns:sodipodi="http://sodipodi.sourceforge.net/DTD/sodipodi-0.dtd"
   xmlns="http://www.w3.org/2000/svg"
   xmlns:svg="http://www.w3.org/2000/svg">
  <sodipodi:namedview
     id="namedview7"
     pagecolor="#ffffff"
     bordercolor="#000000"
     borderopacity="0.25"
     inkscape:showpageshadow="2"
     inkscape:pageopacity="0.0"
     inkscape:pagecheckerboard="0"
     inkscape:deskcolor="#d1d1d1"
     inkscape:document-units="px"
     showgrid="false"
     inkscape:zoom="3.1015625"
     inkscape:cx="127.83879"
     inkscape:cy="128"
     inkscape:window-width="1920"
     inkscape:window-height="1006"
     inkscape:window-x="0"
     inkscape:window-y="0"
     inkscape:window-maximized="1"
     inkscape:current-layer="svg5" />
  <defs
     id="defs2" />
  <path
     d="M 104,17 C 31.190476,17 16,32.518536 16,105 v 48 c 0,72.48146 15.190476,88 88,88 h 48 c 72.80952,0 88,-15.51854 88,-88 V 105 C 240,32.518536 224.80952,17 152,17"
     style="opacity:0.2;fill:#000000;stroke-width:8;stroke-linecap:round;stroke-linejoin:round"
     id="path563" />
  <path
     d="M 104,16 C 31.190476,16 16,31.518536 16,104 v 48 c 0,72.48146 15.190476,88 88,88 h 48 c 72.80952,0 88,-15.51854 88,-88 V 104 C 240,31.518536 224.80952,16 152,16"
     style="fill:#fafafa;fill-opacity:1;stroke-width:8;stroke-linecap:round;stroke-linejoin:round"
     id="path530"
     sodipodi:nodetypes="cssssssc" />
  <path
     id="path1633"
     style="fill:#ff0000;fill-opacity:1;stroke-width:1.27162"
     d="m 127.99974,76 c 0,0 -46.011728,0.06404 -58.56664,3.123044 C 62.693096,80.835936 57.1488,85.638212 55.298604,92.00054 51.994672,103.62405 52,127.94076 52,127.94076 c 0,0 -0.0052,24.29115 3.298604,35.79232 1.850204,6.36232 7.262336,11.43096 14.134496,13.14388 12.68706,3.18117 58.56664,3.12304 58.56664,3.12304 0,0 45.99524,-0.0644 58.55014,-3.12304 6.87218,-1.7129 12.28432,-6.66307 14.13452,-13.02538 3.30392,-11.62354 3.31508,-35.79234 3.31508,-35.79234 0,0 0.12,-24.43627 -3.31508,-36.05978 C 198.8342,85.637132 193.42206,80.83598 186.54988,79.12304 173.99498,75.941876 127.99974,76 127.99974,76 Z"
     sodipodi:nodetypes="ccccccccccccc" />
  <path
     d="M 112,104 152,127.99984 112,152 Z"
     style="fill:#ffffff;stroke-width:1.18914"
     id="path301" />
</svg>
