<?xml version="1.0" encoding="UTF-8" standalone="no"?>
<!-- Created with Inkscape (http://www.inkscape.org/) -->

<svg
   width="256"
   height="256"
   viewBox="0 0 256 256"
   version="1.1"
   id="svg5"
   inkscape:version="1.2.2 (1:1.2.2+202305151914+b0a8486541)"
   sodipodi:docname="zanshin.svg"
   xmlns:inkscape="http://www.inkscape.org/namespaces/inkscape"
   xmlns:sodipodi="http://sodipodi.sourceforge.net/DTD/sodipodi-0.dtd"
   xmlns:xlink="http://www.w3.org/1999/xlink"
   xmlns="http://www.w3.org/2000/svg"
   xmlns:svg="http://www.w3.org/2000/svg">
  <sodipodi:namedview
     id="namedview7"
     pagecolor="#ffffff"
     bordercolor="#000000"
     borderopacity="0.25"
     inkscape:showpageshadow="2"
     inkscape:pageopacity="0.0"
     inkscape:pagecheckerboard="0"
     inkscape:deskcolor="#d1d1d1"
     inkscape:document-units="px"
     showgrid="false"
     inkscape:zoom="3.1640625"
     inkscape:cx="127.84198"
     inkscape:cy="128"
     inkscape:window-width="1920"
     inkscape:window-height="1012"
     inkscape:window-x="0"
     inkscape:window-y="0"
     inkscape:window-maximized="1"
     inkscape:current-layer="svg5" />
  <defs
     id="defs2">
    <linearGradient
       inkscape:collect="always"
       xlink:href="#linearGradient1231"
       id="linearGradient4780"
       x1="30"
       y1="30"
       x2="2"
       y2="2"
       gradientUnits="userSpaceOnUse"
       gradientTransform="scale(8)" />
    <linearGradient
       inkscape:collect="always"
       id="linearGradient1231">
      <stop
         style="stop-color:#60acdb;stop-opacity:1;"
         offset="0"
         id="stop1227" />
      <stop
         style="stop-color:#158cba;stop-opacity:1;"
         offset="1"
         id="stop1229" />
    </linearGradient>
  </defs>
  <path
     d="M 104,17 C 31.190476,17 16,32.518536 16,105 v 48 c 0,72.48146 15.190476,88 88,88 h 48 c 72.80952,0 88,-15.51854 88,-88 V 105 C 240,32.518536 224.80952,17 152,17"
     style="opacity:0.2;fill:#000000;stroke-width:8;stroke-linecap:round;stroke-linejoin:round"
     id="path563" />
  <path
     id="path530"
     style="fill:url(#linearGradient4780);fill-opacity:1;stroke-width:8;stroke-linecap:round;stroke-linejoin:round"
     d="M 104,16 C 31.190548,16 16,31.518608 16,104 v 48 c 0,72.4814 15.190548,88 88,88 h 48 c 72.80946,0 88,-15.5186 88,-88 V 104 C 240,31.518608 224.80946,16 152,16 Z" />
  <path
     id="rect344"
     style="opacity:0.4;fill:#ffffff;stroke-width:32;stroke-linecap:round;stroke-linejoin:round"
     d="m 80,144 h 96 c 8.864,0 12.0359,8.07181 16,16 l 16,32 c 3.9641,7.9282 -7.136,16 -16,16 H 64 c -8.864,0 -19.9641,-8.0718 -16,-16 l 16,-32 c 3.964104,-7.92819 7.136,-16 16,-16 z"
     sodipodi:nodetypes="sssssssss" />
  <path
     id="path398"
     style="opacity:0.8;fill:#ffffff;stroke-width:32;stroke-linecap:round;stroke-linejoin:round"
     d="m 128,128 c -1.08491,5.59387 -2.51358,26.96329 -16,32 -9.60773,3.58816 -39.987088,8.13327 -40,20 -0.0144,13.0668 17.793664,20 56,20 38.20634,0 56.0144,-6.9332 56,-20 -0.0128,-11.86673 -30.39227,-16.41184 -40,-20 -13.48642,-5.03671 -14.91509,-26.40613 -16,-32 z" />
  <circle
     style="opacity:0.8;fill:#ffffff;stroke-width:32;stroke-linecap:round;stroke-linejoin:round"
     id="path452"
     cx="128"
     cy="64"
     r="16" />
  <circle
     style="opacity:0.8;fill:#ffffff;stroke-width:20;stroke-linecap:round;stroke-linejoin:round"
     id="path626"
     cx="128"
     cy="106"
     r="10" />
</svg>
