<?xml version="1.0" encoding="UTF-8" standalone="no"?>
<!-- Created with Inkscape (http://www.inkscape.org/) -->

<svg
   width="24"
   height="24"
   viewBox="0 0 24 24.000002"
   version="1.1"
   id="svg1"
   inkscape:version="1.4.2 (ebf0e940d0, 2025-05-08)"
   sodipodi:docname="ca.dsert.dconf-editor-symbolic.svg"
   xmlns:inkscape="http://www.inkscape.org/namespaces/inkscape"
   xmlns:sodipodi="http://sodipodi.sourceforge.net/DTD/sodipodi-0.dtd"
   xmlns="http://www.w3.org/2000/svg"
   xmlns:svg="http://www.w3.org/2000/svg">
  <sodipodi:namedview
     id="namedview1"
     pagecolor="#ffffff"
     bordercolor="#000000"
     borderopacity="0.25"
     inkscape:showpageshadow="2"
     inkscape:pageopacity="0.0"
     inkscape:pagecheckerboard="0"
     inkscape:deskcolor="#d1d1d1"
     inkscape:document-units="px"
     inkscape:zoom="32.75"
     inkscape:cx="11.984733"
     inkscape:cy="12"
     inkscape:window-width="1920"
     inkscape:window-height="1011"
     inkscape:window-x="0"
     inkscape:window-y="0"
     inkscape:window-maximized="1"
     inkscape:current-layer="svg1" />
  <defs
     id="defs1">
    <style
       id="current-color-scheme"
       type="text/css">
        .ColorScheme-Text { color:#363636; }
     </style>
  </defs>
  <path
     id="rect1"
     style="fill:currentColor"
     class="ColorScheme-Text"
     d="M 16.5,6 C 15.119288,6 14,7.1192882 14,8.5 14,9.8807118 15.119288,11 16.5,11 17.880712,11 19,9.8807118 19,8.5 19,7.1192882 17.880712,6 16.5,6 Z M 5.5,8 C 5.223,8 5,8.223 5,8.5 5,8.777 5.223,9 5.5,9 h 7.535156 C 13.011798,8.8366985 13,8.6697607 13,8.5 13,8.3302393 13.011798,8.1633015 13.035156,8 Z m 2,5 C 6.119288,13 5,14.119288 5,15.5 5,16.880712 6.119288,18 7.5,18 8.880712,18 10,16.880712 10,15.5 10,14.119288 8.880712,13 7.5,13 Z m 3.464844,2 C 10.988202,15.163301 11,15.330239 11,15.5 11,15.669761 10.9882,15.836699 10.96484,16 H 18.5 C 18.777,16 19,15.777 19,15.5 19,15.223 18.777,15 18.5,15 Z" />
</svg>
