<?xml version="1.0" encoding="UTF-8" standalone="no"?>
<svg
   version="1.1"
   viewBox="0 0 24 24"
   id="svg2"
   sodipodi:docname="com.usebottles.bottles-symbolic.svg"
   inkscape:version="1.4.2 (ebf0e940d0, 2025-05-08)"
   width="24"
   height="24"
   xmlns:inkscape="http://www.inkscape.org/namespaces/inkscape"
   xmlns:sodipodi="http://sodipodi.sourceforge.net/DTD/sodipodi-0.dtd"
   xmlns="http://www.w3.org/2000/svg"
   xmlns:svg="http://www.w3.org/2000/svg">
  <defs
     id="defs2">
    <style
       id="current-color-scheme"
       type="text/css">
        .ColorScheme-Text { color:#363636; }
        .ColorScheme-NeutralText { color:#f67400; }
        .ColorScheme-PositiveText { color:#37c837; }
        .ColorScheme-NegativeText { color:#f44336; }
        .ColorScheme-Highlight { color:#3daee9; }
     </style>
  </defs>
  <sodipodi:namedview
     id="namedview2"
     pagecolor="#ffffff"
     bordercolor="#000000"
     borderopacity="0.25"
     inkscape:showpageshadow="2"
     inkscape:pageopacity="0.0"
     inkscape:pagecheckerboard="0"
     inkscape:deskcolor="#d1d1d1"
     inkscape:zoom="33.666667"
     inkscape:cx="11.985149"
     inkscape:cy="12"
     inkscape:window-width="1920"
     inkscape:window-height="1011"
     inkscape:window-x="0"
     inkscape:window-y="0"
     inkscape:window-maximized="1"
     inkscape:current-layer="svg2" />
  <path
     d="m 7.8476562,4 v 0.6152344 c 0,0.3716868 -0.1691982,0.7878315 -0.4042969,1.2402344 -0.63069,1.0964714 -1.2802919,2.1646368 -1.4335937,3.4316406 L 6,20 H 7 L 7.0097656,9.2871094 C 7.1630674,8.0201056 7.8126693,6.9519402 8.4433593,5.8554688 8.678458,5.4030659 8.8476562,4.9869213 8.8476562,4.6152344 V 4 Z m 2.9980468,0 v 0.6152344 c 0,0.3716868 -0.169197,0.7878314 -0.404297,1.2402344 C 9.8107173,6.9519402 9.1630674,8.0201055 9.0097656,9.2871094 L 9,20 h 1 L 10.0098,9.2871094 c 0.153301,-1.2670039 0.800951,-2.3351693 1.43164,-3.4316406 0.2351,-0.4524029 0.404297,-0.8685475 0.404297,-1.2402344 V 4 Z M 14,4 V 4.6152344 C 13.684928,6.2932092 12.205134,7.7943016 12,9.3007812 V 20 h 6 V 9.3007812 C 17.678913,7.485026 16.452696,6.2199233 16,4.6152344 V 4 Z m 0.896484,1 h 0.191407 C 15.641494,6.8334958 16.733853,8.0241693 17,9.4375 V 19 H 13 V 9.4140625 C 13.070536,8.9364486 13.400528,8.2754047 13.830078,7.5117188 14.232269,6.7966744 14.669701,5.9602836 14.896484,5 Z"
     id="path1"
     style="fill:currentColor"
     class="ColorScheme-Text" />
</svg>
