<?xml version="1.0" encoding="UTF-8" standalone="no"?>
<svg
   width="24"
   height="24"
   version="1.1"
   id="svg1"
   sodipodi:docname="firefox-symbolic.svg"
   inkscape:version="1.4.2 (ebf0e940d0, 2025-05-08)"
   xmlns:inkscape="http://www.inkscape.org/namespaces/inkscape"
   xmlns:sodipodi="http://sodipodi.sourceforge.net/DTD/sodipodi-0.dtd"
   xmlns="http://www.w3.org/2000/svg"
   xmlns:svg="http://www.w3.org/2000/svg">
  <defs
     id="defs1">
    <style
       id="current-color-scheme"
       type="text/css">
        .ColorScheme-Text { color:#363636; }
     </style>
  </defs>
  <sodipodi:namedview
     id="namedview1"
     pagecolor="#ffffff"
     bordercolor="#000000"
     borderopacity="0.25"
     inkscape:showpageshadow="2"
     inkscape:pageopacity="0.0"
     inkscape:pagecheckerboard="0"
     inkscape:deskcolor="#d1d1d1"
     inkscape:zoom="33.166667"
     inkscape:cx="11.984925"
     inkscape:cy="12"
     inkscape:window-width="1920"
     inkscape:window-height="1011"
     inkscape:window-x="0"
     inkscape:window-y="0"
     inkscape:window-maximized="1"
     inkscape:current-layer="svg1" />
  <path
     id="path1"
     style="fill:currentColor"
     class="ColorScheme-Text"
     d="m 14.179688,4 c -0.0036,4.694e-4 -0.0062,0.00188 -0.0098,0.00195 H 13.90625 l -0.234375,0.1367188 c -1.6359,0.95936 -2.713937,2.6475562 -2.898437,4.5351562 l -0.0293,0.2929688 C 10.703838,8.9290048 10.652508,8.8788098 10.615231,8.8457 10.563611,8.55156 10.525111,8.2510944 10.603511,7.9609344 l 0.5625,-2.078125 -1.9511722,0.9101563 C 9.0278137,6.8803167 8.9012794,7.0549663 8.7246094,7.1601562 l 0.1445312,-1.4394531 -1.53125,0.6132813 c -0.14128,0.056537 -0.2764668,0.1264244 -0.4042968,0.2089844 l -0.011719,0.00781 -0.013672,0.00977 C 6.6151331,6.7627069 6.3408906,6.9897344 6.0878906,7.2402344 5.8117306,7.5118144 5.5578681,7.8058706 5.3300781,8.1191406 4.7998681,8.8419006 4.42243,9.6641094 4.21875,10.537109 l -0.00781,0.0332 v 0.002 c -9.67e-4,0.0045 -0.00295,0.01582 -0.00586,0.0293 v 0.002 H 4.20313 v 0.0019 0.002 l -0.00977,0.04102 v 0.0039 c -0.00652,0.03065 -0.01279,0.06022 -0.021485,0.103524 -0.025265,0.12585 -0.05625,0.297461 -0.083984,0.494141 v 0.002 L 4.06836,11.388813 c -0.022659,0.13954 -0.036571,0.284106 -0.050781,0.472656 l -0.00391,0.03906 v 0.02734 c -0.00387,0.05774 -0.00748,0.121978 -0.011719,0.205078 L 4,12.158203 v 0.07617 c 0.072731,4.344 3.6707719,7.826619 8.013672,7.761719 3.8329,0.03942 7.160165,-2.675307 7.884766,-6.441406 l 0.0078,-0.03516 0.03516,-0.292969 v -0.0039 c 0.16409,-1.3257 -0.0167,-2.672903 -0.52539,-3.9082032 -0.29285,-0.70955 -0.848055,-1.2490406 -1.427735,-1.7441406 l -0.03906,-0.048828 c -0.12605,-0.10484 -0.169731,-0.28298 -0.306641,-0.375 L 17.292969,7.4628906 C 16.624299,6.6734206 15.943731,5.977425 15.394531,5.140625 L 15.251953,4.9160156 c -0.01592,-0.026833 -0.02773,-0.05029 -0.04492,-0.083984 L 15.195312,4.8125 c -0.0067,-0.012495 -0.01019,-0.025305 -0.01367,-0.039063 l 0.0039,0.021484 c -0.07062,-0.30923 -0.28362,-0.5754213 -0.57812,-0.7070313 l -0.01953,-0.00781 -0.02149,-0.00977 C 14.446446,4.0232235 14.318436,4 14.191406,4 c -0.0036,0 -0.0081,-4.694e-4 -0.01172,0 z m 0.0078,1 h 0.002 0.002 0.002 0.002 l 0.002,0.00195 h 0.002 l 0.002,0.00195 h 0.002 l 0.002,0.00195 0.002,0.00195 0.002,0.00195 V 5.0117 c 3.14e-4,7.903e-4 0.0017,0.00502 0.002,0.00586 0.02405,0.093181 0.05947,0.1830482 0.105468,0.2675781 0.02187,0.042867 0.04555,0.089014 0.07617,0.140625 l 0.166016,0.2636719 c 1.1014,1.678 2.449028,2.447775 3.236328,4.359375 V 10.03514 C 17.66944,9.31576 17.430185,8.6209463 17.086486,7.9765463 c 0.627259,0.42198 1.115796,1.01985 1.404296,1.71875 0.44434,1.0774997 0.602455,2.2516027 0.458985,3.4082027 l -0.0332,0.261719 C 18.280776,16.669034 15.369759,19.0428 12.005859,19 8.1993594,19.06074 5.0636,16.02545 5,12.21875 V 12.18359 C 5.00438,12.09786 5.0093,12.023521 5.013672,11.957031 V 11.9375 C 5.026793,11.76341 5.04002,11.651188 5.056641,11.548828 l 0.021484,-0.158203 c 0.048113,-0.34119 0.1152344,-0.619083 0.1152344,-0.626953 0.17278,-0.74088 0.4936693,-1.4391345 0.9433594,-2.0527345 0.1966499,-0.27096 0.4155068,-0.5250956 0.6542968,-0.7597656 0.21132,-0.20929 0.4407269,-0.3994894 0.6855469,-0.5683594 0.074034,-0.047835 0.152525,-0.088392 0.234375,-0.1210937 -0.058304,0.5775 0.024128,1.1605187 0.2402344,1.6992187 0.47002,-0.53187 1.0444,-0.9613588 1.6875,-1.2617187 -0.147,0.5438999 -0.1402298,1.1179031 0.019531,1.6582031 0.069108,0.045492 0.1239006,0.085573 0.1816407,0.1328125 0.1075999,0.087485 0.2287314,0.2049256 0.4824214,0.4472656 0.53605,0.37463 1.103966,0.701413 1.697266,0.976563 -0.18573,0.34032 -0.48401,0.60547 -0.84375,0.75 -1.9927999,0 -2.3144531,1.167968 -2.3144531,1.167968 0.13557,0.9718 0.7579707,1.807144 1.6503911,2.214844 0.03849,0.01925 0.0789,0.03719 0.11914,0.05469 0.06823,0.02976 0.136848,0.05559 0.205078,0.08008 0.29385,0.10273 0.60113,0.161951 0.91211,0.175781 3.1057,0.4031 4.428937,-3.820519 1.648437,-5.261719 0.59251,-0.07538 1.192254,0.06539 1.689454,0.396485 -0.645071,-1.0801005 -1.812313,-1.7394755 -3.070313,-1.7343755 -0.0831,0 -0.165817,0.00647 -0.248047,0.011719 0.15389,-1.5693 1.049856,-2.9700781 2.410156,-3.7675781 h 0.0059 0.002 z" />
</svg>
