<?xml version="1.0" encoding="UTF-8" standalone="no"?>
<svg
   width="24"
   height="24"
   version="1.1"
   id="svg1"
   sodipodi:docname="gnome-aisleriot-symbolic.svg"
   inkscape:version="1.4.2 (ebf0e940d0, 2025-05-08)"
   xmlns:inkscape="http://www.inkscape.org/namespaces/inkscape"
   xmlns:sodipodi="http://sodipodi.sourceforge.net/DTD/sodipodi-0.dtd"
   xmlns="http://www.w3.org/2000/svg"
   xmlns:svg="http://www.w3.org/2000/svg">
  <defs
     id="defs1">
    <style
       id="current-color-scheme"
       type="text/css">
        .ColorScheme-Text { color:#363636; }
        .ColorScheme-NeutralText { color:#f67400; }
        .ColorScheme-PositiveText { color:#37c837; }
        .ColorScheme-NegativeText { color:#f44336; }
        .ColorScheme-Highlight { color:#3daee9; }
     </style>
  </defs>
  <sodipodi:namedview
     id="namedview1"
     pagecolor="#ffffff"
     bordercolor="#000000"
     borderopacity="0.25"
     inkscape:showpageshadow="2"
     inkscape:pageopacity="0.0"
     inkscape:pagecheckerboard="0"
     inkscape:deskcolor="#d1d1d1"
     inkscape:zoom="33.666667"
     inkscape:cx="11.985149"
     inkscape:cy="12"
     inkscape:window-width="1920"
     inkscape:window-height="1011"
     inkscape:window-x="0"
     inkscape:window-y="0"
     inkscape:window-maximized="1"
     inkscape:current-layer="svg1" />
  <path
     id="path1"
     style="fill:currentColor"
     class="ColorScheme-Text"
     d="M 8.75,5 A 3.751,3.751 0 0 0 5,8.6679688 C 5,9.6109687 5.247,10.345391 5.5,11.025391 6.687,13.835391 9,16.184 12,19 c 3,-2.816 5.313,-5.164609 6.5,-7.974609 0.253,-0.68 0.5,-1.4153754 0.5,-2.3593754 A 3.751,3.751 0 0 0 12,6.8808594 3.748,3.748 0 0 0 8.75,5 Z m 6.330078,0.9902344 c 0.2828,-0.00889 0.569169,0.026104 0.84961,0.097656 1.1186,0.2854 2.027806,1.1411969 2.066406,2.5917969 -0.0026,0.75202 -0.188905,1.3289567 -0.427735,1.9726567 C 16.579309,12.982744 14.583,15.109972 12,17.576172 9.417,15.109972 7.4207406,12.982644 6.4316406,10.652344 6.1928206,10.008704 6.0064962,9.4325406 6.0039062,8.6816406 6.0424882,7.1801406 7.2468,6 8.75,6 c 0.98538,-1.788e-4 1.891713,0.5246463 2.382813,1.3789062 l 0.865234,1.5058594 0.869141,-1.5058594 c 0.54617,-0.9477899 1.36449,-1.3619718 2.21289,-1.3886718 z" />
</svg>
