<?xml version="1.0" encoding="UTF-8" standalone="no"?>
<svg
   width="24"
   height="24"
   version="1.1"
   id="svg4"
   sodipodi:docname="log-viewer-app-symbolic.svg"
   inkscape:version="1.4.2 (ebf0e940d0, 2025-05-08)"
   xmlns:inkscape="http://www.inkscape.org/namespaces/inkscape"
   xmlns:sodipodi="http://sodipodi.sourceforge.net/DTD/sodipodi-0.dtd"
   xmlns="http://www.w3.org/2000/svg"
   xmlns:svg="http://www.w3.org/2000/svg">
  <defs
     id="defs4">
    <style
       id="current-color-scheme"
       type="text/css">
        .ColorScheme-Text { color:#363636; }
     </style>
  </defs>
  <sodipodi:namedview
     id="namedview4"
     pagecolor="#ffffff"
     bordercolor="#000000"
     borderopacity="0.25"
     inkscape:showpageshadow="2"
     inkscape:pageopacity="0.0"
     inkscape:pagecheckerboard="0"
     inkscape:deskcolor="#d1d1d1"
     inkscape:zoom="32.75"
     inkscape:cx="11.984733"
     inkscape:cy="12"
     inkscape:window-width="1920"
     inkscape:window-height="1011"
     inkscape:window-x="0"
     inkscape:window-y="0"
     inkscape:window-maximized="1"
     inkscape:current-layer="svg4" />
  <path
     id="path1"
     style="fill:currentColor"
     class="ColorScheme-Text"
     d="M 7,4 C 5.892,4 5,4.892 5,6 v 12 c 0,1.108 0.892,2 2,2 H 9 L 8,19 H 7 C 6.446,19 6,18.554 6,18 V 6 C 6,5.446 6.446,5 7,5 h 9 c 0.554,0 1,0.446 1,1 v 3 l 1,1 V 6 C 18,4.892 17.108,4 16,4 Z m 0.00586,2 v 1 h 1 V 6 Z M 15,6 v 1 h 1 V 6 Z M 7,8 V 9 H 8 V 8 Z m 8,0 v 1 h 1 V 8 Z m -1.994141,1 c -2.755,0 -4.9999996,2.245 -4.9999996,5 0,2.755 2.2449996,5 4.9999996,5 1.197772,0 2.299716,-0.424744 3.16211,-1.130859 l 1.984375,1.984375 0.707031,-0.707032 L 16.875,17.162109 C 17.581385,16.299634 18.005859,15.198027 18.005859,14 c 0,-2.755 -2.245,-5 -5,-5 z M 7,10 v 1 h 1 v -1 z m 6.005859,0.03906 A 3.954,3.954 0 0 1 16.966797,14 3.954,3.954 0 0 1 13.005859,17.960938 3.952,3.952 0 0 1 9.046875,14 3.952,3.952 0 0 1 13.005859,10.039063 Z M 10.863281,12 c -0.264,0.293 -0.467797,0.63 -0.591797,1 h 5.617188 a 2.978,2.978 0 0 0 -0.589844,-1 z m -0.736328,2 c -0.009,0.346 0.04016,0.684 0.160156,1 h 5.566407 c 0.123,-0.317 0.195406,-0.653 0.191406,-1 z m 0.792969,2 c 0.532,0.56 1.270687,0.928453 2.054687,0.939453 0.848,0.048 1.660282,-0.335453 2.238282,-0.939453 z" />
</svg>
