<?xml version="1.0" encoding="UTF-8" standalone="no"?>
<svg
   width="24"
   height="24"
   version="1.1"
   viewBox="0 0 24 24"
   id="svg2"
   sodipodi:docname="org.gnome.Settings-device-security-symbolic.svg"
   inkscape:version="1.4.2 (ebf0e940d0, 2025-05-08)"
   xmlns:inkscape="http://www.inkscape.org/namespaces/inkscape"
   xmlns:sodipodi="http://sodipodi.sourceforge.net/DTD/sodipodi-0.dtd"
   xmlns="http://www.w3.org/2000/svg"
   xmlns:svg="http://www.w3.org/2000/svg">
  <defs
     id="defs2">
    <style
       id="current-color-scheme"
       type="text/css">
        .ColorScheme-Text { color:#363636; }
     </style>
  </defs>
  <sodipodi:namedview
     id="namedview2"
     pagecolor="#ffffff"
     bordercolor="#000000"
     borderopacity="0.25"
     inkscape:showpageshadow="2"
     inkscape:pageopacity="0.0"
     inkscape:pagecheckerboard="0"
     inkscape:deskcolor="#d1d1d1"
     inkscape:zoom="33.125"
     inkscape:cx="12"
     inkscape:cy="12"
     inkscape:window-width="1920"
     inkscape:window-height="1010"
     inkscape:window-x="0"
     inkscape:window-y="0"
     inkscape:window-maximized="1"
     inkscape:current-layer="svg2" />
  <path
     id="path1"
     style="fill:currentColor"
     class="ColorScheme-Text"
     d="M 7.5,4 C 6.1328,4 5,5.1328 5,6.5 v 6 c 0,1.8945 0.9492575,3.66795 2.5234375,4.71875 l 3.9218755,2.613281 c 0.33594,0.22266 0.773415,0.22266 1.109375,0 L 16.476562,17.21875 C 18.050762,16.16795 19,14.3946 19,12.5 v -6 C 19,5.1328 17.8672,4 16.5,4 Z m 0,1 h 9 C 17.3148,5 18,5.68519 18,6.5 v 6 c 0,1.5605 -0.781675,3.021319 -2.078125,3.886719 l -3.919922,2.611328 H 12 11.998 L 8.078125,16.386719 C 6.781625,15.521329 6,14.0605 6,12.5 v -6 C 6,5.68519 6.68519,5 7.5,5 Z M 12,8 a 2,2 0 0 0 -2,2 2,2 0 0 0 1,1.726563 V 14 c 0,0.554 0.446,1 1,1 0.554,0 1,-0.446 1,-1 V 11.726563 A 2,2 0 0 0 14,10 2,2 0 0 0 12,8 Z m 0,1 a 1,1 0 0 1 1,1 1,1 0 0 1 -1,1 1,1 0 0 1 -1,-1 1,1 0 0 1 1,-1 z" />
</svg>
