<?xml version="1.0" encoding="UTF-8" standalone="no"?>
<svg
   width="24"
   height="24"
   version="1.1"
   viewBox="0 0 24 24"
   id="svg2"
   sodipodi:docname="org.gnome.Settings-wellbeing-symbolic.svg"
   inkscape:version="1.4.2 (ebf0e940d0, 2025-05-08)"
   xmlns:inkscape="http://www.inkscape.org/namespaces/inkscape"
   xmlns:sodipodi="http://sodipodi.sourceforge.net/DTD/sodipodi-0.dtd"
   xmlns="http://www.w3.org/2000/svg"
   xmlns:svg="http://www.w3.org/2000/svg">
  <defs
     id="defs2">
    <style
       id="current-color-scheme"
       type="text/css">
        .ColorScheme-Text { color:#363636; }
     </style>
  </defs>
  <sodipodi:namedview
     id="namedview2"
     pagecolor="#ffffff"
     bordercolor="#000000"
     borderopacity="0.25"
     inkscape:showpageshadow="2"
     inkscape:pageopacity="0.0"
     inkscape:pagecheckerboard="0"
     inkscape:deskcolor="#d1d1d1"
     inkscape:zoom="33.166667"
     inkscape:cx="11.984925"
     inkscape:cy="12"
     inkscape:window-width="1920"
     inkscape:window-height="1011"
     inkscape:window-x="0"
     inkscape:window-y="0"
     inkscape:window-maximized="1"
     inkscape:current-layer="svg2" />
  <path
     id="path1"
     style="fill:currentColor"
     class="ColorScheme-Text"
     d="m 12,4 a 3,3 0 0 0 -3,3 3,3 0 0 0 3,3 3,3 0 0 0 3,-3 3,3 0 0 0 -3,-3 z m 0,1 a 2,2 0 0 1 2,2 2,2 0 0 1 -2,2 2,2 0 0 1 -2,-2 2,2 0 0 1 2,-2 z m -3,5 c -2.1973,0 -4,1.8027 -4,4 0,1.0988 0.449325,2.105625 1.171875,2.828125 0.301,0.301 0.5972794,0.467691 1.0058594,0.712891 0.40854,0.2452 0.8969125,0.516441 1.4140625,0.794922 1.0342,0.55695 2.1826001,1.144375 2.9375001,1.546874 a 1.0001,1.0001 0 0 0 0.941406,0 c 0.75492,-0.402449 1.9033,-0.989894 2.9375,-1.546874 0.51712,-0.278481 1.005463,-0.549722 1.414063,-0.794922 0.40854,-0.2452 0.704819,-0.411891 1.005859,-0.712891 C 18.550655,16.105595 19,15.0988 19,14 19,11.8027 17.1973,10 15,10 14.24281,10 13.0625,10.384182 12,11.294922 10.9375,10.384162 9.7572,10 9,10 Z m 0,1 c 0.82843,0 2.015647,0.151911 2.998047,1.525391 L 12,14 12.002,12.525391 C 12.984383,11.151891 14.1716,11 15,11 c 1.6568,0 3,1.3431 3,3 0,0.82842 -0.336016,1.578194 -0.878906,2.121094 C 16.578204,16.663984 13.541,18.1785 12,19 10.4591,18.17853 7.4218063,16.663994 6.8789062,16.121094 6.3360163,15.578204 6,14.8284 6,14 6,12.3431 7.3431,11 9,11 Z" />
</svg>
