<?xml version="1.0" encoding="UTF-8" standalone="no"?>
<!-- Created with Inkscape (http://www.inkscape.org/) -->

<svg
   width="64"
   height="64"
   viewBox="0 0 64 64"
   version="1.1"
   id="svg5"
   sodipodi:docname="input-keyboard.svg"
   inkscape:version="1.2.1 (9c6d41e410, 2022-07-14)"
   xmlns:inkscape="http://www.inkscape.org/namespaces/inkscape"
   xmlns:sodipodi="http://sodipodi.sourceforge.net/DTD/sodipodi-0.dtd"
   xmlns:xlink="http://www.w3.org/1999/xlink"
   xmlns="http://www.w3.org/2000/svg"
   xmlns:svg="http://www.w3.org/2000/svg">
  <sodipodi:namedview
     id="namedview7"
     pagecolor="#ffffff"
     bordercolor="#666666"
     borderopacity="1.0"
     inkscape:showpageshadow="2"
     inkscape:pageopacity="0.0"
     inkscape:pagecheckerboard="0"
     inkscape:deskcolor="#d1d1d1"
     inkscape:document-units="px"
     showgrid="false"
     inkscape:zoom="12.375"
     inkscape:cx="32"
     inkscape:cy="32"
     inkscape:window-width="1920"
     inkscape:window-height="1004"
     inkscape:window-x="0"
     inkscape:window-y="0"
     inkscape:window-maximized="1"
     inkscape:current-layer="svg5" />
  <defs
     id="defs2">
    <linearGradient
       inkscape:collect="always"
       xlink:href="#linearGradient22024"
       id="linearGradient932"
       x1="14"
       y1="11.521169"
       x2="1"
       y2="2.0211687"
       gradientUnits="userSpaceOnUse"
       gradientTransform="matrix(4,0,0,4,4,4.9153252)" />
    <linearGradient
       inkscape:collect="always"
       id="linearGradient22024">
      <stop
         style="stop-color:#cdcdcd;stop-opacity:1;"
         offset="0"
         id="stop22020" />
      <stop
         style="stop-color:#eff0f1;stop-opacity:1;"
         offset="1"
         id="stop22022" />
    </linearGradient>
  </defs>
  <rect
     style="opacity:0.2;fill:#000000;stroke-width:4;stroke-linecap:round;stroke-linejoin:round"
     id="rect934"
     width="56"
     height="38"
     x="4"
     y="14"
     ry="4" />
  <rect
     style="fill:url(#linearGradient932);fill-opacity:1;stroke-width:4;stroke-linecap:round;stroke-linejoin:round"
     id="rect370"
     width="56"
     height="38"
     x="4"
     y="13"
     ry="4" />
  <path
     id="path1728"
     style="fill:#b3b3b3;fill-opacity:1;stroke-width:2;stroke-linecap:round;stroke-linejoin:round"
     d="M 11 19 C 9.8920044 19 9 19.892004 9 21 L 9 24 C 9 25.107996 9.8920044 26 11 26 L 14 26 C 15.107996 26 16 25.107996 16 24 L 16 21 C 16 19.892004 15.107996 19 14 19 L 11 19 z M 21 19 C 19.892004 19 19 19.892004 19 21 L 19 24 C 19 25.107996 19.892004 26 21 26 L 24 26 C 25.107996 26 26 25.107996 26 24 L 26 21 C 26 19.892004 25.107996 19 24 19 L 21 19 z M 31 19 C 29.892004 19 29 19.892004 29 21 L 29 24 C 29 25.107996 29.892004 26 31 26 L 34 26 C 35.107996 26 36 25.107996 36 24 L 36 21 C 36 19.892004 35.107996 19 34 19 L 31 19 z M 41 19 C 39.892004 19 39 19.892004 39 21 L 39 24 C 39 25.107996 39.892004 26 41 26 L 44 26 C 45.107996 26 46 25.107996 46 24 L 46 21 C 46 19.892004 45.107996 19 44 19 L 41 19 z M 51 19 C 49.892004 19 49 19.892004 49 21 L 49 24 C 49 25.107996 49.892004 26 51 26 L 54 26 C 55.107996 26 56 25.107996 56 24 L 56 21 C 56 19.892004 55.107996 19 54 19 L 51 19 z M 11 29 C 9.8920044 29 9 29.892004 9 31 L 9 34 C 9 35.107996 9.8920044 36 11 36 L 14 36 C 15.107996 36 16 35.107996 16 34 L 16 31 C 16 29.892004 15.107996 29 14 29 L 11 29 z M 21 29 C 19.892004 29 19 29.892004 19 31 L 19 34 C 19 35.107996 19.892004 36 21 36 L 24 36 C 25.107996 36 26 35.107996 26 34 L 26 31 C 26 29.892004 25.107996 29 24 29 L 21 29 z M 31 29 C 29.892004 29 29 29.892004 29 31 L 29 34 C 29 35.107996 29.892004 36 31 36 L 34 36 C 35.107996 36 36 35.107996 36 34 L 36 31 C 36 29.892004 35.107996 29 34 29 L 31 29 z M 41 29 C 39.892004 29 39 29.892004 39 31 L 39 34 C 39 35.107996 39.892004 36 41 36 L 44 36 C 45.107996 36 46 35.107996 46 34 L 46 31 C 46 29.892004 45.107996 29 44 29 L 41 29 z M 51 29 C 49.892004 29 49 29.892004 49 31 L 49 34 C 49 35.107996 49.892004 36 51 36 L 54 36 C 55.107996 36 56 35.107996 56 34 L 56 31 C 56 29.892004 55.107996 29 54 29 L 51 29 z M 20 40 C 18.892001 40 18 40.892001 18 42 L 18 45 C 18 46.107997 18.892001 47 20 47 L 45 47 C 46.107997 47 47 46.107997 47 45 L 47 42 C 47 40.892001 46.107997 40 45 40 L 20 40 z " />
  <path
     id="path1695"
     style="opacity:0.2;fill:#000000;fill-opacity:0.961371;stroke-width:2;stroke-linecap:round;stroke-linejoin:round"
     d="M 11 19 C 9.8920052 19 9 19.892005 9 21 L 9 22 C 9 20.892005 9.8920055 20 11 20 L 14 20 C 15.107995 20 16 20.892005 16 22 L 16 21 C 16 19.892005 15.107995 19 14 19 L 11 19 z M 21 19 C 19.892005 19 19 19.892005 19 21 L 19 22 C 19 20.892005 19.892005 20 21 20 L 24 20 C 25.107995 20 26 20.892005 26 22 L 26 21 C 26 19.892005 25.107995 19 24 19 L 21 19 z M 31 19 C 29.892005 19 29 19.892005 29 21 L 29 22 C 29 20.892005 29.892005 20 31 20 L 34 20 C 35.107995 20 36 20.892005 36 22 L 36 21 C 36 19.892005 35.107995 19 34 19 L 31 19 z M 41 19 C 39.892005 19 39 19.892005 39 21 L 39 22 C 39 20.892005 39.892005 20 41 20 L 44 20 C 45.107995 20 46 20.892005 46 22 L 46 21 C 46 19.892005 45.107995 19 44 19 L 41 19 z M 51 19 C 49.892005 19 49 19.892005 49 21 L 49 22 C 49 20.892005 49.892005 20 51 20 L 54 20 C 55.107995 20 56 20.892005 56 22 L 56 21 C 56 19.892005 55.107995 19 54 19 L 51 19 z M 11 29 C 9.8920052 29 9 29.892005 9 31 L 9 32 C 9 30.892005 9.8920055 30 11 30 L 14 30 C 15.107995 30 16 30.892005 16 32 L 16 31 C 16 29.892005 15.107995 29 14 29 L 11 29 z M 21 29 C 19.892005 29 19 29.892005 19 31 L 19 32 C 19 30.892005 19.892005 30 21 30 L 24 30 C 25.107995 30 26 30.892005 26 32 L 26 31 C 26 29.892005 25.107995 29 24 29 L 21 29 z M 31 29 C 29.892005 29 29 29.892005 29 31 L 29 32 C 29 30.892005 29.892005 30 31 30 L 34 30 C 35.107995 30 36 30.892005 36 32 L 36 31 C 36 29.892005 35.107995 29 34 29 L 31 29 z M 41 29 C 39.892005 29 39 29.892005 39 31 L 39 32 C 39 30.892005 39.892005 30 41 30 L 44 30 C 45.107995 30 46 30.892005 46 32 L 46 31 C 46 29.892005 45.107995 29 44 29 L 41 29 z M 51 29 C 49.892005 29 49 29.892005 49 31 L 49 32 C 49 30.892005 49.892005 30 51 30 L 54 30 C 55.107995 30 56 30.892005 56 32 L 56 31 C 56 29.892005 55.107995 29 54 29 L 51 29 z M 20 40 C 18.892004 40 18 40.892006 18 42 L 18 43 C 18 41.892006 18.892004 41 20 41 L 45 41 C 46.107994 41 47 41.892006 47 43 L 47 42 C 47 40.892006 46.107994 40 45 40 L 20 40 z " />
</svg>
