<?xml version="1.0" encoding="UTF-8" standalone="no"?>
<!-- Created with Inkscape (http://www.inkscape.org/) -->

<svg
   width="64"
   height="64"
   viewBox="0 0 64 64"
   version="1.1"
   id="svg5"
   inkscape:version="1.2.1 (9c6d41e410, 2022-07-14)"
   sodipodi:docname="input-mouse.svg"
   xmlns:inkscape="http://www.inkscape.org/namespaces/inkscape"
   xmlns:sodipodi="http://sodipodi.sourceforge.net/DTD/sodipodi-0.dtd"
   xmlns:xlink="http://www.w3.org/1999/xlink"
   xmlns="http://www.w3.org/2000/svg"
   xmlns:svg="http://www.w3.org/2000/svg">
  <sodipodi:namedview
     id="namedview7"
     pagecolor="#ffffff"
     bordercolor="#000000"
     borderopacity="0.25"
     inkscape:showpageshadow="2"
     inkscape:pageopacity="0.0"
     inkscape:pagecheckerboard="0"
     inkscape:deskcolor="#d1d1d1"
     inkscape:document-units="px"
     showgrid="false"
     inkscape:zoom="12.375"
     inkscape:cx="31.959596"
     inkscape:cy="32"
     inkscape:window-width="1920"
     inkscape:window-height="1004"
     inkscape:window-x="0"
     inkscape:window-y="0"
     inkscape:window-maximized="1"
     inkscape:current-layer="svg5" />
  <defs
     id="defs2">
    <linearGradient
       inkscape:collect="always"
       id="linearGradient6076">
      <stop
         style="stop-color:#3e3e41;stop-opacity:1;"
         offset="0"
         id="stop6072" />
      <stop
         style="stop-color:#72757a;stop-opacity:1;"
         offset="0.5"
         id="stop6080" />
      <stop
         style="stop-color:#3e3e40;stop-opacity:1;"
         offset="1"
         id="stop6074" />
    </linearGradient>
    <linearGradient
       inkscape:collect="always"
       id="linearGradient3990">
      <stop
         style="stop-color:#c7ccd2;stop-opacity:1;"
         offset="0"
         id="stop3986" />
      <stop
         style="stop-color:#e4e5e9;stop-opacity:1;"
         offset="1"
         id="stop3988" />
    </linearGradient>
    <linearGradient
       inkscape:collect="always"
       xlink:href="#linearGradient3990"
       id="linearGradient3992"
       x1="52.110722"
       y1="60"
       x2="32"
       y2="5"
       gradientUnits="userSpaceOnUse" />
    <linearGradient
       inkscape:collect="always"
       xlink:href="#linearGradient6076"
       id="linearGradient6078"
       x1="32"
       y1="21"
       x2="32"
       y2="9"
       gradientUnits="userSpaceOnUse" />
  </defs>
  <path
     id="rect2736"
     style="opacity:0.2;fill:#000000;stroke-width:2;stroke-linecap:round;stroke-linejoin:round"
     d="M 32,5 C 23.163471,5 16,9 16,9 l -4,32 c -1.291573,10.332578 8.920033,20 20,20 11.079967,0 21.291573,-9.667422 20,-20 L 48,9 C 48,9 40.836529,5 32,5 Z"
     sodipodi:nodetypes="scssscs" />
  <path
     d="M 32,4 C 23.163471,4 16,8 16,8 l -4,32 c -1.291573,10.332578 8.920033,20 20,20 11.079967,0 21.291573,-9.667422 20,-20 L 48,8 C 48,8 40.836529,4 32,4 Z"
     style="fill:url(#linearGradient3992);fill-opacity:1;stroke-width:2;stroke-linecap:round;stroke-linejoin:round"
     id="path3207" />
  <path
     id="rect6134"
     style="fill:#abafb7;fill-opacity:1;stroke-width:3;stroke-linecap:round;stroke-linejoin:round"
     d="M 31,4 V 8.1738281 C 29.833351,8.5843362 29,9.6895185 29,11 v 8 c 0,1.661998 1.338002,3 3,3 1.661998,0 3,-1.338002 3,-3 V 11 C 35,9.6895185 34.166649,8.5843362 33,8.1738281 V 4 Z" />
  <rect
     style="fill:url(#linearGradient6078);fill-opacity:1;stroke-width:2;stroke-linecap:round;stroke-linejoin:round"
     id="rect4772"
     width="4"
     height="12"
     x="30"
     y="9"
     ry="2" />
</svg>
