<?xml version="1.0" encoding="UTF-8" standalone="no"?>
<!-- Created with Inkscape (http://www.inkscape.org/) -->

<svg
   width="64"
   height="64"
   viewBox="0 0 64 64.000003"
   version="1.1"
   id="svg5"
   inkscape:version="1.2.1 (9c6d41e410, 2022-07-14)"
   sodipodi:docname="printer.svg"
   xmlns:inkscape="http://www.inkscape.org/namespaces/inkscape"
   xmlns:sodipodi="http://sodipodi.sourceforge.net/DTD/sodipodi-0.dtd"
   xmlns:xlink="http://www.w3.org/1999/xlink"
   xmlns="http://www.w3.org/2000/svg"
   xmlns:svg="http://www.w3.org/2000/svg">
  <sodipodi:namedview
     id="namedview7"
     pagecolor="#ffffff"
     bordercolor="#000000"
     borderopacity="0.25"
     inkscape:showpageshadow="2"
     inkscape:pageopacity="0.0"
     inkscape:pagecheckerboard="0"
     inkscape:deskcolor="#d1d1d1"
     inkscape:document-units="px"
     showgrid="false"
     inkscape:zoom="12.9375"
     inkscape:cx="32"
     inkscape:cy="32"
     inkscape:window-width="1920"
     inkscape:window-height="1008"
     inkscape:window-x="0"
     inkscape:window-y="0"
     inkscape:window-maximized="1"
     inkscape:current-layer="svg5" />
  <defs
     id="defs2">
    <linearGradient
       inkscape:collect="always"
       id="linearGradient4491">
      <stop
         style="stop-color:#4f4f4f;stop-opacity:1;"
         offset="0"
         id="stop4487" />
      <stop
         style="stop-color:#818181;stop-opacity:1;"
         offset="1"
         id="stop4489" />
    </linearGradient>
    <linearGradient
       inkscape:collect="always"
       id="linearGradient2673">
      <stop
         style="stop-color:#eaeaea;stop-opacity:1;"
         offset="0"
         id="stop2669" />
      <stop
         style="stop-color:#f3f3f3;stop-opacity:1;"
         offset="1"
         id="stop2671" />
    </linearGradient>
    <linearGradient
       inkscape:collect="always"
       xlink:href="#linearGradient2673"
       id="linearGradient2675"
       x1="14"
       y1="6"
       x2="50"
       y2="62"
       gradientUnits="userSpaceOnUse"
       gradientTransform="translate(0,-2)" />
    <linearGradient
       inkscape:collect="always"
       xlink:href="#linearGradient2673"
       id="linearGradient2859"
       x1="14"
       y1="8"
       x2="50"
       y2="64"
       gradientUnits="userSpaceOnUse"
       gradientTransform="translate(0,-4)" />
    <linearGradient
       inkscape:collect="always"
       xlink:href="#linearGradient4491"
       id="linearGradient4493"
       x1="32"
       y1="22"
       x2="60"
       y2="46"
       gradientUnits="userSpaceOnUse"
       gradientTransform="translate(0,-2)" />
    <radialGradient
       inkscape:collect="always"
       xlink:href="#linearGradient13363"
       id="radialGradient13365"
       cx="48"
       cy="46"
       fx="48"
       fy="46"
       r="3"
       gradientUnits="userSpaceOnUse"
       gradientTransform="matrix(1.3333333,0,0,1.3333333,-54,-35.333334)" />
    <linearGradient
       inkscape:collect="always"
       id="linearGradient13363">
      <stop
         style="stop-color:#00ff00;stop-opacity:1;"
         offset="0"
         id="stop13359" />
      <stop
         style="stop-color:#00ff00;stop-opacity:0;"
         offset="1"
         id="stop13361" />
    </linearGradient>
    <linearGradient
       inkscape:collect="always"
       xlink:href="#linearGradient13373"
       id="linearGradient13375"
       x1="46"
       y1="44"
       x2="50"
       y2="48"
       gradientUnits="userSpaceOnUse"
       gradientTransform="translate(-38,-20)" />
    <linearGradient
       inkscape:collect="always"
       id="linearGradient13373">
      <stop
         style="stop-color:#00ff00;stop-opacity:1;"
         offset="0"
         id="stop13369" />
      <stop
         style="stop-color:#00cd00;stop-opacity:1;"
         offset="1"
         id="stop13371" />
    </linearGradient>
  </defs>
  <path
     d="M 16,5 C 14.892001,5 14,5.8920011 14,7.0000001 V 21.000001 H 8 c -2.215998,0 -4,1.784002 -4,4 v 16.000001 c 0,2.215998 1.784002,4 4,4 h 6 v 14.000001 c 0,1.107998 0.892002,2 2,2 h 32 c 1.107998,0 2,-0.892002 2,-2 V 45.000002 h 6 c 2.215998,0 4,-1.784002 4,-4 V 25.000001 c 0,-2.215998 -1.784002,-4 -4,-4 H 50 V 7.0000001 C 50,5.8920011 49.107999,5 48,5 Z"
     style="opacity:0.2;fill:#000000;fill-opacity:1;stroke-linecap:round;stroke-linejoin:round;paint-order:stroke fill markers"
     id="path4619"
     sodipodi:nodetypes="sscsssscsssscsssscsss" />
  <rect
     style="fill:url(#linearGradient2675);fill-opacity:1;stroke-linecap:round;stroke-linejoin:round;paint-order:stroke fill markers"
     id="rect2644"
     width="36"
     height="20"
     x="14"
     y="4"
     ry="2" />
  <rect
     style="fill:url(#linearGradient4493);fill-opacity:1;stroke-linecap:round;stroke-linejoin:round;paint-order:stroke fill markers"
     id="rect234"
     width="56"
     height="24"
     x="4"
     y="20"
     ry="4" />
  <circle
     style="fill:url(#radialGradient13365);fill-opacity:1;stroke-width:1.33333;stroke-linecap:round;stroke-linejoin:round"
     id="path13357"
     cx="10"
     cy="26"
     r="4" />
  <circle
     style="fill:url(#linearGradient13375);fill-opacity:1;stroke-width:1;stroke-linecap:round;stroke-linejoin:round"
     id="path13367"
     cx="10"
     cy="26"
     r="2" />
  <rect
     style="opacity:0.2;fill:#000000;stroke-linecap:round;stroke-linejoin:round;paint-order:stroke fill markers"
     id="rect344"
     width="40"
     height="4"
     x="12"
     y="36"
     ry="2" />
  <path
     id="rect398"
     style="fill:url(#linearGradient2859);fill-opacity:1;stroke-width:0.848528;stroke-linecap:round;stroke-linejoin:round;paint-order:stroke fill markers"
     d="m 14,38 v 20 c 0,1.107999 0.892001,2 2,2 h 32 c 1.107999,0 2,-0.892001 2,-2 V 38 Z"
     sodipodi:nodetypes="ccssccc" />
  <path
     id="rect1680"
     style="opacity:0.2;fill:#ffffff;stroke-linecap:round;stroke-linejoin:round;paint-order:stroke fill markers"
     d="m 8,20 c -2.2159978,0 -4,1.784002 -4,4 v 1 c 0,-2.215998 1.7840022,-4 4,-4 h 48 c 2.215998,0 4,1.784002 4,4 v -1 c 0,-2.215998 -1.784002,-4 -4,-4 z" />
  <path
     id="rect4412"
     style="fill:#959595;fill-opacity:1;stroke-width:0.966092;stroke-linecap:round;stroke-linejoin:round;paint-order:stroke fill markers"
     d="m 18,42 v 2 h 28 v -2 z m 0,6 v 2 h 28 v -2 z m 0,6 v 2 h 14 v -2 z"
     sodipodi:nodetypes="ccccccccccccccc" />
</svg>
