<?xml version="1.0" encoding="UTF-8" standalone="no"?>
<!-- Created with Inkscape (http://www.inkscape.org/) -->

<svg
   width="96"
   height="96"
   viewBox="0 0 96 96"
   version="1.1"
   id="svg5"
   inkscape:version="1.2.2 (1:1.2.2+202305151914+b0a8486541)"
   sodipodi:docname="firefox.svg"
   xmlns:inkscape="http://www.inkscape.org/namespaces/inkscape"
   xmlns:sodipodi="http://sodipodi.sourceforge.net/DTD/sodipodi-0.dtd"
   xmlns="http://www.w3.org/2000/svg"
   xmlns:svg="http://www.w3.org/2000/svg">
  <sodipodi:namedview
     id="namedview7"
     pagecolor="#ffffff"
     bordercolor="#000000"
     borderopacity="0.25"
     inkscape:showpageshadow="2"
     inkscape:pageopacity="0.0"
     inkscape:pagecheckerboard="0"
     inkscape:deskcolor="#d1d1d1"
     inkscape:document-units="px"
     showgrid="false"
     inkscape:zoom="8.3958333"
     inkscape:cx="43.176179"
     inkscape:cy="48"
     inkscape:window-width="1920"
     inkscape:window-height="1008"
     inkscape:window-x="0"
     inkscape:window-y="0"
     inkscape:window-maximized="1"
     inkscape:current-layer="g862"
     showguides="false" />
  <defs
     id="defs2">
    <style
       id="current-color-scheme"
       type="text/css">
         .ColorScheme-Text { color:#232629; }
         .ColorScheme-Highlight { color:#3daee9; }
     </style>
  </defs>
  <path
     d="M 39,7 C 11.696429,7 6,12.819451 6,40 v 18 c 0,27.180548 5.696429,33 33,33 H 57 C 84.30357,91 90,85.180548 90,58 V 40 C 90,12.819451 84.30357,7 57,7"
     style="opacity:0.2;fill:#000000;stroke-width:3;stroke-linecap:round;stroke-linejoin:round"
     id="path563" />
  <path
     id="path530"
     style="fill:currentColor;fill-opacity:1;stroke-width:3;stroke-linecap:round;stroke-linejoin:round"
     d="M 39,6 C 11.696456,6 6,11.819478 6,39 v 18 c 0,27.180522 5.696456,33 33,33 H 57 C 84.303546,90 90,84.180522 90,57 V 39 C 90,11.819478 84.303546,6 57,6 Z"
     class="ColorScheme-Highlight" />
  <g
     id="g862"
     style="opacity:0.6;fill:currentColor"
     class="ColorScheme-Text">
    <path
       id="path513"
       style="opacity:0.4;stroke-width:0.999993"
       d="M 57.433594 16 C 50.476177 20.728638 47.82505 26.311535 46.882812 32.109375 A 18 18 0 0 1 48 32 A 18 18 0 0 1 66 50 A 18 18 0 0 1 65.960938 50.482422 C 65.976446 50.736262 66.000002 50.988353 66 51.246094 C 65.999973 53.530843 65.379332 55.670078 64.300781 57.507812 A 18 18 0 0 1 64.082031 58.027344 C 69.168572 54.12906 72.506965 48.065151 72.708984 41.210938 C 72.714984 40.990855 72.720703 40.771011 72.720703 40.550781 C 72.720703 40.241898 72.714219 39.934273 72.699219 39.628906 C 72.699009 39.623806 72.699459 39.618381 72.699219 39.613281 C 72.667894 38.92837 72.593836 38.255408 72.501953 37.587891 C 71.6781 35.791502 70.654538 34.019607 69.3125 32.300781 C 63.276368 24.569932 58.699108 19.3689 57.433594 16 z " />
    <path
       id="path613"
       style="opacity:0.7;stroke-width:0.999999;stroke-linecap:round;stroke-linejoin:round"
       d="m 48,34 a 16,16 0 0 0 -7.171875,1.78125 c 0.952681,0.760657 1.717372,1.459708 2.25,1.878906 2.154678,1.695803 4.861541,2.728832 5.496094,2.902344 a 2.0002,2.0002 0 0 1 1.414062,1.457031 c 0.07262,0.300442 0.116079,0.68062 0.07422,1.070313 a 2.0002,2.0002 0 0 1 -0.0039,0.01563 c -0.07251,0.628874 -0.358173,1.222243 -0.722656,1.710937 -0.01133,0.01548 -0.06455,0.08879 -0.128907,0.167969 -0.07804,0.09643 -0.152256,0.180373 -0.222656,0.257813 -0.103715,0.114209 -0.22338,0.240497 -0.359375,0.371093 -0.109056,0.104889 -0.222772,0.210316 -0.34375,0.316407 -0.365616,0.320656 -0.794113,0.652353 -1.304688,1.019531 -0.171939,0.123631 -0.350571,0.249782 -0.539062,0.378906 a 2.0002,2.0002 0 0 0 -0.0039,0 c -0.193639,0.132705 -0.392084,0.267103 -0.597656,0.402344 l 0.3125,-0.253907 a 2.0002,2.0002 0 0 1 -1.347657,0.582032 c -1.648004,0.05259 -2.922682,0.234839 -3.914062,0.488281 -0.24571,0.06298 -0.475604,0.130995 -0.691407,0.203125 -0.21486,0.07179 -0.415526,0.147813 -0.601562,0.226562 -0.184595,0.07817 -0.358649,0.159824 -0.523438,0.246094 -0.07826,0.0409 -0.157235,0.08432 -0.234374,0.128906 -0.064,0.037 -0.127877,0.07729 -0.191407,0.117188 -1.094337,0.731372 -1.531454,1.238811 -1.65625,1.5 -0.05056,0.105957 -0.07713,0.190675 -0.08984,0.335938 a 2.0002,2.0002 0 0 0 0,0.0039 c 0.0026,-0.02955 0.0011,0.0097 0,0.02734 -1.59e-4,0.0032 1.46e-4,0.0047 0,0.0078 v 0.0078 c -0.0049,0.109638 -0.002,0.218041 0.01172,0.339844 a 2.0002,2.0002 0 0 1 0.0078,0.07813 c -0.0062,-0.04469 -0.0035,-0.04193 0,0.0078 a 2.0002,2.0002 0 0 0 0,0.0039 c 0.01915,0.144288 0.05445,0.326063 0.105469,0.535156 a 2.0002,2.0002 0 0 0 0,0.0039 c 0.02063,0.08513 0.03366,0.127813 0.03516,0.132813 a 2.0002,2.0002 0 0 1 0.0078,0.03516 c 0.05627,0.210389 0.128244,0.448496 0.214844,0.707031 a 2.0002,2.0002 0 0 1 0.01953,0.05078 c -0.0072,-0.02367 -0.0047,-0.0076 0.01563,0.05078 a 2.0002,2.0002 0 0 1 0.0039,0.0078 c 0.03439,0.09997 0.06925,0.203443 0.109376,0.304687 l 0.0039,0.0078 a 2.0002,2.0002 0 0 1 0.01563,0.03516 c -0.0084,-0.02094 0.0029,0.0054 0.0039,0.0078 l 0.0039,0.01172 c 0.03493,0.08537 0.07679,0.183127 0.125,0.289063 A 2.0002,2.0002 0 0 1 37.601562,54 c -0.0011,-0.0025 0.0021,0.0071 0.0078,0.01953 l 0.0039,0.0039 c 0.04547,0.09752 0.09103,0.193372 0.140625,0.289062 v 0.0039 h 0.0039 a 2.0002,2.0002 0 0 1 0.02734,0.05078 c 0.0463,0.08769 0.09309,0.170936 0.140625,0.253906 0.05761,0.09636 0.06828,0.118967 0.0078,0.02344 a 2.0002,2.0002 0 0 1 0.03516,0.05469 c 0.04813,0.08161 0.104939,0.170991 0.167969,0.269531 a 2.0002,2.0002 0 0 1 0.0039,0.0078 c -0.006,-0.0095 0.02602,0.04036 0.04297,0.06641 0.0024,0.0037 0.0054,0.008 0.0078,0.01172 0.05787,0.08855 0.112919,0.17144 0.167969,0.25 l 0.0039,0.0039 c 0.04167,0.05872 0.05853,0.08977 0.04687,0.07422 a 2.0002,2.0002 0 0 1 0.02344,0.02734 c 0.05328,0.07369 0.11659,0.154244 0.1875,0.246094 a 2.0002,2.0002 0 0 0 0,0.0039 c 0.03658,0.04746 0.0634,0.08206 0.08203,0.105469 0.04636,0.05816 0.09828,0.11832 0.15625,0.1875 a 2.0002,2.0002 0 0 0 0,0.0039 c 0.03952,0.04728 0.08221,0.09505 0.125,0.144531 h -0.0039 c 0.04449,0.05139 0.102482,0.111718 0.164062,0.179688 0.05599,0.06181 0.09285,0.10323 0.113281,0.125 -0.02272,-0.02397 -0.04357,-0.04342 -0.0625,-0.0625 0.01377,0.01359 0.04106,0.05126 0.07031,0.08594 a 2.0002,2.0002 0 0 1 0.53125,1.34375 c 0,1.85e-4 -0.101618,-0.629078 -0.101563,-0.628907 5.6e-5,1.71e-4 -0.211038,-0.445471 -0.210937,-0.445312 4e-5,5e-5 -0.03329,-0.04456 -0.05859,-0.07813 l -0.03906,-0.05078 c -0.04489,-0.05957 -0.08991,-0.121166 -0.08984,-0.121093 0.03863,0.0407 0.0776,0.08052 0.121094,0.125 -0.01006,-0.0094 0.03439,0.03402 0.01563,0.01563 a 2.0002,2.0002 0 0 1 0.01953,0.01953 c 0.03951,0.03989 0.08361,0.08483 0.136719,0.136719 a 2.0002,2.0002 0 0 1 0.01953,0.01953 c 0.04662,0.04519 0.09739,0.09328 0.15625,0.148437 0.06305,0.05911 0.124594,0.115089 0.183594,0.167969 0.04582,0.04106 0.09169,0.08143 0.132812,0.117188 0.08632,0.07516 0.179664,0.154355 0.277344,0.234375 0.01109,0.0091 0.04419,0.03441 0.09375,0.07422 0.140805,0.112993 0.275462,0.216261 0.40625,0.3125 0.0704,0.05177 0.140444,0.103851 0.214844,0.15625 -0.02901,-0.02045 -0.0206,-0.01354 0.02344,0.01563 a 2.0002,2.0002 0 0 1 0.03906,0.02344 c 0.13366,0.09298 0.259438,0.182269 0.382812,0.261719 h 0.0039 c 0.01216,0.0077 0.0362,0.02291 0.07422,0.04687 a 2.0002,2.0002 0 0 0 0.0039,0.0039 c 0.133058,0.08429 0.266044,0.166364 0.402344,0.246094 a 2.0002,2.0002 0 0 1 0.03125,0.01953 2.0002,2.0002 0 0 1 0.07422,0.05078 c 0.02389,0.01467 0.08186,0.04675 0.08203,0.04687 l -0.117187,-0.07813 c 0.240808,0.138888 0.492677,0.274855 0.757812,0.40625 a 2.0002,2.0002 0 0 0 0.0039,0 h 0.0039 c 1.689677,0.837137 3.700164,1.386592 5.945312,1.515625 5.238116,-0.557737 9.305094,-5.095836 9.308594,-10.457031 -0.0053,-4.028851 -2.329008,-7.682269 -5.976562,-9.394531 a 2.0002,2.0002 0 0 1 0.726562,-3.804688 c 0.245248,-0.0152 0.491453,-0.02484 0.742188,-0.02734 a 2.0002,2.0002 0 0 1 0.01953,0 c 1.571496,-1.4e-5 3.077725,0.267833 4.492187,0.738282 A 16,16 0 0 0 48,34 Z m -6.152344,24.492188 c 0.02101,0.01003 0.06323,0.03536 0.109375,0.0625 -0.03152,-0.01932 -0.06601,-0.04298 -0.08203,-0.05078 -0.01669,-0.0081 -0.01456,-0.0058 -0.02734,-0.01172 z" />
    <path
       d="m 29.8266,24.787121 c -6.43596,4.977091 -11.02536,13.600236 -11.7207,22.224605 -1.5e-4,0.0013 1.2e-4,0.0026 0,0.0039 -0.009,0.09441 -0.018,0.18879 -0.024,0.2832 C 18.0291,47.904825 18,48.578772 18,49.349611 c 3e-5,16.37496 13.43151,29.650379 30,29.650379 16.56849,0 30,-13.27542 30,-29.65038 0,-7.623658 -2.91153,-14.575228 -7.6953,-19.82812 0.1065,-0.0039 -0.44682,-0.430503 -0.73242,-0.324219 1.40007,2.320683 2.38137,4.921266 2.84568,7.697265 -0.006,-0.009 -0.009,-0.0183 -0.015,-0.0273 0.1515,0.899173 0.2544,1.814655 0.297,2.746092 2.4e-4,0.0051 -2.1e-4,0.0105 0,0.0156 0.015,0.305367 0.021,0.612993 0.021,0.921877 0,0.22023 -0.006,0.440073 -0.012,0.660156 -0.2049,6.951936 -3.63237,13.095502 -8.84181,16.986321 1.34547,-1.982318 2.13279,-4.374837 2.13282,-6.951168 6e-5,-6.844852 -5.54964,-12.394591 -12.3945,-12.394528 -0.2133,0.0021 -0.42765,0.0102 -0.64062,0.0234 4.3443,2.039334 7.1226,6.403968 7.1289,11.203123 -0.003,6.419199 -4.89942,11.883468 -11.23437,12.482415 -2.59158,-0.12138 -4.9275,-0.762518 -6.91212,-1.746093 l -0.002,-0.002 c -0.2982,-0.14778 -0.58923,-0.302286 -0.87108,-0.464844 -0.024,-0.0132 -0.0441,-0.0279 -0.0663,-0.04101 -0.003,-0.0022 -0.009,-0.0036 -0.012,-0.006 -0.1575,-0.09213 -0.3126,-0.18675 -0.46485,-0.2832 -0.03,-0.0189 -0.0603,-0.03762 -0.09,-0.05664 -0.1524,-0.09804 -0.30042,-0.19863 -0.44727,-0.300783 -0.024,-0.0159 -0.0474,-0.03078 -0.0702,-0.04686 -0.0843,-0.05937 -0.1674,-0.11904 -0.2499,-0.1797 -0.1617,-0.11898 -0.31842,-0.24147 -0.47265,-0.365235 -0.0366,-0.0294 -0.0735,-0.05829 -0.1095,-0.0879 -0.1092,-0.08946 -0.2169,-0.17973 -0.32226,-0.27147 -0.0513,-0.04461 -0.102,-0.08961 -0.1524,-0.13476 -0.0732,-0.06561 -0.1458,-0.13257 -0.2169,-0.19923 -0.0687,-0.06438 -0.1362,-0.12804 -0.2031,-0.19335 l -0.002,-0.002 c -0.0546,-0.05334 -0.1086,-0.10626 -0.162,-0.16017 -0.015,-0.0147 -0.027,-0.03009 -0.0429,-0.04491 -0.0633,-0.06474 -0.126,-0.12975 -0.1875,-0.1953 -10e-4,-0.0015 -0.003,-0.0024 -0.003,-0.0039 -0.0468,-0.04986 -0.0912,-0.10005 -0.1368,-0.15039 -0.0642,-0.07086 -0.1293,-0.14313 -0.1914,-0.21486 -0.0489,-0.05655 -0.0969,-0.11286 -0.1446,-0.16992 -0.0636,-0.0759 -0.1263,-0.15174 -0.1875,-0.22851 -0.0345,-0.04335 -0.0681,-0.08727 -0.1017,-0.13086 -0.0765,-0.09909 -0.1521,-0.19842 -0.2247,-0.29883 -0.03,-0.04002 -0.0573,-0.08088 -0.0858,-0.12108 -0.0753,-0.10725 -0.1479,-0.21564 -0.2187,-0.324216 -0.018,-0.0297 -0.0378,-0.05814 -0.0567,-0.0879 -0.0705,-0.11022 -0.1395,-0.22062 -0.2052,-0.332031 -0.015,-0.0237 -0.027,-0.04863 -0.0411,-0.07227 -0.066,-0.1143 -0.1287,-0.22839 -0.1896,-0.343752 -0.012,-0.0213 -0.024,-0.04305 -0.0351,-0.06444 -0.0636,-0.12267 -0.1239,-0.24549 -0.1815,-0.369141 -0.012,-0.0258 -0.024,-0.05217 -0.0351,-0.07812 -0.0564,-0.12393 -0.1113,-0.24831 -0.162,-0.373044 -0.003,-0.0075 -0.006,-0.0141 -0.009,-0.0216 -0.006,-0.0123 -0.009,-0.0249 -0.015,-0.03711 -0.0528,-0.13275 -0.1026,-0.26694 -0.1485,-0.400389 -0.015,-0.04311 -0.03,-0.08454 -0.0429,-0.12696 -0.0969,-0.2895 -0.1806,-0.563181 -0.2499,-0.822264 -0.021,-0.07272 -0.0375,-0.14427 -0.0546,-0.21483 -0.0639,-0.26187 -0.1134,-0.511056 -0.1446,-0.746094 -0.006,-0.04335 -0.012,-0.08637 -0.015,-0.12891 -0.027,-0.23946 -0.0321,-0.466653 -0.021,-0.683592 0.002,-0.03393 0.003,-0.0681 0.006,-0.101579 0.0318,-0.363513 0.1215,-0.700885 0.2754,-1.023435 v -0.002 c 0.37515,-0.785163 1.13088,-1.489377 2.35935,-2.308597 h 0.002 c 0.0948,-0.06024 0.1929,-0.11997 0.2928,-0.17772 0.0999,-0.05775 0.2031,-0.11478 0.30861,-0.16992 0.2118,-0.11088 0.43437,-0.216659 0.6699,-0.316403 0.2355,-0.09969 0.48375,-0.19359 0.7461,-0.28125 0.2619,-0.08754 0.53877,-0.16947 0.83007,-0.244141 h 0.002 c 1.16787,-0.29856 2.58453,-0.490737 4.34376,-0.546875 l 0.002,-0.002 c 0.2001,-0.131639 0.38862,-0.257069 0.5664,-0.378906 l 0.002,-0.002 c 0.1785,-0.12228 0.34485,-0.238619 0.50193,-0.351564 0.4713,-0.338934 0.85035,-0.63747 1.15236,-0.902343 0.1002,-0.08787 0.1932,-0.1731 0.2772,-0.25389 0.1005,-0.09651 0.1863,-0.18618 0.2655,-0.27345 0.0543,-0.0597 0.1053,-0.11811 0.1503,-0.17382 0.03,-0.03552 0.0528,-0.06753 0.078,-0.10155 0.2208,-0.2958 0.31566,-0.534441 0.33984,-0.744141 0.015,-0.13965 0.002,-0.26667 -0.027,-0.386718 -0.99894,-0.27315 -3.7548,-1.330896 -6.20313,-3.257811 -1.35384,-1.065525 -2.81355,-2.80643 -5.25783,-3.978516 -0.49125,-1.779458 -0.78993,-3.863976 -0.1074,-7.50195 -2.30793,0.758737 -4.40241,2.641855 -6.16407,4.505859 -0.50994,-2.321207 -0.39906,-5.345835 -0.49023,-7.472654 z"
       style="stroke-width:0.999999"
       id="path541" />
  </g>
</svg>
