<?xml version="1.0" encoding="UTF-8" standalone="no"?>
<!-- Created with Inkscape (http://www.inkscape.org/) -->

<svg
   width="96"
   height="96"
   viewBox="0 0 96 96"
   version="1.1"
   id="svg5"
   inkscape:version="1.2.2 (1:1.2.2+202305151914+b0a8486541)"
   sodipodi:docname="google-chrome.svg"
   xmlns:inkscape="http://www.inkscape.org/namespaces/inkscape"
   xmlns:sodipodi="http://sodipodi.sourceforge.net/DTD/sodipodi-0.dtd"
   xmlns="http://www.w3.org/2000/svg"
   xmlns:svg="http://www.w3.org/2000/svg">
  <sodipodi:namedview
     id="namedview7"
     pagecolor="#ffffff"
     bordercolor="#000000"
     borderopacity="0.25"
     inkscape:showpageshadow="2"
     inkscape:pageopacity="0.0"
     inkscape:pagecheckerboard="0"
     inkscape:deskcolor="#d1d1d1"
     inkscape:document-units="px"
     showgrid="false"
     inkscape:zoom="8.3958333"
     inkscape:cx="47.940447"
     inkscape:cy="48"
     inkscape:window-width="1920"
     inkscape:window-height="1008"
     inkscape:window-x="0"
     inkscape:window-y="0"
     inkscape:window-maximized="1"
     inkscape:current-layer="svg5"
     showguides="false" />
  <defs
     id="defs2">
    <style
       id="current-color-scheme"
       type="text/css">
         .ColorScheme-Text { color:#232629; }
         .ColorScheme-Highlight { color:#3daee9; }
     </style>
  </defs>
  <path
     d="M 39,7 C 11.696429,7 6,12.819451 6,40 v 18 c 0,27.180548 5.696429,33 33,33 H 57 C 84.30357,91 90,85.180548 90,58 V 40 C 90,12.819451 84.30357,7 57,7"
     style="opacity:0.2;fill:#000000;stroke-width:3;stroke-linecap:round;stroke-linejoin:round"
     id="path563" />
  <path
     id="path530"
     style="fill:currentColor;fill-opacity:1;stroke-width:3;stroke-linecap:round;stroke-linejoin:round"
     d="M 39,6 C 11.696456,6 6,11.819478 6,39 v 18 c 0,27.180522 5.696456,33 33,33 H 57 C 84.303546,90 90,84.180522 90,57 V 39 C 90,11.819478 84.303546,6 57,6 Z"
     class="ColorScheme-Highlight" />
  <path
     id="path354"
     style="opacity:0.6;fill:currentColor;stroke-width:2;stroke-linecap:round;stroke-linejoin:round"
     d="M 48.000002,16.000012 A 32,32 0 0 0 22.816408,28.378918 l 9.53125,16.503906 A 16.000109,16.000107 0 0 1 48.000002,32.000012 h 27.707032 a 32,32 0 0 0 -27.707032,-16 z M 20.328126,32.070324 a 32,32 0 0 0 -4.328124,15.929688 32,32 0 0 0 27.566406,31.683594 l 9.5625,-16.5625 a 16.000109,16.000107 0 0 1 -5.128906,0.878906 16.000109,16.000107 0 0 1 -13.828124,-8.015624 l -0.02734,0.0156 z m 27.671876,3.929688 a 12,11.999994 0 0 0 -12,12 12,11.999994 0 0 0 12,12 12,11.999994 0 0 0 12,-12 12,11.999994 0 0 0 -12,-12 z m 10.578124,0 a 16.000109,16.000107 0 0 1 5.421876,12 16.000109,16.000107 0 0 1 -2.171876,7.984376 l 0.02734,0.0156 -13.855468,24 a 32,32 0 0 0 32,-32 32,32 0 0 0 -2.34375,-12 z"
     class="ColorScheme-Text" />
</svg>
