<?xml version="1.0" encoding="UTF-8" standalone="no"?>
<!-- Created with Inkscape (http://www.inkscape.org/) -->

<svg
   width="96"
   height="96"
   viewBox="0 0 96 96"
   version="1.1"
   id="svg5"
   inkscape:version="1.2.2 (1:1.2.2+202305151914+b0a8486541)"
   sodipodi:docname="preferences-activities.svg"
   xmlns:inkscape="http://www.inkscape.org/namespaces/inkscape"
   xmlns:sodipodi="http://sodipodi.sourceforge.net/DTD/sodipodi-0.dtd"
   xmlns="http://www.w3.org/2000/svg"
   xmlns:svg="http://www.w3.org/2000/svg">
  <sodipodi:namedview
     id="namedview7"
     pagecolor="#ffffff"
     bordercolor="#000000"
     borderopacity="0.25"
     inkscape:showpageshadow="2"
     inkscape:pageopacity="0.0"
     inkscape:pagecheckerboard="0"
     inkscape:deskcolor="#d1d1d1"
     inkscape:document-units="px"
     showgrid="false"
     inkscape:zoom="8.3958333"
     inkscape:cx="43.176179"
     inkscape:cy="48"
     inkscape:window-width="1920"
     inkscape:window-height="1008"
     inkscape:window-x="0"
     inkscape:window-y="0"
     inkscape:window-maximized="1"
     inkscape:current-layer="svg5"
     showguides="false" />
  <defs
     id="defs2">
    <style
       id="current-color-scheme"
       type="text/css">
         .ColorScheme-Text { color:#232629; }
         .ColorScheme-Highlight { color:#3daee9; }
     </style>
  </defs>
  <path
     d="M 39,7 C 11.696429,7 6,12.819451 6,40 v 18 c 0,27.180548 5.696429,33 33,33 H 57 C 84.30357,91 90,85.180548 90,58 V 40 C 90,12.819451 84.30357,7 57,7"
     style="opacity:0.2;fill:#000000;stroke-width:3;stroke-linecap:round;stroke-linejoin:round"
     id="path563" />
  <path
     id="path530"
     style="fill:currentColor;fill-opacity:1;stroke-width:3;stroke-linecap:round;stroke-linejoin:round"
     d="M 39,6 C 11.696456,6 6,11.819478 6,39 v 18 c 0,27.180522 5.696456,33 33,33 H 57 C 84.303546,90 90,84.180522 90,57 V 39 C 90,11.819478 84.303546,6 57,6 Z"
     class="ColorScheme-Highlight" />
  <path
     id="path3699"
     style="opacity:0.6;fill:currentColor;stroke-width:3;stroke-linecap:round;stroke-linejoin:round"
     class="ColorScheme-Text"
     d="M 43.5 16 C 43.128735 17.759404 41.901707 21.401181 40.873047 24.037109 C 39.053542 24.577547 37.321382 25.318694 35.701172 26.236328 C 35.830581 26.163029 35.955098 26.08276 36.085938 26.011719 C 33.495698 24.87519 30.05961 23.171871 28.554688 22.191406 L 22.898438 27.847656 C 23.842161 29.296187 25.454317 32.532018 26.589844 35.085938 C 25.505715 36.879354 24.646239 38.822275 24.037109 40.873047 C 21.401181 41.901707 17.759404 43.128735 16 43.5 L 16 51.5 C 17.691668 51.85697 21.121391 53.004756 23.730469 54.007812 C 24.280882 56.23858 25.13204 58.349055 26.236328 60.298828 C 26.163029 60.169419 26.08276 60.044902 26.011719 59.914062 C 24.87519 62.5043 23.171871 65.94039 22.191406 67.445312 L 27.847656 73.101562 C 29.296187 72.157839 32.532018 70.545683 35.085938 69.410156 C 36.879354 70.494285 38.822275 71.353761 40.873047 71.962891 C 41.901707 74.598819 43.128735 78.240596 43.5 80 L 51.5 80 C 51.85697 78.308332 53.004756 74.878609 54.007812 72.269531 C 56.474194 71.660983 58.79699 70.689936 60.914062 69.410156 C 63.467982 70.545683 66.703813 72.157839 68.152344 73.101562 L 73.808594 67.445312 C 72.828131 65.940392 71.125148 62.5043 69.988281 59.914062 C 69.91724 60.044902 69.836971 60.169419 69.763672 60.298828 C 70.86796 58.349055 71.719118 56.23858 72.269531 54.007812 C 74.878609 53.004756 78.308332 51.85697 80 51.5 L 80 43.5 C 78.2406 43.128735 74.598819 41.901707 71.962891 40.873047 C 71.353761 38.822275 70.494285 36.879354 69.410156 35.085938 C 70.545685 32.532018 72.157839 29.296187 73.101562 27.847656 L 67.445312 22.191406 C 65.94039 23.171871 62.504302 24.875188 59.914062 26.011719 C 60.044902 26.08276 60.169419 26.163029 60.298828 26.236328 C 58.349055 25.13204 56.23858 24.280882 54.007812 23.730469 C 53.004756 21.121391 51.85697 17.691668 51.5 16 L 43.5 16 z M 49.417969 23.042969 C 49.567892 23.051441 49.716045 23.065051 49.865234 23.076172 C 49.71605 23.065159 49.56787 23.051351 49.417969 23.042969 z M 46.332031 23.0625 C 46.210591 23.070506 46.08971 23.08011 45.96875 23.089844 C 46.089699 23.079965 46.210593 23.070632 46.332031 23.0625 z M 50.912109 23.173828 C 51.022436 23.186735 51.132304 23.200503 51.242188 23.214844 C 51.132169 23.200586 51.022572 23.186651 50.912109 23.173828 z M 52.392578 23.392578 C 52.481125 23.408351 52.569975 23.422755 52.658203 23.439453 C 52.570078 23.422839 52.481027 23.408265 52.392578 23.392578 z M 34.882812 26.716797 C 34.697997 26.83095 34.515562 26.949568 34.333984 27.068359 C 34.51578 26.949363 34.697757 26.831136 34.882812 26.716797 z M 61.117188 26.716797 C 61.302243 26.831136 61.48422 26.949363 61.666016 27.068359 C 61.484438 26.949568 61.302003 26.83095 61.117188 26.716797 z M 33.632812 27.546875 C 33.457381 27.670335 33.281447 27.792104 33.109375 27.919922 C 33.281278 27.792145 33.457546 27.670295 33.632812 27.546875 z M 62.367188 27.546875 C 62.542454 27.670295 62.718722 27.792145 62.890625 27.919922 C 62.718553 27.792104 62.542619 27.670335 62.367188 27.546875 z M 32.0625 28.740234 C 31.93792 28.84344 31.81784 28.951081 31.695312 29.056641 C 31.817759 28.951062 31.937999 28.843459 32.0625 28.740234 z M 63.9375 28.740234 C 64.062001 28.843459 64.182241 28.951062 64.304688 29.056641 C 64.18216 28.951081 64.06208 28.84344 63.9375 28.740234 z M 30.933594 29.740234 C 30.808541 29.85717 30.683176 29.974296 30.560547 30.09375 C 30.683273 29.974088 30.808436 29.857371 30.933594 29.740234 z M 65.066406 29.740234 C 65.191564 29.857371 65.316727 29.974088 65.439453 30.09375 C 65.316824 29.974296 65.191459 29.85717 65.066406 29.740234 z M 29.773438 30.898438 C 29.689967 30.987359 29.603661 31.073927 29.521484 31.164062 C 29.603709 31.073784 29.689917 30.9875 29.773438 30.898438 z M 66.226562 30.898438 C 66.310083 30.9875 66.396291 31.073784 66.478516 31.164062 C 66.396339 31.073927 66.310033 30.987359 66.226562 30.898438 z M 28.605469 32.228516 C 28.500722 32.357168 28.401047 32.490336 28.298828 32.621094 C 28.401101 32.490161 28.500668 32.357341 28.605469 32.228516 z M 67.394531 32.228516 C 67.499332 32.357341 67.598899 32.490161 67.701172 32.621094 C 67.598953 32.490336 67.499278 32.357168 67.394531 32.228516 z M 27.640625 33.5 C 27.56921 33.600092 27.497703 33.6996 27.427734 33.800781 C 27.497643 33.699632 27.569275 33.600062 27.640625 33.5 z M 68.359375 33.5 C 68.430725 33.600062 68.502357 33.699632 68.572266 33.800781 C 68.502297 33.6996 68.43079 33.600092 68.359375 33.5 z M 48 35 C 55.179675 35 61 40.820329 61 48 C 61 55.179675 55.179675 61 48 61 C 40.820329 61 35 55.179675 35 48 C 35 40.820329 40.820329 35 48 35 z M 23.089844 45.96875 C 23.08011 46.08971 23.070506 46.210591 23.0625 46.332031 C 23.070632 46.210593 23.079965 46.089699 23.089844 45.96875 z M 72.910156 45.96875 C 72.920035 46.089699 72.929368 46.210593 72.9375 46.332031 C 72.929494 46.210591 72.91989 46.08971 72.910156 45.96875 z M 23.042969 49.417969 C 23.051351 49.56787 23.065159 49.71605 23.076172 49.865234 C 23.065051 49.716045 23.051441 49.567892 23.042969 49.417969 z M 72.957031 49.417969 C 72.948559 49.567892 72.934949 49.716045 72.923828 49.865234 C 72.934841 49.71605 72.948649 49.56787 72.957031 49.417969 z M 23.173828 50.912109 C 23.186651 51.022572 23.200586 51.132169 23.214844 51.242188 C 23.200503 51.132304 23.186735 51.022436 23.173828 50.912109 z M 72.826172 50.912109 C 72.813265 51.022436 72.799497 51.132304 72.785156 51.242188 C 72.799414 51.132169 72.813349 51.022572 72.826172 50.912109 z M 23.392578 52.392578 C 23.408265 52.481027 23.422839 52.570078 23.439453 52.658203 C 23.422755 52.569975 23.408351 52.481125 23.392578 52.392578 z M 72.607422 52.392578 C 72.591649 52.481125 72.577245 52.569975 72.560547 52.658203 C 72.577161 52.570078 72.591735 52.481027 72.607422 52.392578 z M 26.716797 61.117188 C 26.83095 61.302003 26.949568 61.484438 27.068359 61.666016 C 26.949363 61.48422 26.831136 61.302243 26.716797 61.117188 z M 69.283203 61.117188 C 69.168864 61.302243 69.050637 61.48422 68.931641 61.666016 C 69.050432 61.484438 69.16905 61.302003 69.283203 61.117188 z M 27.546875 62.367188 C 27.670335 62.542619 27.792104 62.718553 27.919922 62.890625 C 27.792145 62.718722 27.670295 62.542454 27.546875 62.367188 z M 68.453125 62.367188 C 68.329705 62.542454 68.207855 62.718722 68.080078 62.890625 C 68.207896 62.718553 68.329665 62.542619 68.453125 62.367188 z M 28.740234 63.9375 C 28.84344 64.06208 28.951081 64.18216 29.056641 64.304688 C 28.951062 64.182241 28.843459 64.062001 28.740234 63.9375 z M 67.259766 63.9375 C 67.156541 64.062001 67.048938 64.182241 66.943359 64.304688 C 67.048919 64.18216 67.15656 64.06208 67.259766 63.9375 z M 29.740234 65.066406 C 29.85717 65.191459 29.974296 65.316824 30.09375 65.439453 C 29.974088 65.316727 29.857371 65.191564 29.740234 65.066406 z M 66.259766 65.066406 C 66.142629 65.191564 66.025912 65.316727 65.90625 65.439453 C 66.025704 65.316824 66.14283 65.191459 66.259766 65.066406 z M 30.898438 66.226562 C 30.987359 66.310033 31.073927 66.396339 31.164062 66.478516 C 31.073784 66.396291 30.9875 66.310083 30.898438 66.226562 z M 65.101562 66.226562 C 65.0125 66.310083 64.926216 66.396291 64.835938 66.478516 C 64.926073 66.396339 65.012641 66.310033 65.101562 66.226562 z M 32.228516 67.394531 C 32.357168 67.499278 32.490336 67.598953 32.621094 67.701172 C 32.490161 67.598899 32.357341 67.499332 32.228516 67.394531 z M 63.771484 67.394531 C 63.642659 67.499332 63.509839 67.598899 63.378906 67.701172 C 63.509664 67.598953 63.642832 67.499278 63.771484 67.394531 z M 33.5 68.359375 C 33.600092 68.43079 33.6996 68.502297 33.800781 68.572266 C 33.699632 68.502357 33.600062 68.430725 33.5 68.359375 z M 62.5 68.359375 C 62.399938 68.430725 62.300368 68.502357 62.199219 68.572266 C 62.3004 68.502297 62.399908 68.43079 62.5 68.359375 z M 52.658203 72.560547 C 52.569975 72.577245 52.481125 72.591649 52.392578 72.607422 C 52.481027 72.591735 52.570078 72.577161 52.658203 72.560547 z M 51.242188 72.785156 C 51.132304 72.799497 51.022436 72.813265 50.912109 72.826172 C 51.022572 72.813349 51.132169 72.799414 51.242188 72.785156 z M 45.96875 72.910156 C 46.08971 72.91989 46.210591 72.929494 46.332031 72.9375 C 46.210593 72.929368 46.089699 72.920035 45.96875 72.910156 z M 49.865234 72.923828 C 49.716045 72.934949 49.567892 72.948559 49.417969 72.957031 C 49.56787 72.948649 49.71605 72.934841 49.865234 72.923828 z " />
</svg>
