<?xml version="1.0" encoding="UTF-8" standalone="no"?>
<!-- Created with Inkscape (http://www.inkscape.org/) -->

<svg
   width="96"
   height="96"
   viewBox="0 0 96 96"
   version="1.1"
   id="svg5"
   inkscape:version="1.2.2 (1:1.2.2+202305151914+b0a8486541)"
   sodipodi:docname="preferences-plugin.svg"
   xmlns:inkscape="http://www.inkscape.org/namespaces/inkscape"
   xmlns:sodipodi="http://sodipodi.sourceforge.net/DTD/sodipodi-0.dtd"
   xmlns="http://www.w3.org/2000/svg"
   xmlns:svg="http://www.w3.org/2000/svg">
  <sodipodi:namedview
     id="namedview7"
     pagecolor="#ffffff"
     bordercolor="#000000"
     borderopacity="0.25"
     inkscape:showpageshadow="2"
     inkscape:pageopacity="0.0"
     inkscape:pagecheckerboard="0"
     inkscape:deskcolor="#d1d1d1"
     inkscape:document-units="px"
     showgrid="false"
     inkscape:zoom="8.3958333"
     inkscape:cx="47.940447"
     inkscape:cy="48"
     inkscape:window-width="1920"
     inkscape:window-height="1008"
     inkscape:window-x="0"
     inkscape:window-y="0"
     inkscape:window-maximized="1"
     inkscape:current-layer="svg5"
     showguides="false" />
  <defs
     id="defs2">
    <style
       id="current-color-scheme"
       type="text/css">
         .ColorScheme-Text { color:#232629; }
         .ColorScheme-Highlight { color:#3daee9; }
     </style>
  </defs>
  <path
     d="M 39,7 C 11.696429,7 6,12.819451 6,40 v 18 c 0,27.180548 5.696429,33 33,33 H 57 C 84.30357,91 90,85.180548 90,58 V 40 C 90,12.819451 84.30357,7 57,7"
     style="opacity:0.2;fill:#000000;stroke-width:3;stroke-linecap:round;stroke-linejoin:round"
     id="path563" />
  <path
     id="path530"
     style="fill:currentColor;fill-opacity:1;stroke-width:3;stroke-linecap:round;stroke-linejoin:round"
     d="M 39,6 C 11.696456,6 6,11.819478 6,39 v 18 c 0,27.180522 5.696456,33 33,33 H 57 C 84.303546,90 90,84.180522 90,57 V 39 C 90,11.819478 84.303546,6 57,6 Z"
     class="ColorScheme-Highlight" />
  <path
     d="m 46,16 c -4.431996,0 -8,3.568004 -8,8.000002 v 4 H 29.382814 C 25.291618,28.000002 22,31.291738 22,35.382812 V 44 h 4.000002 c 4.431992,0 8,3.56801 8,8 0,4.431994 -3.568008,8 -8,8 H 22 v 8.617188 C 22,72.708384 25.291738,76 29.382814,76 H 38 v -4 c 0,-4.43199 3.568006,-8 8,-8 4.431992,0 8,3.56801 8,8 v 4 h 8.617186 C 66.708382,76 70,72.708264 70,68.617188 V 60 h 4 c 4.43199,0 8,-3.568004 8,-8 0,-4.431996 -3.56801,-8 -8,-8 h -4 v -8.617188 c 0,-4.091196 -3.291732,-7.38281 -7.382814,-7.38281 H 54 v -4 C 54,19.568004 50.431994,16 46,16 Z"
     style="opacity:0.6;fill:currentColor;fill-opacity:1;stroke-width:4"
     id="path298"
     class="ColorScheme-Text" />
</svg>
