<?xml version="1.0" encoding="UTF-8" standalone="no"?>
<!-- Created with Inkscape (http://www.inkscape.org/) -->

<svg
   width="96"
   height="96"
   viewBox="0 0 96 96"
   version="1.1"
   id="svg5"
   inkscape:version="1.2.2 (1:1.2.2+202305151914+b0a8486541)"
   sodipodi:docname="preferences-desktop-gaming.svg"
   xmlns:inkscape="http://www.inkscape.org/namespaces/inkscape"
   xmlns:sodipodi="http://sodipodi.sourceforge.net/DTD/sodipodi-0.dtd"
   xmlns="http://www.w3.org/2000/svg"
   xmlns:svg="http://www.w3.org/2000/svg">
  <sodipodi:namedview
     id="namedview7"
     pagecolor="#ffffff"
     bordercolor="#000000"
     borderopacity="0.25"
     inkscape:showpageshadow="2"
     inkscape:pageopacity="0.0"
     inkscape:pagecheckerboard="0"
     inkscape:deskcolor="#d1d1d1"
     inkscape:document-units="px"
     showgrid="false"
     inkscape:zoom="8.3958333"
     inkscape:cx="47.940447"
     inkscape:cy="48"
     inkscape:window-width="1920"
     inkscape:window-height="1008"
     inkscape:window-x="0"
     inkscape:window-y="0"
     inkscape:window-maximized="1"
     inkscape:current-layer="svg5"
     showguides="false" />
  <defs
     id="defs2">
    <style
       id="current-color-scheme"
       type="text/css">
         .ColorScheme-Text { color:#232629; }
         .ColorScheme-Highlight { color:#3daee9; }
     </style>
  </defs>
  <path
     d="M 39,7 C 11.696429,7 6,12.819451 6,40 v 18 c 0,27.180548 5.696429,33 33,33 H 57 C 84.30357,91 90,85.180548 90,58 V 40 C 90,12.819451 84.30357,7 57,7"
     style="opacity:0.2;fill:#000000;stroke-width:3;stroke-linecap:round;stroke-linejoin:round"
     id="path563" />
  <path
     id="path530"
     style="fill:currentColor;fill-opacity:1;stroke-width:3;stroke-linecap:round;stroke-linejoin:round"
     d="M 39,6 C 11.696456,6 6,11.819478 6,39 v 18 c 0,27.180522 5.696456,33 33,33 H 57 C 84.303546,90 90,84.180522 90,57 V 39 C 90,11.819478 84.303546,6 57,6 Z"
     class="ColorScheme-Highlight" />
  <path
     id="path375"
     style="opacity:0.6;fill:currentColor;stroke-width:5.416"
     d="m 32,25.999998 c -3.741582,0 -6.659634,2.131048 -8.851562,7.859374 C 18.519634,45.947538 16,55.305996 16,60.976558 c 0,4.361322 1.49305,7.113162 4.664062,8.73047 0.371624,0.19006 0.784388,0.293672 1.19922,0.292968 0.66036,0.0014 1.303324,-0.24681 1.796874,-0.699218 L 32,60.999996 c 1.485432,-1.358538 2.724994,-3 6.351562,-3 h 19.296876 c 3.626568,0 4.863146,1.640692 6.351562,3 l 8.339844,8.300782 c 0.823042,0.752166 2.010342,0.909002 2.996094,0.40625 C 78.506202,68.09046 80,65.32924 80,60.96484 80,55.295044 77.47813,45.945226 72.851562,33.859372 70.659642,28.131046 67.74083,25.999998 64,25.999998 c -1.749808,0 -4.462526,0.467592 -5.9375,1.253906 -6.33082,3.363218 -13.649526,3.434842 -20.113282,0 C 36.469018,26.4676 33.749056,25.999998 32,25.999998 Z m 0,7.999998 h 2 c 1.107994,0 2,0.892006 2,2 v 4 h 4 c 1.107994,0 2,0.892006 2,2 v 2 c 0,1.107994 -0.892006,2 -2,2 h -4 v 4 c 0,1.107994 -0.892006,2 -2,2 h -2 c -1.107994,0 -2,-0.892006 -2,-2 v -4 h -4 c -1.107994,0 -2,-0.892006 -2,-2 v -2 c 0,-1.107994 0.892006,-2 2,-2 h 4 v -4 c 0,-1.107994 0.892006,-2 2,-2 z m 31,0 c 1.656854,0 3,1.343146 3,3 0,1.656854 -1.343146,3 -3,3 -1.656854,0 -3,-1.343146 -3,-3 0,-1.656854 1.343146,-3 3,-3 z m -6,6 c 1.656854,0 3,1.343146 3,3 0,1.656854 -1.343146,3 -3,3 -1.656854,0 -3,-1.343146 -3,-3 0,-1.656854 1.343146,-3 3,-3 z m 12,0 c 1.656854,0 3,1.343146 3,3 0,1.656854 -1.343146,3 -3,3 -1.656854,0 -3,-1.343146 -3,-3 0,-1.656854 1.343146,-3 3,-3 z m -6,6 c 1.656854,0 3,1.343146 3,3 0,1.656854 -1.343146,3 -3,3 -1.656854,0 -3,-1.343146 -3,-3 0,-1.656854 1.343146,-3 3,-3 z"
     sodipodi:nodetypes="scsccccsscccscsccsssscsssscsssscsssscssssssssssssssssssssss"
     class="ColorScheme-Text" />
</svg>
