<?xml version="1.0" encoding="UTF-8" standalone="no"?>
<!-- Created with Inkscape (http://www.inkscape.org/) -->

<svg
   width="22"
   height="22"
   viewBox="0 0 22 22"
   version="1.1"
   id="svg5"
   inkscape:version="1.2.1 (9c6d41e410, 2022-07-14)"
   sodipodi:docname="accessories-ebook-reader.svg"
   xmlns:inkscape="http://www.inkscape.org/namespaces/inkscape"
   xmlns:sodipodi="http://sodipodi.sourceforge.net/DTD/sodipodi-0.dtd"
   xmlns:xlink="http://www.w3.org/1999/xlink"
   xmlns="http://www.w3.org/2000/svg"
   xmlns:svg="http://www.w3.org/2000/svg">
  <sodipodi:namedview
     id="namedview7"
     pagecolor="#ffffff"
     bordercolor="#000000"
     borderopacity="0.25"
     inkscape:showpageshadow="2"
     inkscape:pageopacity="0.0"
     inkscape:pagecheckerboard="0"
     inkscape:deskcolor="#d1d1d1"
     inkscape:document-units="px"
     showgrid="false"
     inkscape:zoom="35.363636"
     inkscape:cx="11"
     inkscape:cy="11"
     inkscape:window-width="1920"
     inkscape:window-height="999"
     inkscape:window-x="0"
     inkscape:window-y="0"
     inkscape:window-maximized="1"
     inkscape:current-layer="svg5"
     showguides="false" />
  <defs
     id="defs2">
    <linearGradient
       inkscape:collect="always"
       xlink:href="#linearGradient3788"
       id="linearGradient3500"
       x1="28.666666"
       y1="28.666666"
       x2="2"
       y2="2"
       gradientUnits="userSpaceOnUse"
       gradientTransform="matrix(0.75,0,0,0.75,-0.5,-0.5)" />
    <linearGradient
       inkscape:collect="always"
       id="linearGradient3788">
      <stop
         style="stop-color:#ffcf41;stop-opacity:1;"
         offset="0"
         id="stop3784" />
      <stop
         style="stop-color:#f98d00;stop-opacity:1;"
         offset="1"
         id="stop3786" />
    </linearGradient>
  </defs>
  <path
     id="path530"
     style="fill:url(#linearGradient3500);fill-opacity:1;stroke-width:0.750005;stroke-linecap:round;stroke-linejoin:round"
     d="M 9,1 C 2.174114,1 1,2.2048695 1,9 v 4 c 0,6.79513 1.174114,8 8,8 h 4 c 6.825886,0 8,-1.20487 8,-8 V 9 C 21,2.2048695 19.825886,1 13,1 Z"
     sodipodi:nodetypes="sssssssss" />
  <path
     d="m 7,5.9999767 c -1.89095,0 -2.686622,0.7461692 -3,1.5000001 v 8.1425782 c 0,0.159142 0.08334,0.353144 0.25,0.357421 0.151344,0.0039 0.32115,-0.236461 0.416016,-0.357421 C 4.885882,15.385501 5.795024,14.56584 7,14.499976 c 0.675248,0.0096 1.586834,0.163337 2.333984,0.785157 0.287838,0.259619 0.675874,0.201426 0.6660158,-0.285157 V 7.4999768 C 9.2379,6.3020411 8.186342,5.9999767 7,5.9999767 Z m 7,0 c -1.186342,0 -2.2379,0.3020646 -3,1.5000001 v 7.4999992 c -0.0099,0.486583 0.378178,0.544776 0.666016,0.285157 0.74715,-0.62182 1.658736,-0.775587 2.333984,-0.785157 1.204976,0.06586 2.114118,0.885525 2.333984,1.142579 0.09487,0.12096 0.264672,0.361321 0.416016,0.357421 0.16666,-0.0043 0.25,-0.19828 0.25,-0.357421 V 7.4999768 C 16.686622,6.7461459 15.89095,5.9999767 14,5.9999767 Z"
     style="color:#000000;fill:#ffffff;stroke:none;stroke-width:1.38011;stroke-linecap:round;stroke-linejoin:round"
     id="path1923" />
</svg>
