<?xml version="1.0" encoding="UTF-8" standalone="no"?>
<!-- Created with Inkscape (http://www.inkscape.org/) -->

<svg
   width="22"
   height="22"
   viewBox="0 0 22 22"
   version="1.1"
   id="svg5"
   inkscape:version="1.2.1 (9c6d41e410, 2022-07-14)"
   sodipodi:docname="cawbird.svg"
   xmlns:inkscape="http://www.inkscape.org/namespaces/inkscape"
   xmlns:sodipodi="http://sodipodi.sourceforge.net/DTD/sodipodi-0.dtd"
   xmlns:xlink="http://www.w3.org/1999/xlink"
   xmlns="http://www.w3.org/2000/svg"
   xmlns:svg="http://www.w3.org/2000/svg">
  <sodipodi:namedview
     id="namedview7"
     pagecolor="#ffffff"
     bordercolor="#000000"
     borderopacity="0.25"
     inkscape:showpageshadow="2"
     inkscape:pageopacity="0.0"
     inkscape:pagecheckerboard="0"
     inkscape:deskcolor="#d1d1d1"
     inkscape:document-units="px"
     showgrid="false"
     inkscape:zoom="36.363636"
     inkscape:cx="11.01375"
     inkscape:cy="11"
     inkscape:window-width="1920"
     inkscape:window-height="1011"
     inkscape:window-x="0"
     inkscape:window-y="32"
     inkscape:window-maximized="1"
     inkscape:current-layer="svg5"
     showguides="true" />
  <defs
     id="defs2">
    <linearGradient
       inkscape:collect="always"
       xlink:href="#linearGradient1455"
       id="linearGradient3500"
       x1="2"
       y1="2"
       x2="28.666666"
       y2="28.666666"
       gradientUnits="userSpaceOnUse"
       gradientTransform="matrix(0.75,0,0,0.75,-0.5,-0.5)" />
    <linearGradient
       inkscape:collect="always"
       xlink:href="#linearGradient1461"
       id="linearGradient1463"
       x1="7.999999"
       y1="12"
       x2="8"
       y2="6"
       gradientUnits="userSpaceOnUse"
       gradientTransform="matrix(2.0000007,0,0,2.0000007,-5.000005,-4.000004)" />
    <linearGradient
       inkscape:collect="always"
       id="linearGradient1461">
      <stop
         style="stop-color:#778394;stop-opacity:1;"
         offset="0"
         id="stop1457" />
      <stop
         style="stop-color:#6a7590;stop-opacity:1;"
         offset="1"
         id="stop1459" />
    </linearGradient>
    <linearGradient
       inkscape:collect="always"
       xlink:href="#linearGradient1218"
       id="linearGradient1220"
       x1="7"
       y1="7"
       x2="5"
       y2="5"
       gradientUnits="userSpaceOnUse"
       gradientTransform="translate(2,1.9999999)" />
    <linearGradient
       inkscape:collect="always"
       id="linearGradient1218">
      <stop
         style="stop-color:#2e79c2;stop-opacity:1;"
         offset="0"
         id="stop1214" />
      <stop
         style="stop-color:#679ddb;stop-opacity:1;"
         offset="1"
         id="stop1216" />
    </linearGradient>
    <linearGradient
       inkscape:collect="always"
       xlink:href="#linearGradient1218"
       id="linearGradient1404"
       x1="11"
       y1="7"
       x2="9"
       y2="5"
       gradientUnits="userSpaceOnUse"
       gradientTransform="translate(3.9999999,1.9999999)" />
    <linearGradient
       inkscape:collect="always"
       id="linearGradient1455">
      <stop
         style="stop-color:#28303e;stop-opacity:1;"
         offset="0"
         id="stop1451" />
      <stop
         style="stop-color:#5f6375;stop-opacity:1;"
         offset="1"
         id="stop1453" />
    </linearGradient>
  </defs>
  <path
     id="path530"
     style="fill:url(#linearGradient3500);fill-opacity:1.0;stroke-width:0.750005;stroke-linecap:round;stroke-linejoin:round"
     d="M 9,1 C 2.174114,1 1,2.2048695 1,9 v 4 c 0,6.79513 1.174114,8 8,8 h 4 c 6.825886,0 8,-1.20487 8,-8 V 9 C 21,2.2048695 19.825886,1 13,1 Z"
     sodipodi:nodetypes="sssssssss" />
  <path
     id="path303"
     style="fill:#ffffff;stroke-width:2"
     d="M 8,4 A 4,4 0 0 0 4,7.9999991 4,4 0 0 0 8,11.999999 4,4 0 0 0 11,10.642578 4,4 0 0 0 14,11.999999 4,4 0 0 0 18,7.9999991 4,4 0 0 0 14,4 4,4 0 0 0 11,5.3574215 4,4 0 0 0 8,4 Z" />
  <circle
     style="fill:url(#linearGradient1404);fill-opacity:1;stroke-width:2"
     id="path1212"
     cx="14"
     cy="8"
     r="1" />
  <circle
     style="fill:url(#linearGradient1220);fill-opacity:1;stroke-width:2"
     id="path1210"
     cx="8"
     cy="8"
     r="1" />
  <path
     id="path448"
     style="fill:url(#linearGradient1463);fill-opacity:1;stroke-width:4"
     d="m 13,11 c 0,4.418279 -2.000001,9.000005 -2.000001,9.000005 C 10.999999,20.000005 9,15.418279 9,11 9,8.999999 9.89543,8 10.999999,8 12.10457,8 13,8.999999 13,11 Z"
     sodipodi:nodetypes="scsss" />
</svg>
