<?xml version="1.0" encoding="UTF-8" standalone="no"?>
<!-- Created with Inkscape (http://www.inkscape.org/) -->

<svg
   width="22"
   height="22"
   viewBox="0 0 22 22"
   version="1.1"
   id="svg5"
   inkscape:version="1.2.1 (9c6d41e410, 2022-07-14)"
   sodipodi:docname="discord.svg"
   xmlns:inkscape="http://www.inkscape.org/namespaces/inkscape"
   xmlns:sodipodi="http://sodipodi.sourceforge.net/DTD/sodipodi-0.dtd"
   xmlns="http://www.w3.org/2000/svg"
   xmlns:svg="http://www.w3.org/2000/svg">
  <sodipodi:namedview
     id="namedview7"
     pagecolor="#ffffff"
     bordercolor="#000000"
     borderopacity="0.25"
     inkscape:showpageshadow="2"
     inkscape:pageopacity="0.0"
     inkscape:pagecheckerboard="0"
     inkscape:deskcolor="#d1d1d1"
     inkscape:document-units="px"
     showgrid="false"
     inkscape:zoom="33.333333"
     inkscape:cx="11.985"
     inkscape:cy="12"
     inkscape:window-width="1920"
     inkscape:window-height="1006"
     inkscape:window-x="0"
     inkscape:window-y="0"
     inkscape:window-maximized="1"
     inkscape:current-layer="svg5"
     showguides="true" />
  <defs
     id="defs2" />
  <path
     id="path530"
     style="fill:#5865f2;fill-opacity:1;stroke-width:0.750005;stroke-linecap:round;stroke-linejoin:round"
     d="M 9,1 C 2.174114,1 1,2.2048695 1,9 v 4 c 0,6.79513 1.174114,8 8,8 h 4 c 6.825886,0 8,-1.20487 8,-8 V 9 C 21,2.2048695 19.825886,1 13,1 Z"
     sodipodi:nodetypes="sssssssss" />
  <path
     d="M 9.086534,6.0001258 9.206501,6.1442273 C 7.047135,6.7560397 6.0635174,7.7037632 6.0635174,7.7037632 c 0,0 0.2637348,-0.144047 0.7076104,-0.3359935 C 8.0547436,6.8039293 9.074583,6.6601143 9.494459,6.6121328 c 0.07198,-0.012025 0.131867,-0.02415 0.203846,-0.02415 0.731784,-0.095974 1.55968,-0.119872 2.423426,-0.023865 1.139666,0.131963 2.36326,0.4678645 3.610892,1.139664 0,0 -0.947771,-0.899691 -2.987167,-1.511507 l 0.167994,-0.19213 c 0,0 1.64352,-0.035945 3.359007,1.247677 0,0 1.727543,3.1071782 1.727543,6.9340472 0,-0.01196 -1.007704,1.715494 -3.658916,1.799472 0,0 -0.432069,-0.51585 -0.791958,-0.959713 1.571532,-0.44387 2.171544,-1.415684 2.171544,-1.415684 -0.491855,0.32391 -0.959717,0.551887 -1.379586,0.70785 -0.599827,0.251917 -1.175659,0.407967 -1.739491,0.515935 -1.151658,0.215937 -2.207392,0.155769 -3.107134,-0.01219 C 8.8106641,14.685582 8.2226961,14.505774 7.7308411,14.301833 7.4549172,14.193864 7.1551549,14.061857 6.8552364,13.893908 c -0.035938,-0.02399 -0.072026,-0.03595 -0.10801,-0.05998 -0.023961,-0.01196 -0.036001,-0.02393 -0.04802,-0.02393 -0.2159339,-0.119961 -0.3357613,-0.204085 -0.3357613,-0.204085 0,0 0.5758298,0.94787 2.0993799,1.403729 C 8.102926,15.465508 7.6589161,15.99326 7.6589161,15.99326 5.0077039,15.90928 4,14.181826 4,14.181826 4,10.354957 5.7275363,7.247778 5.7275363,7.247778 7.4550277,5.9641561 9.086544,6.0001011 9.086544,6.0001011 Z M 8.7627238,10.426868 c -0.6837987,0 -1.223785,0.587822 -1.223785,1.319613 0,0.73178 0.5519787,1.319611 1.223785,1.319611 0.6838012,0 1.2235422,-0.587831 1.2235422,-1.319611 0.01196,-0.731791 -0.539741,-1.319613 -1.2235422,-1.319613 z m 4.3787092,0 c -0.683798,0 -1.223787,0.587822 -1.223787,1.319613 0,0.73178 0.551981,1.319611 1.223787,1.319611 0.683792,0 1.223543,-0.587831 1.223543,-1.319611 0,-0.731791 -0.551746,-1.319613 -1.223543,-1.319613 z"
     style="display:inline;fill:#ffffff;stroke-width:0.318182;enable-background:new"
     id="path492"
     sodipodi:nodetypes="cccccccccccccccccccccccccccccssscssssss" />
</svg>
