<?xml version="1.0" encoding="UTF-8" standalone="no"?>
<!-- Created with Inkscape (http://www.inkscape.org/) -->

<svg
   width="22"
   height="22"
   viewBox="0 0 22 22"
   version="1.1"
   id="svg5"
   inkscape:version="1.2.1 (9c6d41e410, 2022-07-14)"
   sodipodi:docname="electron.svg"
   xmlns:inkscape="http://www.inkscape.org/namespaces/inkscape"
   xmlns:sodipodi="http://sodipodi.sourceforge.net/DTD/sodipodi-0.dtd"
   xmlns:xlink="http://www.w3.org/1999/xlink"
   xmlns="http://www.w3.org/2000/svg"
   xmlns:svg="http://www.w3.org/2000/svg">
  <sodipodi:namedview
     id="namedview7"
     pagecolor="#ffffff"
     bordercolor="#000000"
     borderopacity="0.25"
     inkscape:showpageshadow="2"
     inkscape:pageopacity="0.0"
     inkscape:pagecheckerboard="0"
     inkscape:deskcolor="#d1d1d1"
     inkscape:document-units="px"
     showgrid="false"
     inkscape:zoom="37.636364"
     inkscape:cx="11"
     inkscape:cy="11"
     inkscape:window-width="1920"
     inkscape:window-height="1008"
     inkscape:window-x="0"
     inkscape:window-y="0"
     inkscape:window-maximized="1"
     inkscape:current-layer="svg5"
     showguides="true" />
  <defs
     id="defs2">
    <linearGradient
       inkscape:collect="always"
       xlink:href="#linearGradient3800"
       id="linearGradient3500"
       x1="2"
       y1="2"
       x2="28.666666"
       y2="28.666666"
       gradientUnits="userSpaceOnUse"
       gradientTransform="matrix(0.75,0,0,0.75,-0.5,-0.5)" />
    <linearGradient
       inkscape:collect="always"
       id="linearGradient3800">
      <stop
         style="stop-color:#373b4a;stop-opacity:1;"
         offset="0"
         id="stop3796" />
      <stop
         style="stop-color:#525670;stop-opacity:1;"
         offset="1"
         id="stop3798" />
    </linearGradient>
  </defs>
  <path
     id="path530"
     style="fill:url(#linearGradient3500);fill-opacity:1.0;stroke-width:0.750005;stroke-linecap:round;stroke-linejoin:round"
     d="M 9,1 C 2.174114,1 1,2.2048695 1,9 v 4 c 0,6.79513 1.174114,8 8,8 h 4 c 6.825886,0 8,-1.20487 8,-8 V 9 C 21,2.2048695 19.825886,1 13,1 Z"
     sodipodi:nodetypes="sssssssss" />
  <path
     d="M 10.929688,3.0016572 C 10.419539,3.0256082 9.95663,3.3074759 9.701172,3.7497039 9.287066,4.467041 9.532763,5.3842519 10.25,5.7985319 c 0.470884,0.263542 1.047038,0.253847 1.508789,-0.02539 0.201393,0.232674 0.391128,0.498029 0.566407,0.791993 -1.261179,0.424127 -2.56075,1.065207 -3.69922,1.86035 C 7.741946,9.0429212 7.00384,9.7686402 6.429687,10.541696 6.042185,10.038608 5.758303,9.5381742 5.610352,9.0768532 5.42679,8.5044989 5.436668,8.0132359 5.664062,7.5573219 c 0.249375,-0.499984 0.53967,-0.747115 0.845703,-0.887695 0.306034,-0.14058 0.647681,-0.169235 0.984375,-0.133789 0.673389,0.07089 1.255859,0.39746 1.255859,0.39746 0.239433,0.138335 0.545685,0.05608 0.683594,-0.183594 0.138334,-0.239432 0.05608,-0.545685 -0.183595,-0.683594 0,0 -0.72519,-0.427886 -1.651366,-0.52539 -0.463088,-0.04875 -0.993897,-0.01492 -1.506835,0.220704 -0.512938,0.235623 -0.988258,0.677985 -1.323243,1.349609 -0.356963,0.715694 -0.353416,1.51566 -0.111327,2.2705073 0.226498,0.7062348 0.65217,1.3910068 1.200195,2.0449218 -0.301414,0.536312 -0.525573,1.082772 -0.668946,1.62207 C 4.501429,13.194357 4.007557,13.79739 4,14.499703 c 0,0.828427 0.671572,1.499999 1.5,1.499999 0.828426,0 1.5,-0.671572 1.5,-1.499999 -6.51e-4,-0.554459 -0.307104,-1.06334 -0.796875,-1.323242 0.09594,-0.313952 0.224758,-0.636873 0.387695,-0.961913 1.151815,1.123599 2.633125,2.118047 4.124023,2.815428 0.798105,0.373322 1.59975,0.513212 2.374023,0.501953 -0.19908,0.658812 -0.465999,1.186808 -0.764648,1.518554 -0.308527,0.34272 -0.612784,0.491136 -1.029297,0.47461 C 10.33975,17.487193 9.808899,16.986956 9.455077,16.452827 9.101255,15.918699 8.989257,15.397164 8.989257,15.397164 8.932537,15.127012 8.667651,14.953915 8.39746,15.010445 c -0.270152,0.05672 -0.443249,0.321606 -0.386719,0.591797 0,0 0.142744,0.696442 0.610352,1.402343 0.467609,0.7059 1.324992,1.467563 2.634766,1.519531 0.715958,0.02841 1.354308,-0.295717 1.8125,-0.804687 0.458192,-0.508972 0.772943,-1.189068 1.000976,-1.97168 0.03077,-0.105593 0.05935,-0.213876 0.08692,-0.323242 0.855619,-0.157228 1.652676,-0.467001 2.34668,-0.805664 0.482752,0.430201 1.186857,0.502619 1.747069,0.179688 0.717237,-0.414281 0.962934,-1.331491 0.548829,-2.048828 -0.274097,-0.475088 -0.785644,-0.762693 -1.333984,-0.749999 -0.251376,0.0061 -0.497191,0.07526 -0.714844,0.201171 -0.533472,0.3135 -0.819696,0.922404 -0.720703,1.533203 -0.512067,0.24629 -1.072923,0.467195 -1.660156,0.613281 0.190716,-1.274244 0.210087,-2.700245 0.08984,-4.093749 -0.09574,-1.1095518 -0.335102,-2.1460111 -0.696288,-3.0576171 0.09915,-0.02252 0.19724,-0.04284 0.293944,-0.06153 0.761201,-0.147018 1.441121,-0.170561 1.929687,-0.0752 0.488567,0.09536 0.746897,0.274951 0.871094,0.534179 0.313391,0.654126 0.0731,1.3586803 -0.311523,1.9726563 -0.384624,0.6139778 -0.868164,1.0429688 -0.868164,1.0429688 -0.207781,0.182231 -0.228337,0.498456 -0.0459,0.706054 0.182231,0.207781 0.498457,0.228338 0.706055,0.0459 0,0 0.582056,-0.507648 1.055663,-1.263671 0.473608,-0.7560218 0.883148,-1.8545361 0.365235,-2.9355471 -0.291456,-0.608339 -0.902082,-0.951451 -1.581054,-1.083984 -0.678975,-0.132532 -1.464368,-0.08921 -2.310547,0.07422 -0.176837,0.03415 -0.356574,0.0754 -0.538086,0.120117 -0.264728,-0.481754 -0.569681,-0.912617 -0.91309,-1.280265 C 12.652179,4.3124181 12.372737,3.5609505 11.749997,3.200875 11.501268,3.0573102 11.216554,2.9881655 10.929684,3.0016563 Z m 1.848633,4.4687487 c 0.347763,0.829857 0.592559,1.8028083 0.684569,2.8691411 0.124609,1.444098 0.08197,2.933257 -0.136718,4.174803 C 12.60276,14.56214 11.861171,14.46266 11.138673,14.124702 9.674532,13.439838 8.191773,12.420091 7.119141,11.32978 7.639765,10.575668 8.334368,9.8481792 9.198242,9.2448202 10.28916,8.4828869 11.571506,7.8633259 12.778321,7.4704059 Z M 11,9.4997032 c -0.823385,0 -1.5,0.6766158 -1.5,1.4999988 0,0.823385 0.676615,1.5 1.5,1.5 0.823385,0 1.5,-0.676615 1.5,-1.5 0,-0.823383 -0.676615,-1.4999988 -1.5,-1.4999988 z"
     style="color:#000000;fill:#cff7ff;stroke-width:0.5;stroke-linecap:round"
     id="path1657" />
  <path
     d="m 11,3.9997037 c -0.276143,0 -0.5,0.2238579 -0.5,0.5000003 0,0.2761424 0.223857,0.4999999 0.5,0.4999999 0.276143,0 0.5,-0.2238575 0.5,-0.4999999 0,-0.2761424 -0.223857,-0.5000003 -0.5,-0.5000003 z m 6.499999,8.9999983 c -0.276142,0 -0.5,0.223858 -0.5,0.500001 0,0.276142 0.223858,0.499999 0.5,0.499999 0.276143,0 0.5,-0.223857 0.5,-0.499999 0,-0.276143 -0.223857,-0.500001 -0.5,-0.500001 z m -11.999998,1 c -0.276143,0 -0.5,0.223857 -0.5,0.5 0,0.276142 0.223857,0.499999 0.5,0.499999 C 5.776143,14.999701 6,14.775844 6,14.499702 c 0,-0.276143 -0.223857,-0.5 -0.499999,-0.5 z"
     style="fill:#494c60;stroke-width:0.5"
     id="path1740" />
</svg>
