<?xml version="1.0" encoding="UTF-8" standalone="no"?>
<!-- Created with Inkscape (http://www.inkscape.org/) -->

<svg
   width="22"
   height="22"
   viewBox="0 0 22 22"
   version="1.1"
   id="svg5"
   inkscape:version="1.2.1 (9c6d41e410, 2022-07-14)"
   sodipodi:docname="gnome-boxes.svg"
   xmlns:inkscape="http://www.inkscape.org/namespaces/inkscape"
   xmlns:sodipodi="http://sodipodi.sourceforge.net/DTD/sodipodi-0.dtd"
   xmlns:xlink="http://www.w3.org/1999/xlink"
   xmlns="http://www.w3.org/2000/svg"
   xmlns:svg="http://www.w3.org/2000/svg">
  <sodipodi:namedview
     id="namedview7"
     pagecolor="#ffffff"
     bordercolor="#000000"
     borderopacity="0.25"
     inkscape:showpageshadow="2"
     inkscape:pageopacity="0.0"
     inkscape:pagecheckerboard="0"
     inkscape:deskcolor="#d1d1d1"
     inkscape:document-units="px"
     showgrid="false"
     inkscape:zoom="16.541667"
     inkscape:cx="-1.0277078"
     inkscape:cy="9.6725439"
     inkscape:window-width="1920"
     inkscape:window-height="1014"
     inkscape:window-x="0"
     inkscape:window-y="32"
     inkscape:window-maximized="1"
     inkscape:current-layer="svg5"
     showguides="true" />
  <defs
     id="defs2">
    <linearGradient
       inkscape:collect="always"
       xlink:href="#linearGradient1768"
       id="linearGradient3500"
       x1="2"
       y1="2"
       x2="28.666666"
       y2="28.666666"
       gradientUnits="userSpaceOnUse"
       gradientTransform="matrix(0.75,0,0,0.75,-0.5,-0.5)" />
    <linearGradient
       inkscape:collect="always"
       id="linearGradient1768">
      <stop
         style="stop-color:#333333;stop-opacity:1;"
         offset="0"
         id="stop1764" />
      <stop
         style="stop-color:#6a6a6a;stop-opacity:1;"
         offset="1"
         id="stop1766" />
    </linearGradient>
  </defs>
  <path
     id="path530"
     style="fill:url(#linearGradient3500);fill-opacity:1.0;stroke-width:0.750005;stroke-linecap:round;stroke-linejoin:round"
     d="M 9,1 C 2.174114,1 1,2.2048695 1,9 v 4 c 0,6.79513 1.174114,8 8,8 h 4 c 6.825886,0 8,-1.20487 8,-8 V 9 C 21,2.2048695 19.825886,1 13,1 Z"
     sodipodi:nodetypes="sssssssss" />
  <path
     d="m 5.5000002,4.0000001 c -0.82843,0 -1.5,0.67157 -1.5,1.5 0.002,0.63418 0.40208,1.19876 1,1.41016 V 15.08984 c -0.59792,0.2114 -0.99829,0.77598 -1,1.41016 0,0.82843 0.67157,1.5 1.5,1.5 0.63419,-0.002 1.19876,-0.40208 1.41016,-1 H 15.08984 c 0.2114,0.59792 0.77597,0.99829 1.41016,1 0.82843,0 1.5,-0.67157 1.5,-1.5 -6e-5,-0.63562 -0.40073,-1.20219 -1,-1.41406 V 6.9101601 c 0.59792,-0.21139 0.99829,-0.77597 1,-1.41016 0,-0.82843 -0.67157,-1.5 -1.5,-1.5 -0.63418,0.002 -1.19876,0.40208 -1.41016,1 H 6.9140602 c -0.21187,-0.59927 -0.77844,-0.99994 -1.41406,-1 z m 1.41016,2 H 15.08984 c 0.0446,0.12538 0.10569,0.24426 0.18165,0.35352 l -1.73438,1.73437 c -0.1585,-0.0948 -0.34202,-0.15039 -0.53711,-0.15039 -0.49373,0 -0.91873,0.35018 -1.0332,0.8125 h -1.9336 c -0.1144698,-0.46232 -0.5394698,-0.8125 -1.0331998,-0.8125 -0.19509,0 -0.37861,0.0556 -0.53711,0.15039 l -1.7343801,-1.73437 c 0.076,-0.10926 0.1370501,-0.22814 0.1816501,-0.35352 z m -0.55665,0.72852 1.73438,1.73437 c -0.0948,0.15851 -0.15039,0.34202 -0.15039,0.53711 0,0.4937297 0.35018,0.9187297 0.8125,1.0331999 v 1.9336 c -0.46232,0.11447 -0.8125,0.53948 -0.8125,1.0332 0,0.19509 0.0556,0.3786 0.15039,0.53711 l -1.73242,1.73242 c -0.10976,-0.0768 -0.22931,-0.13854 -0.35547,-0.18359 V 6.9101601 c 0.12537,-0.0446 0.24426,-0.10568 0.35351,-0.18164 z m 9.2929798,0 c 0.10926,0.076 0.22814,0.13704 0.35351,0.18164 V 15.08984 c -0.12537,0.0446 -0.24425,0.10569 -0.35351,0.18165 L 13.91211,13.53711 C 14.00691,13.3786 14.0625,13.19509 14.0625,13 c 0,-0.49372 -0.35018,-0.91873 -0.8125,-1.0332 v -1.9336 c 0.46232,-0.1144702 0.8125,-0.5394702 0.8125,-1.0331998 0,-0.19509 -0.0556,-0.3786 -0.15039,-0.53711 z M 10.0332,9.2499998 h 1.9336 c 0.0946,0.38218 0.40102,0.68857 0.7832,0.7832002 v 1.9336 c -0.38218,0.0946 -0.68857,0.40102 -0.7832,0.7832 h -1.9336 c -0.0946,-0.38218 -0.4010198,-0.68857 -0.7831998,-0.7832 v -1.9336 c 0.38218,-0.0946 0.68857,-0.4010202 0.7831998,-0.7832002 z m 0,4.0000002 h 1.9336 c 0.11447,0.46232 0.53947,0.8125 1.0332,0.8125 0.19509,0 0.37861,-0.0556 0.53711,-0.15039 l 1.73438,1.73438 C 15.19549,15.75575 15.13444,15.87463 15.08984,16 H 6.9140602 c -0.0451,-0.12616 -0.10679,-0.24571 -0.18359,-0.35547 l 1.73242,-1.73242 c 0.1585,0.0948 0.34202,0.15039 0.53711,0.15039 0.49373,0 0.91873,-0.35018 1.0331998,-0.8125 z"
     style="color:#000000;display:inline;overflow:visible;visibility:visible;fill:#ffffff;fill-opacity:1;fill-rule:nonzero;stroke:none;stroke-width:0.5;marker:none;enable-background:new"
     id="path906"
     sodipodi:nodetypes="cccccccccccccccccccccsccscccccsccsccccccccccsccscccccccccccccsccccccsc" />
</svg>
