<?xml version="1.0" encoding="UTF-8" standalone="no"?>
<!-- Created with Inkscape (http://www.inkscape.org/) -->

<svg
   width="22"
   height="22"
   viewBox="0 0 22 22"
   version="1.1"
   id="svg5"
   inkscape:version="1.2.1 (9c6d41e410, 2022-07-14)"
   sodipodi:docname="goa-account-exchange.svg"
   xmlns:inkscape="http://www.inkscape.org/namespaces/inkscape"
   xmlns:sodipodi="http://sodipodi.sourceforge.net/DTD/sodipodi-0.dtd"
   xmlns="http://www.w3.org/2000/svg"
   xmlns:svg="http://www.w3.org/2000/svg">
  <sodipodi:namedview
     id="namedview7"
     pagecolor="#ffffff"
     bordercolor="#000000"
     borderopacity="0.25"
     inkscape:showpageshadow="2"
     inkscape:pageopacity="0.0"
     inkscape:pagecheckerboard="0"
     inkscape:deskcolor="#d1d1d1"
     inkscape:document-units="px"
     showgrid="false"
     inkscape:zoom="36.727273"
     inkscape:cx="11"
     inkscape:cy="11"
     inkscape:window-width="1920"
     inkscape:window-height="1011"
     inkscape:window-x="0"
     inkscape:window-y="32"
     inkscape:window-maximized="1"
     inkscape:current-layer="svg5"
     showguides="false" />
  <defs
     id="defs2" />
  <path
     id="path530"
     style="fill:#fafafa;fill-opacity:1;stroke-width:0.750005;stroke-linecap:round;stroke-linejoin:round"
     d="M 9,1 C 2.174114,1 1,2.2048695 1,9 v 4 c 0,6.79513 1.174114,8 8,8 h 4 c 6.825886,0 8,-1.20487 8,-8 V 9 C 21,2.2048695 19.825886,1 13,1 Z"
     sodipodi:nodetypes="sssssssss" />
  <path
     d="m 17,4.0000001 c 0.553999,0 1,0.4460012 1,1.0000001 v 3.4995233 c 0,0.495486 -0.253414,0.7336665 -0.376953,0.876953 L 9.339922,17.660156 C 9.146394,17.824854 8.888896,18 8.500078,18 H 5.0000001 c -0.553999,0 -1,-0.446002 -1,-1 v -3.499523 c 0,-0.495487 0.253414,-0.733666 0.376953,-0.876954 L 12.660078,4.3398439 c 0.193528,-0.1646971 0.451026,-0.3398438 0.839844,-0.3398438 z"
     style="fill:#20a8ea;fill-opacity:1;stroke-width:4;stroke-linecap:round;stroke-linejoin:round"
     id="path7004"
     sodipodi:nodetypes="sssccssssccss" />
  <path
     id="path6956"
     style="fill:#50d9ff;fill-opacity:1;stroke-width:4;stroke-linecap:round;stroke-linejoin:round"
     d="m 5.0000001,4.0000002 c -0.553999,0 -1,0.4460006 -1,1 v 3.4995233 c 0,0.4954855 0.253414,0.7336665 0.376953,0.876953 L 6,11 h 4 c 0.553999,0 1,-0.446 1,-1 V 6 L 9.339922,4.3398439 C 9.146394,4.175147 8.888895,4.0000002 8.500078,4.0000002 Z"
     sodipodi:nodetypes="sssccssccss" />
  <path
     d="m 16.999922,18 c 0.553999,0 0.999912,-0.446 1,-1 l 5.55e-4,-3.499523 c 7.9e-5,-0.495486 -0.253414,-0.733668 -0.376954,-0.876954 L 16,11 h -4 c -0.553999,0 -1,0.446001 -1,1 v 4 l 1.660078,1.660156 C 12.853606,17.824853 13.111105,18 13.499922,18 Z"
     style="fill:#0078d4;fill-opacity:1;stroke-width:4;stroke-linecap:round;stroke-linejoin:round"
     id="path7060"
     sodipodi:nodetypes="sssccssccss" />
</svg>
