<?xml version="1.0" encoding="UTF-8" standalone="no"?>
<!-- Created with Inkscape (http://www.inkscape.org/) -->

<svg
   width="22"
   height="22"
   viewBox="0 0 22 22"
   version="1.1"
   id="svg5"
   inkscape:version="1.2.1 (9c6d41e410, 2022-07-14)"
   sodipodi:docname="inkscape.svg"
   xmlns:inkscape="http://www.inkscape.org/namespaces/inkscape"
   xmlns:sodipodi="http://sodipodi.sourceforge.net/DTD/sodipodi-0.dtd"
   xmlns:xlink="http://www.w3.org/1999/xlink"
   xmlns="http://www.w3.org/2000/svg"
   xmlns:svg="http://www.w3.org/2000/svg">
  <sodipodi:namedview
     id="namedview7"
     pagecolor="#ffffff"
     bordercolor="#000000"
     borderopacity="0.25"
     inkscape:showpageshadow="2"
     inkscape:pageopacity="0.0"
     inkscape:pagecheckerboard="0"
     inkscape:deskcolor="#d1d1d1"
     inkscape:document-units="px"
     showgrid="false"
     inkscape:zoom="37.181818"
     inkscape:cx="11"
     inkscape:cy="11"
     inkscape:window-width="1920"
     inkscape:window-height="1004"
     inkscape:window-x="0"
     inkscape:window-y="0"
     inkscape:window-maximized="1"
     inkscape:current-layer="svg5"
     showguides="true" />
  <defs
     id="defs2">
    <linearGradient
       inkscape:collect="always"
       xlink:href="#linearGradient1768"
       id="linearGradient3500"
       x1="2"
       y1="2"
       x2="28.666666"
       y2="28.666666"
       gradientUnits="userSpaceOnUse"
       gradientTransform="matrix(0.75,0,0,0.75,-0.5,-0.5)" />
    <linearGradient
       inkscape:collect="always"
       id="linearGradient1768">
      <stop
         style="stop-color:#333333;stop-opacity:1;"
         offset="0"
         id="stop1764" />
      <stop
         style="stop-color:#6a6a6a;stop-opacity:1;"
         offset="1"
         id="stop1766" />
    </linearGradient>
  </defs>
  <path
     id="path530"
     style="fill:url(#linearGradient3500);fill-opacity:1.0;stroke-width:0.750005;stroke-linecap:round;stroke-linejoin:round"
     d="M 9,1 C 2.174114,1 1,2.2048695 1,9 v 4 c 0,6.79513 1.174114,8 8,8 h 4 c 6.825886,0 8,-1.20487 8,-8 V 9 C 21,2.2048695 19.825886,1 13,1 Z"
     sodipodi:nodetypes="sssssssss" />
  <path
     d="M 11,4 C 10.60427,4 10.208283,4.1497818 9.9092877,4.4663627 L 4.4663629,10.076389 c -0.2989924,0.307786 -0.4575686,0.712774 -0.4663627,1.117295 v 0.02582 c 0,1.204775 3.2097991,0.03529 3.4999999,1.503908 0.15829,0.80025 -1.7499997,0.430975 -1.7499997,1.231228 0,0.940954 2.6995467,0.299061 3.4734148,1.064127 0.3165805,0.773868 -1.0376801,0.650639 -0.7914491,1.371745 0.448494,0.466077 1.4684247,0.202257 1.6618919,0.958549 0.228644,0.861813 1.688435,0.712172 2.54145,0.079 0.457286,-0.466078 -0.694586,-0.6766 -0.246094,-1.151474 0.457287,-0.46608 2.690961,-0.369873 2.70855,-1.389974 C 14.886708,14.244645 14.042431,14.13898 14.033636,13.3827 13.989676,12.740741 14.719842,12.925913 17.041448,12.292748 17.964815,11.853051 18,11.624028 18,11.219505 v -0.02582 C 17.9912,10.789172 17.806806,10.384176 17.50781,10.076387 L 12.090712,4.4663627 C 11.782923,4.1497803 11.395728,4 11,4 Z m 0.105574,1.1780598 c 0.413316,0 1.538939,1.3901491 2.541451,2.4366319 0.290197,0.3781403 -0.105574,0.7648652 -0.105574,0.7648652 L 11.439778,7.2273218 10.507813,8.4851349 9.6897787,7.2539065 9.1975912,9.171007 7.7460941,8.3005639 8.1334641,7.8076171 10.402235,5.4773222 c 0.167084,-0.1758788 0.307612,-0.2992624 0.703343,-0.2992624 z"
     style="fill:#ffffff;fill-opacity:1;stroke-width:0.879395"
     id="path11658"
     sodipodi:nodetypes="scccscsccccccccscccsscccccccccs" />
</svg>
