<?xml version="1.0" encoding="UTF-8" standalone="no"?>
<!-- Created with Inkscape (http://www.inkscape.org/) -->

<svg
   width="22"
   height="22"
   viewBox="0 0 22 22"
   version="1.1"
   id="svg5"
   inkscape:version="1.2.1 (9c6d41e410, 2022-07-14)"
   sodipodi:docname="internet-mail.svg"
   xmlns:inkscape="http://www.inkscape.org/namespaces/inkscape"
   xmlns:sodipodi="http://sodipodi.sourceforge.net/DTD/sodipodi-0.dtd"
   xmlns:xlink="http://www.w3.org/1999/xlink"
   xmlns="http://www.w3.org/2000/svg"
   xmlns:svg="http://www.w3.org/2000/svg">
  <sodipodi:namedview
     id="namedview7"
     pagecolor="#ffffff"
     bordercolor="#000000"
     borderopacity="0.25"
     inkscape:showpageshadow="2"
     inkscape:pageopacity="0.0"
     inkscape:pagecheckerboard="0"
     inkscape:deskcolor="#d1d1d1"
     inkscape:document-units="px"
     showgrid="false"
     inkscape:zoom="8.2708333"
     inkscape:cx="33.128464"
     inkscape:cy="42.196474"
     inkscape:window-width="1920"
     inkscape:window-height="1004"
     inkscape:window-x="0"
     inkscape:window-y="0"
     inkscape:window-maximized="1"
     inkscape:current-layer="svg5"
     showguides="false" />
  <defs
     id="defs2">
    <linearGradient
       inkscape:collect="always"
       xlink:href="#linearGradient3788"
       id="linearGradient3500"
       x1="28.666666"
       y1="28.666666"
       x2="2"
       y2="2"
       gradientUnits="userSpaceOnUse"
       gradientTransform="matrix(0.75,0,0,0.75,-0.5,-0.5)" />
    <linearGradient
       inkscape:collect="always"
       id="linearGradient3788">
      <stop
         style="stop-color:#ffcf41;stop-opacity:1;"
         offset="0"
         id="stop3784" />
      <stop
         style="stop-color:#f98d00;stop-opacity:1;"
         offset="1"
         id="stop3786" />
    </linearGradient>
  </defs>
  <path
     id="path530"
     style="fill:url(#linearGradient3500);fill-opacity:1;stroke-width:0.750005;stroke-linecap:round;stroke-linejoin:round"
     d="M 9,1 C 2.174114,1 1,2.2048695 1,9 v 4 c 0,6.79513 1.174114,8 8,8 h 4 c 6.825886,0 8,-1.20487 8,-8 V 9 C 21,2.2048695 19.825886,1 13,1 Z"
     sodipodi:nodetypes="sssssssss" />
  <rect
     style="opacity:0.4;fill:#ffffff;stroke-width:0.25;stroke-linecap:round;stroke-linejoin:round"
     id="rect3371"
     width="14"
     height="10"
     x="3.9999995"
     y="6"
     ry="1" />
  <path
     id="path3474"
     style="opacity:0.5;fill:#ffffff;stroke-width:0.25;stroke-linecap:round;stroke-linejoin:round"
     d="m 11,9.092 c -0.255581,0 -0.511163,0.098077 -0.707032,0.293945 L 4.22705,15.634968 C 4.410162,15.857828 4.68774,15.999714 5,15.999714 h 12 c 0.312259,0 0.589837,-0.141886 0.772949,-0.364746 L 11.707031,9.385945 C 11.511163,9.1900765 11.255581,9.092 11,9.092 Z"
     sodipodi:nodetypes="sccssccs" />
  <path
     id="rect3425"
     style="fill:#ffffff;stroke-width:0.25;stroke-linecap:round;stroke-linejoin:round"
     d="m 5,6.0000002 c -0.442599,0 -0.815374,0.2851495 -0.947754,0.682129 L 10.292968,12.114 c 0.391737,0.391737 1.022326,0.391737 1.414063,0 L 17.947754,6.6821292 C 17.815373,6.2851497 17.442598,6.0000002 17,6.0000002 Z"
     sodipodi:nodetypes="sccccss" />
</svg>
