<?xml version="1.0" encoding="UTF-8" standalone="no"?>
<!-- Created with Inkscape (http://www.inkscape.org/) -->

<svg
   width="22"
   height="22"
   viewBox="0 0 22 22"
   version="1.1"
   id="svg5"
   inkscape:version="1.2.1 (9c6d41e410, 2022-07-14)"
   sodipodi:docname="io.elementary.code.svg"
   xmlns:inkscape="http://www.inkscape.org/namespaces/inkscape"
   xmlns:sodipodi="http://sodipodi.sourceforge.net/DTD/sodipodi-0.dtd"
   xmlns:xlink="http://www.w3.org/1999/xlink"
   xmlns="http://www.w3.org/2000/svg"
   xmlns:svg="http://www.w3.org/2000/svg">
  <sodipodi:namedview
     id="namedview7"
     pagecolor="#ffffff"
     bordercolor="#000000"
     borderopacity="0.25"
     inkscape:showpageshadow="2"
     inkscape:pageopacity="0.0"
     inkscape:pagecheckerboard="0"
     inkscape:deskcolor="#d1d1d1"
     inkscape:document-units="px"
     showgrid="false"
     inkscape:zoom="37.545455"
     inkscape:cx="10.986683"
     inkscape:cy="11"
     inkscape:window-width="1920"
     inkscape:window-height="1006"
     inkscape:window-x="0"
     inkscape:window-y="0"
     inkscape:window-maximized="1"
     inkscape:current-layer="svg5"
     showguides="false" />
  <defs
     id="defs2">
    <linearGradient
       inkscape:collect="always"
       xlink:href="#linearGradient1606"
       id="linearGradient3500"
       x1="2"
       y1="2"
       x2="31.333334"
       y2="31.333334"
       gradientUnits="userSpaceOnUse"
       gradientTransform="matrix(0.75,0,0,0.75,-0.5,-0.5)" />
    <linearGradient
       inkscape:collect="always"
       id="linearGradient1606">
      <stop
         style="stop-color:#eaebed;stop-opacity:1;"
         offset="0"
         id="stop1602" />
      <stop
         style="stop-color:#f9fafa;stop-opacity:1;"
         offset="1"
         id="stop1604" />
    </linearGradient>
  </defs>
  <path
     id="path530"
     style="fill:url(#linearGradient3500);fill-opacity:1.0;stroke-width:0.750005;stroke-linecap:round;stroke-linejoin:round"
     d="M 9,1 C 2.174114,1 1,2.2048695 1,9 v 4 c 0,6.79513 1.174114,8 8,8 h 4 c 6.825886,0 8,-1.20487 8,-8 V 9 C 21,2.2048695 19.825886,1 13,1 Z"
     sodipodi:nodetypes="sssssssss" />
  <path
     d="M 10,8 C 9.2773155,8.000007 8.8942535,8.107062 8.53125,8.328125 8.1715725,8.546213 8,8.893343 8,9.359375 V 10.2505 C 8,10.528334 7.87605,10.722458 7.65625,10.859875 7.4397775,10.994313 7.449594,11.078628 7,11.078625 v 0.84375 c 0.885866,2e-6 1,0.288092 1,0.84375 v 0.765625 c 0,0.510849 0.163635,0.897955 0.5,1.125 0.3396915,0.23003 0.7306915,0.337774 1.5,0.34375 V 14.188 C 9.617009,14.182025 9.4198435,14.110346 9.25,13.984875 9.08015,13.859404 9,13.682969 9,13.438 V 12.59425 C 9,11.99378 8.700143,11.639299 7.9375,11.53175 v -0.0625 C 8.700143,11.352744 9,10.985626 9,10.391125 V 9.5625 C 9,9.3175365 9.08015,9.15374 9.25,9.03125 9.423174,8.905784 9.6203395,8.8274425 10,8.8125 Z m 2,0 v 0.8125 c 0.379661,0.014945 0.576826,0.093284 0.75,0.21875 C 12.91985,9.15374 13,9.3175365 13,9.5625 v 0.828625 c 0,0.594501 0.299857,0.961619 1.0625,1.078125 v 0.0625 C 13.299857,11.639299 13,11.99378 13,12.59425 V 13.438 c 0,0.244969 -0.08015,0.421404 -0.25,0.546875 -0.169844,0.125471 -0.367009,0.19715 -0.75,0.203125 v 0.8125 c 0.769308,-0.006 1.160308,-0.11372 1.5,-0.34375 0.336365,-0.227045 0.5,-0.614151 0.5,-1.125 v -0.765625 c 0,-0.555658 0.114134,-0.843748 1,-0.84375 v -0.84375 c -0.449594,3e-6 -0.439777,-0.08431 -0.65625,-0.21875 C 14.12395,10.722458 14,10.528334 14,10.2505 V 9.359375 C 14,8.893343 13.828428,8.546213 13.46875,8.328125 13.105747,8.107062 12.722685,8.000007 12,8 Z"
     style="fill:#446f7d;stroke-width:0.5"
     id="path304"
     sodipodi:nodetypes="ccsscccssccccssccssccccccssccssccccsscccsscc" />
</svg>
