<?xml version="1.0" encoding="UTF-8" standalone="no"?>
<!-- Created with Inkscape (http://www.inkscape.org/) -->

<svg
   width="22"
   height="22"
   viewBox="0 0 22 22"
   version="1.1"
   id="svg5"
   inkscape:version="1.2.1 (9c6d41e410, 2022-07-14)"
   sodipodi:docname="java.svg"
   xmlns:inkscape="http://www.inkscape.org/namespaces/inkscape"
   xmlns:sodipodi="http://sodipodi.sourceforge.net/DTD/sodipodi-0.dtd"
   xmlns:xlink="http://www.w3.org/1999/xlink"
   xmlns="http://www.w3.org/2000/svg"
   xmlns:svg="http://www.w3.org/2000/svg">
  <sodipodi:namedview
     id="namedview7"
     pagecolor="#ffffff"
     bordercolor="#000000"
     borderopacity="0.25"
     inkscape:showpageshadow="2"
     inkscape:pageopacity="0.0"
     inkscape:pagecheckerboard="0"
     inkscape:deskcolor="#d1d1d1"
     inkscape:document-units="px"
     showgrid="false"
     inkscape:zoom="36.5"
     inkscape:cx="11.027397"
     inkscape:cy="11.013699"
     inkscape:window-width="1920"
     inkscape:window-height="1011"
     inkscape:window-x="0"
     inkscape:window-y="32"
     inkscape:window-maximized="1"
     inkscape:current-layer="svg5"
     showguides="false" />
  <defs
     id="defs2">
    <linearGradient
       inkscape:collect="always"
       xlink:href="#linearGradient1606"
       id="linearGradient3500"
       x1="2"
       y1="2"
       x2="31.333334"
       y2="31.333334"
       gradientUnits="userSpaceOnUse"
       gradientTransform="matrix(0.75,0,0,0.75,-0.5,-0.5)" />
    <linearGradient
       inkscape:collect="always"
       id="linearGradient1606">
      <stop
         style="stop-color:#eaebed;stop-opacity:1;"
         offset="0"
         id="stop1602" />
      <stop
         style="stop-color:#f9fafa;stop-opacity:1;"
         offset="1"
         id="stop1604" />
    </linearGradient>
  </defs>
  <path
     id="path530"
     style="fill:url(#linearGradient3500);fill-opacity:1.0;stroke-width:0.750005;stroke-linecap:round;stroke-linejoin:round"
     d="M 9,1 C 2.174114,1 1,2.2048695 1,9 v 4 c 0,6.79513 1.174114,8 8,8 h 4 c 6.825886,0 8,-1.20487 8,-8 V 9 C 21,2.2048695 19.825886,1 13,1 Z"
     sodipodi:nodetypes="sssssssss" />
  <path
     id="path10069"
     d="m 15.392782,11.653457 c -0.167749,0.0086 -0.344831,0.044 -0.524519,0.107136 -0.168078,0.05949 -0.25668,0.196416 -0.25668,0.196416 0,0 0.106816,-0.04207 0.343727,-0.09151 0.968843,-0.201917 2.356849,1.297462 -0.645047,2.856957 -0.01391,0.03716 -0.06029,0.07812 -0.06026,0.07812 3.63267,-0.954882 2.76436,-3.230308 1.142783,-3.147117 z m -6.4973464,0.151776 c -0.3827192,0.01006 -1.2777871,0.09221 -2.3190465,0.595944 -1.6424535,0.79413 4.0617689,1.1562 7.0151709,0.379439 0.307012,-0.209532 0.729863,-0.390599 0.729863,-0.390599 0,0 -1.207005,0.215933 -2.410558,0.316944 -1.47303,0.123587 -3.0525333,0.148549 -3.8457324,0.04241 -1.8780131,-0.251066 1.0289505,-0.941903 1.0289505,-0.941903 0,0 -0.07107,-0.0056 -0.1986475,-0.0022 z m -0.4776481,1.816846 c -2.7090198,0.899186 1.5077536,1.920001 5.2943005,0.812447 -0.402315,-0.141815 -0.65844,-0.401759 -0.65844,-0.401759 -1.851273,0.356296 -2.919766,0.345179 -4.2742757,0.205343 C 7.7321737,14.129889 8.4177875,13.622079 8.4177875,13.622079 Z m 0.3816726,1.749887 c -2.4599825,0.687359 1.4968579,2.107538 4.6291639,0.765576 -0.51301,-0.199366 -0.879407,-0.428544 -0.879407,-0.428544 -1.396784,0.264027 -2.046637,0.28537 -3.3145179,0.140616 -1.046403,-0.119999 -0.435239,-0.477648 -0.435239,-0.477648 z m -1.5891829,1.162871 c -1.0571566,-0.04067 -3.4573862,1.015605 -1.408391,1.348127 6.3857048,1.035088 11.6401538,-0.466897 9.9837278,-1.214208 0,0 0.452832,0.37229 -0.497736,0.660673 -1.80752,0.547474 -7.5253155,0.713037 -9.113248,0.02232 -0.5704064,-0.248452 0.5002899,-0.592395 0.8369995,-0.665135 0.3510927,-0.07595 0.5513026,-0.0625 0.5513026,-0.0625 -0.079355,-0.05588 -0.2016327,-0.08347 -0.3526549,-0.08927 z m 9.5886648,0.948599 c 0,0 -0.199572,0.516227 -2.379311,0.926279 -2.459105,0.462956 -5.4933208,0.408579 -7.2919382,0.111605 0,0 0.3676585,0.306709 2.2610153,0.428543 2.8807989,0.184183 7.3055759,-0.103147 7.4102339,-1.466422 z"
     sodipodi:nodetypes="scccccssccccccsccccccccccsccccccsccccc"
     style="fill:#5a87b6;fill-opacity:1;stroke-width:0.273971" />
  <path
     id="path10073"
     d="M 12.500113,3 C 13.170518,5.6415419 10.136042,6.4394902 9.0405151,8.0844921 8.2944938,9.205168 9.4057181,10.410432 10.92209,11.778449 10.330779,10.441746 8.3267797,9.272364 10.92429,7.2207081 14.16336,4.6640979 12.500052,3 12.500052,3 Z m 2.004334,3.2676453 c 3.5e-5,0 -5.4772919,1.3671331 -2.861422,4.3814117 0.772186,0.888871 -0.203111,1.689623 -0.203111,1.689623 0,0 1.959945,-1.011728 1.060199,-2.27887 -0.840652,-1.1811419 -1.484817,-1.7685633 2.004334,-3.7921647 z"
     style="fill:#ff9955;fill-opacity:1;stroke-width:0.273971" />
</svg>
