<?xml version="1.0" encoding="UTF-8" standalone="no"?>
<!-- Created with Inkscape (http://www.inkscape.org/) -->

<svg
   width="22"
   height="22"
   viewBox="0 0 22 22"
   version="1.1"
   id="svg5"
   inkscape:version="1.2.1 (9c6d41e410, 2022-07-14)"
   sodipodi:docname="kdevelop.svg"
   xmlns:inkscape="http://www.inkscape.org/namespaces/inkscape"
   xmlns:sodipodi="http://sodipodi.sourceforge.net/DTD/sodipodi-0.dtd"
   xmlns:xlink="http://www.w3.org/1999/xlink"
   xmlns="http://www.w3.org/2000/svg"
   xmlns:svg="http://www.w3.org/2000/svg">
  <sodipodi:namedview
     id="namedview7"
     pagecolor="#ffffff"
     bordercolor="#000000"
     borderopacity="0.25"
     inkscape:showpageshadow="2"
     inkscape:pageopacity="0.0"
     inkscape:pagecheckerboard="0"
     inkscape:deskcolor="#d1d1d1"
     inkscape:document-units="px"
     showgrid="false"
     inkscape:zoom="36.5"
     inkscape:cx="10.986301"
     inkscape:cy="11"
     inkscape:window-width="1920"
     inkscape:window-height="1006"
     inkscape:window-x="0"
     inkscape:window-y="0"
     inkscape:window-maximized="1"
     inkscape:current-layer="svg5"
     showguides="true" />
  <defs
     id="defs2">
    <linearGradient
       inkscape:collect="always"
       xlink:href="#linearGradient1095"
       id="linearGradient3500"
       x1="28.666666"
       y1="28.666666"
       x2="2"
       y2="2"
       gradientUnits="userSpaceOnUse"
       gradientTransform="matrix(0.75,0,0,0.75,-0.5,-0.5)" />
    <linearGradient
       inkscape:collect="always"
       id="linearGradient1095">
      <stop
         style="stop-color:#b4d270;stop-opacity:1;"
         offset="0"
         id="stop1091" />
      <stop
         style="stop-color:#77b842;stop-opacity:1;"
         offset="1"
         id="stop1093" />
    </linearGradient>
  </defs>
  <path
     id="path530"
     style="fill:url(#linearGradient3500);fill-opacity:1.0;stroke-width:0.750005;stroke-linecap:round;stroke-linejoin:round"
     d="M 9,1 C 2.174114,1 1,2.2048695 1,9 v 4 c 0,6.79513 1.174114,8 8,8 h 4 c 6.825886,0 8,-1.20487 8,-8 V 9 C 21,2.2048695 19.825886,1 13,1 Z"
     sodipodi:nodetypes="sssssssss" />
  <path
     id="rect465"
     style="opacity:0.6;fill:#ffffff;stroke-linecap:round;stroke-linejoin:round"
     d="M 10 4 L 9.765625 5.6464844 A 5.5 5.5 0 0 1 10.964844 5.5 A 5.5 5.5 0 0 1 12.236328 5.6503906 L 12 4 L 10 4 z M 6.7578125 5.34375 L 5.34375 6.7578125 L 6.3203125 8.0585938 A 5.5 5.5 0 0 1 8.0722656 6.3300781 L 6.7578125 5.34375 z M 15.242188 5.34375 L 13.898438 6.3515625 A 5.5 5.5 0 0 1 15.642578 8.1113281 L 16.65625 6.7578125 L 15.242188 5.34375 z M 16.322266 9.7597656 A 5.5 5.5 0 0 1 16.464844 11 A 5.5 5.5 0 0 1 16.308594 12.240234 L 18 12 L 18 10 L 16.322266 9.7597656 z M 5.6191406 9.7695312 L 4 10 L 4 12 L 5.6191406 12.230469 A 5.5 5.5 0 0 1 5.4648438 11 A 5.5 5.5 0 0 1 5.6191406 9.7695312 z M 15.638672 13.886719 A 5.5 5.5 0 0 1 13.898438 15.648438 L 15.242188 16.65625 L 16.65625 15.242188 L 15.638672 13.886719 z M 6.3203125 13.941406 L 5.34375 15.242188 L 6.7578125 16.65625 L 8.0722656 15.669922 A 5.5 5.5 0 0 1 6.3203125 13.941406 z M 12.236328 16.337891 A 5.5 5.5 0 0 1 10.964844 16.5 A 5.5 5.5 0 0 1 9.765625 16.353516 L 10 18 L 12 18 L 12.236328 16.337891 z " />
  <path
     id="path632"
     style="fill:#ffffff;stroke-width:1.2;stroke-linecap:round;stroke-linejoin:round"
     d="M 11 5 A 6 6 0 0 0 5 11 A 6 6 0 0 0 11 17 A 6 6 0 0 0 17 11 A 6 6 0 0 0 11 5 z M 11 6 A 5.0000001 5.0000001 0 0 1 16 11 A 5.0000001 5.0000001 0 0 1 11 16 A 5.0000001 5.0000001 0 0 1 6 11 A 5.0000001 5.0000001 0 0 1 11 6 z " />
  <path
     id="rect1149"
     style="fill:#ffffff;stroke-width:2;stroke-linecap:round"
     d="m 8,12 2,2 H 8 Z"
     sodipodi:nodetypes="cccc" />
</svg>
