<?xml version="1.0" encoding="UTF-8" standalone="no"?>
<!-- Created with Inkscape (http://www.inkscape.org/) -->

<svg
   width="22"
   height="22"
   viewBox="0 0 22 22"
   version="1.1"
   id="svg5"
   inkscape:version="1.2.1 (9c6d41e410, 2022-07-14)"
   sodipodi:docname="kmahjongg.svg"
   xmlns:inkscape="http://www.inkscape.org/namespaces/inkscape"
   xmlns:sodipodi="http://sodipodi.sourceforge.net/DTD/sodipodi-0.dtd"
   xmlns:xlink="http://www.w3.org/1999/xlink"
   xmlns="http://www.w3.org/2000/svg"
   xmlns:svg="http://www.w3.org/2000/svg">
  <sodipodi:namedview
     id="namedview7"
     pagecolor="#ffffff"
     bordercolor="#000000"
     borderopacity="0.25"
     inkscape:showpageshadow="2"
     inkscape:pageopacity="0.0"
     inkscape:pagecheckerboard="0"
     inkscape:deskcolor="#d1d1d1"
     inkscape:document-units="px"
     showgrid="false"
     inkscape:zoom="37.545455"
     inkscape:cx="10.986683"
     inkscape:cy="11"
     inkscape:window-width="1920"
     inkscape:window-height="1006"
     inkscape:window-x="0"
     inkscape:window-y="0"
     inkscape:window-maximized="1"
     inkscape:current-layer="svg5"
     showguides="true" />
  <defs
     id="defs2">
    <linearGradient
       inkscape:collect="always"
       xlink:href="#linearGradient5312"
       id="linearGradient3500"
       x1="2"
       y1="2"
       x2="28.666666"
       y2="28.666666"
       gradientUnits="userSpaceOnUse"
       gradientTransform="matrix(0.75,0,0,0.75,-0.5,-0.5)" />
    <linearGradient
       inkscape:collect="always"
       id="linearGradient5312">
      <stop
         style="stop-color:#c72222;stop-opacity:1;"
         offset="0"
         id="stop5308" />
      <stop
         style="stop-color:#cf5b5b;stop-opacity:1;"
         offset="1"
         id="stop5310" />
    </linearGradient>
  </defs>
  <path
     id="path530"
     style="fill:url(#linearGradient3500);fill-opacity:1.0;stroke-width:0.750005;stroke-linecap:round;stroke-linejoin:round"
     d="M 9,1 C 2.174114,1 1,2.2048695 1,9 v 4 c 0,6.79513 1.174114,8 8,8 h 4 c 6.825886,0 8,-1.20487 8,-8 V 9 C 21,2.2048695 19.825886,1 13,1 Z"
     sodipodi:nodetypes="sssssssss" />
  <path
     d="M 9.5101702,4.115129 C 9.4057438,4.207235 9.3796398,4.3453929 9.3796398,4.5065769 c 0,0.2993419 0.1044204,0.6677628 0.1566344,0.8059203 0,0 0.078324,1.6118446 0.104427,1.7960551 -0.2349574,0.023025 -0.6526538,0.046055 -0.8092888,0.092104 H 8.6225644 C 8.178758,7.2236868 7.7610621,7.2467118 7.5783177,7.4078947 l -0.078318,0.069079 0.078318,0.092105 c 0.1305305,0.1381575 0.1827444,0.5296039 0.2349579,0.9440793 0.130531,0.8519713 0.287159,1.9111835 1.0703508,2.3256555 l 0.1566344,0.06908 v -0.161185 c 0,0 0.026155,-0.06908 0.026155,-0.161184 0,-0.06908 -0.026155,-0.18421 -0.052182,-0.345395 0.2088484,0.02302 0.6526543,0.06908 0.8092888,0.06908 0.026084,0.18421 0.7048164,7.690789 0.7048164,7.690789 h 0.261062 c 0,0 0.287172,-7.414472 0.287172,-7.644735 0.182738,0 0.992033,0.02302 1.226978,0.04605 -0.05218,0.138158 -0.261055,0.713816 -0.261055,0.713816 l 0.365483,-0.299342 c 0.104427,-0.06908 2.375659,-1.8881576 2.062384,-3.0855254 -0.104428,-0.3914484 -0.46991,-0.6677638 -1.070351,-0.8059208 h -0.02616 -0.02615 c -0.339379,0 -1.383619,0.023025 -2.166811,0.069078 0.02615,-0.5986839 0.02615,-0.9210543 0.02615,-1.0822387 V 5.7269731 5.7039481 c 0,-0.115133 0.130531,-0.2763169 0.234958,-0.3914484 0.104427,-0.1381575 0.234958,-0.2532894 0.234958,-0.3914469 0,-0.046055 -0.02615,-0.092106 -0.05218,-0.1381575 C 11.468146,4.5756599 10.319472,4.0460545 9.8234587,4.0000015 9.6668242,4.0230265 9.5623967,4.0460565 9.5101832,4.115133 Z m 0.026155,3.7763181 h 0.1305305 c 0,0.207236 0.078317,1.6578941 0.104421,1.8651311 C 9.5624287,9.7335482 9.0664153,9.6875002 8.9097809,9.6875002 8.8314634,9.3881573 8.8053534,9.0657893 8.7792499,8.7434209 8.7531599,8.4671045 8.7270679,8.190789 8.6748224,7.9374986 c 0.2349585,0 0.8615028,-0.046055 0.8615028,-0.046055 z m 1.5924738,0.7138158 c 0,0 0.02609,-0.5526313 0.02609,-0.7368423 0.339373,0.046055 0.783179,0.069078 1.200875,0.069078 h 0.46991 c 0,0.092106 -0.02615,0.2072375 -0.02615,0.2072375 -0.05218,0.5065794 -0.13053,1.1052622 -0.365488,1.7039476 -0.156628,0 -1.122558,-0.046055 -1.331407,-0.069078 0,-0.1611845 0.02615,-1.1743417 0.02615,-1.1743417 z"
     style="display:inline;fill:#ffffff;fill-opacity:1;stroke-width:0.636365;enable-background:new"
     id="path861" />
</svg>
