<?xml version="1.0" encoding="UTF-8" standalone="no"?>
<!-- Created with Inkscape (http://www.inkscape.org/) -->

<svg
   width="22"
   height="22"
   viewBox="0 0 22 22"
   version="1.1"
   id="svg5"
   inkscape:version="1.2.1 (9c6d41e410, 2022-07-14)"
   sodipodi:docname="ktnef.svg"
   xmlns:inkscape="http://www.inkscape.org/namespaces/inkscape"
   xmlns:sodipodi="http://sodipodi.sourceforge.net/DTD/sodipodi-0.dtd"
   xmlns:xlink="http://www.w3.org/1999/xlink"
   xmlns="http://www.w3.org/2000/svg"
   xmlns:svg="http://www.w3.org/2000/svg">
  <sodipodi:namedview
     id="namedview7"
     pagecolor="#ffffff"
     bordercolor="#000000"
     borderopacity="0.25"
     inkscape:showpageshadow="2"
     inkscape:pageopacity="0.0"
     inkscape:pagecheckerboard="0"
     inkscape:deskcolor="#d1d1d1"
     inkscape:document-units="px"
     showgrid="false"
     inkscape:zoom="36.363636"
     inkscape:cx="11.01375"
     inkscape:cy="11"
     inkscape:window-width="1920"
     inkscape:window-height="1006"
     inkscape:window-x="0"
     inkscape:window-y="0"
     inkscape:window-maximized="1"
     inkscape:current-layer="svg5"
     showguides="false" />
  <defs
     id="defs2">
    <linearGradient
       inkscape:collect="always"
       xlink:href="#linearGradient3788"
       id="linearGradient3500"
       x1="28.666666"
       y1="28.666666"
       x2="2"
       y2="2"
       gradientUnits="userSpaceOnUse"
       gradientTransform="matrix(0.75,0,0,0.75,-0.5,-0.5)" />
    <linearGradient
       inkscape:collect="always"
       id="linearGradient3788">
      <stop
         style="stop-color:#ffcf41;stop-opacity:1;"
         offset="0"
         id="stop3784" />
      <stop
         style="stop-color:#f98d00;stop-opacity:1;"
         offset="1"
         id="stop3786" />
    </linearGradient>
  </defs>
  <path
     id="path530"
     style="fill:url(#linearGradient3500);fill-opacity:1;stroke-width:0.750005;stroke-linecap:round;stroke-linejoin:round"
     d="M 9,1 C 2.174114,1 1,2.2048695 1,9 v 4 c 0,6.79513 1.174114,8 8,8 h 4 c 6.825886,0 8,-1.20487 8,-8 V 9 C 21,2.2048695 19.825886,1 13,1 Z"
     sodipodi:nodetypes="sssssssss" />
  <path
     id="path1945"
     style="fill:#ffffff;stroke-linecap:round"
     d="m 17.449747,5.2573589 c -0.976311,-0.9763108 -2.559223,-0.9763109 -3.535534,-10e-8 l -7.3033,7.3033012 c -0.5857867,0.585787 -0.5857868,1.535535 1e-7,2.121321 0.5857864,0.585786 1.5355339,0.585786 2.1213203,0 L 15.68198,7.7322326 14.974873,7.0251259 8.0251266,13.974874 c -0.1952621,0.195262 -0.5118446,0.195262 -0.7071067,0 -0.1952623,-0.195262 -0.1952622,-0.511845 0,-0.707107 L 14.62132,5.9644657 c 0.585786,-0.5857863 1.535534,-0.5857862 2.12132,0 0.585786,0.5857864 0.585786,1.5355338 0,2.1213203 l -7.6568529,7.656855 c -0.9763107,0.976311 -2.5592234,0.976311 -3.5355342,0 -0.9763108,-0.976311 -0.9763109,-2.559223 -1e-7,-3.535534 L 10.146446,7.6109122 9.439339,6.9038054 4.8431461,11.5 c -1.366835,1.366835 -1.3668354,3.582913 0,4.949748 1.366835,1.366835 3.5829122,1.366835 4.9497469,0 l 7.656854,-7.6568551 c 0.976311,-0.9763108 0.976311,-2.5592232 0,-3.535534 z"
     sodipodi:nodetypes="sssssccsssssssssccsssss" />
</svg>
