<?xml version="1.0" encoding="UTF-8" standalone="no"?>
<!-- Created with Inkscape (http://www.inkscape.org/) -->

<svg
   width="22"
   height="22"
   viewBox="0 0 22 22"
   version="1.1"
   id="svg5"
   inkscape:version="1.2.1 (9c6d41e410, 2022-07-14)"
   sodipodi:docname="ktorrent.svg"
   xmlns:inkscape="http://www.inkscape.org/namespaces/inkscape"
   xmlns:sodipodi="http://sodipodi.sourceforge.net/DTD/sodipodi-0.dtd"
   xmlns:xlink="http://www.w3.org/1999/xlink"
   xmlns="http://www.w3.org/2000/svg"
   xmlns:svg="http://www.w3.org/2000/svg">
  <sodipodi:namedview
     id="namedview7"
     pagecolor="#ffffff"
     bordercolor="#000000"
     borderopacity="0.25"
     inkscape:showpageshadow="2"
     inkscape:pageopacity="0.0"
     inkscape:pagecheckerboard="0"
     inkscape:deskcolor="#d1d1d1"
     inkscape:document-units="px"
     showgrid="false"
     inkscape:zoom="37.636364"
     inkscape:cx="11"
     inkscape:cy="11"
     inkscape:window-width="1920"
     inkscape:window-height="1008"
     inkscape:window-x="0"
     inkscape:window-y="0"
     inkscape:window-maximized="1"
     inkscape:current-layer="svg5"
     showguides="false" />
  <defs
     id="defs2">
    <linearGradient
       inkscape:collect="always"
       xlink:href="#linearGradient1871"
       id="linearGradient3500"
       x1="2"
       y1="2"
       x2="28.666666"
       y2="28.666666"
       gradientUnits="userSpaceOnUse"
       gradientTransform="matrix(0.75,0,0,0.75,-0.5,-0.5)" />
    <linearGradient
       inkscape:collect="always"
       id="linearGradient1871">
      <stop
         style="stop-color:#3daee9;stop-opacity:1;"
         offset="0"
         id="stop1867" />
      <stop
         style="stop-color:#76c6ee;stop-opacity:1;"
         offset="1"
         id="stop1869" />
    </linearGradient>
  </defs>
  <path
     id="path530"
     style="fill:url(#linearGradient3500);fill-opacity:1;stroke-width:0.750005;stroke-linecap:round;stroke-linejoin:round"
     d="M 9,1 C 2.174114,1 1,2.2048695 1,9 v 4 c 0,6.79513 1.174114,8 8,8 h 4 c 6.825886,0 8,-1.20487 8,-8 V 9 C 21,2.2048695 19.825886,1 13,1 Z"
     sodipodi:nodetypes="sssssssss" />
  <rect
     style="fill:#ffffff;fill-opacity:1;stroke-width:2;stroke-linecap:round;stroke-linejoin:round"
     id="rect919"
     width="6"
     height="10"
     x="8"
     y="4" />
  <path
     d="M 11.415283,7.000168 C 11.184227,7.011893 11,7.2037149 11,7.437668 c 0,0.2415 0.196,0.4375 0.4375,0.4375 0.2415,0 0.4375,-0.196 0.4375,-0.4375 0,-0.2415 -0.196,-0.4375 -0.4375,-0.4375 -0.0075,0 -0.01476,-3.78e-4 -0.02221,0 z M 9.46875,8.7416239 c -0.022882,0.00271 -0.045142,0.00924 -0.066649,0.018795 -0.1727757,0.075801 -0.2304853,0.3228331 -0.00342,0.84082 0.2274091,0.5179871 0.5518328,0.8773161 0.724609,0.8015131 0.172784,-0.0758 0.127953,-0.5569599 -0.09911,-1.0749473 C 9.8254429,8.8743524 9.6299171,8.723528 9.46875,8.7433327 Z m -4.1784668,0.00858 C 5.0592273,8.7619239 4.875,8.9537455 4.875,9.1876986 c 0,0.2415 0.196,0.4374999 0.4375,0.4374999 0.2415,0 0.4375,-0.1959999 0.4375,-0.4374999 0,-0.2415 -0.196,-0.4375 -0.4375,-0.4375 -0.00755,0 -0.014763,-3.777e-4 -0.022217,3e-7 z m 2.3840333,0 C 7.5434659,8.7558864 7.3903554,8.8811715 7.5478516,9.0543979 7.7715046,9.3009851 7.8908161,9.7406425 7.6914062,9.8285677 7.4909721,9.9164929 7.5040838,9.5007887 7.4863282,9.2799843 7.4689138,9.0591798 6.9153223,8.9259698 6.7104491,9.1996592 6.505576,9.4733514 6.7109933,9.7690669 6.9138183,9.8285651 c 0.2028244,0.059824 0.2349352,0.2841269 0.3554687,0.5178219 0.1208753,0.233696 0.7076632,0.175189 0.8510743,0 C 8.2637726,10.171198 8.3535291,9.8453397 8.0742191,9.5448739 7.7949089,9.2444076 7.8796611,8.9650927 7.8041995,8.8117201 c -0.01878,-0.038343 -0.059176,-0.057557 -0.104248,-0.061521 -0.00843,-7.018e-4 -0.016911,-3.781e-4 -0.025635,0 z m 8.1159665,0 C 15.559228,8.7619247 15.375,8.9537466 15.375,9.1876997 c 0,0.2415 0.196,0.4374998 0.4375,0.4374998 0.2415,0 0.4375,-0.1959998 0.4375,-0.4374998 0,-0.2415 -0.196,-0.4375 -0.4375,-0.4375 -0.0075,0 -0.01476,-3.777e-4 -0.02221,0 z m -1.56543,0.145264 c -0.157768,0.0035 -0.226586,0.3218031 -0.266601,0.6220698 -0.04269,0.3202846 -0.203575,0.6518703 -0.06495,0.7160643 0.192239,0.08537 0.290402,-0.4411143 0.507568,-0.6374508 0.217165,-0.1966781 0.03777,-0.654584 -0.143556,-0.6972656 -0.01133,-0.00262 -0.02195,-0.00367 -0.03247,-0.00342 z M 8.7167969,8.9416023 C 8.5283136,8.9416014 8.375,9.0949154 8.375,9.2833982 c 0,0.1884829 0.1533136,0.3417967 0.3417969,0.3417967 0.1884831,0 0.3417969,-0.1533138 0.3417969,-0.3417967 0,-0.1884828 -0.1533138,-0.3417968 -0.3417969,-0.3417959 z m 3.8708501,0.1025395 c -0.22195,0.016389 -0.441711,0.3953801 -0.550294,0.6579585 -0.124289,0.2997977 0.02602,0.8847897 -0.266601,1.1040047 -0.292626,0.219555 -0.506689,0.224472 -0.652831,0.136718 -0.146144,-0.08775 0.123908,-0.07587 -0.03931,-0.410156 -0.163557,-0.334285 -0.553814,-0.229769 -0.65625,0.03077 -0.102437,0.260531 0.109302,0.247957 0.03589,0.401611 -0.07306,0.15365 -0.6950057,0.320822 -0.8339776,-0.140142 C 9.4852954,10.363941 8.9917898,9.8615045 8.838135,9.9857947 8.6844801,10.110084 8.8563114,10.568582 9.2585453,10.934281 9.6607793,11.299979 9.1553142,11.496603 8.8056642,11.22139 8.4560141,10.945835 8.0455312,11.430211 7.7272951,11.754594 7.4087174,12.078634 7.1251638,12.10098 6.8984377,11.906693 6.6720529,11.712747 6.8694647,11.184629 6.6079104,10.654007 6.3466973,10.123386 5.8281985,10.387764 5.7551272,10.746292 c -0.073071,0.358528 0.6557666,0.600737 0.5144043,0.799806 -0.1413624,0.199067 -0.706661,0.15309 -0.8732911,-0.222169 -0.1662886,-0.375259 -0.5294506,-0.25228 -0.536621,0.05469 -0.00717,0.30731 0.2811819,0.09149 0.5058593,0.316162 L 11.170899,18 l 5.80371,-6.305219 c 0.68291,-0.682909 -0.0986,-0.389494 -0.259765,-0.23584 -0.160827,0.153656 -0.659043,0.277714 -0.717773,0.109375 -0.05839,-0.168336 0.557645,-0.450678 0.733154,-0.640869 0.175507,-0.19019 0.346984,-0.729934 0.06324,-0.9279776 -0.283752,-0.198044 -0.685138,0.1588576 -0.859623,0.4221186 -0.175507,0.263262 -0.02383,0.935019 -0.258056,1.139893 -0.234238,0.204873 -0.363032,0.0798 -0.406738,-0.0957 -0.04405,-0.175509 0.505628,-0.422898 0.275146,-0.859619 -0.230824,-0.436722 -0.657132,-0.238712 -0.854492,-0.03418 -0.197361,0.204873 0.117993,0.520537 0.191407,0.84253 0.07307,0.321992 -0.674659,0.313652 -0.967286,0.196532 -0.292628,-0.117123 -0.388408,-0.851465 -0.512698,-0.895513 -0.124289,-0.04404 -0.441663,0.243919 -0.844239,0.11963 -0.402234,-0.12429 -0.06789,-0.373877 0.0564,-0.666504 0.124289,-0.2926275 0.321379,-0.9967905 0.07007,-1.107422 -0.03142,-0.014 -0.06429,-0.019478 -0.0957,-0.017089 z M 4.3417969,9.8166012 C 4.1533136,9.8166012 4,9.9699152 4,10.158398 c 0,0.188484 0.1533136,0.341797 0.3417969,0.341797 0.1884832,0 0.3417969,-0.153313 0.3417969,-0.341797 0,-0.1884828 -0.1533137,-0.3417968 -0.3417969,-0.3417968 z M 17.641113,10.503613 c -0.180331,0.0091 -0.324707,0.159203 -0.324707,0.341797 0,0.188483 0.153314,0.340088 0.341797,0.340088 0.188483,0 0.341797,-0.151605 0.341797,-0.340088 0,-0.188483 -0.153314,-0.341797 -0.341797,-0.341797 -0.0059,0 -0.01127,-2.95e-4 -0.01709,0 z"
     style="fill:#b0e8fb;fill-opacity:1;stroke-width:0.875"
     id="path449"
     sodipodi:nodetypes="sssssssccccccccssssccsccsccsscccssssssscssccccsscssccsscsccssccccssccsccccssccccccsscccccsssssssssssss" />
</svg>
