<?xml version="1.0" encoding="UTF-8" standalone="no"?>
<!-- Created with Inkscape (http://www.inkscape.org/) -->

<svg
   width="22"
   height="22"
   viewBox="0 0 22 22"
   version="1.1"
   id="svg5"
   inkscape:version="1.2.2 (b0a8486541, 2022-12-01)"
   sodipodi:docname="libreoffice-base.svg"
   xmlns:inkscape="http://www.inkscape.org/namespaces/inkscape"
   xmlns:sodipodi="http://sodipodi.sourceforge.net/DTD/sodipodi-0.dtd"
   xmlns:xlink="http://www.w3.org/1999/xlink"
   xmlns="http://www.w3.org/2000/svg"
   xmlns:svg="http://www.w3.org/2000/svg">
  <sodipodi:namedview
     id="namedview7"
     pagecolor="#ffffff"
     bordercolor="#000000"
     borderopacity="0.25"
     inkscape:showpageshadow="2"
     inkscape:pageopacity="0.0"
     inkscape:pagecheckerboard="0"
     inkscape:deskcolor="#d1d1d1"
     inkscape:document-units="px"
     showgrid="false"
     inkscape:zoom="36.409091"
     inkscape:cx="11"
     inkscape:cy="11"
     inkscape:window-width="1920"
     inkscape:window-height="998"
     inkscape:window-x="0"
     inkscape:window-y="0"
     inkscape:window-maximized="1"
     inkscape:current-layer="svg5"
     showguides="true" />
  <defs
     id="defs2">
    <linearGradient
       inkscape:collect="always"
       xlink:href="#linearGradient1370"
       id="linearGradient3500"
       x1="2"
       y1="2"
       x2="31.333334"
       y2="31.333334"
       gradientUnits="userSpaceOnUse"
       gradientTransform="matrix(0.75,0,0,0.75,-0.5,-0.5)" />
    <linearGradient
       inkscape:collect="always"
       id="linearGradient1370">
      <stop
         style="stop-color:#8a0ac2;stop-opacity:1;"
         offset="0"
         id="stop1366" />
      <stop
         style="stop-color:#d378e5;stop-opacity:1;"
         offset="1"
         id="stop1368" />
    </linearGradient>
  </defs>
  <path
     id="path530"
     style="fill:url(#linearGradient3500);fill-opacity:1.0;stroke-width:0.750005;stroke-linecap:round;stroke-linejoin:round"
     d="M 9,1 C 2.174114,1 1,2.2048695 1,9 v 4 c 0,6.79513 1.174114,8 8,8 h 4 c 6.825886,0 8,-1.20487 8,-8 V 9 C 21,2.2048695 19.825886,1 13,1 Z"
     sodipodi:nodetypes="sssssssss" />
  <path
     id="rect368"
     style="fill:#ffffff"
     d="m 12,8 v 7 h 5 V 8 Z m 1,1 h 1 v 1 h -1 z m 2,0 h 1 v 1 h -1 z m -2,2 h 1 v 1 h -1 z m 2,0 h 1 v 1 h -1 z m -2,2 h 1 v 1 h -1 z m 2,0 h 1 v 1 h -1 z"
     sodipodi:nodetypes="ccccccccccccccccccccccccccccccccccc" />
  <path
     id="path557"
     style="fill:#e88ff7;fill-opacity:1;stroke-width:1.22474"
     d="M 8,6 C 6.3431491,6 5,6.4477165 5,7 V 8 C 5,8.5522835 6.3431491,9 8,9 9.656851,9 11,8.5522835 11,8 V 7 C 11,6.4477165 9.656851,6 8,6 Z M 5,9 v 1 c 0,0.552283 1.3431507,1 3,1 1.656849,0 3,-0.447717 3,-1 V 9 C 11,9.5522829 9.656849,10 8,10 6.3431507,10 5,9.5522829 5,9 Z m 0,2 v 1 c 0,0.552282 1.3431507,1 3,1 1.656849,0 3,-0.447718 3,-1 v -1 c 0,0.552283 -1.343151,1 -3,1 -1.6568493,0 -3,-0.447717 -3,-1 z m 0,2 v 1 c 0,0.552282 1.3431507,1 3,1 1.656849,0 3,-0.447718 3,-1 v -1 c 0,0.552283 -1.343151,1 -3,1 -1.6568493,0 -3,-0.447717 -3,-1 z" />
</svg>
