<?xml version="1.0" encoding="UTF-8" standalone="no"?>
<!-- Created with Inkscape (http://www.inkscape.org/) -->

<svg
   width="22"
   height="22"
   viewBox="0 0 22 22"
   version="1.1"
   id="svg5"
   inkscape:version="1.2.1 (9c6d41e410, 2022-07-14)"
   sodipodi:docname="mintinstall.svg"
   xmlns:inkscape="http://www.inkscape.org/namespaces/inkscape"
   xmlns:sodipodi="http://sodipodi.sourceforge.net/DTD/sodipodi-0.dtd"
   xmlns:xlink="http://www.w3.org/1999/xlink"
   xmlns="http://www.w3.org/2000/svg"
   xmlns:svg="http://www.w3.org/2000/svg">
  <sodipodi:namedview
     id="namedview7"
     pagecolor="#ffffff"
     bordercolor="#000000"
     borderopacity="0.25"
     inkscape:showpageshadow="2"
     inkscape:pageopacity="0.0"
     inkscape:pagecheckerboard="0"
     inkscape:deskcolor="#d1d1d1"
     inkscape:document-units="px"
     showgrid="false"
     inkscape:zoom="36.727273"
     inkscape:cx="11"
     inkscape:cy="11"
     inkscape:window-width="1920"
     inkscape:window-height="1011"
     inkscape:window-x="0"
     inkscape:window-y="32"
     inkscape:window-maximized="1"
     inkscape:current-layer="svg5"
     showguides="false" />
  <defs
     id="defs2">
    <linearGradient
       inkscape:collect="always"
       xlink:href="#linearGradient2030"
       id="linearGradient3500"
       x1="2"
       y1="2"
       x2="28.666666"
       y2="28.666666"
       gradientUnits="userSpaceOnUse"
       gradientTransform="matrix(0.75,0,0,0.75,-0.5,-0.5)" />
    <linearGradient
       inkscape:collect="always"
       id="linearGradient2030">
      <stop
         style="stop-color:#4c7523;stop-opacity:1;"
         offset="0"
         id="stop2026" />
      <stop
         style="stop-color:#87cf3e;stop-opacity:1;"
         offset="1"
         id="stop2028" />
    </linearGradient>
  </defs>
  <path
     id="path530"
     style="fill:url(#linearGradient3500);fill-opacity:1;stroke-width:0.750005;stroke-linecap:round;stroke-linejoin:round"
     d="M 9,1 C 2.174114,1 1,2.2048695 1,9 v 4 c 0,6.79513 1.174114,8 8,8 h 4 c 6.825886,0 8,-1.20487 8,-8 V 9 C 21,2.2048695 19.825886,1 13,1 Z"
     sodipodi:nodetypes="sssssssss" />
  <path
     id="rect346"
     style="fill:#ffffff;stroke-width:3;stroke-linecap:round;stroke-linejoin:round"
     d="m 5.9999998,9 v 7 c 0,1.661995 1.338004,3 3.0000001,3 H 13 c 1.661996,0 3,-1.338005 3,-3 v -3 a 2,2 0 0 0 -2,-2 2,2 0 0 0 -1.496094,0.679688 C 12.137904,11.263073 11.600677,11 11,11 9.8920019,11 8.9999999,11.892001 8.9999999,13 v 3 h 1 v -3 c 0,-0.553998 0.4460021,-1 1.0000001,-1 0.553998,0 1,0.446002 1,1 v 3 h 1 v -3 c 0,-0.553998 0.446002,-1 1,-1 0.553998,0 1,0.446002 1,1 v 3 c 0,1.107997 -0.892002,2 -2,2 H 8.9999999 C 7.8920018,18 6.9999998,17.107997 6.9999998,16 V 9 Z" />
  <path
     style="color:#000000;fill:#ececec;fill-opacity:1;stroke:none;stroke-linecap:round;stroke-linejoin:round;-inkscape-stroke:none"
     d="M 11,7.9999997 C 8.796786,7.9999997 7,6.2032145 7,4 A 0.5,0.5 0 0 1 7.5,3.5 0.5,0.5 0 0 1 8,4 c 0,1.6627749 1.337225,3 3,3 1.662775,0 3,-1.3372251 3,-3 A 0.5,0.5 0 0 1 14.5,3.5 0.5,0.5 0 0 1 15,4 c 0,2.2032145 -1.796786,3.9999997 -4,3.9999997 z"
     id="path6954" />
</svg>
