<?xml version="1.0" encoding="UTF-8" standalone="no"?>
<!-- Created with Inkscape (http://www.inkscape.org/) -->

<svg
   width="22"
   height="22"
   viewBox="0 0 22 22"
   version="1.1"
   id="svg5"
   inkscape:version="1.2.1 (9c6d41e410, 2022-07-14)"
   sodipodi:docname="multimedia-photo-manager.svg"
   xmlns:inkscape="http://www.inkscape.org/namespaces/inkscape"
   xmlns:sodipodi="http://sodipodi.sourceforge.net/DTD/sodipodi-0.dtd"
   xmlns:xlink="http://www.w3.org/1999/xlink"
   xmlns="http://www.w3.org/2000/svg"
   xmlns:svg="http://www.w3.org/2000/svg">
  <sodipodi:namedview
     id="namedview7"
     pagecolor="#ffffff"
     bordercolor="#000000"
     borderopacity="0.25"
     inkscape:showpageshadow="2"
     inkscape:pageopacity="0.0"
     inkscape:pagecheckerboard="0"
     inkscape:deskcolor="#d1d1d1"
     inkscape:document-units="px"
     showgrid="false"
     inkscape:zoom="37.545455"
     inkscape:cx="11"
     inkscape:cy="11"
     inkscape:window-width="1920"
     inkscape:window-height="1006"
     inkscape:window-x="0"
     inkscape:window-y="0"
     inkscape:window-maximized="1"
     inkscape:current-layer="svg5"
     showguides="true" />
  <defs
     id="defs2">
    <linearGradient
       inkscape:collect="always"
       xlink:href="#linearGradient1606"
       id="linearGradient3500"
       x1="2"
       y1="2"
       x2="31.333334"
       y2="31.333334"
       gradientUnits="userSpaceOnUse"
       gradientTransform="matrix(0.75,0,0,0.75,-0.5,-0.5)" />
    <linearGradient
       inkscape:collect="always"
       id="linearGradient1606">
      <stop
         style="stop-color:#eaebed;stop-opacity:1;"
         offset="0"
         id="stop1602" />
      <stop
         style="stop-color:#f9fafa;stop-opacity:1;"
         offset="1"
         id="stop1604" />
    </linearGradient>
    <linearGradient
       inkscape:collect="always"
       xlink:href="#linearGradient8412"
       id="linearGradient8414"
       x1="24.001926"
       y1="22.088457"
       x2="24"
       y2="8"
       gradientUnits="userSpaceOnUse"
       gradientTransform="matrix(0.5,0,0,0.5,-1.0009631,-1.0442286)" />
    <linearGradient
       inkscape:collect="always"
       id="linearGradient8412">
      <stop
         style="stop-color:#e15151;stop-opacity:1;"
         offset="0"
         id="stop8408" />
      <stop
         style="stop-color:#de6f44;stop-opacity:1;"
         offset="1"
         id="stop8410" />
    </linearGradient>
    <linearGradient
       inkscape:collect="always"
       xlink:href="#linearGradient8444"
       id="linearGradient8446"
       x1="24.000002"
       y1="26.089018"
       x2="24.001385"
       y2="40.08902"
       gradientUnits="userSpaceOnUse"
       gradientTransform="matrix(-0.5,0,0,-0.5,23.000691,32.044508)" />
    <linearGradient
       inkscape:collect="always"
       id="linearGradient8444">
      <stop
         style="stop-color:#38cb91;stop-opacity:1;"
         offset="0"
         id="stop8440" />
      <stop
         style="stop-color:#58d3b8;stop-opacity:1;"
         offset="1"
         id="stop8442" />
    </linearGradient>
    <linearGradient
       inkscape:collect="always"
       xlink:href="#linearGradient8468"
       id="linearGradient8470"
       x1="21.918306"
       y1="23.873423"
       x2="7.911603"
       y2="23.872734"
       gradientUnits="userSpaceOnUse"
       gradientTransform="matrix(-0.5,0,0,-0.5,13.959153,22.93671)" />
    <linearGradient
       inkscape:collect="always"
       id="linearGradient8468">
      <stop
         style="stop-color:#a730f3;stop-opacity:1;"
         offset="0"
         id="stop8464" />
      <stop
         style="stop-color:#bf6af6;stop-opacity:1;"
         offset="1"
         id="stop8466" />
    </linearGradient>
    <linearGradient
       inkscape:collect="always"
       xlink:href="#linearGradient8428"
       id="linearGradient8430"
       x1="25.911602"
       y1="23.872734"
       x2="39.9049"
       y2="23.872046"
       gradientUnits="userSpaceOnUse"
       gradientTransform="matrix(0.5,0,0,0.5,-0.95244934,-0.9360226)" />
    <linearGradient
       inkscape:collect="always"
       id="linearGradient8428">
      <stop
         style="stop-color:#f4cf3e;stop-opacity:1;"
         offset="0"
         id="stop8424" />
      <stop
         style="stop-color:#f4e83e;stop-opacity:1;"
         offset="1"
         id="stop8426" />
    </linearGradient>
    <linearGradient
       inkscape:collect="always"
       xlink:href="#linearGradient8460"
       id="linearGradient8462"
       x1="22.648438"
       y1="22.646482"
       x2="12.686291"
       y2="12.686292"
       gradientUnits="userSpaceOnUse"
       gradientTransform="matrix(0.5,0,0,0.5,-1,-1)" />
    <linearGradient
       inkscape:collect="always"
       id="linearGradient8460">
      <stop
         style="stop-color:#f079c8;stop-opacity:1;"
         offset="0"
         id="stop8456" />
      <stop
         style="stop-color:#f4a4c6;stop-opacity:1;"
         offset="1"
         id="stop8458" />
    </linearGradient>
    <linearGradient
       inkscape:collect="always"
       xlink:href="#linearGradient8452"
       id="linearGradient8454"
       x1="22.649128"
       y1="25.353025"
       x2="12.686291"
       y2="35.313709"
       gradientUnits="userSpaceOnUse"
       gradientTransform="matrix(0.5,0,0,0.5,-1,-1)" />
    <linearGradient
       inkscape:collect="always"
       id="linearGradient8452">
      <stop
         style="stop-color:#299de2;stop-opacity:1;"
         offset="0"
         id="stop8448" />
      <stop
         style="stop-color:#29b8e2;stop-opacity:0.80270439;"
         offset="1"
         id="stop8450" />
    </linearGradient>
    <linearGradient
       inkscape:collect="always"
       xlink:href="#linearGradient8420"
       id="linearGradient8422"
       x1="25.351564"
       y1="22.646484"
       x2="35.375973"
       y2="12.623395"
       gradientUnits="userSpaceOnUse"
       gradientTransform="matrix(0.5,0,0,0.5,-1,-1)" />
    <linearGradient
       inkscape:collect="always"
       id="linearGradient8420">
      <stop
         style="stop-color:#f4993e;stop-opacity:1;"
         offset="0"
         id="stop8416" />
      <stop
         style="stop-color:#f4b03e;stop-opacity:1;"
         offset="1"
         id="stop8418" />
    </linearGradient>
    <linearGradient
       inkscape:collect="always"
       xlink:href="#linearGradient8436"
       id="linearGradient8438"
       x1="25.351562"
       y1="25.353516"
       x2="35.313709"
       y2="35.313709"
       gradientUnits="userSpaceOnUse"
       gradientTransform="matrix(0.5,0,0,0.5,-1,-1)" />
    <linearGradient
       inkscape:collect="always"
       id="linearGradient8436">
      <stop
         style="stop-color:#80ce28;stop-opacity:1;"
         offset="0"
         id="stop8432" />
      <stop
         style="stop-color:#a5e166;stop-opacity:1;"
         offset="1"
         id="stop8434" />
    </linearGradient>
  </defs>
  <path
     id="path530"
     style="fill:url(#linearGradient3500);fill-opacity:1;stroke-width:0.750005;stroke-linecap:round;stroke-linejoin:round"
     d="M 9,1 C 2.174114,1 1,2.2048695 1,9 v 4 c 0,6.79513 1.174114,8 8,8 h 4 c 6.825886,0 8,-1.20487 8,-8 V 9 C 21,2.2048695 19.825886,1 13,1 Z"
     sodipodi:nodetypes="sssssssss" />
  <path
     id="path2526"
     style="opacity:0.85;fill:url(#linearGradient8414);fill-opacity:1;stroke-width:1.78885;stroke-linecap:round;stroke-linejoin:round"
     d="m 8.998833,6.45618 c 0.0072,1.173948 0.720004,2.204095 1.294061,2.836713 L 11,10 11.707107,9.292893 C 12.281141,8.661343 12.992621,7.632156 12.999096,6.455489 12.988306,4.4951175 10.99931,3 10.99931,3 c 0,0 -2.009246,1.4897175 -2.000477,3.45618 z"
     sodipodi:nodetypes="ccccccc" />
  <path
     id="path5218"
     style="opacity:0.85;fill:url(#linearGradient8446);fill-opacity:1;stroke-width:1.78885;stroke-linecap:round;stroke-linejoin:round"
     d="m 11.00069,18.999999 c 0,0 1.987787,-1.54592 1.999787,-3.5 -0.0072,-1.173964 -0.719311,-2.160277 -1.293371,-2.792894 L 11,11.999999 10.292893,12.707105 c -0.574079,0.631524 -1.285512,1.61605 -1.291989,2.792894 -8.5e-4,2.02886 1.999786,3.5 1.999786,3.5 z"
     sodipodi:nodetypes="ccccccc" />
  <path
     id="path6020"
     style="opacity:0.85;fill:url(#linearGradient8470);fill-opacity:1;stroke-width:1.78885;stroke-linecap:round;stroke-linejoin:round"
     d="m 6.499655,13.000821 c 1.173791,-0.0072 2.16395,-0.71935 2.79659,-1.293369 L 10.003352,11.000345 9.296245,10.293239 C 8.664717,9.719165 7.677179,9.007035 6.500345,9.00056 4.539974,9.01135 3,10.999999 3,10.999999 c 0,0 1.3852655,2.000132 3.499655,2.000822 z"
     sodipodi:nodetypes="ccccccc" />
  <path
     id="path3700"
     style="opacity:0.85;fill:url(#linearGradient8430);fill-opacity:1;stroke-width:1.78885;stroke-linecap:round;stroke-linejoin:round"
     d="m 15.500346,8.999868 c -1.17379,0.0072 -2.157247,0.719352 -2.789887,1.29337 -0.01311,0.01309 -0.766658,0.766224 -0.707108,0.707107 l 0.707108,0.707105 c 0.631527,0.574076 1.612363,1.286205 2.789196,1.292681 C 17.460027,12.989341 19,10.999999 19,10.999999 c 0,0 -1.61654,-2.003149 -3.499654,-2.000131 z"
     sodipodi:nodetypes="ccccccc" />
  <path
     id="path5983"
     style="opacity:0.85;fill:url(#linearGradient8462);fill-opacity:1;stroke-width:1.78885;stroke-linecap:round;stroke-linejoin:round"
     d="m 5.964844,5.311524 c -0.377593,6e-4 -0.62207,0.03125 -0.62207,0.03125 0,0 -0.312713,2.49942 1.060547,3.889648 0.835082,0.824889 2.067662,1.049365 2.920898,1.09082 h 1 v -1 C 10.283549,8.470766 10.059867,7.239921 9.232422,6.40332 8.274169,5.455558 6.795548,5.310166 5.964844,5.311524 Z"
     sodipodi:nodetypes="cccccccc" />
  <path
     id="path6781"
     style="opacity:0.85;fill:url(#linearGradient8454);fill-opacity:1;stroke-width:1.78885;stroke-linecap:round;stroke-linejoin:round"
     d="m 9.324219,11.676757 c -0.853236,0.04145 -2.085816,0.265931 -2.920898,1.09082 -1.37326,1.390228 -1.060547,3.889648 -1.060547,3.889648 0,0 2.495828,0.318017 3.889648,-1.060547 0.827443,-0.836602 1.051125,-2.067445 1.091796,-2.919921 v -1 z"
     sodipodi:nodetypes="ccccccc" />
  <path
     id="path3667"
     style="opacity:0.85;fill:url(#linearGradient8422);fill-opacity:1;stroke-width:1.78885;stroke-linecap:round;stroke-linejoin:round"
     d="m 16.036133,5.311524 c -0.830706,-0.0014 -2.309327,0.145011 -3.267579,1.092773 -0.827443,0.836602 -1.052101,2.066469 -1.092772,2.918945 0.0024,0.04647 0,1 0,1 h 1 c 0.85325,-0.04141 2.085684,-0.265801 2.920898,-1.09082 1.373259,-1.390228 1.060547,-3.888672 1.060547,-3.888672 0,0 -0.2435,-0.03161 -0.621093,-0.03223 z"
     sodipodi:nodetypes="sccccccss" />
  <path
     id="path4459"
     style="opacity:0.85;fill:url(#linearGradient8438);fill-opacity:1;stroke-width:1.78885;stroke-linecap:round;stroke-linejoin:round"
     d="m 11.675781,11.676757 v 1 c 0.04067,0.852476 0.264353,2.083318 1.091796,2.919921 1.39382,1.378563 3.889649,1.060547 3.889649,1.060547 0,0 0.312711,-2.49942 -1.060547,-3.889648 -0.835083,-0.824889 -2.067663,-1.049366 -2.920899,-1.09082 z"
     sodipodi:nodetypes="ccccccc" />
</svg>
