<?xml version="1.0" encoding="UTF-8" standalone="no"?>
<!-- Created with Inkscape (http://www.inkscape.org/) -->

<svg
   width="22"
   height="22"
   viewBox="0 0 22 22"
   version="1.1"
   id="svg5"
   inkscape:version="1.2.1 (9c6d41e410, 2022-07-14)"
   sodipodi:docname="naver-whale.svg"
   xmlns:inkscape="http://www.inkscape.org/namespaces/inkscape"
   xmlns:sodipodi="http://sodipodi.sourceforge.net/DTD/sodipodi-0.dtd"
   xmlns:xlink="http://www.w3.org/1999/xlink"
   xmlns="http://www.w3.org/2000/svg"
   xmlns:svg="http://www.w3.org/2000/svg">
  <sodipodi:namedview
     id="namedview7"
     pagecolor="#ffffff"
     bordercolor="#000000"
     borderopacity="0.25"
     inkscape:showpageshadow="2"
     inkscape:pageopacity="0.0"
     inkscape:pagecheckerboard="0"
     inkscape:deskcolor="#d1d1d1"
     inkscape:document-units="px"
     showgrid="false"
     inkscape:zoom="36.454545"
     inkscape:cx="10.986284"
     inkscape:cy="11"
     inkscape:window-width="1920"
     inkscape:window-height="1008"
     inkscape:window-x="0"
     inkscape:window-y="0"
     inkscape:window-maximized="1"
     inkscape:current-layer="svg5"
     showguides="true" />
  <defs
     id="defs2">
    <linearGradient
       inkscape:collect="always"
       xlink:href="#linearGradient1969"
       id="linearGradient3500"
       x1="15.333333"
       y1="2"
       x2="15.333333"
       y2="23.333334"
       gradientUnits="userSpaceOnUse"
       gradientTransform="matrix(0.75,0,0,0.75,-0.5,-0.5)" />
    <linearGradient
       inkscape:collect="always"
       id="linearGradient1969">
      <stop
         style="stop-color:#1b34a8;stop-opacity:1;"
         offset="0"
         id="stop1965" />
      <stop
         style="stop-color:#3683ae;stop-opacity:1"
         offset="1"
         id="stop1967" />
    </linearGradient>
    <linearGradient
       inkscape:collect="always"
       xlink:href="#linearGradient15319"
       id="linearGradient15327"
       x1="9.0688782"
       y1="25.661974"
       x2="9"
       y2="38.999268"
       gradientUnits="userSpaceOnUse"
       gradientTransform="matrix(0.53333034,0,0,0.53915191,-1.8002549,-2.0271648)" />
    <linearGradient
       inkscape:collect="always"
       id="linearGradient15319">
      <stop
         style="stop-color:#00dcb4;stop-opacity:1;"
         offset="0"
         id="stop15315" />
      <stop
         style="stop-color:#1f9ea2;stop-opacity:1;"
         offset="1"
         id="stop15317" />
    </linearGradient>
    <linearGradient
       inkscape:collect="always"
       xlink:href="#linearGradient17511"
       id="linearGradient17513"
       x1="38.999996"
       y1="24.000418"
       x2="38.999996"
       y2="39.000496"
       gradientUnits="userSpaceOnUse"
       gradientTransform="matrix(0.53333034,0,0,0.53915191,-1.8002549,-2.0271648)" />
    <linearGradient
       inkscape:collect="always"
       id="linearGradient17511">
      <stop
         style="stop-color:#e4e5e7;stop-opacity:1;"
         offset="0"
         id="stop17507" />
      <stop
         style="stop-color:#c1c1c5;stop-opacity:1;"
         offset="1"
         id="stop17509" />
    </linearGradient>
    <linearGradient
       inkscape:collect="always"
       xlink:href="#linearGradient10097"
       id="linearGradient15313"
       x1="9.0688782"
       y1="25.661974"
       x2="9.0184727"
       y2="38.999268"
       gradientUnits="userSpaceOnUse"
       gradientTransform="matrix(0.53333034,0,0,0.53915191,-1.8002549,-2.0271648)" />
    <linearGradient
       inkscape:collect="always"
       id="linearGradient10097">
      <stop
         style="stop-color:#00dcb4;stop-opacity:1;"
         offset="0"
         id="stop10093" />
      <stop
         style="stop-color:#0baeb5;stop-opacity:1"
         offset="1"
         id="stop10095" />
    </linearGradient>
  </defs>
  <path
     id="path530"
     style="fill:url(#linearGradient3500);fill-opacity:1;stroke-width:0.750005;stroke-linecap:round;stroke-linejoin:round"
     d="M 9,1 C 2.174114,1 1,2.2048695 1,9 v 4 c 0,6.79513 1.174114,8 8,8 h 4 c 6.825886,0 8,-1.20487 8,-8 V 9 C 21,2.2048695 19.825886,1 13,1 Z"
     sodipodi:nodetypes="sssssssss" />
  <path
     d="m 10.722702,4 c -0.157189,0 -0.284615,0.1274268 -0.284615,0.2846154 0,0.1571885 0.127426,0.2846153 0.284615,0.2846153 0.157188,0 0.284615,-0.1274268 0.284615,-0.2846153 C 11.007317,4.1274268 10.87989,4 10.722702,4 Z m 2.134615,0.8538461 c -0.07859,0 -0.142307,0.063713 -0.142307,0.1423078 0,0.078594 0.06371,0.1423077 0.142307,0.1423077 0.07859,0 0.142308,-0.063713 0.142308,-0.1423077 0,-0.078594 -0.06371,-0.1423078 -0.142308,-0.1423078 z M 7.6519688,6.4420222 c -0.032998,-1.48e-4 -0.059877,0.02648 -0.060036,0.05948 -1.486e-4,0.033221 0.026816,0.060185 0.060036,0.060036 0.032998,-1.593e-4 0.059628,-0.027033 0.05948,-0.060036 -1.582e-4,-0.032782 -0.026697,-0.059322 -0.05948,-0.05948 z m 2.3591942,0.1195162 c -0.078594,0 -0.1423074,0.063713 -0.1423074,0.1423077 0,0.078594 0.063713,0.1423078 0.1423074,0.1423078 0.07859,0 0.142308,-0.063713 0.142308,-0.1423078 0,-0.078594 -0.06371,-0.1423077 -0.142308,-0.1423077 z M 7.5380111,6.7266376 c -0.033004,-1.48e-4 -0.059877,0.02648 -0.060036,0.05948 -1.486e-4,0.033221 0.026816,0.060185 0.060036,0.060036 0.032998,-1.595e-4 0.059628,-0.027033 0.05948,-0.060036 -1.583e-4,-0.032782 -0.026697,-0.059322 -0.05948,-0.05948 z M 5.7419326,6.8461539 c -0.078594,0 -0.1423077,0.063713 -0.1423077,0.1423077 0,0.078594 0.063713,0.1423076 0.1423077,0.1423076 0.078594,0 0.1423077,-0.063713 0.1423077,-0.1423076 0,-0.078594 -0.063713,-0.1423077 -0.1423077,-0.1423077 z M 7.0227018,7.67165 c -0.1571885,0 -0.2846154,0.1274269 -0.2846154,0.2846154 0,0.1571885 0.1274269,0.2846154 0.2846154,0.2846154 0.1571885,0 0.2846154,-0.1274269 0.2846154,-0.2846154 0,-0.1571885 -0.1274269,-0.2846154 -0.2846154,-0.2846154 z"
     style="fill:#ffffff;stroke-width:0.284616"
     id="path40148" />
  <path
     d="m 18.999626,10.912706 c 0,4.466505 -3.58172,8.087321 -7.999996,8.087321 -1.2899728,0 -2.508635,-0.308647 -3.587667,-0.856874 0.336512,-1.744552 0.775848,-3.234118 1.282788,-4.505884 0.586256,-1.470749 1.813207,-0.475368 2.525819,-1.421073 1.141425,-1.514778 1.824782,-4.6046659 2.926781,-5.1563559 1.362074,-0.681888 3.292093,-0.954311 3.292093,-0.954311 l 0.08712,0.129648 c 0.08464,0.120474 0.166091,0.243392 0.244238,0.368628 0.778409,1.247449 1.228823,2.725001 1.228823,4.3089009 z"
     style="fill:url(#linearGradient17513);fill-opacity:1;stroke-width:0.28727"
     id="path405"
     sodipodi:nodetypes="sscsssccsss" />
  <path
     id="path372"
     style="fill:url(#linearGradient15327);fill-opacity:1;stroke-width:0.28727"
     d="M 16.628531,6 C 15.590863,6.000138 14.474572,6.3051713 13.548453,6.7480469 12.755111,7.1274275 11.980475,7.7837775 10.480094,8.9882812 9.3700768,9.8794018 8.6242284,10.186609 7.9097811,10.328125 7.6278404,10.383965 7.0599384,10.371364 6.7613437,10.302734 5.4850279,10.009423 4.5055945,9.0436589 4.3238437,7.7226562 4.2682937,7.3189357 4.3060706,6.7718648 4.4156405,6.4082031 4.4385505,6.3321532 4.4539336,6.2668667 4.4488437,6.2617188 4.4336837,6.2463988 4.1171205,6.7508713 3.9664218,7.03125 3.513318,7.8742602 3.2313561,8.716503 3.0757968,9.6875 c -0.081751,0.510279 -0.1014236,1.574963 -0.039063,2.121094 0.2142192,1.876084 1.0599624,3.62383 2.3769531,4.912109 l 0.2128906,0.208985 -0.1757812,0.166015 c -0.6927713,0.646185 -1.570562,1.195323 -2.4121094,1.509766 -0.047257,0.01765 -0.039826,0.02434 0.054687,0.05859 0.34099,0.12358 1.0555644,0.270425 1.5605469,0.31836 0.4000616,0.03798 1.1209406,0.01174 1.5039062,-0.05469 0.4746056,-0.08232 0.9098241,-0.207088 1.3535157,-0.384765 L 8.150015,18.246089 c 0.7964882,-0.41586 1.625199,-1.104973 2.101563,-1.748047 0.622249,-0.840013 1.411818,-2.493436 2.271484,-4.759766 0.414515,-1.092782 0.602659,-1.54359 0.884766,-2.1152341 0.394893,-0.8001892 0.7934,-1.4059348 1.197266,-1.8183594 0.639575,-0.6531283 1.673814,-1.3593706 2.671875,-1.6308594 l 0.154297,-0.0625 -0.0039,-0.00781 -0.359375,-0.087891 C 16.923818,6.005395 16.776769,5.99998 16.628531,6 Z m -5.154297,4 c 0.0085,-4.32e-4 0.01676,0 0.02539,0 0.276142,0 0.5,0.223858 0.5,0.5 0,0.276142 -0.223858,0.5 -0.5,0.5 -0.276142,0 -0.5,-0.223858 -0.5,-0.5 0,-0.267513 0.210425,-0.486608 0.474609,-0.5 z" />
  <path
     id="path5945"
     style="fill:url(#linearGradient15313);fill-opacity:1;stroke-width:0.28727"
     d="m 8.333022,13.069089 c -0.647391,2.014864 -1.989766,3.167136 -2.706235,3.860412 l -0.176041,0.165326 c -0.173193,0.161546 -0.35814,0.317095 -0.551038,0.464387 -0.192899,0.14729 -0.39329,0.286178 -0.598955,0.414893 -2.47e-4,1.55e-4 -7.96e-4,-1.53e-4 -0.001,0 -0.4110991,0.257223 -0.8409386,0.473643 -1.2614513,0.630766 -0.011815,0.0044 -0.020577,0.0078 -0.025,0.01159 -0.00442,0.0038 -0.00499,0.0073 -0.00104,0.01159 0.0079,0.0086 0.033993,0.01973 0.08125,0.03686 0.3409903,0.123579 1.0554253,0.269027 1.5604073,0.316963 0.400063,0.03798 1.121192,0.01167 1.504159,-0.05476 0.474606,-0.08232 0.909426,-0.205626 1.353117,-0.383303 l 0.63958,-0.298009 c 0.796489,-0.41586 1.6246652,-1.104956 2.10103,-1.748031 0.492406,-0.664729 1.090033,-1.844635 1.74374,-3.428669 z" />
</svg>
