<?xml version="1.0" encoding="UTF-8" standalone="no"?>
<!-- Created with Inkscape (http://www.inkscape.org/) -->

<svg
   width="22"
   height="22"
   viewBox="0 0 22 22"
   version="1.1"
   id="svg5"
   inkscape:version="1.2.1 (9c6d41e410, 2022-07-14)"
   sodipodi:docname="nextcloud.svg"
   xmlns:inkscape="http://www.inkscape.org/namespaces/inkscape"
   xmlns:sodipodi="http://sodipodi.sourceforge.net/DTD/sodipodi-0.dtd"
   xmlns="http://www.w3.org/2000/svg"
   xmlns:svg="http://www.w3.org/2000/svg">
  <sodipodi:namedview
     id="namedview7"
     pagecolor="#ffffff"
     bordercolor="#000000"
     borderopacity="0.25"
     inkscape:showpageshadow="2"
     inkscape:pageopacity="0.0"
     inkscape:pagecheckerboard="0"
     inkscape:deskcolor="#d1d1d1"
     inkscape:document-units="px"
     showgrid="false"
     inkscape:zoom="36.727273"
     inkscape:cx="11"
     inkscape:cy="11"
     inkscape:window-width="1920"
     inkscape:window-height="1011"
     inkscape:window-x="0"
     inkscape:window-y="32"
     inkscape:window-maximized="1"
     inkscape:current-layer="svg5"
     showguides="true" />
  <defs
     id="defs2" />
  <path
     id="path530"
     style="fill:#0082c9;fill-opacity:1;stroke-width:0.750005;stroke-linecap:round;stroke-linejoin:round"
     d="M 9,1 C 2.174114,1 1,2.2048695 1,9 v 4 c 0,6.79513 1.174114,8 8,8 h 4 c 6.825886,0 8,-1.20487 8,-8 V 9 C 21,2.2048695 19.825886,1 13,1 Z"
     sodipodi:nodetypes="sssssssss" />
  <path
     id="path4471"
     style="fill:#ffffff;fill-opacity:1;stroke-width:4;stroke-linecap:round;stroke-linejoin:round"
     d="M 11 7 A 4 4 0 0 0 7.8085938 8.6054688 C 7.3057794 8.2250605 6.6791048 8 6 8 C 4.3431492 8 3 9.3431492 3 11 C 3 12.65685 4.3431492 14 6 14 C 6.6791048 14 7.3057794 13.77494 7.8085938 13.394531 A 4 4 0 0 0 11 15 A 4 4 0 0 0 14.191406 13.394531 C 14.694221 13.77494 15.320895 14 16 14 C 17.65685 14 19 12.65685 19 11 C 19 9.3431492 17.65685 8 16 8 C 15.324391 8 14.700709 8.2227464 14.199219 8.5996094 A 4 4 0 0 0 11 7 z M 11 9 A 2 2 0 0 1 13 11 A 2 2 0 0 1 11 13 A 2 2 0 0 1 9 11 A 2 2 0 0 1 11 9 z M 6 10 A 1 1 0 0 1 7 11 A 1 1 0 0 1 6 12 A 1 1 0 0 1 5 11 A 1 1 0 0 1 6 10 z M 16 10 A 1 1 0 0 1 17 11 A 1 1 0 0 1 16 12 A 1 1 0 0 1 15 11 A 1 1 0 0 1 16 10 z " />
</svg>
