<?xml version="1.0" encoding="UTF-8" standalone="no"?>
<!-- Created with Inkscape (http://www.inkscape.org/) -->

<svg
   width="22"
   height="22"
   viewBox="0 0 22 22"
   version="1.1"
   id="svg5"
   inkscape:version="1.2.1 (9c6d41e410, 2022-07-14)"
   sodipodi:docname="nvidia.svg"
   xmlns:inkscape="http://www.inkscape.org/namespaces/inkscape"
   xmlns:sodipodi="http://sodipodi.sourceforge.net/DTD/sodipodi-0.dtd"
   xmlns:xlink="http://www.w3.org/1999/xlink"
   xmlns="http://www.w3.org/2000/svg"
   xmlns:svg="http://www.w3.org/2000/svg">
  <sodipodi:namedview
     id="namedview7"
     pagecolor="#ffffff"
     bordercolor="#000000"
     borderopacity="0.25"
     inkscape:showpageshadow="2"
     inkscape:pageopacity="0.0"
     inkscape:pagecheckerboard="0"
     inkscape:deskcolor="#d1d1d1"
     inkscape:document-units="px"
     showgrid="false"
     inkscape:zoom="18"
     inkscape:cx="15.194444"
     inkscape:cy="18.333333"
     inkscape:window-width="1920"
     inkscape:window-height="1004"
     inkscape:window-x="0"
     inkscape:window-y="0"
     inkscape:window-maximized="1"
     inkscape:current-layer="svg5"
     showguides="true" />
  <defs
     id="defs2">
    <linearGradient
       inkscape:collect="always"
       xlink:href="#linearGradient1270"
       id="linearGradient1272"
       x1="12.600392"
       y1="19.078093"
       x2="26.892296"
       y2="33.369995"
       gradientUnits="userSpaceOnUse"
       gradientTransform="matrix(1.3993937,0,0,1.3993937,-16.63291,-25.697762)" />
    <linearGradient
       inkscape:collect="always"
       id="linearGradient1270">
      <stop
         style="stop-color:#80d935;stop-opacity:1;"
         offset="0"
         id="stop1266" />
      <stop
         style="stop-color:#afd65f;stop-opacity:1;"
         offset="1"
         id="stop1268" />
    </linearGradient>
    <linearGradient
       inkscape:collect="always"
       xlink:href="#linearGradient1768"
       id="linearGradient3500"
       x1="2"
       y1="2"
       x2="28.666666"
       y2="28.666666"
       gradientUnits="userSpaceOnUse"
       gradientTransform="matrix(0.75,0,0,0.75,-0.50000001,-0.5)" />
    <linearGradient
       inkscape:collect="always"
       id="linearGradient1768">
      <stop
         style="stop-color:#333333;stop-opacity:1;"
         offset="0"
         id="stop1764" />
      <stop
         style="stop-color:#6a6a6a;stop-opacity:1;"
         offset="1"
         id="stop1766" />
    </linearGradient>
  </defs>
  <path
     id="path530"
     style="fill:url(#linearGradient3500);fill-opacity:1;stroke-width:0.750005;stroke-linecap:round;stroke-linejoin:round"
     d="M 9,1 C 2.174114,1 1,2.2048695 1,9 v 4 c 0,6.79513 1.174114,8 8,8 h 4 c 6.825886,0 8,-1.20487 8,-8 V 9 C 21,2.2048695 19.825886,1 13,1 Z"
     sodipodi:nodetypes="sssssssss" />
  <path
     id="path353"
     style="fill:url(#linearGradient1272);fill-opacity:1;stroke-width:1.39939"
     d="m 10,1 v 6.3320312 c 3.329698,-0.03179 5.492188,2.8183598 5.492188,2.8183598 0,0 -2.552643,3.125 -5.210938,3.125 -0.24364,0 -0.06699,-0.02232 -0.28125,-0.06055 v 0.833984 c 0.1832,0.0234 -0.03218,0.03711 0.166016,0.03711 2.473794,0 4.263997,-1.272801 5.996093,-2.779297 0.28722,0.231759 1.46328,0.79612 1.705079,1.042968 -1.647097,1.389398 -5.486114,2.509766 -7.66211,2.509766 -0.20977,0 -0.0071,-0.01395 -0.205078,-0.0332 V 21 h 3 c 6.825879,0 8,-1.204877 8,-8 V 9 C 21,2.2048763 19.825879,1 13,1 Z m 0,13.826172 V 14.048828 C 6.9725059,13.66483 5.53125,10.302734 5.53125,10.302734 c 0,0 1.7609556,-2.0161092 4.46875,-2.224609 v 0.00195 0.9023438 c 0.1604,-0.0172 -0.08086,-0.029297 0.08984,-0.029297 1.570696,0 2.501953,1.2304692 2.501953,1.2304692 l -1.275391,1.085937 C 10.742509,10.305683 10.954548,9.879882 10,9.763672 v 2.738281 C 8.7101112,12.065355 7.8867188,10.548828 7.8867188,10.548828 c 0,0 1.1517272,-0.900937 2.1093752,-0.785156 H 10 V 8.9824219 C 8.1754037,9.181222 6.671875,10.408203 6.671875,10.408203 c 0,0 1.0399292,2.395641 3.328125,2.806641 v -0.710938 c 0.216351,0.0733 0.0522,0.115235 0.320312,0.115235 1.862897,0 3.59961,-2.429688 3.59961,-2.429688 0,0 -1.547175,-2.1167899 -3.919922,-2.1249999 v 0.011719 c -0.0497,-0.0039 -0.20728,-0.00757 -0.140625,-0.00977 0.04716,-0.0015 0.0941,-0.00205 0.140625,-0.00195 V 7.3476562 C 7.0004049,7.5901561 3.9980469,10.148438 3.9980469,10.148438 c 0,0 1.8764611,4.285334 6.0019531,4.677734 z m 0,-7.4941408 c -0.0469,4.48e-4 -0.09327,-0.0016 -0.140625,0 -0.0658,0.0023 0.09131,0.0072 0.140625,0.011719 z" />
</svg>
