<?xml version="1.0" encoding="UTF-8" standalone="no"?>
<!-- Created with Inkscape (http://www.inkscape.org/) -->

<svg
   width="22"
   height="22"
   viewBox="0 0 22 22"
   version="1.1"
   id="svg5"
   inkscape:version="1.2.1 (9c6d41e410, 2022-07-14)"
   sodipodi:docname="polari.svg"
   xmlns:inkscape="http://www.inkscape.org/namespaces/inkscape"
   xmlns:sodipodi="http://sodipodi.sourceforge.net/DTD/sodipodi-0.dtd"
   xmlns:xlink="http://www.w3.org/1999/xlink"
   xmlns="http://www.w3.org/2000/svg"
   xmlns:svg="http://www.w3.org/2000/svg">
  <sodipodi:namedview
     id="namedview7"
     pagecolor="#ffffff"
     bordercolor="#000000"
     borderopacity="0.25"
     inkscape:showpageshadow="2"
     inkscape:pageopacity="0.0"
     inkscape:pagecheckerboard="0"
     inkscape:deskcolor="#d1d1d1"
     inkscape:document-units="px"
     showgrid="false"
     inkscape:zoom="33"
     inkscape:cx="11.984848"
     inkscape:cy="12"
     inkscape:window-width="1920"
     inkscape:window-height="1004"
     inkscape:window-x="0"
     inkscape:window-y="0"
     inkscape:window-maximized="1"
     inkscape:current-layer="svg5"
     showguides="true" />
  <defs
     id="defs2">
    <linearGradient
       inkscape:collect="always"
       xlink:href="#linearGradient2742"
       id="linearGradient3500"
       x1="28.666666"
       y1="28.666666"
       x2="2"
       y2="2"
       gradientUnits="userSpaceOnUse"
       gradientTransform="matrix(0.75,0,0,0.75,-0.5,-0.5)" />
    <linearGradient
       inkscape:collect="always"
       id="linearGradient2742">
      <stop
         style="stop-color:#8be65c;stop-opacity:1;"
         offset="0"
         id="stop2738" />
      <stop
         style="stop-color:#1ccd6b;stop-opacity:1;"
         offset="1"
         id="stop2740" />
    </linearGradient>
  </defs>
  <path
     id="path530"
     style="fill:url(#linearGradient3500);fill-opacity:1;stroke-width:0.750005;stroke-linecap:round;stroke-linejoin:round"
     d="M 9,1 C 2.174114,1 1,2.2048695 1,9 v 4 c 0,6.79513 1.174114,8 8,8 h 4 c 6.825886,0 8,-1.20487 8,-8 V 9 C 21,2.2048695 19.825886,1 13,1 Z"
     sodipodi:nodetypes="sssssssss" />
  <rect
     style="fill:#3bbd1e;fill-opacity:1;stroke-width:1.30542;stroke-linecap:round;stroke-linejoin:round"
     id="rect2744"
     width="8"
     height="9"
     x="6.5"
     y="5.5" />
  <path
     id="rect1798"
     style="fill:#ffffff;stroke-width:2;stroke-linecap:round;stroke-linejoin:round"
     d="M 5,5 C 4.4460016,5 4,5.4460018 4,6 v 12 c 1.74e-4,0.445319 0.5385189,0.668292 0.8535156,0.353516 L 8,15 h 9 c 0.553997,0 1,-0.446003 1,-1 V 6 C 18,5.4460018 17.553997,5 17,5 Z m 4,1 h 1 L 9.75,8 h 2 L 12,6 h 1 L 12.75,8 H 14 v 1 h -1.375 l -0.25,2 H 14 v 1 H 12.25 L 12,14 h -1 l 0.25,-2 h -2 L 9,14 H 8 L 8.25,12 H 7 V 11 H 8.375 L 8.625,9 H 7 V 8 h 1.75 z m 0.625,3 -0.25,2 h 2 l 0.25,-2 z" />
</svg>
