<?xml version="1.0" encoding="UTF-8" standalone="no"?>
<!-- Created with Inkscape (http://www.inkscape.org/) -->

<svg
   width="22"
   height="22"
   viewBox="0 0 22 22"
   version="1.1"
   id="svg5"
   inkscape:version="1.2.1 (9c6d41e410, 2022-07-14)"
   sodipodi:docname="preferences-system-network.svg"
   xmlns:inkscape="http://www.inkscape.org/namespaces/inkscape"
   xmlns:sodipodi="http://sodipodi.sourceforge.net/DTD/sodipodi-0.dtd"
   xmlns:xlink="http://www.w3.org/1999/xlink"
   xmlns="http://www.w3.org/2000/svg"
   xmlns:svg="http://www.w3.org/2000/svg">
  <sodipodi:namedview
     id="namedview7"
     pagecolor="#ffffff"
     bordercolor="#000000"
     borderopacity="0.25"
     inkscape:showpageshadow="2"
     inkscape:pageopacity="0.0"
     inkscape:pagecheckerboard="0"
     inkscape:deskcolor="#d1d1d1"
     inkscape:document-units="px"
     showgrid="false"
     inkscape:zoom="9.7272727"
     inkscape:cx="14.598131"
     inkscape:cy="7.9158878"
     inkscape:window-width="1920"
     inkscape:window-height="1014"
     inkscape:window-x="0"
     inkscape:window-y="32"
     inkscape:window-maximized="1"
     inkscape:current-layer="svg5"
     showguides="false" />
  <defs
     id="defs2">
    <linearGradient
       inkscape:collect="always"
       xlink:href="#linearGradient1333"
       id="linearGradient3500"
       x1="28.666666"
       y1="28.666666"
       x2="2"
       y2="2"
       gradientUnits="userSpaceOnUse"
       gradientTransform="matrix(0.75,0,0,0.75,-0.5,-0.5)" />
    <linearGradient
       gradientTransform="matrix(0,0.38827527,0.38827527,0,2.2252002,1.4921281)"
       gradientUnits="userSpaceOnUse"
       xlink:href="#linearGradient1176"
       id="j"
       y2="23"
       x2="47.5"
       y1="23"
       x1="3.5" />
    <linearGradient
       inkscape:collect="always"
       id="linearGradient1176">
      <stop
         style="stop-color:#ffffff;stop-opacity:1;"
         offset="0"
         id="stop1172" />
      <stop
         style="stop-color:#ffffff;stop-opacity:0;"
         offset="1"
         id="stop1174" />
    </linearGradient>
    <linearGradient
       gradientTransform="matrix(0.27455209,-0.27455209,-0.27455209,-0.27455209,10.661601,25.116565)"
       gradientUnits="userSpaceOnUse"
       xlink:href="#linearGradient1176"
       id="l"
       y2="24.414"
       x2="2.8729999"
       y1="25.827999"
       x1="48.126999" />
    <linearGradient
       gradientTransform="matrix(0.38827527,0,0,-0.38827527,1.7186748,20.695937)"
       gradientUnits="userSpaceOnUse"
       xlink:href="#linearGradient1176"
       id="m"
       y2="23"
       x2="47.5"
       y1="23"
       x1="4.4899998" />
    <linearGradient
       gradientTransform="matrix(0.27455209,0.27455209,-0.27455209,0.27455209,10.933802,-1.5507515)"
       gradientUnits="userSpaceOnUse"
       xlink:href="#linearGradient1176"
       id="k"
       y2="27.243"
       x2="4.2870002"
       y1="23.707001"
       x1="46.006001" />
    <linearGradient
       inkscape:collect="always"
       id="linearGradient1333">
      <stop
         style="stop-color:#b491dd;stop-opacity:1;"
         offset="0"
         id="stop1329" />
      <stop
         style="stop-color:#7253e1;stop-opacity:1;"
         offset="1"
         id="stop1331" />
    </linearGradient>
  </defs>
  <path
     id="path530"
     style="fill:url(#linearGradient3500);fill-opacity:1.0;stroke-width:0.750005;stroke-linecap:round;stroke-linejoin:round"
     d="M 9,1 C 2.174114,1 1,2.2048695 1,9 v 4 c 0,6.79513 1.174114,8 8,8 h 4 c 6.825886,0 8,-1.20487 8,-8 V 9 C 21,2.2048695 19.825886,1 13,1 Z"
     sodipodi:nodetypes="sssssssss" />
  <path
     style="color:#000000;opacity:0.8;fill:url(#j);fill-opacity:1;stroke-linecap:round;stroke-linejoin:round"
     d="m 11.144141,2.5448408 a 0.5,0.5 0 0 0 -0.498047,0.5039062 0.5,0.5 0 0 0 0.501953,0.4960938 c 0.730983,-0.00374 1.400037,0.56347 1.96875,1.6738281 0.568714,1.1103581 0.972027,2.695354 1.140625,4.4023443 0.337197,3.4139788 -0.316046,7.3106478 -1.902343,8.9902338 a 0.5,0.5 0 0 0 0.01953,0.707031 0.5,0.5 0 0 0 0.707031,-0.01953 c 1.990878,-2.10796 2.5254,-6.176321 2.169922,-9.7753898 C 15.073824,7.7238215 14.660571,6.0406618 14.005469,4.7616376 13.350367,3.4826135 12.387795,2.5384761 11.144141,2.5448408 Z"
     id="path105" />
  <path
     style="color:#000000;opacity:0.8;fill:url(#k);fill-opacity:1;stroke-linecap:round;stroke-linejoin:round"
     d="M 5.210722,6.6846101 A 0.5,0.5 0 0 0 4.6755657,7.1475007 c -0.1024332,1.4315157 0.4990689,2.9781663 1.4472657,4.4765623 0.9481967,1.498396 2.2608922,2.951907 3.6816411,4.158203 1.4207485,1.206296 2.9447325,2.166459 4.3554685,2.650391 1.410736,0.483931 2.808205,0.497462 3.716797,-0.410156 a 0.5,0.5 0 0 0 0,-0.708985 0.5,0.5 0 0 0 -0.707031,0 c -0.53884,0.538262 -1.453283,0.594585 -2.685547,0.171875 C 13.251896,17.062682 11.80042,16.166318 10.450957,15.020548 9.1014932,13.874777 7.8474504,12.480908 6.9665814,11.088907 6.0857123,9.6969064 5.5956086,8.3098814 5.6736126,7.2197663 A 0.5,0.5 0 0 0 5.210722,6.6846101 Z"
     id="path109" />
  <path
     style="color:#000000;opacity:0.8;fill:url(#l);fill-opacity:1;stroke-linecap:round;stroke-linejoin:round"
     d="M 16.411177,4.8994538 C 15.860932,4.7752485 15.242241,4.8040363 14.616255,4.9463288 13.364283,5.230914 11.984435,5.944327 10.63188,6.9209382 7.9267698,8.8741607 5.3329471,11.871098 4.5713329,14.854532 A 0.5,0.5 0 0 0 4.932661,15.461954 0.5,0.5 0 0 0 5.5400829,15.100626 C 6.2034808,12.50193 8.6646281,9.5736034 11.215865,7.7314851 c 1.275618,-0.921059 2.574212,-1.5721369 3.623047,-1.8105469 1.048834,-0.2384099 1.747984,-0.095461 2.160156,0.4472656 a 0.5,0.5 0 0 0 0.701172,0.095703 0.5,0.5 0 0 0 0.0957,-0.6992188 C 17.443709,5.3008857 16.961422,5.0236592 16.411177,4.8994538 Z"
     id="path113" />
  <path
     style="color:#000000;fill:url(#m);fill-opacity:1;stroke-linecap:round;stroke-linejoin:round"
     d="M 9.0915814,7.745157 C 7.3709674,7.9796189 5.8006264,8.4336751 4.6365032,9.1142974 3.4723801,9.7949204 2.6561146,10.790182 2.7829876,11.989298 A 0.5,0.5 0 0 0 3.3337689,12.43461 0.5,0.5 0 0 0 3.7790814,11.885782 C 3.7045847,11.181691 4.1536634,10.555637 5.1423626,9.9775794 6.1310619,9.3995204 7.6011871,8.9571122 9.2283001,8.7353914 12.482527,8.2919496 16.370918,8.7539847 18.439238,10.239298 A 0.5,0.5 0 0 0 19.136504,10.124063 0.5,0.5 0 0 0 19.021269,9.4267974 C 16.570241,7.6666523 12.53281,7.2762332 9.0915814,7.745157 Z"
     id="path117" />
  <circle
     style="fill:#ffffff;stroke-linecap:round;stroke-linejoin:round"
     id="path1543"
     cx="5"
     cy="6"
     r="1" />
  <circle
     style="fill:#ffffff;stroke-linecap:round;stroke-linejoin:round"
     id="path2271"
     cx="19"
     cy="10"
     r="1" />
  <circle
     style="fill:#ffffff;stroke-linecap:round;stroke-linejoin:round"
     id="path2273"
     cx="5"
     cy="15"
     r="1" />
  <circle
     style="fill:#ffffff;stroke-linecap:round;stroke-linejoin:round"
     id="path2275"
     cx="13"
     cy="19"
     r="1" />
</svg>
