<?xml version="1.0" encoding="UTF-8" standalone="no"?>
<!-- Created with Inkscape (http://www.inkscape.org/) -->

<svg
   width="22"
   height="22"
   viewBox="0 0 22 22"
   version="1.1"
   id="svg5"
   inkscape:version="1.2.1 (9c6d41e410, 2022-07-14)"
   sodipodi:docname="preferences-system-windows.svg"
   xmlns:inkscape="http://www.inkscape.org/namespaces/inkscape"
   xmlns:sodipodi="http://sodipodi.sourceforge.net/DTD/sodipodi-0.dtd"
   xmlns:xlink="http://www.w3.org/1999/xlink"
   xmlns="http://www.w3.org/2000/svg"
   xmlns:svg="http://www.w3.org/2000/svg">
  <sodipodi:namedview
     id="namedview7"
     pagecolor="#ffffff"
     bordercolor="#000000"
     borderopacity="0.25"
     inkscape:showpageshadow="2"
     inkscape:pageopacity="0.0"
     inkscape:pagecheckerboard="0"
     inkscape:deskcolor="#d1d1d1"
     inkscape:document-units="px"
     showgrid="false"
     inkscape:zoom="26.291516"
     inkscape:cx="12.513542"
     inkscape:cy="12.817823"
     inkscape:window-width="1920"
     inkscape:window-height="1004"
     inkscape:window-x="0"
     inkscape:window-y="0"
     inkscape:window-maximized="1"
     inkscape:current-layer="svg5"
     showguides="false" />
  <defs
     id="defs2">
    <linearGradient
       inkscape:collect="always"
       xlink:href="#linearGradient1217"
       id="linearGradient3500"
       x1="2"
       y1="2"
       x2="31.333334"
       y2="31.333334"
       gradientUnits="userSpaceOnUse"
       gradientTransform="matrix(0.75,0,0,0.75,-0.5,-0.5)" />
    <linearGradient
       inkscape:collect="always"
       id="linearGradient1217">
      <stop
         style="stop-color:#96a3ad;stop-opacity:1;"
         offset="0"
         id="stop1213" />
      <stop
         style="stop-color:#c4c8cd;stop-opacity:1;"
         offset="1"
         id="stop1215" />
    </linearGradient>
  </defs>
  <path
     id="path530"
     style="fill:url(#linearGradient3500);fill-opacity:1.0;stroke-width:0.750005;stroke-linecap:round;stroke-linejoin:round"
     d="M 9,1 C 2.174114,1 1,2.2048695 1,9 v 4 c 0,6.79513 1.174114,8 8,8 h 4 c 6.825886,0 8,-1.20487 8,-8 V 9 C 21,2.2048695 19.825886,1 13,1 Z"
     sodipodi:nodetypes="sssssssss" />
  <rect
     style="opacity:0.1;fill:#000000;fill-opacity:1;stroke-width:3;stroke-linecap:round;stroke-linejoin:round"
     id="rect2588"
     width="12"
     height="10"
     x="3"
     y="4"
     ry="2" />
  <rect
     style="fill:#eaeaea;stroke-width:2.25;stroke-linecap:round;stroke-linejoin:round;fill-opacity:1"
     id="rect598"
     width="10"
     height="8"
     x="4"
     y="5"
     ry="1" />
  <path
     id="rect1268"
     style="fill:#7e8593;fill-opacity:1;stroke-width:3;stroke-linecap:round;stroke-linejoin:round"
     d="m 5,5 h 8 c 0.554,0 1,0.446 1,0.9999995 V 7 H 4 V 5.9999995 C 4,5.446 4.446,5 5,5 Z"
     sodipodi:nodetypes="sssccss" />
  <rect
     style="opacity:0.1;fill:#000000;fill-opacity:1;stroke-width:3;stroke-linecap:round;stroke-linejoin:round"
     id="rect2630-3"
     width="12"
     height="10"
     x="7"
     y="8"
     ry="2" />
  <rect
     style="fill:#ffffff;fill-opacity:1;stroke-width:2.25;stroke-linecap:round;stroke-linejoin:round"
     id="rect652"
     width="10"
     height="8"
     x="8"
     y="8.999999"
     ry="1" />
  <path
     d="m 9,8.999999 h 8 c 0.554,0 1,0.445999 1,0.999999 V 11 H 8 V 9.999998 c 0,-0.554 0.446,-1 1,-0.999999 z"
     style="fill:#6e7584;fill-opacity:1;stroke-width:3;stroke-linecap:round;stroke-linejoin:round"
     id="path2537"
     sodipodi:nodetypes="cssccsc" />
</svg>
