<?xml version="1.0" encoding="UTF-8" standalone="no"?>
<!-- Created with Inkscape (http://www.inkscape.org/) -->

<svg
   width="22"
   height="22"
   viewBox="0 0 22 22"
   version="1.1"
   id="svg5"
   inkscape:version="1.2.1 (9c6d41e410, 2022-07-14)"
   sodipodi:docname="qt.svg"
   xmlns:inkscape="http://www.inkscape.org/namespaces/inkscape"
   xmlns:sodipodi="http://sodipodi.sourceforge.net/DTD/sodipodi-0.dtd"
   xmlns:xlink="http://www.w3.org/1999/xlink"
   xmlns="http://www.w3.org/2000/svg"
   xmlns:svg="http://www.w3.org/2000/svg">
  <sodipodi:namedview
     id="namedview7"
     pagecolor="#ffffff"
     bordercolor="#000000"
     borderopacity="0.25"
     inkscape:showpageshadow="2"
     inkscape:pageopacity="0.0"
     inkscape:pagecheckerboard="0"
     inkscape:deskcolor="#d1d1d1"
     inkscape:document-units="px"
     showgrid="false"
     inkscape:zoom="36.454545"
     inkscape:cx="10.986284"
     inkscape:cy="11"
     inkscape:window-width="1920"
     inkscape:window-height="1008"
     inkscape:window-x="0"
     inkscape:window-y="0"
     inkscape:window-maximized="1"
     inkscape:current-layer="svg5"
     showguides="false" />
  <defs
     id="defs2">
    <linearGradient
       inkscape:collect="always"
       xlink:href="#linearGradient3017"
       id="linearGradient3500"
       x1="2"
       y1="2"
       x2="28.666666"
       y2="28.666666"
       gradientUnits="userSpaceOnUse"
       gradientTransform="matrix(0.75,0,0,0.75,-0.5,-0.5)" />
    <linearGradient
       inkscape:collect="always"
       id="linearGradient3017">
      <stop
         style="stop-color:#26bc25;stop-opacity:1;"
         offset="0"
         id="stop3013" />
      <stop
         style="stop-color:#65df47;stop-opacity:1;"
         offset="1"
         id="stop3015" />
    </linearGradient>
  </defs>
  <path
     id="path530"
     style="fill:url(#linearGradient3500);fill-opacity:1.0;stroke-width:0.750005;stroke-linecap:round;stroke-linejoin:round"
     d="M 9,1 C 2.174114,1 1,2.2048695 1,9 v 4 c 0,6.79513 1.174114,8 8,8 h 4 c 6.825886,0 8,-1.20487 8,-8 V 9 C 21,2.2048695 19.825886,1 13,1 Z"
     sodipodi:nodetypes="sssssssss" />
  <path
     d="M 8.5175782,6 C 5.7382681,6 5,7.5 5,10.5 5,13.5 5.7252781,15 8.5175782,15 H 9.310547 l 1.15625,2 1.337891,-0.5 -1.091797,-2 C 11.751886,14 12,12.5 12,10.5 12,7.5 11.296888,6 8.5175782,6 Z M 14,6 v 2 h -1 v 0.9999996 h 1 V 12.5 c 0,2 0.467967,2.5 1.935547,2.5 h 1.095703 l -0.0625,-1 H 15.730469 C 15.055118,14 15,13.5 15,12.5 V 8.9999996 h 2 V 8 H 15 V 6 Z M 8.5078126,7 C 10.52615,7 11.000005,8.1666667 11,10.5 11,12.833333 10.541444,14 8.5078126,14 6.4741812,14 6,12.833333 6,10.5 6,8.1666667 6.489475,7 8.5078126,7 Z"
     style="fill:#ffffff"
     id="path1746"
     sodipodi:nodetypes="sssccccsscccccssccssccccccscsss" />
</svg>
