<?xml version="1.0" encoding="UTF-8" standalone="no"?>
<!-- Created with Inkscape (http://www.inkscape.org/) -->

<svg
   width="22"
   height="22"
   viewBox="0 0 22 22"
   version="1.1"
   id="svg5"
   inkscape:version="1.2.1 (9c6d41e410, 2022-07-14)"
   sodipodi:docname="sheets.svg"
   xmlns:inkscape="http://www.inkscape.org/namespaces/inkscape"
   xmlns:sodipodi="http://sodipodi.sourceforge.net/DTD/sodipodi-0.dtd"
   xmlns:xlink="http://www.w3.org/1999/xlink"
   xmlns="http://www.w3.org/2000/svg"
   xmlns:svg="http://www.w3.org/2000/svg">
  <sodipodi:namedview
     id="namedview7"
     pagecolor="#ffffff"
     bordercolor="#000000"
     borderopacity="0.25"
     inkscape:showpageshadow="2"
     inkscape:pageopacity="0.0"
     inkscape:pagecheckerboard="0"
     inkscape:deskcolor="#d1d1d1"
     inkscape:document-units="px"
     showgrid="false"
     inkscape:zoom="36.454545"
     inkscape:cx="11"
     inkscape:cy="11"
     inkscape:window-width="1920"
     inkscape:window-height="1008"
     inkscape:window-x="0"
     inkscape:window-y="0"
     inkscape:window-maximized="1"
     inkscape:current-layer="svg5"
     showguides="false" />
  <defs
     id="defs2">
    <linearGradient
       inkscape:collect="always"
       xlink:href="#linearGradient1606"
       id="linearGradient3500"
       x1="2"
       y1="2"
       x2="31.333334"
       y2="31.333334"
       gradientUnits="userSpaceOnUse"
       gradientTransform="matrix(0.75,0,0,0.75,-0.5,-0.5)" />
    <linearGradient
       inkscape:collect="always"
       id="linearGradient1606">
      <stop
         style="stop-color:#eaebed;stop-opacity:1;"
         offset="0"
         id="stop1602" />
      <stop
         style="stop-color:#f9fafa;stop-opacity:1;"
         offset="1"
         id="stop1604" />
    </linearGradient>
    <linearGradient
       inkscape:collect="always"
       xlink:href="#linearGradient16018"
       id="linearGradient16020"
       x1="14"
       y1="14"
       x2="14"
       y2="10"
       gradientUnits="userSpaceOnUse"
       gradientTransform="matrix(1.1666667,0,0,2,1.6666667,-10)" />
    <linearGradient
       inkscape:collect="always"
       id="linearGradient16018">
      <stop
         style="stop-color:#c6cdd1;stop-opacity:1;"
         offset="0"
         id="stop16014" />
      <stop
         style="stop-color:#e5e6e7;stop-opacity:1;"
         offset="1"
         id="stop16016" />
    </linearGradient>
    <linearGradient
       inkscape:collect="always"
       xlink:href="#linearGradient2540"
       id="linearGradient2542"
       x1="3.6362305"
       y1="7.7539811"
       x2="3.6362305"
       y2="5.2427034"
       gradientUnits="userSpaceOnUse"
       gradientTransform="matrix(0.74311615,0,0,0.79640735,2.2978583,3.8246724)" />
    <linearGradient
       inkscape:collect="always"
       id="linearGradient2540">
      <stop
         style="stop-color:#06a370;stop-opacity:1;"
         offset="0"
         id="stop2536" />
      <stop
         style="stop-color:#22d1b0;stop-opacity:1;"
         offset="1"
         id="stop2538" />
    </linearGradient>
    <linearGradient
       inkscape:collect="always"
       xlink:href="#linearGradient3920"
       id="linearGradient3922"
       x1="7.3300815"
       y1="5.0483675"
       x2="7.3300815"
       y2="4.2710238"
       gradientUnits="userSpaceOnUse"
       gradientTransform="matrix(2.9854392,0,0,5.1457289,-12.883514,-15.97753)" />
    <linearGradient
       inkscape:collect="always"
       id="linearGradient3920">
      <stop
         style="stop-color:#c61423;stop-opacity:1;"
         offset="0"
         id="stop3916" />
      <stop
         style="stop-color:#dc2b41;stop-opacity:1;"
         offset="1"
         id="stop3918" />
    </linearGradient>
    <linearGradient
       inkscape:collect="always"
       xlink:href="#linearGradient2540"
       id="linearGradient13411"
       x1="5"
       y1="8"
       x2="5"
       y2="1"
       gradientUnits="userSpaceOnUse"
       gradientTransform="matrix(1,0,0,0.875,1.9999999,3.1249999)" />
    <linearGradient
       inkscape:collect="always"
       xlink:href="#linearGradient2540"
       id="linearGradient17797"
       x1="9"
       y1="8"
       x2="9"
       y2="3"
       gradientUnits="userSpaceOnUse"
       gradientTransform="translate(1.9999999,1.9999999)" />
    <linearGradient
       inkscape:collect="always"
       xlink:href="#linearGradient3920"
       id="linearGradient17805"
       x1="11"
       y1="8"
       x2="11"
       y2="5"
       gradientUnits="userSpaceOnUse"
       gradientTransform="translate(1.9999999,1.9999999)" />
    <linearGradient
       inkscape:collect="always"
       xlink:href="#linearGradient5747"
       id="linearGradient5749"
       x1="2"
       y1="3.5"
       x2="2"
       y2="12.5"
       gradientUnits="userSpaceOnUse"
       gradientTransform="matrix(1.0000001,0,0,0.79999999,2.9999997,3.6)" />
    <linearGradient
       inkscape:collect="always"
       id="linearGradient5747">
      <stop
         style="stop-color:#f39c12;stop-opacity:1;"
         offset="0"
         id="stop5743" />
      <stop
         style="stop-color:#f5ab35;stop-opacity:1;"
         offset="1"
         id="stop5745" />
    </linearGradient>
    <linearGradient
       inkscape:collect="always"
       xlink:href="#linearGradient2540"
       id="linearGradient1576"
       x1="16"
       y1="11"
       x2="16"
       y2="6.5"
       gradientUnits="userSpaceOnUse"
       gradientTransform="matrix(1,0,0,0.90909091,-1,0.09090909)" />
  </defs>
  <path
     id="path530"
     style="fill:url(#linearGradient3500);fill-opacity:1;stroke-width:0.750005;stroke-linecap:round;stroke-linejoin:round"
     d="M 9,1 C 2.174114,1 1,2.2048695 1,9 v 4 c 0,6.79513 1.174114,8 8,8 h 4 c 6.825886,0 8,-1.20487 8,-8 V 9 C 21,2.2048695 19.825886,1 13,1 Z"
     sodipodi:nodetypes="sssssssss" />
  <rect
     style="fill:url(#linearGradient16020);fill-opacity:1;stroke-width:1.52752;stroke-linecap:round;stroke-linejoin:round;paint-order:stroke fill markers"
     id="rect14869"
     width="14"
     height="8"
     x="4"
     y="10" />
  <path
     id="rect17807"
     style="fill:#eff0f1;fill-opacity:1;stroke-width:1.1547;stroke-linecap:round;stroke-linejoin:round;paint-order:stroke fill markers"
     d="M 5 13 L 5 14 L 6 14 L 6 13 L 5 13 z M 7 13 L 7 14 L 8 14 L 8 13 L 7 13 z M 9 13 L 9 14 L 14 14 L 14 13 L 9 13 z M 15 13 L 15 14 L 17 14 L 17 13 L 15 13 z M 5 15 L 5 16 L 6 16 L 6 15 L 5 15 z M 7 15 L 7 16 L 8 16 L 8 15 L 7 15 z M 9 15 L 9 16 L 14 16 L 14 15 L 9 15 z M 15 15 L 15 16 L 17 16 L 17 15 L 15 15 z " />
  <rect
     style="opacity:0.1;fill:#2e3132;fill-opacity:1;stroke-width:1.08012;stroke-linecap:round;stroke-linejoin:round;paint-order:stroke fill markers"
     id="rect18924"
     width="14"
     height="1"
     x="4"
     y="17" />
  <rect
     style="fill:url(#linearGradient2542);fill-opacity:1;stroke-width:0.769301;stroke-linecap:round;stroke-linejoin:round;paint-order:stroke fill markers"
     id="rect601"
     width="2"
     height="3"
     x="5"
     y="8" />
  <rect
     style="fill:url(#linearGradient3922);fill-opacity:1;stroke-width:3.91947;stroke-linecap:round;stroke-linejoin:round;paint-order:stroke fill markers"
     id="rect603"
     width="2"
     height="5"
     x="9"
     y="6" />
  <rect
     style="fill:url(#linearGradient13411);fill-opacity:1;stroke-width:3.25232;stroke-linecap:round;stroke-linejoin:round;paint-order:stroke fill markers"
     id="rect605"
     width="2"
     height="7"
     x="7"
     y="4" />
  <rect
     style="fill:url(#linearGradient17797);fill-opacity:1;stroke-width:2.79761;stroke-linecap:round;stroke-linejoin:round;paint-order:stroke fill markers"
     id="rect607"
     width="2"
     height="6"
     x="11"
     y="5" />
  <rect
     style="fill:url(#linearGradient17805);fill-opacity:1;stroke-width:2.3007;stroke-linecap:round;stroke-linejoin:round;paint-order:stroke fill markers"
     id="rect609"
     width="2"
     height="4"
     x="13"
     y="7" />
  <rect
     style="opacity:1;fill:url(#linearGradient1576);fill-opacity:1;stroke-width:0.912871;stroke-linecap:round;stroke-linejoin:round;paint-order:stroke fill markers"
     id="rect1012"
     width="2"
     height="5"
     x="15"
     y="6" />
  <path
     d="M 4.9999999,12 V 10.076923 C 5.7500004,10.076923 5.7500004,9.4 6.5000005,9.4 c 0.7499996,0 0.5624999,0.8 1.4999997,0.8 0.9375004,0 0.75,-1.046153 1.5000008,-1.046153 0.749999,0 0.749999,-1.3538471 1.5,-1.3538471 C 11.749999,7.7999999 11.749999,9.4 12.499999,9.4 13.25,9.4 13.25,8.5384611 14,8.5384611 14.75,8.5384611 14.75,7 15.5,7 16.25,7 16.25,9.153847 17,9.153847 V 12 Z"
     style="fill:url(#linearGradient5749);fill-opacity:1;stroke-width:0.894428"
     id="path524"
     sodipodi:nodetypes="ccsssssssccc" />
  <rect
     style="opacity:0.3;fill:#2e3132;stroke-linecap:round;stroke-linejoin:round;paint-order:stroke fill markers;fill-opacity:1"
     id="rect1854"
     width="12"
     height="1"
     x="5"
     y="11" />
</svg>
