<?xml version="1.0" encoding="UTF-8" standalone="no"?>
<!-- Created with Inkscape (http://www.inkscape.org/) -->

<svg
   width="22"
   height="22"
   viewBox="0 0 22 22"
   version="1.1"
   id="svg5"
   inkscape:version="1.2.1 (9c6d41e410, 2022-07-14)"
   sodipodi:docname="system-users.svg"
   xmlns:inkscape="http://www.inkscape.org/namespaces/inkscape"
   xmlns:sodipodi="http://sodipodi.sourceforge.net/DTD/sodipodi-0.dtd"
   xmlns:xlink="http://www.w3.org/1999/xlink"
   xmlns="http://www.w3.org/2000/svg"
   xmlns:svg="http://www.w3.org/2000/svg">
  <sodipodi:namedview
     id="namedview7"
     pagecolor="#ffffff"
     bordercolor="#000000"
     borderopacity="0.25"
     inkscape:showpageshadow="2"
     inkscape:pageopacity="0.0"
     inkscape:pagecheckerboard="0"
     inkscape:deskcolor="#d1d1d1"
     inkscape:document-units="px"
     showgrid="false"
     inkscape:zoom="34.083333"
     inkscape:cx="11.662592"
     inkscape:cy="12.01467"
     inkscape:window-width="1920"
     inkscape:window-height="1007"
     inkscape:window-x="0"
     inkscape:window-y="0"
     inkscape:window-maximized="1"
     inkscape:current-layer="svg5"
     showguides="true" />
  <defs
     id="defs2">
    <linearGradient
       inkscape:collect="always"
       xlink:href="#linearGradient3147"
       id="linearGradient3500"
       x1="28.666666"
       y1="28.666666"
       x2="2"
       y2="2"
       gradientUnits="userSpaceOnUse"
       gradientTransform="matrix(0.75,0,0,0.75,-0.50000002,-0.50000004)" />
    <linearGradient
       inkscape:collect="always"
       id="linearGradient3147">
      <stop
         style="stop-color:#41bbff;stop-opacity:1;"
         offset="0"
         id="stop3143" />
      <stop
         style="stop-color:#0091f9;stop-opacity:1;"
         offset="1"
         id="stop3145" />
    </linearGradient>
  </defs>
  <path
     id="path530"
     style="fill:url(#linearGradient3500);fill-opacity:1;stroke-width:0.750005;stroke-linecap:round;stroke-linejoin:round"
     d="M 8.9999995,1 C 2.174114,1 1,2.2048695 1,9.0000003 V 13 c 0,6.79513 1.174114,8 7.9999995,8 H 13 c 6.825886,0 8,-1.20487 8,-8 V 9.0000003 C 21,2.2048695 19.825886,1 13,1 Z"
     sodipodi:nodetypes="sssssssss" />
  <path
     id="rect396"
     style="opacity:0.6;fill:#ffffff;stroke-width:1.36931"
     d="m 11,11 c -4.671555,2.910178 -7,4.367119 -7,6 v 0.5 C 4,18.330994 4.6690059,19 5.4999999,19 H 16.5 C 17.330994,19 18,18.330994 18,17.5 V 17 c 0,-1.632881 -2.328445,-3.089822 -7,-6 z"
     sodipodi:nodetypes="cssccssc" />
  <path
     id="path234"
     style="fill:#ffffff;stroke-width:1.06067"
     d="m 15,8 c 0,2.485281 -1.790862,5 -4,5 C 8.790861,13 6.9999999,10.485281 6.9999999,8 6.9999999,5.5147182 8.790861,4 11,4 c 2.209138,0 4,1.5147172 4,4 z"
     sodipodi:nodetypes="sssss" />
</svg>
