<?xml version="1.0" encoding="UTF-8" standalone="no"?>
<!-- Created with Inkscape (http://www.inkscape.org/) -->

<svg
   width="22"
   height="22"
   viewBox="0 0 22 22"
   version="1.1"
   id="svg5"
   inkscape:version="1.2.1 (9c6d41e410, 2022-07-14)"
   sodipodi:docname="ubuntusoftware.svg"
   xmlns:inkscape="http://www.inkscape.org/namespaces/inkscape"
   xmlns:sodipodi="http://sodipodi.sourceforge.net/DTD/sodipodi-0.dtd"
   xmlns:xlink="http://www.w3.org/1999/xlink"
   xmlns="http://www.w3.org/2000/svg"
   xmlns:svg="http://www.w3.org/2000/svg">
  <sodipodi:namedview
     id="namedview7"
     pagecolor="#ffffff"
     bordercolor="#000000"
     borderopacity="0.25"
     inkscape:showpageshadow="2"
     inkscape:pageopacity="0.0"
     inkscape:pagecheckerboard="0"
     inkscape:deskcolor="#d1d1d1"
     inkscape:document-units="px"
     showgrid="false"
     inkscape:zoom="37.636364"
     inkscape:cx="11"
     inkscape:cy="11"
     inkscape:window-width="1920"
     inkscape:window-height="1008"
     inkscape:window-x="0"
     inkscape:window-y="0"
     inkscape:window-maximized="1"
     inkscape:current-layer="svg5"
     showguides="true" />
  <defs
     id="defs2">
    <linearGradient
       inkscape:collect="always"
       xlink:href="#linearGradient877"
       id="linearGradient3500"
       x1="2"
       y1="2"
       x2="28.666666"
       y2="28.666666"
       gradientUnits="userSpaceOnUse"
       gradientTransform="matrix(0.75,0,0,0.75,-0.5,-0.5)" />
    <linearGradient
       inkscape:collect="always"
       id="linearGradient877">
      <stop
         style="stop-color:#e95420;stop-opacity:1;"
         offset="0"
         id="stop873" />
      <stop
         style="stop-color:#ff8e31;stop-opacity:1;"
         offset="1"
         id="stop875" />
    </linearGradient>
  </defs>
  <path
     id="path530"
     style="fill:url(#linearGradient3500);fill-opacity:1.0;stroke-width:0.750005;stroke-linecap:round;stroke-linejoin:round"
     d="M 9,1 C 2.174114,1 1,2.2048695 1,9 v 4 c 0,6.79513 1.174114,8 8,8 h 4 c 6.825886,0 8,-1.20487 8,-8 V 9 C 21,2.2048695 19.825886,1 13,1 Z"
     sodipodi:nodetypes="sssssssss" />
  <path
     id="rect2385"
     style="fill:#ffffff;stroke-width:0.5;stroke-linejoin:round"
     d="M 9.5000003,3.9999998 6.3574223,12 h -1.857422 c -0.830999,0 -1.5,0.669001 -1.5,1.5 0,0.830999 0.669001,1.5 1.5,1.5 h 0.677734 l -1.177734,3 h 3 l 1.177734,-3 H 13.822266 L 15,18 h 3 L 16.822266,15 H 17.5 C 18.330999,15 19,14.330999 19,13.5 19,12.669001 18.330999,12 17.5,12 H 15.642578 L 12.5,3.9999998 Z M 11,7.8183592 12.642578,12 H 9.3574223 Z" />
  <rect
     style="opacity:0.3;fill:#fc872f;fill-opacity:1;stroke-width:0.5;stroke-linejoin:round"
     id="rect4873"
     width="16"
     height="3"
     x="3.0000017"
     y="12.000001"
     ry="1.5" />
</svg>
