<?xml version="1.0" encoding="UTF-8" standalone="no"?>
<!-- Created with Inkscape (http://www.inkscape.org/) -->

<svg
   width="22"
   height="22"
   viewBox="0 0 22 22"
   version="1.1"
   id="svg5"
   inkscape:version="1.2.1 (9c6d41e410, 2022-07-14)"
   sodipodi:docname="vlc.svg"
   xmlns:inkscape="http://www.inkscape.org/namespaces/inkscape"
   xmlns:sodipodi="http://sodipodi.sourceforge.net/DTD/sodipodi-0.dtd"
   xmlns:xlink="http://www.w3.org/1999/xlink"
   xmlns="http://www.w3.org/2000/svg"
   xmlns:svg="http://www.w3.org/2000/svg">
  <sodipodi:namedview
     id="namedview7"
     pagecolor="#ffffff"
     bordercolor="#000000"
     borderopacity="0.25"
     inkscape:showpageshadow="2"
     inkscape:pageopacity="0.0"
     inkscape:pagecheckerboard="0"
     inkscape:deskcolor="#d1d1d1"
     inkscape:document-units="px"
     showgrid="false"
     inkscape:zoom="36"
     inkscape:cx="10.986111"
     inkscape:cy="11"
     inkscape:window-width="1920"
     inkscape:window-height="1004"
     inkscape:window-x="0"
     inkscape:window-y="0"
     inkscape:window-maximized="1"
     inkscape:current-layer="svg5"
     showguides="false" />
  <defs
     id="defs2">
    <linearGradient
       inkscape:collect="always"
       xlink:href="#linearGradient1382"
       id="linearGradient3500"
       x1="28.666666"
       y1="28.666666"
       x2="2"
       y2="2"
       gradientUnits="userSpaceOnUse"
       gradientTransform="matrix(0.75,0,0,0.75,-0.5,-0.5)" />
    <linearGradient
       inkscape:collect="always"
       id="linearGradient1382">
      <stop
         style="stop-color:#ffb654;stop-opacity:1;"
         offset="0"
         id="stop1378" />
      <stop
         style="stop-color:#ff650f;stop-opacity:1;"
         offset="1"
         id="stop1380" />
    </linearGradient>
  </defs>
  <path
     id="path530"
     style="fill:url(#linearGradient3500);fill-opacity:1.0;stroke-width:0.750005;stroke-linecap:round;stroke-linejoin:round"
     d="M 9,1 C 2.174114,1 1,2.2048695 1,9 v 4 c 0,6.79513 1.174114,8 8,8 h 4 c 6.825886,0 8,-1.20487 8,-8 V 9 C 21,2.2048695 19.825886,1 13,1 Z"
     sodipodi:nodetypes="sssssssss" />
  <path
     d="M 11.001709,4.0001586 C 10.68373,3.9966586 10.35979,4.0509165 10.039535,4.179605 9.8409945,4.2594063 9.6900102,4.4256375 9.6293719,4.6307844 l -0.644298,2.1772823 c 0.9652267,0.699949 3.0647141,0.699949 4.0298521,0 L 12.370628,4.6307844 C 12.306403,4.4136412 12.14211,4.2412829 11.927994,4.1676419 11.631365,4.0655191 11.319602,4.0037111 11.001709,4.0001586 Z M 8.1562027,9.6074297 7.3820199,12.232474 h -0.00171 c 0.2826838,0.165772 0.9387345,0.454591 1.8098446,0.652843 0.145185,0.03304 0.2965312,0.06352 0.4528885,0.09058 0.1563571,0.02706 0.3175991,0.05097 0.48365,0.07007 0.415129,0.04776 0.859807,0.06619 1.319359,0.04273 0.18382,-0.0094 0.368796,-0.02533 0.557138,-0.04956 0.847539,-0.109033 1.734075,-0.37809 2.590863,-0.897232 l 0.577646,1.949983 c 0.08973,0.303438 -0.0363,0.62906 -0.305913,0.794691 -1.098666,0.674442 -2.496826,1.005186 -3.891422,1.018572 C 9.5797695,15.91853 8.178836,15.616595 7.1000329,14.864353 6.8530079,14.691942 6.7429336,14.380775 6.8282998,14.09188 l 0.5520111,-1.859406 h -1.054461 c -0.282454,0 -0.5373302,0.169917 -0.6460068,0.430672 L 4.054572,17.038218 c -0.1920916,0.461019 0.1465757,0.968923 0.6460069,0.96901 H 17.299422 c 0.49943,-1.57e-4 0.838098,-0.508018 0.646006,-0.96901 L 16.294521,12.572577 C 16.186019,12.311822 15.930268,12.141905 15.648515,12.141905 H 14.594054 L 13.843798,9.6074297 c -1.924941,0.7655763 -3.543989,0.9624273 -5.6875953,0 z"
     id="path10232"
     style="stroke-width:0.875015;fill:#ffffff"
     sodipodi:nodetypes="cccccccccccssccscccccccsccccccsccc" />
</svg>
