<?xml version="1.0" encoding="UTF-8" standalone="no"?>
<!-- Created with Inkscape (http://www.inkscape.org/) -->

<svg
   width="22"
   height="22"
   viewBox="0 0 22 22"
   version="1.1"
   id="svg5"
   inkscape:version="1.2.1 (9c6d41e410, 2022-07-14)"
   sodipodi:docname="yast-sw_single.svg"
   xmlns:inkscape="http://www.inkscape.org/namespaces/inkscape"
   xmlns:sodipodi="http://sodipodi.sourceforge.net/DTD/sodipodi-0.dtd"
   xmlns:xlink="http://www.w3.org/1999/xlink"
   xmlns="http://www.w3.org/2000/svg"
   xmlns:svg="http://www.w3.org/2000/svg">
  <sodipodi:namedview
     id="namedview7"
     pagecolor="#ffffff"
     bordercolor="#000000"
     borderopacity="0.25"
     inkscape:showpageshadow="2"
     inkscape:pageopacity="0.0"
     inkscape:pagecheckerboard="0"
     inkscape:deskcolor="#d1d1d1"
     inkscape:document-units="px"
     showgrid="false"
     inkscape:zoom="36.363636"
     inkscape:cx="11.01375"
     inkscape:cy="11"
     inkscape:window-width="1920"
     inkscape:window-height="1011"
     inkscape:window-x="0"
     inkscape:window-y="32"
     inkscape:window-maximized="1"
     inkscape:current-layer="svg5"
     showguides="false" />
  <defs
     id="defs2">
    <linearGradient
       inkscape:collect="always"
       xlink:href="#linearGradient920"
       id="linearGradient3500"
       x1="2"
       y1="2"
       x2="28.666666"
       y2="28.666666"
       gradientUnits="userSpaceOnUse"
       gradientTransform="matrix(0.75,0,0,0.75,-0.5,-0.5)" />
    <linearGradient
       inkscape:collect="always"
       id="linearGradient920">
      <stop
         style="stop-color:#82bf39;stop-opacity:1;"
         offset="0"
         id="stop916" />
      <stop
         style="stop-color:#bada82;stop-opacity:1;"
         offset="1"
         id="stop918" />
    </linearGradient>
  </defs>
  <path
     id="path530"
     style="fill:url(#linearGradient3500);fill-opacity:1.0;stroke-width:0.750005;stroke-linecap:round;stroke-linejoin:round"
     d="M 9,1 C 2.174114,1 1,2.2048695 1,9 v 4 c 0,6.79513 1.174114,8 8,8 h 4 c 6.825886,0 8,-1.20487 8,-8 V 9 C 21,2.2048695 19.825886,1 13,1 Z"
     sodipodi:nodetypes="sssssssss" />
  <path
     style="color:#000000;fill:#ececec;fill-opacity:1;stroke:none;stroke-linecap:round;stroke-linejoin:round;-inkscape-stroke:none"
     d="M 11,7.9999999 C 8.796786,7.9999999 7,6.2032145 7,4 A 0.5,0.5 0 0 1 7.5,3.5 0.5,0.5 0 0 1 8,4 c 0,1.6627749 1.337225,3 3,3 1.662775,0 3,-1.3372251 3,-3 A 0.5,0.5 0 0 1 14.5,3.5 0.5,0.5 0 0 1 15,4 c 0,2.2032145 -1.796786,3.9999999 -4,3.9999999 z"
     id="path6954" />
  <path
     id="rect4083"
     style="fill:#ffffff"
     d="m 11,9.9999999 c -0.553999,0 -1,0.4460011 -1,1.0000001 v 4 H 8 l 3,3 3,-3 H 12 V 11 C 12,10.446001 11.553999,9.9999999 11,9.9999999 Z"
     sodipodi:nodetypes="sscccccss" />
</svg>
