<?xml version="1.0" encoding="UTF-8" standalone="no"?>
<!-- Created with Inkscape (http://www.inkscape.org/) -->

<svg
   width="96"
   height="96"
   viewBox="0 0 96 96"
   version="1.1"
   id="svg5"
   inkscape:version="1.2.1 (9c6d41e410, 2022-07-14)"
   sodipodi:docname="folder-red-documents.svg"
   xmlns:inkscape="http://www.inkscape.org/namespaces/inkscape"
   xmlns:sodipodi="http://sodipodi.sourceforge.net/DTD/sodipodi-0.dtd"
   xmlns:xlink="http://www.w3.org/1999/xlink"
   xmlns="http://www.w3.org/2000/svg"
   xmlns:svg="http://www.w3.org/2000/svg">
  <sodipodi:namedview
     id="namedview7"
     pagecolor="#ffffff"
     bordercolor="#000000"
     borderopacity="0.25"
     inkscape:showpageshadow="2"
     inkscape:pageopacity="0.0"
     inkscape:pagecheckerboard="0"
     inkscape:deskcolor="#d1d1d1"
     inkscape:document-units="px"
     showgrid="false"
     inkscape:zoom="5.7157799"
     inkscape:cx="16.4457"
     inkscape:cy="51.086642"
     inkscape:window-width="1920"
     inkscape:window-height="1004"
     inkscape:window-x="0"
     inkscape:window-y="0"
     inkscape:window-maximized="1"
     inkscape:current-layer="svg5" />
  <defs
     id="defs2">
    <linearGradient
       inkscape:collect="always"
       id="linearGradient3155">
      <stop
         style="stop-color:#d54239;stop-opacity:1;"
         offset="0"
         id="stop3151" />
      <stop
         style="stop-color:#973232;stop-opacity:1;"
         offset="1"
         id="stop3153" />
    </linearGradient>
    <linearGradient
       inkscape:collect="always"
       id="linearGradient3147">
      <stop
         style="stop-color:#db4631;stop-opacity:1;"
         offset="0"
         id="stop3143" />
      <stop
         style="stop-color:#de6c36;stop-opacity:1;"
         offset="1"
         id="stop3145" />
    </linearGradient>
    <linearGradient
       inkscape:collect="always"
       xlink:href="#linearGradient3147"
       id="linearGradient3149"
       x1="56"
       y1="56.333332"
       x2="32"
       y2="15"
       gradientUnits="userSpaceOnUse"
       gradientTransform="matrix(1.5,0,0,1.5,0,-0.5)" />
    <linearGradient
       inkscape:collect="always"
       xlink:href="#linearGradient3155"
       id="linearGradient3157"
       x1="16"
       y1="7"
       x2="16"
       y2="29.666666"
       gradientUnits="userSpaceOnUse"
       gradientTransform="matrix(1.5,0,0,1.5,0,1.5)" />
  </defs>
  <path
     d="m 12,13 c -3.323997,0 -6,2.676004 -6,6 v 60 c 0,3.323996 2.676003,6 6,6 h 72 c 3.323996,0 6,-2.676004 6,-6 V 29 c 0,-3.323996 -2.676004,-6 -6,-6 H 48 l -6,-7 c -1.6357,-1.836774 -2.676004,-3 -6,-3 z"
     style="opacity:0.3;fill:#000000;stroke-width:3"
     id="path1016"
     sodipodi:nodetypes="ssssssssccss" />
  <path
     id="rect184"
     style="fill:url(#linearGradient3157);fill-opacity:1;stroke-width:3"
     d="m 12,12 c -3.3239968,0 -6,2.676002 -6,6 v 52 c 0,3.323996 2.6760032,6 6,6 h 72 c 3.323996,0 6,-2.676004 6,-6 V 28 c 0,-3.323996 -2.676004,-6 -6,-6 H 48 l -6,-7 c -1.672966,-2.152788 -2.676004,-3 -6,-3 z"
     sodipodi:nodetypes="sccsssssccss" />
  <path
     id="rect1043"
     style="fill:url(#linearGradient3149);fill-opacity:1;stroke-width:3"
     d="m 48,22 -6,7 c -2.000418,1.841928 -2.676006,3 -6,3 H 12 c -3.3137052,0 -6,2.686294 -6,6 v 40 c 0,3.323992 2.67601,6 6,6 h 72 c 3.323992,0 6,-2.676008 6,-6 V 28 c 0,-3.32399 -2.676008,-6 -6,-6 z"
     sodipodi:nodetypes="ccsssssssssc" />
  <path
     id="path3081"
     style="opacity:0.2;fill:#ffffff;stroke-width:3"
     d="m 48,22 -6,7 c -2.000414,1.841926 -2.67601,3 -6,3 H 12 c -3.3136986,0 -6,2.6863 -6,6 v 1 c 0,-3.3137 2.6863014,-6 6,-6 h 24 c 3.32399,0 3.999586,-1.158074 6,-3 l 6,-7 h 36 c 3.323984,0 6,2.676016 6,6 v -1 c 0,-3.323984 -2.676016,-6 -6,-6 z"
     sodipodi:nodetypes="ccssscssccscssc" />
  <path
     id="rect607"
     style="opacity:0.6;fill:#ffffff;stroke-width:4"
     d="m 38,40 c -2.215994,0 -4,1.784006 -4,4 v 28 c 0,2.215994 1.784006,4 4,4 h 20 c 2.215994,0 4,-1.784006 4,-4 V 50 L 52,40 Z m 0,2 h 12 v 6 c 0,2.215992 1.784008,4 4,4 h 6 v 20 c 0,1.107996 -0.892006,2 -2,2 H 38 c -1.107994,0 -2,-0.892004 -2,-2 V 44 c 0,-1.107994 0.892006,-2 2,-2 z m 14,1 7,7 h -5 c -1.107992,0 -2,-0.892006 -2,-2 z M 40,56 v 2 h 16 v -2 z m 0,6 v 2 h 16 v -2 z m 0,6 v 2 h 10 v -2 z"
     sodipodi:nodetypes="ssssssccsscsscssssssccsscccccccccccccccc" />
</svg>
