<?xml version="1.0" encoding="UTF-8" standalone="no"?>
<svg
   height="16"
   width="16"
   version="1.1"
   id="svg1"
   sodipodi:docname="font-x-generic-symbolic.svg"
   inkscape:version="1.4.2 (ebf0e940d0, 2025-05-08)"
   xmlns:inkscape="http://www.inkscape.org/namespaces/inkscape"
   xmlns:sodipodi="http://sodipodi.sourceforge.net/DTD/sodipodi-0.dtd"
   xmlns="http://www.w3.org/2000/svg"
   xmlns:svg="http://www.w3.org/2000/svg">
  <defs
     id="defs1">
    <style
       id="current-color-scheme"
       type="text/css">
        .ColorScheme-Text { color:#f2f2f2; }
        .ColorScheme-NeutralText { color:#f67400; }
        .ColorScheme-PositiveText { color:#37c837; }
        .ColorScheme-NegativeText { color:#f44336; }
        .ColorScheme-Highlight { color:#3daee9; }
     </style>
  </defs>
  <sodipodi:namedview
     id="namedview1"
     pagecolor="#ffffff"
     bordercolor="#000000"
     borderopacity="0.25"
     inkscape:showpageshadow="2"
     inkscape:pageopacity="0.0"
     inkscape:pagecheckerboard="0"
     inkscape:deskcolor="#d1d1d1"
     inkscape:zoom="49.75"
     inkscape:cx="7.9899497"
     inkscape:cy="8"
     inkscape:window-width="1920"
     inkscape:window-height="1011"
     inkscape:window-x="0"
     inkscape:window-y="0"
     inkscape:window-maximized="1"
     inkscape:current-layer="svg1" />
  <path
     id="path1"
     style="fill:currentColor"
     class="ColorScheme-Text"
     d="M 5.0449219 3 L 1.5292969 13 L 3.8046875 13 L 4.5273438 11 L 6.6191406 11 C 6.6181406 10.958 6.609375 10.918953 6.609375 10.876953 C 6.609375 10.454953 6.6467031 10.033328 6.7207031 9.6113281 L 6.71875 9.6132812 C 6.75375 9.4072813 6.7985156 9.203 6.8535156 9 L 5.0585938 9 L 6.3457031 5 L 7.2734375 7.8339844 A 5.962 5.962 0 0 1 8.5429688 5.9941406 C 8.5769688 5.9621406 8.6173437 5.9392031 8.6523438 5.9082031 L 7.6269531 3 L 5.0449219 3 z M 11.189453 5.9316406 C 10.429453 5.9316406 9.7762812 6.1928906 9.2382812 6.7128906 C 8.6982813 7.2348906 8.2860937 7.8924531 7.9960938 8.6894531 A 6.41 6.41 0 0 0 7.609375 10.876953 C 7.609375 11.238953 7.660625 11.563609 7.765625 11.849609 C 8.055625 12.641609 8.6105469 13.037109 9.4355469 13.037109 C 10.259547 13.037109 10.959156 12.609047 11.535156 11.748047 C 11.589156 12.160047 11.735703 12.478078 11.970703 12.705078 C 12.205703 12.927078 12.506047 13.037109 12.873047 13.037109 C 13.244047 13.037109 13.551016 12.906531 13.791016 12.644531 C 13.927016 12.490531 14.092109 12.151859 14.287109 11.630859 A 0.684 0.684 0 0 1 13.980469 11.693359 C 13.600469 11.693359 13.410156 11.532797 13.410156 11.216797 C 13.410156 11.048797 13.430703 10.886516 13.470703 10.728516 L 14.470703 6 L 12.466797 6 L 12.316406 6.7402344 L 12.316406 6.640625 A 0.601 0.601 0 0 0 12.050781 6.1386719 C 11.873781 6.0026719 11.588453 5.9335938 11.189453 5.9335938 L 11.189453 5.9316406 z M 11.5625 6.7949219 C 11.821163 6.7950235 11.987512 6.86215 12.064453 6.9980469 C 12.146453 7.1290469 12.1875 7.2382187 12.1875 7.3242188 L 11.521484 10.462891 C 11.435484 10.842891 11.278734 11.145187 11.052734 11.367188 C 10.825734 11.585187 10.574828 11.693359 10.298828 11.693359 A 0.506 0.506 0 0 1 9.9257812 11.542969 C 9.7537812 11.379969 9.6660156 11.092641 9.6660156 10.681641 C 9.6660156 10.468641 9.6791719 10.266172 9.7011719 10.076172 C 9.8511719 8.8311719 10.219594 7.8749844 10.808594 7.2089844 C 11.052465 6.9331303 11.303645 6.7950677 11.5625 6.7949219 z " />
</svg>
