<?xml version="1.0" encoding="UTF-8" standalone="no"?>
<!-- Created with Inkscape (http://www.inkscape.org/) -->

<svg
   width="96"
   height="96"
   viewBox="0 0 96 96"
   version="1.1"
   id="svg5"
   inkscape:version="1.4.4 (dcaf3e7d9e, 2026-05-05)"
   sodipodi:docname="system-suspend.svg"
   xmlns:inkscape="http://www.inkscape.org/namespaces/inkscape"
   xmlns:sodipodi="http://sodipodi.sourceforge.net/DTD/sodipodi-0.dtd"
   xmlns:xlink="http://www.w3.org/1999/xlink"
   xmlns="http://www.w3.org/2000/svg"
   xmlns:svg="http://www.w3.org/2000/svg">
  <sodipodi:namedview
     id="namedview7"
     pagecolor="#ffffff"
     bordercolor="#666666"
     borderopacity="1.0"
     inkscape:showpageshadow="2"
     inkscape:pageopacity="0.0"
     inkscape:pagecheckerboard="0"
     inkscape:deskcolor="#d1d1d1"
     inkscape:document-units="px"
     showgrid="false"
     inkscape:zoom="8.2916667"
     inkscape:cx="47.879397"
     inkscape:cy="48"
     inkscape:window-width="1920"
     inkscape:window-height="1012"
     inkscape:window-x="0"
     inkscape:window-y="0"
     inkscape:window-maximized="1"
     inkscape:current-layer="svg5" />
  <defs
     id="defs2">
    <linearGradient
       inkscape:collect="always"
       xlink:href="#linearGradient1056"
       id="linearGradient2881"
       x1="16"
       y1="3"
       x2="29"
       y2="29"
       gradientUnits="userSpaceOnUse"
       gradientTransform="matrix(3.2307692,0,0,3.2307692,-3.6923078,-3.6923078)" />
    <linearGradient
       inkscape:collect="always"
       id="linearGradient1056">
      <stop
         style="stop-color:#31cedf;stop-opacity:1;"
         offset="0"
         id="stop1052" />
      <stop
         style="stop-color:#90e0e4;stop-opacity:1;"
         offset="1"
         id="stop1054" />
    </linearGradient>
  </defs>
  <circle
     style="opacity:0.2;fill:#000000;fill-opacity:1;stroke:none;stroke-width:6.46154;stroke-linecap:round;stroke-linejoin:round;stroke-dasharray:none;stroke-opacity:1"
     id="path2871"
     cx="48"
     cy="49"
     r="42" />
  <circle
     style="opacity:1;fill:url(#linearGradient2881);fill-opacity:1;stroke:none;stroke-width:6.46154;stroke-linecap:round;stroke-linejoin:round;stroke-dasharray:none;stroke-opacity:1"
     id="path2873"
     cx="48"
     cy="48"
     r="42" />
  <path
     id="path369"
     style="fill:#ffffff;stroke-width:4;stroke-linecap:round;stroke-linejoin:round"
     d="M 48,20 A 28,28 0 0 0 20,48 28,28 0 0 0 48,76 28,28 0 0 0 76,48 28,28 0 0 0 48,20 Z m 0,4 A 24,24 0 0 1 72,48 24,24 0 0 1 48,72 24,24 0 0 1 24,48 24,24 0 0 1 48,24 Z M 32,46 v 4 h 32 v -4 z" />
</svg>
