<?xml version="1.0" encoding="UTF-8" standalone="no"?>
<!-- Created with Inkscape (http://www.inkscape.org/) -->

<svg
   width="96"
   height="96"
   viewBox="0 0 96 96"
   version="1.1"
   id="svg5"
   inkscape:version="1.4.4 (dcaf3e7d9e, 2026-05-05)"
   sodipodi:docname="system-restart.svg"
   xmlns:inkscape="http://www.inkscape.org/namespaces/inkscape"
   xmlns:sodipodi="http://sodipodi.sourceforge.net/DTD/sodipodi-0.dtd"
   xmlns:xlink="http://www.w3.org/1999/xlink"
   xmlns="http://www.w3.org/2000/svg"
   xmlns:svg="http://www.w3.org/2000/svg">
  <sodipodi:namedview
     id="namedview7"
     pagecolor="#ffffff"
     bordercolor="#666666"
     borderopacity="1.0"
     inkscape:showpageshadow="2"
     inkscape:pageopacity="0.0"
     inkscape:pagecheckerboard="0"
     inkscape:deskcolor="#d1d1d1"
     inkscape:document-units="px"
     showgrid="false"
     inkscape:zoom="8.2916667"
     inkscape:cx="47.879397"
     inkscape:cy="48"
     inkscape:window-width="1920"
     inkscape:window-height="1012"
     inkscape:window-x="0"
     inkscape:window-y="0"
     inkscape:window-maximized="1"
     inkscape:current-layer="svg5" />
  <defs
     id="defs2">
    <linearGradient
       inkscape:collect="always"
       xlink:href="#linearGradient1500"
       id="linearGradient2881"
       x1="29"
       y1="29"
       x2="16"
       y2="3"
       gradientUnits="userSpaceOnUse"
       gradientTransform="matrix(3.2307692,0,0,3.2307692,-3.6923078,-3.6923078)" />
    <linearGradient
       inkscape:collect="always"
       id="linearGradient1500">
      <stop
         style="stop-color:#afe481;stop-opacity:1;"
         offset="0"
         id="stop1496" />
      <stop
         style="stop-color:#74c72b;stop-opacity:1;"
         offset="1"
         id="stop1498" />
    </linearGradient>
  </defs>
  <circle
     style="opacity:0.2;fill:#000000;fill-opacity:1;stroke:none;stroke-width:6.46154;stroke-linecap:round;stroke-linejoin:round;stroke-dasharray:none;stroke-opacity:1"
     id="path2871"
     cx="48"
     cy="49"
     r="42" />
  <circle
     style="opacity:1;fill:url(#linearGradient2881);fill-opacity:1;stroke:none;stroke-width:6.46154;stroke-linecap:round;stroke-linejoin:round;stroke-dasharray:none;stroke-opacity:1"
     id="path2873"
     cx="48"
     cy="48"
     r="42" />
  <path
     id="path629"
     style="fill:#ffffff;stroke-width:2;stroke-linecap:round;stroke-linejoin:round"
     d="M 47.997114,75.99835 A 28,28 0 0 0 72.00102,62.295226 l -2e-6,9.703124 4.000002,-2e-6 -2e-6,-11.999998 v -3.999998 h -4 l -1.421874,-2e-6 -10.578126,-2e-6 v 4.000002 h 8.6875 A 24,24 0 0 1 47.997112,71.998348 24,24 0 0 1 25.415082,55.998346 l -4.24219,2e-6 A 28,28 0 0 0 47.997114,75.99835 Z m -26.82422,-35.996092 2.828126,-0.004 1.414058,2e-6 10.585942,-2e-6 V 35.99826 h -8.6875 A 24,24 0 0 1 47.997118,24.002168 24,24 0 0 1 70.618214,39.998262 h 4.207028 A 28,28 0 0 0 47.997118,19.998266 28,28 0 0 0 24.001022,33.693576 l 4e-6,-9.69531 -4.000004,-2e-6 v 12 l 2e-6,4.000002 1.171878,-2e-6 a 28,28 0 0 0 1.2e-5,0.004 z" />
</svg>
