<?xml version="1.0" encoding="UTF-8" standalone="no"?>
<!-- Created with Inkscape (http://www.inkscape.org/) -->

<svg
   width="48"
   height="48"
   viewBox="0 0 48 48.000003"
   version="1.1"
   id="svg5"
   inkscape:version="1.2.1 (1:1.2.1+202210291243+9c6d41e410)"
   sodipodi:docname="application-x-gettext-translation.svg"
   xmlns:inkscape="http://www.inkscape.org/namespaces/inkscape"
   xmlns:sodipodi="http://sodipodi.sourceforge.net/DTD/sodipodi-0.dtd"
   xmlns="http://www.w3.org/2000/svg"
   xmlns:svg="http://www.w3.org/2000/svg">
  <sodipodi:namedview
     id="namedview7"
     pagecolor="#ffffff"
     bordercolor="#000000"
     borderopacity="0.25"
     inkscape:showpageshadow="2"
     inkscape:pageopacity="0.0"
     inkscape:pagecheckerboard="0"
     inkscape:deskcolor="#d1d1d1"
     inkscape:document-units="px"
     showgrid="false"
     inkscape:zoom="17.1875"
     inkscape:cx="23.970909"
     inkscape:cy="24.058182"
     inkscape:window-width="1920"
     inkscape:window-height="1018"
     inkscape:window-x="0"
     inkscape:window-y="28"
     inkscape:window-maximized="1"
     inkscape:current-layer="svg5" />
  <defs
     id="defs2" />
  <path
     id="rect234"
     style="opacity:0.2;stroke-width:0.75;stroke-linecap:round;stroke-linejoin:round"
     d="m 10,4 h 19 l 12,12 v 27 c 0,1.662 -1.338,3 -3,3 H 10 C 8.338,46 7,44.662 7,43 V 7 C 7,5.338 8.338,4 10,4 Z"
     sodipodi:nodetypes="sccssssss" />
  <path
     id="rect448"
     style="fill:#eaeaea;fill-opacity:1;stroke-width:0.75;stroke-linecap:round;stroke-linejoin:round"
     d="m 10,3 h 19 l 4.5,7.5 7.5,4.5 v 27 c 0,1.662 -1.338,3 -3,3 H 10 C 8.338,45 7,43.662 7,42 V 6 C 7,4.338 8.338,3 10,3 Z"
     sodipodi:nodetypes="scccssssss" />
  <path
     id="path988"
     style="fill:#919191;fill-opacity:1"
     d="m 20.070312,19 v 1.5 H 15 v 1.501953 h 0.0039 v -0.0039 l 2.492184,0.002 c 0.246467,1.542932 1.412373,3.255159 2.560548,4.59375 -0.856624,0.906214 -2.02327,2.033568 -3.613282,3.455078 l 0.966797,0.951172 c 1.484813,-1.362283 2.631799,-2.504442 3.521484,-3.455078 0.886679,0.926944 1.595703,1.527344 1.595703,1.527344 l 0.46875,-1.445313 c 0,0 -0.496713,-0.393033 -1.154297,-1.052734 1.142952,-1.335798 2.29961,-3.038501 2.544922,-4.574219 h 1.683593 v -1.5 h -4 v -1.5 z M 18.875,22 h 4.130859 C 22.62113,23.335632 21.77098,24.62717 20.941406,25.607422 20.111832,24.627171 19.259731,23.335631 18.875,22 Z M 25.287109,28 21,39 h 1.976562 l 1.677735,-4 h 3.691406 l 1.677735,4 H 32 L 27.699219,28 Z M 26.5,29.392578 27.951172,33.5 h -2.876953 z"
     sodipodi:nodetypes="ccccccccccccccccccccccccccccccccccccc" />
  <path
     d="m 41,16 h -9 c -1.662,0 -3,-1.338 -3,-3 V 3 l 12,12 z"
     style="opacity:0.2;fill:#000000;stroke-width:0.75;stroke-linecap:round;stroke-linejoin:round"
     id="path611"
     sodipodi:nodetypes="cssccc" />
  <path
     id="rect600"
     style="fill:#f8f8f8;fill-opacity:1;stroke-width:0.75;stroke-linecap:round;stroke-linejoin:round"
     d="m 41,15 h -9 c -1.662,0 -3,-1.338 -3,-3 V 3 l 6,6 z"
     sodipodi:nodetypes="cssccc" />
</svg>
