<?xml version="1.0" encoding="UTF-8" standalone="no"?>
<!-- Created with Inkscape (http://www.inkscape.org/) -->

<svg
   width="48"
   height="48"
   viewBox="0 0 48 48.000003"
   version="1.1"
   id="svg5"
   inkscape:version="1.2.1 (9c6d41e410, 2022-07-14)"
   sodipodi:docname="application-vnd.ms-access.svg"
   xmlns:inkscape="http://www.inkscape.org/namespaces/inkscape"
   xmlns:sodipodi="http://sodipodi.sourceforge.net/DTD/sodipodi-0.dtd"
   xmlns="http://www.w3.org/2000/svg"
   xmlns:svg="http://www.w3.org/2000/svg">
  <sodipodi:namedview
     id="namedview7"
     pagecolor="#ffffff"
     bordercolor="#000000"
     borderopacity="0.25"
     inkscape:showpageshadow="2"
     inkscape:pageopacity="0.0"
     inkscape:pagecheckerboard="0"
     inkscape:deskcolor="#d1d1d1"
     inkscape:document-units="px"
     showgrid="false"
     inkscape:zoom="17.208333"
     inkscape:cx="23.970944"
     inkscape:cy="24"
     inkscape:window-width="1920"
     inkscape:window-height="1006"
     inkscape:window-x="0"
     inkscape:window-y="0"
     inkscape:window-maximized="1"
     inkscape:current-layer="svg5" />
  <defs
     id="defs2" />
  <path
     id="rect234"
     style="opacity:0.2;stroke-width:0.75;stroke-linecap:round;stroke-linejoin:round"
     d="m 10,4 h 19 l 12,12 v 27 c 0,1.662 -1.338,3 -3,3 H 10 C 8.338,46 7,44.662 7,43 V 7 C 7,5.338 8.338,4 10,4 Z"
     sodipodi:nodetypes="sccssssss" />
  <path
     id="rect448"
     style="fill:#a4262c;fill-opacity:1;stroke-width:0.75;stroke-linecap:round;stroke-linejoin:round"
     d="m 10,3 h 19 l 4.5,7.5 7.5,4.5 v 27 c 0,1.662 -1.338,3 -3,3 H 10 C 8.338,45 7,43.662 7,42 V 6 C 7,4.338 8.338,3 10,3 Z"
     sodipodi:nodetypes="scccssssss" />
  <ellipse
     style="opacity:0.25;fill:#ffffff;fill-opacity:1;stroke-width:3.79479;stroke-linejoin:round"
     id="path2670"
     cx="25.999998"
     cy="20.000099"
     rx="8.9999981"
     ry="3.0000997" />
  <path
     id="rect3773"
     style="opacity:0.5;fill:#ffffff;fill-opacity:1;stroke-width:3.79479;stroke-linejoin:round"
     d="m 17.000005,20.000094 v 6.0002 c 0,1.65691 4.029435,3.000101 8.999999,3.000101 C 30.970562,29.000395 35,27.657204 35,26.000294 v -0.0039 -0.0039 -0.0039 -0.0039 -0.0039 -0.0039 -0.0039 -0.0039 -0.0039 -0.0039 -0.0039 -0.0039 -0.0039 -0.0039 -0.0039 -0.0039 -0.0039 -5.93379 c 0,1.656909 -4.029438,3.0001 -8.999996,3.0001 -4.970564,0 -8.999999,-1.343191 -8.999999,-3.0001 z"
     sodipodi:nodetypes="csssssssssssssssssssccsc" />
  <path
     d="m 17.000003,26.000294 v 5.999405 c 0,1.656911 4.029434,3.000099 8.999996,3.000099 C 30.970562,34.999798 35,33.65661 35,31.999699 v -0.004 -0.004 -0.004 -0.004 -0.004 -0.004 -0.004 -0.004 -0.004 -0.004 -0.004 -0.004 -0.004 -0.004 -0.004 -0.004 -0.004 -5.932996 c 0,1.65691 -4.029438,3.000101 -9.000001,3.000101 -4.970562,0 -8.999996,-1.343191 -8.999996,-3.000101 z"
     style="opacity:0.7;fill:#ffffff;fill-opacity:1;stroke-width:3.79479;stroke-linejoin:round"
     id="path5291"
     sodipodi:nodetypes="csssccccccccccccccccccsc" />
  <path
     d="m 17.000003,32.000496 v 5.999399 c 0,1.656915 4.029434,3.000106 8.999996,3.000106 C 30.970562,41.000001 35,39.65681 35,37.999895 v -0.0038 -0.0038 -0.0042 -0.0038 -0.0038 -0.0042 -0.0038 -0.0042 -0.0038 -0.0038 -0.0042 -0.0038 -0.0038 -0.0042 -0.0038 -0.0042 -0.0038 -5.932994 c 0,1.65691 -4.029438,3.000098 -9.000001,3.000098 -4.970562,0 -8.999996,-1.343188 -8.999996,-3.000098 z"
     style="opacity:0.9;fill:#ffffff;fill-opacity:1;stroke-width:3.79479;stroke-linejoin:round"
     id="path5319" />
  <rect
     style="fill:#a4262c;fill-opacity:1;stroke-width:0.999999"
     id="rect3242"
     width="15.999999"
     height="15.999999"
     x="9.0003767"
     y="22.000011"
     ry="3" />
  <rect
     style="fill:#ffffff;fill-opacity:1;stroke-width:0.999999"
     id="rect2687"
     width="14"
     height="14"
     x="10.000376"
     y="23.000013"
     ry="2" />
  <path
     d="m 41,16 h -9 c -1.662,0 -3,-1.338 -3,-3 V 3 l 12,12 z"
     style="opacity:0.2;fill:#000000;stroke-width:0.75;stroke-linecap:round;stroke-linejoin:round"
     id="path611"
     sodipodi:nodetypes="cssccc" />
  <path
     id="rect600"
     style="fill:#d29396;fill-opacity:1;stroke-width:0.75;stroke-linecap:round;stroke-linejoin:round"
     d="m 41,15 h -9 c -1.662,0 -3,-1.338 -3,-3 V 3 l 6,6 z"
     sodipodi:nodetypes="cssccc" />
  <path
     id="rect11190"
     style="fill:#a4262c;fill-opacity:1;stroke-width:2;stroke-linejoin:round"
     d="m 16.000376,25.000013 -4,10 h 2 l 0.800781,-2 h 4.398437 l 0.800782,2 h 2 l -4,-10 z m 1,2.5 1.40039,3.5 h -2.800781 z" />
</svg>
