<?xml version="1.0" encoding="UTF-8" standalone="no"?>
<!-- Created with Inkscape (http://www.inkscape.org/) -->

<svg
   width="48"
   height="48"
   viewBox="0 0 48 48.000003"
   version="1.1"
   id="svg5"
   inkscape:version="1.2.2 (1:1.2.2+202305151914+b0a8486541)"
   sodipodi:docname="application-vnd.ms-powerpoint.template.macroenabled.12.svg"
   xmlns:inkscape="http://www.inkscape.org/namespaces/inkscape"
   xmlns:sodipodi="http://sodipodi.sourceforge.net/DTD/sodipodi-0.dtd"
   xmlns:xlink="http://www.w3.org/1999/xlink"
   xmlns="http://www.w3.org/2000/svg"
   xmlns:svg="http://www.w3.org/2000/svg">
  <sodipodi:namedview
     id="namedview7"
     pagecolor="#ffffff"
     bordercolor="#000000"
     borderopacity="0.25"
     inkscape:showpageshadow="2"
     inkscape:pageopacity="0.0"
     inkscape:pagecheckerboard="0"
     inkscape:deskcolor="#d1d1d1"
     inkscape:document-units="px"
     showgrid="false"
     inkscape:zoom="16.458333"
     inkscape:cx="23.96962"
     inkscape:cy="24"
     inkscape:window-width="1920"
     inkscape:window-height="1012"
     inkscape:window-x="0"
     inkscape:window-y="0"
     inkscape:window-maximized="1"
     inkscape:current-layer="svg5" />
  <defs
     id="defs2">
    <linearGradient
       inkscape:collect="always"
       id="linearGradient1865">
      <stop
         style="stop-color:#d04423;stop-opacity:1;"
         offset="0"
         id="stop1861" />
      <stop
         style="stop-color:#e16c4c;stop-opacity:1;"
         offset="1"
         id="stop1863" />
    </linearGradient>
    <linearGradient
       inkscape:collect="always"
       xlink:href="#linearGradient1214"
       id="linearGradient1216"
       x1="17.000376"
       y1="23.000013"
       x2="42.000389"
       y2="46.000916"
       gradientUnits="userSpaceOnUse" />
    <linearGradient
       inkscape:collect="always"
       id="linearGradient1214">
      <stop
         style="stop-color:#d3d3db;stop-opacity:1;"
         offset="0"
         id="stop1210" />
      <stop
         style="stop-color:#eaeaee;stop-opacity:1;"
         offset="1"
         id="stop1212" />
    </linearGradient>
    <linearGradient
       inkscape:collect="always"
       xlink:href="#linearGradient1865"
       id="linearGradient1867"
       x1="10"
       y1="3"
       x2="38"
       y2="45"
       gradientUnits="userSpaceOnUse" />
    <linearGradient
       inkscape:collect="always"
       xlink:href="#linearGradient1865"
       id="linearGradient1875"
       x1="10"
       y1="3"
       x2="38"
       y2="45"
       gradientUnits="userSpaceOnUse" />
    <linearGradient
       inkscape:collect="always"
       xlink:href="#linearGradient1865"
       id="linearGradient1883"
       x1="10"
       y1="3"
       x2="38"
       y2="45"
       gradientUnits="userSpaceOnUse" />
  </defs>
  <path
     id="rect234"
     style="opacity:0.2;stroke-width:0.75;stroke-linecap:round;stroke-linejoin:round"
     d="m 10,4 h 19 l 12,12 v 27 c 0,1.662 -1.338,3 -3,3 H 10 C 8.338,46 7,44.662 7,43 V 7 C 7,5.338 8.338,4 10,4 Z"
     sodipodi:nodetypes="sccssssss" />
  <path
     id="rect448"
     style="fill:url(#linearGradient1867);fill-opacity:1;stroke-width:0.75;stroke-linecap:round;stroke-linejoin:round"
     d="m 10,3 h 19 l 4.5,7.5 7.5,4.5 v 27 c 0,1.662 -1.338,3 -3,3 H 10 C 8.338,45 7,43.662 7,42 V 6 C 7,4.338 8.338,3 10,3 Z"
     sodipodi:nodetypes="scccssssss" />
  <circle
     style="opacity:0.3;fill:#ffffff;fill-opacity:1;stroke-width:8.00003;stroke-linejoin:bevel"
     id="path31463"
     cx="26.000378"
     cy="29.999998"
     r="11.999997" />
  <path
     id="path31465"
     style="opacity:0.7;fill:#ffffff;fill-opacity:1;stroke-width:5.99999;stroke-linejoin:bevel"
     d="M 14.000378,29.999997 A 11.999998,11.999998 0 0 0 26.000376,41.999999 11.999998,11.999998 0 0 0 38.000377,29.999997 H 26.000376 Z" />
  <path
     id="path31759"
     style="opacity:0.5;fill:#ffffff;fill-opacity:1;stroke-width:5.99999;stroke-linejoin:bevel"
     d="M 26.000376,18 A 11.999998,11.999998 0 0 0 14.000377,29.999997 h 11.999999 z" />
  <rect
     style="fill:url(#linearGradient1875);fill-opacity:1;stroke-width:0.999999"
     id="rect3242"
     width="15.999999"
     height="15.999999"
     x="9.0003767"
     y="22.000011"
     ry="3" />
  <rect
     style="fill:#ffffff;fill-opacity:1;stroke-width:0.999999"
     id="rect2687"
     width="14"
     height="14"
     x="10.000376"
     y="23.000013"
     ry="2" />
  <path
     id="path5021"
     style="fill:url(#linearGradient1883);fill-opacity:1;stroke-width:1.16666"
     d="m 14,25 v 10.000001 h 1.999999 v -3 h 1.5 C 19.432995,32.000001 21,30.432996 21,28.5 21,26.567005 19.432995,25 17.499999,25 h -1.5 z m 1.999999,2 h 1.5 c 0.828427,0 1.5,0.671574 1.5,1.5 0,0.828427 -0.671573,1.5 -1.5,1.5 h -1.5 z"
     sodipodi:nodetypes="ccccssscccssscc" />
  <path
     d="m 41,16 h -9 c -1.662,0 -3,-1.338 -3,-3 V 3 l 12,12 z"
     style="opacity:0.2;fill:#000000;stroke-width:0.75;stroke-linecap:round;stroke-linejoin:round"
     id="path611"
     sodipodi:nodetypes="cssccc" />
  <path
     id="rect600"
     style="fill:#f2beb2;fill-opacity:1;stroke-width:0.75;stroke-linecap:round;stroke-linejoin:round"
     d="m 41,15 h -9 c -1.662,0 -3,-1.338 -3,-3 V 3 l 6,6 z"
     sodipodi:nodetypes="cssccc" />
  <path
     d="m 39.902286,27.003448 c -0.354842,0.0168 -0.705005,0.124303 -1.011747,0.328135 L 14.89378,43.335933 c -1.645639,1.097967 -0.868892,3.663422 1.109404,3.664164 H 39.999945 C 41.104495,46.999987 41.999891,46.104594 42,45.000041 V 28.999597 C 41.9989,28.262085 41.592057,27.585012 40.941377,27.23783 40.616652,27.064065 40.257129,26.986547 39.902286,27.003448 Z M 37.99989,32.99971 V 42.999986 H 21.999447 Z"
     style="color:#000000;opacity:0.2;fill:#000000;stroke-width:4.00011;stroke-linecap:round;stroke-linejoin:round"
     id="path5222"
     sodipodi:nodetypes="ccccccccccccc" />
  <path
     id="path5201"
     style="color:#000000;fill:url(#linearGradient1216);fill-opacity:1;stroke-width:4.00011;stroke-linecap:round;stroke-linejoin:round"
     d="m 39.902674,26.004266 c -0.354841,0.0168 -0.705005,0.124304 -1.011747,0.328137 L 14.894167,42.33675 c -1.645637,1.097967 -0.86889,3.663422 1.109407,3.664164 h 23.996759 c 1.104551,-1.1e-4 1.999947,-0.895503 2.000056,-2.000056 V 28.000416 C 41.999289,27.262903 41.592445,26.58583 40.941765,26.238651 40.61704,26.064886 40.257517,25.98737 39.902674,26.004266 Z m -1.902396,5.99626 V 42.000803 H 21.999835 Z"
     sodipodi:nodetypes="ccccccccccccc" />
</svg>
