<?xml version="1.0" encoding="UTF-8" standalone="no"?>
<!-- Created with Inkscape (http://www.inkscape.org/) -->

<svg
   width="48"
   height="48"
   viewBox="0 0 48 48.000003"
   version="1.1"
   id="svg5"
   inkscape:version="1.2.2 (1:1.2.2+202305151914+b0a8486541)"
   sodipodi:docname="application-x-jar.svg"
   xmlns:inkscape="http://www.inkscape.org/namespaces/inkscape"
   xmlns:sodipodi="http://sodipodi.sourceforge.net/DTD/sodipodi-0.dtd"
   xmlns:xlink="http://www.w3.org/1999/xlink"
   xmlns="http://www.w3.org/2000/svg"
   xmlns:svg="http://www.w3.org/2000/svg">
  <sodipodi:namedview
     id="namedview7"
     pagecolor="#ffffff"
     bordercolor="#000000"
     borderopacity="0.25"
     inkscape:showpageshadow="2"
     inkscape:pageopacity="0.0"
     inkscape:pagecheckerboard="0"
     inkscape:deskcolor="#d1d1d1"
     inkscape:document-units="px"
     showgrid="false"
     inkscape:zoom="16.458333"
     inkscape:cx="23.96962"
     inkscape:cy="24"
     inkscape:window-width="1920"
     inkscape:window-height="1012"
     inkscape:window-x="0"
     inkscape:window-y="0"
     inkscape:window-maximized="1"
     inkscape:current-layer="svg5" />
  <defs
     id="defs2">
    <linearGradient
       inkscape:collect="always"
       xlink:href="#linearGradient921"
       id="linearGradient27981"
       x1="10"
       y1="3"
       x2="38"
       y2="45"
       gradientUnits="userSpaceOnUse" />
    <linearGradient
       inkscape:collect="always"
       id="linearGradient921">
      <stop
         style="stop-color:#e67802;stop-opacity:1;"
         offset="0"
         id="stop917" />
      <stop
         style="stop-color:#f7bd65;stop-opacity:1;"
         offset="1"
         id="stop919" />
    </linearGradient>
  </defs>
  <path
     id="rect234"
     style="opacity:0.2;stroke-width:0.75;stroke-linecap:round;stroke-linejoin:round"
     d="m 10,4 h 19 l 12,12 v 27 c 0,1.662 -1.338,3 -3,3 H 10 C 8.338,46 7,44.662 7,43 V 7 C 7,5.338 8.338,4 10,4 Z"
     sodipodi:nodetypes="sccssssss" />
  <path
     id="rect448"
     style="fill:url(#linearGradient27981);fill-opacity:1.0;stroke-width:0.75;stroke-linecap:round;stroke-linejoin:round"
     d="m 10,3 h 19 l 4.5,7.5 7.5,4.5 v 27 c 0,1.662 -1.338,3 -3,3 H 10 C 8.338,45 7,43.662 7,42 V 6 C 7,4.338 8.338,3 10,3 Z"
     sodipodi:nodetypes="scccssssss" />
  <path
     d="m 41,16 h -9 c -1.662,0 -3,-1.338 -3,-3 V 3 l 12,12 z"
     style="opacity:0.2;fill:#000000;stroke-width:0.75;stroke-linecap:round;stroke-linejoin:round"
     id="path611"
     sodipodi:nodetypes="cssccc" />
  <path
     id="rect600"
     style="fill:#fbdab5;fill-opacity:1;stroke-width:0.75;stroke-linecap:round;stroke-linejoin:round"
     d="m 41,15 h -9 c -1.662,0 -3,-1.338 -3,-3 V 3 l 6,6 z"
     sodipodi:nodetypes="cssccc" />
  <path
     d="m 21.168424,30.851812 c -0.05144,-0.0012 -0.12928,0.0014 -0.226562,0.004 -0.58376,0.0154 -1.946283,0.13822 -3.535157,0.90625 -2.505016,1.211728 6.194963,1.766654 10.699219,0.582032 0.468286,-0.319756 1.117188,-0.597656 1.117188,-0.597656 0,0 -1.844044,0.32953 -3.679688,0.484374 -2.24611,0.1882 -4.65757,0.224456 -5.867187,0.0625 -2.864832,-0.382572 1.570313,-1.4375 1.570313,-1.4375 0,0 -0.02668,-0.0026 -0.07812,-0.004 z m 9.8125,0.242188 c -0.29349,7.72e-4 -0.606044,0.05164 -0.92578,0.16406 -0.256804,0.09118 -0.390626,0.300782 -0.390626,0.300782 0,0 0.16126,-0.06522 0.523438,-0.14062 1.477672,-0.308044 3.594408,1.980062 -0.984376,4.359376 -0.02118,0.05664 -0.09374,0.12118 -0.09374,0.1211 5.350796,-1.406638 4.301196,-4.69431 1.996092,-4.804688 -0.04116,-0.002 -0.08308,-1.1e-4 -0.125,0 z m -10.76953,2.929688 c -4.133853,1.372028 2.301756,2.927368 8.078126,1.23828 -0.613988,-0.216482 -1.003906,-0.61328 -1.003906,-0.61328 -2.82306,0.5436 -4.45366,0.52953 -6.519532,0.316406 -1.597525,-0.16524 -0.554688,-0.941406 -0.554688,-0.941406 z m 0.585938,2.460938 c -3.752527,1.048524 2.281022,3.215554 7.058592,1.167968 -0.782514,-0.304298 -1.339842,-0.65625 -1.339844,-0.65625 -2.13119,0.40336 -3.120768,0.431564 -5.054686,0.210938 -1.596341,-0.18352 -0.664062,-0.722656 -0.664062,-0.722656 z M 18.371549,38.4065 c -1.61265,-0.06214 -5.27379,1.548068 -2.148436,2.054688 9.740903,1.579696 17.757125,-0.711866 15.230467,-1.851562 0,0 0.688524,0.567878 -0.761718,1.007812 -2.757674,0.835398 -11.476039,1.089544 -13.898437,0.03516 -0.87079,-0.378824 0.76367,-0.905314 1.277344,-1.015626 0.535708,-0.11616 0.84375,-0.09374 0.84375,-0.09374 -0.12106,-0.08528 -0.312592,-0.12784 -0.54297,-0.13672 z m 14.628907,1.28125 c 0,0 -0.307788,0.787972 -3.632812,1.414062 -3.751278,0.705946 -8.376966,0.624312 -11.121095,0.17188 6.8e-5,-6.6e-5 0.56064,0.463202 3.449219,0.648438 4.395062,0.281338 11.144846,-0.15474 11.304688,-2.234376 z"
     style="fill:#ffffff;fill-opacity:1;stroke-width:2;opacity:0.5"
     id="path2938" />
  <path
     d="m 26.64108,17.594 c 1.023136,4.029328 -3.606082,5.248256 -5.277342,7.757812 -1.138646,1.709612 0.558352,3.546156 2.871094,5.632814 -0.901862,-2.03838 -3.96224,-3.820214 0,-6.94922 C 29.175732,20.134742 26.64108,17.594 26.64108,17.594 Z m 2.800782,4.984374 c 0,0 -8.353734,2.089508 -4.363282,6.687502 1.177192,1.355322 -0.308592,2.57422 -0.308592,2.57422 0,0 2.98994,-1.54429 1.617186,-3.476562 -1.282108,-1.801968 -2.267996,-2.698186 3.054688,-5.78516 z"
     style="fill:#ffffff;fill-opacity:1;stroke-width:2"
     id="path2972" />
</svg>
