<?xml version="1.0" encoding="UTF-8" standalone="no"?>
<!-- Created with Inkscape (http://www.inkscape.org/) -->

<svg
   width="48"
   height="48"
   viewBox="0 0 48 48.000003"
   version="1.1"
   id="svg5"
   inkscape:version="1.2.1 (9c6d41e410, 2022-07-14)"
   sodipodi:docname="application-vnd.ms-word.svg"
   xmlns:inkscape="http://www.inkscape.org/namespaces/inkscape"
   xmlns:sodipodi="http://sodipodi.sourceforge.net/DTD/sodipodi-0.dtd"
   xmlns="http://www.w3.org/2000/svg"
   xmlns:svg="http://www.w3.org/2000/svg">
  <sodipodi:namedview
     id="namedview7"
     pagecolor="#ffffff"
     bordercolor="#000000"
     borderopacity="0.25"
     inkscape:showpageshadow="2"
     inkscape:pageopacity="0.0"
     inkscape:pagecheckerboard="0"
     inkscape:deskcolor="#d1d1d1"
     inkscape:document-units="px"
     showgrid="false"
     inkscape:zoom="17.208333"
     inkscape:cx="24.029056"
     inkscape:cy="24"
     inkscape:window-width="1920"
     inkscape:window-height="1006"
     inkscape:window-x="0"
     inkscape:window-y="0"
     inkscape:window-maximized="1"
     inkscape:current-layer="svg5" />
  <defs
     id="defs2" />
  <path
     id="rect234"
     style="opacity:0.2;stroke-width:0.75;stroke-linecap:round;stroke-linejoin:round"
     d="m 10,4 h 19 l 12,12 v 27 c 0,1.662 -1.338,3 -3,3 H 10 C 8.338,46 7,44.662 7,43 V 7 C 7,5.338 8.338,4 10,4 Z"
     sodipodi:nodetypes="sccssssss" />
  <path
     id="rect448"
     style="fill:#005a9e;fill-opacity:1;stroke-width:0.75;stroke-linecap:round;stroke-linejoin:round"
     d="m 10,3 h 19 l 4.5,7.5 7.5,4.5 v 27 c 0,1.662 -1.338,3 -3,3 H 10 C 8.338,45 7,43.662 7,42 V 6 C 7,4.338 8.338,3 10,3 Z"
     sodipodi:nodetypes="scccssssss" />
  <rect
     style="opacity:0.25;fill:#ffffff;fill-opacity:1;stroke-width:3.99999;stroke-linejoin:bevel"
     id="rect25302"
     width="18"
     height="24"
     x="18.000389"
     y="18.000195"
     ry="2" />
  <path
     id="rect29937"
     style="opacity:0.5;fill:#ffffff;fill-opacity:1;stroke-width:5.99996;stroke-linejoin:bevel"
     d="m 18.000004,29.999998 v 6 H 36 v -6 z"
     sodipodi:nodetypes="ccccc" />
  <path
     id="path29903"
     style="opacity:0.7;fill:#ffffff;fill-opacity:1;stroke-width:1.99999;stroke-linejoin:bevel"
     d="M 18 36 L 18 40 A 2 2 0 0 0 20 42 L 34 42 A 2 2 0 0 0 36 40 L 36 36 L 18 36 z " />
  <path
     id="rect28337"
     style="opacity:0.3;fill:#ffffff;fill-opacity:1;stroke-width:6;stroke-linejoin:bevel"
     d="m 17.999999,24 v 5.999998 H 36 V 24 Z"
     sodipodi:nodetypes="ccccc" />
  <rect
     style="fill:#005a9e;fill-opacity:1;stroke-width:0.999999"
     id="rect3242"
     width="15.999999"
     height="15.999999"
     x="9.0003767"
     y="22.000011"
     ry="3" />
  <rect
     style="fill:#ffffff;fill-opacity:1;stroke-width:0.999999"
     id="rect2687"
     width="14"
     height="14"
     x="10.000376"
     y="23.000013"
     ry="2" />
  <path
     id="rect3223"
     style="fill:#005a9e;fill-opacity:1;stroke-width:1.11555"
     d="m 11.00005,24.999898 2.501139,10.000225 h 1.998373 l 1.500812,-6.266892 1.500815,6.266892 h 1.998372 l 2.50114,-10.000225 H 21.00005 l -1.500814,5.999774 -1.498537,-5.999774 h -2.000651 l -1.498533,5.999774 -1.500814,-5.999774 z"
     sodipodi:nodetypes="cccccccccccccc" />
  <path
     d="m 41,16 h -9 c -1.662,0 -3,-1.338 -3,-3 V 3 l 12,12 z"
     style="opacity:0.2;fill:#000000;stroke-width:0.75;stroke-linecap:round;stroke-linejoin:round"
     id="path611"
     sodipodi:nodetypes="cssccc" />
  <path
     id="rect600"
     style="fill:#79a8cc;fill-opacity:1;stroke-width:0.75;stroke-linecap:round;stroke-linejoin:round"
     d="m 41,15 h -9 c -1.662,0 -3,-1.338 -3,-3 V 3 l 6,6 z"
     sodipodi:nodetypes="cssccc" />
</svg>
