<?xml version="1.0" encoding="UTF-8" standalone="no"?>
<!-- Created with Inkscape (http://www.inkscape.org/) -->

<svg
   width="48"
   height="48"
   viewBox="0 0 48 48.000003"
   version="1.1"
   id="svg5"
   inkscape:version="1.2.1 (9c6d41e410, 2022-07-14)"
   sodipodi:docname="unknown.svg"
   xmlns:inkscape="http://www.inkscape.org/namespaces/inkscape"
   xmlns:sodipodi="http://sodipodi.sourceforge.net/DTD/sodipodi-0.dtd"
   xmlns="http://www.w3.org/2000/svg"
   xmlns:svg="http://www.w3.org/2000/svg">
  <sodipodi:namedview
     id="namedview7"
     pagecolor="#ffffff"
     bordercolor="#000000"
     borderopacity="0.25"
     inkscape:showpageshadow="2"
     inkscape:pageopacity="0.0"
     inkscape:pagecheckerboard="0"
     inkscape:deskcolor="#d1d1d1"
     inkscape:document-units="px"
     showgrid="false"
     inkscape:zoom="17.208333"
     inkscape:cx="23.970944"
     inkscape:cy="24"
     inkscape:window-width="1920"
     inkscape:window-height="1006"
     inkscape:window-x="0"
     inkscape:window-y="0"
     inkscape:window-maximized="1"
     inkscape:current-layer="svg5" />
  <defs
     id="defs2" />
  <path
     id="rect234"
     style="opacity:0.2;stroke-width:0.75;stroke-linecap:round;stroke-linejoin:round"
     d="m 10,4 h 19 l 12,12 v 27 c 0,1.662 -1.338,3 -3,3 H 10 C 8.338,46 7,44.662 7,43 V 7 C 7,5.338 8.338,4 10,4 Z"
     sodipodi:nodetypes="sccssssss" />
  <path
     id="rect448"
     style="fill:#808080;fill-opacity:1;stroke-width:0.75;stroke-linecap:round;stroke-linejoin:round"
     d="m 10,3 h 19 l 4.5,7.5 7.5,4.5 v 27 c 0,1.662 -1.338,3 -3,3 H 10 C 8.338,45 7,43.662 7,42 V 6 C 7,4.338 8.338,3 10,3 Z"
     sodipodi:nodetypes="scccssssss" />
  <path
     id="path14687"
     style="font-size:7.8202px;line-height:1.25;font-family:'Google Sans';-inkscape-font-specification:'Google Sans';fill:#ffffff;fill-opacity:1;stroke-width:0.91394"
     d="m 23.964843,16 c -1.949736,0 -3.535316,0.547802 -4.753906,1.644532 -1.218586,1.072354 -2.096632,2.316906 -2.632812,3.730468 l 2.886718,1.20703 c 0.365578,-1.023612 0.902596,-1.876186 1.609376,-2.558592 0.73115,-0.70678 1.707192,-1.0625 2.925782,-1.0625 1.340442,0 2.389008,0.366502 3.14453,1.097656 0.755526,0.706778 1.132812,1.646566 1.132812,2.816406 0,0.877382 -0.221464,1.63196 -0.660156,2.265624 -0.41432,0.609294 -1.107164,1.353086 -2.08203,2.23047 -1.194218,1.1211 -2.021312,2.082452 -2.484376,2.886718 -0.463064,0.804268 -0.695312,1.81657 -0.695312,3.035156 V 36 h 3.179688 v -2.488282 c 0,-0.877382 0.1813,-1.642746 0.546874,-2.30078 0.365576,-0.658036 0.953544,-1.354784 1.757812,-2.085938 1.047986,-0.950498 1.900558,-1.890282 2.558594,-2.816406 0.68241,-0.9505 1.023438,-2.09315 1.023438,-3.433594 0,-1.2917 -0.31946,-2.463734 -0.953126,-3.511718 -0.609292,-1.047984 -1.483434,-1.864296 -2.628906,-2.44922 C 26.718743,16.304772 25.427151,16 23.964843,16 Z m 0.11328,23 c -1.104568,0 -2,0.895432 -2,2 0,1.104568 0.895432,2 2,2 1.104568,0 2,-0.895432 2,-2 0,-1.104568 -0.895432,-2 -2,-2 z"
     sodipodi:nodetypes="sccccscsccssccssccsccssssss" />
  <path
     d="m 41,16 h -9 c -1.662,0 -3,-1.338 -3,-3 V 3 l 12,12 z"
     style="opacity:0.2;fill:#000000;stroke-width:0.75;stroke-linecap:round;stroke-linejoin:round"
     id="path611"
     sodipodi:nodetypes="cssccc" />
  <path
     id="rect600"
     style="fill:#b3b3b3;fill-opacity:1;stroke-width:0.75;stroke-linecap:round;stroke-linejoin:round"
     d="m 41,15 h -9 c -1.662,0 -3,-1.338 -3,-3 V 3 l 6,6 z"
     sodipodi:nodetypes="cssccc" />
</svg>
