<?xml version="1.0" encoding="UTF-8" standalone="no"?>
<!-- Created with Inkscape (http://www.inkscape.org/) -->

<svg
   width="48"
   height="48"
   viewBox="0 0 48 48.000003"
   version="1.1"
   id="svg5"
   inkscape:version="1.2.2 (1:1.2.2+202305151914+b0a8486541)"
   sodipodi:docname="x-office-document.svg"
   xmlns:inkscape="http://www.inkscape.org/namespaces/inkscape"
   xmlns:sodipodi="http://sodipodi.sourceforge.net/DTD/sodipodi-0.dtd"
   xmlns:xlink="http://www.w3.org/1999/xlink"
   xmlns="http://www.w3.org/2000/svg"
   xmlns:svg="http://www.w3.org/2000/svg">
  <sodipodi:namedview
     id="namedview7"
     pagecolor="#ffffff"
     bordercolor="#000000"
     borderopacity="0.25"
     inkscape:showpageshadow="2"
     inkscape:pageopacity="0.0"
     inkscape:pagecheckerboard="0"
     inkscape:deskcolor="#d1d1d1"
     inkscape:document-units="px"
     showgrid="false"
     inkscape:zoom="16.458333"
     inkscape:cx="23.96962"
     inkscape:cy="24"
     inkscape:window-width="1920"
     inkscape:window-height="1012"
     inkscape:window-x="0"
     inkscape:window-y="0"
     inkscape:window-maximized="1"
     inkscape:current-layer="svg5" />
  <defs
     id="defs2">
    <linearGradient
       inkscape:collect="always"
       id="linearGradient1060">
      <stop
         style="stop-color:#2275d4;stop-opacity:1;"
         offset="0"
         id="stop1056" />
      <stop
         style="stop-color:#54a0fa;stop-opacity:1;"
         offset="1"
         id="stop1058" />
    </linearGradient>
    <linearGradient
       inkscape:collect="always"
       xlink:href="#linearGradient1060"
       id="linearGradient1609"
       x1="10"
       y1="3"
       x2="38"
       y2="45"
       gradientUnits="userSpaceOnUse" />
  </defs>
  <path
     id="rect234"
     style="opacity:0.2;stroke-width:0.75;stroke-linecap:round;stroke-linejoin:round"
     d="m 10,4 h 19 l 12,12 v 27 c 0,1.662 -1.338,3 -3,3 H 10 C 8.338,46 7,44.662 7,43 V 7 C 7,5.338 8.338,4 10,4 Z"
     sodipodi:nodetypes="sccssssss" />
  <path
     id="rect448"
     style="fill:url(#linearGradient1609);fill-opacity:1;stroke-width:0.75;stroke-linecap:round;stroke-linejoin:round"
     d="m 10,3 h 19 l 4.5,7.5 7.5,4.5 v 27 c 0,1.662 -1.338,3 -3,3 H 10 C 8.338,45 7,43.662 7,42 V 6 C 7,4.338 8.338,3 10,3 Z"
     sodipodi:nodetypes="scccssssss" />
  <path
     id="rect4373"
     style="fill:#ffffff"
     d="m 13.5,21 c -0.277,0 -0.5,0.223 -0.5,0.5 0,0.277 0.223,0.5 0.5,0.5 h 9 C 22.777,22 23,21.777 23,21.5 23,21.223 22.777,21 22.5,21 Z m 0,3 c -0.277,0 -0.5,0.223 -0.5,0.5 0,0.277 0.223,0.5 0.5,0.5 h 9 C 22.777,25 23,24.777 23,24.5 23,24.223 22.777,24 22.5,24 Z m 0,3 c -0.277,0 -0.5,0.223 -0.5,0.5 0,0.277 0.223,0.5 0.5,0.5 h 9 C 22.777,28 23,27.777 23,27.5 23,27.223 22.777,27 22.5,27 Z m 0,3 c -0.277,0 -0.5,0.223 -0.5,0.5 0,0.277 0.223,0.5 0.5,0.5 h 21 C 34.777,31 35,30.777 35,30.5 35,30.223 34.777,30 34.5,30 Z m 0,3 c -0.277,0 -0.5,0.223 -0.5,0.5 0,0.277 0.223,0.5 0.5,0.5 h 21 C 34.777,34 35,33.777 35,33.5 35,33.223 34.777,33 34.5,33 Z m 0,3 c -0.277,0 -0.5,0.223 -0.5,0.5 0,0.277 0.223,0.5 0.5,0.5 h 9 C 22.777,37 23,36.777 23,36.5 23,36.223 22.777,36 22.5,36 Z"
     sodipodi:nodetypes="ssssssssssssssssssssssssssssssssssssssssss" />
  <path
     id="rect4649"
     style="fill:#7ad2f9;fill-opacity:1"
     d="m 26,21 c -0.553998,0 -1,0.446002 -1,1 v 5 c 0,0.553998 0.446002,1 1,1 h 8 c 0.553998,0 1,-0.446002 1,-1 v -5 c 0,-0.553998 -0.446002,-1 -1,-1 z m 7,1 c 0.552283,0 1,0.447717 1,1 0,0.552283 -0.447717,1 -1,1 -0.552283,0 -1,-0.447717 -1,-1 0,-0.552283 0.447717,-1 1,-1 z m -4,1 3,4 h -6 z" />
  <path
     d="m 41,16 h -9 c -1.662,0 -3,-1.338 -3,-3 V 3 l 12,12 z"
     style="opacity:0.2;fill:#000000;stroke-width:0.75;stroke-linecap:round;stroke-linejoin:round"
     id="path611"
     sodipodi:nodetypes="cssccc" />
  <path
     id="rect600"
     style="fill:#94c4f5;fill-opacity:1;stroke-width:0.75;stroke-linecap:round;stroke-linejoin:round"
     d="m 41,15 h -9 c -1.662,0 -3,-1.338 -3,-3 V 3 l 6,6 z"
     sodipodi:nodetypes="cssccc" />
</svg>
