<?xml version="1.0" encoding="UTF-8" standalone="no"?>
<svg
   width="16"
   height="16"
   version="1.1"
   id="svg2"
   sodipodi:docname="align-vertical-baseline-symbolic.svg"
   inkscape:version="1.4.2 (ebf0e940d0, 2025-05-08)"
   xmlns:inkscape="http://www.inkscape.org/namespaces/inkscape"
   xmlns:sodipodi="http://sodipodi.sourceforge.net/DTD/sodipodi-0.dtd"
   xmlns="http://www.w3.org/2000/svg"
   xmlns:svg="http://www.w3.org/2000/svg">
  <defs
     id="defs2">
      <style
          id="current-color-scheme"
          type="text/css">
          .ColorScheme-Text { color:#f2f2f2; }
      </style>
  </defs>
  <sodipodi:namedview
     id="namedview2"
     pagecolor="#ffffff"
     bordercolor="#000000"
     borderopacity="0.25"
     inkscape:showpageshadow="2"
     inkscape:pageopacity="0.0"
     inkscape:pagecheckerboard="0"
     inkscape:deskcolor="#d1d1d1"
     inkscape:zoom="49.6875"
     inkscape:cx="8"
     inkscape:cy="8"
     inkscape:window-width="1920"
     inkscape:window-height="1010"
     inkscape:window-x="0"
     inkscape:window-y="0"
     inkscape:window-maximized="1"
     inkscape:current-layer="svg2" />
  <style
     id="style1">@import &quot;../../highlights.css&quot;;</style>
  <path
     id="path1"
     style="fill:currentColor"
     class="ColorScheme-Text"
     d="M 5.0078125 3.9980469 C 4.6380329 3.9980469 4.2807882 4.0488814 3.9394531 4.1484375 C 3.5981181 4.2408824 3.3035776 4.3551226 3.0546875 4.4902344 L 3.34375 5.1933594 C 3.5784178 5.079581 3.8293858 4.979865 4.0996094 4.8945312 C 4.369833 4.8020863 4.6544569 4.7558594 4.953125 4.7558594 C 5.3300158 4.7558594 5.6219018 4.8483133 5.828125 5.0332031 C 6.0343483 5.218093 6.1367188 5.5489438 6.1367188 6.0253906 L 6.1367188 6.3671875 L 5.1660156 6.3984375 C 4.2344554 6.4268821 3.5456585 6.5972658 3.0976562 6.9101562 C 2.649654 7.2159355 2.4257812 7.6537645 2.4257812 8.2226562 C 2.4257813 8.8057703 2.596165 9.2363372 2.9375 9.5136719 C 3.2788351 9.7838955 3.709402 9.9199219 4.2285156 9.9199219 C 4.7120736 9.9199219 5.0891514 9.8446466 5.359375 9.6953125 C 5.6367097 9.5459784 5.8995474 9.3148436 6.1484375 9.0019531 L 6.1914062 9.0019531 L 6.3730469 9.8125 L 7.0546875 9.8125 L 7.0546875 5.9179688 C 7.0546875 5.2495209 6.8869582 4.7628105 6.5527344 4.4570312 C 6.2185105 4.1512519 5.7047049 3.9980469 5.0078125 3.9980469 z M 8.4746094 3.9980469 L 10.777344 9.7382812 L 10.478516 10.494141 C 10.407151 10.685935 10.318672 10.853813 10.210938 10.998047 L 0.0078125 10.998047 L 0.0078125 11.998047 L 8.5800781 11.998047 L 8.5800781 12.191406 C 8.6725231 12.21274 8.7821556 12.229921 8.9101562 12.244141 C 9.0381569 12.265474 9.1887075 12.275391 9.359375 12.275391 C 9.7809594 12.275391 10.132153 12.182911 10.414062 11.998047 L 16.007812 11.998047 L 16.007812 10.998047 L 11.224609 10.998047 C 11.302361 10.845299 11.374548 10.682032 11.439453 10.505859 L 13.902344 3.9980469 L 12.890625 3.9980469 L 11.726562 7.2421875 C 11.627006 7.5337445 11.531898 7.8256305 11.439453 8.1171875 C 11.347008 8.4016334 11.278995 8.6327682 11.236328 8.8105469 L 11.193359 8.8105469 C 11.150692 8.5758791 11.087286 8.3302201 11.001953 8.0742188 C 10.916619 7.8111064 10.819558 7.536399 10.712891 7.2519531 L 9.4765625 3.9980469 L 8.4746094 3.9980469 z M 6.1269531 7.0175781 L 6.1269531 7.5292969 C 6.1269531 8.0839663 5.966486 8.4973546 5.6464844 8.7675781 C 5.3264828 9.0306906 4.9249642 9.1621094 4.4414062 9.1621094 C 4.135627 9.1621094 3.8827059 9.0868341 3.6835938 8.9375 C 3.4915928 8.7881659 3.3964844 8.5543766 3.3964844 8.234375 C 3.3964844 7.8717065 3.5305577 7.5897371 3.8007812 7.390625 C 4.078116 7.1915129 4.5740416 7.0772727 5.2851562 7.0488281 L 6.1269531 7.0175781 z " />
</svg>
