<?xml version="1.0" encoding="UTF-8" standalone="no"?>
<svg
   width="16.018"
   height="16"
   version="1.1"
   id="svg3"
   sodipodi:docname="container-terminal-symbolic.svg"
   inkscape:version="1.4.2 (ebf0e940d0, 2025-05-08)"
   xmlns:inkscape="http://www.inkscape.org/namespaces/inkscape"
   xmlns:sodipodi="http://sodipodi.sourceforge.net/DTD/sodipodi-0.dtd"
   xmlns="http://www.w3.org/2000/svg"
   xmlns:svg="http://www.w3.org/2000/svg">
  <defs
     id="defs3">
     <style
        id="current-color-scheme"
        type="text/css">
        .ColorScheme-Text { color:#f2f2f2; }
     </style>
  </defs>
  <sodipodi:namedview
     id="namedview3"
     pagecolor="#ffffff"
     bordercolor="#000000"
     borderopacity="0.25"
     inkscape:showpageshadow="2"
     inkscape:pageopacity="0.0"
     inkscape:pagecheckerboard="0"
     inkscape:deskcolor="#d1d1d1"
     inkscape:zoom="24.84375"
     inkscape:cx="5.3333333"
     inkscape:cy="8.8754717"
     inkscape:window-width="1920"
     inkscape:window-height="1010"
     inkscape:window-x="0"
     inkscape:window-y="0"
     inkscape:window-maximized="1"
     inkscape:current-layer="svg3" />
  <path
     id="path1"
     style="fill:currentColor"
     class="ColorScheme-Text"
     d="M 4 1 L 4 2 L 6 2 L 6 1 L 4 1 z M 7 1 L 7 2 L 9 2 L 9 1 L 7 1 z M 10 1 L 10 2 L 12 2 L 12 1 L 10 1 z M 2.9980469 1.125 C 1.2700469 1.56754 -5.9211895e-16 3.1303 0 5 L 1 5 C 1 3.6895 1.83335 2.5843281 3 2.1738281 L 3 1.125 L 2.9980469 1.125 z M 13 1.1289062 L 13 2.1738281 C 14.1666 2.5843381 15 3.6895 15 5 L 16 5 C 16 3.1302 14.7281 1.5714063 13 1.1289062 z M 4 3 C 2.892 3 2 3.892 2 5 L 2 11 C 2 12.108 2.892 13 4 13 L 12 13 C 13.108 13 14 12.108 14 11 L 14 5 C 14 3.892 13.108 3 12 3 L 4 3 z M 4 4 L 12 4 C 12.554 4 13 4.446 13 5 L 13 11 C 13 11.554 12.554 12 12 12 L 4 12 C 3.446 12 3 11.554 3 11 L 3 5 C 3 4.446 3.446 4 4 4 z M 6.3710938 5.6542969 L 5.6640625 6.3613281 L 7.3105469 8.0078125 L 5.6640625 9.6542969 L 6.3710938 10.361328 L 8.7246094 8.0078125 L 6.3710938 5.6542969 z M 0 6 L 0 8 L 1 8 L 1 6 L 0 6 z M 15 6 L 15 8 L 16 8 L 16 6 L 15 6 z M 0 9 L 0 11 L 1 11 L 1 9 L 0 9 z M 15 9 L 15 11 L 16 11 L 16 9 L 15 9 z M 0.12890625 12 C 0.48956625 13.4086 1.592 14.5144 3 14.875 L 3 13.828125 C 2.14709 13.527415 1.4743281 12.8539 1.1738281 12 L 0.12890625 12 z M 14.826172 12 C 14.525702 12.85392 13.85293 13.527425 13 13.828125 L 13 14.875 C 14.408 14.51441 15.510394 13.4087 15.871094 12 L 14.826172 12 z M 4 14 L 4 15 L 6 15 L 6 14 L 4 14 z M 7 14 L 7 15 L 9 15 L 9 14 L 7 14 z M 10 14 L 10 15 L 12 15 L 12 14 L 10 14 z " />
</svg>
