<?xml version="1.0" encoding="UTF-8" standalone="no"?>
<svg
   width="16"
   height="16"
   version="1.1"
   viewBox="0 0 16 16"
   id="svg1"
   sodipodi:docname="edit-delete-symbolic.svg"
   inkscape:version="1.4.2 (ebf0e940d0, 2025-05-08)"
   xmlns:inkscape="http://www.inkscape.org/namespaces/inkscape"
   xmlns:sodipodi="http://sodipodi.sourceforge.net/DTD/sodipodi-0.dtd"
   xmlns="http://www.w3.org/2000/svg"
   xmlns:svg="http://www.w3.org/2000/svg">
  <sodipodi:namedview
     id="namedview1"
     pagecolor="#ffffff"
     bordercolor="#000000"
     borderopacity="0.25"
     inkscape:showpageshadow="2"
     inkscape:pageopacity="0.0"
     inkscape:pagecheckerboard="0"
     inkscape:deskcolor="#d1d1d1"
     inkscape:zoom="49.6875"
     inkscape:cx="8"
     inkscape:cy="8"
     inkscape:window-width="1920"
     inkscape:window-height="1010"
     inkscape:window-x="0"
     inkscape:window-y="0"
     inkscape:window-maximized="1"
     inkscape:current-layer="svg1" />
  <defs
     id="defs1">
     <style
        id="current-color-scheme"
        type="text/css">
        .ColorScheme-Text { color:#f2f2f2; }
     </style>
  </defs>
  <path
     id="path1"
     style="fill:currentColor"
     class="ColorScheme-Text"
     d="M 8 0 A 3 3 0 0 0 5.1777344 2 L 1 2 C 0.72386 2 0.5 2.22386 0.5 2.5 L 0.5078125 2.5898438 C 0.5501425 2.8230837 0.75454 3 1 3 L 1.5527344 3 L 2.8496094 14.228516 C 2.9660494 15.237716 3.8200875 16 4.8359375 16 L 11.164062 16 C 12.179963 16 13.033991 15.237736 13.150391 14.228516 L 14.445312 3 L 15 3 C 15.2761 3 15.5 2.77614 15.5 2.5 C 15.5 2.22386 15.2761 2 15 2 L 10.828125 2 A 3 3 0 0 0 8 0 z M 8 1 A 2 2 0 0 1 9.7304688 2 L 9.5 2 L 6.2753906 2 A 2 2 0 0 1 8 1 z M 2.5605469 3 L 5 3 L 6 3 L 10 3 L 11 3 L 13.4375 3 L 12.15625 14.115234 C 12.09805 14.619834 11.672063 15 11.164062 15 L 4.8359375 15 C 4.3279975 15 3.90197 14.619834 3.84375 14.115234 L 2.5605469 3 z M 6.5 5.5 C 6.22386 5.5 6 5.69588 6 5.9375 L 6 12.0625 L 6.0078125 12.140625 C 6.0501425 12.344725 6.25454 12.5 6.5 12.5 C 6.77614 12.5 7 12.3041 7 12.0625 L 7 5.9375 L 6.9921875 5.859375 C 6.9498575 5.655285 6.74546 5.5 6.5 5.5 z M 9.5 5.5 C 9.2239 5.5 9 5.69588 9 5.9375 L 9 12.0625 L 9.0078125 12.140625 C 9.0501125 12.344725 9.2545 12.5 9.5 12.5 C 9.7761 12.5 10 12.3041 10 12.0625 L 10 5.9375 L 9.9921875 5.859375 C 9.9498875 5.655285 9.7455 5.5 9.5 5.5 z " />
</svg>
