<?xml version="1.0" encoding="UTF-8" standalone="no"?>
<svg
   width="16"
   height="16"
   version="1.1"
   id="svg1"
   sodipodi:docname="emblem-synchronizing-symbolic.svg"
   inkscape:version="1.4.2 (ebf0e940d0, 2025-05-08)"
   xmlns:inkscape="http://www.inkscape.org/namespaces/inkscape"
   xmlns:sodipodi="http://sodipodi.sourceforge.net/DTD/sodipodi-0.dtd"
   xmlns="http://www.w3.org/2000/svg"
   xmlns:svg="http://www.w3.org/2000/svg">
  <defs
     id="defs1">
     <style
        id="current-color-scheme"
        type="text/css">
        .ColorScheme-Text { color:#f2f2f2; }
        .ColorScheme-NegativeText { color:#da4453; }
     </style>
  </defs>
  <sodipodi:namedview
     id="namedview1"
     pagecolor="#ffffff"
     bordercolor="#000000"
     borderopacity="0.25"
     inkscape:showpageshadow="2"
     inkscape:pageopacity="0.0"
     inkscape:pagecheckerboard="0"
     inkscape:deskcolor="#d1d1d1"
     inkscape:zoom="49.6875"
     inkscape:cx="8"
     inkscape:cy="8"
     inkscape:window-width="1920"
     inkscape:window-height="1010"
     inkscape:window-x="0"
     inkscape:window-y="0"
     inkscape:window-maximized="1"
     inkscape:current-layer="svg1" />
  <path
     id="path1"
     style="fill:currentColor"
     class="ColorScheme-Text"
     d="M 8 1 A 7 7 0 0 0 1.2929688 6 L 2.3535156 6 A 6 6 0 0 1 8 2 A 6 6 0 0 1 13.8125 6.5878906 L 11.679688 6.0175781 C 11.412128 5.9458851 11.140049 6.1035278 11.068359 6.3710938 C 10.996666 6.6386537 11.15431 6.9107319 11.421875 6.9824219 L 14.320312 7.7597656 C 14.587872 7.8314586 14.859951 7.673816 14.931641 7.40625 L 15.708984 4.5078125 C 15.780677 4.2402525 15.623035 3.9681744 15.355469 3.8964844 C 15.087909 3.8247914 14.813878 3.982434 14.742188 4.25 L 14.453125 5.3261719 A 7 7 0 0 0 8 1 z M 1.4785156 8 C 1.2653456 8.0082246 1.0758281 8.1537037 1.0175781 8.3710938 L 0.24023438 11.269531 C 0.16854137 11.537091 0.326184 11.809169 0.59375 11.880859 C 0.861316 11.952549 1.1353413 11.79491 1.2070312 11.527344 L 1.4804688 10.503906 A 7 7 0 0 0 8 15 A 7 7 0 0 0 14.707031 10 L 13.646484 10 A 6 6 0 0 1 8 14 A 6 6 0 0 1 2.1347656 9.1875 L 4.2675781 9.7597656 C 4.5351381 9.8314586 4.8091694 9.673816 4.8808594 9.40625 C 4.9525494 9.138684 4.7949097 8.8646588 4.5273438 8.7929688 L 1.6289062 8.0175781 C 1.5787383 8.0041361 1.5277056 7.998102 1.4785156 8 z " />
</svg>
