<?xml version="1.0" encoding="UTF-8" standalone="no"?>
<svg
   width="16px"
   height="16px"
   version="1.1"
   viewBox="0 0 16 16"
   id="svg2"
   sodipodi:docname="ephy-starred-symbolic.svg"
   inkscape:version="1.4.2 (ebf0e940d0, 2025-05-08)"
   xmlns:inkscape="http://www.inkscape.org/namespaces/inkscape"
   xmlns:sodipodi="http://sodipodi.sourceforge.net/DTD/sodipodi-0.dtd"
   xmlns="http://www.w3.org/2000/svg"
   xmlns:svg="http://www.w3.org/2000/svg">
  <defs
     id="defs2">
     <style
        id="current-color-scheme"
        type="text/css">
        .ColorScheme-Text { color:#f2f2f2; }
     </style>
  </defs>
  <sodipodi:namedview
     id="namedview2"
     pagecolor="#ffffff"
     bordercolor="#000000"
     borderopacity="0.25"
     inkscape:showpageshadow="2"
     inkscape:pageopacity="0.0"
     inkscape:pagecheckerboard="0"
     inkscape:deskcolor="#d1d1d1"
     inkscape:zoom="49.6875"
     inkscape:cx="8"
     inkscape:cy="8"
     inkscape:window-width="1920"
     inkscape:window-height="1010"
     inkscape:window-x="0"
     inkscape:window-y="0"
     inkscape:window-maximized="1"
     inkscape:current-layer="svg2" />
  <path
     id="path1"
     style="fill:currentColor"
     class="ColorScheme-Text"
     d="M 7.9589844 1 A 1 1 0 0 0 7.0839844 1.5996094 L 5.5957031 5 L 1.75 5 C 0.83 5.001 0.3999375 6.1370469 1.0859375 6.7480469 L 4.0800781 9.4003906 L 2.5585938 13.664062 C 2.2435938 14.551063 3.2174844 15.342516 4.0214844 14.853516 L 8 12.421875 L 11.978516 14.853516 A 1 1 0 0 0 13.441406 13.664062 L 11.919922 9.4003906 L 14.914062 6.7480469 A 1 1 0 0 0 14.25 5 L 10.404297 5 L 9 1.7910156 L 8.9160156 1.5996094 A 1 1 0 0 0 8.7675781 1.359375 L 8.7558594 1.3457031 A 1 1 0 0 0 8.5507812 1.1679688 A 1 1 0 0 0 8.5488281 1.1660156 L 8.5371094 1.1601562 A 1 1 0 0 0 8.2988281 1.046875 L 8.28125 1.0390625 A 1 1 0 0 0 8 1 A 1 1 0 0 0 7.9589844 1 z M 8 2 L 9 4.2851562 L 9.75 6 L 14.25 6 L 10.75 9.1015625 L 12.5 14 L 8.8710938 11.783203 L 8 11.25 L 3.5 14 L 5.25 9.1015625 L 1.75 6 L 6.25 6 L 8 2 z " />
  <path
     id="path2"
     d="M 8 2 L 6.25 6 L 1.75 6 L 5.25 9.1015625 L 3.5 14 L 8 11.25 L 8.8710938 11.783203 L 12.5 14 L 10.75 9.1015625 L 14.25 6 L 9.75 6 L 9 4.2851562 L 8 2 z "
     style="fill:currentColor;opacity:0.35"
     class="ColorScheme-Text" />
</svg>
