<?xml version="1.0" encoding="UTF-8" standalone="no"?>
<svg
   width="16"
   height="16"
   version="1.1"
   id="svg8"
   sodipodi:docname="format-ordered-list-symbolic-rtl.svg"
   inkscape:version="1.4.2 (ebf0e940d0, 2025-05-08)"
   xmlns:inkscape="http://www.inkscape.org/namespaces/inkscape"
   xmlns:sodipodi="http://sodipodi.sourceforge.net/DTD/sodipodi-0.dtd"
   xmlns="http://www.w3.org/2000/svg"
   xmlns:svg="http://www.w3.org/2000/svg">
  <defs
     id="defs8">
    <style
       id="current-color-scheme"
       type="text/css">
        .ColorScheme-Text { color:#f2f2f2; }
        .ColorScheme-NegativeText { color:#da4453; }
     </style>
  </defs>
  <sodipodi:namedview
     id="namedview8"
     pagecolor="#ffffff"
     bordercolor="#000000"
     borderopacity="0.25"
     inkscape:showpageshadow="2"
     inkscape:pageopacity="0.0"
     inkscape:pagecheckerboard="0"
     inkscape:deskcolor="#d1d1d1"
     inkscape:zoom="49.6875"
     inkscape:cx="8"
     inkscape:cy="8"
     inkscape:window-width="1920"
     inkscape:window-height="1010"
     inkscape:window-x="0"
     inkscape:window-y="0"
     inkscape:window-maximized="1"
     inkscape:current-layer="svg8" />
  <path
     id="rect1"
     style="fill:currentColor"
     class="ColorScheme-Text"
     d="M 2,3 V 4 H 8 V 3 Z M 2,8 V 9 H 8 V 8 Z m 0,5 v 0.984375 H 8 V 13 Z" />
  <path
     id="path3"
     style="fill:currentColor"
     class="ColorScheme-Text"
     d="m 11.944219,0.98632812 -1.22461,0.64257808 v 0.6230469 l 1.173829,-0.59375 V 4.359375 h -1.212891 v 0.5878906 h 3.310547 V 4.359375 H 12.868047 V 0.98632812 Z m 0.361328,4.98828128 c -0.482041,0 -0.863534,0.097286 -1.144531,0.2929687 -0.278717,0.1956828 -0.445171,0.4792014 -0.5,0.8515625 l 0.970703,0.046875 c 0.03198,-0.1842874 0.101607,-0.3228708 0.208984,-0.4140625 0.109659,-0.093088 0.267043,-0.140625 0.472656,-0.140625 0.422641,0 0.632813,0.1758202 0.632813,0.5253907 0,0.1424852 -0.06801,0.287364 -0.205078,0.4355468 C 12.60631,7.7204557 12.370226,7.9087395 12.032109,8.1367188 11.680282,8.3741964 11.388176,8.6018318 11.155156,8.8203125 10.924418,9.0387931 10.745651,9.2642646 10.62,9.4941406 v 0.5546874 h 3.378906 V 9.390625 h -2.240234 c 0.06396,-0.1234881 0.160794,-0.2393643 0.291016,-0.3476562 0.132502,-0.1082847 0.277583,-0.2158705 0.4375,-0.3222657 0.159917,-0.1063878 0.325082,-0.2160322 0.49414,-0.328125 0.171339,-0.1120854 0.327434,-0.2301329 0.466797,-0.3574219 0.139363,-0.1291857 0.252702,-0.2698839 0.341797,-0.421875 0.08909,-0.1519836 0.132812,-0.3236377 0.132812,-0.5117187 0,-0.3571722 -0.139252,-0.6344517 -0.417968,-0.8320313 C 13.226049,6.0719517 12.826424,5.9746094 12.305547,5.9746094 Z m 0.02539,4.8222656 c -0.4568,0 -0.826066,0.103097 -1.109375,0.306641 -0.28331,0.20355 -0.449733,0.484077 -0.498047,0.84375 l 0.925781,0.06055 c 0.01757,-0.173909 0.08477,-0.309438 0.201172,-0.404296 0.118598,-0.09486 0.273778,-0.142578 0.464844,-0.142578 0.204247,0 0.359427,0.04962 0.464843,0.148437 0.10761,0.09683 0.160157,0.232368 0.160157,0.404297 0,0.181817 -0.06526,0.32111 -0.199219,0.419922 -0.133972,0.09683 -0.333875,0.144531 -0.59961,0.144531 h -0.304687 v 0.673828 h 0.324219 c 0.294289,0 0.514725,0.04963 0.664062,0.148438 0.149338,0.09881 0.22461,0.240018 0.22461,0.425781 0,0.203551 -0.06061,0.356266 -0.183594,0.455078 -0.122983,0.09881 -0.295765,0.148437 -0.517578,0.148438 -0.448021,0 -0.702424,-0.202341 -0.761719,-0.603516 l -0.941406,0.07422 c 0.05051,0.389314 0.223288,0.688979 0.517578,0.896484 0.294281,0.205523 0.688963,0.308594 1.1875,0.308594 0.527083,0 0.935201,-0.106882 1.220703,-0.320313 0.285502,-0.213431 0.427734,-0.516908 0.427734,-0.908203 0,-0.26876 -0.09775,-0.488227 -0.291015,-0.660156 -0.191066,-0.173892 -0.464527,-0.280793 -0.820313,-0.318359 v -0.01172 c 0.320644,-0.05533 0.567223,-0.166002 0.736328,-0.333985 0.171298,-0.167975 0.25586,-0.38367 0.25586,-0.644531 0,-0.347819 -0.137588,-0.61881 -0.41211,-0.814453 -0.272329,-0.197617 -0.651363,-0.296875 -1.136718,-0.296875 z" />
</svg>
