<?xml version="1.0" encoding="UTF-8" standalone="no"?>
<svg
   width="16"
   height="16"
   version="1.1"
   id="svg2"
   sodipodi:docname="image-straighten-symbolic.svg"
   inkscape:version="1.4.2 (ebf0e940d0, 2025-05-08)"
   xmlns:inkscape="http://www.inkscape.org/namespaces/inkscape"
   xmlns:sodipodi="http://sodipodi.sourceforge.net/DTD/sodipodi-0.dtd"
   xmlns="http://www.w3.org/2000/svg"
   xmlns:svg="http://www.w3.org/2000/svg">
  <defs
      id="defs2">
      <style
          id="current-color-scheme"
          type="text/css">
          .ColorScheme-Text { color:#f2f2f2; }
      </style>
  </defs>
  <sodipodi:namedview
     id="namedview2"
     pagecolor="#ffffff"
     bordercolor="#000000"
     borderopacity="0.25"
     inkscape:showpageshadow="2"
     inkscape:pageopacity="0.0"
     inkscape:pagecheckerboard="0"
     inkscape:deskcolor="#d1d1d1"
     inkscape:zoom="49.6875"
     inkscape:cx="8"
     inkscape:cy="8"
     inkscape:window-width="1920"
     inkscape:window-height="1010"
     inkscape:window-x="0"
     inkscape:window-y="0"
     inkscape:window-maximized="1"
     inkscape:current-layer="svg2" />
  <path
     id="path1"
     style="fill:currentColor"
     class="ColorScheme-Text"
     d="M 12.830078 1.2851562 C 12.762269 1.2877377 12.693595 1.293232 12.625 1.3027344 L 1.7285156 2.8105469 C 0.63101563 2.9625869 -0.13061562 3.9688063 0.021484375 5.0664062 L 0.2890625 7 L 1.2988281 7 L 1.0117188 4.9296875 C 0.93569975 4.3809275 1.3164744 3.8788344 1.8652344 3.8027344 L 12.761719 2.2929688 C 13.310479 2.2169497 13.812572 2.5977244 13.888672 3.1464844 L 14.423828 7 L 15.433594 7 L 14.880859 3.0078125 C 14.747829 2.0474825 13.96112 1.3459094 13.03125 1.2871094 C 12.96483 1.2829063 12.897887 1.2825748 12.830078 1.2851562 z M 4.6328125 4.4355469 C 4.5823844 4.4374996 4.5317538 4.4421139 4.4804688 4.4492188 C 3.6598787 4.5628987 3.0855188 5.320035 3.1992188 6.140625 C 3.2464468 6.481545 3.4089087 6.77602 3.6367188 7 L 5.7363281 7 C 6.0611181 6.67885 6.239365 6.2157756 6.171875 5.7285156 C 6.072409 5.0104956 5.4794831 4.4822 4.7832031 4.4375 C 4.7334706 4.4343034 4.6832406 4.4335942 4.6328125 4.4355469 z M 10.339844 6.6660156 L 10.121094 7 L 10.691406 7 L 10.339844 6.6660156 z M 1 8 L 1 9 L 2 9 L 2 8 L 1 8 z M 3 8 L 3 9 L 4 9 L 4 8 L 3 8 z M 5 8 L 5 9 L 6 9 L 6 8 L 5 8 z M 7 8 L 7 9 L 8 9 L 8 8 L 7 8 z M 9 8 L 9 9 L 10 9 L 10 8 L 9 8 z M 11 8 L 11 9 L 12 9 L 12 8 L 11 8 z M 13 8 L 13 9 L 14 9 L 14 8 L 13 8 z M 15 8 L 15 9 L 16 9 L 16 8 L 15 8 z M 0.70507812 10 L 1.1191406 12.992188 C 1.2711806 14.089688 2.2774 14.849266 3.375 14.697266 L 14.271484 13.189453 C 15.368984 13.037413 16.130616 12.031194 15.978516 10.933594 L 15.849609 10 L 14.839844 10 L 14.988281 11.070312 L 13.859375 10 L 8.1640625 10 L 7.4414062 11.105469 L 5.5664062 10 L 4.2695312 10 L 2.1113281 12.853516 L 1.7148438 10 L 0.70507812 10 z " />
</svg>
