<?xml version="1.0" encoding="UTF-8" standalone="no"?>
<svg
   width="16"
   height="16"
   enable-background="new"
   version="1.1"
   id="svg2"
   sodipodi:docname="mail-mark-important-symbolic.svg"
   inkscape:version="1.4.2 (ebf0e940d0, 2025-05-08)"
   xmlns:inkscape="http://www.inkscape.org/namespaces/inkscape"
   xmlns:sodipodi="http://sodipodi.sourceforge.net/DTD/sodipodi-0.dtd"
   xmlns="http://www.w3.org/2000/svg"
   xmlns:svg="http://www.w3.org/2000/svg">
  <sodipodi:namedview
     id="namedview2"
     pagecolor="#ffffff"
     bordercolor="#000000"
     borderopacity="0.25"
     inkscape:showpageshadow="2"
     inkscape:pageopacity="0.0"
     inkscape:pagecheckerboard="0"
     inkscape:deskcolor="#d1d1d1"
     inkscape:zoom="49.6875"
     inkscape:cx="8"
     inkscape:cy="8"
     inkscape:window-width="1920"
     inkscape:window-height="1010"
     inkscape:window-x="0"
     inkscape:window-y="0"
     inkscape:window-maximized="1"
     inkscape:current-layer="svg2" />
  <defs
      id="defs1">
      <style
          id="current-color-scheme"
          type="text/css">
          .ColorScheme-Text { color:#f2f2f2; }
          .ColorScheme-NeutralText { color:#f67400; }
      </style>
  </defs>
  <path
     id="path1"
     style="fill:currentColor"
     class="ColorScheme-Text"
     d="M 2.4980469 3.0527344 C 1.6670469 3.0527344 0.99804688 3.7217344 0.99804688 4.5527344 L 0.99804688 11.552734 C 0.99804688 12.382734 1.6670469 13.052734 2.4980469 13.052734 L 7 13.052734 L 7 12.052734 L 2.4980469 12.052734 A 0.499 0.499 0 0 1 1.9980469 11.552734 L 1.9980469 4.5664062 L 7 8.4160156 L 7 7.4003906 C 7 7.3163906 7.0192969 7.2517344 7.0292969 7.1777344 L 2.9726562 4.0527344 L 13.019531 4.0527344 L 10.494141 6 L 12.134766 6 L 13.998047 4.5644531 L 13.998047 6 L 14.998047 6 L 14.998047 4.5527344 C 14.998047 3.7217344 14.329047 3.0527344 13.498047 3.0527344 L 2.4980469 3.0527344 z " />
  <path
     class="ColorScheme-NeutralText warning"
     d="M9 15.007c-1 0-1-1-1-1v-6c0-1 1-1 1-1h6s1 0 1 1v6s0 1-1 1zm2-1h2v-4h-2zm0-5h2v-1h-2z"
     style="fill:currentColor"
     id="path2" />
</svg>
