<?xml version="1.0" encoding="UTF-8" standalone="no"?>
<svg
   version="1.1"
   viewBox="0 0 16 16"
   id="svg2"
   sodipodi:docname="media-playback-play-pause-symbolic.svg"
   inkscape:version="1.4.2 (ebf0e940d0, 2025-05-08)"
   xmlns:inkscape="http://www.inkscape.org/namespaces/inkscape"
   xmlns:sodipodi="http://sodipodi.sourceforge.net/DTD/sodipodi-0.dtd"
   xmlns="http://www.w3.org/2000/svg"
   xmlns:svg="http://www.w3.org/2000/svg">
  <sodipodi:namedview
     id="namedview2"
     pagecolor="#ffffff"
     bordercolor="#000000"
     borderopacity="0.25"
     inkscape:showpageshadow="2"
     inkscape:pageopacity="0.0"
     inkscape:pagecheckerboard="0"
     inkscape:deskcolor="#d1d1d1"
     inkscape:zoom="49.6875"
     inkscape:cx="8"
     inkscape:cy="8"
     inkscape:window-width="1920"
     inkscape:window-height="1010"
     inkscape:window-x="0"
     inkscape:window-y="0"
     inkscape:window-maximized="1"
     inkscape:current-layer="svg2" />
  <defs
     id="defs1">
    <style
       id="current-color-scheme"
       type="text/css">.ColorScheme-Text {
        color:#f2f2f2;
      }</style>
  </defs>
  <path
     id="rect1"
     style="fill:currentColor"
     class="ColorScheme-Text"
     d="M 1.9746094 3 C 1.9439434 3.001283 1.9121856 3.0038312 1.8808594 3.0078125 C 1.6295594 3.0389575 1.4221363 3.1489006 1.2539062 3.3378906 C 1.0856763 3.5268806 1 3.7485731 1 4.0019531 L 1 11.998047 C 1 12.251427 1.0856912 12.473119 1.2539062 12.662109 C 1.4221363 12.851099 1.6295894 12.961028 1.8808594 12.992188 C 2.1321594 13.023347 2.3605525 12.967519 2.5703125 12.824219 L 8.3691406 8.8261719 C 8.5539806 8.6994819 8.6833063 8.5261563 8.7539062 8.3164062 C 8.8245332 8.1045763 8.8245333 7.8953369 8.7539062 7.6855469 C 8.6832793 7.4757869 8.5558269 7.3064844 8.3730469 7.1777344 L 2.5703125 3.1757812 C 2.3873762 3.0485738 2.1892712 2.9910191 1.9746094 3 z M 11.005859 3 C 10.448591 3 10 3.4485908 10 4.0058594 L 10 11.994141 C 10 12.551409 10.448591 13 11.005859 13 C 11.563128 13 12.011719 12.551409 12.011719 11.994141 L 12.011719 4.0058594 C 12.011719 3.4485908 11.563128 3 11.005859 3 z M 15 3 C 14.446 3 14 3.446 14 4 L 14 12 C 14 12.554 14.446 13 15 13 C 15.554 13 16 12.554 16 12 L 16 4 C 16 3.446 15.554 3 15 3 z " />
</svg>
