<?xml version="1.0" encoding="UTF-8" standalone="no"?>
<svg
   height="16"
   width="16"
   version="1.1"
   id="svg4"
   sodipodi:docname="object-rotate-left-symbolic.svg"
   inkscape:version="1.4.2 (ebf0e940d0, 2025-05-08)"
   xmlns:inkscape="http://www.inkscape.org/namespaces/inkscape"
   xmlns:sodipodi="http://sodipodi.sourceforge.net/DTD/sodipodi-0.dtd"
   xmlns="http://www.w3.org/2000/svg"
   xmlns:svg="http://www.w3.org/2000/svg">
  <defs
     id="defs4">
    <style
       id="current-color-scheme"
       type="text/css">
        .ColorScheme-Text { color:#f2f2f2; }
     </style>
  </defs>
  <sodipodi:namedview
     id="namedview4"
     pagecolor="#ffffff"
     bordercolor="#000000"
     borderopacity="0.25"
     inkscape:showpageshadow="2"
     inkscape:pageopacity="0.0"
     inkscape:pagecheckerboard="0"
     inkscape:deskcolor="#d1d1d1"
     inkscape:zoom="49.6875"
     inkscape:cx="8"
     inkscape:cy="8"
     inkscape:window-width="1920"
     inkscape:window-height="1010"
     inkscape:window-x="0"
     inkscape:window-y="0"
     inkscape:window-maximized="1"
     inkscape:current-layer="svg4" />
  <path
     id="path1"
     style="fill:currentColor"
     class="ColorScheme-Text"
     d="m 8.4257812,1.0136719 v 0.00195 C 6.6178263,0.90617072 4.8377382,1.5011667 3.4589844,2.6757812 L 2.0917969,1.3085938 0.71484375,5.9902344 5.3945312,4.6132812 4.1660156,3.3847656 c 1.7364923,-1.4443911 4.1374198,-1.790185 6.2109374,-0.8945312 2.614881,1.1256121 4.077522,3.9349913 3.5,6.7226562 C 13.300213,12.001633 10.85226,13.9982 8.0039062,14 L 7.2324219,13.947266 7.1660156,14.945312 7.5,14.966797 V 15 H 8 c 3.319586,-0.0018 6.182067,-2.333418 6.855469,-5.5839844 0.669899,-3.2515435 -1.034592,-6.526777 -4.082031,-7.84375 -0.761001,-0.328 -1.5566567,-0.5115937 -2.3476568,-0.5585937 z M 8,6 C 6.8954305,6 6,6.8954305 6,8 6,9.1045695 6.8954305,10 8,10 9.1045695,10 10,9.1045695 10,8 10,6.8954305 9.1045695,6 8,6 Z M 8,7 C 8.5522847,7 9,7.4477153 9,8 9,8.5522847 8.5522847,9 8,9 7.4477153,9 7,8.5522847 7,8 7,7.4477153 7.4477153,7 8,7 Z m -5.2128906,3.972656 -0.8320313,0.554688 0.4804688,0.71875 0.039063,0.05078 0.091797,0.103516 0.75,-0.660157 -0.072266,-0.08398 z m 1.1699218,1.445313 -0.6582031,0.751953 0.421875,0.36914 0.050781,0.03906 0.3671875,0.244141 0.5546875,-0.832032 -0.3398438,-0.226562 z m 1.5507813,1.027343 -0.4414063,0.896485 0.2167969,0.109375 0.060547,0.02344 0.7167969,0.246094 0.3222656,-0.947265 -0.6757813,-0.230469 z"
     sodipodi:nodetypes="ccccccccccccccccccsssssssssscccccccccccccccccccccccc" />
</svg>
