<?xml version="1.0" encoding="UTF-8" standalone="no"?>
<svg
   width="20"
   height="20"
   version="1.1"
   id="svg2"
   sodipodi:docname="pointer-primary-click-symbolic.svg"
   inkscape:version="1.4.2 (ebf0e940d0, 2025-05-08)"
   xmlns:inkscape="http://www.inkscape.org/namespaces/inkscape"
   xmlns:sodipodi="http://sodipodi.sourceforge.net/DTD/sodipodi-0.dtd"
   xmlns="http://www.w3.org/2000/svg"
   xmlns:svg="http://www.w3.org/2000/svg">
  <defs
     id="defs2">
    <style
       id="current-color-scheme"
       type="text/css">.ColorScheme-Text {
        color:#f2f2f2;
      }</style>
  </defs>
  <sodipodi:namedview
     id="namedview2"
     pagecolor="#ffffff"
     bordercolor="#000000"
     borderopacity="0.25"
     inkscape:showpageshadow="2"
     inkscape:pageopacity="0.0"
     inkscape:pagecheckerboard="0"
     inkscape:deskcolor="#d1d1d1"
     inkscape:zoom="39.75"
     inkscape:cx="10"
     inkscape:cy="10"
     inkscape:window-width="1920"
     inkscape:window-height="1010"
     inkscape:window-x="0"
     inkscape:window-y="0"
     inkscape:window-maximized="1"
     inkscape:current-layer="svg2" />
  <path
     id="path1"
     style="fill:currentColor"
     class="ColorScheme-Text"
     d="M 3.605,-0.29492188 C 8.0661,4.3471781 12.526912,8.9889594 16.987812,13.630859 h -5.269531 c 0.29887,0.6402 0.597614,1.279752 0.896484,1.919922 0.30521,0.7562 0.806261,1.454824 0.900391,2.277344 0.1293,1.86261 -2.705756,2.950909 -3.847656,1.474609 -0.6467,-1.1959 -1.20595,-2.44085 -1.81836,-3.65625 -1.4147,1.3809 -2.82944,2.761678 -4.24414,4.142578 z m 1.5,3.72656248 V 16.226562 l 3.179687,-3.103515 c 0.8186,1.6712 1.636508,3.342472 2.455078,5.013672 0.133,0.69085 1.31615,0.267252 1.28125,-0.298828 -0.8778,-1.9062 -1.773133,-3.803832 -2.658203,-5.707032 h 4.101563 C 10.677875,9.2311594 7.8915,6.3313406 5.105,3.4316406 Z" />
</svg>
