<?xml version="1.0" encoding="UTF-8" standalone="no"?>
<svg
   width="16"
   height="16"
   version="1.1"
   id="svg1"
   sodipodi:docname="safety-symbolic.svg"
   inkscape:version="1.4.2 (ebf0e940d0, 2025-05-08)"
   xmlns:inkscape="http://www.inkscape.org/namespaces/inkscape"
   xmlns:sodipodi="http://sodipodi.sourceforge.net/DTD/sodipodi-0.dtd"
   xmlns="http://www.w3.org/2000/svg"
   xmlns:svg="http://www.w3.org/2000/svg">
  <defs
     id="defs1">
    <style
      id="current-color-scheme"
      type="text/css">
      .ColorScheme-Text { color:#f2f2f2; }
    </style>
  </defs>
  <sodipodi:namedview
     id="namedview1"
     pagecolor="#ffffff"
     bordercolor="#000000"
     borderopacity="0.25"
     inkscape:showpageshadow="2"
     inkscape:pageopacity="0.0"
     inkscape:pagecheckerboard="0"
     inkscape:deskcolor="#d1d1d1"
     inkscape:zoom="49.6875"
     inkscape:cx="8"
     inkscape:cy="8"
     inkscape:window-width="1920"
     inkscape:window-height="1010"
     inkscape:window-x="0"
     inkscape:window-y="0"
     inkscape:window-maximized="1"
     inkscape:current-layer="svg1" />
  <path
     id="path1"
     style="fill:currentColor"
     class="ColorScheme-Text"
     d="M 2 1 L 2 9 C 2 11.072 3.5755 12.52175 4.9375 13.46875 C 5.77997 14.05021 6.6807 14.5424 7.625 14.9375 L 8 15.0625 L 8.375 14.9375 C 8.375 14.9375 9.7055 14.3935 11.0625 13.4375 C 12.4215 12.4825 14 11.044 14 9 L 14 1 L 2 1 z M 3 2 L 13 2 L 13 2.5820312 L 12.949219 2.6367188 L 8 7.5859375 L 5.171875 4.7578125 L 4.4648438 5.4648438 L 8 9 L 13 4 L 13 9 C 13 11.964 8 14 8 14 C 8 14 3 12.05 3 9 L 3 2 z " />
</svg>
