<?xml version="1.0" encoding="UTF-8" standalone="no"?>
<svg
   width="16"
   height="16"
   version="1.1"
   id="svg2"
   sodipodi:docname="screensaver-unlock-symbolic.svg"
   inkscape:version="1.4.2 (ebf0e940d0, 2025-05-08)"
   xmlns:inkscape="http://www.inkscape.org/namespaces/inkscape"
   xmlns:sodipodi="http://sodipodi.sourceforge.net/DTD/sodipodi-0.dtd"
   xmlns="http://www.w3.org/2000/svg"
   xmlns:svg="http://www.w3.org/2000/svg">
  <defs
     id="defs2">
    <style
       id="current-color-scheme"
       type="text/css">.ColorScheme-Text {
        color:#f2f2f2;
      }</style>
  </defs>
  <sodipodi:namedview
     id="namedview2"
     pagecolor="#ffffff"
     bordercolor="#000000"
     borderopacity="0.25"
     inkscape:showpageshadow="2"
     inkscape:pageopacity="0.0"
     inkscape:pagecheckerboard="0"
     inkscape:deskcolor="#d1d1d1"
     inkscape:zoom="49.6875"
     inkscape:cx="8"
     inkscape:cy="8"
     inkscape:window-width="1920"
     inkscape:window-height="1010"
     inkscape:window-x="0"
     inkscape:window-y="0"
     inkscape:window-maximized="1"
     inkscape:current-layer="svg2" />
  <path
     id="path1"
     style="fill:currentColor"
     class="ColorScheme-Text"
     d="M 12 0 C 9.784 0 8 1.784 8 4 L 8 6 L 2 6 C 0.892 6 0 6.892 0 8 L 0 13 C 0 14.108 0.892 15 2 15 L 10 15 C 11.108 15 12 14.108 12 13 L 12 8 C 12 6.892 11.108 6 10 6 L 9 6 L 9 4 C 9 2.338 10.338 1 12 1 C 13.662 1 15 2.338 15 4 L 15 6 L 16 6 L 16 4 C 16 1.784 14.216 0 12 0 z M 2 7 L 10 7 C 10.554 7 11 7.446 11 8 L 11 13 C 11 13.554 10.554 14 10 14 L 2 14 C 1.446 14 1 13.554 1 13 L 1 8 C 1 7.446 1.446 7 2 7 z " />
</svg>
