<?xml version="1.0" encoding="UTF-8" standalone="no"?>
<svg
   width="16px"
   height="16px"
   version="1.1"
   id="svg1"
   sodipodi:docname="sign-language-symbolic.svg"
   inkscape:version="1.4.2 (ebf0e940d0, 2025-05-08)"
   xmlns:inkscape="http://www.inkscape.org/namespaces/inkscape"
   xmlns:sodipodi="http://sodipodi.sourceforge.net/DTD/sodipodi-0.dtd"
   xmlns="http://www.w3.org/2000/svg"
   xmlns:svg="http://www.w3.org/2000/svg">
  <defs
   id="defs1">
   <style
    id="current-color-scheme"
    type="text/css">
    .ColorScheme-Text { color:#f2f2f2; }
   </style>
  </defs>
  <sodipodi:namedview
     id="namedview1"
     pagecolor="#ffffff"
     bordercolor="#000000"
     borderopacity="0.25"
     inkscape:showpageshadow="2"
     inkscape:pageopacity="0.0"
     inkscape:pagecheckerboard="0"
     inkscape:deskcolor="#d1d1d1"
     inkscape:zoom="49.6875"
     inkscape:cx="8"
     inkscape:cy="8"
     inkscape:window-width="1920"
     inkscape:window-height="1010"
     inkscape:window-x="0"
     inkscape:window-y="0"
     inkscape:window-maximized="1"
     inkscape:current-layer="svg1" />
  <path
     id="path1"
     style="fill:currentColor"
     class="ColorScheme-Text"
     d="M 11.5 1 C 11.223 1 11 1.223 11 1.5 L 11 6 C 11 6.554 10.554 7 10 7 C 9.446 7 9 6.554 9 6 L 9 5.5 C 9 5.465375 8.9968744 5.4310425 8.9902344 5.3984375 C 8.9835944 5.3658305 8.9735545 5.3346175 8.9609375 5.3046875 C 8.9483195 5.2747575 8.9319985 5.2472941 8.9140625 5.2207031 C 8.8961315 5.1941111 8.8761086 5.1690784 8.8535156 5.1464844 C 8.8309216 5.1238904 8.8058889 5.1038735 8.7792969 5.0859375 C 8.7527049 5.0680015 8.7252425 5.0516795 8.6953125 5.0390625 C 8.6653835 5.0264455 8.6341705 5.0164046 8.6015625 5.0097656 C 8.5689555 5.003127 8.534623 5 8.5 5 C 8.465377 5 8.4310425 5.0031256 8.3984375 5.0097656 C 8.3658295 5.0164056 8.3346165 5.0264455 8.3046875 5.0390625 C 8.2747575 5.0516795 8.2472951 5.0680015 8.2207031 5.0859375 C 8.1941111 5.1038735 8.1690784 5.1238904 8.1464844 5.1464844 C 8.1238914 5.1690784 8.1038725 5.1941111 8.0859375 5.2207031 C 8.0680015 5.2472951 8.0516805 5.2747585 8.0390625 5.3046875 C 8.0264455 5.3346175 8.0164036 5.3658305 8.0097656 5.3984375 C 8.0031266 5.4310405 8 5.465373 8 5.5 L 8 6 C 8 6.554 7.554 7 7 7 C 6.446 7 6 6.554 6 6 L 6 5.5 C 6 5.465375 5.9968744 5.4310425 5.9902344 5.3984375 C 5.9835944 5.3658305 5.9735545 5.3346175 5.9609375 5.3046875 C 5.9483195 5.2747575 5.9319985 5.2472941 5.9140625 5.2207031 C 5.8961315 5.1941111 5.8761086 5.1690784 5.8535156 5.1464844 C 5.8309216 5.1238904 5.8058889 5.1038735 5.7792969 5.0859375 C 5.7527049 5.0680015 5.7252425 5.0516795 5.6953125 5.0390625 C 5.6653835 5.0264455 5.6341705 5.0164046 5.6015625 5.0097656 C 5.5689555 5.003127 5.534623 5 5.5 5 C 5.465377 5 5.4310425 5.0031256 5.3984375 5.0097656 C 5.3658295 5.0164056 5.3346165 5.0264455 5.3046875 5.0390625 C 5.2747575 5.0516795 5.2472951 5.0680015 5.2207031 5.0859375 C 5.1941111 5.1038735 5.1690784 5.1238904 5.1464844 5.1464844 C 5.1238914 5.1690784 5.1038725 5.1941111 5.0859375 5.2207031 C 5.0680015 5.2472951 5.0516805 5.2747585 5.0390625 5.3046875 C 5.0264455 5.3346175 5.0164036 5.3658305 5.0097656 5.3984375 C 5.0031266 5.4310405 5 5.465373 5 5.5 L 5 6 C 5 6.554 4.554 7 4 7 C 3.446 7 3 6.554 3 6 L 3 2.5 C 3 2.223 2.777 2 2.5 2 C 2.223 2 2 2.223 2 2.5 L 2 13 C 2 14.108 2.89201 15 4 15 L 10 15 C 10.76796 15 11.432178 14.571293 11.767578 13.939453 L 15.828125 9.8789062 C 16.023995 9.6830363 16.023995 9.367745 15.828125 9.171875 C 15.730195 9.073945 15.602419 9.0253906 15.474609 9.0253906 C 15.346799 9.0253906 15.219034 9.073945 15.121094 9.171875 L 12.775391 11.517578 C 12.696441 11.569628 12.60216 11.599609 12.5 11.599609 C 12.223 11.599609 12 11.376609 12 11.099609 L 12 1.5 C 12 1.223 11.777 1 11.5 1 z M 4 8 L 5 8 L 5 9.5 C 5 9.777 5.223 10 5.5 10 C 5.777 10 6 9.777 6 9.5 L 6 8 L 8 8 L 8 9.5 C 8 9.777 8.223 10 8.5 10 C 8.777 10 9 9.777 9 9.5 L 9 8 L 10 8 C 10.554 8 11 8.446 11 9 L 11 13 C 11 13.554 10.554 14 10 14 L 4 14 C 3.446 14 3 13.554 3 13 L 3 9 C 3 8.446 3.446 8 4 8 z " />
</svg>
