<?xml version="1.0" encoding="UTF-8" standalone="no"?>
<!-- Created with Inkscape (http://www.inkscape.org/) -->

<svg
   width="16"
   height="16"
   viewBox="0 0 16 16"
   version="1.1"
   id="svg1"
   inkscape:version="1.4.2 (ebf0e940d0, 2025-05-08)"
   sodipodi:docname="tag-symbolic-rtl.svg"
   xmlns:inkscape="http://www.inkscape.org/namespaces/inkscape"
   xmlns:sodipodi="http://sodipodi.sourceforge.net/DTD/sodipodi-0.dtd"
   xmlns="http://www.w3.org/2000/svg"
   xmlns:svg="http://www.w3.org/2000/svg">
  <sodipodi:namedview
     id="namedview1"
     pagecolor="#ffffff"
     bordercolor="#000000"
     borderopacity="0.25"
     inkscape:showpageshadow="2"
     inkscape:pageopacity="0.0"
     inkscape:pagecheckerboard="0"
     inkscape:deskcolor="#d1d1d1"
     inkscape:document-units="px"
     inkscape:zoom="49.6875"
     inkscape:cx="8"
     inkscape:cy="8"
     inkscape:window-width="1920"
     inkscape:window-height="1010"
     inkscape:window-x="0"
     inkscape:window-y="0"
     inkscape:window-maximized="1"
     inkscape:current-layer="svg1" />
  <defs
     id="defs1">
    <style
       id="current-color-scheme"
       type="text/css">
      .ColorScheme-Text { color:#f2f2f2; }
    </style>
  </defs>
  <path
     d="m 11.986098,5.000043 c 0.5523,0 1,-0.44772 1,-1 0,-0.55228 -0.4477,-1 -1,-1 -0.5523,0 -1,0.44772 -1,1 0,0.55228 0.4477,1 1,1 z M 9.1152981,4.3004178e-5 C 8.5811981,-0.003457 8.0678981,0.206813 7.6897981,0.583993 l -6.6814997,6.6645 c -0.78275001,0.78078 -0.78356001,2.0485 -0.0018,2.8303 l 4.9484,4.9483 c 0.7810497,0.7811 2.0473997,0.7811 2.8284997,0 l 6.6307999,-6.6308 c 0.3758,-0.3758 0.5866,-0.88567 0.5858,-1.4171 l -0.0073,-4.9501 c -0.0016,-1.0983 -0.8886,-1.9898 -1.9869,-1.997 z M 8.3959981,1.292043 c 0.1891,-0.18859 0.4457,-0.29372 0.7128,-0.29197 l 4.8902999,0.03206 c 0.5492,0.0036 0.9927,0.44935 0.9935,0.9985 l 0.0073,4.9501 c 4e-4,0.26572 -0.105,0.52068 -0.2929,0.70858 l -6.6307999,6.6308 c -0.39055,0.3906 -1.0237,0.3906 -1.4142,0 l -4.9483997,-4.9484 c -0.39087,-0.3908 -0.39047,-1.0247 9e-4,-1.4151 z"
     style="fill:currentColor"
     class="ColorScheme-Text"
     id="path1" />
</svg>
