<?xml version="1.0" encoding="UTF-8" standalone="no"?>
<svg
   width="16"
   height="16"
   version="1.1"
   id="svg3"
   sodipodi:docname="timer-symbolic.svg"
   inkscape:version="1.4.2 (ebf0e940d0, 2025-05-08)"
   xmlns:inkscape="http://www.inkscape.org/namespaces/inkscape"
   xmlns:sodipodi="http://sodipodi.sourceforge.net/DTD/sodipodi-0.dtd"
   xmlns="http://www.w3.org/2000/svg"
   xmlns:svg="http://www.w3.org/2000/svg">
  <defs
     id="defs3">
    <style
       id="current-color-scheme"
       type="text/css">
        .ColorScheme-Text { color:#f2f2f2; }
     </style>
  </defs>
  <sodipodi:namedview
     id="namedview3"
     pagecolor="#ffffff"
     bordercolor="#000000"
     borderopacity="0.25"
     inkscape:showpageshadow="2"
     inkscape:pageopacity="0.0"
     inkscape:pagecheckerboard="0"
     inkscape:deskcolor="#d1d1d1"
     inkscape:zoom="49.6875"
     inkscape:cx="8"
     inkscape:cy="8"
     inkscape:window-width="1920"
     inkscape:window-height="1010"
     inkscape:window-x="0"
     inkscape:window-y="0"
     inkscape:window-maximized="1"
     inkscape:current-layer="svg3" />
  <path
     id="path1"
     style="fill:currentColor;fill-opacity:1"
     class="ColorScheme-Text"
     d="M 2.5 0 C 2.223 0 2 0.223 2 0.5 C 2 0.777 2.223 1 2.5 1 L 3.3886719 1 C 3.1450707 1.4057852 3.0001604 1.906909 3 2.4492188 L 3 3 L 5.8574219 8 L 3 13 L 3 13.550781 C 3.0001403 14.093109 3.1450563 14.594208 3.3886719 15 L 2.5 15 C 2.223 15 2 15.223 2 15.5 C 2 15.777 2.223 16 2.5 16 L 5 16 L 10 16 L 12.5 16 C 12.777 16 13 15.777 13 15.5 C 13 15.223 12.777 15 12.5 15 L 11.613281 15 C 11.856897 14.594208 11.99984 14.093109 12 13.550781 L 12 13 L 9.1601562 8 L 12 3 L 12 2.4492188 C 11.99986 1.906909 11.856882 1.4057852 11.613281 1 L 12.5 1 C 12.777 1 13 0.777 13 0.5 C 13 0.223 12.777 0 12.5 0 L 10 0 L 5 0 L 2.5 0 z M 7.0253906 1.0117188 C 8.3929906 1.0116588 8.7644531 1.0256938 10.126953 1.0585938 C 10.803773 1.2286337 10.994884 2.0766125 10.958984 2.6953125 C 9.9577844 4.4648125 8 8 8 8 C 8 8 10.135084 11.483187 10.958984 13.304688 C 10.994884 13.923447 10.803773 14.771406 10.126953 14.941406 C 7.4018531 15.007106 7.6408656 14.994925 4.9472656 14.953125 C 4.2208156 14.822685 3.9937844 13.940234 4.0214844 13.302734 C 4.9845344 11.509334 7 8 7 8 C 7 8 4.8573844 4.5216656 4.0214844 2.6972656 C 3.9937844 2.0597756 4.2208156 1.177275 4.9472656 1.046875 C 6.2940656 1.025975 5.6578206 1.0118188 7.0253906 1.0117188 z M 5.75 4 L 7.4960938 7.4375 L 9.25 4 L 5.75 4 z M 7.5 9 L 7.1054688 12.025391 C 5.8937687 12.182681 5.0036063 13.01903 5.0039062 14 L 10.003906 14 C 10.004906 13.9661 10.004906 13.932297 10.003906 13.898438 C 9.9424062 12.951647 9.0573856 12.169391 7.8847656 12.025391 L 7.5 9 z " />
</svg>
