<?xml version="1.0" encoding="UTF-8" standalone="no"?>
<svg
   width="16"
   height="16"
   version="1.1"
   id="svg2"
   sodipodi:docname="twitter-mentions-symbolic.svg"
   inkscape:version="1.4.2 (ebf0e940d0, 2025-05-08)"
   xmlns:inkscape="http://www.inkscape.org/namespaces/inkscape"
   xmlns:sodipodi="http://sodipodi.sourceforge.net/DTD/sodipodi-0.dtd"
   xmlns="http://www.w3.org/2000/svg"
   xmlns:svg="http://www.w3.org/2000/svg">
  <defs
     id="defs2">
     <style
        id="current-color-scheme"
        type="text/css">
        .ColorScheme-Text { color:#f2f2f2; }
     </style>
  </defs>
  <sodipodi:namedview
     id="namedview2"
     pagecolor="#ffffff"
     bordercolor="#000000"
     borderopacity="0.25"
     inkscape:showpageshadow="2"
     inkscape:pageopacity="0.0"
     inkscape:pagecheckerboard="0"
     inkscape:deskcolor="#d1d1d1"
     inkscape:zoom="49.6875"
     inkscape:cx="8"
     inkscape:cy="8"
     inkscape:window-width="1920"
     inkscape:window-height="1010"
     inkscape:window-x="0"
     inkscape:window-y="0"
     inkscape:window-maximized="1"
     inkscape:current-layer="svg2" />
  <path
     id="path1"
     style="fill:currentColor"
     class="ColorScheme-Text"
     d="M 10.412109 0.95898438 C 9.8725594 0.95568568 9.3635188 1.2175731 8.9492188 1.5957031 C 6.9993188 1.6502761 5.2407719 2.8502906 4.5761719 4.7128906 A 1.0001 1.0001 0 0 0 4.5742188 4.71875 C 4.3412287 5.38334 3.9689944 6.1864625 3.6152344 6.7890625 C 3.4383544 7.0903825 3.263635 7.3433512 3.140625 7.4882812 C 3.093568 7.5437212 3.0608948 7.5706339 3.0546875 7.578125 L 3.0566406 7.578125 L 3.0585938 7.578125 C 3.0680865 7.5753414 3.0905694 7.5672941 3.1269531 7.5566406 A 1.0001 1.0001 0 0 0 2.9042969 7.6542969 C 2.6058469 7.8330769 2.3736106 8.1048244 2.2441406 8.4277344 A 1.0001 1.0001 0 0 0 2.2324219 8.4589844 C 1.9390019 9.2658844 2.3719694 10.146294 3.1621094 10.433594 A 1.0001 1.0001 0 0 0 3.1660156 10.435547 L 11.037109 13.253906 C 11.832689 13.543206 12.706941 13.101971 12.994141 12.337891 C 13.142241 11.952691 13.116151 11.539054 12.974609 11.208984 A 1.0001 1.0001 0 0 0 12.929688 11.117188 L 12.931641 11.117188 L 12.931641 11.115234 L 12.931641 11.113281 C 12.93086 11.100955 12.92479 11.062122 12.923828 10.994141 C 12.921128 10.803371 12.947513 10.496101 13.001953 10.150391 C 13.110823 9.4589806 13.331946 8.5993531 13.572266 7.9394531 A 1.0001 1.0001 0 0 0 13.572266 7.9375 C 14.243706 6.0788 13.570396 4.1495719 12.195312 2.8886719 C 12.131355 2.1044419 11.755596 1.353 10.972656 1.0625 A 1.0001 1.0001 0 0 0 10.958984 1.0566406 C 10.774504 0.99131762 10.591969 0.96008338 10.412109 0.95898438 z M 10.232422 1.9394531 C 10.362862 1.9352564 10.49531 1.954079 10.625 2 C 11.15004 2.19477 11.421324 2.7360512 11.302734 3.2695312 C 12.623734 4.2264612 13.217112 5.9802563 12.632812 7.5976562 C 12.099303 9.0626562 11.709431 11.188516 12.056641 11.603516 C 12.107481 11.722076 12.115263 11.857345 12.064453 11.984375 C 11.962833 12.263835 11.658366 12.416073 11.378906 12.314453 L 3.5039062 9.4941406 C 3.2244463 9.3925206 3.0722081 9.0802413 3.1738281 8.8007812 C 3.2220331 8.6805513 3.3068488 8.5782787 3.4179688 8.5117188 C 3.9599488 8.4100987 5.0029312 6.5223281 5.5195312 5.0488281 C 6.0832013 3.4691281 7.6206219 2.4512812 9.2949219 2.5507812 C 9.4727419 2.1783212 9.8411119 1.9520431 10.232422 1.9394531 z M 6.7402344 12.720703 C 6.4402344 13.550703 7.01 14.509141 8 14.869141 C 9 15.219141 10.039844 14.839766 10.339844 14.009766 L 6.7402344 12.720703 z " />
</svg>
