<?xml version="1.0" encoding="UTF-8" standalone="no"?>
<svg
   height="16"
   width="16"
   version="1.1"
   id="svg1"
   sodipodi:docname="view-filter-symbolic.svg"
   inkscape:version="1.4.2 (ebf0e940d0, 2025-05-08)"
   xmlns:inkscape="http://www.inkscape.org/namespaces/inkscape"
   xmlns:sodipodi="http://sodipodi.sourceforge.net/DTD/sodipodi-0.dtd"
   xmlns="http://www.w3.org/2000/svg"
   xmlns:svg="http://www.w3.org/2000/svg">
  <defs
      id="defs1">
      <style
          id="current-color-scheme"
          type="text/css">
          .ColorScheme-Text { color:#f2f2f2; }
          .ColorScheme-NegativeText { color:#da4453; }
      </style>
  </defs>
  <sodipodi:namedview
     id="namedview1"
     pagecolor="#ffffff"
     bordercolor="#000000"
     borderopacity="0.25"
     inkscape:showpageshadow="2"
     inkscape:pageopacity="0.0"
     inkscape:pagecheckerboard="0"
     inkscape:deskcolor="#d1d1d1"
     inkscape:zoom="49.6875"
     inkscape:cx="8"
     inkscape:cy="8"
     inkscape:window-width="1920"
     inkscape:window-height="1010"
     inkscape:window-x="0"
     inkscape:window-y="0"
     inkscape:window-maximized="1"
     inkscape:current-layer="svg1" />
  <path
     id="path1"
     class="ColorScheme-Text"
     style="fill:currentColor;marker:none"
     d="M 7 2 L 7 14 L 8 14 L 8 2 L 7 2 z M 1 3 L 1 4 L 5 4 L 5 3 L 1 3 z M 10.478516 3 C 10.382812 3.0068359 10 3.0625 10 3.5 L 10 6.5 C 10 6.5 10 7 10.5 7 L 13.5 7 C 13.5 7 14 7 14 6.5 L 14 3.5 C 14 3.5 14 3 13.5 3 L 10.5 3 C 10.5 3 10.492188 2.9990234 10.478516 3 z M 11 4 L 13 4 L 13 6 L 11 6 L 11 4 z M 1 6 L 1 7 L 5 7 L 5 6 L 1 6 z M 1 9 L 1 10 L 5 10 L 5 9 L 1 9 z M 10.478516 9 C 10.382812 9.0068359 10 9.0625 10 9.5 L 10 12.5 C 10 12.5 10 13 10.5 13 L 13.5 13 C 13.5 13 14 13 14 12.5 L 14 9.5 C 14 9.5 14 9 13.5 9 L 10.5 9 C 10.5 9 10.492188 8.9990234 10.478516 9 z M 11 10 L 13 10 L 13 12 L 11 12 L 11 10 z M 1 12 L 1 13 L 5 13 L 5 12 L 1 12 z " />
</svg>
