<?xml version="1.0" encoding="UTF-8" standalone="no"?>
<!-- Created with Inkscape (http://www.inkscape.org/) -->

<svg
   width="16"
   height="16"
   viewBox="0 0 16 16"
   version="1.1"
   id="svg1"
   inkscape:version="1.4.2 (ebf0e940d0, 2025-05-08)"
   sodipodi:docname="view-restore-symbolic.svg"
   xmlns:inkscape="http://www.inkscape.org/namespaces/inkscape"
   xmlns:sodipodi="http://sodipodi.sourceforge.net/DTD/sodipodi-0.dtd"
   xmlns="http://www.w3.org/2000/svg"
   xmlns:svg="http://www.w3.org/2000/svg">
  <sodipodi:namedview
     id="namedview1"
     pagecolor="#ffffff"
     bordercolor="#000000"
     borderopacity="0.25"
     inkscape:showpageshadow="2"
     inkscape:pageopacity="0.0"
     inkscape:pagecheckerboard="0"
     inkscape:deskcolor="#d1d1d1"
     inkscape:document-units="px"
     inkscape:zoom="49.6875"
     inkscape:cx="8"
     inkscape:cy="8"
     inkscape:window-width="1920"
     inkscape:window-height="1010"
     inkscape:window-x="0"
     inkscape:window-y="0"
     inkscape:window-maximized="1"
     inkscape:current-layer="svg1" />
  <defs
     id="defs1">
    <style
       id="current-color-scheme"
       type="text/css">
        .ColorScheme-Text { color:#f2f2f2; }
     </style>
  </defs>
  <path
     id="rect1"
     style="fill:currentColor;opacity:0.5"
     d="M 5 1 C 3.892 1 3 1.892 3 3 L 3 6 L 4 6 L 4 3 C 4 2.446 4.446 2 5 2 L 14 2 C 14.554 2 15 2.446 15 3 L 15 9 C 15 9.554 14.554 10 14 10 L 11 10 L 11 11 L 14 11 C 15.108 11 16 10.108 16 9 L 16 3 C 16 1.892 15.108 1 14 1 L 5 1 z "
     class="ColorScheme-Text" />
  <path
     id="rect2"
     style="fill:currentColor"
     d="M 2 7 C 0.892 7 0 7.892 0 9 L 0 13 C 0 14.108 0.892 15 2 15 L 8 15 C 9.108 15 10 14.108 10 13 L 10 9 C 10 7.892 9.108 7 8 7 L 2 7 z M 2 8 L 8 8 C 8.554 8 9 8.446 9 9 L 9 13 C 9 13.554 8.554 14 8 14 L 2 14 C 1.446 14 1 13.554 1 13 L 1 9 C 1 8.446 1.446 8 2 8 z "
     class="ColorScheme-Text" />
</svg>
