<?xml version="1.0" encoding="UTF-8" standalone="no"?>
<svg
   width="16"
   height="16"
   version="1.1"
   viewBox="0 0 16 16"
   id="svg1"
   sodipodi:docname="webpage-symbolic.svg"
   inkscape:version="1.4.2 (ebf0e940d0, 2025-05-08)"
   xmlns:inkscape="http://www.inkscape.org/namespaces/inkscape"
   xmlns:sodipodi="http://sodipodi.sourceforge.net/DTD/sodipodi-0.dtd"
   xmlns="http://www.w3.org/2000/svg"
   xmlns:svg="http://www.w3.org/2000/svg">
  <sodipodi:namedview
     id="namedview1"
     pagecolor="#ffffff"
     bordercolor="#000000"
     borderopacity="0.25"
     inkscape:showpageshadow="2"
     inkscape:pageopacity="0.0"
     inkscape:pagecheckerboard="0"
     inkscape:deskcolor="#d1d1d1"
     inkscape:zoom="49.6875"
     inkscape:cx="8"
     inkscape:cy="8.9257862"
     inkscape:window-width="1920"
     inkscape:window-height="1010"
     inkscape:window-x="0"
     inkscape:window-y="0"
     inkscape:window-maximized="1"
     inkscape:current-layer="svg1" />
  <defs
     id="defs1">
    <style
       id="current-color-scheme"
       type="text/css">.ColorScheme-Text { color:#f2f2f2; }</style>
  </defs>
  <path
     id="path1"
     style="fill:currentColor"
     class="ColorScheme-Text"
     d="M 8 0 A 8 8 0 0 0 7.8476562 0.005859375 L 7.8457031 0.0078125 A 8 8 0 0 0 7.8105469 0.009765625 A 8.1695 8.1695 0 0 0 7.78125 0.0078125 A 8 8 0 0 0 7.6835938 0.015625 A 8 8 0 0 0 7.0097656 0.068359375 A 8 8 0 0 0 6.9082031 0.083984375 A 8 8 0 0 0 6.2441406 0.203125 A 8 8 0 0 0 6.0859375 0.2421875 A 8 8 0 0 0 5.4511719 0.42578125 A 8 8 0 0 0 5.375 0.453125 A 8 8 0 0 0 4.6894531 0.72460938 A 8 8 0 0 0 4.6738281 0.73242188 A 8 8 0 0 0 3.984375 1.0878906 A 8 8 0 0 0 3.9511719 1.109375 A 8 8 0 0 0 3.3085938 1.5292969 A 8 8 0 0 0 3.2949219 1.5390625 A 8 8 0 0 0 2.703125 2.015625 A 8 8 0 0 0 2.6308594 2.0820312 A 8 8 0 0 0 2.1308594 2.5742188 A 8 8 0 0 0 2.0683594 2.6445312 A 8 8 0 0 0 1.609375 3.1992188 A 8 8 0 0 0 1.5839844 3.2363281 A 8 8 0 0 0 1.171875 3.8457031 A 8 8 0 0 0 1.1113281 3.9492188 A 8 8 0 0 0 0.796875 4.5351562 A 8 8 0 0 0 0.734375 4.6738281 A 8 8 0 0 0 0.47851562 5.296875 A 8 8 0 0 0 0.45507812 5.3652344 A 8 8 0 0 0 0.25195312 6.0351562 A 8 8 0 0 0 0.1875 6.3027344 C 0.1888275 6.3032972 0.19007825 6.3041262 0.19140625 6.3046875 A 8 8 0 0 0 0.17382812 6.3886719 A 8 8 0 0 0 0.080078125 6.9414062 A 8 8 0 0 0 0.046875 7.2128906 A 8 8 0 0 0 0.005859375 7.8300781 A 8 8 0 0 0 0 8 A 8 8 0 0 0 4.5859375 15.224609 A 8 8 0 0 0 4.5976562 15.230469 A 8 8 0 0 0 4.9863281 15.404297 L 4.9863281 15.40625 A 8 8 0 0 0 4.9960938 15.410156 A 8 8 0 0 0 5.6132812 15.626953 A 8 8 0 0 0 5.7675781 15.677734 A 8 8 0 0 0 6.3066406 15.808594 A 8 8 0 0 0 6.5644531 15.865234 A 8 8 0 0 0 7.078125 15.9375 A 8 8 0 0 0 7.3554688 15.970703 A 8 8 0 0 0 8 16 A 8 8 0 0 0 8.6621094 15.96875 L 8.6621094 15.966797 A 8 8 0 0 0 8.6757812 15.966797 A 8 8 0 0 0 9.4121094 15.867188 A 8 8 0 0 0 9.46875 15.859375 A 8 8 0 0 0 9.4804688 15.857422 A 8 8 0 0 0 10.246094 15.671875 A 8 8 0 0 0 13.900391 13.388672 A 8 8 0 0 0 13.919922 13.367188 A 8 8 0 0 0 14.119141 13.154297 A 8 8 0 0 0 14.121094 13.150391 C 14.115894 13.152251 14.110644 13.15427 14.105469 13.15625 A 8 8 0 0 0 16 8 A 8 8 0 0 0 15.738281 6.0097656 C 15.739581 6.009725 15.740887 6.0098056 15.742188 6.0097656 A 8 8 0 0 0 15.720703 5.9453125 A 8 8 0 0 0 15.716797 5.9316406 A 8 8 0 0 0 15.523438 5.3105469 A 8 8 0 0 0 15.480469 5.1914062 A 8 8 0 0 0 14.378906 3.1855469 A 8 8 0 0 0 14.349609 3.1484375 A 8 8 0 0 0 14.326172 3.1191406 A 8 8 0 0 0 13.291016 2.0117188 A 8 8 0 0 0 13.244141 1.9726562 A 8 8 0 0 0 13.234375 1.9628906 A 8 8 0 0 0 12.669922 1.515625 A 8 8 0 0 0 12.599609 1.4648438 A 8 8 0 0 0 12.023438 1.0976562 A 8 8 0 0 0 11.933594 1.0449219 A 8 8 0 0 0 8 0 z M 8 1 A 7 7 0 0 1 8.0234375 1.0019531 C 8.0185815 1.1244831 8 1.2433775 8 1.3671875 C 8 2.3525875 8.1258438 3.3077156 8.3398438 4.2285156 C 7.2307438 5.1659656 5.8464656 5.787425 4.3222656 5.953125 C 4.7516656 4.131625 5.6127562 2.4835219 6.7851562 1.1074219 A 7 7 0 0 1 7.2792969 1.0449219 A 7 7 0 0 1 7.4921875 1.0195312 A 7 7 0 0 1 8 1 z M 9.0175781 1.0820312 A 7 7 0 0 1 9.0332031 1.0859375 A 7 7 0 0 1 9.7011719 1.21875 A 7 7 0 0 1 9.703125 1.21875 A 7 7 0 0 1 9.7050781 1.21875 A 7 7 0 0 1 10.373047 1.4238281 A 7 7 0 0 1 10.396484 1.4316406 C 10.091814 2.1459406 9.68625 2.8065188 9.1875 3.3867188 C 9.07246 2.7295187 9 2.0575875 9 1.3671875 C 9 1.2706475 9.0148781 1.1779113 9.0175781 1.0820312 z M 5.15625 1.6132812 C 4.27302 2.9192813 3.6236031 4.3940813 3.2832031 5.9882812 C 2.6300031 5.9696412 2.0023437 5.8604669 1.4023438 5.6855469 A 7 7 0 0 1 1.6601562 5.0527344 A 7 7 0 0 1 1.6796875 5.0117188 A 7 7 0 0 1 1.9902344 4.4257812 A 7 7 0 0 1 2 4.4101562 A 7 7 0 0 1 2.3828125 3.8378906 A 7 7 0 0 1 2.8242188 3.3007812 A 7 7 0 0 1 2.8320312 3.2910156 A 7 7 0 0 1 3.3144531 2.8105469 A 7 7 0 0 1 3.3378906 2.7910156 A 7 7 0 0 1 3.8535156 2.3710938 A 7 7 0 0 1 3.8847656 2.3496094 A 7 7 0 0 1 4.4433594 1.9804688 A 7 7 0 0 1 4.4589844 1.9726562 A 7 7 0 0 1 5.0703125 1.6523438 A 7 7 0 0 1 5.15625 1.6132812 z M 11.304688 1.8320312 A 7 7 0 0 1 11.310547 1.8359375 A 7 7 0 0 1 11.904297 2.1933594 A 7 7 0 0 1 12.404297 2.5664062 A 7 7 0 0 1 12.464844 2.6113281 A 7 7 0 0 1 12.470703 2.6171875 A 7 7 0 0 1 12.921875 3.0292969 A 7 7 0 0 1 12.980469 3.0839844 A 7 7 0 0 1 12.984375 3.0898438 A 7 7 0 0 1 13.320312 3.4628906 A 7 7 0 0 1 13.458984 3.6230469 A 7 7 0 0 1 13.71875 3.9765625 A 7 7 0 0 1 13.869141 4.1894531 A 7 7 0 0 1 14.162109 4.6914062 A 7 7 0 0 1 14.210938 4.7753906 A 7 7 0 0 1 14.212891 4.78125 A 7 7 0 0 1 14.451172 5.2988281 A 7 7 0 0 1 14.501953 5.4121094 A 7 7 0 0 1 14.505859 5.4238281 A 7 7 0 0 1 14.662109 5.8808594 A 7 7 0 0 1 14.738281 6.1074219 C 13.310481 6.3223219 11.996778 6.8868331 10.892578 7.7207031 C 10.262248 6.7558031 9.776025 5.6921406 9.453125 4.5566406 C 10.238225 3.7849406 10.865787 2.8583313 11.304688 1.8320312 z M 8.6230469 5.2675781 C 8.9837461 6.3765645 9.489297 7.4201042 10.125 8.3710938 C 8.8958 9.5497938 8.0161687 11.089266 7.6679688 12.822266 C 6.5255687 12.627906 5.4420531 12.268678 4.4394531 11.767578 C 4.1607731 10.768978 4 9.7210125 4 8.6328125 C 4 8.0653125 4.0544985 7.5124969 4.1328125 6.9667969 C 5.8126912 6.8420985 7.355156 6.2294971 8.6230469 5.2675781 z M 1.1347656 6.6347656 C 1.7700656 6.8236656 2.4315938 6.9498488 3.1210938 6.9804688 C 3.0499577 7.5224687 3 8.0716125 3 8.6328125 C 3 9.4723125 3.0875216 10.292038 3.2441406 11.085938 C 2.4585406 10.568737 1.7516875 9.9476656 1.1171875 9.2597656 A 7 7 0 0 1 1.1171875 9.2578125 A 7 7 0 0 1 1.0488281 8.7558594 A 7 7 0 0 1 1.0214844 8.5332031 A 7 7 0 0 1 1 8 A 7 7 0 0 1 1.0351562 7.3007812 A 7 7 0 0 1 1.1347656 6.6347656 z M 14.931641 7.0859375 A 7 7 0 0 1 14.990234 7.75 A 7 7 0 0 1 15 8 A 7 7 0 0 1 14.292969 11.042969 A 7 7 0 0 1 14.269531 11.095703 C 13.203331 10.395103 12.257056 9.5297438 11.472656 8.5273438 C 12.462256 7.7766437 13.643941 7.2705375 14.931641 7.0859375 z M 10.71875 9.1757812 C 11.57645 10.262781 12.614897 11.193419 13.779297 11.949219 A 7 7 0 0 1 13.777344 11.953125 A 7 7 0 0 1 13.494141 12.324219 C 12.284541 12.751249 10.989513 13 9.6328125 13 C 9.3048325 13 8.9831694 12.977712 8.6621094 12.951172 C 8.9680094 11.489472 9.69845 10.187881 10.71875 9.1757812 z M 1.8203125 11.277344 C 2.3755125 11.721594 2.9682562 12.121474 3.5976562 12.464844 C 3.7468562 12.932934 3.9269962 13.386495 4.1289062 13.828125 A 7 7 0 0 1 4.1230469 13.824219 A 7 7 0 0 1 3.59375 13.431641 A 7 7 0 0 1 3.5625 13.408203 A 7 7 0 0 1 3.0488281 12.941406 A 7 7 0 0 1 2.5800781 12.421875 A 7 7 0 0 1 2.1660156 11.859375 A 7 7 0 0 1 1.8203125 11.277344 z M 4.8769531 13.064453 C 5.7212531 13.408643 6.6115562 13.655537 7.5351562 13.810547 C 7.5166962 14.038817 7.5 14.26704 7.5 14.5 C 7.5 14.66094 7.5121844 14.818103 7.5214844 14.976562 A 7 7 0 0 1 7.5117188 14.974609 A 7 7 0 0 1 5.6601562 14.587891 A 7 7 0 0 1 5.6523438 14.585938 C 5.3570937 14.101938 5.0955831 13.595373 4.8769531 13.064453 z M 11.9375 13.779297 A 7 7 0 0 1 11.933594 13.783203 A 7 7 0 0 1 11.351562 14.136719 A 7 7 0 0 1 11.339844 14.144531 A 7 7 0 0 1 11.333984 14.146484 A 7 7 0 0 1 10.800781 14.40625 A 7 7 0 0 1 10.669922 14.462891 A 7 7 0 0 1 10.15625 14.650391 A 7 7 0 0 1 10.011719 14.697266 A 7 7 0 0 1 9.5292969 14.822266 A 7 7 0 0 1 9.3125 14.871094 A 7 7 0 0 1 8.8632812 14.9375 A 7 7 0 0 1 8.5292969 14.978516 C 8.5167239 14.819586 8.5 14.66242 8.5 14.5 C 8.5 14.31266 8.5139057 14.129163 8.5273438 13.945312 C 8.8922637 13.977085 9.2597225 14 9.6328125 14 C 10.421687 14 11.191422 13.923005 11.9375 13.779297 z " />
</svg>
