<?xml version="1.0" encoding="UTF-8" standalone="no"?>
<svg
   width="16"
   height="16"
   version="1.1"
   viewBox="0 0 16 16"
   id="svg1"
   sodipodi:docname="xapp-favorites-app-symbolic.svg"
   inkscape:version="1.4.2 (ebf0e940d0, 2025-05-08)"
   xmlns:inkscape="http://www.inkscape.org/namespaces/inkscape"
   xmlns:sodipodi="http://sodipodi.sourceforge.net/DTD/sodipodi-0.dtd"
   xmlns="http://www.w3.org/2000/svg"
   xmlns:svg="http://www.w3.org/2000/svg">
  <sodipodi:namedview
     id="namedview1"
     pagecolor="#ffffff"
     bordercolor="#000000"
     borderopacity="0.25"
     inkscape:showpageshadow="2"
     inkscape:pageopacity="0.0"
     inkscape:pagecheckerboard="0"
     inkscape:deskcolor="#d1d1d1"
     inkscape:zoom="49.75"
     inkscape:cx="7.9899497"
     inkscape:cy="8"
     inkscape:window-width="1920"
     inkscape:window-height="1011"
     inkscape:window-x="0"
     inkscape:window-y="0"
     inkscape:window-maximized="1"
     inkscape:current-layer="svg1" />
  <defs
     id="defs1">
     <style
        id="current-color-scheme"
        type="text/css">
        .ColorScheme-Text { color:#f2f2f2; }
        .ColorScheme-NeutralText { color:#f67400; }
        .ColorScheme-PositiveText { color:#37c837; }
        .ColorScheme-NegativeText { color:#f44336; }
        .ColorScheme-Highlight { color:#3daee9; }
     </style>
  </defs>
  <path
     id="path1"
     style="fill:currentColor"
     class="ColorScheme-Text"
     d="M 8 0 C 7.61805 0 7.41314 0.15574563 7.28125 0.25976562 C 7.14936 0.36377562 7.0695937 0.45668813 6.9960938 0.54882812 C 6.8491038 0.73310812 6.7346713 0.92086562 6.6132812 1.1347656 C 6.3704912 1.5625556 6.1200369 2.0828719 5.8730469 2.6074219 C 5.6260469 3.1319219 5.3853662 3.6592875 5.1914062 4.0546875 C 5.1102653 4.2200675 5.0446412 4.3412794 4.9882812 4.4433594 C 4.8818912 4.4670374 4.7604869 4.4945455 4.5917969 4.5234375 C 4.1764569 4.5945725 3.6263987 4.6710894 3.0742188 4.7558594 C 2.5220588 4.8406324 1.9700531 4.9312988 1.5019531 5.0429688 C 1.2679231 5.0988058 1.0580538 5.1556669 0.83984375 5.2480469 C 0.62163375 5.3404279 0.25762812 5.3680488 0.048828125 6.0429688 C -0.15997188 6.7178888 0.11189987 6.92281 0.23242188 7.125 C 0.35295187 7.32722 0.48986438 7.5015631 0.64648438 7.6894531 C 0.95973437 8.0652331 1.3550563 8.4776387 1.7539062 8.8867188 C 2.1527763 9.2957688 2.5541225 9.6984119 2.8515625 10.013672 C 2.9735625 10.142982 3.0604556 10.241395 3.1347656 10.328125 C 3.1163356 10.442515 3.0934635 10.575959 3.0546875 10.755859 C 2.9604785 11.192959 2.8202737 11.765997 2.6835938 12.341797 C 2.5469137 12.917667 2.4148375 13.493281 2.3359375 13.988281 C 2.2964865 14.235751 2.2674411 14.459589 2.2675781 14.699219 C 2.2676465 14.819029 2.2706177 14.942555 2.3105469 15.109375 C 2.3504779 15.276195 2.4198356 15.533981 2.7285156 15.769531 C 3.0371956 16.005081 3.2933675 16.00263 3.4609375 16 C 3.6285075 15.9974 3.7492444 15.971829 3.8652344 15.943359 C 4.0972144 15.886419 4.3086187 15.806424 4.5429688 15.708984 C 5.0116888 15.514104 5.5494375 15.246429 6.0859375 14.974609 C 6.6224175 14.702789 7.1556062 14.425779 7.5664062 14.224609 C 7.7458462 14.136734 7.88676 14.074151 8 14.025391 C 8.11324 14.074151 8.2541637 14.136729 8.4335938 14.224609 C 8.8443738 14.425779 9.3775425 14.702789 9.9140625 14.974609 C 10.450542 15.246429 10.988331 15.514104 11.457031 15.708984 C 11.691391 15.806424 11.902786 15.886419 12.134766 15.943359 C 12.250756 15.971829 12.371493 15.99737 12.539062 16 C 12.706632 16.0026 12.962804 16.005101 13.271484 15.769531 C 13.580164 15.533991 13.649523 15.276195 13.689453 15.109375 C 13.729383 14.942555 13.732352 14.819039 13.732422 14.699219 C 13.732559 14.459599 13.703514 14.235751 13.664062 13.988281 C 13.585162 13.493341 13.453086 12.917697 13.316406 12.341797 C 13.179726 11.765897 13.039522 11.192959 12.945312 10.755859 C 12.906534 10.575949 12.883664 10.442515 12.865234 10.328125 C 12.939554 10.241395 13.026448 10.142972 13.148438 10.013672 C 13.445837 9.6984519 13.847184 9.2958088 14.246094 8.8867188 C 14.644964 8.4776687 15.040296 8.0652731 15.353516 7.6894531 C 15.510136 7.5015631 15.647058 7.32722 15.767578 7.125 C 15.888108 6.92278 16.159972 6.7178587 15.951172 6.0429688 C 15.742372 5.3680487 15.378366 5.3404269 15.160156 5.2480469 C 14.941946 5.1556649 14.732087 5.0988088 14.498047 5.0429688 C 14.029977 4.9312987 13.477981 4.8406294 12.925781 4.7558594 C 12.373581 4.6710894 11.823603 4.5945675 11.408203 4.5234375 C 11.239513 4.4945455 11.118099 4.4670374 11.011719 4.4433594 C 10.955357 4.3412794 10.889734 4.2200675 10.808594 4.0546875 C 10.614634 3.6593575 10.373953 3.1319619 10.126953 2.6074219 C 9.8799531 2.0829219 9.6295088 1.5625656 9.3867188 1.1347656 C 9.2653188 0.92086563 9.1508862 0.73310812 9.0039062 0.54882812 C 8.9304133 0.45669013 8.85064 0.36377562 8.71875 0.25976562 C 8.58686 0.15575563 8.38195 5.5511151e-17 8 0 z M 7.9882812 1 C 7.9920998 0.99951552 7.9963085 1.0000004 8 1 C 8.4724416 1.0000568 9.9946558 4.9955114 10.376953 5.2871094 C 10.759153 5.5787594 14.848141 5.8659706 14.994141 6.3378906 C 15.140131 6.8097906 11.993656 9.5652094 11.847656 10.037109 C 11.701666 10.509009 13.046253 14.682909 12.664062 14.974609 C 12.281852 15.266259 8.4725 12.972656 8 12.972656 C 7.52757 12.972656 3.7181375 15.266209 3.3359375 14.974609 C 2.9537275 14.682959 4.2983337 10.509009 4.1523438 10.037109 C 4.0063537 9.5652094 0.85985937 6.8097906 1.0058594 6.3378906 C 1.1518494 5.8659906 5.2408469 5.5787794 5.6230469 5.2871094 C 6.0022682 4.9977399 7.5033196 1.0615287 7.9882812 1 z " />
</svg>
