<?xml version="1.0" encoding="UTF-8" standalone="no"?>
<svg
   width="16"
   height="16"
   version="1.1"
   id="svg1"
   sodipodi:docname="xapp-format-text-highlight-symbolic.svg"
   inkscape:version="1.4.2 (ebf0e940d0, 2025-05-08)"
   xmlns:inkscape="http://www.inkscape.org/namespaces/inkscape"
   xmlns:sodipodi="http://sodipodi.sourceforge.net/DTD/sodipodi-0.dtd"
   xmlns="http://www.w3.org/2000/svg"
   xmlns:svg="http://www.w3.org/2000/svg">
  <defs
     id="defs1">
    <style
       id="current-color-scheme"
       type="text/css">
    .ColorScheme-Text { color:#f2f2f2; }
   </style>
  </defs>
  <sodipodi:namedview
     id="namedview1"
     pagecolor="#ffffff"
     bordercolor="#000000"
     borderopacity="0.25"
     inkscape:showpageshadow="2"
     inkscape:pageopacity="0.0"
     inkscape:pagecheckerboard="0"
     inkscape:deskcolor="#d1d1d1"
     inkscape:zoom="49.6875"
     inkscape:cx="8"
     inkscape:cy="8"
     inkscape:window-width="1920"
     inkscape:window-height="1010"
     inkscape:window-x="0"
     inkscape:window-y="0"
     inkscape:window-maximized="1"
     inkscape:current-layer="svg1" />
  <path
     id="path1"
     style="fill:currentColor;fill-opacity:1"
     class="ColorScheme-Text"
     d="M 12.238281 1 L 11.886719 1.3613281 L 2.9160156 10.455078 L 2.8867188 10.5 C 2.8257188 10.599 2.6157344 10.949891 2.3027344 11.587891 C 1.9887344 12.225891 1.6029956 13.098078 1.2910156 14.080078 L 1 15 L 1.9199219 14.708984 C 2.7744619 14.433704 3.6076094 14.095706 4.4121094 13.697266 C 5.0501094 13.383266 5.399 13.177281 5.5 13.113281 L 5.5449219 13.083984 L 15 3.7617188 L 12.238281 1 z M 12.205078 2.3808594 L 13.619141 3.7949219 L 5.8417969 11.574219 L 4.4257812 10.160156 L 12.205078 2.3808594 z M 3.8886719 10.890625 L 5.1113281 12.111328 L 4.9316406 12.285156 C 4.9288106 12.286075 4.5453792 12.517393 3.9707031 12.800781 C 3.7567031 12.905781 3.4347187 13.020719 3.1367188 13.136719 L 2.8632812 12.863281 C 2.9792813 12.565281 3.0961719 12.243297 3.2011719 12.029297 C 3.4840477 11.45566 3.7121339 11.075404 3.7148438 11.070312 L 3.7148438 11.068359 L 3.8886719 10.890625 z " />
  <path
     id="path2"
     style="opacity:0.25;fill:currentColor"
     d="m 2,13 -1,2 h 13 c 0.554,0 1,-0.446 1,-1 0,-0.554 -0.446,-1 -1,-1 z"
     class="ColorScheme-Text" />
</svg>
