<?xml version="1.0" encoding="UTF-8" standalone="no"?>
<!-- Created with Inkscape (http://www.inkscape.org/) -->

<svg
   width="16"
   height="16"
   viewBox="0 0 16 16.000001"
   version="1.1"
   id="svg5"
   inkscape:version="1.2.2 (1:1.2.2+202305151914+b0a8486541)"
   sodipodi:docname="application-x-alpm-package.svg"
   xmlns:inkscape="http://www.inkscape.org/namespaces/inkscape"
   xmlns:sodipodi="http://sodipodi.sourceforge.net/DTD/sodipodi-0.dtd"
   xmlns:xlink="http://www.w3.org/1999/xlink"
   xmlns="http://www.w3.org/2000/svg"
   xmlns:svg="http://www.w3.org/2000/svg">
  <sodipodi:namedview
     id="namedview7"
     pagecolor="#ffffff"
     bordercolor="#000000"
     borderopacity="0.25"
     inkscape:showpageshadow="2"
     inkscape:pageopacity="0.0"
     inkscape:pagecheckerboard="0"
     inkscape:deskcolor="#d1d1d1"
     inkscape:document-units="px"
     showgrid="false"
     inkscape:zoom="49.375"
     inkscape:cx="7.9898734"
     inkscape:cy="8"
     inkscape:window-width="1920"
     inkscape:window-height="1012"
     inkscape:window-x="0"
     inkscape:window-y="0"
     inkscape:window-maximized="1"
     inkscape:current-layer="svg5" />
  <defs
     id="defs2">
    <linearGradient
       inkscape:collect="always"
       id="linearGradient872">
      <stop
         style="stop-color:#1793d1;stop-opacity:1;"
         offset="0"
         id="stop868" />
      <stop
         style="stop-color:#18bbdf;stop-opacity:1;"
         offset="1"
         id="stop870" />
    </linearGradient>
    <linearGradient
       inkscape:collect="always"
       xlink:href="#linearGradient872"
       id="linearGradient874"
       x1="3"
       y1="0"
       x2="13"
       y2="16"
       gradientUnits="userSpaceOnUse" />
  </defs>
  <path
     id="rect448"
     style="fill:url(#linearGradient874);fill-opacity:1;stroke-width:0.25;stroke-linecap:round;stroke-linejoin:round"
     d="m 3,0 h 7 L 11.5,2.5 14,4 v 11 c 0,0.554 -0.446,1 -1,1 H 3 C 2.446,16 2,15.554 2,15 V 1 C 2,0.446 2.446,0 3,0 Z"
     sodipodi:nodetypes="scccssssss" />
  <path
     id="rect287-3"
     style="fill:#ffffff;fill-opacity:1;stroke-width:2.82843;stroke-linecap:round;stroke-linejoin:round;opacity:0.5"
     d="M 10,9 7,15 C 7.6406539,14.479546 8.2833657,13.859227 9.3232421,13.605469 A 0.74999982,1.125 0 0 1 9.25,13.125 0.74999982,1.125 0 0 1 10,12 a 0.74999982,1.125 0 0 1 0.75,1.125 0.74999982,1.125 0 0 1 -0.07325,0.480469 C 11.716635,13.859227 12.359346,14.479546 13,15 Z" />
  <path
     d="M 14,5 H 11 C 10.446,5 10,4.554 10,4 V 0 l 4,4 z"
     style="opacity:0.2;fill:#000000;stroke-width:0.25;stroke-linecap:round;stroke-linejoin:round"
     id="path611"
     sodipodi:nodetypes="cssccc" />
  <path
     id="rect600"
     style="fill:#95d4f3;fill-opacity:1;stroke-width:0.25;stroke-linecap:round;stroke-linejoin:round"
     d="M 14,4 H 11 C 10.446,4 10,3.554 10,3 V 0 l 2,2 z"
     sodipodi:nodetypes="cssccc" />
  <path
     id="rect287"
     style="fill:#ffffff;stroke-width:4;stroke-linecap:round;stroke-linejoin:round;fill-opacity:1;opacity:0.8"
     d="M 4 0 L 4 1 L 5 1 L 5 0 L 4 0 z M 5 1 L 5 2 L 6 2 L 6 1 L 5 1 z M 5 2 L 4 2 L 4 3 L 5 3 L 5 2 z M 5 3 L 5 4 L 6 4 L 6 3 L 5 3 z M 5 4 L 4 4 L 4 5 L 5 5 L 5 4 z M 5 5 L 5 6 L 6 6 L 6 5 L 5 5 z M 5 6 L 4 6 L 4 7 L 5 7 L 5 6 z M 5 7 L 5 8 L 6 8 L 6 7 L 5 7 z M 4 9 L 4 11.5 C 4 11.777 4.2230003 12 4.5 12 L 5.5 12 C 5.7769997 12 6 11.777 6 11.5 L 6 9 L 4 9 z " />
</svg>
