<?xml version="1.0" encoding="UTF-8" standalone="no"?>
<!-- Created with Inkscape (http://www.inkscape.org/) -->

<svg
   width="16"
   height="16"
   viewBox="0 0 16 16.000001"
   version="1.1"
   id="svg5"
   inkscape:version="1.2.2 (1:1.2.2+202305151914+b0a8486541)"
   sodipodi:docname="application-vnd.ms-powerpoint.template.macroenabled.12.svg"
   xmlns:inkscape="http://www.inkscape.org/namespaces/inkscape"
   xmlns:sodipodi="http://sodipodi.sourceforge.net/DTD/sodipodi-0.dtd"
   xmlns:xlink="http://www.w3.org/1999/xlink"
   xmlns="http://www.w3.org/2000/svg"
   xmlns:svg="http://www.w3.org/2000/svg">
  <sodipodi:namedview
     id="namedview7"
     pagecolor="#ffffff"
     bordercolor="#000000"
     borderopacity="0.25"
     inkscape:showpageshadow="2"
     inkscape:pageopacity="0.0"
     inkscape:pagecheckerboard="0"
     inkscape:deskcolor="#d1d1d1"
     inkscape:document-units="px"
     showgrid="false"
     inkscape:zoom="49.375"
     inkscape:cx="7.9898734"
     inkscape:cy="8"
     inkscape:window-width="1920"
     inkscape:window-height="1012"
     inkscape:window-x="0"
     inkscape:window-y="0"
     inkscape:window-maximized="1"
     inkscape:current-layer="svg5" />
  <defs
     id="defs2">
    <linearGradient
       inkscape:collect="always"
       id="linearGradient1865">
      <stop
         style="stop-color:#d04423;stop-opacity:1;"
         offset="0"
         id="stop1861" />
      <stop
         style="stop-color:#e16c4c;stop-opacity:1;"
         offset="1"
         id="stop1863" />
    </linearGradient>
    <linearGradient
       inkscape:collect="always"
       xlink:href="#linearGradient1865"
       id="linearGradient3810"
       x1="3"
       y1="0"
       x2="13"
       y2="16"
       gradientUnits="userSpaceOnUse" />
    <linearGradient
       inkscape:collect="always"
       xlink:href="#linearGradient1214"
       id="linearGradient3357"
       x1="6.1442852"
       y1="6"
       x2="14.999612"
       y2="16"
       gradientUnits="userSpaceOnUse"
       gradientTransform="translate(4.5733173e-8,1.8050457e-4)" />
    <linearGradient
       inkscape:collect="always"
       id="linearGradient1214">
      <stop
         style="stop-color:#d3d3db;stop-opacity:1;"
         offset="0"
         id="stop1210" />
      <stop
         style="stop-color:#eaeaee;stop-opacity:1;"
         offset="1"
         id="stop1212" />
    </linearGradient>
  </defs>
  <path
     id="rect448"
     style="fill:url(#linearGradient3810);fill-opacity:1;stroke-width:0.25;stroke-linecap:round;stroke-linejoin:round"
     d="m 3,0 h 7 L 11.5,2.5 14,4 v 11 c 0,0.554 -0.446,1 -1,1 H 3 C 2.446,16 2,15.554 2,15 V 1 C 2,0.446 2.446,0 3,0 Z"
     sodipodi:nodetypes="scccssssss" />
  <circle
     style="opacity:0.3;fill:#ffffff;fill-opacity:1;stroke-width:2.66667;stroke-linejoin:bevel"
     id="path31463"
     cx="8.000001"
     cy="10"
     r="3.9999998" />
  <path
     id="path31465"
     style="opacity:0.7;fill:#ffffff;fill-opacity:1;stroke-width:2;stroke-linejoin:bevel"
     d="M 3.9999996,9.9999999 A 3.9999999,3.9999999 0 0 0 7.9999999,14 3.9999999,3.9999999 0 0 0 12,9.9999999 H 7.9999999 Z" />
  <path
     id="path31759"
     style="opacity:0.5;fill:#ffffff;fill-opacity:1;stroke-width:2;stroke-linejoin:bevel"
     d="M 7.9999999,6.0000001 A 3.9999995,3.9999999 0 0 0 3.9999996,9.9999999 h 4.0000003 z" />
  <path
     d="M 14,5 H 11 C 10.446,5 10,4.554 10,4 V 0 l 4,4 z"
     style="opacity:0.2;fill:#000000;stroke-width:0.25;stroke-linecap:round;stroke-linejoin:round"
     id="path611"
     sodipodi:nodetypes="cssccc" />
  <path
     id="rect600"
     style="fill:#f2beb2;fill-opacity:1;stroke-width:0.25;stroke-linecap:round;stroke-linejoin:round"
     d="M 14,4 H 11 C 10.446,4 10,3.554 10,3 V 0 l 2,2 z"
     sodipodi:nodetypes="cssccc" />
  <path
     id="path5201"
     style="fill:url(#linearGradient3357);fill-opacity:1;stroke-width:2;stroke-linecap:round;stroke-linejoin:round"
     d="m 13.950784,8.0021335 c -0.177416,0.0084 -0.352493,0.06215 -0.50586,0.164063 L 5.4468775,14.16815 c -0.8227966,0.548968 -0.434434,1.83166 0.554687,1.832031 h 7.9980475 c 0.55226,-5.5e-5 0.999945,-0.447739 1,-1 V 9.0001805 c -5.51e-4,-0.368746 -0.203966,-0.707273 -0.529297,-0.880859 -0.162358,-0.08688 -0.342115,-0.125637 -0.519531,-0.117188 z m -0.951172,2.9980475 v 3 H 8.9996118 Z"
     sodipodi:nodetypes="ccccccccccccc" />
</svg>
