<?xml version="1.0" encoding="UTF-8" standalone="no"?>
<!-- Created with Inkscape (http://www.inkscape.org/) -->

<svg
   width="16"
   height="16"
   viewBox="0 0 16 16.000001"
   version="1.1"
   id="svg5"
   inkscape:version="1.2.2 (1:1.2.2+202305151914+b0a8486541)"
   sodipodi:docname="image-svg+xml.svg"
   xmlns:inkscape="http://www.inkscape.org/namespaces/inkscape"
   xmlns:sodipodi="http://sodipodi.sourceforge.net/DTD/sodipodi-0.dtd"
   xmlns:xlink="http://www.w3.org/1999/xlink"
   xmlns="http://www.w3.org/2000/svg"
   xmlns:svg="http://www.w3.org/2000/svg">
  <sodipodi:namedview
     id="namedview7"
     pagecolor="#ffffff"
     bordercolor="#000000"
     borderopacity="0.25"
     inkscape:showpageshadow="2"
     inkscape:pageopacity="0.0"
     inkscape:pagecheckerboard="0"
     inkscape:deskcolor="#d1d1d1"
     inkscape:document-units="px"
     showgrid="false"
     inkscape:zoom="49.375"
     inkscape:cx="7.9898734"
     inkscape:cy="8"
     inkscape:window-width="1920"
     inkscape:window-height="1012"
     inkscape:window-x="0"
     inkscape:window-y="0"
     inkscape:window-maximized="1"
     inkscape:current-layer="svg5" />
  <defs
     id="defs2">
    <linearGradient
       inkscape:collect="always"
       xlink:href="#linearGradient899"
       id="linearGradient2363"
       x1="3"
       y1="0"
       x2="13"
       y2="16"
       gradientUnits="userSpaceOnUse" />
    <linearGradient
       inkscape:collect="always"
       id="linearGradient899">
      <stop
         style="stop-color:#dddddd;stop-opacity:1;"
         offset="0"
         id="stop895" />
      <stop
         style="stop-color:#eeeeee;stop-opacity:1;"
         offset="1"
         id="stop897" />
    </linearGradient>
  </defs>
  <path
     id="rect448"
     style="fill:url(#linearGradient2363);fill-opacity:1;stroke-width:0.25;stroke-linecap:round;stroke-linejoin:round"
     d="M 3,0 H 9.9999997 L 11.5,2.5 14,4 v 11 c 0,0.554 -0.446,1 -1,1 H 3 C 2.446,16 2,15.554 2,15 V 1 C 2,0.446 2.446,0 3,0 Z"
     sodipodi:nodetypes="scccssssss" />
  <path
     d="M 14,5 H 11 C 10.446,5 10,4.554 10,4 V 0 l 4,4 z"
     style="opacity:0.2;fill:#000000;stroke-width:0.25;stroke-linecap:round;stroke-linejoin:round"
     id="path611"
     sodipodi:nodetypes="cssccc" />
  <path
     id="rect600"
     style="fill:#f8f8f8;fill-opacity:1;stroke-width:0.25;stroke-linecap:round;stroke-linejoin:round"
     d="M 14,4 H 11 C 10.446,4 10,3.554 10,3 V 0 l 2,2 z"
     sodipodi:nodetypes="cssccc" />
  <path
     d="m 5.0335004,12.001368 c 2,3 4.9999996,0 3,-3 -2,-3 1.9999996,-6 2.9999996,-2"
     style="color:#000000;opacity:0.25;fill:#8f76ee;fill-opacity:1;fill-rule:evenodd;stroke-width:1px"
     id="path23819" />
  <path
     style="color:#000000;fill:#8c59d9;fill-opacity:1;fill-rule:evenodd"
     d="m 9.0254004,4.591801 c -0.3385,0.04418 -0.664,0.178812 -0.9414,0.376953 -1.1096,0.792563 -1.628,2.616584 -0.5,4.308594 0.8933,1.339989 0.6161,2.565559 0.062,3.11914 -0.2768,0.276791 -0.6008,0.39467 -0.9668,0.330078 -0.366,-0.06459 -0.817,-0.333911 -1.2637,-1.003906 l -0.832,0.554688 c 0.5533,0.830004 1.2273,1.310685 1.9238,1.433593 0.6965,0.122909 1.3725,-0.134213 1.8457,-0.607421 0.9464,-0.946418 1.1692,-2.720852 0.062,-4.38086 -0.872,-1.307987 -0.3904,-2.483971 0.25,-2.941406 0.3202,-0.228718 0.6351,-0.278079 0.9434,-0.128906 0.3083,0.149172 0.6787996,0.559107 0.9061996,1.46875 L 11.4834,6.87891 C 11.2108,5.788555 10.7063,5.073487 10.0459,4.75391 9.7156004,4.594122 9.3629004,4.547617 9.0244004,4.591801 Z"
     id="path19306" />
  <path
     id="path3571-5"
     style="color:#000000;fill:#f34f17;fill-opacity:1"
     d="m 5.5000004,3.000004 c -0.8227,0 -1.5006,0.677245 -1.5,1.5 -6e-4,0.822755 0.6773,1.5 1.5,1.5 0.1585,0 0.3111,-0.02577 0.4551,-0.07227 l 3.6465,6.375 c -0.3639,0.274807 -0.602,0.710707 -0.6016,1.197266 -6e-4,0.822755 0.6773,1.5 1.4999996,1.5 0.8227,0 1.5006,-0.677245 1.5,-1.5 6e-4,-0.795077 -0.6329,-1.454597 -1.418,-1.498047 l -3.8260996,-6.6875 c 0.1538,-0.235261 0.2443,-0.515007 0.2441,-0.814453 6e-4,-0.822755 -0.6773,-1.5 -1.5,-1.5 z m 0,1 c 0.2823,0 0.5002,0.218405 0.5,0.5 2e-4,0.281595 -0.2177,0.5 -0.5,0.5 -0.2823,0 -0.5002,-0.218405 -0.5,-0.5 -2e-4,-0.281595 0.2177,-0.5 0.5,-0.5 z m 4.9999996,9 c 0.2823,0 0.5002,0.218406 0.5,0.5 2e-4,0.281597 -0.2177,0.5 -0.5,0.5 -0.2823,0 -0.5001996,-0.218403 -0.5,-0.5 -1.996e-4,-0.281594 0.2177,-0.5 0.5,-0.5 z" />
  <path
     id="rect3565-6"
     style="fill:#8f76e4;fill-opacity:1;stroke:none"
     d="m 10,6 v 2 h 2 V 6 Z M 7,8 V 9.9999996 H 9 V 8 Z m -3,3 v 2 h 2 v -2 z" />
</svg>
