<?xml version="1.0" encoding="UTF-8" standalone="no"?>
<!-- Created with Inkscape (http://www.inkscape.org/) -->

<svg
   width="16"
   height="16"
   viewBox="0 0 16 16.000001"
   version="1.1"
   id="svg5"
   inkscape:version="1.2.2 (1:1.2.2+202305151914+b0a8486541)"
   sodipodi:docname="image-svg+xml-compressed.svg"
   xmlns:inkscape="http://www.inkscape.org/namespaces/inkscape"
   xmlns:sodipodi="http://sodipodi.sourceforge.net/DTD/sodipodi-0.dtd"
   xmlns:xlink="http://www.w3.org/1999/xlink"
   xmlns="http://www.w3.org/2000/svg"
   xmlns:svg="http://www.w3.org/2000/svg">
  <sodipodi:namedview
     id="namedview7"
     pagecolor="#ffffff"
     bordercolor="#000000"
     borderopacity="0.25"
     inkscape:showpageshadow="2"
     inkscape:pageopacity="0.0"
     inkscape:pagecheckerboard="0"
     inkscape:deskcolor="#d1d1d1"
     inkscape:document-units="px"
     showgrid="false"
     inkscape:zoom="49.375"
     inkscape:cx="7.9898734"
     inkscape:cy="8"
     inkscape:window-width="1920"
     inkscape:window-height="1012"
     inkscape:window-x="0"
     inkscape:window-y="0"
     inkscape:window-maximized="1"
     inkscape:current-layer="svg5" />
  <defs
     id="defs2">
    <linearGradient
       inkscape:collect="always"
       xlink:href="#linearGradient899"
       id="linearGradient2363"
       x1="3"
       y1="0"
       x2="13"
       y2="16"
       gradientUnits="userSpaceOnUse" />
    <linearGradient
       inkscape:collect="always"
       id="linearGradient899">
      <stop
         style="stop-color:#dddddd;stop-opacity:1;"
         offset="0"
         id="stop895" />
      <stop
         style="stop-color:#eeeeee;stop-opacity:1;"
         offset="1"
         id="stop897" />
    </linearGradient>
  </defs>
  <path
     id="rect448"
     style="fill:url(#linearGradient2363);fill-opacity:1;stroke-width:0.25;stroke-linecap:round;stroke-linejoin:round"
     d="m 3,0 h 7 L 11.5,2.5 14,4 v 11 c 0,0.554 -0.446,1 -1,1 H 3 C 2.446,16 2,15.554 2,15 V 0.99999996 C 2,0.44599996 2.446,0 3,0 Z"
     sodipodi:nodetypes="scccssssss" />
  <path
     d="M 14,5 H 11 C 10.446,5 10,4.554 10,4 V 0 l 4,4 z"
     style="opacity:0.2;fill:#000000;stroke-width:0.25;stroke-linecap:round;stroke-linejoin:round"
     id="path611"
     sodipodi:nodetypes="cssccc" />
  <path
     id="rect600"
     style="fill:#f8f8f8;fill-opacity:1;stroke-width:0.25;stroke-linecap:round;stroke-linejoin:round"
     d="M 14,4 H 11 C 10.446,4 10,3.554 10,3 V 0 l 2,2 z"
     sodipodi:nodetypes="cssccc" />
  <path
     d="m 5.0335004,12.001368 c 2,2.999999 4.9999996,0 2.9999996,-3 -1.9999996,-3 2,-6 3,-2"
     style="color:#000000;opacity:0.25;fill:#929292;fill-opacity:1;fill-rule:evenodd;stroke-width:1px;-inkscape-stroke:none"
     id="path23819" />
  <path
     style="color:#000000;fill:#929292;fill-opacity:1;fill-rule:evenodd;-inkscape-stroke:none"
     d="M 9.0254,4.591801 C 8.6869,4.635981 8.3614,4.770613 8.084,4.968754 6.9744004,5.761317 6.4560004,7.585338 7.5840004,9.277348 c 0.8932996,1.339989 0.6160996,2.56556 0.062,3.11914 -0.2768,0.276791 -0.6008,0.39467 -0.9668,0.330078 -0.366,-0.06459 -0.817,-0.333911 -1.2637,-1.003906 l -0.832,0.554688 c 0.5533,0.830005 1.2273,1.310685 1.9238,1.433593 0.6965,0.122908 1.3725,-0.134214 1.8456996,-0.607422 C 9.2994,12.157102 9.5222,10.382668 8.415,8.722659 7.5430004,7.414673 8.0246,6.238689 8.665,5.781254 8.9852,5.552536 9.3001,5.503175 9.6084,5.652348 9.9167,5.80152 10.2872,6.211455 10.5146,7.121098 L 11.4834,6.87891 C 11.2108,5.788555 10.7063,5.073487 10.0459,4.75391 9.7156,4.594122 9.3629,4.547617 9.0244,4.591801 Z"
     id="path19306" />
  <path
     id="path3571-5"
     style="color:#000000;fill:#929292;fill-opacity:1;-inkscape-stroke:none"
     d="m 5.5000004,3.000004 c -0.8227,0 -1.5006,0.677245 -1.5,1.5 -6e-4,0.822755 0.6773,1.5 1.5,1.5 0.1585,0 0.3111,-0.02577 0.4551,-0.07227 L 9.6016,12.302735 C 9.2377,12.577541 8.9996,13.013441 9,13.5 c -6e-4,0.822754 0.6773,1.499999 1.5,1.499999 0.8227,0 1.5006,-0.677245 1.5,-1.5 6e-4,-0.795076 -0.6329,-1.454596 -1.418,-1.498046 l -3.8260996,-6.6875 c 0.1538,-0.235261 0.2443,-0.515007 0.2441,-0.814453 6e-4,-0.822755 -0.6773,-1.5 -1.5,-1.5 z m 0,1 c 0.2823,0 0.5002,0.218405 0.5,0.5 2e-4,0.281595 -0.2177,0.5 -0.5,0.5 -0.2823,0 -0.5002,-0.218405 -0.5,-0.5 -2e-4,-0.281595 0.2177,-0.5 0.5,-0.5 z M 10.5,13.000005 c 0.2823,0 0.5002,0.218406 0.5,0.5 2e-4,0.281597 -0.2177,0.499999 -0.5,0.499999 -0.2823,0 -0.5002,-0.218402 -0.5,-0.499999 -2e-4,-0.281594 0.2177,-0.5 0.5,-0.5 z" />
  <path
     id="rect3565-6"
     style="fill:#929292;fill-opacity:1;stroke:none"
     d="m 10,6 v 1.9999995 h 2 V 6 Z M 7,7.9999995 V 10 H 9 V 7.9999995 Z M 4,11 v 2 h 2 v -2 z" />
</svg>
