<?xml version="1.0" encoding="UTF-8" standalone="no"?>
<!-- Created with Inkscape (http://www.inkscape.org/) -->

<svg
   width="16"
   height="16"
   viewBox="0 0 16 16.000001"
   version="1.1"
   id="svg5"
   inkscape:version="1.2.2 (1:1.2.2+202305151914+b0a8486541)"
   sodipodi:docname="playlist.svg"
   xmlns:inkscape="http://www.inkscape.org/namespaces/inkscape"
   xmlns:sodipodi="http://sodipodi.sourceforge.net/DTD/sodipodi-0.dtd"
   xmlns:xlink="http://www.w3.org/1999/xlink"
   xmlns="http://www.w3.org/2000/svg"
   xmlns:svg="http://www.w3.org/2000/svg">
  <sodipodi:namedview
     id="namedview7"
     pagecolor="#ffffff"
     bordercolor="#000000"
     borderopacity="0.25"
     inkscape:showpageshadow="2"
     inkscape:pageopacity="0.0"
     inkscape:pagecheckerboard="0"
     inkscape:deskcolor="#d1d1d1"
     inkscape:document-units="px"
     showgrid="false"
     inkscape:zoom="49.375"
     inkscape:cx="7.9898734"
     inkscape:cy="8"
     inkscape:window-width="1920"
     inkscape:window-height="1012"
     inkscape:window-x="0"
     inkscape:window-y="0"
     inkscape:window-maximized="1"
     inkscape:current-layer="svg5" />
  <defs
     id="defs2">
    <linearGradient
       inkscape:collect="always"
       id="linearGradient872">
      <stop
         style="stop-color:#ff7f2a;stop-opacity:1;"
         offset="0"
         id="stop868" />
      <stop
         style="stop-color:#ffaa2a;stop-opacity:1;"
         offset="1"
         id="stop870" />
    </linearGradient>
    <linearGradient
       inkscape:collect="always"
       xlink:href="#linearGradient872"
       id="linearGradient1535"
       x1="8.1520042"
       y1="3.9996016"
       x2="12.594345"
       y2="15.009301"
       gradientUnits="userSpaceOnUse" />
    <linearGradient
       inkscape:collect="always"
       id="linearGradient899">
      <stop
         style="stop-color:#dddddd;stop-opacity:1;"
         offset="0"
         id="stop895" />
      <stop
         style="stop-color:#eeeeee;stop-opacity:1;"
         offset="1"
         id="stop897" />
    </linearGradient>
    <linearGradient
       inkscape:collect="always"
       xlink:href="#linearGradient899"
       id="linearGradient1741"
       x1="3"
       y1="0"
       x2="13"
       y2="16"
       gradientUnits="userSpaceOnUse" />
  </defs>
  <path
     id="rect448"
     style="fill:url(#linearGradient1741);fill-opacity:1;stroke-width:0.25;stroke-linecap:round;stroke-linejoin:round"
     d="m 3,0 h 7 L 11.5,2.5 14,4 v 11 c 0,0.554 -0.446,1 -1,1 H 3 C 2.446,16 2,15.554 2,15 V 1 C 2,0.446 2.446,0 3,0 Z"
     sodipodi:nodetypes="scccssssss" />
  <path
     d="M 14,5 H 11 C 10.446,5 10,4.554 10,4 V 0 l 4,4 z"
     style="opacity:0.2;fill:#000000;stroke-width:0.25;stroke-linecap:round;stroke-linejoin:round"
     id="path611"
     sodipodi:nodetypes="cssccc" />
  <path
     id="rect600"
     style="fill:#f8f8f8;fill-opacity:1;stroke-width:0.25;stroke-linecap:round;stroke-linejoin:round"
     d="M 14,4 H 11 C 10.446,4 10,3.554 10,3 V 0 l 2,2 z"
     sodipodi:nodetypes="cssccc" />
  <path
     d="m 9.4999526,3.9996015 c -0.277,0 -0.5,0.223 -0.5,0.5 v 6.5336025 c -0.6127535,-0.257139 -1.3789395,-0.167432 -2.0351565,0.238281 -1.069061,0.661333 -1.531798,1.948949 -1.033203,2.875 0.497828,0.92603 1.767689,1.140298 2.835937,0.478516 C 9.5404176,14.146035 10.0243,13.31422 9.998,12.509767 9.998069,12.506367 10,12.503467 10,12.499966 V 7.3746015 c 0.120375,-0.06646 0.30739,0.07692 0.40625,0.144531 1.123433,0.679677 2.104249,1.807595 2.173827,3.1972665 0,0 0.166589,-2.2591953 -0.638672,-3.2480475 C 11.118299,6.6094855 10.342104,5.6082975 10,4.444914 9.97505,4.3344083 9.8241426,3.9996015 9.4999996,3.9996015 Z M 4.4998351,5 c -0.277,0 -0.5,0.223 -0.5,0.5 0,0.277 0.223,0.5 0.5,0.5 h 2.5 c 0.277,0 0.5,-0.223 0.5,-0.5 0,-0.277 -0.223,-0.5 -0.5,-0.5 z m 0,3 c -0.277,0 -0.5,0.223 -0.5,0.5 0,0.277 0.223,0.5 0.5,0.5 h 2.5 c 0.277,0 0.5,-0.223 0.5,-0.5 0,-0.277 -0.223,-0.5 -0.5,-0.5 z"
     style="color:#000000;clip-rule:nonzero;display:inline;overflow:visible;visibility:visible;isolation:auto;mix-blend-mode:normal;color-interpolation:sRGB;color-interpolation-filters:linearRGB;solid-color:#000000;solid-opacity:1;fill:url(#linearGradient1535);fill-opacity:1;fill-rule:nonzero;stroke:none;stroke-width:1;stroke-linecap:butt;stroke-linejoin:round;stroke-miterlimit:4;stroke-dasharray:none;stroke-dashoffset:0;stroke-opacity:1;marker:none;color-rendering:auto;image-rendering:auto;shape-rendering:auto;text-rendering:auto;enable-background:accumulate"
     id="path1198"
     sodipodi:nodetypes="sscccccscccccssssssssssssssss" />
</svg>
