<?xml version="1.0" encoding="UTF-8" standalone="no"?>
<!-- Created with Inkscape (http://www.inkscape.org/) -->

<svg
   width="16"
   height="16"
   viewBox="0 0 16 16.000001"
   version="1.1"
   id="svg5"
   inkscape:version="1.2.2 (1:1.2.2+202305151914+b0a8486541)"
   sodipodi:docname="x-office-presentation-template.svg"
   xmlns:inkscape="http://www.inkscape.org/namespaces/inkscape"
   xmlns:sodipodi="http://sodipodi.sourceforge.net/DTD/sodipodi-0.dtd"
   xmlns:xlink="http://www.w3.org/1999/xlink"
   xmlns="http://www.w3.org/2000/svg"
   xmlns:svg="http://www.w3.org/2000/svg">
  <sodipodi:namedview
     id="namedview7"
     pagecolor="#ffffff"
     bordercolor="#000000"
     borderopacity="0.25"
     inkscape:showpageshadow="2"
     inkscape:pageopacity="0.0"
     inkscape:pagecheckerboard="0"
     inkscape:deskcolor="#d1d1d1"
     inkscape:document-units="px"
     showgrid="false"
     inkscape:zoom="49.375"
     inkscape:cx="7.9898734"
     inkscape:cy="8"
     inkscape:window-width="1920"
     inkscape:window-height="1012"
     inkscape:window-x="0"
     inkscape:window-y="0"
     inkscape:window-maximized="1"
     inkscape:current-layer="svg5" />
  <defs
     id="defs2">
    <linearGradient
       inkscape:collect="always"
       id="linearGradient1071">
      <stop
         style="stop-color:#e55c14;stop-opacity:1;"
         offset="0"
         id="stop1067" />
      <stop
         style="stop-color:#fc7941;stop-opacity:1;"
         offset="1"
         id="stop1069" />
    </linearGradient>
    <linearGradient
       inkscape:collect="always"
       xlink:href="#linearGradient1071"
       id="linearGradient1073"
       x1="3"
       y1="0"
       x2="13"
       y2="16"
       gradientUnits="userSpaceOnUse" />
    <linearGradient
       inkscape:collect="always"
       xlink:href="#linearGradient1214"
       id="linearGradient3357"
       x1="6.1442852"
       y1="6"
       x2="14.999612"
       y2="16"
       gradientUnits="userSpaceOnUse"
       gradientTransform="translate(0,1.805e-4)" />
    <linearGradient
       inkscape:collect="always"
       id="linearGradient1214">
      <stop
         style="stop-color:#d3d3db;stop-opacity:1;"
         offset="0"
         id="stop1210" />
      <stop
         style="stop-color:#eaeaee;stop-opacity:1;"
         offset="1"
         id="stop1212" />
    </linearGradient>
  </defs>
  <path
     id="rect448"
     style="fill:url(#linearGradient1073);fill-opacity:1;stroke-width:0.25;stroke-linecap:round;stroke-linejoin:round"
     d="m 3,0 h 7 L 11.5,2.5 14,4 v 11 c 0,0.554 -0.446,1 -1,1 H 3 C 2.446,16 2,15.554 2,15 V 1 C 2,0.446 2.446,0 3,0 Z"
     sodipodi:nodetypes="scccssssss" />
  <path
     id="rect1509"
     style="fill:#ffffff"
     d="m 3,6 v 1 h 9 V 6 Z M 3,8 V 9 H 4 V 8 Z m 0,2 v 1 h 1 v -1 z"
     sodipodi:nodetypes="ccccccccccccccc" />
  <path
     id="rect1541"
     style="opacity:0.8;fill:#ffffff;stroke-width:0.935414"
     d="m 5,8 v 5 h 7 V 8 Z m 1,1 h 5 v 3 H 6 Z"
     sodipodi:nodetypes="cccccccccc" />
  <rect
     style="opacity:0.6;fill:#ffffff"
     id="rect1566"
     width="5"
     height="3"
     x="6"
     y="9" />
  <path
     style="color:#000000;fill:#e35100;fill-opacity:1;-inkscape-stroke:none"
     d="M 10.609375,8.6875 8.9589844,10.751953 7.4453125,9.238281 5.5996094,11.699219 6.4003906,12.300781 7.5546875,10.761719 9.0410156,12.248047 11.390625,9.3125 Z"
     id="path1631" />
  <path
     d="M 14,5 H 11 C 10.446,5 10,4.554 10,4 V 0 l 4,4 z"
     style="opacity:0.2;fill:#000000;stroke-width:0.25;stroke-linecap:round;stroke-linejoin:round"
     id="path611"
     sodipodi:nodetypes="cssccc" />
  <path
     id="rect600"
     style="fill:#fabda5;fill-opacity:1;stroke-width:0.25;stroke-linecap:round;stroke-linejoin:round"
     d="M 14,4 H 11 C 10.446,4 10,3.554 10,3 V 0 l 2,2 z"
     sodipodi:nodetypes="cssccc" />
  <path
     id="path5201"
     style="fill:url(#linearGradient3357);fill-opacity:1;stroke-width:2;stroke-linecap:round;stroke-linejoin:round"
     d="m 13.950784,8.0021335 c -0.177415,0.0084 -0.352493,0.06215 -0.50586,0.164063 L 5.4468775,14.168149 c -0.8227966,0.548968 -0.434434,1.83166 0.554687,1.832031 h 7.9980475 c 0.552261,-5.5e-5 0.999946,-0.447739 1,-1 V 9.0001805 C 14.999061,8.6314345 14.795646,8.2929075 14.470315,8.1193215 14.307958,8.0324415 14.1282,7.9936845 13.950784,8.0021335 Z M 12.999613,11.000181 V 14.00018 H 8.999612 Z"
     sodipodi:nodetypes="ccccccccccccc" />
</svg>
