<?xml version="1.0" encoding="UTF-8" standalone="no"?>
<svg
   width="22"
   height="22"
   version="1.1"
   viewBox="0 0 22 22"
   id="svg1"
   sodipodi:docname="nautilus-folder-search-symbolic.svg"
   inkscape:version="1.4.2 (ebf0e940d0, 2025-05-08)"
   xmlns:inkscape="http://www.inkscape.org/namespaces/inkscape"
   xmlns:sodipodi="http://sodipodi.sourceforge.net/DTD/sodipodi-0.dtd"
   xmlns="http://www.w3.org/2000/svg"
   xmlns:svg="http://www.w3.org/2000/svg">
  <sodipodi:namedview
     id="namedview1"
     pagecolor="#ffffff"
     bordercolor="#000000"
     borderopacity="0.25"
     inkscape:showpageshadow="2"
     inkscape:pageopacity="0.0"
     inkscape:pagecheckerboard="0"
     inkscape:deskcolor="#d1d1d1"
     inkscape:zoom="33.125"
     inkscape:cx="12"
     inkscape:cy="12"
     inkscape:window-width="1920"
     inkscape:window-height="1010"
     inkscape:window-x="0"
     inkscape:window-y="0"
     inkscape:window-maximized="1"
     inkscape:current-layer="svg1" />
  <defs
     id="defs1">
    <style
       id="current-color-scheme"
       type="text/css">
    .ColorScheme-Text { color:#363636; }
   </style>
  </defs>
  <path
     id="path1"
     style="fill:currentColor"
     class="ColorScheme-Text"
     d="M 5,4 C 3.892,4 3,4.892 3,6 v 10 c 0,1.108 0.892,2 2,2 h 5 V 17 H 5 C 4.446,17 4,16.554 4,16 V 9 h 5 l 2,-2 h 6 c 0.554,0 1,0.446 1,1 v 3 h 1 V 8 C 19,6.892 18.108,6 17,6 H 11 L 9,4 Z M 5,5 H 8.5859375 L 10.082031,6.5039062 8.5859375,8 H 4 V 6 C 4,5.446 4.446,5 5,5 Z m 9.677734,6.003906 a 3.5,3.5 0 0 0 -0.427734,0.0059 3.5,3.5 0 0 0 -2.224609,1.015625 3.5,3.5 0 0 0 0,4.949219 3.5,3.5 0 0 0 4.570312,0.328125 h 0.002 l 1.4375,1.439454 0.707032,-0.707032 -1.439454,-1.439453 a 3.5,3.5 0 0 0 -0.328172,-4.570313 3.5,3.5 0 0 0 -2.296875,-1.021485 z m -0.08594,0.992188 a 2.4874,2.4874 0 0 1 1.667969,0.728515 2.4874,2.4874 0 0 1 -0.002,3.517579 2.4874,2.4874 0 0 1 -3.515624,0 2.4874,2.4874 0 0 1 -0.002,-3.517579 2.4874,2.4874 0 0 1 1.542969,-0.720703 2.4874,2.4874 0 0 1 0.308594,-0.0078 z" />
</svg>
