<?xml version="1.0" encoding="UTF-8" standalone="no"?>
<svg
   width="22"
   height="22"
   enable-background="new"
   version="1.1"
   id="svg2"
   sodipodi:docname="view-refresh-symbolic.svg"
   inkscape:version="1.4.3 (0d15f75042, 2025-12-25)"
   xmlns:inkscape="http://www.inkscape.org/namespaces/inkscape"
   xmlns:sodipodi="http://sodipodi.sourceforge.net/DTD/sodipodi-0.dtd"
   xmlns="http://www.w3.org/2000/svg"
   xmlns:svg="http://www.w3.org/2000/svg">
  <defs
     id="defs2">
    <style
       id="current-color-scheme"
       type="text/css">
        .ColorScheme-Text { color:#363636; }
        .ColorScheme-NegativeText { color:#da4453; }
     </style>
  </defs>
  <sodipodi:namedview
     id="namedview2"
     pagecolor="#ffffff"
     bordercolor="#000000"
     borderopacity="0.25"
     inkscape:showpageshadow="2"
     inkscape:pageopacity="0.0"
     inkscape:pagecheckerboard="0"
     inkscape:deskcolor="#d1d1d1"
     inkscape:zoom="36.227273"
     inkscape:cx="10.986198"
     inkscape:cy="11"
     inkscape:window-width="1920"
     inkscape:window-height="1006"
     inkscape:window-x="0"
     inkscape:window-y="0"
     inkscape:window-maximized="1"
     inkscape:current-layer="svg2" />
  <path
     id="path1"
     style="fill:currentColor"
     class="ColorScheme-Text"
     d="M 11.171875,3.672 10.464844,4.3790312 12.085938,6.000125 H 11 a 6,6 0 0 0 -6,6 6,6 0 0 0 6,6 6,6 0 0 0 6,-6 h -1 a 5,5 0 0 1 -5,5 5,5 0 0 1 -5,-5 5,5 0 0 1 5,-5 h 1.085938 L 10.464844,8.6212188 11.171875,9.32825 14,6.500125 13.292969,5.7930938 Z" />
</svg>
