<?xml version="1.0" encoding="UTF-8" standalone="no"?>
<!-- Created with Inkscape (http://www.inkscape.org/) -->

<svg
   width="24"
   height="24"
   viewBox="0 0 24 24"
   version="1.1"
   id="svg5"
   inkscape:version="1.4.4 (dcaf3e7d9e, 2026-05-05)"
   sodipodi:docname="system-restart.svg"
   xmlns:inkscape="http://www.inkscape.org/namespaces/inkscape"
   xmlns:sodipodi="http://sodipodi.sourceforge.net/DTD/sodipodi-0.dtd"
   xmlns:xlink="http://www.w3.org/1999/xlink"
   xmlns="http://www.w3.org/2000/svg"
   xmlns:svg="http://www.w3.org/2000/svg">
  <sodipodi:namedview
     id="namedview7"
     pagecolor="#ffffff"
     bordercolor="#000000"
     borderopacity="0.25"
     inkscape:showpageshadow="2"
     inkscape:pageopacity="0.0"
     inkscape:pagecheckerboard="0"
     inkscape:deskcolor="#d1d1d1"
     inkscape:document-units="px"
     showgrid="false"
     inkscape:zoom="33.166667"
     inkscape:cx="12"
     inkscape:cy="12"
     inkscape:window-width="1920"
     inkscape:window-height="1012"
     inkscape:window-x="0"
     inkscape:window-y="0"
     inkscape:window-maximized="1"
     inkscape:current-layer="svg5" />
  <defs
     id="defs2">
    <linearGradient
       inkscape:collect="always"
       xlink:href="#linearGradient1500"
       id="linearGradient2881"
       x1="29"
       y1="29"
       x2="16"
       y2="2.999999"
       gradientUnits="userSpaceOnUse"
       gradientTransform="matrix(0.76923075,0,0,0.76923075,-0.307692,-0.3076915)" />
    <linearGradient
       inkscape:collect="always"
       id="linearGradient1500">
      <stop
         style="stop-color:#afe481;stop-opacity:1;"
         offset="0"
         id="stop1496" />
      <stop
         style="stop-color:#74c72b;stop-opacity:1;"
         offset="1"
         id="stop1498" />
    </linearGradient>
  </defs>
  <circle
     style="fill:url(#linearGradient2881);stroke:none;stroke-width:1.53846;stroke-linecap:round;stroke-linejoin:round;stroke-dasharray:none;stroke-opacity:1"
     id="path2873"
     cx="12"
     cy="12"
     r="10" />
  <path
     id="path344"
     style="fill:#ffffff;stroke-linecap:round;stroke-linejoin:round;paint-order:stroke fill markers"
     d="M 12,5 A 7,7 0 0 0 6,8.4160156 V 7 H 5 v 3 1 H 5.0703125 6.0878906 9 V 10 H 6.3535156 A 6,6 0 0 1 12,6 a 6,6 0 0 1 5.916016,5 h 1.011718 A 7,7 0 0 0 12,5 Z M 5.0703125,13 A 7,7 0 0 0 12,19 7,7 0 0 0 18,15.583984 V 17 h 1 V 13 H 18.929688 18 15 v 1 h 2.646484 A 6,6 0 0 1 12,18 6,6 0 0 1 6.0878906,13 Z" />
</svg>
