<?xml version="1.0" encoding="UTF-8" standalone="no"?>
<!-- Created with Inkscape (http://www.inkscape.org/) -->

<svg
   width="24"
   height="24"
   viewBox="0 0 24 24"
   version="1.1"
   id="svg5"
   inkscape:version="1.2.1 (9c6d41e410, 2022-07-14)"
   sodipodi:docname="weather-few-clouds-wind-night.svg"
   xmlns:inkscape="http://www.inkscape.org/namespaces/inkscape"
   xmlns:sodipodi="http://sodipodi.sourceforge.net/DTD/sodipodi-0.dtd"
   xmlns:xlink="http://www.w3.org/1999/xlink"
   xmlns="http://www.w3.org/2000/svg"
   xmlns:svg="http://www.w3.org/2000/svg">
  <sodipodi:namedview
     id="namedview7"
     pagecolor="#ffffff"
     bordercolor="#666666"
     borderopacity="1.0"
     inkscape:showpageshadow="2"
     inkscape:pageopacity="0.0"
     inkscape:pagecheckerboard="0"
     inkscape:deskcolor="#d1d1d1"
     inkscape:document-units="px"
     showgrid="false"
     inkscape:zoom="34.208333"
     inkscape:cx="12.029233"
     inkscape:cy="12"
     inkscape:window-width="1920"
     inkscape:window-height="1007"
     inkscape:window-x="0"
     inkscape:window-y="0"
     inkscape:window-maximized="1"
     inkscape:current-layer="svg5" />
  <defs
     id="defs2">
    <linearGradient
       inkscape:collect="always"
       id="linearGradient1706">
      <stop
         style="stop-color:#edc100;stop-opacity:1;"
         offset="0"
         id="stop1702" />
      <stop
         style="stop-color:#ffde5f;stop-opacity:1;"
         offset="1"
         id="stop1704" />
    </linearGradient>
    <linearGradient
       inkscape:collect="always"
       xlink:href="#linearGradient1706"
       id="linearGradient1708"
       x1="58"
       y1="58"
       x2="32"
       y2="6"
       gradientUnits="userSpaceOnUse"
       gradientTransform="matrix(0.34615384,0,0,0.34615384,0.92307693,0.92307693)" />
    <linearGradient
       inkscape:collect="always"
       xlink:href="#linearGradient3146"
       id="linearGradient7467"
       x1="23"
       y1="23"
       x2="15"
       y2="12"
       gradientUnits="userSpaceOnUse"
       gradientTransform="translate(0,-4)" />
    <linearGradient
       inkscape:collect="always"
       id="linearGradient3146">
      <stop
         style="stop-color:#abe8fc;stop-opacity:1;"
         offset="0"
         id="stop3142" />
      <stop
         style="stop-color:#ebf3fb;stop-opacity:1;"
         offset="1"
         id="stop3144" />
    </linearGradient>
    <linearGradient
       inkscape:collect="always"
       xlink:href="#linearGradient1114"
       id="linearGradient1116"
       x1="21"
       y1="21.999998"
       x2="9.000001"
       y2="10.999999"
       gradientUnits="userSpaceOnUse"
       gradientTransform="translate(1.9999991,1.0000008)" />
    <linearGradient
       inkscape:collect="always"
       id="linearGradient1114">
      <stop
         style="stop-color:#66c0ed;stop-opacity:1;"
         offset="0"
         id="stop1110" />
      <stop
         style="stop-color:#85cbf2;stop-opacity:1;"
         offset="1"
         id="stop1112" />
    </linearGradient>
  </defs>
  <path
     style="color:#000000;fill:url(#linearGradient1708);stroke:none;stroke-width:0.69231;stroke-linecap:round;stroke-linejoin:round;-inkscape-stroke:none"
     d="M 8.9630411,3.5516827 C 5.394453,4.8308814 3.0100323,8.2090807 3,12 c 0,4.970562 4.0294372,9 9,9 3.290296,-0.0096 6.313111,-1.813947 7.883113,-4.705528 -0.972997,0.35741 -2.000423,0.544049 -3.03696,0.551682 -4.970563,0 -8.9999995,-4.029437 -8.9999995,-9.0000005 0.00798,-1.502271 0.3920062,-2.9786319 1.1168876,-4.2944708 z"
     id="path2650"
     sodipodi:nodetypes="ccccccc" />
  <path
     id="path3280"
     style="fill:url(#linearGradient7467);fill-opacity:1;stroke-width:5;stroke-linecap:round;stroke-linejoin:round"
     d="m 15,8 a 5,5 0 0 0 -5,5 c -1.6619983,0 -3,1.338002 -3,3 0,1.661998 1.3380017,3 3,3 h 10 c 1.661998,0 3,-1.338002 3,-3 0,-1.661998 -1.338002,-3 -3,-3 A 5,5 0 0 0 15,8 Z" />
  <path
     id="rect854"
     style="fill:url(#linearGradient1116);fill-opacity:1;stroke-width:0.500001;stroke-linejoin:round"
     d="m 15.999999,12 c -1.104568,0 -2,0.89543 -2,2 h 1 c 0,-0.552286 0.447714,-1.000001 1,-1.000001 0.552286,0 1,0.447715 1,1.000001 0,0.552282 -0.447717,1 -1,1 h -4 v 0.999999 h 4 c 1.104569,0 2,-0.895431 2,-1.999999 0,-1.104573 -0.895428,-2 -2,-2 z m 5,2 c -1.104569,0 -2,0.895431 -2,1.999999 h 1 c 0,-0.552285 0.447715,-0.999999 1,-0.999999 0.552285,0 1,0.447714 1,0.999999 0,0.552285 -0.447715,1.000001 -1,1.000001 H 11 v 0.999999 h 9.999999 c 1.104569,0 2,-0.895431 2,-2 0,-1.104568 -0.895431,-1.999999 -2,-1.999999 z m -8,5.000001 V 20 h 6 c 0.552286,0 1,0.447715 1,0.999999 0,0.552287 -0.447714,1.000002 -1,1.000002 -0.552283,0 -1,-0.447719 -1,-1.000002 h -1 c 0,1.104567 0.895431,2.000001 2,2.000001 1.104572,0 2,-0.895427 2,-2.000001 0,-1.104567 -0.895431,-1.999998 -2,-1.999998 z"
     sodipodi:nodetypes="sccsssccssssccsssccsssccsssccsssc" />
</svg>
