<?xml version="1.0" encoding="UTF-8" standalone="no"?>
<svg
   height="22"
   width="22"
   version="1.1"
   id="svg1"
   sodipodi:docname="emblem-synchronizing-symbolic.svg"
   inkscape:version="1.4.2 (ebf0e940d0, 2025-05-08)"
   xmlns:inkscape="http://www.inkscape.org/namespaces/inkscape"
   xmlns:sodipodi="http://sodipodi.sourceforge.net/DTD/sodipodi-0.dtd"
   xmlns="http://www.w3.org/2000/svg"
   xmlns:svg="http://www.w3.org/2000/svg">
  <defs
     id="defs1">
    <style
       id="current-color-scheme"
       type="text/css">
        .ColorScheme-Text { color:#363636; }
     </style>
  </defs>
  <sodipodi:namedview
     id="namedview1"
     pagecolor="#ffffff"
     bordercolor="#000000"
     borderopacity="0.25"
     inkscape:showpageshadow="2"
     inkscape:pageopacity="0.0"
     inkscape:pagecheckerboard="0"
     inkscape:deskcolor="#d1d1d1"
     inkscape:zoom="36.136364"
     inkscape:cx="11"
     inkscape:cy="11"
     inkscape:window-width="1920"
     inkscape:window-height="1010"
     inkscape:window-x="0"
     inkscape:window-y="0"
     inkscape:window-maximized="1"
     inkscape:current-layer="svg1" />
  <path
     id="path1"
     style="fill:currentColor"
     class="ColorScheme-Text"
     d="M 11.179688,5.0077701 A 5.999,5.999 0 0 0 6.7558594,6.7616764 0.5,0.5 0 1 0 7.4628906,7.4687076 4.994,4.994 0 0 1 13.498047,6.6757388 4.983,4.983 0 0 1 15.982422,10.996052 H 14 l 2.5,3 2.5,-3 H 16.994141 A 6,6 0 0 0 13.998047,5.8065982 5.983,5.983 0 0 0 11.179688,5.0077701 Z M 5.5,7.9960514 3,10.996052 h 2.0039062 a 6.014,6.014 0 0 0 1.46875,3.939453 6.003,6.003 0 0 0 8.7714848,0.304687 A 0.50063773,0.50063773 0 1 0 14.537109,14.531208 4.998,4.998 0 0 1 8.5,15.32613 4.985,4.985 0 0 1 6.015625,10.996052 H 8 Z" />
</svg>
