<?xml version="1.0" encoding="UTF-8" standalone="no"?>
<!-- Created with Inkscape (http://www.inkscape.org/) -->

<svg
   width="22"
   height="22"
   viewBox="0 0 22 22"
   version="1.1"
   id="svg5"
   inkscape:version="1.3.2 (091e20ef0f, 2023-11-25, custom)"
   sodipodi:docname="klipper-symbolic.svg"
   xmlns:inkscape="http://www.inkscape.org/namespaces/inkscape"
   xmlns:sodipodi="http://sodipodi.sourceforge.net/DTD/sodipodi-0.dtd"
   xmlns="http://www.w3.org/2000/svg"
   xmlns:svg="http://www.w3.org/2000/svg">
  <sodipodi:namedview
     id="namedview7"
     pagecolor="#ffffff"
     bordercolor="#666666"
     borderopacity="1.0"
     inkscape:showpageshadow="2"
     inkscape:pageopacity="0.0"
     inkscape:pagecheckerboard="0"
     inkscape:deskcolor="#d1d1d1"
     inkscape:document-units="px"
     showgrid="false"
     showguides="false"
     inkscape:zoom="36.545455"
     inkscape:cx="11"
     inkscape:cy="11"
     inkscape:window-width="1920"
     inkscape:window-height="1008"
     inkscape:window-x="0"
     inkscape:window-y="0"
     inkscape:window-maximized="1"
     inkscape:current-layer="svg5" />
  <defs
     id="defs2">
    <style
       id="current-color-scheme"
       type="text/css">
        .ColorScheme-Text { color:#f2f2f2; }
     </style>
  </defs>
  <path
     d="M 9.5,3 C 8.8442907,3 8.2888842,3.4160206 8.0839844,4 H 7 C 5.8920011,4 5,4.8920011 5,6 v 10 c 0,1.107999 0.8920011,2 2,2 h 8 c 1.107998,0 2,-0.892002 2,-2 V 6 C 17,4.8920011 16.107999,4 15,4 H 13.916016 C 13.711116,3.4160206 13.155699,3 12.5,3 Z m 0,1 h 3 C 12.777,4 13,4.2230003 13,4.5 13,4.7769997 12.777,5 12.5,5 h -3 C 9.223,5 9,4.7769997 9,4.5 9,4.2230003 9.223,4 9.5,4 Z M 7,5 H 8.0839844 C 8.2888842,5.5839794 8.8443007,6 9.5,6 h 3 c 0.655709,0 1.211116,-0.4160206 1.416016,-1 H 15 c 0.553999,0 1,0.4460006 1,1 v 10 c 0,0.553998 -0.446002,1 -1,1 H 7 C 6.4460006,17 6,16.553999 6,16 V 6 C 6,5.4460006 6.4460006,5 7,5 Z"
     style="fill:currentColor;paint-order:stroke fill markers"
     id="path1"
     class="ColorScheme-Text" />
</svg>
