<?xml version="1.0" encoding="UTF-8" standalone="no"?>
<!-- Created with Inkscape (http://www.inkscape.org/) -->

<svg
   width="22"
   height="22"
   viewBox="0 0 22 22"
   version="1.1"
   id="svg5"
   inkscape:version="1.2.1 (9c6d41e410, 2022-07-14)"
   sodipodi:docname="mintupdate-up-to-date.svg"
   xmlns:inkscape="http://www.inkscape.org/namespaces/inkscape"
   xmlns:sodipodi="http://sodipodi.sourceforge.net/DTD/sodipodi-0.dtd"
   xmlns="http://www.w3.org/2000/svg"
   xmlns:svg="http://www.w3.org/2000/svg">
  <sodipodi:namedview
     id="namedview7"
     pagecolor="#ffffff"
     bordercolor="#000000"
     borderopacity="0.25"
     inkscape:showpageshadow="2"
     inkscape:pageopacity="0.0"
     inkscape:pagecheckerboard="0"
     inkscape:deskcolor="#d1d1d1"
     inkscape:document-units="px"
     showgrid="false"
     inkscape:zoom="36.727273"
     inkscape:cx="11"
     inkscape:cy="11"
     inkscape:window-width="1920"
     inkscape:window-height="1011"
     inkscape:window-x="0"
     inkscape:window-y="32"
     inkscape:window-maximized="1"
     inkscape:current-layer="svg5" />
  <defs
     id="defs2">
    <style
       id="current-color-scheme"
       type="text/css">
   .ColorScheme-Text { color:#f2f2f2; } .ColorScheme-Highlight { color:#3daee9; } .ColorScheme-NeutralText { color:#ff9800; } .ColorScheme-PositiveText { color:#4caf50; } .ColorScheme-NegativeText { color:#f44336; }
   </style>
  </defs>
  <path
     id="rect3333"
     style="fill:currentColor;fill-opacity:1;stroke:none;stroke-width:1;stroke-linecap:square;stroke-linejoin:round;stroke-dasharray:none;stroke-opacity:1"
     class="ColorScheme-Text"
     d="m 11.007813,4.0000398 a 0.50005,0.50005 0 0 0 -0.251954,0.064453 c 0,0 -1.43687,0.811581 -5.3945309,1.9550781 A 0.50005,0.50005 0 0 0 5,6.5000398 c -1.699e-4,7.9948082 5.746094,11.4316412 5.746094,11.4316412 a 0.50005,0.50005 0 0 0 0.507812,0 c 0,0 5.746264,-3.436833 5.746094,-11.4316412 A 0.50005,0.50005 0 0 0 16.630859,6.0176179 C 12.695529,4.945629 11.257813,4.0723054 11.257813,4.0723054 a 0.50005,0.50005 0 0 0 -0.25,-0.072266 z m -0.03711,1.0351562 c 0.248458,0.1393602 1.711632,0.8745427 4.970703,1.8046876 C 15.776963,13.504717 11.679373,16.449985 11,16.884806 10.320172,16.449693 6.2156184,13.502361 6.0566406,6.8281648 9.26587,5.8495536 10.833217,5.1094545 10.970703,5.035196 Z m 2.328125,3.4765626 c -0.127809,0 -0.255581,0.04855 -0.353515,0.1464843 l -2.47461,2.4765631 -1.060547,-1.060547 c -0.195868,-0.1958682 -0.5111628,-0.1958682 -0.707031,0 -0.1958681,0.195868 -0.1958682,0.511163 0,0.707031 l 1.414063,1.414063 c 0.110175,0.110175 0.259083,0.158303 0.402343,0.144531 0.111425,-0.01071 0.218995,-0.05884 0.304688,-0.144531 l 2.828125,-2.8300792 c 0.195868,-0.195868 0.195868,-0.511163 0,-0.7070309 -0.09793,-0.097934 -0.225706,-0.1464844 -0.353516,-0.1464843 z" />
</svg>
