<?xml version="1.0" encoding="UTF-8" standalone="no"?>
<!-- Created with Inkscape (http://www.inkscape.org/) -->

<svg
   width="22"
   height="22"
   viewBox="0 0 22 22"
   version="1.1"
   id="svg5"
   inkscape:version="1.4.2 (ebf0e940d0, 2025-05-08)"
   sodipodi:docname="network-cellular-2g.svg"
   xmlns:inkscape="http://www.inkscape.org/namespaces/inkscape"
   xmlns:sodipodi="http://sodipodi.sourceforge.net/DTD/sodipodi-0.dtd"
   xmlns="http://www.w3.org/2000/svg"
   xmlns:svg="http://www.w3.org/2000/svg">
  <sodipodi:namedview
     id="namedview7"
     pagecolor="#ffffff"
     bordercolor="#000000"
     borderopacity="0.25"
     inkscape:showpageshadow="2"
     inkscape:pageopacity="0.0"
     inkscape:pagecheckerboard="0"
     inkscape:deskcolor="#d1d1d1"
     inkscape:document-units="px"
     showgrid="false"
     showguides="true"
     inkscape:zoom="36.136364"
     inkscape:cx="11"
     inkscape:cy="11"
     inkscape:window-width="1920"
     inkscape:window-height="1010"
     inkscape:window-x="0"
     inkscape:window-y="0"
     inkscape:window-maximized="1"
     inkscape:current-layer="svg5" />
  <defs
     id="defs2">
    <style
       id="current-color-scheme"
       type="text/css">
         .ColorScheme-Text { color:#f2f2f2; }
     </style>
  </defs>
  <path
     id="rect1055"
     style="fill:currentColor;stroke-width:2.26822;stroke-linecap:round;stroke-linejoin:round;paint-order:stroke fill markers"
     class="ColorScheme-Text"
     d="M 7.3203125,7 C 6.8887773,7 6.4989382,7.0902781 6.1503906,7.2695312 5.8018431,7.4487843 5.527295,7.6994928 5.328125,8.0214844 5.1322745,8.3434759 5.035743,8.5817421 5.0390625,9 H 6 C 6.1106549,8.2621477 6.5397323,7.9996287 7.25,8 7.5542934,8.0001591 8.0200516,8.1934966 8.203125,8.3652344 8.598906,8.7365093 8.5666611,9.114513 8.4707031,9.667969 8.4339086,9.880188 8.1972656,10.232422 8.1972656,10.232422 L 5,14.099609 5.0097656,15 H 9.691406 V 14 H 6.2539062 L 8.4511719,11.339844 C 8.7925156,10.987998 9.054992,10.605062 9.40625,9.792969 9.50583,9.540686 9.557221,9.277472 9.560547,9.001953 9.560547,8.6301691 9.464017,8.2917223 9.271484,7.9863281 9.078953,7.6809352 8.8126118,7.4396064 8.4707031,7.2636719 8.1321141,7.0877374 7.7485279,7 7.3203125,7 Z M 14,7 c -1.999439,0 -3,1.3773376 -3,4 v 0.400391 C 11,13.628279 11.992255,15 14,15 c 2.070025,0 3,-1.290474 3,-3 v -1 h -1 -2 v 1 h 2 c -0.09089,1.041184 -0.339114,1.993898 -2,2 -1.242628,0.0046 -2.036829,-0.899275 -2,-3 0.03819,-2.1782274 0.591083,-2.9882844 2,-3 1.478602,0.00521 1.797988,0.7872702 2,2 h 1 C 16.754897,7.8511241 15.487734,7 14,7 Z" />
</svg>
