<?xml version="1.0" encoding="UTF-8" standalone="no"?>
<svg
   width="22"
   height="22"
   version="1"
   id="svg2"
   sodipodi:docname="prime-intel.svg"
   inkscape:version="1.4.2 (ebf0e940d0, 2025-05-08)"
   xmlns:inkscape="http://www.inkscape.org/namespaces/inkscape"
   xmlns:sodipodi="http://sodipodi.sourceforge.net/DTD/sodipodi-0.dtd"
   xmlns="http://www.w3.org/2000/svg"
   xmlns:svg="http://www.w3.org/2000/svg">
  <defs
     id="defs2">
    <style
       id="current-color-scheme"
       type="text/css">
        .ColorScheme-Text { color:#f2f2f2; }
        .ColorScheme-NeutralText { color:#f67400; }
        .ColorScheme-PositiveText { color:#37c837; }
        .ColorScheme-NegativeText { color:#f44336; }
     </style>
  </defs>
  <sodipodi:namedview
     id="namedview2"
     pagecolor="#ffffff"
     bordercolor="#000000"
     borderopacity="0.25"
     inkscape:showpageshadow="2"
     inkscape:pageopacity="0.0"
     inkscape:pagecheckerboard="0"
     inkscape:deskcolor="#d1d1d1"
     inkscape:zoom="36.136364"
     inkscape:cx="11"
     inkscape:cy="11"
     inkscape:window-width="1920"
     inkscape:window-height="1010"
     inkscape:window-x="0"
     inkscape:window-y="0"
     inkscape:window-maximized="1"
     inkscape:current-layer="svg2" />
  <path
     id="path1"
     style="fill:currentColor"
     class="ColorScheme-Text"
     d="M 5,4 C 3.892,4 3,4.892 3,6 v 10 c 0,1.108 0.892,2 2,2 h 12 c 1.108,0 2,-0.892 2,-2 V 6 C 19,4.892 18.108,4 17,4 Z m 0,1 h 12 c 0.554,0 1,0.446 1,1 v 10 c 0,0.554 -0.446,1 -1,1 H 5 C 4.446,17 4,16.554 4,16 V 6 C 4,5.446 4.446,5 5,5 Z M 5,8.462891 V 9.21875 H 5.7675781 V 8.462891 Z M 16.232422,9.21875 v 3.599609 c 0,0.42768 0.107088,0.661664 0.767578,0.720703 V 9.21875 Z m -6.048828,0.04297 v 2.914062 c 0,0.47701 0.05256,1.361328 0.767578,1.361328 h 0.767578 v -0.75586 h -0.517578 c -0.208128,0 -0.25,-0.560809 -0.25,-0.755859 v -1.080078 h 0.767578 v -0.75586 H 10.951172 V 9.261719 Z M 5,10.082031 v 2.419922 c 0,0.41053 0.1071681,0.980432 0.7675781,1.037109 v -3.457031 z m 1.4394531,0 v 3.455078 h 0.7675781 v -2.763671 h 1.0234376 c 0.25644,0 0.5136718,0.16127 0.5136718,0.34375 v 2.419921 H 9.511719 v -2.419921 c 0,-0.43742 -0.386174,-1.043177 -1.152344,-1.035157 z m 7.9472659,0 c -0.91547,7e-4 -1.611328,0.621756 -1.611328,1.722657 0,1.28908 0.796346,1.732421 1.628906,1.732421 0.63825,0 0.99891,-0.20155 1.34375,-0.53125 l -0.535156,-0.498046 c -0.22273,0.21427 -0.414472,0.318359 -0.800782,0.318359 -0.45774,0 -0.722482,-0.282162 -0.757812,-0.669922 h 2.193359 v -0.388672 c 0,-0.95658 -0.534717,-1.684714 -1.460937,-1.685547 z m -0.07617,0.691407 c 0.42432,-7.4e-4 0.768916,0.309536 0.769531,0.691406 h -1.537109 c 6.1e-4,-0.38128 0.343918,-0.691314 0.767578,-0.691406 z" />
</svg>
