<?xml version="1.0" encoding="UTF-8" standalone="no"?>
<svg
   height="22"
   width="22"
   version="1.1"
   id="svg1"
   sodipodi:docname="weather-windy.svg"
   inkscape:version="1.4.2 (ebf0e940d0, 2025-05-08)"
   xmlns:inkscape="http://www.inkscape.org/namespaces/inkscape"
   xmlns:sodipodi="http://sodipodi.sourceforge.net/DTD/sodipodi-0.dtd"
   xmlns="http://www.w3.org/2000/svg"
   xmlns:svg="http://www.w3.org/2000/svg">
  <defs
     id="defs1">
    <style
       id="current-color-scheme"
       type="text/css">
        .ColorScheme-Text { color:#f2f2f2; }
        .ColorScheme-NeutralText { color:#f67400; }
        .ColorScheme-PositiveText { color:#37c837; }
        .ColorScheme-NegativeText { color:#f44336; }
        .ColorScheme-Highlight { color:#3daee9; }
     </style>
  </defs>
  <sodipodi:namedview
     id="namedview1"
     pagecolor="#ffffff"
     bordercolor="#000000"
     borderopacity="0.25"
     inkscape:showpageshadow="2"
     inkscape:pageopacity="0.0"
     inkscape:pagecheckerboard="0"
     inkscape:deskcolor="#d1d1d1"
     inkscape:zoom="36.136364"
     inkscape:cx="11"
     inkscape:cy="11"
     inkscape:window-width="1920"
     inkscape:window-height="1010"
     inkscape:window-x="0"
     inkscape:window-y="0"
     inkscape:window-maximized="1"
     inkscape:current-layer="svg1" />
  <path
     id="path1"
     style="fill:currentColor"
     class="ColorScheme-Text"
     d="m 11.517578,7.0001292 a 1.497,1.497 0 0 0 -1.15039,0.5351562 c -0.460001,0.513 0.339625,1.1855782 0.765625,0.6425782 0.15,-0.18 0.398421,-0.23 0.607421,-0.125 0.21,0.105 0.315719,0.3345 0.261719,0.5625 A 0.495,0.495 0 0 1 11.515625,9.0001292 H 6.5058594 c -0.676,-0.01 -0.676,1.0099998 0,0.9999998 h 5.0097656 c 0.055,0 0.110109,-0.0093 0.162109,-0.02734 a 1.492,1.492 0 0 0 1.294922,-1.1269569 1.503,1.503 0 0 0 -1.267578,-1.8339843 1.497,1.497 0 0 0 -0.1875,-0.011719 z m 4.892578,0.00195 a 2.491,2.491 0 0 0 -1.816406,0.890625 c -0.46,0.514 0.339625,1.185578 0.765625,0.6425781 a 1.495,1.495 0 0 1 1.822266,-0.375 c 0.623,0.313 0.946156,1.0065469 0.785156,1.6855469 A 1.495,1.495 0 0 1 16.507812,11.000129 H 4.5 c -0.822,0 -1.5,0.678 -1.5,1.5 a 1.508,1.508 0 0 0 1.5097656,1.501953 h 9.0097654 c 0.235,0 0.433281,0.154813 0.488281,0.382813 a 0.495,0.495 0 0 1 -0.263671,0.5625 0.495,0.495 0 0 1 -0.607422,-0.125 c -0.425,-0.542 -1.226625,0.129578 -0.765625,0.642578 a 1.499,1.499 0 0 0 1.822265,0.376953 c 0.619,-0.31 0.945157,-1.0135 0.785157,-1.6875 a 1.489,1.489 0 0 0 -1.292969,-1.123047 0.5,0.5 0 0 0 -0.173828,-0.0293 H 4.5019531 v -0.002 a 0.493,0.493 0 0 1 -0.5,-0.5 c 0,-0.282 0.218,-0.5 0.5,-0.5 H 16.509766 a 0.506,0.506 0 0 0 0.09961,-0.0078 2.502,2.502 0 0 0 2.333983,-1.916028 2.504,2.504 0 0 0 -1.308593,-2.8105468 2.496,2.496 0 0 0 -1.222657,-0.2636719 z" />
</svg>
