<?xml version="1.0" encoding="UTF-8" standalone="no"?>
<svg
   height="22"
   width="22"
   version="1.1"
   id="svg1"
   sodipodi:docname="weather-few-clouds.svg"
   inkscape:version="1.4.2 (ebf0e940d0, 2025-05-08)"
   xmlns:inkscape="http://www.inkscape.org/namespaces/inkscape"
   xmlns:sodipodi="http://sodipodi.sourceforge.net/DTD/sodipodi-0.dtd"
   xmlns="http://www.w3.org/2000/svg"
   xmlns:svg="http://www.w3.org/2000/svg">
  <defs
     id="defs1">
    <style
       id="current-color-scheme"
       type="text/css">
        .ColorScheme-Text { color:#f2f2f2; }
        .ColorScheme-NeutralText { color:#f67400; }
        .ColorScheme-PositiveText { color:#37c837; }
        .ColorScheme-NegativeText { color:#f44336; }
        .ColorScheme-Highlight { color:#3daee9; }
     </style>
  </defs>
  <sodipodi:namedview
     id="namedview1"
     pagecolor="#ffffff"
     bordercolor="#000000"
     borderopacity="0.25"
     inkscape:showpageshadow="2"
     inkscape:pageopacity="0.0"
     inkscape:pagecheckerboard="0"
     inkscape:deskcolor="#d1d1d1"
     inkscape:zoom="36.136364"
     inkscape:cx="11"
     inkscape:cy="11"
     inkscape:window-width="1920"
     inkscape:window-height="1010"
     inkscape:window-x="0"
     inkscape:window-y="0"
     inkscape:window-maximized="1"
     inkscape:current-layer="svg1" />
  <path
     id="path1"
     style="opacity:0.5;fill:currentColor"
     class="ColorScheme-NeutralText warning"
     d="m 10.5,3 v 2 h 1 V 3 Z m -3.0664062,0.8222656 -0.8671876,0.5 1.0019532,1.7324219 0.8652344,-0.5 z m 7.1328122,0 -1,1.7324219 0.867188,0.5 1,-1.7324219 z M 11,6 c -4.9615536,6.37e-5 -6.8936723,6.446863 -2.75,9.175781 0.1178621,-0.308527 0.2798831,-0.603998 0.4902344,-0.875 C 7.6510603,13.555058 6.9999152,12.320001 7,11 7,8.790861 8.790861,7 11,7 c 2.209139,0 4,1.790861 4,4 3.1e-5,0.0091 3.1e-5,0.01823 0,0.02734 0.344687,0.03923 0.6762,0.119728 0.992188,0.234375 C 16.142093,8.4017814 13.863863,6.0005485 11,6 Z m -6.6777344,0.5664062 -0.5,0.8671876 1.7324219,1 0.5,-0.8671876 z m 13.3554684,0 -1.732422,1 0.5,0.8671876 1.732422,-1 z M 3,10.5 v 1 h 2 v -1 z m 14,0 v 1 h 2 v -1 z m -11.4453125,3.066406 -1.7324219,1 0.5,0.867188 1.7324219,-1.001953 z m 2.0117187,2.378906 -1,1.732422 0.8671876,0.5 0.6269531,-1.083984 c -1.03e-4,-6.41e-4 1.026e-4,-0.0013 0,-0.002 -0.025497,-0.159136 -0.041744,-0.320318 -0.046875,-0.480469 -0.0043,-0.134156 -0.00213,-0.267892 0.00781,-0.402344 4.73e-5,-6.4e-4 -4.77e-5,-0.0013 0,-0.002 z"
     sodipodi:nodetypes="cccccccccccccccccccsccccccccccccccccccccccccccccccccccsscc" />
  <path
     style="fill:currentColor"
     d="m 14.5,12 c -1.352435,0.002 -2.582704,0.782965 -3.16,2.006 C 8.1357107,14.227805 8.2880841,18.98376 11.5,19 H 17 c 2.045834,-0.0047 2.765748,-2.714551 0.992,-3.734 C 17.868842,13.42802 16.342101,12.000089 14.5,12 Z m 0,1 c 1.317333,-0.0057 2.410407,1.017184 2.492,2.332 l 0.037,0.535 0.465,0.268 c 0.311852,0.177172 0.504361,0.508334 0.504,0.867 0.0074,0.554999 -0.445017,1.006502 -1,0.998 h -5.5 c -0.84,0 -1.5,-0.66 -1.5,-1.5 0,-0.8 0.605,-1.445 1.404,-1.496 l 0.588,-0.037 0.252,-0.533 C 12.653273,13.559825 13.531912,13.001329 14.498,13 Z"
     id="path2"
     class="ColorScheme-Text" />
</svg>
