<?xml version="1.0" encoding="UTF-8" standalone="no"?>
<!-- Created with Inkscape (http://www.inkscape.org/) -->

<svg
   width="24"
   height="24"
   viewBox="0 0 24 24"
   version="1.1"
   id="svg5"
   inkscape:version="1.4.2 (ebf0e940d0, 2025-05-08)"
   sodipodi:docname="input-touchpad-symbolic.svg"
   xmlns:inkscape="http://www.inkscape.org/namespaces/inkscape"
   xmlns:sodipodi="http://sodipodi.sourceforge.net/DTD/sodipodi-0.dtd"
   xmlns="http://www.w3.org/2000/svg"
   xmlns:svg="http://www.w3.org/2000/svg">
  <sodipodi:namedview
     id="namedview7"
     pagecolor="#ffffff"
     bordercolor="#000000"
     borderopacity="0.25"
     inkscape:showpageshadow="2"
     inkscape:pageopacity="0.0"
     inkscape:pagecheckerboard="0"
     inkscape:deskcolor="#d1d1d1"
     inkscape:document-units="px"
     showgrid="false"
     showguides="true"
     inkscape:zoom="33.125"
     inkscape:cx="12"
     inkscape:cy="12"
     inkscape:window-width="1920"
     inkscape:window-height="1010"
     inkscape:window-x="0"
     inkscape:window-y="0"
     inkscape:window-maximized="1"
     inkscape:current-layer="svg5" />
  <defs
     id="defs2">
    <style
       id="current-color-scheme"
       type="text/css">
        .ColorScheme-Text { color:#363636; }
     </style>
  </defs>
  <path
     id="path5507"
     style="fill:currentColor"
     class="ColorScheme-Text"
     d="M 6,6 C 4.8920044,6 4,6.8920044 4,8 v 8 c 0,1.107996 0.8920044,2 2,2 h 11 c 1.107996,0 2,-0.892004 2,-2 V 8 C 19,6.8920044 18.107996,6 17,6 Z m 0,1 h 11 c 0.553996,0 1,0.4460024 1,1 v 5 H 5 V 8 C 5,7.4460024 5.4460024,7 6,7 Z m -1,7 h 6 v 3 H 6 C 5.4460024,17 5,16.553996 5,16 Z m 7,0 h 6 v 2 c 0,0.553996 -0.446004,1 -1,1 h -5 z" />
</svg>
