<?xml version="1.0" encoding="UTF-8" standalone="no"?>
<!-- Created with Inkscape (http://www.inkscape.org/) -->

<svg
   width="24"
   height="24"
   viewBox="0 0 24 24"
   version="1.1"
   id="svg5"
   sodipodi:docname="tv-symbolic.svg"
   inkscape:version="1.4.2 (ebf0e940d0, 2025-05-08)"
   xmlns:inkscape="http://www.inkscape.org/namespaces/inkscape"
   xmlns:sodipodi="http://sodipodi.sourceforge.net/DTD/sodipodi-0.dtd"
   xmlns="http://www.w3.org/2000/svg"
   xmlns:svg="http://www.w3.org/2000/svg">
  <sodipodi:namedview
     id="namedview7"
     pagecolor="#ffffff"
     bordercolor="#666666"
     borderopacity="1.0"
     inkscape:showpageshadow="2"
     inkscape:pageopacity="0.0"
     inkscape:pagecheckerboard="0"
     inkscape:deskcolor="#d1d1d1"
     inkscape:document-units="px"
     showgrid="false"
     inkscape:zoom="33.125"
     inkscape:cx="12"
     inkscape:cy="12"
     inkscape:window-width="1920"
     inkscape:window-height="1010"
     inkscape:window-x="0"
     inkscape:window-y="0"
     inkscape:window-maximized="1"
     inkscape:current-layer="svg5" />
  <defs
     id="defs2">
    <style
       id="current-color-scheme"
       type="text/css">
        .ColorScheme-Text { color:#363636; }
     </style>
  </defs>
  <path
     id="path1017"
     style="fill:currentColor;fill-opacity:1"
     class="ColorScheme-Text"
     d="M 7,6 C 5.8920044,6 5,6.8920044 5,8 v 7 c 0,1.107996 0.8920044,2 2,2 H 8.5 C 8.2230006,17 8,17.223 8,17.5 8,17.777 8.2230006,18 8.5,18 h 7 C 15.777,18 16,17.777 16,17.5 16,17.223 15.777,17 15.5,17 H 17 c 1.107996,0 2,-0.892004 2,-2 V 8 C 19,6.8920044 18.107996,6 17,6 Z m 0,1 h 10 c 0.553996,0 1,0.4460024 1,1 v 7 c 0,0.553996 -0.446004,1 -1,1 H 7 C 6.4460024,16 6,15.553996 6,15 V 8 C 6,7.4460024 6.4460024,7 7,7 Z" />
</svg>
