<?xml version="1.0" encoding="UTF-8" standalone="no"?>
<!-- Created with Inkscape (http://www.inkscape.org/) -->

<svg
   width="24"
   height="24"
   viewBox="0 0 24 24"
   version="1.1"
   id="svg5"
   inkscape:version="1.4.2 (ebf0e940d0, 2025-05-08)"
   sodipodi:docname="extensions-symbolic.svg"
   xmlns:inkscape="http://www.inkscape.org/namespaces/inkscape"
   xmlns:sodipodi="http://sodipodi.sourceforge.net/DTD/sodipodi-0.dtd"
   xmlns="http://www.w3.org/2000/svg"
   xmlns:svg="http://www.w3.org/2000/svg">
  <sodipodi:namedview
     id="namedview7"
     pagecolor="#ffffff"
     bordercolor="#666666"
     borderopacity="1.0"
     inkscape:showpageshadow="2"
     inkscape:pageopacity="0.0"
     inkscape:pagecheckerboard="0"
     inkscape:deskcolor="#d1d1d1"
     inkscape:document-units="px"
     showgrid="false"
     showguides="false"
     inkscape:zoom="33.125"
     inkscape:cx="12"
     inkscape:cy="12"
     inkscape:window-width="1920"
     inkscape:window-height="1010"
     inkscape:window-x="0"
     inkscape:window-y="0"
     inkscape:window-maximized="1"
     inkscape:current-layer="svg5" />
  <defs
     id="defs2">
    <style
       id="current-color-scheme"
       type="text/css">
        .ColorScheme-Text { color:#f2f2f2; }
        .ColorScheme-NeutralText { color:#f67400; }
        .ColorScheme-PositiveText { color:#37c837; }
        .ColorScheme-NegativeText { color:#f44336; }
        .ColorScheme-Highlight { color:#3daee9; }
     </style>
  </defs>
  <path
     d="M 11,4 C 9.892,4 9,4.892 9,6 V 7 H 6.8456995 c -1.0228,0 -1.8457,0.82293 -1.8457,1.8457 V 12 h 2 C 7.554,12 8,12.446 8,13 8,13.554 7.554,14 6.9999995,14 h -2 v 3.1543 c 0,1.0228 0.82293,1.8457 1.8457,1.8457 H 10 v -2 c 0,-0.554 0.446,-1 1,-1 0.554,0 1,0.446 1,1 v 2 h 3.154299 C 16.177099,19 17,18.17707 17,17.1543 V 15 h 1 c 1.107999,0 2,-0.892 2,-2 0,-1.108 -0.892001,-2 -2,-2 H 17 V 8.8457 C 17,7.8229 16.17707,7 15.154299,7 H 13 V 6 C 13,4.892 12.108,4 11,4 Z m 0,1 c 0.554,0 1,0.446 1,1 v 2 h 3 c 0.553999,0 1,0.446 1,1 v 3 h 2 c 0.553999,0 1,0.446 1,1 0,0.554 -0.446001,1 -1,1 h -2 v 3 c 0,0.554 -0.446001,1 -1,1 h -2 v -1 c 0,-1.108 -0.892,-2 -2,-2 -1.108,0 -2,0.892 -2,2 v 1 H 6.9999995 c -0.554,0 -1,-0.446 -1,-1 v -2 h 1 C 8.107999,15 9,14.108 9,13 9,11.892 8.107999,11 6.9999995,11 h -1 V 9 c 0,-0.554 0.446,-1 1,-1 H 10 V 6 c 0,-0.554 0.446,-1 1,-1 z"
     id="path1"
     style="fill:currentColor"
     class="ColorScheme-Text" />
</svg>
