<?xml version="1.0" encoding="UTF-8" standalone="no"?>
<!-- Created with Inkscape (http://www.inkscape.org/) -->

<svg
   width="24"
   height="24"
   viewBox="0 0 24 24"
   version="1.1"
   id="svg5"
   inkscape:version="1.4.2 (ebf0e940d0, 2025-05-08)"
   sodipodi:docname="org.gnome.Games-symbolic.svg"
   xmlns:inkscape="http://www.inkscape.org/namespaces/inkscape"
   xmlns:sodipodi="http://sodipodi.sourceforge.net/DTD/sodipodi-0.dtd"
   xmlns="http://www.w3.org/2000/svg"
   xmlns:svg="http://www.w3.org/2000/svg">
  <sodipodi:namedview
     id="namedview7"
     pagecolor="#ffffff"
     bordercolor="#000000"
     borderopacity="0.25"
     inkscape:showpageshadow="2"
     inkscape:pageopacity="0.0"
     inkscape:pagecheckerboard="0"
     inkscape:deskcolor="#d1d1d1"
     inkscape:document-units="px"
     showgrid="false"
     inkscape:zoom="33.125"
     inkscape:cx="12"
     inkscape:cy="12"
     inkscape:window-width="1920"
     inkscape:window-height="1010"
     inkscape:window-x="0"
     inkscape:window-y="0"
     inkscape:window-maximized="1"
     inkscape:current-layer="svg5"
     showguides="false" />
  <defs
     id="defs2">
    <style
       id="current-color-scheme"
       type="text/css">
        .ColorScheme-Text { color:#f2f2f2; }
        .ColorScheme-NeutralText { color:#f67400; }
        .ColorScheme-PositiveText { color:#37c837; }
        .ColorScheme-NegativeText { color:#f44336; }
        .ColorScheme-Highlight { color:#3daee9; }
     </style>
  </defs>
  <path
     id="path1076"
     style="fill:currentColor;fill-opacity:1;stroke:none;stroke-width:2"
     class="ColorScheme-Text"
     d="M 8.71875,8 C 7.9002783,8 7.0439376,8.4357066 6.5644531,9.6074219 5.5519014,12.080026 5,13.992443 5,15.152344 c 0,0.892097 0.3278253,1.458249 1.0214844,1.789062 0.081299,0.03888 0.1709734,0.05873 0.2617187,0.05859 0.1444541,2.79e-4 0.2826615,-0.05003 0.390625,-0.142578 L 8.4882812,15.511719 C 8.81322,15.233833 9.0973118,14.947266 9.890625,14.947266 h 4.21875 c 0.793314,0 1.076751,0.28641 1.402344,0.564453 l 1.814453,1.345703 c 0.180042,0.153856 0.438662,0.186828 0.654297,0.08398 C 18.673964,16.610751 19,16.045071 19,15.152344 19,13.992601 18.449562,12.079555 17.4375,9.6074219 16.958015,8.4357066 16.099558,8 15.28125,8 c -0.382771,0 -0.757425,0.095021 -1.080078,0.2558594 -1.384867,0.6879382 -2.986442,0.7025884 -4.4003908,0 C 9.4769874,8.0950225 9.1013567,8 8.71875,8 Z m 0,1 c 0.2170372,0 0.448348,0.058775 0.6367188,0.1523438 1.6883922,0.8389595 3.6361052,0.8220839 5.2910152,0 v -0.00195 C 14.833259,9.057283 15.063976,9 15.28125,9 15.744597,9 16.157775,9.1213983 16.511719,9.9863281 17.503414,12.408712 18,14.309014 18,15.152344 c 0,0.510616 -0.144977,0.568576 -0.353516,0.697265 l -1.539062,-1.140625 c -0.314103,-0.260112 -1.017315,-0.761718 -1.998047,-0.761718 h -4.21875 c -1.0069046,0 -1.7244197,0.529726 -2.0253906,0.783203 l -1.5097656,1.11914 C 6.1461339,15.720321 6,15.661401 6,15.152344 6,14.309654 6.4979185,12.409517 7.4902344,9.9863281 7.8445682,9.1204432 8.2551701,9 8.71875,9 Z M 9,10 v 1 H 8 v 1 h 1 v 1 h 1 v -1 h 1 v -1 h -1 v -1 z m 5.5,0 A 0.5,0.5 0 0 0 14,10.5 0.5,0.5 0 0 0 14.5,11 0.5,0.5 0 0 0 15,10.5 0.5,0.5 0 0 0 14.5,10 Z m -1,1 A 0.5,0.5 0 0 0 13,11.5 0.5,0.5 0 0 0 13.5,12 0.5,0.5 0 0 0 14,11.5 0.5,0.5 0 0 0 13.5,11 Z m 2,0 A 0.5,0.5 0 0 0 15,11.5 0.5,0.5 0 0 0 15.5,12 0.5,0.5 0 0 0 16,11.5 0.5,0.5 0 0 0 15.5,11 Z m -1,1 A 0.5,0.5 0 0 0 14,12.5 0.5,0.5 0 0 0 14.5,13 0.5,0.5 0 0 0 15,12.5 0.5,0.5 0 0 0 14.5,12 Z" />
</svg>
