<?xml version="1.0" encoding="UTF-8" standalone="no"?>
<svg
   width="24"
   height="24"
   version="1.1"
   id="svg1"
   sodipodi:docname="preferences-desktop-font-symbolic.svg"
   inkscape:version="1.4.2 (ebf0e940d0, 2025-05-08)"
   xmlns:inkscape="http://www.inkscape.org/namespaces/inkscape"
   xmlns:sodipodi="http://sodipodi.sourceforge.net/DTD/sodipodi-0.dtd"
   xmlns="http://www.w3.org/2000/svg"
   xmlns:svg="http://www.w3.org/2000/svg">
  <defs
     id="defs1">
    <style
       id="current-color-scheme"
       type="text/css">
        .ColorScheme-Text { color:#f2f2f2; }
     </style>
  </defs>
  <sodipodi:namedview
     id="namedview1"
     pagecolor="#ffffff"
     bordercolor="#000000"
     borderopacity="0.25"
     inkscape:showpageshadow="2"
     inkscape:pageopacity="0.0"
     inkscape:pagecheckerboard="0"
     inkscape:deskcolor="#d1d1d1"
     inkscape:zoom="33.125"
     inkscape:cx="12"
     inkscape:cy="12"
     inkscape:window-width="1920"
     inkscape:window-height="1010"
     inkscape:window-x="0"
     inkscape:window-y="0"
     inkscape:window-maximized="1"
     inkscape:current-layer="svg1" />
  <path
     id="path1"
     style="fill:currentColor"
     class="ColorScheme-Text"
     d="M 12.996094,6 V 17.011719 L 16,17 c 1.662,0 3,-1.338 3,-3 0,-1.662 -1.338,-3 -3,-3 H 14 V 6 Z M 6,8 V 9.0039062 H 8 V 9 c 1.108,0 2,0.892 2,2 H 8 c -1.662,0 -3,1.338 -3,3 0,1.662 1.338,3 3,3 l 3.003906,0.02344 V 11 H 11 C 11,9.338 9.662,8 8,8 Z m 2,4 h 2 v 4 H 8 C 6.892,16 6,15.108 6,14 6,12.892 6.892,12 8,12 Z m 6,0 h 2 c 1.108,0 2,0.892 2,2 0,1.108 -0.892,2 -2,2 h -2 z" />
</svg>
