<?xml version="1.0" encoding="UTF-8" standalone="no"?>
<svg
   width="24"
   height="24"
   version="1.1"
   id="svg1"
   sodipodi:docname="totem-tv-symbolic.svg"
   inkscape:version="1.4.2 (ebf0e940d0, 2025-05-08)"
   xmlns:inkscape="http://www.inkscape.org/namespaces/inkscape"
   xmlns:sodipodi="http://sodipodi.sourceforge.net/DTD/sodipodi-0.dtd"
   xmlns="http://www.w3.org/2000/svg"
   xmlns:svg="http://www.w3.org/2000/svg">
  <defs
     id="defs1">
    <style
       id="current-color-scheme"
       type="text/css">
        .ColorScheme-Text { color:#f2f2f2; }
     </style>
  </defs>
  <sodipodi:namedview
     id="namedview1"
     pagecolor="#ffffff"
     bordercolor="#000000"
     borderopacity="0.25"
     inkscape:showpageshadow="2"
     inkscape:pageopacity="0.0"
     inkscape:pagecheckerboard="0"
     inkscape:deskcolor="#d1d1d1"
     inkscape:zoom="33.166667"
     inkscape:cx="11.984925"
     inkscape:cy="12"
     inkscape:window-width="1920"
     inkscape:window-height="1011"
     inkscape:window-x="0"
     inkscape:window-y="0"
     inkscape:window-maximized="1"
     inkscape:current-layer="svg1" />
  <path
     id="path1"
     style="fill:currentColor"
     class="ColorScheme-Text"
     d="M 9,4 C 8.4477153,4 8,4.4477153 8,5 8,5.5522847 8.4477153,6 9,6 9.0844839,5.9988897 9.1684865,5.9870769 9.25,5.9648438 L 10.271484,7 H 8 C 6.338,7 5,8.338 5,10 v 7 c 0,1.662 1.338,3 3,3 h 8 c 1.662,0 3,-1.338 3,-3 V 10 C 19,8.338 17.662,7 16,7 H 13.736328 L 14.75,5.96875 C 14.82788,5.988708 14.907887,5.9992 14.988281,6 c 0.552285,0 1,-0.4477153 1,-1 0,-0.5522847 -0.447715,-1 -1,-1 -0.552285,1e-7 -1,0.4477153 -1,1 0.0016,0.092697 0.01604,0.1847242 0.04297,0.2734375 L 12.345703,6.9902344 11.675781,7 9.9609375,5.2617188 C 9.9854944,5.1765948 9.9986302,5.0885848 10,5 10,4.4477153 9.5522847,4 9,4 Z M 8,8 h 8 c 1.108,0 2,0.892 2,2 v 5 H 6 V 10 C 6,8.892 6.892,8 8,8 Z m -2,8 h 12 v 1 c 0,1.108 -0.892,2 -2,2 H 15 8 C 6.892,19 6,18.108 6,17 Z m 10.474609,1 C 16.209699,17.013342 16,17.23166 16,17.5 16,17.777 16.223,18 16.5,18 16.777,18 17,17.777 17,17.5 17,17.223 16.777,17 16.5,17 c -0.0087,0 -0.01685,-4.3e-4 -0.02539,0 z" />
</svg>
