<?xml version="1.0" encoding="UTF-8" standalone="no"?>
<!-- Created with Inkscape (http://www.inkscape.org/) -->

<svg
   width="24"
   height="24"
   viewBox="0 0 24 24"
   version="1.1"
   id="svg5"
   inkscape:version="1.2.1 (9c6d41e410, 2022-07-14)"
   sodipodi:docname="folder-yellow-download.svg"
   xmlns:inkscape="http://www.inkscape.org/namespaces/inkscape"
   xmlns:sodipodi="http://sodipodi.sourceforge.net/DTD/sodipodi-0.dtd"
   xmlns:xlink="http://www.w3.org/1999/xlink"
   xmlns="http://www.w3.org/2000/svg"
   xmlns:svg="http://www.w3.org/2000/svg">
  <sodipodi:namedview
     id="namedview7"
     pagecolor="#ffffff"
     bordercolor="#000000"
     borderopacity="0.25"
     inkscape:showpageshadow="2"
     inkscape:pageopacity="0.0"
     inkscape:pagecheckerboard="0"
     inkscape:deskcolor="#d1d1d1"
     inkscape:document-units="px"
     showgrid="false"
     inkscape:zoom="33"
     inkscape:cx="8.3030303"
     inkscape:cy="12"
     inkscape:window-width="1920"
     inkscape:window-height="1004"
     inkscape:window-x="0"
     inkscape:window-y="0"
     inkscape:window-maximized="1"
     inkscape:current-layer="svg5" />
  <defs
     id="defs2">
    <linearGradient
       inkscape:collect="always"
       id="linearGradient3155">
      <stop
         style="stop-color:#e7b64b;stop-opacity:1;"
         offset="0"
         id="stop3151" />
      <stop
         style="stop-color:#be8d1b;stop-opacity:1;"
         offset="1"
         id="stop3153" />
    </linearGradient>
    <linearGradient
       inkscape:collect="always"
       id="linearGradient3147">
      <stop
         style="stop-color:#ffb327;stop-opacity:1;"
         offset="0"
         id="stop3143" />
      <stop
         style="stop-color:#f0c462;stop-opacity:1;"
         offset="1"
         id="stop3145" />
    </linearGradient>
    <linearGradient
       inkscape:collect="always"
       xlink:href="#linearGradient3147"
       id="linearGradient3149"
       x1="76"
       y1="81"
       x2="36"
       y2="13"
       gradientUnits="userSpaceOnUse"
       gradientTransform="matrix(0.25,0,0,0.25,3,1.75)" />
    <linearGradient
       inkscape:collect="always"
       xlink:href="#linearGradient3155"
       id="linearGradient3157"
       x1="22"
       y1="7"
       x2="22"
       y2="35"
       gradientUnits="userSpaceOnUse"
       gradientTransform="matrix(0.25,0,0,0.25,0,0.25)" />
  </defs>
  <path
     d="M 2,3 C 1.4460005,3 1,3.4460005 1,4 v 18 c 0,0.554 0.4460005,1 1,1 h 20 c 0.554,0 1,-0.446 1,-1 V 7 C 23,6.4460005 22.554,6 22,6 H 12 L 10,3.5 C 9.6603625,3.169952 9.5539995,3 9,3 Z"
     style="opacity:0.3;fill:#000000;stroke-width:0.5"
     id="path1016"
     sodipodi:nodetypes="ssssssssccss" />
  <path
     id="rect184"
     style="fill:url(#linearGradient3157);fill-opacity:1;stroke-width:0.5"
     d="M 2,2 C 1.4460006,2 1,2.4460004 1,3 v 16 c 0,0.554 0.4460006,1 1,1 h 20 c 0.554,0 1,-0.446 1,-1 V 6 C 23,5.4460005 22.554,5 22,5 H 12 L 10,2.5 C 9.655655,2.1853323 9.554,2 9,2 Z"
     sodipodi:nodetypes="sccsssssccss" />
  <path
     id="rect1043"
     style="fill:url(#linearGradient3149);fill-opacity:1;stroke-width:0.5"
     d="M 12,5 10,7.5 C 9.666597,7.806988 9.553999,8 9,8 H 2 C 1.4477158,8 1,8.4477155 1,9 v 12 c 0,0.553998 0.4460017,1 1,1 h 20 c 0.553999,0 1,-0.446002 1,-1 V 6 C 23,5.4460015 22.553999,5 22,5 Z"
     sodipodi:nodetypes="ccsssssssssc" />
  <path
     id="path3081"
     style="opacity:0.2;fill:#ffffff;stroke-width:0.5"
     d="M 12,5 10,7.5 C 9.666598,7.806988 9.553999,8 9,8 H 2 C 1.4477164,8 1,8.447716 1,9 v 1 C 1,9.447716 1.4477164,9 2,9 H 9 C 9.553999,9 9.666597,8.8069875 10,8.5 L 12,6 h 10 c 0.553998,0 1,0.446002 1,1 V 6 C 23,5.446002 22.553998,5 22,5 Z"
     sodipodi:nodetypes="ccssscssccscssc" />
  <path
     id="rect6657"
     style="opacity:0.3;fill:#000000;stroke-width:3;stroke-linecap:round;stroke-linejoin:round"
     d="M 11.5,10 C 11.223,10 11,10.223 11,10.5 v 5.585937 L 8.9047578,13.990484 c -0.1958768,-0.19586 -0.5111625,-0.195869 -0.7070313,0 -0.09793,0.09793 -0.1464833,0.225707 -0.1464843,0.353517 -9e-7,0.127808 0.04855,0.255584 0.1464843,0.353515 L 11.5,18 14.804516,14.697516 c 0.195866,-0.195869 0.195866,-0.511163 0,-0.707032 -0.195869,-0.195869 -0.511166,-0.195871 -0.707032,0 L 12,16.085937 V 10.5 C 12,10.223 11.776998,10 11.5,10 Z M 7.5566406,19 C 7.2483661,19 7,19.222999 7,19.5 7,19.776999 7.2483661,20 7.5566406,20 H 15.443359 C 15.751634,20 16,19.776999 16,19.5 16,19.222999 15.751634,19 15.443359,19 Z"
     sodipodi:nodetypes="ssccsscccsccsssssssss" />
</svg>
