<?xml version="1.0" encoding="UTF-8" standalone="no"?>
<!-- Created with Inkscape (http://www.inkscape.org/) -->

<svg
   width="24"
   height="24"
   viewBox="0 0 24 24"
   version="1.1"
   id="svg5"
   inkscape:version="1.2.1 (9c6d41e410, 2022-07-14)"
   sodipodi:docname="folder-green-games.svg"
   xmlns:inkscape="http://www.inkscape.org/namespaces/inkscape"
   xmlns:sodipodi="http://sodipodi.sourceforge.net/DTD/sodipodi-0.dtd"
   xmlns:xlink="http://www.w3.org/1999/xlink"
   xmlns="http://www.w3.org/2000/svg"
   xmlns:svg="http://www.w3.org/2000/svg">
  <sodipodi:namedview
     id="namedview7"
     pagecolor="#ffffff"
     bordercolor="#000000"
     borderopacity="0.25"
     inkscape:showpageshadow="2"
     inkscape:pageopacity="0.0"
     inkscape:pagecheckerboard="0"
     inkscape:deskcolor="#d1d1d1"
     inkscape:document-units="px"
     showgrid="false"
     inkscape:zoom="18.068182"
     inkscape:cx="3.6805031"
     inkscape:cy="8.4679244"
     inkscape:window-width="1920"
     inkscape:window-height="1004"
     inkscape:window-x="0"
     inkscape:window-y="0"
     inkscape:window-maximized="1"
     inkscape:current-layer="svg5"
     showguides="true" />
  <defs
     id="defs2">
    <linearGradient
       inkscape:collect="always"
       id="linearGradient3155">
      <stop
         style="stop-color:#60a53e;stop-opacity:1;"
         offset="0"
         id="stop3151" />
      <stop
         style="stop-color:#49883d;stop-opacity:1;"
         offset="1"
         id="stop3153" />
    </linearGradient>
    <linearGradient
       inkscape:collect="always"
       id="linearGradient3147">
      <stop
         style="stop-color:#38b053;stop-opacity:1;"
         offset="0"
         id="stop3143" />
      <stop
         style="stop-color:#6ec555;stop-opacity:1;"
         offset="1"
         id="stop3145" />
    </linearGradient>
    <linearGradient
       inkscape:collect="always"
       xlink:href="#linearGradient3147"
       id="linearGradient3149"
       x1="76"
       y1="81"
       x2="36"
       y2="13"
       gradientUnits="userSpaceOnUse"
       gradientTransform="matrix(0.25,0,0,0.25,3,1.75)" />
    <linearGradient
       inkscape:collect="always"
       xlink:href="#linearGradient3155"
       id="linearGradient3157"
       x1="22"
       y1="7"
       x2="22"
       y2="35"
       gradientUnits="userSpaceOnUse"
       gradientTransform="matrix(0.25,0,0,0.25,0,0.25)" />
  </defs>
  <path
     d="M 2,3 C 1.4460005,3 1,3.4460005 1,4 v 18 c 0,0.554 0.4460005,1 1,1 h 20 c 0.554,0 1,-0.446 1,-1 V 7 C 23,6.4460005 22.554,6 22,6 H 12 L 10,3.5 C 9.6603625,3.169952 9.5539995,3 9,3 Z"
     style="opacity:0.3;fill:#000000;stroke-width:0.5"
     id="path1016"
     sodipodi:nodetypes="ssssssssccss" />
  <path
     id="rect184"
     style="fill:url(#linearGradient3157);fill-opacity:1;stroke-width:0.5"
     d="M 2,2 C 1.4460006,2 1,2.4460004 1,3 v 16 c 0,0.554 0.4460006,1 1,1 h 20 c 0.554,0 1,-0.446 1,-1 V 6 C 23,5.4460005 22.554,5 22,5 H 12 L 10,2.5 C 9.655655,2.1853323 9.554,2 9,2 Z"
     sodipodi:nodetypes="sccsssssccss" />
  <path
     id="rect1043"
     style="fill:url(#linearGradient3149);fill-opacity:1;stroke-width:0.5"
     d="M 12,5 10,7.5 C 9.666597,7.806988 9.553999,8 9,8 H 2 C 1.4477158,8 1,8.4477155 1,9 v 12 c 0,0.553998 0.4460017,1 1,1 h 20 c 0.553999,0 1,-0.446002 1,-1 V 6 C 23,5.4460015 22.553999,5 22,5 Z"
     sodipodi:nodetypes="ccsssssssssc" />
  <path
     id="path3081"
     style="opacity:0.2;fill:#ffffff;stroke-width:0.5"
     d="M 12,5 10,7.5 C 9.666598,7.806988 9.553999,8 9,8 H 2 C 1.4477164,8 1,8.447716 1,9 v 1 C 1,9.447716 1.4477164,9 2,9 H 9 C 9.553999,9 9.666597,8.8069875 10,8.5 L 12,6 h 10 c 0.553998,0 1,0.446002 1,1 V 6 C 23,5.446002 22.553998,5 22,5 Z"
     sodipodi:nodetypes="ccssscssccscssc" />
  <path
     id="path10781"
     style="color:#727272;opacity:0.6;fill:#ffffff;stroke:none;stroke-width:1"
     d="m 9.5000001,11 c -1.9389962,0 -3.5,1.561004 -3.5,3.5 0,1.938996 1.5610038,3.5 3.5,3.5 H 14.5 C 16.438996,18 18,16.438996 18,14.5 18,12.561004 16.438996,11 14.5,11 Z m 0,1 H 14.5 c 1.384998,0 2.5,1.115003 2.5,2.5 0,1.384998 -1.115002,2.5 -2.5,2.5 H 9.5000001 c -1.3849972,0 -2.5,-1.115002 -2.5,-2.5 0,-1.384997 1.1150028,-2.5 2.5,-2.5 z m -0.5,1 v 1 h -1 v 1 h 1 v 1 H 10 v -1 h 1 V 14 H 10 V 13 Z M 14.5,13 C 14.223859,13 14,13.223859 14,13.5 14,13.776141 14.223859,14 14.5,14 14.776141,14 15,13.776141 15,13.5 15,13.223859 14.776141,13 14.5,13 Z m -1,1 C 13.223859,14 13,14.223859 13,14.5 13,14.776142 13.223859,15 13.5,15 13.776141,15 14,14.776142 14,14.5 14,14.223859 13.776141,14 13.5,14 Z m 2,0 C 15.223859,14 15,14.223859 15,14.5 15,14.776142 15.223859,15 15.5,15 15.776141,15 16,14.776142 16,14.5 16,14.223859 15.776141,14 15.5,14 Z m -1,1 C 14.223859,15 14,15.223859 14,15.5 14,15.776142 14.223859,16 14.5,16 14.776141,16 15,15.776142 15,15.5 15,15.223859 14.776141,15 14.5,15 Z" />
</svg>
