<?xml version="1.0" encoding="UTF-8" standalone="no"?>
<!-- Created with Inkscape (http://www.inkscape.org/) -->

<svg
   width="24"
   height="24"
   viewBox="0 0 24 24"
   version="1.1"
   id="svg5"
   inkscape:version="1.2.1 (9c6d41e410, 2022-07-14)"
   sodipodi:docname="folder-black-recent.svg"
   xmlns:inkscape="http://www.inkscape.org/namespaces/inkscape"
   xmlns:sodipodi="http://sodipodi.sourceforge.net/DTD/sodipodi-0.dtd"
   xmlns:xlink="http://www.w3.org/1999/xlink"
   xmlns="http://www.w3.org/2000/svg"
   xmlns:svg="http://www.w3.org/2000/svg">
  <sodipodi:namedview
     id="namedview7"
     pagecolor="#ffffff"
     bordercolor="#000000"
     borderopacity="0.25"
     inkscape:showpageshadow="2"
     inkscape:pageopacity="0.0"
     inkscape:pagecheckerboard="0"
     inkscape:deskcolor="#d1d1d1"
     inkscape:document-units="px"
     showgrid="false"
     inkscape:zoom="33"
     inkscape:cx="11.984848"
     inkscape:cy="12"
     inkscape:window-width="1920"
     inkscape:window-height="1004"
     inkscape:window-x="0"
     inkscape:window-y="0"
     inkscape:window-maximized="1"
     inkscape:current-layer="svg5" />
  <defs
     id="defs2">
    <linearGradient
       inkscape:collect="always"
       id="linearGradient3155">
      <stop
         style="stop-color:#424242;stop-opacity:1;"
         offset="0"
         id="stop3151" />
      <stop
         style="stop-color:#2f2f2f;stop-opacity:1;"
         offset="1"
         id="stop3153" />
    </linearGradient>
    <linearGradient
       inkscape:collect="always"
       id="linearGradient3147">
      <stop
         style="stop-color:#414141;stop-opacity:1;"
         offset="0"
         id="stop3143" />
      <stop
         style="stop-color:#6a6a6a;stop-opacity:1;"
         offset="1"
         id="stop3145" />
    </linearGradient>
    <linearGradient
       inkscape:collect="always"
       xlink:href="#linearGradient3147"
       id="linearGradient3149"
       x1="76"
       y1="81"
       x2="36"
       y2="13"
       gradientUnits="userSpaceOnUse"
       gradientTransform="matrix(0.25,0,0,0.25,3,1.75)" />
    <linearGradient
       inkscape:collect="always"
       xlink:href="#linearGradient3155"
       id="linearGradient3157"
       x1="22"
       y1="7"
       x2="22"
       y2="35"
       gradientUnits="userSpaceOnUse"
       gradientTransform="matrix(0.25,0,0,0.25,0,0.25)" />
  </defs>
  <path
     d="M 2,3 C 1.4460005,3 1,3.4460005 1,4 v 18 c 0,0.554 0.4460005,1 1,1 h 20 c 0.554,0 1,-0.446 1,-1 V 7 C 23,6.4460005 22.554,6 22,6 H 12 L 10,3.5 C 9.6603625,3.169952 9.5539995,3 9,3 Z"
     style="opacity:0.3;fill:#000000;stroke-width:0.5"
     id="path1016"
     sodipodi:nodetypes="ssssssssccss" />
  <path
     id="rect184"
     style="fill:url(#linearGradient3157);fill-opacity:1;stroke-width:0.5"
     d="M 2,2 C 1.4460006,2 1,2.4460004 1,3 v 16 c 0,0.554 0.4460006,1 1,1 h 20 c 0.554,0 1,-0.446 1,-1 V 6 C 23,5.4460005 22.554,5 22,5 H 12 L 10,2.5 C 9.655655,2.1853323 9.554,2 9,2 Z"
     sodipodi:nodetypes="sccsssssccss" />
  <path
     id="rect1043"
     style="fill:url(#linearGradient3149);fill-opacity:1;stroke-width:0.5"
     d="M 12,5 10,7.5 C 9.666597,7.806988 9.553999,8 9,8 H 2 C 1.4477158,8 1,8.4477155 1,9 v 12 c 0,0.553998 0.4460017,1 1,1 h 20 c 0.553999,0 1,-0.446002 1,-1 V 6 C 23,5.4460015 22.553999,5 22,5 Z"
     sodipodi:nodetypes="ccsssssssssc" />
  <path
     id="path3081"
     style="opacity:0.2;fill:#ffffff;stroke-width:0.5"
     d="M 12,5 10,7.5 C 9.666598,7.806988 9.553999,8 9,8 H 2 C 1.4477164,8 1,8.447716 1,9 v 1 C 1,9.447716 1.4477164,9 2,9 H 9 C 9.553999,9 9.666597,8.8069875 10,8.5 L 12,6 h 10 c 0.553998,0 1,0.446002 1,1 V 6 C 23,5.446002 22.553998,5 22,5 Z"
     sodipodi:nodetypes="ccssscssccscssc" />
  <path
     id="path348"
     style="opacity:0.6;fill:#ffffff;stroke-width:0.714286;stroke-linejoin:round"
     d="M 8 10 L 8 12 L 8 13 L 9 13 L 11 13 L 11 12 L 9.3554688 12 C 10.060451 11.378055 10.985978 11 12 11 C 14.209128 11 16 12.790871 16 15 C 16 17.209128 14.209128 19 12 19 C 10.895436 19 9.8957321 18.551982 9.171875 17.828125 L 8.4726562 18.527344 C 8.5139314 18.568811 8.5570536 18.616742 8.5996094 18.664062 C 9.4919279 19.492677 10.686246 20 12 20 C 14.761409 20 17 17.761408 17 15 C 17 12.238591 14.761409 10 12 10 C 10.873845 10 9.8356399 10.373569 9 11.001953 L 9 10 L 8 10 z M 12 12 L 12 15 L 14.121094 17.121094 L 14.828125 16.414062 L 13 14.585938 L 13 12 L 12 12 z " />
</svg>
